<?xml version="1.0" encoding="UTF-8" standalone="no"?>
<!DOCTYPE svg PUBLIC "-//W3C//DTD SVG 1.1//EN"
 "http://www.w3.org/Graphics/SVG/1.1/DTD/svg11.dtd">
<!-- Generated by graphviz version 2.43.0 (0)
 -->
<!-- Title: src/labs/outlab1/Parser.h Pages: 1 -->
<svg width="1892pt" height="599pt"
 viewBox="0.00 0.00 1892.00 599.00" xmlns="http://www.w3.org/2000/svg" xmlns:xlink="http://www.w3.org/1999/xlink">
<g id="graph0" class="graph" transform="scale(1 1) rotate(0) translate(4 595)">
<title>src/labs/outlab1/Parser.h</title>
<polygon fill="white" stroke="transparent" points="-4,4 -4,-595 1888,-595 1888,4 -4,4"/>
<!-- Node1 -->
<g id="node1" class="node">
<title>Node1</title>
<g id="a_node1"><a xlink:title=" ">
<polygon fill="#bfbfbf" stroke="black" points="682.5,-571.5 682.5,-590.5 817.5,-590.5 817.5,-571.5 682.5,-571.5"/>
<text text-anchor="middle" x="750" y="-578.5" font-family="Helvetica,sans-Serif" font-size="10.00">src/labs/outlab1/Parser.h</text>
</a>
</g>
</g>
<!-- Node2 -->
<g id="node2" class="node">
<title>Node2</title>
<g id="a_node2"><a xlink:title=" ">
<polygon fill="white" stroke="#bfbfbf" points="48,-112.5 48,-131.5 104,-131.5 104,-112.5 48,-112.5"/>
<text text-anchor="middle" x="76" y="-119.5" font-family="Helvetica,sans-Serif" font-size="10.00">iomanip</text>
</a>
</g>
</g>
<!-- Node1&#45;&gt;Node2 -->
<g id="edge1" class="edge">
<title>Node1&#45;&gt;Node2</title>
<path fill="none" stroke="midnightblue" d="M682.45,-577.14C498.1,-568.46 0,-538.64 0,-470 0,-470 0,-470 0,-233 0,-193.28 33.96,-157.5 56.48,-138.15"/>
<polygon fill="midnightblue" stroke="midnightblue" points="58.98,-140.63 64.46,-131.57 54.52,-135.24 58.98,-140.63"/>
</g>
<!-- Node3 -->
<g id="node3" class="node">
<title>Node3</title>
<g id="a_node3"><a xlink:title=" ">
<polygon fill="white" stroke="#bfbfbf" points="1284,-112.5 1284,-131.5 1344,-131.5 1344,-112.5 1284,-112.5"/>
<text text-anchor="middle" x="1314" y="-119.5" font-family="Helvetica,sans-Serif" font-size="10.00">iostream</text>
</a>
</g>
</g>
<!-- Node1&#45;&gt;Node3 -->
<g id="edge2" class="edge">
<title>Node1&#45;&gt;Node3</title>
<path fill="none" stroke="midnightblue" d="M817.6,-574.67C974.86,-561.35 1352,-523.82 1352,-470 1352,-470 1352,-470 1352,-233 1352,-198.81 1335.4,-161.76 1324.14,-140.57"/>
<polygon fill="midnightblue" stroke="midnightblue" points="1327.18,-138.83 1319.28,-131.77 1321.05,-142.22 1327.18,-138.83"/>
</g>
<!-- Node4 -->
<g id="node4" class="node">
<title>Node4</title>
<g id="a_node4"><a xlink:href="../../d0/d7d/CheckBounds_8h.html" target="_top" xlink:title="This file contains the declaration of functions for checking the validity of input parameters.">
<polygon fill="white" stroke="black" points="704,-515.5 704,-534.5 796,-534.5 796,-515.5 704,-515.5"/>
<text text-anchor="middle" x="750" y="-522.5" font-family="Helvetica,sans-Serif" font-size="10.00">CheckBounds.h</text>
</a>
</g>
</g>
<!-- Node1&#45;&gt;Node4 -->
<g id="edge3" class="edge">
<title>Node1&#45;&gt;Node4</title>
<path fill="none" stroke="midnightblue" d="M750,-571.08C750,-564.01 750,-553.86 750,-544.99"/>
<polygon fill="midnightblue" stroke="midnightblue" points="753.5,-544.75 750,-534.75 746.5,-544.75 753.5,-544.75"/>
</g>
<!-- Node7 -->
<g id="node7" class="node">
<title>Node7</title>
<g id="a_node7"><a xlink:href="../../d9/d41/CommandLine_8h.html" target="_top" xlink:title="This file contains the definition of the CommandLine class and the HeaderInfo struct.">
<polygon fill="white" stroke="black" points="948,-459.5 948,-478.5 1044,-478.5 1044,-459.5 948,-459.5"/>
<text text-anchor="middle" x="996" y="-466.5" font-family="Helvetica,sans-Serif" font-size="10.00">CommandLine.h</text>
</a>
</g>
</g>
<!-- Node1&#45;&gt;Node7 -->
<g id="edge70" class="edge">
<title>Node1&#45;&gt;Node7</title>
<path fill="none" stroke="midnightblue" d="M769.3,-571.37C812.42,-552.09 916.71,-505.45 967.4,-482.79"/>
<polygon fill="midnightblue" stroke="midnightblue" points="969.09,-485.87 976.79,-478.59 966.23,-479.48 969.09,-485.87"/>
</g>
<!-- Node10 -->
<g id="node10" class="node">
<title>Node10</title>
<g id="a_node10"><a xlink:href="../../db/df1/Helpers_8h.html" target="_top" xlink:title="This file contains helper functions and structures used throughout the program.">
<polygon fill="white" stroke="black" points="431.5,-403.5 431.5,-422.5 494.5,-422.5 494.5,-403.5 431.5,-403.5"/>
<text text-anchor="middle" x="463" y="-410.5" font-family="Helvetica,sans-Serif" font-size="10.00">Helpers.h</text>
</a>
</g>
</g>
<!-- Node1&#45;&gt;Node10 -->
<g id="edge71" class="edge">
<title>Node1&#45;&gt;Node10</title>
<path fill="none" stroke="midnightblue" d="M713.86,-571.42C663.9,-558.17 572.82,-528.93 510,-479 493.7,-466.05 480.41,-446.05 472.17,-431.66"/>
<polygon fill="midnightblue" stroke="midnightblue" points="475.17,-429.85 467.3,-422.75 469.03,-433.2 475.17,-429.85"/>
</g>
<!-- Node4&#45;&gt;Node2 -->
<g id="edge6" class="edge">
<title>Node4&#45;&gt;Node2</title>
<path fill="none" stroke="midnightblue" d="M703.81,-516.27C655.35,-507.93 577.05,-493.86 510,-479 289.54,-430.14 38,-516.81 38,-291 38,-291 38,-291 38,-233 38,-198.81 54.6,-161.76 65.86,-140.57"/>
<polygon fill="midnightblue" stroke="midnightblue" points="68.95,-142.22 70.72,-131.77 62.82,-138.83 68.95,-142.22"/>
</g>
<!-- Node4&#45;&gt;Node3 -->
<g id="edge5" class="edge">
<title>Node4&#45;&gt;Node3</title>
<path fill="none" stroke="midnightblue" d="M766.83,-515.44C780.94,-507.56 800.84,-494.74 814,-479 839.21,-448.84 895,-326.27 895,-291 895,-291 895,-291 895,-233 895,-155.2 1168.67,-131.31 1273.66,-125"/>
<polygon fill="midnightblue" stroke="midnightblue" points="1274.08,-128.48 1283.87,-124.41 1273.68,-121.49 1274.08,-128.48"/>
</g>
<!-- Node5 -->
<g id="node5" class="node">
<title>Node5</title>
<g id="a_node5"><a xlink:title=" ">
<polygon fill="white" stroke="#bfbfbf" points="679,-342 679,-361 829,-361 829,-342 679,-342"/>
<text text-anchor="middle" x="754" y="-349" font-family="Helvetica,sans-Serif" font-size="10.00">boost/program_options.hpp</text>
</a>
</g>
</g>
<!-- Node4&#45;&gt;Node5 -->
<g id="edge4" class="edge">
<title>Node4&#45;&gt;Node5</title>
<path fill="none" stroke="midnightblue" d="M759.39,-515.4C776.25,-499.26 811.09,-462.46 824,-423 826.76,-414.55 828.05,-410.91 824,-403 815.52,-386.43 798.79,-374.05 783.81,-365.69"/>
<polygon fill="midnightblue" stroke="midnightblue" points="785.29,-362.52 774.8,-361.01 782.06,-368.73 785.29,-362.52"/>
</g>
<!-- Node6 -->
<g id="node6" class="node">
<title>Node6</title>
<g id="a_node6"><a xlink:title=" ">
<polygon fill="white" stroke="#bfbfbf" points="479,-342 479,-361 523,-361 523,-342 479,-342"/>
<text text-anchor="middle" x="501" y="-349" font-family="Helvetica,sans-Serif" font-size="10.00">limits</text>
</a>
</g>
</g>
<!-- Node4&#45;&gt;Node6 -->
<g id="edge7" class="edge">
<title>Node4&#45;&gt;Node6</title>
<path fill="none" stroke="midnightblue" d="M737.65,-515.5C697.74,-488.01 571.92,-401.35 521.85,-366.86"/>
<polygon fill="midnightblue" stroke="midnightblue" points="523.64,-363.85 513.42,-361.06 519.67,-369.61 523.64,-363.85"/>
</g>
<!-- Node4&#45;&gt;Node7 -->
<g id="edge8" class="edge">
<title>Node4&#45;&gt;Node7</title>
<path fill="none" stroke="midnightblue" d="M788.98,-515.44C831.89,-506.02 900.95,-490.87 947.37,-480.68"/>
<polygon fill="midnightblue" stroke="midnightblue" points="948.19,-484.08 957.2,-478.52 946.69,-477.24 948.19,-484.08"/>
</g>
<!-- Node9 -->
<g id="node9" class="node">
<title>Node9</title>
<g id="a_node9"><a xlink:title=" ">
<polygon fill="white" stroke="#bfbfbf" points="603,-342 603,-361 661,-361 661,-342 603,-342"/>
<text text-anchor="middle" x="632" y="-349" font-family="Helvetica,sans-Serif" font-size="10.00">json.hpp</text>
</a>
</g>
</g>
<!-- Node4&#45;&gt;Node9 -->
<g id="edge69" class="edge">
<title>Node4&#45;&gt;Node9</title>
<path fill="none" stroke="midnightblue" d="M743.1,-515.28C729.54,-498.02 698.69,-458.13 675,-423 663.15,-405.42 650.64,-384.63 642.19,-370.2"/>
<polygon fill="midnightblue" stroke="midnightblue" points="645.1,-368.23 637.05,-361.34 639.04,-371.75 645.1,-368.23"/>
</g>
<!-- Node4&#45;&gt;Node10 -->
<g id="edge68" class="edge">
<title>Node4&#45;&gt;Node10</title>
<path fill="none" stroke="midnightblue" d="M703.69,-519.87C660.83,-514.68 596.19,-503.3 545,-479 519.01,-466.66 493.79,-444.71 478.34,-429.76"/>
<polygon fill="midnightblue" stroke="midnightblue" points="480.76,-427.23 471.19,-422.67 475.82,-432.2 480.76,-427.23"/>
</g>
<!-- Node7&#45;&gt;Node3 -->
<g id="edge65" class="edge">
<title>Node7&#45;&gt;Node3</title>
<path fill="none" stroke="midnightblue" d="M1044.3,-460.76C1133.26,-446.05 1314,-409.18 1314,-352.5 1314,-352.5 1314,-352.5 1314,-233 1314,-200.95 1314,-163.64 1314,-141.75"/>
<polygon fill="midnightblue" stroke="midnightblue" points="1317.5,-141.56 1314,-131.56 1310.5,-141.56 1317.5,-141.56"/>
</g>
<!-- Node7&#45;&gt;Node5 -->
<g id="edge64" class="edge">
<title>Node7&#45;&gt;Node5</title>
<path fill="none" stroke="midnightblue" d="M977.81,-459.32C935.66,-439.2 831.12,-389.31 781.28,-365.52"/>
<polygon fill="midnightblue" stroke="midnightblue" points="782.6,-362.27 772.07,-361.12 779.59,-368.59 782.6,-362.27"/>
</g>
<!-- Node8 -->
<g id="node8" class="node">
<title>Node8</title>
<g id="a_node8"><a xlink:href="../../d2/d0e/CommandlineHelpers_8h.html" target="_top" xlink:title="This file contains helper functions for handling command line options and initializing the profiler.">
<polygon fill="white" stroke="black" points="684.5,-403.5 684.5,-422.5 815.5,-422.5 815.5,-403.5 684.5,-403.5"/>
<text text-anchor="middle" x="750" y="-410.5" font-family="Helvetica,sans-Serif" font-size="10.00">CommandlineHelpers.h</text>
</a>
</g>
</g>
<!-- Node7&#45;&gt;Node8 -->
<g id="edge9" class="edge">
<title>Node7&#45;&gt;Node8</title>
<path fill="none" stroke="midnightblue" d="M957.02,-459.44C914.11,-450.02 845.05,-434.87 798.63,-424.68"/>
<polygon fill="midnightblue" stroke="midnightblue" points="799.31,-421.24 788.8,-422.52 797.81,-428.08 799.31,-421.24"/>
</g>
<!-- Node7&#45;&gt;Node10 -->
<g id="edge13" class="edge">
<title>Node7&#45;&gt;Node10</title>
<path fill="none" stroke="midnightblue" d="M947.76,-463.11C844.16,-452.62 601.94,-428.08 504.59,-418.21"/>
<polygon fill="midnightblue" stroke="midnightblue" points="504.85,-414.72 494.54,-417.2 504.14,-421.69 504.85,-414.72"/>
</g>
<!-- Node12 -->
<g id="node12" class="node">
<title>Node12</title>
<g id="a_node12"><a xlink:title=" ">
<polygon fill="white" stroke="#bfbfbf" points="541,-342 541,-361 585,-361 585,-342 541,-342"/>
<text text-anchor="middle" x="563" y="-349" font-family="Helvetica,sans-Serif" font-size="10.00">string</text>
</a>
</g>
</g>
<!-- Node7&#45;&gt;Node12 -->
<g id="edge66" class="edge">
<title>Node7&#45;&gt;Node12</title>
<path fill="none" stroke="midnightblue" d="M947.98,-467.5C883.86,-465.45 767.62,-456.87 675,-423 639.13,-409.88 602.61,-384.07 581.42,-367.58"/>
<polygon fill="midnightblue" stroke="midnightblue" points="583.33,-364.63 573.32,-361.15 578.97,-370.11 583.33,-364.63"/>
</g>
<!-- Node15 -->
<g id="node15" class="node">
<title>Node15</title>
<g id="a_node15"><a xlink:href="../../df/d69/Profiler_8h.html" target="_top" xlink:title="This file contains the Profiler class which is used to profile the execution time of a function.">
<polygon fill="white" stroke="black" points="962.5,-403.5 962.5,-422.5 1021.5,-422.5 1021.5,-403.5 962.5,-403.5"/>
<text text-anchor="middle" x="992" y="-410.5" font-family="Helvetica,sans-Serif" font-size="10.00">Profiler.h</text>
</a>
</g>
</g>
<!-- Node7&#45;&gt;Node15 -->
<g id="edge23" class="edge">
<title>Node7&#45;&gt;Node15</title>
<path fill="none" stroke="midnightblue" d="M995.34,-459.08C994.82,-452.01 994.06,-441.86 993.41,-432.99"/>
<polygon fill="midnightblue" stroke="midnightblue" points="996.88,-432.47 992.65,-422.75 989.9,-432.98 996.88,-432.47"/>
</g>
<!-- Node19 -->
<g id="node19" class="node">
<title>Node19</title>
<g id="a_node19"><a xlink:title=" ">
<polygon fill="white" stroke="#bfbfbf" points="1240.5,-342 1240.5,-361 1285.5,-361 1285.5,-342 1240.5,-342"/>
<text text-anchor="middle" x="1263" y="-349" font-family="Helvetica,sans-Serif" font-size="10.00">utility</text>
</a>
</g>
</g>
<!-- Node7&#45;&gt;Node19 -->
<g id="edge67" class="edge">
<title>Node7&#45;&gt;Node19</title>
<path fill="none" stroke="midnightblue" d="M1003.1,-459.32C1015.12,-445.23 1040.95,-417.48 1069,-403 1132.62,-370.17 1157.6,-388.12 1226,-367 1228.42,-366.25 1230.91,-365.42 1233.4,-364.54"/>
<polygon fill="midnightblue" stroke="midnightblue" points="1234.69,-367.8 1242.84,-361.03 1232.24,-361.24 1234.69,-367.8"/>
</g>
<!-- Node36 -->
<g id="node36" class="node">
<title>Node36</title>
<g id="a_node36"><a xlink:title=" ">
<polygon fill="white" stroke="#bfbfbf" points="1078,-403.5 1078,-422.5 1170,-422.5 1170,-403.5 1078,-403.5"/>
<text text-anchor="middle" x="1124" y="-410.5" font-family="Helvetica,sans-Serif" font-size="10.00">project&#45;config.h</text>
</a>
</g>
</g>
<!-- Node7&#45;&gt;Node36 -->
<g id="edge63" class="edge">
<title>Node7&#45;&gt;Node36</title>
<path fill="none" stroke="midnightblue" d="M1016.28,-459.44C1037.35,-450.56 1070.52,-436.56 1094.49,-426.45"/>
<polygon fill="midnightblue" stroke="midnightblue" points="1095.96,-429.63 1103.81,-422.52 1093.24,-423.18 1095.96,-429.63"/>
</g>
<!-- Node8&#45;&gt;Node4 -->
<g id="edge10" class="edge">
<title>Node8&#45;&gt;Node4</title>
<path fill="none" stroke="midnightblue" d="M750,-422.59C750,-440.31 750,-481.25 750,-505.35"/>
<polygon fill="midnightblue" stroke="midnightblue" points="746.5,-505.37 750,-515.37 753.5,-505.37 746.5,-505.37"/>
</g>
<!-- Node8&#45;&gt;Node5 -->
<g id="edge12" class="edge">
<title>Node8&#45;&gt;Node5</title>
<path fill="none" stroke="midnightblue" d="M750.57,-403.48C751.14,-395.08 752.02,-381.98 752.75,-371.16"/>
<polygon fill="midnightblue" stroke="midnightblue" points="756.25,-371.22 753.43,-361.01 749.26,-370.75 756.25,-371.22"/>
</g>
<!-- Node8&#45;&gt;Node9 -->
<g id="edge11" class="edge">
<title>Node8&#45;&gt;Node9</title>
<path fill="none" stroke="midnightblue" d="M733.09,-403.48C713.47,-393.58 680.87,-377.14 658.01,-365.62"/>
<polygon fill="midnightblue" stroke="midnightblue" points="659.38,-362.39 648.88,-361.01 656.23,-368.64 659.38,-362.39"/>
</g>
<!-- Node10&#45;&gt;Node2 -->
<g id="edge14" class="edge">
<title>Node10&#45;&gt;Node2</title>
<path fill="none" stroke="midnightblue" d="M431.47,-412.55C351.68,-413.28 144.56,-410.79 95,-367 68.91,-343.94 76,-325.82 76,-291 76,-291 76,-291 76,-233 76,-200.95 76,-163.64 76,-141.75"/>
<polygon fill="midnightblue" stroke="midnightblue" points="79.5,-141.56 76,-131.56 72.5,-141.56 79.5,-141.56"/>
</g>
<!-- Node10&#45;&gt;Node3 -->
<g id="edge15" class="edge">
<title>Node10&#45;&gt;Node3</title>
<path fill="none" stroke="midnightblue" d="M461.17,-403.48C458.42,-388.3 455.02,-356.23 470,-336 587.42,-177.4 689.59,-216.02 881,-168 1022.25,-132.56 1196.18,-124.98 1273.57,-123.39"/>
<polygon fill="midnightblue" stroke="midnightblue" points="1273.9,-126.89 1283.83,-123.21 1273.77,-119.89 1273.9,-126.89"/>
</g>
<!-- Node10&#45;&gt;Node5 -->
<g id="edge20" class="edge">
<title>Node10&#45;&gt;Node5</title>
<path fill="none" stroke="midnightblue" d="M494.7,-405.52C544.55,-395.33 641.79,-375.44 701.99,-363.13"/>
<polygon fill="midnightblue" stroke="midnightblue" points="702.95,-366.51 712.05,-361.08 701.55,-359.65 702.95,-366.51"/>
</g>
<!-- Node10&#45;&gt;Node6 -->
<g id="edge16" class="edge">
<title>Node10&#45;&gt;Node6</title>
<path fill="none" stroke="midnightblue" d="M468.44,-403.48C474.09,-394.64 483.06,-380.59 490.16,-369.48"/>
<polygon fill="midnightblue" stroke="midnightblue" points="493.13,-371.32 495.57,-361.01 487.23,-367.55 493.13,-371.32"/>
</g>
<!-- Node10&#45;&gt;Node9 -->
<g id="edge19" class="edge">
<title>Node10&#45;&gt;Node9</title>
<path fill="none" stroke="midnightblue" d="M488.69,-403.46C515.17,-394.59 557.6,-380.19 594,-367 596.1,-366.24 598.27,-365.44 600.45,-364.63"/>
<polygon fill="midnightblue" stroke="midnightblue" points="601.82,-367.86 609.94,-361.06 599.35,-361.31 601.82,-367.86"/>
</g>
<!-- Node11 -->
<g id="node11" class="node">
<title>Node11</title>
<g id="a_node11"><a xlink:title=" ">
<polygon fill="white" stroke="#bfbfbf" points="104,-342 104,-361 160,-361 160,-342 104,-342"/>
<text text-anchor="middle" x="132" y="-349" font-family="Helvetica,sans-Serif" font-size="10.00">sstream</text>
</a>
</g>
</g>
<!-- Node10&#45;&gt;Node11 -->
<g id="edge17" class="edge">
<title>Node10&#45;&gt;Node11</title>
<path fill="none" stroke="midnightblue" d="M431.2,-409.46C376.75,-404.59 262.5,-392.14 169,-367 166.34,-366.29 163.62,-365.44 160.91,-364.53"/>
<polygon fill="midnightblue" stroke="midnightblue" points="161.91,-361.17 151.31,-361 159.49,-367.74 161.91,-361.17"/>
</g>
<!-- Node10&#45;&gt;Node12 -->
<g id="edge18" class="edge">
<title>Node10&#45;&gt;Node12</title>
<path fill="none" stroke="midnightblue" d="M477.33,-403.48C493.66,-393.75 520.6,-377.73 539.91,-366.24"/>
<polygon fill="midnightblue" stroke="midnightblue" points="541.89,-369.13 548.7,-361.01 538.32,-363.11 541.89,-369.13"/>
</g>
<!-- Node13 -->
<g id="node13" class="node">
<title>Node13</title>
<g id="a_node13"><a xlink:title=" ">
<polygon fill="white" stroke="#bfbfbf" points="178.5,-336.5 178.5,-366.5 291.5,-366.5 291.5,-336.5 178.5,-336.5"/>
<text text-anchor="start" x="186.5" y="-354.5" font-family="Helvetica,sans-Serif" font-size="10.00">boost/accumulators</text>
<text text-anchor="middle" x="235" y="-343.5" font-family="Helvetica,sans-Serif" font-size="10.00">/accumulators.hpp</text>
</a>
</g>
</g>
<!-- Node10&#45;&gt;Node13 -->
<g id="edge21" class="edge">
<title>Node10&#45;&gt;Node13</title>
<path fill="none" stroke="midnightblue" d="M431.3,-403.73C397.13,-394.81 341.84,-380.38 298.63,-369.11"/>
<polygon fill="midnightblue" stroke="midnightblue" points="299.33,-365.67 288.77,-366.53 297.56,-372.44 299.33,-365.67"/>
</g>
<!-- Node14 -->
<g id="node14" class="node">
<title>Node14</title>
<g id="a_node14"><a xlink:title=" ">
<polygon fill="white" stroke="#bfbfbf" points="309.5,-336.5 309.5,-366.5 422.5,-366.5 422.5,-336.5 309.5,-336.5"/>
<text text-anchor="start" x="317.5" y="-354.5" font-family="Helvetica,sans-Serif" font-size="10.00">boost/accumulators</text>
<text text-anchor="middle" x="366" y="-343.5" font-family="Helvetica,sans-Serif" font-size="10.00">/statistics.hpp</text>
</a>
</g>
</g>
<!-- Node10&#45;&gt;Node14 -->
<g id="edge22" class="edge">
<title>Node10&#45;&gt;Node14</title>
<path fill="none" stroke="midnightblue" d="M449.1,-403.48C435.72,-395.27 415,-382.56 397.6,-371.88"/>
<polygon fill="midnightblue" stroke="midnightblue" points="399.22,-368.77 388.86,-366.52 395.56,-374.74 399.22,-368.77"/>
</g>
<!-- Node15&#45;&gt;Node2 -->
<g id="edge26" class="edge">
<title>Node15&#45;&gt;Node2</title>
<path fill="none" stroke="midnightblue" d="M977.12,-403.49C950.11,-388.3 890.91,-356.25 838,-336 568.04,-232.69 227.03,-155.3 114.18,-131.02"/>
<polygon fill="midnightblue" stroke="midnightblue" points="114.79,-127.58 104.28,-128.91 113.33,-134.42 114.79,-127.58"/>
</g>
<!-- Node15&#45;&gt;Node3 -->
<g id="edge27" class="edge">
<title>Node15&#45;&gt;Node3</title>
<path fill="none" stroke="midnightblue" d="M1021.54,-405.8C1076.65,-394.18 1189.9,-370.02 1193,-367 1217.92,-342.69 1212,-325.82 1212,-291 1212,-291 1212,-291 1212,-233 1212,-188.39 1257.66,-154.23 1287.88,-136.51"/>
<polygon fill="midnightblue" stroke="midnightblue" points="1289.7,-139.5 1296.7,-131.55 1286.27,-133.4 1289.7,-139.5"/>
</g>
<!-- Node15&#45;&gt;Node4 -->
<g id="edge30" class="edge">
<title>Node15&#45;&gt;Node4</title>
<path fill="none" stroke="midnightblue" d="M981.69,-422.51C964.76,-436.13 929.58,-462.9 896,-479 864.76,-493.98 827.4,-505.38 798.29,-512.97"/>
<polygon fill="midnightblue" stroke="midnightblue" points="797.19,-509.63 788.36,-515.49 798.92,-516.42 797.19,-509.63"/>
</g>
<!-- Node15&#45;&gt;Node9 -->
<g id="edge33" class="edge">
<title>Node15&#45;&gt;Node9</title>
<path fill="none" stroke="midnightblue" d="M962.26,-410.09C904.95,-405.93 775.51,-394.13 670,-367 667.18,-366.27 664.28,-365.41 661.4,-364.46"/>
<polygon fill="midnightblue" stroke="midnightblue" points="662.44,-361.11 651.84,-361.04 660.08,-367.7 662.44,-361.11"/>
</g>
<!-- Node16 -->
<g id="node16" class="node">
<title>Node16</title>
<g id="a_node16"><a xlink:title=" ">
<polygon fill="white" stroke="#bfbfbf" points="1128.5,-342 1128.5,-361 1183.5,-361 1183.5,-342 1128.5,-342"/>
<text text-anchor="middle" x="1156" y="-349" font-family="Helvetica,sans-Serif" font-size="10.00">fstream</text>
</a>
</g>
</g>
<!-- Node15&#45;&gt;Node16 -->
<g id="edge24" class="edge">
<title>Node15&#45;&gt;Node16</title>
<path fill="none" stroke="midnightblue" d="M1017.62,-403.37C1043.55,-394.55 1084.73,-380.29 1120,-367 1121.84,-366.3 1123.74,-365.58 1125.64,-364.84"/>
<polygon fill="midnightblue" stroke="midnightblue" points="1127.11,-368.02 1135.12,-361.09 1124.54,-361.51 1127.11,-368.02"/>
</g>
<!-- Node17 -->
<g id="node17" class="node">
<title>Node17</title>
<g id="a_node17"><a xlink:title=" ">
<polygon fill="white" stroke="#bfbfbf" points="1423.5,-56.5 1423.5,-75.5 1488.5,-75.5 1488.5,-56.5 1423.5,-56.5"/>
<text text-anchor="middle" x="1456" y="-63.5" font-family="Helvetica,sans-Serif" font-size="10.00">functional</text>
</a>
</g>
</g>
<!-- Node15&#45;&gt;Node17 -->
<g id="edge25" class="edge">
<title>Node15&#45;&gt;Node17</title>
<path fill="none" stroke="midnightblue" d="M981.94,-403.37C972.8,-394.98 959.61,-381.42 952,-367 935.74,-336.21 933,-325.82 933,-291 933,-291 933,-291 933,-177 933,-79.18 1287.8,-67.87 1412.94,-66.93"/>
<polygon fill="midnightblue" stroke="midnightblue" points="1413.3,-70.43 1423.28,-66.87 1413.26,-63.43 1413.3,-70.43"/>
</g>
<!-- Node18 -->
<g id="node18" class="node">
<title>Node18</title>
<g id="a_node18"><a xlink:title=" ">
<polygon fill="white" stroke="#bfbfbf" points="961,-342 961,-361 1015,-361 1015,-342 961,-342"/>
<text text-anchor="middle" x="988" y="-349" font-family="Helvetica,sans-Serif" font-size="10.00">random</text>
</a>
</g>
</g>
<!-- Node15&#45;&gt;Node18 -->
<g id="edge28" class="edge">
<title>Node15&#45;&gt;Node18</title>
<path fill="none" stroke="midnightblue" d="M991.43,-403.48C990.86,-395.08 989.98,-381.98 989.25,-371.16"/>
<polygon fill="midnightblue" stroke="midnightblue" points="992.74,-370.75 988.57,-361.01 985.75,-371.22 992.74,-370.75"/>
</g>
<!-- Node15&#45;&gt;Node19 -->
<g id="edge29" class="edge">
<title>Node15&#45;&gt;Node19</title>
<path fill="none" stroke="midnightblue" d="M1021.81,-405.84C1026.55,-404.88 1031.41,-403.9 1036,-403 1120.33,-386.39 1143.41,-390.78 1226,-367 1228.58,-366.26 1231.24,-365.4 1233.88,-364.49"/>
<polygon fill="midnightblue" stroke="midnightblue" points="1235.1,-367.77 1243.26,-361.02 1232.67,-361.21 1235.1,-367.77"/>
</g>
<!-- Node20 -->
<g id="node20" class="node">
<title>Node20</title>
<g id="a_node20"><a xlink:href="../../d4/d2e/Stopwatch_8h.html" target="_top" xlink:title="This file contains the Stopwatch class which is a utility for measuring time durations in various uni...">
<polygon fill="white" stroke="black" points="1033.5,-342 1033.5,-361 1110.5,-361 1110.5,-342 1033.5,-342"/>
<text text-anchor="middle" x="1072" y="-349" font-family="Helvetica,sans-Serif" font-size="10.00">Stopwatch.h</text>
</a>
</g>
</g>
<!-- Node15&#45;&gt;Node20 -->
<g id="edge31" class="edge">
<title>Node15&#45;&gt;Node20</title>
<path fill="none" stroke="midnightblue" d="M1003.46,-403.48C1016.17,-394.02 1036.91,-378.6 1052.25,-367.19"/>
<polygon fill="midnightblue" stroke="midnightblue" points="1054.62,-369.79 1060.56,-361.01 1050.45,-364.17 1054.62,-369.79"/>
</g>
<!-- Node22 -->
<g id="node22" class="node">
<title>Node22</title>
<g id="a_node22"><a xlink:href="../../dc/d09/Stats_8h.html" target="_top" xlink:title="This file contains the declaration of statistical functions and structures for vectors and matrices.">
<polygon fill="white" stroke="black" points="1527,-342 1527,-361 1629,-361 1629,-342 1527,-342"/>
<text text-anchor="middle" x="1578" y="-349" font-family="Helvetica,sans-Serif" font-size="10.00">math/blas/Stats.h</text>
</a>
</g>
</g>
<!-- Node15&#45;&gt;Node22 -->
<g id="edge34" class="edge">
<title>Node15&#45;&gt;Node22</title>
<path fill="none" stroke="midnightblue" d="M1021.6,-408.42C1035.91,-406.72 1053.34,-404.69 1069,-403 1230.42,-385.56 1420.91,-367.27 1516.6,-358.24"/>
<polygon fill="midnightblue" stroke="midnightblue" points="1517.05,-361.72 1526.67,-357.29 1516.39,-354.75 1517.05,-361.72"/>
</g>
<!-- Node21 -->
<g id="node21" class="node">
<title>Node21</title>
<g id="a_node21"><a xlink:title=" ">
<polygon fill="white" stroke="#bfbfbf" points="1047,-280.5 1047,-299.5 1097,-299.5 1097,-280.5 1047,-280.5"/>
<text text-anchor="middle" x="1072" y="-287.5" font-family="Helvetica,sans-Serif" font-size="10.00">chrono</text>
</a>
</g>
</g>
<!-- Node20&#45;&gt;Node21 -->
<g id="edge32" class="edge">
<title>Node20&#45;&gt;Node21</title>
<path fill="none" stroke="midnightblue" d="M1072,-341.98C1072,-333.58 1072,-320.48 1072,-309.66"/>
<polygon fill="midnightblue" stroke="midnightblue" points="1075.5,-309.51 1072,-299.51 1068.5,-309.51 1075.5,-309.51"/>
</g>
<!-- Node23 -->
<g id="node23" class="node">
<title>Node23</title>
<g id="a_node23"><a xlink:title=" ">
<polygon fill="white" stroke="#bfbfbf" points="1776,-56.5 1776,-75.5 1840,-75.5 1840,-56.5 1776,-56.5"/>
<text text-anchor="middle" x="1808" y="-63.5" font-family="Helvetica,sans-Serif" font-size="10.00">algorithm</text>
</a>
</g>
</g>
<!-- Node22&#45;&gt;Node23 -->
<g id="edge35" class="edge">
<title>Node22&#45;&gt;Node23</title>
<path fill="none" stroke="midnightblue" d="M1629.22,-342.06C1716.33,-326.24 1884,-288.8 1884,-235 1884,-235 1884,-235 1884,-177 1884,-137.28 1850.04,-101.5 1827.52,-82.15"/>
<polygon fill="midnightblue" stroke="midnightblue" points="1829.48,-79.24 1819.54,-75.57 1825.02,-84.63 1829.48,-79.24"/>
</g>
<!-- Node24 -->
<g id="node24" class="node">
<title>Node24</title>
<g id="a_node24"><a xlink:title=" ">
<polygon fill="white" stroke="#bfbfbf" points="1556.5,-224.5 1556.5,-243.5 1603.5,-243.5 1603.5,-224.5 1556.5,-224.5"/>
<text text-anchor="middle" x="1580" y="-231.5" font-family="Helvetica,sans-Serif" font-size="10.00">cmath</text>
</a>
</g>
</g>
<!-- Node22&#45;&gt;Node24 -->
<g id="edge36" class="edge">
<title>Node22&#45;&gt;Node24</title>
<path fill="none" stroke="midnightblue" d="M1526.96,-346.95C1465.7,-340.68 1375.18,-323.87 1409,-280 1425.61,-258.45 1501.23,-245.17 1546.15,-239.03"/>
<polygon fill="midnightblue" stroke="midnightblue" points="1546.86,-242.47 1556.32,-237.7 1545.95,-235.53 1546.86,-242.47"/>
</g>
<!-- Node25 -->
<g id="node25" class="node">
<title>Node25</title>
<g id="a_node25"><a xlink:title=" ">
<polygon fill="white" stroke="#bfbfbf" points="1418,-280.5 1418,-299.5 1474,-299.5 1474,-280.5 1418,-280.5"/>
<text text-anchor="middle" x="1446" y="-287.5" font-family="Helvetica,sans-Serif" font-size="10.00">numeric</text>
</a>
</g>
</g>
<!-- Node22&#45;&gt;Node25 -->
<g id="edge37" class="edge">
<title>Node22&#45;&gt;Node25</title>
<path fill="none" stroke="midnightblue" d="M1559.09,-341.98C1536.84,-331.95 1499.69,-315.2 1474.07,-303.65"/>
<polygon fill="midnightblue" stroke="midnightblue" points="1475.43,-300.43 1464.88,-299.51 1472.56,-306.81 1475.43,-300.43"/>
</g>
<!-- Node26 -->
<g id="node26" class="node">
<title>Node26</title>
<g id="a_node26"><a xlink:title=" ">
<polygon fill="white" stroke="#bfbfbf" points="1492.5,-280.5 1492.5,-299.5 1549.5,-299.5 1549.5,-280.5 1492.5,-280.5"/>
<text text-anchor="middle" x="1521" y="-287.5" font-family="Helvetica,sans-Serif" font-size="10.00">ostream</text>
</a>
</g>
</g>
<!-- Node22&#45;&gt;Node26 -->
<g id="edge38" class="edge">
<title>Node22&#45;&gt;Node26</title>
<path fill="none" stroke="midnightblue" d="M1569.83,-341.98C1561.11,-332.87 1547.1,-318.24 1536.31,-306.98"/>
<polygon fill="midnightblue" stroke="midnightblue" points="1538.6,-304.31 1529.15,-299.51 1533.54,-309.15 1538.6,-304.31"/>
</g>
<!-- Node27 -->
<g id="node27" class="node">
<title>Node27</title>
<g id="a_node27"><a xlink:title=" ">
<polygon fill="white" stroke="#bfbfbf" points="1732.5,-112.5 1732.5,-131.5 1779.5,-131.5 1779.5,-112.5 1732.5,-112.5"/>
<text text-anchor="middle" x="1756" y="-119.5" font-family="Helvetica,sans-Serif" font-size="10.00">vector</text>
</a>
</g>
</g>
<!-- Node22&#45;&gt;Node27 -->
<g id="edge39" class="edge">
<title>Node22&#45;&gt;Node27</title>
<path fill="none" stroke="midnightblue" d="M1629.11,-343.64C1685.25,-333.07 1772.78,-306.94 1813,-244 1835.69,-208.49 1797.56,-162.52 1773.45,-138.76"/>
<polygon fill="midnightblue" stroke="midnightblue" points="1775.57,-135.95 1765.91,-131.6 1770.75,-141.03 1775.57,-135.95"/>
</g>
<!-- Node28 -->
<g id="node28" class="node">
<title>Node28</title>
<g id="a_node28"><a xlink:href="../../d1/d80/BLAS_8h.html" target="_top" xlink:title=" ">
<polygon fill="white" stroke="black" points="1606.5,-280.5 1606.5,-299.5 1657.5,-299.5 1657.5,-280.5 1606.5,-280.5"/>
<text text-anchor="middle" x="1632" y="-287.5" font-family="Helvetica,sans-Serif" font-size="10.00">BLAS.h</text>
</a>
</g>
</g>
<!-- Node22&#45;&gt;Node28 -->
<g id="edge40" class="edge">
<title>Node22&#45;&gt;Node28</title>
<path fill="none" stroke="midnightblue" d="M1585.74,-341.98C1594,-332.87 1607.28,-318.24 1617.49,-306.98"/>
<polygon fill="midnightblue" stroke="midnightblue" points="1620.15,-309.27 1624.28,-299.51 1614.97,-304.56 1620.15,-309.27"/>
</g>
<!-- Node29 -->
<g id="node29" class="node">
<title>Node29</title>
<g id="a_node29"><a xlink:href="../../d3/db1/Matrix_8h.html" target="_top" xlink:title="This file contains my BLAS::Matrix declarations.">
<polygon fill="white" stroke="black" points="1660,-224.5 1660,-243.5 1804,-243.5 1804,-224.5 1660,-224.5"/>
<text text-anchor="middle" x="1732" y="-231.5" font-family="Helvetica,sans-Serif" font-size="10.00">math/blas/matrix/Matrix.h</text>
</a>
</g>
</g>
<!-- Node22&#45;&gt;Node29 -->
<g id="edge61" class="edge">
<title>Node22&#45;&gt;Node29</title>
<path fill="none" stroke="midnightblue" d="M1596.27,-341.96C1614.91,-332.83 1644.24,-317.33 1667,-300 1686.14,-285.43 1705.27,-265.48 1717.77,-251.54"/>
<polygon fill="midnightblue" stroke="midnightblue" points="1720.66,-253.56 1724.64,-243.74 1715.4,-248.94 1720.66,-253.56"/>
</g>
<!-- Node32 -->
<g id="node32" class="node">
<title>Node32</title>
<g id="a_node32"><a xlink:href="../../d6/dbe/Vector_8h.html" target="_top" xlink:title="This file contains my BLAS::Vector implementation.">
<polygon fill="white" stroke="black" points="1418.5,-168.5 1418.5,-187.5 1559.5,-187.5 1559.5,-168.5 1418.5,-168.5"/>
<text text-anchor="middle" x="1489" y="-175.5" font-family="Helvetica,sans-Serif" font-size="10.00">math/blas/vector/Vector.h</text>
</a>
</g>
</g>
<!-- Node22&#45;&gt;Node32 -->
<g id="edge62" class="edge">
<title>Node22&#45;&gt;Node32</title>
<path fill="none" stroke="midnightblue" d="M1576.67,-341.93C1574.34,-328.32 1568.82,-301.16 1559,-280 1543.96,-247.61 1518.67,-214.4 1502.96,-195.29"/>
<polygon fill="midnightblue" stroke="midnightblue" points="1505.58,-192.98 1496.48,-187.55 1500.21,-197.47 1505.58,-192.98"/>
</g>
<!-- Node28&#45;&gt;Node24 -->
<g id="edge41" class="edge">
<title>Node28&#45;&gt;Node24</title>
<path fill="none" stroke="midnightblue" d="M1623.41,-280.08C1615.84,-272.22 1604.62,-260.57 1595.49,-251.08"/>
<polygon fill="midnightblue" stroke="midnightblue" points="1597.88,-248.53 1588.43,-243.75 1592.84,-253.38 1597.88,-248.53"/>
</g>
<!-- Node28&#45;&gt;Node29 -->
<g id="edge42" class="edge">
<title>Node28&#45;&gt;Node29</title>
<path fill="none" stroke="midnightblue" d="M1648.07,-280.32C1663.96,-271.74 1688.51,-258.49 1706.96,-248.52"/>
<polygon fill="midnightblue" stroke="midnightblue" points="1708.84,-251.49 1715.97,-243.65 1705.51,-245.33 1708.84,-251.49"/>
</g>
<!-- Node28&#45;&gt;Node32 -->
<g id="edge60" class="edge">
<title>Node28&#45;&gt;Node32</title>
<path fill="none" stroke="midnightblue" d="M1631.85,-280.21C1631.14,-266.45 1627.8,-239.78 1613,-224 1597.44,-207.42 1575.3,-196.93 1554.02,-190.3"/>
<polygon fill="midnightblue" stroke="midnightblue" points="1554.91,-186.91 1544.33,-187.52 1552.97,-193.64 1554.91,-186.91"/>
</g>
<!-- Node29&#45;&gt;Node3 -->
<g id="edge45" class="edge">
<title>Node29&#45;&gt;Node3</title>
<path fill="none" stroke="midnightblue" d="M1659.7,-226.73C1579.1,-219.08 1454.26,-205.01 1410,-188 1379.81,-176.39 1349.69,-153.74 1331.45,-138.49"/>
<polygon fill="midnightblue" stroke="midnightblue" points="1333.38,-135.53 1323.51,-131.68 1328.82,-140.84 1333.38,-135.53"/>
</g>
<!-- Node29&#45;&gt;Node23 -->
<g id="edge43" class="edge">
<title>Node29&#45;&gt;Node23</title>
<path fill="none" stroke="midnightblue" d="M1738.07,-224.21C1744.15,-215.27 1753.64,-200.92 1761,-188 1774.78,-163.82 1778.83,-157.9 1789,-132 1795.04,-116.61 1800.18,-98.51 1803.58,-85.33"/>
<polygon fill="midnightblue" stroke="midnightblue" points="1806.99,-86.13 1806.01,-75.58 1800.2,-84.43 1806.99,-86.13"/>
</g>
<!-- Node29&#45;&gt;Node27 -->
<g id="edge46" class="edge">
<title>Node29&#45;&gt;Node27</title>
<path fill="none" stroke="midnightblue" d="M1735.07,-224.48C1738.2,-215.5 1743.02,-200.91 1746,-188 1749.54,-172.69 1752.16,-155.04 1753.83,-142.01"/>
<polygon fill="midnightblue" stroke="midnightblue" points="1757.33,-142.26 1755.06,-131.91 1750.38,-141.42 1757.33,-142.26"/>
</g>
<!-- Node30 -->
<g id="node30" class="node">
<title>Node30</title>
<g id="a_node30"><a xlink:title=" ">
<polygon fill="white" stroke="#bfbfbf" points="1638,-112.5 1638,-131.5 1690,-131.5 1690,-112.5 1638,-112.5"/>
<text text-anchor="middle" x="1664" y="-119.5" font-family="Helvetica,sans-Serif" font-size="10.00">cassert</text>
</a>
</g>
</g>
<!-- Node29&#45;&gt;Node30 -->
<g id="edge44" class="edge">
<title>Node29&#45;&gt;Node30</title>
<path fill="none" stroke="midnightblue" d="M1730.99,-224.4C1729.13,-211.36 1724.3,-186.17 1713,-168 1705.74,-156.32 1694.63,-145.76 1684.82,-137.82"/>
<polygon fill="midnightblue" stroke="midnightblue" points="1686.73,-134.87 1676.67,-131.54 1682.46,-140.42 1686.73,-134.87"/>
</g>
<!-- Node31 -->
<g id="node31" class="node">
<title>Node31</title>
<g id="a_node31"><a xlink:href="../../d1/d45/Constants_8h.html" target="_top" xlink:title="MyBLAS Constants definition.">
<polygon fill="white" stroke="black" points="1578,-168.5 1578,-187.5 1704,-187.5 1704,-168.5 1578,-168.5"/>
<text text-anchor="middle" x="1641" y="-175.5" font-family="Helvetica,sans-Serif" font-size="10.00">math/blas/Constants.h</text>
</a>
</g>
</g>
<!-- Node29&#45;&gt;Node31 -->
<g id="edge47" class="edge">
<title>Node29&#45;&gt;Node31</title>
<path fill="none" stroke="midnightblue" d="M1717.38,-224.32C1703.05,-215.82 1680.99,-202.73 1664.25,-192.8"/>
<polygon fill="midnightblue" stroke="midnightblue" points="1665.97,-189.75 1655.58,-187.65 1662.4,-195.77 1665.97,-189.75"/>
</g>
<!-- Node29&#45;&gt;Node32 -->
<g id="edge48" class="edge">
<title>Node29&#45;&gt;Node32</title>
<path fill="none" stroke="midnightblue" d="M1693.5,-224.44C1651.19,-215.04 1583.18,-199.93 1537.33,-189.74"/>
<polygon fill="midnightblue" stroke="midnightblue" points="1537.85,-186.27 1527.32,-187.52 1536.33,-193.1 1537.85,-186.27"/>
</g>
<!-- Node32&#45;&gt;Node2 -->
<g id="edge57" class="edge">
<title>Node32&#45;&gt;Node2</title>
<path fill="none" stroke="midnightblue" d="M1418.45,-174.3C1165.18,-164.62 306.74,-131.82 114.44,-124.47"/>
<polygon fill="midnightblue" stroke="midnightblue" points="114.38,-120.96 104.25,-124.08 114.11,-127.96 114.38,-120.96"/>
</g>
<!-- Node32&#45;&gt;Node3 -->
<g id="edge58" class="edge">
<title>Node32&#45;&gt;Node3</title>
<path fill="none" stroke="midnightblue" d="M1461.27,-168.44C1431.57,-159.28 1384.28,-144.69 1351.33,-134.52"/>
<polygon fill="midnightblue" stroke="midnightblue" points="1352.19,-131.12 1341.6,-131.52 1350.12,-137.81 1352.19,-131.12"/>
</g>
<!-- Node32&#45;&gt;Node17 -->
<g id="edge56" class="edge">
<title>Node32&#45;&gt;Node17</title>
<path fill="none" stroke="midnightblue" d="M1486.27,-168.39C1483.42,-159.34 1478.83,-144.69 1475,-132 1470.28,-116.35 1465.08,-98.52 1461.32,-85.5"/>
<polygon fill="midnightblue" stroke="midnightblue" points="1464.67,-84.49 1458.53,-75.85 1457.94,-86.42 1464.67,-84.49"/>
</g>
<!-- Node32&#45;&gt;Node27 -->
<g id="edge59" class="edge">
<title>Node32&#45;&gt;Node27</title>
<path fill="none" stroke="midnightblue" d="M1531.31,-168.44C1584.19,-157.75 1673.63,-139.66 1722.19,-129.84"/>
<polygon fill="midnightblue" stroke="midnightblue" points="1723.08,-133.23 1732.19,-127.82 1721.69,-126.37 1723.08,-133.23"/>
</g>
<!-- Node32&#45;&gt;Node30 -->
<g id="edge55" class="edge">
<title>Node32&#45;&gt;Node30</title>
<path fill="none" stroke="midnightblue" d="M1516.73,-168.44C1546.86,-159.15 1595.11,-144.26 1628.11,-134.07"/>
<polygon fill="midnightblue" stroke="midnightblue" points="1629.31,-137.37 1637.83,-131.08 1627.24,-130.68 1629.31,-137.37"/>
</g>
<!-- Node33 -->
<g id="node33" class="node">
<title>Node33</title>
<g id="a_node33"><a xlink:href="../../de/dcb/LazyVector_8h.html" target="_top" xlink:title="TODO:: DOCUMENT.">
<polygon fill="white" stroke="black" points="1484,-112.5 1484,-131.5 1562,-131.5 1562,-112.5 1484,-112.5"/>
<text text-anchor="middle" x="1523" y="-119.5" font-family="Helvetica,sans-Serif" font-size="10.00">LazyVector.h</text>
</a>
</g>
</g>
<!-- Node32&#45;&gt;Node33 -->
<g id="edge49" class="edge">
<title>Node32&#45;&gt;Node33</title>
<path fill="none" stroke="midnightblue" d="M1494.61,-168.08C1499.37,-160.53 1506.32,-149.49 1512.15,-140.23"/>
<polygon fill="midnightblue" stroke="midnightblue" points="1515.12,-142.08 1517.49,-131.75 1509.2,-138.35 1515.12,-142.08"/>
</g>
<!-- Node33&#45;&gt;Node17 -->
<g id="edge52" class="edge">
<title>Node33&#45;&gt;Node17</title>
<path fill="none" stroke="midnightblue" d="M1512.24,-112.32C1502.23,-104.26 1487.11,-92.08 1475.07,-82.37"/>
<polygon fill="midnightblue" stroke="midnightblue" points="1476.94,-79.38 1466.96,-75.83 1472.55,-84.83 1476.94,-79.38"/>
</g>
<!-- Node33&#45;&gt;Node23 -->
<g id="edge50" class="edge">
<title>Node33&#45;&gt;Node23</title>
<path fill="none" stroke="midnightblue" d="M1562.03,-113.6C1615.31,-103.51 1710.45,-85.48 1765.49,-75.06"/>
<polygon fill="midnightblue" stroke="midnightblue" points="1766.43,-78.44 1775.61,-73.14 1765.13,-71.56 1766.43,-78.44"/>
</g>
<!-- Node34 -->
<g id="node34" class="node">
<title>Node34</title>
<g id="a_node34"><a xlink:title=" ">
<polygon fill="white" stroke="#bfbfbf" points="1534.5,-0.5 1534.5,-19.5 1587.5,-19.5 1587.5,-0.5 1534.5,-0.5"/>
<text text-anchor="middle" x="1561" y="-7.5" font-family="Helvetica,sans-Serif" font-size="10.00">cstddef</text>
</a>
</g>
</g>
<!-- Node33&#45;&gt;Node34 -->
<g id="edge51" class="edge">
<title>Node33&#45;&gt;Node34</title>
<path fill="none" stroke="midnightblue" d="M1524.51,-112.41C1526.85,-99.81 1531.87,-75.66 1539,-56 1542.37,-46.7 1547.09,-36.78 1551.3,-28.63"/>
<polygon fill="midnightblue" stroke="midnightblue" points="1554.43,-30.19 1556.04,-19.72 1548.25,-26.9 1554.43,-30.19"/>
</g>
<!-- Node35 -->
<g id="node35" class="node">
<title>Node35</title>
<g id="a_node35"><a xlink:href="../../d6/d9f/VectorExpression_8h.html" target="_top" xlink:title="TODO:: DOCUMENT.">
<polygon fill="white" stroke="black" points="1548,-56.5 1548,-75.5 1658,-75.5 1658,-56.5 1548,-56.5"/>
<text text-anchor="middle" x="1603" y="-63.5" font-family="Helvetica,sans-Serif" font-size="10.00">VectorExpression.h</text>
</a>
</g>
</g>
<!-- Node33&#45;&gt;Node35 -->
<g id="edge53" class="edge">
<title>Node33&#45;&gt;Node35</title>
<path fill="none" stroke="midnightblue" d="M1535.85,-112.32C1548.22,-103.98 1567.13,-91.21 1581.74,-81.35"/>
<polygon fill="midnightblue" stroke="midnightblue" points="1583.85,-84.15 1590.18,-75.65 1579.93,-78.35 1583.85,-84.15"/>
</g>
<!-- Node35&#45;&gt;Node34 -->
<g id="edge54" class="edge">
<title>Node35&#45;&gt;Node34</title>
<path fill="none" stroke="midnightblue" d="M1596.06,-56.08C1590.07,-48.38 1581.25,-37.03 1573.95,-27.65"/>
<polygon fill="midnightblue" stroke="midnightblue" points="1576.71,-25.5 1567.81,-19.75 1571.18,-29.79 1576.71,-25.5"/>
</g>
</g>
</svg>
