<?xml version="1.0" encoding="UTF-8" standalone="no"?>
<!DOCTYPE svg PUBLIC "-//W3C//DTD SVG 1.1//EN"
 "http://www.w3.org/Graphics/SVG/1.1/DTD/svg11.dtd">
<!-- Generated by graphviz version 2.43.0 (0)
 -->
<!-- Title: src/project/project1/main.cpp Pages: 1 -->
<svg width="2184pt" height="621pt"
 viewBox="0.00 0.00 2184.00 621.00" xmlns="http://www.w3.org/2000/svg" xmlns:xlink="http://www.w3.org/1999/xlink">
<g id="graph0" class="graph" transform="scale(1 1) rotate(0) translate(4 617)">
<title>src/project/project1/main.cpp</title>
<polygon fill="white" stroke="transparent" points="-4,4 -4,-617 2180,-617 2180,4 -4,4"/>
<!-- Node1 -->
<g id="node1" class="node">
<title>Node1</title>
<g id="a_node1"><a xlink:title=" ">
<polygon fill="#bfbfbf" stroke="black" points="1371,-582.5 1371,-612.5 1481,-612.5 1481,-582.5 1371,-582.5"/>
<text text-anchor="start" x="1379" y="-600.5" font-family="Helvetica,sans-Serif" font-size="10.00">src/project/project1</text>
<text text-anchor="middle" x="1426" y="-589.5" font-family="Helvetica,sans-Serif" font-size="10.00">/main.cpp</text>
</a>
</g>
</g>
<!-- Node2 -->
<g id="node2" class="node">
<title>Node2</title>
<g id="a_node2"><a xlink:href="../../d9/d41/CommandLine_8h.html" target="_top" xlink:title="This file contains the definition of the CommandLine class and the HeaderInfo struct.">
<polygon fill="white" stroke="black" points="1773,-230 1773,-249 1869,-249 1869,-230 1773,-230"/>
<text text-anchor="middle" x="1821" y="-237" font-family="Helvetica,sans-Serif" font-size="10.00">CommandLine.h</text>
</a>
</g>
</g>
<!-- Node1&#45;&gt;Node2 -->
<g id="edge1" class="edge">
<title>Node1&#45;&gt;Node2</title>
<path fill="none" stroke="midnightblue" d="M1481.34,-595.2C1610.51,-590.66 1921,-570.46 1921,-481 1921,-481 1921,-481 1921,-361.5 1921,-329.05 1921.33,-317.06 1902,-291 1889.62,-274.31 1869.93,-261.86 1853.07,-253.49"/>
<polygon fill="midnightblue" stroke="midnightblue" points="1854.08,-250.1 1843.54,-249.04 1851.12,-256.44 1854.08,-250.1"/>
</g>
<!-- Node11 -->
<g id="node11" class="node">
<title>Node11</title>
<g id="a_node11"><a xlink:href="../../d3/df7/project1_8h.html" target="_top" xlink:title=" ">
<polygon fill="white" stroke="black" points="880.5,-526.5 880.5,-545.5 945.5,-545.5 945.5,-526.5 880.5,-526.5"/>
<text text-anchor="middle" x="913" y="-533.5" font-family="Helvetica,sans-Serif" font-size="10.00">project1.h</text>
</a>
</g>
</g>
<!-- Node1&#45;&gt;Node11 -->
<g id="edge12" class="edge">
<title>Node1&#45;&gt;Node11</title>
<path fill="none" stroke="midnightblue" d="M1370.61,-590.08C1267.58,-578.13 1048.54,-552.72 955.85,-541.97"/>
<polygon fill="midnightblue" stroke="midnightblue" points="956.05,-538.47 945.71,-540.79 955.24,-545.42 956.05,-538.47"/>
</g>
<!-- Node3 -->
<g id="node3" class="node">
<title>Node3</title>
<g id="a_node3"><a xlink:href="../../db/df1/Helpers_8h.html" target="_top" xlink:title="This file contains helper functions and structures used throughout the program.">
<polygon fill="white" stroke="black" points="2008.5,-168.5 2008.5,-187.5 2071.5,-187.5 2071.5,-168.5 2008.5,-168.5"/>
<text text-anchor="middle" x="2040" y="-175.5" font-family="Helvetica,sans-Serif" font-size="10.00">Helpers.h</text>
</a>
</g>
</g>
<!-- Node2&#45;&gt;Node3 -->
<g id="edge2" class="edge">
<title>Node2&#45;&gt;Node3</title>
<path fill="none" stroke="midnightblue" d="M1852.38,-229.98C1890.92,-219.5 1956.41,-201.71 1998.92,-190.16"/>
<polygon fill="midnightblue" stroke="midnightblue" points="1999.95,-193.51 2008.68,-187.51 1998.11,-186.75 1999.95,-193.51"/>
</g>
<!-- Node5 -->
<g id="node5" class="node">
<title>Node5</title>
<g id="a_node5"><a xlink:title=" ">
<polygon fill="white" stroke="#bfbfbf" points="1339,-0.5 1339,-19.5 1399,-19.5 1399,-0.5 1339,-0.5"/>
<text text-anchor="middle" x="1369" y="-7.5" font-family="Helvetica,sans-Serif" font-size="10.00">iostream</text>
</a>
</g>
</g>
<!-- Node2&#45;&gt;Node5 -->
<g id="edge10" class="edge">
<title>Node2&#45;&gt;Node5</title>
<path fill="none" stroke="midnightblue" d="M1869.18,-236.23C1936.83,-231.93 2054.67,-219.93 2081,-188 2093.63,-172.69 2092.02,-132.78 2071,-112 1976.81,-18.85 1545.01,-10.93 1409.68,-10.78"/>
<polygon fill="midnightblue" stroke="midnightblue" points="1409.35,-7.28 1399.35,-10.78 1409.35,-14.28 1409.35,-7.28"/>
</g>
<!-- Node8 -->
<g id="node8" class="node">
<title>Node8</title>
<g id="a_node8"><a xlink:title=" ">
<polygon fill="white" stroke="#bfbfbf" points="1702,-112.5 1702,-131.5 1852,-131.5 1852,-112.5 1702,-112.5"/>
<text text-anchor="middle" x="1777" y="-119.5" font-family="Helvetica,sans-Serif" font-size="10.00">boost/program_options.hpp</text>
</a>
</g>
</g>
<!-- Node2&#45;&gt;Node8 -->
<g id="edge9" class="edge">
<title>Node2&#45;&gt;Node8</title>
<path fill="none" stroke="midnightblue" d="M1817.69,-229.82C1810.56,-211.09 1793.59,-166.55 1783.97,-141.29"/>
<polygon fill="midnightblue" stroke="midnightblue" points="1787.18,-139.88 1780.35,-131.78 1780.63,-142.37 1787.18,-139.88"/>
</g>
<!-- Node9 -->
<g id="node9" class="node">
<title>Node9</title>
<g id="a_node9"><a xlink:title=" ">
<polygon fill="white" stroke="#bfbfbf" points="1822,-168.5 1822,-187.5 1914,-187.5 1914,-168.5 1822,-168.5"/>
<text text-anchor="middle" x="1868" y="-175.5" font-family="Helvetica,sans-Serif" font-size="10.00">project&#45;config.h</text>
</a>
</g>
</g>
<!-- Node2&#45;&gt;Node9 -->
<g id="edge8" class="edge">
<title>Node2&#45;&gt;Node9</title>
<path fill="none" stroke="midnightblue" d="M1827.73,-229.98C1834.78,-221.05 1846.03,-206.81 1854.85,-195.64"/>
<polygon fill="midnightblue" stroke="midnightblue" points="1857.83,-197.53 1861.28,-187.51 1852.33,-193.19 1857.83,-197.53"/>
</g>
<!-- Node10 -->
<g id="node10" class="node">
<title>Node10</title>
<g id="a_node10"><a xlink:title=" ">
<polygon fill="white" stroke="#bfbfbf" points="1684,-168.5 1684,-187.5 1728,-187.5 1728,-168.5 1684,-168.5"/>
<text text-anchor="middle" x="1706" y="-175.5" font-family="Helvetica,sans-Serif" font-size="10.00">string</text>
</a>
</g>
</g>
<!-- Node2&#45;&gt;Node10 -->
<g id="edge11" class="edge">
<title>Node2&#45;&gt;Node10</title>
<path fill="none" stroke="midnightblue" d="M1804.52,-229.98C1785.39,-220.08 1753.63,-203.64 1731.35,-192.12"/>
<polygon fill="midnightblue" stroke="midnightblue" points="1732.94,-189 1722.45,-187.51 1729.72,-195.21 1732.94,-189"/>
</g>
<!-- Node4 -->
<g id="node4" class="node">
<title>Node4</title>
<g id="a_node4"><a xlink:title=" ">
<polygon fill="white" stroke="#bfbfbf" points="509,-0.5 509,-19.5 565,-19.5 565,-0.5 509,-0.5"/>
<text text-anchor="middle" x="537" y="-7.5" font-family="Helvetica,sans-Serif" font-size="10.00">iomanip</text>
</a>
</g>
</g>
<!-- Node3&#45;&gt;Node4 -->
<g id="edge3" class="edge">
<title>Node3&#45;&gt;Node4</title>
<path fill="none" stroke="midnightblue" d="M2008.43,-169.67C1978.3,-162.11 1931.99,-149.05 1894,-132 1878.35,-124.98 1877.33,-117.24 1861,-112 1735.66,-71.78 779.96,-22.93 575.44,-12.86"/>
<polygon fill="midnightblue" stroke="midnightblue" points="575.36,-9.36 565.2,-12.36 575.01,-16.35 575.36,-9.36"/>
</g>
<!-- Node3&#45;&gt;Node5 -->
<g id="edge4" class="edge">
<title>Node3&#45;&gt;Node5</title>
<path fill="none" stroke="midnightblue" d="M2023.3,-168.42C1996.57,-154.94 1942.27,-128.64 1894,-112 1719.06,-51.7 1498.21,-24.07 1409.04,-14.79"/>
<polygon fill="midnightblue" stroke="midnightblue" points="1409.38,-11.31 1399.08,-13.77 1408.67,-18.27 1409.38,-11.31"/>
</g>
<!-- Node6 -->
<g id="node6" class="node">
<title>Node6</title>
<g id="a_node6"><a xlink:title=" ">
<polygon fill="white" stroke="#bfbfbf" points="2018,-112.5 2018,-131.5 2062,-131.5 2062,-112.5 2018,-112.5"/>
<text text-anchor="middle" x="2040" y="-119.5" font-family="Helvetica,sans-Serif" font-size="10.00">limits</text>
</a>
</g>
</g>
<!-- Node3&#45;&gt;Node6 -->
<g id="edge5" class="edge">
<title>Node3&#45;&gt;Node6</title>
<path fill="none" stroke="midnightblue" d="M2040,-168.08C2040,-161.01 2040,-150.86 2040,-141.99"/>
<polygon fill="midnightblue" stroke="midnightblue" points="2043.5,-141.75 2040,-131.75 2036.5,-141.75 2043.5,-141.75"/>
</g>
<!-- Node7 -->
<g id="node7" class="node">
<title>Node7</title>
<g id="a_node7"><a xlink:title=" ">
<polygon fill="white" stroke="#bfbfbf" points="744,-112.5 744,-131.5 802,-131.5 802,-112.5 744,-112.5"/>
<text text-anchor="middle" x="773" y="-119.5" font-family="Helvetica,sans-Serif" font-size="10.00">json.hpp</text>
</a>
</g>
</g>
<!-- Node3&#45;&gt;Node7 -->
<g id="edge6" class="edge">
<title>Node3&#45;&gt;Node7</title>
<path fill="none" stroke="midnightblue" d="M2008.24,-174.23C1984.72,-172.26 1951.88,-169.68 1923,-168 1488.07,-142.77 959.76,-127.87 812.66,-124.01"/>
<polygon fill="midnightblue" stroke="midnightblue" points="812.43,-120.5 802.34,-123.74 812.25,-127.5 812.43,-120.5"/>
</g>
<!-- Node3&#45;&gt;Node8 -->
<g id="edge7" class="edge">
<title>Node3&#45;&gt;Node8</title>
<path fill="none" stroke="midnightblue" d="M2008.28,-170.49C1963.74,-161.34 1882.16,-144.59 1828.76,-133.63"/>
<polygon fill="midnightblue" stroke="midnightblue" points="1829.31,-130.17 1818.81,-131.58 1827.9,-137.02 1829.31,-130.17"/>
</g>
<!-- Node11&#45;&gt;Node2 -->
<g id="edge82" class="edge">
<title>Node11&#45;&gt;Node2</title>
<path fill="none" stroke="midnightblue" d="M945.65,-534.29C1096.15,-530.91 1717.02,-515.43 1749,-490 1821.37,-432.45 1823.99,-306.98 1822.18,-259.35"/>
<polygon fill="midnightblue" stroke="midnightblue" points="1825.67,-259.05 1821.67,-249.24 1818.67,-259.4 1825.67,-259.05"/>
</g>
<!-- Node11&#45;&gt;Node4 -->
<g id="edge14" class="edge">
<title>Node11&#45;&gt;Node4</title>
<path fill="none" stroke="midnightblue" d="M880.15,-534.95C750.01,-534.49 270.67,-530.05 125,-490 64.62,-473.4 0,-487.62 0,-425 0,-425 0,-425 0,-121 0,-70.03 376.15,-27.33 498.82,-14.75"/>
<polygon fill="midnightblue" stroke="midnightblue" points="499.29,-18.23 508.88,-13.73 498.58,-11.26 499.29,-18.23"/>
</g>
<!-- Node11&#45;&gt;Node5 -->
<g id="edge15" class="edge">
<title>Node11&#45;&gt;Node5</title>
<path fill="none" stroke="midnightblue" d="M945.51,-534.23C1088.73,-530.73 1664.14,-515.33 1843,-490 1999.76,-467.8 2176,-521.82 2176,-363.5 2176,-363.5 2176,-363.5 2176,-121 2176,-51.59 2101.28,-73.07 2034,-56 1914.8,-25.76 1535.1,-14.71 1409.66,-11.84"/>
<polygon fill="midnightblue" stroke="midnightblue" points="1409.43,-8.33 1399.35,-11.6 1409.27,-15.33 1409.43,-8.33"/>
</g>
<!-- Node11&#45;&gt;Node7 -->
<g id="edge91" class="edge">
<title>Node11&#45;&gt;Node7</title>
<path fill="none" stroke="midnightblue" d="M896.98,-526.48C869.43,-510.54 816,-473.38 816,-425 816,-425 816,-425 816,-361.5 816,-278.22 790.3,-181.15 778.63,-141.39"/>
<polygon fill="midnightblue" stroke="midnightblue" points="781.91,-140.14 775.69,-131.56 775.21,-142.15 781.91,-140.14"/>
</g>
<!-- Node11&#45;&gt;Node8 -->
<g id="edge13" class="edge">
<title>Node11&#45;&gt;Node8</title>
<path fill="none" stroke="midnightblue" d="M945.54,-533.4C1084,-526.18 1617,-493.89 1617,-425 1617,-425 1617,-425 1617,-361.5 1617,-267.74 1685.75,-266.51 1737,-188 1747.39,-172.09 1758.69,-153.6 1766.63,-140.42"/>
<polygon fill="midnightblue" stroke="midnightblue" points="1769.83,-141.88 1771.96,-131.5 1763.82,-138.29 1769.83,-141.88"/>
</g>
<!-- Node12 -->
<g id="node12" class="node">
<title>Node12</title>
<g id="a_node12"><a xlink:title=" ">
<polygon fill="white" stroke="#bfbfbf" points="732,-470.5 732,-489.5 788,-489.5 788,-470.5 732,-470.5"/>
<text text-anchor="middle" x="760" y="-477.5" font-family="Helvetica,sans-Serif" font-size="10.00">numeric</text>
</a>
</g>
</g>
<!-- Node11&#45;&gt;Node12 -->
<g id="edge16" class="edge">
<title>Node11&#45;&gt;Node12</title>
<path fill="none" stroke="midnightblue" d="M888.76,-526.44C863.13,-517.4 822.51,-503.06 793.76,-492.92"/>
<polygon fill="midnightblue" stroke="midnightblue" points="794.72,-489.54 784.13,-489.52 792.39,-496.15 794.72,-489.54"/>
</g>
<!-- Node13 -->
<g id="node13" class="node">
<title>Node13</title>
<g id="a_node13"><a xlink:title=" ">
<polygon fill="white" stroke="#bfbfbf" points="330.5,-230 330.5,-249 381.5,-249 381.5,-230 330.5,-230"/>
<text text-anchor="middle" x="356" y="-237" font-family="Helvetica,sans-Serif" font-size="10.00">variant</text>
</a>
</g>
</g>
<!-- Node11&#45;&gt;Node13 -->
<g id="edge17" class="edge">
<title>Node11&#45;&gt;Node13</title>
<path fill="none" stroke="midnightblue" d="M880.45,-534.84C769.21,-533.45 411,-521.47 411,-425 411,-425 411,-425 411,-361.5 411,-321.34 385.58,-279.87 369.31,-257.42"/>
<polygon fill="midnightblue" stroke="midnightblue" points="372,-255.17 363.19,-249.28 366.4,-259.38 372,-255.17"/>
</g>
<!-- Node14 -->
<g id="node14" class="node">
<title>Node14</title>
<g id="a_node14"><a xlink:href="../../da/d85/project_2project1_2InputsOutputs_8h.html" target="_top" xlink:title="This file contains the input and output definitions for this project.">
<polygon fill="white" stroke="black" points="180,-230 180,-249 274,-249 274,-230 180,-230"/>
<text text-anchor="middle" x="227" y="-237" font-family="Helvetica,sans-Serif" font-size="10.00">InputsOutputs.h</text>
</a>
</g>
</g>
<!-- Node11&#45;&gt;Node14 -->
<g id="edge18" class="edge">
<title>Node11&#45;&gt;Node14</title>
<path fill="none" stroke="midnightblue" d="M880.41,-534.33C759.29,-531.6 339.36,-520.03 288,-490 258.1,-472.52 245,-459.64 245,-425 245,-425 245,-425 245,-361.5 245,-325 236.89,-282.97 231.55,-259.29"/>
<polygon fill="midnightblue" stroke="midnightblue" points="234.89,-258.18 229.21,-249.24 228.07,-259.77 234.89,-258.18"/>
</g>
<!-- Node16 -->
<g id="node16" class="node">
<title>Node16</title>
<g id="a_node16"><a xlink:href="../../d3/db1/Matrix_8h.html" target="_top" xlink:title="This file contains my BLAS::Matrix declarations.">
<polygon fill="white" stroke="black" points="182.5,-112.5 182.5,-131.5 291.5,-131.5 291.5,-112.5 182.5,-112.5"/>
<text text-anchor="middle" x="237" y="-119.5" font-family="Helvetica,sans-Serif" font-size="10.00">math/blas/Matrix.h</text>
</a>
</g>
</g>
<!-- Node11&#45;&gt;Node16 -->
<g id="edge87" class="edge">
<title>Node11&#45;&gt;Node16</title>
<path fill="none" stroke="midnightblue" d="M880.3,-534.4C721.45,-531.05 38,-511.6 38,-425 38,-425 38,-425 38,-238.5 38,-175.15 114.36,-145.97 172.47,-132.93"/>
<polygon fill="midnightblue" stroke="midnightblue" points="173.31,-136.33 182.36,-130.82 171.85,-129.48 173.31,-136.33"/>
</g>
<!-- Node20 -->
<g id="node20" class="node">
<title>Node20</title>
<g id="a_node20"><a xlink:href="../../d9/d77/MyBLAS_8h.html" target="_top" xlink:title="My BLAS methods for NE591&#45;008.">
<polygon fill="white" stroke="black" points="386,-168.5 386,-187.5 504,-187.5 504,-168.5 386,-168.5"/>
<text text-anchor="middle" x="445" y="-175.5" font-family="Helvetica,sans-Serif" font-size="10.00">math/blas/MyBLAS.h</text>
</a>
</g>
</g>
<!-- Node11&#45;&gt;Node20 -->
<g id="edge88" class="edge">
<title>Node11&#45;&gt;Node20</title>
<path fill="none" stroke="midnightblue" d="M880.27,-535.68C802.55,-536.47 601.42,-533.75 441,-490 375.2,-472.06 302,-493.2 302,-425 302,-425 302,-425 302,-300 302,-265.07 298.48,-249.82 322,-224 337,-207.53 358.54,-197.07 379.41,-190.44"/>
<polygon fill="midnightblue" stroke="midnightblue" points="380.63,-193.73 389.25,-187.57 378.67,-187.01 380.63,-193.73"/>
</g>
<!-- Node22 -->
<g id="node22" class="node">
<title>Node22</title>
<g id="a_node22"><a xlink:href="../../d0/df9/project_2project1_2Parser_8h.html" target="_top" xlink:title="This file contains the Parser class which is responsible for parsing command line arguments and valid...">
<polygon fill="white" stroke="black" points="1684.5,-470.5 1684.5,-489.5 1739.5,-489.5 1739.5,-470.5 1684.5,-470.5"/>
<text text-anchor="middle" x="1712" y="-477.5" font-family="Helvetica,sans-Serif" font-size="10.00">Parser.h</text>
</a>
</g>
</g>
<!-- Node11&#45;&gt;Node22 -->
<g id="edge34" class="edge">
<title>Node11&#45;&gt;Node22</title>
<path fill="none" stroke="midnightblue" d="M945.6,-533.52C1047.17,-528.77 1366.9,-512.94 1631,-490 1645.15,-488.77 1660.66,-487.12 1674.29,-485.57"/>
<polygon fill="midnightblue" stroke="midnightblue" points="1674.76,-489.04 1684.29,-484.41 1673.95,-482.09 1674.76,-489.04"/>
</g>
<!-- Node24 -->
<g id="node24" class="node">
<title>Node24</title>
<g id="a_node24"><a xlink:href="../../d7/da1/project_2project1_2Compute_8h.html" target="_top" xlink:title="Compute methods for project milestone 1 in NE591&#45;008.">
<polygon fill="white" stroke="black" points="878,-414.5 878,-433.5 948,-433.5 948,-414.5 878,-414.5"/>
<text text-anchor="middle" x="913" y="-421.5" font-family="Helvetica,sans-Serif" font-size="10.00">Compute.h</text>
</a>
</g>
</g>
<!-- Node11&#45;&gt;Node24 -->
<g id="edge90" class="edge">
<title>Node11&#45;&gt;Node24</title>
<path fill="none" stroke="midnightblue" d="M913,-526.37C913,-508.62 913,-467.67 913,-443.6"/>
<polygon fill="midnightblue" stroke="midnightblue" points="916.5,-443.59 913,-433.59 909.5,-443.59 916.5,-443.59"/>
</g>
<!-- Node25 -->
<g id="node25" class="node">
<title>Node25</title>
<g id="a_node25"><a xlink:href="../../d7/dff/LU_8h.html" target="_top" xlink:title="LU factorization and related methods for MyBLAS library.">
<polygon fill="white" stroke="black" points="882.5,-291.5 882.5,-310.5 1013.5,-310.5 1013.5,-291.5 882.5,-291.5"/>
<text text-anchor="middle" x="948" y="-298.5" font-family="Helvetica,sans-Serif" font-size="10.00">math/factorization/LU.h</text>
</a>
</g>
</g>
<!-- Node11&#45;&gt;Node25 -->
<g id="edge89" class="edge">
<title>Node11&#45;&gt;Node25</title>
<path fill="none" stroke="midnightblue" d="M918.16,-526.49C928.07,-509.6 949.43,-470.33 957,-434 965.29,-394.24 957.83,-346.42 952.43,-320.66"/>
<polygon fill="midnightblue" stroke="midnightblue" points="955.81,-319.76 950.22,-310.76 948.98,-321.28 955.81,-319.76"/>
</g>
<!-- Node39 -->
<g id="node39" class="node">
<title>Node39</title>
<g id="a_node39"><a xlink:href="../../d2/dff/Project_8h.html" target="_top" xlink:title="This file contains the definition of the Project class template. The Project class is a generic class...">
<polygon fill="white" stroke="black" points="1833.5,-291.5 1833.5,-310.5 1892.5,-310.5 1892.5,-291.5 1833.5,-291.5"/>
<text text-anchor="middle" x="1863" y="-298.5" font-family="Helvetica,sans-Serif" font-size="10.00">Project.h</text>
</a>
</g>
</g>
<!-- Node11&#45;&gt;Node39 -->
<g id="edge83" class="edge">
<title>Node11&#45;&gt;Node39</title>
<path fill="none" stroke="midnightblue" d="M945.55,-534.48C1103.84,-531.83 1786.87,-518.76 1821,-490 1871.29,-447.62 1869.1,-359.41 1865.38,-320.79"/>
<polygon fill="midnightblue" stroke="midnightblue" points="1868.82,-320.05 1864.24,-310.5 1861.87,-320.83 1868.82,-320.05"/>
</g>
<!-- Node14&#45;&gt;Node7 -->
<g id="edge20" class="edge">
<title>Node14&#45;&gt;Node7</title>
<path fill="none" stroke="midnightblue" d="M245.14,-229.92C284.69,-211.24 375.27,-168.48 377,-168 530.26,-125.57 576.03,-157.5 733,-132 733.22,-131.96 733.44,-131.93 733.66,-131.89"/>
<polygon fill="midnightblue" stroke="midnightblue" points="734.62,-135.27 743.81,-130 733.33,-128.39 734.62,-135.27"/>
</g>
<!-- Node15 -->
<g id="node15" class="node">
<title>Node15</title>
<g id="a_node15"><a xlink:title=" ">
<polygon fill="white" stroke="#bfbfbf" points="902.5,-168.5 902.5,-187.5 947.5,-187.5 947.5,-168.5 902.5,-168.5"/>
<text text-anchor="middle" x="925" y="-175.5" font-family="Helvetica,sans-Serif" font-size="10.00">utility</text>
</a>
</g>
</g>
<!-- Node14&#45;&gt;Node15 -->
<g id="edge19" class="edge">
<title>Node14&#45;&gt;Node15</title>
<path fill="none" stroke="midnightblue" d="M274.26,-230.55C289.47,-228.19 306.42,-225.77 322,-224 539.01,-199.38 801.54,-185.06 892.29,-180.55"/>
<polygon fill="midnightblue" stroke="midnightblue" points="892.68,-184.04 902.49,-180.05 892.33,-177.05 892.68,-184.04"/>
</g>
<!-- Node14&#45;&gt;Node16 -->
<g id="edge21" class="edge">
<title>Node14&#45;&gt;Node16</title>
<path fill="none" stroke="midnightblue" d="M227.75,-229.82C229.36,-211.26 233.16,-167.34 235.36,-141.97"/>
<polygon fill="midnightblue" stroke="midnightblue" points="238.86,-142.05 236.24,-131.78 231.89,-141.44 238.86,-142.05"/>
</g>
<!-- Node19 -->
<g id="node19" class="node">
<title>Node19</title>
<g id="a_node19"><a xlink:href="../../d6/dbe/Vector_8h.html" target="_top" xlink:title="This file contains my BLAS::Vector implementation.">
<polygon fill="white" stroke="black" points="483.5,-56.5 483.5,-75.5 590.5,-75.5 590.5,-56.5 483.5,-56.5"/>
<text text-anchor="middle" x="537" y="-63.5" font-family="Helvetica,sans-Serif" font-size="10.00">math/blas/Vector.h</text>
</a>
</g>
</g>
<!-- Node14&#45;&gt;Node19 -->
<g id="edge33" class="edge">
<title>Node14&#45;&gt;Node19</title>
<path fill="none" stroke="midnightblue" d="M238.89,-229.98C258.33,-216.2 298.33,-188.53 334,-168 394.55,-133.16 468.7,-98.09 508.5,-79.85"/>
<polygon fill="midnightblue" stroke="midnightblue" points="510.2,-82.92 517.85,-75.58 507.3,-76.55 510.2,-82.92"/>
</g>
<!-- Node14&#45;&gt;Node20 -->
<g id="edge29" class="edge">
<title>Node14&#45;&gt;Node20</title>
<path fill="none" stroke="midnightblue" d="M258.23,-229.98C296.6,-219.5 361.79,-201.71 404.11,-190.16"/>
<polygon fill="midnightblue" stroke="midnightblue" points="405.1,-193.52 413.82,-187.51 403.26,-186.77 405.1,-193.52"/>
</g>
<!-- Node16&#45;&gt;Node5 -->
<g id="edge23" class="edge">
<title>Node16&#45;&gt;Node5</title>
<path fill="none" stroke="midnightblue" d="M261.28,-112.48C303.92,-97.96 395.27,-68.74 475,-56 642.84,-29.18 1176.61,-15.34 1328.38,-11.88"/>
<polygon fill="midnightblue" stroke="midnightblue" points="1328.72,-15.37 1338.64,-11.65 1328.57,-8.37 1328.72,-15.37"/>
</g>
<!-- Node17 -->
<g id="node17" class="node">
<title>Node17</title>
<g id="a_node17"><a xlink:title=" ">
<polygon fill="white" stroke="#bfbfbf" points="265,-56.5 265,-75.5 329,-75.5 329,-56.5 265,-56.5"/>
<text text-anchor="middle" x="297" y="-63.5" font-family="Helvetica,sans-Serif" font-size="10.00">algorithm</text>
</a>
</g>
</g>
<!-- Node16&#45;&gt;Node17 -->
<g id="edge22" class="edge">
<title>Node16&#45;&gt;Node17</title>
<path fill="none" stroke="midnightblue" d="M246.64,-112.32C255.51,-104.34 268.87,-92.31 279.61,-82.65"/>
<polygon fill="midnightblue" stroke="midnightblue" points="282.09,-85.13 287.18,-75.83 277.41,-79.92 282.09,-85.13"/>
</g>
<!-- Node18 -->
<g id="node18" class="node">
<title>Node18</title>
<g id="a_node18"><a xlink:title=" ">
<polygon fill="white" stroke="#bfbfbf" points="312.5,-0.5 312.5,-19.5 359.5,-19.5 359.5,-0.5 312.5,-0.5"/>
<text text-anchor="middle" x="336" y="-7.5" font-family="Helvetica,sans-Serif" font-size="10.00">vector</text>
</a>
</g>
</g>
<!-- Node16&#45;&gt;Node18 -->
<g id="edge24" class="edge">
<title>Node16&#45;&gt;Node18</title>
<path fill="none" stroke="midnightblue" d="M237.47,-112.49C238.61,-99.11 242.54,-72.94 256,-56 268.1,-40.77 286.84,-29.84 303.15,-22.56"/>
<polygon fill="midnightblue" stroke="midnightblue" points="304.52,-25.78 312.4,-18.7 301.82,-19.32 304.52,-25.78"/>
</g>
<!-- Node16&#45;&gt;Node19 -->
<g id="edge25" class="edge">
<title>Node16&#45;&gt;Node19</title>
<path fill="none" stroke="midnightblue" d="M284.54,-112.44C337.53,-102.9 423.2,-87.48 479.82,-77.29"/>
<polygon fill="midnightblue" stroke="midnightblue" points="480.46,-80.73 489.69,-75.52 479.22,-73.84 480.46,-80.73"/>
</g>
<!-- Node19&#45;&gt;Node4 -->
<g id="edge26" class="edge">
<title>Node19&#45;&gt;Node4</title>
<path fill="none" stroke="midnightblue" d="M537,-56.08C537,-49.01 537,-38.86 537,-29.99"/>
<polygon fill="midnightblue" stroke="midnightblue" points="540.5,-29.75 537,-19.75 533.5,-29.75 540.5,-29.75"/>
</g>
<!-- Node19&#45;&gt;Node5 -->
<g id="edge27" class="edge">
<title>Node19&#45;&gt;Node5</title>
<path fill="none" stroke="midnightblue" d="M590.63,-61.52C745.61,-51.46 1191.76,-22.5 1328.6,-13.62"/>
<polygon fill="midnightblue" stroke="midnightblue" points="1328.91,-17.11 1338.66,-12.97 1328.45,-10.12 1328.91,-17.11"/>
</g>
<!-- Node19&#45;&gt;Node18 -->
<g id="edge28" class="edge">
<title>Node19&#45;&gt;Node18</title>
<path fill="none" stroke="midnightblue" d="M505.15,-56.44C468.12,-46.49 407.26,-30.15 369.53,-20.01"/>
<polygon fill="midnightblue" stroke="midnightblue" points="370.1,-16.54 359.54,-17.32 368.28,-23.3 370.1,-16.54"/>
</g>
<!-- Node20&#45;&gt;Node16 -->
<g id="edge31" class="edge">
<title>Node20&#45;&gt;Node16</title>
<path fill="none" stroke="midnightblue" d="M412.04,-168.44C376.21,-159.14 318.84,-144.25 279.61,-134.06"/>
<polygon fill="midnightblue" stroke="midnightblue" points="280.36,-130.64 269.8,-131.52 278.6,-137.42 280.36,-130.64"/>
</g>
<!-- Node20&#45;&gt;Node19 -->
<g id="edge32" class="edge">
<title>Node20&#45;&gt;Node19</title>
<path fill="none" stroke="midnightblue" d="M452.22,-168.37C467.54,-150.05 503.5,-107.05 523.32,-83.36"/>
<polygon fill="midnightblue" stroke="midnightblue" points="526.08,-85.51 529.81,-75.59 520.71,-81.02 526.08,-85.51"/>
</g>
<!-- Node21 -->
<g id="node21" class="node">
<title>Node21</title>
<g id="a_node21"><a xlink:title=" ">
<polygon fill="white" stroke="#bfbfbf" points="676.5,-112.5 676.5,-131.5 723.5,-131.5 723.5,-112.5 676.5,-112.5"/>
<text text-anchor="middle" x="700" y="-119.5" font-family="Helvetica,sans-Serif" font-size="10.00">cmath</text>
</a>
</g>
</g>
<!-- Node20&#45;&gt;Node21 -->
<g id="edge30" class="edge">
<title>Node20&#45;&gt;Node21</title>
<path fill="none" stroke="midnightblue" d="M485.41,-168.44C535.41,-157.85 619.65,-140.01 666.33,-130.13"/>
<polygon fill="midnightblue" stroke="midnightblue" points="667.18,-133.53 676.24,-128.03 665.73,-126.68 667.18,-133.53"/>
</g>
<!-- Node22&#45;&gt;Node2 -->
<g id="edge39" class="edge">
<title>Node22&#45;&gt;Node2</title>
<path fill="none" stroke="midnightblue" d="M1715.2,-470.19C1725.21,-442.97 1757.21,-358.02 1791,-291 1796.72,-279.66 1803.97,-267.41 1809.91,-257.81"/>
<polygon fill="midnightblue" stroke="midnightblue" points="1812.94,-259.56 1815.31,-249.23 1807.02,-255.83 1812.94,-259.56"/>
</g>
<!-- Node22&#45;&gt;Node3 -->
<g id="edge81" class="edge">
<title>Node22&#45;&gt;Node3</title>
<path fill="none" stroke="midnightblue" d="M1739.62,-477.5C1834.02,-471.65 2138,-446.35 2138,-363.5 2138,-363.5 2138,-363.5 2138,-300 2138,-252.47 2091.78,-213.16 2062.82,-193.19"/>
<polygon fill="midnightblue" stroke="midnightblue" points="2064.72,-190.25 2054.46,-187.63 2060.85,-196.08 2064.72,-190.25"/>
</g>
<!-- Node23 -->
<g id="node23" class="node">
<title>Node23</title>
<g id="a_node23"><a xlink:href="../../d0/d7d/CheckBounds_8h.html" target="_top" xlink:title="This file contains the declaration of functions for checking the validity of input parameters.">
<polygon fill="white" stroke="black" points="1949,-291.5 1949,-310.5 2041,-310.5 2041,-291.5 1949,-291.5"/>
<text text-anchor="middle" x="1995" y="-298.5" font-family="Helvetica,sans-Serif" font-size="10.00">CheckBounds.h</text>
</a>
</g>
</g>
<!-- Node22&#45;&gt;Node23 -->
<g id="edge35" class="edge">
<title>Node22&#45;&gt;Node23</title>
<path fill="none" stroke="midnightblue" d="M1725.65,-470.46C1770.94,-442.14 1916.53,-351.08 1972.65,-315.98"/>
<polygon fill="midnightblue" stroke="midnightblue" points="1974.53,-318.93 1981.16,-310.66 1970.82,-312.99 1974.53,-318.93"/>
</g>
<!-- Node22&#45;&gt;Node24 -->
<g id="edge40" class="edge">
<title>Node22&#45;&gt;Node24</title>
<path fill="none" stroke="midnightblue" d="M1684.5,-477.14C1566.86,-469.19 1105.31,-438 958.27,-428.06"/>
<polygon fill="midnightblue" stroke="midnightblue" points="958.44,-424.56 948.23,-427.38 957.97,-431.55 958.44,-424.56"/>
</g>
<!-- Node32 -->
<g id="node32" class="node">
<title>Node32</title>
<g id="a_node32"><a xlink:href="../../d7/de4/FileParser_8h.html" target="_top" xlink:title="This file contains the definitions for functions that handle file parsing operations.">
<polygon fill="white" stroke="black" points="1394,-230 1394,-249 1466,-249 1466,-230 1394,-230"/>
<text text-anchor="middle" x="1430" y="-237" font-family="Helvetica,sans-Serif" font-size="10.00">FileParser.h</text>
</a>
</g>
</g>
<!-- Node22&#45;&gt;Node32 -->
<g id="edge69" class="edge">
<title>Node22&#45;&gt;Node32</title>
<path fill="none" stroke="midnightblue" d="M1701.63,-470.23C1659.56,-434.65 1501.35,-300.84 1447.83,-255.58"/>
<polygon fill="midnightblue" stroke="midnightblue" points="1450.06,-252.88 1440.17,-249.1 1445.54,-258.23 1450.06,-252.88"/>
</g>
<!-- Node23&#45;&gt;Node2 -->
<g id="edge38" class="edge">
<title>Node23&#45;&gt;Node2</title>
<path fill="none" stroke="midnightblue" d="M1970.07,-291.48C1939.96,-281.18 1889.17,-263.81 1855.36,-252.25"/>
<polygon fill="midnightblue" stroke="midnightblue" points="1856.48,-248.93 1845.88,-249.01 1854.21,-255.56 1856.48,-248.93"/>
</g>
<!-- Node23&#45;&gt;Node5 -->
<g id="edge37" class="edge">
<title>Node23&#45;&gt;Node5</title>
<path fill="none" stroke="midnightblue" d="M2007.64,-291.36C2030.85,-274.63 2079.57,-235.26 2098,-188 2104.84,-170.45 2099.88,-125.01 2091,-112 2061.64,-68.95 2038,-70.66 1988,-56 1878.85,-23.99 1528.72,-14.17 1409.33,-11.71"/>
<polygon fill="midnightblue" stroke="midnightblue" points="1409.23,-8.21 1399.16,-11.51 1409.09,-15.21 1409.23,-8.21"/>
</g>
<!-- Node23&#45;&gt;Node8 -->
<g id="edge36" class="edge">
<title>Node23&#45;&gt;Node8</title>
<path fill="none" stroke="midnightblue" d="M1994.08,-291.42C1991.1,-267.95 1979.54,-202.16 1941,-168 1919.16,-148.64 1889.73,-137.53 1861.84,-131.17"/>
<polygon fill="midnightblue" stroke="midnightblue" points="1862.56,-127.75 1852.05,-129.12 1861.12,-134.6 1862.56,-127.75"/>
</g>
<!-- Node24&#45;&gt;Node5 -->
<g id="edge42" class="edge">
<title>Node24&#45;&gt;Node5</title>
<path fill="none" stroke="midnightblue" d="M948.02,-414.75C997.52,-400.76 1082,-367.31 1082,-302 1082,-302 1082,-302 1082,-121 1082,-68.78 1249.74,-32.11 1328.75,-17.74"/>
<polygon fill="midnightblue" stroke="midnightblue" points="1329.6,-21.14 1338.83,-15.94 1328.37,-14.25 1329.6,-21.14"/>
</g>
<!-- Node24&#45;&gt;Node16 -->
<g id="edge43" class="edge">
<title>Node24&#45;&gt;Node16</title>
<path fill="none" stroke="midnightblue" d="M877.83,-420.07C752.72,-409.22 330.27,-369.01 209,-311 175.5,-294.98 162.08,-288.93 147,-255 131.18,-219.38 135.24,-199.64 158,-168 168.53,-153.36 185.4,-142.82 200.86,-135.64"/>
<polygon fill="midnightblue" stroke="midnightblue" points="202.43,-138.77 210.23,-131.6 199.66,-132.35 202.43,-138.77"/>
</g>
<!-- Node24&#45;&gt;Node21 -->
<g id="edge41" class="edge">
<title>Node24&#45;&gt;Node21</title>
<path fill="none" stroke="midnightblue" d="M908.03,-414.48C895.56,-393.21 861.63,-336.27 830,-291 789.99,-233.74 738.02,-169.25 713.69,-139.57"/>
<polygon fill="midnightblue" stroke="midnightblue" points="716.13,-137.02 707.07,-131.52 710.72,-141.47 716.13,-137.02"/>
</g>
<!-- Node24&#45;&gt;Node25 -->
<g id="edge44" class="edge">
<title>Node24&#45;&gt;Node25</title>
<path fill="none" stroke="midnightblue" d="M915.52,-414.3C921.17,-394.76 934.96,-347.06 942.64,-320.55"/>
<polygon fill="midnightblue" stroke="midnightblue" points="946.09,-321.2 945.51,-310.62 939.36,-319.26 946.09,-321.2"/>
</g>
<!-- Node28 -->
<g id="node28" class="node">
<title>Node28</title>
<g id="a_node28"><a xlink:href="../../d4/dfb/LUP_8h.html" target="_top" xlink:title="LU factorization with pivoting.">
<polygon fill="white" stroke="black" points="664.5,-347.5 664.5,-377.5 771.5,-377.5 771.5,-347.5 664.5,-347.5"/>
<text text-anchor="start" x="672.5" y="-365.5" font-family="Helvetica,sans-Serif" font-size="10.00">math/factorization</text>
<text text-anchor="middle" x="718" y="-354.5" font-family="Helvetica,sans-Serif" font-size="10.00">/LUP.h</text>
</a>
</g>
</g>
<!-- Node24&#45;&gt;Node28 -->
<g id="edge52" class="edge">
<title>Node24&#45;&gt;Node28</title>
<path fill="none" stroke="midnightblue" d="M885.06,-414.48C856.18,-405.66 810.32,-391.67 773.94,-380.57"/>
<polygon fill="midnightblue" stroke="midnightblue" points="774.54,-377.09 763.96,-377.52 772.5,-383.79 774.54,-377.09"/>
</g>
<!-- Node25&#45;&gt;Node2 -->
<g id="edge49" class="edge">
<title>Node25&#45;&gt;Node2</title>
<path fill="none" stroke="midnightblue" d="M1013.62,-295.53C1178.07,-284.32 1605.83,-255.16 1762.45,-244.49"/>
<polygon fill="midnightblue" stroke="midnightblue" points="1763.07,-247.96 1772.81,-243.78 1762.59,-240.97 1763.07,-247.96"/>
</g>
<!-- Node25&#45;&gt;Node5 -->
<g id="edge46" class="edge">
<title>Node25&#45;&gt;Node5</title>
<path fill="none" stroke="midnightblue" d="M939.23,-291.36C918.46,-269.83 869.81,-212.34 894,-168 938.05,-87.27 981.93,-88.41 1068,-56 1157.1,-22.45 1269.88,-13.83 1328.88,-11.67"/>
<polygon fill="midnightblue" stroke="midnightblue" points="1329.02,-15.17 1338.91,-11.35 1328.8,-8.18 1329.02,-15.17"/>
</g>
<!-- Node25&#45;&gt;Node16 -->
<g id="edge47" class="edge">
<title>Node25&#45;&gt;Node16</title>
<path fill="none" stroke="midnightblue" d="M882.48,-298.63C699.59,-294.47 195.27,-280.72 171,-255 137.89,-219.91 189.19,-165.03 218.65,-138.45"/>
<polygon fill="midnightblue" stroke="midnightblue" points="221.08,-140.97 226.28,-131.75 216.46,-135.71 221.08,-140.97"/>
</g>
<!-- Node25&#45;&gt;Node19 -->
<g id="edge48" class="edge">
<title>Node25&#45;&gt;Node19</title>
<path fill="none" stroke="midnightblue" d="M924.06,-291.36C901.99,-283.06 868.59,-269.65 841,-255 738.34,-200.47 722.14,-171.03 622,-112 602.76,-100.66 580.42,-88.88 563.48,-80.23"/>
<polygon fill="midnightblue" stroke="midnightblue" points="564.69,-76.92 554.19,-75.51 561.52,-83.16 564.69,-76.92"/>
</g>
<!-- Node25&#45;&gt;Node21 -->
<g id="edge45" class="edge">
<title>Node25&#45;&gt;Node21</title>
<path fill="none" stroke="midnightblue" d="M936.04,-291.46C896.6,-263.31 770.34,-173.21 720.51,-137.64"/>
<polygon fill="midnightblue" stroke="midnightblue" points="722.3,-134.62 712.13,-131.66 718.24,-140.32 722.3,-134.62"/>
</g>
<!-- Node26 -->
<g id="node26" class="node">
<title>Node26</title>
<g id="a_node26"><a xlink:href="../../d4/d2e/Stopwatch_8h.html" target="_top" xlink:title="This file contains the Stopwatch class which is a utility for measuring time durations in various uni...">
<polygon fill="white" stroke="black" points="958.5,-230 958.5,-249 1053.5,-249 1053.5,-230 958.5,-230"/>
<text text-anchor="middle" x="1006" y="-237" font-family="Helvetica,sans-Serif" font-size="10.00">../../Stopwatch.h</text>
</a>
</g>
</g>
<!-- Node25&#45;&gt;Node26 -->
<g id="edge50" class="edge">
<title>Node25&#45;&gt;Node26</title>
<path fill="none" stroke="midnightblue" d="M956.31,-291.48C965.18,-282.37 979.45,-267.74 990.42,-256.48"/>
<polygon fill="midnightblue" stroke="midnightblue" points="993.23,-258.61 997.71,-249.01 988.22,-253.73 993.23,-258.61"/>
</g>
<!-- Node27 -->
<g id="node27" class="node">
<title>Node27</title>
<g id="a_node27"><a xlink:title=" ">
<polygon fill="white" stroke="#bfbfbf" points="966,-168.5 966,-187.5 1016,-187.5 1016,-168.5 966,-168.5"/>
<text text-anchor="middle" x="991" y="-175.5" font-family="Helvetica,sans-Serif" font-size="10.00">chrono</text>
</a>
</g>
</g>
<!-- Node26&#45;&gt;Node27 -->
<g id="edge51" class="edge">
<title>Node26&#45;&gt;Node27</title>
<path fill="none" stroke="midnightblue" d="M1003.85,-229.98C1001.71,-221.49 998.36,-208.2 995.62,-197.32"/>
<polygon fill="midnightblue" stroke="midnightblue" points="998.98,-196.35 993.15,-187.51 992.2,-198.06 998.98,-196.35"/>
</g>
<!-- Node28&#45;&gt;Node2 -->
<g id="edge58" class="edge">
<title>Node28&#45;&gt;Node2</title>
<path fill="none" stroke="midnightblue" d="M771.57,-355.62C956.91,-335.29 1570.04,-268.03 1762.6,-246.91"/>
<polygon fill="midnightblue" stroke="midnightblue" points="1763.24,-250.36 1772.8,-245.79 1762.48,-243.4 1763.24,-250.36"/>
</g>
<!-- Node28&#45;&gt;Node5 -->
<g id="edge54" class="edge">
<title>Node28&#45;&gt;Node5</title>
<path fill="none" stroke="midnightblue" d="M724.9,-347.47C751.82,-294.67 855.88,-108.24 1007,-56 1118.93,-17.31 1260.49,-11.13 1328.67,-10.61"/>
<polygon fill="midnightblue" stroke="midnightblue" points="1328.98,-14.11 1338.97,-10.57 1328.96,-7.11 1328.98,-14.11"/>
</g>
<!-- Node28&#45;&gt;Node16 -->
<g id="edge56" class="edge">
<title>Node28&#45;&gt;Node16</title>
<path fill="none" stroke="midnightblue" d="M664.39,-359.74C536.61,-354.3 219.96,-333.07 156,-255 142.18,-238.13 166.28,-173.3 170,-168 179.55,-154.4 194.64,-143.74 208.08,-136.22"/>
<polygon fill="midnightblue" stroke="midnightblue" points="209.81,-139.26 217.03,-131.51 206.55,-133.06 209.81,-139.26"/>
</g>
<!-- Node28&#45;&gt;Node19 -->
<g id="edge57" class="edge">
<title>Node28&#45;&gt;Node19</title>
<path fill="none" stroke="midnightblue" d="M710.98,-347.2C698.44,-321.93 671.09,-267.92 645,-224 614.53,-172.7 605.44,-160.71 571,-112 564.2,-102.39 556.29,-91.88 549.81,-83.43"/>
<polygon fill="midnightblue" stroke="midnightblue" points="552.57,-81.28 543.68,-75.51 547.03,-85.56 552.57,-81.28"/>
</g>
<!-- Node28&#45;&gt;Node21 -->
<g id="edge53" class="edge">
<title>Node28&#45;&gt;Node21</title>
<path fill="none" stroke="midnightblue" d="M716.93,-347.29C713.84,-306.43 704.95,-188.55 701.44,-142.12"/>
<polygon fill="midnightblue" stroke="midnightblue" points="704.92,-141.65 700.68,-131.95 697.94,-142.18 704.92,-141.65"/>
</g>
<!-- Node28&#45;&gt;Node25 -->
<g id="edge55" class="edge">
<title>Node28&#45;&gt;Node25</title>
<path fill="none" stroke="midnightblue" d="M771.63,-347.62C812.16,-337.14 867.06,-322.94 904.79,-313.18"/>
<polygon fill="midnightblue" stroke="midnightblue" points="906.14,-316.44 914.95,-310.55 904.39,-309.67 906.14,-316.44"/>
</g>
<!-- Node28&#45;&gt;Node26 -->
<g id="edge59" class="edge">
<title>Node28&#45;&gt;Node26</title>
<path fill="none" stroke="midnightblue" d="M771.8,-360.62C850.58,-358.06 991.41,-348.25 1023,-311 1035.54,-296.21 1026.84,-273.69 1017.91,-258.11"/>
<polygon fill="midnightblue" stroke="midnightblue" points="1020.77,-256.07 1012.52,-249.42 1014.82,-259.77 1020.77,-256.07"/>
</g>
<!-- Node29 -->
<g id="node29" class="node">
<title>Node29</title>
<g id="a_node29"><a xlink:href="../../d1/d6a/Factorize_8h.html" target="_top" xlink:title="This file contains the declaration of the MyFactorizationMethod namespace, which includes methods and...">
<polygon fill="white" stroke="black" points="566.5,-230 566.5,-249 635.5,-249 635.5,-230 566.5,-230"/>
<text text-anchor="middle" x="601" y="-237" font-family="Helvetica,sans-Serif" font-size="10.00">Factorize.h</text>
</a>
</g>
</g>
<!-- Node28&#45;&gt;Node29 -->
<g id="edge60" class="edge">
<title>Node28&#45;&gt;Node29</title>
<path fill="none" stroke="midnightblue" d="M695.42,-347.46C681.43,-338.13 663.61,-325.04 650,-311 634.34,-294.84 620.12,-273.23 611.07,-258.21"/>
<polygon fill="midnightblue" stroke="midnightblue" points="614,-256.28 605.92,-249.42 607.96,-259.82 614,-256.28"/>
</g>
<!-- Node30 -->
<g id="node30" class="node">
<title>Node30</title>
<g id="a_node30"><a xlink:href="../../df/dbd/LinearSolver_8h.html" target="_top" xlink:title="This file contains the definition of the LinearSolver class and its associated methods.">
<polygon fill="white" stroke="black" points="444,-291.5 444,-310.5 558,-310.5 558,-291.5 444,-291.5"/>
<text text-anchor="middle" x="501" y="-298.5" font-family="Helvetica,sans-Serif" font-size="10.00">math/LinearSolver.h</text>
</a>
</g>
</g>
<!-- Node28&#45;&gt;Node30 -->
<g id="edge64" class="edge">
<title>Node28&#45;&gt;Node30</title>
<path fill="none" stroke="midnightblue" d="M666.85,-347.47C628.76,-337.03 577.43,-322.96 542.02,-313.25"/>
<polygon fill="midnightblue" stroke="midnightblue" points="542.59,-309.78 532.02,-310.51 540.74,-316.53 542.59,-309.78"/>
</g>
<!-- Node29&#45;&gt;Node16 -->
<g id="edge62" class="edge">
<title>Node29&#45;&gt;Node16</title>
<path fill="none" stroke="midnightblue" d="M593.25,-229.87C579,-214.63 546.98,-183.12 513,-168 445,-137.75 359.47,-127.59 301.79,-124.31"/>
<polygon fill="midnightblue" stroke="midnightblue" points="301.88,-120.81 291.71,-123.79 301.52,-127.8 301.88,-120.81"/>
</g>
<!-- Node29&#45;&gt;Node19 -->
<g id="edge63" class="edge">
<title>Node29&#45;&gt;Node19</title>
<path fill="none" stroke="midnightblue" d="M597.74,-229.76C587.72,-202.92 557.27,-121.32 543.68,-84.89"/>
<polygon fill="midnightblue" stroke="midnightblue" points="546.95,-83.66 540.18,-75.52 540.4,-86.11 546.95,-83.66"/>
</g>
<!-- Node29&#45;&gt;Node20 -->
<g id="edge61" class="edge">
<title>Node29&#45;&gt;Node20</title>
<path fill="none" stroke="midnightblue" d="M578.65,-229.98C552.01,-219.81 507.29,-202.76 476.99,-191.2"/>
<polygon fill="midnightblue" stroke="midnightblue" points="477.9,-187.8 467.31,-187.51 475.41,-194.34 477.9,-187.8"/>
</g>
<!-- Node30&#45;&gt;Node13 -->
<g id="edge68" class="edge">
<title>Node30&#45;&gt;Node13</title>
<path fill="none" stroke="midnightblue" d="M479.67,-291.49C457.29,-282.52 421.1,-267.94 390,-255 388.59,-254.41 387.15,-253.81 385.7,-253.2"/>
<polygon fill="midnightblue" stroke="midnightblue" points="386.68,-249.82 376.11,-249.15 383.96,-256.27 386.68,-249.82"/>
</g>
<!-- Node30&#45;&gt;Node29 -->
<g id="edge65" class="edge">
<title>Node30&#45;&gt;Node29</title>
<path fill="none" stroke="midnightblue" d="M515.33,-291.48C531.66,-281.75 558.6,-265.73 577.91,-254.24"/>
<polygon fill="midnightblue" stroke="midnightblue" points="579.89,-257.13 586.7,-249.01 576.32,-251.11 579.89,-257.13"/>
</g>
<!-- Node31 -->
<g id="node31" class="node">
<title>Node31</title>
<g id="a_node31"><a xlink:href="../../d0/d24/RelaxationMethods_8h.html" target="_top" xlink:title="This file contains the declaration of the RelaxationMethods namespace, which includes the Type enumer...">
<polygon fill="white" stroke="black" points="399,-224.5 399,-254.5 549,-254.5 549,-224.5 399,-224.5"/>
<text text-anchor="start" x="407" y="-242.5" font-family="Helvetica,sans-Serif" font-size="10.00">math/relaxation/Relaxation</text>
<text text-anchor="middle" x="474" y="-231.5" font-family="Helvetica,sans-Serif" font-size="10.00">Methods.h</text>
</a>
</g>
</g>
<!-- Node30&#45;&gt;Node31 -->
<g id="edge66" class="edge">
<title>Node30&#45;&gt;Node31</title>
<path fill="none" stroke="midnightblue" d="M497.13,-291.48C493.85,-284.25 488.99,-273.53 484.56,-263.78"/>
<polygon fill="midnightblue" stroke="midnightblue" points="487.68,-262.18 480.36,-254.52 481.31,-265.08 487.68,-262.18"/>
</g>
<!-- Node31&#45;&gt;Node20 -->
<g id="edge67" class="edge">
<title>Node31&#45;&gt;Node20</title>
<path fill="none" stroke="midnightblue" d="M467.13,-224.4C463.09,-216.11 457.94,-205.55 453.63,-196.71"/>
<polygon fill="midnightblue" stroke="midnightblue" points="456.75,-195.11 449.22,-187.66 450.45,-198.18 456.75,-195.11"/>
</g>
<!-- Node32&#45;&gt;Node5 -->
<g id="edge73" class="edge">
<title>Node32&#45;&gt;Node5</title>
<path fill="none" stroke="midnightblue" d="M1466.19,-239.34C1534.8,-239.5 1673.77,-232.15 1637,-168 1587.72,-82.02 1471.09,-38.58 1409.2,-20.91"/>
<polygon fill="midnightblue" stroke="midnightblue" points="1409.96,-17.49 1399.39,-18.2 1408.09,-24.24 1409.96,-17.49"/>
</g>
<!-- Node32&#45;&gt;Node7 -->
<g id="edge80" class="edge">
<title>Node32&#45;&gt;Node7</title>
<path fill="none" stroke="midnightblue" d="M1393.55,-233.02C1338.29,-224.51 1230.08,-207.12 1139,-188 1102.71,-180.38 1094.35,-175.34 1058,-168 970.82,-150.39 867.47,-135.56 812.32,-128.13"/>
<polygon fill="midnightblue" stroke="midnightblue" points="812.65,-124.64 802.28,-126.78 811.72,-131.58 812.65,-124.64"/>
</g>
<!-- Node32&#45;&gt;Node10 -->
<g id="edge74" class="edge">
<title>Node32&#45;&gt;Node10</title>
<path fill="none" stroke="midnightblue" d="M1466.28,-231.31C1513.36,-221.87 1598.01,-204.57 1670,-188 1671.27,-187.71 1672.57,-187.4 1673.87,-187.1"/>
<polygon fill="midnightblue" stroke="midnightblue" points="1675.05,-190.41 1683.95,-184.65 1673.4,-183.61 1675.05,-190.41"/>
</g>
<!-- Node32&#45;&gt;Node16 -->
<g id="edge79" class="edge">
<title>Node32&#45;&gt;Node16</title>
<path fill="none" stroke="midnightblue" d="M1393.81,-235.48C1312.9,-228.42 1119.6,-209.78 1058,-188 1041.83,-182.28 1041.38,-173.08 1025,-168 956.83,-146.84 477.67,-130.32 301.65,-124.9"/>
<polygon fill="midnightblue" stroke="midnightblue" points="301.6,-121.39 291.5,-124.59 301.39,-128.39 301.6,-121.39"/>
</g>
<!-- Node32&#45;&gt;Node27 -->
<g id="edge75" class="edge">
<title>Node32&#45;&gt;Node27</title>
<path fill="none" stroke="midnightblue" d="M1393.96,-235.18C1323.64,-228.44 1163.34,-211.74 1030,-188 1028.73,-187.77 1027.44,-187.53 1026.14,-187.28"/>
<polygon fill="midnightblue" stroke="midnightblue" points="1026.6,-183.8 1016.1,-185.19 1025.17,-190.66 1026.6,-183.8"/>
</g>
<!-- Node33 -->
<g id="node33" class="node">
<title>Node33</title>
<g id="a_node33"><a xlink:title=" ">
<polygon fill="white" stroke="#bfbfbf" points="1148,-168.5 1148,-187.5 1260,-187.5 1260,-168.5 1148,-168.5"/>
<text text-anchor="middle" x="1204" y="-175.5" font-family="Helvetica,sans-Serif" font-size="10.00">boost/tokenizer.hpp</text>
</a>
</g>
</g>
<!-- Node32&#45;&gt;Node33 -->
<g id="edge70" class="edge">
<title>Node32&#45;&gt;Node33</title>
<path fill="none" stroke="midnightblue" d="M1397.62,-229.98C1357.76,-219.48 1289.98,-201.64 1246.11,-190.09"/>
<polygon fill="midnightblue" stroke="midnightblue" points="1246.88,-186.67 1236.32,-187.51 1245.1,-193.44 1246.88,-186.67"/>
</g>
<!-- Node34 -->
<g id="node34" class="node">
<title>Node34</title>
<g id="a_node34"><a xlink:title=" ">
<polygon fill="white" stroke="#bfbfbf" points="1278,-168.5 1278,-187.5 1346,-187.5 1346,-168.5 1278,-168.5"/>
<text text-anchor="middle" x="1312" y="-175.5" font-family="Helvetica,sans-Serif" font-size="10.00">filesystem</text>
</a>
</g>
</g>
<!-- Node32&#45;&gt;Node34 -->
<g id="edge71" class="edge">
<title>Node32&#45;&gt;Node34</title>
<path fill="none" stroke="midnightblue" d="M1413.09,-229.98C1393.47,-220.08 1360.87,-203.64 1338.01,-192.12"/>
<polygon fill="midnightblue" stroke="midnightblue" points="1339.38,-188.89 1328.88,-187.51 1336.23,-195.14 1339.38,-188.89"/>
</g>
<!-- Node35 -->
<g id="node35" class="node">
<title>Node35</title>
<g id="a_node35"><a xlink:title=" ">
<polygon fill="white" stroke="#bfbfbf" points="1364.5,-168.5 1364.5,-187.5 1419.5,-187.5 1419.5,-168.5 1364.5,-168.5"/>
<text text-anchor="middle" x="1392" y="-175.5" font-family="Helvetica,sans-Serif" font-size="10.00">fstream</text>
</a>
</g>
</g>
<!-- Node32&#45;&gt;Node35 -->
<g id="edge72" class="edge">
<title>Node32&#45;&gt;Node35</title>
<path fill="none" stroke="midnightblue" d="M1424.56,-229.98C1418.91,-221.14 1409.94,-207.09 1402.84,-195.98"/>
<polygon fill="midnightblue" stroke="midnightblue" points="1405.77,-194.05 1397.43,-187.51 1399.87,-197.82 1405.77,-194.05"/>
</g>
<!-- Node36 -->
<g id="node36" class="node">
<title>Node36</title>
<g id="a_node36"><a xlink:title=" ">
<polygon fill="white" stroke="#bfbfbf" points="1438,-168.5 1438,-187.5 1496,-187.5 1496,-168.5 1438,-168.5"/>
<text text-anchor="middle" x="1467" y="-175.5" font-family="Helvetica,sans-Serif" font-size="10.00">memory</text>
</a>
</g>
</g>
<!-- Node32&#45;&gt;Node36 -->
<g id="edge76" class="edge">
<title>Node32&#45;&gt;Node36</title>
<path fill="none" stroke="midnightblue" d="M1435.3,-229.98C1440.74,-221.23 1449.36,-207.37 1456.24,-196.31"/>
<polygon fill="midnightblue" stroke="midnightblue" points="1459.4,-197.85 1461.71,-187.51 1453.46,-194.15 1459.4,-197.85"/>
</g>
<!-- Node37 -->
<g id="node37" class="node">
<title>Node37</title>
<g id="a_node37"><a xlink:title=" ">
<polygon fill="white" stroke="#bfbfbf" points="1514,-168.5 1514,-187.5 1562,-187.5 1562,-168.5 1514,-168.5"/>
<text text-anchor="middle" x="1538" y="-175.5" font-family="Helvetica,sans-Serif" font-size="10.00">mutex</text>
</a>
</g>
</g>
<!-- Node32&#45;&gt;Node37 -->
<g id="edge77" class="edge">
<title>Node32&#45;&gt;Node37</title>
<path fill="none" stroke="midnightblue" d="M1445.47,-229.98C1463.28,-220.17 1492.74,-203.93 1513.63,-192.42"/>
<polygon fill="midnightblue" stroke="midnightblue" points="1515.49,-195.4 1522.55,-187.51 1512.11,-189.27 1515.49,-195.4"/>
</g>
<!-- Node38 -->
<g id="node38" class="node">
<title>Node38</title>
<g id="a_node38"><a xlink:title=" ">
<polygon fill="white" stroke="#bfbfbf" points="1580,-168.5 1580,-187.5 1628,-187.5 1628,-168.5 1580,-168.5"/>
<text text-anchor="middle" x="1604" y="-175.5" font-family="Helvetica,sans-Serif" font-size="10.00">thread</text>
</a>
</g>
</g>
<!-- Node32&#45;&gt;Node38 -->
<g id="edge78" class="edge">
<title>Node32&#45;&gt;Node38</title>
<path fill="none" stroke="midnightblue" d="M1454.93,-229.98C1485.16,-219.64 1536.26,-202.16 1570.06,-190.61"/>
<polygon fill="midnightblue" stroke="midnightblue" points="1571.63,-193.77 1579.96,-187.22 1569.36,-187.15 1571.63,-193.77"/>
</g>
<!-- Node39&#45;&gt;Node2 -->
<g id="edge84" class="edge">
<title>Node39&#45;&gt;Node2</title>
<path fill="none" stroke="midnightblue" d="M1856.98,-291.48C1850.74,-282.64 1840.83,-268.59 1832.98,-257.48"/>
<polygon fill="midnightblue" stroke="midnightblue" points="1835.63,-255.16 1827.01,-249.01 1829.91,-259.2 1835.63,-255.16"/>
</g>
<!-- Node39&#45;&gt;Node8 -->
<g id="edge85" class="edge">
<title>Node39&#45;&gt;Node8</title>
<path fill="none" stroke="midnightblue" d="M1872.84,-291.31C1896.74,-269.19 1953.65,-209.52 1923,-168 1912.2,-153.37 1871.09,-141.5 1835.23,-133.64"/>
<polygon fill="midnightblue" stroke="midnightblue" points="1835.8,-130.18 1825.29,-131.52 1834.34,-137.03 1835.8,-130.18"/>
</g>
<!-- Node39&#45;&gt;Node15 -->
<g id="edge86" class="edge">
<title>Node39&#45;&gt;Node15</title>
<path fill="none" stroke="midnightblue" d="M1833.34,-298.32C1720.11,-291.48 1304.53,-262.6 957.63,-187.89"/>
<polygon fill="midnightblue" stroke="midnightblue" points="958.16,-184.43 947.64,-185.73 956.67,-191.27 958.16,-184.43"/>
</g>
</g>
</svg>
