<?xml version="1.0" encoding="UTF-8" standalone="no"?>
<!DOCTYPE svg PUBLIC "-//W3C//DTD SVG 1.1//EN"
 "http://www.w3.org/Graphics/SVG/1.1/DTD/svg11.dtd">
<!-- Generated by graphviz version 2.43.0 (0)
 -->
<!-- Title: HeaderInfo Pages: 1 -->
<svg width="158pt" height="321pt"
 viewBox="0.00 0.00 158.00 321.00" xmlns="http://www.w3.org/2000/svg" xmlns:xlink="http://www.w3.org/1999/xlink">
<g id="graph0" class="graph" transform="scale(1 1) rotate(0) translate(4 317)">
<title>HeaderInfo</title>
<polygon fill="white" stroke="transparent" points="-4,4 -4,-317 154,-317 154,4 -4,4"/>
<!-- Node1 -->
<g id="node1" class="node">
<title>Node1</title>
<g id="a_node1"><a xlink:title="A struct to store information about the project.">
<polygon fill="#bfbfbf" stroke="black" points="16.5,-0.5 16.5,-57.5 87.5,-57.5 87.5,-0.5 16.5,-0.5"/>
<text text-anchor="middle" x="52" y="-45.5" font-family="Helvetica,sans-Serif" font-size="10.00">HeaderInfo</text>
<polyline fill="none" stroke="black" points="16.5,-38.5 87.5,-38.5 "/>
<text text-anchor="middle" x="52" y="-26.5" font-family="Helvetica,sans-Serif" font-size="10.00"> </text>
<polyline fill="none" stroke="black" points="16.5,-19.5 87.5,-19.5 "/>
<text text-anchor="middle" x="52" y="-7.5" font-family="Helvetica,sans-Serif" font-size="10.00"> </text>
</a>
</g>
</g>
<!-- Node2 -->
<g id="node2" class="node">
<title>Node2</title>
<g id="a_node2"><a xlink:title=" ">
<polygon fill="white" stroke="#bfbfbf" points="19.5,-149.5 19.5,-206.5 84.5,-206.5 84.5,-149.5 19.5,-149.5"/>
<text text-anchor="middle" x="52" y="-194.5" font-family="Helvetica,sans-Serif" font-size="10.00">std::string</text>
<polyline fill="none" stroke="#bfbfbf" points="19.5,-187.5 84.5,-187.5 "/>
<text text-anchor="middle" x="52" y="-175.5" font-family="Helvetica,sans-Serif" font-size="10.00"> </text>
<polyline fill="none" stroke="#bfbfbf" points="19.5,-168.5 84.5,-168.5 "/>
<text text-anchor="middle" x="52" y="-156.5" font-family="Helvetica,sans-Serif" font-size="10.00"> </text>
</a>
</g>
</g>
<!-- Node2&#45;&gt;Node1 -->
<g id="edge1" class="edge">
<title>Node2&#45;&gt;Node1</title>
<path fill="none" stroke="#404040" d="M52,-149.35C52,-126.87 52,-94.85 52,-69.64"/>
<polygon fill="none" stroke="#404040" points="52,-69.53 48,-63.53 52,-57.53 56,-63.53 52,-69.53"/>
<text text-anchor="middle" x="101" y="-123" font-family="Helvetica,sans-Serif" font-size="10.00"> +HeaderArt</text>
<text text-anchor="middle" x="101" y="-112" font-family="Helvetica,sans-Serif" font-size="10.00">+ProjectDescription</text>
<text text-anchor="middle" x="101" y="-101" font-family="Helvetica,sans-Serif" font-size="10.00">+ProjectName</text>
<text text-anchor="middle" x="101" y="-90" font-family="Helvetica,sans-Serif" font-size="10.00">+StudentName</text>
<text text-anchor="middle" x="101" y="-79" font-family="Helvetica,sans-Serif" font-size="10.00">+SubmissionDate</text>
</g>
<!-- Node3 -->
<g id="node3" class="node">
<title>Node3</title>
<g id="a_node3"><a xlink:title=" ">
<polygon fill="white" stroke="#bfbfbf" points="0,-244.5 0,-312.5 104,-312.5 104,-244.5 0,-244.5"/>
<text text-anchor="start" x="8" y="-300.5" font-family="Helvetica,sans-Serif" font-size="10.00">std::basic_string&lt;</text>
<text text-anchor="middle" x="52" y="-289.5" font-family="Helvetica,sans-Serif" font-size="10.00"> Char &gt;</text>
<polyline fill="none" stroke="#bfbfbf" points="0,-282.5 104,-282.5 "/>
<text text-anchor="middle" x="52" y="-270.5" font-family="Helvetica,sans-Serif" font-size="10.00"> </text>
<polyline fill="none" stroke="#bfbfbf" points="0,-263.5 104,-263.5 "/>
<text text-anchor="middle" x="52" y="-251.5" font-family="Helvetica,sans-Serif" font-size="10.00"> </text>
</a>
</g>
</g>
<!-- Node3&#45;&gt;Node2 -->
<g id="edge2" class="edge">
<title>Node3&#45;&gt;Node2</title>
<path fill="none" stroke="midnightblue" d="M52,-234.38C52,-224.94 52,-215.2 52,-206.57"/>
<polygon fill="none" stroke="midnightblue" points="48.5,-234.43 52,-244.43 55.5,-234.43 48.5,-234.43"/>
</g>
</g>
</svg>
