<?xml version="1.0" encoding="UTF-8" standalone="no"?>
<!DOCTYPE svg PUBLIC "-//W3C//DTD SVG 1.1//EN"
 "http://www.w3.org/Graphics/SVG/1.1/DTD/svg11.dtd">
<!-- Generated by graphviz version 2.43.0 (0)
 -->
<!-- Title: src/utils/Project.h Pages: 1 -->
<svg width="1766pt" height="543pt"
 viewBox="0.00 0.00 1766.00 543.00" xmlns="http://www.w3.org/2000/svg" xmlns:xlink="http://www.w3.org/1999/xlink">
<g id="graph0" class="graph" transform="scale(1 1) rotate(0) translate(4 539)">
<title>src/utils/Project.h</title>
<polygon fill="white" stroke="transparent" points="-4,4 -4,-539 1762,-539 1762,4 -4,4"/>
<!-- Node1 -->
<g id="node1" class="node">
<title>Node1</title>
<g id="a_node1"><a xlink:title="This file contains the definition of the Project class template. The Project class is a generic class...">
<polygon fill="#bfbfbf" stroke="black" points="497.5,-515.5 497.5,-534.5 598.5,-534.5 598.5,-515.5 497.5,-515.5"/>
<text text-anchor="middle" x="548" y="-522.5" font-family="Helvetica,sans-Serif" font-size="10.00">src/utils/Project.h</text>
</a>
</g>
</g>
<!-- Node2 -->
<g id="node2" class="node">
<title>Node2</title>
<g id="a_node2"><a xlink:href="../../d9/d41/CommandLine_8h.html" target="_top" xlink:title="This file contains the definition of the CommandLine class and the HeaderInfo struct.">
<polygon fill="white" stroke="black" points="538,-459.5 538,-478.5 634,-478.5 634,-459.5 538,-459.5"/>
<text text-anchor="middle" x="586" y="-466.5" font-family="Helvetica,sans-Serif" font-size="10.00">CommandLine.h</text>
</a>
</g>
</g>
<!-- Node1&#45;&gt;Node2 -->
<g id="edge1" class="edge">
<title>Node1&#45;&gt;Node2</title>
<path fill="none" stroke="midnightblue" d="M554.27,-515.08C559.64,-507.46 567.52,-496.26 574.08,-486.94"/>
<polygon fill="midnightblue" stroke="midnightblue" points="576.95,-488.94 579.84,-478.75 571.22,-484.91 576.95,-488.94"/>
</g>
<!-- Node13 -->
<g id="node13" class="node">
<title>Node13</title>
<g id="a_node13"><a xlink:title=" ">
<polygon fill="white" stroke="#bfbfbf" points="0,-230 0,-249 150,-249 150,-230 0,-230"/>
<text text-anchor="middle" x="75" y="-237" font-family="Helvetica,sans-Serif" font-size="10.00">boost/program_options.hpp</text>
</a>
</g>
</g>
<!-- Node1&#45;&gt;Node13 -->
<g id="edge73" class="edge">
<title>Node1&#45;&gt;Node13</title>
<path fill="none" stroke="midnightblue" d="M497.47,-523.98C366.47,-522.58 26,-509.74 26,-414 26,-414 26,-414 26,-356 26,-318.62 48.02,-279.46 62.54,-257.69"/>
<polygon fill="midnightblue" stroke="midnightblue" points="65.57,-259.45 68.39,-249.24 59.82,-255.47 65.57,-259.45"/>
</g>
<!-- Node17 -->
<g id="node17" class="node">
<title>Node17</title>
<g id="a_node17"><a xlink:href="../../df/d69/Profiler_8h.html" target="_top" xlink:title="This file contains the Profiler class which is used to profile the execution time of a function.">
<polygon fill="white" stroke="black" points="986.5,-403.5 986.5,-422.5 1107.5,-422.5 1107.5,-403.5 986.5,-403.5"/>
<text text-anchor="middle" x="1047" y="-410.5" font-family="Helvetica,sans-Serif" font-size="10.00">utils/profiler/Profiler.h</text>
</a>
</g>
</g>
<!-- Node1&#45;&gt;Node17 -->
<g id="edge72" class="edge">
<title>Node1&#45;&gt;Node17</title>
<path fill="none" stroke="midnightblue" d="M586.74,-515.46C676.64,-495.64 899.3,-446.56 998.25,-424.75"/>
<polygon fill="midnightblue" stroke="midnightblue" points="999.27,-428.11 1008.28,-422.53 997.77,-421.27 999.27,-428.11"/>
</g>
<!-- Node21 -->
<g id="node21" class="node">
<title>Node21</title>
<g id="a_node21"><a xlink:title=" ">
<polygon fill="white" stroke="#bfbfbf" points="494.5,-347.5 494.5,-366.5 539.5,-366.5 539.5,-347.5 494.5,-347.5"/>
<text text-anchor="middle" x="517" y="-354.5" font-family="Helvetica,sans-Serif" font-size="10.00">utility</text>
</a>
</g>
</g>
<!-- Node1&#45;&gt;Node21 -->
<g id="edge74" class="edge">
<title>Node1&#45;&gt;Node21</title>
<path fill="none" stroke="midnightblue" d="M543.4,-515.31C538.93,-506.44 532.35,-492.15 529,-479 520.01,-443.66 517.69,-400.92 517.13,-376.86"/>
<polygon fill="midnightblue" stroke="midnightblue" points="520.63,-376.61 516.97,-366.66 513.63,-376.71 520.63,-376.61"/>
</g>
<!-- Node3 -->
<g id="node3" class="node">
<title>Node3</title>
<g id="a_node3"><a xlink:href="../../db/df1/Helpers_8h.html" target="_top" xlink:title="This file contains helper functions and structures used throughout the program.">
<polygon fill="white" stroke="black" points="555.5,-291.5 555.5,-310.5 618.5,-310.5 618.5,-291.5 555.5,-291.5"/>
<text text-anchor="middle" x="587" y="-298.5" font-family="Helvetica,sans-Serif" font-size="10.00">Helpers.h</text>
</a>
</g>
</g>
<!-- Node2&#45;&gt;Node3 -->
<g id="edge2" class="edge">
<title>Node2&#45;&gt;Node3</title>
<path fill="none" stroke="midnightblue" d="M568.79,-459.46C532.79,-440.43 455.27,-392.62 485,-347 498.38,-326.47 523.48,-315.24 545.42,-309.13"/>
<polygon fill="midnightblue" stroke="midnightblue" points="546.39,-312.5 555.23,-306.67 544.68,-305.71 546.39,-312.5"/>
</g>
<!-- Node5 -->
<g id="node5" class="node">
<title>Node5</title>
<g id="a_node5"><a xlink:title=" ">
<polygon fill="white" stroke="#bfbfbf" points="994,-112.5 994,-131.5 1054,-131.5 1054,-112.5 994,-112.5"/>
<text text-anchor="middle" x="1024" y="-119.5" font-family="Helvetica,sans-Serif" font-size="10.00">iostream</text>
</a>
</g>
</g>
<!-- Node2&#45;&gt;Node5 -->
<g id="edge69" class="edge">
<title>Node2&#45;&gt;Node5</title>
<path fill="none" stroke="midnightblue" d="M634.06,-463.48C673.98,-458.15 731.26,-446.81 776,-423 873.18,-371.29 891.86,-343 958,-255 985.74,-218.1 1007.12,-167.75 1017.36,-141.17"/>
<polygon fill="midnightblue" stroke="midnightblue" points="1020.7,-142.22 1020.94,-131.63 1014.15,-139.76 1020.7,-142.22"/>
</g>
<!-- Node8 -->
<g id="node8" class="node">
<title>Node8</title>
<g id="a_node8"><a xlink:title=" ">
<polygon fill="white" stroke="#bfbfbf" points="905,-230 905,-249 949,-249 949,-230 905,-230"/>
<text text-anchor="middle" x="927" y="-237" font-family="Helvetica,sans-Serif" font-size="10.00">string</text>
</a>
</g>
</g>
<!-- Node2&#45;&gt;Node8 -->
<g id="edge70" class="edge">
<title>Node2&#45;&gt;Node8</title>
<path fill="none" stroke="midnightblue" d="M596.03,-459.16C610.88,-446.24 639.78,-421.71 666,-403 750.15,-342.97 856.35,-280.77 903.08,-254.04"/>
<polygon fill="midnightblue" stroke="midnightblue" points="904.91,-257.02 911.86,-249.03 901.44,-250.94 904.91,-257.02"/>
</g>
<!-- Node2&#45;&gt;Node13 -->
<g id="edge68" class="edge">
<title>Node2&#45;&gt;Node13</title>
<path fill="none" stroke="midnightblue" d="M537.97,-468.48C471.01,-467.63 346.83,-460.49 249,-423 174.59,-394.49 155.7,-375.57 109,-311 97.21,-294.7 87.68,-273.67 81.75,-258.84"/>
<polygon fill="midnightblue" stroke="midnightblue" points="84.93,-257.36 78.08,-249.29 78.4,-259.88 84.93,-257.36"/>
</g>
<!-- Node16 -->
<g id="node16" class="node">
<title>Node16</title>
<g id="a_node16"><a xlink:title=" ">
<polygon fill="white" stroke="#bfbfbf" points="675,-403.5 675,-422.5 767,-422.5 767,-403.5 675,-403.5"/>
<text text-anchor="middle" x="721" y="-410.5" font-family="Helvetica,sans-Serif" font-size="10.00">project&#45;config.h</text>
</a>
</g>
</g>
<!-- Node2&#45;&gt;Node16 -->
<g id="edge16" class="edge">
<title>Node2&#45;&gt;Node16</title>
<path fill="none" stroke="midnightblue" d="M607.39,-459.44C629.71,-450.52 664.9,-436.44 690.21,-426.32"/>
<polygon fill="midnightblue" stroke="midnightblue" points="691.72,-429.48 699.71,-422.52 689.12,-422.98 691.72,-429.48"/>
</g>
<!-- Node2&#45;&gt;Node17 -->
<g id="edge17" class="edge">
<title>Node2&#45;&gt;Node17</title>
<path fill="none" stroke="midnightblue" d="M634.03,-462.37C715.58,-452.82 881.47,-433.39 976.3,-422.28"/>
<polygon fill="midnightblue" stroke="midnightblue" points="976.86,-425.74 986.38,-421.1 976.04,-418.79 976.86,-425.74"/>
</g>
<!-- Node2&#45;&gt;Node21 -->
<g id="edge71" class="edge">
<title>Node2&#45;&gt;Node21</title>
<path fill="none" stroke="midnightblue" d="M580.59,-459.37C569.25,-441.3 542.83,-399.18 527.86,-375.31"/>
<polygon fill="midnightblue" stroke="midnightblue" points="530.67,-373.2 522.39,-366.59 524.74,-376.92 530.67,-373.2"/>
</g>
<!-- Node38 -->
<g id="node38" class="node">
<title>Node38</title>
<g id="a_node38"><a xlink:href="../../de/df7/ProfilerHelper_8h.html" target="_top" xlink:title="This file contains helper functions for handling command line options and initializing the profiler.">
<polygon fill="white" stroke="black" points="272.5,-403.5 272.5,-422.5 425.5,-422.5 425.5,-403.5 272.5,-403.5"/>
<text text-anchor="middle" x="349" y="-410.5" font-family="Helvetica,sans-Serif" font-size="10.00">utils/profiler/ProfilerHelper.h</text>
</a>
</g>
</g>
<!-- Node2&#45;&gt;Node38 -->
<g id="edge64" class="edge">
<title>Node2&#45;&gt;Node38</title>
<path fill="none" stroke="midnightblue" d="M548.45,-459.44C507.19,-450.04 440.86,-434.93 396.13,-424.74"/>
<polygon fill="midnightblue" stroke="midnightblue" points="396.91,-421.33 386.38,-422.52 395.35,-428.15 396.91,-421.33"/>
</g>
<!-- Node4 -->
<g id="node4" class="node">
<title>Node4</title>
<g id="a_node4"><a xlink:title=" ">
<polygon fill="white" stroke="#bfbfbf" points="626,-112.5 626,-131.5 682,-131.5 682,-112.5 626,-112.5"/>
<text text-anchor="middle" x="654" y="-119.5" font-family="Helvetica,sans-Serif" font-size="10.00">iomanip</text>
</a>
</g>
</g>
<!-- Node3&#45;&gt;Node4 -->
<g id="edge3" class="edge">
<title>Node3&#45;&gt;Node4</title>
<path fill="none" stroke="midnightblue" d="M555.42,-293.67C507.47,-283.81 420.73,-264.88 410,-255 380.59,-227.9 361.18,-198.54 387,-168 415.81,-133.93 548.72,-125.64 615.5,-123.64"/>
<polygon fill="midnightblue" stroke="midnightblue" points="615.72,-127.13 625.62,-123.36 615.53,-120.13 615.72,-127.13"/>
</g>
<!-- Node3&#45;&gt;Node5 -->
<g id="edge4" class="edge">
<title>Node3&#45;&gt;Node5</title>
<path fill="none" stroke="midnightblue" d="M618.65,-293.66C623.45,-292.74 628.35,-291.83 633,-291 732.71,-273.27 765.59,-296.43 858,-255 877.89,-246.08 879,-237.64 896,-224 934.51,-193.1 979.97,-157.42 1005.03,-137.82"/>
<polygon fill="midnightblue" stroke="midnightblue" points="1007.27,-140.5 1012.99,-131.59 1002.96,-134.99 1007.27,-140.5"/>
</g>
<!-- Node6 -->
<g id="node6" class="node">
<title>Node6</title>
<g id="a_node6"><a xlink:title=" ">
<polygon fill="white" stroke="#bfbfbf" points="396,-168.5 396,-187.5 440,-187.5 440,-168.5 396,-168.5"/>
<text text-anchor="middle" x="418" y="-175.5" font-family="Helvetica,sans-Serif" font-size="10.00">limits</text>
</a>
</g>
</g>
<!-- Node3&#45;&gt;Node6 -->
<g id="edge5" class="edge">
<title>Node3&#45;&gt;Node6</title>
<path fill="none" stroke="midnightblue" d="M555.24,-293.2C510.52,-283.33 433.44,-265.11 425,-255 411.89,-239.3 412.04,-214.9 414.23,-198"/>
<polygon fill="midnightblue" stroke="midnightblue" points="417.76,-198.13 415.94,-187.7 410.85,-196.99 417.76,-198.13"/>
</g>
<!-- Node7 -->
<g id="node7" class="node">
<title>Node7</title>
<g id="a_node7"><a xlink:title=" ">
<polygon fill="white" stroke="#bfbfbf" points="793,-230 793,-249 849,-249 849,-230 793,-230"/>
<text text-anchor="middle" x="821" y="-237" font-family="Helvetica,sans-Serif" font-size="10.00">sstream</text>
</a>
</g>
</g>
<!-- Node3&#45;&gt;Node7 -->
<g id="edge6" class="edge">
<title>Node3&#45;&gt;Node7</title>
<path fill="none" stroke="midnightblue" d="M618.61,-293.46C666.27,-283.49 754.22,-264.63 785,-255 787.28,-254.29 789.62,-253.49 791.95,-252.66"/>
<polygon fill="midnightblue" stroke="midnightblue" points="793.3,-255.89 801.4,-249.05 790.81,-249.35 793.3,-255.89"/>
</g>
<!-- Node3&#45;&gt;Node8 -->
<g id="edge7" class="edge">
<title>Node3&#45;&gt;Node8</title>
<path fill="none" stroke="midnightblue" d="M618.63,-293.58C623.44,-292.67 628.35,-291.78 633,-291 747.19,-271.88 779.14,-284.85 891,-255 893.51,-254.33 896.07,-253.54 898.63,-252.67"/>
<polygon fill="midnightblue" stroke="midnightblue" points="900.1,-255.85 908.24,-249.06 897.65,-249.3 900.1,-255.85"/>
</g>
<!-- Node9 -->
<g id="node9" class="node">
<title>Node9</title>
<g id="a_node9"><a xlink:title=" ">
<polygon fill="white" stroke="#bfbfbf" points="282,-230 282,-249 340,-249 340,-230 282,-230"/>
<text text-anchor="middle" x="311" y="-237" font-family="Helvetica,sans-Serif" font-size="10.00">json.hpp</text>
</a>
</g>
</g>
<!-- Node3&#45;&gt;Node9 -->
<g id="edge8" class="edge">
<title>Node3&#45;&gt;Node9</title>
<path fill="none" stroke="midnightblue" d="M555.33,-293.79C550.53,-292.85 545.63,-291.9 541,-291 457.91,-274.87 435.84,-276.57 354,-255 350.8,-254.16 347.49,-253.2 344.2,-252.19"/>
<polygon fill="midnightblue" stroke="midnightblue" points="345.07,-248.79 334.48,-249.06 342.93,-255.46 345.07,-248.79"/>
</g>
<!-- Node10 -->
<g id="node10" class="node">
<title>Node10</title>
<g id="a_node10"><a xlink:href="../../db/d8a/Math_8h.html" target="_top" xlink:title="This file contains the declaration of various mathematical functions.">
<polygon fill="white" stroke="black" points="696.5,-230 696.5,-249 775.5,-249 775.5,-230 696.5,-230"/>
<text text-anchor="middle" x="736" y="-237" font-family="Helvetica,sans-Serif" font-size="10.00">math/Math.h</text>
</a>
</g>
</g>
<!-- Node3&#45;&gt;Node10 -->
<g id="edge9" class="edge">
<title>Node3&#45;&gt;Node10</title>
<path fill="none" stroke="midnightblue" d="M608.35,-291.48C633.69,-281.36 676.14,-264.4 705.07,-252.85"/>
<polygon fill="midnightblue" stroke="midnightblue" points="706.7,-255.97 714.69,-249.01 704.11,-249.47 706.7,-255.97"/>
</g>
<!-- Node3&#45;&gt;Node13 -->
<g id="edge13" class="edge">
<title>Node3&#45;&gt;Node13</title>
<path fill="none" stroke="midnightblue" d="M555.36,-296.32C477.48,-287.27 274.44,-263.68 158.8,-250.24"/>
<polygon fill="midnightblue" stroke="midnightblue" points="158.92,-246.73 148.58,-249.05 158.11,-253.68 158.92,-246.73"/>
</g>
<!-- Node14 -->
<g id="node14" class="node">
<title>Node14</title>
<g id="a_node14"><a xlink:title=" ">
<polygon fill="white" stroke="#bfbfbf" points="434.5,-224.5 434.5,-254.5 547.5,-254.5 547.5,-224.5 434.5,-224.5"/>
<text text-anchor="start" x="442.5" y="-242.5" font-family="Helvetica,sans-Serif" font-size="10.00">boost/accumulators</text>
<text text-anchor="middle" x="491" y="-231.5" font-family="Helvetica,sans-Serif" font-size="10.00">/accumulators.hpp</text>
</a>
</g>
</g>
<!-- Node3&#45;&gt;Node14 -->
<g id="edge14" class="edge">
<title>Node3&#45;&gt;Node14</title>
<path fill="none" stroke="midnightblue" d="M573.25,-291.48C560,-283.27 539.5,-270.56 522.28,-259.88"/>
<polygon fill="midnightblue" stroke="midnightblue" points="523.97,-256.82 513.63,-254.52 520.28,-262.77 523.97,-256.82"/>
</g>
<!-- Node15 -->
<g id="node15" class="node">
<title>Node15</title>
<g id="a_node15"><a xlink:title=" ">
<polygon fill="white" stroke="#bfbfbf" points="565.5,-224.5 565.5,-254.5 678.5,-254.5 678.5,-224.5 565.5,-224.5"/>
<text text-anchor="start" x="573.5" y="-242.5" font-family="Helvetica,sans-Serif" font-size="10.00">boost/accumulators</text>
<text text-anchor="middle" x="622" y="-231.5" font-family="Helvetica,sans-Serif" font-size="10.00">/statistics.hpp</text>
</a>
</g>
</g>
<!-- Node3&#45;&gt;Node15 -->
<g id="edge15" class="edge">
<title>Node3&#45;&gt;Node15</title>
<path fill="none" stroke="midnightblue" d="M592.01,-291.48C596.36,-284.09 602.84,-273.08 608.66,-263.17"/>
<polygon fill="midnightblue" stroke="midnightblue" points="611.7,-264.92 613.75,-254.52 605.66,-261.37 611.7,-264.92"/>
</g>
<!-- Node10&#45;&gt;Node6 -->
<g id="edge10" class="edge">
<title>Node10&#45;&gt;Node6</title>
<path fill="none" stroke="midnightblue" d="M710.01,-229.98C702.92,-227.85 695.21,-225.68 688,-224 603.1,-204.19 501.23,-189.66 450.31,-183.02"/>
<polygon fill="midnightblue" stroke="midnightblue" points="450.6,-179.53 440.24,-181.72 449.71,-186.47 450.6,-179.53"/>
</g>
<!-- Node11 -->
<g id="node11" class="node">
<title>Node11</title>
<g id="a_node11"><a xlink:title=" ">
<polygon fill="white" stroke="#bfbfbf" points="1188.5,-168.5 1188.5,-187.5 1235.5,-187.5 1235.5,-168.5 1188.5,-168.5"/>
<text text-anchor="middle" x="1212" y="-175.5" font-family="Helvetica,sans-Serif" font-size="10.00">cmath</text>
</a>
</g>
</g>
<!-- Node10&#45;&gt;Node11 -->
<g id="edge11" class="edge">
<title>Node10&#45;&gt;Node11</title>
<path fill="none" stroke="midnightblue" d="M761.18,-229.92C768.47,-227.7 776.49,-225.51 784,-224 928.55,-194.84 1104.61,-183.89 1177.68,-180.41"/>
<polygon fill="midnightblue" stroke="midnightblue" points="1178.27,-183.89 1188.1,-179.93 1177.95,-176.9 1178.27,-183.89"/>
</g>
<!-- Node12 -->
<g id="node12" class="node">
<title>Node12</title>
<g id="a_node12"><a xlink:title=" ">
<polygon fill="white" stroke="#bfbfbf" points="698.5,-168.5 698.5,-187.5 773.5,-187.5 773.5,-168.5 698.5,-168.5"/>
<text text-anchor="middle" x="736" y="-175.5" font-family="Helvetica,sans-Serif" font-size="10.00">quadmath.h</text>
</a>
</g>
</g>
<!-- Node10&#45;&gt;Node12 -->
<g id="edge12" class="edge">
<title>Node10&#45;&gt;Node12</title>
<path fill="none" stroke="midnightblue" d="M736,-229.98C736,-221.58 736,-208.48 736,-197.66"/>
<polygon fill="midnightblue" stroke="midnightblue" points="739.5,-197.51 736,-187.51 732.5,-197.51 739.5,-197.51"/>
</g>
<!-- Node17&#45;&gt;Node4 -->
<g id="edge20" class="edge">
<title>Node17&#45;&gt;Node4</title>
<path fill="none" stroke="midnightblue" d="M1045.44,-403.45C1039.61,-374 1016.4,-275.71 958,-224 880.66,-155.52 755.5,-133.24 692.64,-126.17"/>
<polygon fill="midnightblue" stroke="midnightblue" points="692.68,-122.66 682.37,-125.09 691.95,-129.62 692.68,-122.66"/>
</g>
<!-- Node17&#45;&gt;Node5 -->
<g id="edge21" class="edge">
<title>Node17&#45;&gt;Node5</title>
<path fill="none" stroke="midnightblue" d="M1047.78,-403.45C1049.41,-384.96 1053,-339.87 1053,-302 1053,-302 1053,-302 1053,-238.5 1053,-203.14 1040.06,-163.48 1031.47,-141.05"/>
<polygon fill="midnightblue" stroke="midnightblue" points="1034.62,-139.51 1027.67,-131.51 1028.12,-142.09 1034.62,-139.51"/>
</g>
<!-- Node17&#45;&gt;Node9 -->
<g id="edge34" class="edge">
<title>Node17&#45;&gt;Node9</title>
<path fill="none" stroke="midnightblue" d="M996.88,-403.48C906.3,-387.74 709.54,-351.92 546,-311 474.35,-293.07 391.96,-267.09 346.24,-252.19"/>
<polygon fill="midnightblue" stroke="midnightblue" points="347.11,-248.79 336.52,-249 344.93,-255.44 347.11,-248.79"/>
</g>
<!-- Node18 -->
<g id="node18" class="node">
<title>Node18</title>
<g id="a_node18"><a xlink:title=" ">
<polygon fill="white" stroke="#bfbfbf" points="1214.5,-347.5 1214.5,-366.5 1269.5,-366.5 1269.5,-347.5 1214.5,-347.5"/>
<text text-anchor="middle" x="1242" y="-354.5" font-family="Helvetica,sans-Serif" font-size="10.00">fstream</text>
</a>
</g>
</g>
<!-- Node17&#45;&gt;Node18 -->
<g id="edge18" class="edge">
<title>Node17&#45;&gt;Node18</title>
<path fill="none" stroke="midnightblue" d="M1077.9,-403.44C1112.26,-393.93 1167.75,-378.56 1204.55,-368.37"/>
<polygon fill="midnightblue" stroke="midnightblue" points="1205.7,-371.69 1214.4,-365.64 1203.83,-364.94 1205.7,-371.69"/>
</g>
<!-- Node19 -->
<g id="node19" class="node">
<title>Node19</title>
<g id="a_node19"><a xlink:title=" ">
<polygon fill="white" stroke="#bfbfbf" points="1221.5,-56.5 1221.5,-75.5 1286.5,-75.5 1286.5,-56.5 1221.5,-56.5"/>
<text text-anchor="middle" x="1254" y="-63.5" font-family="Helvetica,sans-Serif" font-size="10.00">functional</text>
</a>
</g>
</g>
<!-- Node17&#45;&gt;Node19 -->
<g id="edge19" class="edge">
<title>Node17&#45;&gt;Node19</title>
<path fill="none" stroke="midnightblue" d="M1053.12,-403.35C1065.21,-385.38 1091,-342.31 1091,-302 1091,-302 1091,-302 1091,-177 1091,-118.83 1163.2,-89.37 1211.5,-76.16"/>
<polygon fill="midnightblue" stroke="midnightblue" points="1212.61,-79.49 1221.41,-73.59 1210.85,-72.72 1212.61,-79.49"/>
</g>
<!-- Node20 -->
<g id="node20" class="node">
<title>Node20</title>
<g id="a_node20"><a xlink:title=" ">
<polygon fill="white" stroke="#bfbfbf" points="1435,-347.5 1435,-366.5 1489,-366.5 1489,-347.5 1435,-347.5"/>
<text text-anchor="middle" x="1462" y="-354.5" font-family="Helvetica,sans-Serif" font-size="10.00">random</text>
</a>
</g>
</g>
<!-- Node17&#45;&gt;Node20 -->
<g id="edge22" class="edge">
<title>Node17&#45;&gt;Node20</title>
<path fill="none" stroke="midnightblue" d="M1107.74,-407.18C1180.84,-400.84 1307.4,-388.18 1425.05,-366.96"/>
<polygon fill="midnightblue" stroke="midnightblue" points="1425.75,-370.39 1434.95,-365.15 1424.49,-363.51 1425.75,-370.39"/>
</g>
<!-- Node17&#45;&gt;Node21 -->
<g id="edge23" class="edge">
<title>Node17&#45;&gt;Node21</title>
<path fill="none" stroke="midnightblue" d="M986.3,-409.35C892.89,-404.61 708.51,-392.7 554,-367 552.53,-366.76 551.04,-366.49 549.53,-366.19"/>
<polygon fill="midnightblue" stroke="midnightblue" points="550.1,-362.74 539.59,-364.05 548.63,-369.58 550.1,-362.74"/>
</g>
<!-- Node22 -->
<g id="node22" class="node">
<title>Node22</title>
<g id="a_node22"><a xlink:href="../../d0/d7d/CheckBounds_8h.html" target="_top" xlink:title="This file contains the declaration of functions for checking the validity of input parameters.">
<polygon fill="white" stroke="black" points="208,-347.5 208,-366.5 300,-366.5 300,-347.5 208,-347.5"/>
<text text-anchor="middle" x="254" y="-354.5" font-family="Helvetica,sans-Serif" font-size="10.00">CheckBounds.h</text>
</a>
</g>
</g>
<!-- Node17&#45;&gt;Node22 -->
<g id="edge24" class="edge">
<title>Node17&#45;&gt;Node22</title>
<path fill="none" stroke="midnightblue" d="M986.42,-407.87C837.54,-397.74 455.36,-371.71 310.67,-361.86"/>
<polygon fill="midnightblue" stroke="midnightblue" points="310.47,-358.34 300.26,-361.15 310,-365.32 310.47,-358.34"/>
</g>
<!-- Node23 -->
<g id="node23" class="node">
<title>Node23</title>
<g id="a_node23"><a xlink:href="../../d4/d2e/Stopwatch_8h.html" target="_top" xlink:title="This file contains the Stopwatch class which is a utility for measuring time durations in various uni...">
<polygon fill="white" stroke="black" points="1119.5,-347.5 1119.5,-366.5 1196.5,-366.5 1196.5,-347.5 1119.5,-347.5"/>
<text text-anchor="middle" x="1158" y="-354.5" font-family="Helvetica,sans-Serif" font-size="10.00">Stopwatch.h</text>
</a>
</g>
</g>
<!-- Node17&#45;&gt;Node23 -->
<g id="edge32" class="edge">
<title>Node17&#45;&gt;Node23</title>
<path fill="none" stroke="midnightblue" d="M1064.83,-403.32C1082.72,-394.62 1110.48,-381.12 1131.05,-371.11"/>
<polygon fill="midnightblue" stroke="midnightblue" points="1132.75,-374.18 1140.21,-366.65 1129.69,-367.88 1132.75,-374.18"/>
</g>
<!-- Node25 -->
<g id="node25" class="node">
<title>Node25</title>
<g id="a_node25"><a xlink:href="../../dc/d09/Stats_8h.html" target="_top" xlink:title="This file contains the declaration of statistical functions and structures for vectors and matrices.">
<polygon fill="white" stroke="black" points="1315,-347.5 1315,-366.5 1417,-366.5 1417,-347.5 1315,-347.5"/>
<text text-anchor="middle" x="1366" y="-354.5" font-family="Helvetica,sans-Serif" font-size="10.00">math/blas/Stats.h</text>
</a>
</g>
</g>
<!-- Node17&#45;&gt;Node25 -->
<g id="edge35" class="edge">
<title>Node17&#45;&gt;Node25</title>
<path fill="none" stroke="midnightblue" d="M1097.55,-403.44C1154.01,-393.89 1245.37,-378.42 1305.57,-368.23"/>
<polygon fill="midnightblue" stroke="midnightblue" points="1306.41,-371.64 1315.69,-366.52 1305.25,-364.73 1306.41,-371.64"/>
</g>
<!-- Node22&#45;&gt;Node2 -->
<g id="edge29" class="edge">
<title>Node22&#45;&gt;Node2</title>
<path fill="none" stroke="midnightblue" d="M252.29,-366.56C250.06,-380.49 248.02,-408.01 263,-423 299.11,-459.14 444.83,-466.69 527.68,-468"/>
<polygon fill="midnightblue" stroke="midnightblue" points="527.65,-471.5 537.7,-468.13 527.75,-464.5 527.65,-471.5"/>
</g>
<!-- Node22&#45;&gt;Node3 -->
<g id="edge30" class="edge">
<title>Node22&#45;&gt;Node3</title>
<path fill="none" stroke="midnightblue" d="M300.3,-348.49C365.31,-337.95 482.65,-318.92 545.16,-308.78"/>
<polygon fill="midnightblue" stroke="midnightblue" points="545.76,-312.23 555.07,-307.18 544.64,-305.32 545.76,-312.23"/>
</g>
<!-- Node22&#45;&gt;Node4 -->
<g id="edge27" class="edge">
<title>Node22&#45;&gt;Node4</title>
<path fill="none" stroke="midnightblue" d="M238.22,-347.47C225.8,-339.77 209.39,-327.18 202,-311 175.58,-253.2 159.34,-215.11 202,-168 229.57,-137.55 511.64,-126.86 615.71,-123.93"/>
<polygon fill="midnightblue" stroke="midnightblue" points="615.88,-127.43 625.78,-123.66 615.69,-120.43 615.88,-127.43"/>
</g>
<!-- Node22&#45;&gt;Node5 -->
<g id="edge26" class="edge">
<title>Node22&#45;&gt;Node5</title>
<path fill="none" stroke="midnightblue" d="M250.75,-347.18C242.91,-324.2 225.6,-261.71 254,-224 292.59,-172.77 324.62,-182.9 387,-168 501.09,-140.74 861.82,-127.8 983.48,-124.13"/>
<polygon fill="midnightblue" stroke="midnightblue" points="983.94,-127.62 993.83,-123.82 983.73,-120.62 983.94,-127.62"/>
</g>
<!-- Node22&#45;&gt;Node6 -->
<g id="edge28" class="edge">
<title>Node22&#45;&gt;Node6</title>
<path fill="none" stroke="midnightblue" d="M252.4,-347.35C248.67,-324.26 241.89,-260.46 273,-224 300.94,-191.25 352.25,-181.97 385.74,-179.55"/>
<polygon fill="midnightblue" stroke="midnightblue" points="386.14,-183.03 395.93,-178.98 385.75,-176.04 386.14,-183.03"/>
</g>
<!-- Node22&#45;&gt;Node9 -->
<g id="edge31" class="edge">
<title>Node22&#45;&gt;Node9</title>
<path fill="none" stroke="midnightblue" d="M258.28,-347.32C267.57,-328.51 289.71,-283.65 302.14,-258.46"/>
<polygon fill="midnightblue" stroke="midnightblue" points="305.38,-259.8 306.67,-249.28 299.1,-256.7 305.38,-259.8"/>
</g>
<!-- Node22&#45;&gt;Node13 -->
<g id="edge25" class="edge">
<title>Node22&#45;&gt;Node13</title>
<path fill="none" stroke="midnightblue" d="M234.05,-347.46C215.38,-339.14 186.99,-325.63 164,-311 137.42,-294.08 109.33,-270.81 91.99,-255.71"/>
<polygon fill="midnightblue" stroke="midnightblue" points="94.2,-253 84.39,-249.02 89.58,-258.25 94.2,-253"/>
</g>
<!-- Node24 -->
<g id="node24" class="node">
<title>Node24</title>
<g id="a_node24"><a xlink:title=" ">
<polygon fill="white" stroke="#bfbfbf" points="1119,-291.5 1119,-310.5 1169,-310.5 1169,-291.5 1119,-291.5"/>
<text text-anchor="middle" x="1144" y="-298.5" font-family="Helvetica,sans-Serif" font-size="10.00">chrono</text>
</a>
</g>
</g>
<!-- Node23&#45;&gt;Node24 -->
<g id="edge33" class="edge">
<title>Node23&#45;&gt;Node24</title>
<path fill="none" stroke="midnightblue" d="M1155.69,-347.08C1153.83,-339.93 1151.16,-329.64 1148.85,-320.69"/>
<polygon fill="midnightblue" stroke="midnightblue" points="1152.17,-319.55 1146.27,-310.75 1145.39,-321.31 1152.17,-319.55"/>
</g>
<!-- Node25&#45;&gt;Node11 -->
<g id="edge37" class="edge">
<title>Node25&#45;&gt;Node11</title>
<path fill="none" stroke="midnightblue" d="M1361.78,-347.11C1355.42,-334.12 1342.54,-309.5 1328,-291 1297.83,-252.6 1254.92,-214.53 1230.64,-194.17"/>
<polygon fill="midnightblue" stroke="midnightblue" points="1232.81,-191.42 1222.88,-187.74 1228.34,-196.81 1232.81,-191.42"/>
</g>
<!-- Node26 -->
<g id="node26" class="node">
<title>Node26</title>
<g id="a_node26"><a xlink:title=" ">
<polygon fill="white" stroke="#bfbfbf" points="1471,-56.5 1471,-75.5 1535,-75.5 1535,-56.5 1471,-56.5"/>
<text text-anchor="middle" x="1503" y="-63.5" font-family="Helvetica,sans-Serif" font-size="10.00">algorithm</text>
</a>
</g>
</g>
<!-- Node25&#45;&gt;Node26 -->
<g id="edge36" class="edge">
<title>Node25&#45;&gt;Node26</title>
<path fill="none" stroke="midnightblue" d="M1411.35,-347.46C1514.54,-327.4 1758,-276.28 1758,-240.5 1758,-240.5 1758,-240.5 1758,-177 1758,-85.44 1617.67,-69.19 1545.21,-66.9"/>
<polygon fill="midnightblue" stroke="midnightblue" points="1545.12,-63.4 1535.04,-66.66 1544.95,-70.4 1545.12,-63.4"/>
</g>
<!-- Node27 -->
<g id="node27" class="node">
<title>Node27</title>
<g id="a_node27"><a xlink:title=" ">
<polygon fill="white" stroke="#bfbfbf" points="1187,-291.5 1187,-310.5 1243,-310.5 1243,-291.5 1187,-291.5"/>
<text text-anchor="middle" x="1215" y="-298.5" font-family="Helvetica,sans-Serif" font-size="10.00">numeric</text>
</a>
</g>
</g>
<!-- Node25&#45;&gt;Node27 -->
<g id="edge38" class="edge">
<title>Node25&#45;&gt;Node27</title>
<path fill="none" stroke="midnightblue" d="M1342.07,-347.44C1316.78,-338.4 1276.7,-324.06 1248.32,-313.92"/>
<polygon fill="midnightblue" stroke="midnightblue" points="1249.41,-310.59 1238.81,-310.52 1247.05,-317.18 1249.41,-310.59"/>
</g>
<!-- Node28 -->
<g id="node28" class="node">
<title>Node28</title>
<g id="a_node28"><a xlink:title=" ">
<polygon fill="white" stroke="#bfbfbf" points="1261.5,-291.5 1261.5,-310.5 1318.5,-310.5 1318.5,-291.5 1261.5,-291.5"/>
<text text-anchor="middle" x="1290" y="-298.5" font-family="Helvetica,sans-Serif" font-size="10.00">ostream</text>
</a>
</g>
</g>
<!-- Node25&#45;&gt;Node28 -->
<g id="edge39" class="edge">
<title>Node25&#45;&gt;Node28</title>
<path fill="none" stroke="midnightblue" d="M1353.79,-347.32C1342.22,-339.11 1324.62,-326.6 1310.84,-316.81"/>
<polygon fill="midnightblue" stroke="midnightblue" points="1312.61,-313.77 1302.43,-310.83 1308.56,-319.48 1312.61,-313.77"/>
</g>
<!-- Node29 -->
<g id="node29" class="node">
<title>Node29</title>
<g id="a_node29"><a xlink:title=" ">
<polygon fill="white" stroke="#bfbfbf" points="1528.5,-112.5 1528.5,-131.5 1575.5,-131.5 1575.5,-112.5 1528.5,-112.5"/>
<text text-anchor="middle" x="1552" y="-119.5" font-family="Helvetica,sans-Serif" font-size="10.00">vector</text>
</a>
</g>
</g>
<!-- Node25&#45;&gt;Node29 -->
<g id="edge40" class="edge">
<title>Node25&#45;&gt;Node29</title>
<path fill="none" stroke="midnightblue" d="M1394.08,-347.46C1421.22,-338.99 1463.34,-325.24 1499,-311 1596.62,-272.03 1656.24,-283.11 1701,-188 1723.16,-140.92 1636.1,-127.94 1585.66,-124.36"/>
<polygon fill="midnightblue" stroke="midnightblue" points="1585.7,-120.86 1575.5,-123.73 1585.27,-127.84 1585.7,-120.86"/>
</g>
<!-- Node30 -->
<g id="node30" class="node">
<title>Node30</title>
<g id="a_node30"><a xlink:href="../../d1/d80/BLAS_8h.html" target="_top" xlink:title=" ">
<polygon fill="white" stroke="black" points="1413.5,-291.5 1413.5,-310.5 1464.5,-310.5 1464.5,-291.5 1413.5,-291.5"/>
<text text-anchor="middle" x="1439" y="-298.5" font-family="Helvetica,sans-Serif" font-size="10.00">BLAS.h</text>
</a>
</g>
</g>
<!-- Node25&#45;&gt;Node30 -->
<g id="edge41" class="edge">
<title>Node25&#45;&gt;Node30</title>
<path fill="none" stroke="midnightblue" d="M1377.73,-347.32C1388.84,-339.11 1405.74,-326.6 1418.98,-316.81"/>
<polygon fill="midnightblue" stroke="midnightblue" points="1421.1,-319.59 1427.06,-310.83 1416.94,-313.97 1421.1,-319.59"/>
</g>
<!-- Node31 -->
<g id="node31" class="node">
<title>Node31</title>
<g id="a_node31"><a xlink:href="../../d3/db1/Matrix_8h.html" target="_top" xlink:title="Header file for the MyBLAS::Matrix class.">
<polygon fill="white" stroke="black" points="1467,-230 1467,-249 1611,-249 1611,-230 1467,-230"/>
<text text-anchor="middle" x="1539" y="-237" font-family="Helvetica,sans-Serif" font-size="10.00">math/blas/matrix/Matrix.h</text>
</a>
</g>
</g>
<!-- Node25&#45;&gt;Node31 -->
<g id="edge62" class="edge">
<title>Node25&#45;&gt;Node31</title>
<path fill="none" stroke="midnightblue" d="M1395.69,-347.48C1418.42,-340.08 1449.87,-327.88 1474,-311 1495.21,-296.16 1514.63,-273.34 1526.62,-257.71"/>
<polygon fill="midnightblue" stroke="midnightblue" points="1529.6,-259.56 1532.77,-249.45 1523.99,-255.38 1529.6,-259.56"/>
</g>
<!-- Node34 -->
<g id="node34" class="node">
<title>Node34</title>
<g id="a_node34"><a xlink:href="../../d6/dbe/Vector_8h.html" target="_top" xlink:title="Header file for the MyBLAS::Vector class.">
<polygon fill="white" stroke="black" points="1292.5,-168.5 1292.5,-187.5 1433.5,-187.5 1433.5,-168.5 1292.5,-168.5"/>
<text text-anchor="middle" x="1363" y="-175.5" font-family="Helvetica,sans-Serif" font-size="10.00">math/blas/vector/Vector.h</text>
</a>
</g>
</g>
<!-- Node25&#45;&gt;Node34 -->
<g id="edge63" class="edge">
<title>Node25&#45;&gt;Node34</title>
<path fill="none" stroke="midnightblue" d="M1365.86,-347.46C1365.4,-320.43 1363.97,-236.24 1363.32,-198.11"/>
<polygon fill="midnightblue" stroke="midnightblue" points="1366.82,-197.81 1363.15,-187.87 1359.82,-197.93 1366.82,-197.81"/>
</g>
<!-- Node30&#45;&gt;Node11 -->
<g id="edge42" class="edge">
<title>Node30&#45;&gt;Node11</title>
<path fill="none" stroke="midnightblue" d="M1429.76,-291.38C1412.88,-276.02 1375.45,-243.69 1339,-224 1309.02,-207.81 1272.04,-195.47 1245.73,-187.85"/>
<polygon fill="midnightblue" stroke="midnightblue" points="1246.44,-184.41 1235.86,-185.06 1244.53,-191.15 1246.44,-184.41"/>
</g>
<!-- Node30&#45;&gt;Node31 -->
<g id="edge43" class="edge">
<title>Node30&#45;&gt;Node31</title>
<path fill="none" stroke="midnightblue" d="M1453.33,-291.48C1469.66,-281.75 1496.6,-265.73 1515.91,-254.24"/>
<polygon fill="midnightblue" stroke="midnightblue" points="1517.89,-257.13 1524.7,-249.01 1514.32,-251.11 1517.89,-257.13"/>
</g>
<!-- Node30&#45;&gt;Node34 -->
<g id="edge61" class="edge">
<title>Node30&#45;&gt;Node34</title>
<path fill="none" stroke="midnightblue" d="M1437.84,-291.36C1435.54,-276.53 1429.29,-245.74 1415,-224 1407.21,-212.15 1395.46,-201.62 1385.1,-193.72"/>
<polygon fill="midnightblue" stroke="midnightblue" points="1386.99,-190.77 1376.84,-187.74 1382.88,-196.44 1386.99,-190.77"/>
</g>
<!-- Node31&#45;&gt;Node5 -->
<g id="edge46" class="edge">
<title>Node31&#45;&gt;Node5</title>
<path fill="none" stroke="midnightblue" d="M1468.89,-229.98C1416.87,-222.38 1344.74,-209.12 1284,-188 1265.6,-181.6 1263.38,-174.45 1245,-168 1183.64,-146.48 1108.89,-133.94 1063.94,-127.79"/>
<polygon fill="midnightblue" stroke="midnightblue" points="1064.38,-124.32 1054,-126.47 1063.45,-131.26 1064.38,-124.32"/>
</g>
<!-- Node31&#45;&gt;Node26 -->
<g id="edge44" class="edge">
<title>Node31&#45;&gt;Node26</title>
<path fill="none" stroke="midnightblue" d="M1537.17,-229.76C1531.56,-203.04 1514.55,-122.02 1506.85,-85.36"/>
<polygon fill="midnightblue" stroke="midnightblue" points="1510.27,-84.59 1504.79,-75.52 1503.42,-86.03 1510.27,-84.59"/>
</g>
<!-- Node31&#45;&gt;Node29 -->
<g id="edge47" class="edge">
<title>Node31&#45;&gt;Node29</title>
<path fill="none" stroke="midnightblue" d="M1539.98,-229.82C1542.07,-211.26 1547.01,-167.34 1549.86,-141.97"/>
<polygon fill="midnightblue" stroke="midnightblue" points="1553.37,-142.11 1551.01,-131.78 1546.41,-141.33 1553.37,-142.11"/>
</g>
<!-- Node32 -->
<g id="node32" class="node">
<title>Node32</title>
<g id="a_node32"><a xlink:title=" ">
<polygon fill="white" stroke="#bfbfbf" points="1420,-112.5 1420,-131.5 1472,-131.5 1472,-112.5 1420,-112.5"/>
<text text-anchor="middle" x="1446" y="-119.5" font-family="Helvetica,sans-Serif" font-size="10.00">cassert</text>
</a>
</g>
</g>
<!-- Node31&#45;&gt;Node32 -->
<g id="edge45" class="edge">
<title>Node31&#45;&gt;Node32</title>
<path fill="none" stroke="midnightblue" d="M1528.47,-229.9C1517.18,-220.37 1499.12,-204.2 1486,-188 1474.04,-173.23 1462.93,-154.6 1455.46,-141.08"/>
<polygon fill="midnightblue" stroke="midnightblue" points="1458.33,-139.03 1450.51,-131.88 1452.17,-142.35 1458.33,-139.03"/>
</g>
<!-- Node33 -->
<g id="node33" class="node">
<title>Node33</title>
<g id="a_node33"><a xlink:href="../../d1/d45/Constants_8h.html" target="_top" xlink:title="MyBLAS Constants definition.">
<polygon fill="white" stroke="black" points="1566,-168.5 1566,-187.5 1692,-187.5 1692,-168.5 1566,-168.5"/>
<text text-anchor="middle" x="1629" y="-175.5" font-family="Helvetica,sans-Serif" font-size="10.00">math/blas/Constants.h</text>
</a>
</g>
</g>
<!-- Node31&#45;&gt;Node33 -->
<g id="edge48" class="edge">
<title>Node31&#45;&gt;Node33</title>
<path fill="none" stroke="midnightblue" d="M1551.89,-229.98C1566.46,-220.34 1590.4,-204.52 1607.75,-193.05"/>
<polygon fill="midnightblue" stroke="midnightblue" points="1609.72,-195.94 1616.13,-187.51 1605.86,-190.1 1609.72,-195.94"/>
</g>
<!-- Node31&#45;&gt;Node34 -->
<g id="edge49" class="edge">
<title>Node31&#45;&gt;Node34</title>
<path fill="none" stroke="midnightblue" d="M1513.78,-229.98C1483.33,-219.68 1431.95,-202.31 1397.76,-190.75"/>
<polygon fill="midnightblue" stroke="midnightblue" points="1398.76,-187.4 1388.17,-187.51 1396.52,-194.03 1398.76,-187.4"/>
</g>
<!-- Node34&#45;&gt;Node4 -->
<g id="edge58" class="edge">
<title>Node34&#45;&gt;Node4</title>
<path fill="none" stroke="midnightblue" d="M1292.49,-171.62C1276.85,-170.43 1260.36,-169.17 1245,-168 1036.54,-152.11 786.72,-133.1 692.49,-125.93"/>
<polygon fill="midnightblue" stroke="midnightblue" points="692.53,-122.42 682.3,-125.15 692,-129.4 692.53,-122.42"/>
</g>
<!-- Node34&#45;&gt;Node5 -->
<g id="edge59" class="edge">
<title>Node34&#45;&gt;Node5</title>
<path fill="none" stroke="midnightblue" d="M1309.28,-168.44C1241.16,-157.59 1125.24,-139.13 1064.25,-129.41"/>
<polygon fill="midnightblue" stroke="midnightblue" points="1064.66,-125.93 1054.24,-127.82 1063.56,-132.85 1064.66,-125.93"/>
</g>
<!-- Node34&#45;&gt;Node19 -->
<g id="edge57" class="edge">
<title>Node34&#45;&gt;Node19</title>
<path fill="none" stroke="midnightblue" d="M1353.27,-168.21C1343.45,-159.27 1327.93,-144.92 1315,-132 1298.68,-115.69 1280.69,-96.34 1268.5,-83.01"/>
<polygon fill="midnightblue" stroke="midnightblue" points="1271.05,-80.62 1261.73,-75.58 1265.87,-85.33 1271.05,-80.62"/>
</g>
<!-- Node34&#45;&gt;Node29 -->
<g id="edge60" class="edge">
<title>Node34&#45;&gt;Node29</title>
<path fill="none" stroke="midnightblue" d="M1392.95,-168.44C1427.15,-158.67 1482.95,-142.73 1518.55,-132.56"/>
<polygon fill="midnightblue" stroke="midnightblue" points="1519.81,-135.84 1528.46,-129.73 1517.89,-129.11 1519.81,-135.84"/>
</g>
<!-- Node34&#45;&gt;Node32 -->
<g id="edge56" class="edge">
<title>Node34&#45;&gt;Node32</title>
<path fill="none" stroke="midnightblue" d="M1376.34,-168.32C1389.16,-159.98 1408.78,-147.21 1423.94,-137.35"/>
<polygon fill="midnightblue" stroke="midnightblue" points="1426.22,-140.04 1432.7,-131.65 1422.41,-134.17 1426.22,-140.04"/>
</g>
<!-- Node35 -->
<g id="node35" class="node">
<title>Node35</title>
<g id="a_node35"><a xlink:href="../../de/dcb/LazyVector_8h.html" target="_top" xlink:title="Header file for the LazyVector class.">
<polygon fill="white" stroke="black" points="1324,-112.5 1324,-131.5 1402,-131.5 1402,-112.5 1324,-112.5"/>
<text text-anchor="middle" x="1363" y="-119.5" font-family="Helvetica,sans-Serif" font-size="10.00">LazyVector.h</text>
</a>
</g>
</g>
<!-- Node34&#45;&gt;Node35 -->
<g id="edge50" class="edge">
<title>Node34&#45;&gt;Node35</title>
<path fill="none" stroke="midnightblue" d="M1363,-168.08C1363,-161.01 1363,-150.86 1363,-141.99"/>
<polygon fill="midnightblue" stroke="midnightblue" points="1366.5,-141.75 1363,-131.75 1359.5,-141.75 1366.5,-141.75"/>
</g>
<!-- Node35&#45;&gt;Node19 -->
<g id="edge53" class="edge">
<title>Node35&#45;&gt;Node19</title>
<path fill="none" stroke="midnightblue" d="M1345.49,-112.32C1327.93,-103.62 1300.67,-90.12 1280.47,-80.11"/>
<polygon fill="midnightblue" stroke="midnightblue" points="1281.98,-76.96 1271.47,-75.65 1278.88,-83.23 1281.98,-76.96"/>
</g>
<!-- Node35&#45;&gt;Node26 -->
<g id="edge51" class="edge">
<title>Node35&#45;&gt;Node26</title>
<path fill="none" stroke="midnightblue" d="M1385.18,-112.44C1408.43,-103.48 1445.15,-89.31 1471.42,-79.18"/>
<polygon fill="midnightblue" stroke="midnightblue" points="1472.85,-82.38 1480.92,-75.52 1470.33,-75.85 1472.85,-82.38"/>
</g>
<!-- Node36 -->
<g id="node36" class="node">
<title>Node36</title>
<g id="a_node36"><a xlink:title=" ">
<polygon fill="white" stroke="#bfbfbf" points="1374.5,-0.5 1374.5,-19.5 1427.5,-19.5 1427.5,-0.5 1374.5,-0.5"/>
<text text-anchor="middle" x="1401" y="-7.5" font-family="Helvetica,sans-Serif" font-size="10.00">cstddef</text>
</a>
</g>
</g>
<!-- Node35&#45;&gt;Node36 -->
<g id="edge52" class="edge">
<title>Node35&#45;&gt;Node36</title>
<path fill="none" stroke="midnightblue" d="M1382.91,-112.41C1397.22,-105.04 1415.46,-92.92 1424,-76 1431.89,-60.37 1423.26,-41.39 1414.41,-27.98"/>
<polygon fill="midnightblue" stroke="midnightblue" points="1417.13,-25.77 1408.45,-19.7 1411.45,-29.86 1417.13,-25.77"/>
</g>
<!-- Node37 -->
<g id="node37" class="node">
<title>Node37</title>
<g id="a_node37"><a xlink:href="../../d6/d9f/VectorExpression_8h.html" target="_top" xlink:title="Header file for the MyBLAS::VectorExpression class.">
<polygon fill="white" stroke="black" points="1305,-56.5 1305,-75.5 1415,-75.5 1415,-56.5 1305,-56.5"/>
<text text-anchor="middle" x="1360" y="-63.5" font-family="Helvetica,sans-Serif" font-size="10.00">VectorExpression.h</text>
</a>
</g>
</g>
<!-- Node35&#45;&gt;Node37 -->
<g id="edge54" class="edge">
<title>Node35&#45;&gt;Node37</title>
<path fill="none" stroke="midnightblue" d="M1362.5,-112.08C1362.11,-105.01 1361.55,-94.86 1361.05,-85.99"/>
<polygon fill="midnightblue" stroke="midnightblue" points="1364.54,-85.54 1360.49,-75.75 1357.55,-85.93 1364.54,-85.54"/>
</g>
<!-- Node37&#45;&gt;Node36 -->
<g id="edge55" class="edge">
<title>Node37&#45;&gt;Node36</title>
<path fill="none" stroke="midnightblue" d="M1366.77,-56.08C1372.56,-48.46 1381.06,-37.26 1388.14,-27.94"/>
<polygon fill="midnightblue" stroke="midnightblue" points="1391.1,-29.83 1394.36,-19.75 1385.52,-25.6 1391.1,-29.83"/>
</g>
<!-- Node38&#45;&gt;Node9 -->
<g id="edge66" class="edge">
<title>Node38&#45;&gt;Node9</title>
<path fill="none" stroke="midnightblue" d="M347.06,-403.26C341.14,-376.54 323.19,-295.52 315.07,-258.86"/>
<polygon fill="midnightblue" stroke="midnightblue" points="318.47,-258.03 312.89,-249.02 311.63,-259.54 318.47,-258.03"/>
</g>
<!-- Node38&#45;&gt;Node13 -->
<g id="edge67" class="edge">
<title>Node38&#45;&gt;Node13</title>
<path fill="none" stroke="midnightblue" d="M303.83,-403.47C273.04,-396.47 232.04,-384.78 199,-367 148.64,-339.89 106.01,-285.41 86.45,-257.63"/>
<polygon fill="midnightblue" stroke="midnightblue" points="89.28,-255.57 80.73,-249.31 83.51,-259.53 89.28,-255.57"/>
</g>
<!-- Node38&#45;&gt;Node22 -->
<g id="edge65" class="edge">
<title>Node38&#45;&gt;Node22</title>
<path fill="none" stroke="midnightblue" d="M333.74,-403.32C318.78,-394.82 295.75,-381.73 278.27,-371.8"/>
<polygon fill="midnightblue" stroke="midnightblue" points="279.65,-368.55 269.23,-366.65 276.19,-374.64 279.65,-368.55"/>
</g>
</g>
</svg>
