<?xml version="1.0" encoding="UTF-8" standalone="no"?>
<!DOCTYPE svg PUBLIC "-//W3C//DTD SVG 1.1//EN"
 "http://www.w3.org/Graphics/SVG/1.1/DTD/svg11.dtd">
<!-- Generated by graphviz version 2.43.0 (0)
 -->
<!-- Title: src/utils/math/blas/MyBLAS.h Pages: 1 -->
<svg width="296pt" height="207pt"
 viewBox="0.00 0.00 295.50 207.00" xmlns="http://www.w3.org/2000/svg" xmlns:xlink="http://www.w3.org/1999/xlink">
<g id="graph0" class="graph" transform="scale(1 1) rotate(0) translate(4 203)">
<title>src/utils/math/blas/MyBLAS.h</title>
<polygon fill="white" stroke="transparent" points="-4,4 -4,-203 291.5,-203 291.5,4 -4,4"/>
<!-- Node1 -->
<g id="node1" class="node">
<title>Node1</title>
<g id="a_node1"><a xlink:title="My BLAS methods for NE591&#45;008.">
<polygon fill="#bfbfbf" stroke="black" points="22,-168.5 22,-198.5 129,-198.5 129,-168.5 22,-168.5"/>
<text text-anchor="start" x="30" y="-186.5" font-family="Helvetica,sans-Serif" font-size="10.00">src/utils/math/blas</text>
<text text-anchor="middle" x="75.5" y="-175.5" font-family="Helvetica,sans-Serif" font-size="10.00">/MyBLAS.h</text>
</a>
</g>
</g>
<!-- Node2 -->
<g id="node2" class="node">
<title>Node2</title>
<g id="a_node2"><a xlink:title=" ">
<polygon fill="white" stroke="#bfbfbf" points="0,-112.5 0,-131.5 47,-131.5 47,-112.5 0,-112.5"/>
<text text-anchor="middle" x="23.5" y="-119.5" font-family="Helvetica,sans-Serif" font-size="10.00">cmath</text>
</a>
</g>
</g>
<!-- Node1&#45;&gt;Node2 -->
<g id="edge1" class="edge">
<title>Node1&#45;&gt;Node2</title>
<path fill="none" stroke="midnightblue" d="M63.18,-168.4C55.54,-159.66 45.71,-148.41 37.74,-139.3"/>
<polygon fill="midnightblue" stroke="midnightblue" points="40.28,-136.88 31.07,-131.66 35.01,-141.49 40.28,-136.88"/>
</g>
<!-- Node3 -->
<g id="node3" class="node">
<title>Node3</title>
<g id="a_node3"><a xlink:href="../../d3/db1/Matrix_8h.html" target="_top" xlink:title="This file contains my BLAS::Matrix declarations.">
<polygon fill="white" stroke="black" points="104,-112.5 104,-131.5 213,-131.5 213,-112.5 104,-112.5"/>
<text text-anchor="middle" x="158.5" y="-119.5" font-family="Helvetica,sans-Serif" font-size="10.00">math/blas/Matrix.h</text>
</a>
</g>
</g>
<!-- Node1&#45;&gt;Node3 -->
<g id="edge2" class="edge">
<title>Node1&#45;&gt;Node3</title>
<path fill="none" stroke="midnightblue" d="M95.17,-168.4C108.1,-159.13 124.99,-147.03 138.07,-137.65"/>
<polygon fill="midnightblue" stroke="midnightblue" points="140.33,-140.33 146.42,-131.66 136.26,-134.64 140.33,-140.33"/>
</g>
<!-- Node7 -->
<g id="node7" class="node">
<title>Node7</title>
<g id="a_node7"><a xlink:href="../../d6/dbe/Vector_8h.html" target="_top" xlink:title="This file contains my BLAS::Vector implementation.">
<polygon fill="white" stroke="black" points="22,-56.5 22,-75.5 129,-75.5 129,-56.5 22,-56.5"/>
<text text-anchor="middle" x="75.5" y="-63.5" font-family="Helvetica,sans-Serif" font-size="10.00">math/blas/Vector.h</text>
</a>
</g>
</g>
<!-- Node1&#45;&gt;Node7 -->
<g id="edge10" class="edge">
<title>Node1&#45;&gt;Node7</title>
<path fill="none" stroke="midnightblue" d="M75.5,-168.34C75.5,-147.62 75.5,-109.02 75.5,-85.9"/>
<polygon fill="midnightblue" stroke="midnightblue" points="79,-85.67 75.5,-75.67 72,-85.67 79,-85.67"/>
</g>
<!-- Node4 -->
<g id="node4" class="node">
<title>Node4</title>
<g id="a_node4"><a xlink:title=" ">
<polygon fill="white" stroke="#bfbfbf" points="100,-0.5 100,-19.5 147,-19.5 147,-0.5 100,-0.5"/>
<text text-anchor="middle" x="123.5" y="-7.5" font-family="Helvetica,sans-Serif" font-size="10.00">vector</text>
</a>
</g>
</g>
<!-- Node3&#45;&gt;Node4 -->
<g id="edge3" class="edge">
<title>Node3&#45;&gt;Node4</title>
<path fill="none" stroke="midnightblue" d="M155.75,-112.37C150.08,-94.54 136.96,-53.3 129.31,-29.27"/>
<polygon fill="midnightblue" stroke="midnightblue" points="132.6,-28.06 126.23,-19.59 125.93,-30.18 132.6,-28.06"/>
</g>
<!-- Node5 -->
<g id="node5" class="node">
<title>Node5</title>
<g id="a_node5"><a xlink:title=" ">
<polygon fill="white" stroke="#bfbfbf" points="165.5,-0.5 165.5,-19.5 225.5,-19.5 225.5,-0.5 165.5,-0.5"/>
<text text-anchor="middle" x="195.5" y="-7.5" font-family="Helvetica,sans-Serif" font-size="10.00">iostream</text>
</a>
</g>
</g>
<!-- Node3&#45;&gt;Node5 -->
<g id="edge4" class="edge">
<title>Node3&#45;&gt;Node5</title>
<path fill="none" stroke="midnightblue" d="M161.4,-112.37C167.4,-94.54 181.27,-53.3 189.35,-29.27"/>
<polygon fill="midnightblue" stroke="midnightblue" points="192.74,-30.19 192.61,-19.59 186.1,-27.95 192.74,-30.19"/>
</g>
<!-- Node6 -->
<g id="node6" class="node">
<title>Node6</title>
<g id="a_node6"><a xlink:title=" ">
<polygon fill="white" stroke="#bfbfbf" points="223.5,-56.5 223.5,-75.5 287.5,-75.5 287.5,-56.5 223.5,-56.5"/>
<text text-anchor="middle" x="255.5" y="-63.5" font-family="Helvetica,sans-Serif" font-size="10.00">algorithm</text>
</a>
</g>
</g>
<!-- Node3&#45;&gt;Node6 -->
<g id="edge5" class="edge">
<title>Node3&#45;&gt;Node6</title>
<path fill="none" stroke="midnightblue" d="M174.08,-112.32C189.5,-103.74 213.31,-90.49 231.21,-80.52"/>
<polygon fill="midnightblue" stroke="midnightblue" points="232.92,-83.58 239.95,-75.65 229.51,-77.46 232.92,-83.58"/>
</g>
<!-- Node3&#45;&gt;Node7 -->
<g id="edge6" class="edge">
<title>Node3&#45;&gt;Node7</title>
<path fill="none" stroke="midnightblue" d="M145.16,-112.32C132.34,-103.98 112.72,-91.21 97.56,-81.35"/>
<polygon fill="midnightblue" stroke="midnightblue" points="99.09,-78.17 88.8,-75.65 95.28,-84.04 99.09,-78.17"/>
</g>
<!-- Node7&#45;&gt;Node4 -->
<g id="edge7" class="edge">
<title>Node7&#45;&gt;Node4</title>
<path fill="none" stroke="midnightblue" d="M83.43,-56.08C90.35,-48.3 100.57,-36.8 108.95,-27.37"/>
<polygon fill="midnightblue" stroke="midnightblue" points="111.69,-29.55 115.72,-19.75 106.46,-24.9 111.69,-29.55"/>
</g>
<!-- Node7&#45;&gt;Node5 -->
<g id="edge8" class="edge">
<title>Node7&#45;&gt;Node5</title>
<path fill="none" stroke="midnightblue" d="M94.51,-56.44C114.09,-47.64 144.81,-33.81 167.23,-23.72"/>
<polygon fill="midnightblue" stroke="midnightblue" points="168.89,-26.81 176.57,-19.52 166.02,-20.43 168.89,-26.81"/>
</g>
<!-- Node8 -->
<g id="node8" class="node">
<title>Node8</title>
<g id="a_node8"><a xlink:title=" ">
<polygon fill="white" stroke="#bfbfbf" points="25.5,-0.5 25.5,-19.5 81.5,-19.5 81.5,-0.5 25.5,-0.5"/>
<text text-anchor="middle" x="53.5" y="-7.5" font-family="Helvetica,sans-Serif" font-size="10.00">iomanip</text>
</a>
</g>
</g>
<!-- Node7&#45;&gt;Node8 -->
<g id="edge9" class="edge">
<title>Node7&#45;&gt;Node8</title>
<path fill="none" stroke="midnightblue" d="M71.87,-56.08C68.89,-48.77 64.57,-38.18 60.88,-29.1"/>
<polygon fill="midnightblue" stroke="midnightblue" points="64.08,-27.69 57.07,-19.75 57.6,-30.33 64.08,-27.69"/>
</g>
</g>
</svg>
