<?xml version="1.0" encoding="UTF-8" standalone="no"?>
<!DOCTYPE svg PUBLIC "-//W3C//DTD SVG 1.1//EN"
 "http://www.w3.org/Graphics/SVG/1.1/DTD/svg11.dtd">
<!-- Generated by graphviz version 2.43.0 (0)
 -->
<!-- Title: my_sisd_sin Pages: 1 -->
<svg width="387pt" height="104pt"
 viewBox="0.00 0.00 387.00 104.00" xmlns="http://www.w3.org/2000/svg" xmlns:xlink="http://www.w3.org/1999/xlink">
<g id="graph0" class="graph" transform="scale(1 1) rotate(0) translate(4 100)">
<title>my_sisd_sin</title>
<polygon fill="white" stroke="transparent" points="-4,4 -4,-100 383,-100 383,4 -4,4"/>
<!-- Node1 -->
<g id="node1" class="node">
<title>Node1</title>
<g id="a_node1"><a xlink:title="Function to compute sine using a recursive, iterative taylor series discretization approach.">
<polygon fill="#bfbfbf" stroke="black" points="0,-38.5 0,-57.5 77,-57.5 77,-38.5 0,-38.5"/>
<text text-anchor="middle" x="38.5" y="-45.5" font-family="Helvetica,sans-Serif" font-size="10.00">my_sisd_sin</text>
</a>
</g>
</g>
<!-- Node2 -->
<g id="node2" class="node">
<title>Node2</title>
<g id="a_node2"><a xlink:href="../../dd/df5/namespaceMyBLAS_1_1Stats.html#afeaf3b7bba0ff1b952b35d0effc0bca9" target="_top" xlink:title="Function to find the absolute value of each element in a vector.">
<polygon fill="white" stroke="black" points="113,-76.5 113,-95.5 224,-95.5 224,-76.5 113,-76.5"/>
<text text-anchor="middle" x="168.5" y="-83.5" font-family="Helvetica,sans-Serif" font-size="10.00">MyBLAS::Stats::abs</text>
</a>
</g>
</g>
<!-- Node1&#45;&gt;Node2 -->
<g id="edge1" class="edge">
<title>Node1&#45;&gt;Node2</title>
<path fill="none" stroke="midnightblue" d="M71.8,-57.59C88.02,-62.4 107.88,-68.3 125.29,-73.47"/>
<polygon fill="midnightblue" stroke="midnightblue" points="124.63,-76.92 135.21,-76.41 126.62,-70.21 124.63,-76.92"/>
</g>
<!-- Node4 -->
<g id="node4" class="node">
<title>Node4</title>
<g id="a_node4"><a xlink:href="../../d7/d64/labs_2inlab1_2Compute_8h.html#a5dca881e1ae89aa924c747386d963f95" target="_top" xlink:title="Function to compute factorial in a naive way.">
<polygon fill="white" stroke="black" points="124,-38.5 124,-57.5 213,-57.5 213,-38.5 124,-38.5"/>
<text text-anchor="middle" x="168.5" y="-45.5" font-family="Helvetica,sans-Serif" font-size="10.00">naive_factorial</text>
</a>
</g>
</g>
<!-- Node1&#45;&gt;Node4 -->
<g id="edge3" class="edge">
<title>Node1&#45;&gt;Node4</title>
<path fill="none" stroke="midnightblue" d="M77.21,-48C88.62,-48 101.38,-48 113.62,-48"/>
<polygon fill="midnightblue" stroke="midnightblue" points="113.75,-51.5 123.75,-48 113.75,-44.5 113.75,-51.5"/>
</g>
<!-- Node5 -->
<g id="node5" class="node">
<title>Node5</title>
<g id="a_node5"><a xlink:href="../../de/d4d/namespaceMyMath.html#af3e9a9de7b922fdfb6e3d2988b1212ff" target="_top" xlink:title=" ">
<polygon fill="white" stroke="black" points="127,-0.5 127,-19.5 210,-19.5 210,-0.5 127,-0.5"/>
<text text-anchor="middle" x="168.5" y="-7.5" font-family="Helvetica,sans-Serif" font-size="10.00">MyMath::pow</text>
</a>
</g>
</g>
<!-- Node1&#45;&gt;Node5 -->
<g id="edge4" class="edge">
<title>Node1&#45;&gt;Node5</title>
<path fill="none" stroke="midnightblue" d="M71.8,-38.41C88.02,-33.6 107.88,-27.7 125.29,-22.53"/>
<polygon fill="midnightblue" stroke="midnightblue" points="126.62,-25.79 135.21,-19.59 124.63,-19.08 126.62,-25.79"/>
</g>
<!-- Node3 -->
<g id="node3" class="node">
<title>Node3</title>
<g id="a_node3"><a xlink:href="../../d4/d4d/classMyBLAS_1_1Vector.html#aae30f8178e4a34d332317c61e77c147a" target="_top" xlink:title="Getter for the size of the vector.">
<polygon fill="white" stroke="black" points="260,-76.5 260,-95.5 379,-95.5 379,-76.5 260,-76.5"/>
<text text-anchor="middle" x="319.5" y="-83.5" font-family="Helvetica,sans-Serif" font-size="10.00">MyBLAS::Vector::size</text>
</a>
</g>
</g>
<!-- Node2&#45;&gt;Node3 -->
<g id="edge2" class="edge">
<title>Node2&#45;&gt;Node3</title>
<path fill="none" stroke="midnightblue" d="M224.14,-86C232.49,-86 241.21,-86 249.82,-86"/>
<polygon fill="midnightblue" stroke="midnightblue" points="249.86,-89.5 259.86,-86 249.86,-82.5 249.86,-89.5"/>
</g>
<!-- Node6 -->
<g id="node6" class="node">
<title>Node6</title>
<g id="a_node6"><a xlink:href="../../de/d4d/namespaceMyMath.html#a5f2b6e445ba885637efd0db1a7708919" target="_top" xlink:title=" ">
<polygon fill="white" stroke="black" points="278,-0.5 278,-19.5 361,-19.5 361,-0.5 278,-0.5"/>
<text text-anchor="middle" x="319.5" y="-7.5" font-family="Helvetica,sans-Serif" font-size="10.00">MyMath::pow</text>
</a>
</g>
</g>
<!-- Node5&#45;&gt;Node6 -->
<g id="edge5" class="edge">
<title>Node5&#45;&gt;Node6</title>
<path fill="none" stroke="midnightblue" d="M210.21,-10C227.95,-10 248.94,-10 267.68,-10"/>
<polygon fill="midnightblue" stroke="midnightblue" points="267.83,-13.5 277.83,-10 267.83,-6.5 267.83,-13.5"/>
</g>
</g>
</svg>
