<?xml version="1.0" encoding="UTF-8" standalone="no"?>
<!DOCTYPE svg PUBLIC "-//W3C//DTD SVG 1.1//EN"
 "http://www.w3.org/Graphics/SVG/1.1/DTD/svg11.dtd">
<!-- Generated by graphviz version 2.43.0 (0)
 -->
<!-- Title: my_sisd_sin Pages: 1 -->
<svg width="329pt" height="104pt"
 viewBox="0.00 0.00 329.00 104.00" xmlns="http://www.w3.org/2000/svg" xmlns:xlink="http://www.w3.org/1999/xlink">
<g id="graph0" class="graph" transform="scale(1 1) rotate(0) translate(4 100)">
<title>my_sisd_sin</title>
<polygon fill="white" stroke="transparent" points="-4,4 -4,-100 325,-100 325,4 -4,4"/>
<!-- Node1 -->
<g id="node1" class="node">
<title>Node1</title>
<g id="a_node1"><a xlink:title="Function to compute sine using a recursive, iterative taylor series discretization approach.">
<polygon fill="#bfbfbf" stroke="black" points="0,-38.5 0,-57.5 77,-57.5 77,-38.5 0,-38.5"/>
<text text-anchor="middle" x="38.5" y="-45.5" font-family="Helvetica,sans-Serif" font-size="10.00">my_sisd_sin</text>
</a>
</g>
</g>
<!-- Node2 -->
<g id="node2" class="node">
<title>Node2</title>
<g id="a_node2"><a xlink:href="../../de/d4d/namespaceMyMath.html#a65264d3fe16d8278498a14fc821b438a" target="_top" xlink:title="A template function to calculate the absolute value of a number.">
<polygon fill="white" stroke="black" points="117.5,-76.5 117.5,-95.5 197.5,-95.5 197.5,-76.5 117.5,-76.5"/>
<text text-anchor="middle" x="157.5" y="-83.5" font-family="Helvetica,sans-Serif" font-size="10.00">MyMath::abs</text>
</a>
</g>
</g>
<!-- Node1&#45;&gt;Node2 -->
<g id="edge1" class="edge">
<title>Node1&#45;&gt;Node2</title>
<path fill="none" stroke="midnightblue" d="M69.02,-57.59C83.71,-62.36 101.66,-68.19 117.47,-73.32"/>
<polygon fill="midnightblue" stroke="midnightblue" points="116.39,-76.65 126.99,-76.41 118.56,-70 116.39,-76.65"/>
</g>
<!-- Node3 -->
<g id="node3" class="node">
<title>Node3</title>
<g id="a_node3"><a xlink:href="../../d7/d64/labs_2inlab1_2Compute_8h.html#a5dca881e1ae89aa924c747386d963f95" target="_top" xlink:title="Function to compute factorial in a naive way.">
<polygon fill="white" stroke="black" points="113,-38.5 113,-57.5 202,-57.5 202,-38.5 113,-38.5"/>
<text text-anchor="middle" x="157.5" y="-45.5" font-family="Helvetica,sans-Serif" font-size="10.00">naive_factorial</text>
</a>
</g>
</g>
<!-- Node1&#45;&gt;Node3 -->
<g id="edge2" class="edge">
<title>Node1&#45;&gt;Node3</title>
<path fill="none" stroke="midnightblue" d="M77.16,-48C85.33,-48 94.11,-48 102.76,-48"/>
<polygon fill="midnightblue" stroke="midnightblue" points="102.8,-51.5 112.8,-48 102.8,-44.5 102.8,-51.5"/>
</g>
<!-- Node4 -->
<g id="node4" class="node">
<title>Node4</title>
<g id="a_node4"><a xlink:href="../../de/d4d/namespaceMyMath.html#af3e9a9de7b922fdfb6e3d2988b1212ff" target="_top" xlink:title="A template function to calculate the power of a base number.">
<polygon fill="white" stroke="black" points="116,-0.5 116,-19.5 199,-19.5 199,-0.5 116,-0.5"/>
<text text-anchor="middle" x="157.5" y="-7.5" font-family="Helvetica,sans-Serif" font-size="10.00">MyMath::pow</text>
</a>
</g>
</g>
<!-- Node1&#45;&gt;Node4 -->
<g id="edge3" class="edge">
<title>Node1&#45;&gt;Node4</title>
<path fill="none" stroke="midnightblue" d="M69.02,-38.41C83.71,-33.64 101.66,-27.81 117.47,-22.68"/>
<polygon fill="midnightblue" stroke="midnightblue" points="118.56,-26 126.99,-19.59 116.39,-19.35 118.56,-26"/>
</g>
<!-- Node5 -->
<g id="node5" class="node">
<title>Node5</title>
<g id="a_node5"><a xlink:href="../../de/d4d/namespaceMyMath.html#a5f2b6e445ba885637efd0db1a7708919" target="_top" xlink:title="A template specialization function to calculate the power of a __float128 base number.">
<polygon fill="white" stroke="black" points="238,-0.5 238,-19.5 321,-19.5 321,-0.5 238,-0.5"/>
<text text-anchor="middle" x="279.5" y="-7.5" font-family="Helvetica,sans-Serif" font-size="10.00">MyMath::pow</text>
</a>
</g>
</g>
<!-- Node4&#45;&gt;Node5 -->
<g id="edge4" class="edge">
<title>Node4&#45;&gt;Node5</title>
<path fill="none" stroke="midnightblue" d="M199.13,-10C208.31,-10 218.18,-10 227.73,-10"/>
<polygon fill="midnightblue" stroke="midnightblue" points="227.92,-13.5 237.92,-10 227.92,-6.5 227.92,-13.5"/>
</g>
</g>
</svg>
