<?xml version="1.0" encoding="UTF-8" standalone="no"?>
<!DOCTYPE svg PUBLIC "-//W3C//DTD SVG 1.1//EN"
 "http://www.w3.org/Graphics/SVG/1.1/DTD/svg11.dtd">
<!-- Generated by graphviz version 2.43.0 (0)
 -->
<!-- Title: MatrixVectorExpression::multiplyMatrixVector Pages: 1 -->
<svg width="343pt" height="142pt"
 viewBox="0.00 0.00 343.00 142.00" xmlns="http://www.w3.org/2000/svg" xmlns:xlink="http://www.w3.org/1999/xlink">
<g id="graph0" class="graph" transform="scale(1 1) rotate(0) translate(4 138)">
<title>MatrixVectorExpression::multiplyMatrixVector</title>
<polygon fill="white" stroke="transparent" points="-4,4 -4,-138 339,-138 339,4 -4,4"/>
<!-- Node1 -->
<g id="node1" class="node">
<title>Node1</title>
<g id="a_node1"><a xlink:title="Performs element&#45;wise matrix&#45;vector multiplication.">
<polygon fill="#bfbfbf" stroke="black" points="203,-52 203,-82 335,-82 335,-52 203,-52"/>
<text text-anchor="start" x="211" y="-70" font-family="Helvetica,sans-Serif" font-size="10.00">MatrixVectorExpression</text>
<text text-anchor="middle" x="269" y="-59" font-family="Helvetica,sans-Serif" font-size="10.00">::multiplyMatrixVector</text>
</a>
</g>
</g>
<!-- Node2 -->
<g id="node2" class="node">
<title>Node2</title>
<g id="a_node2"><a xlink:href="../../de/db3/namespaceCompute.html#a0b405b6556f147fd5af6a277cccb5e65" target="_top" xlink:title="Solves a linear system using the Gauss&#45;Seidel method.">
<polygon fill="white" stroke="black" points="7,-114.5 7,-133.5 160,-133.5 160,-114.5 7,-114.5"/>
<text text-anchor="middle" x="83.5" y="-121.5" font-family="Helvetica,sans-Serif" font-size="10.00">Compute::usingGaussSeidel</text>
</a>
</g>
</g>
<!-- Node1&#45;&gt;Node2 -->
<g id="edge1" class="edge">
<title>Node1&#45;&gt;Node2</title>
<path fill="none" stroke="midnightblue" d="M221.76,-85.88C204.71,-92.44 185.14,-99.52 167,-105 155.46,-108.48 142.85,-111.68 131.04,-114.43"/>
<polygon fill="midnightblue" stroke="midnightblue" points="223.42,-88.99 231.47,-82.09 220.88,-82.47 223.42,-88.99"/>
</g>
<!-- Node3 -->
<g id="node3" class="node">
<title>Node3</title>
<g id="a_node3"><a xlink:href="../../de/db3/namespaceCompute.html#a7349dde18d551b9ad66d05e6f32fc196" target="_top" xlink:title="Solves a linear system using the Jacobi SOR method.">
<polygon fill="white" stroke="black" points="12,-76.5 12,-95.5 155,-95.5 155,-76.5 12,-76.5"/>
<text text-anchor="middle" x="83.5" y="-83.5" font-family="Helvetica,sans-Serif" font-size="10.00">Compute::usingJacobiSOR</text>
</a>
</g>
</g>
<!-- Node1&#45;&gt;Node3 -->
<g id="edge2" class="edge">
<title>Node1&#45;&gt;Node3</title>
<path fill="none" stroke="midnightblue" d="M192.51,-74.82C180.14,-76.1 167.36,-77.42 155.11,-78.69"/>
<polygon fill="midnightblue" stroke="midnightblue" points="193.2,-78.26 202.79,-73.75 192.48,-71.3 193.2,-78.26"/>
</g>
<!-- Node4 -->
<g id="node4" class="node">
<title>Node4</title>
<g id="a_node4"><a xlink:href="../../de/db3/namespaceCompute.html#a26fcd23146e3ca00ed9eefc59c89c07a" target="_top" xlink:title="Solves a linear system using the Successive Over&#45;Relaxation (SOR) method.">
<polygon fill="white" stroke="black" points="27,-38.5 27,-57.5 140,-57.5 140,-38.5 27,-38.5"/>
<text text-anchor="middle" x="83.5" y="-45.5" font-family="Helvetica,sans-Serif" font-size="10.00">Compute::usingSOR</text>
</a>
</g>
</g>
<!-- Node1&#45;&gt;Node4 -->
<g id="edge3" class="edge">
<title>Node1&#45;&gt;Node4</title>
<path fill="none" stroke="midnightblue" d="M192.56,-59.19C175,-57.37 156.61,-55.47 140.09,-53.76"/>
<polygon fill="midnightblue" stroke="midnightblue" points="192.48,-62.7 202.79,-60.25 193.2,-55.74 192.48,-62.7"/>
</g>
<!-- Node5 -->
<g id="node5" class="node">
<title>Node5</title>
<g id="a_node5"><a xlink:href="../../de/db3/namespaceCompute.html#a5a35addbdcdba218c82923bdc3ef7d93" target="_top" xlink:title="Solves a linear system using the Symmetric SOR method.">
<polygon fill="white" stroke="black" points="0,-0.5 0,-19.5 167,-19.5 167,-0.5 0,-0.5"/>
<text text-anchor="middle" x="83.5" y="-7.5" font-family="Helvetica,sans-Serif" font-size="10.00">Compute::usingSymmetricSOR</text>
</a>
</g>
</g>
<!-- Node1&#45;&gt;Node5 -->
<g id="edge4" class="edge">
<title>Node1&#45;&gt;Node5</title>
<path fill="none" stroke="midnightblue" d="M221.76,-48.12C204.71,-41.56 185.14,-34.48 167,-29 155.46,-25.52 142.85,-22.32 131.04,-19.57"/>
<polygon fill="midnightblue" stroke="midnightblue" points="220.88,-51.53 231.47,-51.91 223.42,-45.01 220.88,-51.53"/>
</g>
</g>
</svg>
