<?xml version="1.0" encoding="UTF-8" standalone="no"?>
<!DOCTYPE svg PUBLIC "-//W3C//DTD SVG 1.1//EN"
 "http://www.w3.org/Graphics/SVG/1.1/DTD/svg11.dtd">
<!-- Generated by graphviz version 2.43.0 (0)
 -->
<!-- Title: MatrixVectorExpression::multiplyMatrixVector Pages: 1 -->
<svg width="466pt" height="192pt"
 viewBox="0.00 0.00 466.00 192.00" xmlns="http://www.w3.org/2000/svg" xmlns:xlink="http://www.w3.org/1999/xlink">
<g id="graph0" class="graph" transform="scale(1 1) rotate(0) translate(4 188)">
<title>MatrixVectorExpression::multiplyMatrixVector</title>
<polygon fill="white" stroke="transparent" points="-4,4 -4,-188 462,-188 462,4 -4,4"/>
<!-- Node1 -->
<g id="node1" class="node">
<title>Node1</title>
<g id="a_node1"><a xlink:title="Performs element&#45;wise matrix&#45;vector multiplication.">
<polygon fill="#bfbfbf" stroke="black" points="326,-83 326,-113 458,-113 458,-83 326,-83"/>
<text text-anchor="start" x="334" y="-101" font-family="Helvetica,sans-Serif" font-size="10.00">MatrixVectorExpression</text>
<text text-anchor="middle" x="392" y="-90" font-family="Helvetica,sans-Serif" font-size="10.00">::multiplyMatrixVector</text>
</a>
</g>
</g>
<!-- Node2 -->
<g id="node2" class="node">
<title>Node2</title>
<g id="a_node2"><a xlink:href="../../de/db3/namespaceCompute.html#a0b405b6556f147fd5af6a277cccb5e65" target="_top" xlink:title="Solves a linear system using the Gauss&#45;Seidel method.">
<polygon fill="white" stroke="black" points="125.5,-164.5 125.5,-183.5 278.5,-183.5 278.5,-164.5 125.5,-164.5"/>
<text text-anchor="middle" x="202" y="-171.5" font-family="Helvetica,sans-Serif" font-size="10.00">Compute::usingGaussSeidel</text>
</a>
</g>
</g>
<!-- Node1&#45;&gt;Node2 -->
<g id="edge1" class="edge">
<title>Node1&#45;&gt;Node2</title>
<path fill="none" stroke="midnightblue" d="M360,-118.71C340.6,-130.85 314.69,-145.58 290,-155 280.03,-158.8 269.12,-161.93 258.49,-164.48"/>
<polygon fill="midnightblue" stroke="midnightblue" points="362.14,-121.5 368.69,-113.18 358.38,-115.6 362.14,-121.5"/>
</g>
<!-- Node3 -->
<g id="node3" class="node">
<title>Node3</title>
<g id="a_node3"><a xlink:href="../../de/db3/namespaceCompute.html#a7349dde18d551b9ad66d05e6f32fc196" target="_top" xlink:title="Solves a linear system using the Jacobi SOR method.">
<polygon fill="white" stroke="black" points="130.5,-126.5 130.5,-145.5 273.5,-145.5 273.5,-126.5 130.5,-126.5"/>
<text text-anchor="middle" x="202" y="-133.5" font-family="Helvetica,sans-Serif" font-size="10.00">Compute::usingJacobiSOR</text>
</a>
</g>
</g>
<!-- Node1&#45;&gt;Node3 -->
<g id="edge2" class="edge">
<title>Node1&#45;&gt;Node3</title>
<path fill="none" stroke="midnightblue" d="M315.71,-113.22C293.53,-117.7 269.9,-122.48 250.04,-126.49"/>
<polygon fill="midnightblue" stroke="midnightblue" points="316.67,-116.6 325.77,-111.18 315.28,-109.73 316.67,-116.6"/>
</g>
<!-- Node4 -->
<g id="node4" class="node">
<title>Node4</title>
<g id="a_node4"><a xlink:href="../../de/db3/namespaceCompute.html#a26fcd23146e3ca00ed9eefc59c89c07a" target="_top" xlink:title="Solves a linear system using the Successive Over&#45;Relaxation (SOR) method.">
<polygon fill="white" stroke="black" points="145.5,-88.5 145.5,-107.5 258.5,-107.5 258.5,-88.5 145.5,-88.5"/>
<text text-anchor="middle" x="202" y="-95.5" font-family="Helvetica,sans-Serif" font-size="10.00">Compute::usingSOR</text>
</a>
</g>
</g>
<!-- Node1&#45;&gt;Node4 -->
<g id="edge3" class="edge">
<title>Node1&#45;&gt;Node4</title>
<path fill="none" stroke="midnightblue" d="M315.65,-98C296.64,-98 276.58,-98 258.73,-98"/>
<polygon fill="midnightblue" stroke="midnightblue" points="315.77,-101.5 325.77,-98 315.77,-94.5 315.77,-101.5"/>
</g>
<!-- Node5 -->
<g id="node5" class="node">
<title>Node5</title>
<g id="a_node5"><a xlink:href="../../de/db3/namespaceCompute.html#af9b2fed99d9965f94cb5cfab410419a0" target="_top" xlink:title="Solves a linear system using the Symmetric Gauss&#45;Seidel method.">
<polygon fill="white" stroke="black" points="114,-39 114,-69 290,-69 290,-39 114,-39"/>
<text text-anchor="start" x="122" y="-57" font-family="Helvetica,sans-Serif" font-size="10.00">Compute::usingSymmetricGauss</text>
<text text-anchor="middle" x="202" y="-46" font-family="Helvetica,sans-Serif" font-size="10.00">Seidel</text>
</a>
</g>
</g>
<!-- Node1&#45;&gt;Node5 -->
<g id="edge4" class="edge">
<title>Node1&#45;&gt;Node5</title>
<path fill="none" stroke="midnightblue" d="M316.75,-80.62C300.37,-76.79 283.15,-72.76 267.2,-69.03"/>
<polygon fill="midnightblue" stroke="midnightblue" points="316.29,-84.11 326.83,-82.98 317.89,-77.29 316.29,-84.11"/>
</g>
<!-- Node7 -->
<g id="node7" class="node">
<title>Node7</title>
<g id="a_node7"><a xlink:href="../../de/db3/namespaceCompute.html#a5a35addbdcdba218c82923bdc3ef7d93" target="_top" xlink:title="Solves a linear system using the Symmetric SOR method.">
<polygon fill="white" stroke="black" points="118.5,-0.5 118.5,-19.5 285.5,-19.5 285.5,-0.5 118.5,-0.5"/>
<text text-anchor="middle" x="202" y="-7.5" font-family="Helvetica,sans-Serif" font-size="10.00">Compute::usingSymmetricSOR</text>
</a>
</g>
</g>
<!-- Node1&#45;&gt;Node7 -->
<g id="edge6" class="edge">
<title>Node1&#45;&gt;Node7</title>
<path fill="none" stroke="midnightblue" d="M364.77,-76.38C345.25,-61.32 317.37,-41.87 290,-30 280.19,-25.74 269.35,-22.33 258.74,-19.61"/>
<polygon fill="midnightblue" stroke="midnightblue" points="362.83,-79.31 372.86,-82.74 367.16,-73.81 362.83,-79.31"/>
</g>
<!-- Node6 -->
<g id="node6" class="node">
<title>Node6</title>
<g id="a_node6"><a xlink:href="../../dd/dfb/classProject3.html#a8bcff99aaba60e7d5e5be3cb7552d163" target="_top" xlink:title="This function runs the project.">
<polygon fill="white" stroke="black" points="0,-44.5 0,-63.5 78,-63.5 78,-44.5 0,-44.5"/>
<text text-anchor="middle" x="39" y="-51.5" font-family="Helvetica,sans-Serif" font-size="10.00">Project3::run</text>
</a>
</g>
</g>
<!-- Node5&#45;&gt;Node6 -->
<g id="edge5" class="edge">
<title>Node5&#45;&gt;Node6</title>
<path fill="none" stroke="midnightblue" d="M103.64,-54C94.65,-54 85.94,-54 78.01,-54"/>
<polygon fill="midnightblue" stroke="midnightblue" points="103.9,-57.5 113.9,-54 103.9,-50.5 103.9,-57.5"/>
</g>
</g>
</svg>
