<?xml version="1.0" encoding="UTF-8" standalone="no"?>
<!DOCTYPE svg PUBLIC "-//W3C//DTD SVG 1.1//EN"
 "http://www.w3.org/Graphics/SVG/1.1/DTD/svg11.dtd">
<!-- Generated by graphviz version 2.43.0 (0)
 -->
<!-- Title: MyBLAS::LUP::factorize Pages: 1 -->
<svg width="670pt" height="66pt"
 viewBox="0.00 0.00 670.00 66.00" xmlns="http://www.w3.org/2000/svg" xmlns:xlink="http://www.w3.org/1999/xlink">
<g id="graph0" class="graph" transform="scale(1 1) rotate(0) translate(4 62)">
<title>MyBLAS::LUP::factorize</title>
<polygon fill="white" stroke="transparent" points="-4,4 -4,-62 666,-62 666,4 -4,4"/>
<!-- Node1 -->
<g id="node1" class="node">
<title>Node1</title>
<g id="a_node1"><a xlink:title="This function performs LU factorization on a given matrix A and stores the results in matrices L and ...">
<polygon fill="#bfbfbf" stroke="black" points="0,-19.5 0,-38.5 131,-38.5 131,-19.5 0,-19.5"/>
<text text-anchor="middle" x="65.5" y="-26.5" font-family="Helvetica,sans-Serif" font-size="10.00">MyBLAS::LUP::factorize</text>
</a>
</g>
</g>
<!-- Node2 -->
<g id="node2" class="node">
<title>Node2</title>
<g id="a_node2"><a xlink:href="../../d5/db6/namespaceMyBLAS_1_1LUP.html#a8944cf7f291594494e1140ff6b0b0fc6" target="_top" xlink:title="Performs Doolittle&#39;s LU factorization with partial pivoting on a given matrix.">
<polygon fill="white" stroke="black" points="167,-38.5 167,-57.5 360,-57.5 360,-38.5 167,-38.5"/>
<text text-anchor="middle" x="263.5" y="-45.5" font-family="Helvetica,sans-Serif" font-size="10.00">MyBLAS::LUP::dooLittleFactorizeLUP</text>
</a>
</g>
</g>
<!-- Node1&#45;&gt;Node2 -->
<g id="edge1" class="edge">
<title>Node1&#45;&gt;Node2</title>
<path fill="none" stroke="midnightblue" d="M131.22,-35.27C139.4,-36.07 147.92,-36.89 156.53,-37.73"/>
<polygon fill="midnightblue" stroke="midnightblue" points="156.36,-41.23 166.66,-38.71 157.04,-34.26 156.36,-41.23"/>
</g>
<!-- Node5 -->
<g id="node5" class="node">
<title>Node5</title>
<g id="a_node5"><a xlink:href="../../dd/dd7/plot__points_8m.html#a07ca9f04874775e798496347c3e80b84" target="_top" xlink:title=" ">
<polygon fill="white" stroke="black" points="437,-0.5 437,-19.5 466,-19.5 466,-0.5 437,-0.5"/>
<text text-anchor="middle" x="451.5" y="-7.5" font-family="Helvetica,sans-Serif" font-size="10.00">L</text>
</a>
</g>
</g>
<!-- Node1&#45;&gt;Node5 -->
<g id="edge5" class="edge">
<title>Node1&#45;&gt;Node5</title>
<path fill="none" stroke="midnightblue" d="M131.21,-25.8C218.17,-21.5 368.56,-14.05 426.64,-11.18"/>
<polygon fill="midnightblue" stroke="midnightblue" points="427.17,-14.66 436.99,-10.67 426.82,-7.67 427.17,-14.66"/>
</g>
<!-- Node3 -->
<g id="node3" class="node">
<title>Node3</title>
<g id="a_node3"><a xlink:href="../../dd/df5/namespaceMyBLAS_1_1Stats.html#afeaf3b7bba0ff1b952b35d0effc0bca9" target="_top" xlink:title="Function to find the absolute value of each element in a vector.">
<polygon fill="white" stroke="black" points="396,-38.5 396,-57.5 507,-57.5 507,-38.5 396,-38.5"/>
<text text-anchor="middle" x="451.5" y="-45.5" font-family="Helvetica,sans-Serif" font-size="10.00">MyBLAS::Stats::abs</text>
</a>
</g>
</g>
<!-- Node2&#45;&gt;Node3 -->
<g id="edge2" class="edge">
<title>Node2&#45;&gt;Node3</title>
<path fill="none" stroke="midnightblue" d="M360.22,-48C368.74,-48 377.22,-48 385.38,-48"/>
<polygon fill="midnightblue" stroke="midnightblue" points="385.54,-51.5 395.54,-48 385.54,-44.5 385.54,-51.5"/>
</g>
<!-- Node2&#45;&gt;Node5 -->
<g id="edge4" class="edge">
<title>Node2&#45;&gt;Node5</title>
<path fill="none" stroke="midnightblue" d="M311.44,-38.41C348.27,-30.89 398,-20.72 426.93,-14.82"/>
<polygon fill="midnightblue" stroke="midnightblue" points="427.83,-18.2 436.93,-12.77 426.43,-11.35 427.83,-18.2"/>
</g>
<!-- Node4 -->
<g id="node4" class="node">
<title>Node4</title>
<g id="a_node4"><a xlink:href="../../d4/d4d/classMyBLAS_1_1Vector.html#aae30f8178e4a34d332317c61e77c147a" target="_top" xlink:title="Getter for the size of the vector.">
<polygon fill="white" stroke="black" points="543,-38.5 543,-57.5 662,-57.5 662,-38.5 543,-38.5"/>
<text text-anchor="middle" x="602.5" y="-45.5" font-family="Helvetica,sans-Serif" font-size="10.00">MyBLAS::Vector::size</text>
</a>
</g>
</g>
<!-- Node3&#45;&gt;Node4 -->
<g id="edge3" class="edge">
<title>Node3&#45;&gt;Node4</title>
<path fill="none" stroke="midnightblue" d="M507.14,-48C515.49,-48 524.21,-48 532.82,-48"/>
<polygon fill="midnightblue" stroke="midnightblue" points="532.86,-51.5 542.86,-48 532.86,-44.5 532.86,-51.5"/>
</g>
</g>
</svg>
