<?xml version="1.0" encoding="UTF-8" standalone="no"?>
<!DOCTYPE svg PUBLIC "-//W3C//DTD SVG 1.1//EN"
 "http://www.w3.org/Graphics/SVG/1.1/DTD/svg11.dtd">
<!-- Generated by graphviz version 2.43.0 (0)
 -->
<!-- Title: MyBLAS::LUP::dooLittleFactorizeLUP Pages: 1 -->
<!--zoomable 113 -->
<svg id="main" version="1.1" xmlns="http://www.w3.org/2000/svg" xmlns:xlink="http://www.w3.org/1999/xlink" xml:space="preserve" onload="init(evt)">
<style type="text/css"><![CDATA[
.edge:hover path { stroke: red; }
.edge:hover polygon { stroke: red; fill: red; }
]]></style>
<script type="text/javascript"><![CDATA[
var edges = document.getElementsByTagName('g');
if (edges && edges.length) {
  for (var i=0;i<edges.length;i++) {
    if (edges[i].id.substr(0,4)=='edge') {
      edges[i].setAttribute('class','edge');
    }
  }
}
]]></script>
        <defs>
                <circle id="rim" cx="0" cy="0" r="7"/>
                <circle id="rim2" cx="0" cy="0" r="3.5"/>
                <g id="zoomPlus">
                        <use xlink:href="#rim" fill="#404040">
                                <set attributeName="fill" to="#808080" begin="zoomplus.mouseover" end="zoomplus.mouseout"/>
                        </use>
                        <path d="M-4,0h8M0,-4v8" fill="none" stroke="white" stroke-width="1.5" pointer-events="none"/>
                </g>
                <g id="zoomMin">
                        <use xlink:href="#rim" fill="#404040">
                                <set attributeName="fill" to="#808080" begin="zoomminus.mouseover" end="zoomminus.mouseout"/>
                        </use>
                        <path d="M-4,0h8" fill="none" stroke="white" stroke-width="1.5" pointer-events="none"/>
                </g>
                <g id="dirArrow">
                        <path fill="none" stroke="white" stroke-width="1.5" d="M0,-3.0v7 M-2.5,-0.5L0,-3.0L2.5,-0.5"/>
                </g>
               <g id="resetDef">
                       <use xlink:href="#rim2" fill="#404040">
                               <set attributeName="fill" to="#808080" begin="reset.mouseover" end="reset.mouseout"/>
                       </use>
               </g>
        </defs>

<script type="text/javascript">
var viewWidth = 634;
var viewHeight = 113;
var sectionId = 'dynsection-3';
</script>
<script xlink:href="../../svgpan.js"/>
<svg id="graph" class="graph">
<g id="viewport">
<title>MyBLAS::LUP::dooLittleFactorizeLUP</title>
<polygon fill="white" stroke="transparent" points="-4,4 -4,-108.5 630,-108.5 630,4 -4,4"/>
<!-- Node1 -->
<g id="node1" class="node">
<title>Node1</title>
<g id="a_node1"><a xlink:title="Performs Doolittle&#39;s LU factorization with partial pivoting on a given matrix.">
<polygon fill="#bfbfbf" stroke="black" points="433,-28 433,-47 626,-47 626,-28 433,-28"/>
<text text-anchor="middle" x="529.5" y="-35" font-family="Helvetica,sans-Serif" font-size="10.00">MyBLAS::LUP::dooLittleFactorizeLUP</text>
</a>
</g>
</g>
<!-- Node2 -->
<g id="node2" class="node">
<title>Node2</title>
<g id="a_node2"><a xlink:href="../../d5/db6/namespaceMyBLAS_1_1LUP.html#a2f715f34052a24e79c500e89995fe5d3" target="_top" xlink:title="This function solves a system of linear equations Ax = b using LU factorization with partial pivoting...">
<polygon fill="white" stroke="black" points="263,-48 263,-67 397,-67 397,-48 263,-48"/>
<text text-anchor="middle" x="330" y="-55" font-family="Helvetica,sans-Serif" font-size="10.00">MyBLAS::LUP::applyLUP</text>
</a>
</g>
</g>
<!-- Node1&#45;&gt;Node2 -->
<g id="edge1" class="edge">
<title>Node1&#45;&gt;Node2</title>
<path fill="none" stroke="midnightblue" d="M424.59,-48.02C415.31,-48.96 406.08,-49.9 397.25,-50.79"/>
<polygon fill="midnightblue" stroke="midnightblue" points="425.07,-51.49 434.67,-47 424.36,-44.53 425.07,-51.49"/>
</g>
<!-- Node6 -->
<g id="node6" class="node">
<title>Node6</title>
<g id="a_node6"><a xlink:href="../../d5/db6/namespaceMyBLAS_1_1LUP.html#aadc5106a411767f67e83cd6b62cabbce" target="_top" xlink:title="This function performs LU factorization on a given matrix A and stores the results in matrices L and ...">
<polygon fill="white" stroke="black" points="264.5,-9 264.5,-28 395.5,-28 395.5,-9 264.5,-9"/>
<text text-anchor="middle" x="330" y="-16" font-family="Helvetica,sans-Serif" font-size="10.00">MyBLAS::LUP::factorize</text>
</a>
</g>
</g>
<!-- Node1&#45;&gt;Node6 -->
<g id="edge5" class="edge">
<title>Node1&#45;&gt;Node6</title>
<path fill="none" stroke="midnightblue" d="M422.89,-27.34C413.65,-26.45 404.49,-25.57 395.74,-24.73"/>
<polygon fill="midnightblue" stroke="midnightblue" points="422.64,-30.83 432.93,-28.31 423.31,-23.86 422.64,-30.83"/>
</g>
<!-- Node3 -->
<g id="node3" class="node">
<title>Node3</title>
<g id="a_node3"><a xlink:href="../../de/db3/namespaceCompute.html#a9aaa2e3c1db51432d5a62c1d4541fd90" target="_top" xlink:title="Solves a linear system using LUP decomposition.">
<polygon fill="white" stroke="black" points="115,-50 115,-69 227,-69 227,-50 115,-50"/>
<text text-anchor="middle" x="171" y="-57" font-family="Helvetica,sans-Serif" font-size="10.00">Compute::usingLUP</text>
</a>
</g>
</g>
<!-- Node2&#45;&gt;Node3 -->
<g id="edge2" class="edge">
<title>Node2&#45;&gt;Node3</title>
<path fill="none" stroke="midnightblue" d="M252.77,-58.47C244.12,-58.58 235.44,-58.69 227.14,-58.8"/>
<polygon fill="midnightblue" stroke="midnightblue" points="252.92,-61.97 262.87,-58.34 252.83,-54.97 252.92,-61.97"/>
</g>
<!-- Node4 -->
<g id="node4" class="node">
<title>Node4</title>
<g id="a_node4"><a xlink:href="../../d0/d4c/classOutLab6.html#a7f817fd9bedd2b88e683e2514d386c8c" target="_top" xlink:title="This function runs the computation.">
<polygon fill="white" stroke="black" points="0,-85 0,-104 79,-104 79,-85 0,-85"/>
<text text-anchor="middle" x="39.5" y="-92" font-family="Helvetica,sans-Serif" font-size="10.00">OutLab6::run</text>
</a>
</g>
</g>
<!-- Node3&#45;&gt;Node4 -->
<g id="edge3" class="edge">
<title>Node3&#45;&gt;Node4</title>
<path fill="none" stroke="midnightblue" d="M124.88,-71.69C108.82,-76.04 90.97,-80.86 75.84,-84.95"/>
<polygon fill="midnightblue" stroke="midnightblue" points="125.87,-75.05 134.61,-69.06 124.05,-68.29 125.87,-75.05"/>
</g>
<!-- Node5 -->
<g id="node5" class="node">
<title>Node5</title>
<g id="a_node5"><a xlink:href="../../dd/db5/classProject2.html#ae3fb99498f7859230efae48b2915a8cb" target="_top" xlink:title="This function runs the project.">
<polygon fill="white" stroke="black" points="0.5,-47 0.5,-66 78.5,-66 78.5,-47 0.5,-47"/>
<text text-anchor="middle" x="39.5" y="-54" font-family="Helvetica,sans-Serif" font-size="10.00">Project2::run</text>
</a>
</g>
</g>
<!-- Node3&#45;&gt;Node5 -->
<g id="edge4" class="edge">
<title>Node3&#45;&gt;Node5</title>
<path fill="none" stroke="midnightblue" d="M104.43,-57.98C95.65,-57.78 86.89,-57.57 78.8,-57.39"/>
<polygon fill="midnightblue" stroke="midnightblue" points="104.63,-61.49 114.7,-58.22 104.79,-54.49 104.63,-61.49"/>
</g>
<!-- Node7 -->
<g id="node7" class="node">
<title>Node7</title>
<g id="a_node7"><a xlink:href="../../d7/da1/project_2project1_2Compute_8h.html#acddcb7395a0d22a81020f268fd96918a" target="_top" xlink:title="Solves the linear system.">
<polygon fill="white" stroke="black" points="117,-0.5 117,-30.5 225,-30.5 225,-0.5 117,-0.5"/>
<text text-anchor="start" x="125" y="-18.5" font-family="Helvetica,sans-Serif" font-size="10.00">naive_solve_linear</text>
<text text-anchor="middle" x="171" y="-7.5" font-family="Helvetica,sans-Serif" font-size="10.00">_system</text>
</a>
</g>
</g>
<!-- Node6&#45;&gt;Node7 -->
<g id="edge6" class="edge">
<title>Node6&#45;&gt;Node7</title>
<path fill="none" stroke="midnightblue" d="M254.1,-17.07C244.32,-16.88 234.46,-16.69 225.14,-16.52"/>
<polygon fill="midnightblue" stroke="midnightblue" points="254.17,-20.57 264.24,-17.26 254.3,-13.57 254.17,-20.57"/>
</g>
<!-- Node8 -->
<g id="node8" class="node">
<title>Node8</title>
<g id="a_node8"><a xlink:href="../../d8/ddb/classProject1.html#ac7f0febb9852a9871ac5209b58506fb1" target="_top" xlink:title="This function runs the project.">
<polygon fill="white" stroke="black" points="0.5,-6 0.5,-25 78.5,-25 78.5,-6 0.5,-6"/>
<text text-anchor="middle" x="39.5" y="-13" font-family="Helvetica,sans-Serif" font-size="10.00">Project1::run</text>
</a>
</g>
</g>
<!-- Node7&#45;&gt;Node8 -->
<g id="edge7" class="edge">
<title>Node7&#45;&gt;Node8</title>
<path fill="none" stroke="midnightblue" d="M106.92,-15.5C97.24,-15.5 87.52,-15.5 78.6,-15.5"/>
<polygon fill="midnightblue" stroke="midnightblue" points="106.95,-19 116.95,-15.5 106.95,-12 106.95,-19"/>
</g>
</g>
</svg>
        <g id="navigator" transform="translate(0 0)" fill="#404254">
                <rect fill="#f2f5e9" fill-opacity="0.5" stroke="#606060" stroke-width=".5" x="0" y="0" width="60" height="60"/>
                <use id="zoomplus" xlink:href="#zoomPlus" x="17" y="9" onmousedown="handleZoom(evt,'in')"/>
                <use id="zoomminus" xlink:href="#zoomMin" x="42" y="9" onmousedown="handleZoom(evt,'out')"/>
                <use id="reset" xlink:href="#resetDef" x="30" y="36" onmousedown="handleReset()"/>
                <g id="arrowUp" xlink:href="#dirArrow" transform="translate(30 24)" onmousedown="handlePan(0,-1)">
                  <use xlink:href="#rim" fill="#404040">
                        <set attributeName="fill" to="#808080" begin="arrowUp.mouseover" end="arrowUp.mouseout"/>
                  </use>
                  <path fill="none" stroke="white" stroke-width="1.5" d="M0,-3.0v7 M-2.5,-0.5L0,-3.0L2.5,-0.5"/>
                </g>
                <g id="arrowRight" xlink:href="#dirArrow" transform="rotate(90) translate(36 -43)" onmousedown="handlePan(1,0)">
                  <use xlink:href="#rim" fill="#404040">
                        <set attributeName="fill" to="#808080" begin="arrowRight.mouseover" end="arrowRight.mouseout"/>
                  </use>
                  <path fill="none" stroke="white" stroke-width="1.5" d="M0,-3.0v7 M-2.5,-0.5L0,-3.0L2.5,-0.5"/>
                </g>
                <g id="arrowDown" xlink:href="#dirArrow" transform="rotate(180) translate(-30 -48)" onmousedown="handlePan(0,1)">
                  <use xlink:href="#rim" fill="#404040">
                        <set attributeName="fill" to="#808080" begin="arrowDown.mouseover" end="arrowDown.mouseout"/>
                  </use>
                  <path fill="none" stroke="white" stroke-width="1.5" d="M0,-3.0v7 M-2.5,-0.5L0,-3.0L2.5,-0.5"/>
                </g>
                <g id="arrowLeft" xlink:href="#dirArrow" transform="rotate(270) translate(-36 17)" onmousedown="handlePan(-1,0)">
                  <use xlink:href="#rim" fill="#404040">
                        <set attributeName="fill" to="#808080" begin="arrowLeft.mouseover" end="arrowLeft.mouseout"/>
                  </use>
                  <path fill="none" stroke="white" stroke-width="1.5" d="M0,-3.0v7 M-2.5,-0.5L0,-3.0L2.5,-0.5"/>
                </g>
        </g>
        <svg viewBox="0 0 15 15" width="100%" height="30px" preserveAspectRatio="xMaxYMin meet">
         <g id="arrow_out" transform="scale(0.3 0.3)">
          <a xlink:href="namespaceMyBLAS_1_1LUP_ab15d6938948c050657f9870aeec47097_icgraph_org.svg" target="_base">
           <rect id="button" ry="5" rx="5" y="6" x="6" height="38" width="38"
                fill="#f2f5e9" fill-opacity="0.5" stroke="#606060" stroke-width="1.0"/>
           <path id="arrow"
             d="M 11.500037,31.436501 C 11.940474,20.09759 22.043105,11.32322 32.158766,21.979434 L 37.068811,17.246167 C 37.068811,17.246167 37.088388,32 37.088388,32 L 22.160133,31.978069 C 22.160133,31.978069 26.997745,27.140456 26.997745,27.140456 C 18.528582,18.264221 13.291696,25.230495 11.500037,31.436501 z"
             style="fill:#404040;"/>
          </a>
         </g>
        </svg>
</svg>
