<?xml version="1.0" encoding="UTF-8" standalone="no"?>
<!DOCTYPE svg PUBLIC "-//W3C//DTD SVG 1.1//EN"
 "http://www.w3.org/Graphics/SVG/1.1/DTD/svg11.dtd">
<!-- Generated by graphviz version 2.43.0 (0)
 -->
<!-- Title: MyBLAS::Stats::min Pages: 1 -->
<svg width="795pt" height="522pt"
 viewBox="0.00 0.00 795.00 522.00" xmlns="http://www.w3.org/2000/svg" xmlns:xlink="http://www.w3.org/1999/xlink">
<g id="graph0" class="graph" transform="scale(1 1) rotate(0) translate(4 518)">
<title>MyBLAS::Stats::min</title>
<polygon fill="white" stroke="transparent" points="-4,4 -4,-518 791,-518 791,4 -4,4"/>
<!-- Node1 -->
<g id="node1" class="node">
<title>Node1</title>
<g id="a_node1"><a xlink:title="Function to find the minimum value in a vector.">
<polygon fill="#bfbfbf" stroke="black" points="674,-266.5 674,-285.5 787,-285.5 787,-266.5 674,-266.5"/>
<text text-anchor="middle" x="730.5" y="-273.5" font-family="Helvetica,sans-Serif" font-size="10.00">MyBLAS::Stats::min</text>
</a>
</g>
</g>
<!-- Node2 -->
<g id="node2" class="node">
<title>Node2</title>
<g id="a_node2"><a xlink:href="../../d2/d6e/namespaceMyBLAS.html#a5c6ac08b56fee69d079c63eda5482464" target="_top" xlink:title="Overloaded function that calculates the absolute maximum residual between two MyBLAS::Vector objects.">
<polygon fill="white" stroke="black" points="469,-494.5 469,-513.5 638,-513.5 638,-494.5 469,-494.5"/>
<text text-anchor="middle" x="553.5" y="-501.5" font-family="Helvetica,sans-Serif" font-size="10.00">MyBLAS::AbsoluteMaxResidual</text>
</a>
</g>
</g>
<!-- Node1&#45;&gt;Node2 -->
<g id="edge1" class="edge">
<title>Node1&#45;&gt;Node2</title>
<path fill="none" stroke="midnightblue" d="M726.83,-295.72C720.09,-337.47 698.4,-435.06 638,-485 633.42,-488.79 628.23,-491.86 622.73,-494.34"/>
<polygon fill="midnightblue" stroke="midnightblue" points="730.31,-296.13 728.33,-285.72 723.39,-295.09 730.31,-296.13"/>
</g>
<!-- Node3 -->
<g id="node3" class="node">
<title>Node3</title>
<g id="a_node3"><a xlink:href="../../d0/d7d/CheckBounds_8h.html#a5efba033e4e41ec3fb10dd1afacaa737" target="_top" xlink:title="Checks if the input value is within the specified range (exclusive).">
<polygon fill="white" stroke="black" points="481,-456.5 481,-475.5 626,-475.5 626,-456.5 481,-456.5"/>
<text text-anchor="middle" x="553.5" y="-463.5" font-family="Helvetica,sans-Serif" font-size="10.00">failsExclusiveRangeCheck</text>
</a>
</g>
</g>
<!-- Node1&#45;&gt;Node3 -->
<g id="edge2" class="edge">
<title>Node1&#45;&gt;Node3</title>
<path fill="none" stroke="midnightblue" d="M724.86,-295.3C715.2,-331.11 689.44,-407.77 638,-447 632.92,-450.88 627.19,-453.99 621.17,-456.48"/>
<polygon fill="midnightblue" stroke="midnightblue" points="728.26,-296.14 727.35,-285.58 721.48,-294.4 728.26,-296.14"/>
</g>
<!-- Node4 -->
<g id="node4" class="node">
<title>Node4</title>
<g id="a_node4"><a xlink:href="../../d0/d7d/CheckBounds_8h.html#a4e248d837fb993668bb741421c3d3984" target="_top" xlink:title="Checks if the input value is within the specified range (inclusive).">
<polygon fill="white" stroke="black" points="482.5,-418.5 482.5,-437.5 624.5,-437.5 624.5,-418.5 482.5,-418.5"/>
<text text-anchor="middle" x="553.5" y="-425.5" font-family="Helvetica,sans-Serif" font-size="10.00">failsInclusiveRangeCheck</text>
</a>
</g>
</g>
<!-- Node1&#45;&gt;Node4 -->
<g id="edge3" class="edge">
<title>Node1&#45;&gt;Node4</title>
<path fill="none" stroke="midnightblue" d="M721.88,-295.03C709.11,-324.33 680.56,-380.14 638,-409 632.34,-412.84 626.02,-415.91 619.45,-418.37"/>
<polygon fill="midnightblue" stroke="midnightblue" points="725.22,-296.11 725.86,-285.53 718.76,-293.4 725.22,-296.11"/>
</g>
<!-- Node6 -->
<g id="node6" class="node">
<title>Node6</title>
<g id="a_node6"><a xlink:href="../../d0/d7d/CheckBounds_8h.html#a3c1ae2e6c7c5be240c177eff0a55bdb8" target="_top" xlink:title="Checks if the input value is a positive natural number.">
<polygon fill="white" stroke="black" points="482,-380.5 482,-399.5 625,-399.5 625,-380.5 482,-380.5"/>
<text text-anchor="middle" x="553.5" y="-387.5" font-family="Helvetica,sans-Serif" font-size="10.00">failsNaturalNumberCheck</text>
</a>
</g>
</g>
<!-- Node1&#45;&gt;Node6 -->
<g id="edge5" class="edge">
<title>Node1&#45;&gt;Node6</title>
<path fill="none" stroke="midnightblue" d="M717.35,-293.91C701.64,-315.62 672.2,-351.69 638,-371 631.14,-374.87 623.54,-377.96 615.8,-380.41"/>
<polygon fill="midnightblue" stroke="midnightblue" points="720.32,-295.77 723.22,-285.57 714.6,-291.74 720.32,-295.77"/>
</g>
<!-- Node8 -->
<g id="node8" class="node">
<title>Node8</title>
<g id="a_node8"><a xlink:href="../../d0/d7d/CheckBounds_8h.html#a87b086ea6d7e595030cf6795e111ee5b" target="_top" xlink:title="Checks if the input value is a whole number.">
<polygon fill="white" stroke="black" points="485,-342.5 485,-361.5 622,-361.5 622,-342.5 485,-342.5"/>
<text text-anchor="middle" x="553.5" y="-349.5" font-family="Helvetica,sans-Serif" font-size="10.00">failsWholeNumberCheck</text>
</a>
</g>
</g>
<!-- Node1&#45;&gt;Node8 -->
<g id="edge7" class="edge">
<title>Node1&#45;&gt;Node8</title>
<path fill="none" stroke="midnightblue" d="M706.5,-291.11C688.45,-302.46 662.38,-317.74 638,-328 624.38,-333.73 608.95,-338.59 595.09,-342.41"/>
<polygon fill="midnightblue" stroke="midnightblue" points="708.61,-293.91 715.15,-285.58 704.84,-288.01 708.61,-293.91"/>
</g>
<!-- Node10 -->
<g id="node10" class="node">
<title>Node10</title>
<g id="a_node10"><a xlink:href="../../d5/dd9/labs_2inlab3_2Compute_8h.html#ac03dad33fd27f534eac0a60c2ddc8e1b" target="_top" xlink:title="This function computes the Lagrange polynomials for a given set of data points.">
<polygon fill="white" stroke="black" points="298,-304.5 298,-323.5 398,-323.5 398,-304.5 298,-304.5"/>
<text text-anchor="middle" x="348" y="-311.5" font-family="Helvetica,sans-Serif" font-size="10.00">fillLagrangePolys</text>
</a>
</g>
</g>
<!-- Node1&#45;&gt;Node10 -->
<g id="edge9" class="edge">
<title>Node1&#45;&gt;Node10</title>
<path fill="none" stroke="midnightblue" d="M679.6,-287.67C666.16,-290.46 651.58,-293.15 638,-295 554.17,-306.4 455.7,-311.02 398.04,-312.85"/>
<polygon fill="midnightblue" stroke="midnightblue" points="680.57,-291.04 689.62,-285.54 679.11,-284.2 680.57,-291.04"/>
</g>
<!-- Node11 -->
<g id="node11" class="node">
<title>Node11</title>
<g id="a_node11"><a xlink:href="../../d6/d03/namespaceRandom.html#a26c3caf157a29ac9d9227ec40248c845" target="_top" xlink:title="Generates a vector of random numbers.">
<polygon fill="white" stroke="black" points="500,-228.5 500,-247.5 607,-247.5 607,-228.5 500,-228.5"/>
<text text-anchor="middle" x="553.5" y="-235.5" font-family="Helvetica,sans-Serif" font-size="10.00">Random::generate</text>
</a>
</g>
</g>
<!-- Node1&#45;&gt;Node11 -->
<g id="edge10" class="edge">
<title>Node1&#45;&gt;Node11</title>
<path fill="none" stroke="midnightblue" d="M675.38,-264.25C650.63,-258.87 621.7,-252.59 598.34,-247.52"/>
<polygon fill="midnightblue" stroke="midnightblue" points="674.83,-267.71 685.34,-266.41 676.31,-260.87 674.83,-267.71"/>
</g>
<!-- Node15 -->
<g id="node15" class="node">
<title>Node15</title>
<g id="a_node15"><a xlink:href="../../db/df1/Helpers_8h.html#a1e95f5da95a0e7c0b5d568c5400f4f30" target="_top" xlink:title="Generates a vector of 256&#45;bit ANSI gray shades.">
<polygon fill="white" stroke="black" points="112,-152.5 112,-171.5 227,-171.5 227,-152.5 112,-152.5"/>
<text text-anchor="middle" x="169.5" y="-159.5" font-family="Helvetica,sans-Serif" font-size="10.00">getGrays256bitANSI</text>
</a>
</g>
</g>
<!-- Node1&#45;&gt;Node15 -->
<g id="edge18" class="edge">
<title>Node1&#45;&gt;Node15</title>
<path fill="none" stroke="midnightblue" d="M709.15,-260.19C691.35,-247.15 664.3,-229.21 638,-219 497.75,-164.57 317.6,-158.94 227.36,-160.07"/>
<polygon fill="midnightblue" stroke="midnightblue" points="707.46,-263.3 717.56,-266.49 711.66,-257.69 707.46,-263.3"/>
</g>
<!-- Node16 -->
<g id="node16" class="node">
<title>Node16</title>
<g id="a_node16"><a xlink:href="../../db/df1/Helpers_8h.html#ae8d5abc9a487df9eaa8058819e252d0f" target="_top" xlink:title="Prints the Julia set to the console using the specified canvas properties.">
<polygon fill="white" stroke="black" points="0,-133.5 0,-152.5 76,-152.5 76,-133.5 0,-133.5"/>
<text text-anchor="middle" x="38" y="-140.5" font-family="Helvetica,sans-Serif" font-size="10.00">printJuliaSet</text>
</a>
</g>
</g>
<!-- Node1&#45;&gt;Node16 -->
<g id="edge23" class="edge">
<title>Node1&#45;&gt;Node16</title>
<path fill="none" stroke="midnightblue" d="M719.57,-257.46C705.22,-232.79 676.19,-190.09 638,-171 445.94,-75 174.54,-115.51 76.31,-134.88"/>
<polygon fill="midnightblue" stroke="midnightblue" points="716.54,-259.22 724.49,-266.23 722.65,-255.8 716.54,-259.22"/>
</g>
<!-- Node18 -->
<g id="node18" class="node">
<title>Node18</title>
<g id="a_node18"><a xlink:href="../../d5/dd9/labs_2inlab3_2Compute_8h.html#acdc0d38a8eab5e0ce55013897c68a43c" target="_top" xlink:title="Computes the Lagrange polynomial for a given interpolation point xi.">
<polygon fill="white" stroke="black" points="504.5,-266.5 504.5,-285.5 602.5,-285.5 602.5,-266.5 504.5,-266.5"/>
<text text-anchor="middle" x="553.5" y="-273.5" font-family="Helvetica,sans-Serif" font-size="10.00">getLagrangePoly</text>
</a>
</g>
</g>
<!-- Node1&#45;&gt;Node18 -->
<g id="edge19" class="edge">
<title>Node1&#45;&gt;Node18</title>
<path fill="none" stroke="midnightblue" d="M663.57,-276C643.38,-276 621.55,-276 602.76,-276"/>
<polygon fill="midnightblue" stroke="midnightblue" points="663.65,-279.5 673.65,-276 663.65,-272.5 663.65,-279.5"/>
</g>
<!-- Node19 -->
<g id="node19" class="node">
<title>Node19</title>
<g id="a_node19"><a xlink:href="../../d2/d6e/namespaceMyBLAS.html#a4a13a3c077ee693c0297e4c68cbcc521" target="_top" xlink:title=" ">
<polygon fill="white" stroke="black" points="516.5,-76.5 516.5,-95.5 590.5,-95.5 590.5,-76.5 516.5,-76.5"/>
<text text-anchor="middle" x="553.5" y="-83.5" font-family="Helvetica,sans-Serif" font-size="10.00">MyBLAS::L2</text>
</a>
</g>
</g>
<!-- Node1&#45;&gt;Node19 -->
<g id="edge21" class="edge">
<title>Node1&#45;&gt;Node19</title>
<path fill="none" stroke="midnightblue" d="M724.2,-256.58C713.71,-221.85 686.97,-149.08 638,-110 624.56,-99.28 606.53,-93.34 590.67,-90.06"/>
<polygon fill="midnightblue" stroke="midnightblue" points="720.91,-257.79 727.04,-266.43 727.63,-255.85 720.91,-257.79"/>
</g>
<!-- Node20 -->
<g id="node20" class="node">
<title>Node20</title>
<g id="a_node20"><a xlink:href="../../d2/d6e/namespaceMyBLAS.html#a919dcf7bd5292e4ded12f438f9cd2cd0" target="_top" xlink:title="Overloaded function that calculates the L2 norm (Euclidean distance) between two MyBLAS::Vector objec...">
<polygon fill="white" stroke="black" points="503,-38.5 503,-57.5 604,-57.5 604,-38.5 503,-38.5"/>
<text text-anchor="middle" x="553.5" y="-45.5" font-family="Helvetica,sans-Serif" font-size="10.00">MyBLAS::L2Norm</text>
</a>
</g>
</g>
<!-- Node1&#45;&gt;Node20 -->
<g id="edge22" class="edge">
<title>Node1&#45;&gt;Node20</title>
<path fill="none" stroke="midnightblue" d="M726.83,-256.28C720.09,-214.53 698.4,-116.94 638,-67 628.49,-59.14 616.37,-54.37 604.33,-51.53"/>
<polygon fill="midnightblue" stroke="midnightblue" points="723.39,-256.91 728.33,-266.28 730.31,-255.87 723.39,-256.91"/>
</g>
<!-- Node21 -->
<g id="node21" class="node">
<title>Node21</title>
<g id="a_node21"><a xlink:href="../../dd/d0e/classProfiler.html#a95b1ecdcfc06dedbd33127208aaceec6" target="_top" xlink:title="Summarizes the results of the profiling.">
<polygon fill="white" stroke="black" points="497.5,-0.5 497.5,-19.5 609.5,-19.5 609.5,-0.5 497.5,-0.5"/>
<text text-anchor="middle" x="553.5" y="-7.5" font-family="Helvetica,sans-Serif" font-size="10.00">Profiler::summarize</text>
</a>
</g>
</g>
<!-- Node1&#45;&gt;Node21 -->
<g id="edge24" class="edge">
<title>Node1&#45;&gt;Node21</title>
<path fill="none" stroke="midnightblue" d="M728.32,-256.34C724.4,-209.4 707.72,-90.14 638,-29 630.06,-22.04 620.11,-17.48 609.86,-14.52"/>
<polygon fill="midnightblue" stroke="midnightblue" points="724.84,-256.68 729.05,-266.4 731.82,-256.18 724.84,-256.68"/>
</g>
<!-- Node5 -->
<g id="node5" class="node">
<title>Node5</title>
<g id="a_node5"><a xlink:href="../../d0/d7d/CheckBounds_8h.html#ab3e279562a8015a00f3befa5394b1d99" target="_top" xlink:title="Checks if the input value is a valid probability (between 0 and 1 inclusive).">
<polygon fill="white" stroke="black" points="288,-441.5 288,-460.5 408,-460.5 408,-441.5 288,-441.5"/>
<text text-anchor="middle" x="348" y="-448.5" font-family="Helvetica,sans-Serif" font-size="10.00">failsProbabilityCheck</text>
</a>
</g>
</g>
<!-- Node4&#45;&gt;Node5 -->
<g id="edge4" class="edge">
<title>Node4&#45;&gt;Node5</title>
<path fill="none" stroke="midnightblue" d="M472.43,-437.05C451.06,-439.46 428.36,-442.03 408.33,-444.29"/>
<polygon fill="midnightblue" stroke="midnightblue" points="472.92,-440.52 482.47,-435.92 472.14,-433.56 472.92,-440.52"/>
</g>
<!-- Node7 -->
<g id="node7" class="node">
<title>Node7</title>
<g id="a_node7"><a xlink:href="../../d0/d40/classParser.html#ab198abe8fec39f369ea744358666859c" target="_top" xlink:title="Performs input checks on the input variables.">
<polygon fill="white" stroke="black" points="263,-392 263,-422 433,-422 433,-392 263,-392"/>
<text text-anchor="start" x="271" y="-410" font-family="Helvetica,sans-Serif" font-size="10.00">Parser::performInputArguments</text>
<text text-anchor="middle" x="348" y="-399" font-family="Helvetica,sans-Serif" font-size="10.00">Check</text>
</a>
</g>
</g>
<!-- Node6&#45;&gt;Node7 -->
<g id="edge6" class="edge">
<title>Node6&#45;&gt;Node7</title>
<path fill="none" stroke="midnightblue" d="M471.81,-396.74C459.1,-397.8 445.92,-398.9 433.13,-399.97"/>
<polygon fill="midnightblue" stroke="midnightblue" points="472.22,-400.22 481.9,-395.9 471.64,-393.24 472.22,-400.22"/>
</g>
<!-- Node9 -->
<g id="node9" class="node">
<title>Node9</title>
<g id="a_node9"><a xlink:href="../../d0/d40/classParser.html#a3369e669d9e28c85a3397e7bc95d2518" target="_top" xlink:title="This function performs checks on the input parameters and prompts the user to enter valid inputs if t...">
<polygon fill="white" stroke="black" points="263,-343 263,-373 433,-373 433,-343 263,-343"/>
<text text-anchor="start" x="271" y="-361" font-family="Helvetica,sans-Serif" font-size="10.00">Parser::performInputArguments</text>
<text text-anchor="middle" x="348" y="-350" font-family="Helvetica,sans-Serif" font-size="10.00">Check</text>
</a>
</g>
</g>
<!-- Node8&#45;&gt;Node9 -->
<g id="edge8" class="edge">
<title>Node8&#45;&gt;Node9</title>
<path fill="none" stroke="midnightblue" d="M474.51,-354.3C460.97,-354.7 446.82,-355.12 433.12,-355.52"/>
<polygon fill="midnightblue" stroke="midnightblue" points="474.84,-357.79 484.74,-354 474.64,-350.79 474.84,-357.79"/>
</g>
<!-- Node12 -->
<g id="node12" class="node">
<title>Node12</title>
<g id="a_node12"><a xlink:href="../../d0/d40/classParser.html#a123dc1be35999de898396ade606098f6" target="_top" xlink:title="Builds the input matrices for the MyBLAS library from a JSON file.">
<polygon fill="white" stroke="black" points="116,-247.5 116,-266.5 223,-266.5 223,-247.5 116,-247.5"/>
<text text-anchor="middle" x="169.5" y="-254.5" font-family="Helvetica,sans-Serif" font-size="10.00">Parser::buildInputs</text>
</a>
</g>
</g>
<!-- Node11&#45;&gt;Node12 -->
<g id="edge11" class="edge">
<title>Node11&#45;&gt;Node12</title>
<path fill="none" stroke="midnightblue" d="M493.99,-249.19C474.65,-252.38 452.97,-255.42 433,-257 360.42,-262.73 276.21,-261.31 223.14,-259.43"/>
<polygon fill="midnightblue" stroke="midnightblue" points="494.6,-252.64 503.87,-247.51 493.42,-245.74 494.6,-252.64"/>
</g>
<!-- Node13 -->
<g id="node13" class="node">
<title>Node13</title>
<g id="a_node13"><a xlink:href="../../d5/d7a/namespaceMyBLAS_1_1System.html#a487070ac751d33afa7f9fceaef312ea0" target="_top" xlink:title="This function generates a circuit with random resistances and currents, and computes the correspondin...">
<polygon fill="white" stroke="black" points="279.5,-228.5 279.5,-247.5 416.5,-247.5 416.5,-228.5 279.5,-228.5"/>
<text text-anchor="middle" x="348" y="-235.5" font-family="Helvetica,sans-Serif" font-size="10.00">MyBLAS::System::Circuit</text>
</a>
</g>
</g>
<!-- Node11&#45;&gt;Node13 -->
<g id="edge12" class="edge">
<title>Node11&#45;&gt;Node13</title>
<path fill="none" stroke="midnightblue" d="M489.79,-238C466.67,-238 440.37,-238 416.82,-238"/>
<polygon fill="midnightblue" stroke="midnightblue" points="489.83,-241.5 499.83,-238 489.83,-234.5 489.83,-241.5"/>
</g>
<!-- Node14 -->
<g id="node14" class="node">
<title>Node14</title>
<g id="a_node14"><a xlink:href="../../db/df1/Helpers_8h.html#adbb387f590a9aee9c19ca2752ec93a12" target="_top" xlink:title="This function fills a vector with evenly spaced values between a start and end value.">
<polygon fill="white" stroke="black" points="311,-190.5 311,-209.5 385,-209.5 385,-190.5 311,-190.5"/>
<text text-anchor="middle" x="348" y="-197.5" font-family="Helvetica,sans-Serif" font-size="10.00">fill_linspace</text>
</a>
</g>
</g>
<!-- Node11&#45;&gt;Node14 -->
<g id="edge14" class="edge">
<title>Node11&#45;&gt;Node14</title>
<path fill="none" stroke="midnightblue" d="M491.38,-226.59C456.69,-220.11 414.46,-212.22 385.04,-206.73"/>
<polygon fill="midnightblue" stroke="midnightblue" points="490.94,-230.06 501.41,-228.46 492.22,-223.18 490.94,-230.06"/>
</g>
<!-- Node13&#45;&gt;Node12 -->
<g id="edge13" class="edge">
<title>Node13&#45;&gt;Node12</title>
<path fill="none" stroke="midnightblue" d="M269.15,-246.38C253.64,-248.05 237.69,-249.77 223.25,-251.32"/>
<polygon fill="midnightblue" stroke="midnightblue" points="269.7,-249.84 279.27,-245.29 268.95,-242.88 269.7,-249.84"/>
</g>
<!-- Node14&#45;&gt;Node15 -->
<g id="edge15" class="edge">
<title>Node14&#45;&gt;Node15</title>
<path fill="none" stroke="midnightblue" d="M301.01,-190.1C274.39,-184.37 241.05,-177.19 214.73,-171.52"/>
<polygon fill="midnightblue" stroke="midnightblue" points="300.34,-193.54 310.86,-192.22 301.82,-186.69 300.34,-193.54"/>
</g>
<!-- Node17 -->
<g id="node17" class="node">
<title>Node17</title>
<g id="a_node17"><a xlink:href="../../d4/d63/classInLab2.html#aa21d4fafce339dc04b7171830300cb02" target="_top" xlink:title="This function is responsible for the main logic of the program.">
<polygon fill="white" stroke="black" points="134,-190.5 134,-209.5 205,-209.5 205,-190.5 134,-190.5"/>
<text text-anchor="middle" x="169.5" y="-197.5" font-family="Helvetica,sans-Serif" font-size="10.00">InLab2::run</text>
</a>
</g>
</g>
<!-- Node14&#45;&gt;Node17 -->
<g id="edge17" class="edge">
<title>Node14&#45;&gt;Node17</title>
<path fill="none" stroke="midnightblue" d="M300.65,-200C270.7,-200 232.38,-200 205.09,-200"/>
<polygon fill="midnightblue" stroke="midnightblue" points="300.86,-203.5 310.86,-200 300.86,-196.5 300.86,-203.5"/>
</g>
<!-- Node15&#45;&gt;Node16 -->
<g id="edge16" class="edge">
<title>Node15&#45;&gt;Node16</title>
<path fill="none" stroke="midnightblue" d="M101.73,-152.2C92.88,-150.91 84.09,-149.62 76.01,-148.43"/>
<polygon fill="midnightblue" stroke="midnightblue" points="101.3,-155.68 111.7,-153.67 102.31,-148.75 101.3,-155.68"/>
</g>
<!-- Node18&#45;&gt;Node10 -->
<g id="edge20" class="edge">
<title>Node18&#45;&gt;Node10</title>
<path fill="none" stroke="midnightblue" d="M494.25,-286.88C463.91,-292.54 427.21,-299.4 398.29,-304.8"/>
<polygon fill="midnightblue" stroke="midnightblue" points="495.09,-290.28 504.27,-285.01 493.8,-283.4 495.09,-290.28"/>
</g>
<!-- Node22 -->
<g id="node22" class="node">
<title>Node22</title>
<g id="a_node22"><a xlink:href="../../dd/d0e/classProfiler.html#a3079911f79afc765205a92c66c971b65" target="_top" xlink:title="Runs the function for profiling and summarizes the results.">
<polygon fill="white" stroke="black" points="311.5,-0.5 311.5,-19.5 384.5,-19.5 384.5,-0.5 311.5,-0.5"/>
<text text-anchor="middle" x="348" y="-7.5" font-family="Helvetica,sans-Serif" font-size="10.00">Profiler::run</text>
</a>
</g>
</g>
<!-- Node21&#45;&gt;Node22 -->
<g id="edge25" class="edge">
<title>Node21&#45;&gt;Node22</title>
<path fill="none" stroke="midnightblue" d="M487.09,-10C453.07,-10 412.81,-10 384.56,-10"/>
<polygon fill="midnightblue" stroke="midnightblue" points="487.43,-13.5 497.43,-10 487.43,-6.5 487.43,-13.5"/>
</g>
</g>
</svg>
