<?xml version="1.0" encoding="UTF-8" standalone="no"?>
<!DOCTYPE svg PUBLIC "-//W3C//DTD SVG 1.1//EN"
 "http://www.w3.org/Graphics/SVG/1.1/DTD/svg11.dtd">
<!-- Generated by graphviz version 2.43.0 (0)
 -->
<!-- Title: MyBLAS::Stats::max Pages: 1 -->
<!--zoomable 999 -->
<svg id="main" version="1.1" xmlns="http://www.w3.org/2000/svg" xmlns:xlink="http://www.w3.org/1999/xlink" xml:space="preserve" onload="init(evt)">
<style type="text/css"><![CDATA[
.edge:hover path { stroke: red; }
.edge:hover polygon { stroke: red; fill: red; }
]]></style>
<script type="text/javascript"><![CDATA[
var edges = document.getElementsByTagName('g');
if (edges && edges.length) {
  for (var i=0;i<edges.length;i++) {
    if (edges[i].id.substr(0,4)=='edge') {
      edges[i].setAttribute('class','edge');
    }
  }
}
]]></script>
        <defs>
                <circle id="rim" cx="0" cy="0" r="7"/>
                <circle id="rim2" cx="0" cy="0" r="3.5"/>
                <g id="zoomPlus">
                        <use xlink:href="#rim" fill="#404040">
                                <set attributeName="fill" to="#808080" begin="zoomplus.mouseover" end="zoomplus.mouseout"/>
                        </use>
                        <path d="M-4,0h8M0,-4v8" fill="none" stroke="white" stroke-width="1.5" pointer-events="none"/>
                </g>
                <g id="zoomMin">
                        <use xlink:href="#rim" fill="#404040">
                                <set attributeName="fill" to="#808080" begin="zoomminus.mouseover" end="zoomminus.mouseout"/>
                        </use>
                        <path d="M-4,0h8" fill="none" stroke="white" stroke-width="1.5" pointer-events="none"/>
                </g>
                <g id="dirArrow">
                        <path fill="none" stroke="white" stroke-width="1.5" d="M0,-3.0v7 M-2.5,-0.5L0,-3.0L2.5,-0.5"/>
                </g>
               <g id="resetDef">
                       <use xlink:href="#rim2" fill="#404040">
                               <set attributeName="fill" to="#808080" begin="reset.mouseover" end="reset.mouseout"/>
                       </use>
               </g>
        </defs>

<script type="text/javascript">
var viewWidth = 703;
var viewHeight = 999;
var sectionId = 'dynsection-4';
</script>
<script xlink:href="../../svgpan.js"/>
<svg id="graph" class="graph">
<g id="viewport">
<title>MyBLAS::Stats::max</title>
<polygon fill="white" stroke="transparent" points="-4,4 -4,-995 699,-995 699,4 -4,4"/>
<!-- Node1 -->
<g id="node1" class="node">
<title>Node1</title>
<g id="a_node1"><a xlink:title="Function to find the maximum value in a vector.">
<polygon fill="#bfbfbf" stroke="black" points="579,-430.5 579,-449.5 695,-449.5 695,-430.5 579,-430.5"/>
<text text-anchor="middle" x="637" y="-437.5" font-family="Helvetica,sans-Serif" font-size="10.00">MyBLAS::Stats::max</text>
</a>
</g>
</g>
<!-- Node2 -->
<g id="node2" class="node">
<title>Node2</title>
<g id="a_node2"><a xlink:href="../../d2/d6e/namespaceMyBLAS.html#ad38fb7c86134c4334e6bf29c2c734afd" target="_top" xlink:title="Calculates the absolute maximum residual between two containers.">
<polygon fill="white" stroke="black" points="374,-971.5 374,-990.5 543,-990.5 543,-971.5 374,-971.5"/>
<text text-anchor="middle" x="458.5" y="-978.5" font-family="Helvetica,sans-Serif" font-size="10.00">MyBLAS::AbsoluteMaxResidual</text>
</a>
</g>
</g>
<!-- Node1&#45;&gt;Node2 -->
<g id="edge1" class="edge">
<title>Node1&#45;&gt;Node2</title>
<path fill="none" stroke="midnightblue" d="M635.3,-459.81C631.87,-546.02 613.91,-887.64 543,-962 539.41,-965.77 535.24,-968.86 530.72,-971.39"/>
<polygon fill="midnightblue" stroke="midnightblue" points="638.81,-459.71 635.69,-449.59 631.82,-459.45 638.81,-459.71"/>
</g>
<!-- Node3 -->
<g id="node3" class="node">
<title>Node3</title>
<g id="a_node3"><a xlink:href="../../d0/d7d/CheckBounds_8h.html#abce8de40b5bce1a6097233d800370ffd" target="_top" xlink:title="Checks if the absolute value of the input is greater than or equal to 1.">
<polygon fill="white" stroke="black" points="386.5,-922 386.5,-952 530.5,-952 530.5,-922 386.5,-922"/>
<text text-anchor="start" x="394.5" y="-940" font-family="Helvetica,sans-Serif" font-size="10.00">absoluteValueFailsGreater</text>
<text text-anchor="middle" x="458.5" y="-929" font-family="Helvetica,sans-Serif" font-size="10.00">Than1Check</text>
</a>
</g>
</g>
<!-- Node1&#45;&gt;Node3 -->
<g id="edge2" class="edge">
<title>Node1&#45;&gt;Node3</title>
<path fill="none" stroke="midnightblue" d="M634.78,-460.15C629.43,-541.52 605.56,-844.83 543,-913 539.43,-916.89 535.28,-920.16 530.76,-922.92"/>
<polygon fill="midnightblue" stroke="midnightblue" points="638.29,-460.01 635.43,-449.81 631.31,-459.56 638.29,-460.01"/>
</g>
<!-- Node5 -->
<g id="node5" class="node">
<title>Node5</title>
<g id="a_node5"><a xlink:href="../../d7/d9a/namespaceMyRelaxationMethod.html#afdf5008e9dbe2c5d17070d2dbfb89ebd" target="_top" xlink:title=" ">
<polygon fill="white" stroke="black" points="388,-873 388,-903 529,-903 529,-873 388,-873"/>
<text text-anchor="start" x="396" y="-891" font-family="Helvetica,sans-Serif" font-size="10.00">MyRelaxationMethod</text>
<text text-anchor="middle" x="458.5" y="-880" font-family="Helvetica,sans-Serif" font-size="10.00">::applyConjugateGradient</text>
</a>
</g>
</g>
<!-- Node1&#45;&gt;Node5 -->
<g id="edge4" class="edge">
<title>Node1&#45;&gt;Node5</title>
<path fill="none" stroke="midnightblue" d="M634.27,-459.92C627.31,-535.4 599.07,-802.59 543,-863 538.99,-867.33 534.26,-870.91 529.12,-873.89"/>
<polygon fill="midnightblue" stroke="midnightblue" points="637.76,-460.14 635.17,-449.86 630.79,-459.51 637.76,-460.14"/>
</g>
<!-- Node10 -->
<g id="node10" class="node">
<title>Node10</title>
<g id="a_node10"><a xlink:href="../../d7/d9a/namespaceMyRelaxationMethod.html#a07f78fcc6936244f91d36a1bb05aef0c" target="_top" xlink:title=" ">
<polygon fill="white" stroke="black" points="382.5,-812.5 382.5,-853.5 534.5,-853.5 534.5,-812.5 382.5,-812.5"/>
<text text-anchor="start" x="390.5" y="-841.5" font-family="Helvetica,sans-Serif" font-size="10.00">MyRelaxationMethod</text>
<text text-anchor="start" x="390.5" y="-830.5" font-family="Helvetica,sans-Serif" font-size="10.00">::applyJacobiPreconditioned</text>
<text text-anchor="middle" x="458.5" y="-819.5" font-family="Helvetica,sans-Serif" font-size="10.00">ConjugateGradient</text>
</a>
</g>
</g>
<!-- Node1&#45;&gt;Node10 -->
<g id="edge9" class="edge">
<title>Node1&#45;&gt;Node10</title>
<path fill="none" stroke="midnightblue" d="M633.36,-460.01C623.99,-528.33 590.29,-751.04 543,-803 539.79,-806.53 536.13,-809.65 532.18,-812.4"/>
<polygon fill="midnightblue" stroke="midnightblue" points="636.88,-460.14 634.74,-449.76 629.94,-459.21 636.88,-460.14"/>
</g>
<!-- Node12 -->
<g id="node12" class="node">
<title>Node12</title>
<g id="a_node12"><a xlink:href="../../d7/d9a/namespaceMyRelaxationMethod.html#ac76943650285426073d6d4965cbb6834" target="_top" xlink:title=" ">
<polygon fill="white" stroke="black" points="398,-763 398,-793 519,-793 519,-763 398,-763"/>
<text text-anchor="start" x="406" y="-781" font-family="Helvetica,sans-Serif" font-size="10.00">MyRelaxationMethod</text>
<text text-anchor="middle" x="458.5" y="-770" font-family="Helvetica,sans-Serif" font-size="10.00">::applyP2SOR</text>
</a>
</g>
</g>
<!-- Node1&#45;&gt;Node12 -->
<g id="edge12" class="edge">
<title>Node1&#45;&gt;Node12</title>
<path fill="none" stroke="midnightblue" d="M636.28,-459.67C635.93,-514.5 627.22,-670.45 543,-754 536.36,-760.59 528.04,-765.39 519.24,-768.89"/>
<polygon fill="midnightblue" stroke="midnightblue" points="639.78,-459.56 636.25,-449.57 632.78,-459.58 639.78,-459.56"/>
</g>
<!-- Node13 -->
<g id="node13" class="node">
<title>Node13</title>
<g id="a_node13"><a xlink:href="../../d7/d9a/namespaceMyRelaxationMethod.html#a37b1fd2ee5b2724d52808f9490c1c5a8" target="_top" xlink:title="This function applies the Point Jacobi method to solve a system of linear equations.">
<polygon fill="white" stroke="black" points="398,-714 398,-744 519,-744 519,-714 398,-714"/>
<text text-anchor="start" x="406" y="-732" font-family="Helvetica,sans-Serif" font-size="10.00">MyRelaxationMethod</text>
<text text-anchor="middle" x="458.5" y="-721" font-family="Helvetica,sans-Serif" font-size="10.00">::applyPointJacobi</text>
</a>
</g>
</g>
<!-- Node1&#45;&gt;Node13 -->
<g id="edge13" class="edge">
<title>Node1&#45;&gt;Node13</title>
<path fill="none" stroke="midnightblue" d="M635.01,-459.81C631.46,-508.82 615.38,-636.68 543,-705 536.31,-711.32 528.07,-715.98 519.39,-719.43"/>
<polygon fill="midnightblue" stroke="midnightblue" points="638.51,-459.81 635.64,-449.62 631.53,-459.38 638.51,-459.81"/>
</g>
<!-- Node22 -->
<g id="node22" class="node">
<title>Node22</title>
<g id="a_node22"><a xlink:href="../../d7/d9a/namespaceMyRelaxationMethod.html#a243ad9b544328fb7b499b467e67ddd9c" target="_top" xlink:title=" ">
<polygon fill="white" stroke="black" points="398,-616 398,-646 519,-646 519,-616 398,-616"/>
<text text-anchor="start" x="406" y="-634" font-family="Helvetica,sans-Serif" font-size="10.00">MyRelaxationMethod</text>
<text text-anchor="middle" x="458.5" y="-623" font-family="Helvetica,sans-Serif" font-size="10.00">::applyPSOR</text>
</a>
</g>
</g>
<!-- Node1&#45;&gt;Node22 -->
<g id="edge25" class="edge">
<title>Node1&#45;&gt;Node22</title>
<path fill="none" stroke="midnightblue" d="M630.55,-459.54C619.8,-494.48 592.47,-567.7 543,-607 536.03,-612.54 527.84,-616.79 519.36,-620.07"/>
<polygon fill="midnightblue" stroke="midnightblue" points="634.01,-460.21 633.47,-449.63 627.29,-458.23 634.01,-460.21"/>
</g>
<!-- Node23 -->
<g id="node23" class="node">
<title>Node23</title>
<g id="a_node23"><a xlink:href="../../d7/d9a/namespaceMyRelaxationMethod.html#a8b6c4702b1a4d0420694761b497512c4" target="_top" xlink:title=" ">
<polygon fill="white" stroke="black" points="398,-567 398,-597 519,-597 519,-567 398,-567"/>
<text text-anchor="start" x="406" y="-585" font-family="Helvetica,sans-Serif" font-size="10.00">MyRelaxationMethod</text>
<text text-anchor="middle" x="458.5" y="-574" font-family="Helvetica,sans-Serif" font-size="10.00">::applySOR</text>
</a>
</g>
</g>
<!-- Node1&#45;&gt;Node23 -->
<g id="edge26" class="edge">
<title>Node1&#45;&gt;Node23</title>
<path fill="none" stroke="midnightblue" d="M626.37,-458.49C611.82,-484.58 581.78,-531.94 543,-558 535.74,-562.88 527.48,-566.78 519.05,-569.89"/>
<polygon fill="midnightblue" stroke="midnightblue" points="629.49,-460.07 631.17,-449.61 623.33,-456.74 629.49,-460.07"/>
</g>
<!-- Node26 -->
<g id="node26" class="node">
<title>Node26</title>
<g id="a_node26"><a xlink:href="../../d7/d9a/namespaceMyRelaxationMethod.html#ae0d661fe726935eb50716fa26511e640" target="_top" xlink:title=" ">
<polygon fill="white" stroke="black" points="392,-518 392,-548 525,-548 525,-518 392,-518"/>
<text text-anchor="start" x="400" y="-536" font-family="Helvetica,sans-Serif" font-size="10.00">MyRelaxationMethod</text>
<text text-anchor="middle" x="458.5" y="-525" font-family="Helvetica,sans-Serif" font-size="10.00">::applySORBlockParallel</text>
</a>
</g>
</g>
<!-- Node1&#45;&gt;Node26 -->
<g id="edge29" class="edge">
<title>Node1&#45;&gt;Node26</title>
<path fill="none" stroke="midnightblue" d="M617.82,-456.62C599.96,-472.15 571.34,-494.99 543,-509 536.24,-512.34 528.93,-515.29 521.56,-517.88"/>
<polygon fill="midnightblue" stroke="midnightblue" points="620.51,-458.91 625.67,-449.66 615.87,-453.67 620.51,-458.91"/>
</g>
<!-- Node28 -->
<g id="node28" class="node">
<title>Node28</title>
<g id="a_node28"><a xlink:href="../../d7/d9a/namespaceMyRelaxationMethod.html#aa22486c856620523255787ef5bdb1f64" target="_top" xlink:title="This function applies the Successive Over&#45;Relaxation (SOR) method to solve a system of linear equatio...">
<polygon fill="white" stroke="black" points="398,-469 398,-499 519,-499 519,-469 398,-469"/>
<text text-anchor="start" x="406" y="-487" font-family="Helvetica,sans-Serif" font-size="10.00">MyRelaxationMethod</text>
<text text-anchor="middle" x="458.5" y="-476" font-family="Helvetica,sans-Serif" font-size="10.00">::applySORSerial</text>
</a>
</g>
</g>
<!-- Node1&#45;&gt;Node28 -->
<g id="edge31" class="edge">
<title>Node1&#45;&gt;Node28</title>
<path fill="none" stroke="midnightblue" d="M587.95,-451.98C566.76,-457.26 541.63,-463.53 519.24,-469.11"/>
<polygon fill="midnightblue" stroke="midnightblue" points="588.85,-455.36 597.7,-449.55 587.15,-448.57 588.85,-455.36"/>
</g>
<!-- Node29 -->
<g id="node29" class="node">
<title>Node29</title>
<g id="a_node29"><a xlink:href="../../d7/d9a/namespaceMyRelaxationMethod.html#ac37edae4aec371352810b2f552647be4" target="_top" xlink:title="Applies the Symmetric Successive Over&#45;Relaxation (SSOR) method to solve a system of linear equations.">
<polygon fill="white" stroke="black" points="398,-665 398,-695 519,-695 519,-665 398,-665"/>
<text text-anchor="start" x="406" y="-683" font-family="Helvetica,sans-Serif" font-size="10.00">MyRelaxationMethod</text>
<text text-anchor="middle" x="458.5" y="-672" font-family="Helvetica,sans-Serif" font-size="10.00">::applySSOR</text>
</a>
</g>
</g>
<!-- Node1&#45;&gt;Node29 -->
<g id="edge32" class="edge">
<title>Node1&#45;&gt;Node29</title>
<path fill="none" stroke="midnightblue" d="M633.21,-459.83C626.19,-502.29 603.75,-602.49 543,-656 536.1,-662.08 527.74,-666.63 519.02,-670.02"/>
<polygon fill="midnightblue" stroke="midnightblue" points="636.68,-460.32 634.75,-449.9 629.76,-459.25 636.68,-460.32"/>
</g>
<!-- Node32 -->
<g id="node32" class="node">
<title>Node32</title>
<g id="a_node32"><a xlink:href="../../d0/d7d/CheckBounds_8h.html#a5efba033e4e41ec3fb10dd1afacaa737" target="_top" xlink:title="Checks if the input value is within the specified range (exclusive).">
<polygon fill="white" stroke="black" points="386,-430.5 386,-449.5 531,-449.5 531,-430.5 386,-430.5"/>
<text text-anchor="middle" x="458.5" y="-437.5" font-family="Helvetica,sans-Serif" font-size="10.00">failsExclusiveRangeCheck</text>
</a>
</g>
</g>
<!-- Node1&#45;&gt;Node32 -->
<g id="edge36" class="edge">
<title>Node1&#45;&gt;Node32</title>
<path fill="none" stroke="midnightblue" d="M568.54,-440C556.27,-440 543.43,-440 531.04,-440"/>
<polygon fill="midnightblue" stroke="midnightblue" points="568.7,-443.5 578.7,-440 568.7,-436.5 568.7,-443.5"/>
</g>
<!-- Node33 -->
<g id="node33" class="node">
<title>Node33</title>
<g id="a_node33"><a xlink:href="../../d0/d7d/CheckBounds_8h.html#a4e248d837fb993668bb741421c3d3984" target="_top" xlink:title="Checks if the input value is within the specified range (inclusive).">
<polygon fill="white" stroke="black" points="387.5,-392.5 387.5,-411.5 529.5,-411.5 529.5,-392.5 387.5,-392.5"/>
<text text-anchor="middle" x="458.5" y="-399.5" font-family="Helvetica,sans-Serif" font-size="10.00">failsInclusiveRangeCheck</text>
</a>
</g>
</g>
<!-- Node1&#45;&gt;Node33 -->
<g id="edge37" class="edge">
<title>Node1&#45;&gt;Node33</title>
<path fill="none" stroke="midnightblue" d="M581.41,-428.25C556.46,-422.87 527.27,-416.59 503.72,-411.52"/>
<polygon fill="midnightblue" stroke="midnightblue" points="580.95,-431.73 591.46,-430.41 582.42,-424.88 580.95,-431.73"/>
</g>
<!-- Node35 -->
<g id="node35" class="node">
<title>Node35</title>
<g id="a_node35"><a xlink:href="../../d6/d03/namespaceRandom.html#a88f2675485a8bfa20122c4037e296a7c" target="_top" xlink:title="Generates a LazyVector of random numbers.">
<polygon fill="white" stroke="black" points="392.5,-343 392.5,-373 524.5,-373 524.5,-343 392.5,-343"/>
<text text-anchor="start" x="400.5" y="-361" font-family="Helvetica,sans-Serif" font-size="10.00">Random::generate_lazy</text>
<text text-anchor="middle" x="458.5" y="-350" font-family="Helvetica,sans-Serif" font-size="10.00">_vector</text>
</a>
</g>
</g>
<!-- Node1&#45;&gt;Node35 -->
<g id="edge39" class="edge">
<title>Node1&#45;&gt;Node35</title>
<path fill="none" stroke="midnightblue" d="M614.54,-424.62C596.23,-412.06 568.85,-394.56 543,-383 534.71,-379.29 525.72,-375.95 516.81,-373.01"/>
<polygon fill="midnightblue" stroke="midnightblue" points="612.54,-427.5 622.75,-430.34 616.54,-421.75 612.54,-427.5"/>
</g>
<!-- Node36 -->
<g id="node36" class="node">
<title>Node36</title>
<g id="a_node36"><a xlink:href="../../d6/d03/namespaceRandom.html#a4895ec4a961ca014f3a4e1499f95cc8e" target="_top" xlink:title="Generates a matrix of random numbers.">
<polygon fill="white" stroke="black" points="386.5,-304.5 386.5,-323.5 530.5,-323.5 530.5,-304.5 386.5,-304.5"/>
<text text-anchor="middle" x="458.5" y="-311.5" font-family="Helvetica,sans-Serif" font-size="10.00">Random::generate_matrix</text>
</a>
</g>
</g>
<!-- Node1&#45;&gt;Node36 -->
<g id="edge40" class="edge">
<title>Node1&#45;&gt;Node36</title>
<path fill="none" stroke="midnightblue" d="M625.16,-421.81C609.91,-397.86 579.83,-356.22 543,-334 535.72,-329.61 527.55,-326.18 519.24,-323.51"/>
<polygon fill="midnightblue" stroke="midnightblue" points="622.19,-423.66 630.43,-430.32 628.14,-419.97 622.19,-423.66"/>
</g>
<!-- Node39 -->
<g id="node39" class="node">
<title>Node39</title>
<g id="a_node39"><a xlink:href="../../d6/d03/namespaceRandom.html#a42a383e1f730a29e940034ddb9faac9e" target="_top" xlink:title="Generates a single random number.">
<polygon fill="white" stroke="black" points="393.5,-190.5 393.5,-209.5 523.5,-209.5 523.5,-190.5 393.5,-190.5"/>
<text text-anchor="middle" x="458.5" y="-197.5" font-family="Helvetica,sans-Serif" font-size="10.00">Random::generate_one</text>
</a>
</g>
</g>
<!-- Node1&#45;&gt;Node39 -->
<g id="edge43" class="edge">
<title>Node1&#45;&gt;Node39</title>
<path fill="none" stroke="midnightblue" d="M633.68,-420.06C627.5,-376.46 606.52,-272.3 543,-219 537.31,-214.22 530.65,-210.59 523.63,-207.83"/>
<polygon fill="midnightblue" stroke="midnightblue" points="630.24,-420.75 635,-430.22 637.18,-419.85 630.24,-420.75"/>
</g>
<!-- Node40 -->
<g id="node40" class="node">
<title>Node40</title>
<g id="a_node40"><a xlink:href="../../d6/d03/namespaceRandom.html#adfa5e70492a249fd39898582a640e5fb" target="_top" xlink:title="Generates a vector of random numbers.">
<polygon fill="white" stroke="black" points="387,-266.5 387,-285.5 530,-285.5 530,-266.5 387,-266.5"/>
<text text-anchor="middle" x="458.5" y="-273.5" font-family="Helvetica,sans-Serif" font-size="10.00">Random::generate_vector</text>
</a>
</g>
</g>
<!-- Node1&#45;&gt;Node40 -->
<g id="edge44" class="edge">
<title>Node1&#45;&gt;Node40</title>
<path fill="none" stroke="midnightblue" d="M629.17,-420.61C617.01,-389.07 588.54,-326.97 543,-295 537.52,-291.16 531.39,-288.08 525.01,-285.61"/>
<polygon fill="midnightblue" stroke="midnightblue" points="626.03,-422.23 632.79,-430.39 632.6,-419.8 626.03,-422.23"/>
</g>
<!-- Node41 -->
<g id="node41" class="node">
<title>Node41</title>
<g id="a_node41"><a xlink:href="../../db/df1/Helpers_8h.html#af7d8b88f59520866f00472b1f134adad" target="_top" xlink:title="Generates a vector of 256&#45;bit ANSI gray shades.">
<polygon fill="white" stroke="black" points="401,-152.5 401,-171.5 516,-171.5 516,-152.5 401,-152.5"/>
<text text-anchor="middle" x="458.5" y="-159.5" font-family="Helvetica,sans-Serif" font-size="10.00">getGrays256bitANSI</text>
</a>
</g>
</g>
<!-- Node1&#45;&gt;Node41 -->
<g id="edge46" class="edge">
<title>Node1&#45;&gt;Node41</title>
<path fill="none" stroke="midnightblue" d="M635.08,-420.38C631.72,-371.89 616.01,-245.67 543,-181 535.43,-174.3 525.99,-169.81 516.21,-166.85"/>
<polygon fill="midnightblue" stroke="midnightblue" points="631.6,-420.69 635.68,-430.47 638.58,-420.28 631.6,-420.69"/>
</g>
<!-- Node42 -->
<g id="node42" class="node">
<title>Node42</title>
<g id="a_node42"><a xlink:href="../../db/df1/Helpers_8h.html#ae8d5abc9a487df9eaa8058819e252d0f" target="_top" xlink:title="Prints the Julia set to the console using the specified canvas properties.">
<polygon fill="white" stroke="black" points="202.5,-133.5 202.5,-152.5 278.5,-152.5 278.5,-133.5 202.5,-133.5"/>
<text text-anchor="middle" x="240.5" y="-140.5" font-family="Helvetica,sans-Serif" font-size="10.00">printJuliaSet</text>
</a>
</g>
</g>
<!-- Node1&#45;&gt;Node42 -->
<g id="edge50" class="edge">
<title>Node1&#45;&gt;Node42</title>
<path fill="none" stroke="midnightblue" d="M632.84,-419.97C622.74,-358.88 589.22,-176.96 543,-143 459.69,-81.79 325.48,-115.02 268.49,-133.41"/>
<polygon fill="midnightblue" stroke="midnightblue" points="629.44,-420.9 634.49,-430.21 636.35,-419.78 629.44,-420.9"/>
</g>
<!-- Node43 -->
<g id="node43" class="node">
<title>Node43</title>
<g id="a_node43"><a xlink:href="../../d2/d6e/namespaceMyBLAS.html#acb783ecb31d72a117d2e37878395bc54" target="_top" xlink:title="Makes the given matrix positive&#45;definite.">
<polygon fill="white" stroke="black" points="375,-228.5 375,-247.5 542,-247.5 542,-228.5 375,-228.5"/>
<text text-anchor="middle" x="458.5" y="-235.5" font-family="Helvetica,sans-Serif" font-size="10.00">MyBLAS::makePositiveDefinite</text>
</a>
</g>
</g>
<!-- Node1&#45;&gt;Node43 -->
<g id="edge48" class="edge">
<title>Node1&#45;&gt;Node43</title>
<path fill="none" stroke="midnightblue" d="M631.85,-420.4C622.78,-382.57 597.49,-299.48 543,-257 538.08,-253.16 532.52,-250.07 526.67,-247.59"/>
<polygon fill="midnightblue" stroke="midnightblue" points="628.45,-421.22 634.08,-430.2 635.28,-419.67 628.45,-421.22"/>
</g>
<!-- Node44 -->
<g id="node44" class="node">
<title>Node44</title>
<g id="a_node44"><a xlink:href="../../dd/d0e/classProfiler.html#a95b1ecdcfc06dedbd33127208aaceec6" target="_top" xlink:title="Summarizes the results of the profiling.">
<polygon fill="white" stroke="black" points="402.5,-76.5 402.5,-95.5 514.5,-95.5 514.5,-76.5 402.5,-76.5"/>
<text text-anchor="middle" x="458.5" y="-83.5" font-family="Helvetica,sans-Serif" font-size="10.00">Profiler::summarize</text>
</a>
</g>
</g>
<!-- Node1&#45;&gt;Node44 -->
<g id="edge51" class="edge">
<title>Node1&#45;&gt;Node44</title>
<path fill="none" stroke="midnightblue" d="M636.61,-420.09C637.24,-363.22 630.97,-198.43 543,-110 535.23,-102.19 525.11,-96.89 514.6,-93.29"/>
<polygon fill="midnightblue" stroke="midnightblue" points="633.11,-420.18 636.41,-430.25 640.11,-420.32 633.11,-420.18"/>
</g>
<!-- Node46 -->
<g id="node46" class="node">
<title>Node46</title>
<g id="a_node46"><a xlink:href="../../d2/d6e/namespaceMyBLAS.html#acd8a0bff6ba6c4bf17f6129fc3ee90f3" target="_top" xlink:title=" ">
<polygon fill="white" stroke="black" points="409.5,-38.5 409.5,-57.5 507.5,-57.5 507.5,-38.5 409.5,-38.5"/>
<text text-anchor="middle" x="458.5" y="-45.5" font-family="Helvetica,sans-Serif" font-size="10.00">MyBLAS::TEST_F</text>
</a>
</g>
</g>
<!-- Node1&#45;&gt;Node46 -->
<g id="edge53" class="edge">
<title>Node1&#45;&gt;Node46</title>
<path fill="none" stroke="midnightblue" d="M633.78,-420.12C625.56,-350.28 594.71,-117.65 543,-67 533.55,-57.74 520.58,-52.62 507.67,-49.89"/>
<polygon fill="midnightblue" stroke="midnightblue" points="630.32,-420.68 634.94,-430.21 637.27,-419.88 630.32,-420.68"/>
</g>
<!-- Node47 -->
<g id="node47" class="node">
<title>Node47</title>
<g id="a_node47"><a xlink:href="../../d2/d6e/namespaceMyBLAS.html#afcfc582cfa678d5dfc6ba8bed8a8859a" target="_top" xlink:title=" ">
<polygon fill="white" stroke="black" points="396.5,-0.5 396.5,-19.5 520.5,-19.5 520.5,-0.5 396.5,-0.5"/>
<text text-anchor="middle" x="458.5" y="-7.5" font-family="Helvetica,sans-Serif" font-size="10.00">MyBLAS::TYPED_TEST</text>
</a>
</g>
</g>
<!-- Node1&#45;&gt;Node47 -->
<g id="edge54" class="edge">
<title>Node1&#45;&gt;Node47</title>
<path fill="none" stroke="midnightblue" d="M634.26,-420.07C627.37,-345.68 599.56,-85.63 543,-29 536.8,-22.79 529.02,-18.44 520.73,-15.41"/>
<polygon fill="midnightblue" stroke="midnightblue" points="630.81,-420.71 635.19,-430.35 637.78,-420.08 630.81,-420.71"/>
</g>
<!-- Node4 -->
<g id="node4" class="node">
<title>Node4</title>
<g id="a_node4"><a xlink:href="../../d0/d40/classParser.html#ab198abe8fec39f369ea744358666859c" target="_top" xlink:title="Performs input checks on the input variables.">
<polygon fill="white" stroke="black" points="155.5,-944 155.5,-974 325.5,-974 325.5,-944 155.5,-944"/>
<text text-anchor="start" x="163.5" y="-962" font-family="Helvetica,sans-Serif" font-size="10.00">Parser::performInputArguments</text>
<text text-anchor="middle" x="240.5" y="-951" font-family="Helvetica,sans-Serif" font-size="10.00">Check</text>
</a>
</g>
</g>
<!-- Node3&#45;&gt;Node4 -->
<g id="edge3" class="edge">
<title>Node3&#45;&gt;Node4</title>
<path fill="none" stroke="midnightblue" d="M376.31,-945.27C359.78,-946.95 342.35,-948.73 325.72,-950.42"/>
<polygon fill="midnightblue" stroke="midnightblue" points="376.88,-948.73 386.47,-944.23 376.17,-941.77 376.88,-948.73"/>
</g>
<!-- Node6 -->
<g id="node6" class="node">
<title>Node6</title>
<g id="a_node6"><a xlink:href="../../df/dfd/OutLab10Tests_8cpp.html#a151f7c7b9d80ddcf53ecd6bcbf489b2f" target="_top" xlink:title="Test for the Conjugate Gradient method.">
<polygon fill="white" stroke="black" points="202,-867.5 202,-886.5 279,-886.5 279,-867.5 202,-867.5"/>
<text text-anchor="middle" x="240.5" y="-874.5" font-family="Helvetica,sans-Serif" font-size="10.00">TYPED_TEST</text>
</a>
</g>
</g>
<!-- Node5&#45;&gt;Node6 -->
<g id="edge5" class="edge">
<title>Node5&#45;&gt;Node6</title>
<path fill="none" stroke="midnightblue" d="M377.65,-883.93C343.93,-882.22 306.28,-880.3 279.13,-878.92"/>
<polygon fill="midnightblue" stroke="midnightblue" points="377.8,-887.45 387.97,-884.46 378.16,-880.45 377.8,-887.45"/>
</g>
<!-- Node7 -->
<g id="node7" class="node">
<title>Node7</title>
<g id="a_node7"><a xlink:href="../../de/db3/namespaceCompute.html#a5d54d7de8122db0ae702574aad696aa2" target="_top" xlink:title=" ">
<polygon fill="white" stroke="black" points="148,-905.5 148,-924.5 333,-924.5 333,-905.5 148,-905.5"/>
<text text-anchor="middle" x="240.5" y="-912.5" font-family="Helvetica,sans-Serif" font-size="10.00">Compute::usingConjugateGradient</text>
</a>
</g>
</g>
<!-- Node5&#45;&gt;Node7 -->
<g id="edge6" class="edge">
<title>Node5&#45;&gt;Node7</title>
<path fill="none" stroke="midnightblue" d="M377.82,-897.96C358.15,-900.42 337.13,-903.05 317.63,-905.48"/>
<polygon fill="midnightblue" stroke="midnightblue" points="378.48,-901.4 387.97,-896.69 377.61,-894.46 378.48,-901.4"/>
</g>
<!-- Node8 -->
<g id="node8" class="node">
<title>Node8</title>
<g id="a_node8"><a xlink:href="../../d9/d24/classInLab11.html#a30776f8ccefd65f2a3c76c129927cca1" target="_top" xlink:title="This function is used to perform the main computation.">
<polygon fill="white" stroke="black" points="15,-869.5 15,-888.5 92,-888.5 92,-869.5 15,-869.5"/>
<text text-anchor="middle" x="53.5" y="-876.5" font-family="Helvetica,sans-Serif" font-size="10.00">InLab11::run</text>
</a>
</g>
</g>
<!-- Node7&#45;&gt;Node8 -->
<g id="edge7" class="edge">
<title>Node7&#45;&gt;Node8</title>
<path fill="none" stroke="midnightblue" d="M180.4,-903.5C151.44,-897.86 117.44,-891.25 92.08,-886.31"/>
<polygon fill="midnightblue" stroke="midnightblue" points="179.92,-906.97 190.41,-905.45 181.26,-900.1 179.92,-906.97"/>
</g>
<!-- Node9 -->
<g id="node9" class="node">
<title>Node9</title>
<g id="a_node9"><a xlink:href="../../d7/d1f/classOutLab10.html#a7b70a96347bc6131b594841c796a0329" target="_top" xlink:title="This function is used to perform the main computation.">
<polygon fill="white" stroke="black" points="11,-907.5 11,-926.5 96,-926.5 96,-907.5 11,-907.5"/>
<text text-anchor="middle" x="53.5" y="-914.5" font-family="Helvetica,sans-Serif" font-size="10.00">OutLab10::run</text>
</a>
</g>
</g>
<!-- Node7&#45;&gt;Node9 -->
<g id="edge8" class="edge">
<title>Node7&#45;&gt;Node9</title>
<path fill="none" stroke="midnightblue" d="M137.71,-916.1C123.16,-916.26 108.91,-916.41 96.44,-916.55"/>
<polygon fill="midnightblue" stroke="midnightblue" points="137.85,-919.6 147.81,-915.99 137.78,-912.6 137.85,-919.6"/>
</g>
<!-- Node11 -->
<g id="node11" class="node">
<title>Node11</title>
<g id="a_node11"><a xlink:href="../../de/db3/namespaceCompute.html#a0bc80d5f5c36614a84a3bdd877bc04da" target="_top" xlink:title=" ">
<polygon fill="white" stroke="black" points="143,-818 143,-848 338,-848 338,-818 143,-818"/>
<text text-anchor="start" x="151" y="-836" font-family="Helvetica,sans-Serif" font-size="10.00">Compute::usingJacobiPreconditioned</text>
<text text-anchor="middle" x="240.5" y="-825" font-family="Helvetica,sans-Serif" font-size="10.00">ConjugateGradient</text>
</a>
</g>
</g>
<!-- Node10&#45;&gt;Node11 -->
<g id="edge10" class="edge">
<title>Node10&#45;&gt;Node11</title>
<path fill="none" stroke="midnightblue" d="M372.12,-833C360.96,-833 349.46,-833 338.13,-833"/>
<polygon fill="midnightblue" stroke="midnightblue" points="372.26,-836.5 382.26,-833 372.26,-829.5 372.26,-836.5"/>
</g>
<!-- Node11&#45;&gt;Node8 -->
<g id="edge11" class="edge">
<title>Node11&#45;&gt;Node8</title>
<path fill="none" stroke="midnightblue" d="M169.06,-850.51C142.95,-857.01 114.36,-864.12 92.27,-869.61"/>
<polygon fill="midnightblue" stroke="midnightblue" points="170.06,-853.87 178.92,-848.06 168.37,-847.08 170.06,-853.87"/>
</g>
<!-- Node14 -->
<g id="node14" class="node">
<title>Node14</title>
<g id="a_node14"><a xlink:href="../../de/db3/namespaceCompute.html#a3b30a49d004f8370d19cd13f6492ddba" target="_top" xlink:title="Solves a linear system using the Jacobi SOR method.">
<polygon fill="white" stroke="black" points="169,-717.5 169,-736.5 312,-736.5 312,-717.5 169,-717.5"/>
<text text-anchor="middle" x="240.5" y="-724.5" font-family="Helvetica,sans-Serif" font-size="10.00">Compute::usingJacobiSOR</text>
</a>
</g>
</g>
<!-- Node13&#45;&gt;Node14 -->
<g id="edge14" class="edge">
<title>Node13&#45;&gt;Node14</title>
<path fill="none" stroke="midnightblue" d="M387.72,-728.35C363.48,-728.13 336.3,-727.88 312.01,-727.65"/>
<polygon fill="midnightblue" stroke="midnightblue" points="387.87,-731.86 397.91,-728.45 387.94,-724.86 387.87,-731.86"/>
</g>
<!-- Node18 -->
<g id="node18" class="node">
<title>Node18</title>
<g id="a_node18"><a xlink:href="../../de/db3/namespaceCompute.html#a0aa73a107ee5ea0767e15b7caddeecc7" target="_top" xlink:title="This method applies the Point Jacobi relaxation method to the given input matrices.">
<polygon fill="white" stroke="black" points="167,-755.5 167,-774.5 314,-774.5 314,-755.5 167,-755.5"/>
<text text-anchor="middle" x="240.5" y="-762.5" font-family="Helvetica,sans-Serif" font-size="10.00">Compute::usingPointJacobi</text>
</a>
</g>
</g>
<!-- Node13&#45;&gt;Node18 -->
<g id="edge18" class="edge">
<title>Node13&#45;&gt;Node18</title>
<path fill="none" stroke="midnightblue" d="M387.9,-740.6C359.07,-745.4 326.05,-750.91 298.67,-755.47"/>
<polygon fill="midnightblue" stroke="midnightblue" points="388.62,-744.03 397.91,-738.93 387.47,-737.12 388.62,-744.03"/>
</g>
<!-- Node15 -->
<g id="node15" class="node">
<title>Node15</title>
<g id="a_node15"><a xlink:href="../../d0/d4c/classOutLab6.html#a901a1283fd029c9174f8469ac5cb3ad8" target="_top" xlink:title="This function runs the computation.">
<polygon fill="white" stroke="black" points="14,-679.5 14,-698.5 93,-698.5 93,-679.5 14,-679.5"/>
<text text-anchor="middle" x="53.5" y="-686.5" font-family="Helvetica,sans-Serif" font-size="10.00">OutLab6::run</text>
</a>
</g>
</g>
<!-- Node14&#45;&gt;Node15 -->
<g id="edge15" class="edge">
<title>Node14&#45;&gt;Node15</title>
<path fill="none" stroke="midnightblue" d="M180.2,-715.49C167.9,-713.06 155.02,-710.47 143,-708 126.68,-704.64 108.71,-700.81 93.24,-697.47"/>
<polygon fill="midnightblue" stroke="midnightblue" points="179.89,-719 190.38,-717.5 181.24,-712.13 179.89,-719"/>
</g>
<!-- Node16 -->
<g id="node16" class="node">
<title>Node16</title>
<g id="a_node16"><a xlink:href="../../dd/db5/classProject2.html#a0990db917f6a27a4e1cb9ac885698524" target="_top" xlink:title="This function runs the project.">
<polygon fill="white" stroke="black" points="14.5,-717.5 14.5,-736.5 92.5,-736.5 92.5,-717.5 14.5,-717.5"/>
<text text-anchor="middle" x="53.5" y="-724.5" font-family="Helvetica,sans-Serif" font-size="10.00">Project2::run</text>
</a>
</g>
</g>
<!-- Node14&#45;&gt;Node16 -->
<g id="edge16" class="edge">
<title>Node14&#45;&gt;Node16</title>
<path fill="none" stroke="midnightblue" d="M158.65,-727C135.66,-727 111.7,-727 92.57,-727"/>
<polygon fill="midnightblue" stroke="midnightblue" points="158.77,-730.5 168.77,-727 158.77,-723.5 158.77,-730.5"/>
</g>
<!-- Node17 -->
<g id="node17" class="node">
<title>Node17</title>
<g id="a_node17"><a xlink:href="../../dd/dfb/classProject3.html#a8bcff99aaba60e7d5e5be3cb7552d163" target="_top" xlink:title="This function runs the project.">
<polygon fill="white" stroke="black" points="14.5,-641.5 14.5,-660.5 92.5,-660.5 92.5,-641.5 14.5,-641.5"/>
<text text-anchor="middle" x="53.5" y="-648.5" font-family="Helvetica,sans-Serif" font-size="10.00">Project3::run</text>
</a>
</g>
</g>
<!-- Node14&#45;&gt;Node17 -->
<g id="edge17" class="edge">
<title>Node14&#45;&gt;Node17</title>
<path fill="none" stroke="midnightblue" d="M159.26,-715.28C153.61,-713.23 148.13,-710.82 143,-708 122.62,-696.78 126.46,-682.75 107,-670 101.24,-666.23 94.64,-663.09 88.11,-660.52"/>
<polygon fill="midnightblue" stroke="midnightblue" points="158.31,-718.65 168.9,-718.42 160.47,-712 158.31,-718.65"/>
</g>
<!-- Node18&#45;&gt;Node15 -->
<g id="edge20" class="edge">
<title>Node18&#45;&gt;Node15</title>
<path fill="none" stroke="midnightblue" d="M157.24,-752.53C152.3,-750.65 147.51,-748.48 143,-746 122.62,-734.78 126.46,-720.75 107,-708 101.24,-704.23 94.64,-701.09 88.11,-698.52"/>
<polygon fill="midnightblue" stroke="midnightblue" points="156.29,-755.9 166.88,-755.82 158.54,-749.28 156.29,-755.9"/>
</g>
<!-- Node18&#45;&gt;Node16 -->
<g id="edge21" class="edge">
<title>Node18&#45;&gt;Node16</title>
<path fill="none" stroke="midnightblue" d="M180.2,-753.49C167.9,-751.06 155.02,-748.47 143,-746 126.53,-742.61 108.37,-738.74 92.8,-735.37"/>
<polygon fill="midnightblue" stroke="midnightblue" points="179.89,-757 190.38,-755.5 181.24,-750.13 179.89,-757"/>
</g>
<!-- Node18&#45;&gt;Node17 -->
<g id="edge22" class="edge">
<title>Node18&#45;&gt;Node17</title>
<path fill="none" stroke="midnightblue" d="M157.28,-754.64C152.2,-752.26 147.38,-749.41 143,-746 113.51,-723.04 134.66,-695.14 107,-670 102.77,-666.15 97.7,-663.07 92.4,-660.6"/>
<polygon fill="midnightblue" stroke="midnightblue" points="156.09,-757.93 166.68,-758.42 158.71,-751.44 156.09,-757.93"/>
</g>
<!-- Node19 -->
<g id="node19" class="node">
<title>Node19</title>
<g id="a_node19"><a xlink:href="../../d1/d8c/classInLab6.html#a55667f27b7ba522dd4288f18d16c9f8d" target="_top" xlink:title="This function runs the project.">
<polygon fill="white" stroke="black" points="18,-755.5 18,-774.5 89,-774.5 89,-755.5 18,-755.5"/>
<text text-anchor="middle" x="53.5" y="-762.5" font-family="Helvetica,sans-Serif" font-size="10.00">InLab6::run</text>
</a>
</g>
</g>
<!-- Node18&#45;&gt;Node19 -->
<g id="edge19" class="edge">
<title>Node18&#45;&gt;Node19</title>
<path fill="none" stroke="midnightblue" d="M156.8,-765C133.04,-765 108.4,-765 89.26,-765"/>
<polygon fill="midnightblue" stroke="midnightblue" points="156.91,-768.5 166.91,-765 156.91,-761.5 156.91,-768.5"/>
</g>
<!-- Node20 -->
<g id="node20" class="node">
<title>Node20</title>
<g id="a_node20"><a xlink:href="../../d2/dfd/classProject4.html#a3779e87d22c7d4949f3c01bae1d08ab9" target="_top" xlink:title="This function runs the project.">
<polygon fill="white" stroke="black" points="14.5,-831.5 14.5,-850.5 92.5,-850.5 92.5,-831.5 14.5,-831.5"/>
<text text-anchor="middle" x="53.5" y="-838.5" font-family="Helvetica,sans-Serif" font-size="10.00">Project4::run</text>
</a>
</g>
</g>
<!-- Node18&#45;&gt;Node20 -->
<g id="edge23" class="edge">
<title>Node18&#45;&gt;Node20</title>
<path fill="none" stroke="midnightblue" d="M208.87,-778.78C182.16,-790.66 142.26,-808.05 107,-822 98.89,-825.21 89.99,-828.51 81.86,-831.44"/>
<polygon fill="midnightblue" stroke="midnightblue" points="210.38,-781.94 218.09,-774.67 207.53,-775.55 210.38,-781.94"/>
</g>
<!-- Node21 -->
<g id="node21" class="node">
<title>Node21</title>
<g id="a_node21"><a xlink:href="../../d5/dd8/classProject5.html#ad0d283fb148505600a22fbfef054c177" target="_top" xlink:title="This function runs the project.">
<polygon fill="white" stroke="black" points="14.5,-793.5 14.5,-812.5 92.5,-812.5 92.5,-793.5 14.5,-793.5"/>
<text text-anchor="middle" x="53.5" y="-800.5" font-family="Helvetica,sans-Serif" font-size="10.00">Project5::run</text>
</a>
</g>
</g>
<!-- Node18&#45;&gt;Node21 -->
<g id="edge24" class="edge">
<title>Node18&#45;&gt;Node21</title>
<path fill="none" stroke="midnightblue" d="M182.75,-776.66C153.55,-782.65 118.74,-789.81 92.75,-795.14"/>
<polygon fill="midnightblue" stroke="midnightblue" points="183.73,-780.03 192.82,-774.59 182.32,-773.17 183.73,-780.03"/>
</g>
<!-- Node24 -->
<g id="node24" class="node">
<title>Node24</title>
<g id="a_node24"><a xlink:href="../../de/db3/namespaceCompute.html#a017b511b9ab24d2388a864d6cb14c1cc" target="_top" xlink:title="Solves a linear system using the Gauss&#45;Seidel method.">
<polygon fill="white" stroke="black" points="164,-553.5 164,-572.5 317,-572.5 317,-553.5 164,-553.5"/>
<text text-anchor="middle" x="240.5" y="-560.5" font-family="Helvetica,sans-Serif" font-size="10.00">Compute::usingGaussSeidel</text>
</a>
</g>
</g>
<!-- Node23&#45;&gt;Node24 -->
<g id="edge27" class="edge">
<title>Node23&#45;&gt;Node24</title>
<path fill="none" stroke="midnightblue" d="M387.74,-575.86C365.19,-573.88 340.09,-571.67 317.13,-569.65"/>
<polygon fill="midnightblue" stroke="midnightblue" points="387.64,-579.37 397.91,-576.76 388.25,-572.39 387.64,-579.37"/>
</g>
<!-- Node25 -->
<g id="node25" class="node">
<title>Node25</title>
<g id="a_node25"><a xlink:href="../../de/db3/namespaceCompute.html#acc65d891a271875002feed91306902d0" target="_top" xlink:title="Solves a linear system using the Successive Over&#45;Relaxation (SOR) method.">
<polygon fill="white" stroke="black" points="184,-591.5 184,-610.5 297,-610.5 297,-591.5 184,-591.5"/>
<text text-anchor="middle" x="240.5" y="-598.5" font-family="Helvetica,sans-Serif" font-size="10.00">Compute::usingSOR</text>
</a>
</g>
</g>
<!-- Node23&#45;&gt;Node25 -->
<g id="edge28" class="edge">
<title>Node23&#45;&gt;Node25</title>
<path fill="none" stroke="midnightblue" d="M387.73,-588.14C358.43,-590.71 324.8,-593.67 297.19,-596.1"/>
<polygon fill="midnightblue" stroke="midnightblue" points="388.25,-591.61 397.91,-587.24 387.64,-584.63 388.25,-591.61"/>
</g>
<!-- Node27 -->
<g id="node27" class="node">
<title>Node27</title>
<g id="a_node27"><a xlink:href="../../de/db3/namespaceCompute.html#a38a211087e8692a3768fbabed21d4a0c" target="_top" xlink:title="Solves a linear system using the Gauss&#45;Seidel method.">
<polygon fill="white" stroke="black" points="164,-515.5 164,-534.5 317,-534.5 317,-515.5 164,-515.5"/>
<text text-anchor="middle" x="240.5" y="-522.5" font-family="Helvetica,sans-Serif" font-size="10.00">Compute::usingGaussSeidel</text>
</a>
</g>
</g>
<!-- Node26&#45;&gt;Node27 -->
<g id="edge30" class="edge">
<title>Node26&#45;&gt;Node27</title>
<path fill="none" stroke="midnightblue" d="M381.69,-530.19C360.75,-529.42 338.03,-528.58 317.09,-527.8"/>
<polygon fill="midnightblue" stroke="midnightblue" points="381.69,-533.69 391.81,-530.57 381.95,-526.7 381.69,-533.69"/>
</g>
<!-- Node30 -->
<g id="node30" class="node">
<title>Node30</title>
<g id="a_node30"><a xlink:href="../../de/db3/namespaceCompute.html#af9b2fed99d9965f94cb5cfab410419a0" target="_top" xlink:title="Solves a linear system using the Symmetric Gauss&#45;Seidel method.">
<polygon fill="white" stroke="black" points="152.5,-630 152.5,-660 328.5,-660 328.5,-630 152.5,-630"/>
<text text-anchor="start" x="160.5" y="-648" font-family="Helvetica,sans-Serif" font-size="10.00">Compute::usingSymmetricGauss</text>
<text text-anchor="middle" x="240.5" y="-637" font-family="Helvetica,sans-Serif" font-size="10.00">Seidel</text>
</a>
</g>
</g>
<!-- Node29&#45;&gt;Node30 -->
<g id="edge33" class="edge">
<title>Node29&#45;&gt;Node30</title>
<path fill="none" stroke="midnightblue" d="M387.94,-668.73C369.11,-665.68 348.48,-662.33 328.8,-659.15"/>
<polygon fill="midnightblue" stroke="midnightblue" points="387.47,-672.2 397.91,-670.34 388.59,-665.29 387.47,-672.2"/>
</g>
<!-- Node31 -->
<g id="node31" class="node">
<title>Node31</title>
<g id="a_node31"><a xlink:href="../../de/db3/namespaceCompute.html#ab38c6016d5c4907c1f4f468600278560" target="_top" xlink:title="Solves a linear system using the Symmetric SOR method.">
<polygon fill="white" stroke="black" points="157,-679.5 157,-698.5 324,-698.5 324,-679.5 157,-679.5"/>
<text text-anchor="middle" x="240.5" y="-686.5" font-family="Helvetica,sans-Serif" font-size="10.00">Compute::usingSymmetricSOR</text>
</a>
</g>
</g>
<!-- Node29&#45;&gt;Node31 -->
<g id="edge35" class="edge">
<title>Node29&#45;&gt;Node31</title>
<path fill="none" stroke="midnightblue" d="M387.84,-682.9C367.6,-683.75 345.3,-684.67 324.34,-685.55"/>
<polygon fill="midnightblue" stroke="midnightblue" points="388.06,-686.4 397.91,-682.48 387.77,-679.4 388.06,-686.4"/>
</g>
<!-- Node30&#45;&gt;Node17 -->
<g id="edge34" class="edge">
<title>Node30&#45;&gt;Node17</title>
<path fill="none" stroke="midnightblue" d="M142.07,-648.16C124.52,-648.73 107.2,-649.29 92.66,-649.76"/>
<polygon fill="midnightblue" stroke="midnightblue" points="142.54,-651.65 152.42,-647.82 142.31,-644.65 142.54,-651.65"/>
</g>
<!-- Node34 -->
<g id="node34" class="node">
<title>Node34</title>
<g id="a_node34"><a xlink:href="../../d0/d7d/CheckBounds_8h.html#ab3e279562a8015a00f3befa5394b1d99" target="_top" xlink:title="Checks if the input value is a valid probability (between 0 and 1 inclusive).">
<polygon fill="white" stroke="black" points="180.5,-392.5 180.5,-411.5 300.5,-411.5 300.5,-392.5 180.5,-392.5"/>
<text text-anchor="middle" x="240.5" y="-399.5" font-family="Helvetica,sans-Serif" font-size="10.00">failsProbabilityCheck</text>
</a>
</g>
</g>
<!-- Node33&#45;&gt;Node34 -->
<g id="edge38" class="edge">
<title>Node33&#45;&gt;Node34</title>
<path fill="none" stroke="midnightblue" d="M377.06,-402C351.77,-402 324.32,-402 300.78,-402"/>
<polygon fill="midnightblue" stroke="midnightblue" points="377.37,-405.5 387.37,-402 377.37,-398.5 377.37,-405.5"/>
</g>
<!-- Node37 -->
<g id="node37" class="node">
<title>Node37</title>
<g id="a_node37"><a xlink:href="../../d5/d7a/namespaceMyBLAS_1_1System.html#a487070ac751d33afa7f9fceaef312ea0" target="_top" xlink:title="This function generates a circuit with random resistances and currents, and computes the correspondin...">
<polygon fill="white" stroke="black" points="172,-266.5 172,-285.5 309,-285.5 309,-266.5 172,-266.5"/>
<text text-anchor="middle" x="240.5" y="-273.5" font-family="Helvetica,sans-Serif" font-size="10.00">MyBLAS::System::Circuit</text>
</a>
</g>
</g>
<!-- Node36&#45;&gt;Node37 -->
<g id="edge41" class="edge">
<title>Node36&#45;&gt;Node37</title>
<path fill="none" stroke="midnightblue" d="M393.41,-302.72C362.33,-297.26 325.41,-290.76 295.75,-285.54"/>
<polygon fill="midnightblue" stroke="midnightblue" points="392.82,-306.17 403.27,-304.46 394.03,-299.28 392.82,-306.17"/>
</g>
<!-- Node38 -->
<g id="node38" class="node">
<title>Node38</title>
<g id="a_node38"><a xlink:href="../../d0/d40/classParser.html#a0f22924483b9f3b33ef7f3fb1edf9ff1" target="_top" xlink:title="Builds the inputs.">
<polygon fill="white" stroke="black" points="0,-266.5 0,-285.5 107,-285.5 107,-266.5 0,-266.5"/>
<text text-anchor="middle" x="53.5" y="-273.5" font-family="Helvetica,sans-Serif" font-size="10.00">Parser::buildInputs</text>
</a>
</g>
</g>
<!-- Node37&#45;&gt;Node38 -->
<g id="edge42" class="edge">
<title>Node37&#45;&gt;Node38</title>
<path fill="none" stroke="midnightblue" d="M161.79,-276C143.36,-276 124.13,-276 107.12,-276"/>
<polygon fill="midnightblue" stroke="midnightblue" points="161.93,-279.5 171.93,-276 161.93,-272.5 161.93,-279.5"/>
</g>
<!-- Node40&#45;&gt;Node37 -->
<g id="edge45" class="edge">
<title>Node40&#45;&gt;Node37</title>
<path fill="none" stroke="midnightblue" d="M376.68,-276C354.42,-276 330.51,-276 309.08,-276"/>
<polygon fill="midnightblue" stroke="midnightblue" points="376.77,-279.5 386.77,-276 376.77,-272.5 376.77,-279.5"/>
</g>
<!-- Node41&#45;&gt;Node42 -->
<g id="edge47" class="edge">
<title>Node41&#45;&gt;Node42</title>
<path fill="none" stroke="midnightblue" d="M390.56,-156.11C353.65,-152.87 309.23,-148.96 278.54,-146.26"/>
<polygon fill="midnightblue" stroke="midnightblue" points="390.48,-159.62 400.75,-157.01 391.09,-152.65 390.48,-159.62"/>
</g>
<!-- Node43&#45;&gt;Node37 -->
<g id="edge49" class="edge">
<title>Node43&#45;&gt;Node37</title>
<path fill="none" stroke="midnightblue" d="M393.41,-249.28C362.33,-254.74 325.41,-261.24 295.75,-266.46"/>
<polygon fill="midnightblue" stroke="midnightblue" points="394.03,-252.72 403.27,-247.54 392.82,-245.83 394.03,-252.72"/>
</g>
<!-- Node45 -->
<g id="node45" class="node">
<title>Node45</title>
<g id="a_node45"><a xlink:href="../../dd/d0e/classProfiler.html#a3079911f79afc765205a92c66c971b65" target="_top" xlink:title="Runs the function for profiling and summarizes the results.">
<polygon fill="white" stroke="black" points="204,-76.5 204,-95.5 277,-95.5 277,-76.5 204,-76.5"/>
<text text-anchor="middle" x="240.5" y="-83.5" font-family="Helvetica,sans-Serif" font-size="10.00">Profiler::run</text>
</a>
</g>
</g>
<!-- Node44&#45;&gt;Node45 -->
<g id="edge52" class="edge">
<title>Node44&#45;&gt;Node45</title>
<path fill="none" stroke="midnightblue" d="M392.03,-86C354.28,-86 308.29,-86 277.16,-86"/>
<polygon fill="midnightblue" stroke="midnightblue" points="392.44,-89.5 402.44,-86 392.44,-82.5 392.44,-89.5"/>
</g>
</g>
</svg>
        <g id="navigator" transform="translate(0 0)" fill="#404254">
                <rect fill="#f2f5e9" fill-opacity="0.5" stroke="#606060" stroke-width=".5" x="0" y="0" width="60" height="60"/>
                <use id="zoomplus" xlink:href="#zoomPlus" x="17" y="9" onmousedown="handleZoom(evt,'in')"/>
                <use id="zoomminus" xlink:href="#zoomMin" x="42" y="9" onmousedown="handleZoom(evt,'out')"/>
                <use id="reset" xlink:href="#resetDef" x="30" y="36" onmousedown="handleReset()"/>
                <g id="arrowUp" xlink:href="#dirArrow" transform="translate(30 24)" onmousedown="handlePan(0,-1)">
                  <use xlink:href="#rim" fill="#404040">
                        <set attributeName="fill" to="#808080" begin="arrowUp.mouseover" end="arrowUp.mouseout"/>
                  </use>
                  <path fill="none" stroke="white" stroke-width="1.5" d="M0,-3.0v7 M-2.5,-0.5L0,-3.0L2.5,-0.5"/>
                </g>
                <g id="arrowRight" xlink:href="#dirArrow" transform="rotate(90) translate(36 -43)" onmousedown="handlePan(1,0)">
                  <use xlink:href="#rim" fill="#404040">
                        <set attributeName="fill" to="#808080" begin="arrowRight.mouseover" end="arrowRight.mouseout"/>
                  </use>
                  <path fill="none" stroke="white" stroke-width="1.5" d="M0,-3.0v7 M-2.5,-0.5L0,-3.0L2.5,-0.5"/>
                </g>
                <g id="arrowDown" xlink:href="#dirArrow" transform="rotate(180) translate(-30 -48)" onmousedown="handlePan(0,1)">
                  <use xlink:href="#rim" fill="#404040">
                        <set attributeName="fill" to="#808080" begin="arrowDown.mouseover" end="arrowDown.mouseout"/>
                  </use>
                  <path fill="none" stroke="white" stroke-width="1.5" d="M0,-3.0v7 M-2.5,-0.5L0,-3.0L2.5,-0.5"/>
                </g>
                <g id="arrowLeft" xlink:href="#dirArrow" transform="rotate(270) translate(-36 17)" onmousedown="handlePan(-1,0)">
                  <use xlink:href="#rim" fill="#404040">
                        <set attributeName="fill" to="#808080" begin="arrowLeft.mouseover" end="arrowLeft.mouseout"/>
                  </use>
                  <path fill="none" stroke="white" stroke-width="1.5" d="M0,-3.0v7 M-2.5,-0.5L0,-3.0L2.5,-0.5"/>
                </g>
        </g>
        <svg viewBox="0 0 15 15" width="100%" height="30px" preserveAspectRatio="xMaxYMin meet">
         <g id="arrow_out" transform="scale(0.3 0.3)">
          <a xlink:href="namespaceMyBLAS_1_1Stats_a403bf760cf802cddf8dd73e5d3e46a05_icgraph_org.svg" target="_base">
           <rect id="button" ry="5" rx="5" y="6" x="6" height="38" width="38"
                fill="#f2f5e9" fill-opacity="0.5" stroke="#606060" stroke-width="1.0"/>
           <path id="arrow"
             d="M 11.500037,31.436501 C 11.940474,20.09759 22.043105,11.32322 32.158766,21.979434 L 37.068811,17.246167 C 37.068811,17.246167 37.088388,32 37.088388,32 L 22.160133,31.978069 C 22.160133,31.978069 26.997745,27.140456 26.997745,27.140456 C 18.528582,18.264221 13.291696,25.230495 11.500037,31.436501 z"
             style="fill:#404040;"/>
          </a>
         </g>
        </svg>
</svg>
