<?xml version="1.0" encoding="UTF-8" standalone="no"?>
<!DOCTYPE svg PUBLIC "-//W3C//DTD SVG 1.1//EN"
 "http://www.w3.org/Graphics/SVG/1.1/DTD/svg11.dtd">
<!-- Generated by graphviz version 2.43.0 (0)
 -->
<!-- Title: MyBLAS::Stats::min Pages: 1 -->
<svg width="1085pt" height="594pt"
 viewBox="0.00 0.00 1085.00 594.00" xmlns="http://www.w3.org/2000/svg" xmlns:xlink="http://www.w3.org/1999/xlink">
<g id="graph0" class="graph" transform="scale(1 1) rotate(0) translate(4 590)">
<title>MyBLAS::Stats::min</title>
<polygon fill="white" stroke="transparent" points="-4,4 -4,-590 1081,-590 1081,4 -4,4"/>
<!-- Node1 -->
<g id="node1" class="node">
<title>Node1</title>
<g id="a_node1"><a xlink:title="Function to find the minimum value in a vector.">
<polygon fill="#bfbfbf" stroke="black" points="964,-285.5 964,-304.5 1077,-304.5 1077,-285.5 964,-285.5"/>
<text text-anchor="middle" x="1020.5" y="-292.5" font-family="Helvetica,sans-Serif" font-size="10.00">MyBLAS::Stats::min</text>
</a>
</g>
</g>
<!-- Node2 -->
<g id="node2" class="node">
<title>Node2</title>
<g id="a_node2"><a xlink:href="../../d2/d6e/namespaceMyBLAS.html#a5c6ac08b56fee69d079c63eda5482464" target="_top" xlink:title="Overloaded function that calculates the absolute maximum residual between two MyBLAS::Vector objects.">
<polygon fill="white" stroke="black" points="759,-551.5 759,-570.5 928,-570.5 928,-551.5 759,-551.5"/>
<text text-anchor="middle" x="843.5" y="-558.5" font-family="Helvetica,sans-Serif" font-size="10.00">MyBLAS::AbsoluteMaxResidual</text>
</a>
</g>
</g>
<!-- Node1&#45;&gt;Node2 -->
<g id="edge1" class="edge">
<title>Node1&#45;&gt;Node2</title>
<path fill="none" stroke="midnightblue" d="M1018.32,-314.66C1014.4,-361.6 997.72,-480.86 928,-542 923.64,-545.82 918.67,-548.92 913.38,-551.43"/>
<polygon fill="midnightblue" stroke="midnightblue" points="1021.82,-314.82 1019.05,-304.6 1014.84,-314.32 1021.82,-314.82"/>
</g>
<!-- Node3 -->
<g id="node3" class="node">
<title>Node3</title>
<g id="a_node3"><a xlink:href="../../d0/d7d/CheckBounds_8h.html#a5efba033e4e41ec3fb10dd1afacaa737" target="_top" xlink:title="Checks if the input value is within the specified range (exclusive).">
<polygon fill="white" stroke="black" points="771,-513.5 771,-532.5 916,-532.5 916,-513.5 771,-513.5"/>
<text text-anchor="middle" x="843.5" y="-520.5" font-family="Helvetica,sans-Serif" font-size="10.00">failsExclusiveRangeCheck</text>
</a>
</g>
</g>
<!-- Node1&#45;&gt;Node3 -->
<g id="edge2" class="edge">
<title>Node1&#45;&gt;Node3</title>
<path fill="none" stroke="midnightblue" d="M1016.83,-314.72C1010.09,-356.47 988.4,-454.06 928,-504 923.42,-507.79 918.23,-510.86 912.73,-513.34"/>
<polygon fill="midnightblue" stroke="midnightblue" points="1020.31,-315.13 1018.33,-304.72 1013.39,-314.09 1020.31,-315.13"/>
</g>
<!-- Node4 -->
<g id="node4" class="node">
<title>Node4</title>
<g id="a_node4"><a xlink:href="../../d0/d7d/CheckBounds_8h.html#a4e248d837fb993668bb741421c3d3984" target="_top" xlink:title="Checks if the input value is within the specified range (inclusive).">
<polygon fill="white" stroke="black" points="772.5,-475.5 772.5,-494.5 914.5,-494.5 914.5,-475.5 772.5,-475.5"/>
<text text-anchor="middle" x="843.5" y="-482.5" font-family="Helvetica,sans-Serif" font-size="10.00">failsInclusiveRangeCheck</text>
</a>
</g>
</g>
<!-- Node1&#45;&gt;Node4 -->
<g id="edge3" class="edge">
<title>Node1&#45;&gt;Node4</title>
<path fill="none" stroke="midnightblue" d="M1014.86,-314.3C1005.2,-350.11 979.44,-426.77 928,-466 922.92,-469.88 917.19,-472.99 911.17,-475.48"/>
<polygon fill="midnightblue" stroke="midnightblue" points="1018.26,-315.14 1017.35,-304.58 1011.48,-313.4 1018.26,-315.14"/>
</g>
<!-- Node6 -->
<g id="node6" class="node">
<title>Node6</title>
<g id="a_node6"><a xlink:href="../../d0/d7d/CheckBounds_8h.html#a3c1ae2e6c7c5be240c177eff0a55bdb8" target="_top" xlink:title="Checks if the input value is a positive natural number.">
<polygon fill="white" stroke="black" points="772,-437.5 772,-456.5 915,-456.5 915,-437.5 772,-437.5"/>
<text text-anchor="middle" x="843.5" y="-444.5" font-family="Helvetica,sans-Serif" font-size="10.00">failsNaturalNumberCheck</text>
</a>
</g>
</g>
<!-- Node1&#45;&gt;Node6 -->
<g id="edge5" class="edge">
<title>Node1&#45;&gt;Node6</title>
<path fill="none" stroke="midnightblue" d="M1011.88,-314.03C999.11,-343.33 970.56,-399.14 928,-428 922.34,-431.84 916.02,-434.91 909.45,-437.37"/>
<polygon fill="midnightblue" stroke="midnightblue" points="1015.22,-315.11 1015.86,-304.53 1008.76,-312.4 1015.22,-315.11"/>
</g>
<!-- Node9 -->
<g id="node9" class="node">
<title>Node9</title>
<g id="a_node9"><a xlink:href="../../d0/d7d/CheckBounds_8h.html#a87b086ea6d7e595030cf6795e111ee5b" target="_top" xlink:title="Checks if the input value is a whole number.">
<polygon fill="white" stroke="black" points="775,-399.5 775,-418.5 912,-418.5 912,-399.5 775,-399.5"/>
<text text-anchor="middle" x="843.5" y="-406.5" font-family="Helvetica,sans-Serif" font-size="10.00">failsWholeNumberCheck</text>
</a>
</g>
</g>
<!-- Node1&#45;&gt;Node9 -->
<g id="edge8" class="edge">
<title>Node1&#45;&gt;Node9</title>
<path fill="none" stroke="midnightblue" d="M1005.99,-312.86C989.67,-333.22 960.35,-366.11 928,-385 917.32,-391.24 904.91,-395.94 892.98,-399.45"/>
<polygon fill="midnightblue" stroke="midnightblue" points="1008.95,-314.76 1012.35,-304.73 1003.43,-310.45 1008.95,-314.76"/>
</g>
<!-- Node11 -->
<g id="node11" class="node">
<title>Node11</title>
<g id="a_node11"><a xlink:href="../../d5/dd9/labs_2inlab3_2Compute_8h.html#ac03dad33fd27f534eac0a60c2ddc8e1b" target="_top" xlink:title="This function computes the Lagrange polynomials for a given set of data points.">
<polygon fill="white" stroke="black" points="588,-380.5 588,-399.5 688,-399.5 688,-380.5 588,-380.5"/>
<text text-anchor="middle" x="638" y="-387.5" font-family="Helvetica,sans-Serif" font-size="10.00">fillLagrangePolys</text>
</a>
</g>
</g>
<!-- Node1&#45;&gt;Node11 -->
<g id="edge10" class="edge">
<title>Node1&#45;&gt;Node11</title>
<path fill="none" stroke="midnightblue" d="M999.58,-310.94C981.87,-324.21 954.71,-342.43 928,-352 847.25,-380.92 746.73,-388.2 688.03,-389.82"/>
<polygon fill="midnightblue" stroke="midnightblue" points="1002.13,-313.39 1007.93,-304.52 997.87,-307.84 1002.13,-313.39"/>
</g>
<!-- Node12 -->
<g id="node12" class="node">
<title>Node12</title>
<g id="a_node12"><a xlink:href="../../d6/d03/namespaceRandom.html#a26c3caf157a29ac9d9227ec40248c845" target="_top" xlink:title="Generates a vector of random numbers.">
<polygon fill="white" stroke="black" points="790,-285.5 790,-304.5 897,-304.5 897,-285.5 790,-285.5"/>
<text text-anchor="middle" x="843.5" y="-292.5" font-family="Helvetica,sans-Serif" font-size="10.00">Random::generate</text>
</a>
</g>
</g>
<!-- Node1&#45;&gt;Node12 -->
<g id="edge11" class="edge">
<title>Node1&#45;&gt;Node12</title>
<path fill="none" stroke="midnightblue" d="M953.47,-295C934.86,-295 914.86,-295 897.14,-295"/>
<polygon fill="midnightblue" stroke="midnightblue" points="953.65,-298.5 963.65,-295 953.65,-291.5 953.65,-298.5"/>
</g>
<!-- Node16 -->
<g id="node16" class="node">
<title>Node16</title>
<g id="a_node16"><a xlink:href="../../db/df1/Helpers_8h.html#a1e95f5da95a0e7c0b5d568c5400f4f30" target="_top" xlink:title="Generates a vector of 256&#45;bit ANSI gray shades.">
<polygon fill="white" stroke="black" points="402,-228.5 402,-247.5 517,-247.5 517,-228.5 402,-228.5"/>
<text text-anchor="middle" x="459.5" y="-235.5" font-family="Helvetica,sans-Serif" font-size="10.00">getGrays256bitANSI</text>
</a>
</g>
</g>
<!-- Node1&#45;&gt;Node16 -->
<g id="edge21" class="edge">
<title>Node1&#45;&gt;Node16</title>
<path fill="none" stroke="midnightblue" d="M968.42,-283.34C955.3,-280.63 941.17,-277.97 928,-276 780.82,-253.97 605.54,-244.03 517.27,-240.14"/>
<polygon fill="midnightblue" stroke="midnightblue" points="967.72,-286.77 978.23,-285.4 969.16,-279.92 967.72,-286.77"/>
</g>
<!-- Node17 -->
<g id="node17" class="node">
<title>Node17</title>
<g id="a_node17"><a xlink:href="../../db/df1/Helpers_8h.html#ae8d5abc9a487df9eaa8058819e252d0f" target="_top" xlink:title="Prints the Julia set to the console using the specified canvas properties.">
<polygon fill="white" stroke="black" points="290,-209.5 290,-228.5 366,-228.5 366,-209.5 290,-209.5"/>
<text text-anchor="middle" x="328" y="-216.5" font-family="Helvetica,sans-Serif" font-size="10.00">printJuliaSet</text>
</a>
</g>
</g>
<!-- Node1&#45;&gt;Node17 -->
<g id="edge26" class="edge">
<title>Node1&#45;&gt;Node17</title>
<path fill="none" stroke="midnightblue" d="M994.49,-280.24C976.61,-270.44 951.62,-258.28 928,-252 750.89,-204.94 700.11,-226.34 517,-219 464.66,-216.9 404.05,-217.43 366.12,-218.12"/>
<polygon fill="midnightblue" stroke="midnightblue" points="993.21,-283.53 1003.64,-285.38 996.64,-277.43 993.21,-283.53"/>
</g>
<!-- Node21 -->
<g id="node21" class="node">
<title>Node21</title>
<g id="a_node21"><a xlink:href="../../d5/dd9/labs_2inlab3_2Compute_8h.html#acdc0d38a8eab5e0ce55013897c68a43c" target="_top" xlink:title="Computes the Lagrange polynomial for a given interpolation point xi.">
<polygon fill="white" stroke="black" points="794.5,-323.5 794.5,-342.5 892.5,-342.5 892.5,-323.5 794.5,-323.5"/>
<text text-anchor="middle" x="843.5" y="-330.5" font-family="Helvetica,sans-Serif" font-size="10.00">getLagrangePoly</text>
</a>
</g>
</g>
<!-- Node1&#45;&gt;Node21 -->
<g id="edge22" class="edge">
<title>Node1&#45;&gt;Node21</title>
<path fill="none" stroke="midnightblue" d="M965.38,-306.75C940.63,-312.13 911.7,-318.41 888.34,-323.48"/>
<polygon fill="midnightblue" stroke="midnightblue" points="966.31,-310.13 975.34,-304.59 964.83,-303.29 966.31,-310.13"/>
</g>
<!-- Node22 -->
<g id="node22" class="node">
<title>Node22</title>
<g id="a_node22"><a xlink:href="../../d2/d6e/namespaceMyBLAS.html#a4a13a3c077ee693c0297e4c68cbcc521" target="_top" xlink:title=" ">
<polygon fill="white" stroke="black" points="806.5,-152.5 806.5,-171.5 880.5,-171.5 880.5,-152.5 806.5,-152.5"/>
<text text-anchor="middle" x="843.5" y="-159.5" font-family="Helvetica,sans-Serif" font-size="10.00">MyBLAS::L2</text>
</a>
</g>
</g>
<!-- Node1&#45;&gt;Node22 -->
<g id="edge24" class="edge">
<title>Node1&#45;&gt;Node22</title>
<path fill="none" stroke="midnightblue" d="M1009.1,-276.89C994.23,-252.6 964.58,-209.77 928,-186 913.83,-176.8 896.08,-171.05 880.59,-167.5"/>
<polygon fill="midnightblue" stroke="midnightblue" points="1006.11,-278.7 1014.23,-285.5 1012.12,-275.12 1006.11,-278.7"/>
</g>
<!-- Node23 -->
<g id="node23" class="node">
<title>Node23</title>
<g id="a_node23"><a xlink:href="../../d2/d6e/namespaceMyBLAS.html#a919dcf7bd5292e4ded12f438f9cd2cd0" target="_top" xlink:title="Overloaded function that calculates the L2 norm (Euclidean distance) between two MyBLAS::Vector objec...">
<polygon fill="white" stroke="black" points="793,-114.5 793,-133.5 894,-133.5 894,-114.5 793,-114.5"/>
<text text-anchor="middle" x="843.5" y="-121.5" font-family="Helvetica,sans-Serif" font-size="10.00">MyBLAS::L2Norm</text>
</a>
</g>
</g>
<!-- Node1&#45;&gt;Node23 -->
<g id="edge25" class="edge">
<title>Node1&#45;&gt;Node23</title>
<path fill="none" stroke="midnightblue" d="M1013.45,-275.59C1002.2,-242.85 974.86,-176.9 928,-143 918.12,-135.85 906.01,-131.34 894.1,-128.5"/>
<polygon fill="midnightblue" stroke="midnightblue" points="1010.2,-276.92 1016.65,-285.33 1016.85,-274.73 1010.2,-276.92"/>
</g>
<!-- Node24 -->
<g id="node24" class="node">
<title>Node24</title>
<g id="a_node24"><a xlink:href="../../dd/d0e/classProfiler.html#a95b1ecdcfc06dedbd33127208aaceec6" target="_top" xlink:title="Summarizes the results of the profiling.">
<polygon fill="white" stroke="black" points="787.5,-76.5 787.5,-95.5 899.5,-95.5 899.5,-76.5 787.5,-76.5"/>
<text text-anchor="middle" x="843.5" y="-83.5" font-family="Helvetica,sans-Serif" font-size="10.00">Profiler::summarize</text>
</a>
</g>
</g>
<!-- Node1&#45;&gt;Node24 -->
<g id="edge27" class="edge">
<title>Node1&#45;&gt;Node24</title>
<path fill="none" stroke="midnightblue" d="M1015.87,-275.22C1007.64,-236.24 983.77,-149.44 928,-105 919.86,-98.51 909.93,-94.15 899.8,-91.24"/>
<polygon fill="midnightblue" stroke="midnightblue" points="1012.49,-276.15 1017.87,-285.28 1019.35,-274.79 1012.49,-276.15"/>
</g>
<!-- Node26 -->
<g id="node26" class="node">
<title>Node26</title>
<g id="a_node26"><a xlink:href="../../d2/d6e/namespaceMyBLAS.html#a0b1632a04c2bf15017df411b6cbe581e" target="_top" xlink:title=" ">
<polygon fill="white" stroke="black" points="794.5,-38.5 794.5,-57.5 892.5,-57.5 892.5,-38.5 794.5,-38.5"/>
<text text-anchor="middle" x="843.5" y="-45.5" font-family="Helvetica,sans-Serif" font-size="10.00">MyBLAS::TEST_F</text>
</a>
</g>
</g>
<!-- Node1&#45;&gt;Node26 -->
<g id="edge29" class="edge">
<title>Node1&#45;&gt;Node26</title>
<path fill="none" stroke="midnightblue" d="M1017.64,-275.35C1012.34,-230.97 993.06,-122.52 928,-67 918.16,-58.6 905.37,-53.72 892.76,-50.93"/>
<polygon fill="midnightblue" stroke="midnightblue" points="1014.17,-275.84 1018.73,-285.41 1021.13,-275.09 1014.17,-275.84"/>
</g>
<!-- Node27 -->
<g id="node27" class="node">
<title>Node27</title>
<g id="a_node27"><a xlink:href="../../d2/d6e/namespaceMyBLAS.html#afcfc582cfa678d5dfc6ba8bed8a8859a" target="_top" xlink:title=" ">
<polygon fill="white" stroke="black" points="781.5,-0.5 781.5,-19.5 905.5,-19.5 905.5,-0.5 781.5,-0.5"/>
<text text-anchor="middle" x="843.5" y="-7.5" font-family="Helvetica,sans-Serif" font-size="10.00">MyBLAS::TYPED_TEST</text>
</a>
</g>
</g>
<!-- Node1&#45;&gt;Node27 -->
<g id="edge30" class="edge">
<title>Node1&#45;&gt;Node27</title>
<path fill="none" stroke="midnightblue" d="M1018.91,-275.21C1016.3,-225.71 1002.35,-95.75 928,-29 921.58,-23.24 913.79,-19.11 905.57,-16.18"/>
<polygon fill="midnightblue" stroke="midnightblue" points="1015.42,-275.64 1019.34,-285.49 1022.42,-275.35 1015.42,-275.64"/>
</g>
<!-- Node5 -->
<g id="node5" class="node">
<title>Node5</title>
<g id="a_node5"><a xlink:href="../../d0/d7d/CheckBounds_8h.html#ab3e279562a8015a00f3befa5394b1d99" target="_top" xlink:title="Checks if the input value is a valid probability (between 0 and 1 inclusive).">
<polygon fill="white" stroke="black" points="578,-566.5 578,-585.5 698,-585.5 698,-566.5 578,-566.5"/>
<text text-anchor="middle" x="638" y="-573.5" font-family="Helvetica,sans-Serif" font-size="10.00">failsProbabilityCheck</text>
</a>
</g>
</g>
<!-- Node4&#45;&gt;Node5 -->
<g id="edge4" class="edge">
<title>Node4&#45;&gt;Node5</title>
<path fill="none" stroke="midnightblue" d="M768.21,-498.63C765,-500.23 761.91,-502.01 759,-504 735.48,-520.05 746.53,-540.96 723,-557 715.59,-562.05 707.03,-565.78 698.28,-568.53"/>
<polygon fill="midnightblue" stroke="midnightblue" points="769.74,-501.78 777.52,-494.6 766.95,-495.36 769.74,-501.78"/>
</g>
<!-- Node7 -->
<g id="node7" class="node">
<title>Node7</title>
<g id="a_node7"><a xlink:href="../../d0/d40/classParser.html#ab198abe8fec39f369ea744358666859c" target="_top" xlink:title="Performs input checks on the input variables.">
<polygon fill="white" stroke="black" points="553,-517 553,-547 723,-547 723,-517 553,-517"/>
<text text-anchor="start" x="561" y="-535" font-family="Helvetica,sans-Serif" font-size="10.00">Parser::performInputArguments</text>
<text text-anchor="middle" x="638" y="-524" font-family="Helvetica,sans-Serif" font-size="10.00">Check</text>
</a>
</g>
</g>
<!-- Node6&#45;&gt;Node7 -->
<g id="edge6" class="edge">
<title>Node6&#45;&gt;Node7</title>
<path fill="none" stroke="midnightblue" d="M770.55,-460.13C766.53,-461.85 762.65,-463.8 759,-466 737.95,-478.7 743.7,-494.73 723,-508 717.64,-511.44 711.77,-514.4 705.72,-516.93"/>
<polygon fill="midnightblue" stroke="midnightblue" points="772,-463.32 780.11,-456.5 769.52,-456.77 772,-463.32"/>
</g>
<!-- Node8 -->
<g id="node8" class="node">
<title>Node8</title>
<g id="a_node8"><a xlink:href="../../d1/d09/namespaceProfilerHelper.html#acae987e616fd0d3c10d3aa8a1c13da8a" target="_top" xlink:title="This function validates the input options, prompting the user if they need to be fixed.">
<polygon fill="white" stroke="black" points="573.5,-468 573.5,-498 702.5,-498 702.5,-468 573.5,-468"/>
<text text-anchor="start" x="581.5" y="-486" font-family="Helvetica,sans-Serif" font-size="10.00">ProfilerHelper::validate</text>
<text text-anchor="middle" x="638" y="-475" font-family="Helvetica,sans-Serif" font-size="10.00">Options</text>
</a>
</g>
</g>
<!-- Node6&#45;&gt;Node8 -->
<g id="edge7" class="edge">
<title>Node6&#45;&gt;Node8</title>
<path fill="none" stroke="midnightblue" d="M778.63,-458.3C754.47,-462.57 726.97,-467.44 702.81,-471.71"/>
<polygon fill="midnightblue" stroke="midnightblue" points="779.53,-461.69 788.77,-456.51 778.31,-454.8 779.53,-461.69"/>
</g>
<!-- Node10 -->
<g id="node10" class="node">
<title>Node10</title>
<g id="a_node10"><a xlink:href="../../d0/d40/classParser.html#a3369e669d9e28c85a3397e7bc95d2518" target="_top" xlink:title="This function performs checks on the input parameters and prompts the user to enter valid inputs if t...">
<polygon fill="white" stroke="black" points="553,-419 553,-449 723,-449 723,-419 553,-419"/>
<text text-anchor="start" x="561" y="-437" font-family="Helvetica,sans-Serif" font-size="10.00">Parser::performInputArguments</text>
<text text-anchor="middle" x="638" y="-426" font-family="Helvetica,sans-Serif" font-size="10.00">Check</text>
</a>
</g>
</g>
<!-- Node9&#45;&gt;Node10 -->
<g id="edge9" class="edge">
<title>Node9&#45;&gt;Node10</title>
<path fill="none" stroke="midnightblue" d="M764.51,-418.58C750.97,-420.24 736.82,-421.98 723.12,-423.67"/>
<polygon fill="midnightblue" stroke="midnightblue" points="765.24,-422.02 774.74,-417.32 764.39,-415.07 765.24,-422.02"/>
</g>
<!-- Node13 -->
<g id="node13" class="node">
<title>Node13</title>
<g id="a_node13"><a xlink:href="../../d0/d40/classParser.html#a123dc1be35999de898396ade606098f6" target="_top" xlink:title="Builds the input matrices for the MyBLAS library from a JSON file.">
<polygon fill="white" stroke="black" points="406,-323.5 406,-342.5 513,-342.5 513,-323.5 406,-323.5"/>
<text text-anchor="middle" x="459.5" y="-330.5" font-family="Helvetica,sans-Serif" font-size="10.00">Parser::buildInputs</text>
</a>
</g>
</g>
<!-- Node12&#45;&gt;Node13 -->
<g id="edge12" class="edge">
<title>Node12&#45;&gt;Node13</title>
<path fill="none" stroke="midnightblue" d="M780.88,-307.09C773.42,-309.11 765.98,-311.42 759,-314 742.03,-320.28 740.56,-328.65 723,-333 652,-350.59 566.85,-346.12 513.19,-340.34"/>
<polygon fill="midnightblue" stroke="midnightblue" points="781.84,-310.45 790.66,-304.58 780.1,-303.67 781.84,-310.45"/>
</g>
<!-- Node14 -->
<g id="node14" class="node">
<title>Node14</title>
<g id="a_node14"><a xlink:href="../../d5/d7a/namespaceMyBLAS_1_1System.html#a487070ac751d33afa7f9fceaef312ea0" target="_top" xlink:title="This function generates a circuit with random resistances and currents, and computes the correspondin...">
<polygon fill="white" stroke="black" points="569.5,-304.5 569.5,-323.5 706.5,-323.5 706.5,-304.5 569.5,-304.5"/>
<text text-anchor="middle" x="638" y="-311.5" font-family="Helvetica,sans-Serif" font-size="10.00">MyBLAS::System::Circuit</text>
</a>
</g>
</g>
<!-- Node12&#45;&gt;Node14 -->
<g id="edge13" class="edge">
<title>Node12&#45;&gt;Node14</title>
<path fill="none" stroke="midnightblue" d="M779.79,-300.85C756.67,-303.01 730.37,-305.47 706.82,-307.67"/>
<polygon fill="midnightblue" stroke="midnightblue" points="780.2,-304.33 789.83,-299.92 779.55,-297.36 780.2,-304.33"/>
</g>
<!-- Node15 -->
<g id="node15" class="node">
<title>Node15</title>
<g id="a_node15"><a xlink:href="../../db/df1/Helpers_8h.html#adbb387f590a9aee9c19ca2752ec93a12" target="_top" xlink:title="This function fills a vector with evenly spaced values between a start and end value.">
<polygon fill="white" stroke="black" points="601,-266.5 601,-285.5 675,-285.5 675,-266.5 601,-266.5"/>
<text text-anchor="middle" x="638" y="-273.5" font-family="Helvetica,sans-Serif" font-size="10.00">fill_linspace</text>
</a>
</g>
</g>
<!-- Node12&#45;&gt;Node15 -->
<g id="edge15" class="edge">
<title>Node12&#45;&gt;Node15</title>
<path fill="none" stroke="midnightblue" d="M779.43,-289.11C745.14,-285.91 703.97,-282.07 675.1,-279.37"/>
<polygon fill="midnightblue" stroke="midnightblue" points="779.55,-292.64 789.83,-290.08 780.2,-285.67 779.55,-292.64"/>
</g>
<!-- Node14&#45;&gt;Node13 -->
<g id="edge14" class="edge">
<title>Node14&#45;&gt;Node13</title>
<path fill="none" stroke="midnightblue" d="M559.15,-322.38C543.64,-324.05 527.69,-325.77 513.25,-327.32"/>
<polygon fill="midnightblue" stroke="midnightblue" points="559.7,-325.84 569.27,-321.29 558.95,-318.88 559.7,-325.84"/>
</g>
<!-- Node15&#45;&gt;Node16 -->
<g id="edge16" class="edge">
<title>Node15&#45;&gt;Node16</title>
<path fill="none" stroke="midnightblue" d="M591.01,-266.1C564.39,-260.37 531.05,-253.19 504.73,-247.52"/>
<polygon fill="midnightblue" stroke="midnightblue" points="590.34,-269.54 600.86,-268.22 591.82,-262.69 590.34,-269.54"/>
</g>
<!-- Node20 -->
<g id="node20" class="node">
<title>Node20</title>
<g id="a_node20"><a xlink:href="../../d4/d63/classInLab2.html#aa21d4fafce339dc04b7171830300cb02" target="_top" xlink:title="This function is responsible for the main logic of the program.">
<polygon fill="white" stroke="black" points="424,-266.5 424,-285.5 495,-285.5 495,-266.5 424,-266.5"/>
<text text-anchor="middle" x="459.5" y="-273.5" font-family="Helvetica,sans-Serif" font-size="10.00">InLab2::run</text>
</a>
</g>
</g>
<!-- Node15&#45;&gt;Node20 -->
<g id="edge20" class="edge">
<title>Node15&#45;&gt;Node20</title>
<path fill="none" stroke="midnightblue" d="M590.65,-276C560.7,-276 522.38,-276 495.09,-276"/>
<polygon fill="midnightblue" stroke="midnightblue" points="590.86,-279.5 600.86,-276 590.86,-272.5 590.86,-279.5"/>
</g>
<!-- Node16&#45;&gt;Node17 -->
<g id="edge17" class="edge">
<title>Node16&#45;&gt;Node17</title>
<path fill="none" stroke="midnightblue" d="M391.73,-228.2C382.88,-226.91 374.09,-225.62 366.01,-224.43"/>
<polygon fill="midnightblue" stroke="midnightblue" points="391.3,-231.68 401.7,-229.67 392.31,-224.75 391.3,-231.68"/>
</g>
<!-- Node18 -->
<g id="node18" class="node">
<title>Node18</title>
<g id="a_node18"><a xlink:href="../../db/df1/Helpers_8h.html#a0bd7444ed4f75d9a9b3a9c3c711b4dca" target="_top" xlink:title="Draws the Julia set to a string buffer using the specified canvas properties.">
<polygon fill="white" stroke="black" points="177,-209.5 177,-228.5 254,-228.5 254,-209.5 177,-209.5"/>
<text text-anchor="middle" x="215.5" y="-216.5" font-family="Helvetica,sans-Serif" font-size="10.00">drawJuliaSet</text>
</a>
</g>
</g>
<!-- Node17&#45;&gt;Node18 -->
<g id="edge18" class="edge">
<title>Node17&#45;&gt;Node18</title>
<path fill="none" stroke="midnightblue" d="M279.65,-219C271.1,-219 262.29,-219 254.07,-219"/>
<polygon fill="midnightblue" stroke="midnightblue" points="279.9,-222.5 289.9,-219 279.9,-215.5 279.9,-222.5"/>
</g>
<!-- Node19 -->
<g id="node19" class="node">
<title>Node19</title>
<g id="a_node19"><a xlink:href="../../d3/d49/classOutLab7.html#a79137678d1379c0b3d58b6f62368d765" target="_top" xlink:title="This function builds the header information for the project.">
<polygon fill="white" stroke="black" points="0,-209.5 0,-228.5 141,-228.5 141,-209.5 0,-209.5"/>
<text text-anchor="middle" x="70.5" y="-216.5" font-family="Helvetica,sans-Serif" font-size="10.00">OutLab7::buildHeaderInfo</text>
</a>
</g>
</g>
<!-- Node18&#45;&gt;Node19 -->
<g id="edge19" class="edge">
<title>Node18&#45;&gt;Node19</title>
<path fill="none" stroke="midnightblue" d="M166.8,-219C158.57,-219 149.86,-219 141.19,-219"/>
<polygon fill="midnightblue" stroke="midnightblue" points="166.93,-222.5 176.93,-219 166.93,-215.5 166.93,-222.5"/>
</g>
<!-- Node21&#45;&gt;Node11 -->
<g id="edge23" class="edge">
<title>Node21&#45;&gt;Node11</title>
<path fill="none" stroke="midnightblue" d="M798.76,-345.25C761.17,-355.78 707.7,-370.76 673.17,-380.43"/>
<polygon fill="midnightblue" stroke="midnightblue" points="799.75,-348.61 808.44,-342.54 797.87,-341.87 799.75,-348.61"/>
</g>
<!-- Node25 -->
<g id="node25" class="node">
<title>Node25</title>
<g id="a_node25"><a xlink:href="../../dd/d0e/classProfiler.html#a3079911f79afc765205a92c66c971b65" target="_top" xlink:title="Runs the function for profiling and summarizes the results.">
<polygon fill="white" stroke="black" points="601.5,-76.5 601.5,-95.5 674.5,-95.5 674.5,-76.5 601.5,-76.5"/>
<text text-anchor="middle" x="638" y="-83.5" font-family="Helvetica,sans-Serif" font-size="10.00">Profiler::run</text>
</a>
</g>
</g>
<!-- Node24&#45;&gt;Node25 -->
<g id="edge28" class="edge">
<title>Node24&#45;&gt;Node25</title>
<path fill="none" stroke="midnightblue" d="M777.09,-86C743.07,-86 702.81,-86 674.56,-86"/>
<polygon fill="midnightblue" stroke="midnightblue" points="777.43,-89.5 787.43,-86 777.43,-82.5 777.43,-89.5"/>
</g>
</g>
</svg>
