<?xml version="1.0" encoding="UTF-8" standalone="no"?>
<!DOCTYPE svg PUBLIC "-//W3C//DTD SVG 1.1//EN"
 "http://www.w3.org/Graphics/SVG/1.1/DTD/svg11.dtd">
<!-- Generated by graphviz version 2.43.0 (0)
 -->
<!-- Title: MyBLAS::Stats::max Pages: 1 -->
<!--zoomable 569 -->
<svg id="main" version="1.1" xmlns="http://www.w3.org/2000/svg" xmlns:xlink="http://www.w3.org/1999/xlink" xml:space="preserve" onload="init(evt)">
<style type="text/css"><![CDATA[
.edge:hover path { stroke: red; }
.edge:hover polygon { stroke: red; fill: red; }
]]></style>
<script type="text/javascript"><![CDATA[
var edges = document.getElementsByTagName('g');
if (edges && edges.length) {
  for (var i=0;i<edges.length;i++) {
    if (edges[i].id.substr(0,4)=='edge') {
      edges[i].setAttribute('class','edge');
    }
  }
}
]]></script>
        <defs>
                <circle id="rim" cx="0" cy="0" r="7"/>
                <circle id="rim2" cx="0" cy="0" r="3.5"/>
                <g id="zoomPlus">
                        <use xlink:href="#rim" fill="#404040">
                                <set attributeName="fill" to="#808080" begin="zoomplus.mouseover" end="zoomplus.mouseout"/>
                        </use>
                        <path d="M-4,0h8M0,-4v8" fill="none" stroke="white" stroke-width="1.5" pointer-events="none"/>
                </g>
                <g id="zoomMin">
                        <use xlink:href="#rim" fill="#404040">
                                <set attributeName="fill" to="#808080" begin="zoomminus.mouseover" end="zoomminus.mouseout"/>
                        </use>
                        <path d="M-4,0h8" fill="none" stroke="white" stroke-width="1.5" pointer-events="none"/>
                </g>
                <g id="dirArrow">
                        <path fill="none" stroke="white" stroke-width="1.5" d="M0,-3.0v7 M-2.5,-0.5L0,-3.0L2.5,-0.5"/>
                </g>
               <g id="resetDef">
                       <use xlink:href="#rim2" fill="#404040">
                               <set attributeName="fill" to="#808080" begin="reset.mouseover" end="reset.mouseout"/>
                       </use>
               </g>
        </defs>

<script type="text/javascript">
var viewWidth = 850;
var viewHeight = 569;
var sectionId = 'dynsection-4';
</script>
<script xlink:href="../../svgpan.js"/>
<svg id="graph" class="graph">
<g id="viewport">
<title>MyBLAS::Stats::max</title>
<polygon fill="white" stroke="transparent" points="-4,4 -4,-564.5 846,-564.5 846,4 -4,4"/>
<!-- Node1 -->
<g id="node1" class="node">
<title>Node1</title>
<g id="a_node1"><a xlink:title="Function to find the maximum value in a vector.">
<polygon fill="#bfbfbf" stroke="black" points="726,-272.5 726,-291.5 842,-291.5 842,-272.5 726,-272.5"/>
<text text-anchor="middle" x="784" y="-279.5" font-family="Helvetica,sans-Serif" font-size="10.00">MyBLAS::Stats::max</text>
</a>
</g>
</g>
<!-- Node2 -->
<g id="node2" class="node">
<title>Node2</title>
<g id="a_node2"><a xlink:href="../../d2/d6e/namespaceMyBLAS.html#ad38fb7c86134c4334e6bf29c2c734afd" target="_top" xlink:title="Calculates the absolute maximum residual between two containers.">
<polygon fill="white" stroke="black" points="521,-524.5 521,-543.5 690,-543.5 690,-524.5 521,-524.5"/>
<text text-anchor="middle" x="605.5" y="-531.5" font-family="Helvetica,sans-Serif" font-size="10.00">MyBLAS::AbsoluteMaxResidual</text>
</a>
</g>
</g>
<!-- Node1&#45;&gt;Node2 -->
<g id="edge1" class="edge">
<title>Node1&#45;&gt;Node2</title>
<path fill="none" stroke="midnightblue" d="M781.18,-301.79C775.92,-346.95 756.53,-458.12 690,-515 685.59,-518.77 680.59,-521.83 675.28,-524.31"/>
<polygon fill="midnightblue" stroke="midnightblue" points="784.66,-302.11 782.23,-291.8 777.7,-301.38 784.66,-302.11"/>
</g>
<!-- Node3 -->
<g id="node3" class="node">
<title>Node3</title>
<g id="a_node3"><a xlink:href="../../d0/d7d/CheckBounds_8h.html#abce8de40b5bce1a6097233d800370ffd" target="_top" xlink:title="Checks if the absolute value of the input is greater than or equal to 1.">
<polygon fill="white" stroke="black" points="533.5,-475 533.5,-505 677.5,-505 677.5,-475 533.5,-475"/>
<text text-anchor="start" x="541.5" y="-493" font-family="Helvetica,sans-Serif" font-size="10.00">absoluteValueFailsGreater</text>
<text text-anchor="middle" x="605.5" y="-482" font-family="Helvetica,sans-Serif" font-size="10.00">Than1Check</text>
</a>
</g>
</g>
<!-- Node1&#45;&gt;Node3 -->
<g id="edge2" class="edge">
<title>Node1&#45;&gt;Node3</title>
<path fill="none" stroke="midnightblue" d="M777.95,-301.49C767.58,-337.77 740.49,-415.97 690,-460 683.03,-466.07 674.75,-470.95 666.14,-474.85"/>
<polygon fill="midnightblue" stroke="midnightblue" points="781.38,-302.23 780.64,-291.66 774.62,-300.38 781.38,-302.23"/>
</g>
<!-- Node5 -->
<g id="node5" class="node">
<title>Node5</title>
<g id="a_node5"><a xlink:href="../../d7/d9a/namespaceMyRelaxationMethod.html#a1ad90cacb42ba2b27223feb0d56320b9" target="_top" xlink:title="This function applies the Point Jacobi method to solve a system of linear equations.">
<polygon fill="white" stroke="black" points="339.5,-481 339.5,-511 460.5,-511 460.5,-481 339.5,-481"/>
<text text-anchor="start" x="347.5" y="-499" font-family="Helvetica,sans-Serif" font-size="10.00">MyRelaxationMethod</text>
<text text-anchor="middle" x="400" y="-488" font-family="Helvetica,sans-Serif" font-size="10.00">::applyPointJacobi</text>
</a>
</g>
</g>
<!-- Node1&#45;&gt;Node5 -->
<g id="edge4" class="edge">
<title>Node1&#45;&gt;Node5</title>
<path fill="none" stroke="midnightblue" d="M776.16,-301.38C763.98,-332.9 735.49,-394.96 690,-427 626.98,-471.39 595.95,-447.98 521,-466 501.16,-470.77 479.52,-476.13 460.15,-480.99"/>
<polygon fill="midnightblue" stroke="midnightblue" points="779.58,-302.2 779.78,-291.6 773.02,-299.76 779.58,-302.2"/>
</g>
<!-- Node8 -->
<g id="node8" class="node">
<title>Node8</title>
<g id="a_node8"><a xlink:href="../../d7/d9a/namespaceMyRelaxationMethod.html#a52bbc804a62498444281f3b3ac5c2c74" target="_top" xlink:title="This function applies the Successive Over&#45;Relaxation (SOR) method to solve a system of linear equatio...">
<polygon fill="white" stroke="black" points="545,-349 545,-379 666,-379 666,-349 545,-349"/>
<text text-anchor="start" x="553" y="-367" font-family="Helvetica,sans-Serif" font-size="10.00">MyRelaxationMethod</text>
<text text-anchor="middle" x="605.5" y="-356" font-family="Helvetica,sans-Serif" font-size="10.00">::applySOR</text>
</a>
</g>
</g>
<!-- Node1&#45;&gt;Node8 -->
<g id="edge7" class="edge">
<title>Node1&#45;&gt;Node8</title>
<path fill="none" stroke="midnightblue" d="M758.99,-296.88C740.53,-307.94 714.19,-322.98 690,-334 678.08,-339.43 664.88,-344.56 652.55,-348.99"/>
<polygon fill="midnightblue" stroke="midnightblue" points="760.88,-299.82 767.61,-291.64 757.25,-293.84 760.88,-299.82"/>
</g>
<!-- Node12 -->
<g id="node12" class="node">
<title>Node12</title>
<g id="a_node12"><a xlink:href="../../d7/d9a/namespaceMyRelaxationMethod.html#a6ce139c8c66799c77605e84daa52c54c" target="_top" xlink:title="Applies the Symmetric Successive Over&#45;Relaxation (SSOR) method to solve a system of linear equations.">
<polygon fill="white" stroke="black" points="339.5,-305 339.5,-335 460.5,-335 460.5,-305 339.5,-305"/>
<text text-anchor="start" x="347.5" y="-323" font-family="Helvetica,sans-Serif" font-size="10.00">MyRelaxationMethod</text>
<text text-anchor="middle" x="400" y="-312" font-family="Helvetica,sans-Serif" font-size="10.00">::applySSOR</text>
</a>
</g>
</g>
<!-- Node1&#45;&gt;Node12 -->
<g id="edge11" class="edge">
<title>Node1&#45;&gt;Node12</title>
<path fill="none" stroke="midnightblue" d="M732.27,-293.66C718.61,-296.45 703.8,-299.15 690,-301 611.14,-311.6 519.34,-316.35 460.74,-318.44"/>
<polygon fill="midnightblue" stroke="midnightblue" points="733.39,-297 742.46,-291.53 731.96,-290.15 733.39,-297"/>
</g>
<!-- Node14 -->
<g id="node14" class="node">
<title>Node14</title>
<g id="a_node14"><a xlink:href="../../d0/d7d/CheckBounds_8h.html#a5efba033e4e41ec3fb10dd1afacaa737" target="_top" xlink:title="Checks if the input value is within the specified range (exclusive).">
<polygon fill="white" stroke="black" points="533,-272.5 533,-291.5 678,-291.5 678,-272.5 533,-272.5"/>
<text text-anchor="middle" x="605.5" y="-279.5" font-family="Helvetica,sans-Serif" font-size="10.00">failsExclusiveRangeCheck</text>
</a>
</g>
</g>
<!-- Node1&#45;&gt;Node14 -->
<g id="edge13" class="edge">
<title>Node1&#45;&gt;Node14</title>
<path fill="none" stroke="midnightblue" d="M715.54,-282C703.27,-282 690.43,-282 678.04,-282"/>
<polygon fill="midnightblue" stroke="midnightblue" points="715.7,-285.5 725.7,-282 715.7,-278.5 715.7,-285.5"/>
</g>
<!-- Node15 -->
<g id="node15" class="node">
<title>Node15</title>
<g id="a_node15"><a xlink:href="../../d0/d7d/CheckBounds_8h.html#a4e248d837fb993668bb741421c3d3984" target="_top" xlink:title="Checks if the input value is within the specified range (inclusive).">
<polygon fill="white" stroke="black" points="534.5,-234.5 534.5,-253.5 676.5,-253.5 676.5,-234.5 534.5,-234.5"/>
<text text-anchor="middle" x="605.5" y="-241.5" font-family="Helvetica,sans-Serif" font-size="10.00">failsInclusiveRangeCheck</text>
</a>
</g>
</g>
<!-- Node1&#45;&gt;Node15 -->
<g id="edge14" class="edge">
<title>Node1&#45;&gt;Node15</title>
<path fill="none" stroke="midnightblue" d="M728.41,-270.25C703.46,-264.87 674.27,-258.59 650.72,-253.52"/>
<polygon fill="midnightblue" stroke="midnightblue" points="727.95,-273.73 738.46,-272.41 729.42,-266.88 727.95,-273.73"/>
</g>
<!-- Node17 -->
<g id="node17" class="node">
<title>Node17</title>
<g id="a_node17"><a xlink:href="../../d6/d03/namespaceRandom.html#a26c3caf157a29ac9d9227ec40248c845" target="_top" xlink:title="Generates a vector of random numbers.">
<polygon fill="white" stroke="black" points="552,-193.5 552,-212.5 659,-212.5 659,-193.5 552,-193.5"/>
<text text-anchor="middle" x="605.5" y="-200.5" font-family="Helvetica,sans-Serif" font-size="10.00">Random::generate</text>
</a>
</g>
</g>
<!-- Node1&#45;&gt;Node17 -->
<g id="edge16" class="edge">
<title>Node1&#45;&gt;Node17</title>
<path fill="none" stroke="midnightblue" d="M761.95,-266.61C743.7,-253.9 716.19,-236.19 690,-225 678.14,-219.94 664.83,-215.79 652.38,-212.52"/>
<polygon fill="midnightblue" stroke="midnightblue" points="759.93,-269.47 770.11,-272.4 763.98,-263.76 759.93,-269.47"/>
</g>
<!-- Node21 -->
<g id="node21" class="node">
<title>Node21</title>
<g id="a_node21"><a xlink:href="../../db/df1/Helpers_8h.html#a1e95f5da95a0e7c0b5d568c5400f4f30" target="_top" xlink:title="Generates a vector of 256&#45;bit ANSI gray shades.">
<polygon fill="white" stroke="black" points="138,-114.5 138,-133.5 253,-133.5 253,-114.5 138,-114.5"/>
<text text-anchor="middle" x="195.5" y="-121.5" font-family="Helvetica,sans-Serif" font-size="10.00">getGrays256bitANSI</text>
</a>
</g>
</g>
<!-- Node1&#45;&gt;Node21 -->
<g id="edge24" class="edge">
<title>Node1&#45;&gt;Node21</title>
<path fill="none" stroke="midnightblue" d="M771.25,-264.02C755.56,-241.54 725.55,-203.63 690,-184 548.33,-105.78 349.45,-109.95 253.16,-117.79"/>
<polygon fill="midnightblue" stroke="midnightblue" points="768.39,-266.03 776.9,-272.34 774.18,-262.1 768.39,-266.03"/>
</g>
<!-- Node22 -->
<g id="node22" class="node">
<title>Node22</title>
<g id="a_node22"><a xlink:href="../../db/df1/Helpers_8h.html#ae8d5abc9a487df9eaa8058819e252d0f" target="_top" xlink:title="Prints the Julia set to the console using the specified canvas properties.">
<polygon fill="white" stroke="black" points="0,-95.5 0,-114.5 76,-114.5 76,-95.5 0,-95.5"/>
<text text-anchor="middle" x="38" y="-102.5" font-family="Helvetica,sans-Serif" font-size="10.00">printJuliaSet</text>
</a>
</g>
</g>
<!-- Node1&#45;&gt;Node22 -->
<g id="edge25" class="edge">
<title>Node1&#45;&gt;Node22</title>
<path fill="none" stroke="midnightblue" d="M777.96,-262.46C767.86,-227.72 741.55,-155.86 690,-124 586.72,-60.18 198.61,-90.06 76.22,-101.35"/>
<polygon fill="midnightblue" stroke="midnightblue" points="774.66,-263.63 780.69,-272.34 781.4,-261.77 774.66,-263.63"/>
</g>
<!-- Node24 -->
<g id="node24" class="node">
<title>Node24</title>
<g id="a_node24"><a xlink:href="../../dd/d0e/classProfiler.html#a95b1ecdcfc06dedbd33127208aaceec6" target="_top" xlink:title="Summarizes the results of the profiling.">
<polygon fill="white" stroke="black" points="549.5,-398.5 549.5,-417.5 661.5,-417.5 661.5,-398.5 549.5,-398.5"/>
<text text-anchor="middle" x="605.5" y="-405.5" font-family="Helvetica,sans-Serif" font-size="10.00">Profiler::summarize</text>
</a>
</g>
</g>
<!-- Node1&#45;&gt;Node24 -->
<g id="edge26" class="edge">
<title>Node1&#45;&gt;Node24</title>
<path fill="none" stroke="midnightblue" d="M772.24,-300.43C757.08,-324.67 727.1,-366.79 690,-389 681.45,-394.12 671.66,-397.86 661.86,-400.59"/>
<polygon fill="midnightblue" stroke="midnightblue" points="775.27,-302.17 777.47,-291.81 769.29,-298.54 775.27,-302.17"/>
</g>
<!-- Node27 -->
<g id="node27" class="node">
<title>Node27</title>
<g id="a_node27"><a xlink:href="../../d2/d6e/namespaceMyBLAS.html#acd8a0bff6ba6c4bf17f6129fc3ee90f3" target="_top" xlink:title=" ">
<polygon fill="white" stroke="black" points="556.5,-38.5 556.5,-57.5 654.5,-57.5 654.5,-38.5 556.5,-38.5"/>
<text text-anchor="middle" x="605.5" y="-45.5" font-family="Helvetica,sans-Serif" font-size="10.00">MyBLAS::TEST_F</text>
</a>
</g>
</g>
<!-- Node1&#45;&gt;Node27 -->
<g id="edge34" class="edge">
<title>Node1&#45;&gt;Node27</title>
<path fill="none" stroke="midnightblue" d="M779.99,-262.45C772.57,-220.99 749.47,-123.84 690,-72 680.11,-63.38 667.3,-57.84 654.69,-54.3"/>
<polygon fill="midnightblue" stroke="midnightblue" points="776.55,-263.08 781.65,-272.37 783.45,-261.93 776.55,-263.08"/>
</g>
<!-- Node28 -->
<g id="node28" class="node">
<title>Node28</title>
<g id="a_node28"><a xlink:href="../../d2/d6e/namespaceMyBLAS.html#afcfc582cfa678d5dfc6ba8bed8a8859a" target="_top" xlink:title=" ">
<polygon fill="white" stroke="black" points="543.5,-0.5 543.5,-19.5 667.5,-19.5 667.5,-0.5 543.5,-0.5"/>
<text text-anchor="middle" x="605.5" y="-7.5" font-family="Helvetica,sans-Serif" font-size="10.00">MyBLAS::TYPED_TEST</text>
</a>
</g>
</g>
<!-- Node1&#45;&gt;Node28 -->
<g id="edge35" class="edge">
<title>Node1&#45;&gt;Node28</title>
<path fill="none" stroke="midnightblue" d="M781.88,-262.19C778.06,-214.35 761.43,-91.8 690,-29 683.64,-23.4 675.97,-19.36 667.89,-16.45"/>
<polygon fill="midnightblue" stroke="midnightblue" points="778.41,-262.7 782.59,-272.43 785.39,-262.21 778.41,-262.7"/>
</g>
<!-- Node4 -->
<g id="node4" class="node">
<title>Node4</title>
<g id="a_node4"><a xlink:href="../../d0/d40/classParser.html#ab198abe8fec39f369ea744358666859c" target="_top" xlink:title="Performs input checks on the input variables.">
<polygon fill="white" stroke="black" points="315,-530 315,-560 485,-560 485,-530 315,-530"/>
<text text-anchor="start" x="323" y="-548" font-family="Helvetica,sans-Serif" font-size="10.00">Parser::performInputArguments</text>
<text text-anchor="middle" x="400" y="-537" font-family="Helvetica,sans-Serif" font-size="10.00">Check</text>
</a>
</g>
</g>
<!-- Node3&#45;&gt;Node4 -->
<g id="edge3" class="edge">
<title>Node3&#45;&gt;Node4</title>
<path fill="none" stroke="midnightblue" d="M538.91,-507.73C512.34,-514.91 481.99,-523.11 456.54,-529.99"/>
<polygon fill="midnightblue" stroke="midnightblue" points="540.15,-511.02 548.89,-505.03 538.33,-504.26 540.15,-511.02"/>
</g>
<!-- Node6 -->
<g id="node6" class="node">
<title>Node6</title>
<g id="a_node6"><a xlink:href="../../de/db3/namespaceCompute.html#a7349dde18d551b9ad66d05e6f32fc196" target="_top" xlink:title="Solves a linear system using the Jacobi SOR method.">
<polygon fill="white" stroke="black" points="124,-512.5 124,-531.5 267,-531.5 267,-512.5 124,-512.5"/>
<text text-anchor="middle" x="195.5" y="-519.5" font-family="Helvetica,sans-Serif" font-size="10.00">Compute::usingJacobiSOR</text>
</a>
</g>
</g>
<!-- Node5&#45;&gt;Node6 -->
<g id="edge5" class="edge">
<title>Node5&#45;&gt;Node6</title>
<path fill="none" stroke="midnightblue" d="M329.33,-504.94C309.24,-507.52 287.31,-510.34 267.16,-512.93"/>
<polygon fill="midnightblue" stroke="midnightblue" points="329.87,-508.41 339.34,-503.66 328.97,-501.46 329.87,-508.41"/>
</g>
<!-- Node7 -->
<g id="node7" class="node">
<title>Node7</title>
<g id="a_node7"><a xlink:href="../../de/db3/namespaceCompute.html#a0741aa46b479eae78cfad76bdf7cb091" target="_top" xlink:title="Solves a linear system using the Point Jacobi method.">
<polygon fill="white" stroke="black" points="122,-474.5 122,-493.5 269,-493.5 269,-474.5 122,-474.5"/>
<text text-anchor="middle" x="195.5" y="-481.5" font-family="Helvetica,sans-Serif" font-size="10.00">Compute::usingPointJacobi</text>
</a>
</g>
</g>
<!-- Node5&#45;&gt;Node7 -->
<g id="edge6" class="edge">
<title>Node5&#45;&gt;Node7</title>
<path fill="none" stroke="midnightblue" d="M329.11,-491.86C309.81,-490.71 288.82,-489.47 269.36,-488.32"/>
<polygon fill="midnightblue" stroke="midnightblue" points="329.15,-495.37 339.34,-492.46 329.56,-488.38 329.15,-495.37"/>
</g>
<!-- Node9 -->
<g id="node9" class="node">
<title>Node9</title>
<g id="a_node9"><a xlink:href="../../d7/d9a/namespaceMyRelaxationMethod.html#a1b6a833ea067f34c45415750d85b51fa" target="_top" xlink:title="This function applies the Gauss&#45;Seidel method to solve a system of linear equations.">
<polygon fill="white" stroke="black" points="339.5,-393 339.5,-423 460.5,-423 460.5,-393 339.5,-393"/>
<text text-anchor="start" x="347.5" y="-411" font-family="Helvetica,sans-Serif" font-size="10.00">MyRelaxationMethod</text>
<text text-anchor="middle" x="400" y="-400" font-family="Helvetica,sans-Serif" font-size="10.00">::applyGaussSeidel</text>
</a>
</g>
</g>
<!-- Node8&#45;&gt;Node9 -->
<g id="edge8" class="edge">
<title>Node8&#45;&gt;Node9</title>
<path fill="none" stroke="midnightblue" d="M535,-379.03C510.84,-384.25 483.98,-390.06 460.68,-395.1"/>
<polygon fill="midnightblue" stroke="midnightblue" points="535.78,-382.44 544.82,-376.9 534.3,-375.6 535.78,-382.44"/>
</g>
<!-- Node11 -->
<g id="node11" class="node">
<title>Node11</title>
<g id="a_node11"><a xlink:href="../../de/db3/namespaceCompute.html#a26fcd23146e3ca00ed9eefc59c89c07a" target="_top" xlink:title="Solves a linear system using the Successive Over&#45;Relaxation (SOR) method.">
<polygon fill="white" stroke="black" points="139,-357.5 139,-376.5 252,-376.5 252,-357.5 139,-357.5"/>
<text text-anchor="middle" x="195.5" y="-364.5" font-family="Helvetica,sans-Serif" font-size="10.00">Compute::usingSOR</text>
</a>
</g>
</g>
<!-- Node8&#45;&gt;Node11 -->
<g id="edge10" class="edge">
<title>Node8&#45;&gt;Node11</title>
<path fill="none" stroke="midnightblue" d="M534.28,-364.52C454.36,-365.1 325.46,-366.05 252.16,-366.59"/>
<polygon fill="midnightblue" stroke="midnightblue" points="534.76,-368.01 544.74,-364.44 534.71,-361.01 534.76,-368.01"/>
</g>
<!-- Node10 -->
<g id="node10" class="node">
<title>Node10</title>
<g id="a_node10"><a xlink:href="../../de/db3/namespaceCompute.html#a0b405b6556f147fd5af6a277cccb5e65" target="_top" xlink:title="Solves a linear system using the Gauss&#45;Seidel method.">
<polygon fill="white" stroke="black" points="119,-398.5 119,-417.5 272,-417.5 272,-398.5 119,-398.5"/>
<text text-anchor="middle" x="195.5" y="-405.5" font-family="Helvetica,sans-Serif" font-size="10.00">Compute::usingGaussSeidel</text>
</a>
</g>
</g>
<!-- Node9&#45;&gt;Node10 -->
<g id="edge9" class="edge">
<title>Node9&#45;&gt;Node10</title>
<path fill="none" stroke="midnightblue" d="M329.3,-408C310.92,-408 290.99,-408 272.3,-408"/>
<polygon fill="midnightblue" stroke="midnightblue" points="329.34,-411.5 339.34,-408 329.34,-404.5 329.34,-411.5"/>
</g>
<!-- Node13 -->
<g id="node13" class="node">
<title>Node13</title>
<g id="a_node13"><a xlink:href="../../de/db3/namespaceCompute.html#a5a35addbdcdba218c82923bdc3ef7d93" target="_top" xlink:title="Solves a linear system using the Symmetric SOR method.">
<polygon fill="white" stroke="black" points="112,-314.5 112,-333.5 279,-333.5 279,-314.5 112,-314.5"/>
<text text-anchor="middle" x="195.5" y="-321.5" font-family="Helvetica,sans-Serif" font-size="10.00">Compute::usingSymmetricSOR</text>
</a>
</g>
</g>
<!-- Node12&#45;&gt;Node13 -->
<g id="edge12" class="edge">
<title>Node12&#45;&gt;Node13</title>
<path fill="none" stroke="midnightblue" d="M329.01,-321.38C313.01,-321.7 295.85,-322.04 279.37,-322.36"/>
<polygon fill="midnightblue" stroke="midnightblue" points="329.41,-324.88 339.34,-321.18 329.27,-317.88 329.41,-324.88"/>
</g>
<!-- Node16 -->
<g id="node16" class="node">
<title>Node16</title>
<g id="a_node16"><a xlink:href="../../d0/d7d/CheckBounds_8h.html#ab3e279562a8015a00f3befa5394b1d99" target="_top" xlink:title="Checks if the input value is a valid probability (between 0 and 1 inclusive).">
<polygon fill="white" stroke="black" points="340,-266.5 340,-285.5 460,-285.5 460,-266.5 340,-266.5"/>
<text text-anchor="middle" x="400" y="-273.5" font-family="Helvetica,sans-Serif" font-size="10.00">failsProbabilityCheck</text>
</a>
</g>
</g>
<!-- Node15&#45;&gt;Node16 -->
<g id="edge15" class="edge">
<title>Node15&#45;&gt;Node16</title>
<path fill="none" stroke="midnightblue" d="M533.87,-255.11C509.85,-258.88 483.26,-263.06 460.22,-266.69"/>
<polygon fill="midnightblue" stroke="midnightblue" points="534.66,-258.53 543.99,-253.51 533.57,-251.61 534.66,-258.53"/>
</g>
<!-- Node18 -->
<g id="node18" class="node">
<title>Node18</title>
<g id="a_node18"><a xlink:href="../../d0/d40/classParser.html#a123dc1be35999de898396ade606098f6" target="_top" xlink:title="Builds the input matrices for the MyBLAS library from a JSON file.">
<polygon fill="white" stroke="black" points="142,-209.5 142,-228.5 249,-228.5 249,-209.5 142,-209.5"/>
<text text-anchor="middle" x="195.5" y="-216.5" font-family="Helvetica,sans-Serif" font-size="10.00">Parser::buildInputs</text>
</a>
</g>
</g>
<!-- Node17&#45;&gt;Node18 -->
<g id="edge17" class="edge">
<title>Node17&#45;&gt;Node18</title>
<path fill="none" stroke="midnightblue" d="M541.77,-213C523.51,-215.47 503.5,-217.77 485,-219 402.79,-224.48 307.11,-222.92 249.21,-221.1"/>
<polygon fill="midnightblue" stroke="midnightblue" points="542.29,-216.46 551.71,-211.61 541.32,-209.52 542.29,-216.46"/>
</g>
<!-- Node19 -->
<g id="node19" class="node">
<title>Node19</title>
<g id="a_node19"><a xlink:href="../../d5/d7a/namespaceMyBLAS_1_1System.html#a487070ac751d33afa7f9fceaef312ea0" target="_top" xlink:title="This function generates a circuit with random resistances and currents, and computes the correspondin...">
<polygon fill="white" stroke="black" points="331.5,-190.5 331.5,-209.5 468.5,-209.5 468.5,-190.5 331.5,-190.5"/>
<text text-anchor="middle" x="400" y="-197.5" font-family="Helvetica,sans-Serif" font-size="10.00">MyBLAS::System::Circuit</text>
</a>
</g>
</g>
<!-- Node17&#45;&gt;Node19 -->
<g id="edge18" class="edge">
<title>Node17&#45;&gt;Node19</title>
<path fill="none" stroke="midnightblue" d="M541.79,-202.08C518.67,-201.73 492.37,-201.35 468.82,-201"/>
<polygon fill="midnightblue" stroke="midnightblue" points="541.78,-205.58 551.83,-202.22 541.88,-198.58 541.78,-205.58"/>
</g>
<!-- Node20 -->
<g id="node20" class="node">
<title>Node20</title>
<g id="a_node20"><a xlink:href="../../db/df1/Helpers_8h.html#adbb387f590a9aee9c19ca2752ec93a12" target="_top" xlink:title="This function fills a vector with evenly spaced values between a start and end value.">
<polygon fill="white" stroke="black" points="363,-152.5 363,-171.5 437,-171.5 437,-152.5 363,-152.5"/>
<text text-anchor="middle" x="400" y="-159.5" font-family="Helvetica,sans-Serif" font-size="10.00">fill_linspace</text>
</a>
</g>
</g>
<!-- Node17&#45;&gt;Node20 -->
<g id="edge20" class="edge">
<title>Node17&#45;&gt;Node20</title>
<path fill="none" stroke="midnightblue" d="M547.13,-191.44C511.81,-184.33 467.63,-175.42 437.15,-169.28"/>
<polygon fill="midnightblue" stroke="midnightblue" points="546.81,-194.95 557.3,-193.49 548.19,-188.08 546.81,-194.95"/>
</g>
<!-- Node19&#45;&gt;Node18 -->
<g id="edge19" class="edge">
<title>Node19&#45;&gt;Node18</title>
<path fill="none" stroke="midnightblue" d="M321.09,-207.31C297,-209.57 271.04,-212.01 249.09,-214.07"/>
<polygon fill="midnightblue" stroke="midnightblue" points="321.66,-210.77 331.29,-206.35 321.01,-203.8 321.66,-210.77"/>
</g>
<!-- Node20&#45;&gt;Node21 -->
<g id="edge21" class="edge">
<title>Node20&#45;&gt;Node21</title>
<path fill="none" stroke="midnightblue" d="M352.95,-153.36C321.45,-147.45 279.68,-139.61 247.22,-133.52"/>
<polygon fill="midnightblue" stroke="midnightblue" points="352.32,-156.8 362.8,-155.21 353.61,-149.92 352.32,-156.8"/>
</g>
<!-- Node23 -->
<g id="node23" class="node">
<title>Node23</title>
<g id="a_node23"><a xlink:href="../../d4/d63/classInLab2.html#aa21d4fafce339dc04b7171830300cb02" target="_top" xlink:title="This function is responsible for the main logic of the program.">
<polygon fill="white" stroke="black" points="160,-152.5 160,-171.5 231,-171.5 231,-152.5 160,-152.5"/>
<text text-anchor="middle" x="195.5" y="-159.5" font-family="Helvetica,sans-Serif" font-size="10.00">InLab2::run</text>
</a>
</g>
</g>
<!-- Node20&#45;&gt;Node23 -->
<g id="edge23" class="edge">
<title>Node20&#45;&gt;Node23</title>
<path fill="none" stroke="midnightblue" d="M352.75,-162C315.71,-162 264.58,-162 231.04,-162"/>
<polygon fill="midnightblue" stroke="midnightblue" points="352.8,-165.5 362.8,-162 352.8,-158.5 352.8,-165.5"/>
</g>
<!-- Node21&#45;&gt;Node22 -->
<g id="edge22" class="edge">
<title>Node21&#45;&gt;Node22</title>
<path fill="none" stroke="midnightblue" d="M127.69,-115.84C110.12,-113.69 91.79,-111.45 76.38,-109.57"/>
<polygon fill="midnightblue" stroke="midnightblue" points="127.57,-119.35 137.92,-117.09 128.42,-112.4 127.57,-119.35"/>
</g>
<!-- Node25 -->
<g id="node25" class="node">
<title>Node25</title>
<g id="a_node25"><a xlink:href="../../dd/d0e/classProfiler.html#a3079911f79afc765205a92c66c971b65" target="_top" xlink:title="Runs the function for profiling and summarizes the results.">
<polygon fill="white" stroke="black" points="363.5,-442.5 363.5,-461.5 436.5,-461.5 436.5,-442.5 363.5,-442.5"/>
<text text-anchor="middle" x="400" y="-449.5" font-family="Helvetica,sans-Serif" font-size="10.00">Profiler::run</text>
</a>
</g>
</g>
<!-- Node24&#45;&gt;Node25 -->
<g id="edge27" class="edge">
<title>Node24&#45;&gt;Node25</title>
<path fill="none" stroke="midnightblue" d="M550.47,-419.68C514.44,-427.47 468.08,-437.5 436.61,-444.3"/>
<polygon fill="midnightblue" stroke="midnightblue" points="551.31,-423.08 560.34,-417.55 549.83,-416.24 551.31,-423.08"/>
</g>
<!-- Node25&#45;&gt;Node6 -->
<g id="edge29" class="edge">
<title>Node25&#45;&gt;Node6</title>
<path fill="none" stroke="midnightblue" d="M353.29,-458.74C340.46,-461.72 326.8,-465.97 315,-472 296.2,-481.61 297.84,-493.46 279,-503 271.39,-506.85 263,-509.93 254.57,-512.39"/>
<polygon fill="midnightblue" stroke="midnightblue" points="354.3,-462.11 363.36,-456.61 352.85,-455.26 354.3,-462.11"/>
</g>
<!-- Node25&#45;&gt;Node7 -->
<g id="edge31" class="edge">
<title>Node25&#45;&gt;Node7</title>
<path fill="none" stroke="midnightblue" d="M353.18,-459.24C324.69,-463.74 287.74,-469.58 256.87,-474.46"/>
<polygon fill="midnightblue" stroke="midnightblue" points="353.93,-462.67 363.26,-457.65 352.84,-455.75 353.93,-462.67"/>
</g>
<!-- Node25&#45;&gt;Node10 -->
<g id="edge28" class="edge">
<title>Node25&#45;&gt;Node10</title>
<path fill="none" stroke="midnightblue" d="M353.18,-442.04C319.38,-434.7 273.67,-424.77 240.34,-417.53"/>
<polygon fill="midnightblue" stroke="midnightblue" points="352.75,-445.53 363.26,-444.23 354.23,-438.69 352.75,-445.53"/>
</g>
<!-- Node25&#45;&gt;Node11 -->
<g id="edge32" class="edge">
<title>Node25&#45;&gt;Node11</title>
<path fill="none" stroke="midnightblue" d="M352.92,-447.24C339.97,-444.44 326.34,-440.01 315,-433 293.51,-419.71 300.23,-402.7 279,-389 270.78,-383.7 261.31,-379.67 251.79,-376.6"/>
<polygon fill="midnightblue" stroke="midnightblue" points="352.63,-450.75 363.1,-449.15 353.92,-443.87 352.63,-450.75"/>
</g>
<!-- Node25&#45;&gt;Node13 -->
<g id="edge33" class="edge">
<title>Node25&#45;&gt;Node13</title>
<path fill="none" stroke="midnightblue" d="M353.28,-449.57C339.74,-446.89 325.7,-441.94 315,-433 283.52,-406.69 309.66,-375.26 279,-348 271.86,-341.66 263.14,-336.99 254.07,-333.55"/>
<polygon fill="midnightblue" stroke="midnightblue" points="353.04,-453.07 363.47,-451.2 354.15,-446.16 353.04,-453.07"/>
</g>
<!-- Node26 -->
<g id="node26" class="node">
<title>Node26</title>
<g id="a_node26"><a xlink:href="../../de/db3/namespaceCompute.html#ab494ff4a6113d5d6ab7b0783b9245942" target="_top" xlink:title="Solves a linear system using LUP decomposition.">
<polygon fill="white" stroke="black" points="139.5,-436.5 139.5,-455.5 251.5,-455.5 251.5,-436.5 139.5,-436.5"/>
<text text-anchor="middle" x="195.5" y="-443.5" font-family="Helvetica,sans-Serif" font-size="10.00">Compute::usingLUP</text>
</a>
</g>
</g>
<!-- Node25&#45;&gt;Node26 -->
<g id="edge30" class="edge">
<title>Node25&#45;&gt;Node26</title>
<path fill="none" stroke="midnightblue" d="M353.04,-450.64C322.97,-449.75 283.5,-448.58 251.72,-447.64"/>
<polygon fill="midnightblue" stroke="midnightblue" points="353.16,-454.14 363.26,-450.94 353.37,-447.15 353.16,-454.14"/>
</g>
</g>
</svg>
        <g id="navigator" transform="translate(0 0)" fill="#404254">
                <rect fill="#f2f5e9" fill-opacity="0.5" stroke="#606060" stroke-width=".5" x="0" y="0" width="60" height="60"/>
                <use id="zoomplus" xlink:href="#zoomPlus" x="17" y="9" onmousedown="handleZoom(evt,'in')"/>
                <use id="zoomminus" xlink:href="#zoomMin" x="42" y="9" onmousedown="handleZoom(evt,'out')"/>
                <use id="reset" xlink:href="#resetDef" x="30" y="36" onmousedown="handleReset()"/>
                <g id="arrowUp" xlink:href="#dirArrow" transform="translate(30 24)" onmousedown="handlePan(0,-1)">
                  <use xlink:href="#rim" fill="#404040">
                        <set attributeName="fill" to="#808080" begin="arrowUp.mouseover" end="arrowUp.mouseout"/>
                  </use>
                  <path fill="none" stroke="white" stroke-width="1.5" d="M0,-3.0v7 M-2.5,-0.5L0,-3.0L2.5,-0.5"/>
                </g>
                <g id="arrowRight" xlink:href="#dirArrow" transform="rotate(90) translate(36 -43)" onmousedown="handlePan(1,0)">
                  <use xlink:href="#rim" fill="#404040">
                        <set attributeName="fill" to="#808080" begin="arrowRight.mouseover" end="arrowRight.mouseout"/>
                  </use>
                  <path fill="none" stroke="white" stroke-width="1.5" d="M0,-3.0v7 M-2.5,-0.5L0,-3.0L2.5,-0.5"/>
                </g>
                <g id="arrowDown" xlink:href="#dirArrow" transform="rotate(180) translate(-30 -48)" onmousedown="handlePan(0,1)">
                  <use xlink:href="#rim" fill="#404040">
                        <set attributeName="fill" to="#808080" begin="arrowDown.mouseover" end="arrowDown.mouseout"/>
                  </use>
                  <path fill="none" stroke="white" stroke-width="1.5" d="M0,-3.0v7 M-2.5,-0.5L0,-3.0L2.5,-0.5"/>
                </g>
                <g id="arrowLeft" xlink:href="#dirArrow" transform="rotate(270) translate(-36 17)" onmousedown="handlePan(-1,0)">
                  <use xlink:href="#rim" fill="#404040">
                        <set attributeName="fill" to="#808080" begin="arrowLeft.mouseover" end="arrowLeft.mouseout"/>
                  </use>
                  <path fill="none" stroke="white" stroke-width="1.5" d="M0,-3.0v7 M-2.5,-0.5L0,-3.0L2.5,-0.5"/>
                </g>
        </g>
        <svg viewBox="0 0 15 15" width="100%" height="30px" preserveAspectRatio="xMaxYMin meet">
         <g id="arrow_out" transform="scale(0.3 0.3)">
          <a xlink:href="namespaceMyBLAS_1_1Stats_a403bf760cf802cddf8dd73e5d3e46a05_icgraph_org.svg" target="_base">
           <rect id="button" ry="5" rx="5" y="6" x="6" height="38" width="38"
                fill="#f2f5e9" fill-opacity="0.5" stroke="#606060" stroke-width="1.0"/>
           <path id="arrow"
             d="M 11.500037,31.436501 C 11.940474,20.09759 22.043105,11.32322 32.158766,21.979434 L 37.068811,17.246167 C 37.068811,17.246167 37.088388,32 37.088388,32 L 22.160133,31.978069 C 22.160133,31.978069 26.997745,27.140456 26.997745,27.140456 C 18.528582,18.264221 13.291696,25.230495 11.500037,31.436501 z"
             style="fill:#404040;"/>
          </a>
         </g>
        </svg>
</svg>
