<?xml version="1.0" encoding="UTF-8" standalone="no"?>
<!DOCTYPE svg PUBLIC "-//W3C//DTD SVG 1.1//EN"
 "http://www.w3.org/Graphics/SVG/1.1/DTD/svg11.dtd">
<!-- Generated by graphviz version 2.43.0 (0)
 -->
<!-- Title: MyBLAS::Stats::mean Pages: 1 -->
<!--zoomable 85 -->
<svg id="main" version="1.1" xmlns="http://www.w3.org/2000/svg" xmlns:xlink="http://www.w3.org/1999/xlink" xml:space="preserve" onload="init(evt)">
<style type="text/css"><![CDATA[
.edge:hover path { stroke: red; }
.edge:hover polygon { stroke: red; fill: red; }
]]></style>
<script type="text/javascript"><![CDATA[
var edges = document.getElementsByTagName('g');
if (edges && edges.length) {
  for (var i=0;i<edges.length;i++) {
    if (edges[i].id.substr(0,4)=='edge') {
      edges[i].setAttribute('class','edge');
    }
  }
}
]]></script>
        <defs>
                <circle id="rim" cx="0" cy="0" r="7"/>
                <circle id="rim2" cx="0" cy="0" r="3.5"/>
                <g id="zoomPlus">
                        <use xlink:href="#rim" fill="#404040">
                                <set attributeName="fill" to="#808080" begin="zoomplus.mouseover" end="zoomplus.mouseout"/>
                        </use>
                        <path d="M-4,0h8M0,-4v8" fill="none" stroke="white" stroke-width="1.5" pointer-events="none"/>
                </g>
                <g id="zoomMin">
                        <use xlink:href="#rim" fill="#404040">
                                <set attributeName="fill" to="#808080" begin="zoomminus.mouseover" end="zoomminus.mouseout"/>
                        </use>
                        <path d="M-4,0h8" fill="none" stroke="white" stroke-width="1.5" pointer-events="none"/>
                </g>
                <g id="dirArrow">
                        <path fill="none" stroke="white" stroke-width="1.5" d="M0,-3.0v7 M-2.5,-0.5L0,-3.0L2.5,-0.5"/>
                </g>
               <g id="resetDef">
                       <use xlink:href="#rim2" fill="#404040">
                               <set attributeName="fill" to="#808080" begin="reset.mouseover" end="reset.mouseout"/>
                       </use>
               </g>
        </defs>

<script type="text/javascript">
var viewWidth = 868;
var viewHeight = 85;
var sectionId = 'dynsection-6';
</script>
<script xlink:href="../../svgpan.js"/>
<svg id="graph" class="graph">
<g id="viewport">
<title>MyBLAS::Stats::mean</title>
<polygon fill="white" stroke="transparent" points="-4,4 -4,-81 864,-81 864,4 -4,4"/>
<!-- Node1 -->
<g id="node1" class="node">
<title>Node1</title>
<g id="a_node1"><a xlink:title="Function to find the mean value of a vector.">
<polygon fill="#bfbfbf" stroke="black" points="738,-57.5 738,-76.5 860,-76.5 860,-57.5 738,-57.5"/>
<text text-anchor="middle" x="799" y="-64.5" font-family="Helvetica,sans-Serif" font-size="10.00">MyBLAS::Stats::mean</text>
</a>
</g>
</g>
<!-- Node2 -->
<g id="node2" class="node">
<title>Node2</title>
<g id="a_node2"><a xlink:href="../../dd/d0e/classProfiler.html#a95b1ecdcfc06dedbd33127208aaceec6" target="_top" xlink:title="Summarizes the results of the profiling.">
<polygon fill="white" stroke="black" points="273,-38.5 273,-57.5 385,-57.5 385,-38.5 273,-38.5"/>
<text text-anchor="middle" x="329" y="-45.5" font-family="Helvetica,sans-Serif" font-size="10.00">Profiler::summarize</text>
</a>
</g>
</g>
<!-- Node1&#45;&gt;Node2 -->
<g id="edge1" class="edge">
<title>Node1&#45;&gt;Node2</title>
<path fill="none" stroke="midnightblue" d="M727.39,-69.44C651.51,-71.27 527.44,-71.99 421,-62 409.38,-60.91 396.99,-59.3 385.21,-57.56"/>
<polygon fill="midnightblue" stroke="midnightblue" points="727.86,-72.92 737.77,-69.17 727.68,-65.93 727.86,-72.92"/>
</g>
<!-- Node4 -->
<g id="node4" class="node">
<title>Node4</title>
<g id="a_node4"><a xlink:href="../../dd/df5/namespaceMyBLAS_1_1Stats.html#a92ae9af47614e45733834f28aeb48cce" target="_top" xlink:title="Function to find the variance of a vector.">
<polygon fill="white" stroke="black" points="566,-38.5 566,-57.5 702,-57.5 702,-38.5 566,-38.5"/>
<text text-anchor="middle" x="634" y="-45.5" font-family="Helvetica,sans-Serif" font-size="10.00">MyBLAS::Stats::variance</text>
</a>
</g>
</g>
<!-- Node1&#45;&gt;Node4 -->
<g id="edge3" class="edge">
<title>Node1&#45;&gt;Node4</title>
<path fill="none" stroke="midnightblue" d="M727.57,-58.79C719.13,-57.81 710.52,-56.8 702.12,-55.82"/>
<polygon fill="midnightblue" stroke="midnightblue" points="727.43,-62.3 737.77,-59.98 728.24,-55.34 727.43,-62.3"/>
</g>
<!-- Node3 -->
<g id="node3" class="node">
<title>Node3</title>
<g id="a_node3"><a xlink:href="../../dd/d0e/classProfiler.html#a3079911f79afc765205a92c66c971b65" target="_top" xlink:title="Runs the function for profiling and summarizes the results.">
<polygon fill="white" stroke="black" points="139.5,-38.5 139.5,-57.5 212.5,-57.5 212.5,-38.5 139.5,-38.5"/>
<text text-anchor="middle" x="176" y="-45.5" font-family="Helvetica,sans-Serif" font-size="10.00">Profiler::run</text>
</a>
</g>
</g>
<!-- Node2&#45;&gt;Node3 -->
<g id="edge2" class="edge">
<title>Node2&#45;&gt;Node3</title>
<path fill="none" stroke="midnightblue" d="M262.15,-48C245.13,-48 227.45,-48 212.64,-48"/>
<polygon fill="midnightblue" stroke="midnightblue" points="262.63,-51.5 272.63,-48 262.63,-44.5 262.63,-51.5"/>
</g>
<!-- Node4&#45;&gt;Node2 -->
<g id="edge9" class="edge">
<title>Node4&#45;&gt;Node2</title>
<path fill="none" stroke="midnightblue" d="M555.68,-48C502.5,-48 433.12,-48 385.4,-48"/>
<polygon fill="midnightblue" stroke="midnightblue" points="555.75,-51.5 565.75,-48 555.75,-44.5 555.75,-51.5"/>
</g>
<!-- Node5 -->
<g id="node5" class="node">
<title>Node5</title>
<g id="a_node5"><a xlink:href="../../dd/df5/namespaceMyBLAS_1_1Stats.html#a40e2fbe322f90c6e21d2a7727ab36076" target="_top" xlink:title="Function to find the standard deviation of a vector.">
<polygon fill="white" stroke="black" points="421,-0.5 421,-19.5 530,-19.5 530,-0.5 421,-0.5"/>
<text text-anchor="middle" x="475.5" y="-7.5" font-family="Helvetica,sans-Serif" font-size="10.00">MyBLAS::Stats::std</text>
</a>
</g>
</g>
<!-- Node4&#45;&gt;Node5 -->
<g id="edge4" class="edge">
<title>Node4&#45;&gt;Node5</title>
<path fill="none" stroke="midnightblue" d="M583.71,-36.03C561.78,-30.71 536.32,-24.52 515.71,-19.52"/>
<polygon fill="midnightblue" stroke="midnightblue" points="582.96,-39.45 593.51,-38.41 584.62,-32.65 582.96,-39.45"/>
</g>
<!-- Node5&#45;&gt;Node2 -->
<g id="edge8" class="edge">
<title>Node5&#45;&gt;Node2</title>
<path fill="none" stroke="midnightblue" d="M428.17,-22.18C408.11,-27.46 384.97,-33.54 366.2,-38.48"/>
<polygon fill="midnightblue" stroke="midnightblue" points="429.26,-25.52 438.04,-19.59 427.48,-18.75 429.26,-25.52"/>
</g>
<!-- Node6 -->
<g id="node6" class="node">
<title>Node6</title>
<g id="a_node6"><a xlink:href="../../db/df1/Helpers_8h.html#aa9cc598bda0c65cbfd14a4fde9bb245b" target="_top" xlink:title=" ">
<polygon fill="white" stroke="black" points="283,-0.5 283,-19.5 375,-19.5 375,-0.5 283,-0.5"/>
<text text-anchor="middle" x="329" y="-7.5" font-family="Helvetica,sans-Serif" font-size="10.00">formatMeanStd</text>
</a>
</g>
</g>
<!-- Node5&#45;&gt;Node6 -->
<g id="edge5" class="edge">
<title>Node5&#45;&gt;Node6</title>
<path fill="none" stroke="midnightblue" d="M410.41,-10C398.58,-10 386.46,-10 375.33,-10"/>
<polygon fill="midnightblue" stroke="midnightblue" points="410.69,-13.5 420.69,-10 410.69,-6.5 410.69,-13.5"/>
</g>
<!-- Node7 -->
<g id="node7" class="node">
<title>Node7</title>
<g id="a_node7"><a xlink:href="../../d0/d4c/classOutLab6.html#a770effb030dbdb45bcecb764ed75d455" target="_top" xlink:title="This function prints the results of the computation.">
<polygon fill="white" stroke="black" points="115,-0.5 115,-19.5 237,-19.5 237,-0.5 115,-0.5"/>
<text text-anchor="middle" x="176" y="-7.5" font-family="Helvetica,sans-Serif" font-size="10.00">OutLab6::printResults</text>
</a>
</g>
</g>
<!-- Node6&#45;&gt;Node7 -->
<g id="edge6" class="edge">
<title>Node6&#45;&gt;Node7</title>
<path fill="none" stroke="midnightblue" d="M272.36,-10C260.88,-10 248.73,-10 237.09,-10"/>
<polygon fill="midnightblue" stroke="midnightblue" points="272.7,-13.5 282.7,-10 272.69,-6.5 272.7,-13.5"/>
</g>
<!-- Node8 -->
<g id="node8" class="node">
<title>Node8</title>
<g id="a_node8"><a xlink:href="../../d0/d4c/classOutLab6.html#a901a1283fd029c9174f8469ac5cb3ad8" target="_top" xlink:title="This function runs the computation.">
<polygon fill="white" stroke="black" points="0,-0.5 0,-19.5 79,-19.5 79,-0.5 0,-0.5"/>
<text text-anchor="middle" x="39.5" y="-7.5" font-family="Helvetica,sans-Serif" font-size="10.00">OutLab6::run</text>
</a>
</g>
</g>
<!-- Node7&#45;&gt;Node8 -->
<g id="edge7" class="edge">
<title>Node7&#45;&gt;Node8</title>
<path fill="none" stroke="midnightblue" d="M104.81,-10C95.93,-10 87.12,-10 79,-10"/>
<polygon fill="midnightblue" stroke="midnightblue" points="104.83,-13.5 114.83,-10 104.83,-6.5 104.83,-13.5"/>
</g>
</g>
</svg>
        <g id="navigator" transform="translate(0 0)" fill="#404254">
                <rect fill="#f2f5e9" fill-opacity="0.5" stroke="#606060" stroke-width=".5" x="0" y="0" width="60" height="60"/>
                <use id="zoomplus" xlink:href="#zoomPlus" x="17" y="9" onmousedown="handleZoom(evt,'in')"/>
                <use id="zoomminus" xlink:href="#zoomMin" x="42" y="9" onmousedown="handleZoom(evt,'out')"/>
                <use id="reset" xlink:href="#resetDef" x="30" y="36" onmousedown="handleReset()"/>
                <g id="arrowUp" xlink:href="#dirArrow" transform="translate(30 24)" onmousedown="handlePan(0,-1)">
                  <use xlink:href="#rim" fill="#404040">
                        <set attributeName="fill" to="#808080" begin="arrowUp.mouseover" end="arrowUp.mouseout"/>
                  </use>
                  <path fill="none" stroke="white" stroke-width="1.5" d="M0,-3.0v7 M-2.5,-0.5L0,-3.0L2.5,-0.5"/>
                </g>
                <g id="arrowRight" xlink:href="#dirArrow" transform="rotate(90) translate(36 -43)" onmousedown="handlePan(1,0)">
                  <use xlink:href="#rim" fill="#404040">
                        <set attributeName="fill" to="#808080" begin="arrowRight.mouseover" end="arrowRight.mouseout"/>
                  </use>
                  <path fill="none" stroke="white" stroke-width="1.5" d="M0,-3.0v7 M-2.5,-0.5L0,-3.0L2.5,-0.5"/>
                </g>
                <g id="arrowDown" xlink:href="#dirArrow" transform="rotate(180) translate(-30 -48)" onmousedown="handlePan(0,1)">
                  <use xlink:href="#rim" fill="#404040">
                        <set attributeName="fill" to="#808080" begin="arrowDown.mouseover" end="arrowDown.mouseout"/>
                  </use>
                  <path fill="none" stroke="white" stroke-width="1.5" d="M0,-3.0v7 M-2.5,-0.5L0,-3.0L2.5,-0.5"/>
                </g>
                <g id="arrowLeft" xlink:href="#dirArrow" transform="rotate(270) translate(-36 17)" onmousedown="handlePan(-1,0)">
                  <use xlink:href="#rim" fill="#404040">
                        <set attributeName="fill" to="#808080" begin="arrowLeft.mouseover" end="arrowLeft.mouseout"/>
                  </use>
                  <path fill="none" stroke="white" stroke-width="1.5" d="M0,-3.0v7 M-2.5,-0.5L0,-3.0L2.5,-0.5"/>
                </g>
        </g>
        <svg viewBox="0 0 15 15" width="100%" height="30px" preserveAspectRatio="xMaxYMin meet">
         <g id="arrow_out" transform="scale(0.3 0.3)">
          <a xlink:href="namespaceMyBLAS_1_1Stats_a2d013f32ad1d6111d5d3e155758efa20_icgraph_org.svg" target="_base">
           <rect id="button" ry="5" rx="5" y="6" x="6" height="38" width="38"
                fill="#f2f5e9" fill-opacity="0.5" stroke="#606060" stroke-width="1.0"/>
           <path id="arrow"
             d="M 11.500037,31.436501 C 11.940474,20.09759 22.043105,11.32322 32.158766,21.979434 L 37.068811,17.246167 C 37.068811,17.246167 37.088388,32 37.088388,32 L 22.160133,31.978069 C 22.160133,31.978069 26.997745,27.140456 26.997745,27.140456 C 18.528582,18.264221 13.291696,25.230495 11.500037,31.436501 z"
             style="fill:#404040;"/>
          </a>
         </g>
        </svg>
</svg>
