<?xml version="1.0" encoding="UTF-8" standalone="no"?>
<!DOCTYPE svg PUBLIC "-//W3C//DTD SVG 1.1//EN"
 "http://www.w3.org/Graphics/SVG/1.1/DTD/svg11.dtd">
<!-- Generated by graphviz version 2.43.0 (0)
 -->
<!-- Title: MyBLAS::Stats::abs Pages: 1 -->
<!--zoomable 268 -->
<svg id="main" version="1.1" xmlns="http://www.w3.org/2000/svg" xmlns:xlink="http://www.w3.org/1999/xlink" xml:space="preserve" onload="init(evt)">
<style type="text/css"><![CDATA[
.edge:hover path { stroke: red; }
.edge:hover polygon { stroke: red; fill: red; }
]]></style>
<script type="text/javascript"><![CDATA[
var edges = document.getElementsByTagName('g');
if (edges && edges.length) {
  for (var i=0;i<edges.length;i++) {
    if (edges[i].id.substr(0,4)=='edge') {
      edges[i].setAttribute('class','edge');
    }
  }
}
]]></script>
        <defs>
                <circle id="rim" cx="0" cy="0" r="7"/>
                <circle id="rim2" cx="0" cy="0" r="3.5"/>
                <g id="zoomPlus">
                        <use xlink:href="#rim" fill="#404040">
                                <set attributeName="fill" to="#808080" begin="zoomplus.mouseover" end="zoomplus.mouseout"/>
                        </use>
                        <path d="M-4,0h8M0,-4v8" fill="none" stroke="white" stroke-width="1.5" pointer-events="none"/>
                </g>
                <g id="zoomMin">
                        <use xlink:href="#rim" fill="#404040">
                                <set attributeName="fill" to="#808080" begin="zoomminus.mouseover" end="zoomminus.mouseout"/>
                        </use>
                        <path d="M-4,0h8" fill="none" stroke="white" stroke-width="1.5" pointer-events="none"/>
                </g>
                <g id="dirArrow">
                        <path fill="none" stroke="white" stroke-width="1.5" d="M0,-3.0v7 M-2.5,-0.5L0,-3.0L2.5,-0.5"/>
                </g>
               <g id="resetDef">
                       <use xlink:href="#rim2" fill="#404040">
                               <set attributeName="fill" to="#808080" begin="reset.mouseover" end="reset.mouseout"/>
                       </use>
               </g>
        </defs>

<script type="text/javascript">
var viewWidth = 568;
var viewHeight = 268;
var sectionId = 'dynsection-2';
</script>
<script xlink:href="../../svgpan.js"/>
<svg id="graph" class="graph">
<g id="viewport">
<title>MyBLAS::Stats::abs</title>
<polygon fill="white" stroke="transparent" points="-4,4 -4,-264 564,-264 564,4 -4,4"/>
<!-- Node1 -->
<g id="node1" class="node">
<title>Node1</title>
<g id="a_node1"><a xlink:title="Function to find the absolute value of each element in a vector.">
<polygon fill="#bfbfbf" stroke="black" points="449,-114.5 449,-133.5 560,-133.5 560,-114.5 449,-114.5"/>
<text text-anchor="middle" x="504.5" y="-121.5" font-family="Helvetica,sans-Serif" font-size="10.00">MyBLAS::Stats::abs</text>
</a>
</g>
</g>
<!-- Node2 -->
<g id="node2" class="node">
<title>Node2</title>
<g id="a_node2"><a xlink:href="../../df/df1/structOutput.html#ae704800decdb8ea025e434e5d8ee2765" target="_top" xlink:title="Calculates the maximum residual of the solution.">
<polygon fill="white" stroke="black" points="276,-240.5 276,-259.5 410,-259.5 410,-240.5 276,-240.5"/>
<text text-anchor="middle" x="343" y="-247.5" font-family="Helvetica,sans-Serif" font-size="10.00">Output::getMaxResidual</text>
</a>
</g>
</g>
<!-- Node1&#45;&gt;Node2 -->
<g id="edge1" class="edge">
<title>Node1&#45;&gt;Node2</title>
<path fill="none" stroke="midnightblue" d="M491.9,-141.97C476.45,-164.58 447.06,-203.2 413,-226 403.83,-232.14 392.92,-236.88 382.52,-240.46"/>
<polygon fill="midnightblue" stroke="midnightblue" points="494.83,-143.88 497.47,-133.62 489.01,-140 494.83,-143.88"/>
</g>
<!-- Node5 -->
<g id="node5" class="node">
<title>Node5</title>
<g id="a_node5"><a xlink:href="../../df/df1/structOutput.html#a0412b8fd27d6e91551671da11cd8fe93" target="_top" xlink:title="Converts the output parameters to a JSON object.">
<polygon fill="white" stroke="black" points="131.5,-202.5 131.5,-221.5 220.5,-221.5 220.5,-202.5 131.5,-202.5"/>
<text text-anchor="middle" x="176" y="-209.5" font-family="Helvetica,sans-Serif" font-size="10.00">Output::toJSON</text>
</a>
</g>
</g>
<!-- Node1&#45;&gt;Node5 -->
<g id="edge13" class="edge">
<title>Node1&#45;&gt;Node5</title>
<path fill="none" stroke="midnightblue" d="M487.21,-140.83C470.33,-157.08 442.35,-180.8 413,-192 349.42,-216.26 269.41,-217.51 220.79,-215.36"/>
<polygon fill="midnightblue" stroke="midnightblue" points="489.92,-143.07 494.56,-133.55 484.99,-138.1 489.92,-143.07"/>
</g>
<!-- Node6 -->
<g id="node6" class="node">
<title>Node6</title>
<g id="a_node6"><a xlink:href="../../d7/db7/structMyBLAS_1_1Solver_1_1Solution.html#aabefa64c1aa71a7672183a4646ddee47" target="_top" xlink:title=" ">
<polygon fill="white" stroke="black" points="273,-153 273,-183 413,-183 413,-153 273,-153"/>
<text text-anchor="start" x="281" y="-171" font-family="Helvetica,sans-Serif" font-size="10.00">MyBLAS::Solver::Solution</text>
<text text-anchor="middle" x="343" y="-160" font-family="Helvetica,sans-Serif" font-size="10.00">::getMaxResidual</text>
</a>
</g>
</g>
<!-- Node1&#45;&gt;Node6 -->
<g id="edge5" class="edge">
<title>Node1&#45;&gt;Node6</title>
<path fill="none" stroke="midnightblue" d="M459.13,-136.24C440.38,-141.41 418.35,-147.49 398.61,-152.93"/>
<polygon fill="midnightblue" stroke="midnightblue" points="460.18,-139.58 468.89,-133.55 458.32,-132.83 460.18,-139.58"/>
</g>
<!-- Node9 -->
<g id="node9" class="node">
<title>Node9</title>
<g id="a_node9"><a xlink:href="../../df/df1/structOutput.html#a8c87cdac58f104e44a64d141d3e37978" target="_top" xlink:title=" ">
<polygon fill="white" stroke="black" points="282,-114.5 282,-133.5 404,-133.5 404,-114.5 282,-114.5"/>
<text text-anchor="middle" x="343" y="-121.5" font-family="Helvetica,sans-Serif" font-size="10.00">Output::max_residual</text>
</a>
</g>
</g>
<!-- Node1&#45;&gt;Node9 -->
<g id="edge9" class="edge">
<title>Node1&#45;&gt;Node9</title>
<path fill="none" stroke="midnightblue" d="M438.37,-124C427.06,-124 415.35,-124 404.18,-124"/>
<polygon fill="midnightblue" stroke="midnightblue" points="438.61,-127.5 448.61,-124 438.61,-120.5 438.61,-127.5"/>
</g>
<!-- Node10 -->
<g id="node10" class="node">
<title>Node10</title>
<g id="a_node10"><a xlink:href="../../d8/d5b/classOutLab4.html#af3d8d1b60ac7a85a1aabf6a3d511ecce" target="_top" xlink:title="This function runs the project.">
<polygon fill="white" stroke="black" points="303.5,-76.5 303.5,-95.5 382.5,-95.5 382.5,-76.5 303.5,-76.5"/>
<text text-anchor="middle" x="343" y="-83.5" font-family="Helvetica,sans-Serif" font-size="10.00">OutLab4::run</text>
</a>
</g>
</g>
<!-- Node1&#45;&gt;Node10 -->
<g id="edge10" class="edge">
<title>Node1&#45;&gt;Node10</title>
<path fill="none" stroke="midnightblue" d="M453.38,-112.06C430.51,-106.61 403.86,-100.26 382.59,-95.19"/>
<polygon fill="midnightblue" stroke="midnightblue" points="452.71,-115.5 463.25,-114.41 454.33,-108.69 452.71,-115.5"/>
</g>
<!-- Node11 -->
<g id="node11" class="node">
<title>Node11</title>
<g id="a_node11"><a xlink:href="../../d3/d1d/classOutLab5.html#aa1d5363426e0ce8f620d47c1b2aa2260" target="_top" xlink:title="This function runs the project.">
<polygon fill="white" stroke="black" points="303.5,-38.5 303.5,-57.5 382.5,-57.5 382.5,-38.5 303.5,-38.5"/>
<text text-anchor="middle" x="343" y="-45.5" font-family="Helvetica,sans-Serif" font-size="10.00">OutLab5::run</text>
</a>
</g>
</g>
<!-- Node1&#45;&gt;Node11 -->
<g id="edge11" class="edge">
<title>Node1&#45;&gt;Node11</title>
<path fill="none" stroke="midnightblue" d="M482.56,-108.31C464.83,-95.65 438.32,-78.17 413,-67 403.45,-62.79 392.74,-59.29 382.66,-56.5"/>
<polygon fill="midnightblue" stroke="midnightblue" points="480.84,-111.38 490.98,-114.43 484.95,-105.72 480.84,-111.38"/>
</g>
<!-- Node12 -->
<g id="node12" class="node">
<title>Node12</title>
<g id="a_node12"><a xlink:href="../../d8/ddb/classProject1.html#a41a4716fc32985fae5d32da6434b5516" target="_top" xlink:title="This function runs the project.">
<polygon fill="white" stroke="black" points="304,-0.5 304,-19.5 382,-19.5 382,-0.5 304,-0.5"/>
<text text-anchor="middle" x="343" y="-7.5" font-family="Helvetica,sans-Serif" font-size="10.00">Project1::run</text>
</a>
</g>
</g>
<!-- Node1&#45;&gt;Node12 -->
<g id="edge12" class="edge">
<title>Node1&#45;&gt;Node12</title>
<path fill="none" stroke="midnightblue" d="M491.15,-106.01C475.45,-84.51 446.35,-48.96 413,-29 403.62,-23.39 392.53,-19.39 382.02,-16.56"/>
<polygon fill="midnightblue" stroke="midnightblue" points="488.38,-108.15 497.03,-114.27 494.08,-104.1 488.38,-108.15"/>
</g>
<!-- Node3 -->
<g id="node3" class="node">
<title>Node3</title>
<g id="a_node3"><a xlink:href="../../d1/d8c/classInLab6.html#af49f9da28a843417e9144f047689eecb" target="_top" xlink:title="This function prints the results of the computation.">
<polygon fill="white" stroke="black" points="119.5,-240.5 119.5,-259.5 232.5,-259.5 232.5,-240.5 119.5,-240.5"/>
<text text-anchor="middle" x="176" y="-247.5" font-family="Helvetica,sans-Serif" font-size="10.00">InLab6::printResults</text>
</a>
</g>
</g>
<!-- Node2&#45;&gt;Node3 -->
<g id="edge2" class="edge">
<title>Node2&#45;&gt;Node3</title>
<path fill="none" stroke="midnightblue" d="M265.66,-250C254.51,-250 243.21,-250 232.57,-250"/>
<polygon fill="midnightblue" stroke="midnightblue" points="265.84,-253.5 275.84,-250 265.84,-246.5 265.84,-253.5"/>
</g>
<!-- Node2&#45;&gt;Node5 -->
<g id="edge4" class="edge">
<title>Node2&#45;&gt;Node5</title>
<path fill="none" stroke="midnightblue" d="M290.35,-238.1C267.15,-232.76 240.16,-226.55 218.34,-221.52"/>
<polygon fill="midnightblue" stroke="midnightblue" points="289.83,-241.58 300.36,-240.41 291.4,-234.76 289.83,-241.58"/>
</g>
<!-- Node4 -->
<g id="node4" class="node">
<title>Node4</title>
<g id="a_node4"><a xlink:href="../../d1/d8c/classInLab6.html#a55667f27b7ba522dd4288f18d16c9f8d" target="_top" xlink:title="This function runs the project.">
<polygon fill="white" stroke="black" points="4,-240.5 4,-259.5 75,-259.5 75,-240.5 4,-240.5"/>
<text text-anchor="middle" x="39.5" y="-247.5" font-family="Helvetica,sans-Serif" font-size="10.00">InLab6::run</text>
</a>
</g>
</g>
<!-- Node3&#45;&gt;Node4 -->
<g id="edge3" class="edge">
<title>Node3&#45;&gt;Node4</title>
<path fill="none" stroke="midnightblue" d="M108.94,-250C97.29,-250 85.6,-250 75.25,-250"/>
<polygon fill="midnightblue" stroke="midnightblue" points="109.13,-253.5 119.13,-250 109.13,-246.5 109.13,-253.5"/>
</g>
<!-- Node6&#45;&gt;Node5 -->
<g id="edge8" class="edge">
<title>Node6&#45;&gt;Node5</title>
<path fill="none" stroke="midnightblue" d="M275.93,-185.62C254.42,-191.35 231.36,-197.5 212.92,-202.42"/>
<polygon fill="midnightblue" stroke="midnightblue" points="276.92,-188.98 285.68,-183.02 275.11,-182.21 276.92,-188.98"/>
</g>
<!-- Node7 -->
<g id="node7" class="node">
<title>Node7</title>
<g id="a_node7"><a xlink:href="../../d0/d4c/classOutLab6.html#a770effb030dbdb45bcecb764ed75d455" target="_top" xlink:title="This function prints the results of the computation.">
<polygon fill="white" stroke="black" points="115,-158.5 115,-177.5 237,-177.5 237,-158.5 115,-158.5"/>
<text text-anchor="middle" x="176" y="-165.5" font-family="Helvetica,sans-Serif" font-size="10.00">OutLab6::printResults</text>
</a>
</g>
</g>
<!-- Node6&#45;&gt;Node7 -->
<g id="edge6" class="edge">
<title>Node6&#45;&gt;Node7</title>
<path fill="none" stroke="midnightblue" d="M262.85,-168C254.19,-168 245.47,-168 237.09,-168"/>
<polygon fill="midnightblue" stroke="midnightblue" points="262.98,-171.5 272.98,-168 262.98,-164.5 262.98,-171.5"/>
</g>
<!-- Node8 -->
<g id="node8" class="node">
<title>Node8</title>
<g id="a_node8"><a xlink:href="../../d0/d4c/classOutLab6.html#a901a1283fd029c9174f8469ac5cb3ad8" target="_top" xlink:title="This function runs the computation.">
<polygon fill="white" stroke="black" points="0,-158.5 0,-177.5 79,-177.5 79,-158.5 0,-158.5"/>
<text text-anchor="middle" x="39.5" y="-165.5" font-family="Helvetica,sans-Serif" font-size="10.00">OutLab6::run</text>
</a>
</g>
</g>
<!-- Node7&#45;&gt;Node8 -->
<g id="edge7" class="edge">
<title>Node7&#45;&gt;Node8</title>
<path fill="none" stroke="midnightblue" d="M104.81,-168C95.93,-168 87.12,-168 79,-168"/>
<polygon fill="midnightblue" stroke="midnightblue" points="104.83,-171.5 114.83,-168 104.83,-164.5 104.83,-171.5"/>
</g>
</g>
</svg>
        <g id="navigator" transform="translate(0 0)" fill="#404254">
                <rect fill="#f2f5e9" fill-opacity="0.5" stroke="#606060" stroke-width=".5" x="0" y="0" width="60" height="60"/>
                <use id="zoomplus" xlink:href="#zoomPlus" x="17" y="9" onmousedown="handleZoom(evt,'in')"/>
                <use id="zoomminus" xlink:href="#zoomMin" x="42" y="9" onmousedown="handleZoom(evt,'out')"/>
                <use id="reset" xlink:href="#resetDef" x="30" y="36" onmousedown="handleReset()"/>
                <g id="arrowUp" xlink:href="#dirArrow" transform="translate(30 24)" onmousedown="handlePan(0,-1)">
                  <use xlink:href="#rim" fill="#404040">
                        <set attributeName="fill" to="#808080" begin="arrowUp.mouseover" end="arrowUp.mouseout"/>
                  </use>
                  <path fill="none" stroke="white" stroke-width="1.5" d="M0,-3.0v7 M-2.5,-0.5L0,-3.0L2.5,-0.5"/>
                </g>
                <g id="arrowRight" xlink:href="#dirArrow" transform="rotate(90) translate(36 -43)" onmousedown="handlePan(1,0)">
                  <use xlink:href="#rim" fill="#404040">
                        <set attributeName="fill" to="#808080" begin="arrowRight.mouseover" end="arrowRight.mouseout"/>
                  </use>
                  <path fill="none" stroke="white" stroke-width="1.5" d="M0,-3.0v7 M-2.5,-0.5L0,-3.0L2.5,-0.5"/>
                </g>
                <g id="arrowDown" xlink:href="#dirArrow" transform="rotate(180) translate(-30 -48)" onmousedown="handlePan(0,1)">
                  <use xlink:href="#rim" fill="#404040">
                        <set attributeName="fill" to="#808080" begin="arrowDown.mouseover" end="arrowDown.mouseout"/>
                  </use>
                  <path fill="none" stroke="white" stroke-width="1.5" d="M0,-3.0v7 M-2.5,-0.5L0,-3.0L2.5,-0.5"/>
                </g>
                <g id="arrowLeft" xlink:href="#dirArrow" transform="rotate(270) translate(-36 17)" onmousedown="handlePan(-1,0)">
                  <use xlink:href="#rim" fill="#404040">
                        <set attributeName="fill" to="#808080" begin="arrowLeft.mouseover" end="arrowLeft.mouseout"/>
                  </use>
                  <path fill="none" stroke="white" stroke-width="1.5" d="M0,-3.0v7 M-2.5,-0.5L0,-3.0L2.5,-0.5"/>
                </g>
        </g>
        <svg viewBox="0 0 15 15" width="100%" height="30px" preserveAspectRatio="xMaxYMin meet">
         <g id="arrow_out" transform="scale(0.3 0.3)">
          <a xlink:href="namespaceMyBLAS_1_1Stats_afeaf3b7bba0ff1b952b35d0effc0bca9_icgraph_org.svg" target="_base">
           <rect id="button" ry="5" rx="5" y="6" x="6" height="38" width="38"
                fill="#f2f5e9" fill-opacity="0.5" stroke="#606060" stroke-width="1.0"/>
           <path id="arrow"
             d="M 11.500037,31.436501 C 11.940474,20.09759 22.043105,11.32322 32.158766,21.979434 L 37.068811,17.246167 C 37.068811,17.246167 37.088388,32 37.088388,32 L 22.160133,31.978069 C 22.160133,31.978069 26.997745,27.140456 26.997745,27.140456 C 18.528582,18.264221 13.291696,25.230495 11.500037,31.436501 z"
             style="fill:#404040;"/>
          </a>
         </g>
        </svg>
</svg>
