<?xml version="1.0" encoding="UTF-8" standalone="no"?>
<!DOCTYPE svg PUBLIC "-//W3C//DTD SVG 1.1//EN"
 "http://www.w3.org/Graphics/SVG/1.1/DTD/svg11.dtd">
<!-- Generated by graphviz version 2.43.0 (0)
 -->
<!-- Title: src/labs/inlab1/main.cpp Pages: 1 -->
<svg width="909pt" height="364pt"
 viewBox="0.00 0.00 909.00 364.00" xmlns="http://www.w3.org/2000/svg" xmlns:xlink="http://www.w3.org/1999/xlink">
<g id="graph0" class="graph" transform="scale(1 1) rotate(0) translate(4 360)">
<title>src/labs/inlab1/main.cpp</title>
<polygon fill="white" stroke="transparent" points="-4,4 -4,-360 905,-360 905,4 -4,4"/>
<!-- Node1 -->
<g id="node1" class="node">
<title>Node1</title>
<g id="a_node1"><a xlink:title=" ">
<polygon fill="#bfbfbf" stroke="black" points="194.5,-336.5 194.5,-355.5 329.5,-355.5 329.5,-336.5 194.5,-336.5"/>
<text text-anchor="middle" x="262" y="-343.5" font-family="Helvetica,sans-Serif" font-size="10.00">src/labs/inlab1/main.cpp</text>
</a>
</g>
</g>
<!-- Node2 -->
<g id="node2" class="node">
<title>Node2</title>
<g id="a_node2"><a xlink:href="../../d9/d41/CommandLine_8h.html" target="_top" xlink:title="This file contains the definition of the CommandLine class and the HeaderInfo struct.">
<polygon fill="white" stroke="black" points="201,-112.5 201,-131.5 297,-131.5 297,-112.5 201,-112.5"/>
<text text-anchor="middle" x="249" y="-119.5" font-family="Helvetica,sans-Serif" font-size="10.00">CommandLine.h</text>
</a>
</g>
</g>
<!-- Node1&#45;&gt;Node2 -->
<g id="edge1" class="edge">
<title>Node1&#45;&gt;Node2</title>
<path fill="none" stroke="midnightblue" d="M254.2,-336.3C234.63,-313.8 183.75,-251.04 166,-188 163.59,-179.44 161.45,-175.64 166,-168 175.1,-152.72 191.39,-142.31 207.14,-135.39"/>
<polygon fill="midnightblue" stroke="midnightblue" points="208.83,-138.48 216.82,-131.51 206.23,-131.98 208.83,-138.48"/>
</g>
<!-- Node11 -->
<g id="node11" class="node">
<title>Node11</title>
<g id="a_node11"><a xlink:href="../../df/d53/inlab1_8h.html" target="_top" xlink:title=" ">
<polygon fill="white" stroke="black" points="381,-280.5 381,-299.5 437,-299.5 437,-280.5 381,-280.5"/>
<text text-anchor="middle" x="409" y="-287.5" font-family="Helvetica,sans-Serif" font-size="10.00">inlab1.h</text>
</a>
</g>
</g>
<!-- Node1&#45;&gt;Node11 -->
<g id="edge12" class="edge">
<title>Node1&#45;&gt;Node11</title>
<path fill="none" stroke="midnightblue" d="M285.29,-336.44C309.81,-327.44 348.6,-313.19 376.2,-303.05"/>
<polygon fill="midnightblue" stroke="midnightblue" points="377.64,-306.25 385.82,-299.52 375.22,-299.68 377.64,-306.25"/>
</g>
<!-- Node3 -->
<g id="node3" class="node">
<title>Node3</title>
<g id="a_node3"><a xlink:href="../../db/df1/Helpers_8h.html" target="_top" xlink:title="This file contains helper functions and structures used throughout the program.">
<polygon fill="white" stroke="black" points="351.5,-56.5 351.5,-75.5 414.5,-75.5 414.5,-56.5 351.5,-56.5"/>
<text text-anchor="middle" x="383" y="-63.5" font-family="Helvetica,sans-Serif" font-size="10.00">Helpers.h</text>
</a>
</g>
</g>
<!-- Node2&#45;&gt;Node3 -->
<g id="edge2" class="edge">
<title>Node2&#45;&gt;Node3</title>
<path fill="none" stroke="midnightblue" d="M270.23,-112.44C292.38,-103.52 327.32,-89.44 352.44,-79.32"/>
<polygon fill="midnightblue" stroke="midnightblue" points="353.9,-82.5 361.87,-75.52 351.28,-76.01 353.9,-82.5"/>
</g>
<!-- Node5 -->
<g id="node5" class="node">
<title>Node5</title>
<g id="a_node5"><a xlink:title=" ">
<polygon fill="white" stroke="#bfbfbf" points="437,-0.5 437,-19.5 497,-19.5 497,-0.5 437,-0.5"/>
<text text-anchor="middle" x="467" y="-7.5" font-family="Helvetica,sans-Serif" font-size="10.00">iostream</text>
</a>
</g>
</g>
<!-- Node2&#45;&gt;Node5 -->
<g id="edge10" class="edge">
<title>Node2&#45;&gt;Node5</title>
<path fill="none" stroke="midnightblue" d="M259.29,-112.42C275.85,-98.95 309.81,-72.67 342,-56 369.3,-41.86 402.07,-30.25 427.2,-22.36"/>
<polygon fill="midnightblue" stroke="midnightblue" points="428.24,-25.7 436.77,-19.42 426.19,-19.01 428.24,-25.7"/>
</g>
<!-- Node8 -->
<g id="node8" class="node">
<title>Node8</title>
<g id="a_node8"><a xlink:title=" ">
<polygon fill="white" stroke="#bfbfbf" points="0,-0.5 0,-19.5 150,-19.5 150,-0.5 0,-0.5"/>
<text text-anchor="middle" x="75" y="-7.5" font-family="Helvetica,sans-Serif" font-size="10.00">boost/program_options.hpp</text>
</a>
</g>
</g>
<!-- Node2&#45;&gt;Node8 -->
<g id="edge9" class="edge">
<title>Node2&#45;&gt;Node8</title>
<path fill="none" stroke="midnightblue" d="M214.36,-112.47C189.87,-105.34 157.08,-93.49 132,-76 113.42,-63.04 96.93,-42.77 86.53,-28.31"/>
<polygon fill="midnightblue" stroke="midnightblue" points="89.19,-26 80.61,-19.78 83.44,-29.99 89.19,-26"/>
</g>
<!-- Node9 -->
<g id="node9" class="node">
<title>Node9</title>
<g id="a_node9"><a xlink:title=" ">
<polygon fill="white" stroke="#bfbfbf" points="203,-56.5 203,-75.5 295,-75.5 295,-56.5 203,-56.5"/>
<text text-anchor="middle" x="249" y="-63.5" font-family="Helvetica,sans-Serif" font-size="10.00">project&#45;config.h</text>
</a>
</g>
</g>
<!-- Node2&#45;&gt;Node9 -->
<g id="edge8" class="edge">
<title>Node2&#45;&gt;Node9</title>
<path fill="none" stroke="midnightblue" d="M249,-112.08C249,-105.01 249,-94.86 249,-85.99"/>
<polygon fill="midnightblue" stroke="midnightblue" points="252.5,-85.75 249,-75.75 245.5,-85.75 252.5,-85.75"/>
</g>
<!-- Node10 -->
<g id="node10" class="node">
<title>Node10</title>
<g id="a_node10"><a xlink:title=" ">
<polygon fill="white" stroke="#bfbfbf" points="141,-56.5 141,-75.5 185,-75.5 185,-56.5 141,-56.5"/>
<text text-anchor="middle" x="163" y="-63.5" font-family="Helvetica,sans-Serif" font-size="10.00">string</text>
</a>
</g>
</g>
<!-- Node2&#45;&gt;Node10 -->
<g id="edge11" class="edge">
<title>Node2&#45;&gt;Node10</title>
<path fill="none" stroke="midnightblue" d="M235.18,-112.32C221.77,-103.9 201.18,-90.97 185.41,-81.07"/>
<polygon fill="midnightblue" stroke="midnightblue" points="187.11,-78.01 176.78,-75.65 183.39,-83.94 187.11,-78.01"/>
</g>
<!-- Node4 -->
<g id="node4" class="node">
<title>Node4</title>
<g id="a_node4"><a xlink:title=" ">
<polygon fill="white" stroke="#bfbfbf" points="739,-0.5 739,-19.5 795,-19.5 795,-0.5 739,-0.5"/>
<text text-anchor="middle" x="767" y="-7.5" font-family="Helvetica,sans-Serif" font-size="10.00">iomanip</text>
</a>
</g>
</g>
<!-- Node3&#45;&gt;Node4 -->
<g id="edge3" class="edge">
<title>Node3&#45;&gt;Node4</title>
<path fill="none" stroke="midnightblue" d="M414.75,-60.54C484.94,-50.66 653.07,-27.02 728.83,-16.37"/>
<polygon fill="midnightblue" stroke="midnightblue" points="729.48,-19.81 738.89,-14.95 728.5,-12.88 729.48,-19.81"/>
</g>
<!-- Node3&#45;&gt;Node5 -->
<g id="edge4" class="edge">
<title>Node3&#45;&gt;Node5</title>
<path fill="none" stroke="midnightblue" d="M396.5,-56.32C409.6,-47.9 429.71,-34.97 445.11,-25.07"/>
<polygon fill="midnightblue" stroke="midnightblue" points="447.02,-28.01 453.54,-19.65 443.23,-22.12 447.02,-28.01"/>
</g>
<!-- Node6 -->
<g id="node6" class="node">
<title>Node6</title>
<g id="a_node6"><a xlink:title=" ">
<polygon fill="white" stroke="#bfbfbf" points="368,-0.5 368,-19.5 412,-19.5 412,-0.5 368,-0.5"/>
<text text-anchor="middle" x="390" y="-7.5" font-family="Helvetica,sans-Serif" font-size="10.00">limits</text>
</a>
</g>
</g>
<!-- Node3&#45;&gt;Node6 -->
<g id="edge5" class="edge">
<title>Node3&#45;&gt;Node6</title>
<path fill="none" stroke="midnightblue" d="M384.16,-56.08C385.08,-48.93 386.42,-38.64 387.58,-29.69"/>
<polygon fill="midnightblue" stroke="midnightblue" points="391.05,-30.12 388.87,-19.75 384.11,-29.22 391.05,-30.12"/>
</g>
<!-- Node7 -->
<g id="node7" class="node">
<title>Node7</title>
<g id="a_node7"><a xlink:title=" ">
<polygon fill="white" stroke="#bfbfbf" points="292,-0.5 292,-19.5 350,-19.5 350,-0.5 292,-0.5"/>
<text text-anchor="middle" x="321" y="-7.5" font-family="Helvetica,sans-Serif" font-size="10.00">json.hpp</text>
</a>
</g>
</g>
<!-- Node3&#45;&gt;Node7 -->
<g id="edge6" class="edge">
<title>Node3&#45;&gt;Node7</title>
<path fill="none" stroke="midnightblue" d="M373.04,-56.32C363.87,-48.34 350.06,-36.31 338.97,-26.65"/>
<polygon fill="midnightblue" stroke="midnightblue" points="340.98,-23.76 331.14,-19.83 336.38,-29.04 340.98,-23.76"/>
</g>
<!-- Node3&#45;&gt;Node8 -->
<g id="edge7" class="edge">
<title>Node3&#45;&gt;Node8</title>
<path fill="none" stroke="midnightblue" d="M351.49,-59.47C300.33,-50.51 198.43,-32.64 133.65,-21.28"/>
<polygon fill="midnightblue" stroke="midnightblue" points="134.04,-17.8 123.59,-19.52 132.83,-24.69 134.04,-17.8"/>
</g>
<!-- Node11&#45;&gt;Node2 -->
<g id="edge29" class="edge">
<title>Node11&#45;&gt;Node2</title>
<path fill="none" stroke="midnightblue" d="M400.87,-280.46C381.99,-260.65 333.69,-210.02 293,-168 283.57,-158.26 272.95,-147.4 264.51,-138.78"/>
<polygon fill="midnightblue" stroke="midnightblue" points="266.96,-136.29 257.46,-131.6 261.97,-141.19 266.96,-136.29"/>
</g>
<!-- Node11&#45;&gt;Node3 -->
<g id="edge30" class="edge">
<title>Node11&#45;&gt;Node3</title>
<path fill="none" stroke="midnightblue" d="M407.98,-280.3C404.16,-247.63 390.6,-131.87 385.22,-85.96"/>
<polygon fill="midnightblue" stroke="midnightblue" points="388.68,-85.41 384.04,-75.88 381.73,-86.22 388.68,-85.41"/>
</g>
<!-- Node11&#45;&gt;Node4 -->
<g id="edge14" class="edge">
<title>Node11&#45;&gt;Node4</title>
<path fill="none" stroke="midnightblue" d="M437.22,-288.77C541.76,-287.18 901,-274.73 901,-179 901,-179 901,-179 901,-121 901,-70.39 843.2,-38.81 803.52,-23.09"/>
<polygon fill="midnightblue" stroke="midnightblue" points="804.71,-19.8 794.12,-19.53 802.23,-26.35 804.71,-19.8"/>
</g>
<!-- Node11&#45;&gt;Node5 -->
<g id="edge15" class="edge">
<title>Node11&#45;&gt;Node5</title>
<path fill="none" stroke="midnightblue" d="M422.07,-280.39C444.73,-264.75 491.26,-229.46 516,-188 529.2,-165.87 527.64,-157.55 531,-132 532.16,-123.19 533.48,-120.54 531,-112 521.37,-78.81 497.19,-46.07 481.47,-27.23"/>
<polygon fill="midnightblue" stroke="midnightblue" points="484.09,-24.91 474.92,-19.6 478.78,-29.47 484.09,-24.91"/>
</g>
<!-- Node11&#45;&gt;Node8 -->
<g id="edge16" class="edge">
<title>Node11&#45;&gt;Node8</title>
<path fill="none" stroke="midnightblue" d="M380.99,-286.35C298.76,-277.91 61.14,-248.57 19,-188 -16.99,-136.27 34.67,-60.31 61.08,-27.3"/>
<polygon fill="midnightblue" stroke="midnightblue" points="63.82,-29.48 67.47,-19.53 58.42,-25.03 63.82,-29.48"/>
</g>
<!-- Node12 -->
<g id="node12" class="node">
<title>Node12</title>
<g id="a_node12"><a xlink:title=" ">
<polygon fill="white" stroke="#bfbfbf" points="563.5,-168.5 563.5,-187.5 628.5,-187.5 628.5,-168.5 563.5,-168.5"/>
<text text-anchor="middle" x="596" y="-175.5" font-family="Helvetica,sans-Serif" font-size="10.00">functional</text>
</a>
</g>
</g>
<!-- Node11&#45;&gt;Node12 -->
<g id="edge13" class="edge">
<title>Node11&#45;&gt;Node12</title>
<path fill="none" stroke="midnightblue" d="M437.12,-285.27C467.19,-280.15 515.12,-268.6 549,-244 566.03,-231.64 579.33,-211.22 587.37,-196.56"/>
<polygon fill="midnightblue" stroke="midnightblue" points="590.57,-198 592.08,-187.51 584.36,-194.77 590.57,-198"/>
</g>
<!-- Node13 -->
<g id="node13" class="node">
<title>Node13</title>
<g id="a_node13"><a xlink:href="../../d7/d64/labs_2inlab1_2Compute_8h.html" target="_top" xlink:title="Compute methods for inlab1 in NE591&#45;008.">
<polygon fill="white" stroke="black" points="437,-168.5 437,-187.5 507,-187.5 507,-168.5 437,-168.5"/>
<text text-anchor="middle" x="472" y="-175.5" font-family="Helvetica,sans-Serif" font-size="10.00">Compute.h</text>
</a>
</g>
</g>
<!-- Node11&#45;&gt;Node13 -->
<g id="edge17" class="edge">
<title>Node11&#45;&gt;Node13</title>
<path fill="none" stroke="midnightblue" d="M413.94,-280.37C424.29,-262.3 448.42,-220.18 462.09,-196.31"/>
<polygon fill="midnightblue" stroke="midnightblue" points="465.15,-198.01 467.08,-187.59 459.07,-194.53 465.15,-198.01"/>
</g>
<!-- Node15 -->
<g id="node15" class="node">
<title>Node15</title>
<g id="a_node15"><a xlink:href="../../dc/d59/labs_2inlab1_2Parser_8h.html" target="_top" xlink:title=" ">
<polygon fill="white" stroke="black" points="258.5,-224.5 258.5,-243.5 313.5,-243.5 313.5,-224.5 258.5,-224.5"/>
<text text-anchor="middle" x="286" y="-231.5" font-family="Helvetica,sans-Serif" font-size="10.00">Parser.h</text>
</a>
</g>
</g>
<!-- Node11&#45;&gt;Node15 -->
<g id="edge21" class="edge">
<title>Node11&#45;&gt;Node15</title>
<path fill="none" stroke="midnightblue" d="M389.51,-280.44C369.36,-271.6 337.68,-257.69 314.67,-247.59"/>
<polygon fill="midnightblue" stroke="midnightblue" points="315.96,-244.33 305.4,-243.52 313.15,-250.74 315.96,-244.33"/>
</g>
<!-- Node16 -->
<g id="node16" class="node">
<title>Node16</title>
<g id="a_node16"><a xlink:href="../../d0/d7d/CheckBounds_8h.html" target="_top" xlink:title="This file contains the declaration of functions for checking the validity of input parameters.">
<polygon fill="white" stroke="black" points="175,-168.5 175,-187.5 267,-187.5 267,-168.5 175,-168.5"/>
<text text-anchor="middle" x="221" y="-175.5" font-family="Helvetica,sans-Serif" font-size="10.00">CheckBounds.h</text>
</a>
</g>
</g>
<!-- Node11&#45;&gt;Node16 -->
<g id="edge28" class="edge">
<title>Node11&#45;&gt;Node16</title>
<path fill="none" stroke="midnightblue" d="M380.99,-288.23C346.08,-285.82 286.45,-276.79 249,-244 235.3,-232 228.08,-212.11 224.42,-197.48"/>
<polygon fill="midnightblue" stroke="midnightblue" points="227.81,-196.58 222.28,-187.55 220.97,-198.06 227.81,-196.58"/>
</g>
<!-- Node17 -->
<g id="node17" class="node">
<title>Node17</title>
<g id="a_node17"><a xlink:href="../../df/d69/Profiler_8h.html" target="_top" xlink:title="This file contains helper classes and functions for profiling and random number generation.">
<polygon fill="white" stroke="black" points="669.5,-224.5 669.5,-243.5 728.5,-243.5 728.5,-224.5 669.5,-224.5"/>
<text text-anchor="middle" x="699" y="-231.5" font-family="Helvetica,sans-Serif" font-size="10.00">Profiler.h</text>
</a>
</g>
</g>
<!-- Node11&#45;&gt;Node17 -->
<g id="edge31" class="edge">
<title>Node11&#45;&gt;Node17</title>
<path fill="none" stroke="midnightblue" d="M437.07,-283.77C488.83,-274.13 599.45,-253.54 659.03,-242.44"/>
<polygon fill="midnightblue" stroke="midnightblue" points="660,-245.82 669.19,-240.55 658.72,-238.94 660,-245.82"/>
</g>
<!-- Node19 -->
<g id="node19" class="node">
<title>Node19</title>
<g id="a_node19"><a xlink:href="../../d4/d2e/Stopwatch_8h.html" target="_top" xlink:title="This file contains the Stopwatch class which is a utility for measuring time durations in various uni...">
<polygon fill="white" stroke="black" points="795.5,-168.5 795.5,-187.5 872.5,-187.5 872.5,-168.5 795.5,-168.5"/>
<text text-anchor="middle" x="834" y="-175.5" font-family="Helvetica,sans-Serif" font-size="10.00">Stopwatch.h</text>
</a>
</g>
</g>
<!-- Node11&#45;&gt;Node19 -->
<g id="edge42" class="edge">
<title>Node11&#45;&gt;Node19</title>
<path fill="none" stroke="midnightblue" d="M437.25,-289.34C495.37,-289.15 631.7,-284.04 737,-244 767.59,-232.37 798.17,-209.56 816.59,-194.29"/>
<polygon fill="midnightblue" stroke="midnightblue" points="819.02,-196.82 824.38,-187.68 814.49,-191.49 819.02,-196.82"/>
</g>
<!-- Node21 -->
<g id="node21" class="node">
<title>Node21</title>
<g id="a_node21"><a xlink:href="../../d2/dff/Project_8h.html" target="_top" xlink:title="This file contains the definition of the Project class template. The Project class is a generic class...">
<polygon fill="white" stroke="black" points="28.5,-168.5 28.5,-187.5 87.5,-187.5 87.5,-168.5 28.5,-168.5"/>
<text text-anchor="middle" x="58" y="-175.5" font-family="Helvetica,sans-Serif" font-size="10.00">Project.h</text>
</a>
</g>
</g>
<!-- Node11&#45;&gt;Node21 -->
<g id="edge38" class="edge">
<title>Node11&#45;&gt;Node21</title>
<path fill="none" stroke="midnightblue" d="M380.98,-282.94C345.69,-275.07 283.32,-260.39 231,-244 180,-228.03 122.13,-205.32 87.92,-191.41"/>
<polygon fill="midnightblue" stroke="midnightblue" points="89.09,-188.11 78.51,-187.56 86.44,-194.59 89.09,-188.11"/>
</g>
<!-- Node13&#45;&gt;Node2 -->
<g id="edge20" class="edge">
<title>Node13&#45;&gt;Node2</title>
<path fill="none" stroke="midnightblue" d="M436.66,-168.44C398.09,-159.1 336.22,-144.12 294.15,-133.93"/>
<polygon fill="midnightblue" stroke="midnightblue" points="294.71,-130.47 284.17,-131.52 293.07,-137.27 294.71,-130.47"/>
</g>
<!-- Node13&#45;&gt;Node5 -->
<g id="edge19" class="edge">
<title>Node13&#45;&gt;Node5</title>
<path fill="none" stroke="midnightblue" d="M470.51,-168.41C469.02,-159.38 466.85,-144.74 466,-132 463.6,-95.79 464.89,-53.36 465.99,-29.58"/>
<polygon fill="midnightblue" stroke="midnightblue" points="469.49,-29.68 466.49,-19.52 462.5,-29.33 469.49,-29.68"/>
</g>
<!-- Node14 -->
<g id="node14" class="node">
<title>Node14</title>
<g id="a_node14"><a xlink:title=" ">
<polygon fill="white" stroke="#bfbfbf" points="475.5,-112.5 475.5,-131.5 522.5,-131.5 522.5,-112.5 475.5,-112.5"/>
<text text-anchor="middle" x="499" y="-119.5" font-family="Helvetica,sans-Serif" font-size="10.00">cmath</text>
</a>
</g>
</g>
<!-- Node13&#45;&gt;Node14 -->
<g id="edge18" class="edge">
<title>Node13&#45;&gt;Node14</title>
<path fill="none" stroke="midnightblue" d="M476.46,-168.08C480.15,-160.69 485.52,-149.95 490.09,-140.81"/>
<polygon fill="midnightblue" stroke="midnightblue" points="493.28,-142.26 494.62,-131.75 487.02,-139.13 493.28,-142.26"/>
</g>
<!-- Node15&#45;&gt;Node2 -->
<g id="edge26" class="edge">
<title>Node15&#45;&gt;Node2</title>
<path fill="none" stroke="midnightblue" d="M285.72,-224.33C285.09,-211.61 282.98,-187.33 276,-168 272.49,-158.27 266.78,-148.32 261.51,-140.25"/>
<polygon fill="midnightblue" stroke="midnightblue" points="264.24,-138.04 255.69,-131.78 258.47,-142.01 264.24,-138.04"/>
</g>
<!-- Node15&#45;&gt;Node3 -->
<g id="edge27" class="edge">
<title>Node15&#45;&gt;Node3</title>
<path fill="none" stroke="midnightblue" d="M291.22,-224.08C306.68,-197.61 352.49,-119.21 372.94,-84.21"/>
<polygon fill="midnightblue" stroke="midnightblue" points="375.97,-85.97 377.99,-75.57 369.93,-82.44 375.97,-85.97"/>
</g>
<!-- Node15&#45;&gt;Node16 -->
<g id="edge22" class="edge">
<title>Node15&#45;&gt;Node16</title>
<path fill="none" stroke="midnightblue" d="M275.56,-224.32C265.85,-216.26 251.18,-204.08 239.5,-194.37"/>
<polygon fill="midnightblue" stroke="midnightblue" points="241.56,-191.53 231.63,-187.83 237.09,-196.92 241.56,-191.53"/>
</g>
<!-- Node16&#45;&gt;Node2 -->
<g id="edge25" class="edge">
<title>Node16&#45;&gt;Node2</title>
<path fill="none" stroke="midnightblue" d="M225.62,-168.08C229.46,-160.69 235.02,-149.95 239.76,-140.81"/>
<polygon fill="midnightblue" stroke="midnightblue" points="242.97,-142.24 244.46,-131.75 236.75,-139.02 242.97,-142.24"/>
</g>
<!-- Node16&#45;&gt;Node5 -->
<g id="edge24" class="edge">
<title>Node16&#45;&gt;Node5</title>
<path fill="none" stroke="midnightblue" d="M248.08,-168.47C289.44,-154.41 369.19,-123.17 423,-76 438.17,-62.7 450.51,-43.04 458.22,-28.83"/>
<polygon fill="midnightblue" stroke="midnightblue" points="461.5,-30.1 462.99,-19.61 455.29,-26.88 461.5,-30.1"/>
</g>
<!-- Node16&#45;&gt;Node8 -->
<g id="edge23" class="edge">
<title>Node16&#45;&gt;Node8</title>
<path fill="none" stroke="midnightblue" d="M208.25,-168.29C185.51,-152.23 137.47,-115.95 107,-76 96.04,-61.64 87.31,-42.93 81.75,-29.28"/>
<polygon fill="midnightblue" stroke="midnightblue" points="84.87,-27.65 78,-19.59 78.35,-30.18 84.87,-27.65"/>
</g>
<!-- Node17&#45;&gt;Node4 -->
<g id="edge33" class="edge">
<title>Node17&#45;&gt;Node4</title>
<path fill="none" stroke="midnightblue" d="M710.87,-224.46C721.19,-216.33 735.61,-203.12 743,-188 768.82,-135.16 769.55,-63.48 768.2,-29.86"/>
<polygon fill="midnightblue" stroke="midnightblue" points="771.69,-29.46 767.67,-19.65 764.7,-29.82 771.69,-29.46"/>
</g>
<!-- Node17&#45;&gt;Node5 -->
<g id="edge34" class="edge">
<title>Node17&#45;&gt;Node5</title>
<path fill="none" stroke="midnightblue" d="M703.73,-224.1C709.95,-211.11 719.08,-186.49 710,-168 669.92,-86.39 565.01,-41.69 507,-22.51"/>
<polygon fill="midnightblue" stroke="midnightblue" points="508.02,-19.16 497.43,-19.44 505.88,-25.83 508.02,-19.16"/>
</g>
<!-- Node17&#45;&gt;Node12 -->
<g id="edge32" class="edge">
<title>Node17&#45;&gt;Node12</title>
<path fill="none" stroke="midnightblue" d="M682.45,-224.32C666.01,-215.7 640.57,-202.36 621.53,-192.39"/>
<polygon fill="midnightblue" stroke="midnightblue" points="622.99,-189.2 612.51,-187.65 619.74,-195.4 622.99,-189.2"/>
</g>
<!-- Node18 -->
<g id="node18" class="node">
<title>Node18</title>
<g id="a_node18"><a xlink:title=" ">
<polygon fill="white" stroke="#bfbfbf" points="647,-168.5 647,-187.5 701,-187.5 701,-168.5 647,-168.5"/>
<text text-anchor="middle" x="674" y="-175.5" font-family="Helvetica,sans-Serif" font-size="10.00">random</text>
</a>
</g>
</g>
<!-- Node17&#45;&gt;Node18 -->
<g id="edge35" class="edge">
<title>Node17&#45;&gt;Node18</title>
<path fill="none" stroke="midnightblue" d="M694.87,-224.08C691.49,-216.77 686.58,-206.18 682.38,-197.1"/>
<polygon fill="midnightblue" stroke="midnightblue" points="685.43,-195.36 678.05,-187.75 679.08,-198.3 685.43,-195.36"/>
</g>
<!-- Node17&#45;&gt;Node19 -->
<g id="edge36" class="edge">
<title>Node17&#45;&gt;Node19</title>
<path fill="none" stroke="midnightblue" d="M720.39,-224.44C742.71,-215.52 777.9,-201.44 803.21,-191.32"/>
<polygon fill="midnightblue" stroke="midnightblue" points="804.72,-194.48 812.71,-187.52 802.12,-187.98 804.72,-194.48"/>
</g>
<!-- Node20 -->
<g id="node20" class="node">
<title>Node20</title>
<g id="a_node20"><a xlink:title=" ">
<polygon fill="white" stroke="#bfbfbf" points="809,-112.5 809,-131.5 859,-131.5 859,-112.5 809,-112.5"/>
<text text-anchor="middle" x="834" y="-119.5" font-family="Helvetica,sans-Serif" font-size="10.00">chrono</text>
</a>
</g>
</g>
<!-- Node19&#45;&gt;Node20 -->
<g id="edge37" class="edge">
<title>Node19&#45;&gt;Node20</title>
<path fill="none" stroke="midnightblue" d="M834,-168.08C834,-161.01 834,-150.86 834,-141.99"/>
<polygon fill="midnightblue" stroke="midnightblue" points="837.5,-141.75 834,-131.75 830.5,-141.75 837.5,-141.75"/>
</g>
<!-- Node21&#45;&gt;Node2 -->
<g id="edge39" class="edge">
<title>Node21&#45;&gt;Node2</title>
<path fill="none" stroke="midnightblue" d="M87.84,-168.56C120.45,-159.34 172.85,-144.53 209,-134.31"/>
<polygon fill="midnightblue" stroke="midnightblue" points="210.06,-137.65 218.74,-131.56 208.16,-130.91 210.06,-137.65"/>
</g>
<!-- Node21&#45;&gt;Node8 -->
<g id="edge40" class="edge">
<title>Node21&#45;&gt;Node8</title>
<path fill="none" stroke="midnightblue" d="M57.22,-168.38C55.63,-148.4 52.8,-97.43 61,-56 62.77,-47.07 65.64,-37.4 68.33,-29.33"/>
<polygon fill="midnightblue" stroke="midnightblue" points="71.66,-30.42 71.64,-19.82 65.05,-28.11 71.66,-30.42"/>
</g>
<!-- Node22 -->
<g id="node22" class="node">
<title>Node22</title>
<g id="a_node22"><a xlink:title=" ">
<polygon fill="white" stroke="#bfbfbf" points="65.5,-112.5 65.5,-131.5 110.5,-131.5 110.5,-112.5 65.5,-112.5"/>
<text text-anchor="middle" x="88" y="-119.5" font-family="Helvetica,sans-Serif" font-size="10.00">utility</text>
</a>
</g>
</g>
<!-- Node21&#45;&gt;Node22 -->
<g id="edge41" class="edge">
<title>Node21&#45;&gt;Node22</title>
<path fill="none" stroke="midnightblue" d="M62.95,-168.08C67.1,-160.61 73.15,-149.72 78.27,-140.52"/>
<polygon fill="midnightblue" stroke="midnightblue" points="81.34,-142.19 83.14,-131.75 75.22,-138.79 81.34,-142.19"/>
</g>
</g>
</svg>
