<?xml version="1.0" encoding="UTF-8" standalone="no"?>
<!DOCTYPE svg PUBLIC "-//W3C//DTD SVG 1.1//EN"
 "http://www.w3.org/Graphics/SVG/1.1/DTD/svg11.dtd">
<!-- Generated by graphviz version 2.43.0 (0)
 -->
<!-- Title: src/labs/outlab4/InputsOutputs.h Pages: 1 -->
<svg width="537pt" height="196pt"
 viewBox="0.00 0.00 536.50 196.00" xmlns="http://www.w3.org/2000/svg" xmlns:xlink="http://www.w3.org/1999/xlink">
<g id="graph0" class="graph" transform="scale(1 1) rotate(0) translate(4 192)">
<title>src/labs/outlab4/InputsOutputs.h</title>
<polygon fill="white" stroke="transparent" points="-4,4 -4,-192 532.5,-192 532.5,4 -4,4"/>
<!-- Node1 -->
<g id="node1" class="node">
<title>Node1</title>
<g id="a_node1"><a xlink:title="This file contains the input and output definitions for this project.">
<polygon fill="#bfbfbf" stroke="black" points="127,-168.5 127,-187.5 301,-187.5 301,-168.5 127,-168.5"/>
<text text-anchor="middle" x="214" y="-175.5" font-family="Helvetica,sans-Serif" font-size="10.00">src/labs/outlab4/InputsOutputs.h</text>
</a>
</g>
</g>
<!-- Node2 -->
<g id="node2" class="node">
<title>Node2</title>
<g id="a_node2"><a xlink:title=" ">
<polygon fill="white" stroke="#bfbfbf" points="62.5,-112.5 62.5,-131.5 107.5,-131.5 107.5,-112.5 62.5,-112.5"/>
<text text-anchor="middle" x="85" y="-119.5" font-family="Helvetica,sans-Serif" font-size="10.00">utility</text>
</a>
</g>
</g>
<!-- Node1&#45;&gt;Node2 -->
<g id="edge1" class="edge">
<title>Node1&#45;&gt;Node2</title>
<path fill="none" stroke="midnightblue" d="M193.56,-168.44C172.33,-159.56 138.9,-145.56 114.75,-135.45"/>
<polygon fill="midnightblue" stroke="midnightblue" points="115.92,-132.15 105.34,-131.52 113.22,-138.61 115.92,-132.15"/>
</g>
<!-- Node3 -->
<g id="node3" class="node">
<title>Node3</title>
<g id="a_node3"><a xlink:title=" ">
<polygon fill="white" stroke="#bfbfbf" points="126,-112.5 126,-131.5 184,-131.5 184,-112.5 126,-112.5"/>
<text text-anchor="middle" x="155" y="-119.5" font-family="Helvetica,sans-Serif" font-size="10.00">json.hpp</text>
</a>
</g>
</g>
<!-- Node1&#45;&gt;Node3 -->
<g id="edge2" class="edge">
<title>Node1&#45;&gt;Node3</title>
<path fill="none" stroke="midnightblue" d="M204.52,-168.32C195.8,-160.34 182.66,-148.31 172.1,-138.65"/>
<polygon fill="midnightblue" stroke="midnightblue" points="174.39,-136 164.65,-131.83 169.67,-141.17 174.39,-136"/>
</g>
<!-- Node4 -->
<g id="node4" class="node">
<title>Node4</title>
<g id="a_node4"><a xlink:href="../../d3/db1/Matrix_8h.html" target="_top" xlink:title="This file contains my BLAS::Matrix declarations.">
<polygon fill="white" stroke="black" points="202,-112.5 202,-131.5 346,-131.5 346,-112.5 202,-112.5"/>
<text text-anchor="middle" x="274" y="-119.5" font-family="Helvetica,sans-Serif" font-size="10.00">math/blas/matrix/Matrix.h</text>
</a>
</g>
</g>
<!-- Node1&#45;&gt;Node4 -->
<g id="edge3" class="edge">
<title>Node1&#45;&gt;Node4</title>
<path fill="none" stroke="midnightblue" d="M223.64,-168.32C232.51,-160.34 245.87,-148.31 256.61,-138.65"/>
<polygon fill="midnightblue" stroke="midnightblue" points="259.09,-141.13 264.18,-131.83 254.41,-135.92 259.09,-141.13"/>
</g>
<!-- Node10 -->
<g id="node10" class="node">
<title>Node10</title>
<g id="a_node10"><a xlink:href="../../d6/dbe/Vector_8h.html" target="_top" xlink:title="This file contains my BLAS::Vector implementation.">
<polygon fill="white" stroke="black" points="340.5,-56.5 340.5,-75.5 481.5,-75.5 481.5,-56.5 340.5,-56.5"/>
<text text-anchor="middle" x="411" y="-63.5" font-family="Helvetica,sans-Serif" font-size="10.00">math/blas/vector/Vector.h</text>
</a>
</g>
</g>
<!-- Node1&#45;&gt;Node10 -->
<g id="edge15" class="edge">
<title>Node1&#45;&gt;Node10</title>
<path fill="none" stroke="midnightblue" d="M262.27,-168.5C290.94,-161.83 327.03,-150.5 355,-132 373.75,-119.6 389.86,-99.23 399.92,-84.59"/>
<polygon fill="midnightblue" stroke="midnightblue" points="403.04,-86.22 405.63,-75.95 397.2,-82.36 403.04,-86.22"/>
</g>
<!-- Node5 -->
<g id="node5" class="node">
<title>Node5</title>
<g id="a_node5"><a xlink:title=" ">
<polygon fill="white" stroke="#bfbfbf" points="0,-56.5 0,-75.5 64,-75.5 64,-56.5 0,-56.5"/>
<text text-anchor="middle" x="32" y="-63.5" font-family="Helvetica,sans-Serif" font-size="10.00">algorithm</text>
</a>
</g>
</g>
<!-- Node4&#45;&gt;Node5 -->
<g id="edge4" class="edge">
<title>Node4&#45;&gt;Node5</title>
<path fill="none" stroke="midnightblue" d="M235.65,-112.44C191.67,-102.63 119.77,-86.58 74.22,-76.42"/>
<polygon fill="midnightblue" stroke="midnightblue" points="74.88,-72.98 64.36,-74.22 73.36,-79.81 74.88,-72.98"/>
</g>
<!-- Node6 -->
<g id="node6" class="node">
<title>Node6</title>
<g id="a_node6"><a xlink:title=" ">
<polygon fill="white" stroke="#bfbfbf" points="241,-0.5 241,-19.5 293,-19.5 293,-0.5 241,-0.5"/>
<text text-anchor="middle" x="267" y="-7.5" font-family="Helvetica,sans-Serif" font-size="10.00">cassert</text>
</a>
</g>
</g>
<!-- Node4&#45;&gt;Node6 -->
<g id="edge5" class="edge">
<title>Node4&#45;&gt;Node6</title>
<path fill="none" stroke="midnightblue" d="M273.45,-112.37C272.32,-94.62 269.72,-53.67 268.18,-29.6"/>
<polygon fill="midnightblue" stroke="midnightblue" points="271.67,-29.35 267.55,-19.59 264.69,-29.79 271.67,-29.35"/>
</g>
<!-- Node7 -->
<g id="node7" class="node">
<title>Node7</title>
<g id="a_node7"><a xlink:title=" ">
<polygon fill="white" stroke="#bfbfbf" points="311,-0.5 311,-19.5 371,-19.5 371,-0.5 311,-0.5"/>
<text text-anchor="middle" x="341" y="-7.5" font-family="Helvetica,sans-Serif" font-size="10.00">iostream</text>
</a>
</g>
</g>
<!-- Node4&#45;&gt;Node7 -->
<g id="edge6" class="edge">
<title>Node4&#45;&gt;Node7</title>
<path fill="none" stroke="midnightblue" d="M279.26,-112.37C290.27,-94.3 315.92,-52.18 330.46,-28.31"/>
<polygon fill="midnightblue" stroke="midnightblue" points="333.55,-29.95 335.77,-19.59 327.58,-26.31 333.55,-29.95"/>
</g>
<!-- Node8 -->
<g id="node8" class="node">
<title>Node8</title>
<g id="a_node8"><a xlink:title=" ">
<polygon fill="white" stroke="#bfbfbf" points="125.5,-0.5 125.5,-19.5 172.5,-19.5 172.5,-0.5 125.5,-0.5"/>
<text text-anchor="middle" x="149" y="-7.5" font-family="Helvetica,sans-Serif" font-size="10.00">vector</text>
</a>
</g>
</g>
<!-- Node4&#45;&gt;Node8 -->
<g id="edge7" class="edge">
<title>Node4&#45;&gt;Node8</title>
<path fill="none" stroke="midnightblue" d="M215.48,-112.43C174.13,-105.04 123.85,-92.88 111,-76 98.91,-60.12 114.77,-40.05 129.53,-26.45"/>
<polygon fill="midnightblue" stroke="midnightblue" points="132.15,-28.81 137.44,-19.62 127.58,-23.51 132.15,-28.81"/>
</g>
<!-- Node9 -->
<g id="node9" class="node">
<title>Node9</title>
<g id="a_node9"><a xlink:href="../../d1/d45/Constants_8h.html" target="_top" xlink:title="MyBLAS Constants definition.">
<polygon fill="white" stroke="black" points="120,-56.5 120,-75.5 246,-75.5 246,-56.5 120,-56.5"/>
<text text-anchor="middle" x="183" y="-63.5" font-family="Helvetica,sans-Serif" font-size="10.00">math/blas/Constants.h</text>
</a>
</g>
</g>
<!-- Node4&#45;&gt;Node9 -->
<g id="edge8" class="edge">
<title>Node4&#45;&gt;Node9</title>
<path fill="none" stroke="midnightblue" d="M259.38,-112.32C245.05,-103.82 222.99,-90.73 206.25,-80.8"/>
<polygon fill="midnightblue" stroke="midnightblue" points="207.97,-77.75 197.58,-75.65 204.4,-83.77 207.97,-77.75"/>
</g>
<!-- Node4&#45;&gt;Node10 -->
<g id="edge9" class="edge">
<title>Node4&#45;&gt;Node10</title>
<path fill="none" stroke="midnightblue" d="M295.71,-112.44C318.35,-103.52 354.07,-89.44 379.75,-79.32"/>
<polygon fill="midnightblue" stroke="midnightblue" points="381.37,-82.44 389.39,-75.52 378.81,-75.93 381.37,-82.44"/>
</g>
<!-- Node10&#45;&gt;Node6 -->
<g id="edge14" class="edge">
<title>Node10&#45;&gt;Node6</title>
<path fill="none" stroke="midnightblue" d="M388.18,-56.44C364.17,-47.44 326.17,-33.19 299.13,-23.05"/>
<polygon fill="midnightblue" stroke="midnightblue" points="300.3,-19.75 289.71,-19.52 297.84,-26.3 300.3,-19.75"/>
</g>
<!-- Node10&#45;&gt;Node7 -->
<g id="edge12" class="edge">
<title>Node10&#45;&gt;Node7</title>
<path fill="none" stroke="midnightblue" d="M399.75,-56.32C389.2,-48.18 373.2,-35.84 360.56,-26.09"/>
<polygon fill="midnightblue" stroke="midnightblue" points="362.51,-23.17 352.45,-19.83 358.23,-28.71 362.51,-23.17"/>
</g>
<!-- Node10&#45;&gt;Node8 -->
<g id="edge13" class="edge">
<title>Node10&#45;&gt;Node8</title>
<path fill="none" stroke="midnightblue" d="M369.49,-56.44C317.73,-45.78 230.28,-27.75 182.55,-17.91"/>
<polygon fill="midnightblue" stroke="midnightblue" points="183.21,-14.48 172.71,-15.89 181.8,-21.33 183.21,-14.48"/>
</g>
<!-- Node11 -->
<g id="node11" class="node">
<title>Node11</title>
<g id="a_node11"><a xlink:title=" ">
<polygon fill="white" stroke="#bfbfbf" points="463.5,-0.5 463.5,-19.5 528.5,-19.5 528.5,-0.5 463.5,-0.5"/>
<text text-anchor="middle" x="496" y="-7.5" font-family="Helvetica,sans-Serif" font-size="10.00">functional</text>
</a>
</g>
</g>
<!-- Node10&#45;&gt;Node11 -->
<g id="edge10" class="edge">
<title>Node10&#45;&gt;Node11</title>
<path fill="none" stroke="midnightblue" d="M424.66,-56.32C437.92,-47.9 458.27,-34.97 473.85,-25.07"/>
<polygon fill="midnightblue" stroke="midnightblue" points="475.81,-27.97 482.38,-19.65 472.06,-22.06 475.81,-27.97"/>
</g>
<!-- Node12 -->
<g id="node12" class="node">
<title>Node12</title>
<g id="a_node12"><a xlink:title=" ">
<polygon fill="white" stroke="#bfbfbf" points="389,-0.5 389,-19.5 445,-19.5 445,-0.5 389,-0.5"/>
<text text-anchor="middle" x="417" y="-7.5" font-family="Helvetica,sans-Serif" font-size="10.00">iomanip</text>
</a>
</g>
</g>
<!-- Node10&#45;&gt;Node12 -->
<g id="edge11" class="edge">
<title>Node10&#45;&gt;Node12</title>
<path fill="none" stroke="midnightblue" d="M411.99,-56.08C412.79,-48.93 413.93,-38.64 414.92,-29.69"/>
<polygon fill="midnightblue" stroke="midnightblue" points="418.4,-30.08 416.03,-19.75 411.44,-29.3 418.4,-30.08"/>
</g>
</g>
</svg>
