<?xml version="1.0" encoding="UTF-8" standalone="no"?>
<!DOCTYPE svg PUBLIC "-//W3C//DTD SVG 1.1//EN"
 "http://www.w3.org/Graphics/SVG/1.1/DTD/svg11.dtd">
<!-- Generated by graphviz version 2.43.0 (0)
 -->
<!-- Title: asYesOrNo Pages: 1 -->
<svg width="431pt" height="53pt"
 viewBox="0.00 0.00 431.00 52.50" xmlns="http://www.w3.org/2000/svg" xmlns:xlink="http://www.w3.org/1999/xlink">
<g id="graph0" class="graph" transform="scale(1 1) rotate(0) translate(4 48.5)">
<title>asYesOrNo</title>
<polygon fill="white" stroke="transparent" points="-4,4 -4,-48.5 427,-48.5 427,4 -4,4"/>
<!-- Node1 -->
<g id="node1" class="node">
<title>Node1</title>
<g id="a_node1"><a xlink:title="Converts a given string to a boolean value based on its content.">
<polygon fill="#bfbfbf" stroke="black" points="355,-19.5 355,-38.5 423,-38.5 423,-19.5 355,-19.5"/>
<text text-anchor="middle" x="389" y="-26.5" font-family="Helvetica,sans-Serif" font-size="10.00">asYesOrNo</text>
</a>
</g>
</g>
<!-- Node2 -->
<g id="node2" class="node">
<title>Node2</title>
<g id="a_node2"><a xlink:href="classParser.html#a3369e669d9e28c85a3397e7bc95d2518" target="_top" xlink:title="This function performs checks on the input parameters and prompts the user to enter valid inputs if t...">
<polygon fill="white" stroke="black" points="0,-14 0,-44 170,-44 170,-14 0,-14"/>
<text text-anchor="start" x="8" y="-32" font-family="Helvetica,sans-Serif" font-size="10.00">Parser::performInputArguments</text>
<text text-anchor="middle" x="85" y="-21" font-family="Helvetica,sans-Serif" font-size="10.00">Check</text>
</a>
</g>
</g>
<!-- Node1&#45;&gt;Node2 -->
<g id="edge1" class="edge">
<title>Node1&#45;&gt;Node2</title>
<path fill="none" stroke="midnightblue" d="M344.73,-29C299.39,-29 227.01,-29 170.32,-29"/>
<polygon fill="midnightblue" stroke="midnightblue" points="344.82,-32.5 354.82,-29 344.82,-25.5 344.82,-32.5"/>
</g>
<!-- Node3 -->
<g id="node3" class="node">
<title>Node3</title>
<g id="a_node3"><a xlink:href="CheckBounds_8h.html#a8a81ed2e59fe68b25543e2bdef969d8b" target="_top" xlink:title="This function prompts the user for input and sets flags in a boost::program_options::variables_map ba...">
<polygon fill="white" stroke="black" points="206,-0.5 206,-19.5 319,-19.5 319,-0.5 206,-0.5"/>
<text text-anchor="middle" x="262.5" y="-7.5" font-family="Helvetica,sans-Serif" font-size="10.00">promptAndSetFlags</text>
</a>
</g>
</g>
<!-- Node1&#45;&gt;Node3 -->
<g id="edge2" class="edge">
<title>Node1&#45;&gt;Node3</title>
<path fill="none" stroke="midnightblue" d="M344.85,-22.41C336.62,-21.16 327.89,-19.83 319.33,-18.52"/>
<polygon fill="midnightblue" stroke="midnightblue" points="344.55,-25.91 354.96,-23.96 345.61,-18.99 344.55,-25.91"/>
</g>
<!-- Node3&#45;&gt;Node2 -->
<g id="edge3" class="edge">
<title>Node3&#45;&gt;Node2</title>
<path fill="none" stroke="midnightblue" d="M195.85,-17.11C187.42,-18.02 178.7,-18.96 170.02,-19.9"/>
<polygon fill="midnightblue" stroke="midnightblue" points="196.41,-20.57 205.97,-16.01 195.65,-13.61 196.41,-20.57"/>
</g>
</g>
</svg>
