<?xml version="1.0" encoding="UTF-8" standalone="no"?>
<!DOCTYPE svg PUBLIC "-//W3C//DTD SVG 1.1//EN"
 "http://www.w3.org/Graphics/SVG/1.1/DTD/svg11.dtd">
<!-- Generated by graphviz version 2.43.0 (0)
 -->
<!-- Title: failsExclusiveRangeCheck Pages: 1 -->
<svg width="449pt" height="66pt"
 viewBox="0.00 0.00 449.00 66.00" xmlns="http://www.w3.org/2000/svg" xmlns:xlink="http://www.w3.org/1999/xlink">
<g id="graph0" class="graph" transform="scale(1 1) rotate(0) translate(4 62)">
<title>failsExclusiveRangeCheck</title>
<polygon fill="white" stroke="transparent" points="-4,4 -4,-62 445,-62 445,4 -4,4"/>
<!-- Node1 -->
<g id="node1" class="node">
<title>Node1</title>
<g id="a_node1"><a xlink:title="Checks if the input value is within the specified range (exclusive).">
<polygon fill="#bfbfbf" stroke="black" points="0,-19.5 0,-38.5 145,-38.5 145,-19.5 0,-19.5"/>
<text text-anchor="middle" x="72.5" y="-26.5" font-family="Helvetica,sans-Serif" font-size="10.00">failsExclusiveRangeCheck</text>
</a>
</g>
</g>
<!-- Node2 -->
<g id="node2" class="node">
<title>Node2</title>
<g id="a_node2"><a xlink:href="namespaceMyBLAS.html#a990467e8430064e652754897d099b7bf" target="_top" xlink:title="Calculates the maximum value of the vector.">
<polygon fill="white" stroke="black" points="181,-38.5 181,-57.5 266,-57.5 266,-38.5 181,-38.5"/>
<text text-anchor="middle" x="223.5" y="-45.5" font-family="Helvetica,sans-Serif" font-size="10.00">MyBLAS::max</text>
</a>
</g>
</g>
<!-- Node1&#45;&gt;Node2 -->
<g id="edge1" class="edge">
<title>Node1&#45;&gt;Node2</title>
<path fill="none" stroke="midnightblue" d="M145.38,-38.17C153.96,-39.26 162.59,-40.36 170.81,-41.41"/>
<polygon fill="midnightblue" stroke="midnightblue" points="170.6,-44.91 180.96,-42.7 171.49,-37.97 170.6,-44.91"/>
</g>
<!-- Node5 -->
<g id="node5" class="node">
<title>Node5</title>
<g id="a_node5"><a xlink:href="namespaceMyBLAS.html#a50834683eb1a4cb5adbe71091be113c7" target="_top" xlink:title="Calculates the minimum value of the vector.">
<polygon fill="white" stroke="black" points="182.5,-0.5 182.5,-19.5 264.5,-19.5 264.5,-0.5 182.5,-0.5"/>
<text text-anchor="middle" x="223.5" y="-7.5" font-family="Helvetica,sans-Serif" font-size="10.00">MyBLAS::min</text>
</a>
</g>
</g>
<!-- Node1&#45;&gt;Node5 -->
<g id="edge4" class="edge">
<title>Node1&#45;&gt;Node5</title>
<path fill="none" stroke="midnightblue" d="M145.38,-19.83C154.38,-18.69 163.42,-17.53 171.99,-16.44"/>
<polygon fill="midnightblue" stroke="midnightblue" points="172.7,-19.88 182.18,-15.14 171.81,-12.94 172.7,-19.88"/>
</g>
<!-- Node3 -->
<g id="node3" class="node">
<title>Node3</title>
<g id="a_node3"><a xlink:href="classMyBLAS_1_1Vector.html#a6188d71192e096e25ae1c1a46150a0ab" target="_top" xlink:title="Getter for the vector data.">
<polygon fill="white" stroke="black" points="302,-38.5 302,-57.5 441,-57.5 441,-38.5 302,-38.5"/>
<text text-anchor="middle" x="371.5" y="-45.5" font-family="Helvetica,sans-Serif" font-size="10.00">MyBLAS::Vector::getData</text>
</a>
</g>
</g>
<!-- Node2&#45;&gt;Node3 -->
<g id="edge2" class="edge">
<title>Node2&#45;&gt;Node3</title>
<path fill="none" stroke="midnightblue" d="M266.34,-48C274.33,-48 282.94,-48 291.66,-48"/>
<polygon fill="midnightblue" stroke="midnightblue" points="291.92,-51.5 301.92,-48 291.92,-44.5 291.92,-51.5"/>
</g>
<!-- Node4 -->
<g id="node4" class="node">
<title>Node4</title>
<g id="a_node4"><a xlink:href="classMyBLAS_1_1Vector.html#aae30f8178e4a34d332317c61e77c147a" target="_top" xlink:title="Getter for the size of the vector.">
<polygon fill="white" stroke="black" points="312,-0.5 312,-19.5 431,-19.5 431,-0.5 312,-0.5"/>
<text text-anchor="middle" x="371.5" y="-7.5" font-family="Helvetica,sans-Serif" font-size="10.00">MyBLAS::Vector::size</text>
</a>
</g>
</g>
<!-- Node2&#45;&gt;Node4 -->
<g id="edge3" class="edge">
<title>Node2&#45;&gt;Node4</title>
<path fill="none" stroke="midnightblue" d="M261.34,-38.41C280.35,-33.46 303.73,-27.38 323.97,-22.11"/>
<polygon fill="midnightblue" stroke="midnightblue" points="325.13,-25.43 333.92,-19.52 323.36,-18.65 325.13,-25.43"/>
</g>
<!-- Node5&#45;&gt;Node3 -->
<g id="edge5" class="edge">
<title>Node5&#45;&gt;Node3</title>
<path fill="none" stroke="midnightblue" d="M261.34,-19.59C280.35,-24.54 303.73,-30.62 323.97,-35.89"/>
<polygon fill="midnightblue" stroke="midnightblue" points="323.36,-39.35 333.92,-38.48 325.13,-32.57 323.36,-39.35"/>
</g>
<!-- Node5&#45;&gt;Node4 -->
<g id="edge6" class="edge">
<title>Node5&#45;&gt;Node4</title>
<path fill="none" stroke="midnightblue" d="M264.78,-10C276.24,-10 289.05,-10 301.69,-10"/>
<polygon fill="midnightblue" stroke="midnightblue" points="301.76,-13.5 311.76,-10 301.76,-6.5 301.76,-13.5"/>
</g>
</g>
</svg>
