<?xml version="1.0" encoding="UTF-8" standalone="no"?>
<!DOCTYPE svg PUBLIC "-//W3C//DTD SVG 1.1//EN"
 "http://www.w3.org/Graphics/SVG/1.1/DTD/svg11.dtd">
<!-- Generated by graphviz version 2.43.0 (0)
 -->
<!-- Title: Parser::buildInputs Pages: 1 -->
<svg width="312pt" height="204pt"
 viewBox="0.00 0.00 312.00 203.50" xmlns="http://www.w3.org/2000/svg" xmlns:xlink="http://www.w3.org/1999/xlink">
<g id="graph0" class="graph" transform="scale(1 1) rotate(0) translate(4 199.5)">
<title>Parser::buildInputs</title>
<polygon fill="white" stroke="transparent" points="-4,4 -4,-199.5 308,-199.5 308,4 -4,4"/>
<!-- Node1 -->
<g id="node1" class="node">
<title>Node1</title>
<g id="a_node1"><a xlink:title="Builds the input matrices for the MyBLAS library from a JSON file.">
<polygon fill="#bfbfbf" stroke="black" points="0,-82.5 0,-101.5 107,-101.5 107,-82.5 0,-82.5"/>
<text text-anchor="middle" x="53.5" y="-89.5" font-family="Helvetica,sans-Serif" font-size="10.00">Parser::buildInputs</text>
</a>
</g>
</g>
<!-- Node2 -->
<g id="node2" class="node">
<title>Node2</title>
<g id="a_node2"><a xlink:href="classCommandLine.html#a6a94f5e16b2081e769567d3790b6d8ec" target="_top" xlink:title="Method to get the current precision.">
<polygon fill="white" stroke="black" points="143,-165 143,-195 304,-195 304,-165 143,-165"/>
<text text-anchor="start" x="151" y="-183" font-family="Helvetica,sans-Serif" font-size="10.00">CommandLine&lt; InLab6Inputs</text>
<text text-anchor="middle" x="223.5" y="-172" font-family="Helvetica,sans-Serif" font-size="10.00"> &gt;::getCurrentPrecision</text>
</a>
</g>
</g>
<!-- Node1&#45;&gt;Node2 -->
<g id="edge1" class="edge">
<title>Node1&#45;&gt;Node2</title>
<path fill="none" stroke="midnightblue" d="M65.5,-101.59C81.55,-115.15 112.77,-139.96 143,-155 147.58,-157.28 152.41,-159.4 157.33,-161.37"/>
<polygon fill="midnightblue" stroke="midnightblue" points="156.28,-164.72 166.88,-164.98 158.76,-158.17 156.28,-164.72"/>
</g>
<!-- Node3 -->
<g id="node3" class="node">
<title>Node3</title>
<g id="a_node3"><a xlink:href="classMyBLAS_1_1Matrix.html#a0772df3e76eadc9035e847316de0d249" target="_top" xlink:title="Getter for the number of rows in the matrix.">
<polygon fill="white" stroke="black" points="152,-126.5 152,-145.5 295,-145.5 295,-126.5 152,-126.5"/>
<text text-anchor="middle" x="223.5" y="-133.5" font-family="Helvetica,sans-Serif" font-size="10.00">MyBLAS::Matrix::getRows</text>
</a>
</g>
</g>
<!-- Node1&#45;&gt;Node3 -->
<g id="edge2" class="edge">
<title>Node1&#45;&gt;Node3</title>
<path fill="none" stroke="midnightblue" d="M87.2,-101.58C103.86,-106.37 124.46,-112.17 143,-117 152.08,-119.37 161.76,-121.78 171.14,-124.05"/>
<polygon fill="midnightblue" stroke="midnightblue" points="170.62,-127.52 181.16,-126.46 172.25,-120.72 170.62,-127.52"/>
</g>
<!-- Node4 -->
<g id="node4" class="node">
<title>Node4</title>
<g id="a_node4"><a xlink:href="classCommandLine.html#a7001590923e6bfdf380448136b8e65bd" target="_top" xlink:title="Method to print a line to the console. This method prints a line of dashes to the console.">
<polygon fill="white" stroke="black" points="143,-77 143,-107 304,-107 304,-77 143,-77"/>
<text text-anchor="start" x="151" y="-95" font-family="Helvetica,sans-Serif" font-size="10.00">CommandLine&lt; InLab6Inputs</text>
<text text-anchor="middle" x="223.5" y="-84" font-family="Helvetica,sans-Serif" font-size="10.00"> &gt;::printLine</text>
</a>
</g>
</g>
<!-- Node1&#45;&gt;Node4 -->
<g id="edge3" class="edge">
<title>Node1&#45;&gt;Node4</title>
<path fill="none" stroke="midnightblue" d="M107.2,-92C115.36,-92 123.98,-92 132.68,-92"/>
<polygon fill="midnightblue" stroke="midnightblue" points="132.92,-95.5 142.92,-92 132.92,-88.5 132.92,-95.5"/>
</g>
<!-- Node5 -->
<g id="node5" class="node">
<title>Node5</title>
<g id="a_node5"><a xlink:href="FileParser_8h.html#a05aeb46aa7f312dd74467464305b1a5b" target="_top" xlink:title="Reads a JSON file and stores the data in a JSON object.">
<polygon fill="white" stroke="black" points="192.5,-38.5 192.5,-57.5 254.5,-57.5 254.5,-38.5 192.5,-38.5"/>
<text text-anchor="middle" x="223.5" y="-45.5" font-family="Helvetica,sans-Serif" font-size="10.00">readJSON</text>
</a>
</g>
</g>
<!-- Node1&#45;&gt;Node5 -->
<g id="edge4" class="edge">
<title>Node1&#45;&gt;Node5</title>
<path fill="none" stroke="midnightblue" d="M89.35,-82.39C105.63,-77.94 125.29,-72.63 143,-68 155.82,-64.65 169.83,-61.09 182.47,-57.92"/>
<polygon fill="midnightblue" stroke="midnightblue" points="183.41,-61.29 192.27,-55.47 181.72,-54.5 183.41,-61.29"/>
</g>
<!-- Node6 -->
<g id="node6" class="node">
<title>Node6</title>
<g id="a_node6"><a xlink:href="classMyBLAS_1_1Vector.html#aae30f8178e4a34d332317c61e77c147a" target="_top" xlink:title="Getter for the size of the vector.">
<polygon fill="white" stroke="black" points="164,-0.5 164,-19.5 283,-19.5 283,-0.5 164,-0.5"/>
<text text-anchor="middle" x="223.5" y="-7.5" font-family="Helvetica,sans-Serif" font-size="10.00">MyBLAS::Vector::size</text>
</a>
</g>
</g>
<!-- Node1&#45;&gt;Node6 -->
<g id="edge5" class="edge">
<title>Node1&#45;&gt;Node6</title>
<path fill="none" stroke="midnightblue" d="M65.1,-82.35C80.9,-68.49 112.09,-43.05 143,-29 148.38,-26.55 154.11,-24.4 159.94,-22.51"/>
<polygon fill="midnightblue" stroke="midnightblue" points="161.21,-25.79 169.8,-19.57 159.21,-19.08 161.21,-25.79"/>
</g>
</g>
</svg>
