<?xml version="1.0" encoding="UTF-8" standalone="no"?>
<!DOCTYPE svg PUBLIC "-//W3C//DTD SVG 1.1//EN"
 "http://www.w3.org/Graphics/SVG/1.1/DTD/svg11.dtd">
<!-- Generated by graphviz version 2.43.0 (0)
 -->
<!-- Title: Parser::buildInputs Pages: 1 -->
<svg width="891pt" height="455pt"
 viewBox="0.00 0.00 891.00 454.75" xmlns="http://www.w3.org/2000/svg" xmlns:xlink="http://www.w3.org/1999/xlink">
<g id="graph0" class="graph" transform="scale(1 1) rotate(0) translate(4 450.75)">
<title>Parser::buildInputs</title>
<polygon fill="white" stroke="transparent" points="-4,4 -4,-450.75 887,-450.75 887,4 -4,4"/>
<!-- Node1 -->
<g id="node1" class="node">
<title>Node1</title>
<g id="a_node1"><a xlink:title="Builds the input matrices for the MyBLAS library from a JSON file.">
<polygon fill="#bfbfbf" stroke="black" points="0,-156.5 0,-175.5 107,-175.5 107,-156.5 0,-156.5"/>
<text text-anchor="middle" x="53.5" y="-163.5" font-family="Helvetica,sans-Serif" font-size="10.00">Parser::buildInputs</text>
</a>
</g>
</g>
<!-- Node2 -->
<g id="node2" class="node">
<title>Node2</title>
<g id="a_node2"><a xlink:href="namespaceMyBLAS_1_1System.html#a5b9991a25190905c20d452052c663124" target="_top" xlink:title="Generates a circuit with random resistances and currents, and computes the corresponding voltages....">
<polygon fill="white" stroke="black" points="155,-270.5 155,-289.5 292,-289.5 292,-270.5 155,-270.5"/>
<text text-anchor="middle" x="223.5" y="-277.5" font-family="Helvetica,sans-Serif" font-size="10.00">MyBLAS::System::Circuit</text>
</a>
</g>
</g>
<!-- Node1&#45;&gt;Node2 -->
<g id="edge1" class="edge">
<title>Node1&#45;&gt;Node2</title>
<path fill="none" stroke="midnightblue" d="M68.53,-175.52C97.49,-195.17 164.1,-240.37 199.47,-264.37"/>
<polygon fill="midnightblue" stroke="midnightblue" points="197.91,-267.54 208.15,-270.26 201.84,-261.75 197.91,-267.54"/>
</g>
<!-- Node3 -->
<g id="node3" class="node">
<title>Node3</title>
<g id="a_node3"><a xlink:href="namespaceRandom.html#a26c3caf157a29ac9d9227ec40248c845" target="_top" xlink:title="Generates a vector of random numbers.">
<polygon fill="white" stroke="black" points="382,-356.5 382,-375.5 489,-375.5 489,-356.5 382,-356.5"/>
<text text-anchor="middle" x="435.5" y="-363.5" font-family="Helvetica,sans-Serif" font-size="10.00">Random::generate</text>
</a>
</g>
</g>
<!-- Node1&#45;&gt;Node3 -->
<g id="edge23" class="edge">
<title>Node1&#45;&gt;Node3</title>
<path fill="none" stroke="midnightblue" d="M57.93,-175.52C67.34,-200.19 96,-266.51 143,-299 211.59,-346.41 308.81,-360.7 371.76,-364.77"/>
<polygon fill="midnightblue" stroke="midnightblue" points="371.76,-368.28 381.95,-365.36 372.17,-361.29 371.76,-368.28"/>
</g>
<!-- Node6 -->
<g id="node6" class="node">
<title>Node6</title>
<g id="a_node6"><a xlink:href="classMyBLAS_1_1Vector.html#aae30f8178e4a34d332317c61e77c147a" target="_top" xlink:title="Getter for the size of the vector.">
<polygon fill="white" stroke="black" points="752,-403.5 752,-422.5 871,-422.5 871,-403.5 752,-403.5"/>
<text text-anchor="middle" x="811.5" y="-410.5" font-family="Helvetica,sans-Serif" font-size="10.00">MyBLAS::Vector::size</text>
</a>
</g>
</g>
<!-- Node1&#45;&gt;Node6 -->
<g id="edge29" class="edge">
<title>Node1&#45;&gt;Node6</title>
<path fill="none" stroke="midnightblue" d="M56.4,-175.8C62.72,-205.75 86.03,-296.68 143,-341 327.78,-484.75 633.5,-447.25 756.64,-424.43"/>
<polygon fill="midnightblue" stroke="midnightblue" points="757.42,-427.84 766.59,-422.54 756.11,-420.97 757.42,-427.84"/>
</g>
<!-- Node10 -->
<g id="node10" class="node">
<title>Node10</title>
<g id="a_node10"><a xlink:href="classMyBLAS_1_1Matrix.html#a0772df3e76eadc9035e847316de0d249" target="_top" xlink:title="Getter for the number of rows in the matrix.">
<polygon fill="white" stroke="black" points="740,-232.5 740,-251.5 883,-251.5 883,-232.5 740,-232.5"/>
<text text-anchor="middle" x="811.5" y="-239.5" font-family="Helvetica,sans-Serif" font-size="10.00">MyBLAS::Matrix::getRows</text>
</a>
</g>
</g>
<!-- Node1&#45;&gt;Node10 -->
<g id="edge25" class="edge">
<title>Node1&#45;&gt;Node10</title>
<path fill="none" stroke="midnightblue" d="M101.67,-156.43C210.85,-136.3 488.15,-96.88 704,-166 740.31,-177.63 774.8,-206.69 794.24,-225.32"/>
<polygon fill="midnightblue" stroke="midnightblue" points="791.8,-227.83 801.38,-232.35 796.71,-222.84 791.8,-227.83"/>
</g>
<!-- Node13 -->
<g id="node13" class="node">
<title>Node13</title>
<g id="a_node13"><a xlink:href="namespaceMyBLAS.html#adb9840781dcd1f2ff4a8c378b30434e0" target="_top" xlink:title="Checks if the given matrix is a square matrix.">
<polygon fill="white" stroke="black" points="567,-175.5 567,-194.5 704,-194.5 704,-175.5 567,-175.5"/>
<text text-anchor="middle" x="635.5" y="-182.5" font-family="Helvetica,sans-Serif" font-size="10.00">MyBLAS::isSquareMatrix</text>
</a>
</g>
</g>
<!-- Node1&#45;&gt;Node13 -->
<g id="edge26" class="edge">
<title>Node1&#45;&gt;Node13</title>
<path fill="none" stroke="midnightblue" d="M107.25,-167.73C209.82,-171.09 436.56,-178.52 556.54,-182.45"/>
<polygon fill="midnightblue" stroke="midnightblue" points="556.64,-185.95 566.75,-182.78 556.87,-178.95 556.64,-185.95"/>
</g>
<!-- Node15 -->
<g id="node15" class="node">
<title>Node15</title>
<g id="a_node15"><a xlink:href="classCommandLine.html#a6a94f5e16b2081e769567d3790b6d8ec" target="_top" xlink:title="Method to get the current precision.">
<polygon fill="white" stroke="black" points="143,-88 143,-118 304,-118 304,-88 143,-88"/>
<text text-anchor="start" x="151" y="-106" font-family="Helvetica,sans-Serif" font-size="10.00">CommandLine&lt; InLab6Inputs</text>
<text text-anchor="middle" x="223.5" y="-95" font-family="Helvetica,sans-Serif" font-size="10.00"> &gt;::getCurrentPrecision</text>
</a>
</g>
</g>
<!-- Node1&#45;&gt;Node15 -->
<g id="edge24" class="edge">
<title>Node1&#45;&gt;Node15</title>
<path fill="none" stroke="midnightblue" d="M80.02,-156.43C104.53,-147.24 142.25,-133.1 172.71,-121.67"/>
<polygon fill="midnightblue" stroke="midnightblue" points="174.19,-124.85 182.33,-118.07 171.73,-118.3 174.19,-124.85"/>
</g>
<!-- Node16 -->
<g id="node16" class="node">
<title>Node16</title>
<g id="a_node16"><a xlink:href="classCommandLine.html#a7001590923e6bfdf380448136b8e65bd" target="_top" xlink:title="Method to print a line to the console. This method prints a line of dashes to the console.">
<polygon fill="white" stroke="black" points="143,-39 143,-69 304,-69 304,-39 143,-39"/>
<text text-anchor="start" x="151" y="-57" font-family="Helvetica,sans-Serif" font-size="10.00">CommandLine&lt; InLab6Inputs</text>
<text text-anchor="middle" x="223.5" y="-46" font-family="Helvetica,sans-Serif" font-size="10.00"> &gt;::printLine</text>
</a>
</g>
</g>
<!-- Node1&#45;&gt;Node16 -->
<g id="edge27" class="edge">
<title>Node1&#45;&gt;Node16</title>
<path fill="none" stroke="midnightblue" d="M61.63,-156.25C75.36,-138.16 107.27,-99.31 143,-78 145.85,-76.3 148.83,-74.71 151.89,-73.23"/>
<polygon fill="midnightblue" stroke="midnightblue" points="153.54,-76.33 161.28,-69.09 150.71,-69.92 153.54,-76.33"/>
</g>
<!-- Node17 -->
<g id="node17" class="node">
<title>Node17</title>
<g id="a_node17"><a xlink:href="FileParser_8h.html#a05aeb46aa7f312dd74467464305b1a5b" target="_top" xlink:title="Reads a JSON file and stores the data in a JSON object.">
<polygon fill="white" stroke="black" points="192.5,-0.5 192.5,-19.5 254.5,-19.5 254.5,-0.5 192.5,-0.5"/>
<text text-anchor="middle" x="223.5" y="-7.5" font-family="Helvetica,sans-Serif" font-size="10.00">readJSON</text>
</a>
</g>
</g>
<!-- Node1&#45;&gt;Node17 -->
<g id="edge28" class="edge">
<title>Node1&#45;&gt;Node17</title>
<path fill="none" stroke="midnightblue" d="M57.86,-156.22C67.1,-130.87 95.39,-62.7 143,-29 154.45,-20.9 168.9,-16.22 182.33,-13.53"/>
<polygon fill="midnightblue" stroke="midnightblue" points="183.07,-16.96 192.34,-11.84 181.9,-10.05 183.07,-16.96"/>
</g>
<!-- Node2&#45;&gt;Node3 -->
<g id="edge2" class="edge">
<title>Node2&#45;&gt;Node3</title>
<path fill="none" stroke="midnightblue" d="M241.71,-289.59C263.94,-301.71 304.05,-322.72 340,-337 355.57,-343.18 373.01,-348.87 388.62,-353.54"/>
<polygon fill="midnightblue" stroke="midnightblue" points="388,-357 398.58,-356.45 389.97,-350.28 388,-357"/>
</g>
<!-- Node8 -->
<g id="node8" class="node">
<title>Node8</title>
<g id="a_node8"><a xlink:href="namespaceMyBLAS.html#ad7773b2c0d8c2fea46841a6522f483f5" target="_top" xlink:title="Computes the inner product of two matrices.">
<polygon fill="white" stroke="black" points="573,-327.5 573,-346.5 698,-346.5 698,-327.5 573,-327.5"/>
<text text-anchor="middle" x="635.5" y="-334.5" font-family="Helvetica,sans-Serif" font-size="10.00">MyBLAS::innerProduct</text>
</a>
</g>
</g>
<!-- Node2&#45;&gt;Node8 -->
<g id="edge9" class="edge">
<title>Node2&#45;&gt;Node8</title>
<path fill="none" stroke="midnightblue" d="M279.96,-289.52C298.97,-292.68 320.4,-296.12 340,-299 415.94,-310.14 503.16,-321.18 562.86,-328.46"/>
<polygon fill="midnightblue" stroke="midnightblue" points="562.58,-331.95 572.93,-329.69 563.43,-325 562.58,-331.95"/>
</g>
<!-- Node11 -->
<g id="node11" class="node">
<title>Node11</title>
<g id="a_node11"><a xlink:href="namespaceMyBLAS.html#a4c6e919f9667070f40bd837a5f6bcab6" target="_top" xlink:title="Checks if the given matrix is diagonally dominant.">
<polygon fill="white" stroke="black" points="349.5,-213.5 349.5,-232.5 521.5,-232.5 521.5,-213.5 349.5,-213.5"/>
<text text-anchor="middle" x="435.5" y="-220.5" font-family="Helvetica,sans-Serif" font-size="10.00">MyBLAS::isDiagonallyDominant</text>
</a>
</g>
</g>
<!-- Node2&#45;&gt;Node11 -->
<g id="edge12" class="edge">
<title>Node2&#45;&gt;Node11</title>
<path fill="none" stroke="midnightblue" d="M259.65,-270.46C295.23,-260.8 350.41,-245.82 389.24,-235.28"/>
<polygon fill="midnightblue" stroke="midnightblue" points="390.5,-238.57 399.24,-232.57 388.67,-231.81 390.5,-238.57"/>
</g>
<!-- Node14 -->
<g id="node14" class="node">
<title>Node14</title>
<g id="a_node14"><a xlink:href="namespaceMyBLAS.html#a95a31a537601936a645cd405411f3732" target="_top" xlink:title="Makes the given matrix diagonally dominant.">
<polygon fill="white" stroke="black" points="340,-270.5 340,-289.5 531,-289.5 531,-270.5 340,-270.5"/>
<text text-anchor="middle" x="435.5" y="-277.5" font-family="Helvetica,sans-Serif" font-size="10.00">MyBLAS::makeDiagonallyDominant</text>
</a>
</g>
</g>
<!-- Node2&#45;&gt;Node14 -->
<g id="edge20" class="edge">
<title>Node2&#45;&gt;Node14</title>
<path fill="none" stroke="midnightblue" d="M292.1,-280C304.12,-280 316.88,-280 329.65,-280"/>
<polygon fill="midnightblue" stroke="midnightblue" points="329.87,-283.5 339.87,-280 329.87,-276.5 329.87,-283.5"/>
</g>
<!-- Node4 -->
<g id="node4" class="node">
<title>Node4</title>
<g id="a_node4"><a xlink:href="namespaceMyBLAS.html#a990467e8430064e652754897d099b7bf" target="_top" xlink:title="Calculates the maximum value of the vector.">
<polygon fill="white" stroke="black" points="593,-403.5 593,-422.5 678,-422.5 678,-403.5 593,-403.5"/>
<text text-anchor="middle" x="635.5" y="-410.5" font-family="Helvetica,sans-Serif" font-size="10.00">MyBLAS::max</text>
</a>
</g>
</g>
<!-- Node3&#45;&gt;Node4 -->
<g id="edge3" class="edge">
<title>Node3&#45;&gt;Node4</title>
<path fill="none" stroke="midnightblue" d="M476.57,-375.51C507.6,-382.88 550.77,-393.12 584.14,-401.04"/>
<polygon fill="midnightblue" stroke="midnightblue" points="583.61,-404.52 594.15,-403.42 585.23,-397.71 583.61,-404.52"/>
</g>
<!-- Node7 -->
<g id="node7" class="node">
<title>Node7</title>
<g id="a_node7"><a xlink:href="namespaceMyBLAS.html#a50834683eb1a4cb5adbe71091be113c7" target="_top" xlink:title="Calculates the minimum value of the vector.">
<polygon fill="white" stroke="black" points="594.5,-365.5 594.5,-384.5 676.5,-384.5 676.5,-365.5 594.5,-365.5"/>
<text text-anchor="middle" x="635.5" y="-372.5" font-family="Helvetica,sans-Serif" font-size="10.00">MyBLAS::min</text>
</a>
</g>
</g>
<!-- Node3&#45;&gt;Node7 -->
<g id="edge6" class="edge">
<title>Node3&#45;&gt;Node7</title>
<path fill="none" stroke="midnightblue" d="M489.04,-368.39C518.43,-369.72 554.88,-371.38 583.94,-372.7"/>
<polygon fill="midnightblue" stroke="midnightblue" points="584.13,-376.21 594.28,-373.17 584.45,-369.22 584.13,-376.21"/>
</g>
<!-- Node5 -->
<g id="node5" class="node">
<title>Node5</title>
<g id="a_node5"><a xlink:href="classMyBLAS_1_1Vector.html#a6188d71192e096e25ae1c1a46150a0ab" target="_top" xlink:title="Getter for the vector data.">
<polygon fill="white" stroke="black" points="742,-365.5 742,-384.5 881,-384.5 881,-365.5 742,-365.5"/>
<text text-anchor="middle" x="811.5" y="-372.5" font-family="Helvetica,sans-Serif" font-size="10.00">MyBLAS::Vector::getData</text>
</a>
</g>
</g>
<!-- Node4&#45;&gt;Node5 -->
<g id="edge4" class="edge">
<title>Node4&#45;&gt;Node5</title>
<path fill="none" stroke="midnightblue" d="M678.18,-403.9C701.79,-398.74 731.57,-392.24 756.91,-386.7"/>
<polygon fill="midnightblue" stroke="midnightblue" points="757.71,-390.11 766.73,-384.56 756.22,-383.27 757.71,-390.11"/>
</g>
<!-- Node4&#45;&gt;Node6 -->
<g id="edge5" class="edge">
<title>Node4&#45;&gt;Node6</title>
<path fill="none" stroke="midnightblue" d="M678.18,-413C697.19,-413 720.2,-413 741.67,-413"/>
<polygon fill="midnightblue" stroke="midnightblue" points="741.73,-416.5 751.73,-413 741.73,-409.5 741.73,-416.5"/>
</g>
<!-- Node7&#45;&gt;Node5 -->
<g id="edge7" class="edge">
<title>Node7&#45;&gt;Node5</title>
<path fill="none" stroke="midnightblue" d="M676.86,-375C693.2,-375 712.65,-375 731.59,-375"/>
<polygon fill="midnightblue" stroke="midnightblue" points="731.73,-378.5 741.73,-375 731.73,-371.5 731.73,-378.5"/>
</g>
<!-- Node7&#45;&gt;Node6 -->
<g id="edge8" class="edge">
<title>Node7&#45;&gt;Node6</title>
<path fill="none" stroke="midnightblue" d="M676.86,-383.81C700.61,-389 730.95,-395.63 756.71,-401.25"/>
<polygon fill="midnightblue" stroke="midnightblue" points="756.19,-404.72 766.7,-403.44 757.68,-397.88 756.19,-404.72"/>
</g>
<!-- Node9 -->
<g id="node9" class="node">
<title>Node9</title>
<g id="a_node9"><a xlink:href="classMyBLAS_1_1Matrix.html#a720cd9095d330d43de367bfbffffb864" target="_top" xlink:title="Getter for the number of columns in the matrix.">
<polygon fill="white" stroke="black" points="743,-289.5 743,-308.5 880,-308.5 880,-289.5 743,-289.5"/>
<text text-anchor="middle" x="811.5" y="-296.5" font-family="Helvetica,sans-Serif" font-size="10.00">MyBLAS::Matrix::getCols</text>
</a>
</g>
</g>
<!-- Node8&#45;&gt;Node9 -->
<g id="edge10" class="edge">
<title>Node8&#45;&gt;Node9</title>
<path fill="none" stroke="midnightblue" d="M680.41,-327.41C703.68,-322.33 732.45,-316.04 757.02,-310.68"/>
<polygon fill="midnightblue" stroke="midnightblue" points="757.89,-314.07 766.91,-308.52 756.39,-307.23 757.89,-314.07"/>
</g>
<!-- Node8&#45;&gt;Node10 -->
<g id="edge11" class="edge">
<title>Node8&#45;&gt;Node10</title>
<path fill="none" stroke="midnightblue" d="M683.26,-327.41C690.48,-324.93 697.64,-321.84 704,-318 723.91,-305.97 721.53,-294.14 740,-280 751.97,-270.84 766.43,-262.63 779.14,-256.2"/>
<polygon fill="midnightblue" stroke="midnightblue" points="781,-259.18 788.45,-251.64 777.93,-252.9 781,-259.18"/>
</g>
<!-- Node11&#45;&gt;Node10 -->
<g id="edge16" class="edge">
<title>Node11&#45;&gt;Node10</title>
<path fill="none" stroke="midnightblue" d="M521.83,-227.34C584.33,-230.51 668.58,-234.79 729.93,-237.91"/>
<polygon fill="midnightblue" stroke="midnightblue" points="729.79,-241.4 739.95,-238.42 730.14,-234.41 729.79,-241.4"/>
</g>
<!-- Node12 -->
<g id="node12" class="node">
<title>Node12</title>
<g id="a_node12"><a xlink:href="namespaceMyBLAS.html#a6f970b1188ed02d14bee3698f1b9d40a" target="_top" xlink:title="Calculates the absolute value of the matrix.">
<polygon fill="white" stroke="black" points="595.5,-289.5 595.5,-308.5 675.5,-308.5 675.5,-289.5 595.5,-289.5"/>
<text text-anchor="middle" x="635.5" y="-296.5" font-family="Helvetica,sans-Serif" font-size="10.00">MyBLAS::abs</text>
</a>
</g>
</g>
<!-- Node11&#45;&gt;Node12 -->
<g id="edge13" class="edge">
<title>Node11&#45;&gt;Node12</title>
<path fill="none" stroke="midnightblue" d="M461.58,-232.63C496.69,-246.1 560.62,-270.64 600.14,-285.81"/>
<polygon fill="midnightblue" stroke="midnightblue" points="599.04,-289.14 609.63,-289.45 601.55,-282.6 599.04,-289.14"/>
</g>
<!-- Node11&#45;&gt;Node13 -->
<g id="edge17" class="edge">
<title>Node11&#45;&gt;Node13</title>
<path fill="none" stroke="midnightblue" d="M486.21,-213.46C513.04,-208.31 546.36,-201.92 574.61,-196.49"/>
<polygon fill="midnightblue" stroke="midnightblue" points="575.61,-199.87 584.77,-194.54 574.29,-192.99 575.61,-199.87"/>
</g>
<!-- Node12&#45;&gt;Node9 -->
<g id="edge14" class="edge">
<title>Node12&#45;&gt;Node9</title>
<path fill="none" stroke="midnightblue" d="M675.55,-299C692.44,-299 712.85,-299 732.61,-299"/>
<polygon fill="midnightblue" stroke="midnightblue" points="732.87,-302.5 742.87,-299 732.87,-295.5 732.87,-302.5"/>
</g>
<!-- Node12&#45;&gt;Node10 -->
<g id="edge15" class="edge">
<title>Node12&#45;&gt;Node10</title>
<path fill="none" stroke="midnightblue" d="M665.62,-289.46C694.73,-279.92 739.66,-265.21 771.76,-254.69"/>
<polygon fill="midnightblue" stroke="midnightblue" points="772.87,-258.01 781.28,-251.57 770.69,-251.36 772.87,-258.01"/>
</g>
<!-- Node13&#45;&gt;Node9 -->
<g id="edge18" class="edge">
<title>Node13&#45;&gt;Node9</title>
<path fill="none" stroke="midnightblue" d="M648.54,-194.7C667.45,-209.73 705.52,-239.2 740,-261 753.43,-269.49 768.91,-277.97 781.95,-284.76"/>
<polygon fill="midnightblue" stroke="midnightblue" points="780.44,-287.92 790.94,-289.38 783.64,-281.7 780.44,-287.92"/>
</g>
<!-- Node13&#45;&gt;Node10 -->
<g id="edge19" class="edge">
<title>Node13&#45;&gt;Node10</title>
<path fill="none" stroke="midnightblue" d="M665.62,-194.54C694.73,-204.08 739.66,-218.79 771.76,-229.31"/>
<polygon fill="midnightblue" stroke="midnightblue" points="770.69,-232.64 781.28,-232.43 772.87,-225.99 770.69,-232.64"/>
</g>
<!-- Node14&#45;&gt;Node10 -->
<g id="edge22" class="edge">
<title>Node14&#45;&gt;Node10</title>
<path fill="none" stroke="midnightblue" d="M530.39,-270.46C591.86,-264.21 671.34,-256.14 729.93,-250.19"/>
<polygon fill="midnightblue" stroke="midnightblue" points="730.29,-253.67 739.88,-249.18 729.58,-246.7 730.29,-253.67"/>
</g>
<!-- Node14&#45;&gt;Node12 -->
<g id="edge21" class="edge">
<title>Node14&#45;&gt;Node12</title>
<path fill="none" stroke="midnightblue" d="M531.15,-289.08C549.75,-290.87 568.55,-292.67 584.92,-294.24"/>
<polygon fill="midnightblue" stroke="midnightblue" points="585.02,-297.77 595.31,-295.24 585.69,-290.8 585.02,-297.77"/>
</g>
</g>
</svg>
