<?xml version="1.0" encoding="UTF-8" standalone="no"?>
<!DOCTYPE svg PUBLIC "-//W3C//DTD SVG 1.1//EN"
 "http://www.w3.org/Graphics/SVG/1.1/DTD/svg11.dtd">
<!-- Generated by graphviz version 2.43.0 (0)
 -->
<!-- Title: OutLab4 Pages: 1 -->
<svg width="186pt" height="259pt"
 viewBox="0.00 0.00 186.00 259.00" xmlns="http://www.w3.org/2000/svg" xmlns:xlink="http://www.w3.org/1999/xlink">
<g id="graph0" class="graph" transform="scale(1 1) rotate(0) translate(4 255)">
<title>OutLab4</title>
<polygon fill="white" stroke="transparent" points="-4,4 -4,-255 182,-255 182,4 -4,4"/>
<!-- Node1 -->
<g id="node1" class="node">
<title>Node1</title>
<g id="a_node1"><a xlink:title="This class is a child of the Project class and is used to solve a system of linear equations using fo...">
<polygon fill="#bfbfbf" stroke="black" points="32.5,-0.5 32.5,-79.5 145.5,-79.5 145.5,-0.5 32.5,-0.5"/>
<text text-anchor="middle" x="89" y="-67.5" font-family="Helvetica,sans-Serif" font-size="10.00">OutLab4</text>
<polyline fill="none" stroke="black" points="32.5,-60.5 145.5,-60.5 "/>
<text text-anchor="middle" x="89" y="-48.5" font-family="Helvetica,sans-Serif" font-size="10.00"> </text>
<polyline fill="none" stroke="black" points="32.5,-41.5 145.5,-41.5 "/>
<text text-anchor="start" x="40.5" y="-29.5" font-family="Helvetica,sans-Serif" font-size="10.00">+ OutLab4()</text>
<text text-anchor="start" x="40.5" y="-18.5" font-family="Helvetica,sans-Serif" font-size="10.00"># buildHeaderInfo()</text>
<text text-anchor="start" x="40.5" y="-7.5" font-family="Helvetica,sans-Serif" font-size="10.00">and 1 more...</text>
</a>
</g>
</g>
<!-- Node2 -->
<g id="node2" class="node">
<title>Node2</title>
<g id="a_node2"><a xlink:href="classProject.html" target="_top" xlink:title=" ">
<polygon fill="white" stroke="black" points="0,-116.5 0,-250.5 178,-250.5 178,-116.5 0,-116.5"/>
<text text-anchor="start" x="8" y="-238.5" font-family="Helvetica,sans-Serif" font-size="10.00">Project&lt; MyBLAS::InputMatrices,</text>
<text text-anchor="middle" x="89" y="-227.5" font-family="Helvetica,sans-Serif" font-size="10.00"> Parser, MyBLAS::OutputVector &gt;</text>
<polyline fill="none" stroke="black" points="0,-220.5 178,-220.5 "/>
<text text-anchor="start" x="8" y="-208.5" font-family="Helvetica,sans-Serif" font-size="10.00">&#45; cmdArgs</text>
<text text-anchor="start" x="8" y="-197.5" font-family="Helvetica,sans-Serif" font-size="10.00">and 2 more...</text>
<polyline fill="none" stroke="black" points="0,-190.5 178,-190.5 "/>
<text text-anchor="start" x="8" y="-178.5" font-family="Helvetica,sans-Serif" font-size="10.00">+ Project()</text>
<text text-anchor="start" x="8" y="-167.5" font-family="Helvetica,sans-Serif" font-size="10.00">and 3 more...</text>
<text text-anchor="start" x="8" y="-156.5" font-family="Helvetica,sans-Serif" font-size="10.00"># buildHeaderInfo()</text>
<text text-anchor="start" x="8" y="-145.5" font-family="Helvetica,sans-Serif" font-size="10.00">and 3 more...</text>
<text text-anchor="start" x="8" y="-134.5" font-family="Helvetica,sans-Serif" font-size="10.00">&#45; initialize()</text>
<text text-anchor="start" x="8" y="-123.5" font-family="Helvetica,sans-Serif" font-size="10.00">and 1 more...</text>
</a>
</g>
</g>
<!-- Node2&#45;&gt;Node1 -->
<g id="edge1" class="edge">
<title>Node2&#45;&gt;Node1</title>
<path fill="none" stroke="midnightblue" d="M89,-106.03C89,-96.95 89,-87.99 89,-79.76"/>
<polygon fill="none" stroke="midnightblue" points="85.5,-106.31 89,-116.31 92.5,-106.31 85.5,-106.31"/>
</g>
</g>
</svg>
