<?xml version="1.0" encoding="UTF-8" standalone="no"?>
<!DOCTYPE svg PUBLIC "-//W3C//DTD SVG 1.1//EN"
 "http://www.w3.org/Graphics/SVG/1.1/DTD/svg11.dtd">
<!-- Generated by graphviz version 2.43.0 (0)
 -->
<!-- Title: src/utils/math/blas/tests Pages: 1 -->
<svg width="342pt" height="247pt"
 viewBox="0.00 0.00 342.00 247.00" xmlns="http://www.w3.org/2000/svg" xmlns:xlink="http://www.w3.org/1999/xlink">
<g id="graph0" class="graph" transform="scale(1 1) rotate(0) translate(4 243)">
<title>src/utils/math/blas/tests</title>
<polygon fill="white" stroke="transparent" points="-4,4 -4,-243 338,-243 338,4 -4,4"/>
<g id="clust1" class="cluster">
<title>clusterdir_2558aeec9886bed07c244e0fb01777c5</title>
<g id="a_clust1"><a xlink:href="dir_2558aeec9886bed07c244e0fb01777c5.html" target="_top" xlink:title="blas">
<polygon fill="#ddddee" stroke="black" points="8,-8 8,-231 326,-231 326,-8 8,-8"/>
<text text-anchor="middle" x="167" y="-219" font-family="Helvetica,sans-Serif" font-size="10.00">blas</text>
</a>
</g>
</g>
<g id="clust2" class="cluster">
<title>clusterdir_eeb2278aa19789b64f9844cc77ce7daa</title>
<g id="a_clust2"><a xlink:href="dir_eeb2278aa19789b64f9844cc77ce7daa.html" target="_top">
<polygon fill="#eeeeff" stroke="black" points="16,-152 16,-204 318,-204 318,-152 16,-152"/>
</a>
</g>
</g>
<!-- dir_607cbc66c57a0f67766ebe1d0e664fdc -->
<g id="node1" class="node">
<title>dir_607cbc66c57a0f67766ebe1d0e664fdc</title>
<g id="a_node1"><a xlink:href="dir_607cbc66c57a0f67766ebe1d0e664fdc.html" target="_top" xlink:title="vector">
<polygon fill="none" stroke="black" points="166,-52 112,-52 112,-16 166,-16 166,-52"/>
<text text-anchor="middle" x="139" y="-31.5" font-family="Helvetica,sans-Serif" font-size="10.00">vector</text>
</a>
</g>
</g>
<!-- dir_b68a48aa2a0ac34a16e8d1585cdaec99 -->
<g id="node2" class="node">
<title>dir_b68a48aa2a0ac34a16e8d1585cdaec99</title>
<g id="a_node2"><a xlink:href="dir_b68a48aa2a0ac34a16e8d1585cdaec99.html" target="_top" xlink:title="matrix">
<polygon fill="none" stroke="black" points="166,-124 112,-124 112,-88 166,-88 166,-124"/>
<text text-anchor="middle" x="139" y="-103.5" font-family="Helvetica,sans-Serif" font-size="10.00">matrix</text>
</a>
</g>
</g>
<!-- dir_b68a48aa2a0ac34a16e8d1585cdaec99&#45;&gt;dir_607cbc66c57a0f67766ebe1d0e664fdc -->
<g id="edge3" class="edge">
<title>dir_b68a48aa2a0ac34a16e8d1585cdaec99&#45;&gt;dir_607cbc66c57a0f67766ebe1d0e664fdc</title>
<path fill="none" stroke="black" d="M139,-87.7C139,-79.98 139,-70.71 139,-62.11"/>
<polygon fill="black" stroke="black" points="142.5,-62.1 139,-52.1 135.5,-62.1 142.5,-62.1"/>
<g id="a_edge3&#45;headlabel"><a xlink:href="dir_000043_000048.html" target="_top" xlink:title="1">
<text text-anchor="middle" x="145.34" y="-63.2" font-family="Helvetica,sans-Serif" font-size="10.00">1</text>
</a>
</g>
</g>
<!-- dir_eeb2278aa19789b64f9844cc77ce7daa -->
<g id="node3" class="node">
<title>dir_eeb2278aa19789b64f9844cc77ce7daa</title>
<text text-anchor="middle" x="283" y="-175.5" font-family="Helvetica,sans-Serif" font-size="10.00">tests</text>
</g>
<!-- dir_5e5857cec52617c6091befccc2124a1e -->
<g id="node4" class="node">
<title>dir_5e5857cec52617c6091befccc2124a1e</title>
<g id="a_node4"><a xlink:href="dir_5e5857cec52617c6091befccc2124a1e.html" target="_top" xlink:title="expression">
<polygon fill="white" stroke="black" points="94,-196 24,-196 24,-160 94,-160 94,-196"/>
<text text-anchor="middle" x="59" y="-175.5" font-family="Helvetica,sans-Serif" font-size="10.00">expression</text>
</a>
</g>
</g>
<!-- dir_5e5857cec52617c6091befccc2124a1e&#45;&gt;dir_607cbc66c57a0f67766ebe1d0e664fdc -->
<g id="edge4" class="edge">
<title>dir_5e5857cec52617c6091befccc2124a1e&#45;&gt;dir_607cbc66c57a0f67766ebe1d0e664fdc</title>
<path fill="none" stroke="black" d="M66.6,-159.91C74.88,-141.72 88.85,-112.27 103,-88 108.32,-78.87 114.65,-69.22 120.51,-60.69"/>
<polygon fill="black" stroke="black" points="123.53,-62.48 126.38,-52.28 117.79,-58.47 123.53,-62.48"/>
<g id="a_edge4&#45;headlabel"><a xlink:href="dir_000045_000048.html" target="_top" xlink:title="1">
<text text-anchor="middle" x="123.8" y="-64.55" font-family="Helvetica,sans-Serif" font-size="10.00">1</text>
</a>
</g>
</g>
<!-- dir_5e5857cec52617c6091befccc2124a1e&#45;&gt;dir_b68a48aa2a0ac34a16e8d1585cdaec99 -->
<g id="edge5" class="edge">
<title>dir_5e5857cec52617c6091befccc2124a1e&#45;&gt;dir_b68a48aa2a0ac34a16e8d1585cdaec99</title>
<path fill="none" stroke="black" d="M78.78,-159.7C88.75,-150.97 101.01,-140.24 111.86,-130.75"/>
<polygon fill="black" stroke="black" points="114.23,-133.32 119.45,-124.1 109.62,-128.06 114.23,-133.32"/>
<g id="a_edge5&#45;headlabel"><a xlink:href="dir_000045_000043.html" target="_top" xlink:title="1">
<text text-anchor="middle" x="113.4" y="-135.33" font-family="Helvetica,sans-Serif" font-size="10.00">1</text>
</a>
</g>
</g>
<!-- dir_3d96014e321dae2205d5bfa3a247e16d -->
<g id="node5" class="node">
<title>dir_3d96014e321dae2205d5bfa3a247e16d</title>
<g id="a_node5"><a xlink:href="dir_3d96014e321dae2205d5bfa3a247e16d.html" target="_top" xlink:title="lazy">
<polygon fill="white" stroke="black" points="238,-196 184,-196 184,-160 238,-160 238,-196"/>
<text text-anchor="middle" x="211" y="-175.5" font-family="Helvetica,sans-Serif" font-size="10.00">lazy</text>
</a>
</g>
</g>
<!-- dir_3d96014e321dae2205d5bfa3a247e16d&#45;&gt;dir_607cbc66c57a0f67766ebe1d0e664fdc -->
<g id="edge1" class="edge">
<title>dir_3d96014e321dae2205d5bfa3a247e16d&#45;&gt;dir_607cbc66c57a0f67766ebe1d0e664fdc</title>
<path fill="none" stroke="black" d="M205.27,-159.79C198.89,-141.49 187.8,-111.96 175,-88 170.02,-78.68 163.78,-68.98 157.9,-60.46"/>
<polygon fill="black" stroke="black" points="160.6,-58.22 151.97,-52.08 154.89,-62.27 160.6,-58.22"/>
<g id="a_edge1&#45;headlabel"><a xlink:href="dir_000046_000048.html" target="_top" xlink:title="1">
<text text-anchor="middle" x="165" y="-57.02" font-family="Helvetica,sans-Serif" font-size="10.00">1</text>
</a>
</g>
</g>
<!-- dir_3d96014e321dae2205d5bfa3a247e16d&#45;&gt;dir_b68a48aa2a0ac34a16e8d1585cdaec99 -->
<g id="edge2" class="edge">
<title>dir_3d96014e321dae2205d5bfa3a247e16d&#45;&gt;dir_b68a48aa2a0ac34a16e8d1585cdaec99</title>
<path fill="none" stroke="black" d="M193.2,-159.7C184.4,-151.14 173.62,-140.66 164,-131.3"/>
<polygon fill="black" stroke="black" points="166.2,-128.57 156.59,-124.1 161.32,-133.58 166.2,-128.57"/>
<g id="a_edge2&#45;headlabel"><a xlink:href="dir_000046_000043.html" target="_top" xlink:title="1">
<text text-anchor="middle" x="170.76" y="-126.54" font-family="Helvetica,sans-Serif" font-size="10.00">1</text>
</a>
</g>
</g>
<!-- dir_17915e33a814a238bb3a2acc29d47579 -->
<g id="node6" class="node">
<title>dir_17915e33a814a238bb3a2acc29d47579</title>
<g id="a_node6"><a xlink:href="dir_17915e33a814a238bb3a2acc29d47579.html" target="_top" xlink:title="matrix">
<polygon fill="white" stroke="black" points="166,-196 112,-196 112,-160 166,-160 166,-196"/>
<text text-anchor="middle" x="139" y="-175.5" font-family="Helvetica,sans-Serif" font-size="10.00">matrix</text>
</a>
</g>
</g>
<!-- dir_17915e33a814a238bb3a2acc29d47579&#45;&gt;dir_b68a48aa2a0ac34a16e8d1585cdaec99 -->
<g id="edge6" class="edge">
<title>dir_17915e33a814a238bb3a2acc29d47579&#45;&gt;dir_b68a48aa2a0ac34a16e8d1585cdaec99</title>
<path fill="none" stroke="black" d="M139,-159.7C139,-151.98 139,-142.71 139,-134.11"/>
<polygon fill="black" stroke="black" points="142.5,-134.1 139,-124.1 135.5,-134.1 142.5,-134.1"/>
<g id="a_edge6&#45;headlabel"><a xlink:href="dir_000047_000043.html" target="_top" xlink:title="2">
<text text-anchor="middle" x="145.34" y="-135.2" font-family="Helvetica,sans-Serif" font-size="10.00">2</text>
</a>
</g>
</g>
</g>
</svg>
