<?xml version="1.0" encoding="UTF-8" standalone="no"?>
<!DOCTYPE svg PUBLIC "-//W3C//DTD SVG 1.1//EN"
 "http://www.w3.org/Graphics/SVG/1.1/DTD/svg11.dtd">
<!-- Generated by graphviz version 2.43.0 (0)
 -->
<!-- Title: src/utils/math/blas/solver Pages: 1 -->
<svg width="232pt" height="276pt"
 viewBox="0.00 0.00 231.92 276.00" xmlns="http://www.w3.org/2000/svg" xmlns:xlink="http://www.w3.org/1999/xlink">
<g id="graph0" class="graph" transform="scale(1 1) rotate(0) translate(4 272)">
<title>src/utils/math/blas/solver</title>
<polygon fill="white" stroke="transparent" points="-4,4 -4,-272 227.92,-272 227.92,4 -4,4"/>
<g id="clust1" class="cluster">
<title>clusterdir_2558aeec9886bed07c244e0fb01777c5</title>
<g id="a_clust1"><a xlink:href="dir_2558aeec9886bed07c244e0fb01777c5.html" target="_top" xlink:title="blas">
<polygon fill="#ddddee" stroke="black" points="8,-8 8,-223 98,-223 98,-8 8,-8"/>
<text text-anchor="middle" x="53" y="-211" font-family="Helvetica,sans-Serif" font-size="10.00">blas</text>
</a>
</g>
</g>
<!-- dir_607cbc66c57a0f67766ebe1d0e664fdc -->
<g id="node1" class="node">
<title>dir_607cbc66c57a0f67766ebe1d0e664fdc</title>
<g id="a_node1"><a xlink:href="dir_607cbc66c57a0f67766ebe1d0e664fdc.html" target="_top" xlink:title="vector">
<polygon fill="none" stroke="black" points="90,-124 36,-124 36,-88 90,-88 90,-124"/>
<text text-anchor="middle" x="63" y="-103.5" font-family="Helvetica,sans-Serif" font-size="10.00">vector</text>
</a>
</g>
</g>
<!-- dir_b68a48aa2a0ac34a16e8d1585cdaec99 -->
<g id="node2" class="node">
<title>dir_b68a48aa2a0ac34a16e8d1585cdaec99</title>
<g id="a_node2"><a xlink:href="dir_b68a48aa2a0ac34a16e8d1585cdaec99.html" target="_top" xlink:title="matrix">
<polygon fill="none" stroke="black" points="90,-52 36,-52 36,-16 90,-16 90,-52"/>
<text text-anchor="middle" x="63" y="-31.5" font-family="Helvetica,sans-Serif" font-size="10.00">matrix</text>
</a>
</g>
</g>
<!-- dir_607cbc66c57a0f67766ebe1d0e664fdc&#45;&gt;dir_b68a48aa2a0ac34a16e8d1585cdaec99 -->
<g id="edge8" class="edge">
<title>dir_607cbc66c57a0f67766ebe1d0e664fdc&#45;&gt;dir_b68a48aa2a0ac34a16e8d1585cdaec99</title>
<path fill="none" stroke="black" d="M57.08,-87.7C56.29,-79.98 56.06,-70.71 56.4,-62.11"/>
<polygon fill="black" stroke="black" points="59.9,-62.32 57.1,-52.1 52.92,-61.84 59.9,-62.32"/>
<g id="a_edge8&#45;headlabel"><a xlink:href="dir_000072_000063.html" target="_top" xlink:title="1">
<text text-anchor="middle" x="62.48" y="-63.61" font-family="Helvetica,sans-Serif" font-size="10.00">1</text>
</a>
</g>
</g>
<!-- dir_b68a48aa2a0ac34a16e8d1585cdaec99&#45;&gt;dir_607cbc66c57a0f67766ebe1d0e664fdc -->
<g id="edge9" class="edge">
<title>dir_b68a48aa2a0ac34a16e8d1585cdaec99&#45;&gt;dir_607cbc66c57a0f67766ebe1d0e664fdc</title>
<path fill="none" stroke="black" d="M68.9,-52.1C69.7,-59.79 69.94,-69.05 69.6,-77.67"/>
<polygon fill="black" stroke="black" points="66.11,-77.48 68.92,-87.7 73.09,-77.96 66.11,-77.48"/>
<g id="a_edge9&#45;headlabel"><a xlink:href="dir_000063_000072.html" target="_top" xlink:title="3">
<text text-anchor="middle" x="63.52" y="-71.2" font-family="Helvetica,sans-Serif" font-size="10.00">3</text>
</a>
</g>
</g>
<!-- dir_9a8ce9ae4910652b4993ef1b5d4df016 -->
<g id="node3" class="node">
<title>dir_9a8ce9ae4910652b4993ef1b5d4df016</title>
<g id="a_node3"><a xlink:href="dir_9a8ce9ae4910652b4993ef1b5d4df016.html" target="_top" xlink:title="solver">
<polygon fill="#eeeeff" stroke="black" points="70,-196 16,-196 16,-160 70,-160 70,-196"/>
<text text-anchor="middle" x="43" y="-175.5" font-family="Helvetica,sans-Serif" font-size="10.00">solver</text>
</a>
</g>
</g>
<!-- dir_9a8ce9ae4910652b4993ef1b5d4df016&#45;&gt;dir_607cbc66c57a0f67766ebe1d0e664fdc -->
<g id="edge11" class="edge">
<title>dir_9a8ce9ae4910652b4993ef1b5d4df016&#45;&gt;dir_607cbc66c57a0f67766ebe1d0e664fdc</title>
<path fill="none" stroke="black" d="M47.94,-159.7C50.17,-151.9 52.85,-142.51 55.33,-133.83"/>
<polygon fill="black" stroke="black" points="58.73,-134.68 58.11,-124.1 52,-132.76 58.73,-134.68"/>
<g id="a_edge11&#45;headlabel"><a xlink:href="dir_000064_000072.html" target="_top" xlink:title="2">
<text text-anchor="middle" x="60.47" y="-136.42" font-family="Helvetica,sans-Serif" font-size="10.00">2</text>
</a>
</g>
</g>
<!-- dir_9a8ce9ae4910652b4993ef1b5d4df016&#45;&gt;dir_b68a48aa2a0ac34a16e8d1585cdaec99 -->
<g id="edge13" class="edge">
<title>dir_9a8ce9ae4910652b4993ef1b5d4df016&#45;&gt;dir_b68a48aa2a0ac34a16e8d1585cdaec99</title>
<path fill="none" stroke="black" d="M35.22,-159.98C28.02,-141.85 19.48,-112.46 27,-88 30.01,-78.22 35.51,-68.62 41.32,-60.33"/>
<polygon fill="black" stroke="black" points="44.19,-62.33 47.39,-52.23 38.59,-58.13 44.19,-62.33"/>
<g id="a_edge13&#45;headlabel"><a xlink:href="dir_000064_000063.html" target="_top" xlink:title="2">
<text text-anchor="middle" x="44.31" y="-64.41" font-family="Helvetica,sans-Serif" font-size="10.00">2</text>
</a>
</g>
</g>
<!-- dir_23229132414701a43abba68028dbeba0 -->
<g id="node4" class="node">
<title>dir_23229132414701a43abba68028dbeba0</title>
<g id="a_node4"><a xlink:href="dir_23229132414701a43abba68028dbeba0.html" target="_top" xlink:title="factorization">
<polygon fill="none" stroke="black" points="204,-196 126,-196 126,-160 204,-160 204,-196"/>
<text text-anchor="middle" x="165" y="-175.5" font-family="Helvetica,sans-Serif" font-size="10.00">factorization</text>
</a>
</g>
</g>
<!-- dir_9a8ce9ae4910652b4993ef1b5d4df016&#45;&gt;dir_23229132414701a43abba68028dbeba0 -->
<g id="edge10" class="edge">
<title>dir_9a8ce9ae4910652b4993ef1b5d4df016&#45;&gt;dir_23229132414701a43abba68028dbeba0</title>
<path fill="none" stroke="black" d="M70.16,-178C85.21,-178 100.26,-178 115.31,-178"/>
<polygon fill="black" stroke="black" points="115.73,-181.5 125.73,-178 115.73,-174.5 115.73,-181.5"/>
<g id="a_edge10&#45;headlabel"><a xlink:href="dir_000064_000073.html" target="_top" xlink:title="1">
<text text-anchor="middle" x="112.14" y="-181.84" font-family="Helvetica,sans-Serif" font-size="10.00">1</text>
</a>
</g>
</g>
<!-- dir_8114b88dddde5ffd27fd6f588e96b8a4 -->
<g id="node5" class="node">
<title>dir_8114b88dddde5ffd27fd6f588e96b8a4</title>
<g id="a_node5"><a xlink:href="dir_8114b88dddde5ffd27fd6f588e96b8a4.html" target="_top" xlink:title="relaxation">
<polygon fill="white" stroke="red" points="164,-268 98,-268 98,-232 164,-232 164,-268"/>
<text text-anchor="middle" x="131" y="-247.5" font-family="Helvetica,sans-Serif" font-size="10.00">relaxation</text>
</a>
</g>
</g>
<!-- dir_9a8ce9ae4910652b4993ef1b5d4df016&#45;&gt;dir_8114b88dddde5ffd27fd6f588e96b8a4 -->
<g id="edge12" class="edge">
<title>dir_9a8ce9ae4910652b4993ef1b5d4df016&#45;&gt;dir_8114b88dddde5ffd27fd6f588e96b8a4</title>
<path fill="none" stroke="black" d="M48.66,-196.1C55.18,-204.8 64.96,-215.16 75,-223 79.27,-226.34 84.03,-229.5 88.93,-232.39"/>
<polygon fill="black" stroke="black" points="87.4,-235.54 97.85,-237.29 90.77,-229.41 87.4,-235.54"/>
<g id="a_edge12&#45;headlabel"><a xlink:href="dir_000064_000046.html" target="_top" xlink:title="1">
<text text-anchor="middle" x="82.88" y="-233.8" font-family="Helvetica,sans-Serif" font-size="10.00">1</text>
</a>
</g>
</g>
<!-- dir_23229132414701a43abba68028dbeba0&#45;&gt;dir_607cbc66c57a0f67766ebe1d0e664fdc -->
<g id="edge5" class="edge">
<title>dir_23229132414701a43abba68028dbeba0&#45;&gt;dir_607cbc66c57a0f67766ebe1d0e664fdc</title>
<path fill="none" stroke="black" d="M140.05,-159.88C126.96,-150.89 110.74,-139.76 96.56,-130.03"/>
<polygon fill="black" stroke="black" points="98.27,-126.96 88.05,-124.19 94.31,-132.73 98.27,-126.96"/>
<g id="a_edge5&#45;headlabel"><a xlink:href="dir_000073_000072.html" target="_top" xlink:title="3">
<text text-anchor="middle" x="102.84" y="-124.16" font-family="Helvetica,sans-Serif" font-size="10.00">3</text>
</a>
</g>
</g>
<!-- dir_23229132414701a43abba68028dbeba0&#45;&gt;dir_b68a48aa2a0ac34a16e8d1585cdaec99 -->
<g id="edge7" class="edge">
<title>dir_23229132414701a43abba68028dbeba0&#45;&gt;dir_b68a48aa2a0ac34a16e8d1585cdaec99</title>
<path fill="none" stroke="black" d="M152.7,-159.87C134.93,-135.14 101.96,-89.24 81.33,-60.51"/>
<polygon fill="black" stroke="black" points="84.02,-58.27 75.35,-52.19 78.34,-62.35 84.02,-58.27"/>
<g id="a_edge7&#45;headlabel"><a xlink:href="dir_000073_000063.html" target="_top" xlink:title="3">
<text text-anchor="middle" x="88.43" y="-57.03" font-family="Helvetica,sans-Serif" font-size="10.00">3</text>
</a>
</g>
</g>
<!-- dir_23229132414701a43abba68028dbeba0&#45;&gt;dir_9a8ce9ae4910652b4993ef1b5d4df016 -->
<g id="edge6" class="edge">
<title>dir_23229132414701a43abba68028dbeba0&#45;&gt;dir_9a8ce9ae4910652b4993ef1b5d4df016</title>
<path fill="none" stroke="black" d="M125.73,-178C110.68,-178 95.63,-178 80.58,-178"/>
<polygon fill="black" stroke="black" points="80.16,-174.5 70.16,-178 80.16,-181.5 80.16,-174.5"/>
<g id="a_edge6&#45;headlabel"><a xlink:href="dir_000073_000064.html" target="_top" xlink:title="1">
<text text-anchor="middle" x="83.76" y="-169.16" font-family="Helvetica,sans-Serif" font-size="10.00">1</text>
</a>
</g>
</g>
<!-- dir_8114b88dddde5ffd27fd6f588e96b8a4&#45;&gt;dir_607cbc66c57a0f67766ebe1d0e664fdc -->
<g id="edge2" class="edge">
<title>dir_8114b88dddde5ffd27fd6f588e96b8a4&#45;&gt;dir_607cbc66c57a0f67766ebe1d0e664fdc</title>
<path fill="none" stroke="black" d="M121.52,-231.73C119.98,-228.83 118.42,-225.84 117,-223 101.75,-192.59 85.43,-157.06 74.77,-133.41"/>
<polygon fill="black" stroke="black" points="77.85,-131.74 70.56,-124.05 71.47,-134.61 77.85,-131.74"/>
<g id="a_edge2&#45;headlabel"><a xlink:href="dir_000046_000072.html" target="_top" xlink:title="5">
<text text-anchor="middle" x="81.92" y="-131.36" font-family="Helvetica,sans-Serif" font-size="10.00">5</text>
</a>
</g>
</g>
<!-- dir_8114b88dddde5ffd27fd6f588e96b8a4&#45;&gt;dir_b68a48aa2a0ac34a16e8d1585cdaec99 -->
<g id="edge4" class="edge">
<title>dir_8114b88dddde5ffd27fd6f588e96b8a4&#45;&gt;dir_b68a48aa2a0ac34a16e8d1585cdaec99</title>
<path fill="none" stroke="black" d="M164.36,-247.44C181.85,-244.72 201.89,-238.18 213,-223 229.54,-200.41 224.77,-185.4 213,-160 189.81,-109.96 135.5,-73.03 99,-52.76"/>
<polygon fill="black" stroke="black" points="100.6,-49.65 90.13,-47.97 97.27,-55.81 100.6,-49.65"/>
<g id="a_edge4&#45;headlabel"><a xlink:href="dir_000046_000063.html" target="_top" xlink:title="5">
<text text-anchor="middle" x="105.11" y="-46.36" font-family="Helvetica,sans-Serif" font-size="10.00">5</text>
</a>
</g>
</g>
<!-- dir_8114b88dddde5ffd27fd6f588e96b8a4&#45;&gt;dir_9a8ce9ae4910652b4993ef1b5d4df016 -->
<g id="edge3" class="edge">
<title>dir_8114b88dddde5ffd27fd6f588e96b8a4&#45;&gt;dir_9a8ce9ae4910652b4993ef1b5d4df016</title>
<path fill="none" stroke="black" d="M105.72,-231.77C101.35,-229.05 96.97,-226.1 93,-223 85.63,-217.24 78.39,-210.13 71.72,-203.31"/>
<polygon fill="black" stroke="black" points="74.19,-200.83 64.71,-196.1 69.17,-205.71 74.19,-200.83"/>
<g id="a_edge3&#45;headlabel"><a xlink:href="dir_000046_000064.html" target="_top" xlink:title="5">
<text text-anchor="middle" x="78.74" y="-198.93" font-family="Helvetica,sans-Serif" font-size="10.00">5</text>
</a>
</g>
</g>
<!-- dir_8114b88dddde5ffd27fd6f588e96b8a4&#45;&gt;dir_23229132414701a43abba68028dbeba0 -->
<g id="edge1" class="edge">
<title>dir_8114b88dddde5ffd27fd6f588e96b8a4&#45;&gt;dir_23229132414701a43abba68028dbeba0</title>
<path fill="none" stroke="black" d="M139.4,-231.7C143.27,-223.73 147.95,-214.1 152.24,-205.26"/>
<polygon fill="black" stroke="black" points="155.47,-206.63 156.69,-196.1 149.17,-203.57 155.47,-206.63"/>
<g id="a_edge1&#45;headlabel"><a xlink:href="dir_000046_000073.html" target="_top" xlink:title="1">
<text text-anchor="middle" x="156.45" y="-208.6" font-family="Helvetica,sans-Serif" font-size="10.00">1</text>
</a>
</g>
</g>
</g>
</svg>
