<?xml version="1.0" encoding="UTF-8" standalone="no"?>
<!DOCTYPE svg PUBLIC "-//W3C//DTD SVG 1.1//EN"
 "http://www.w3.org/Graphics/SVG/1.1/DTD/svg11.dtd">
<!-- Generated by graphviz version 2.43.0 (0)
 -->
<!-- Title: src/labs Pages: 1 -->
<!--zoomable 175 -->
<svg id="main" version="1.1" xmlns="http://www.w3.org/2000/svg" xmlns:xlink="http://www.w3.org/1999/xlink" xml:space="preserve" onload="init(evt)">
<style type="text/css"><![CDATA[
.edge:hover path { stroke: red; }
.edge:hover polygon { stroke: red; fill: red; }
]]></style>
<script type="text/javascript"><![CDATA[
var edges = document.getElementsByTagName('g');
if (edges && edges.length) {
  for (var i=0;i<edges.length;i++) {
    if (edges[i].id.substr(0,4)=='edge') {
      edges[i].setAttribute('class','edge');
    }
  }
}
]]></script>
        <defs>
                <circle id="rim" cx="0" cy="0" r="7"/>
                <circle id="rim2" cx="0" cy="0" r="3.5"/>
                <g id="zoomPlus">
                        <use xlink:href="#rim" fill="#404040">
                                <set attributeName="fill" to="#808080" begin="zoomplus.mouseover" end="zoomplus.mouseout"/>
                        </use>
                        <path d="M-4,0h8M0,-4v8" fill="none" stroke="white" stroke-width="1.5" pointer-events="none"/>
                </g>
                <g id="zoomMin">
                        <use xlink:href="#rim" fill="#404040">
                                <set attributeName="fill" to="#808080" begin="zoomminus.mouseover" end="zoomminus.mouseout"/>
                        </use>
                        <path d="M-4,0h8" fill="none" stroke="white" stroke-width="1.5" pointer-events="none"/>
                </g>
                <g id="dirArrow">
                        <path fill="none" stroke="white" stroke-width="1.5" d="M0,-3.0v7 M-2.5,-0.5L0,-3.0L2.5,-0.5"/>
                </g>
               <g id="resetDef">
                       <use xlink:href="#rim2" fill="#404040">
                               <set attributeName="fill" to="#808080" begin="reset.mouseover" end="reset.mouseout"/>
                       </use>
               </g>
        </defs>

<script type="text/javascript">
var viewWidth = 974;
var viewHeight = 175;
var sectionId = 'dynsection-0';
</script>
<script xlink:href="svgpan.js"/>
<svg id="graph" class="graph">
<g id="viewport">
<title>src/labs</title>
<polygon fill="white" stroke="transparent" points="-4,4 -4,-171 970,-171 970,4 -4,4"/>
<g id="clust1" class="cluster">
<title>clusterdir_68267d1309a1af8e8297ef4c3efbcdba</title>
<g id="a_clust1"><a xlink:href="dir_68267d1309a1af8e8297ef4c3efbcdba.html" target="_top" xlink:title="src">
<polygon fill="#ddddee" stroke="black" points="8,-8 8,-159 958,-159 958,-8 8,-8"/>
<text text-anchor="middle" x="483" y="-147" font-family="Helvetica,sans-Serif" font-size="10.00">src</text>
</a>
</g>
</g>
<g id="clust2" class="cluster">
<title>clusterdir_acc15f730e7cbdcdf5b0c11ed74d0cf3</title>
<g id="a_clust2"><a xlink:href="dir_acc15f730e7cbdcdf5b0c11ed74d0cf3.html" target="_top">
<polygon fill="#eeeeff" stroke="black" points="16,-80 16,-132 950,-132 950,-80 16,-80"/>
</a>
</g>
</g>
<!-- dir_313caf1132e152dd9b58bea13a4052ca -->
<g id="node1" class="node">
<title>dir_313caf1132e152dd9b58bea13a4052ca</title>
<g id="a_node1"><a xlink:href="dir_313caf1132e152dd9b58bea13a4052ca.html" target="_top" xlink:title="utils">
<polygon fill="white" stroke="red" points="474,-52 420,-52 420,-16 474,-16 474,-52"/>
<text text-anchor="middle" x="447" y="-31.5" font-family="Helvetica,sans-Serif" font-size="10.00">utils</text>
</a>
</g>
</g>
<!-- dir_acc15f730e7cbdcdf5b0c11ed74d0cf3 -->
<g id="node2" class="node">
<title>dir_acc15f730e7cbdcdf5b0c11ed74d0cf3</title>
<text text-anchor="middle" x="915" y="-103.5" font-family="Helvetica,sans-Serif" font-size="10.00">labs</text>
</g>
<!-- dir_fb3352f4ff3f09507c45e64c5666797d -->
<g id="node3" class="node">
<title>dir_fb3352f4ff3f09507c45e64c5666797d</title>
<g id="a_node3"><a xlink:href="dir_fb3352f4ff3f09507c45e64c5666797d.html" target="_top" xlink:title="inlab1">
<polygon fill="white" stroke="red" points="870,-124 816,-124 816,-88 870,-88 870,-124"/>
<text text-anchor="middle" x="843" y="-103.5" font-family="Helvetica,sans-Serif" font-size="10.00">inlab1</text>
</a>
</g>
</g>
<!-- dir_fb3352f4ff3f09507c45e64c5666797d&#45;&gt;dir_313caf1132e152dd9b58bea13a4052ca -->
<g id="edge8" class="edge">
<title>dir_fb3352f4ff3f09507c45e64c5666797d&#45;&gt;dir_313caf1132e152dd9b58bea13a4052ca</title>
<path fill="none" stroke="black" d="M821.87,-87.86C817.2,-84.79 812.12,-81.96 807,-80 748.52,-57.61 563.73,-42.86 484.1,-37.38"/>
<polygon fill="black" stroke="black" points="484.25,-33.88 474.03,-36.7 483.77,-40.87 484.25,-33.88"/>
<g id="a_edge8&#45;headlabel"><a xlink:href="dir_000002_000033.html" target="_top" xlink:title="11">
<text text-anchor="middle" x="488.02" y="-28.79" font-family="Helvetica,sans-Serif" font-size="10.00">11</text>
</a>
</g>
</g>
<!-- dir_42194b7092f23a7e48f4dd9a6ef2a93e -->
<g id="node4" class="node">
<title>dir_42194b7092f23a7e48f4dd9a6ef2a93e</title>
<g id="a_node4"><a xlink:href="dir_42194b7092f23a7e48f4dd9a6ef2a93e.html" target="_top" xlink:title="inlab2">
<polygon fill="white" stroke="red" points="798,-124 744,-124 744,-88 798,-88 798,-124"/>
<text text-anchor="middle" x="771" y="-103.5" font-family="Helvetica,sans-Serif" font-size="10.00">inlab2</text>
</a>
</g>
</g>
<!-- dir_42194b7092f23a7e48f4dd9a6ef2a93e&#45;&gt;dir_313caf1132e152dd9b58bea13a4052ca -->
<g id="edge11" class="edge">
<title>dir_42194b7092f23a7e48f4dd9a6ef2a93e&#45;&gt;dir_313caf1132e152dd9b58bea13a4052ca</title>
<path fill="none" stroke="black" d="M749.82,-87.98C745.16,-84.91 740.09,-82.04 735,-80 649.82,-45.88 540.83,-37.52 484.49,-35.54"/>
<polygon fill="black" stroke="black" points="484.37,-32.04 474.27,-35.24 484.16,-39.04 484.37,-32.04"/>
<g id="a_edge11&#45;headlabel"><a xlink:href="dir_000003_000033.html" target="_top" xlink:title="6">
<text text-anchor="middle" x="488.05" y="-26.81" font-family="Helvetica,sans-Serif" font-size="10.00">6</text>
</a>
</g>
</g>
<!-- dir_476069c0e5f168c4d957d00070341a94 -->
<g id="node5" class="node">
<title>dir_476069c0e5f168c4d957d00070341a94</title>
<g id="a_node5"><a xlink:href="dir_476069c0e5f168c4d957d00070341a94.html" target="_top" xlink:title="inlab3">
<polygon fill="white" stroke="red" points="726,-124 672,-124 672,-88 726,-88 726,-124"/>
<text text-anchor="middle" x="699" y="-103.5" font-family="Helvetica,sans-Serif" font-size="10.00">inlab3</text>
</a>
</g>
</g>
<!-- dir_476069c0e5f168c4d957d00070341a94&#45;&gt;dir_313caf1132e152dd9b58bea13a4052ca -->
<g id="edge7" class="edge">
<title>dir_476069c0e5f168c4d957d00070341a94&#45;&gt;dir_313caf1132e152dd9b58bea13a4052ca</title>
<path fill="none" stroke="black" d="M677.35,-87.92C672.8,-84.93 667.89,-82.1 663,-80 603.55,-54.43 528.49,-43.01 484.31,-38.2"/>
<polygon fill="black" stroke="black" points="484.62,-34.71 474.31,-37.17 483.9,-41.68 484.62,-34.71"/>
<g id="a_edge7&#45;headlabel"><a xlink:href="dir_000004_000033.html" target="_top" xlink:title="7">
<text text-anchor="middle" x="488.48" y="-29.76" font-family="Helvetica,sans-Serif" font-size="10.00">7</text>
</a>
</g>
</g>
<!-- dir_0ce6182f66ca9f0109d1d60f465498f3 -->
<g id="node6" class="node">
<title>dir_0ce6182f66ca9f0109d1d60f465498f3</title>
<g id="a_node6"><a xlink:href="dir_0ce6182f66ca9f0109d1d60f465498f3.html" target="_top" xlink:title="inlab4">
<polygon fill="white" stroke="black" points="654,-124 600,-124 600,-88 654,-88 654,-124"/>
<text text-anchor="middle" x="627" y="-103.5" font-family="Helvetica,sans-Serif" font-size="10.00">inlab4</text>
</a>
</g>
</g>
<!-- dir_0ce6182f66ca9f0109d1d60f465498f3&#45;&gt;dir_313caf1132e152dd9b58bea13a4052ca -->
<g id="edge3" class="edge">
<title>dir_0ce6182f66ca9f0109d1d60f465498f3&#45;&gt;dir_313caf1132e152dd9b58bea13a4052ca</title>
<path fill="none" stroke="black" d="M604.4,-87.77C600.09,-84.94 595.51,-82.21 591,-80 556.38,-63.06 513.98,-50.73 484.18,-43.3"/>
<polygon fill="black" stroke="black" points="484.75,-39.84 474.2,-40.88 483.1,-46.64 484.75,-39.84"/>
<g id="a_edge3&#45;headlabel"><a xlink:href="dir_000005_000033.html" target="_top" xlink:title="11">
<text text-anchor="middle" x="488.91" y="-35.43" font-family="Helvetica,sans-Serif" font-size="10.00">11</text>
</a>
</g>
</g>
<!-- dir_f6997abc0f3188492ab7310f39822119 -->
<g id="node7" class="node">
<title>dir_f6997abc0f3188492ab7310f39822119</title>
<g id="a_node7"><a xlink:href="dir_f6997abc0f3188492ab7310f39822119.html" target="_top" xlink:title="inlab5">
<polygon fill="white" stroke="black" points="582,-124 528,-124 528,-88 582,-88 582,-124"/>
<text text-anchor="middle" x="555" y="-103.5" font-family="Helvetica,sans-Serif" font-size="10.00">inlab5</text>
</a>
</g>
</g>
<!-- dir_f6997abc0f3188492ab7310f39822119&#45;&gt;dir_313caf1132e152dd9b58bea13a4052ca -->
<g id="edge1" class="edge">
<title>dir_f6997abc0f3188492ab7310f39822119&#45;&gt;dir_313caf1132e152dd9b58bea13a4052ca</title>
<path fill="none" stroke="black" d="M530.71,-87.89C526.81,-85.22 522.81,-82.51 519,-80 507.33,-72.31 494.43,-64.14 482.8,-56.9"/>
<polygon fill="black" stroke="black" points="484.55,-53.87 474.21,-51.57 480.86,-59.82 484.55,-53.87"/>
<g id="a_edge1&#45;headlabel"><a xlink:href="dir_000006_000033.html" target="_top" xlink:title="17">
<text text-anchor="middle" x="489.1" y="-50.85" font-family="Helvetica,sans-Serif" font-size="10.00">17</text>
</a>
</g>
</g>
<!-- dir_56426050f9c1686d6f87f00c22e373b9 -->
<g id="node8" class="node">
<title>dir_56426050f9c1686d6f87f00c22e373b9</title>
<g id="a_node8"><a xlink:href="dir_56426050f9c1686d6f87f00c22e373b9.html" target="_top" xlink:title="inlab6">
<polygon fill="white" stroke="red" points="510,-124 456,-124 456,-88 510,-88 510,-124"/>
<text text-anchor="middle" x="483" y="-103.5" font-family="Helvetica,sans-Serif" font-size="10.00">inlab6</text>
</a>
</g>
</g>
<!-- dir_56426050f9c1686d6f87f00c22e373b9&#45;&gt;dir_313caf1132e152dd9b58bea13a4052ca -->
<g id="edge4" class="edge">
<title>dir_56426050f9c1686d6f87f00c22e373b9&#45;&gt;dir_313caf1132e152dd9b58bea13a4052ca</title>
<path fill="none" stroke="black" d="M474.1,-87.7C470,-79.73 465.05,-70.1 460.51,-61.26"/>
<polygon fill="black" stroke="black" points="463.48,-59.4 455.8,-52.1 457.26,-62.6 463.48,-59.4"/>
<g id="a_edge4&#45;headlabel"><a xlink:href="dir_000007_000033.html" target="_top" xlink:title="20">
<text text-anchor="middle" x="467.65" y="-58.79" font-family="Helvetica,sans-Serif" font-size="10.00">20</text>
</a>
</g>
</g>
<!-- dir_f3bed072f0abff3e39ea86f83d4d07d1 -->
<g id="node9" class="node">
<title>dir_f3bed072f0abff3e39ea86f83d4d07d1</title>
<g id="a_node9"><a xlink:href="dir_f3bed072f0abff3e39ea86f83d4d07d1.html" target="_top" xlink:title="outlab1">
<polygon fill="white" stroke="red" points="438,-124 384,-124 384,-88 438,-88 438,-124"/>
<text text-anchor="middle" x="411" y="-103.5" font-family="Helvetica,sans-Serif" font-size="10.00">outlab1</text>
</a>
</g>
</g>
<!-- dir_f3bed072f0abff3e39ea86f83d4d07d1&#45;&gt;dir_313caf1132e152dd9b58bea13a4052ca -->
<g id="edge6" class="edge">
<title>dir_f3bed072f0abff3e39ea86f83d4d07d1&#45;&gt;dir_313caf1132e152dd9b58bea13a4052ca</title>
<path fill="none" stroke="black" d="M419.9,-87.7C424,-79.73 428.95,-70.1 433.49,-61.26"/>
<polygon fill="black" stroke="black" points="436.74,-62.6 438.2,-52.1 430.52,-59.4 436.74,-62.6"/>
<g id="a_edge6&#45;headlabel"><a xlink:href="dir_000008_000033.html" target="_top" xlink:title="7">
<text text-anchor="middle" x="437.62" y="-64.59" font-family="Helvetica,sans-Serif" font-size="10.00">7</text>
</a>
</g>
</g>
<!-- dir_b1f5062150ac5c8e2eb61a9bb053c0b0 -->
<g id="node10" class="node">
<title>dir_b1f5062150ac5c8e2eb61a9bb053c0b0</title>
<g id="a_node10"><a xlink:href="dir_b1f5062150ac5c8e2eb61a9bb053c0b0.html" target="_top" xlink:title="outlab2">
<polygon fill="white" stroke="red" points="366,-124 312,-124 312,-88 366,-88 366,-124"/>
<text text-anchor="middle" x="339" y="-103.5" font-family="Helvetica,sans-Serif" font-size="10.00">outlab2</text>
</a>
</g>
</g>
<!-- dir_b1f5062150ac5c8e2eb61a9bb053c0b0&#45;&gt;dir_313caf1132e152dd9b58bea13a4052ca -->
<g id="edge9" class="edge">
<title>dir_b1f5062150ac5c8e2eb61a9bb053c0b0&#45;&gt;dir_313caf1132e152dd9b58bea13a4052ca</title>
<path fill="none" stroke="black" d="M363.29,-87.89C367.19,-85.22 371.19,-82.51 375,-80 386.67,-72.31 399.57,-64.14 411.2,-56.9"/>
<polygon fill="black" stroke="black" points="413.14,-59.82 419.79,-51.57 409.45,-53.87 413.14,-59.82"/>
<g id="a_edge9&#45;headlabel"><a xlink:href="dir_000009_000033.html" target="_top" xlink:title="9">
<text text-anchor="middle" x="411.58" y="-61.63" font-family="Helvetica,sans-Serif" font-size="10.00">9</text>
</a>
</g>
</g>
<!-- dir_250b6764766047418b218831a465996b -->
<g id="node11" class="node">
<title>dir_250b6764766047418b218831a465996b</title>
<g id="a_node11"><a xlink:href="dir_250b6764766047418b218831a465996b.html" target="_top" xlink:title="outlab3">
<polygon fill="white" stroke="red" points="294,-124 240,-124 240,-88 294,-88 294,-124"/>
<text text-anchor="middle" x="267" y="-103.5" font-family="Helvetica,sans-Serif" font-size="10.00">outlab3</text>
</a>
</g>
</g>
<!-- dir_250b6764766047418b218831a465996b&#45;&gt;dir_313caf1132e152dd9b58bea13a4052ca -->
<g id="edge10" class="edge">
<title>dir_250b6764766047418b218831a465996b&#45;&gt;dir_313caf1132e152dd9b58bea13a4052ca</title>
<path fill="none" stroke="black" d="M289.6,-87.77C293.91,-84.94 298.49,-82.21 303,-80 337.62,-63.06 380.02,-50.73 409.82,-43.3"/>
<polygon fill="black" stroke="black" points="410.9,-46.64 419.8,-40.88 409.25,-39.84 410.9,-46.64"/>
<g id="a_edge10&#45;headlabel"><a xlink:href="dir_000010_000033.html" target="_top" xlink:title="8">
<text text-anchor="middle" x="408.08" y="-47.75" font-family="Helvetica,sans-Serif" font-size="10.00">8</text>
</a>
</g>
</g>
<!-- dir_519cb4ecd65046b7c2ff3387d0f03ce4 -->
<g id="node12" class="node">
<title>dir_519cb4ecd65046b7c2ff3387d0f03ce4</title>
<g id="a_node12"><a xlink:href="dir_519cb4ecd65046b7c2ff3387d0f03ce4.html" target="_top" xlink:title="outlab4">
<polygon fill="white" stroke="red" points="222,-124 168,-124 168,-88 222,-88 222,-124"/>
<text text-anchor="middle" x="195" y="-103.5" font-family="Helvetica,sans-Serif" font-size="10.00">outlab4</text>
</a>
</g>
</g>
<!-- dir_519cb4ecd65046b7c2ff3387d0f03ce4&#45;&gt;dir_313caf1132e152dd9b58bea13a4052ca -->
<g id="edge12" class="edge">
<title>dir_519cb4ecd65046b7c2ff3387d0f03ce4&#45;&gt;dir_313caf1132e152dd9b58bea13a4052ca</title>
<path fill="none" stroke="black" d="M216.65,-87.92C221.2,-84.93 226.11,-82.1 231,-80 290.45,-54.43 365.51,-43.01 409.69,-38.2"/>
<polygon fill="black" stroke="black" points="410.1,-41.68 419.69,-37.17 409.38,-34.71 410.1,-41.68"/>
<g id="a_edge12&#45;headlabel"><a xlink:href="dir_000011_000033.html" target="_top" xlink:title="19">
<text text-anchor="middle" x="406.82" y="-42.37" font-family="Helvetica,sans-Serif" font-size="10.00">19</text>
</a>
</g>
</g>
<!-- dir_bd478f156736ed91e6cca7f4d410a63f -->
<g id="node13" class="node">
<title>dir_bd478f156736ed91e6cca7f4d410a63f</title>
<g id="a_node13"><a xlink:href="dir_bd478f156736ed91e6cca7f4d410a63f.html" target="_top" xlink:title="outlab5">
<polygon fill="white" stroke="red" points="150,-124 96,-124 96,-88 150,-88 150,-124"/>
<text text-anchor="middle" x="123" y="-103.5" font-family="Helvetica,sans-Serif" font-size="10.00">outlab5</text>
</a>
</g>
</g>
<!-- dir_bd478f156736ed91e6cca7f4d410a63f&#45;&gt;dir_313caf1132e152dd9b58bea13a4052ca -->
<g id="edge5" class="edge">
<title>dir_bd478f156736ed91e6cca7f4d410a63f&#45;&gt;dir_313caf1132e152dd9b58bea13a4052ca</title>
<path fill="none" stroke="black" d="M144.18,-87.98C148.84,-84.91 153.91,-82.04 159,-80 244.18,-45.88 353.17,-37.52 409.51,-35.54"/>
<polygon fill="black" stroke="black" points="409.84,-39.04 419.73,-35.24 409.63,-32.04 409.84,-39.04"/>
<g id="a_edge5&#45;headlabel"><a xlink:href="dir_000012_000033.html" target="_top" xlink:title="16">
<text text-anchor="middle" x="406.33" y="-39.48" font-family="Helvetica,sans-Serif" font-size="10.00">16</text>
</a>
</g>
</g>
<!-- dir_f3f7afc15d203c81c39ef997615c0e2f -->
<g id="node14" class="node">
<title>dir_f3f7afc15d203c81c39ef997615c0e2f</title>
<g id="a_node14"><a xlink:href="dir_f3f7afc15d203c81c39ef997615c0e2f.html" target="_top" xlink:title="outlab6">
<polygon fill="white" stroke="red" points="78,-124 24,-124 24,-88 78,-88 78,-124"/>
<text text-anchor="middle" x="51" y="-103.5" font-family="Helvetica,sans-Serif" font-size="10.00">outlab6</text>
</a>
</g>
</g>
<!-- dir_f3f7afc15d203c81c39ef997615c0e2f&#45;&gt;dir_313caf1132e152dd9b58bea13a4052ca -->
<g id="edge2" class="edge">
<title>dir_f3f7afc15d203c81c39ef997615c0e2f&#45;&gt;dir_313caf1132e152dd9b58bea13a4052ca</title>
<path fill="none" stroke="black" d="M72.13,-87.86C76.8,-84.79 81.88,-81.96 87,-80 145.48,-57.61 330.27,-42.86 409.9,-37.38"/>
<polygon fill="black" stroke="black" points="410.23,-40.87 419.97,-36.7 409.75,-33.88 410.23,-40.87"/>
<g id="a_edge2&#45;headlabel"><a xlink:href="dir_000013_000033.html" target="_top" xlink:title="25">
<text text-anchor="middle" x="406.83" y="-41.44" font-family="Helvetica,sans-Serif" font-size="10.00">25</text>
</a>
</g>
</g>
</g>
</svg>
        <g id="navigator" transform="translate(0 0)" fill="#404254">
                <rect fill="#f2f5e9" fill-opacity="0.5" stroke="#606060" stroke-width=".5" x="0" y="0" width="60" height="60"/>
                <use id="zoomplus" xlink:href="#zoomPlus" x="17" y="9" onmousedown="handleZoom(evt,'in')"/>
                <use id="zoomminus" xlink:href="#zoomMin" x="42" y="9" onmousedown="handleZoom(evt,'out')"/>
                <use id="reset" xlink:href="#resetDef" x="30" y="36" onmousedown="handleReset()"/>
                <g id="arrowUp" xlink:href="#dirArrow" transform="translate(30 24)" onmousedown="handlePan(0,-1)">
                  <use xlink:href="#rim" fill="#404040">
                        <set attributeName="fill" to="#808080" begin="arrowUp.mouseover" end="arrowUp.mouseout"/>
                  </use>
                  <path fill="none" stroke="white" stroke-width="1.5" d="M0,-3.0v7 M-2.5,-0.5L0,-3.0L2.5,-0.5"/>
                </g>
                <g id="arrowRight" xlink:href="#dirArrow" transform="rotate(90) translate(36 -43)" onmousedown="handlePan(1,0)">
                  <use xlink:href="#rim" fill="#404040">
                        <set attributeName="fill" to="#808080" begin="arrowRight.mouseover" end="arrowRight.mouseout"/>
                  </use>
                  <path fill="none" stroke="white" stroke-width="1.5" d="M0,-3.0v7 M-2.5,-0.5L0,-3.0L2.5,-0.5"/>
                </g>
                <g id="arrowDown" xlink:href="#dirArrow" transform="rotate(180) translate(-30 -48)" onmousedown="handlePan(0,1)">
                  <use xlink:href="#rim" fill="#404040">
                        <set attributeName="fill" to="#808080" begin="arrowDown.mouseover" end="arrowDown.mouseout"/>
                  </use>
                  <path fill="none" stroke="white" stroke-width="1.5" d="M0,-3.0v7 M-2.5,-0.5L0,-3.0L2.5,-0.5"/>
                </g>
                <g id="arrowLeft" xlink:href="#dirArrow" transform="rotate(270) translate(-36 17)" onmousedown="handlePan(-1,0)">
                  <use xlink:href="#rim" fill="#404040">
                        <set attributeName="fill" to="#808080" begin="arrowLeft.mouseover" end="arrowLeft.mouseout"/>
                  </use>
                  <path fill="none" stroke="white" stroke-width="1.5" d="M0,-3.0v7 M-2.5,-0.5L0,-3.0L2.5,-0.5"/>
                </g>
        </g>
        <svg viewBox="0 0 15 15" width="100%" height="30px" preserveAspectRatio="xMaxYMin meet">
         <g id="arrow_out" transform="scale(0.3 0.3)">
          <a xlink:href="dir_acc15f730e7cbdcdf5b0c11ed74d0cf3_dep_org.svg" target="_base">
           <rect id="button" ry="5" rx="5" y="6" x="6" height="38" width="38"
                fill="#f2f5e9" fill-opacity="0.5" stroke="#606060" stroke-width="1.0"/>
           <path id="arrow"
             d="M 11.500037,31.436501 C 11.940474,20.09759 22.043105,11.32322 32.158766,21.979434 L 37.068811,17.246167 C 37.068811,17.246167 37.088388,32 37.088388,32 L 22.160133,31.978069 C 22.160133,31.978069 26.997745,27.140456 26.997745,27.140456 C 18.528582,18.264221 13.291696,25.230495 11.500037,31.436501 z"
             style="fill:#404040;"/>
          </a>
         </g>
        </svg>
</svg>
