<?xml version="1.0" encoding="UTF-8" standalone="no"?>
<!DOCTYPE svg PUBLIC "-//W3C//DTD SVG 1.1//EN"
 "http://www.w3.org/Graphics/SVG/1.1/DTD/svg11.dtd">
<!-- Generated by graphviz version 2.43.0 (0)
 -->
<!-- Title: Graphical Class Hierarchy Pages: 1 -->
<svg width="330pt" height="180pt"
 viewBox="0.00 0.00 330.00 180.00" xmlns="http://www.w3.org/2000/svg" xmlns:xlink="http://www.w3.org/1999/xlink">
<g id="graph0" class="graph" transform="scale(1 1) rotate(0) translate(4 176)">
<title>Graphical Class Hierarchy</title>
<polygon fill="white" stroke="transparent" points="-4,4 -4,-176 326,-176 326,4 -4,4"/>
<!-- Node89 -->
<g id="node1" class="node">
<title>Node89</title>
<g id="a_node1"><a xlink:title=" ">
<polygon fill="white" stroke="#bfbfbf" points="0,-76.5 0,-95.5 129,-95.5 129,-76.5 0,-76.5"/>
<text text-anchor="middle" x="64.5" y="-83.5" font-family="Helvetica,sans-Serif" font-size="10.00">testing::TestWithParam</text>
</a>
</g>
</g>
<!-- Node0 -->
<g id="node2" class="node">
<title>Node0</title>
<g id="a_node2"><a xlink:href="dd/d10/classDiffusionConstantsValidTest.html" target="_top" xlink:title="A test fixture class for valid DiffusionConstants.">
<polygon fill="white" stroke="black" points="167.5,-152.5 167.5,-171.5 319.5,-171.5 319.5,-152.5 167.5,-152.5"/>
<text text-anchor="middle" x="243.5" y="-159.5" font-family="Helvetica,sans-Serif" font-size="10.00">DiffusionConstantsValidTest</text>
</a>
</g>
</g>
<!-- Node89&#45;&gt;Node0 -->
<g id="edge1" class="edge">
<title>Node89&#45;&gt;Node0</title>
<path fill="none" stroke="midnightblue" d="M87.87,-101.25C107.46,-114 137.07,-131.84 165,-143 174.26,-146.7 184.44,-149.83 194.3,-152.4"/>
<polygon fill="midnightblue" stroke="midnightblue" points="89.64,-98.22 79.36,-95.62 85.77,-104.06 89.64,-98.22"/>
</g>
<!-- Node91 -->
<g id="node3" class="node">
<title>Node91</title>
<g id="a_node3"><a xlink:href="d1/d6a/classDiffusionParamsValidTest.html" target="_top" xlink:title="A test fixture class for valid DiffusionParams.">
<polygon fill="white" stroke="black" points="173.5,-114.5 173.5,-133.5 313.5,-133.5 313.5,-114.5 173.5,-114.5"/>
<text text-anchor="middle" x="243.5" y="-121.5" font-family="Helvetica,sans-Serif" font-size="10.00">DiffusionParamsValidTest</text>
</a>
</g>
</g>
<!-- Node89&#45;&gt;Node91 -->
<g id="edge2" class="edge">
<title>Node89&#45;&gt;Node91</title>
<path fill="none" stroke="midnightblue" d="M120.24,-97.75C145.27,-103.13 174.53,-109.41 198.16,-114.48"/>
<polygon fill="midnightblue" stroke="midnightblue" points="120.68,-94.27 110.16,-95.59 119.21,-101.11 120.68,-94.27"/>
</g>
<!-- Node92 -->
<g id="node4" class="node">
<title>Node92</title>
<g id="a_node4"><a xlink:href="d7/df1/classFactorizeInvalidLUMatrixTest.html" target="_top" xlink:title=" ">
<polygon fill="white" stroke="black" points="165,-76.5 165,-95.5 322,-95.5 322,-76.5 165,-76.5"/>
<text text-anchor="middle" x="243.5" y="-83.5" font-family="Helvetica,sans-Serif" font-size="10.00">FactorizeInvalidLUMatrixTest</text>
</a>
</g>
</g>
<!-- Node89&#45;&gt;Node92 -->
<g id="edge3" class="edge">
<title>Node89&#45;&gt;Node92</title>
<path fill="none" stroke="midnightblue" d="M139.49,-86C147.85,-86 156.39,-86 164.8,-86"/>
<polygon fill="midnightblue" stroke="midnightblue" points="139.4,-82.5 129.4,-86 139.4,-89.5 139.4,-82.5"/>
</g>
<!-- Node93 -->
<g id="node5" class="node">
<title>Node93</title>
<g id="a_node5"><a xlink:href="d1/dd7/classFactorizeValidLUMatrixTest.html" target="_top" xlink:title=" ">
<polygon fill="white" stroke="black" points="169.5,-38.5 169.5,-57.5 317.5,-57.5 317.5,-38.5 169.5,-38.5"/>
<text text-anchor="middle" x="243.5" y="-45.5" font-family="Helvetica,sans-Serif" font-size="10.00">FactorizeValidLUMatrixTest</text>
</a>
</g>
</g>
<!-- Node89&#45;&gt;Node93 -->
<g id="edge4" class="edge">
<title>Node89&#45;&gt;Node93</title>
<path fill="none" stroke="midnightblue" d="M120.24,-74.25C145.27,-68.87 174.53,-62.59 198.16,-57.52"/>
<polygon fill="midnightblue" stroke="midnightblue" points="119.21,-70.89 110.16,-76.41 120.68,-77.73 119.21,-70.89"/>
</g>
<!-- Node94 -->
<g id="node6" class="node">
<title>Node94</title>
<g id="a_node6"><a xlink:href="df/d4f/classSourceVectorValidTest.html" target="_top" xlink:title="A test fixture class for valid SourceVector.">
<polygon fill="white" stroke="black" points="181.5,-0.5 181.5,-19.5 305.5,-19.5 305.5,-0.5 181.5,-0.5"/>
<text text-anchor="middle" x="243.5" y="-7.5" font-family="Helvetica,sans-Serif" font-size="10.00">SourceVectorValidTest</text>
</a>
</g>
</g>
<!-- Node89&#45;&gt;Node94 -->
<g id="edge5" class="edge">
<title>Node89&#45;&gt;Node94</title>
<path fill="none" stroke="midnightblue" d="M87.87,-70.75C107.46,-58 137.07,-40.16 165,-29 174.26,-25.3 184.44,-22.17 194.3,-19.6"/>
<polygon fill="midnightblue" stroke="midnightblue" points="85.77,-67.94 79.36,-76.38 89.64,-73.78 85.77,-67.94"/>
</g>
</g>
</svg>
