<?xml version="1.0" encoding="UTF-8" standalone="no"?>
<!DOCTYPE svg PUBLIC "-//W3C//DTD SVG 1.1//EN"
 "http://www.w3.org/Graphics/SVG/1.1/DTD/svg11.dtd">
<!-- Generated by graphviz version 2.43.0 (0)
 -->
<!-- Title: Graphical Class Hierarchy Pages: 1 -->
<svg width="289pt" height="389pt"
 viewBox="0.00 0.00 289.00 388.50" xmlns="http://www.w3.org/2000/svg" xmlns:xlink="http://www.w3.org/1999/xlink">
<g id="graph0" class="graph" transform="scale(1 1) rotate(0) translate(4 384.5)">
<title>Graphical Class Hierarchy</title>
<polygon fill="white" stroke="transparent" points="-4,4 -4,-384.5 285,-384.5 285,4 -4,4"/>
<!-- Node0 -->
<g id="node1" class="node">
<title>Node0</title>
<g id="a_node1"><a xlink:href="dd/d02/classCommandLine.html" target="_top" xlink:title=" ">
<polygon fill="white" stroke="black" points="13,-361 13,-380 185,-380 185,-361 13,-361"/>
<text text-anchor="middle" x="99" y="-368" font-family="Helvetica,sans-Serif" font-size="10.00">CommandLine&lt; InLab6Inputs &gt;</text>
</a>
</g>
</g>
<!-- Node1 -->
<g id="node2" class="node">
<title>Node1</title>
<g id="a_node2"><a xlink:href="d0/d40/classParser.html" target="_top" xlink:title=" ">
<polygon fill="white" stroke="black" points="234,-181 234,-200 281,-200 281,-181 234,-181"/>
<text text-anchor="middle" x="257.5" y="-188" font-family="Helvetica,sans-Serif" font-size="10.00">Parser</text>
</a>
</g>
</g>
<!-- Node0&#45;&gt;Node1 -->
<g id="edge1" class="edge">
<title>Node0&#45;&gt;Node1</title>
<path fill="none" stroke="midnightblue" d="M192.46,-355.72C194.38,-354.41 196.23,-353.01 198,-351.5 245.49,-310.94 254.43,-228.58 256.11,-200.3"/>
<polygon fill="midnightblue" stroke="midnightblue" points="190.54,-352.79 183.63,-360.82 194.04,-358.84 190.54,-352.79"/>
</g>
<!-- Node6 -->
<g id="node3" class="node">
<title>Node6</title>
<g id="a_node3"><a xlink:href="dd/d02/classCommandLine.html" target="_top" xlink:title=" ">
<polygon fill="white" stroke="black" points="11,-323 11,-342 187,-342 187,-323 11,-323"/>
<text text-anchor="middle" x="99" y="-330" font-family="Helvetica,sans-Serif" font-size="10.00">CommandLine&lt; InputMatrices &gt;</text>
</a>
</g>
</g>
<!-- Node6&#45;&gt;Node1 -->
<g id="edge2" class="edge">
<title>Node6&#45;&gt;Node1</title>
<path fill="none" stroke="midnightblue" d="M190.73,-318.43C193.26,-316.93 195.69,-315.29 198,-313.5 236.13,-283.96 250.64,-223.39 254.96,-200.01"/>
<polygon fill="midnightblue" stroke="midnightblue" points="189.11,-315.32 181.8,-322.99 192.3,-321.55 189.11,-315.32"/>
</g>
<!-- Node7 -->
<g id="node4" class="node">
<title>Node7</title>
<g id="a_node4"><a xlink:href="dd/d02/classCommandLine.html" target="_top" xlink:title=" ">
<polygon fill="white" stroke="black" points="0,-273.5 0,-303.5 198,-303.5 198,-273.5 0,-273.5"/>
<text text-anchor="start" x="8" y="-291.5" font-family="Helvetica,sans-Serif" font-size="10.00">CommandLine&lt; LagrangePolynomial</text>
<text text-anchor="middle" x="99" y="-280.5" font-family="Helvetica,sans-Serif" font-size="10.00">Inputs &gt;</text>
</a>
</g>
</g>
<!-- Node7&#45;&gt;Node1 -->
<g id="edge3" class="edge">
<title>Node7&#45;&gt;Node1</title>
<path fill="none" stroke="midnightblue" d="M190.27,-268.98C192.93,-267.59 195.51,-266.1 198,-264.5 223.77,-247.95 243.1,-216.09 251.66,-200.12"/>
<polygon fill="midnightblue" stroke="midnightblue" points="188.54,-265.92 180.98,-273.34 191.52,-272.26 188.54,-265.92"/>
</g>
<!-- Node8 -->
<g id="node5" class="node">
<title>Node8</title>
<g id="a_node5"><a xlink:href="dd/d02/classCommandLine.html" target="_top" xlink:title=" ">
<polygon fill="white" stroke="black" points="11,-224.5 11,-254.5 187,-254.5 187,-224.5 11,-224.5"/>
<text text-anchor="start" x="19" y="-242.5" font-family="Helvetica,sans-Serif" font-size="10.00">CommandLine&lt; MatrixConstruct</text>
<text text-anchor="middle" x="99" y="-231.5" font-family="Helvetica,sans-Serif" font-size="10.00">Params &gt;</text>
</a>
</g>
</g>
<!-- Node8&#45;&gt;Node1 -->
<g id="edge4" class="edge">
<title>Node8&#45;&gt;Node1</title>
<path fill="none" stroke="midnightblue" d="M177.74,-221.71C184.63,-219.75 191.47,-217.68 198,-215.5 211.1,-211.13 225.35,-205.07 236.51,-200.01"/>
<polygon fill="midnightblue" stroke="midnightblue" points="176.35,-218.46 167.63,-224.48 178.2,-225.21 176.35,-218.46"/>
</g>
<!-- Node9 -->
<g id="node6" class="node">
<title>Node9</title>
<g id="a_node6"><a xlink:href="dd/d02/classCommandLine.html" target="_top" xlink:title=" ">
<polygon fill="white" stroke="black" points="29.5,-175.5 29.5,-205.5 168.5,-205.5 168.5,-175.5 29.5,-175.5"/>
<text text-anchor="start" x="37.5" y="-193.5" font-family="Helvetica,sans-Serif" font-size="10.00">CommandLine&lt; MyBLAS</text>
<text text-anchor="middle" x="99" y="-182.5" font-family="Helvetica,sans-Serif" font-size="10.00">::InputMatrices &gt;</text>
</a>
</g>
</g>
<!-- Node9&#45;&gt;Node1 -->
<g id="edge5" class="edge">
<title>Node9&#45;&gt;Node1</title>
<path fill="none" stroke="midnightblue" d="M178.88,-190.5C199.1,-190.5 219.28,-190.5 233.99,-190.5"/>
<polygon fill="midnightblue" stroke="midnightblue" points="178.64,-187 168.64,-190.5 178.64,-194 178.64,-187"/>
</g>
<!-- Node10 -->
<g id="node7" class="node">
<title>Node10</title>
<g id="a_node7"><a xlink:href="dd/d02/classCommandLine.html" target="_top" xlink:title=" ">
<polygon fill="white" stroke="black" points="17,-126.5 17,-156.5 181,-156.5 181,-126.5 17,-126.5"/>
<text text-anchor="start" x="25" y="-144.5" font-family="Helvetica,sans-Serif" font-size="10.00">CommandLine&lt; NewtonCotes</text>
<text text-anchor="middle" x="99" y="-133.5" font-family="Helvetica,sans-Serif" font-size="10.00">Inputs &gt;</text>
</a>
</g>
</g>
<!-- Node10&#45;&gt;Node1 -->
<g id="edge6" class="edge">
<title>Node10&#45;&gt;Node1</title>
<path fill="none" stroke="midnightblue" d="M174.24,-159.27C182.31,-161.55 190.36,-163.97 198,-166.5 210.61,-170.67 224.37,-176.26 235.37,-181"/>
<polygon fill="midnightblue" stroke="midnightblue" points="174.99,-155.84 164.42,-156.57 173.13,-162.59 174.99,-155.84"/>
</g>
<!-- Node11 -->
<g id="node8" class="node">
<title>Node11</title>
<g id="a_node8"><a xlink:href="dd/d02/classCommandLine.html" target="_top" xlink:title=" ">
<polygon fill="white" stroke="black" points="9,-88 9,-107 189,-107 189,-88 9,-88"/>
<text text-anchor="middle" x="99" y="-95" font-family="Helvetica,sans-Serif" font-size="10.00">CommandLine&lt; OutLab6Inputs &gt;</text>
</a>
</g>
</g>
<!-- Node11&#45;&gt;Node1 -->
<g id="edge7" class="edge">
<title>Node11&#45;&gt;Node1</title>
<path fill="none" stroke="midnightblue" d="M184.25,-110.55C189.04,-112.55 193.67,-114.85 198,-117.5 223.92,-133.33 243.19,-164.98 251.69,-180.9"/>
<polygon fill="midnightblue" stroke="midnightblue" points="185.46,-107.26 174.87,-107.05 183.02,-113.82 185.46,-107.26"/>
</g>
<!-- Node12 -->
<g id="node9" class="node">
<title>Node12</title>
<g id="a_node9"><a xlink:href="dd/d02/classCommandLine.html" target="_top" xlink:title=" ">
<polygon fill="white" stroke="black" points="14,-50 14,-69 184,-69 184,-50 14,-50"/>
<text text-anchor="middle" x="99" y="-57" font-family="Helvetica,sans-Serif" font-size="10.00">CommandLine&lt; SolverInputs &gt;</text>
</a>
</g>
</g>
<!-- Node12&#45;&gt;Node1 -->
<g id="edge8" class="edge">
<title>Node12&#45;&gt;Node1</title>
<path fill="none" stroke="midnightblue" d="M190.16,-73.42C192.89,-74.95 195.51,-76.64 198,-78.5 233.35,-104.85 249.25,-158.87 254.46,-180.86"/>
<polygon fill="midnightblue" stroke="midnightblue" points="191.68,-70.26 181.16,-69.01 188.61,-76.55 191.68,-70.26"/>
</g>
<!-- Node13 -->
<g id="node10" class="node">
<title>Node13</title>
<g id="a_node10"><a xlink:href="dd/d02/classCommandLine.html" target="_top" xlink:title=" ">
<polygon fill="white" stroke="black" points="20,-0.5 20,-30.5 178,-30.5 178,-0.5 20,-0.5"/>
<text text-anchor="start" x="28" y="-18.5" font-family="Helvetica,sans-Serif" font-size="10.00">CommandLine&lt; TaylorSeries</text>
<text text-anchor="middle" x="99" y="-7.5" font-family="Helvetica,sans-Serif" font-size="10.00">Inputs &gt;</text>
</a>
</g>
</g>
<!-- Node13&#45;&gt;Node1 -->
<g id="edge9" class="edge">
<title>Node13&#45;&gt;Node1</title>
<path fill="none" stroke="midnightblue" d="M187.46,-32.79C191.2,-35.06 194.75,-37.62 198,-40.5 241.54,-79.03 252.95,-153.97 255.69,-180.72"/>
<polygon fill="midnightblue" stroke="midnightblue" points="188.88,-29.59 178.41,-28.01 185.61,-35.77 188.88,-29.59"/>
</g>
</g>
</svg>
