<?xml version="1.0" encoding="UTF-8" standalone="no"?>
<!DOCTYPE svg PUBLIC "-//W3C//DTD SVG 1.1//EN"
 "http://www.w3.org/Graphics/SVG/1.1/DTD/svg11.dtd">
<!-- Generated by graphviz version 2.43.0 (0)
 -->
<!-- Title: fillUsingTrapezoidal Pages: 1 -->
<svg width="270pt" height="142pt"
 viewBox="0.00 0.00 270.00 142.00" xmlns="http://www.w3.org/2000/svg" xmlns:xlink="http://www.w3.org/1999/xlink">
<g id="graph0" class="graph" transform="scale(1 1) rotate(0) translate(4 138)">
<title>fillUsingTrapezoidal</title>
<polygon fill="white" stroke="transparent" points="-4,4 -4,-138 266,-138 266,4 -4,4"/>
<!-- Node1 -->
<g id="node1" class="node">
<title>Node1</title>
<g id="a_node1"><a xlink:title="This function computes the integral of a user&#45;defined function using the trapezoidal rule.">
<polygon fill="#bfbfbf" stroke="black" points="0,-57.5 0,-76.5 112,-76.5 112,-57.5 0,-57.5"/>
<text text-anchor="middle" x="56" y="-64.5" font-family="Helvetica,sans-Serif" font-size="10.00">fillUsingTrapezoidal</text>
</a>
</g>
</g>
<!-- Node2 -->
<g id="node2" class="node">
<title>Node2</title>
<g id="a_node2"><a xlink:href="classStopwatch.html#a3c8a6cb60a31a8cafd1d2dad1b6c851d" target="_top" xlink:title="Save the current time as the clicked time point.">
<polygon fill="white" stroke="black" points="157,-114.5 157,-133.5 253,-133.5 253,-114.5 157,-114.5"/>
<text text-anchor="middle" x="205" y="-121.5" font-family="Helvetica,sans-Serif" font-size="10.00">Stopwatch::click</text>
</a>
</g>
</g>
<!-- Node1&#45;&gt;Node2 -->
<g id="edge1" class="edge">
<title>Node1&#45;&gt;Node2</title>
<path fill="none" stroke="midnightblue" d="M78.9,-76.64C97.23,-84.59 124.14,-95.98 148,-105 153.48,-107.07 159.29,-109.16 165.02,-111.16"/>
<polygon fill="midnightblue" stroke="midnightblue" points="163.92,-114.48 174.51,-114.42 166.19,-107.86 163.92,-114.48"/>
</g>
<!-- Node3 -->
<g id="node3" class="node">
<title>Node3</title>
<g id="a_node3"><a xlink:href="classStopwatch.html#ad9367e879debc8822feb6dedae52a785" target="_top" xlink:title="Get the duration in the given type.">
<polygon fill="white" stroke="black" points="148,-76.5 148,-95.5 262,-95.5 262,-76.5 148,-76.5"/>
<text text-anchor="middle" x="205" y="-83.5" font-family="Helvetica,sans-Serif" font-size="10.00">Stopwatch::duration</text>
</a>
</g>
</g>
<!-- Node1&#45;&gt;Node3 -->
<g id="edge2" class="edge">
<title>Node1&#45;&gt;Node3</title>
<path fill="none" stroke="midnightblue" d="M112.16,-74.13C120.38,-75.19 128.93,-76.3 137.36,-77.39"/>
<polygon fill="midnightblue" stroke="midnightblue" points="137.19,-80.89 147.56,-78.7 138.09,-73.95 137.19,-80.89"/>
</g>
<!-- Node4 -->
<g id="node4" class="node">
<title>Node4</title>
<g id="a_node4"><a xlink:href="classStopwatch.html#a2cc3c2b39972ca34f3ff9622471b1bbb" target="_top" xlink:title="Restart the stopwatch by setting the initial and clicked time points to the current time.">
<polygon fill="white" stroke="black" points="152,-38.5 152,-57.5 258,-57.5 258,-38.5 152,-38.5"/>
<text text-anchor="middle" x="205" y="-45.5" font-family="Helvetica,sans-Serif" font-size="10.00">Stopwatch::restart</text>
</a>
</g>
</g>
<!-- Node1&#45;&gt;Node4 -->
<g id="edge3" class="edge">
<title>Node1&#45;&gt;Node4</title>
<path fill="none" stroke="midnightblue" d="M112.16,-59.87C121.83,-58.62 131.96,-57.31 141.81,-56.04"/>
<polygon fill="midnightblue" stroke="midnightblue" points="142.47,-59.48 151.94,-54.73 141.57,-52.54 142.47,-59.48"/>
</g>
<!-- Node5 -->
<g id="node5" class="node">
<title>Node5</title>
<g id="a_node5"><a xlink:href="inlab3_2extern_2function_8h.html#a25c2143009fea0c9e01602a2b6aaf19d" target="_top" xlink:title="A user&#45;defined function that calculates the value of the function f(x) = e^(x)">
<polygon fill="white" stroke="black" points="158,-0.5 158,-19.5 252,-19.5 252,-0.5 158,-0.5"/>
<text text-anchor="middle" x="205" y="-7.5" font-family="Helvetica,sans-Serif" font-size="10.00">user_defined_fx</text>
</a>
</g>
</g>
<!-- Node1&#45;&gt;Node5 -->
<g id="edge4" class="edge">
<title>Node1&#45;&gt;Node5</title>
<path fill="none" stroke="midnightblue" d="M78.9,-57.36C97.23,-49.41 124.14,-38.02 148,-29 153.48,-26.93 159.29,-24.84 165.02,-22.84"/>
<polygon fill="midnightblue" stroke="midnightblue" points="166.19,-26.14 174.51,-19.58 163.92,-19.52 166.19,-26.14"/>
</g>
</g>
</svg>
