<?xml version="1.0" encoding="UTF-8" standalone="no"?>
<!DOCTYPE svg PUBLIC "-//W3C//DTD SVG 1.1//EN"
 "http://www.w3.org/Graphics/SVG/1.1/DTD/svg11.dtd">
<!-- Generated by graphviz version 2.43.0 (0)
 -->
<!-- Title: my_sisd_sin Pages: 1 -->
<svg width="365pt" height="66pt"
 viewBox="0.00 0.00 365.00 66.00" xmlns="http://www.w3.org/2000/svg" xmlns:xlink="http://www.w3.org/1999/xlink">
<g id="graph0" class="graph" transform="scale(1 1) rotate(0) translate(4 62)">
<title>my_sisd_sin</title>
<polygon fill="white" stroke="transparent" points="-4,4 -4,-62 361,-62 361,4 -4,4"/>
<!-- Node1 -->
<g id="node1" class="node">
<title>Node1</title>
<g id="a_node1"><a xlink:title="Function to compute sine using a recursive, iterative taylor series discretization approach.">
<polygon fill="#bfbfbf" stroke="black" points="0,-19.5 0,-38.5 77,-38.5 77,-19.5 0,-19.5"/>
<text text-anchor="middle" x="38.5" y="-26.5" font-family="Helvetica,sans-Serif" font-size="10.00">my_sisd_sin</text>
</a>
</g>
</g>
<!-- Node2 -->
<g id="node2" class="node">
<title>Node2</title>
<g id="a_node2"><a xlink:href="namespaceMyBLAS.html#a9db3b5457815887bf65b24bb4fe2937b" target="_top" xlink:title="Calculates the absolute value of the vector.">
<polygon fill="white" stroke="black" points="117.5,-38.5 117.5,-57.5 197.5,-57.5 197.5,-38.5 117.5,-38.5"/>
<text text-anchor="middle" x="157.5" y="-45.5" font-family="Helvetica,sans-Serif" font-size="10.00">MyBLAS::abs</text>
</a>
</g>
</g>
<!-- Node1&#45;&gt;Node2 -->
<g id="edge1" class="edge">
<title>Node1&#45;&gt;Node2</title>
<path fill="none" stroke="midnightblue" d="M77.16,-35.12C86.78,-36.68 97.27,-38.38 107.37,-40.02"/>
<polygon fill="midnightblue" stroke="midnightblue" points="106.86,-43.49 117.3,-41.63 107.99,-36.58 106.86,-43.49"/>
</g>
<!-- Node4 -->
<g id="node4" class="node">
<title>Node4</title>
<g id="a_node4"><a xlink:href="labs_2inlab1_2Compute_8h.html#a5dca881e1ae89aa924c747386d963f95" target="_top" xlink:title="Function to compute factorial in a naive way.">
<polygon fill="white" stroke="black" points="113,-0.5 113,-19.5 202,-19.5 202,-0.5 113,-0.5"/>
<text text-anchor="middle" x="157.5" y="-7.5" font-family="Helvetica,sans-Serif" font-size="10.00">naive_factorial</text>
</a>
</g>
</g>
<!-- Node1&#45;&gt;Node4 -->
<g id="edge3" class="edge">
<title>Node1&#45;&gt;Node4</title>
<path fill="none" stroke="midnightblue" d="M77.16,-22.88C85.33,-21.56 94.11,-20.13 102.76,-18.73"/>
<polygon fill="midnightblue" stroke="midnightblue" points="103.49,-22.16 112.8,-17.1 102.36,-15.25 103.49,-22.16"/>
</g>
<!-- Node3 -->
<g id="node3" class="node">
<title>Node3</title>
<g id="a_node3"><a xlink:href="classMyBLAS_1_1Vector.html#aae30f8178e4a34d332317c61e77c147a" target="_top" xlink:title="Getter for the size of the vector.">
<polygon fill="white" stroke="black" points="238,-38.5 238,-57.5 357,-57.5 357,-38.5 238,-38.5"/>
<text text-anchor="middle" x="297.5" y="-45.5" font-family="Helvetica,sans-Serif" font-size="10.00">MyBLAS::Vector::size</text>
</a>
</g>
</g>
<!-- Node2&#45;&gt;Node3 -->
<g id="edge2" class="edge">
<title>Node2&#45;&gt;Node3</title>
<path fill="none" stroke="midnightblue" d="M197.68,-48C207.06,-48 217.35,-48 227.64,-48"/>
<polygon fill="midnightblue" stroke="midnightblue" points="227.9,-51.5 237.9,-48 227.9,-44.5 227.9,-51.5"/>
</g>
</g>
</svg>
