<?xml version="1.0" encoding="UTF-8" standalone="no"?>
<!DOCTYPE svg PUBLIC "-//W3C//DTD SVG 1.1//EN"
 "http://www.w3.org/Graphics/SVG/1.1/DTD/svg11.dtd">
<!-- Generated by graphviz version 2.43.0 (0)
 -->
<!-- Title: dooLittleFactorizeLUP Pages: 1 -->
<svg width="473pt" height="180pt"
 viewBox="0.00 0.00 473.00 180.00" xmlns="http://www.w3.org/2000/svg" xmlns:xlink="http://www.w3.org/1999/xlink">
<g id="graph0" class="graph" transform="scale(1 1) rotate(0) translate(4 176)">
<title>dooLittleFactorizeLUP</title>
<polygon fill="white" stroke="transparent" points="-4,4 -4,-176 469,-176 469,4 -4,4"/>
<!-- Node1 -->
<g id="node1" class="node">
<title>Node1</title>
<g id="a_node1"><a xlink:title="Performs Doolittle&#39;s LU factorization with partial pivoting on a given matrix.">
<polygon fill="#bfbfbf" stroke="black" points="0,-76.5 0,-95.5 122,-95.5 122,-76.5 0,-76.5"/>
<text text-anchor="middle" x="61" y="-83.5" font-family="Helvetica,sans-Serif" font-size="10.00">dooLittleFactorizeLUP</text>
</a>
</g>
</g>
<!-- Node2 -->
<g id="node2" class="node">
<title>Node2</title>
<g id="a_node2"><a xlink:href="namespaceMyBLAS.html#a9db3b5457815887bf65b24bb4fe2937b" target="_top" xlink:title="Calculates the absolute value of the vector.">
<polygon fill="white" stroke="black" points="194,-152.5 194,-171.5 274,-171.5 274,-152.5 194,-152.5"/>
<text text-anchor="middle" x="234" y="-159.5" font-family="Helvetica,sans-Serif" font-size="10.00">MyBLAS::abs</text>
</a>
</g>
</g>
<!-- Node1&#45;&gt;Node2 -->
<g id="edge1" class="edge">
<title>Node1&#45;&gt;Node2</title>
<path fill="none" stroke="midnightblue" d="M75.34,-95.62C93.3,-108.16 126.65,-130.04 158,-143 166.21,-146.39 175.18,-149.3 183.97,-151.75"/>
<polygon fill="midnightblue" stroke="midnightblue" points="183.21,-155.17 193.77,-154.31 184.98,-148.39 183.21,-155.17"/>
</g>
<!-- Node4 -->
<g id="node4" class="node">
<title>Node4</title>
<g id="a_node4"><a xlink:href="classMyBLAS_1_1Matrix.html#af038a1ce616639b7e9f9e3955bb6bd02" target="_top" xlink:title="Static function to get the identity matrix of a given size.">
<polygon fill="white" stroke="black" points="174.5,-114.5 174.5,-133.5 293.5,-133.5 293.5,-114.5 174.5,-114.5"/>
<text text-anchor="middle" x="234" y="-121.5" font-family="Helvetica,sans-Serif" font-size="10.00">MyBLAS::Matrix::eye</text>
</a>
</g>
</g>
<!-- Node1&#45;&gt;Node4 -->
<g id="edge3" class="edge">
<title>Node1&#45;&gt;Node4</title>
<path fill="none" stroke="midnightblue" d="M105.15,-95.59C127.92,-100.65 156.05,-106.9 180.12,-112.25"/>
<polygon fill="midnightblue" stroke="midnightblue" points="179.64,-115.73 190.16,-114.48 181.16,-108.89 179.64,-115.73"/>
</g>
<!-- Node5 -->
<g id="node5" class="node">
<title>Node5</title>
<g id="a_node5"><a xlink:href="classMyBLAS_1_1Matrix.html#a720cd9095d330d43de367bfbffffb864" target="_top" xlink:title="Getter for the number of columns in the matrix.">
<polygon fill="white" stroke="black" points="165.5,-76.5 165.5,-95.5 302.5,-95.5 302.5,-76.5 165.5,-76.5"/>
<text text-anchor="middle" x="234" y="-83.5" font-family="Helvetica,sans-Serif" font-size="10.00">MyBLAS::Matrix::getCols</text>
</a>
</g>
</g>
<!-- Node1&#45;&gt;Node5 -->
<g id="edge4" class="edge">
<title>Node1&#45;&gt;Node5</title>
<path fill="none" stroke="midnightblue" d="M122.29,-86C132.96,-86 144.21,-86 155.29,-86"/>
<polygon fill="midnightblue" stroke="midnightblue" points="155.39,-89.5 165.39,-86 155.39,-82.5 155.39,-89.5"/>
</g>
<!-- Node6 -->
<g id="node6" class="node">
<title>Node6</title>
<g id="a_node6"><a xlink:href="plot__points_8m.html#a07ca9f04874775e798496347c3e80b84" target="_top" xlink:title=" ">
<polygon fill="white" stroke="black" points="219.5,-38.5 219.5,-57.5 248.5,-57.5 248.5,-38.5 219.5,-38.5"/>
<text text-anchor="middle" x="234" y="-45.5" font-family="Helvetica,sans-Serif" font-size="10.00">L</text>
</a>
</g>
</g>
<!-- Node1&#45;&gt;Node6 -->
<g id="edge5" class="edge">
<title>Node1&#45;&gt;Node6</title>
<path fill="none" stroke="midnightblue" d="M105.15,-76.41C138.19,-69.07 182.53,-59.22 209.37,-53.25"/>
<polygon fill="midnightblue" stroke="midnightblue" points="210.38,-56.61 219.39,-51.03 208.86,-49.78 210.38,-56.61"/>
</g>
<!-- Node7 -->
<g id="node7" class="node">
<title>Node7</title>
<g id="a_node7"><a xlink:href="classMyBLAS_1_1Matrix.html#a95f15a700d1ac3c9639ee831da4c903c" target="_top" xlink:title="Swaps two rows in the matrix.">
<polygon fill="white" stroke="black" points="158,-0.5 158,-19.5 310,-19.5 310,-0.5 158,-0.5"/>
<text text-anchor="middle" x="234" y="-7.5" font-family="Helvetica,sans-Serif" font-size="10.00">MyBLAS::Matrix::swapRows</text>
</a>
</g>
</g>
<!-- Node1&#45;&gt;Node7 -->
<g id="edge6" class="edge">
<title>Node1&#45;&gt;Node7</title>
<path fill="none" stroke="midnightblue" d="M75.34,-76.38C93.3,-63.84 126.65,-41.96 158,-29 163.95,-26.54 170.29,-24.34 176.68,-22.38"/>
<polygon fill="midnightblue" stroke="midnightblue" points="178.06,-25.63 186.71,-19.5 176.13,-18.9 178.06,-25.63"/>
</g>
<!-- Node3 -->
<g id="node3" class="node">
<title>Node3</title>
<g id="a_node3"><a xlink:href="classMyBLAS_1_1Vector.html#aae30f8178e4a34d332317c61e77c147a" target="_top" xlink:title="Getter for the size of the vector.">
<polygon fill="white" stroke="black" points="346,-152.5 346,-171.5 465,-171.5 465,-152.5 346,-152.5"/>
<text text-anchor="middle" x="405.5" y="-159.5" font-family="Helvetica,sans-Serif" font-size="10.00">MyBLAS::Vector::size</text>
</a>
</g>
</g>
<!-- Node2&#45;&gt;Node3 -->
<g id="edge2" class="edge">
<title>Node2&#45;&gt;Node3</title>
<path fill="none" stroke="midnightblue" d="M274.31,-162C292.55,-162 314.77,-162 335.66,-162"/>
<polygon fill="midnightblue" stroke="midnightblue" points="335.78,-165.5 345.78,-162 335.78,-158.5 335.78,-165.5"/>
</g>
</g>
</svg>
