<?xml version="1.0" encoding="UTF-8" standalone="no"?>
<!DOCTYPE svg PUBLIC "-//W3C//DTD SVG 1.1//EN"
 "http://www.w3.org/Graphics/SVG/1.1/DTD/svg11.dtd">
<!-- Generated by graphviz version 2.43.0 (0)
 -->
<!-- Title: Compute::usingPointJacobi Pages: 1 -->
<svg width="305pt" height="104pt"
 viewBox="0.00 0.00 305.00 104.00" xmlns="http://www.w3.org/2000/svg" xmlns:xlink="http://www.w3.org/1999/xlink">
<g id="graph0" class="graph" transform="scale(1 1) rotate(0) translate(4 100)">
<title>Compute::usingPointJacobi</title>
<polygon fill="white" stroke="transparent" points="-4,4 -4,-100 301,-100 301,4 -4,4"/>
<!-- Node1 -->
<g id="node1" class="node">
<title>Node1</title>
<g id="a_node1"><a xlink:title="This method applies the Point Jacobi relaxation method to the given input matrices.">
<polygon fill="#bfbfbf" stroke="black" points="0,-38.5 0,-57.5 147,-57.5 147,-38.5 0,-38.5"/>
<text text-anchor="middle" x="73.5" y="-45.5" font-family="Helvetica,sans-Serif" font-size="10.00">Compute::usingPointJacobi</text>
</a>
</g>
</g>
<!-- Node2 -->
<g id="node2" class="node">
<title>Node2</title>
<g id="a_node2"><a xlink:href="classStopwatch.html#a3c8a6cb60a31a8cafd1d2dad1b6c851d" target="_top" xlink:title="Save the current time as the clicked time point.">
<polygon fill="white" stroke="black" points="192,-76.5 192,-95.5 288,-95.5 288,-76.5 192,-76.5"/>
<text text-anchor="middle" x="240" y="-83.5" font-family="Helvetica,sans-Serif" font-size="10.00">Stopwatch::click</text>
</a>
</g>
</g>
<!-- Node1&#45;&gt;Node2 -->
<g id="edge1" class="edge">
<title>Node1&#45;&gt;Node2</title>
<path fill="none" stroke="midnightblue" d="M116.01,-57.59C137.82,-62.63 164.73,-68.84 187.82,-74.18"/>
<polygon fill="midnightblue" stroke="midnightblue" points="187.26,-77.64 197.79,-76.48 188.83,-70.82 187.26,-77.64"/>
</g>
<!-- Node3 -->
<g id="node3" class="node">
<title>Node3</title>
<g id="a_node3"><a xlink:href="classStopwatch.html#ad9367e879debc8822feb6dedae52a785" target="_top" xlink:title="Get the duration in the given type.">
<polygon fill="white" stroke="black" points="183,-38.5 183,-57.5 297,-57.5 297,-38.5 183,-38.5"/>
<text text-anchor="middle" x="240" y="-45.5" font-family="Helvetica,sans-Serif" font-size="10.00">Stopwatch::duration</text>
</a>
</g>
</g>
<!-- Node1&#45;&gt;Node3 -->
<g id="edge2" class="edge">
<title>Node1&#45;&gt;Node3</title>
<path fill="none" stroke="midnightblue" d="M147.13,-48C155.58,-48 164.16,-48 172.51,-48"/>
<polygon fill="midnightblue" stroke="midnightblue" points="172.57,-51.5 182.57,-48 172.57,-44.5 172.57,-51.5"/>
</g>
<!-- Node4 -->
<g id="node4" class="node">
<title>Node4</title>
<g id="a_node4"><a xlink:href="classStopwatch.html#a2cc3c2b39972ca34f3ff9622471b1bbb" target="_top" xlink:title="Restart the stopwatch by setting the initial and clicked time points to the current time.">
<polygon fill="white" stroke="black" points="187,-0.5 187,-19.5 293,-19.5 293,-0.5 187,-0.5"/>
<text text-anchor="middle" x="240" y="-7.5" font-family="Helvetica,sans-Serif" font-size="10.00">Stopwatch::restart</text>
</a>
</g>
</g>
<!-- Node1&#45;&gt;Node4 -->
<g id="edge3" class="edge">
<title>Node1&#45;&gt;Node4</title>
<path fill="none" stroke="midnightblue" d="M116.01,-38.41C137.82,-33.37 164.73,-27.16 187.82,-21.82"/>
<polygon fill="midnightblue" stroke="midnightblue" points="188.83,-25.18 197.79,-19.52 187.26,-18.36 188.83,-25.18"/>
</g>
</g>
</svg>
