<?xml version="1.0" encoding="UTF-8" standalone="no"?>
<!DOCTYPE svg PUBLIC "-//W3C//DTD SVG 1.1//EN"
 "http://www.w3.org/Graphics/SVG/1.1/DTD/svg11.dtd">
<!-- Generated by graphviz version 2.43.0 (0)
 -->
<!-- Title: src/utils/math/RootFinder.h Pages: 1 -->
<svg width="155pt" height="84pt"
 viewBox="0.00 0.00 155.00 84.00" xmlns="http://www.w3.org/2000/svg" xmlns:xlink="http://www.w3.org/1999/xlink">
<g id="graph0" class="graph" transform="scale(1 1) rotate(0) translate(4 80)">
<title>src/utils/math/RootFinder.h</title>
<polygon fill="white" stroke="transparent" points="-4,4 -4,-80 151,-80 151,4 -4,4"/>
<!-- Node1 -->
<g id="node1" class="node">
<title>Node1</title>
<g id="a_node1"><a xlink:title="This file contains root finding math functions.">
<polygon fill="#bfbfbf" stroke="black" points="0,-56.5 0,-75.5 147,-75.5 147,-56.5 0,-56.5"/>
<text text-anchor="middle" x="73.5" y="-63.5" font-family="Helvetica,sans-Serif" font-size="10.00">src/utils/math/RootFinder.h</text>
</a>
</g>
</g>
<!-- Node2 -->
<g id="node2" class="node">
<title>Node2</title>
<g id="a_node2"><a xlink:title=" ">
<polygon fill="white" stroke="#bfbfbf" points="13,-0.5 13,-19.5 60,-19.5 60,-0.5 13,-0.5"/>
<text text-anchor="middle" x="36.5" y="-7.5" font-family="Helvetica,sans-Serif" font-size="10.00">cmath</text>
</a>
</g>
</g>
<!-- Node1&#45;&gt;Node2 -->
<g id="edge1" class="edge">
<title>Node1&#45;&gt;Node2</title>
<path fill="none" stroke="midnightblue" d="M67.39,-56.08C62.22,-48.53 54.65,-37.49 48.31,-28.23"/>
<polygon fill="midnightblue" stroke="midnightblue" points="51.04,-26.02 42.5,-19.75 45.26,-29.98 51.04,-26.02"/>
</g>
<!-- Node3 -->
<g id="node3" class="node">
<title>Node3</title>
<g id="a_node3"><a xlink:title=" ">
<polygon fill="white" stroke="#bfbfbf" points="78,-0.5 78,-19.5 143,-19.5 143,-0.5 78,-0.5"/>
<text text-anchor="middle" x="110.5" y="-7.5" font-family="Helvetica,sans-Serif" font-size="10.00">functional</text>
</a>
</g>
</g>
<!-- Node1&#45;&gt;Node3 -->
<g id="edge2" class="edge">
<title>Node1&#45;&gt;Node3</title>
<path fill="none" stroke="midnightblue" d="M79.61,-56.08C84.78,-48.53 92.35,-37.49 98.69,-28.23"/>
<polygon fill="midnightblue" stroke="midnightblue" points="101.74,-29.98 104.5,-19.75 95.96,-26.02 101.74,-29.98"/>
</g>
</g>
</svg>
