<?xml version="1.0" encoding="UTF-8" standalone="no"?>
<!DOCTYPE svg PUBLIC "-//W3C//DTD SVG 1.1//EN"
 "http://www.w3.org/Graphics/SVG/1.1/DTD/svg11.dtd">
<!-- Generated by graphviz version 2.43.0 (0)
 -->
<!-- Title: src/labs/outlab6/Parser.h Pages: 1 -->
<svg width="2057pt" height="487pt"
 viewBox="0.00 0.00 2057.47 487.00" xmlns="http://www.w3.org/2000/svg" xmlns:xlink="http://www.w3.org/1999/xlink">
<g id="graph0" class="graph" transform="scale(1 1) rotate(0) translate(4 483)">
<title>src/labs/outlab6/Parser.h</title>
<polygon fill="white" stroke="transparent" points="-4,4 -4,-483 2053.47,-483 2053.47,4 -4,4"/>
<!-- Node1 -->
<g id="node1" class="node">
<title>Node1</title>
<g id="a_node1"><a xlink:title="This file contains the Parser class which is responsible for parsing command line arguments and valid...">
<polygon fill="#bfbfbf" stroke="black" points="645.97,-459.5 645.97,-478.5 780.97,-478.5 780.97,-459.5 645.97,-459.5"/>
<text text-anchor="middle" x="713.47" y="-466.5" font-family="Helvetica,sans-Serif" font-size="10.00">src/labs/outlab6/Parser.h</text>
</a>
</g>
</g>
<!-- Node2 -->
<g id="node2" class="node">
<title>Node2</title>
<g id="a_node2"><a xlink:href="../../d3/dde/Circuit_8h.html" target="_top" xlink:title="Header file for the Circuit function, which generates a coefficient matrix A, and vectors x,...">
<polygon fill="white" stroke="black" points="29.47,-230 29.47,-249 177.47,-249 177.47,-230 29.47,-230"/>
<text text-anchor="middle" x="103.47" y="-237" font-family="Helvetica,sans-Serif" font-size="10.00">math/blas/system/Circuit.h</text>
</a>
</g>
</g>
<!-- Node1&#45;&gt;Node2 -->
<g id="edge1" class="edge">
<title>Node1&#45;&gt;Node2</title>
<path fill="none" stroke="midnightblue" d="M690.67,-459.5C597.44,-424.73 245,-293.28 135.88,-252.59"/>
<polygon fill="midnightblue" stroke="midnightblue" points="136.98,-249.26 126.39,-249.05 134.53,-255.82 136.98,-249.26"/>
</g>
<!-- Node13 -->
<g id="node13" class="node">
<title>Node13</title>
<g id="a_node13"><a xlink:href="../../d0/d7d/CheckBounds_8h.html" target="_top" xlink:title="This file contains the declaration of functions for checking the validity of input parameters.">
<polygon fill="white" stroke="black" points="667.47,-403.5 667.47,-422.5 759.47,-422.5 759.47,-403.5 667.47,-403.5"/>
<text text-anchor="middle" x="713.47" y="-410.5" font-family="Helvetica,sans-Serif" font-size="10.00">CheckBounds.h</text>
</a>
</g>
</g>
<!-- Node1&#45;&gt;Node13 -->
<g id="edge23" class="edge">
<title>Node1&#45;&gt;Node13</title>
<path fill="none" stroke="midnightblue" d="M713.47,-459.08C713.47,-452.01 713.47,-441.86 713.47,-432.99"/>
<polygon fill="midnightblue" stroke="midnightblue" points="716.97,-432.75 713.47,-422.75 709.97,-432.75 716.97,-432.75"/>
</g>
<!-- Node16 -->
<g id="node16" class="node">
<title>Node16</title>
<g id="a_node16"><a xlink:href="../../d9/d41/CommandLine_8h.html" target="_top" xlink:title="This file contains the definition of the CommandLine class and the HeaderInfo struct.">
<polygon fill="white" stroke="black" points="779.47,-347.5 779.47,-366.5 875.47,-366.5 875.47,-347.5 779.47,-347.5"/>
<text text-anchor="middle" x="827.47" y="-354.5" font-family="Helvetica,sans-Serif" font-size="10.00">CommandLine.h</text>
</a>
</g>
</g>
<!-- Node1&#45;&gt;Node16 -->
<g id="edge70" class="edge">
<title>Node1&#45;&gt;Node16</title>
<path fill="none" stroke="midnightblue" d="M724.84,-459.5C736.25,-450.77 754.16,-436.6 768.47,-423 784.79,-407.5 801.91,-388.26 813.48,-374.74"/>
<polygon fill="midnightblue" stroke="midnightblue" points="816.43,-376.68 820.22,-366.79 811.09,-372.16 816.43,-376.68"/>
</g>
<!-- Node19 -->
<g id="node19" class="node">
<title>Node19</title>
<g id="a_node19"><a xlink:href="../../db/df1/Helpers_8h.html" target="_top" xlink:title="This file contains helper functions and structures used throughout the program.">
<polygon fill="white" stroke="black" points="565.97,-291.5 565.97,-310.5 628.97,-310.5 628.97,-291.5 565.97,-291.5"/>
<text text-anchor="middle" x="597.47" y="-298.5" font-family="Helvetica,sans-Serif" font-size="10.00">Helpers.h</text>
</a>
</g>
</g>
<!-- Node1&#45;&gt;Node19 -->
<g id="edge83" class="edge">
<title>Node1&#45;&gt;Node19</title>
<path fill="none" stroke="midnightblue" d="M699.9,-459.32C687.85,-451.1 670.36,-437.82 658.47,-423 632.44,-390.55 613.27,-345.2 603.9,-320.25"/>
<polygon fill="midnightblue" stroke="midnightblue" points="607.1,-318.82 600.39,-310.62 600.53,-321.22 607.1,-318.82"/>
</g>
<!-- Node35 -->
<g id="node35" class="node">
<title>Node35</title>
<g id="a_node35"><a xlink:href="../../d7/de4/FileParser_8h.html" target="_top" xlink:title="This file contains the definitions for functions that handle file parsing operations.">
<polygon fill="white" stroke="black" points="1582.47,-291.5 1582.47,-310.5 1654.47,-310.5 1654.47,-291.5 1582.47,-291.5"/>
<text text-anchor="middle" x="1618.47" y="-298.5" font-family="Helvetica,sans-Serif" font-size="10.00">FileParser.h</text>
</a>
</g>
</g>
<!-- Node1&#45;&gt;Node35 -->
<g id="edge71" class="edge">
<title>Node1&#45;&gt;Node35</title>
<path fill="none" stroke="midnightblue" d="M781.2,-465.53C955.85,-458.27 1417.33,-433.19 1553.47,-367 1576.03,-356.03 1595.39,-334.04 1606.97,-318.68"/>
<polygon fill="midnightblue" stroke="midnightblue" points="1609.83,-320.7 1612.86,-310.55 1604.16,-316.59 1609.83,-320.7"/>
</g>
<!-- Node3 -->
<g id="node3" class="node">
<title>Node3</title>
<g id="a_node3"><a xlink:href="../../dd/d6d/Random_8h.html" target="_top" xlink:title="This file contains the Random namespace which provides functions for generating random vectors and ma...">
<polygon fill="white" stroke="black" points="427.97,-168.5 427.97,-187.5 522.97,-187.5 522.97,-168.5 427.97,-168.5"/>
<text text-anchor="middle" x="475.47" y="-175.5" font-family="Helvetica,sans-Serif" font-size="10.00">math/Random.h</text>
</a>
</g>
</g>
<!-- Node2&#45;&gt;Node3 -->
<g id="edge2" class="edge">
<title>Node2&#45;&gt;Node3</title>
<path fill="none" stroke="midnightblue" d="M151.29,-229.99C162.8,-227.99 175.07,-225.88 186.47,-224 266.58,-210.77 359.37,-196.51 417.74,-187.67"/>
<polygon fill="midnightblue" stroke="midnightblue" points="418.51,-191.09 427.87,-186.14 417.46,-184.17 418.51,-191.09"/>
</g>
<!-- Node4 -->
<g id="node4" class="node">
<title>Node4</title>
<g id="a_node4"><a xlink:title=" ">
<polygon fill="white" stroke="#bfbfbf" points="456.47,-56.5 456.47,-75.5 520.47,-75.5 520.47,-56.5 456.47,-56.5"/>
<text text-anchor="middle" x="488.47" y="-63.5" font-family="Helvetica,sans-Serif" font-size="10.00">algorithm</text>
</a>
</g>
</g>
<!-- Node2&#45;&gt;Node4 -->
<g id="edge19" class="edge">
<title>Node2&#45;&gt;Node4</title>
<path fill="none" stroke="midnightblue" d="M154.67,-229.99C204.84,-220.84 276.95,-205.26 299.47,-188 330.27,-164.39 312.23,-136.33 342.47,-112 372.18,-88.1 414.56,-76.85 446.01,-71.58"/>
<polygon fill="midnightblue" stroke="midnightblue" points="446.87,-74.99 456.23,-70.02 445.81,-68.07 446.87,-74.99"/>
</g>
<!-- Node5 -->
<g id="node5" class="node">
<title>Node5</title>
<g id="a_node5"><a xlink:title=" ">
<polygon fill="white" stroke="#bfbfbf" points="351.47,-112.5 351.47,-131.5 405.47,-131.5 405.47,-112.5 351.47,-112.5"/>
<text text-anchor="middle" x="378.47" y="-119.5" font-family="Helvetica,sans-Serif" font-size="10.00">random</text>
</a>
</g>
</g>
<!-- Node2&#45;&gt;Node5 -->
<g id="edge21" class="edge">
<title>Node2&#45;&gt;Node5</title>
<path fill="none" stroke="midnightblue" d="M152.81,-229.96C216.91,-218.53 322.44,-198.51 337.47,-188 353.84,-176.56 365.08,-156.27 371.6,-141.4"/>
<polygon fill="midnightblue" stroke="midnightblue" points="375,-142.31 375.51,-131.73 368.52,-139.69 375,-142.31"/>
</g>
<!-- Node6 -->
<g id="node6" class="node">
<title>Node6</title>
<g id="a_node6"><a xlink:title=" ">
<polygon fill="white" stroke="#bfbfbf" points="562.97,-0.5 562.97,-19.5 609.97,-19.5 609.97,-0.5 562.97,-0.5"/>
<text text-anchor="middle" x="586.47" y="-7.5" font-family="Helvetica,sans-Serif" font-size="10.00">vector</text>
</a>
</g>
</g>
<!-- Node2&#45;&gt;Node6 -->
<g id="edge22" class="edge">
<title>Node2&#45;&gt;Node6</title>
<path fill="none" stroke="midnightblue" d="M116.17,-229.96C159.18,-201.38 303.97,-108.01 435.47,-56 474.9,-40.41 521.93,-27.2 552.91,-19.21"/>
<polygon fill="midnightblue" stroke="midnightblue" points="553.93,-22.56 562.76,-16.7 552.21,-15.77 553.93,-22.56"/>
</g>
<!-- Node7 -->
<g id="node7" class="node">
<title>Node7</title>
<g id="a_node7"><a xlink:href="../../d3/db1/Matrix_8h.html" target="_top" xlink:title="This file contains my BLAS::Matrix declarations.">
<polygon fill="white" stroke="black" points="807.47,-112.5 807.47,-131.5 951.47,-131.5 951.47,-112.5 807.47,-112.5"/>
<text text-anchor="middle" x="879.47" y="-119.5" font-family="Helvetica,sans-Serif" font-size="10.00">math/blas/matrix/Matrix.h</text>
</a>
</g>
</g>
<!-- Node2&#45;&gt;Node7 -->
<g id="edge17" class="edge">
<title>Node2&#45;&gt;Node7</title>
<path fill="none" stroke="midnightblue" d="M147.72,-229.98C160.22,-227.79 173.85,-225.6 186.47,-224 387.72,-198.52 441.64,-222.88 641.47,-188 715.03,-175.16 798.76,-149.67 844.71,-134.71"/>
<polygon fill="midnightblue" stroke="midnightblue" points="846.06,-137.95 854.46,-131.51 843.87,-131.3 846.06,-137.95"/>
</g>
<!-- Node9 -->
<g id="node9" class="node">
<title>Node9</title>
<g id="a_node9"><a xlink:title=" ">
<polygon fill="white" stroke="#bfbfbf" points="1101.47,-0.5 1101.47,-19.5 1161.47,-19.5 1161.47,-0.5 1101.47,-0.5"/>
<text text-anchor="middle" x="1131.47" y="-7.5" font-family="Helvetica,sans-Serif" font-size="10.00">iostream</text>
</a>
</g>
</g>
<!-- Node2&#45;&gt;Node9 -->
<g id="edge20" class="edge">
<title>Node2&#45;&gt;Node9</title>
<path fill="none" stroke="midnightblue" d="M148.61,-229.97C160.86,-227.83 174.15,-225.67 186.47,-224 351.96,-201.61 399.42,-232.15 560.47,-188 693.55,-151.52 709.51,-96.32 841.47,-56 928.17,-29.51 1034.44,-18.1 1091.2,-13.61"/>
<polygon fill="midnightblue" stroke="midnightblue" points="1091.5,-17.1 1101.2,-12.85 1090.97,-10.12 1091.5,-17.1"/>
</g>
<!-- Node11 -->
<g id="node11" class="node">
<title>Node11</title>
<g id="a_node11"><a xlink:href="../../d6/dbe/Vector_8h.html" target="_top" xlink:title="This file contains my BLAS::Vector implementation.">
<polygon fill="white" stroke="black" points="614.97,-56.5 614.97,-75.5 755.97,-75.5 755.97,-56.5 614.97,-56.5"/>
<text text-anchor="middle" x="685.47" y="-63.5" font-family="Helvetica,sans-Serif" font-size="10.00">math/blas/vector/Vector.h</text>
</a>
</g>
</g>
<!-- Node2&#45;&gt;Node11 -->
<g id="edge18" class="edge">
<title>Node2&#45;&gt;Node11</title>
<path fill="none" stroke="midnightblue" d="M149.05,-229.96C161.18,-227.84 174.3,-225.7 186.47,-224 339.16,-202.72 391.07,-251.67 531.47,-188 576.73,-167.48 574.01,-142.19 613.47,-112 628.65,-100.39 646.91,-89 661.25,-80.59"/>
<polygon fill="midnightblue" stroke="midnightblue" points="663.12,-83.55 670.03,-75.51 659.62,-77.49 663.12,-83.55"/>
</g>
<!-- Node3&#45;&gt;Node4 -->
<g id="edge3" class="edge">
<title>Node3&#45;&gt;Node4</title>
<path fill="none" stroke="midnightblue" d="M476.49,-168.37C478.59,-150.62 483.43,-109.67 486.27,-85.6"/>
<polygon fill="midnightblue" stroke="midnightblue" points="489.76,-85.93 487.46,-75.59 482.81,-85.11 489.76,-85.93"/>
</g>
<!-- Node3&#45;&gt;Node5 -->
<g id="edge4" class="edge">
<title>Node3&#45;&gt;Node5</title>
<path fill="none" stroke="midnightblue" d="M459.89,-168.32C444.47,-159.74 420.66,-146.49 402.76,-136.52"/>
<polygon fill="midnightblue" stroke="midnightblue" points="404.46,-133.46 394.02,-131.65 401.05,-139.58 404.46,-133.46"/>
</g>
<!-- Node3&#45;&gt;Node6 -->
<g id="edge5" class="edge">
<title>Node3&#45;&gt;Node6</title>
<path fill="none" stroke="midnightblue" d="M469.27,-168.45C454.74,-147.29 421.6,-91.57 447.47,-56 471.37,-23.15 519.77,-13.79 552.67,-11.38"/>
<polygon fill="midnightblue" stroke="midnightblue" points="552.96,-14.87 562.75,-10.83 552.57,-7.88 552.96,-14.87"/>
</g>
<!-- Node3&#45;&gt;Node7 -->
<g id="edge6" class="edge">
<title>Node3&#45;&gt;Node7</title>
<path fill="none" stroke="midnightblue" d="M523,-170.65C592.79,-161.32 723.57,-143.84 805.84,-132.84"/>
<polygon fill="midnightblue" stroke="midnightblue" points="806.43,-136.29 815.87,-131.5 805.5,-129.36 806.43,-136.29"/>
</g>
<!-- Node3&#45;&gt;Node11 -->
<g id="edge16" class="edge">
<title>Node3&#45;&gt;Node11</title>
<path fill="none" stroke="midnightblue" d="M487.04,-168.45C505.23,-155.24 541.9,-129.58 575.47,-112 600.04,-99.14 629.14,-87.37 651.23,-79.1"/>
<polygon fill="midnightblue" stroke="midnightblue" points="652.68,-82.3 660.85,-75.56 650.25,-75.73 652.68,-82.3"/>
</g>
<!-- Node7&#45;&gt;Node4 -->
<g id="edge7" class="edge">
<title>Node7&#45;&gt;Node4</title>
<path fill="none" stroke="midnightblue" d="M817.52,-112.44C737.33,-101.37 599.73,-82.36 530.64,-72.82"/>
<polygon fill="midnightblue" stroke="midnightblue" points="530.95,-69.33 520.56,-71.43 529.99,-76.27 530.95,-69.33"/>
</g>
<!-- Node7&#45;&gt;Node6 -->
<g id="edge10" class="edge">
<title>Node7&#45;&gt;Node6</title>
<path fill="none" stroke="midnightblue" d="M867.05,-112.4C846.7,-98.67 804.58,-71.72 765.47,-56 716.63,-36.36 656.76,-23.4 620.13,-16.63"/>
<polygon fill="midnightblue" stroke="midnightblue" points="620.46,-13.13 609.99,-14.8 619.22,-20.02 620.46,-13.13"/>
</g>
<!-- Node8 -->
<g id="node8" class="node">
<title>Node8</title>
<g id="a_node8"><a xlink:title=" ">
<polygon fill="white" stroke="#bfbfbf" points="994.47,-56.5 994.47,-75.5 1046.47,-75.5 1046.47,-56.5 994.47,-56.5"/>
<text text-anchor="middle" x="1020.47" y="-63.5" font-family="Helvetica,sans-Serif" font-size="10.00">cassert</text>
</a>
</g>
</g>
<!-- Node7&#45;&gt;Node8 -->
<g id="edge8" class="edge">
<title>Node7&#45;&gt;Node8</title>
<path fill="none" stroke="midnightblue" d="M901.81,-112.44C925.23,-103.48 962.21,-89.31 988.66,-79.18"/>
<polygon fill="midnightblue" stroke="midnightblue" points="990.15,-82.36 998.24,-75.52 987.65,-75.82 990.15,-82.36"/>
</g>
<!-- Node7&#45;&gt;Node9 -->
<g id="edge9" class="edge">
<title>Node7&#45;&gt;Node9</title>
<path fill="none" stroke="midnightblue" d="M940.6,-112.45C975.65,-105.85 1019.65,-94.6 1055.47,-76 1079.65,-63.44 1102.75,-41.85 1117,-27.03"/>
<polygon fill="midnightblue" stroke="midnightblue" points="1119.69,-29.28 1123.96,-19.58 1114.58,-24.5 1119.69,-29.28"/>
</g>
<!-- Node10 -->
<g id="node10" class="node">
<title>Node10</title>
<g id="a_node10"><a xlink:href="../../d1/d45/Constants_8h.html" target="_top" xlink:title="MyBLAS Constants definition.">
<polygon fill="white" stroke="black" points="850.47,-56.5 850.47,-75.5 976.47,-75.5 976.47,-56.5 850.47,-56.5"/>
<text text-anchor="middle" x="913.47" y="-63.5" font-family="Helvetica,sans-Serif" font-size="10.00">math/blas/Constants.h</text>
</a>
</g>
</g>
<!-- Node7&#45;&gt;Node10 -->
<g id="edge11" class="edge">
<title>Node7&#45;&gt;Node10</title>
<path fill="none" stroke="midnightblue" d="M885.09,-112.08C889.84,-104.53 896.79,-93.49 902.62,-84.23"/>
<polygon fill="midnightblue" stroke="midnightblue" points="905.6,-86.08 907.96,-75.75 899.67,-82.35 905.6,-86.08"/>
</g>
<!-- Node7&#45;&gt;Node11 -->
<g id="edge12" class="edge">
<title>Node7&#45;&gt;Node11</title>
<path fill="none" stroke="midnightblue" d="M848.73,-112.44C815.53,-103.2 762.48,-88.44 725.92,-78.26"/>
<polygon fill="midnightblue" stroke="midnightblue" points="726.64,-74.83 716.07,-75.52 724.76,-81.57 726.64,-74.83"/>
</g>
<!-- Node11&#45;&gt;Node6 -->
<g id="edge15" class="edge">
<title>Node11&#45;&gt;Node6</title>
<path fill="none" stroke="midnightblue" d="M669.57,-56.32C653.83,-47.74 629.53,-34.49 611.26,-24.52"/>
<polygon fill="midnightblue" stroke="midnightblue" points="612.79,-21.37 602.34,-19.65 609.44,-27.52 612.79,-21.37"/>
</g>
<!-- Node11&#45;&gt;Node9 -->
<g id="edge14" class="edge">
<title>Node11&#45;&gt;Node9</title>
<path fill="none" stroke="midnightblue" d="M756.14,-56.44C850.8,-44.98 1015.6,-25.03 1091.33,-15.86"/>
<polygon fill="midnightblue" stroke="midnightblue" points="1091.9,-19.32 1101.4,-14.64 1091.06,-12.37 1091.9,-19.32"/>
</g>
<!-- Node12 -->
<g id="node12" class="node">
<title>Node12</title>
<g id="a_node12"><a xlink:title=" ">
<polygon fill="white" stroke="#bfbfbf" points="354.47,-0.5 354.47,-19.5 410.47,-19.5 410.47,-0.5 354.47,-0.5"/>
<text text-anchor="middle" x="382.47" y="-7.5" font-family="Helvetica,sans-Serif" font-size="10.00">iomanip</text>
</a>
</g>
</g>
<!-- Node11&#45;&gt;Node12 -->
<g id="edge13" class="edge">
<title>Node11&#45;&gt;Node12</title>
<path fill="none" stroke="midnightblue" d="M637.46,-56.44C577.42,-45.74 475.84,-27.64 420.75,-17.82"/>
<polygon fill="midnightblue" stroke="midnightblue" points="421.16,-14.34 410.71,-16.03 419.94,-21.23 421.16,-14.34"/>
</g>
<!-- Node13&#45;&gt;Node9 -->
<g id="edge25" class="edge">
<title>Node13&#45;&gt;Node9</title>
<path fill="none" stroke="midnightblue" d="M759.65,-410.75C933.6,-405.45 1539.47,-381.3 1539.47,-302 1539.47,-302 1539.47,-302 1539.47,-121 1539.47,-45.29 1274.23,-20.16 1171.47,-13.26"/>
<polygon fill="midnightblue" stroke="midnightblue" points="1171.68,-9.77 1161.47,-12.61 1171.23,-16.75 1171.68,-9.77"/>
</g>
<!-- Node13&#45;&gt;Node12 -->
<g id="edge26" class="edge">
<title>Node13&#45;&gt;Node12</title>
<path fill="none" stroke="midnightblue" d="M667.38,-407.78C527.86,-394.1 113.96,-346.43 20.47,-255 -4.42,-230.66 1.47,-213.82 1.47,-179 1.47,-179 1.47,-179 1.47,-121 1.47,-50.16 247.67,-22.13 344.25,-13.86"/>
<polygon fill="midnightblue" stroke="midnightblue" points="344.78,-17.33 354.46,-13.01 344.2,-10.35 344.78,-17.33"/>
</g>
<!-- Node14 -->
<g id="node14" class="node">
<title>Node14</title>
<g id="a_node14"><a xlink:title=" ">
<polygon fill="white" stroke="#bfbfbf" points="558.47,-230 558.47,-249 708.47,-249 708.47,-230 558.47,-230"/>
<text text-anchor="middle" x="633.47" y="-237" font-family="Helvetica,sans-Serif" font-size="10.00">boost/program_options.hpp</text>
</a>
</g>
</g>
<!-- Node13&#45;&gt;Node14 -->
<g id="edge24" class="edge">
<title>Node13&#45;&gt;Node14</title>
<path fill="none" stroke="midnightblue" d="M709.4,-403.26C696.88,-376.42 658.81,-294.82 641.82,-258.39"/>
<polygon fill="midnightblue" stroke="midnightblue" points="644.85,-256.6 637.45,-249.02 638.5,-259.56 644.85,-256.6"/>
</g>
<!-- Node15 -->
<g id="node15" class="node">
<title>Node15</title>
<g id="a_node15"><a xlink:title=" ">
<polygon fill="white" stroke="#bfbfbf" points="195.47,-230 195.47,-249 239.47,-249 239.47,-230 195.47,-230"/>
<text text-anchor="middle" x="217.47" y="-237" font-family="Helvetica,sans-Serif" font-size="10.00">limits</text>
</a>
</g>
</g>
<!-- Node13&#45;&gt;Node15 -->
<g id="edge27" class="edge">
<title>Node13&#45;&gt;Node15</title>
<path fill="none" stroke="midnightblue" d="M686.85,-403.47C615.94,-380.64 416.81,-315.72 253.47,-255 251.63,-254.31 249.73,-253.59 247.82,-252.86"/>
<polygon fill="midnightblue" stroke="midnightblue" points="248.93,-249.53 238.34,-249.13 246.36,-256.05 248.93,-249.53"/>
</g>
<!-- Node13&#45;&gt;Node16 -->
<g id="edge28" class="edge">
<title>Node13&#45;&gt;Node16</title>
<path fill="none" stroke="midnightblue" d="M731.54,-403.44C750.05,-394.68 779.05,-380.94 800.33,-370.86"/>
<polygon fill="midnightblue" stroke="midnightblue" points="801.95,-373.96 809.49,-366.52 798.96,-367.63 801.95,-373.96"/>
</g>
<!-- Node18 -->
<g id="node18" class="node">
<title>Node18</title>
<g id="a_node18"><a xlink:title=" ">
<polygon fill="white" stroke="#bfbfbf" points="1241.47,-230 1241.47,-249 1299.47,-249 1299.47,-230 1241.47,-230"/>
<text text-anchor="middle" x="1270.47" y="-237" font-family="Helvetica,sans-Serif" font-size="10.00">json.hpp</text>
</a>
</g>
</g>
<!-- Node13&#45;&gt;Node18 -->
<g id="edge69" class="edge">
<title>Node13&#45;&gt;Node18</title>
<path fill="none" stroke="midnightblue" d="M759.61,-412.25C895.17,-411.92 1287.71,-402.89 1366.47,-311 1388.12,-285.74 1344.65,-264.39 1309.36,-252.01"/>
<polygon fill="midnightblue" stroke="midnightblue" points="1310.27,-248.62 1299.68,-248.76 1308.04,-255.26 1310.27,-248.62"/>
</g>
<!-- Node13&#45;&gt;Node19 -->
<g id="edge68" class="edge">
<title>Node13&#45;&gt;Node19</title>
<path fill="none" stroke="midnightblue" d="M700.95,-403.31C688.84,-394.66 670.19,-380.74 655.47,-367 639.15,-351.76 622.36,-332.48 611.07,-318.88"/>
<polygon fill="midnightblue" stroke="midnightblue" points="613.56,-316.39 604.51,-310.87 608.14,-320.83 613.56,-316.39"/>
</g>
<!-- Node16&#45;&gt;Node9 -->
<g id="edge66" class="edge">
<title>Node16&#45;&gt;Node9</title>
<path fill="none" stroke="midnightblue" d="M875.49,-348.86C991,-331.28 1277.16,-285.14 1308.47,-255 1333.56,-230.85 1327.47,-213.82 1327.47,-179 1327.47,-179 1327.47,-179 1327.47,-121 1327.47,-50.29 1229.25,-24.57 1171.87,-15.57"/>
<polygon fill="midnightblue" stroke="midnightblue" points="1172.07,-12.06 1161.67,-14.08 1171.06,-18.99 1172.07,-12.06"/>
</g>
<!-- Node16&#45;&gt;Node14 -->
<g id="edge65" class="edge">
<title>Node16&#45;&gt;Node14</title>
<path fill="none" stroke="midnightblue" d="M811.29,-347.49C794.63,-338.64 768.01,-324.26 745.47,-311 713.45,-292.16 677.19,-268.99 654.83,-254.48"/>
<polygon fill="midnightblue" stroke="midnightblue" points="656.71,-251.53 646.42,-249.01 652.89,-257.39 656.71,-251.53"/>
</g>
<!-- Node17 -->
<g id="node17" class="node">
<title>Node17</title>
<g id="a_node17"><a xlink:href="../../d2/d0e/CommandlineHelpers_8h.html" target="_top" xlink:title="This file contains helper functions for handling command line options and initializing the profiler.">
<polygon fill="white" stroke="black" points="753.97,-291.5 753.97,-310.5 884.97,-310.5 884.97,-291.5 753.97,-291.5"/>
<text text-anchor="middle" x="819.47" y="-298.5" font-family="Helvetica,sans-Serif" font-size="10.00">CommandlineHelpers.h</text>
</a>
</g>
</g>
<!-- Node16&#45;&gt;Node17 -->
<g id="edge29" class="edge">
<title>Node16&#45;&gt;Node17</title>
<path fill="none" stroke="midnightblue" d="M826.15,-347.08C825.09,-339.93 823.57,-329.64 822.24,-320.69"/>
<polygon fill="midnightblue" stroke="midnightblue" points="825.7,-320.13 820.77,-310.75 818.77,-321.16 825.7,-320.13"/>
</g>
<!-- Node16&#45;&gt;Node19 -->
<g id="edge33" class="edge">
<title>Node16&#45;&gt;Node19</title>
<path fill="none" stroke="midnightblue" d="M791.03,-347.44C749.75,-337.75 682.61,-321.99 639.25,-311.81"/>
<polygon fill="midnightblue" stroke="midnightblue" points="639.84,-308.35 629.3,-309.47 638.24,-315.17 639.84,-308.35"/>
</g>
<!-- Node22 -->
<g id="node22" class="node">
<title>Node22</title>
<g id="a_node22"><a xlink:href="../../df/d69/Profiler_8h.html" target="_top" xlink:title="This file contains the Profiler class which is used to profile the execution time of a function.">
<polygon fill="white" stroke="black" points="953.97,-291.5 953.97,-310.5 1012.97,-310.5 1012.97,-291.5 953.97,-291.5"/>
<text text-anchor="middle" x="983.47" y="-298.5" font-family="Helvetica,sans-Serif" font-size="10.00">Profiler.h</text>
</a>
</g>
</g>
<!-- Node16&#45;&gt;Node22 -->
<g id="edge41" class="edge">
<title>Node16&#45;&gt;Node22</title>
<path fill="none" stroke="midnightblue" d="M852.19,-347.44C878.32,-338.4 919.73,-324.06 949.05,-313.92"/>
<polygon fill="midnightblue" stroke="midnightblue" points="950.56,-317.1 958.87,-310.52 948.28,-310.48 950.56,-317.1"/>
</g>
<!-- Node33 -->
<g id="node33" class="node">
<title>Node33</title>
<g id="a_node33"><a xlink:title=" ">
<polygon fill="white" stroke="#bfbfbf" points="1265.47,-291.5 1265.47,-310.5 1357.47,-310.5 1357.47,-291.5 1265.47,-291.5"/>
<text text-anchor="middle" x="1311.47" y="-298.5" font-family="Helvetica,sans-Serif" font-size="10.00">project&#45;config.h</text>
</a>
</g>
</g>
<!-- Node16&#45;&gt;Node33 -->
<g id="edge64" class="edge">
<title>Node16&#45;&gt;Node33</title>
<path fill="none" stroke="midnightblue" d="M875.56,-351.58C954.26,-344.19 1115.45,-328.41 1251.47,-311 1252.74,-310.84 1254.01,-310.67 1255.3,-310.5"/>
<polygon fill="midnightblue" stroke="midnightblue" points="1255.88,-313.95 1265.31,-309.13 1254.93,-307.02 1255.88,-313.95"/>
</g>
<!-- Node34 -->
<g id="node34" class="node">
<title>Node34</title>
<g id="a_node34"><a xlink:title=" ">
<polygon fill="white" stroke="#bfbfbf" points="1429.47,-230 1429.47,-249 1473.47,-249 1473.47,-230 1429.47,-230"/>
<text text-anchor="middle" x="1451.47" y="-237" font-family="Helvetica,sans-Serif" font-size="10.00">string</text>
</a>
</g>
</g>
<!-- Node16&#45;&gt;Node34 -->
<g id="edge67" class="edge">
<title>Node16&#45;&gt;Node34</title>
<path fill="none" stroke="midnightblue" d="M875.66,-355.28C949.67,-353.09 1095.16,-344.47 1213.47,-311 1233.75,-305.26 1236.5,-297.74 1256.47,-291 1327.17,-267.12 1349.8,-278.96 1420.47,-255 1422.14,-254.44 1423.83,-253.81 1425.52,-253.14"/>
<polygon fill="midnightblue" stroke="midnightblue" points="1427.24,-256.21 1435.02,-249.02 1424.45,-249.79 1427.24,-256.21"/>
</g>
<!-- Node17&#45;&gt;Node13 -->
<g id="edge30" class="edge">
<title>Node17&#45;&gt;Node13</title>
<path fill="none" stroke="midnightblue" d="M793.75,-310.58C775.78,-317.77 752.42,-329.66 737.47,-347 726.07,-360.23 719.88,-379.36 716.66,-393.44"/>
<polygon fill="midnightblue" stroke="midnightblue" points="713.19,-392.96 714.67,-403.45 720.06,-394.32 713.19,-392.96"/>
</g>
<!-- Node17&#45;&gt;Node14 -->
<g id="edge32" class="edge">
<title>Node17&#45;&gt;Node14</title>
<path fill="none" stroke="midnightblue" d="M792.82,-291.48C760.5,-281.14 705.88,-263.66 669.74,-252.1"/>
<polygon fill="midnightblue" stroke="midnightblue" points="670.66,-248.72 660.07,-249.01 668.53,-255.39 670.66,-248.72"/>
</g>
<!-- Node17&#45;&gt;Node18 -->
<g id="edge31" class="edge">
<title>Node17&#45;&gt;Node18</title>
<path fill="none" stroke="midnightblue" d="M885.01,-294.91C984.34,-286.86 1168.23,-270.49 1232.47,-255 1235.47,-254.28 1238.54,-253.38 1241.58,-252.39"/>
<polygon fill="midnightblue" stroke="midnightblue" points="1242.82,-255.67 1251.05,-249.01 1240.46,-249.08 1242.82,-255.67"/>
</g>
<!-- Node19&#45;&gt;Node9 -->
<g id="edge35" class="edge">
<title>Node19&#45;&gt;Node9</title>
<path fill="none" stroke="midnightblue" d="M629.17,-297.61C698.74,-292.01 862.64,-276.88 913.47,-255 933.81,-246.24 932.86,-234.28 952.47,-224 1001.42,-198.35 1031.76,-226.42 1071.47,-188 1116.5,-144.43 1127.74,-65.88 1130.54,-29.91"/>
<polygon fill="midnightblue" stroke="midnightblue" points="1134.04,-30.03 1131.19,-19.83 1127.06,-29.59 1134.04,-30.03"/>
</g>
<!-- Node19&#45;&gt;Node12 -->
<g id="edge34" class="edge">
<title>Node19&#45;&gt;Node12</title>
<path fill="none" stroke="midnightblue" d="M565.89,-297.75C490.44,-292.04 304.64,-275.98 286.47,-255 224.89,-183.87 325.32,-68.55 366.3,-26.76"/>
<polygon fill="midnightblue" stroke="midnightblue" points="368.83,-29.18 373.42,-19.63 363.88,-24.23 368.83,-29.18"/>
</g>
<!-- Node19&#45;&gt;Node14 -->
<g id="edge38" class="edge">
<title>Node19&#45;&gt;Node14</title>
<path fill="none" stroke="midnightblue" d="M602.63,-291.48C607.92,-282.73 616.31,-268.87 623,-257.81"/>
<polygon fill="midnightblue" stroke="midnightblue" points="626.14,-259.38 628.32,-249.01 620.15,-255.75 626.14,-259.38"/>
</g>
<!-- Node19&#45;&gt;Node15 -->
<g id="edge36" class="edge">
<title>Node19&#45;&gt;Node15</title>
<path fill="none" stroke="midnightblue" d="M565.66,-298.52C504.34,-295.09 365.92,-284.49 253.47,-255 250.96,-254.34 248.39,-253.55 245.84,-252.69"/>
<polygon fill="midnightblue" stroke="midnightblue" points="246.82,-249.32 236.23,-249.09 244.37,-255.87 246.82,-249.32"/>
</g>
<!-- Node19&#45;&gt;Node18 -->
<g id="edge37" class="edge">
<title>Node19&#45;&gt;Node18</title>
<path fill="none" stroke="midnightblue" d="M629,-298.02C753.13,-290.21 1202.73,-261.58 1232.47,-255 1235.55,-254.32 1238.7,-253.44 1241.81,-252.44"/>
<polygon fill="midnightblue" stroke="midnightblue" points="1243.23,-255.65 1251.48,-249 1240.88,-249.06 1243.23,-255.65"/>
</g>
<!-- Node20 -->
<g id="node20" class="node">
<title>Node20</title>
<g id="a_node20"><a xlink:title=" ">
<polygon fill="white" stroke="#bfbfbf" points="295.97,-224.5 295.97,-254.5 408.97,-254.5 408.97,-224.5 295.97,-224.5"/>
<text text-anchor="start" x="303.97" y="-242.5" font-family="Helvetica,sans-Serif" font-size="10.00">boost/accumulators</text>
<text text-anchor="middle" x="352.47" y="-231.5" font-family="Helvetica,sans-Serif" font-size="10.00">/accumulators.hpp</text>
</a>
</g>
</g>
<!-- Node19&#45;&gt;Node20 -->
<g id="edge39" class="edge">
<title>Node19&#45;&gt;Node20</title>
<path fill="none" stroke="midnightblue" d="M565.94,-292.34C529.02,-283.38 466.84,-268.28 419.09,-256.68"/>
<polygon fill="midnightblue" stroke="midnightblue" points="419.67,-253.22 409.13,-254.26 418.02,-260.02 419.67,-253.22"/>
</g>
<!-- Node21 -->
<g id="node21" class="node">
<title>Node21</title>
<g id="a_node21"><a xlink:title=" ">
<polygon fill="white" stroke="#bfbfbf" points="426.97,-224.5 426.97,-254.5 539.97,-254.5 539.97,-224.5 426.97,-224.5"/>
<text text-anchor="start" x="434.97" y="-242.5" font-family="Helvetica,sans-Serif" font-size="10.00">boost/accumulators</text>
<text text-anchor="middle" x="483.47" y="-231.5" font-family="Helvetica,sans-Serif" font-size="10.00">/statistics.hpp</text>
</a>
</g>
</g>
<!-- Node19&#45;&gt;Node21 -->
<g id="edge40" class="edge">
<title>Node19&#45;&gt;Node21</title>
<path fill="none" stroke="midnightblue" d="M581.14,-291.48C565.05,-283.08 539.94,-269.97 519.21,-259.15"/>
<polygon fill="midnightblue" stroke="midnightblue" points="520.82,-256.05 510.34,-254.52 517.59,-262.25 520.82,-256.05"/>
</g>
<!-- Node22&#45;&gt;Node5 -->
<g id="edge46" class="edge">
<title>Node22&#45;&gt;Node5</title>
<path fill="none" stroke="midnightblue" d="M953.77,-298.01C909.87,-294.2 825.8,-283.54 760.47,-255 738.88,-245.57 739.42,-232.57 717.47,-224 592.79,-175.32 531.2,-260.17 418.47,-188 401.61,-177.2 390.72,-156.5 384.62,-141.35"/>
<polygon fill="midnightblue" stroke="midnightblue" points="387.9,-140.11 381.15,-131.94 381.33,-142.53 387.9,-140.11"/>
</g>
<!-- Node22&#45;&gt;Node9 -->
<g id="edge45" class="edge">
<title>Node22&#45;&gt;Node9</title>
<path fill="none" stroke="midnightblue" d="M1013.45,-295.03C1039,-289.37 1075.17,-277.78 1098.47,-255 1160.75,-194.13 1144.8,-75.6 1135.7,-29.75"/>
<polygon fill="midnightblue" stroke="midnightblue" points="1139.07,-28.79 1133.58,-19.73 1132.22,-30.24 1139.07,-28.79"/>
</g>
<!-- Node22&#45;&gt;Node12 -->
<g id="edge44" class="edge">
<title>Node22&#45;&gt;Node12</title>
<path fill="none" stroke="midnightblue" d="M953.91,-296.84C915.44,-291.88 846.84,-280.12 793.47,-255 772.8,-245.27 770.71,-237.76 752.47,-224 653.43,-149.25 640.03,-112.35 529.47,-56 494.44,-38.14 451.03,-25.93 420.5,-18.79"/>
<polygon fill="midnightblue" stroke="midnightblue" points="421.2,-15.36 410.67,-16.56 419.65,-22.18 421.2,-15.36"/>
</g>
<!-- Node22&#45;&gt;Node13 -->
<g id="edge48" class="edge">
<title>Node22&#45;&gt;Node13</title>
<path fill="none" stroke="midnightblue" d="M953.67,-305.93C902.71,-313.03 801.3,-328.96 770.47,-347 750.71,-358.57 734.26,-379.44 724.19,-394.41"/>
<polygon fill="midnightblue" stroke="midnightblue" points="720.98,-392.93 718.52,-403.24 726.87,-396.71 720.98,-392.93"/>
</g>
<!-- Node22&#45;&gt;Node18 -->
<g id="edge51" class="edge">
<title>Node22&#45;&gt;Node18</title>
<path fill="none" stroke="midnightblue" d="M1013,-296.47C1060.04,-290.45 1154.61,-276.69 1232.47,-255 1235.12,-254.26 1237.85,-253.41 1240.56,-252.5"/>
<polygon fill="midnightblue" stroke="midnightblue" points="1241.97,-255.71 1250.2,-249.03 1239.6,-249.13 1241.97,-255.71"/>
</g>
<!-- Node23 -->
<g id="node23" class="node">
<title>Node23</title>
<g id="a_node23"><a xlink:title=" ">
<polygon fill="white" stroke="#bfbfbf" points="1355.97,-230 1355.97,-249 1410.97,-249 1410.97,-230 1355.97,-230"/>
<text text-anchor="middle" x="1383.47" y="-237" font-family="Helvetica,sans-Serif" font-size="10.00">fstream</text>
</a>
</g>
</g>
<!-- Node22&#45;&gt;Node23 -->
<g id="edge42" class="edge">
<title>Node22&#45;&gt;Node23</title>
<path fill="none" stroke="midnightblue" d="M1013.13,-296.43C1070.37,-289.43 1200.02,-272.98 1308.47,-255 1320.62,-252.99 1333.81,-250.53 1345.7,-248.21"/>
<polygon fill="midnightblue" stroke="midnightblue" points="1346.62,-251.6 1355.75,-246.23 1345.27,-244.73 1346.62,-251.6"/>
</g>
<!-- Node24 -->
<g id="node24" class="node">
<title>Node24</title>
<g id="a_node24"><a xlink:title=" ">
<polygon fill="white" stroke="#bfbfbf" points="1023.97,-230 1023.97,-249 1088.97,-249 1088.97,-230 1023.97,-230"/>
<text text-anchor="middle" x="1056.47" y="-237" font-family="Helvetica,sans-Serif" font-size="10.00">functional</text>
</a>
</g>
</g>
<!-- Node22&#45;&gt;Node24 -->
<g id="edge43" class="edge">
<title>Node22&#45;&gt;Node24</title>
<path fill="none" stroke="midnightblue" d="M993.93,-291.48C1005.42,-282.11 1024.1,-266.88 1038.06,-255.51"/>
<polygon fill="midnightblue" stroke="midnightblue" points="1040.49,-258.04 1046.03,-249.01 1036.07,-252.61 1040.49,-258.04"/>
</g>
<!-- Node25 -->
<g id="node25" class="node">
<title>Node25</title>
<g id="a_node25"><a xlink:title=" ">
<polygon fill="white" stroke="#bfbfbf" points="960.97,-230 960.97,-249 1005.97,-249 1005.97,-230 960.97,-230"/>
<text text-anchor="middle" x="983.47" y="-237" font-family="Helvetica,sans-Serif" font-size="10.00">utility</text>
</a>
</g>
</g>
<!-- Node22&#45;&gt;Node25 -->
<g id="edge47" class="edge">
<title>Node22&#45;&gt;Node25</title>
<path fill="none" stroke="midnightblue" d="M983.47,-291.48C983.47,-283.08 983.47,-269.98 983.47,-259.16"/>
<polygon fill="midnightblue" stroke="midnightblue" points="986.97,-259.01 983.47,-249.01 979.97,-259.01 986.97,-259.01"/>
</g>
<!-- Node26 -->
<g id="node26" class="node">
<title>Node26</title>
<g id="a_node26"><a xlink:href="../../d4/d2e/Stopwatch_8h.html" target="_top" xlink:title="This file contains the Stopwatch class which is a utility for measuring time durations in various uni...">
<polygon fill="white" stroke="black" points="1145.97,-230 1145.97,-249 1222.97,-249 1222.97,-230 1145.97,-230"/>
<text text-anchor="middle" x="1184.47" y="-237" font-family="Helvetica,sans-Serif" font-size="10.00">Stopwatch.h</text>
</a>
</g>
</g>
<!-- Node22&#45;&gt;Node26 -->
<g id="edge49" class="edge">
<title>Node22&#45;&gt;Node26</title>
<path fill="none" stroke="midnightblue" d="M1012.27,-291.48C1047.35,-281.09 1106.74,-263.51 1145.78,-251.95"/>
<polygon fill="midnightblue" stroke="midnightblue" points="1147.13,-255.2 1155.73,-249.01 1145.15,-248.49 1147.13,-255.2"/>
</g>
<!-- Node28 -->
<g id="node28" class="node">
<title>Node28</title>
<g id="a_node28"><a xlink:href="../../dc/d09/Stats_8h.html" target="_top" xlink:title="This file contains the declaration of statistical functions and structures for vectors and matrices.">
<polygon fill="white" stroke="black" points="802.47,-230 802.47,-249 904.47,-249 904.47,-230 802.47,-230"/>
<text text-anchor="middle" x="853.47" y="-237" font-family="Helvetica,sans-Serif" font-size="10.00">math/blas/Stats.h</text>
</a>
</g>
</g>
<!-- Node22&#45;&gt;Node28 -->
<g id="edge52" class="edge">
<title>Node22&#45;&gt;Node28</title>
<path fill="none" stroke="midnightblue" d="M964.85,-291.48C943.03,-281.49 906.67,-264.85 881.46,-253.31"/>
<polygon fill="midnightblue" stroke="midnightblue" points="882.61,-249.99 872.06,-249.01 879.7,-256.35 882.61,-249.99"/>
</g>
<!-- Node27 -->
<g id="node27" class="node">
<title>Node27</title>
<g id="a_node27"><a xlink:title=" ">
<polygon fill="white" stroke="#bfbfbf" points="1204.47,-168.5 1204.47,-187.5 1254.47,-187.5 1254.47,-168.5 1204.47,-168.5"/>
<text text-anchor="middle" x="1229.47" y="-175.5" font-family="Helvetica,sans-Serif" font-size="10.00">chrono</text>
</a>
</g>
</g>
<!-- Node26&#45;&gt;Node27 -->
<g id="edge50" class="edge">
<title>Node26&#45;&gt;Node27</title>
<path fill="none" stroke="midnightblue" d="M1190.92,-229.98C1197.67,-221.05 1208.44,-206.81 1216.89,-195.64"/>
<polygon fill="midnightblue" stroke="midnightblue" points="1219.8,-197.6 1223.04,-187.51 1214.21,-193.37 1219.8,-197.6"/>
</g>
<!-- Node28&#45;&gt;Node4 -->
<g id="edge53" class="edge">
<title>Node28&#45;&gt;Node4</title>
<path fill="none" stroke="midnightblue" d="M816.72,-229.92C782.86,-221.38 731.63,-206.84 689.47,-188 619.84,-156.88 544.52,-106.54 509.1,-81.75"/>
<polygon fill="midnightblue" stroke="midnightblue" points="510.78,-78.66 500.59,-75.75 506.75,-84.38 510.78,-78.66"/>
</g>
<!-- Node28&#45;&gt;Node6 -->
<g id="edge57" class="edge">
<title>Node28&#45;&gt;Node6</title>
<path fill="none" stroke="midnightblue" d="M841.37,-229.99C827.2,-220 803.05,-202.91 782.47,-188 736.4,-154.62 728.06,-141.59 679.47,-112 648.57,-93.19 629.93,-103.54 606.47,-76 595.36,-62.95 590.42,-43.8 588.22,-29.66"/>
<polygon fill="midnightblue" stroke="midnightblue" points="591.68,-29.11 586.99,-19.61 584.73,-29.96 591.68,-29.11"/>
</g>
<!-- Node28&#45;&gt;Node7 -->
<g id="edge62" class="edge">
<title>Node28&#45;&gt;Node7</title>
<path fill="none" stroke="midnightblue" d="M847.89,-229.56C840.13,-215.93 827.94,-189.27 836.47,-168 841.15,-156.33 850.46,-145.97 859.23,-138.14"/>
<polygon fill="midnightblue" stroke="midnightblue" points="861.52,-140.78 866.98,-131.7 857.05,-135.4 861.52,-140.78"/>
</g>
<!-- Node28&#45;&gt;Node11 -->
<g id="edge63" class="edge">
<title>Node28&#45;&gt;Node11</title>
<path fill="none" stroke="midnightblue" d="M844.91,-229.76C818.17,-202.46 735.92,-118.5 701.2,-83.05"/>
<polygon fill="midnightblue" stroke="midnightblue" points="703.32,-80.21 693.82,-75.52 698.32,-85.11 703.32,-80.21"/>
</g>
<!-- Node29 -->
<g id="node29" class="node">
<title>Node29</title>
<g id="a_node29"><a xlink:title=" ">
<polygon fill="white" stroke="#bfbfbf" points="1016.97,-112.5 1016.97,-131.5 1063.97,-131.5 1063.97,-112.5 1016.97,-112.5"/>
<text text-anchor="middle" x="1040.47" y="-119.5" font-family="Helvetica,sans-Serif" font-size="10.00">cmath</text>
</a>
</g>
</g>
<!-- Node28&#45;&gt;Node29 -->
<g id="edge54" class="edge">
<title>Node28&#45;&gt;Node29</title>
<path fill="none" stroke="midnightblue" d="M889.94,-229.98C947.42,-216.47 1052.89,-191.31 1055.47,-188 1066.13,-174.35 1059.22,-154.48 1051.63,-140.3"/>
<polygon fill="midnightblue" stroke="midnightblue" points="1054.57,-138.39 1046.48,-131.55 1048.54,-141.94 1054.57,-138.39"/>
</g>
<!-- Node30 -->
<g id="node30" class="node">
<title>Node30</title>
<g id="a_node30"><a xlink:title=" ">
<polygon fill="white" stroke="#bfbfbf" points="845.47,-168.5 845.47,-187.5 901.47,-187.5 901.47,-168.5 845.47,-168.5"/>
<text text-anchor="middle" x="873.47" y="-175.5" font-family="Helvetica,sans-Serif" font-size="10.00">numeric</text>
</a>
</g>
</g>
<!-- Node28&#45;&gt;Node30 -->
<g id="edge55" class="edge">
<title>Node28&#45;&gt;Node30</title>
<path fill="none" stroke="midnightblue" d="M856.34,-229.98C859.19,-221.49 863.66,-208.2 867.31,-197.32"/>
<polygon fill="midnightblue" stroke="midnightblue" points="870.74,-198.1 870.61,-187.51 864.11,-195.87 870.74,-198.1"/>
</g>
<!-- Node31 -->
<g id="node31" class="node">
<title>Node31</title>
<g id="a_node31"><a xlink:title=" ">
<polygon fill="white" stroke="#bfbfbf" points="919.97,-168.5 919.97,-187.5 976.97,-187.5 976.97,-168.5 919.97,-168.5"/>
<text text-anchor="middle" x="948.47" y="-175.5" font-family="Helvetica,sans-Serif" font-size="10.00">ostream</text>
</a>
</g>
</g>
<!-- Node28&#45;&gt;Node31 -->
<g id="edge56" class="edge">
<title>Node28&#45;&gt;Node31</title>
<path fill="none" stroke="midnightblue" d="M867.08,-229.98C882.53,-220.3 907.96,-204.37 926.29,-192.89"/>
<polygon fill="midnightblue" stroke="midnightblue" points="928.27,-195.78 934.89,-187.51 924.55,-189.85 928.27,-195.78"/>
</g>
<!-- Node32 -->
<g id="node32" class="node">
<title>Node32</title>
<g id="a_node32"><a xlink:href="../../d1/d80/BLAS_8h.html" target="_top" xlink:title=" ">
<polygon fill="white" stroke="black" points="994.97,-168.5 994.97,-187.5 1045.97,-187.5 1045.97,-168.5 994.97,-168.5"/>
<text text-anchor="middle" x="1020.47" y="-175.5" font-family="Helvetica,sans-Serif" font-size="10.00">BLAS.h</text>
</a>
</g>
</g>
<!-- Node28&#45;&gt;Node32 -->
<g id="edge58" class="edge">
<title>Node28&#45;&gt;Node32</title>
<path fill="none" stroke="midnightblue" d="M877.4,-229.98C906.17,-219.72 954.63,-202.46 987.07,-190.9"/>
<polygon fill="midnightblue" stroke="midnightblue" points="988.34,-194.16 996.59,-187.51 986,-187.57 988.34,-194.16"/>
</g>
<!-- Node32&#45;&gt;Node7 -->
<g id="edge60" class="edge">
<title>Node32&#45;&gt;Node7</title>
<path fill="none" stroke="midnightblue" d="M998.13,-168.44C974.72,-159.48 937.74,-145.31 911.28,-135.18"/>
<polygon fill="midnightblue" stroke="midnightblue" points="912.3,-131.82 901.71,-131.52 909.8,-138.36 912.3,-131.82"/>
</g>
<!-- Node32&#45;&gt;Node11 -->
<g id="edge61" class="edge">
<title>Node32&#45;&gt;Node11</title>
<path fill="none" stroke="midnightblue" d="M994.9,-170.03C992.06,-169.31 989.21,-168.62 986.47,-168 903.52,-149.1 878.22,-161.62 798.47,-132 780.17,-125.2 735.23,-98.05 707.86,-81.07"/>
<polygon fill="midnightblue" stroke="midnightblue" points="709.65,-78.06 699.31,-75.74 705.94,-84 709.65,-78.06"/>
</g>
<!-- Node32&#45;&gt;Node29 -->
<g id="edge59" class="edge">
<title>Node32&#45;&gt;Node29</title>
<path fill="none" stroke="midnightblue" d="M1023.78,-168.08C1026.45,-160.85 1030.32,-150.41 1033.66,-141.4"/>
<polygon fill="midnightblue" stroke="midnightblue" points="1037.04,-142.34 1037.23,-131.75 1030.48,-139.91 1037.04,-142.34"/>
</g>
<!-- Node35&#45;&gt;Node7 -->
<g id="edge81" class="edge">
<title>Node35&#45;&gt;Node7</title>
<path fill="none" stroke="midnightblue" d="M1611.02,-291.36C1596.74,-275.37 1563.75,-241.25 1528.47,-224 1429.96,-175.83 1113.15,-143.03 961.66,-129.7"/>
<polygon fill="midnightblue" stroke="midnightblue" points="961.75,-126.19 951.48,-128.81 961.14,-133.16 961.75,-126.19"/>
</g>
<!-- Node35&#45;&gt;Node9 -->
<g id="edge75" class="edge">
<title>Node35&#45;&gt;Node9</title>
<path fill="none" stroke="midnightblue" d="M1654.63,-299.75C1728.66,-298.49 1893.93,-291.55 1934.47,-255 1960.33,-231.69 1953.47,-213.82 1953.47,-179 1953.47,-179 1953.47,-179 1953.47,-121 1953.47,-41.22 1337.35,-17.13 1171.94,-12.1"/>
<polygon fill="midnightblue" stroke="midnightblue" points="1171.8,-8.6 1161.7,-11.8 1171.59,-15.59 1171.8,-8.6"/>
</g>
<!-- Node35&#45;&gt;Node18 -->
<g id="edge82" class="edge">
<title>Node35&#45;&gt;Node18</title>
<path fill="none" stroke="midnightblue" d="M1582.05,-294.21C1529.98,-285.87 1431.3,-269.85 1347.47,-255 1335.12,-252.81 1321.68,-250.32 1309.54,-248.03"/>
<polygon fill="midnightblue" stroke="midnightblue" points="1310.17,-244.58 1299.7,-246.16 1308.87,-251.46 1310.17,-244.58"/>
</g>
<!-- Node35&#45;&gt;Node23 -->
<g id="edge74" class="edge">
<title>Node35&#45;&gt;Node23</title>
<path fill="none" stroke="midnightblue" d="M1582.28,-293.47C1542.25,-285.85 1476.07,-272.1 1420.47,-255 1418.05,-254.25 1415.56,-253.42 1413.07,-252.55"/>
<polygon fill="midnightblue" stroke="midnightblue" points="1414.23,-249.24 1403.63,-249.03 1411.78,-255.8 1414.23,-249.24"/>
</g>
<!-- Node35&#45;&gt;Node27 -->
<g id="edge77" class="edge">
<title>Node35&#45;&gt;Node27</title>
<path fill="none" stroke="midnightblue" d="M1606.39,-291.4C1583.43,-275.48 1531.38,-241.46 1482.47,-224 1407.71,-197.32 1314.64,-185.99 1264.84,-181.56"/>
<polygon fill="midnightblue" stroke="midnightblue" points="1264.86,-178.05 1254.6,-180.69 1264.27,-185.02 1264.86,-178.05"/>
</g>
<!-- Node35&#45;&gt;Node34 -->
<g id="edge76" class="edge">
<title>Node35&#45;&gt;Node34</title>
<path fill="none" stroke="midnightblue" d="M1592.23,-291.43C1565.68,-282.66 1523.52,-268.44 1487.47,-255 1485.63,-254.31 1483.73,-253.59 1481.82,-252.85"/>
<polygon fill="midnightblue" stroke="midnightblue" points="1482.93,-249.53 1472.34,-249.12 1480.36,-256.04 1482.93,-249.53"/>
</g>
<!-- Node36 -->
<g id="node36" class="node">
<title>Node36</title>
<g id="a_node36"><a xlink:title=" ">
<polygon fill="white" stroke="#bfbfbf" points="1813.47,-230 1813.47,-249 1925.47,-249 1925.47,-230 1813.47,-230"/>
<text text-anchor="middle" x="1869.47" y="-237" font-family="Helvetica,sans-Serif" font-size="10.00">boost/tokenizer.hpp</text>
</a>
</g>
</g>
<!-- Node35&#45;&gt;Node36 -->
<g id="edge72" class="edge">
<title>Node35&#45;&gt;Node36</title>
<path fill="none" stroke="midnightblue" d="M1654.43,-291.48C1698.98,-280.92 1774.93,-262.91 1823.62,-251.37"/>
<polygon fill="midnightblue" stroke="midnightblue" points="1824.65,-254.72 1833.58,-249.01 1823.04,-247.91 1824.65,-254.72"/>
</g>
<!-- Node37 -->
<g id="node37" class="node">
<title>Node37</title>
<g id="a_node37"><a xlink:title=" ">
<polygon fill="white" stroke="#bfbfbf" points="1981.47,-230 1981.47,-249 2049.47,-249 2049.47,-230 1981.47,-230"/>
<text text-anchor="middle" x="2015.47" y="-237" font-family="Helvetica,sans-Serif" font-size="10.00">filesystem</text>
</a>
</g>
</g>
<!-- Node35&#45;&gt;Node37 -->
<g id="edge73" class="edge">
<title>Node35&#45;&gt;Node37</title>
<path fill="none" stroke="midnightblue" d="M1654.47,-297.33C1718.15,-292.17 1854.57,-279.16 1967.47,-255 1971.64,-254.11 1975.97,-253.03 1980.24,-251.86"/>
<polygon fill="midnightblue" stroke="midnightblue" points="1981.38,-255.18 1990.02,-249.04 1979.44,-248.45 1981.38,-255.18"/>
</g>
<!-- Node38 -->
<g id="node38" class="node">
<title>Node38</title>
<g id="a_node38"><a xlink:title=" ">
<polygon fill="white" stroke="#bfbfbf" points="1605.47,-230 1605.47,-249 1663.47,-249 1663.47,-230 1605.47,-230"/>
<text text-anchor="middle" x="1634.47" y="-237" font-family="Helvetica,sans-Serif" font-size="10.00">memory</text>
</a>
</g>
</g>
<!-- Node35&#45;&gt;Node38 -->
<g id="edge78" class="edge">
<title>Node35&#45;&gt;Node38</title>
<path fill="none" stroke="midnightblue" d="M1620.77,-291.48C1623.05,-282.99 1626.62,-269.7 1629.55,-258.82"/>
<polygon fill="midnightblue" stroke="midnightblue" points="1632.97,-259.57 1632.18,-249.01 1626.21,-257.76 1632.97,-259.57"/>
</g>
<!-- Node39 -->
<g id="node39" class="node">
<title>Node39</title>
<g id="a_node39"><a xlink:title=" ">
<polygon fill="white" stroke="#bfbfbf" points="1681.47,-230 1681.47,-249 1729.47,-249 1729.47,-230 1681.47,-230"/>
<text text-anchor="middle" x="1705.47" y="-237" font-family="Helvetica,sans-Serif" font-size="10.00">mutex</text>
</a>
</g>
</g>
<!-- Node35&#45;&gt;Node39 -->
<g id="edge79" class="edge">
<title>Node35&#45;&gt;Node39</title>
<path fill="none" stroke="midnightblue" d="M1630.94,-291.48C1644.89,-281.93 1667.74,-266.31 1684.46,-254.87"/>
<polygon fill="midnightblue" stroke="midnightblue" points="1686.75,-257.54 1693.03,-249.01 1682.8,-251.77 1686.75,-257.54"/>
</g>
<!-- Node40 -->
<g id="node40" class="node">
<title>Node40</title>
<g id="a_node40"><a xlink:title=" ">
<polygon fill="white" stroke="#bfbfbf" points="1747.47,-230 1747.47,-249 1795.47,-249 1795.47,-230 1747.47,-230"/>
<text text-anchor="middle" x="1771.47" y="-237" font-family="Helvetica,sans-Serif" font-size="10.00">thread</text>
</a>
</g>
</g>
<!-- Node35&#45;&gt;Node40 -->
<g id="edge80" class="edge">
<title>Node35&#45;&gt;Node40</title>
<path fill="none" stroke="midnightblue" d="M1642.53,-291.42C1666.87,-282.64 1705.5,-268.42 1738.47,-255 1739.89,-254.43 1741.33,-253.83 1742.78,-253.22"/>
<polygon fill="midnightblue" stroke="midnightblue" points="1744.54,-256.27 1752.35,-249.11 1741.78,-249.84 1744.54,-256.27"/>
</g>
</g>
</svg>
