<?xml version="1.0" encoding="UTF-8" standalone="no"?>
<!DOCTYPE svg PUBLIC "-//W3C//DTD SVG 1.1//EN"
 "http://www.w3.org/Graphics/SVG/1.1/DTD/svg11.dtd">
<!-- Generated by graphviz version 2.43.0 (0)
 -->
<!-- Title: src/labs/inlab4/Compute.h Pages: 1 -->
<!--zoomable 252 -->
<svg id="main" version="1.1" xmlns="http://www.w3.org/2000/svg" xmlns:xlink="http://www.w3.org/1999/xlink" xml:space="preserve" onload="init(evt)">
<style type="text/css"><![CDATA[
.edge:hover path { stroke: red; }
.edge:hover polygon { stroke: red; fill: red; }
]]></style>
<script type="text/javascript"><![CDATA[
var edges = document.getElementsByTagName('g');
if (edges && edges.length) {
  for (var i=0;i<edges.length;i++) {
    if (edges[i].id.substr(0,4)=='edge') {
      edges[i].setAttribute('class','edge');
    }
  }
}
]]></script>
        <defs>
                <circle id="rim" cx="0" cy="0" r="7"/>
                <circle id="rim2" cx="0" cy="0" r="3.5"/>
                <g id="zoomPlus">
                        <use xlink:href="#rim" fill="#404040">
                                <set attributeName="fill" to="#808080" begin="zoomplus.mouseover" end="zoomplus.mouseout"/>
                        </use>
                        <path d="M-4,0h8M0,-4v8" fill="none" stroke="white" stroke-width="1.5" pointer-events="none"/>
                </g>
                <g id="zoomMin">
                        <use xlink:href="#rim" fill="#404040">
                                <set attributeName="fill" to="#808080" begin="zoomminus.mouseover" end="zoomminus.mouseout"/>
                        </use>
                        <path d="M-4,0h8" fill="none" stroke="white" stroke-width="1.5" pointer-events="none"/>
                </g>
                <g id="dirArrow">
                        <path fill="none" stroke="white" stroke-width="1.5" d="M0,-3.0v7 M-2.5,-0.5L0,-3.0L2.5,-0.5"/>
                </g>
               <g id="resetDef">
                       <use xlink:href="#rim2" fill="#404040">
                               <set attributeName="fill" to="#808080" begin="reset.mouseover" end="reset.mouseout"/>
                       </use>
               </g>
        </defs>

<script type="text/javascript">
var viewWidth = 539;
var viewHeight = 252;
var sectionId = 'dynsection-0';
</script>
<script xlink:href="../../svgpan.js"/>
<svg id="graph" class="graph">
<g id="viewport">
<title>src/labs/inlab4/Compute.h</title>
<polygon fill="white" stroke="transparent" points="-4,4 -4,-248 534.81,-248 534.81,4 -4,4"/>
<!-- Node1 -->
<g id="node1" class="node">
<title>Node1</title>
<g id="a_node1"><a xlink:title="Compute methods for inlab4 in NE591&#45;008.">
<polygon fill="#bfbfbf" stroke="black" points="229.81,-224.5 229.81,-243.5 372.81,-243.5 372.81,-224.5 229.81,-224.5"/>
<text text-anchor="middle" x="301.31" y="-231.5" font-family="Helvetica,sans-Serif" font-size="10.00">src/labs/inlab4/Compute.h</text>
</a>
</g>
</g>
<!-- Node2 -->
<g id="node2" class="node">
<title>Node2</title>
<g id="a_node2"><a xlink:title=" ">
<polygon fill="white" stroke="#bfbfbf" points="349.81,-112.5 349.81,-131.5 396.81,-131.5 396.81,-112.5 349.81,-112.5"/>
<text text-anchor="middle" x="373.31" y="-119.5" font-family="Helvetica,sans-Serif" font-size="10.00">cmath</text>
</a>
</g>
</g>
<!-- Node1&#45;&gt;Node2 -->
<g id="edge1" class="edge">
<title>Node1&#45;&gt;Node2</title>
<path fill="none" stroke="midnightblue" d="M318.92,-224.48C332.69,-216.86 351.16,-204.38 361.31,-188 369.91,-174.13 372.66,-155.62 373.4,-141.9"/>
<polygon fill="midnightblue" stroke="midnightblue" points="376.91,-141.78 373.64,-131.7 369.91,-141.62 376.91,-141.78"/>
</g>
<!-- Node3 -->
<g id="node3" class="node">
<title>Node3</title>
<g id="a_node3"><a xlink:title=" ">
<polygon fill="white" stroke="#bfbfbf" points="138.31,-0.5 138.31,-19.5 198.31,-19.5 198.31,-0.5 138.31,-0.5"/>
<text text-anchor="middle" x="168.31" y="-7.5" font-family="Helvetica,sans-Serif" font-size="10.00">iostream</text>
</a>
</g>
</g>
<!-- Node1&#45;&gt;Node3 -->
<g id="edge2" class="edge">
<title>Node1&#45;&gt;Node3</title>
<path fill="none" stroke="midnightblue" d="M257.33,-224.49C189.26,-208.7 60.48,-167.72 5.31,-76 -23.22,-28.57 70.85,-15.72 127.87,-12.26"/>
<polygon fill="midnightblue" stroke="midnightblue" points="128.25,-15.75 138.05,-11.72 127.88,-8.76 128.25,-15.75"/>
</g>
<!-- Node4 -->
<g id="node4" class="node">
<title>Node4</title>
<g id="a_node4"><a xlink:href="../../d1/d80/BLAS_8h.html" target="_top" xlink:title=" ">
<polygon fill="white" stroke="black" points="249.81,-168.5 249.81,-187.5 352.81,-187.5 352.81,-168.5 249.81,-168.5"/>
<text text-anchor="middle" x="301.31" y="-175.5" font-family="Helvetica,sans-Serif" font-size="10.00">math/blas/BLAS.h</text>
</a>
</g>
</g>
<!-- Node1&#45;&gt;Node4 -->
<g id="edge3" class="edge">
<title>Node1&#45;&gt;Node4</title>
<path fill="none" stroke="midnightblue" d="M301.31,-224.08C301.31,-217.01 301.31,-206.86 301.31,-197.99"/>
<polygon fill="midnightblue" stroke="midnightblue" points="304.81,-197.75 301.31,-187.75 297.81,-197.75 304.81,-197.75"/>
</g>
<!-- Node5 -->
<g id="node5" class="node">
<title>Node5</title>
<g id="a_node5"><a xlink:href="../../d3/db1/Matrix_8h.html" target="_top" xlink:title="This file contains my BLAS::Matrix declarations.">
<polygon fill="white" stroke="black" points="149.31,-112.5 149.31,-131.5 293.31,-131.5 293.31,-112.5 149.31,-112.5"/>
<text text-anchor="middle" x="221.31" y="-119.5" font-family="Helvetica,sans-Serif" font-size="10.00">math/blas/matrix/Matrix.h</text>
</a>
</g>
</g>
<!-- Node1&#45;&gt;Node5 -->
<g id="edge18" class="edge">
<title>Node1&#45;&gt;Node5</title>
<path fill="none" stroke="midnightblue" d="M284.14,-224.41C270.36,-216.68 251.54,-204.07 240.31,-188 230.74,-174.3 225.94,-155.76 223.56,-141.99"/>
<polygon fill="midnightblue" stroke="midnightblue" points="226.98,-141.15 222.08,-131.76 220.05,-142.15 226.98,-141.15"/>
</g>
<!-- Node10 -->
<g id="node10" class="node">
<title>Node10</title>
<g id="a_node10"><a xlink:href="../../d6/dbe/Vector_8h.html" target="_top" xlink:title="This file contains my BLAS::Vector implementation.">
<polygon fill="white" stroke="black" points="354.81,-56.5 354.81,-75.5 495.81,-75.5 495.81,-56.5 354.81,-56.5"/>
<text text-anchor="middle" x="425.31" y="-63.5" font-family="Helvetica,sans-Serif" font-size="10.00">math/blas/vector/Vector.h</text>
</a>
</g>
</g>
<!-- Node1&#45;&gt;Node10 -->
<g id="edge19" class="edge">
<title>Node1&#45;&gt;Node10</title>
<path fill="none" stroke="midnightblue" d="M324.25,-224.46C341.53,-217.04 364.81,-204.84 380.31,-188 407.28,-158.69 418.49,-111.77 422.83,-85.81"/>
<polygon fill="midnightblue" stroke="midnightblue" points="426.31,-86.19 424.33,-75.78 419.38,-85.16 426.31,-86.19"/>
</g>
<!-- Node4&#45;&gt;Node2 -->
<g id="edge4" class="edge">
<title>Node4&#45;&gt;Node2</title>
<path fill="none" stroke="midnightblue" d="M312.88,-168.32C323.73,-160.18 340.19,-147.84 353.19,-138.09"/>
<polygon fill="midnightblue" stroke="midnightblue" points="355.63,-140.63 361.53,-131.83 351.43,-135.03 355.63,-140.63"/>
</g>
<!-- Node4&#45;&gt;Node5 -->
<g id="edge5" class="edge">
<title>Node4&#45;&gt;Node5</title>
<path fill="none" stroke="midnightblue" d="M288.46,-168.32C276.1,-159.98 257.18,-147.21 242.57,-137.35"/>
<polygon fill="midnightblue" stroke="midnightblue" points="244.38,-134.35 234.13,-131.65 240.46,-140.15 244.38,-134.35"/>
</g>
<!-- Node4&#45;&gt;Node10 -->
<g id="edge17" class="edge">
<title>Node4&#45;&gt;Node10</title>
<path fill="none" stroke="midnightblue" d="M304.66,-168.42C310.28,-154.95 322.74,-128.66 340.31,-112 355,-98.08 374.84,-87.25 391.65,-79.71"/>
<polygon fill="midnightblue" stroke="midnightblue" points="393.32,-82.8 401.14,-75.65 390.57,-76.36 393.32,-82.8"/>
</g>
<!-- Node5&#45;&gt;Node3 -->
<g id="edge8" class="edge">
<title>Node5&#45;&gt;Node3</title>
<path fill="none" stroke="midnightblue" d="M217.15,-112.37C208.48,-94.38 188.33,-52.55 176.8,-28.63"/>
<polygon fill="midnightblue" stroke="midnightblue" points="179.94,-27.08 172.45,-19.59 173.64,-30.12 179.94,-27.08"/>
</g>
<!-- Node6 -->
<g id="node6" class="node">
<title>Node6</title>
<g id="a_node6"><a xlink:title=" ">
<polygon fill="white" stroke="#bfbfbf" points="272.31,-56.5 272.31,-75.5 336.31,-75.5 336.31,-56.5 272.31,-56.5"/>
<text text-anchor="middle" x="304.31" y="-63.5" font-family="Helvetica,sans-Serif" font-size="10.00">algorithm</text>
</a>
</g>
</g>
<!-- Node5&#45;&gt;Node6 -->
<g id="edge6" class="edge">
<title>Node5&#45;&gt;Node6</title>
<path fill="none" stroke="midnightblue" d="M234.65,-112.32C247.47,-103.98 267.1,-91.21 282.25,-81.35"/>
<polygon fill="midnightblue" stroke="midnightblue" points="284.54,-84.04 291.01,-75.65 280.72,-78.17 284.54,-84.04"/>
</g>
<!-- Node7 -->
<g id="node7" class="node">
<title>Node7</title>
<g id="a_node7"><a xlink:title=" ">
<polygon fill="white" stroke="#bfbfbf" points="315.31,-0.5 315.31,-19.5 367.31,-19.5 367.31,-0.5 315.31,-0.5"/>
<text text-anchor="middle" x="341.31" y="-7.5" font-family="Helvetica,sans-Serif" font-size="10.00">cassert</text>
</a>
</g>
</g>
<!-- Node5&#45;&gt;Node7 -->
<g id="edge7" class="edge">
<title>Node5&#45;&gt;Node7</title>
<path fill="none" stroke="midnightblue" d="M225.37,-112.07C231.84,-98.59 245.59,-72.85 263.31,-56 277.29,-42.71 295.92,-31.77 311.46,-24.01"/>
<polygon fill="midnightblue" stroke="midnightblue" points="313.17,-27.08 320.67,-19.6 310.14,-20.77 313.17,-27.08"/>
</g>
<!-- Node8 -->
<g id="node8" class="node">
<title>Node8</title>
<g id="a_node8"><a xlink:title=" ">
<polygon fill="white" stroke="#bfbfbf" points="238.81,-0.5 238.81,-19.5 285.81,-19.5 285.81,-0.5 238.81,-0.5"/>
<text text-anchor="middle" x="262.31" y="-7.5" font-family="Helvetica,sans-Serif" font-size="10.00">vector</text>
</a>
</g>
</g>
<!-- Node5&#45;&gt;Node8 -->
<g id="edge9" class="edge">
<title>Node5&#45;&gt;Node8</title>
<path fill="none" stroke="midnightblue" d="M221.22,-112.25C221.37,-99.45 222.75,-75.06 230.31,-56 234.42,-45.66 241.37,-35.45 247.75,-27.37"/>
<polygon fill="midnightblue" stroke="midnightblue" points="250.57,-29.47 254.29,-19.55 245.19,-24.98 250.57,-29.47"/>
</g>
<!-- Node9 -->
<g id="node9" class="node">
<title>Node9</title>
<g id="a_node9"><a xlink:href="../../d1/d45/Constants_8h.html" target="_top" xlink:title="MyBLAS Constants definition.">
<polygon fill="white" stroke="black" points="14.31,-56.5 14.31,-75.5 140.31,-75.5 140.31,-56.5 14.31,-56.5"/>
<text text-anchor="middle" x="77.31" y="-63.5" font-family="Helvetica,sans-Serif" font-size="10.00">math/blas/Constants.h</text>
</a>
</g>
</g>
<!-- Node5&#45;&gt;Node9 -->
<g id="edge10" class="edge">
<title>Node5&#45;&gt;Node9</title>
<path fill="none" stroke="midnightblue" d="M198.49,-112.44C174.48,-103.44 136.48,-89.19 109.44,-79.05"/>
<polygon fill="midnightblue" stroke="midnightblue" points="110.61,-75.75 100.02,-75.52 108.16,-82.3 110.61,-75.75"/>
</g>
<!-- Node5&#45;&gt;Node10 -->
<g id="edge11" class="edge">
<title>Node5&#45;&gt;Node10</title>
<path fill="none" stroke="midnightblue" d="M253.64,-112.44C288.7,-103.16 344.81,-88.31 383.28,-78.13"/>
<polygon fill="midnightblue" stroke="midnightblue" points="384.37,-81.46 393.14,-75.52 382.58,-74.69 384.37,-81.46"/>
</g>
<!-- Node10&#45;&gt;Node3 -->
<g id="edge14" class="edge">
<title>Node10&#45;&gt;Node3</title>
<path fill="none" stroke="midnightblue" d="M384.59,-56.44C336.33,-46.3 256.42,-29.51 208.43,-19.43"/>
<polygon fill="midnightblue" stroke="midnightblue" points="208.91,-15.95 198.4,-17.32 207.47,-22.8 208.91,-15.95"/>
</g>
<!-- Node10&#45;&gt;Node7 -->
<g id="edge16" class="edge">
<title>Node10&#45;&gt;Node7</title>
<path fill="none" stroke="midnightblue" d="M411.82,-56.32C398.71,-47.9 378.6,-34.97 363.2,-25.07"/>
<polygon fill="midnightblue" stroke="midnightblue" points="365.08,-22.12 354.77,-19.65 361.29,-28.01 365.08,-22.12"/>
</g>
<!-- Node10&#45;&gt;Node8 -->
<g id="edge15" class="edge">
<title>Node10&#45;&gt;Node8</title>
<path fill="none" stroke="midnightblue" d="M399.48,-56.44C371.42,-47.15 326.48,-32.26 295.74,-22.07"/>
<polygon fill="midnightblue" stroke="midnightblue" points="296.49,-18.64 285.9,-18.82 294.29,-25.28 296.49,-18.64"/>
</g>
<!-- Node11 -->
<g id="node11" class="node">
<title>Node11</title>
<g id="a_node11"><a xlink:title=" ">
<polygon fill="white" stroke="#bfbfbf" points="465.81,-0.5 465.81,-19.5 530.81,-19.5 530.81,-0.5 465.81,-0.5"/>
<text text-anchor="middle" x="498.31" y="-7.5" font-family="Helvetica,sans-Serif" font-size="10.00">functional</text>
</a>
</g>
</g>
<!-- Node10&#45;&gt;Node11 -->
<g id="edge12" class="edge">
<title>Node10&#45;&gt;Node11</title>
<path fill="none" stroke="midnightblue" d="M437.04,-56.32C448.15,-48.11 465.05,-35.6 478.29,-25.81"/>
<polygon fill="midnightblue" stroke="midnightblue" points="480.41,-28.59 486.37,-19.83 476.25,-22.97 480.41,-28.59"/>
</g>
<!-- Node12 -->
<g id="node12" class="node">
<title>Node12</title>
<g id="a_node12"><a xlink:title=" ">
<polygon fill="white" stroke="#bfbfbf" points="391.31,-0.5 391.31,-19.5 447.31,-19.5 447.31,-0.5 391.31,-0.5"/>
<text text-anchor="middle" x="419.31" y="-7.5" font-family="Helvetica,sans-Serif" font-size="10.00">iomanip</text>
</a>
</g>
</g>
<!-- Node10&#45;&gt;Node12 -->
<g id="edge13" class="edge">
<title>Node10&#45;&gt;Node12</title>
<path fill="none" stroke="midnightblue" d="M424.32,-56.08C423.53,-48.93 422.38,-38.64 421.39,-29.69"/>
<polygon fill="midnightblue" stroke="midnightblue" points="424.87,-29.3 420.28,-19.75 417.91,-30.08 424.87,-29.3"/>
</g>
</g>
</svg>
        <g id="navigator" transform="translate(0 0)" fill="#404254">
                <rect fill="#f2f5e9" fill-opacity="0.5" stroke="#606060" stroke-width=".5" x="0" y="0" width="60" height="60"/>
                <use id="zoomplus" xlink:href="#zoomPlus" x="17" y="9" onmousedown="handleZoom(evt,'in')"/>
                <use id="zoomminus" xlink:href="#zoomMin" x="42" y="9" onmousedown="handleZoom(evt,'out')"/>
                <use id="reset" xlink:href="#resetDef" x="30" y="36" onmousedown="handleReset()"/>
                <g id="arrowUp" xlink:href="#dirArrow" transform="translate(30 24)" onmousedown="handlePan(0,-1)">
                  <use xlink:href="#rim" fill="#404040">
                        <set attributeName="fill" to="#808080" begin="arrowUp.mouseover" end="arrowUp.mouseout"/>
                  </use>
                  <path fill="none" stroke="white" stroke-width="1.5" d="M0,-3.0v7 M-2.5,-0.5L0,-3.0L2.5,-0.5"/>
                </g>
                <g id="arrowRight" xlink:href="#dirArrow" transform="rotate(90) translate(36 -43)" onmousedown="handlePan(1,0)">
                  <use xlink:href="#rim" fill="#404040">
                        <set attributeName="fill" to="#808080" begin="arrowRight.mouseover" end="arrowRight.mouseout"/>
                  </use>
                  <path fill="none" stroke="white" stroke-width="1.5" d="M0,-3.0v7 M-2.5,-0.5L0,-3.0L2.5,-0.5"/>
                </g>
                <g id="arrowDown" xlink:href="#dirArrow" transform="rotate(180) translate(-30 -48)" onmousedown="handlePan(0,1)">
                  <use xlink:href="#rim" fill="#404040">
                        <set attributeName="fill" to="#808080" begin="arrowDown.mouseover" end="arrowDown.mouseout"/>
                  </use>
                  <path fill="none" stroke="white" stroke-width="1.5" d="M0,-3.0v7 M-2.5,-0.5L0,-3.0L2.5,-0.5"/>
                </g>
                <g id="arrowLeft" xlink:href="#dirArrow" transform="rotate(270) translate(-36 17)" onmousedown="handlePan(-1,0)">
                  <use xlink:href="#rim" fill="#404040">
                        <set attributeName="fill" to="#808080" begin="arrowLeft.mouseover" end="arrowLeft.mouseout"/>
                  </use>
                  <path fill="none" stroke="white" stroke-width="1.5" d="M0,-3.0v7 M-2.5,-0.5L0,-3.0L2.5,-0.5"/>
                </g>
        </g>
        <svg viewBox="0 0 15 15" width="100%" height="30px" preserveAspectRatio="xMaxYMin meet">
         <g id="arrow_out" transform="scale(0.3 0.3)">
          <a xlink:href="labs_2inlab4_2Compute_8h__incl_org.svg" target="_base">
           <rect id="button" ry="5" rx="5" y="6" x="6" height="38" width="38"
                fill="#f2f5e9" fill-opacity="0.5" stroke="#606060" stroke-width="1.0"/>
           <path id="arrow"
             d="M 11.500037,31.436501 C 11.940474,20.09759 22.043105,11.32322 32.158766,21.979434 L 37.068811,17.246167 C 37.068811,17.246167 37.088388,32 37.088388,32 L 22.160133,31.978069 C 22.160133,31.978069 26.997745,27.140456 26.997745,27.140456 C 18.528582,18.264221 13.291696,25.230495 11.500037,31.436501 z"
             style="fill:#404040;"/>
          </a>
         </g>
        </svg>
</svg>
