<?xml version="1.0" encoding="UTF-8" standalone="no"?>
<!DOCTYPE svg PUBLIC "-//W3C//DTD SVG 1.1//EN"
 "http://www.w3.org/Graphics/SVG/1.1/DTD/svg11.dtd">
<!-- Generated by graphviz version 2.43.0 (0)
 -->
<!-- Title: naive_solve_linear_system Pages: 1 -->
<!--zoomable 241 -->
<svg id="main" version="1.1" xmlns="http://www.w3.org/2000/svg" xmlns:xlink="http://www.w3.org/1999/xlink" xml:space="preserve" onload="init(evt)">
<style type="text/css"><![CDATA[
.edge:hover path { stroke: red; }
.edge:hover polygon { stroke: red; fill: red; }
]]></style>
<script type="text/javascript"><![CDATA[
var edges = document.getElementsByTagName('g');
if (edges && edges.length) {
  for (var i=0;i<edges.length;i++) {
    if (edges[i].id.substr(0,4)=='edge') {
      edges[i].setAttribute('class','edge');
    }
  }
}
]]></script>
        <defs>
                <circle id="rim" cx="0" cy="0" r="7"/>
                <circle id="rim2" cx="0" cy="0" r="3.5"/>
                <g id="zoomPlus">
                        <use xlink:href="#rim" fill="#404040">
                                <set attributeName="fill" to="#808080" begin="zoomplus.mouseover" end="zoomplus.mouseout"/>
                        </use>
                        <path d="M-4,0h8M0,-4v8" fill="none" stroke="white" stroke-width="1.5" pointer-events="none"/>
                </g>
                <g id="zoomMin">
                        <use xlink:href="#rim" fill="#404040">
                                <set attributeName="fill" to="#808080" begin="zoomminus.mouseover" end="zoomminus.mouseout"/>
                        </use>
                        <path d="M-4,0h8" fill="none" stroke="white" stroke-width="1.5" pointer-events="none"/>
                </g>
                <g id="dirArrow">
                        <path fill="none" stroke="white" stroke-width="1.5" d="M0,-3.0v7 M-2.5,-0.5L0,-3.0L2.5,-0.5"/>
                </g>
               <g id="resetDef">
                       <use xlink:href="#rim2" fill="#404040">
                               <set attributeName="fill" to="#808080" begin="reset.mouseover" end="reset.mouseout"/>
                       </use>
               </g>
        </defs>

<script type="text/javascript">
var viewWidth = 852;
var viewHeight = 241;
var sectionId = 'dynsection-5';
</script>
<script xlink:href="../../svgpan.js"/>
<svg id="graph" class="graph">
<g id="viewport">
<title>naive_solve_linear_system</title>
<polygon fill="white" stroke="transparent" points="-4,4 -4,-236.5 848,-236.5 848,4 -4,4"/>
<!-- Node1 -->
<g id="node1" class="node">
<title>Node1</title>
<g id="a_node1"><a xlink:title="Solves the linear system.">
<polygon fill="#bfbfbf" stroke="black" points="0,-112.5 0,-142.5 108,-142.5 108,-112.5 0,-112.5"/>
<text text-anchor="start" x="8" y="-130.5" font-family="Helvetica,sans-Serif" font-size="10.00">naive_solve_linear</text>
<text text-anchor="middle" x="54" y="-119.5" font-family="Helvetica,sans-Serif" font-size="10.00">_system</text>
</a>
</g>
</g>
<!-- Node2 -->
<g id="node2" class="node">
<title>Node2</title>
<g id="a_node2"><a xlink:href="../../d5/db6/namespaceMyBLAS_1_1LUP.html#adb672b0ddbe668b9469123427767624d" target="_top" xlink:title="This function performs LU factorization on a given matrix A and stores the results in matrices L and ...">
<polygon fill="white" stroke="black" points="163,-213 163,-232 294,-232 294,-213 163,-213"/>
<text text-anchor="middle" x="228.5" y="-220" font-family="Helvetica,sans-Serif" font-size="10.00">MyBLAS::LUP::factorize</text>
</a>
</g>
</g>
<!-- Node1&#45;&gt;Node2 -->
<g id="edge1" class="edge">
<title>Node1&#45;&gt;Node2</title>
<path fill="none" stroke="midnightblue" d="M68.22,-142.53C84.35,-159.91 113.31,-188.09 144,-203.5 148.82,-205.92 153.94,-208.03 159.2,-209.88"/>
<polygon fill="midnightblue" stroke="midnightblue" points="158.16,-213.22 168.75,-212.93 160.28,-206.55 158.16,-213.22"/>
</g>
<!-- Node7 -->
<g id="node7" class="node">
<title>Node7</title>
<g id="a_node7"><a xlink:href="../../d0/d27/classMyBLAS_1_1Matrix.html#ab3241d24818f1c540afe3a8d1007780d" target="_top" xlink:title="Getter for the number of columns in the matrix.">
<polygon fill="white" stroke="black" points="160,-175 160,-194 297,-194 297,-175 160,-175"/>
<text text-anchor="middle" x="228.5" y="-182" font-family="Helvetica,sans-Serif" font-size="10.00">MyBLAS::Matrix::getCols</text>
</a>
</g>
</g>
<!-- Node1&#45;&gt;Node7 -->
<g id="edge7" class="edge">
<title>Node1&#45;&gt;Node7</title>
<path fill="none" stroke="midnightblue" d="M86.6,-142.64C103.38,-150.25 124.5,-159.18 144,-165.5 151.93,-168.07 160.39,-170.43 168.77,-172.54"/>
<polygon fill="midnightblue" stroke="midnightblue" points="167.99,-175.95 178.53,-174.91 169.64,-169.15 167.99,-175.95"/>
</g>
<!-- Node8 -->
<g id="node8" class="node">
<title>Node8</title>
<g id="a_node8"><a xlink:href="../../d0/d27/classMyBLAS_1_1Matrix.html#a4c948c86a16af3375ab7384394be02e2" target="_top" xlink:title="Getter for the number of rows in the matrix.">
<polygon fill="white" stroke="black" points="157,-137 157,-156 300,-156 300,-137 157,-137"/>
<text text-anchor="middle" x="228.5" y="-144" font-family="Helvetica,sans-Serif" font-size="10.00">MyBLAS::Matrix::getRows</text>
</a>
</g>
</g>
<!-- Node1&#45;&gt;Node8 -->
<g id="edge8" class="edge">
<title>Node1&#45;&gt;Node8</title>
<path fill="none" stroke="midnightblue" d="M108.16,-133.36C120.39,-134.7 133.66,-136.16 146.77,-137.61"/>
<polygon fill="midnightblue" stroke="midnightblue" points="146.41,-141.09 156.73,-138.71 147.18,-134.13 146.41,-141.09"/>
</g>
<!-- Node9 -->
<g id="node9" class="node">
<title>Node9</title>
<g id="a_node9"><a xlink:href="../../d2/d6e/namespaceMyBLAS.html#a670e376572710e06706a94b3e8c75d02" target="_top" xlink:title="Checks if the given matrix is a valid permutation matrix.">
<polygon fill="white" stroke="black" points="147,-99 147,-118 310,-118 310,-99 147,-99"/>
<text text-anchor="middle" x="228.5" y="-106" font-family="Helvetica,sans-Serif" font-size="10.00">MyBLAS::isPermutationMatrix</text>
</a>
</g>
</g>
<!-- Node1&#45;&gt;Node9 -->
<g id="edge9" class="edge">
<title>Node1&#45;&gt;Node9</title>
<path fill="none" stroke="midnightblue" d="M108.16,-121.64C117.27,-120.64 126.96,-119.57 136.73,-118.5"/>
<polygon fill="midnightblue" stroke="midnightblue" points="137.36,-121.95 146.92,-117.38 136.6,-114.99 137.36,-121.95"/>
</g>
<!-- Node12 -->
<g id="node12" class="node">
<title>Node12</title>
<g id="a_node12"><a xlink:href="../../d2/d6e/namespaceMyBLAS.html#ae371a7b6812d897b1395ef461745cea1" target="_top" xlink:title="Checks if the given matrix is a valid unit lower triangular matrix.">
<polygon fill="white" stroke="black" points="144,-0.5 144,-30.5 313,-30.5 313,-0.5 144,-0.5"/>
<text text-anchor="start" x="152" y="-18.5" font-family="Helvetica,sans-Serif" font-size="10.00">MyBLAS::isUnitLowerTriangular</text>
<text text-anchor="middle" x="228.5" y="-7.5" font-family="Helvetica,sans-Serif" font-size="10.00">Matrix</text>
</a>
</g>
</g>
<!-- Node1&#45;&gt;Node12 -->
<g id="edge12" class="edge">
<title>Node1&#45;&gt;Node12</title>
<path fill="none" stroke="midnightblue" d="M66.24,-112.42C81.65,-92.78 111.19,-58.72 144,-39.5 147.02,-37.73 150.18,-36.09 153.43,-34.56"/>
<polygon fill="midnightblue" stroke="midnightblue" points="154.96,-37.71 162.77,-30.55 152.2,-31.27 154.96,-37.71"/>
</g>
<!-- Node13 -->
<g id="node13" class="node">
<title>Node13</title>
<g id="a_node13"><a xlink:href="../../d2/d6e/namespaceMyBLAS.html#ada02d6a37edcab7294168e9b005871a1" target="_top" xlink:title="Checks if the given matrix is a valid upper triangular matrix.">
<polygon fill="white" stroke="black" points="154,-49.5 154,-79.5 303,-79.5 303,-49.5 154,-49.5"/>
<text text-anchor="start" x="162" y="-67.5" font-family="Helvetica,sans-Serif" font-size="10.00">MyBLAS::isUpperTriangular</text>
<text text-anchor="middle" x="228.5" y="-56.5" font-family="Helvetica,sans-Serif" font-size="10.00">Matrix</text>
</a>
</g>
</g>
<!-- Node1&#45;&gt;Node13 -->
<g id="edge15" class="edge">
<title>Node1&#45;&gt;Node13</title>
<path fill="none" stroke="midnightblue" d="M88.03,-112.34C104.65,-104.99 125.2,-96.3 144,-89.5 150.41,-87.18 157.14,-84.91 163.89,-82.73"/>
<polygon fill="midnightblue" stroke="midnightblue" points="165.27,-85.96 173.75,-79.62 163.16,-79.29 165.27,-85.96"/>
</g>
<!-- Node3 -->
<g id="node3" class="node">
<title>Node3</title>
<g id="a_node3"><a xlink:href="../../d5/db6/namespaceMyBLAS_1_1LUP.html#a8944cf7f291594494e1140ff6b0b0fc6" target="_top" xlink:title="Performs Doolittle&#39;s LU factorization with partial pivoting on a given matrix.">
<polygon fill="white" stroke="black" points="349,-213 349,-232 542,-232 542,-213 349,-213"/>
<text text-anchor="middle" x="445.5" y="-220" font-family="Helvetica,sans-Serif" font-size="10.00">MyBLAS::LUP::dooLittleFactorizeLUP</text>
</a>
</g>
</g>
<!-- Node2&#45;&gt;Node3 -->
<g id="edge2" class="edge">
<title>Node2&#45;&gt;Node3</title>
<path fill="none" stroke="midnightblue" d="M294.01,-222.5C307.98,-222.5 323.11,-222.5 338.2,-222.5"/>
<polygon fill="midnightblue" stroke="midnightblue" points="338.64,-226 348.63,-222.5 338.63,-219 338.64,-226"/>
</g>
<!-- Node6 -->
<g id="node6" class="node">
<title>Node6</title>
<g id="a_node6"><a xlink:href="../../dd/dd7/plot__points_8m.html#a07ca9f04874775e798496347c3e80b84" target="_top" xlink:title=" ">
<polygon fill="white" stroke="black" points="619,-175 619,-194 648,-194 648,-175 619,-175"/>
<text text-anchor="middle" x="633.5" y="-182" font-family="Helvetica,sans-Serif" font-size="10.00">L</text>
</a>
</g>
</g>
<!-- Node2&#45;&gt;Node6 -->
<g id="edge6" class="edge">
<title>Node2&#45;&gt;Node6</title>
<path fill="none" stroke="midnightblue" d="M282.6,-213C303.27,-209.58 327.19,-205.96 349,-203.5 444.95,-192.68 559.93,-187.3 608.73,-185.36"/>
<polygon fill="midnightblue" stroke="midnightblue" points="609.03,-188.85 618.89,-184.97 608.76,-181.86 609.03,-188.85"/>
</g>
<!-- Node4 -->
<g id="node4" class="node">
<title>Node4</title>
<g id="a_node4"><a xlink:href="../../dd/df5/namespaceMyBLAS_1_1Stats.html#afeaf3b7bba0ff1b952b35d0effc0bca9" target="_top" xlink:title="Function to find the absolute value of each element in a vector.">
<polygon fill="white" stroke="black" points="578,-213 578,-232 689,-232 689,-213 578,-213"/>
<text text-anchor="middle" x="633.5" y="-220" font-family="Helvetica,sans-Serif" font-size="10.00">MyBLAS::Stats::abs</text>
</a>
</g>
</g>
<!-- Node3&#45;&gt;Node4 -->
<g id="edge3" class="edge">
<title>Node3&#45;&gt;Node4</title>
<path fill="none" stroke="midnightblue" d="M542.22,-222.5C550.74,-222.5 559.22,-222.5 567.38,-222.5"/>
<polygon fill="midnightblue" stroke="midnightblue" points="567.54,-226 577.54,-222.5 567.54,-219 567.54,-226"/>
</g>
<!-- Node3&#45;&gt;Node6 -->
<g id="edge5" class="edge">
<title>Node3&#45;&gt;Node6</title>
<path fill="none" stroke="midnightblue" d="M493.44,-212.91C530.27,-205.39 580,-195.22 608.93,-189.32"/>
<polygon fill="midnightblue" stroke="midnightblue" points="609.83,-192.7 618.93,-187.27 608.43,-185.85 609.83,-192.7"/>
</g>
<!-- Node5 -->
<g id="node5" class="node">
<title>Node5</title>
<g id="a_node5"><a xlink:href="../../d4/d4d/classMyBLAS_1_1Vector.html#aae30f8178e4a34d332317c61e77c147a" target="_top" xlink:title="Getter for the size of the vector.">
<polygon fill="white" stroke="black" points="725,-213 725,-232 844,-232 844,-213 725,-213"/>
<text text-anchor="middle" x="784.5" y="-220" font-family="Helvetica,sans-Serif" font-size="10.00">MyBLAS::Vector::size</text>
</a>
</g>
</g>
<!-- Node4&#45;&gt;Node5 -->
<g id="edge4" class="edge">
<title>Node4&#45;&gt;Node5</title>
<path fill="none" stroke="midnightblue" d="M689.14,-222.5C697.49,-222.5 706.21,-222.5 714.82,-222.5"/>
<polygon fill="midnightblue" stroke="midnightblue" points="714.86,-226 724.86,-222.5 714.86,-219 714.86,-226"/>
</g>
<!-- Node10 -->
<g id="node10" class="node">
<title>Node10</title>
<g id="a_node10"><a xlink:href="../../d2/d6e/namespaceMyBLAS.html#afbdd307de10f4c17b700b5dde0fadc77" target="_top" xlink:title="Checks if the given matrix is a binary matrix.">
<polygon fill="white" stroke="black" points="378.5,-99 378.5,-118 512.5,-118 512.5,-99 378.5,-99"/>
<text text-anchor="middle" x="445.5" y="-106" font-family="Helvetica,sans-Serif" font-size="10.00">MyBLAS::isBinaryMatrix</text>
</a>
</g>
</g>
<!-- Node9&#45;&gt;Node10 -->
<g id="edge10" class="edge">
<title>Node9&#45;&gt;Node10</title>
<path fill="none" stroke="midnightblue" d="M310.17,-108.5C329.26,-108.5 349.55,-108.5 368.43,-108.5"/>
<polygon fill="midnightblue" stroke="midnightblue" points="368.46,-112 378.46,-108.5 368.46,-105 368.46,-112"/>
</g>
<!-- Node11 -->
<g id="node11" class="node">
<title>Node11</title>
<g id="a_node11"><a xlink:href="../../d2/d6e/namespaceMyBLAS.html#a0b887e323f8337bd87ef20dff8af5c1f" target="_top" xlink:title="Checks if the given matrix is a square matrix.">
<polygon fill="white" stroke="black" points="377,-55 377,-74 514,-74 514,-55 377,-55"/>
<text text-anchor="middle" x="445.5" y="-62" font-family="Helvetica,sans-Serif" font-size="10.00">MyBLAS::isSquareMatrix</text>
</a>
</g>
</g>
<!-- Node9&#45;&gt;Node11 -->
<g id="edge11" class="edge">
<title>Node9&#45;&gt;Node11</title>
<path fill="none" stroke="midnightblue" d="M276.15,-98.95C308.97,-92.24 353.08,-83.21 387.91,-76.08"/>
<polygon fill="midnightblue" stroke="midnightblue" points="388.84,-79.46 397.94,-74.03 387.44,-72.6 388.84,-79.46"/>
</g>
<!-- Node12&#45;&gt;Node6 -->
<g id="edge14" class="edge">
<title>Node12&#45;&gt;Node6</title>
<path fill="none" stroke="midnightblue" d="M313.27,-4.65C379.97,-0.23 473.24,-3.85 542,-45.5 587.83,-73.26 614.84,-134.1 626.19,-165.26"/>
<polygon fill="midnightblue" stroke="midnightblue" points="622.96,-166.65 629.55,-174.95 629.58,-164.35 622.96,-166.65"/>
</g>
<!-- Node12&#45;&gt;Node11 -->
<g id="edge13" class="edge">
<title>Node12&#45;&gt;Node11</title>
<path fill="none" stroke="midnightblue" d="M295.47,-30.53C326.72,-37.66 363.5,-46.04 392.7,-52.69"/>
<polygon fill="midnightblue" stroke="midnightblue" points="392.17,-56.16 402.69,-54.97 393.72,-49.34 392.17,-56.16"/>
</g>
<!-- Node13&#45;&gt;Node11 -->
<g id="edge16" class="edge">
<title>Node13&#45;&gt;Node11</title>
<path fill="none" stroke="midnightblue" d="M303.19,-64.5C323.67,-64.5 345.96,-64.5 366.67,-64.5"/>
<polygon fill="midnightblue" stroke="midnightblue" points="366.69,-68 376.69,-64.5 366.69,-61 366.69,-68"/>
</g>
</g>
</svg>
        <g id="navigator" transform="translate(0 0)" fill="#404254">
                <rect fill="#f2f5e9" fill-opacity="0.5" stroke="#606060" stroke-width=".5" x="0" y="0" width="60" height="60"/>
                <use id="zoomplus" xlink:href="#zoomPlus" x="17" y="9" onmousedown="handleZoom(evt,'in')"/>
                <use id="zoomminus" xlink:href="#zoomMin" x="42" y="9" onmousedown="handleZoom(evt,'out')"/>
                <use id="reset" xlink:href="#resetDef" x="30" y="36" onmousedown="handleReset()"/>
                <g id="arrowUp" xlink:href="#dirArrow" transform="translate(30 24)" onmousedown="handlePan(0,-1)">
                  <use xlink:href="#rim" fill="#404040">
                        <set attributeName="fill" to="#808080" begin="arrowUp.mouseover" end="arrowUp.mouseout"/>
                  </use>
                  <path fill="none" stroke="white" stroke-width="1.5" d="M0,-3.0v7 M-2.5,-0.5L0,-3.0L2.5,-0.5"/>
                </g>
                <g id="arrowRight" xlink:href="#dirArrow" transform="rotate(90) translate(36 -43)" onmousedown="handlePan(1,0)">
                  <use xlink:href="#rim" fill="#404040">
                        <set attributeName="fill" to="#808080" begin="arrowRight.mouseover" end="arrowRight.mouseout"/>
                  </use>
                  <path fill="none" stroke="white" stroke-width="1.5" d="M0,-3.0v7 M-2.5,-0.5L0,-3.0L2.5,-0.5"/>
                </g>
                <g id="arrowDown" xlink:href="#dirArrow" transform="rotate(180) translate(-30 -48)" onmousedown="handlePan(0,1)">
                  <use xlink:href="#rim" fill="#404040">
                        <set attributeName="fill" to="#808080" begin="arrowDown.mouseover" end="arrowDown.mouseout"/>
                  </use>
                  <path fill="none" stroke="white" stroke-width="1.5" d="M0,-3.0v7 M-2.5,-0.5L0,-3.0L2.5,-0.5"/>
                </g>
                <g id="arrowLeft" xlink:href="#dirArrow" transform="rotate(270) translate(-36 17)" onmousedown="handlePan(-1,0)">
                  <use xlink:href="#rim" fill="#404040">
                        <set attributeName="fill" to="#808080" begin="arrowLeft.mouseover" end="arrowLeft.mouseout"/>
                  </use>
                  <path fill="none" stroke="white" stroke-width="1.5" d="M0,-3.0v7 M-2.5,-0.5L0,-3.0L2.5,-0.5"/>
                </g>
        </g>
        <svg viewBox="0 0 15 15" width="100%" height="30px" preserveAspectRatio="xMaxYMin meet">
         <g id="arrow_out" transform="scale(0.3 0.3)">
          <a xlink:href="project_2project1_2Compute_8h_acddcb7395a0d22a81020f268fd96918a_cgraph_org.svg" target="_base">
           <rect id="button" ry="5" rx="5" y="6" x="6" height="38" width="38"
                fill="#f2f5e9" fill-opacity="0.5" stroke="#606060" stroke-width="1.0"/>
           <path id="arrow"
             d="M 11.500037,31.436501 C 11.940474,20.09759 22.043105,11.32322 32.158766,21.979434 L 37.068811,17.246167 C 37.068811,17.246167 37.088388,32 37.088388,32 L 22.160133,31.978069 C 22.160133,31.978069 26.997745,27.140456 26.997745,27.140456 C 18.528582,18.264221 13.291696,25.230495 11.500037,31.436501 z"
             style="fill:#404040;"/>
          </a>
         </g>
        </svg>
</svg>
