<?xml version="1.0" encoding="UTF-8" standalone="no"?>
<!DOCTYPE svg PUBLIC "-//W3C//DTD SVG 1.1//EN"
 "http://www.w3.org/Graphics/SVG/1.1/DTD/svg11.dtd">
<!-- Generated by graphviz version 2.43.0 (0)
 -->
<!-- Title: Profiler::preRunMemoryCheck Pages: 1 -->
<svg width="770pt" height="66pt"
 viewBox="0.00 0.00 770.00 66.00" xmlns="http://www.w3.org/2000/svg" xmlns:xlink="http://www.w3.org/1999/xlink">
<g id="graph0" class="graph" transform="scale(1 1) rotate(0) translate(4 62)">
<title>Profiler::preRunMemoryCheck</title>
<polygon fill="white" stroke="transparent" points="-4,4 -4,-62 766,-62 766,4 -4,4"/>
<!-- Node1 -->
<g id="node1" class="node">
<title>Node1</title>
<g id="a_node1"><a xlink:title=" ">
<polygon fill="#bfbfbf" stroke="black" points="0,-19.5 0,-38.5 162,-38.5 162,-19.5 0,-19.5"/>
<text text-anchor="middle" x="81" y="-26.5" font-family="Helvetica,sans-Serif" font-size="10.00">Profiler::preRunMemoryCheck</text>
</a>
</g>
</g>
<!-- Node2 -->
<g id="node2" class="node">
<title>Node2</title>
<g id="a_node2"><a xlink:href="../../d1/d7c/classResourceMonitor.html#ae0be727b6122b1dfebf4c2271eb23e6b" target="_top" xlink:title=" ">
<polygon fill="white" stroke="black" points="229,-38.5 229,-57.5 358,-57.5 358,-38.5 229,-38.5"/>
<text text-anchor="middle" x="293.5" y="-45.5" font-family="Helvetica,sans-Serif" font-size="10.00">ResourceMonitor::clear</text>
</a>
</g>
</g>
<!-- Node1&#45;&gt;Node2 -->
<g id="edge1" class="edge">
<title>Node1&#45;&gt;Node2</title>
<path fill="none" stroke="midnightblue" d="M162.18,-36.24C180.81,-37.92 200.55,-39.7 218.87,-41.35"/>
<polygon fill="midnightblue" stroke="midnightblue" points="218.62,-44.85 228.89,-42.26 219.25,-37.87 218.62,-44.85"/>
</g>
<!-- Node4 -->
<g id="node4" class="node">
<title>Node4</title>
<g id="a_node4"><a xlink:href="../../d1/d7c/classResourceMonitor.html#af6e5f906cf2e70e4fc8b7fdedc85a32f" target="_top" xlink:title=" ">
<polygon fill="white" stroke="black" points="198,-0.5 198,-19.5 389,-19.5 389,-0.5 198,-0.5"/>
<text text-anchor="middle" x="293.5" y="-7.5" font-family="Helvetica,sans-Serif" font-size="10.00">ResourceMonitor::getMaxBytesEver</text>
</a>
</g>
</g>
<!-- Node1&#45;&gt;Node4 -->
<g id="edge3" class="edge">
<title>Node1&#45;&gt;Node4</title>
<path fill="none" stroke="midnightblue" d="M162.18,-21.76C170.53,-21.01 179.11,-20.24 187.68,-19.46"/>
<polygon fill="midnightblue" stroke="midnightblue" points="188.08,-22.94 197.72,-18.55 187.45,-15.97 188.08,-22.94"/>
</g>
<!-- Node3 -->
<g id="node3" class="node">
<title>Node3</title>
<g id="a_node3"><a xlink:href="../../d1/d7c/classResourceMonitor.html#a4e572f2c35afb976d175dc9d44444d53" target="_top" xlink:title=" ">
<polygon fill="white" stroke="black" points="425,-38.5 425,-57.5 587,-57.5 587,-38.5 425,-38.5"/>
<text text-anchor="middle" x="506" y="-45.5" font-family="Helvetica,sans-Serif" font-size="10.00">ResourceMonitor::getInstance</text>
</a>
</g>
</g>
<!-- Node2&#45;&gt;Node3 -->
<g id="edge2" class="edge">
<title>Node2&#45;&gt;Node3</title>
<path fill="none" stroke="midnightblue" d="M358.23,-48C375.97,-48 395.59,-48 414.56,-48"/>
<polygon fill="midnightblue" stroke="midnightblue" points="414.71,-51.5 424.71,-48 414.71,-44.5 414.71,-51.5"/>
</g>
<!-- Node4&#45;&gt;Node3 -->
<g id="edge4" class="edge">
<title>Node4&#45;&gt;Node3</title>
<path fill="none" stroke="midnightblue" d="M347.35,-19.54C376.12,-24.73 411.92,-31.2 442.12,-36.65"/>
<polygon fill="midnightblue" stroke="midnightblue" points="441.67,-40.12 452.13,-38.46 442.91,-33.24 441.67,-40.12"/>
</g>
<!-- Node5 -->
<g id="node5" class="node">
<title>Node5</title>
<g id="a_node5"><a xlink:href="../../dd/df5/namespaceMyBLAS_1_1Stats.html#aaa0d2e3d22af2b7894169b7c90ba6146" target="_top" xlink:title="Function to find the sum of all elements in a vector.">
<polygon fill="white" stroke="black" points="448.5,-0.5 448.5,-19.5 563.5,-19.5 563.5,-0.5 448.5,-0.5"/>
<text text-anchor="middle" x="506" y="-7.5" font-family="Helvetica,sans-Serif" font-size="10.00">MyBLAS::Stats::sum</text>
</a>
</g>
</g>
<!-- Node4&#45;&gt;Node5 -->
<g id="edge5" class="edge">
<title>Node4&#45;&gt;Node5</title>
<path fill="none" stroke="midnightblue" d="M389.28,-10C405.84,-10 422.75,-10 438.35,-10"/>
<polygon fill="midnightblue" stroke="midnightblue" points="438.39,-13.5 448.39,-10 438.39,-6.5 438.39,-13.5"/>
</g>
<!-- Node6 -->
<g id="node6" class="node">
<title>Node6</title>
<g id="a_node6"><a xlink:href="../../d4/d4d/classMyBLAS_1_1Vector.html#a6188d71192e096e25ae1c1a46150a0ab" target="_top" xlink:title="Getter for the vector data.">
<polygon fill="white" stroke="black" points="623,-0.5 623,-19.5 762,-19.5 762,-0.5 623,-0.5"/>
<text text-anchor="middle" x="692.5" y="-7.5" font-family="Helvetica,sans-Serif" font-size="10.00">MyBLAS::Vector::getData</text>
</a>
</g>
</g>
<!-- Node5&#45;&gt;Node6 -->
<g id="edge6" class="edge">
<title>Node5&#45;&gt;Node6</title>
<path fill="none" stroke="midnightblue" d="M563.61,-10C579.14,-10 596.25,-10 612.78,-10"/>
<polygon fill="midnightblue" stroke="midnightblue" points="612.97,-13.5 622.97,-10 612.97,-6.5 612.97,-13.5"/>
</g>
</g>
</svg>
