<?xml version="1.0" encoding="UTF-8" standalone="no"?>
<!DOCTYPE svg PUBLIC "-//W3C//DTD SVG 1.1//EN"
 "http://www.w3.org/Graphics/SVG/1.1/DTD/svg11.dtd">
<!-- Generated by graphviz version 2.43.0 (0)
 -->
<!-- Title: src/labs/inlab6/InputsOutputs.h Pages: 1 -->
<svg width="623pt" height="375pt"
 viewBox="0.00 0.00 623.00 375.00" xmlns="http://www.w3.org/2000/svg" xmlns:xlink="http://www.w3.org/1999/xlink">
<g id="graph0" class="graph" transform="scale(1 1) rotate(0) translate(4 371)">
<title>src/labs/inlab6/InputsOutputs.h</title>
<polygon fill="white" stroke="transparent" points="-4,4 -4,-371 619,-371 619,4 -4,4"/>
<!-- Node1 -->
<g id="node1" class="node">
<title>Node1</title>
<g id="a_node1"><a xlink:title="This file contains the input and output definitions for this project.">
<polygon fill="#bfbfbf" stroke="black" points="169,-347.5 169,-366.5 336,-366.5 336,-347.5 169,-347.5"/>
<text text-anchor="middle" x="252.5" y="-354.5" font-family="Helvetica,sans-Serif" font-size="10.00">src/labs/inlab6/InputsOutputs.h</text>
</a>
</g>
</g>
<!-- Node2 -->
<g id="node2" class="node">
<title>Node2</title>
<g id="a_node2"><a xlink:title=" ">
<polygon fill="white" stroke="#bfbfbf" points="0,-291.5 0,-310.5 45,-310.5 45,-291.5 0,-291.5"/>
<text text-anchor="middle" x="22.5" y="-298.5" font-family="Helvetica,sans-Serif" font-size="10.00">utility</text>
</a>
</g>
</g>
<!-- Node1&#45;&gt;Node2 -->
<g id="edge1" class="edge">
<title>Node1&#45;&gt;Node2</title>
<path fill="none" stroke="midnightblue" d="M212.16,-347.46C174.16,-339.27 115.43,-326.27 55.25,-311.09"/>
<polygon fill="midnightblue" stroke="midnightblue" points="55.74,-307.6 45.19,-308.53 54.02,-314.39 55.74,-307.6"/>
</g>
<!-- Node3 -->
<g id="node3" class="node">
<title>Node3</title>
<g id="a_node3"><a xlink:title=" ">
<polygon fill="white" stroke="#bfbfbf" points="63.5,-291.5 63.5,-310.5 121.5,-310.5 121.5,-291.5 63.5,-291.5"/>
<text text-anchor="middle" x="92.5" y="-298.5" font-family="Helvetica,sans-Serif" font-size="10.00">json.hpp</text>
</a>
</g>
</g>
<!-- Node1&#45;&gt;Node3 -->
<g id="edge2" class="edge">
<title>Node1&#45;&gt;Node3</title>
<path fill="none" stroke="midnightblue" d="M227.15,-347.44C200.23,-338.36 157.5,-323.94 127.41,-313.78"/>
<polygon fill="midnightblue" stroke="midnightblue" points="128.33,-310.4 117.73,-310.52 126.09,-317.03 128.33,-310.4"/>
</g>
<!-- Node4 -->
<g id="node4" class="node">
<title>Node4</title>
<g id="a_node4"><a xlink:href="../../df/dbd/LinearSolver_8h.html" target="_top" xlink:title="This file contains the definition of the LinearSolver class and its associated methods.">
<polygon fill="white" stroke="black" points="297.5,-291.5 297.5,-310.5 411.5,-310.5 411.5,-291.5 297.5,-291.5"/>
<text text-anchor="middle" x="354.5" y="-298.5" font-family="Helvetica,sans-Serif" font-size="10.00">math/LinearSolver.h</text>
</a>
</g>
</g>
<!-- Node1&#45;&gt;Node4 -->
<g id="edge3" class="edge">
<title>Node1&#45;&gt;Node4</title>
<path fill="none" stroke="midnightblue" d="M268.89,-347.32C285.17,-338.7 310.37,-325.36 329.22,-315.39"/>
<polygon fill="midnightblue" stroke="midnightblue" points="330.95,-318.43 338.15,-310.65 327.68,-312.24 330.95,-318.43"/>
</g>
<!-- Node6 -->
<g id="node6" class="node">
<title>Node6</title>
<g id="a_node6"><a xlink:href="../../d9/d77/MyBLAS_8h.html" target="_top" xlink:title="My BLAS methods for NE591&#45;008.">
<polygon fill="white" stroke="black" points="405.5,-168.5 405.5,-187.5 523.5,-187.5 523.5,-168.5 405.5,-168.5"/>
<text text-anchor="middle" x="464.5" y="-175.5" font-family="Helvetica,sans-Serif" font-size="10.00">math/blas/MyBLAS.h</text>
</a>
</g>
</g>
<!-- Node1&#45;&gt;Node6 -->
<g id="edge21" class="edge">
<title>Node1&#45;&gt;Node6</title>
<path fill="none" stroke="midnightblue" d="M336.31,-352.04C402.6,-343.82 490.44,-320.34 530.5,-255 537.7,-243.25 536.94,-236.18 530.5,-224 523.08,-209.95 509.08,-199.47 495.88,-192.17"/>
<polygon fill="midnightblue" stroke="midnightblue" points="497.46,-189.04 486.96,-187.62 494.28,-195.28 497.46,-189.04"/>
</g>
<!-- Node8 -->
<g id="node8" class="node">
<title>Node8</title>
<g id="a_node8"><a xlink:href="../../d3/db1/Matrix_8h.html" target="_top" xlink:title="This file contains my BLAS::Matrix declarations.">
<polygon fill="white" stroke="black" points="506,-112.5 506,-131.5 615,-131.5 615,-112.5 506,-112.5"/>
<text text-anchor="middle" x="560.5" y="-119.5" font-family="Helvetica,sans-Serif" font-size="10.00">math/blas/Matrix.h</text>
</a>
</g>
</g>
<!-- Node1&#45;&gt;Node8 -->
<g id="edge20" class="edge">
<title>Node1&#45;&gt;Node8</title>
<path fill="none" stroke="midnightblue" d="M336.06,-354.83C386.37,-350.84 450.04,-339.74 499.5,-311 527.59,-294.68 533.79,-284.9 546.5,-255 562.52,-217.31 563.05,-168.34 561.87,-141.91"/>
<polygon fill="midnightblue" stroke="midnightblue" points="565.35,-141.55 561.28,-131.77 558.36,-141.96 565.35,-141.55"/>
</g>
<!-- Node12 -->
<g id="node12" class="node">
<title>Node12</title>
<g id="a_node12"><a xlink:href="../../d6/dbe/Vector_8h.html" target="_top" xlink:title="This file contains my BLAS::Vector implementation.">
<polygon fill="white" stroke="black" points="343,-56.5 343,-75.5 450,-75.5 450,-56.5 343,-56.5"/>
<text text-anchor="middle" x="396.5" y="-63.5" font-family="Helvetica,sans-Serif" font-size="10.00">math/blas/Vector.h</text>
</a>
</g>
</g>
<!-- Node1&#45;&gt;Node12 -->
<g id="edge22" class="edge">
<title>Node1&#45;&gt;Node12</title>
<path fill="none" stroke="midnightblue" d="M235.95,-347.37C206.84,-330.85 149.5,-291.82 149.5,-240.5 149.5,-240.5 149.5,-240.5 149.5,-177 149.5,-96.75 259.65,-74.63 332.84,-68.78"/>
<polygon fill="midnightblue" stroke="midnightblue" points="333.18,-72.27 342.9,-68.06 332.68,-65.29 333.18,-72.27"/>
</g>
<!-- Node14 -->
<g id="node14" class="node">
<title>Node14</title>
<g id="a_node14"><a xlink:href="../../d0/d24/RelaxationMethods_8h.html" target="_top" xlink:title="This file contains the declaration of the RelaxationMethods namespace, which includes the Type enumer...">
<polygon fill="white" stroke="black" points="177.5,-224.5 177.5,-254.5 327.5,-254.5 327.5,-224.5 177.5,-224.5"/>
<text text-anchor="start" x="185.5" y="-242.5" font-family="Helvetica,sans-Serif" font-size="10.00">math/relaxation/Relaxation</text>
<text text-anchor="middle" x="252.5" y="-231.5" font-family="Helvetica,sans-Serif" font-size="10.00">Methods.h</text>
</a>
</g>
</g>
<!-- Node1&#45;&gt;Node14 -->
<g id="edge23" class="edge">
<title>Node1&#45;&gt;Node14</title>
<path fill="none" stroke="midnightblue" d="M252.5,-347.32C252.5,-329.97 252.5,-290.46 252.5,-264.66"/>
<polygon fill="midnightblue" stroke="midnightblue" points="256,-264.55 252.5,-254.55 249,-264.55 256,-264.55"/>
</g>
<!-- Node5 -->
<g id="node5" class="node">
<title>Node5</title>
<g id="a_node5"><a xlink:href="../../d1/d6a/Factorize_8h.html" target="_top" xlink:title="This file contains the declaration of the MyFactorizationMethod namespace, which includes methods and...">
<polygon fill="white" stroke="black" points="414,-224.5 414,-254.5 521,-254.5 521,-224.5 414,-224.5"/>
<text text-anchor="start" x="422" y="-242.5" font-family="Helvetica,sans-Serif" font-size="10.00">math/factorization</text>
<text text-anchor="middle" x="467.5" y="-231.5" font-family="Helvetica,sans-Serif" font-size="10.00">/Factorize.h</text>
</a>
</g>
</g>
<!-- Node4&#45;&gt;Node5 -->
<g id="edge4" class="edge">
<title>Node4&#45;&gt;Node5</title>
<path fill="none" stroke="midnightblue" d="M370.69,-291.48C386.57,-283.12 411.3,-270.09 431.8,-259.3"/>
<polygon fill="midnightblue" stroke="midnightblue" points="433.65,-262.28 440.87,-254.52 430.39,-256.09 433.65,-262.28"/>
</g>
<!-- Node4&#45;&gt;Node14 -->
<g id="edge18" class="edge">
<title>Node4&#45;&gt;Node14</title>
<path fill="none" stroke="midnightblue" d="M339.89,-291.48C325.68,-283.19 303.63,-270.32 285.23,-259.59"/>
<polygon fill="midnightblue" stroke="midnightblue" points="286.94,-256.54 276.54,-254.52 283.41,-262.58 286.94,-256.54"/>
</g>
<!-- Node15 -->
<g id="node15" class="node">
<title>Node15</title>
<g id="a_node15"><a xlink:title=" ">
<polygon fill="white" stroke="#bfbfbf" points="345,-230 345,-249 396,-249 396,-230 345,-230"/>
<text text-anchor="middle" x="370.5" y="-237" font-family="Helvetica,sans-Serif" font-size="10.00">variant</text>
</a>
</g>
</g>
<!-- Node4&#45;&gt;Node15 -->
<g id="edge19" class="edge">
<title>Node4&#45;&gt;Node15</title>
<path fill="none" stroke="midnightblue" d="M356.79,-291.48C359.07,-282.99 362.65,-269.7 365.57,-258.82"/>
<polygon fill="midnightblue" stroke="midnightblue" points="368.99,-259.57 368.21,-249.01 362.24,-257.76 368.99,-259.57"/>
</g>
<!-- Node5&#45;&gt;Node6 -->
<g id="edge5" class="edge">
<title>Node5&#45;&gt;Node6</title>
<path fill="none" stroke="midnightblue" d="M466.79,-224.4C466.39,-216.47 465.88,-206.46 465.45,-197.86"/>
<polygon fill="midnightblue" stroke="midnightblue" points="468.94,-197.47 464.94,-187.66 461.94,-197.82 468.94,-197.47"/>
</g>
<!-- Node5&#45;&gt;Node8 -->
<g id="edge16" class="edge">
<title>Node5&#45;&gt;Node8</title>
<path fill="none" stroke="midnightblue" d="M491.29,-224.31C504.8,-215.29 521.22,-202.58 532.5,-188 543.3,-174.04 550.79,-155.29 555.29,-141.51"/>
<polygon fill="midnightblue" stroke="midnightblue" points="558.71,-142.31 558.26,-131.72 552.01,-140.27 558.71,-142.31"/>
</g>
<!-- Node5&#45;&gt;Node12 -->
<g id="edge17" class="edge">
<title>Node5&#45;&gt;Node12</title>
<path fill="none" stroke="midnightblue" d="M435.35,-224.34C420.67,-216.03 404.75,-204 396.5,-188 379.55,-155.14 385.91,-110.25 391.54,-85.42"/>
<polygon fill="midnightblue" stroke="midnightblue" points="394.98,-86.09 393.99,-75.54 388.18,-84.4 394.98,-86.09"/>
</g>
<!-- Node7 -->
<g id="node7" class="node">
<title>Node7</title>
<g id="a_node7"><a xlink:title=" ">
<polygon fill="white" stroke="#bfbfbf" points="441,-112.5 441,-131.5 488,-131.5 488,-112.5 441,-112.5"/>
<text text-anchor="middle" x="464.5" y="-119.5" font-family="Helvetica,sans-Serif" font-size="10.00">cmath</text>
</a>
</g>
</g>
<!-- Node6&#45;&gt;Node7 -->
<g id="edge6" class="edge">
<title>Node6&#45;&gt;Node7</title>
<path fill="none" stroke="midnightblue" d="M464.5,-168.08C464.5,-161.01 464.5,-150.86 464.5,-141.99"/>
<polygon fill="midnightblue" stroke="midnightblue" points="468,-141.75 464.5,-131.75 461,-141.75 468,-141.75"/>
</g>
<!-- Node6&#45;&gt;Node8 -->
<g id="edge7" class="edge">
<title>Node6&#45;&gt;Node8</title>
<path fill="none" stroke="midnightblue" d="M479.92,-168.32C495.04,-159.82 518.32,-146.73 535.97,-136.8"/>
<polygon fill="midnightblue" stroke="midnightblue" points="538.11,-139.61 545.11,-131.65 534.68,-133.51 538.11,-139.61"/>
</g>
<!-- Node6&#45;&gt;Node12 -->
<g id="edge15" class="edge">
<title>Node6&#45;&gt;Node12</title>
<path fill="none" stroke="midnightblue" d="M457.82,-168.24C451.13,-159.31 440.67,-144.98 432.5,-132 422.64,-116.34 412.53,-97.82 405.54,-84.57"/>
<polygon fill="midnightblue" stroke="midnightblue" points="408.59,-82.84 400.86,-75.59 402.38,-86.08 408.59,-82.84"/>
</g>
<!-- Node9 -->
<g id="node9" class="node">
<title>Node9</title>
<g id="a_node9"><a xlink:title=" ">
<polygon fill="white" stroke="#bfbfbf" points="468.5,-56.5 468.5,-75.5 532.5,-75.5 532.5,-56.5 468.5,-56.5"/>
<text text-anchor="middle" x="500.5" y="-63.5" font-family="Helvetica,sans-Serif" font-size="10.00">algorithm</text>
</a>
</g>
</g>
<!-- Node8&#45;&gt;Node9 -->
<g id="edge8" class="edge">
<title>Node8&#45;&gt;Node9</title>
<path fill="none" stroke="midnightblue" d="M550.86,-112.32C541.99,-104.34 528.63,-92.31 517.89,-82.65"/>
<polygon fill="midnightblue" stroke="midnightblue" points="520.09,-79.92 510.32,-75.83 515.41,-85.13 520.09,-79.92"/>
</g>
<!-- Node10 -->
<g id="node10" class="node">
<title>Node10</title>
<g id="a_node10"><a xlink:title=" ">
<polygon fill="white" stroke="#bfbfbf" points="469.5,-0.5 469.5,-19.5 529.5,-19.5 529.5,-0.5 469.5,-0.5"/>
<text text-anchor="middle" x="499.5" y="-7.5" font-family="Helvetica,sans-Serif" font-size="10.00">iostream</text>
</a>
</g>
</g>
<!-- Node8&#45;&gt;Node10 -->
<g id="edge9" class="edge">
<title>Node8&#45;&gt;Node10</title>
<path fill="none" stroke="midnightblue" d="M559.24,-112.08C557.11,-99.05 551.97,-74.39 541.5,-56 535.25,-45.02 525.81,-34.59 517.47,-26.53"/>
<polygon fill="midnightblue" stroke="midnightblue" points="519.67,-23.8 509.94,-19.6 514.93,-28.95 519.67,-23.8"/>
</g>
<!-- Node11 -->
<g id="node11" class="node">
<title>Node11</title>
<g id="a_node11"><a xlink:title=" ">
<polygon fill="white" stroke="#bfbfbf" points="561,-0.5 561,-19.5 608,-19.5 608,-0.5 561,-0.5"/>
<text text-anchor="middle" x="584.5" y="-7.5" font-family="Helvetica,sans-Serif" font-size="10.00">vector</text>
</a>
</g>
</g>
<!-- Node8&#45;&gt;Node11 -->
<g id="edge10" class="edge">
<title>Node8&#45;&gt;Node11</title>
<path fill="none" stroke="midnightblue" d="M563.57,-112.48C566.7,-103.5 571.52,-88.91 574.5,-76 578.04,-60.69 580.66,-43.04 582.33,-30.01"/>
<polygon fill="midnightblue" stroke="midnightblue" points="585.83,-30.26 583.56,-19.91 578.88,-29.42 585.83,-30.26"/>
</g>
<!-- Node8&#45;&gt;Node12 -->
<g id="edge11" class="edge">
<title>Node8&#45;&gt;Node12</title>
<path fill="none" stroke="midnightblue" d="M534.51,-112.44C506.8,-103.32 462.75,-88.81 431.88,-78.65"/>
<polygon fill="midnightblue" stroke="midnightblue" points="432.96,-75.32 422.36,-75.52 430.77,-81.97 432.96,-75.32"/>
</g>
<!-- Node12&#45;&gt;Node10 -->
<g id="edge13" class="edge">
<title>Node12&#45;&gt;Node10</title>
<path fill="none" stroke="midnightblue" d="M413.05,-56.32C429.49,-47.7 454.93,-34.36 473.97,-24.39"/>
<polygon fill="midnightblue" stroke="midnightblue" points="475.76,-27.4 482.99,-19.65 472.51,-21.2 475.76,-27.4"/>
</g>
<!-- Node12&#45;&gt;Node11 -->
<g id="edge14" class="edge">
<title>Node12&#45;&gt;Node11</title>
<path fill="none" stroke="midnightblue" d="M426.29,-56.44C460.21,-46.7 515.51,-30.82 550.93,-20.64"/>
<polygon fill="midnightblue" stroke="midnightblue" points="552.16,-23.93 560.8,-17.81 550.23,-17.2 552.16,-23.93"/>
</g>
<!-- Node13 -->
<g id="node13" class="node">
<title>Node13</title>
<g id="a_node13"><a xlink:title=" ">
<polygon fill="white" stroke="#bfbfbf" points="368.5,-0.5 368.5,-19.5 424.5,-19.5 424.5,-0.5 368.5,-0.5"/>
<text text-anchor="middle" x="396.5" y="-7.5" font-family="Helvetica,sans-Serif" font-size="10.00">iomanip</text>
</a>
</g>
</g>
<!-- Node12&#45;&gt;Node13 -->
<g id="edge12" class="edge">
<title>Node12&#45;&gt;Node13</title>
<path fill="none" stroke="midnightblue" d="M396.5,-56.08C396.5,-49.01 396.5,-38.86 396.5,-29.99"/>
<polygon fill="midnightblue" stroke="midnightblue" points="400,-29.75 396.5,-19.75 393,-29.75 400,-29.75"/>
</g>
</g>
</svg>
