<?xml version="1.0" encoding="UTF-8" standalone="no"?>
<!DOCTYPE svg PUBLIC "-//W3C//DTD SVG 1.1//EN"
 "http://www.w3.org/Graphics/SVG/1.1/DTD/svg11.dtd">
<!-- Generated by graphviz version 2.43.0 (0)
 -->
<!-- Title: src/labs/inlab6/InputsOutputs.h Pages: 1 -->
<!--zoomable 375 -->
<svg id="main" version="1.1" xmlns="http://www.w3.org/2000/svg" xmlns:xlink="http://www.w3.org/1999/xlink" xml:space="preserve" onload="init(evt)">
<style type="text/css"><![CDATA[
.edge:hover path { stroke: red; }
.edge:hover polygon { stroke: red; fill: red; }
]]></style>
<script type="text/javascript"><![CDATA[
var edges = document.getElementsByTagName('g');
if (edges && edges.length) {
  for (var i=0;i<edges.length;i++) {
    if (edges[i].id.substr(0,4)=='edge') {
      edges[i].setAttribute('class','edge');
    }
  }
}
]]></script>
        <defs>
                <circle id="rim" cx="0" cy="0" r="7"/>
                <circle id="rim2" cx="0" cy="0" r="3.5"/>
                <g id="zoomPlus">
                        <use xlink:href="#rim" fill="#404040">
                                <set attributeName="fill" to="#808080" begin="zoomplus.mouseover" end="zoomplus.mouseout"/>
                        </use>
                        <path d="M-4,0h8M0,-4v8" fill="none" stroke="white" stroke-width="1.5" pointer-events="none"/>
                </g>
                <g id="zoomMin">
                        <use xlink:href="#rim" fill="#404040">
                                <set attributeName="fill" to="#808080" begin="zoomminus.mouseover" end="zoomminus.mouseout"/>
                        </use>
                        <path d="M-4,0h8" fill="none" stroke="white" stroke-width="1.5" pointer-events="none"/>
                </g>
                <g id="dirArrow">
                        <path fill="none" stroke="white" stroke-width="1.5" d="M0,-3.0v7 M-2.5,-0.5L0,-3.0L2.5,-0.5"/>
                </g>
               <g id="resetDef">
                       <use xlink:href="#rim2" fill="#404040">
                               <set attributeName="fill" to="#808080" begin="reset.mouseover" end="reset.mouseout"/>
                       </use>
               </g>
        </defs>

<script type="text/javascript">
var viewWidth = 805;
var viewHeight = 375;
var sectionId = 'dynsection-0';
</script>
<script xlink:href="../../svgpan.js"/>
<svg id="graph" class="graph">
<g id="viewport">
<title>src/labs/inlab6/InputsOutputs.h</title>
<polygon fill="white" stroke="transparent" points="-4,4 -4,-371 801,-371 801,4 -4,4"/>
<!-- Node1 -->
<g id="node1" class="node">
<title>Node1</title>
<g id="a_node1"><a xlink:title="This file contains the input and output definitions for this project.">
<polygon fill="#bfbfbf" stroke="black" points="307,-347.5 307,-366.5 474,-366.5 474,-347.5 307,-347.5"/>
<text text-anchor="middle" x="390.5" y="-354.5" font-family="Helvetica,sans-Serif" font-size="10.00">src/labs/inlab6/InputsOutputs.h</text>
</a>
</g>
</g>
<!-- Node2 -->
<g id="node2" class="node">
<title>Node2</title>
<g id="a_node2"><a xlink:title=" ">
<polygon fill="white" stroke="#bfbfbf" points="0,-291.5 0,-310.5 45,-310.5 45,-291.5 0,-291.5"/>
<text text-anchor="middle" x="22.5" y="-298.5" font-family="Helvetica,sans-Serif" font-size="10.00">utility</text>
</a>
</g>
</g>
<!-- Node1&#45;&gt;Node2 -->
<g id="edge1" class="edge">
<title>Node1&#45;&gt;Node2</title>
<path fill="none" stroke="midnightblue" d="M306.75,-348.1C240.84,-341.12 146.57,-329.44 55.11,-310.85"/>
<polygon fill="midnightblue" stroke="midnightblue" points="55.63,-307.38 45.13,-308.79 54.21,-314.24 55.63,-307.38"/>
</g>
<!-- Node3 -->
<g id="node3" class="node">
<title>Node3</title>
<g id="a_node3"><a xlink:title=" ">
<polygon fill="white" stroke="#bfbfbf" points="63.5,-291.5 63.5,-310.5 121.5,-310.5 121.5,-291.5 63.5,-291.5"/>
<text text-anchor="middle" x="92.5" y="-298.5" font-family="Helvetica,sans-Serif" font-size="10.00">json.hpp</text>
</a>
</g>
</g>
<!-- Node1&#45;&gt;Node3 -->
<g id="edge2" class="edge">
<title>Node1&#45;&gt;Node3</title>
<path fill="none" stroke="midnightblue" d="M339.13,-347.43C287.57,-338.7 205.91,-324.58 135.5,-311 134.24,-310.76 132.95,-310.51 131.66,-310.25"/>
<polygon fill="midnightblue" stroke="midnightblue" points="132.11,-306.77 121.62,-308.22 130.73,-313.63 132.11,-306.77"/>
</g>
<!-- Node4 -->
<g id="node4" class="node">
<title>Node4</title>
<g id="a_node4"><a xlink:href="../../df/dbd/LinearSolver_8h.html" target="_top" xlink:title="This file contains the definition of the LinearSolver class and its associated methods.">
<polygon fill="white" stroke="black" points="333.5,-291.5 333.5,-310.5 447.5,-310.5 447.5,-291.5 333.5,-291.5"/>
<text text-anchor="middle" x="390.5" y="-298.5" font-family="Helvetica,sans-Serif" font-size="10.00">math/LinearSolver.h</text>
</a>
</g>
</g>
<!-- Node1&#45;&gt;Node4 -->
<g id="edge3" class="edge">
<title>Node1&#45;&gt;Node4</title>
<path fill="none" stroke="midnightblue" d="M390.5,-347.08C390.5,-340.01 390.5,-329.86 390.5,-320.99"/>
<polygon fill="midnightblue" stroke="midnightblue" points="394,-320.75 390.5,-310.75 387,-320.75 394,-320.75"/>
</g>
<!-- Node6 -->
<g id="node6" class="node">
<title>Node6</title>
<g id="a_node6"><a xlink:href="../../d1/d80/BLAS_8h.html" target="_top" xlink:title=" ">
<polygon fill="white" stroke="black" points="556,-168.5 556,-187.5 659,-187.5 659,-168.5 556,-168.5"/>
<text text-anchor="middle" x="607.5" y="-175.5" font-family="Helvetica,sans-Serif" font-size="10.00">math/blas/BLAS.h</text>
</a>
</g>
</g>
<!-- Node1&#45;&gt;Node6 -->
<g id="edge33" class="edge">
<title>Node1&#45;&gt;Node6</title>
<path fill="none" stroke="midnightblue" d="M474.26,-351.34C540.92,-342.69 630.29,-318.99 675.5,-255 683.45,-243.75 682.02,-236.14 675.5,-224 667.88,-209.82 653.6,-199.35 640.09,-192.1"/>
<polygon fill="midnightblue" stroke="midnightblue" points="641.47,-188.88 630.95,-187.59 638.37,-195.16 641.47,-188.88"/>
</g>
<!-- Node8 -->
<g id="node8" class="node">
<title>Node8</title>
<g id="a_node8"><a xlink:href="../../d3/db1/Matrix_8h.html" target="_top" xlink:title="This file contains my BLAS::Matrix declarations.">
<polygon fill="white" stroke="black" points="350.5,-112.5 350.5,-131.5 494.5,-131.5 494.5,-112.5 350.5,-112.5"/>
<text text-anchor="middle" x="422.5" y="-119.5" font-family="Helvetica,sans-Serif" font-size="10.00">math/blas/matrix/Matrix.h</text>
</a>
</g>
</g>
<!-- Node1&#45;&gt;Node8 -->
<g id="edge34" class="edge">
<title>Node1&#45;&gt;Node8</title>
<path fill="none" stroke="midnightblue" d="M369.38,-347.36C309.35,-321.62 145.85,-242.59 206.5,-168 223.41,-147.2 286.41,-135.69 340.04,-129.53"/>
<polygon fill="midnightblue" stroke="midnightblue" points="340.72,-132.98 350.28,-128.41 339.95,-126.02 340.72,-132.98"/>
</g>
<!-- Node14 -->
<g id="node14" class="node">
<title>Node14</title>
<g id="a_node14"><a xlink:href="../../d6/dbe/Vector_8h.html" target="_top" xlink:title="This file contains my BLAS::Vector implementation.">
<polygon fill="white" stroke="black" points="609,-56.5 609,-75.5 750,-75.5 750,-56.5 609,-56.5"/>
<text text-anchor="middle" x="679.5" y="-63.5" font-family="Helvetica,sans-Serif" font-size="10.00">math/blas/vector/Vector.h</text>
</a>
</g>
</g>
<!-- Node1&#45;&gt;Node14 -->
<g id="edge35" class="edge">
<title>Node1&#45;&gt;Node14</title>
<path fill="none" stroke="midnightblue" d="M474.28,-350.5C523.71,-344.92 586.56,-333.67 638.5,-311 686.36,-290.11 732.5,-292.72 732.5,-240.5 732.5,-240.5 732.5,-240.5 732.5,-177 732.5,-140.99 709.17,-104.34 693.46,-83.75"/>
<polygon fill="midnightblue" stroke="midnightblue" points="696.05,-81.38 687.09,-75.72 690.57,-85.73 696.05,-81.38"/>
</g>
<!-- Node17 -->
<g id="node17" class="node">
<title>Node17</title>
<g id="a_node17"><a xlink:href="../../d0/d24/RelaxationMethods_8h.html" target="_top" xlink:title="This file contains the declaration of the RelaxationMethods namespace, which includes the Type enumer...">
<polygon fill="white" stroke="black" points="516.5,-224.5 516.5,-254.5 666.5,-254.5 666.5,-224.5 516.5,-224.5"/>
<text text-anchor="start" x="524.5" y="-242.5" font-family="Helvetica,sans-Serif" font-size="10.00">math/relaxation/Relaxation</text>
<text text-anchor="middle" x="591.5" y="-231.5" font-family="Helvetica,sans-Serif" font-size="10.00">Methods.h</text>
</a>
</g>
</g>
<!-- Node1&#45;&gt;Node17 -->
<g id="edge36" class="edge">
<title>Node1&#45;&gt;Node17</title>
<path fill="none" stroke="midnightblue" d="M405.61,-347.32C437.83,-328.8 513.94,-285.07 558.14,-259.67"/>
<polygon fill="midnightblue" stroke="midnightblue" points="560.13,-262.56 567.06,-254.55 556.64,-256.49 560.13,-262.56"/>
</g>
<!-- Node5 -->
<g id="node5" class="node">
<title>Node5</title>
<g id="a_node5"><a xlink:href="../../d1/d6a/Factorize_8h.html" target="_top" xlink:title="This file contains the declaration of the MyFactorizationMethod namespace, which includes methods and...">
<polygon fill="white" stroke="black" points="391,-224.5 391,-254.5 498,-254.5 498,-224.5 391,-224.5"/>
<text text-anchor="start" x="399" y="-242.5" font-family="Helvetica,sans-Serif" font-size="10.00">math/factorization</text>
<text text-anchor="middle" x="444.5" y="-231.5" font-family="Helvetica,sans-Serif" font-size="10.00">/Factorize.h</text>
</a>
</g>
</g>
<!-- Node4&#45;&gt;Node5 -->
<g id="edge4" class="edge">
<title>Node4&#45;&gt;Node5</title>
<path fill="none" stroke="midnightblue" d="M398.24,-291.48C405.21,-283.79 415.76,-272.17 425.02,-261.96"/>
<polygon fill="midnightblue" stroke="midnightblue" points="427.64,-264.28 431.77,-254.52 422.46,-259.58 427.64,-264.28"/>
</g>
<!-- Node4&#45;&gt;Node17 -->
<g id="edge22" class="edge">
<title>Node4&#45;&gt;Node17</title>
<path fill="none" stroke="midnightblue" d="M419.3,-291.48C449.19,-282.63 496.75,-268.55 534.32,-257.43"/>
<polygon fill="midnightblue" stroke="midnightblue" points="535.53,-260.72 544.13,-254.52 533.55,-254.01 535.53,-260.72"/>
</g>
<!-- Node18 -->
<g id="node18" class="node">
<title>Node18</title>
<g id="a_node18"><a xlink:href="../../dc/d09/Stats_8h.html" target="_top" xlink:title="This file contains the declaration of statistical functions and structures for vectors and matrices.">
<polygon fill="white" stroke="black" points="298.5,-230 298.5,-249 372.5,-249 372.5,-230 298.5,-230"/>
<text text-anchor="middle" x="335.5" y="-237" font-family="Helvetica,sans-Serif" font-size="10.00">blas/Stats.h</text>
</a>
</g>
</g>
<!-- Node4&#45;&gt;Node18 -->
<g id="edge23" class="edge">
<title>Node4&#45;&gt;Node18</title>
<path fill="none" stroke="midnightblue" d="M382.62,-291.48C374.21,-282.37 360.68,-267.74 350.27,-256.48"/>
<polygon fill="midnightblue" stroke="midnightblue" points="352.72,-253.98 343.37,-249.01 347.58,-258.73 352.72,-253.98"/>
</g>
<!-- Node21 -->
<g id="node21" class="node">
<title>Node21</title>
<g id="a_node21"><a xlink:title=" ">
<polygon fill="white" stroke="#bfbfbf" points="229,-230 229,-249 280,-249 280,-230 229,-230"/>
<text text-anchor="middle" x="254.5" y="-237" font-family="Helvetica,sans-Serif" font-size="10.00">variant</text>
</a>
</g>
</g>
<!-- Node4&#45;&gt;Node21 -->
<g id="edge32" class="edge">
<title>Node4&#45;&gt;Node21</title>
<path fill="none" stroke="midnightblue" d="M371.01,-291.48C348.09,-281.45 309.81,-264.7 283.42,-253.15"/>
<polygon fill="midnightblue" stroke="midnightblue" points="284.51,-249.81 273.95,-249.01 281.71,-256.22 284.51,-249.81"/>
</g>
<!-- Node5&#45;&gt;Node6 -->
<g id="edge5" class="edge">
<title>Node5&#45;&gt;Node6</title>
<path fill="none" stroke="midnightblue" d="M483.13,-224.4C510.84,-214.28 547.81,-200.79 574.22,-191.15"/>
<polygon fill="midnightblue" stroke="midnightblue" points="575.59,-194.37 583.78,-187.66 573.19,-187.8 575.59,-194.37"/>
</g>
<!-- Node5&#45;&gt;Node8 -->
<g id="edge20" class="edge">
<title>Node5&#45;&gt;Node8</title>
<path fill="none" stroke="midnightblue" d="M441.8,-224.34C437.84,-203.53 430.44,-164.66 426.04,-141.58"/>
<polygon fill="midnightblue" stroke="midnightblue" points="429.46,-140.84 424.15,-131.67 422.58,-142.15 429.46,-140.84"/>
</g>
<!-- Node5&#45;&gt;Node14 -->
<g id="edge21" class="edge">
<title>Node5&#45;&gt;Node14</title>
<path fill="none" stroke="midnightblue" d="M498.11,-226.14C501.29,-225.41 504.44,-224.7 507.5,-224 579.01,-207.78 620.11,-243.09 668.5,-188 693.36,-159.7 688.89,-112 683.91,-85.74"/>
<polygon fill="midnightblue" stroke="midnightblue" points="687.26,-84.68 681.76,-75.63 680.42,-86.13 687.26,-84.68"/>
</g>
<!-- Node7 -->
<g id="node7" class="node">
<title>Node7</title>
<g id="a_node7"><a xlink:title=" ">
<polygon fill="white" stroke="#bfbfbf" points="563,-112.5 563,-131.5 610,-131.5 610,-112.5 563,-112.5"/>
<text text-anchor="middle" x="586.5" y="-119.5" font-family="Helvetica,sans-Serif" font-size="10.00">cmath</text>
</a>
</g>
</g>
<!-- Node6&#45;&gt;Node7 -->
<g id="edge6" class="edge">
<title>Node6&#45;&gt;Node7</title>
<path fill="none" stroke="midnightblue" d="M604.03,-168.08C601.19,-160.77 597.07,-150.18 593.54,-141.1"/>
<polygon fill="midnightblue" stroke="midnightblue" points="596.79,-139.8 589.9,-131.75 590.27,-142.34 596.79,-139.8"/>
</g>
<!-- Node6&#45;&gt;Node8 -->
<g id="edge7" class="edge">
<title>Node6&#45;&gt;Node8</title>
<path fill="none" stroke="midnightblue" d="M578.19,-168.44C546.66,-159.24 496.37,-144.56 461.51,-134.39"/>
<polygon fill="midnightblue" stroke="midnightblue" points="462.26,-130.96 451.68,-131.52 460.3,-137.68 462.26,-130.96"/>
</g>
<!-- Node6&#45;&gt;Node14 -->
<g id="edge19" class="edge">
<title>Node6&#45;&gt;Node14</title>
<path fill="none" stroke="midnightblue" d="M613.15,-168.37C625.03,-150.22 652.79,-107.8 668.38,-83.99"/>
<polygon fill="midnightblue" stroke="midnightblue" points="671.33,-85.88 673.88,-75.59 665.47,-82.04 671.33,-85.88"/>
</g>
<!-- Node9 -->
<g id="node9" class="node">
<title>Node9</title>
<g id="a_node9"><a xlink:title=" ">
<polygon fill="white" stroke="#bfbfbf" points="189.5,-56.5 189.5,-75.5 253.5,-75.5 253.5,-56.5 189.5,-56.5"/>
<text text-anchor="middle" x="221.5" y="-63.5" font-family="Helvetica,sans-Serif" font-size="10.00">algorithm</text>
</a>
</g>
</g>
<!-- Node8&#45;&gt;Node9 -->
<g id="edge8" class="edge">
<title>Node8&#45;&gt;Node9</title>
<path fill="none" stroke="midnightblue" d="M390.65,-112.44C356.1,-103.16 300.82,-88.31 262.92,-78.13"/>
<polygon fill="midnightblue" stroke="midnightblue" points="263.77,-74.73 253.2,-75.52 261.95,-81.49 263.77,-74.73"/>
</g>
<!-- Node10 -->
<g id="node10" class="node">
<title>Node10</title>
<g id="a_node10"><a xlink:title=" ">
<polygon fill="white" stroke="#bfbfbf" points="509.5,-0.5 509.5,-19.5 561.5,-19.5 561.5,-0.5 509.5,-0.5"/>
<text text-anchor="middle" x="535.5" y="-7.5" font-family="Helvetica,sans-Serif" font-size="10.00">cassert</text>
</a>
</g>
</g>
<!-- Node8&#45;&gt;Node10 -->
<g id="edge9" class="edge">
<title>Node8&#45;&gt;Node10</title>
<path fill="none" stroke="midnightblue" d="M463.37,-112.44C484.42,-105.93 508.71,-94.78 523.5,-76 533.81,-62.91 536.28,-43.76 536.5,-29.64"/>
<polygon fill="midnightblue" stroke="midnightblue" points="539.99,-29.52 536.29,-19.6 533,-29.67 539.99,-29.52"/>
</g>
<!-- Node11 -->
<g id="node11" class="node">
<title>Node11</title>
<g id="a_node11"><a xlink:title=" ">
<polygon fill="white" stroke="#bfbfbf" points="579.5,-0.5 579.5,-19.5 639.5,-19.5 639.5,-0.5 579.5,-0.5"/>
<text text-anchor="middle" x="609.5" y="-7.5" font-family="Helvetica,sans-Serif" font-size="10.00">iostream</text>
</a>
</g>
</g>
<!-- Node8&#45;&gt;Node11 -->
<g id="edge10" class="edge">
<title>Node8&#45;&gt;Node11</title>
<path fill="none" stroke="midnightblue" d="M456.03,-112.46C481.09,-105.15 515.52,-93.08 542.5,-76 563.56,-62.66 583.5,-41.89 596.06,-27.43"/>
<polygon fill="midnightblue" stroke="midnightblue" points="598.77,-29.64 602.56,-19.75 593.43,-25.12 598.77,-29.64"/>
</g>
<!-- Node12 -->
<g id="node12" class="node">
<title>Node12</title>
<g id="a_node12"><a xlink:title=" ">
<polygon fill="white" stroke="#bfbfbf" points="337,-0.5 337,-19.5 384,-19.5 384,-0.5 337,-0.5"/>
<text text-anchor="middle" x="360.5" y="-7.5" font-family="Helvetica,sans-Serif" font-size="10.00">vector</text>
</a>
</g>
</g>
<!-- Node8&#45;&gt;Node12 -->
<g id="edge11" class="edge">
<title>Node8&#45;&gt;Node12</title>
<path fill="none" stroke="midnightblue" d="M411.8,-112.45C402.05,-104.12 387.93,-90.6 379.5,-76 371.14,-61.52 366.21,-43.07 363.47,-29.53"/>
<polygon fill="midnightblue" stroke="midnightblue" points="366.88,-28.73 361.66,-19.51 359.99,-29.97 366.88,-28.73"/>
</g>
<!-- Node13 -->
<g id="node13" class="node">
<title>Node13</title>
<g id="a_node13"><a xlink:href="../../d1/d45/Constants_8h.html" target="_top" xlink:title="MyBLAS Constants definition.">
<polygon fill="white" stroke="black" points="388.5,-56.5 388.5,-75.5 514.5,-75.5 514.5,-56.5 388.5,-56.5"/>
<text text-anchor="middle" x="451.5" y="-63.5" font-family="Helvetica,sans-Serif" font-size="10.00">math/blas/Constants.h</text>
</a>
</g>
</g>
<!-- Node8&#45;&gt;Node13 -->
<g id="edge12" class="edge">
<title>Node8&#45;&gt;Node13</title>
<path fill="none" stroke="midnightblue" d="M427.29,-112.08C431.26,-104.69 437.03,-93.95 441.93,-84.81"/>
<polygon fill="midnightblue" stroke="midnightblue" points="445.15,-86.22 446.8,-75.75 438.99,-82.91 445.15,-86.22"/>
</g>
<!-- Node8&#45;&gt;Node14 -->
<g id="edge13" class="edge">
<title>Node8&#45;&gt;Node14</title>
<path fill="none" stroke="midnightblue" d="M463.22,-112.44C508.15,-103 580.5,-87.8 629,-77.61"/>
<polygon fill="midnightblue" stroke="midnightblue" points="629.9,-81 638.97,-75.52 628.46,-74.15 629.9,-81"/>
</g>
<!-- Node14&#45;&gt;Node10 -->
<g id="edge18" class="edge">
<title>Node14&#45;&gt;Node10</title>
<path fill="none" stroke="midnightblue" d="M656.68,-56.44C632.67,-47.44 594.67,-33.19 567.63,-23.05"/>
<polygon fill="midnightblue" stroke="midnightblue" points="568.8,-19.75 558.21,-19.52 566.34,-26.3 568.8,-19.75"/>
</g>
<!-- Node14&#45;&gt;Node11 -->
<g id="edge16" class="edge">
<title>Node14&#45;&gt;Node11</title>
<path fill="none" stroke="midnightblue" d="M668.25,-56.32C657.7,-48.18 641.7,-35.84 629.06,-26.09"/>
<polygon fill="midnightblue" stroke="midnightblue" points="631.01,-23.17 620.95,-19.83 626.73,-28.71 631.01,-23.17"/>
</g>
<!-- Node14&#45;&gt;Node12 -->
<g id="edge17" class="edge">
<title>Node14&#45;&gt;Node12</title>
<path fill="none" stroke="midnightblue" d="M628.95,-56.44C563.27,-45.32 450.35,-26.21 394.22,-16.71"/>
<polygon fill="midnightblue" stroke="midnightblue" points="394.54,-13.21 384.1,-15 393.38,-20.12 394.54,-13.21"/>
</g>
<!-- Node15 -->
<g id="node15" class="node">
<title>Node15</title>
<g id="a_node15"><a xlink:title=" ">
<polygon fill="white" stroke="#bfbfbf" points="732,-0.5 732,-19.5 797,-19.5 797,-0.5 732,-0.5"/>
<text text-anchor="middle" x="764.5" y="-7.5" font-family="Helvetica,sans-Serif" font-size="10.00">functional</text>
</a>
</g>
</g>
<!-- Node14&#45;&gt;Node15 -->
<g id="edge14" class="edge">
<title>Node14&#45;&gt;Node15</title>
<path fill="none" stroke="midnightblue" d="M693.16,-56.32C706.42,-47.9 726.77,-34.97 742.35,-25.07"/>
<polygon fill="midnightblue" stroke="midnightblue" points="744.31,-27.97 750.88,-19.65 740.56,-22.06 744.31,-27.97"/>
</g>
<!-- Node16 -->
<g id="node16" class="node">
<title>Node16</title>
<g id="a_node16"><a xlink:title=" ">
<polygon fill="white" stroke="#bfbfbf" points="657.5,-0.5 657.5,-19.5 713.5,-19.5 713.5,-0.5 657.5,-0.5"/>
<text text-anchor="middle" x="685.5" y="-7.5" font-family="Helvetica,sans-Serif" font-size="10.00">iomanip</text>
</a>
</g>
</g>
<!-- Node14&#45;&gt;Node16 -->
<g id="edge15" class="edge">
<title>Node14&#45;&gt;Node16</title>
<path fill="none" stroke="midnightblue" d="M680.49,-56.08C681.29,-48.93 682.43,-38.64 683.42,-29.69"/>
<polygon fill="midnightblue" stroke="midnightblue" points="686.9,-30.08 684.53,-19.75 679.94,-29.3 686.9,-30.08"/>
</g>
<!-- Node18&#45;&gt;Node6 -->
<g id="edge29" class="edge">
<title>Node18&#45;&gt;Node6</title>
<path fill="none" stroke="midnightblue" d="M361.15,-229.87C367.74,-227.81 374.85,-225.71 381.5,-224 436.8,-209.82 500.68,-197.47 546.38,-189.31"/>
<polygon fill="midnightblue" stroke="midnightblue" points="547.19,-192.72 556.43,-187.53 545.97,-185.83 547.19,-192.72"/>
</g>
<!-- Node18&#45;&gt;Node7 -->
<g id="edge25" class="edge">
<title>Node18&#45;&gt;Node7</title>
<path fill="none" stroke="midnightblue" d="M362.23,-229.98C368.54,-228 375.25,-225.91 381.5,-224 435.57,-207.5 453.24,-213.89 503.5,-188 528.99,-174.87 554.37,-153.46 570.23,-138.83"/>
<polygon fill="midnightblue" stroke="midnightblue" points="572.73,-141.28 577.6,-131.87 567.93,-136.19 572.73,-141.28"/>
</g>
<!-- Node18&#45;&gt;Node8 -->
<g id="edge30" class="edge">
<title>Node18&#45;&gt;Node8</title>
<path fill="none" stroke="midnightblue" d="M346.94,-229.8C358.7,-220.43 377.01,-204.62 389.5,-188 400.42,-173.47 409.47,-154.79 415.32,-141.18"/>
<polygon fill="midnightblue" stroke="midnightblue" points="418.72,-142.12 419.29,-131.54 412.24,-139.45 418.72,-142.12"/>
</g>
<!-- Node18&#45;&gt;Node9 -->
<g id="edge24" class="edge">
<title>Node18&#45;&gt;Node9</title>
<path fill="none" stroke="midnightblue" d="M309.16,-229.96C273.22,-218.04 212.57,-196.89 206.5,-188 185.11,-156.65 201.04,-109.86 212.51,-84.64"/>
<polygon fill="midnightblue" stroke="midnightblue" points="215.7,-86.06 216.88,-75.53 209.39,-83.03 215.7,-86.06"/>
</g>
<!-- Node18&#45;&gt;Node12 -->
<g id="edge28" class="edge">
<title>Node18&#45;&gt;Node12</title>
<path fill="none" stroke="midnightblue" d="M340.09,-229.87C345.03,-220.05 352.57,-203.38 355.5,-188 357.17,-179.27 357.14,-176.74 355.5,-168 352.33,-151.13 344.67,-148.87 341.5,-132 339.86,-123.26 340.67,-120.85 341.5,-112 344.21,-82.91 351.23,-49.7 355.93,-29.55"/>
<polygon fill="midnightblue" stroke="midnightblue" points="359.4,-30.11 358.33,-19.57 352.59,-28.48 359.4,-30.11"/>
</g>
<!-- Node18&#45;&gt;Node14 -->
<g id="edge31" class="edge">
<title>Node18&#45;&gt;Node14</title>
<path fill="none" stroke="midnightblue" d="M348.32,-229.93C381.29,-208.16 472.13,-149.75 553.5,-112 582.15,-98.71 615.9,-86.84 641.26,-78.64"/>
<polygon fill="midnightblue" stroke="midnightblue" points="642.42,-81.94 650.89,-75.57 640.29,-75.27 642.42,-81.94"/>
</g>
<!-- Node19 -->
<g id="node19" class="node">
<title>Node19</title>
<g id="a_node19"><a xlink:title=" ">
<polygon fill="white" stroke="#bfbfbf" points="215.5,-168.5 215.5,-187.5 271.5,-187.5 271.5,-168.5 215.5,-168.5"/>
<text text-anchor="middle" x="243.5" y="-175.5" font-family="Helvetica,sans-Serif" font-size="10.00">numeric</text>
</a>
</g>
</g>
<!-- Node18&#45;&gt;Node19 -->
<g id="edge26" class="edge">
<title>Node18&#45;&gt;Node19</title>
<path fill="none" stroke="midnightblue" d="M322.32,-229.98C307.43,-220.34 282.96,-204.52 265.23,-193.05"/>
<polygon fill="midnightblue" stroke="midnightblue" points="266.95,-190 256.66,-187.51 263.15,-195.88 266.95,-190"/>
</g>
<!-- Node20 -->
<g id="node20" class="node">
<title>Node20</title>
<g id="a_node20"><a xlink:title=" ">
<polygon fill="white" stroke="#bfbfbf" points="290,-168.5 290,-187.5 347,-187.5 347,-168.5 290,-168.5"/>
<text text-anchor="middle" x="318.5" y="-175.5" font-family="Helvetica,sans-Serif" font-size="10.00">ostream</text>
</a>
</g>
</g>
<!-- Node18&#45;&gt;Node20 -->
<g id="edge27" class="edge">
<title>Node18&#45;&gt;Node20</title>
<path fill="none" stroke="midnightblue" d="M333.06,-229.98C330.64,-221.49 326.84,-208.2 323.73,-197.32"/>
<polygon fill="midnightblue" stroke="midnightblue" points="327.04,-196.16 320.93,-187.51 320.31,-198.09 327.04,-196.16"/>
</g>
</g>
</svg>
        <g id="navigator" transform="translate(0 0)" fill="#404254">
                <rect fill="#f2f5e9" fill-opacity="0.5" stroke="#606060" stroke-width=".5" x="0" y="0" width="60" height="60"/>
                <use id="zoomplus" xlink:href="#zoomPlus" x="17" y="9" onmousedown="handleZoom(evt,'in')"/>
                <use id="zoomminus" xlink:href="#zoomMin" x="42" y="9" onmousedown="handleZoom(evt,'out')"/>
                <use id="reset" xlink:href="#resetDef" x="30" y="36" onmousedown="handleReset()"/>
                <g id="arrowUp" xlink:href="#dirArrow" transform="translate(30 24)" onmousedown="handlePan(0,-1)">
                  <use xlink:href="#rim" fill="#404040">
                        <set attributeName="fill" to="#808080" begin="arrowUp.mouseover" end="arrowUp.mouseout"/>
                  </use>
                  <path fill="none" stroke="white" stroke-width="1.5" d="M0,-3.0v7 M-2.5,-0.5L0,-3.0L2.5,-0.5"/>
                </g>
                <g id="arrowRight" xlink:href="#dirArrow" transform="rotate(90) translate(36 -43)" onmousedown="handlePan(1,0)">
                  <use xlink:href="#rim" fill="#404040">
                        <set attributeName="fill" to="#808080" begin="arrowRight.mouseover" end="arrowRight.mouseout"/>
                  </use>
                  <path fill="none" stroke="white" stroke-width="1.5" d="M0,-3.0v7 M-2.5,-0.5L0,-3.0L2.5,-0.5"/>
                </g>
                <g id="arrowDown" xlink:href="#dirArrow" transform="rotate(180) translate(-30 -48)" onmousedown="handlePan(0,1)">
                  <use xlink:href="#rim" fill="#404040">
                        <set attributeName="fill" to="#808080" begin="arrowDown.mouseover" end="arrowDown.mouseout"/>
                  </use>
                  <path fill="none" stroke="white" stroke-width="1.5" d="M0,-3.0v7 M-2.5,-0.5L0,-3.0L2.5,-0.5"/>
                </g>
                <g id="arrowLeft" xlink:href="#dirArrow" transform="rotate(270) translate(-36 17)" onmousedown="handlePan(-1,0)">
                  <use xlink:href="#rim" fill="#404040">
                        <set attributeName="fill" to="#808080" begin="arrowLeft.mouseover" end="arrowLeft.mouseout"/>
                  </use>
                  <path fill="none" stroke="white" stroke-width="1.5" d="M0,-3.0v7 M-2.5,-0.5L0,-3.0L2.5,-0.5"/>
                </g>
        </g>
        <svg viewBox="0 0 15 15" width="100%" height="30px" preserveAspectRatio="xMaxYMin meet">
         <g id="arrow_out" transform="scale(0.3 0.3)">
          <a xlink:href="labs_2inlab6_2InputsOutputs_8h__incl_org.svg" target="_base">
           <rect id="button" ry="5" rx="5" y="6" x="6" height="38" width="38"
                fill="#f2f5e9" fill-opacity="0.5" stroke="#606060" stroke-width="1.0"/>
           <path id="arrow"
             d="M 11.500037,31.436501 C 11.940474,20.09759 22.043105,11.32322 32.158766,21.979434 L 37.068811,17.246167 C 37.068811,17.246167 37.088388,32 37.088388,32 L 22.160133,31.978069 C 22.160133,31.978069 26.997745,27.140456 26.997745,27.140456 C 18.528582,18.264221 13.291696,25.230495 11.500037,31.436501 z"
             style="fill:#404040;"/>
          </a>
         </g>
        </svg>
</svg>
