<?xml version="1.0" encoding="UTF-8" standalone="no"?>
<!DOCTYPE svg PUBLIC "-//W3C//DTD SVG 1.1//EN"
 "http://www.w3.org/Graphics/SVG/1.1/DTD/svg11.dtd">
<!-- Generated by graphviz version 2.43.0 (0)
 -->
<!-- Title: src/labs/inlab6/InputsOutputs.h Pages: 1 -->
<svg width="970pt" height="565pt"
 viewBox="0.00 0.00 970.00 565.00" xmlns="http://www.w3.org/2000/svg" xmlns:xlink="http://www.w3.org/1999/xlink">
<g id="graph0" class="graph" transform="scale(1 1) rotate(0) translate(4 561)">
<title>src/labs/inlab6/InputsOutputs.h</title>
<polygon fill="white" stroke="transparent" points="-4,4 -4,-561 966,-561 966,4 -4,4"/>
<!-- Node1 -->
<g id="node1" class="node">
<title>Node1</title>
<g id="a_node1"><a xlink:title="This file contains the input and output definitions for this project.">
<polygon fill="#bfbfbf" stroke="black" points="387,-537.5 387,-556.5 554,-556.5 554,-537.5 387,-537.5"/>
<text text-anchor="middle" x="470.5" y="-544.5" font-family="Helvetica,sans-Serif" font-size="10.00">src/labs/inlab6/InputsOutputs.h</text>
</a>
</g>
</g>
<!-- Node2 -->
<g id="node2" class="node">
<title>Node2</title>
<g id="a_node2"><a xlink:title=" ">
<polygon fill="white" stroke="#bfbfbf" points="0,-481.5 0,-500.5 45,-500.5 45,-481.5 0,-481.5"/>
<text text-anchor="middle" x="22.5" y="-488.5" font-family="Helvetica,sans-Serif" font-size="10.00">utility</text>
</a>
</g>
</g>
<!-- Node1&#45;&gt;Node2 -->
<g id="edge1" class="edge">
<title>Node1&#45;&gt;Node2</title>
<path fill="none" stroke="midnightblue" d="M386.61,-540.02C303.23,-533.32 171.91,-520.74 59.5,-501 58.03,-500.74 56.54,-500.46 55.04,-500.16"/>
<polygon fill="midnightblue" stroke="midnightblue" points="55.62,-496.71 45.1,-497.99 54.12,-503.54 55.62,-496.71"/>
</g>
<!-- Node3 -->
<g id="node3" class="node">
<title>Node3</title>
<g id="a_node3"><a xlink:title=" ">
<polygon fill="white" stroke="#bfbfbf" points="101.5,-358.5 101.5,-377.5 159.5,-377.5 159.5,-358.5 101.5,-358.5"/>
<text text-anchor="middle" x="130.5" y="-365.5" font-family="Helvetica,sans-Serif" font-size="10.00">json.hpp</text>
</a>
</g>
</g>
<!-- Node1&#45;&gt;Node3 -->
<g id="edge2" class="edge">
<title>Node1&#45;&gt;Node3</title>
<path fill="none" stroke="midnightblue" d="M454.1,-537.46C399.36,-508.96 222.61,-416.95 156.12,-382.34"/>
<polygon fill="midnightblue" stroke="midnightblue" points="157.62,-379.17 147.13,-377.66 154.39,-385.38 157.62,-379.17"/>
</g>
<!-- Node4 -->
<g id="node4" class="node">
<title>Node4</title>
<g id="a_node4"><a xlink:href="../../df/dbd/LinearSolver_8h.html" target="_top" xlink:title="This file contains the definition of the LinearSolver class and its associated methods.">
<polygon fill="white" stroke="black" points="413.5,-481.5 413.5,-500.5 527.5,-500.5 527.5,-481.5 413.5,-481.5"/>
<text text-anchor="middle" x="470.5" y="-488.5" font-family="Helvetica,sans-Serif" font-size="10.00">math/LinearSolver.h</text>
</a>
</g>
</g>
<!-- Node1&#45;&gt;Node4 -->
<g id="edge3" class="edge">
<title>Node1&#45;&gt;Node4</title>
<path fill="none" stroke="midnightblue" d="M470.5,-537.08C470.5,-530.01 470.5,-519.86 470.5,-510.99"/>
<polygon fill="midnightblue" stroke="midnightblue" points="474,-510.75 470.5,-500.75 467,-510.75 474,-510.75"/>
</g>
<!-- Node6 -->
<g id="node6" class="node">
<title>Node6</title>
<g id="a_node6"><a xlink:href="../../d1/d80/BLAS_8h.html" target="_top" xlink:title=" ">
<polygon fill="white" stroke="black" points="568,-358.5 568,-377.5 671,-377.5 671,-358.5 568,-358.5"/>
<text text-anchor="middle" x="619.5" y="-365.5" font-family="Helvetica,sans-Serif" font-size="10.00">math/blas/BLAS.h</text>
</a>
</g>
</g>
<!-- Node1&#45;&gt;Node6 -->
<g id="edge57" class="edge">
<title>Node1&#45;&gt;Node6</title>
<path fill="none" stroke="midnightblue" d="M554.1,-541.74C621.55,-533.37 712.53,-509.84 758.5,-445 782.78,-410.75 728.69,-390.33 681.05,-379.41"/>
<polygon fill="midnightblue" stroke="midnightblue" points="681.53,-375.94 671.02,-377.23 680.04,-382.78 681.53,-375.94"/>
</g>
<!-- Node9 -->
<g id="node9" class="node">
<title>Node9</title>
<g id="a_node9"><a xlink:href="../../d3/db1/Matrix_8h.html" target="_top" xlink:title="Header file for the MyBLAS::Matrix class.">
<polygon fill="white" stroke="black" points="241.5,-241 241.5,-260 385.5,-260 385.5,-241 241.5,-241"/>
<text text-anchor="middle" x="313.5" y="-248" font-family="Helvetica,sans-Serif" font-size="10.00">math/blas/matrix/Matrix.h</text>
</a>
</g>
</g>
<!-- Node1&#45;&gt;Node9 -->
<g id="edge58" class="edge">
<title>Node1&#45;&gt;Node9</title>
<path fill="none" stroke="midnightblue" d="M393.73,-537.45C302.84,-522.68 155.83,-483.01 92.5,-378 52.82,-312.2 168.9,-277.43 247.52,-261.9"/>
<polygon fill="midnightblue" stroke="midnightblue" points="248.23,-265.32 257.39,-260.01 246.91,-258.45 248.23,-265.32"/>
</g>
<!-- Node16 -->
<g id="node16" class="node">
<title>Node16</title>
<g id="a_node16"><a xlink:href="../../d6/dbe/Vector_8h.html" target="_top" xlink:title="Header file for the MyBLAS::Vector class.">
<polygon fill="white" stroke="black" points="617,-179.5 617,-198.5 758,-198.5 758,-179.5 617,-179.5"/>
<text text-anchor="middle" x="687.5" y="-186.5" font-family="Helvetica,sans-Serif" font-size="10.00">math/blas/vector/Vector.h</text>
</a>
</g>
</g>
<!-- Node1&#45;&gt;Node16 -->
<g id="edge59" class="edge">
<title>Node1&#45;&gt;Node16</title>
<path fill="none" stroke="midnightblue" d="M554.25,-542.62C690.1,-534.84 943.5,-509.69 943.5,-430.5 943.5,-430.5 943.5,-430.5 943.5,-311 943.5,-232.2 843.12,-204.64 768.07,-195.05"/>
<polygon fill="midnightblue" stroke="midnightblue" points="768.48,-191.57 758.13,-193.86 767.65,-198.52 768.48,-191.57"/>
</g>
<!-- Node29 -->
<g id="node29" class="node">
<title>Node29</title>
<g id="a_node29"><a xlink:href="../../d0/d24/RelaxationMethods_8h.html" target="_top" xlink:title="This file contains the declaration of the RelaxationMethods namespace, which includes the Type enumer...">
<polygon fill="white" stroke="black" points="599.5,-414.5 599.5,-444.5 749.5,-444.5 749.5,-414.5 599.5,-414.5"/>
<text text-anchor="start" x="607.5" y="-432.5" font-family="Helvetica,sans-Serif" font-size="10.00">math/relaxation/Relaxation</text>
<text text-anchor="middle" x="674.5" y="-421.5" font-family="Helvetica,sans-Serif" font-size="10.00">Methods.h</text>
</a>
</g>
</g>
<!-- Node1&#45;&gt;Node29 -->
<g id="edge60" class="edge">
<title>Node1&#45;&gt;Node29</title>
<path fill="none" stroke="midnightblue" d="M485.83,-537.32C518.6,-518.77 596.11,-474.88 640.92,-449.51"/>
<polygon fill="midnightblue" stroke="midnightblue" points="642.72,-452.52 649.69,-444.55 639.27,-446.43 642.72,-452.52"/>
</g>
<!-- Node5 -->
<g id="node5" class="node">
<title>Node5</title>
<g id="a_node5"><a xlink:href="../../d1/d6a/Factorize_8h.html" target="_top" xlink:title="This file contains the declaration of the MyFactorizationMethod namespace, which includes methods and...">
<polygon fill="white" stroke="black" points="474,-414.5 474,-444.5 581,-444.5 581,-414.5 474,-414.5"/>
<text text-anchor="start" x="482" y="-432.5" font-family="Helvetica,sans-Serif" font-size="10.00">math/factorization</text>
<text text-anchor="middle" x="527.5" y="-421.5" font-family="Helvetica,sans-Serif" font-size="10.00">/Factorize.h</text>
</a>
</g>
</g>
<!-- Node4&#45;&gt;Node5 -->
<g id="edge4" class="edge">
<title>Node4&#45;&gt;Node5</title>
<path fill="none" stroke="midnightblue" d="M478.67,-481.48C486.03,-473.79 497.16,-462.17 506.94,-451.96"/>
<polygon fill="midnightblue" stroke="midnightblue" points="509.68,-454.17 514.07,-444.52 504.62,-449.32 509.68,-454.17"/>
</g>
<!-- Node4&#45;&gt;Node29 -->
<g id="edge45" class="edge">
<title>Node4&#45;&gt;Node29</title>
<path fill="none" stroke="midnightblue" d="M499.73,-481.48C530.07,-472.63 578.33,-458.55 616.46,-447.43"/>
<polygon fill="midnightblue" stroke="midnightblue" points="617.8,-450.68 626.42,-444.52 615.84,-443.96 617.8,-450.68"/>
</g>
<!-- Node30 -->
<g id="node30" class="node">
<title>Node30</title>
<g id="a_node30"><a xlink:href="../../dc/d09/Stats_8h.html" target="_top" xlink:title="This file contains the declaration of statistical functions and structures for vectors and matrices.">
<polygon fill="white" stroke="black" points="312.5,-420 312.5,-439 386.5,-439 386.5,-420 312.5,-420"/>
<text text-anchor="middle" x="349.5" y="-427" font-family="Helvetica,sans-Serif" font-size="10.00">blas/Stats.h</text>
</a>
</g>
</g>
<!-- Node4&#45;&gt;Node30 -->
<g id="edge46" class="edge">
<title>Node4&#45;&gt;Node30</title>
<path fill="none" stroke="midnightblue" d="M453.16,-481.48C432.95,-471.53 399.31,-454.99 375.86,-443.46"/>
<polygon fill="midnightblue" stroke="midnightblue" points="377.32,-440.28 366.8,-439.01 374.23,-446.56 377.32,-440.28"/>
</g>
<!-- Node33 -->
<g id="node33" class="node">
<title>Node33</title>
<g id="a_node33"><a xlink:title=" ">
<polygon fill="white" stroke="#bfbfbf" points="405,-420 405,-439 456,-439 456,-420 405,-420"/>
<text text-anchor="middle" x="430.5" y="-427" font-family="Helvetica,sans-Serif" font-size="10.00">variant</text>
</a>
</g>
</g>
<!-- Node4&#45;&gt;Node33 -->
<g id="edge56" class="edge">
<title>Node4&#45;&gt;Node33</title>
<path fill="none" stroke="midnightblue" d="M464.77,-481.48C458.83,-472.64 449.38,-458.59 441.91,-447.48"/>
<polygon fill="midnightblue" stroke="midnightblue" points="444.7,-445.36 436.22,-439.01 438.89,-449.26 444.7,-445.36"/>
</g>
<!-- Node5&#45;&gt;Node6 -->
<g id="edge5" class="edge">
<title>Node5&#45;&gt;Node6</title>
<path fill="none" stroke="midnightblue" d="M549.3,-414.4C563.91,-404.95 583.07,-392.56 597.68,-383.11"/>
<polygon fill="midnightblue" stroke="midnightblue" points="599.62,-386.03 606.11,-377.66 595.82,-380.15 599.62,-386.03"/>
</g>
<!-- Node5&#45;&gt;Node9 -->
<g id="edge43" class="edge">
<title>Node5&#45;&gt;Node9</title>
<path fill="none" stroke="midnightblue" d="M510.35,-414.31C470.72,-381.54 373.05,-300.76 332.07,-266.86"/>
<polygon fill="midnightblue" stroke="midnightblue" points="334.17,-264.05 324.23,-260.37 329.7,-269.44 334.17,-264.05"/>
</g>
<!-- Node5&#45;&gt;Node16 -->
<g id="edge44" class="edge">
<title>Node5&#45;&gt;Node16</title>
<path fill="none" stroke="midnightblue" d="M574.22,-414.48C604.54,-405.01 644.73,-391.77 679.5,-378 761.9,-345.36 815.53,-349.76 844.5,-266 849,-252.98 852.79,-246 844.5,-235 833.03,-219.77 790.28,-208.13 752.29,-200.5"/>
<polygon fill="midnightblue" stroke="midnightblue" points="752.72,-197.02 742.24,-198.55 751.39,-203.89 752.72,-197.02"/>
</g>
<!-- Node7 -->
<g id="node7" class="node">
<title>Node7</title>
<g id="a_node7"><a xlink:title=" ">
<polygon fill="white" stroke="#bfbfbf" points="544,-302.5 544,-321.5 591,-321.5 591,-302.5 544,-302.5"/>
<text text-anchor="middle" x="567.5" y="-309.5" font-family="Helvetica,sans-Serif" font-size="10.00">cmath</text>
</a>
</g>
</g>
<!-- Node6&#45;&gt;Node7 -->
<g id="edge6" class="edge">
<title>Node6&#45;&gt;Node7</title>
<path fill="none" stroke="midnightblue" d="M610.91,-358.08C603.34,-350.22 592.12,-338.57 582.99,-329.08"/>
<polygon fill="midnightblue" stroke="midnightblue" points="585.38,-326.53 575.93,-321.75 580.34,-331.38 585.38,-326.53"/>
</g>
<!-- Node8 -->
<g id="node8" class="node">
<title>Node8</title>
<g id="a_node8"><a xlink:href="../../d4/d8a/Ops_8h.html" target="_top" xlink:title="This file contains the definition of the L2Norm function, which calculates the L2 norm (Euclidean dis...">
<polygon fill="white" stroke="black" points="647.5,-302.5 647.5,-321.5 743.5,-321.5 743.5,-302.5 647.5,-302.5"/>
<text text-anchor="middle" x="695.5" y="-309.5" font-family="Helvetica,sans-Serif" font-size="10.00">math/blas/Ops.h</text>
</a>
</g>
</g>
<!-- Node6&#45;&gt;Node8 -->
<g id="edge7" class="edge">
<title>Node6&#45;&gt;Node8</title>
<path fill="none" stroke="midnightblue" d="M631.71,-358.32C643.28,-350.11 660.88,-337.6 674.66,-327.81"/>
<polygon fill="midnightblue" stroke="midnightblue" points="676.94,-330.48 683.07,-321.83 672.89,-324.77 676.94,-330.48"/>
</g>
<!-- Node6&#45;&gt;Node9 -->
<g id="edge41" class="edge">
<title>Node6&#45;&gt;Node9</title>
<path fill="none" stroke="midnightblue" d="M619.52,-358.34C619.06,-344.26 615.96,-316.54 599.5,-302 584.12,-288.42 472.66,-271.69 393.52,-261.31"/>
<polygon fill="midnightblue" stroke="midnightblue" points="393.92,-257.83 383.56,-260.01 393.02,-264.77 393.92,-257.83"/>
</g>
<!-- Node6&#45;&gt;Node16 -->
<g id="edge42" class="edge">
<title>Node6&#45;&gt;Node16</title>
<path fill="none" stroke="midnightblue" d="M671.25,-359.66C722.8,-349.14 798.35,-324.14 827.5,-266 833.67,-253.68 835.62,-246.13 827.5,-235 813.42,-215.68 790.91,-204.48 768.03,-198.03"/>
<polygon fill="midnightblue" stroke="midnightblue" points="768.77,-194.61 758.22,-195.55 767.06,-201.4 768.77,-194.61"/>
</g>
<!-- Node8&#45;&gt;Node9 -->
<g id="edge8" class="edge">
<title>Node8&#45;&gt;Node9</title>
<path fill="none" stroke="midnightblue" d="M647.12,-303.46C578.91,-292.84 454.32,-273.43 378.22,-261.58"/>
<polygon fill="midnightblue" stroke="midnightblue" points="378.69,-258.11 368.27,-260.03 377.61,-265.03 378.69,-258.11"/>
</g>
<!-- Node8&#45;&gt;Node16 -->
<g id="edge37" class="edge">
<title>Node8&#45;&gt;Node16</title>
<path fill="none" stroke="midnightblue" d="M743.74,-304.96C768.06,-299.2 795.51,-287.96 810.5,-266 818.27,-254.62 818.39,-246.29 810.5,-235 799.08,-218.66 781.05,-208.23 762.28,-201.59"/>
<polygon fill="midnightblue" stroke="midnightblue" points="763.32,-198.24 752.73,-198.53 761.19,-204.91 763.32,-198.24"/>
</g>
<!-- Node26 -->
<g id="node26" class="node">
<title>Node26</title>
<g id="a_node26"><a xlink:title=" ">
<polygon fill="white" stroke="#bfbfbf" points="479.5,-235.5 479.5,-265.5 595.5,-265.5 595.5,-235.5 479.5,-235.5"/>
<text text-anchor="start" x="487.5" y="-253.5" font-family="Helvetica,sans-Serif" font-size="10.00">boost/numeric/ublas</text>
<text text-anchor="middle" x="537.5" y="-242.5" font-family="Helvetica,sans-Serif" font-size="10.00">/io.hpp</text>
</a>
</g>
</g>
<!-- Node8&#45;&gt;Node26 -->
<g id="edge38" class="edge">
<title>Node8&#45;&gt;Node26</title>
<path fill="none" stroke="midnightblue" d="M672.86,-302.48C649.86,-293.81 613.57,-280.15 584.35,-269.14"/>
<polygon fill="midnightblue" stroke="midnightblue" points="585.33,-265.77 574.74,-265.52 582.86,-272.32 585.33,-265.77"/>
</g>
<!-- Node27 -->
<g id="node27" class="node">
<title>Node27</title>
<g id="a_node27"><a xlink:title=" ">
<polygon fill="white" stroke="#bfbfbf" points="613.5,-235.5 613.5,-265.5 729.5,-265.5 729.5,-235.5 613.5,-235.5"/>
<text text-anchor="start" x="621.5" y="-253.5" font-family="Helvetica,sans-Serif" font-size="10.00">boost/numeric/ublas</text>
<text text-anchor="middle" x="671.5" y="-242.5" font-family="Helvetica,sans-Serif" font-size="10.00">/matrix.hpp</text>
</a>
</g>
</g>
<!-- Node8&#45;&gt;Node27 -->
<g id="edge39" class="edge">
<title>Node8&#45;&gt;Node27</title>
<path fill="none" stroke="midnightblue" d="M692.06,-302.48C689.18,-295.32 684.91,-284.75 681.01,-275.08"/>
<polygon fill="midnightblue" stroke="midnightblue" points="684.14,-273.49 677.16,-265.52 677.65,-276.11 684.14,-273.49"/>
</g>
<!-- Node28 -->
<g id="node28" class="node">
<title>Node28</title>
<g id="a_node28"><a xlink:title=" ">
<polygon fill="white" stroke="#bfbfbf" points="747.5,-241 747.5,-260 801.5,-260 801.5,-241 747.5,-241"/>
<text text-anchor="middle" x="774.5" y="-248" font-family="Helvetica,sans-Serif" font-size="10.00">random</text>
</a>
</g>
</g>
<!-- Node8&#45;&gt;Node28 -->
<g id="edge40" class="edge">
<title>Node8&#45;&gt;Node28</title>
<path fill="none" stroke="midnightblue" d="M706.82,-302.48C719.37,-293.02 739.85,-277.6 755,-266.19"/>
<polygon fill="midnightblue" stroke="midnightblue" points="757.32,-268.82 763.2,-260.01 753.11,-263.23 757.32,-268.82"/>
</g>
<!-- Node10 -->
<g id="node10" class="node">
<title>Node10</title>
<g id="a_node10"><a xlink:title=" ">
<polygon fill="white" stroke="#bfbfbf" points="247.5,-62 247.5,-81 311.5,-81 311.5,-62 247.5,-62"/>
<text text-anchor="middle" x="279.5" y="-69" font-family="Helvetica,sans-Serif" font-size="10.00">algorithm</text>
</a>
</g>
</g>
<!-- Node9&#45;&gt;Node10 -->
<g id="edge9" class="edge">
<title>Node9&#45;&gt;Node10</title>
<path fill="none" stroke="midnightblue" d="M302.91,-240.93C283.48,-224.42 242.7,-186.02 227.5,-143 219.75,-121.06 239.83,-100.17 257.24,-86.91"/>
<polygon fill="midnightblue" stroke="midnightblue" points="259.35,-89.7 265.45,-81.04 255.28,-84.01 259.35,-89.7"/>
</g>
<!-- Node11 -->
<g id="node11" class="node">
<title>Node11</title>
<g id="a_node11"><a xlink:title=" ">
<polygon fill="white" stroke="#bfbfbf" points="236.5,-123.5 236.5,-142.5 288.5,-142.5 288.5,-123.5 236.5,-123.5"/>
<text text-anchor="middle" x="262.5" y="-130.5" font-family="Helvetica,sans-Serif" font-size="10.00">cassert</text>
</a>
</g>
</g>
<!-- Node9&#45;&gt;Node11 -->
<g id="edge10" class="edge">
<title>Node9&#45;&gt;Node11</title>
<path fill="none" stroke="midnightblue" d="M309.67,-240.82C301.36,-222.01 281.55,-177.15 270.43,-151.96"/>
<polygon fill="midnightblue" stroke="midnightblue" points="273.62,-150.52 266.38,-142.78 267.22,-153.34 273.62,-150.52"/>
</g>
<!-- Node12 -->
<g id="node12" class="node">
<title>Node12</title>
<g id="a_node12"><a xlink:title=" ">
<polygon fill="white" stroke="#bfbfbf" points="306.5,-123.5 306.5,-142.5 366.5,-142.5 366.5,-123.5 306.5,-123.5"/>
<text text-anchor="middle" x="336.5" y="-130.5" font-family="Helvetica,sans-Serif" font-size="10.00">iostream</text>
</a>
</g>
</g>
<!-- Node9&#45;&gt;Node12 -->
<g id="edge11" class="edge">
<title>Node9&#45;&gt;Node12</title>
<path fill="none" stroke="midnightblue" d="M312.83,-240.67C312.04,-227.18 311.41,-200.71 316.5,-179 318.7,-169.64 322.82,-159.81 326.76,-151.74"/>
<polygon fill="midnightblue" stroke="midnightblue" points="330,-153.11 331.49,-142.62 323.78,-149.89 330,-153.11"/>
</g>
<!-- Node13 -->
<g id="node13" class="node">
<title>Node13</title>
<g id="a_node13"><a xlink:title=" ">
<polygon fill="white" stroke="#bfbfbf" points="548,-123.5 548,-142.5 595,-142.5 595,-123.5 548,-123.5"/>
<text text-anchor="middle" x="571.5" y="-130.5" font-family="Helvetica,sans-Serif" font-size="10.00">vector</text>
</a>
</g>
</g>
<!-- Node9&#45;&gt;Node13 -->
<g id="edge12" class="edge">
<title>Node9&#45;&gt;Node13</title>
<path fill="none" stroke="midnightblue" d="M365.32,-240.98C402.5,-233.46 453,-220.3 493.5,-199 517.72,-186.26 541.25,-165.07 556.02,-150.36"/>
<polygon fill="midnightblue" stroke="midnightblue" points="558.78,-152.54 563.27,-142.95 553.78,-147.65 558.78,-152.54"/>
</g>
<!-- Node14 -->
<g id="node14" class="node">
<title>Node14</title>
<g id="a_node14"><a xlink:title=" ">
<polygon fill="white" stroke="#bfbfbf" points="133.5,-62 133.5,-81 219.5,-81 219.5,-62 133.5,-62"/>
<text text-anchor="middle" x="176.5" y="-69" font-family="Helvetica,sans-Serif" font-size="10.00">unordered_set</text>
</a>
</g>
</g>
<!-- Node9&#45;&gt;Node14 -->
<g id="edge13" class="edge">
<title>Node9&#45;&gt;Node14</title>
<path fill="none" stroke="midnightblue" d="M297.71,-240.98C282.36,-232.1 259.15,-216.97 243.5,-199 214.24,-165.4 193.1,-116.81 183.06,-90.71"/>
<polygon fill="midnightblue" stroke="midnightblue" points="186.32,-89.45 179.55,-81.31 179.77,-91.9 186.32,-89.45"/>
</g>
<!-- Node15 -->
<g id="node15" class="node">
<title>Node15</title>
<g id="a_node15"><a xlink:href="../../d1/d45/Constants_8h.html" target="_top" xlink:title="MyBLAS Constants definition.">
<polygon fill="white" stroke="black" points="358.5,-179.5 358.5,-198.5 484.5,-198.5 484.5,-179.5 358.5,-179.5"/>
<text text-anchor="middle" x="421.5" y="-186.5" font-family="Helvetica,sans-Serif" font-size="10.00">math/blas/Constants.h</text>
</a>
</g>
</g>
<!-- Node9&#45;&gt;Node15 -->
<g id="edge14" class="edge">
<title>Node9&#45;&gt;Node15</title>
<path fill="none" stroke="midnightblue" d="M328.97,-240.98C346.78,-231.17 376.24,-214.93 397.13,-203.42"/>
<polygon fill="midnightblue" stroke="midnightblue" points="398.99,-206.4 406.05,-198.51 395.61,-200.27 398.99,-206.4"/>
</g>
<!-- Node9&#45;&gt;Node16 -->
<g id="edge15" class="edge">
<title>Node9&#45;&gt;Node16</title>
<path fill="none" stroke="midnightblue" d="M367.09,-240.98C434.99,-230.17 551.86,-211.58 624.12,-200.08"/>
<polygon fill="midnightblue" stroke="midnightblue" points="624.69,-203.54 634.01,-198.51 623.59,-196.62 624.69,-203.54"/>
</g>
<!-- Node24 -->
<g id="node24" class="node">
<title>Node24</title>
<g id="a_node24"><a xlink:href="../../dc/dc5/ResourceMonitor_8h.html" target="_top" xlink:title="Header file for the ResourceMonitor class.">
<polygon fill="white" stroke="black" points="385,-123.5 385,-142.5 530,-142.5 530,-123.5 385,-123.5"/>
<text text-anchor="middle" x="457.5" y="-130.5" font-family="Helvetica,sans-Serif" font-size="10.00">profiler/ResourceMonitor.h</text>
</a>
</g>
</g>
<!-- Node9&#45;&gt;Node24 -->
<g id="edge36" class="edge">
<title>Node9&#45;&gt;Node24</title>
<path fill="none" stroke="midnightblue" d="M315.76,-240.93C320.01,-226.34 330.54,-196.55 349.5,-179 366.55,-163.22 389.93,-152.56 410.57,-145.59"/>
<polygon fill="midnightblue" stroke="midnightblue" points="411.67,-148.91 420.14,-142.55 409.55,-142.24 411.67,-148.91"/>
</g>
<!-- Node16&#45;&gt;Node11 -->
<g id="edge16" class="edge">
<title>Node16&#45;&gt;Node11</title>
<path fill="none" stroke="midnightblue" d="M616.97,-182.78C540.74,-176.49 415.58,-164.25 298.96,-143.05"/>
<polygon fill="midnightblue" stroke="midnightblue" points="299.26,-139.54 288.79,-141.17 297.99,-146.43 299.26,-139.54"/>
</g>
<!-- Node16&#45;&gt;Node12 -->
<g id="edge19" class="edge">
<title>Node16&#45;&gt;Node12</title>
<path fill="none" stroke="midnightblue" d="M616.9,-179.53C555.78,-171.8 464.8,-159.37 376.59,-143.08"/>
<polygon fill="midnightblue" stroke="midnightblue" points="377.15,-139.62 366.68,-141.23 375.87,-146.5 377.15,-139.62"/>
</g>
<!-- Node16&#45;&gt;Node13 -->
<g id="edge20" class="edge">
<title>Node16&#45;&gt;Node13</title>
<path fill="none" stroke="midnightblue" d="M669.12,-179.44C650.28,-170.68 620.77,-156.94 599.12,-146.86"/>
<polygon fill="midnightblue" stroke="midnightblue" points="600.34,-143.56 589.79,-142.52 597.38,-149.91 600.34,-143.56"/>
</g>
<!-- Node17 -->
<g id="node17" class="node">
<title>Node17</title>
<g id="a_node17"><a xlink:title=" ">
<polygon fill="white" stroke="#bfbfbf" points="897,-62 897,-81 962,-81 962,-62 897,-62"/>
<text text-anchor="middle" x="929.5" y="-69" font-family="Helvetica,sans-Serif" font-size="10.00">functional</text>
</a>
</g>
</g>
<!-- Node16&#45;&gt;Node17 -->
<g id="edge17" class="edge">
<title>Node16&#45;&gt;Node17</title>
<path fill="none" stroke="midnightblue" d="M705.69,-179.32C747.84,-159.2 852.38,-109.31 902.22,-85.52"/>
<polygon fill="midnightblue" stroke="midnightblue" points="903.91,-88.59 911.43,-81.12 900.9,-82.27 903.91,-88.59"/>
</g>
<!-- Node18 -->
<g id="node18" class="node">
<title>Node18</title>
<g id="a_node18"><a xlink:title=" ">
<polygon fill="white" stroke="#bfbfbf" points="613.5,-123.5 613.5,-142.5 669.5,-142.5 669.5,-123.5 613.5,-123.5"/>
<text text-anchor="middle" x="641.5" y="-130.5" font-family="Helvetica,sans-Serif" font-size="10.00">iomanip</text>
</a>
</g>
</g>
<!-- Node16&#45;&gt;Node18 -->
<g id="edge18" class="edge">
<title>Node16&#45;&gt;Node18</title>
<path fill="none" stroke="midnightblue" d="M679.9,-179.08C673.27,-171.3 663.48,-159.8 655.44,-150.37"/>
<polygon fill="midnightblue" stroke="midnightblue" points="658.1,-148.09 648.95,-142.75 652.77,-152.63 658.1,-148.09"/>
</g>
<!-- Node19 -->
<g id="node19" class="node">
<title>Node19</title>
<g id="a_node19"><a xlink:href="../../de/dcb/LazyVector_8h.html" target="_top" xlink:title="Header file for the LazyVector class.">
<polygon fill="white" stroke="black" points="687.5,-123.5 687.5,-142.5 765.5,-142.5 765.5,-123.5 687.5,-123.5"/>
<text text-anchor="middle" x="726.5" y="-130.5" font-family="Helvetica,sans-Serif" font-size="10.00">LazyVector.h</text>
</a>
</g>
</g>
<!-- Node16&#45;&gt;Node19 -->
<g id="edge21" class="edge">
<title>Node16&#45;&gt;Node19</title>
<path fill="none" stroke="midnightblue" d="M688.77,-179.08C692.75,-171.3 700.69,-159.8 708.42,-150.37"/>
<polygon fill="midnightblue" stroke="midnightblue" points="711.12,-152.59 715.05,-142.75 705.84,-147.99 711.12,-152.59"/>
</g>
<!-- Node16&#45;&gt;Node24 -->
<g id="edge31" class="edge">
<title>Node16&#45;&gt;Node24</title>
<path fill="none" stroke="midnightblue" d="M651.06,-179.44C611.1,-170.06 546.91,-154.99 503.52,-144.8"/>
<polygon fill="midnightblue" stroke="midnightblue" points="504.31,-141.39 493.77,-142.52 502.71,-148.21 504.31,-141.39"/>
</g>
<!-- Node19&#45;&gt;Node10 -->
<g id="edge22" class="edge">
<title>Node19&#45;&gt;Node10</title>
<path fill="none" stroke="midnightblue" d="M687.25,-124.36C684.29,-123.87 681.35,-123.41 678.5,-123 522.42,-100.45 479.95,-118.87 325.5,-87 321.55,-86.19 317.47,-85.16 313.43,-84.04"/>
<polygon fill="midnightblue" stroke="midnightblue" points="314.19,-80.62 303.61,-81.11 312.19,-87.33 314.19,-80.62"/>
</g>
<!-- Node19&#45;&gt;Node16 -->
<g id="edge26" class="edge">
<title>Node19&#45;&gt;Node16</title>
<path fill="none" stroke="midnightblue" d="M725.31,-142.75C721.39,-150.48 713.48,-161.97 705.75,-171.43"/>
<polygon fill="midnightblue" stroke="midnightblue" points="703.02,-169.24 699.11,-179.08 708.3,-173.82 703.02,-169.24"/>
</g>
<!-- Node19&#45;&gt;Node17 -->
<g id="edge24" class="edge">
<title>Node19&#45;&gt;Node17</title>
<path fill="none" stroke="midnightblue" d="M759.35,-123.43C792.01,-114.78 843.45,-100.75 887.5,-87 890.26,-86.14 893.12,-85.22 895.97,-84.27"/>
<polygon fill="midnightblue" stroke="midnightblue" points="897.24,-87.54 905.59,-81.03 895,-80.91 897.24,-87.54"/>
</g>
<!-- Node20 -->
<g id="node20" class="node">
<title>Node20</title>
<g id="a_node20"><a xlink:title=" ">
<polygon fill="white" stroke="#bfbfbf" points="509,-0.5 509,-19.5 562,-19.5 562,-0.5 509,-0.5"/>
<text text-anchor="middle" x="535.5" y="-7.5" font-family="Helvetica,sans-Serif" font-size="10.00">cstddef</text>
</a>
</g>
</g>
<!-- Node19&#45;&gt;Node20 -->
<g id="edge23" class="edge">
<title>Node19&#45;&gt;Node20</title>
<path fill="none" stroke="midnightblue" d="M687.07,-124.32C626.26,-112.38 516.25,-90.39 513.5,-87 499.63,-69.9 511.76,-44.41 522.76,-27.75"/>
<polygon fill="midnightblue" stroke="midnightblue" points="525.67,-29.69 528.59,-19.51 519.96,-25.65 525.67,-29.69"/>
</g>
<!-- Node21 -->
<g id="node21" class="node">
<title>Node21</title>
<g id="a_node21"><a xlink:title=" ">
<polygon fill="white" stroke="#bfbfbf" points="820.5,-62 820.5,-81 878.5,-81 878.5,-62 820.5,-62"/>
<text text-anchor="middle" x="849.5" y="-69" font-family="Helvetica,sans-Serif" font-size="10.00">memory</text>
</a>
</g>
</g>
<!-- Node19&#45;&gt;Node21 -->
<g id="edge25" class="edge">
<title>Node19&#45;&gt;Node21</title>
<path fill="none" stroke="midnightblue" d="M744.12,-123.48C764.67,-113.53 798.86,-96.99 822.71,-85.46"/>
<polygon fill="midnightblue" stroke="midnightblue" points="824.43,-88.51 831.91,-81.01 821.38,-82.21 824.43,-88.51"/>
</g>
<!-- Node22 -->
<g id="node22" class="node">
<title>Node22</title>
<g id="a_node22"><a xlink:href="../../d6/d9f/VectorExpression_8h.html" target="_top" xlink:title="Header file for the MyBLAS::VectorExpression class.">
<polygon fill="white" stroke="black" points="522.5,-62 522.5,-81 632.5,-81 632.5,-62 522.5,-62"/>
<text text-anchor="middle" x="577.5" y="-69" font-family="Helvetica,sans-Serif" font-size="10.00">VectorExpression.h</text>
</a>
</g>
</g>
<!-- Node19&#45;&gt;Node22 -->
<g id="edge27" class="edge">
<title>Node19&#45;&gt;Node22</title>
<path fill="none" stroke="midnightblue" d="M705.15,-123.48C679.81,-113.36 637.36,-96.4 608.43,-84.85"/>
<polygon fill="midnightblue" stroke="midnightblue" points="609.39,-81.47 598.81,-81.01 606.8,-87.97 609.39,-81.47"/>
</g>
<!-- Node23 -->
<g id="node23" class="node">
<title>Node23</title>
<g id="a_node23"><a xlink:href="../../d6/db1/ContainerExpression_8h.html" target="_top" xlink:title="Header file for the ContainerExpression class.">
<polygon fill="white" stroke="black" points="651,-56.5 651,-86.5 802,-86.5 802,-56.5 651,-56.5"/>
<text text-anchor="start" x="659" y="-74.5" font-family="Helvetica,sans-Serif" font-size="10.00">math/blas/matrix/Container</text>
<text text-anchor="middle" x="726.5" y="-63.5" font-family="Helvetica,sans-Serif" font-size="10.00">Expression.h</text>
</a>
</g>
</g>
<!-- Node19&#45;&gt;Node23 -->
<g id="edge29" class="edge">
<title>Node19&#45;&gt;Node23</title>
<path fill="none" stroke="midnightblue" d="M726.5,-123.48C726.5,-116.47 726.5,-106.19 726.5,-96.7"/>
<polygon fill="midnightblue" stroke="midnightblue" points="730,-96.52 726.5,-86.52 723,-96.52 730,-96.52"/>
</g>
<!-- Node22&#45;&gt;Node20 -->
<g id="edge28" class="edge">
<title>Node22&#45;&gt;Node20</title>
<path fill="none" stroke="midnightblue" d="M571.48,-61.98C565.24,-53.14 555.33,-39.09 547.48,-27.98"/>
<polygon fill="midnightblue" stroke="midnightblue" points="550.13,-25.66 541.51,-19.51 544.41,-29.7 550.13,-25.66"/>
</g>
<!-- Node23&#45;&gt;Node20 -->
<g id="edge30" class="edge">
<title>Node23&#45;&gt;Node20</title>
<path fill="none" stroke="midnightblue" d="M681.24,-56.4C647.79,-45.98 602.85,-31.98 571.76,-22.3"/>
<polygon fill="midnightblue" stroke="midnightblue" points="572.77,-18.95 562.18,-19.31 570.69,-25.63 572.77,-18.95"/>
</g>
<!-- Node24&#45;&gt;Node10 -->
<g id="edge32" class="edge">
<title>Node24&#45;&gt;Node10</title>
<path fill="none" stroke="midnightblue" d="M432,-123.48C401.2,-113.18 349.23,-95.81 314.65,-84.25"/>
<polygon fill="midnightblue" stroke="midnightblue" points="315.55,-80.86 304.96,-81.01 313.33,-87.5 315.55,-80.86"/>
</g>
<!-- Node24&#45;&gt;Node14 -->
<g id="edge34" class="edge">
<title>Node24&#45;&gt;Node14</title>
<path fill="none" stroke="midnightblue" d="M414.21,-123.46C369.98,-114.66 299.35,-100.36 238.5,-87 233.17,-85.83 227.59,-84.57 222.05,-83.3"/>
<polygon fill="midnightblue" stroke="midnightblue" points="222.73,-79.87 212.2,-81.02 221.15,-86.69 222.73,-79.87"/>
</g>
<!-- Node24&#45;&gt;Node20 -->
<g id="edge33" class="edge">
<title>Node24&#45;&gt;Node20</title>
<path fill="none" stroke="midnightblue" d="M458.46,-123.32C460.44,-108.43 466.09,-77.54 480.5,-56 488.73,-43.7 501.32,-33.05 512.38,-25.2"/>
<polygon fill="midnightblue" stroke="midnightblue" points="514.46,-28.01 520.81,-19.53 510.55,-22.21 514.46,-28.01"/>
</g>
<!-- Node25 -->
<g id="node25" class="node">
<title>Node25</title>
<g id="a_node25"><a xlink:title=" ">
<polygon fill="white" stroke="#bfbfbf" points="335,-62 335,-81 428,-81 428,-62 335,-62"/>
<text text-anchor="middle" x="381.5" y="-69" font-family="Helvetica,sans-Serif" font-size="10.00">unordered_map</text>
</a>
</g>
</g>
<!-- Node24&#45;&gt;Node25 -->
<g id="edge35" class="edge">
<title>Node24&#45;&gt;Node25</title>
<path fill="none" stroke="midnightblue" d="M446.61,-123.48C434.53,-114.02 414.83,-98.6 400.26,-87.19"/>
<polygon fill="midnightblue" stroke="midnightblue" points="402.4,-84.42 392.37,-81.01 398.09,-89.93 402.4,-84.42"/>
</g>
<!-- Node30&#45;&gt;Node3 -->
<g id="edge55" class="edge">
<title>Node30&#45;&gt;Node3</title>
<path fill="none" stroke="midnightblue" d="M318.12,-419.98C278.92,-409.33 211.85,-391.1 169.42,-379.57"/>
<polygon fill="midnightblue" stroke="midnightblue" points="170.29,-376.18 159.72,-376.94 168.45,-382.94 170.29,-376.18"/>
</g>
<!-- Node30&#45;&gt;Node6 -->
<g id="edge52" class="edge">
<title>Node30&#45;&gt;Node6</title>
<path fill="none" stroke="midnightblue" d="M375.15,-419.88C381.74,-417.81 388.85,-415.71 395.5,-414 450.32,-399.9 513.63,-387.53 558.93,-379.35"/>
<polygon fill="midnightblue" stroke="midnightblue" points="559.66,-382.78 568.89,-377.57 558.43,-375.89 559.66,-382.78"/>
</g>
<!-- Node30&#45;&gt;Node7 -->
<g id="edge48" class="edge">
<title>Node30&#45;&gt;Node7</title>
<path fill="none" stroke="midnightblue" d="M372.23,-419.83C395.98,-410.5 434.09,-394.71 465.5,-378 494.76,-362.43 526.71,-341.35 546.91,-327.48"/>
<polygon fill="midnightblue" stroke="midnightblue" points="549.09,-330.23 555.32,-321.65 545.1,-324.47 549.09,-330.23"/>
</g>
<!-- Node30&#45;&gt;Node9 -->
<g id="edge53" class="edge">
<title>Node30&#45;&gt;Node9</title>
<path fill="none" stroke="midnightblue" d="M312.35,-421.19C288.5,-414.37 259.3,-401.55 244.5,-378 220.13,-339.23 265.89,-291.22 293.95,-267.01"/>
<polygon fill="midnightblue" stroke="midnightblue" points="296.56,-269.4 301.99,-260.3 292.07,-264.02 296.56,-269.4"/>
</g>
<!-- Node30&#45;&gt;Node10 -->
<g id="edge47" class="edge">
<title>Node30&#45;&gt;Node10</title>
<path fill="none" stroke="midnightblue" d="M320.23,-419.89C261,-400.46 132.5,-347.27 132.5,-251.5 132.5,-251.5 132.5,-251.5 132.5,-188 132.5,-133.08 196.72,-100.3 240.26,-84.39"/>
<polygon fill="midnightblue" stroke="midnightblue" points="241.47,-87.68 249.75,-81.07 239.16,-81.07 241.47,-87.68"/>
</g>
<!-- Node30&#45;&gt;Node13 -->
<g id="edge51" class="edge">
<title>Node30&#45;&gt;Node13</title>
<path fill="none" stroke="midnightblue" d="M358.69,-419.97C368.44,-410.51 383.76,-394.4 393.5,-378 428.11,-319.72 400.59,-284.86 446.5,-235 472.09,-207.21 494.27,-222.93 523.5,-199 539.73,-185.71 553.37,-165.78 561.92,-151.49"/>
<polygon fill="midnightblue" stroke="midnightblue" points="565.05,-153.07 566.98,-142.65 558.97,-149.59 565.05,-153.07"/>
</g>
<!-- Node30&#45;&gt;Node16 -->
<g id="edge54" class="edge">
<title>Node30&#45;&gt;Node16</title>
<path fill="none" stroke="midnightblue" d="M370.37,-419.98C388.04,-411.73 412.77,-397.61 427.5,-378 467.36,-324.93 421.56,-279.83 470.5,-235 490.39,-216.78 553.59,-205.02 606.69,-198.11"/>
<polygon fill="midnightblue" stroke="midnightblue" points="607.33,-201.55 616.82,-196.83 606.46,-194.61 607.33,-201.55"/>
</g>
<!-- Node31 -->
<g id="node31" class="node">
<title>Node31</title>
<g id="a_node31"><a xlink:title=" ">
<polygon fill="white" stroke="#bfbfbf" points="253.5,-358.5 253.5,-377.5 309.5,-377.5 309.5,-358.5 253.5,-358.5"/>
<text text-anchor="middle" x="281.5" y="-365.5" font-family="Helvetica,sans-Serif" font-size="10.00">numeric</text>
</a>
</g>
</g>
<!-- Node30&#45;&gt;Node31 -->
<g id="edge49" class="edge">
<title>Node30&#45;&gt;Node31</title>
<path fill="none" stroke="midnightblue" d="M339.76,-419.98C329.15,-410.7 311.98,-395.67 299.02,-384.33"/>
<polygon fill="midnightblue" stroke="midnightblue" points="301.06,-381.46 291.22,-377.51 296.45,-386.73 301.06,-381.46"/>
</g>
<!-- Node32 -->
<g id="node32" class="node">
<title>Node32</title>
<g id="a_node32"><a xlink:title=" ">
<polygon fill="white" stroke="#bfbfbf" points="328,-358.5 328,-377.5 385,-377.5 385,-358.5 328,-358.5"/>
<text text-anchor="middle" x="356.5" y="-365.5" font-family="Helvetica,sans-Serif" font-size="10.00">ostream</text>
</a>
</g>
</g>
<!-- Node30&#45;&gt;Node32 -->
<g id="edge50" class="edge">
<title>Node30&#45;&gt;Node32</title>
<path fill="none" stroke="midnightblue" d="M350.5,-419.98C351.49,-411.58 353.03,-398.48 354.3,-387.66"/>
<polygon fill="midnightblue" stroke="midnightblue" points="357.81,-387.85 355.5,-377.51 350.85,-387.03 357.81,-387.85"/>
</g>
</g>
</svg>
