<?xml version="1.0" encoding="UTF-8" standalone="no"?>
<!DOCTYPE svg PUBLIC "-//W3C//DTD SVG 1.1//EN"
 "http://www.w3.org/Graphics/SVG/1.1/DTD/svg11.dtd">
<!-- Generated by graphviz version 2.43.0 (0)
 -->
<!-- Title: Parser Pages: 1 -->
<!--zoomable 303 -->
<svg id="main" version="1.1" xmlns="http://www.w3.org/2000/svg" xmlns:xlink="http://www.w3.org/1999/xlink" xml:space="preserve" onload="init(evt)">
<style type="text/css"><![CDATA[
.edge:hover path { stroke: red; }
.edge:hover polygon { stroke: red; fill: red; }
]]></style>
<script type="text/javascript"><![CDATA[
var edges = document.getElementsByTagName('g');
if (edges && edges.length) {
  for (var i=0;i<edges.length;i++) {
    if (edges[i].id.substr(0,4)=='edge') {
      edges[i].setAttribute('class','edge');
    }
  }
}
]]></script>
        <defs>
                <circle id="rim" cx="0" cy="0" r="7"/>
                <circle id="rim2" cx="0" cy="0" r="3.5"/>
                <g id="zoomPlus">
                        <use xlink:href="#rim" fill="#404040">
                                <set attributeName="fill" to="#808080" begin="zoomplus.mouseover" end="zoomplus.mouseout"/>
                        </use>
                        <path d="M-4,0h8M0,-4v8" fill="none" stroke="white" stroke-width="1.5" pointer-events="none"/>
                </g>
                <g id="zoomMin">
                        <use xlink:href="#rim" fill="#404040">
                                <set attributeName="fill" to="#808080" begin="zoomminus.mouseover" end="zoomminus.mouseout"/>
                        </use>
                        <path d="M-4,0h8" fill="none" stroke="white" stroke-width="1.5" pointer-events="none"/>
                </g>
                <g id="dirArrow">
                        <path fill="none" stroke="white" stroke-width="1.5" d="M0,-3.0v7 M-2.5,-0.5L0,-3.0L2.5,-0.5"/>
                </g>
               <g id="resetDef">
                       <use xlink:href="#rim2" fill="#404040">
                               <set attributeName="fill" to="#808080" begin="reset.mouseover" end="reset.mouseout"/>
                       </use>
               </g>
        </defs>

<script type="text/javascript">
var viewWidth = 1702;
var viewHeight = 303;
var sectionId = 'dynsection-0';
</script>
<script xlink:href="../../svgpan.js"/>
<svg id="graph" class="graph">
<g id="viewport">
<title>Parser</title>
<polygon fill="white" stroke="transparent" points="-4,4 -4,-299 1698,-299 1698,4 -4,4"/>
<!-- Node1 -->
<g id="node1" class="node">
<title>Node1</title>
<g id="a_node1"><a xlink:title=" ">
<polygon fill="#bfbfbf" stroke="black" points="685.5,-0.5 685.5,-90.5 822.5,-90.5 822.5,-0.5 685.5,-0.5"/>
<text text-anchor="middle" x="754" y="-78.5" font-family="Helvetica,sans-Serif" font-size="10.00">Parser</text>
<polyline fill="none" stroke="black" points="685.5,-71.5 822.5,-71.5 "/>
<text text-anchor="middle" x="754" y="-59.5" font-family="Helvetica,sans-Serif" font-size="10.00"> </text>
<polyline fill="none" stroke="black" points="685.5,-52.5 822.5,-52.5 "/>
<text text-anchor="start" x="693.5" y="-40.5" font-family="Helvetica,sans-Serif" font-size="10.00">+ Parser()</text>
<text text-anchor="start" x="693.5" y="-29.5" font-family="Helvetica,sans-Serif" font-size="10.00">and 27 more...</text>
<text text-anchor="start" x="693.5" y="-18.5" font-family="Helvetica,sans-Serif" font-size="10.00"># buildInputArguments()</text>
<text text-anchor="start" x="693.5" y="-7.5" font-family="Helvetica,sans-Serif" font-size="10.00">and 55 more...</text>
</a>
</g>
</g>
<!-- Node2 -->
<g id="node2" class="node">
<title>Node2</title>
<g id="a_node2"><a xlink:href="../../dd/d02/classCommandLine.html" target="_top" xlink:title=" ">
<polygon fill="white" stroke="black" points="0,-127.5 0,-294.5 158,-294.5 158,-127.5 0,-127.5"/>
<text text-anchor="start" x="8" y="-282.5" font-family="Helvetica,sans-Serif" font-size="10.00">CommandLine&lt; TaylorSeries</text>
<text text-anchor="middle" x="79" y="-271.5" font-family="Helvetica,sans-Serif" font-size="10.00">Inputs &gt;</text>
<polyline fill="none" stroke="black" points="0,-264.5 158,-264.5 "/>
<text text-anchor="start" x="8" y="-252.5" font-family="Helvetica,sans-Serif" font-size="10.00">&#45; variablesMap</text>
<text text-anchor="start" x="8" y="-241.5" font-family="Helvetica,sans-Serif" font-size="10.00">and 3 more...</text>
<polyline fill="none" stroke="black" points="0,-234.5 158,-234.5 "/>
<text text-anchor="start" x="8" y="-222.5" font-family="Helvetica,sans-Serif" font-size="10.00">+ CommandLine()</text>
<text text-anchor="start" x="8" y="-211.5" font-family="Helvetica,sans-Serif" font-size="10.00">and 6 more...</text>
<text text-anchor="start" x="8" y="-200.5" font-family="Helvetica,sans-Serif" font-size="10.00">+ printLine()</text>
<text text-anchor="start" x="8" y="-189.5" font-family="Helvetica,sans-Serif" font-size="10.00"># buildInputArguments()</text>
<text text-anchor="start" x="8" y="-178.5" font-family="Helvetica,sans-Serif" font-size="10.00">and 3 more...</text>
<text text-anchor="start" x="8" y="-167.5" font-family="Helvetica,sans-Serif" font-size="10.00">&#45; printPrecisionInformation()</text>
<text text-anchor="start" x="8" y="-156.5" font-family="Helvetica,sans-Serif" font-size="10.00">and 1 more...</text>
<text text-anchor="start" x="8" y="-145.5" font-family="Helvetica,sans-Serif" font-size="10.00">&#45; buildGenerics()</text>
<text text-anchor="start" x="8" y="-134.5" font-family="Helvetica,sans-Serif" font-size="10.00">and 2 more...</text>
</a>
</g>
</g>
<!-- Node2&#45;&gt;Node1 -->
<g id="edge1" class="edge">
<title>Node2&#45;&gt;Node1</title>
<path fill="none" stroke="midnightblue" d="M166.72,-127.14C166.81,-127.09 166.91,-127.05 167,-127 257.47,-83.72 550.7,-59.67 685.31,-50.66"/>
<polygon fill="none" stroke="midnightblue" points="165.21,-123.97 158.02,-131.76 168.49,-130.16 165.21,-123.97"/>
</g>
<!-- Node3 -->
<g id="node3" class="node">
<title>Node3</title>
<g id="a_node3"><a xlink:href="../../dd/d02/classCommandLine.html" target="_top" xlink:title=" ">
<polygon fill="white" stroke="black" points="176,-127.5 176,-294.5 374,-294.5 374,-127.5 176,-127.5"/>
<text text-anchor="start" x="184" y="-282.5" font-family="Helvetica,sans-Serif" font-size="10.00">CommandLine&lt; LagrangePolynomial</text>
<text text-anchor="middle" x="275" y="-271.5" font-family="Helvetica,sans-Serif" font-size="10.00">Inputs &gt;</text>
<polyline fill="none" stroke="black" points="176,-264.5 374,-264.5 "/>
<text text-anchor="start" x="184" y="-252.5" font-family="Helvetica,sans-Serif" font-size="10.00">&#45; variablesMap</text>
<text text-anchor="start" x="184" y="-241.5" font-family="Helvetica,sans-Serif" font-size="10.00">and 3 more...</text>
<polyline fill="none" stroke="black" points="176,-234.5 374,-234.5 "/>
<text text-anchor="start" x="184" y="-222.5" font-family="Helvetica,sans-Serif" font-size="10.00">+ CommandLine()</text>
<text text-anchor="start" x="184" y="-211.5" font-family="Helvetica,sans-Serif" font-size="10.00">and 6 more...</text>
<text text-anchor="start" x="184" y="-200.5" font-family="Helvetica,sans-Serif" font-size="10.00">+ printLine()</text>
<text text-anchor="start" x="184" y="-189.5" font-family="Helvetica,sans-Serif" font-size="10.00"># buildInputArguments()</text>
<text text-anchor="start" x="184" y="-178.5" font-family="Helvetica,sans-Serif" font-size="10.00">and 3 more...</text>
<text text-anchor="start" x="184" y="-167.5" font-family="Helvetica,sans-Serif" font-size="10.00">&#45; printPrecisionInformation()</text>
<text text-anchor="start" x="184" y="-156.5" font-family="Helvetica,sans-Serif" font-size="10.00">and 1 more...</text>
<text text-anchor="start" x="184" y="-145.5" font-family="Helvetica,sans-Serif" font-size="10.00">&#45; buildGenerics()</text>
<text text-anchor="start" x="184" y="-134.5" font-family="Helvetica,sans-Serif" font-size="10.00">and 2 more...</text>
</a>
</g>
</g>
<!-- Node3&#45;&gt;Node1 -->
<g id="edge2" class="edge">
<title>Node3&#45;&gt;Node1</title>
<path fill="none" stroke="midnightblue" d="M382.15,-123.33C483.55,-78.54 608.96,-59.46 685.26,-51.61"/>
<polygon fill="none" stroke="midnightblue" points="380.7,-120.14 373.03,-127.45 383.59,-126.52 380.7,-120.14"/>
</g>
<!-- Node3&#45;&gt;Node1 -->
<g id="edge8" class="edge">
<title>Node3&#45;&gt;Node1</title>
<path fill="none" stroke="midnightblue" d="M383.01,-131.45C386,-129.88 389,-128.39 392,-127 488.25,-82.34 610.18,-62.01 685.17,-53.08"/>
<polygon fill="none" stroke="midnightblue" points="381.15,-128.48 374.1,-136.39 384.55,-134.61 381.15,-128.48"/>
</g>
<!-- Node4 -->
<g id="node4" class="node">
<title>Node4</title>
<g id="a_node4"><a xlink:href="../../dd/d02/classCommandLine.html" target="_top" xlink:title=" ">
<polygon fill="white" stroke="black" points="392,-127.5 392,-294.5 556,-294.5 556,-127.5 392,-127.5"/>
<text text-anchor="start" x="400" y="-282.5" font-family="Helvetica,sans-Serif" font-size="10.00">CommandLine&lt; NewtonCotes</text>
<text text-anchor="middle" x="474" y="-271.5" font-family="Helvetica,sans-Serif" font-size="10.00">Inputs &gt;</text>
<polyline fill="none" stroke="black" points="392,-264.5 556,-264.5 "/>
<text text-anchor="start" x="400" y="-252.5" font-family="Helvetica,sans-Serif" font-size="10.00">&#45; variablesMap</text>
<text text-anchor="start" x="400" y="-241.5" font-family="Helvetica,sans-Serif" font-size="10.00">and 3 more...</text>
<polyline fill="none" stroke="black" points="392,-234.5 556,-234.5 "/>
<text text-anchor="start" x="400" y="-222.5" font-family="Helvetica,sans-Serif" font-size="10.00">+ CommandLine()</text>
<text text-anchor="start" x="400" y="-211.5" font-family="Helvetica,sans-Serif" font-size="10.00">and 6 more...</text>
<text text-anchor="start" x="400" y="-200.5" font-family="Helvetica,sans-Serif" font-size="10.00">+ printLine()</text>
<text text-anchor="start" x="400" y="-189.5" font-family="Helvetica,sans-Serif" font-size="10.00"># buildInputArguments()</text>
<text text-anchor="start" x="400" y="-178.5" font-family="Helvetica,sans-Serif" font-size="10.00">and 3 more...</text>
<text text-anchor="start" x="400" y="-167.5" font-family="Helvetica,sans-Serif" font-size="10.00">&#45; printPrecisionInformation()</text>
<text text-anchor="start" x="400" y="-156.5" font-family="Helvetica,sans-Serif" font-size="10.00">and 1 more...</text>
<text text-anchor="start" x="400" y="-145.5" font-family="Helvetica,sans-Serif" font-size="10.00">&#45; buildGenerics()</text>
<text text-anchor="start" x="400" y="-134.5" font-family="Helvetica,sans-Serif" font-size="10.00">and 2 more...</text>
</a>
</g>
</g>
<!-- Node4&#45;&gt;Node1 -->
<g id="edge3" class="edge">
<title>Node4&#45;&gt;Node1</title>
<path fill="none" stroke="midnightblue" d="M564.15,-121.92C602.99,-98.38 648.52,-79.49 685.38,-66.48"/>
<polygon fill="none" stroke="midnightblue" points="562.09,-119.08 555.46,-127.35 565.8,-125.02 562.09,-119.08"/>
</g>
<!-- Node4&#45;&gt;Node1 -->
<g id="edge9" class="edge">
<title>Node4&#45;&gt;Node1</title>
<path fill="none" stroke="midnightblue" d="M564.14,-133.69C567.41,-131.36 570.7,-129.12 574,-127 608.66,-104.73 650.51,-86.17 685.19,-72.51"/>
<polygon fill="none" stroke="midnightblue" points="562.02,-130.91 556.05,-139.67 566.18,-136.54 562.02,-130.91"/>
</g>
<!-- Node5 -->
<g id="node5" class="node">
<title>Node5</title>
<g id="a_node5"><a xlink:href="../../dd/d02/classCommandLine.html" target="_top" xlink:title=" ">
<polygon fill="white" stroke="black" points="574,-133 574,-289 750,-289 750,-133 574,-133"/>
<text text-anchor="middle" x="662" y="-277" font-family="Helvetica,sans-Serif" font-size="10.00">CommandLine&lt; InputMatrices &gt;</text>
<polyline fill="none" stroke="black" points="574,-270 750,-270 "/>
<text text-anchor="start" x="582" y="-258" font-family="Helvetica,sans-Serif" font-size="10.00">&#45; variablesMap</text>
<text text-anchor="start" x="582" y="-247" font-family="Helvetica,sans-Serif" font-size="10.00">and 3 more...</text>
<polyline fill="none" stroke="black" points="574,-240 750,-240 "/>
<text text-anchor="start" x="582" y="-228" font-family="Helvetica,sans-Serif" font-size="10.00">+ CommandLine()</text>
<text text-anchor="start" x="582" y="-217" font-family="Helvetica,sans-Serif" font-size="10.00">and 6 more...</text>
<text text-anchor="start" x="582" y="-206" font-family="Helvetica,sans-Serif" font-size="10.00">+ printLine()</text>
<text text-anchor="start" x="582" y="-195" font-family="Helvetica,sans-Serif" font-size="10.00"># buildInputArguments()</text>
<text text-anchor="start" x="582" y="-184" font-family="Helvetica,sans-Serif" font-size="10.00">and 3 more...</text>
<text text-anchor="start" x="582" y="-173" font-family="Helvetica,sans-Serif" font-size="10.00">&#45; printPrecisionInformation()</text>
<text text-anchor="start" x="582" y="-162" font-family="Helvetica,sans-Serif" font-size="10.00">and 1 more...</text>
<text text-anchor="start" x="582" y="-151" font-family="Helvetica,sans-Serif" font-size="10.00">&#45; buildGenerics()</text>
<text text-anchor="start" x="582" y="-140" font-family="Helvetica,sans-Serif" font-size="10.00">and 2 more...</text>
</a>
</g>
</g>
<!-- Node5&#45;&gt;Node1 -->
<g id="edge4" class="edge">
<title>Node5&#45;&gt;Node1</title>
<path fill="none" stroke="midnightblue" d="M703.76,-123.8C710.25,-112.36 716.84,-101.03 723.04,-90.72"/>
<polygon fill="none" stroke="midnightblue" points="700.69,-122.13 698.83,-132.56 706.79,-125.56 700.69,-122.13"/>
</g>
<!-- Node5&#45;&gt;Node1 -->
<g id="edge11" class="edge">
<title>Node5&#45;&gt;Node1</title>
<path fill="none" stroke="midnightblue" d="M717.24,-123.8C723.64,-112.36 729.79,-101.03 735.19,-90.72"/>
<polygon fill="none" stroke="midnightblue" points="714.17,-122.13 712.32,-132.56 720.27,-125.56 714.17,-122.13"/>
</g>
<!-- Node6 -->
<g id="node6" class="node">
<title>Node6</title>
<g id="a_node6"><a xlink:href="../../dd/d02/classCommandLine.html" target="_top" xlink:title=" ">
<polygon fill="white" stroke="black" points="768.5,-127.5 768.5,-294.5 923.5,-294.5 923.5,-127.5 768.5,-127.5"/>
<text text-anchor="start" x="776.5" y="-282.5" font-family="Helvetica,sans-Serif" font-size="10.00">CommandLine&lt; MyBLAS</text>
<text text-anchor="middle" x="846" y="-271.5" font-family="Helvetica,sans-Serif" font-size="10.00">::InputMatrices &gt;</text>
<polyline fill="none" stroke="black" points="768.5,-264.5 923.5,-264.5 "/>
<text text-anchor="start" x="776.5" y="-252.5" font-family="Helvetica,sans-Serif" font-size="10.00">&#45; variablesMap</text>
<text text-anchor="start" x="776.5" y="-241.5" font-family="Helvetica,sans-Serif" font-size="10.00">and 3 more...</text>
<polyline fill="none" stroke="black" points="768.5,-234.5 923.5,-234.5 "/>
<text text-anchor="start" x="776.5" y="-222.5" font-family="Helvetica,sans-Serif" font-size="10.00">+ CommandLine()</text>
<text text-anchor="start" x="776.5" y="-211.5" font-family="Helvetica,sans-Serif" font-size="10.00">and 6 more...</text>
<text text-anchor="start" x="776.5" y="-200.5" font-family="Helvetica,sans-Serif" font-size="10.00">+ printLine()</text>
<text text-anchor="start" x="776.5" y="-189.5" font-family="Helvetica,sans-Serif" font-size="10.00"># buildInputArguments()</text>
<text text-anchor="start" x="776.5" y="-178.5" font-family="Helvetica,sans-Serif" font-size="10.00">and 3 more...</text>
<text text-anchor="start" x="776.5" y="-167.5" font-family="Helvetica,sans-Serif" font-size="10.00">&#45; printPrecisionInformation()</text>
<text text-anchor="start" x="776.5" y="-156.5" font-family="Helvetica,sans-Serif" font-size="10.00">and 1 more...</text>
<text text-anchor="start" x="776.5" y="-145.5" font-family="Helvetica,sans-Serif" font-size="10.00">&#45; buildGenerics()</text>
<text text-anchor="start" x="776.5" y="-134.5" font-family="Helvetica,sans-Serif" font-size="10.00">and 2 more...</text>
</a>
</g>
</g>
<!-- Node6&#45;&gt;Node1 -->
<g id="edge5" class="edge">
<title>Node6&#45;&gt;Node1</title>
<path fill="none" stroke="midnightblue" d="M787.75,-118.4C782.41,-108.76 777.31,-99.31 772.74,-90.58"/>
<polygon fill="none" stroke="midnightblue" points="784.78,-120.26 792.71,-127.29 790.9,-116.85 784.78,-120.26"/>
</g>
<!-- Node6&#45;&gt;Node1 -->
<g id="edge10" class="edge">
<title>Node6&#45;&gt;Node1</title>
<path fill="none" stroke="midnightblue" d="M801.16,-118.4C795.65,-108.76 790.12,-99.31 784.87,-90.58"/>
<polygon fill="none" stroke="midnightblue" points="798.23,-120.32 806.21,-127.29 804.32,-116.87 798.23,-120.32"/>
</g>
<!-- Node7 -->
<g id="node7" class="node">
<title>Node7</title>
<g id="a_node7"><a xlink:href="../../dd/d02/classCommandLine.html" target="_top" xlink:title=" ">
<polygon fill="white" stroke="black" points="942,-133 942,-289 1114,-289 1114,-133 942,-133"/>
<text text-anchor="middle" x="1028" y="-277" font-family="Helvetica,sans-Serif" font-size="10.00">CommandLine&lt; InLab6Inputs &gt;</text>
<polyline fill="none" stroke="black" points="942,-270 1114,-270 "/>
<text text-anchor="start" x="950" y="-258" font-family="Helvetica,sans-Serif" font-size="10.00">&#45; variablesMap</text>
<text text-anchor="start" x="950" y="-247" font-family="Helvetica,sans-Serif" font-size="10.00">and 3 more...</text>
<polyline fill="none" stroke="black" points="942,-240 1114,-240 "/>
<text text-anchor="start" x="950" y="-228" font-family="Helvetica,sans-Serif" font-size="10.00">+ CommandLine()</text>
<text text-anchor="start" x="950" y="-217" font-family="Helvetica,sans-Serif" font-size="10.00">and 6 more...</text>
<text text-anchor="start" x="950" y="-206" font-family="Helvetica,sans-Serif" font-size="10.00">+ printLine()</text>
<text text-anchor="start" x="950" y="-195" font-family="Helvetica,sans-Serif" font-size="10.00"># buildInputArguments()</text>
<text text-anchor="start" x="950" y="-184" font-family="Helvetica,sans-Serif" font-size="10.00">and 3 more...</text>
<text text-anchor="start" x="950" y="-173" font-family="Helvetica,sans-Serif" font-size="10.00">&#45; printPrecisionInformation()</text>
<text text-anchor="start" x="950" y="-162" font-family="Helvetica,sans-Serif" font-size="10.00">and 1 more...</text>
<text text-anchor="start" x="950" y="-151" font-family="Helvetica,sans-Serif" font-size="10.00">&#45; buildGenerics()</text>
<text text-anchor="start" x="950" y="-140" font-family="Helvetica,sans-Serif" font-size="10.00">and 2 more...</text>
</a>
</g>
</g>
<!-- Node7&#45;&gt;Node1 -->
<g id="edge6" class="edge">
<title>Node7&#45;&gt;Node1</title>
<path fill="none" stroke="midnightblue" d="M933.28,-127.18C933.18,-127.12 933.09,-127.06 933,-127 898.58,-104.92 857.1,-85.85 822.74,-71.83"/>
<polygon fill="none" stroke="midnightblue" points="931.59,-130.26 941.84,-132.92 935.49,-124.45 931.59,-130.26"/>
</g>
<!-- Node8 -->
<g id="node8" class="node">
<title>Node8</title>
<g id="a_node8"><a xlink:href="../../dd/d02/classCommandLine.html" target="_top" xlink:title=" ">
<polygon fill="white" stroke="black" points="1132,-127.5 1132,-294.5 1308,-294.5 1308,-127.5 1132,-127.5"/>
<text text-anchor="start" x="1140" y="-282.5" font-family="Helvetica,sans-Serif" font-size="10.00">CommandLine&lt; MatrixConstruct</text>
<text text-anchor="middle" x="1220" y="-271.5" font-family="Helvetica,sans-Serif" font-size="10.00">Params &gt;</text>
<polyline fill="none" stroke="black" points="1132,-264.5 1308,-264.5 "/>
<text text-anchor="start" x="1140" y="-252.5" font-family="Helvetica,sans-Serif" font-size="10.00">&#45; variablesMap</text>
<text text-anchor="start" x="1140" y="-241.5" font-family="Helvetica,sans-Serif" font-size="10.00">and 3 more...</text>
<polyline fill="none" stroke="black" points="1132,-234.5 1308,-234.5 "/>
<text text-anchor="start" x="1140" y="-222.5" font-family="Helvetica,sans-Serif" font-size="10.00">+ CommandLine()</text>
<text text-anchor="start" x="1140" y="-211.5" font-family="Helvetica,sans-Serif" font-size="10.00">and 6 more...</text>
<text text-anchor="start" x="1140" y="-200.5" font-family="Helvetica,sans-Serif" font-size="10.00">+ printLine()</text>
<text text-anchor="start" x="1140" y="-189.5" font-family="Helvetica,sans-Serif" font-size="10.00"># buildInputArguments()</text>
<text text-anchor="start" x="1140" y="-178.5" font-family="Helvetica,sans-Serif" font-size="10.00">and 3 more...</text>
<text text-anchor="start" x="1140" y="-167.5" font-family="Helvetica,sans-Serif" font-size="10.00">&#45; printPrecisionInformation()</text>
<text text-anchor="start" x="1140" y="-156.5" font-family="Helvetica,sans-Serif" font-size="10.00">and 1 more...</text>
<text text-anchor="start" x="1140" y="-145.5" font-family="Helvetica,sans-Serif" font-size="10.00">&#45; buildGenerics()</text>
<text text-anchor="start" x="1140" y="-134.5" font-family="Helvetica,sans-Serif" font-size="10.00">and 2 more...</text>
</a>
</g>
</g>
<!-- Node8&#45;&gt;Node1 -->
<g id="edge7" class="edge">
<title>Node8&#45;&gt;Node1</title>
<path fill="none" stroke="midnightblue" d="M1123.28,-127.14C1123.19,-127.09 1123.09,-127.05 1123,-127 1025.53,-78.55 899.31,-59.09 822.61,-51.39"/>
<polygon fill="none" stroke="midnightblue" points="1121.41,-130.11 1131.88,-131.76 1124.72,-123.94 1121.41,-130.11"/>
</g>
<!-- Node9 -->
<g id="node9" class="node">
<title>Node9</title>
<g id="a_node9"><a xlink:href="../../dd/d02/classCommandLine.html" target="_top" xlink:title=" ">
<polygon fill="white" stroke="black" points="1326,-133 1326,-289 1506,-289 1506,-133 1326,-133"/>
<text text-anchor="middle" x="1416" y="-277" font-family="Helvetica,sans-Serif" font-size="10.00">CommandLine&lt; OutLab6Inputs &gt;</text>
<polyline fill="none" stroke="black" points="1326,-270 1506,-270 "/>
<text text-anchor="start" x="1334" y="-258" font-family="Helvetica,sans-Serif" font-size="10.00">&#45; variablesMap</text>
<text text-anchor="start" x="1334" y="-247" font-family="Helvetica,sans-Serif" font-size="10.00">and 3 more...</text>
<polyline fill="none" stroke="black" points="1326,-240 1506,-240 "/>
<text text-anchor="start" x="1334" y="-228" font-family="Helvetica,sans-Serif" font-size="10.00">+ CommandLine()</text>
<text text-anchor="start" x="1334" y="-217" font-family="Helvetica,sans-Serif" font-size="10.00">and 6 more...</text>
<text text-anchor="start" x="1334" y="-206" font-family="Helvetica,sans-Serif" font-size="10.00">+ printLine()</text>
<text text-anchor="start" x="1334" y="-195" font-family="Helvetica,sans-Serif" font-size="10.00"># buildInputArguments()</text>
<text text-anchor="start" x="1334" y="-184" font-family="Helvetica,sans-Serif" font-size="10.00">and 3 more...</text>
<text text-anchor="start" x="1334" y="-173" font-family="Helvetica,sans-Serif" font-size="10.00">&#45; printPrecisionInformation()</text>
<text text-anchor="start" x="1334" y="-162" font-family="Helvetica,sans-Serif" font-size="10.00">and 1 more...</text>
<text text-anchor="start" x="1334" y="-151" font-family="Helvetica,sans-Serif" font-size="10.00">&#45; buildGenerics()</text>
<text text-anchor="start" x="1334" y="-140" font-family="Helvetica,sans-Serif" font-size="10.00">and 2 more...</text>
</a>
</g>
</g>
<!-- Node9&#45;&gt;Node1 -->
<g id="edge12" class="edge">
<title>Node9&#45;&gt;Node1</title>
<path fill="none" stroke="midnightblue" d="M1319.62,-128.2C1318.75,-127.79 1317.87,-127.39 1317,-127 1229.77,-88.06 952.75,-61.99 822.69,-51.59"/>
<polygon fill="none" stroke="midnightblue" points="1318.37,-131.49 1328.86,-132.94 1321.56,-125.26 1318.37,-131.49"/>
</g>
<!-- Node10 -->
<g id="node10" class="node">
<title>Node10</title>
<g id="a_node10"><a xlink:href="../../dd/d02/classCommandLine.html" target="_top" xlink:title=" ">
<polygon fill="white" stroke="black" points="1524,-133 1524,-289 1694,-289 1694,-133 1524,-133"/>
<text text-anchor="middle" x="1609" y="-277" font-family="Helvetica,sans-Serif" font-size="10.00">CommandLine&lt; SolverInputs &gt;</text>
<polyline fill="none" stroke="black" points="1524,-270 1694,-270 "/>
<text text-anchor="start" x="1532" y="-258" font-family="Helvetica,sans-Serif" font-size="10.00">&#45; variablesMap</text>
<text text-anchor="start" x="1532" y="-247" font-family="Helvetica,sans-Serif" font-size="10.00">and 3 more...</text>
<polyline fill="none" stroke="black" points="1524,-240 1694,-240 "/>
<text text-anchor="start" x="1532" y="-228" font-family="Helvetica,sans-Serif" font-size="10.00">+ CommandLine()</text>
<text text-anchor="start" x="1532" y="-217" font-family="Helvetica,sans-Serif" font-size="10.00">and 6 more...</text>
<text text-anchor="start" x="1532" y="-206" font-family="Helvetica,sans-Serif" font-size="10.00">+ printLine()</text>
<text text-anchor="start" x="1532" y="-195" font-family="Helvetica,sans-Serif" font-size="10.00"># buildInputArguments()</text>
<text text-anchor="start" x="1532" y="-184" font-family="Helvetica,sans-Serif" font-size="10.00">and 3 more...</text>
<text text-anchor="start" x="1532" y="-173" font-family="Helvetica,sans-Serif" font-size="10.00">&#45; printPrecisionInformation()</text>
<text text-anchor="start" x="1532" y="-162" font-family="Helvetica,sans-Serif" font-size="10.00">and 1 more...</text>
<text text-anchor="start" x="1532" y="-151" font-family="Helvetica,sans-Serif" font-size="10.00">&#45; buildGenerics()</text>
<text text-anchor="start" x="1532" y="-140" font-family="Helvetica,sans-Serif" font-size="10.00">and 2 more...</text>
</a>
</g>
</g>
<!-- Node10&#45;&gt;Node1 -->
<g id="edge13" class="edge">
<title>Node10&#45;&gt;Node1</title>
<path fill="none" stroke="midnightblue" d="M1515.03,-131.39C1512.05,-129.81 1509.04,-128.34 1506,-127 1383.78,-73.24 984.35,-54.28 822.72,-48.61"/>
<polygon fill="none" stroke="midnightblue" points="1513.44,-134.52 1523.85,-136.48 1516.93,-128.45 1513.44,-134.52"/>
</g>
<!-- Node10&#45;&gt;Node1 -->
<g id="edge14" class="edge">
<title>Node10&#45;&gt;Node1</title>
<path fill="none" stroke="midnightblue" d="M1526.61,-128.18C1525.74,-127.78 1524.87,-127.38 1524,-127 1399.5,-72.24 987.35,-53.58 822.71,-48.3"/>
<polygon fill="none" stroke="midnightblue" points="1525.3,-131.44 1535.79,-132.91 1528.5,-125.22 1525.3,-131.44"/>
</g>
</g>
</svg>
        <g id="navigator" transform="translate(0 0)" fill="#404254">
                <rect fill="#f2f5e9" fill-opacity="0.5" stroke="#606060" stroke-width=".5" x="0" y="0" width="60" height="60"/>
                <use id="zoomplus" xlink:href="#zoomPlus" x="17" y="9" onmousedown="handleZoom(evt,'in')"/>
                <use id="zoomminus" xlink:href="#zoomMin" x="42" y="9" onmousedown="handleZoom(evt,'out')"/>
                <use id="reset" xlink:href="#resetDef" x="30" y="36" onmousedown="handleReset()"/>
                <g id="arrowUp" xlink:href="#dirArrow" transform="translate(30 24)" onmousedown="handlePan(0,-1)">
                  <use xlink:href="#rim" fill="#404040">
                        <set attributeName="fill" to="#808080" begin="arrowUp.mouseover" end="arrowUp.mouseout"/>
                  </use>
                  <path fill="none" stroke="white" stroke-width="1.5" d="M0,-3.0v7 M-2.5,-0.5L0,-3.0L2.5,-0.5"/>
                </g>
                <g id="arrowRight" xlink:href="#dirArrow" transform="rotate(90) translate(36 -43)" onmousedown="handlePan(1,0)">
                  <use xlink:href="#rim" fill="#404040">
                        <set attributeName="fill" to="#808080" begin="arrowRight.mouseover" end="arrowRight.mouseout"/>
                  </use>
                  <path fill="none" stroke="white" stroke-width="1.5" d="M0,-3.0v7 M-2.5,-0.5L0,-3.0L2.5,-0.5"/>
                </g>
                <g id="arrowDown" xlink:href="#dirArrow" transform="rotate(180) translate(-30 -48)" onmousedown="handlePan(0,1)">
                  <use xlink:href="#rim" fill="#404040">
                        <set attributeName="fill" to="#808080" begin="arrowDown.mouseover" end="arrowDown.mouseout"/>
                  </use>
                  <path fill="none" stroke="white" stroke-width="1.5" d="M0,-3.0v7 M-2.5,-0.5L0,-3.0L2.5,-0.5"/>
                </g>
                <g id="arrowLeft" xlink:href="#dirArrow" transform="rotate(270) translate(-36 17)" onmousedown="handlePan(-1,0)">
                  <use xlink:href="#rim" fill="#404040">
                        <set attributeName="fill" to="#808080" begin="arrowLeft.mouseover" end="arrowLeft.mouseout"/>
                  </use>
                  <path fill="none" stroke="white" stroke-width="1.5" d="M0,-3.0v7 M-2.5,-0.5L0,-3.0L2.5,-0.5"/>
                </g>
        </g>
        <svg viewBox="0 0 15 15" width="100%" height="30px" preserveAspectRatio="xMaxYMin meet">
         <g id="arrow_out" transform="scale(0.3 0.3)">
          <a xlink:href="classParser__inherit__graph_org.svg" target="_base">
           <rect id="button" ry="5" rx="5" y="6" x="6" height="38" width="38"
                fill="#f2f5e9" fill-opacity="0.5" stroke="#606060" stroke-width="1.0"/>
           <path id="arrow"
             d="M 11.500037,31.436501 C 11.940474,20.09759 22.043105,11.32322 32.158766,21.979434 L 37.068811,17.246167 C 37.068811,17.246167 37.088388,32 37.088388,32 L 22.160133,31.978069 C 22.160133,31.978069 26.997745,27.140456 26.997745,27.140456 C 18.528582,18.264221 13.291696,25.230495 11.500037,31.436501 z"
             style="fill:#404040;"/>
          </a>
         </g>
        </svg>
</svg>
