<?xml version="1.0" encoding="UTF-8" standalone="no"?>
<!DOCTYPE svg PUBLIC "-//W3C//DTD SVG 1.1//EN"
 "http://www.w3.org/Graphics/SVG/1.1/DTD/svg11.dtd">
<!-- Generated by graphviz version 2.43.0 (0)
 -->
<!-- Title: Parser Pages: 1 -->
<svg width="3084pt" height="281pt"
 viewBox="0.00 0.00 3084.00 281.00" xmlns="http://www.w3.org/2000/svg" xmlns:xlink="http://www.w3.org/1999/xlink">
<g id="graph0" class="graph" transform="scale(1 1) rotate(0) translate(4 277)">
<title>Parser</title>
<polygon fill="white" stroke="transparent" points="-4,4 -4,-277 3080,-277 3080,4 -4,4"/>
<!-- Node1 -->
<g id="node1" class="node">
<title>Node1</title>
<g id="a_node1"><a xlink:title="This class is responsible for parsing command line arguments and validating user inputs.">
<polygon fill="#bfbfbf" stroke="black" points="1181.5,-0.5 1181.5,-90.5 1318.5,-90.5 1318.5,-0.5 1181.5,-0.5"/>
<text text-anchor="middle" x="1250" y="-78.5" font-family="Helvetica,sans-Serif" font-size="10.00">Parser</text>
<polyline fill="none" stroke="black" points="1181.5,-71.5 1318.5,-71.5 "/>
<text text-anchor="middle" x="1250" y="-59.5" font-family="Helvetica,sans-Serif" font-size="10.00"> </text>
<polyline fill="none" stroke="black" points="1181.5,-52.5 1318.5,-52.5 "/>
<text text-anchor="start" x="1189.5" y="-40.5" font-family="Helvetica,sans-Serif" font-size="10.00">+ Parser()</text>
<text text-anchor="start" x="1189.5" y="-29.5" font-family="Helvetica,sans-Serif" font-size="10.00">and 53 more...</text>
<text text-anchor="start" x="1189.5" y="-18.5" font-family="Helvetica,sans-Serif" font-size="10.00"># buildInputArguments()</text>
<text text-anchor="start" x="1189.5" y="-7.5" font-family="Helvetica,sans-Serif" font-size="10.00">and 107 more...</text>
</a>
</g>
</g>
<!-- Node2 -->
<g id="node2" class="node">
<title>Node2</title>
<g id="a_node2"><a xlink:href="../../dd/d02/classCommandLine.html" target="_top" xlink:title=" ">
<polygon fill="white" stroke="black" points="0,-127.5 0,-272.5 158,-272.5 158,-127.5 0,-127.5"/>
<text text-anchor="start" x="8" y="-260.5" font-family="Helvetica,sans-Serif" font-size="10.00">CommandLine&lt; TaylorSeries</text>
<text text-anchor="middle" x="79" y="-249.5" font-family="Helvetica,sans-Serif" font-size="10.00">Inputs &gt;</text>
<polyline fill="none" stroke="black" points="0,-242.5 158,-242.5 "/>
<text text-anchor="start" x="8" y="-230.5" font-family="Helvetica,sans-Serif" font-size="10.00"># variablesMap</text>
<text text-anchor="start" x="8" y="-219.5" font-family="Helvetica,sans-Serif" font-size="10.00">and 4 more...</text>
<polyline fill="none" stroke="black" points="0,-212.5 158,-212.5 "/>
<text text-anchor="start" x="8" y="-200.5" font-family="Helvetica,sans-Serif" font-size="10.00">+ CommandLine()</text>
<text text-anchor="start" x="8" y="-189.5" font-family="Helvetica,sans-Serif" font-size="10.00">and 8 more...</text>
<text text-anchor="start" x="8" y="-178.5" font-family="Helvetica,sans-Serif" font-size="10.00">+ printLine()</text>
<text text-anchor="start" x="8" y="-167.5" font-family="Helvetica,sans-Serif" font-size="10.00"># buildInputArguments()</text>
<text text-anchor="start" x="8" y="-156.5" font-family="Helvetica,sans-Serif" font-size="10.00">and 5 more...</text>
<text text-anchor="start" x="8" y="-145.5" font-family="Helvetica,sans-Serif" font-size="10.00"># buildGenerics()</text>
<text text-anchor="start" x="8" y="-134.5" font-family="Helvetica,sans-Serif" font-size="10.00">and 2 more...</text>
</a>
</g>
</g>
<!-- Node2&#45;&gt;Node1 -->
<g id="edge1" class="edge">
<title>Node2&#45;&gt;Node1</title>
<path fill="none" stroke="midnightblue" d="M167.44,-127.42C371.9,-52.67 976.76,-46.31 1181.47,-46.25"/>
<polygon fill="none" stroke="midnightblue" points="166.1,-124.19 158.01,-131.03 168.6,-130.72 166.1,-124.19"/>
</g>
<!-- Node3 -->
<g id="node3" class="node">
<title>Node3</title>
<g id="a_node3"><a xlink:href="../../dd/d02/classCommandLine.html" target="_top" xlink:title=" ">
<polygon fill="white" stroke="black" points="176,-133 176,-267 354,-267 354,-133 176,-133"/>
<text text-anchor="middle" x="265" y="-255" font-family="Helvetica,sans-Serif" font-size="10.00">CommandLine&lt; InLab10Inputs &gt;</text>
<polyline fill="none" stroke="black" points="176,-248 354,-248 "/>
<text text-anchor="start" x="184" y="-236" font-family="Helvetica,sans-Serif" font-size="10.00"># variablesMap</text>
<text text-anchor="start" x="184" y="-225" font-family="Helvetica,sans-Serif" font-size="10.00">and 4 more...</text>
<polyline fill="none" stroke="black" points="176,-218 354,-218 "/>
<text text-anchor="start" x="184" y="-206" font-family="Helvetica,sans-Serif" font-size="10.00">+ CommandLine()</text>
<text text-anchor="start" x="184" y="-195" font-family="Helvetica,sans-Serif" font-size="10.00">and 8 more...</text>
<text text-anchor="start" x="184" y="-184" font-family="Helvetica,sans-Serif" font-size="10.00">+ printLine()</text>
<text text-anchor="start" x="184" y="-173" font-family="Helvetica,sans-Serif" font-size="10.00"># buildInputArguments()</text>
<text text-anchor="start" x="184" y="-162" font-family="Helvetica,sans-Serif" font-size="10.00">and 5 more...</text>
<text text-anchor="start" x="184" y="-151" font-family="Helvetica,sans-Serif" font-size="10.00"># buildGenerics()</text>
<text text-anchor="start" x="184" y="-140" font-family="Helvetica,sans-Serif" font-size="10.00">and 2 more...</text>
</a>
</g>
</g>
<!-- Node3&#45;&gt;Node1 -->
<g id="edge2" class="edge">
<title>Node3&#45;&gt;Node1</title>
<path fill="none" stroke="midnightblue" d="M358.75,-128.69C360.16,-128.1 361.58,-127.54 363,-127 512.66,-70.31 1000.23,-52.67 1181.4,-47.99"/>
<polygon fill="none" stroke="midnightblue" points="357.13,-125.58 349.48,-132.91 360.04,-131.95 357.13,-125.58"/>
</g>
<!-- Node4 -->
<g id="node4" class="node">
<title>Node4</title>
<g id="a_node4"><a xlink:href="../../dd/d02/classCommandLine.html" target="_top" xlink:title=" ">
<polygon fill="white" stroke="black" points="372,-133 372,-267 550,-267 550,-133 372,-133"/>
<text text-anchor="middle" x="461" y="-255" font-family="Helvetica,sans-Serif" font-size="10.00">CommandLine&lt; InLab11Inputs &gt;</text>
<polyline fill="none" stroke="black" points="372,-248 550,-248 "/>
<text text-anchor="start" x="380" y="-236" font-family="Helvetica,sans-Serif" font-size="10.00"># variablesMap</text>
<text text-anchor="start" x="380" y="-225" font-family="Helvetica,sans-Serif" font-size="10.00">and 4 more...</text>
<polyline fill="none" stroke="black" points="372,-218 550,-218 "/>
<text text-anchor="start" x="380" y="-206" font-family="Helvetica,sans-Serif" font-size="10.00">+ CommandLine()</text>
<text text-anchor="start" x="380" y="-195" font-family="Helvetica,sans-Serif" font-size="10.00">and 8 more...</text>
<text text-anchor="start" x="380" y="-184" font-family="Helvetica,sans-Serif" font-size="10.00">+ printLine()</text>
<text text-anchor="start" x="380" y="-173" font-family="Helvetica,sans-Serif" font-size="10.00"># buildInputArguments()</text>
<text text-anchor="start" x="380" y="-162" font-family="Helvetica,sans-Serif" font-size="10.00">and 5 more...</text>
<text text-anchor="start" x="380" y="-151" font-family="Helvetica,sans-Serif" font-size="10.00"># buildGenerics()</text>
<text text-anchor="start" x="380" y="-140" font-family="Helvetica,sans-Serif" font-size="10.00">and 2 more...</text>
</a>
</g>
</g>
<!-- Node4&#45;&gt;Node1 -->
<g id="edge3" class="edge">
<title>Node4&#45;&gt;Node1</title>
<path fill="none" stroke="midnightblue" d="M555.28,-128.53C556.52,-128 557.76,-127.49 559,-127 671.39,-82.78 1029.92,-58.52 1181.4,-50.02"/>
<polygon fill="none" stroke="midnightblue" points="553.43,-125.53 545.83,-132.91 556.37,-131.87 553.43,-125.53"/>
</g>
<!-- Node5 -->
<g id="node5" class="node">
<title>Node5</title>
<g id="a_node5"><a xlink:href="../../dd/d02/classCommandLine.html" target="_top" xlink:title=" ">
<polygon fill="white" stroke="black" points="568,-133 568,-267 746,-267 746,-133 568,-133"/>
<text text-anchor="middle" x="657" y="-255" font-family="Helvetica,sans-Serif" font-size="10.00">CommandLine&lt; InLab12Inputs &gt;</text>
<polyline fill="none" stroke="black" points="568,-248 746,-248 "/>
<text text-anchor="start" x="576" y="-236" font-family="Helvetica,sans-Serif" font-size="10.00"># variablesMap</text>
<text text-anchor="start" x="576" y="-225" font-family="Helvetica,sans-Serif" font-size="10.00">and 4 more...</text>
<polyline fill="none" stroke="black" points="568,-218 746,-218 "/>
<text text-anchor="start" x="576" y="-206" font-family="Helvetica,sans-Serif" font-size="10.00">+ CommandLine()</text>
<text text-anchor="start" x="576" y="-195" font-family="Helvetica,sans-Serif" font-size="10.00">and 8 more...</text>
<text text-anchor="start" x="576" y="-184" font-family="Helvetica,sans-Serif" font-size="10.00">+ printLine()</text>
<text text-anchor="start" x="576" y="-173" font-family="Helvetica,sans-Serif" font-size="10.00"># buildInputArguments()</text>
<text text-anchor="start" x="576" y="-162" font-family="Helvetica,sans-Serif" font-size="10.00">and 5 more...</text>
<text text-anchor="start" x="576" y="-151" font-family="Helvetica,sans-Serif" font-size="10.00"># buildGenerics()</text>
<text text-anchor="start" x="576" y="-140" font-family="Helvetica,sans-Serif" font-size="10.00">and 2 more...</text>
</a>
</g>
</g>
<!-- Node5&#45;&gt;Node1 -->
<g id="edge4" class="edge">
<title>Node5&#45;&gt;Node1</title>
<path fill="none" stroke="midnightblue" d="M751.86,-128.36C752.91,-127.89 753.95,-127.44 755,-127 898.5,-66.76 1082.94,-51.4 1181.18,-47.61"/>
<polygon fill="none" stroke="midnightblue" points="750,-125.37 742.51,-132.86 753.04,-131.68 750,-125.37"/>
</g>
<!-- Node6 -->
<g id="node6" class="node">
<title>Node6</title>
<g id="a_node6"><a xlink:href="../../dd/d02/classCommandLine.html" target="_top" xlink:title=" ">
<polygon fill="white" stroke="black" points="764,-133 764,-267 934,-267 934,-133 764,-133"/>
<text text-anchor="middle" x="849" y="-255" font-family="Helvetica,sans-Serif" font-size="10.00">CommandLine&lt; SolverInputs &gt;</text>
<polyline fill="none" stroke="black" points="764,-248 934,-248 "/>
<text text-anchor="start" x="772" y="-236" font-family="Helvetica,sans-Serif" font-size="10.00"># variablesMap</text>
<text text-anchor="start" x="772" y="-225" font-family="Helvetica,sans-Serif" font-size="10.00">and 4 more...</text>
<polyline fill="none" stroke="black" points="764,-218 934,-218 "/>
<text text-anchor="start" x="772" y="-206" font-family="Helvetica,sans-Serif" font-size="10.00">+ CommandLine()</text>
<text text-anchor="start" x="772" y="-195" font-family="Helvetica,sans-Serif" font-size="10.00">and 8 more...</text>
<text text-anchor="start" x="772" y="-184" font-family="Helvetica,sans-Serif" font-size="10.00">+ printLine()</text>
<text text-anchor="start" x="772" y="-173" font-family="Helvetica,sans-Serif" font-size="10.00"># buildInputArguments()</text>
<text text-anchor="start" x="772" y="-162" font-family="Helvetica,sans-Serif" font-size="10.00">and 5 more...</text>
<text text-anchor="start" x="772" y="-151" font-family="Helvetica,sans-Serif" font-size="10.00"># buildGenerics()</text>
<text text-anchor="start" x="772" y="-140" font-family="Helvetica,sans-Serif" font-size="10.00">and 2 more...</text>
</a>
</g>
</g>
<!-- Node6&#45;&gt;Node1 -->
<g id="edge5" class="edge">
<title>Node6&#45;&gt;Node1</title>
<path fill="none" stroke="midnightblue" d="M886.92,-128.03C887.62,-127.68 888.31,-127.34 889,-127 981.18,-81.9 1101.73,-59.81 1181.37,-51.13"/>
<polygon fill="none" stroke="midnightblue" points="885.12,-125.03 877.98,-132.86 888.44,-131.19 885.12,-125.03"/>
</g>
<!-- Node6&#45;&gt;Node1 -->
<g id="edge16" class="edge">
<title>Node6&#45;&gt;Node1</title>
<path fill="none" stroke="midnightblue" d="M904.92,-128.03C905.62,-127.68 906.31,-127.34 907,-127 994.6,-84.14 1107.83,-62.06 1181.26,-52.52"/>
<polygon fill="none" stroke="midnightblue" points="903.11,-125.03 895.97,-132.86 906.43,-131.19 903.11,-125.03"/>
</g>
<!-- Node6&#45;&gt;Node1 -->
<g id="edge23" class="edge">
<title>Node6&#45;&gt;Node1</title>
<path fill="none" stroke="midnightblue" d="M922.92,-128.03C923.62,-127.68 924.31,-127.34 925,-127 1007.65,-86.56 1113.12,-64.62 1181.45,-54.26"/>
<polygon fill="none" stroke="midnightblue" points="921.11,-125.03 913.96,-132.86 924.43,-131.2 921.11,-125.03"/>
</g>
<!-- Node6&#45;&gt;Node1 -->
<g id="edge24" class="edge">
<title>Node6&#45;&gt;Node1</title>
<path fill="none" stroke="midnightblue" d="M940.92,-128.03C941.62,-127.68 942.31,-127.34 943,-127 1020.21,-89.22 1117.32,-67.59 1181.41,-56.46"/>
<polygon fill="none" stroke="midnightblue" points="939.1,-125.04 931.95,-132.86 942.42,-131.2 939.1,-125.04"/>
</g>
<!-- Node6&#45;&gt;Node1 -->
<g id="edge25" class="edge">
<title>Node6&#45;&gt;Node1</title>
<path fill="none" stroke="midnightblue" d="M942.85,-137.04C948.85,-133.37 954.92,-129.97 961,-127 1032.52,-92.01 1121.11,-70.87 1181.48,-59.1"/>
<polygon fill="none" stroke="midnightblue" points="940.68,-134.27 934.11,-142.59 944.43,-140.18 940.68,-134.27"/>
</g>
<!-- Node6&#45;&gt;Node1 -->
<g id="edge26" class="edge">
<title>Node6&#45;&gt;Node1</title>
<path fill="none" stroke="midnightblue" d="M942.38,-148.97C954.43,-140.78 966.7,-133.02 979,-127 1044.58,-94.91 1124.51,-74.48 1181.39,-62.23"/>
<polygon fill="none" stroke="midnightblue" points="940.33,-146.14 934.08,-154.7 944.3,-151.9 940.33,-146.14"/>
</g>
<!-- Node6&#45;&gt;Node1 -->
<g id="edge27" class="edge">
<title>Node6&#45;&gt;Node1</title>
<path fill="none" stroke="midnightblue" d="M942.52,-160.69C960.89,-148.48 978.91,-135.85 997,-127 1056.52,-97.88 1127.86,-78.35 1181.19,-65.84"/>
<polygon fill="none" stroke="midnightblue" points="940.48,-157.84 934.05,-166.26 944.33,-163.69 940.48,-157.84"/>
</g>
<!-- Node7 -->
<g id="node7" class="node">
<title>Node7</title>
<g id="a_node7"><a xlink:href="../../dd/d02/classCommandLine.html" target="_top" xlink:title=" ">
<polygon fill="white" stroke="black" points="952,-127.5 952,-272.5 1150,-272.5 1150,-127.5 952,-127.5"/>
<text text-anchor="start" x="960" y="-260.5" font-family="Helvetica,sans-Serif" font-size="10.00">CommandLine&lt; LagrangePolynomial</text>
<text text-anchor="middle" x="1051" y="-249.5" font-family="Helvetica,sans-Serif" font-size="10.00">Inputs &gt;</text>
<polyline fill="none" stroke="black" points="952,-242.5 1150,-242.5 "/>
<text text-anchor="start" x="960" y="-230.5" font-family="Helvetica,sans-Serif" font-size="10.00"># variablesMap</text>
<text text-anchor="start" x="960" y="-219.5" font-family="Helvetica,sans-Serif" font-size="10.00">and 4 more...</text>
<polyline fill="none" stroke="black" points="952,-212.5 1150,-212.5 "/>
<text text-anchor="start" x="960" y="-200.5" font-family="Helvetica,sans-Serif" font-size="10.00">+ CommandLine()</text>
<text text-anchor="start" x="960" y="-189.5" font-family="Helvetica,sans-Serif" font-size="10.00">and 8 more...</text>
<text text-anchor="start" x="960" y="-178.5" font-family="Helvetica,sans-Serif" font-size="10.00">+ printLine()</text>
<text text-anchor="start" x="960" y="-167.5" font-family="Helvetica,sans-Serif" font-size="10.00"># buildInputArguments()</text>
<text text-anchor="start" x="960" y="-156.5" font-family="Helvetica,sans-Serif" font-size="10.00">and 5 more...</text>
<text text-anchor="start" x="960" y="-145.5" font-family="Helvetica,sans-Serif" font-size="10.00"># buildGenerics()</text>
<text text-anchor="start" x="960" y="-134.5" font-family="Helvetica,sans-Serif" font-size="10.00">and 2 more...</text>
</a>
</g>
</g>
<!-- Node7&#45;&gt;Node1 -->
<g id="edge6" class="edge">
<title>Node7&#45;&gt;Node1</title>
<path fill="none" stroke="midnightblue" d="M1145.69,-121.26C1159.41,-110.76 1173.24,-100.31 1186.16,-90.68"/>
<polygon fill="none" stroke="midnightblue" points="1143.45,-118.57 1137.64,-127.44 1147.71,-124.13 1143.45,-118.57"/>
</g>
<!-- Node7&#45;&gt;Node1 -->
<g id="edge17" class="edge">
<title>Node7&#45;&gt;Node1</title>
<path fill="none" stroke="midnightblue" d="M1158.46,-121.82C1172.4,-111.13 1186.12,-100.47 1198.55,-90.67"/>
<polygon fill="none" stroke="midnightblue" points="1156.06,-119.25 1150.24,-128.11 1160.31,-124.81 1156.06,-119.25"/>
</g>
<!-- Node8 -->
<g id="node8" class="node">
<title>Node8</title>
<g id="a_node8"><a xlink:href="../../dd/d02/classCommandLine.html" target="_top" xlink:title=" ">
<polygon fill="white" stroke="black" points="1168,-127.5 1168,-272.5 1332,-272.5 1332,-127.5 1168,-127.5"/>
<text text-anchor="start" x="1176" y="-260.5" font-family="Helvetica,sans-Serif" font-size="10.00">CommandLine&lt; NewtonCotes</text>
<text text-anchor="middle" x="1250" y="-249.5" font-family="Helvetica,sans-Serif" font-size="10.00">Inputs &gt;</text>
<polyline fill="none" stroke="black" points="1168,-242.5 1332,-242.5 "/>
<text text-anchor="start" x="1176" y="-230.5" font-family="Helvetica,sans-Serif" font-size="10.00"># variablesMap</text>
<text text-anchor="start" x="1176" y="-219.5" font-family="Helvetica,sans-Serif" font-size="10.00">and 4 more...</text>
<polyline fill="none" stroke="black" points="1168,-212.5 1332,-212.5 "/>
<text text-anchor="start" x="1176" y="-200.5" font-family="Helvetica,sans-Serif" font-size="10.00">+ CommandLine()</text>
<text text-anchor="start" x="1176" y="-189.5" font-family="Helvetica,sans-Serif" font-size="10.00">and 8 more...</text>
<text text-anchor="start" x="1176" y="-178.5" font-family="Helvetica,sans-Serif" font-size="10.00">+ printLine()</text>
<text text-anchor="start" x="1176" y="-167.5" font-family="Helvetica,sans-Serif" font-size="10.00"># buildInputArguments()</text>
<text text-anchor="start" x="1176" y="-156.5" font-family="Helvetica,sans-Serif" font-size="10.00">and 5 more...</text>
<text text-anchor="start" x="1176" y="-145.5" font-family="Helvetica,sans-Serif" font-size="10.00"># buildGenerics()</text>
<text text-anchor="start" x="1176" y="-134.5" font-family="Helvetica,sans-Serif" font-size="10.00">and 2 more...</text>
</a>
</g>
</g>
<!-- Node8&#45;&gt;Node1 -->
<g id="edge7" class="edge">
<title>Node8&#45;&gt;Node1</title>
<path fill="none" stroke="midnightblue" d="M1243.27,-116.94C1243.32,-107.86 1243.51,-98.88 1243.82,-90.54"/>
<polygon fill="none" stroke="midnightblue" points="1239.77,-117.21 1243.26,-127.22 1246.77,-117.22 1239.77,-117.21"/>
</g>
<!-- Node8&#45;&gt;Node1 -->
<g id="edge18" class="edge">
<title>Node8&#45;&gt;Node1</title>
<path fill="none" stroke="midnightblue" d="M1256.73,-116.94C1256.68,-107.86 1256.49,-98.88 1256.18,-90.54"/>
<polygon fill="none" stroke="midnightblue" points="1253.23,-117.22 1256.74,-127.22 1260.23,-117.21 1253.23,-117.22"/>
</g>
<!-- Node9 -->
<g id="node9" class="node">
<title>Node9</title>
<g id="a_node9"><a xlink:href="../../dd/d02/classCommandLine.html" target="_top" xlink:title=" ">
<polygon fill="white" stroke="black" points="1350,-133 1350,-267 1526,-267 1526,-133 1350,-133"/>
<text text-anchor="middle" x="1438" y="-255" font-family="Helvetica,sans-Serif" font-size="10.00">CommandLine&lt; InputMatrices &gt;</text>
<polyline fill="none" stroke="black" points="1350,-248 1526,-248 "/>
<text text-anchor="start" x="1358" y="-236" font-family="Helvetica,sans-Serif" font-size="10.00"># variablesMap</text>
<text text-anchor="start" x="1358" y="-225" font-family="Helvetica,sans-Serif" font-size="10.00">and 4 more...</text>
<polyline fill="none" stroke="black" points="1350,-218 1526,-218 "/>
<text text-anchor="start" x="1358" y="-206" font-family="Helvetica,sans-Serif" font-size="10.00">+ CommandLine()</text>
<text text-anchor="start" x="1358" y="-195" font-family="Helvetica,sans-Serif" font-size="10.00">and 8 more...</text>
<text text-anchor="start" x="1358" y="-184" font-family="Helvetica,sans-Serif" font-size="10.00">+ printLine()</text>
<text text-anchor="start" x="1358" y="-173" font-family="Helvetica,sans-Serif" font-size="10.00"># buildInputArguments()</text>
<text text-anchor="start" x="1358" y="-162" font-family="Helvetica,sans-Serif" font-size="10.00">and 5 more...</text>
<text text-anchor="start" x="1358" y="-151" font-family="Helvetica,sans-Serif" font-size="10.00"># buildGenerics()</text>
<text text-anchor="start" x="1358" y="-140" font-family="Helvetica,sans-Serif" font-size="10.00">and 2 more...</text>
</a>
</g>
</g>
<!-- Node9&#45;&gt;Node1 -->
<g id="edge8" class="edge">
<title>Node9&#45;&gt;Node1</title>
<path fill="none" stroke="midnightblue" d="M1341.99,-126.59C1326.8,-114.3 1311.67,-101.88 1298.19,-90.61"/>
<polygon fill="none" stroke="midnightblue" points="1339.96,-129.45 1349.94,-133 1344.35,-124 1339.96,-129.45"/>
</g>
<!-- Node9&#45;&gt;Node1 -->
<g id="edge20" class="edge">
<title>Node9&#45;&gt;Node1</title>
<path fill="none" stroke="midnightblue" d="M1355.48,-126.59C1340.38,-114.3 1324.88,-101.88 1310.57,-90.61"/>
<polygon fill="none" stroke="midnightblue" points="1353.37,-129.39 1363.33,-133 1357.79,-123.96 1353.37,-129.39"/>
</g>
<!-- Node10 -->
<g id="node10" class="node">
<title>Node10</title>
<g id="a_node10"><a xlink:href="../../dd/d02/classCommandLine.html" target="_top" xlink:title=" ">
<polygon fill="white" stroke="black" points="1544.5,-127.5 1544.5,-272.5 1683.5,-272.5 1683.5,-127.5 1544.5,-127.5"/>
<text text-anchor="start" x="1552.5" y="-260.5" font-family="Helvetica,sans-Serif" font-size="10.00">CommandLine&lt; MyBLAS</text>
<text text-anchor="middle" x="1614" y="-249.5" font-family="Helvetica,sans-Serif" font-size="10.00">::InputMatrices &gt;</text>
<polyline fill="none" stroke="black" points="1544.5,-242.5 1683.5,-242.5 "/>
<text text-anchor="start" x="1552.5" y="-230.5" font-family="Helvetica,sans-Serif" font-size="10.00"># variablesMap</text>
<text text-anchor="start" x="1552.5" y="-219.5" font-family="Helvetica,sans-Serif" font-size="10.00">and 4 more...</text>
<polyline fill="none" stroke="black" points="1544.5,-212.5 1683.5,-212.5 "/>
<text text-anchor="start" x="1552.5" y="-200.5" font-family="Helvetica,sans-Serif" font-size="10.00">+ CommandLine()</text>
<text text-anchor="start" x="1552.5" y="-189.5" font-family="Helvetica,sans-Serif" font-size="10.00">and 8 more...</text>
<text text-anchor="start" x="1552.5" y="-178.5" font-family="Helvetica,sans-Serif" font-size="10.00">+ printLine()</text>
<text text-anchor="start" x="1552.5" y="-167.5" font-family="Helvetica,sans-Serif" font-size="10.00"># buildInputArguments()</text>
<text text-anchor="start" x="1552.5" y="-156.5" font-family="Helvetica,sans-Serif" font-size="10.00">and 5 more...</text>
<text text-anchor="start" x="1552.5" y="-145.5" font-family="Helvetica,sans-Serif" font-size="10.00"># buildGenerics()</text>
<text text-anchor="start" x="1552.5" y="-134.5" font-family="Helvetica,sans-Serif" font-size="10.00">and 2 more...</text>
</a>
</g>
</g>
<!-- Node10&#45;&gt;Node1 -->
<g id="edge9" class="edge">
<title>Node10&#45;&gt;Node1</title>
<path fill="none" stroke="midnightblue" d="M1535.74,-132.9C1532.52,-130.8 1529.27,-128.82 1526,-127 1460.27,-90.48 1376.63,-69.41 1318.67,-58.06"/>
<polygon fill="none" stroke="midnightblue" points="1533.93,-135.91 1544.14,-138.74 1537.92,-130.16 1533.93,-135.91"/>
</g>
<!-- Node10&#45;&gt;Node1 -->
<g id="edge19" class="edge">
<title>Node10&#45;&gt;Node1</title>
<path fill="none" stroke="midnightblue" d="M1535.58,-122.47C1465.37,-85.74 1378.23,-65.62 1318.69,-55.46"/>
<polygon fill="none" stroke="midnightblue" points="1534.02,-125.61 1544.49,-127.27 1537.34,-119.45 1534.02,-125.61"/>
</g>
<!-- Node11 -->
<g id="node11" class="node">
<title>Node11</title>
<g id="a_node11"><a xlink:href="../../dd/d02/classCommandLine.html" target="_top" xlink:title=" ">
<polygon fill="white" stroke="black" points="1702,-133 1702,-267 1874,-267 1874,-133 1702,-133"/>
<text text-anchor="middle" x="1788" y="-255" font-family="Helvetica,sans-Serif" font-size="10.00">CommandLine&lt; InLab6Inputs &gt;</text>
<polyline fill="none" stroke="black" points="1702,-248 1874,-248 "/>
<text text-anchor="start" x="1710" y="-236" font-family="Helvetica,sans-Serif" font-size="10.00"># variablesMap</text>
<text text-anchor="start" x="1710" y="-225" font-family="Helvetica,sans-Serif" font-size="10.00">and 4 more...</text>
<polyline fill="none" stroke="black" points="1702,-218 1874,-218 "/>
<text text-anchor="start" x="1710" y="-206" font-family="Helvetica,sans-Serif" font-size="10.00">+ CommandLine()</text>
<text text-anchor="start" x="1710" y="-195" font-family="Helvetica,sans-Serif" font-size="10.00">and 8 more...</text>
<text text-anchor="start" x="1710" y="-184" font-family="Helvetica,sans-Serif" font-size="10.00">+ printLine()</text>
<text text-anchor="start" x="1710" y="-173" font-family="Helvetica,sans-Serif" font-size="10.00"># buildInputArguments()</text>
<text text-anchor="start" x="1710" y="-162" font-family="Helvetica,sans-Serif" font-size="10.00">and 5 more...</text>
<text text-anchor="start" x="1710" y="-151" font-family="Helvetica,sans-Serif" font-size="10.00"># buildGenerics()</text>
<text text-anchor="start" x="1710" y="-140" font-family="Helvetica,sans-Serif" font-size="10.00">and 2 more...</text>
</a>
</g>
</g>
<!-- Node11&#45;&gt;Node1 -->
<g id="edge10" class="edge">
<title>Node11&#45;&gt;Node1</title>
<path fill="none" stroke="midnightblue" d="M1696.05,-128.38C1695.04,-127.91 1694.02,-127.45 1693,-127 1568.31,-72.19 1408.12,-54.7 1318.53,-49.12"/>
<polygon fill="none" stroke="midnightblue" points="1694.64,-131.59 1705.15,-132.95 1697.78,-125.33 1694.64,-131.59"/>
</g>
<!-- Node12 -->
<g id="node12" class="node">
<title>Node12</title>
<g id="a_node12"><a xlink:href="../../dd/d02/classCommandLine.html" target="_top" xlink:title=" ">
<polygon fill="white" stroke="black" points="1892,-133 1892,-267 2072,-267 2072,-133 1892,-133"/>
<text text-anchor="middle" x="1982" y="-255" font-family="Helvetica,sans-Serif" font-size="10.00">CommandLine&lt; OutLab7Inputs &gt;</text>
<polyline fill="none" stroke="black" points="1892,-248 2072,-248 "/>
<text text-anchor="start" x="1900" y="-236" font-family="Helvetica,sans-Serif" font-size="10.00"># variablesMap</text>
<text text-anchor="start" x="1900" y="-225" font-family="Helvetica,sans-Serif" font-size="10.00">and 4 more...</text>
<polyline fill="none" stroke="black" points="1892,-218 2072,-218 "/>
<text text-anchor="start" x="1900" y="-206" font-family="Helvetica,sans-Serif" font-size="10.00">+ CommandLine()</text>
<text text-anchor="start" x="1900" y="-195" font-family="Helvetica,sans-Serif" font-size="10.00">and 8 more...</text>
<text text-anchor="start" x="1900" y="-184" font-family="Helvetica,sans-Serif" font-size="10.00">+ printLine()</text>
<text text-anchor="start" x="1900" y="-173" font-family="Helvetica,sans-Serif" font-size="10.00"># buildInputArguments()</text>
<text text-anchor="start" x="1900" y="-162" font-family="Helvetica,sans-Serif" font-size="10.00">and 5 more...</text>
<text text-anchor="start" x="1900" y="-151" font-family="Helvetica,sans-Serif" font-size="10.00"># buildGenerics()</text>
<text text-anchor="start" x="1900" y="-140" font-family="Helvetica,sans-Serif" font-size="10.00">and 2 more...</text>
</a>
</g>
</g>
<!-- Node12&#45;&gt;Node1 -->
<g id="edge11" class="edge">
<title>Node12&#45;&gt;Node1</title>
<path fill="none" stroke="midnightblue" d="M1882.73,-130.78C1879.83,-129.42 1876.92,-128.16 1874,-127 1773.6,-87.17 1458.88,-61.31 1318.57,-51.25"/>
<polygon fill="none" stroke="midnightblue" points="1881.41,-134.03 1891.92,-135.39 1884.55,-127.77 1881.41,-134.03"/>
</g>
<!-- Node12&#45;&gt;Node1 -->
<g id="edge22" class="edge">
<title>Node12&#45;&gt;Node1</title>
<path fill="none" stroke="midnightblue" d="M1896.16,-128.72C1894.78,-128.13 1893.39,-127.55 1892,-127 1789.28,-86.25 1462.24,-60.13 1318.62,-50.58"/>
<polygon fill="none" stroke="midnightblue" points="1894.71,-131.91 1905.25,-132.97 1897.67,-125.57 1894.71,-131.91"/>
</g>
<!-- Node13 -->
<g id="node13" class="node">
<title>Node13</title>
<g id="a_node13"><a xlink:href="../../dd/d02/classCommandLine.html" target="_top" xlink:title=" ">
<polygon fill="white" stroke="black" points="2090,-127.5 2090,-272.5 2266,-272.5 2266,-127.5 2090,-127.5"/>
<text text-anchor="start" x="2098" y="-260.5" font-family="Helvetica,sans-Serif" font-size="10.00">CommandLine&lt; MatrixConstruct</text>
<text text-anchor="middle" x="2178" y="-249.5" font-family="Helvetica,sans-Serif" font-size="10.00">Params &gt;</text>
<polyline fill="none" stroke="black" points="2090,-242.5 2266,-242.5 "/>
<text text-anchor="start" x="2098" y="-230.5" font-family="Helvetica,sans-Serif" font-size="10.00"># variablesMap</text>
<text text-anchor="start" x="2098" y="-219.5" font-family="Helvetica,sans-Serif" font-size="10.00">and 4 more...</text>
<polyline fill="none" stroke="black" points="2090,-212.5 2266,-212.5 "/>
<text text-anchor="start" x="2098" y="-200.5" font-family="Helvetica,sans-Serif" font-size="10.00">+ CommandLine()</text>
<text text-anchor="start" x="2098" y="-189.5" font-family="Helvetica,sans-Serif" font-size="10.00">and 8 more...</text>
<text text-anchor="start" x="2098" y="-178.5" font-family="Helvetica,sans-Serif" font-size="10.00">+ printLine()</text>
<text text-anchor="start" x="2098" y="-167.5" font-family="Helvetica,sans-Serif" font-size="10.00"># buildInputArguments()</text>
<text text-anchor="start" x="2098" y="-156.5" font-family="Helvetica,sans-Serif" font-size="10.00">and 5 more...</text>
<text text-anchor="start" x="2098" y="-145.5" font-family="Helvetica,sans-Serif" font-size="10.00"># buildGenerics()</text>
<text text-anchor="start" x="2098" y="-134.5" font-family="Helvetica,sans-Serif" font-size="10.00">and 2 more...</text>
</a>
</g>
</g>
<!-- Node13&#45;&gt;Node1 -->
<g id="edge12" class="edge">
<title>Node13&#45;&gt;Node1</title>
<path fill="none" stroke="midnightblue" d="M2080.31,-127.25C1923.83,-72.76 1488.23,-53.95 1318.66,-48.43"/>
<polygon fill="none" stroke="midnightblue" points="2079.17,-130.56 2089.77,-130.72 2081.58,-123.99 2079.17,-130.56"/>
</g>
<!-- Node14 -->
<g id="node14" class="node">
<title>Node14</title>
<g id="a_node14"><a xlink:href="../../dd/d02/classCommandLine.html" target="_top" xlink:title=" ">
<polygon fill="white" stroke="black" points="2284,-133 2284,-267 2470,-267 2470,-133 2284,-133"/>
<text text-anchor="middle" x="2377" y="-255" font-family="Helvetica,sans-Serif" font-size="10.00">CommandLine&lt; OutLab10Inputs &gt;</text>
<polyline fill="none" stroke="black" points="2284,-248 2470,-248 "/>
<text text-anchor="start" x="2292" y="-236" font-family="Helvetica,sans-Serif" font-size="10.00"># variablesMap</text>
<text text-anchor="start" x="2292" y="-225" font-family="Helvetica,sans-Serif" font-size="10.00">and 4 more...</text>
<polyline fill="none" stroke="black" points="2284,-218 2470,-218 "/>
<text text-anchor="start" x="2292" y="-206" font-family="Helvetica,sans-Serif" font-size="10.00">+ CommandLine()</text>
<text text-anchor="start" x="2292" y="-195" font-family="Helvetica,sans-Serif" font-size="10.00">and 8 more...</text>
<text text-anchor="start" x="2292" y="-184" font-family="Helvetica,sans-Serif" font-size="10.00">+ printLine()</text>
<text text-anchor="start" x="2292" y="-173" font-family="Helvetica,sans-Serif" font-size="10.00"># buildInputArguments()</text>
<text text-anchor="start" x="2292" y="-162" font-family="Helvetica,sans-Serif" font-size="10.00">and 5 more...</text>
<text text-anchor="start" x="2292" y="-151" font-family="Helvetica,sans-Serif" font-size="10.00"># buildGenerics()</text>
<text text-anchor="start" x="2292" y="-140" font-family="Helvetica,sans-Serif" font-size="10.00">and 2 more...</text>
</a>
</g>
</g>
<!-- Node14&#45;&gt;Node1 -->
<g id="edge13" class="edge">
<title>Node14&#45;&gt;Node1</title>
<path fill="none" stroke="midnightblue" d="M2279.93,-128.88C2278.29,-128.22 2276.65,-127.59 2275,-127 2098.19,-63.16 1518.48,-49.88 1318.53,-47.17"/>
<polygon fill="none" stroke="midnightblue" points="2278.71,-132.17 2289.28,-132.99 2281.53,-125.76 2278.71,-132.17"/>
</g>
<!-- Node15 -->
<g id="node15" class="node">
<title>Node15</title>
<g id="a_node15"><a xlink:href="../../dd/d02/classCommandLine.html" target="_top" xlink:title=" ">
<polygon fill="white" stroke="black" points="2488,-133 2488,-267 2674,-267 2674,-133 2488,-133"/>
<text text-anchor="middle" x="2581" y="-255" font-family="Helvetica,sans-Serif" font-size="10.00">CommandLine&lt; OutLab11Inputs &gt;</text>
<polyline fill="none" stroke="black" points="2488,-248 2674,-248 "/>
<text text-anchor="start" x="2496" y="-236" font-family="Helvetica,sans-Serif" font-size="10.00"># variablesMap</text>
<text text-anchor="start" x="2496" y="-225" font-family="Helvetica,sans-Serif" font-size="10.00">and 4 more...</text>
<polyline fill="none" stroke="black" points="2488,-218 2674,-218 "/>
<text text-anchor="start" x="2496" y="-206" font-family="Helvetica,sans-Serif" font-size="10.00">+ CommandLine()</text>
<text text-anchor="start" x="2496" y="-195" font-family="Helvetica,sans-Serif" font-size="10.00">and 8 more...</text>
<text text-anchor="start" x="2496" y="-184" font-family="Helvetica,sans-Serif" font-size="10.00">+ printLine()</text>
<text text-anchor="start" x="2496" y="-173" font-family="Helvetica,sans-Serif" font-size="10.00"># buildInputArguments()</text>
<text text-anchor="start" x="2496" y="-162" font-family="Helvetica,sans-Serif" font-size="10.00">and 5 more...</text>
<text text-anchor="start" x="2496" y="-151" font-family="Helvetica,sans-Serif" font-size="10.00"># buildGenerics()</text>
<text text-anchor="start" x="2496" y="-140" font-family="Helvetica,sans-Serif" font-size="10.00">and 2 more...</text>
</a>
</g>
</g>
<!-- Node15&#45;&gt;Node1 -->
<g id="edge14" class="edge">
<title>Node15&#45;&gt;Node1</title>
<path fill="none" stroke="midnightblue" d="M2483.94,-128.85C2482.3,-128.2 2480.65,-127.58 2479,-127 2262.55,-50.43 1544.4,-45.67 1318.59,-46.13"/>
<polygon fill="none" stroke="midnightblue" points="2482.74,-132.15 2493.3,-132.91 2485.52,-125.72 2482.74,-132.15"/>
</g>
<!-- Node16 -->
<g id="node16" class="node">
<title>Node16</title>
<g id="a_node16"><a xlink:href="../../dd/d02/classCommandLine.html" target="_top" xlink:title=" ">
<polygon fill="white" stroke="black" points="2692,-133 2692,-267 2878,-267 2878,-133 2692,-133"/>
<text text-anchor="middle" x="2785" y="-255" font-family="Helvetica,sans-Serif" font-size="10.00">CommandLine&lt; OutLab12Inputs &gt;</text>
<polyline fill="none" stroke="black" points="2692,-248 2878,-248 "/>
<text text-anchor="start" x="2700" y="-236" font-family="Helvetica,sans-Serif" font-size="10.00"># variablesMap</text>
<text text-anchor="start" x="2700" y="-225" font-family="Helvetica,sans-Serif" font-size="10.00">and 4 more...</text>
<polyline fill="none" stroke="black" points="2692,-218 2878,-218 "/>
<text text-anchor="start" x="2700" y="-206" font-family="Helvetica,sans-Serif" font-size="10.00">+ CommandLine()</text>
<text text-anchor="start" x="2700" y="-195" font-family="Helvetica,sans-Serif" font-size="10.00">and 8 more...</text>
<text text-anchor="start" x="2700" y="-184" font-family="Helvetica,sans-Serif" font-size="10.00">+ printLine()</text>
<text text-anchor="start" x="2700" y="-173" font-family="Helvetica,sans-Serif" font-size="10.00"># buildInputArguments()</text>
<text text-anchor="start" x="2700" y="-162" font-family="Helvetica,sans-Serif" font-size="10.00">and 5 more...</text>
<text text-anchor="start" x="2700" y="-151" font-family="Helvetica,sans-Serif" font-size="10.00"># buildGenerics()</text>
<text text-anchor="start" x="2700" y="-140" font-family="Helvetica,sans-Serif" font-size="10.00">and 2 more...</text>
</a>
</g>
</g>
<!-- Node16&#45;&gt;Node1 -->
<g id="edge15" class="edge">
<title>Node16&#45;&gt;Node1</title>
<path fill="none" stroke="midnightblue" d="M2688.06,-128.87C2686.37,-128.21 2684.69,-127.59 2683,-127 2553.52,-81.87 1587.2,-54.83 1318.91,-48.14"/>
<polygon fill="none" stroke="midnightblue" points="2687.06,-132.25 2697.62,-133 2689.83,-125.83 2687.06,-132.25"/>
</g>
<!-- Node17 -->
<g id="node17" class="node">
<title>Node17</title>
<g id="a_node17"><a xlink:href="../../dd/d02/classCommandLine.html" target="_top" xlink:title=" ">
<polygon fill="white" stroke="black" points="2896,-133 2896,-267 3076,-267 3076,-133 2896,-133"/>
<text text-anchor="middle" x="2986" y="-255" font-family="Helvetica,sans-Serif" font-size="10.00">CommandLine&lt; OutLab6Inputs &gt;</text>
<polyline fill="none" stroke="black" points="2896,-248 3076,-248 "/>
<text text-anchor="start" x="2904" y="-236" font-family="Helvetica,sans-Serif" font-size="10.00"># variablesMap</text>
<text text-anchor="start" x="2904" y="-225" font-family="Helvetica,sans-Serif" font-size="10.00">and 4 more...</text>
<polyline fill="none" stroke="black" points="2896,-218 3076,-218 "/>
<text text-anchor="start" x="2904" y="-206" font-family="Helvetica,sans-Serif" font-size="10.00">+ CommandLine()</text>
<text text-anchor="start" x="2904" y="-195" font-family="Helvetica,sans-Serif" font-size="10.00">and 8 more...</text>
<text text-anchor="start" x="2904" y="-184" font-family="Helvetica,sans-Serif" font-size="10.00">+ printLine()</text>
<text text-anchor="start" x="2904" y="-173" font-family="Helvetica,sans-Serif" font-size="10.00"># buildInputArguments()</text>
<text text-anchor="start" x="2904" y="-162" font-family="Helvetica,sans-Serif" font-size="10.00">and 5 more...</text>
<text text-anchor="start" x="2904" y="-151" font-family="Helvetica,sans-Serif" font-size="10.00"># buildGenerics()</text>
<text text-anchor="start" x="2904" y="-140" font-family="Helvetica,sans-Serif" font-size="10.00">and 2 more...</text>
</a>
</g>
</g>
<!-- Node17&#45;&gt;Node1 -->
<g id="edge21" class="edge">
<title>Node17&#45;&gt;Node1</title>
<path fill="none" stroke="midnightblue" d="M2891.95,-128.86C2890.3,-128.2 2888.65,-127.58 2887,-127 2737.64,-74.34 1610.07,-52.39 1318.6,-47.56"/>
<polygon fill="none" stroke="midnightblue" points="2890.74,-132.15 2901.3,-132.96 2893.55,-125.74 2890.74,-132.15"/>
</g>
</g>
</svg>
