<?xml version="1.0" encoding="UTF-8" standalone="no"?>
<!DOCTYPE svg PUBLIC "-//W3C//DTD SVG 1.1//EN"
 "http://www.w3.org/Graphics/SVG/1.1/DTD/svg11.dtd">
<!-- Generated by graphviz version 2.43.0 (0)
 -->
<!-- Title: src/utils/math/factorization/LUP.h Pages: 1 -->
<svg width="1961pt" height="509pt"
 viewBox="0.00 0.00 1961.49 509.00" xmlns="http://www.w3.org/2000/svg" xmlns:xlink="http://www.w3.org/1999/xlink">
<g id="graph0" class="graph" transform="scale(1 1) rotate(0) translate(4 505)">
<title>src/utils/math/factorization/LUP.h</title>
<polygon fill="white" stroke="transparent" points="-4,4 -4,-505 1957.49,-505 1957.49,4 -4,4"/>
<!-- Node1 -->
<g id="node1" class="node">
<title>Node1</title>
<g id="a_node1"><a xlink:title="LU factorization with pivoting.">
<polygon fill="#bfbfbf" stroke="black" points="365,-470.5 365,-500.5 513,-500.5 513,-470.5 365,-470.5"/>
<text text-anchor="start" x="373" y="-488.5" font-family="Helvetica,sans-Serif" font-size="10.00">src/utils/math/factorization</text>
<text text-anchor="middle" x="439" y="-477.5" font-family="Helvetica,sans-Serif" font-size="10.00">/LUP.h</text>
</a>
</g>
</g>
<!-- Node2 -->
<g id="node2" class="node">
<title>Node2</title>
<g id="a_node2"><a xlink:title=" ">
<polygon fill="white" stroke="#bfbfbf" points="511.5,-118 511.5,-137 558.5,-137 558.5,-118 511.5,-118"/>
<text text-anchor="middle" x="535" y="-125" font-family="Helvetica,sans-Serif" font-size="10.00">cmath</text>
</a>
</g>
</g>
<!-- Node1&#45;&gt;Node2 -->
<g id="edge1" class="edge">
<title>Node1&#45;&gt;Node2</title>
<path fill="none" stroke="midnightblue" d="M439,-470.28C439,-448.48 439,-405.49 439,-369 439,-369 439,-369 439,-311 439,-252.23 416.02,-228.95 447,-179 459.31,-159.15 482.48,-146.32 501.95,-138.55"/>
<polygon fill="midnightblue" stroke="midnightblue" points="503.27,-141.8 511.44,-135.04 500.84,-135.23 503.27,-141.8"/>
</g>
<!-- Node3 -->
<g id="node3" class="node">
<title>Node3</title>
<g id="a_node3"><a xlink:title=" ">
<polygon fill="white" stroke="#bfbfbf" points="1003,-0.5 1003,-19.5 1063,-19.5 1063,-0.5 1003,-0.5"/>
<text text-anchor="middle" x="1033" y="-7.5" font-family="Helvetica,sans-Serif" font-size="10.00">iostream</text>
</a>
</g>
</g>
<!-- Node1&#45;&gt;Node3 -->
<g id="edge2" class="edge">
<title>Node1&#45;&gt;Node3</title>
<path fill="none" stroke="midnightblue" d="M424.16,-470.45C383.79,-430.63 275,-312.02 275,-190 275,-190 275,-190 275,-126.5 275,-92.27 277.93,-75.59 306,-56 334.33,-36.24 843.94,-17.43 992.61,-12.34"/>
<polygon fill="midnightblue" stroke="midnightblue" points="992.8,-15.84 1002.68,-12 992.56,-8.84 992.8,-15.84"/>
</g>
<!-- Node4 -->
<g id="node4" class="node">
<title>Node4</title>
<g id="a_node4"><a xlink:href="../../d7/dff/LU_8h.html" target="_top" xlink:title="LU factorization and related methods for MyBLAS library.">
<polygon fill="white" stroke="black" points="887,-414.5 887,-433.5 925,-433.5 925,-414.5 887,-414.5"/>
<text text-anchor="middle" x="906" y="-421.5" font-family="Helvetica,sans-Serif" font-size="10.00">LU.h</text>
</a>
</g>
</g>
<!-- Node1&#45;&gt;Node4 -->
<g id="edge3" class="edge">
<title>Node1&#45;&gt;Node4</title>
<path fill="none" stroke="midnightblue" d="M513.26,-475.04C618.02,-461.69 804.48,-437.93 876.49,-428.76"/>
<polygon fill="midnightblue" stroke="midnightblue" points="877.17,-432.2 886.65,-427.47 876.29,-425.26 877.17,-432.2"/>
</g>
<!-- Node5 -->
<g id="node5" class="node">
<title>Node5</title>
<g id="a_node5"><a xlink:href="../../d3/db1/Matrix_8h.html" target="_top" xlink:title="This file contains my BLAS::Matrix declarations.">
<polygon fill="white" stroke="black" points="311,-118 311,-137 455,-137 455,-118 311,-118"/>
<text text-anchor="middle" x="383" y="-125" font-family="Helvetica,sans-Serif" font-size="10.00">math/blas/matrix/Matrix.h</text>
</a>
</g>
</g>
<!-- Node1&#45;&gt;Node5 -->
<g id="edge65" class="edge">
<title>Node1&#45;&gt;Node5</title>
<path fill="none" stroke="midnightblue" d="M364.53,-480.21C239.28,-470.94 0,-443.47 0,-369 0,-369 0,-369 0,-249.5 0,-186.89 188.47,-152.58 300.99,-137.67"/>
<polygon fill="midnightblue" stroke="midnightblue" points="301.5,-141.13 310.96,-136.37 300.59,-134.19 301.5,-141.13"/>
</g>
<!-- Node9 -->
<g id="node9" class="node">
<title>Node9</title>
<g id="a_node9"><a xlink:href="../../d6/dbe/Vector_8h.html" target="_top" xlink:title="This file contains my BLAS::Vector implementation.">
<polygon fill="white" stroke="black" points="781.5,-56.5 781.5,-75.5 922.5,-75.5 922.5,-56.5 781.5,-56.5"/>
<text text-anchor="middle" x="852" y="-63.5" font-family="Helvetica,sans-Serif" font-size="10.00">math/blas/vector/Vector.h</text>
</a>
</g>
</g>
<!-- Node1&#45;&gt;Node9 -->
<g id="edge66" class="edge">
<title>Node1&#45;&gt;Node9</title>
<path fill="none" stroke="midnightblue" d="M513.17,-484.18C633.29,-482.47 864.02,-473.9 934,-434 965.2,-416.21 982,-404.91 982,-369 982,-369 982,-369 982,-311 982,-215.34 958.75,-187.49 900,-112 891.54,-101.12 880.39,-90.5 870.97,-82.31"/>
<polygon fill="midnightblue" stroke="midnightblue" points="873.14,-79.57 863.24,-75.8 868.63,-84.92 873.14,-79.57"/>
</g>
<!-- Node12 -->
<g id="node12" class="node">
<title>Node12</title>
<g id="a_node12"><a xlink:href="../../d9/d41/CommandLine_8h.html" target="_top" xlink:title="This file contains the definition of the CommandLine class and the HeaderInfo struct.">
<polygon fill="white" stroke="black" points="1240,-358.5 1240,-377.5 1354,-377.5 1354,-358.5 1240,-358.5"/>
<text text-anchor="middle" x="1297" y="-365.5" font-family="Helvetica,sans-Serif" font-size="10.00">../../CommandLine.h</text>
</a>
</g>
</g>
<!-- Node1&#45;&gt;Node12 -->
<g id="edge67" class="edge">
<title>Node1&#45;&gt;Node12</title>
<path fill="none" stroke="midnightblue" d="M513.21,-483.41C632.09,-480.59 872.17,-470.45 1072,-434 1141.58,-421.31 1220.49,-395.85 1263.92,-380.84"/>
<polygon fill="midnightblue" stroke="midnightblue" points="1265.11,-384.13 1273.4,-377.53 1262.81,-377.52 1265.11,-384.13"/>
</g>
<!-- Node26 -->
<g id="node26" class="node">
<title>Node26</title>
<g id="a_node26"><a xlink:href="../../d4/d2e/Stopwatch_8h.html" target="_top" xlink:title="This file contains the Stopwatch class which is a utility for measuring time durations in various uni...">
<polygon fill="white" stroke="black" points="1010.5,-241 1010.5,-260 1087.5,-260 1087.5,-241 1010.5,-241"/>
<text text-anchor="middle" x="1049" y="-248" font-family="Helvetica,sans-Serif" font-size="10.00">Stopwatch.h</text>
</a>
</g>
</g>
<!-- Node1&#45;&gt;Node26 -->
<g id="edge68" class="edge">
<title>Node1&#45;&gt;Node26</title>
<path fill="none" stroke="midnightblue" d="M513.13,-482.37C656.19,-477.61 959.52,-464.07 996,-434 1045.84,-392.93 1050.45,-307.96 1049.86,-270.24"/>
<polygon fill="midnightblue" stroke="midnightblue" points="1053.35,-270.04 1049.55,-260.15 1046.36,-270.26 1053.35,-270.04"/>
</g>
<!-- Node34 -->
<g id="node34" class="node">
<title>Node34</title>
<g id="a_node34"><a xlink:href="../../d1/d6a/Factorize_8h.html" target="_top" xlink:title="This file contains the declaration of the MyFactorizationMethod namespace, which includes methods and...">
<polygon fill="white" stroke="black" points="303.5,-241 303.5,-260 372.5,-260 372.5,-241 303.5,-241"/>
<text text-anchor="middle" x="338" y="-248" font-family="Helvetica,sans-Serif" font-size="10.00">Factorize.h</text>
</a>
</g>
</g>
<!-- Node1&#45;&gt;Node34 -->
<g id="edge69" class="edge">
<title>Node1&#45;&gt;Node34</title>
<path fill="none" stroke="midnightblue" d="M432.83,-470.28C415.31,-429.85 365.22,-314.3 345.82,-269.53"/>
<polygon fill="midnightblue" stroke="midnightblue" points="348.96,-267.98 341.77,-260.2 342.54,-270.77 348.96,-267.98"/>
</g>
<!-- Node35 -->
<g id="node35" class="node">
<title>Node35</title>
<g id="a_node35"><a xlink:href="../../df/dbd/LinearSolver_8h.html" target="_top" xlink:title="This file contains the definition of the LinearSolver class and its associated methods.">
<polygon fill="white" stroke="black" points="148,-302.5 148,-321.5 262,-321.5 262,-302.5 148,-302.5"/>
<text text-anchor="middle" x="205" y="-309.5" font-family="Helvetica,sans-Serif" font-size="10.00">math/LinearSolver.h</text>
</a>
</g>
</g>
<!-- Node1&#45;&gt;Node35 -->
<g id="edge73" class="edge">
<title>Node1&#45;&gt;Node35</title>
<path fill="none" stroke="midnightblue" d="M364.93,-473.61C334.92,-466.3 301.42,-454.15 276,-434 241.61,-406.74 220.46,-357.91 210.95,-331.38"/>
<polygon fill="midnightblue" stroke="midnightblue" points="214.22,-330.13 207.67,-321.8 207.59,-332.39 214.22,-330.13"/>
</g>
<!-- Node4&#45;&gt;Node2 -->
<g id="edge4" class="edge">
<title>Node4&#45;&gt;Node2</title>
<path fill="none" stroke="midnightblue" d="M886.83,-421.54C810.86,-415.21 535,-387.15 535,-313 535,-313 535,-313 535,-249.5 535,-213.21 535,-170.81 535,-147.06"/>
<polygon fill="midnightblue" stroke="midnightblue" points="538.5,-147.01 535,-137.01 531.5,-147.01 538.5,-147.01"/>
</g>
<!-- Node4&#45;&gt;Node3 -->
<g id="edge5" class="edge">
<title>Node4&#45;&gt;Node3</title>
<path fill="none" stroke="midnightblue" d="M909.44,-414.44C913.01,-405.43 918.66,-390.82 923,-378 946.07,-309.79 1008.79,-94.47 1027.6,-29.64"/>
<polygon fill="midnightblue" stroke="midnightblue" points="1031.07,-30.24 1030.49,-19.66 1024.35,-28.29 1031.07,-30.24"/>
</g>
<!-- Node4&#45;&gt;Node5 -->
<g id="edge6" class="edge">
<title>Node4&#45;&gt;Node5</title>
<path fill="none" stroke="midnightblue" d="M886.81,-421.85C825.04,-417.94 632.2,-403.88 576,-378 467.34,-327.96 423.95,-308.15 375,-199 367.54,-182.36 371.38,-161.38 375.95,-146.66"/>
<polygon fill="midnightblue" stroke="midnightblue" points="379.27,-147.78 379.26,-137.19 372.66,-145.47 379.27,-147.78"/>
</g>
<!-- Node4&#45;&gt;Node9 -->
<g id="edge16" class="edge">
<title>Node4&#45;&gt;Node9</title>
<path fill="none" stroke="midnightblue" d="M906.9,-414.27C910.42,-376.74 921.33,-225.89 882,-112 878.44,-101.7 871.95,-91.49 865.91,-83.41"/>
<polygon fill="midnightblue" stroke="midnightblue" points="868.65,-81.23 859.69,-75.57 863.16,-85.58 868.65,-81.23"/>
</g>
<!-- Node4&#45;&gt;Node12 -->
<g id="edge17" class="edge">
<title>Node4&#45;&gt;Node12</title>
<path fill="none" stroke="midnightblue" d="M925.12,-420.36C979.73,-412.82 1138.3,-390.92 1229.78,-378.28"/>
<polygon fill="midnightblue" stroke="midnightblue" points="1230.35,-381.74 1239.78,-376.9 1229.4,-374.8 1230.35,-381.74"/>
</g>
<!-- Node4&#45;&gt;Node26 -->
<g id="edge64" class="edge">
<title>Node4&#45;&gt;Node26</title>
<path fill="none" stroke="midnightblue" d="M917.43,-414.39C928.45,-405.8 945.27,-391.92 958,-378 990.86,-342.06 1022.5,-294.12 1038.39,-268.82"/>
<polygon fill="midnightblue" stroke="midnightblue" points="1041.37,-270.65 1043.68,-260.31 1035.43,-266.96 1041.37,-270.65"/>
</g>
<!-- Node5&#45;&gt;Node3 -->
<g id="edge9" class="edge">
<title>Node5&#45;&gt;Node3</title>
<path fill="none" stroke="midnightblue" d="M407.41,-117.97C434.94,-108.25 480.95,-91.67 520,-76 540.69,-67.7 544.42,-61.58 566,-56 719.96,-16.18 910.7,-10.92 992.58,-10.67"/>
<polygon fill="midnightblue" stroke="midnightblue" points="992.94,-14.17 1002.93,-10.67 992.93,-7.17 992.94,-14.17"/>
</g>
<!-- Node6 -->
<g id="node6" class="node">
<title>Node6</title>
<g id="a_node6"><a xlink:title=" ">
<polygon fill="white" stroke="#bfbfbf" points="575,-56.5 575,-75.5 639,-75.5 639,-56.5 575,-56.5"/>
<text text-anchor="middle" x="607" y="-63.5" font-family="Helvetica,sans-Serif" font-size="10.00">algorithm</text>
</a>
</g>
</g>
<!-- Node5&#45;&gt;Node6 -->
<g id="edge7" class="edge">
<title>Node5&#45;&gt;Node6</title>
<path fill="none" stroke="midnightblue" d="M415.09,-117.98C454.6,-107.48 521.78,-89.64 565.26,-78.09"/>
<polygon fill="midnightblue" stroke="midnightblue" points="566.2,-81.46 574.97,-75.51 564.4,-74.69 566.2,-81.46"/>
</g>
<!-- Node7 -->
<g id="node7" class="node">
<title>Node7</title>
<g id="a_node7"><a xlink:title=" ">
<polygon fill="white" stroke="#bfbfbf" points="315,-56.5 315,-75.5 367,-75.5 367,-56.5 315,-56.5"/>
<text text-anchor="middle" x="341" y="-63.5" font-family="Helvetica,sans-Serif" font-size="10.00">cassert</text>
</a>
</g>
</g>
<!-- Node5&#45;&gt;Node7 -->
<g id="edge8" class="edge">
<title>Node5&#45;&gt;Node7</title>
<path fill="none" stroke="midnightblue" d="M376.98,-117.98C370.74,-109.14 360.83,-95.09 352.98,-83.98"/>
<polygon fill="midnightblue" stroke="midnightblue" points="355.63,-81.66 347.01,-75.51 349.91,-85.7 355.63,-81.66"/>
</g>
<!-- Node8 -->
<g id="node8" class="node">
<title>Node8</title>
<g id="a_node8"><a xlink:title=" ">
<polygon fill="white" stroke="#bfbfbf" points="663.5,-0.5 663.5,-19.5 710.5,-19.5 710.5,-0.5 663.5,-0.5"/>
<text text-anchor="middle" x="687" y="-7.5" font-family="Helvetica,sans-Serif" font-size="10.00">vector</text>
</a>
</g>
</g>
<!-- Node5&#45;&gt;Node8 -->
<g id="edge10" class="edge">
<title>Node5&#45;&gt;Node8</title>
<path fill="none" stroke="midnightblue" d="M360.94,-118C331.2,-105.33 284.33,-80.38 306,-56 328.93,-30.2 564.61,-16.67 653.4,-12.46"/>
<polygon fill="midnightblue" stroke="midnightblue" points="653.65,-15.96 663.48,-12 653.32,-8.96 653.65,-15.96"/>
</g>
<!-- Node5&#45;&gt;Node9 -->
<g id="edge11" class="edge">
<title>Node5&#45;&gt;Node9</title>
<path fill="none" stroke="midnightblue" d="M431.15,-117.95C443.47,-115.88 456.71,-113.76 469,-112 573.02,-97.13 693.46,-83.58 771.08,-75.32"/>
<polygon fill="midnightblue" stroke="midnightblue" points="771.7,-78.77 781.27,-74.24 770.96,-71.81 771.7,-78.77"/>
</g>
<!-- Node11 -->
<g id="node11" class="node">
<title>Node11</title>
<g id="a_node11"><a xlink:href="../../d1/d45/Constants_8h.html" target="_top" xlink:title="MyBLAS Constants definition.">
<polygon fill="white" stroke="black" points="385,-56.5 385,-75.5 511,-75.5 511,-56.5 385,-56.5"/>
<text text-anchor="middle" x="448" y="-63.5" font-family="Helvetica,sans-Serif" font-size="10.00">math/blas/Constants.h</text>
</a>
</g>
</g>
<!-- Node5&#45;&gt;Node11 -->
<g id="edge15" class="edge">
<title>Node5&#45;&gt;Node11</title>
<path fill="none" stroke="midnightblue" d="M392.31,-117.98C402.45,-108.7 418.86,-93.67 431.25,-82.33"/>
<polygon fill="midnightblue" stroke="midnightblue" points="433.69,-84.84 438.7,-75.51 428.96,-79.68 433.69,-84.84"/>
</g>
<!-- Node9&#45;&gt;Node3 -->
<g id="edge13" class="edge">
<title>Node9&#45;&gt;Node3</title>
<path fill="none" stroke="midnightblue" d="M880.68,-56.44C911.53,-47.24 960.73,-32.56 994.83,-22.39"/>
<polygon fill="midnightblue" stroke="midnightblue" points="995.87,-25.73 1004.45,-19.52 993.87,-19.02 995.87,-25.73"/>
</g>
<!-- Node9&#45;&gt;Node8 -->
<g id="edge14" class="edge">
<title>Node9&#45;&gt;Node8</title>
<path fill="none" stroke="midnightblue" d="M825.86,-56.44C797.24,-47.08 751.29,-32.04 720.16,-21.85"/>
<polygon fill="midnightblue" stroke="midnightblue" points="721.21,-18.51 710.62,-18.73 719.03,-25.17 721.21,-18.51"/>
</g>
<!-- Node10 -->
<g id="node10" class="node">
<title>Node10</title>
<g id="a_node10"><a xlink:title=" ">
<polygon fill="white" stroke="#bfbfbf" points="1686,-0.5 1686,-19.5 1742,-19.5 1742,-0.5 1686,-0.5"/>
<text text-anchor="middle" x="1714" y="-7.5" font-family="Helvetica,sans-Serif" font-size="10.00">iomanip</text>
</a>
</g>
</g>
<!-- Node9&#45;&gt;Node10 -->
<g id="edge12" class="edge">
<title>Node9&#45;&gt;Node10</title>
<path fill="none" stroke="midnightblue" d="M922.54,-60.58C1096.56,-49.68 1541.88,-21.78 1675.52,-13.41"/>
<polygon fill="midnightblue" stroke="midnightblue" points="1675.92,-16.89 1685.68,-12.77 1675.48,-9.91 1675.92,-16.89"/>
</g>
<!-- Node12&#45;&gt;Node3 -->
<g id="edge62" class="edge">
<title>Node12&#45;&gt;Node3</title>
<path fill="none" stroke="midnightblue" d="M1292.96,-358.48C1285.95,-344.61 1270.23,-317.17 1249,-302 1205.77,-271.11 1171.41,-304.7 1135,-266 1111.14,-240.64 1116,-224.82 1116,-190 1116,-190 1116,-190 1116,-126.5 1116,-83.65 1077.86,-45.82 1053.29,-25.89"/>
<polygon fill="midnightblue" stroke="midnightblue" points="1055.28,-23.01 1045.25,-19.61 1050.97,-28.53 1055.28,-23.01"/>
</g>
<!-- Node13 -->
<g id="node13" class="node">
<title>Node13</title>
<g id="a_node13"><a xlink:href="../../d2/d0e/CommandlineHelpers_8h.html" target="_top" xlink:title="This file contains helper functions for handling command line options and initializing the profiler.">
<polygon fill="white" stroke="black" points="1588.5,-302.5 1588.5,-321.5 1719.5,-321.5 1719.5,-302.5 1588.5,-302.5"/>
<text text-anchor="middle" x="1654" y="-309.5" font-family="Helvetica,sans-Serif" font-size="10.00">CommandlineHelpers.h</text>
</a>
</g>
</g>
<!-- Node12&#45;&gt;Node13 -->
<g id="edge18" class="edge">
<title>Node12&#45;&gt;Node13</title>
<path fill="none" stroke="midnightblue" d="M1353.57,-358.44C1417.15,-348.83 1520.27,-333.23 1587.62,-323.04"/>
<polygon fill="midnightblue" stroke="midnightblue" points="1588.33,-326.47 1597.7,-321.52 1587.29,-319.55 1588.33,-326.47"/>
</g>
<!-- Node15 -->
<g id="node15" class="node">
<title>Node15</title>
<g id="a_node15"><a xlink:title=" ">
<polygon fill="white" stroke="#bfbfbf" points="1786,-118 1786,-137 1936,-137 1936,-118 1786,-118"/>
<text text-anchor="middle" x="1861" y="-125" font-family="Helvetica,sans-Serif" font-size="10.00">boost/program_options.hpp</text>
</a>
</g>
</g>
<!-- Node12&#45;&gt;Node15 -->
<g id="edge61" class="edge">
<title>Node12&#45;&gt;Node15</title>
<path fill="none" stroke="midnightblue" d="M1354.26,-366.58C1456.63,-364.93 1666.19,-357.22 1729,-322 1799.83,-282.28 1840.48,-186.79 1854.93,-146.7"/>
<polygon fill="midnightblue" stroke="midnightblue" points="1858.27,-147.75 1858.25,-137.16 1851.66,-145.45 1858.27,-147.75"/>
</g>
<!-- Node17 -->
<g id="node17" class="node">
<title>Node17</title>
<g id="a_node17"><a xlink:href="../../db/df1/Helpers_8h.html" target="_top" xlink:title="This file contains helper functions and structures used throughout the program.">
<polygon fill="white" stroke="black" points="1588.5,-179.5 1588.5,-198.5 1651.5,-198.5 1651.5,-179.5 1588.5,-179.5"/>
<text text-anchor="middle" x="1620" y="-186.5" font-family="Helvetica,sans-Serif" font-size="10.00">Helpers.h</text>
</a>
</g>
</g>
<!-- Node12&#45;&gt;Node17 -->
<g id="edge36" class="edge">
<title>Node12&#45;&gt;Node17</title>
<path fill="none" stroke="midnightblue" d="M1312.58,-358.46C1364.48,-330.02 1531.81,-238.33 1595.28,-203.55"/>
<polygon fill="midnightblue" stroke="midnightblue" points="1597.11,-206.53 1604.2,-198.66 1593.75,-200.4 1597.11,-206.53"/>
</g>
<!-- Node21 -->
<g id="node21" class="node">
<title>Node21</title>
<g id="a_node21"><a xlink:href="../../df/d69/Profiler_8h.html" target="_top" xlink:title="This file contains the Profiler class which is used to profile the execution time of a function.">
<polygon fill="white" stroke="black" points="1296.5,-302.5 1296.5,-321.5 1355.5,-321.5 1355.5,-302.5 1296.5,-302.5"/>
<text text-anchor="middle" x="1326" y="-309.5" font-family="Helvetica,sans-Serif" font-size="10.00">Profiler.h</text>
</a>
</g>
</g>
<!-- Node12&#45;&gt;Node21 -->
<g id="edge37" class="edge">
<title>Node12&#45;&gt;Node21</title>
<path fill="none" stroke="midnightblue" d="M1301.79,-358.08C1305.76,-350.69 1311.53,-339.95 1316.43,-330.81"/>
<polygon fill="midnightblue" stroke="midnightblue" points="1319.65,-332.22 1321.3,-321.75 1313.49,-328.91 1319.65,-332.22"/>
</g>
<!-- Node32 -->
<g id="node32" class="node">
<title>Node32</title>
<g id="a_node32"><a xlink:title=" ">
<polygon fill="white" stroke="#bfbfbf" points="1086,-302.5 1086,-321.5 1178,-321.5 1178,-302.5 1086,-302.5"/>
<text text-anchor="middle" x="1132" y="-309.5" font-family="Helvetica,sans-Serif" font-size="10.00">project&#45;config.h</text>
</a>
</g>
</g>
<!-- Node12&#45;&gt;Node32 -->
<g id="edge60" class="edge">
<title>Node12&#45;&gt;Node32</title>
<path fill="none" stroke="midnightblue" d="M1270.86,-358.44C1242.98,-349.32 1198.65,-334.81 1167.6,-324.65"/>
<polygon fill="midnightblue" stroke="midnightblue" points="1168.62,-321.3 1158.02,-321.52 1166.44,-327.95 1168.62,-321.3"/>
</g>
<!-- Node33 -->
<g id="node33" class="node">
<title>Node33</title>
<g id="a_node33"><a xlink:title=" ">
<polygon fill="white" stroke="#bfbfbf" points="1196,-302.5 1196,-321.5 1240,-321.5 1240,-302.5 1196,-302.5"/>
<text text-anchor="middle" x="1218" y="-309.5" font-family="Helvetica,sans-Serif" font-size="10.00">string</text>
</a>
</g>
</g>
<!-- Node12&#45;&gt;Node33 -->
<g id="edge63" class="edge">
<title>Node12&#45;&gt;Node33</title>
<path fill="none" stroke="midnightblue" d="M1284.31,-358.32C1272.1,-349.98 1253.42,-337.21 1239,-327.35"/>
<polygon fill="midnightblue" stroke="midnightblue" points="1240.89,-324.41 1230.66,-321.65 1236.94,-330.19 1240.89,-324.41"/>
</g>
<!-- Node14 -->
<g id="node14" class="node">
<title>Node14</title>
<g id="a_node14"><a xlink:href="../../d0/d7d/CheckBounds_8h.html" target="_top" xlink:title="This file contains the declaration of functions for checking the validity of input parameters.">
<polygon fill="white" stroke="black" points="1608,-241 1608,-260 1700,-260 1700,-241 1608,-241"/>
<text text-anchor="middle" x="1654" y="-248" font-family="Helvetica,sans-Serif" font-size="10.00">CheckBounds.h</text>
</a>
</g>
</g>
<!-- Node13&#45;&gt;Node14 -->
<g id="edge19" class="edge">
<title>Node13&#45;&gt;Node14</title>
<path fill="none" stroke="midnightblue" d="M1654,-302.48C1654,-294.08 1654,-280.98 1654,-270.16"/>
<polygon fill="midnightblue" stroke="midnightblue" points="1657.5,-270.01 1654,-260.01 1650.5,-270.01 1657.5,-270.01"/>
</g>
<!-- Node13&#45;&gt;Node15 -->
<g id="edge35" class="edge">
<title>Node13&#45;&gt;Node15</title>
<path fill="none" stroke="midnightblue" d="M1667.2,-302.23C1693.69,-284.35 1754.67,-241.73 1800,-199 1817.94,-182.08 1836.14,-160.33 1847.93,-145.49"/>
<polygon fill="midnightblue" stroke="midnightblue" points="1850.97,-147.28 1854.38,-137.25 1845.46,-142.96 1850.97,-147.28"/>
</g>
<!-- Node18 -->
<g id="node18" class="node">
<title>Node18</title>
<g id="a_node18"><a xlink:title=" ">
<polygon fill="white" stroke="#bfbfbf" points="1233,-118 1233,-137 1291,-137 1291,-118 1233,-118"/>
<text text-anchor="middle" x="1262" y="-125" font-family="Helvetica,sans-Serif" font-size="10.00">json.hpp</text>
</a>
</g>
</g>
<!-- Node13&#45;&gt;Node18 -->
<g id="edge34" class="edge">
<title>Node13&#45;&gt;Node18</title>
<path fill="none" stroke="midnightblue" d="M1640.25,-302.38C1603.99,-279.89 1502.34,-218.47 1412,-179 1366.02,-158.91 1352.55,-159.02 1305,-143 1302.43,-142.13 1299.77,-141.24 1297.1,-140.34"/>
<polygon fill="midnightblue" stroke="midnightblue" points="1298.06,-136.97 1287.46,-137.09 1295.82,-143.6 1298.06,-136.97"/>
</g>
<!-- Node14&#45;&gt;Node3 -->
<g id="edge21" class="edge">
<title>Node14&#45;&gt;Node3</title>
<path fill="none" stroke="midnightblue" d="M1662.25,-240.67C1683.31,-217.06 1735.05,-151.59 1701,-112 1618.9,-16.55 1204.71,-10.16 1073.16,-10.58"/>
<polygon fill="midnightblue" stroke="midnightblue" points="1073.09,-7.08 1063.11,-10.63 1073.13,-14.08 1073.09,-7.08"/>
</g>
<!-- Node14&#45;&gt;Node10 -->
<g id="edge22" class="edge">
<title>Node14&#45;&gt;Node10</title>
<path fill="none" stroke="midnightblue" d="M1679.98,-240.85C1698.7,-233.1 1722.58,-219.71 1734,-199 1764.73,-143.25 1737.42,-64.08 1722.38,-28.96"/>
<polygon fill="midnightblue" stroke="midnightblue" points="1725.45,-27.26 1718.18,-19.55 1719.06,-30.11 1725.45,-27.26"/>
</g>
<!-- Node14&#45;&gt;Node12 -->
<g id="edge24" class="edge">
<title>Node14&#45;&gt;Node12</title>
<path fill="none" stroke="midnightblue" d="M1642.65,-260.17C1622.39,-275.21 1578.17,-306.01 1536,-322 1480.16,-343.17 1413.07,-354.68 1364.2,-360.75"/>
<polygon fill="midnightblue" stroke="midnightblue" points="1363.57,-357.3 1354.06,-361.96 1364.41,-364.25 1363.57,-357.3"/>
</g>
<!-- Node14&#45;&gt;Node15 -->
<g id="edge20" class="edge">
<title>Node14&#45;&gt;Node15</title>
<path fill="none" stroke="midnightblue" d="M1679.34,-240.88C1703.89,-232.03 1741.75,-217.02 1772,-199 1799.07,-182.88 1827.03,-159.4 1844.22,-144.04"/>
<polygon fill="midnightblue" stroke="midnightblue" points="1846.69,-146.53 1851.74,-137.22 1841.98,-141.35 1846.69,-146.53"/>
</g>
<!-- Node16 -->
<g id="node16" class="node">
<title>Node16</title>
<g id="a_node16"><a xlink:title=" ">
<polygon fill="white" stroke="#bfbfbf" points="1648,-118 1648,-137 1692,-137 1692,-118 1648,-118"/>
<text text-anchor="middle" x="1670" y="-125" font-family="Helvetica,sans-Serif" font-size="10.00">limits</text>
</a>
</g>
</g>
<!-- Node14&#45;&gt;Node16 -->
<g id="edge23" class="edge">
<title>Node14&#45;&gt;Node16</title>
<path fill="none" stroke="midnightblue" d="M1655.22,-240.93C1656.64,-230.88 1659.04,-213.74 1661,-199 1663.34,-181.44 1665.89,-161.39 1667.67,-147.18"/>
<polygon fill="midnightblue" stroke="midnightblue" points="1671.15,-147.54 1668.92,-137.19 1664.21,-146.67 1671.15,-147.54"/>
</g>
<!-- Node14&#45;&gt;Node17 -->
<g id="edge25" class="edge">
<title>Node14&#45;&gt;Node17</title>
<path fill="none" stroke="midnightblue" d="M1649.13,-240.98C1644.13,-232.23 1636.21,-218.37 1629.89,-207.31"/>
<polygon fill="midnightblue" stroke="midnightblue" points="1632.86,-205.46 1624.86,-198.51 1626.78,-208.93 1632.86,-205.46"/>
</g>
<!-- Node14&#45;&gt;Node18 -->
<g id="edge33" class="edge">
<title>Node14&#45;&gt;Node18</title>
<path fill="none" stroke="midnightblue" d="M1643.02,-240.93C1622.99,-225.78 1578.65,-194.4 1536,-179 1438.27,-143.71 1405.93,-167.69 1305,-143 1301.61,-142.17 1298.1,-141.19 1294.62,-140.14"/>
<polygon fill="midnightblue" stroke="midnightblue" points="1295.59,-136.78 1285,-137.06 1293.45,-143.44 1295.59,-136.78"/>
</g>
<!-- Node17&#45;&gt;Node3 -->
<g id="edge27" class="edge">
<title>Node17&#45;&gt;Node3</title>
<path fill="none" stroke="midnightblue" d="M1588.28,-182.17C1582.22,-181.09 1575.91,-179.99 1570,-179 1467.53,-161.8 1434.17,-184.71 1339,-143 1318.72,-134.11 1317.78,-125.19 1300,-112 1264.85,-85.92 1258.94,-73.89 1219,-56 1171.33,-34.65 1112.06,-22.55 1073.42,-16.39"/>
<polygon fill="midnightblue" stroke="midnightblue" points="1073.51,-12.86 1063.09,-14.81 1072.45,-19.78 1073.51,-12.86"/>
</g>
<!-- Node17&#45;&gt;Node10 -->
<g id="edge26" class="edge">
<title>Node17&#45;&gt;Node10</title>
<path fill="none" stroke="midnightblue" d="M1621.06,-179.19C1623.05,-164.63 1628.18,-134.87 1639,-112 1654.62,-78.98 1681.84,-46 1698.84,-27.09"/>
<polygon fill="midnightblue" stroke="midnightblue" points="1701.47,-29.41 1705.64,-19.67 1696.31,-24.68 1701.47,-29.41"/>
</g>
<!-- Node17&#45;&gt;Node15 -->
<g id="edge30" class="edge">
<title>Node17&#45;&gt;Node15</title>
<path fill="none" stroke="midnightblue" d="M1651.51,-180.22C1693.67,-169.81 1768.69,-151.29 1816.58,-139.47"/>
<polygon fill="midnightblue" stroke="midnightblue" points="1817.5,-142.85 1826.37,-137.05 1815.82,-136.05 1817.5,-142.85"/>
</g>
<!-- Node17&#45;&gt;Node16 -->
<g id="edge28" class="edge">
<title>Node17&#45;&gt;Node16</title>
<path fill="none" stroke="midnightblue" d="M1627.16,-179.48C1634.74,-170.46 1646.87,-156.02 1656.29,-144.81"/>
<polygon fill="midnightblue" stroke="midnightblue" points="1659.1,-146.92 1662.85,-137.01 1653.74,-142.41 1659.1,-146.92"/>
</g>
<!-- Node17&#45;&gt;Node18 -->
<g id="edge29" class="edge">
<title>Node17&#45;&gt;Node18</title>
<path fill="none" stroke="midnightblue" d="M1588.37,-181.55C1583.57,-180.65 1578.66,-179.77 1574,-179 1454.98,-159.41 1422.47,-170.4 1305,-143 1301.52,-142.19 1297.92,-141.21 1294.36,-140.15"/>
<polygon fill="midnightblue" stroke="midnightblue" points="1295.12,-136.71 1284.53,-137 1292.99,-143.38 1295.12,-136.71"/>
</g>
<!-- Node19 -->
<g id="node19" class="node">
<title>Node19</title>
<g id="a_node19"><a xlink:title=" ">
<polygon fill="white" stroke="#bfbfbf" points="1347.5,-112.5 1347.5,-142.5 1460.5,-142.5 1460.5,-112.5 1347.5,-112.5"/>
<text text-anchor="start" x="1355.5" y="-130.5" font-family="Helvetica,sans-Serif" font-size="10.00">boost/accumulators</text>
<text text-anchor="middle" x="1404" y="-119.5" font-family="Helvetica,sans-Serif" font-size="10.00">/accumulators.hpp</text>
</a>
</g>
</g>
<!-- Node17&#45;&gt;Node19 -->
<g id="edge31" class="edge">
<title>Node17&#45;&gt;Node19</title>
<path fill="none" stroke="midnightblue" d="M1589.05,-179.48C1556.72,-170.57 1505.17,-156.37 1464.68,-145.22"/>
<polygon fill="midnightblue" stroke="midnightblue" points="1465.48,-141.8 1454.91,-142.52 1463.62,-148.55 1465.48,-141.8"/>
</g>
<!-- Node20 -->
<g id="node20" class="node">
<title>Node20</title>
<g id="a_node20"><a xlink:title=" ">
<polygon fill="white" stroke="#bfbfbf" points="1478.5,-112.5 1478.5,-142.5 1591.5,-142.5 1591.5,-112.5 1478.5,-112.5"/>
<text text-anchor="start" x="1486.5" y="-130.5" font-family="Helvetica,sans-Serif" font-size="10.00">boost/accumulators</text>
<text text-anchor="middle" x="1535" y="-119.5" font-family="Helvetica,sans-Serif" font-size="10.00">/statistics.hpp</text>
</a>
</g>
</g>
<!-- Node17&#45;&gt;Node20 -->
<g id="edge32" class="edge">
<title>Node17&#45;&gt;Node20</title>
<path fill="none" stroke="midnightblue" d="M1607.82,-179.48C1596.31,-171.42 1578.6,-159.02 1563.53,-148.47"/>
<polygon fill="midnightblue" stroke="midnightblue" points="1565.23,-145.39 1555.03,-142.52 1561.22,-151.12 1565.23,-145.39"/>
</g>
<!-- Node21&#45;&gt;Node3 -->
<g id="edge41" class="edge">
<title>Node21&#45;&gt;Node3</title>
<path fill="none" stroke="midnightblue" d="M1355.54,-306.67C1379.34,-301.45 1411.32,-290.15 1427,-266 1434.5,-254.44 1434.47,-246.58 1427,-235 1400.16,-193.37 1265.26,-170.4 1224,-143 1176.58,-111.51 1177.28,-87.7 1130,-56 1110.08,-42.65 1085.57,-31.31 1066.17,-23.36"/>
<polygon fill="midnightblue" stroke="midnightblue" points="1067.4,-20.08 1056.82,-19.62 1064.8,-26.58 1067.4,-20.08"/>
</g>
<!-- Node21&#45;&gt;Node10 -->
<g id="edge40" class="edge">
<title>Node21&#45;&gt;Node10</title>
<path fill="none" stroke="midnightblue" d="M1355.57,-311.13C1420.86,-310.65 1581.67,-305.21 1709,-266 1822.04,-231.19 1883.66,-244.13 1945,-143 1992.24,-65.11 1829.59,-28.89 1752.41,-16.36"/>
<polygon fill="midnightblue" stroke="midnightblue" points="1752.54,-12.84 1742.12,-14.75 1751.46,-19.75 1752.54,-12.84"/>
</g>
<!-- Node21&#45;&gt;Node14 -->
<g id="edge44" class="edge">
<title>Node21&#45;&gt;Node14</title>
<path fill="none" stroke="midnightblue" d="M1355.69,-305.61C1410.32,-295.7 1527.61,-274.43 1597.75,-261.7"/>
<polygon fill="midnightblue" stroke="midnightblue" points="1598.52,-265.12 1607.74,-259.89 1597.27,-258.23 1598.52,-265.12"/>
</g>
<!-- Node21&#45;&gt;Node18 -->
<g id="edge47" class="edge">
<title>Node21&#45;&gt;Node18</title>
<path fill="none" stroke="midnightblue" d="M1355.51,-310.47C1387.23,-308.12 1436.29,-298.97 1460,-266 1468.04,-254.81 1467.07,-246.83 1460,-235 1441.32,-203.75 1344.71,-161.48 1293.68,-140.86"/>
<polygon fill="midnightblue" stroke="midnightblue" points="1294.7,-137.5 1284.11,-137.03 1292.1,-144 1294.7,-137.5"/>
</g>
<!-- Node22 -->
<g id="node22" class="node">
<title>Node22</title>
<g id="a_node22"><a xlink:title=" ">
<polygon fill="white" stroke="#bfbfbf" points="1279.5,-241 1279.5,-260 1334.5,-260 1334.5,-241 1279.5,-241"/>
<text text-anchor="middle" x="1307" y="-248" font-family="Helvetica,sans-Serif" font-size="10.00">fstream</text>
</a>
</g>
</g>
<!-- Node21&#45;&gt;Node22 -->
<g id="edge38" class="edge">
<title>Node21&#45;&gt;Node22</title>
<path fill="none" stroke="midnightblue" d="M1323.28,-302.48C1320.57,-293.99 1316.33,-280.7 1312.85,-269.82"/>
<polygon fill="midnightblue" stroke="midnightblue" points="1316.09,-268.47 1309.72,-260.01 1309.43,-270.6 1316.09,-268.47"/>
</g>
<!-- Node23 -->
<g id="node23" class="node">
<title>Node23</title>
<g id="a_node23"><a xlink:title=" ">
<polygon fill="white" stroke="#bfbfbf" points="1352.5,-241 1352.5,-260 1417.5,-260 1417.5,-241 1352.5,-241"/>
<text text-anchor="middle" x="1385" y="-248" font-family="Helvetica,sans-Serif" font-size="10.00">functional</text>
</a>
</g>
</g>
<!-- Node21&#45;&gt;Node23 -->
<g id="edge39" class="edge">
<title>Node21&#45;&gt;Node23</title>
<path fill="none" stroke="midnightblue" d="M1334.45,-302.48C1343.57,-293.28 1358.27,-278.46 1369.48,-267.16"/>
<polygon fill="midnightblue" stroke="midnightblue" points="1372.01,-269.57 1376.56,-260.01 1367.04,-264.65 1372.01,-269.57"/>
</g>
<!-- Node24 -->
<g id="node24" class="node">
<title>Node24</title>
<g id="a_node24"><a xlink:title=" ">
<polygon fill="white" stroke="#bfbfbf" points="1144,-241 1144,-260 1198,-260 1198,-241 1144,-241"/>
<text text-anchor="middle" x="1171" y="-248" font-family="Helvetica,sans-Serif" font-size="10.00">random</text>
</a>
</g>
</g>
<!-- Node21&#45;&gt;Node24 -->
<g id="edge42" class="edge">
<title>Node21&#45;&gt;Node24</title>
<path fill="none" stroke="midnightblue" d="M1303.36,-302.43C1279.58,-293.43 1241.13,-278.81 1208,-266 1206.17,-265.29 1204.28,-264.56 1202.38,-263.82"/>
<polygon fill="midnightblue" stroke="midnightblue" points="1203.49,-260.5 1192.9,-260.12 1200.94,-267.02 1203.49,-260.5"/>
</g>
<!-- Node25 -->
<g id="node25" class="node">
<title>Node25</title>
<g id="a_node25"><a xlink:title=" ">
<polygon fill="white" stroke="#bfbfbf" points="1216.5,-241 1216.5,-260 1261.5,-260 1261.5,-241 1216.5,-241"/>
<text text-anchor="middle" x="1239" y="-248" font-family="Helvetica,sans-Serif" font-size="10.00">utility</text>
</a>
</g>
</g>
<!-- Node21&#45;&gt;Node25 -->
<g id="edge43" class="edge">
<title>Node21&#45;&gt;Node25</title>
<path fill="none" stroke="midnightblue" d="M1313.54,-302.48C1299.58,-292.93 1276.74,-277.31 1260.01,-265.87"/>
<polygon fill="midnightblue" stroke="midnightblue" points="1261.67,-262.77 1251.44,-260.01 1257.72,-268.54 1261.67,-262.77"/>
</g>
<!-- Node21&#45;&gt;Node26 -->
<g id="edge45" class="edge">
<title>Node21&#45;&gt;Node26</title>
<path fill="none" stroke="midnightblue" d="M1296.36,-304.63C1248.83,-294.42 1155.09,-274.29 1097.64,-261.95"/>
<polygon fill="midnightblue" stroke="midnightblue" points="1098.22,-258.49 1087.71,-259.81 1096.75,-265.34 1098.22,-258.49"/>
</g>
<!-- Node28 -->
<g id="node28" class="node">
<title>Node28</title>
<g id="a_node28"><a xlink:href="../../dc/d09/Stats_8h.html" target="_top" xlink:title="This file contains the declaration of statistical functions and structures for vectors and matrices.">
<polygon fill="white" stroke="black" points="617,-241 617,-260 719,-260 719,-241 617,-241"/>
<text text-anchor="middle" x="668" y="-248" font-family="Helvetica,sans-Serif" font-size="10.00">math/blas/Stats.h</text>
</a>
</g>
</g>
<!-- Node21&#45;&gt;Node28 -->
<g id="edge48" class="edge">
<title>Node21&#45;&gt;Node28</title>
<path fill="none" stroke="midnightblue" d="M1296.41,-307.33C1282.1,-305.61 1264.67,-303.6 1249,-302 1059.89,-282.73 835.66,-264.56 729.55,-256.25"/>
<polygon fill="midnightblue" stroke="midnightblue" points="729.59,-252.74 719.34,-255.45 729.04,-259.72 729.59,-252.74"/>
</g>
<!-- Node27 -->
<g id="node27" class="node">
<title>Node27</title>
<g id="a_node27"><a xlink:title=" ">
<polygon fill="white" stroke="#bfbfbf" points="1024,-179.5 1024,-198.5 1074,-198.5 1074,-179.5 1024,-179.5"/>
<text text-anchor="middle" x="1049" y="-186.5" font-family="Helvetica,sans-Serif" font-size="10.00">chrono</text>
</a>
</g>
</g>
<!-- Node26&#45;&gt;Node27 -->
<g id="edge46" class="edge">
<title>Node26&#45;&gt;Node27</title>
<path fill="none" stroke="midnightblue" d="M1049,-240.98C1049,-232.58 1049,-219.48 1049,-208.66"/>
<polygon fill="midnightblue" stroke="midnightblue" points="1052.5,-208.51 1049,-198.51 1045.5,-208.51 1052.5,-208.51"/>
</g>
<!-- Node28&#45;&gt;Node2 -->
<g id="edge50" class="edge">
<title>Node28&#45;&gt;Node2</title>
<path fill="none" stroke="midnightblue" d="M658.43,-240.8C636.1,-220.48 580.27,-169.69 551.99,-143.96"/>
<polygon fill="midnightblue" stroke="midnightblue" points="554.23,-141.26 544.48,-137.12 549.52,-146.44 554.23,-141.26"/>
</g>
<!-- Node28&#45;&gt;Node5 -->
<g id="edge58" class="edge">
<title>Node28&#45;&gt;Node5</title>
<path fill="none" stroke="midnightblue" d="M616.99,-246.55C570.02,-241.89 499.83,-229.89 447,-199 424.57,-185.89 405.56,-162.3 394.23,-146.05"/>
<polygon fill="midnightblue" stroke="midnightblue" points="396.94,-143.82 388.47,-137.46 391.13,-147.71 396.94,-143.82"/>
</g>
<!-- Node28&#45;&gt;Node6 -->
<g id="edge49" class="edge">
<title>Node28&#45;&gt;Node6</title>
<path fill="none" stroke="midnightblue" d="M665.06,-240.7C655.66,-212.57 626.21,-124.46 613.24,-85.66"/>
<polygon fill="midnightblue" stroke="midnightblue" points="616.4,-84.09 609.91,-75.71 609.76,-86.31 616.4,-84.09"/>
</g>
<!-- Node28&#45;&gt;Node8 -->
<g id="edge53" class="edge">
<title>Node28&#45;&gt;Node8</title>
<path fill="none" stroke="midnightblue" d="M668.7,-240.73C671.46,-206.03 681.67,-77.89 685.52,-29.59"/>
<polygon fill="midnightblue" stroke="midnightblue" points="689.01,-29.85 686.31,-19.6 682.03,-29.29 689.01,-29.85"/>
</g>
<!-- Node28&#45;&gt;Node9 -->
<g id="edge59" class="edge">
<title>Node28&#45;&gt;Node9</title>
<path fill="none" stroke="midnightblue" d="M719.15,-242.79C768.92,-235.09 839.39,-220.66 856,-199 881.5,-165.75 868.55,-112.71 859.06,-85.07"/>
<polygon fill="midnightblue" stroke="midnightblue" points="862.28,-83.7 855.56,-75.52 855.71,-86.11 862.28,-83.7"/>
</g>
<!-- Node29 -->
<g id="node29" class="node">
<title>Node29</title>
<g id="a_node29"><a xlink:title=" ">
<polygon fill="white" stroke="#bfbfbf" points="715,-179.5 715,-198.5 771,-198.5 771,-179.5 715,-179.5"/>
<text text-anchor="middle" x="743" y="-186.5" font-family="Helvetica,sans-Serif" font-size="10.00">numeric</text>
</a>
</g>
</g>
<!-- Node28&#45;&gt;Node29 -->
<g id="edge51" class="edge">
<title>Node28&#45;&gt;Node29</title>
<path fill="none" stroke="midnightblue" d="M678.75,-240.98C690.55,-231.61 709.74,-216.38 724.08,-205.01"/>
<polygon fill="midnightblue" stroke="midnightblue" points="726.62,-207.47 732.27,-198.51 722.26,-201.98 726.62,-207.47"/>
</g>
<!-- Node30 -->
<g id="node30" class="node">
<title>Node30</title>
<g id="a_node30"><a xlink:title=" ">
<polygon fill="white" stroke="#bfbfbf" points="789.5,-179.5 789.5,-198.5 846.5,-198.5 846.5,-179.5 789.5,-179.5"/>
<text text-anchor="middle" x="818" y="-186.5" font-family="Helvetica,sans-Serif" font-size="10.00">ostream</text>
</a>
</g>
</g>
<!-- Node28&#45;&gt;Node30 -->
<g id="edge52" class="edge">
<title>Node28&#45;&gt;Node30</title>
<path fill="none" stroke="midnightblue" d="M689.49,-240.98C715.11,-230.81 758.11,-213.76 787.24,-202.2"/>
<polygon fill="midnightblue" stroke="midnightblue" points="788.54,-205.45 796.55,-198.51 785.96,-198.94 788.54,-205.45"/>
</g>
<!-- Node31 -->
<g id="node31" class="node">
<title>Node31</title>
<g id="a_node31"><a xlink:href="../../d1/d80/BLAS_8h.html" target="_top" xlink:title=" ">
<polygon fill="white" stroke="black" points="455.5,-179.5 455.5,-198.5 506.5,-198.5 506.5,-179.5 455.5,-179.5"/>
<text text-anchor="middle" x="481" y="-186.5" font-family="Helvetica,sans-Serif" font-size="10.00">BLAS.h</text>
</a>
</g>
</g>
<!-- Node28&#45;&gt;Node31 -->
<g id="edge54" class="edge">
<title>Node28&#45;&gt;Node31</title>
<path fill="none" stroke="midnightblue" d="M641.21,-240.98C608.34,-230.52 552.54,-212.76 516.23,-201.21"/>
<polygon fill="midnightblue" stroke="midnightblue" points="517.13,-197.82 506.54,-198.13 515.01,-204.49 517.13,-197.82"/>
</g>
<!-- Node31&#45;&gt;Node2 -->
<g id="edge55" class="edge">
<title>Node31&#45;&gt;Node2</title>
<path fill="none" stroke="midnightblue" d="M488.74,-179.48C497,-170.37 510.28,-155.74 520.49,-144.48"/>
<polygon fill="midnightblue" stroke="midnightblue" points="523.15,-146.77 527.28,-137.01 517.97,-142.06 523.15,-146.77"/>
</g>
<!-- Node31&#45;&gt;Node5 -->
<g id="edge56" class="edge">
<title>Node31&#45;&gt;Node5</title>
<path fill="none" stroke="midnightblue" d="M466.96,-179.48C450.95,-169.75 424.55,-153.73 405.63,-142.24"/>
<polygon fill="midnightblue" stroke="midnightblue" points="407.38,-139.21 397.01,-137.01 403.75,-145.19 407.38,-139.21"/>
</g>
<!-- Node31&#45;&gt;Node9 -->
<g id="edge57" class="edge">
<title>Node31&#45;&gt;Node9</title>
<path fill="none" stroke="midnightblue" d="M480.68,-179.34C480.61,-163.33 482.98,-129.16 503,-112 522.99,-94.86 674.33,-80.4 771.05,-72.78"/>
<polygon fill="midnightblue" stroke="midnightblue" points="771.4,-76.26 781.1,-72 770.86,-69.28 771.4,-76.26"/>
</g>
<!-- Node34&#45;&gt;Node5 -->
<g id="edge71" class="edge">
<title>Node34&#45;&gt;Node5</title>
<path fill="none" stroke="midnightblue" d="M335.88,-240.89C332.94,-227.24 328.87,-200 337,-179 342.41,-165.04 353.67,-152.56 363.69,-143.51"/>
<polygon fill="midnightblue" stroke="midnightblue" points="365.98,-146.16 371.34,-137.01 361.45,-140.82 365.98,-146.16"/>
</g>
<!-- Node34&#45;&gt;Node9 -->
<g id="edge72" class="edge">
<title>Node34&#45;&gt;Node9</title>
<path fill="none" stroke="midnightblue" d="M371.76,-240.98C407.79,-231.63 466.39,-215.74 516,-199 631.36,-160.08 765.12,-104.22 822.93,-79.54"/>
<polygon fill="midnightblue" stroke="midnightblue" points="824.36,-82.73 832.18,-75.58 821.61,-76.3 824.36,-82.73"/>
</g>
<!-- Node34&#45;&gt;Node31 -->
<g id="edge70" class="edge">
<title>Node34&#45;&gt;Node31</title>
<path fill="none" stroke="midnightblue" d="M358.49,-240.98C382.81,-230.86 423.55,-213.9 451.32,-202.35"/>
<polygon fill="midnightblue" stroke="midnightblue" points="452.66,-205.58 460.55,-198.51 449.97,-199.12 452.66,-205.58"/>
</g>
<!-- Node35&#45;&gt;Node28 -->
<g id="edge76" class="edge">
<title>Node35&#45;&gt;Node28</title>
<path fill="none" stroke="midnightblue" d="M262.24,-303.64C349.95,-292.37 516.88,-270.92 606.87,-259.36"/>
<polygon fill="midnightblue" stroke="midnightblue" points="607.45,-262.81 616.92,-258.06 606.56,-255.87 607.45,-262.81"/>
</g>
<!-- Node35&#45;&gt;Node34 -->
<g id="edge74" class="edge">
<title>Node35&#45;&gt;Node34</title>
<path fill="none" stroke="midnightblue" d="M224.06,-302.48C246.47,-292.45 283.91,-275.7 309.71,-264.15"/>
<polygon fill="midnightblue" stroke="midnightblue" points="311.28,-267.29 318.98,-260.01 308.42,-260.9 311.28,-267.29"/>
</g>
<!-- Node36 -->
<g id="node36" class="node">
<title>Node36</title>
<g id="a_node36"><a xlink:href="../../d0/d24/RelaxationMethods_8h.html" target="_top" xlink:title="This file contains the declaration of the RelaxationMethods namespace, which includes the Type enumer...">
<polygon fill="white" stroke="black" points="28,-235.5 28,-265.5 178,-265.5 178,-235.5 28,-235.5"/>
<text text-anchor="start" x="36" y="-253.5" font-family="Helvetica,sans-Serif" font-size="10.00">math/relaxation/Relaxation</text>
<text text-anchor="middle" x="103" y="-242.5" font-family="Helvetica,sans-Serif" font-size="10.00">Methods.h</text>
</a>
</g>
</g>
<!-- Node35&#45;&gt;Node36 -->
<g id="edge75" class="edge">
<title>Node35&#45;&gt;Node36</title>
<path fill="none" stroke="midnightblue" d="M190.39,-302.48C176.18,-294.19 154.13,-281.32 135.73,-270.59"/>
<polygon fill="midnightblue" stroke="midnightblue" points="137.44,-267.54 127.04,-265.52 133.91,-273.58 137.44,-267.54"/>
</g>
<!-- Node37 -->
<g id="node37" class="node">
<title>Node37</title>
<g id="a_node37"><a xlink:title=" ">
<polygon fill="white" stroke="#bfbfbf" points="195.5,-241 195.5,-260 246.5,-260 246.5,-241 195.5,-241"/>
<text text-anchor="middle" x="221" y="-248" font-family="Helvetica,sans-Serif" font-size="10.00">variant</text>
</a>
</g>
</g>
<!-- Node35&#45;&gt;Node37 -->
<g id="edge77" class="edge">
<title>Node35&#45;&gt;Node37</title>
<path fill="none" stroke="midnightblue" d="M207.29,-302.48C209.57,-293.99 213.15,-280.7 216.07,-269.82"/>
<polygon fill="midnightblue" stroke="midnightblue" points="219.49,-270.57 218.71,-260.01 212.74,-268.76 219.49,-270.57"/>
</g>
</g>
</svg>
