<?xml version="1.0" encoding="UTF-8" standalone="no"?>
<!DOCTYPE svg PUBLIC "-//W3C//DTD SVG 1.1//EN"
 "http://www.w3.org/Graphics/SVG/1.1/DTD/svg11.dtd">
<!-- Generated by graphviz version 2.43.0 (0)
 -->
<!-- Title: src/utils/math/factorization/LUP.h Pages: 1 -->
<svg width="2182pt" height="509pt"
 viewBox="0.00 0.00 2182.00 509.00" xmlns="http://www.w3.org/2000/svg" xmlns:xlink="http://www.w3.org/1999/xlink">
<g id="graph0" class="graph" transform="scale(1 1) rotate(0) translate(4 505)">
<title>src/utils/math/factorization/LUP.h</title>
<polygon fill="white" stroke="transparent" points="-4,4 -4,-505 2178,-505 2178,4 -4,4"/>
<!-- Node1 -->
<g id="node1" class="node">
<title>Node1</title>
<g id="a_node1"><a xlink:title="LU factorization with pivoting.">
<polygon fill="#bfbfbf" stroke="black" points="524,-470.5 524,-500.5 672,-500.5 672,-470.5 524,-470.5"/>
<text text-anchor="start" x="532" y="-488.5" font-family="Helvetica,sans-Serif" font-size="10.00">src/utils/math/factorization</text>
<text text-anchor="middle" x="598" y="-477.5" font-family="Helvetica,sans-Serif" font-size="10.00">/LUP.h</text>
</a>
</g>
</g>
<!-- Node2 -->
<g id="node2" class="node">
<title>Node2</title>
<g id="a_node2"><a xlink:title=" ">
<polygon fill="white" stroke="#bfbfbf" points="698.5,-118 698.5,-137 745.5,-137 745.5,-118 698.5,-118"/>
<text text-anchor="middle" x="722" y="-125" font-family="Helvetica,sans-Serif" font-size="10.00">cmath</text>
</a>
</g>
</g>
<!-- Node1&#45;&gt;Node2 -->
<g id="edge1" class="edge">
<title>Node1&#45;&gt;Node2</title>
<path fill="none" stroke="midnightblue" d="M605.87,-470.41C617,-449.13 636,-407.21 636,-369 636,-369 636,-369 636,-249.5 636,-217.05 636.84,-205.89 655,-179 665.37,-163.65 681.96,-151.09 696.04,-142.34"/>
<polygon fill="midnightblue" stroke="midnightblue" points="698.01,-145.24 704.84,-137.14 694.45,-139.21 698.01,-145.24"/>
</g>
<!-- Node3 -->
<g id="node3" class="node">
<title>Node3</title>
<g id="a_node3"><a xlink:title=" ">
<polygon fill="white" stroke="#bfbfbf" points="1260,-0.5 1260,-19.5 1320,-19.5 1320,-0.5 1260,-0.5"/>
<text text-anchor="middle" x="1290" y="-7.5" font-family="Helvetica,sans-Serif" font-size="10.00">iostream</text>
</a>
</g>
</g>
<!-- Node1&#45;&gt;Node3 -->
<g id="edge2" class="edge">
<title>Node1&#45;&gt;Node3</title>
<path fill="none" stroke="midnightblue" d="M598,-470.28C598,-448.48 598,-405.49 598,-369 598,-369 598,-369 598,-249.5 598,-175.97 627.07,-150.02 690,-112 785.33,-54.4 1130.76,-23.16 1249.55,-13.94"/>
<polygon fill="midnightblue" stroke="midnightblue" points="1249.97,-17.42 1259.67,-13.16 1249.43,-10.44 1249.97,-17.42"/>
</g>
<!-- Node4 -->
<g id="node4" class="node">
<title>Node4</title>
<g id="a_node4"><a xlink:href="../../d7/dff/LU_8h.html" target="_top" xlink:title="LU factorization and related methods for MyBLAS library.">
<polygon fill="white" stroke="black" points="929,-414.5 929,-433.5 967,-433.5 967,-414.5 929,-414.5"/>
<text text-anchor="middle" x="948" y="-421.5" font-family="Helvetica,sans-Serif" font-size="10.00">LU.h</text>
</a>
</g>
</g>
<!-- Node1&#45;&gt;Node4 -->
<g id="edge3" class="edge">
<title>Node1&#45;&gt;Node4</title>
<path fill="none" stroke="midnightblue" d="M672.23,-471.88C749.01,-458.83 865.05,-439.1 918.79,-429.97"/>
<polygon fill="midnightblue" stroke="midnightblue" points="919.7,-433.36 928.97,-428.23 918.53,-426.46 919.7,-433.36"/>
</g>
<!-- Node5 -->
<g id="node5" class="node">
<title>Node5</title>
<g id="a_node5"><a xlink:href="../../d3/db1/Matrix_8h.html" target="_top" xlink:title="This file contains my BLAS::Matrix declarations.">
<polygon fill="white" stroke="black" points="266,-118 266,-137 410,-137 410,-118 266,-118"/>
<text text-anchor="middle" x="338" y="-125" font-family="Helvetica,sans-Serif" font-size="10.00">math/blas/matrix/Matrix.h</text>
</a>
</g>
</g>
<!-- Node1&#45;&gt;Node5 -->
<g id="edge67" class="edge">
<title>Node1&#45;&gt;Node5</title>
<path fill="none" stroke="midnightblue" d="M523.8,-480.36C480.8,-474.8 427.53,-462.21 388,-434 315.94,-382.58 305.77,-350.99 281,-266 267.87,-220.95 302.05,-170.63 323.02,-145.18"/>
<polygon fill="midnightblue" stroke="midnightblue" points="325.95,-147.14 329.8,-137.26 320.63,-142.59 325.95,-147.14"/>
</g>
<!-- Node10 -->
<g id="node10" class="node">
<title>Node10</title>
<g id="a_node10"><a xlink:href="../../d6/dbe/Vector_8h.html" target="_top" xlink:title="This file contains my BLAS::Vector implementation.">
<polygon fill="white" stroke="black" points="586.5,-56.5 586.5,-75.5 727.5,-75.5 727.5,-56.5 586.5,-56.5"/>
<text text-anchor="middle" x="657" y="-63.5" font-family="Helvetica,sans-Serif" font-size="10.00">math/blas/vector/Vector.h</text>
</a>
</g>
</g>
<!-- Node1&#45;&gt;Node10 -->
<g id="edge68" class="edge">
<title>Node1&#45;&gt;Node10</title>
<path fill="none" stroke="midnightblue" d="M537.84,-470.48C488.24,-454.94 426,-424.39 426,-369 426,-369 426,-369 426,-311 426,-204.62 467.94,-167 559,-112 580.11,-99.25 605.45,-87.7 625.07,-79.5"/>
<polygon fill="midnightblue" stroke="midnightblue" points="626.56,-82.67 634.48,-75.64 623.9,-76.2 626.56,-82.67"/>
</g>
<!-- Node13 -->
<g id="node13" class="node">
<title>Node13</title>
<g id="a_node13"><a xlink:href="../../d9/d41/CommandLine_8h.html" target="_top" xlink:title="This file contains the definition of the CommandLine class and the HeaderInfo struct.">
<polygon fill="white" stroke="black" points="1620,-358.5 1620,-377.5 1734,-377.5 1734,-358.5 1620,-358.5"/>
<text text-anchor="middle" x="1677" y="-365.5" font-family="Helvetica,sans-Serif" font-size="10.00">../../CommandLine.h</text>
</a>
</g>
</g>
<!-- Node1&#45;&gt;Node13 -->
<g id="edge69" class="edge">
<title>Node1&#45;&gt;Node13</title>
<path fill="none" stroke="midnightblue" d="M672.11,-476.73C766.08,-466.86 933.08,-449.28 1076,-434 1269.79,-413.28 1498.68,-388.42 1609.77,-376.33"/>
<polygon fill="midnightblue" stroke="midnightblue" points="1610.26,-379.79 1619.83,-375.23 1609.51,-372.83 1610.26,-379.79"/>
</g>
<!-- Node26 -->
<g id="node26" class="node">
<title>Node26</title>
<g id="a_node26"><a xlink:href="../../d4/d2e/Stopwatch_8h.html" target="_top" xlink:title="This file contains the Stopwatch class which is a utility for measuring time durations in various uni...">
<polygon fill="white" stroke="black" points="1014.5,-241 1014.5,-260 1091.5,-260 1091.5,-241 1014.5,-241"/>
<text text-anchor="middle" x="1053" y="-248" font-family="Helvetica,sans-Serif" font-size="10.00">Stopwatch.h</text>
</a>
</g>
</g>
<!-- Node1&#45;&gt;Node26 -->
<g id="edge70" class="edge">
<title>Node1&#45;&gt;Node26</title>
<path fill="none" stroke="midnightblue" d="M672.11,-481.27C767.17,-475.99 925.78,-463.05 976,-434 1027.02,-404.49 1031.04,-378.73 1047,-322 1051.78,-305.02 1053.08,-284.9 1053.31,-270.51"/>
<polygon fill="midnightblue" stroke="midnightblue" points="1056.81,-270.37 1053.3,-260.37 1049.81,-270.37 1056.81,-270.37"/>
</g>
<!-- Node34 -->
<g id="node34" class="node">
<title>Node34</title>
<g id="a_node34"><a xlink:href="../../d1/d6a/Factorize_8h.html" target="_top" xlink:title="This file contains the declaration of the MyFactorizationMethod namespace, which includes methods and...">
<polygon fill="white" stroke="black" points="290.5,-241 290.5,-260 359.5,-260 359.5,-241 290.5,-241"/>
<text text-anchor="middle" x="325" y="-248" font-family="Helvetica,sans-Serif" font-size="10.00">Factorize.h</text>
</a>
</g>
</g>
<!-- Node1&#45;&gt;Node34 -->
<g id="edge71" class="edge">
<title>Node1&#45;&gt;Node34</title>
<path fill="none" stroke="midnightblue" d="M523.77,-478.9C486.69,-472.75 443.21,-460.05 412,-434 359.5,-390.18 336.52,-307.34 328.53,-270.27"/>
<polygon fill="midnightblue" stroke="midnightblue" points="331.94,-269.43 326.52,-260.32 325.07,-270.82 331.94,-269.43"/>
</g>
<!-- Node35 -->
<g id="node35" class="node">
<title>Node35</title>
<g id="a_node35"><a xlink:href="../../df/dbd/LinearSolver_8h.html" target="_top" xlink:title="This file contains the definition of the LinearSolver class and its associated methods.">
<polygon fill="white" stroke="black" points="128,-302.5 128,-321.5 242,-321.5 242,-302.5 128,-302.5"/>
<text text-anchor="middle" x="185" y="-309.5" font-family="Helvetica,sans-Serif" font-size="10.00">math/LinearSolver.h</text>
</a>
</g>
</g>
<!-- Node1&#45;&gt;Node35 -->
<g id="edge75" class="edge">
<title>Node1&#45;&gt;Node35</title>
<path fill="none" stroke="midnightblue" d="M524,-480.99C436.85,-475.59 298.54,-462.69 256,-434 219.26,-409.22 198.88,-358.55 190.17,-331.3"/>
<polygon fill="midnightblue" stroke="midnightblue" points="193.45,-330.07 187.21,-321.5 186.75,-332.09 193.45,-330.07"/>
</g>
<!-- Node4&#45;&gt;Node2 -->
<g id="edge4" class="edge">
<title>Node4&#45;&gt;Node2</title>
<path fill="none" stroke="midnightblue" d="M941.33,-414.44C928.14,-396.62 900,-353.84 900,-313 900,-313 900,-313 900,-249.5 900,-180.46 807.27,-148.05 755.67,-135.35"/>
<polygon fill="midnightblue" stroke="midnightblue" points="756.17,-131.88 745.64,-133.01 754.58,-138.69 756.17,-131.88"/>
</g>
<!-- Node4&#45;&gt;Node3 -->
<g id="edge5" class="edge">
<title>Node4&#45;&gt;Node3</title>
<path fill="none" stroke="midnightblue" d="M950.55,-414.09C959.9,-381.62 992.39,-269.65 1006,-235 1016.1,-209.28 1014.77,-199.76 1033,-179 1099.58,-103.17 1208.22,-47.63 1260.31,-23.83"/>
<polygon fill="midnightblue" stroke="midnightblue" points="1261.97,-26.92 1269.65,-19.63 1259.1,-20.54 1261.97,-26.92"/>
</g>
<!-- Node4&#45;&gt;Node5 -->
<g id="edge6" class="edge">
<title>Node4&#45;&gt;Node5</title>
<path fill="none" stroke="midnightblue" d="M928.96,-418.62C855.28,-400.99 583.78,-329.85 400,-199 379.13,-184.14 360.52,-160.96 349.26,-145.27"/>
<polygon fill="midnightblue" stroke="midnightblue" points="352.1,-143.23 343.52,-137.02 346.36,-147.23 352.1,-143.23"/>
</g>
<!-- Node4&#45;&gt;Node10 -->
<g id="edge18" class="edge">
<title>Node4&#45;&gt;Node10</title>
<path fill="none" stroke="midnightblue" d="M948.21,-414.17C948.5,-386.2 946.63,-297.66 914,-235 878.44,-166.71 857.41,-152.61 792,-112 766.5,-96.17 734.8,-85.23 708.53,-78.1"/>
<polygon fill="midnightblue" stroke="midnightblue" points="709.31,-74.69 698.75,-75.56 707.55,-81.47 709.31,-74.69"/>
</g>
<!-- Node4&#45;&gt;Node13 -->
<g id="edge19" class="edge">
<title>Node4&#45;&gt;Node13</title>
<path fill="none" stroke="midnightblue" d="M967.12,-421.58C1058.3,-414.83 1450.95,-385.74 1609.86,-373.97"/>
<polygon fill="midnightblue" stroke="midnightblue" points="1610.27,-377.45 1619.98,-373.22 1609.75,-370.47 1610.27,-377.45"/>
</g>
<!-- Node4&#45;&gt;Node26 -->
<g id="edge66" class="edge">
<title>Node4&#45;&gt;Node26</title>
<path fill="none" stroke="midnightblue" d="M961.05,-414.35C972.59,-406.15 989.21,-392.89 1000,-378 1024.83,-343.74 1040.73,-296.09 1048.13,-270.15"/>
<polygon fill="midnightblue" stroke="midnightblue" points="1051.59,-270.74 1050.86,-260.17 1044.84,-268.89 1051.59,-270.74"/>
</g>
<!-- Node5&#45;&gt;Node3 -->
<g id="edge9" class="edge">
<title>Node5&#45;&gt;Node3</title>
<path fill="none" stroke="midnightblue" d="M352.5,-117.79C379.45,-102.11 439.56,-69.53 495,-56 568.53,-38.06 1098.03,-17.88 1249.58,-12.42"/>
<polygon fill="midnightblue" stroke="midnightblue" points="1249.95,-15.91 1259.82,-12.06 1249.7,-8.92 1249.95,-15.91"/>
</g>
<!-- Node6 -->
<g id="node6" class="node">
<title>Node6</title>
<g id="a_node6"><a xlink:title=" ">
<polygon fill="white" stroke="#bfbfbf" points="504,-56.5 504,-75.5 568,-75.5 568,-56.5 504,-56.5"/>
<text text-anchor="middle" x="536" y="-63.5" font-family="Helvetica,sans-Serif" font-size="10.00">algorithm</text>
</a>
</g>
</g>
<!-- Node5&#45;&gt;Node6 -->
<g id="edge7" class="edge">
<title>Node5&#45;&gt;Node6</title>
<path fill="none" stroke="midnightblue" d="M366.37,-117.98C400.92,-107.59 459.42,-90.01 497.88,-78.45"/>
<polygon fill="midnightblue" stroke="midnightblue" points="499.11,-81.74 507.68,-75.51 497.1,-75.04 499.11,-81.74"/>
</g>
<!-- Node7 -->
<g id="node7" class="node">
<title>Node7</title>
<g id="a_node7"><a xlink:title=" ">
<polygon fill="white" stroke="#bfbfbf" points="268,-0.5 268,-19.5 320,-19.5 320,-0.5 268,-0.5"/>
<text text-anchor="middle" x="294" y="-7.5" font-family="Helvetica,sans-Serif" font-size="10.00">cassert</text>
</a>
</g>
</g>
<!-- Node5&#45;&gt;Node7 -->
<g id="edge8" class="edge">
<title>Node5&#45;&gt;Node7</title>
<path fill="none" stroke="midnightblue" d="M302.74,-117.9C281.12,-110.62 255.14,-97.76 242,-76 230.65,-57.2 251.09,-37.82 269.58,-25.17"/>
<polygon fill="midnightblue" stroke="midnightblue" points="271.57,-28.05 278.09,-19.7 267.78,-22.17 271.57,-28.05"/>
</g>
<!-- Node8 -->
<g id="node8" class="node">
<title>Node8</title>
<g id="a_node8"><a xlink:title=" ">
<polygon fill="white" stroke="#bfbfbf" points="414.5,-0.5 414.5,-19.5 461.5,-19.5 461.5,-0.5 414.5,-0.5"/>
<text text-anchor="middle" x="438" y="-7.5" font-family="Helvetica,sans-Serif" font-size="10.00">vector</text>
</a>
</g>
</g>
<!-- Node5&#45;&gt;Node8 -->
<g id="edge10" class="edge">
<title>Node5&#45;&gt;Node8</title>
<path fill="none" stroke="midnightblue" d="M320.31,-117.98C295.95,-105.09 257,-79.64 275,-56 290.61,-35.5 361.44,-21.96 404.43,-15.47"/>
<polygon fill="midnightblue" stroke="midnightblue" points="405.06,-18.91 414.45,-14.01 404.05,-11.99 405.06,-18.91"/>
</g>
<!-- Node9 -->
<g id="node9" class="node">
<title>Node9</title>
<g id="a_node9"><a xlink:href="../../d1/d45/Constants_8h.html" target="_top" xlink:title="MyBLAS Constants definition.">
<polygon fill="white" stroke="black" points="284,-56.5 284,-75.5 410,-75.5 410,-56.5 284,-56.5"/>
<text text-anchor="middle" x="347" y="-63.5" font-family="Helvetica,sans-Serif" font-size="10.00">math/blas/Constants.h</text>
</a>
</g>
</g>
<!-- Node5&#45;&gt;Node9 -->
<g id="edge11" class="edge">
<title>Node5&#45;&gt;Node9</title>
<path fill="none" stroke="midnightblue" d="M339.29,-117.98C340.56,-109.58 342.54,-96.48 344.18,-85.66"/>
<polygon fill="midnightblue" stroke="midnightblue" points="347.68,-85.92 345.71,-75.51 340.76,-84.87 347.68,-85.92"/>
</g>
<!-- Node5&#45;&gt;Node10 -->
<g id="edge12" class="edge">
<title>Node5&#45;&gt;Node10</title>
<path fill="none" stroke="midnightblue" d="M383.7,-117.98C441.15,-107.26 539.68,-88.88 601.42,-77.37"/>
<polygon fill="midnightblue" stroke="midnightblue" points="602.19,-80.78 611.38,-75.51 600.91,-73.9 602.19,-80.78"/>
</g>
<!-- Node10&#45;&gt;Node3 -->
<g id="edge15" class="edge">
<title>Node10&#45;&gt;Node3</title>
<path fill="none" stroke="midnightblue" d="M727.95,-57.36C732.7,-56.89 737.42,-56.43 742,-56 931.93,-38.15 1159.26,-20.75 1249.87,-13.97"/>
<polygon fill="midnightblue" stroke="midnightblue" points="1250.27,-17.45 1259.98,-13.22 1249.75,-10.47 1250.27,-17.45"/>
</g>
<!-- Node10&#45;&gt;Node7 -->
<g id="edge17" class="edge">
<title>Node10&#45;&gt;Node7</title>
<path fill="none" stroke="midnightblue" d="M599.48,-56.44C523.92,-45.2 393.45,-25.79 330.31,-16.4"/>
<polygon fill="midnightblue" stroke="midnightblue" points="330.82,-12.94 320.42,-14.93 329.79,-19.86 330.82,-12.94"/>
</g>
<!-- Node10&#45;&gt;Node8 -->
<g id="edge16" class="edge">
<title>Node10&#45;&gt;Node8</title>
<path fill="none" stroke="midnightblue" d="M622.3,-56.44C580.94,-46.24 512.3,-29.32 471.48,-19.26"/>
<polygon fill="midnightblue" stroke="midnightblue" points="472.29,-15.85 461.74,-16.85 470.61,-22.65 472.29,-15.85"/>
</g>
<!-- Node11 -->
<g id="node11" class="node">
<title>Node11</title>
<g id="a_node11"><a xlink:title=" ">
<polygon fill="white" stroke="#bfbfbf" points="829.5,-0.5 829.5,-19.5 894.5,-19.5 894.5,-0.5 829.5,-0.5"/>
<text text-anchor="middle" x="862" y="-7.5" font-family="Helvetica,sans-Serif" font-size="10.00">functional</text>
</a>
</g>
</g>
<!-- Node10&#45;&gt;Node11 -->
<g id="edge13" class="edge">
<title>Node10&#45;&gt;Node11</title>
<path fill="none" stroke="midnightblue" d="M689.48,-56.44C724.72,-47.16 781.1,-32.31 819.76,-22.13"/>
<polygon fill="midnightblue" stroke="midnightblue" points="820.89,-25.45 829.67,-19.52 819.11,-18.68 820.89,-25.45"/>
</g>
<!-- Node12 -->
<g id="node12" class="node">
<title>Node12</title>
<g id="a_node12"><a xlink:title=" ">
<polygon fill="white" stroke="#bfbfbf" points="1455,-0.5 1455,-19.5 1511,-19.5 1511,-0.5 1455,-0.5"/>
<text text-anchor="middle" x="1483" y="-7.5" font-family="Helvetica,sans-Serif" font-size="10.00">iomanip</text>
</a>
</g>
</g>
<!-- Node10&#45;&gt;Node12 -->
<g id="edge14" class="edge">
<title>Node10&#45;&gt;Node12</title>
<path fill="none" stroke="midnightblue" d="M727.78,-60.37C896.14,-49.37 1316.01,-21.92 1444.82,-13.5"/>
<polygon fill="midnightblue" stroke="midnightblue" points="1445.23,-16.98 1454.98,-12.83 1444.77,-9.99 1445.23,-16.98"/>
</g>
<!-- Node13&#45;&gt;Node3 -->
<g id="edge64" class="edge">
<title>Node13&#45;&gt;Node3</title>
<path fill="none" stroke="midnightblue" d="M1734.01,-365.69C1864.56,-361.16 2174,-340.97 2174,-251.5 2174,-251.5 2174,-251.5 2174,-126.5 2174,-115.88 2164.85,-115.98 2155,-112 2077.66,-80.75 1490.88,-28.32 1330.44,-14.45"/>
<polygon fill="midnightblue" stroke="midnightblue" points="1330.33,-10.93 1320.07,-13.56 1329.73,-17.9 1330.33,-10.93"/>
</g>
<!-- Node14 -->
<g id="node14" class="node">
<title>Node14</title>
<g id="a_node14"><a xlink:href="../../d2/d0e/CommandlineHelpers_8h.html" target="_top" xlink:title="This file contains helper functions for handling command line options and initializing the profiler.">
<polygon fill="white" stroke="black" points="1438.5,-302.5 1438.5,-321.5 1569.5,-321.5 1569.5,-302.5 1438.5,-302.5"/>
<text text-anchor="middle" x="1504" y="-309.5" font-family="Helvetica,sans-Serif" font-size="10.00">CommandlineHelpers.h</text>
</a>
</g>
</g>
<!-- Node13&#45;&gt;Node14 -->
<g id="edge20" class="edge">
<title>Node13&#45;&gt;Node14</title>
<path fill="none" stroke="midnightblue" d="M1649.59,-358.44C1620.23,-349.28 1573.48,-334.69 1540.9,-324.52"/>
<polygon fill="midnightblue" stroke="midnightblue" points="1541.87,-321.16 1531.28,-321.52 1539.79,-327.84 1541.87,-321.16"/>
</g>
<!-- Node16 -->
<g id="node16" class="node">
<title>Node16</title>
<g id="a_node16"><a xlink:title=" ">
<polygon fill="white" stroke="#bfbfbf" points="1996,-118 1996,-137 2146,-137 2146,-118 1996,-118"/>
<text text-anchor="middle" x="2071" y="-125" font-family="Helvetica,sans-Serif" font-size="10.00">boost/program_options.hpp</text>
</a>
</g>
</g>
<!-- Node13&#45;&gt;Node16 -->
<g id="edge63" class="edge">
<title>Node13&#45;&gt;Node16</title>
<path fill="none" stroke="midnightblue" d="M1700.99,-358.45C1723.09,-350.22 1756.52,-336.86 1784,-322 1890.55,-264.39 2007.23,-177.54 2052.04,-143.21"/>
<polygon fill="midnightblue" stroke="midnightblue" points="2054.23,-145.94 2060.02,-137.07 2049.96,-140.4 2054.23,-145.94"/>
</g>
<!-- Node18 -->
<g id="node18" class="node">
<title>Node18</title>
<g id="a_node18"><a xlink:href="../../db/df1/Helpers_8h.html" target="_top" xlink:title="This file contains helper functions and structures used throughout the program.">
<polygon fill="white" stroke="black" points="1662.5,-179.5 1662.5,-198.5 1725.5,-198.5 1725.5,-179.5 1662.5,-179.5"/>
<text text-anchor="middle" x="1694" y="-186.5" font-family="Helvetica,sans-Serif" font-size="10.00">Helpers.h</text>
</a>
</g>
</g>
<!-- Node13&#45;&gt;Node18 -->
<g id="edge38" class="edge">
<title>Node13&#45;&gt;Node18</title>
<path fill="none" stroke="midnightblue" d="M1714.1,-358.46C1733.44,-351.92 1755.43,-340.72 1767,-322 1792.56,-280.64 1742.64,-229.84 1713.29,-205.05"/>
<polygon fill="midnightblue" stroke="midnightblue" points="1715.24,-202.13 1705.29,-198.5 1710.81,-207.54 1715.24,-202.13"/>
</g>
<!-- Node22 -->
<g id="node22" class="node">
<title>Node22</title>
<g id="a_node22"><a xlink:href="../../df/d69/Profiler_8h.html" target="_top" xlink:title="This file contains the Profiler class which is used to profile the execution time of a function.">
<polygon fill="white" stroke="black" points="1287.5,-302.5 1287.5,-321.5 1346.5,-321.5 1346.5,-302.5 1287.5,-302.5"/>
<text text-anchor="middle" x="1317" y="-309.5" font-family="Helvetica,sans-Serif" font-size="10.00">Profiler.h</text>
</a>
</g>
</g>
<!-- Node13&#45;&gt;Node22 -->
<g id="edge39" class="edge">
<title>Node13&#45;&gt;Node22</title>
<path fill="none" stroke="midnightblue" d="M1619.96,-358.44C1546.52,-347.43 1420.79,-328.57 1356.86,-318.98"/>
<polygon fill="midnightblue" stroke="midnightblue" points="1357.18,-315.49 1346.77,-317.47 1356.15,-322.41 1357.18,-315.49"/>
</g>
<!-- Node32 -->
<g id="node32" class="node">
<title>Node32</title>
<g id="a_node32"><a xlink:title=" ">
<polygon fill="white" stroke="#bfbfbf" points="1588,-302.5 1588,-321.5 1680,-321.5 1680,-302.5 1588,-302.5"/>
<text text-anchor="middle" x="1634" y="-309.5" font-family="Helvetica,sans-Serif" font-size="10.00">project&#45;config.h</text>
</a>
</g>
</g>
<!-- Node13&#45;&gt;Node32 -->
<g id="edge62" class="edge">
<title>Node13&#45;&gt;Node32</title>
<path fill="none" stroke="midnightblue" d="M1669.9,-358.08C1663.76,-350.38 1654.73,-339.03 1647.26,-329.65"/>
<polygon fill="midnightblue" stroke="midnightblue" points="1649.94,-327.39 1640.97,-321.75 1644.46,-331.75 1649.94,-327.39"/>
</g>
<!-- Node33 -->
<g id="node33" class="node">
<title>Node33</title>
<g id="a_node33"><a xlink:title=" ">
<polygon fill="white" stroke="#bfbfbf" points="1698,-302.5 1698,-321.5 1742,-321.5 1742,-302.5 1698,-302.5"/>
<text text-anchor="middle" x="1720" y="-309.5" font-family="Helvetica,sans-Serif" font-size="10.00">string</text>
</a>
</g>
</g>
<!-- Node13&#45;&gt;Node33 -->
<g id="edge65" class="edge">
<title>Node13&#45;&gt;Node33</title>
<path fill="none" stroke="midnightblue" d="M1684.1,-358.08C1690.24,-350.38 1699.27,-339.03 1706.74,-329.65"/>
<polygon fill="midnightblue" stroke="midnightblue" points="1709.54,-331.75 1713.03,-321.75 1704.06,-327.39 1709.54,-331.75"/>
</g>
<!-- Node15 -->
<g id="node15" class="node">
<title>Node15</title>
<g id="a_node15"><a xlink:href="../../d0/d7d/CheckBounds_8h.html" target="_top" xlink:title="This file contains the declaration of functions for checking the validity of input parameters.">
<polygon fill="white" stroke="black" points="1550,-241 1550,-260 1642,-260 1642,-241 1550,-241"/>
<text text-anchor="middle" x="1596" y="-248" font-family="Helvetica,sans-Serif" font-size="10.00">CheckBounds.h</text>
</a>
</g>
</g>
<!-- Node14&#45;&gt;Node15 -->
<g id="edge21" class="edge">
<title>Node14&#45;&gt;Node15</title>
<path fill="none" stroke="midnightblue" d="M1517.18,-302.48C1532.07,-292.84 1556.54,-277.02 1574.27,-265.55"/>
<polygon fill="midnightblue" stroke="midnightblue" points="1576.35,-268.38 1582.84,-260.01 1572.55,-262.5 1576.35,-268.38"/>
</g>
<!-- Node14&#45;&gt;Node16 -->
<g id="edge37" class="edge">
<title>Node14&#45;&gt;Node16</title>
<path fill="none" stroke="midnightblue" d="M1532.51,-302.45C1562.16,-293.52 1609.91,-279.01 1651,-266 1794.21,-220.64 1964.03,-164.24 2036,-140.21"/>
<polygon fill="midnightblue" stroke="midnightblue" points="2037.11,-143.53 2045.49,-137.04 2034.89,-136.89 2037.11,-143.53"/>
</g>
<!-- Node19 -->
<g id="node19" class="node">
<title>Node19</title>
<g id="a_node19"><a xlink:title=" ">
<polygon fill="white" stroke="#bfbfbf" points="1443,-118 1443,-137 1501,-137 1501,-118 1443,-118"/>
<text text-anchor="middle" x="1472" y="-125" font-family="Helvetica,sans-Serif" font-size="10.00">json.hpp</text>
</a>
</g>
</g>
<!-- Node14&#45;&gt;Node19 -->
<g id="edge36" class="edge">
<title>Node14&#45;&gt;Node19</title>
<path fill="none" stroke="midnightblue" d="M1502.46,-302.2C1497.53,-274.07 1482.07,-185.96 1475.27,-147.16"/>
<polygon fill="midnightblue" stroke="midnightblue" points="1478.7,-146.46 1473.53,-137.21 1471.81,-147.67 1478.7,-146.46"/>
</g>
<!-- Node15&#45;&gt;Node3 -->
<g id="edge23" class="edge">
<title>Node15&#45;&gt;Node3</title>
<path fill="none" stroke="midnightblue" d="M1592.7,-240.89C1583.27,-217.27 1553.99,-150.67 1510,-112 1456.48,-64.95 1377.34,-35.92 1330,-21.68"/>
<polygon fill="midnightblue" stroke="midnightblue" points="1330.7,-18.23 1320.12,-18.78 1328.73,-24.95 1330.7,-18.23"/>
</g>
<!-- Node15&#45;&gt;Node12 -->
<g id="edge24" class="edge">
<title>Node15&#45;&gt;Node12</title>
<path fill="none" stroke="midnightblue" d="M1595.6,-240.96C1593.87,-212.32 1585.12,-117.92 1543,-56 1534.3,-43.22 1520.77,-32.61 1508.75,-24.91"/>
<polygon fill="midnightblue" stroke="midnightblue" points="1510.33,-21.78 1499.96,-19.61 1506.71,-27.77 1510.33,-21.78"/>
</g>
<!-- Node15&#45;&gt;Node13 -->
<g id="edge26" class="edge">
<title>Node15&#45;&gt;Node13</title>
<path fill="none" stroke="midnightblue" d="M1642.35,-252.78C1678.43,-256.52 1726.39,-268.1 1751,-302 1766.48,-323.32 1736.52,-342.52 1710.21,-354.43"/>
<polygon fill="midnightblue" stroke="midnightblue" points="1708.58,-351.32 1700.77,-358.48 1711.34,-357.76 1708.58,-351.32"/>
</g>
<!-- Node15&#45;&gt;Node16 -->
<g id="edge22" class="edge">
<title>Node15&#45;&gt;Node16</title>
<path fill="none" stroke="midnightblue" d="M1621.62,-240.94C1649.7,-231.38 1695.97,-215.13 1735,-199 1754.48,-190.95 1757.88,-185.29 1778,-179 1788.98,-175.57 1926.82,-152.42 2009.46,-138.68"/>
<polygon fill="midnightblue" stroke="midnightblue" points="2010.21,-142.1 2019.5,-137.01 2009.06,-135.2 2010.21,-142.1"/>
</g>
<!-- Node17 -->
<g id="node17" class="node">
<title>Node17</title>
<g id="a_node17"><a xlink:title=" ">
<polygon fill="white" stroke="#bfbfbf" points="1595,-118 1595,-137 1639,-137 1639,-118 1595,-118"/>
<text text-anchor="middle" x="1617" y="-125" font-family="Helvetica,sans-Serif" font-size="10.00">limits</text>
</a>
</g>
</g>
<!-- Node15&#45;&gt;Node17 -->
<g id="edge25" class="edge">
<title>Node15&#45;&gt;Node17</title>
<path fill="none" stroke="midnightblue" d="M1598.95,-240.67C1602.16,-230.67 1607.23,-213.85 1610,-199 1613.24,-181.64 1615.05,-161.57 1616.01,-147.29"/>
<polygon fill="midnightblue" stroke="midnightblue" points="1619.51,-147.44 1616.61,-137.25 1612.52,-147.02 1619.51,-147.44"/>
</g>
<!-- Node15&#45;&gt;Node18 -->
<g id="edge27" class="edge">
<title>Node15&#45;&gt;Node18</title>
<path fill="none" stroke="midnightblue" d="M1610.04,-240.98C1626.05,-231.25 1652.45,-215.23 1671.37,-203.74"/>
<polygon fill="midnightblue" stroke="midnightblue" points="1673.25,-206.69 1679.99,-198.51 1669.62,-200.71 1673.25,-206.69"/>
</g>
<!-- Node15&#45;&gt;Node19 -->
<g id="edge35" class="edge">
<title>Node15&#45;&gt;Node19</title>
<path fill="none" stroke="midnightblue" d="M1587.16,-240.93C1576.8,-230.9 1559.14,-213.76 1544,-199 1524.77,-180.24 1502.7,-158.62 1488.12,-144.32"/>
<polygon fill="midnightblue" stroke="midnightblue" points="1490.45,-141.7 1480.86,-137.19 1485.54,-146.7 1490.45,-141.7"/>
</g>
<!-- Node18&#45;&gt;Node3 -->
<g id="edge29" class="edge">
<title>Node18&#45;&gt;Node3</title>
<path fill="none" stroke="midnightblue" d="M1690.65,-179.47C1684.31,-164.25 1669.28,-132.15 1648,-112 1609.6,-75.63 1592.98,-73.29 1543,-56 1470.57,-30.95 1381.43,-19.26 1330.61,-14.27"/>
<polygon fill="midnightblue" stroke="midnightblue" points="1330.66,-10.76 1320.37,-13.31 1330,-17.73 1330.66,-10.76"/>
</g>
<!-- Node18&#45;&gt;Node12 -->
<g id="edge28" class="edge">
<title>Node18&#45;&gt;Node12</title>
<path fill="none" stroke="midnightblue" d="M1725.85,-180.09C1727.59,-179.71 1729.32,-179.34 1731,-179 1830.32,-158.75 2012.63,-190.9 1949,-112 1895.11,-45.18 1622.65,-20.33 1521.17,-13.31"/>
<polygon fill="midnightblue" stroke="midnightblue" points="1521.26,-9.81 1511.05,-12.63 1520.79,-16.8 1521.26,-9.81"/>
</g>
<!-- Node18&#45;&gt;Node16 -->
<g id="edge32" class="edge">
<title>Node18&#45;&gt;Node16</title>
<path fill="none" stroke="midnightblue" d="M1725.64,-181.61C1730.44,-180.7 1735.35,-179.8 1740,-179 1847.16,-160.56 1874.56,-159.74 1982,-143 1990.77,-141.63 2000.01,-140.16 2009.1,-138.7"/>
<polygon fill="midnightblue" stroke="midnightblue" points="2009.94,-142.11 2019.25,-137.06 2008.82,-135.2 2009.94,-142.11"/>
</g>
<!-- Node18&#45;&gt;Node17 -->
<g id="edge30" class="edge">
<title>Node18&#45;&gt;Node17</title>
<path fill="none" stroke="midnightblue" d="M1682.97,-179.48C1670.73,-170.02 1650.77,-154.6 1636.01,-143.19"/>
<polygon fill="midnightblue" stroke="midnightblue" points="1638.06,-140.35 1628.01,-137.01 1633.78,-145.89 1638.06,-140.35"/>
</g>
<!-- Node18&#45;&gt;Node19 -->
<g id="edge31" class="edge">
<title>Node18&#45;&gt;Node19</title>
<path fill="none" stroke="midnightblue" d="M1662.19,-179.48C1622.35,-168.8 1554.09,-150.5 1511.1,-138.98"/>
<polygon fill="midnightblue" stroke="midnightblue" points="1511.84,-135.55 1501.27,-136.35 1510.02,-142.31 1511.84,-135.55"/>
</g>
<!-- Node20 -->
<g id="node20" class="node">
<title>Node20</title>
<g id="a_node20"><a xlink:title=" ">
<polygon fill="white" stroke="#bfbfbf" points="1695.5,-112.5 1695.5,-142.5 1808.5,-142.5 1808.5,-112.5 1695.5,-112.5"/>
<text text-anchor="start" x="1703.5" y="-130.5" font-family="Helvetica,sans-Serif" font-size="10.00">boost/accumulators</text>
<text text-anchor="middle" x="1752" y="-119.5" font-family="Helvetica,sans-Serif" font-size="10.00">/accumulators.hpp</text>
</a>
</g>
</g>
<!-- Node18&#45;&gt;Node20 -->
<g id="edge33" class="edge">
<title>Node18&#45;&gt;Node20</title>
<path fill="none" stroke="midnightblue" d="M1702.31,-179.48C1709.8,-171.79 1721.13,-160.17 1731.08,-149.96"/>
<polygon fill="midnightblue" stroke="midnightblue" points="1733.86,-152.13 1738.33,-142.52 1728.84,-147.24 1733.86,-152.13"/>
</g>
<!-- Node21 -->
<g id="node21" class="node">
<title>Node21</title>
<g id="a_node21"><a xlink:title=" ">
<polygon fill="white" stroke="#bfbfbf" points="1826.5,-112.5 1826.5,-142.5 1939.5,-142.5 1939.5,-112.5 1826.5,-112.5"/>
<text text-anchor="start" x="1834.5" y="-130.5" font-family="Helvetica,sans-Serif" font-size="10.00">boost/accumulators</text>
<text text-anchor="middle" x="1883" y="-119.5" font-family="Helvetica,sans-Serif" font-size="10.00">/statistics.hpp</text>
</a>
</g>
</g>
<!-- Node18&#45;&gt;Node21 -->
<g id="edge34" class="edge">
<title>Node18&#45;&gt;Node21</title>
<path fill="none" stroke="midnightblue" d="M1721.08,-179.48C1749.07,-170.66 1793.52,-156.67 1828.78,-145.57"/>
<polygon fill="midnightblue" stroke="midnightblue" points="1829.97,-148.86 1838.46,-142.52 1827.87,-142.19 1829.97,-148.86"/>
</g>
<!-- Node22&#45;&gt;Node3 -->
<g id="edge43" class="edge">
<title>Node22&#45;&gt;Node3</title>
<path fill="none" stroke="midnightblue" d="M1324.69,-302.31C1331.96,-293.67 1342.66,-279.76 1349,-266 1363.56,-234.37 1368,-224.82 1368,-190 1368,-190 1368,-190 1368,-126.5 1368,-84.48 1332.1,-46.31 1309.01,-26.11"/>
<polygon fill="midnightblue" stroke="midnightblue" points="1311.08,-23.28 1301.18,-19.51 1306.57,-28.63 1311.08,-23.28"/>
</g>
<!-- Node22&#45;&gt;Node11 -->
<g id="edge41" class="edge">
<title>Node22&#45;&gt;Node11</title>
<path fill="none" stroke="midnightblue" d="M1287.48,-311.05C1249.2,-309.58 1182.35,-301.61 1140,-266 1107.57,-238.73 1127.96,-211.69 1101,-179 1039.86,-104.88 938.32,-48.46 889.66,-24.13"/>
<polygon fill="midnightblue" stroke="midnightblue" points="890.91,-20.84 880.39,-19.56 887.81,-27.12 890.91,-20.84"/>
</g>
<!-- Node22&#45;&gt;Node12 -->
<g id="edge42" class="edge">
<title>Node22&#45;&gt;Node12</title>
<path fill="none" stroke="midnightblue" d="M1329.75,-302.33C1354.36,-284.44 1406,-240.85 1406,-190 1406,-190 1406,-190 1406,-126.5 1406,-84.65 1441.44,-46.42 1464.23,-26.17"/>
<polygon fill="midnightblue" stroke="midnightblue" points="1466.65,-28.71 1471.97,-19.54 1462.1,-23.39 1466.65,-28.71"/>
</g>
<!-- Node22&#45;&gt;Node15 -->
<g id="edge46" class="edge">
<title>Node22&#45;&gt;Node15</title>
<path fill="none" stroke="midnightblue" d="M1346.59,-304.69C1394.09,-294.56 1487.87,-274.56 1545.93,-262.18"/>
<polygon fill="midnightblue" stroke="midnightblue" points="1546.93,-265.54 1555.98,-260.03 1545.47,-258.7 1546.93,-265.54"/>
</g>
<!-- Node22&#45;&gt;Node19 -->
<g id="edge49" class="edge">
<title>Node22&#45;&gt;Node19</title>
<path fill="none" stroke="midnightblue" d="M1346.83,-304.65C1369.63,-298.38 1400.37,-286.65 1420,-266 1452.29,-232.04 1465.01,-176.05 1469.62,-147.11"/>
<polygon fill="midnightblue" stroke="midnightblue" points="1473.1,-147.53 1471.06,-137.13 1466.17,-146.53 1473.1,-147.53"/>
</g>
<!-- Node23 -->
<g id="node23" class="node">
<title>Node23</title>
<g id="a_node23"><a xlink:title=" ">
<polygon fill="white" stroke="#bfbfbf" points="1148.5,-241 1148.5,-260 1203.5,-260 1203.5,-241 1148.5,-241"/>
<text text-anchor="middle" x="1176" y="-248" font-family="Helvetica,sans-Serif" font-size="10.00">fstream</text>
</a>
</g>
</g>
<!-- Node22&#45;&gt;Node23 -->
<g id="edge40" class="edge">
<title>Node22&#45;&gt;Node23</title>
<path fill="none" stroke="midnightblue" d="M1296.8,-302.48C1272.93,-292.4 1233,-275.55 1205.63,-264"/>
<polygon fill="midnightblue" stroke="midnightblue" points="1206.74,-260.67 1196.16,-260.01 1204.02,-267.12 1206.74,-260.67"/>
</g>
<!-- Node24 -->
<g id="node24" class="node">
<title>Node24</title>
<g id="a_node24"><a xlink:title=" ">
<polygon fill="white" stroke="#bfbfbf" points="1222,-241 1222,-260 1276,-260 1276,-241 1222,-241"/>
<text text-anchor="middle" x="1249" y="-248" font-family="Helvetica,sans-Serif" font-size="10.00">random</text>
</a>
</g>
</g>
<!-- Node22&#45;&gt;Node24 -->
<g id="edge44" class="edge">
<title>Node22&#45;&gt;Node24</title>
<path fill="none" stroke="midnightblue" d="M1307.26,-302.48C1296.65,-293.2 1279.48,-278.17 1266.52,-266.83"/>
<polygon fill="midnightblue" stroke="midnightblue" points="1268.56,-263.96 1258.72,-260.01 1263.95,-269.23 1268.56,-263.96"/>
</g>
<!-- Node25 -->
<g id="node25" class="node">
<title>Node25</title>
<g id="a_node25"><a xlink:title=" ">
<polygon fill="white" stroke="#bfbfbf" points="1294.5,-241 1294.5,-260 1339.5,-260 1339.5,-241 1294.5,-241"/>
<text text-anchor="middle" x="1317" y="-248" font-family="Helvetica,sans-Serif" font-size="10.00">utility</text>
</a>
</g>
</g>
<!-- Node22&#45;&gt;Node25 -->
<g id="edge45" class="edge">
<title>Node22&#45;&gt;Node25</title>
<path fill="none" stroke="midnightblue" d="M1317,-302.48C1317,-294.08 1317,-280.98 1317,-270.16"/>
<polygon fill="midnightblue" stroke="midnightblue" points="1320.5,-270.01 1317,-260.01 1313.5,-270.01 1320.5,-270.01"/>
</g>
<!-- Node22&#45;&gt;Node26 -->
<g id="edge47" class="edge">
<title>Node22&#45;&gt;Node26</title>
<path fill="none" stroke="midnightblue" d="M1287.18,-305.2C1246.19,-297.09 1170.24,-281.62 1106,-266 1101.66,-264.94 1097.13,-263.79 1092.63,-262.61"/>
<polygon fill="midnightblue" stroke="midnightblue" points="1093.48,-259.21 1082.91,-260 1091.67,-265.97 1093.48,-259.21"/>
</g>
<!-- Node28 -->
<g id="node28" class="node">
<title>Node28</title>
<g id="a_node28"><a xlink:href="../../dc/d09/Stats_8h.html" target="_top" xlink:title="This file contains the declaration of statistical functions and structures for vectors and matrices.">
<polygon fill="white" stroke="black" points="690,-241 690,-260 792,-260 792,-241 690,-241"/>
<text text-anchor="middle" x="741" y="-248" font-family="Helvetica,sans-Serif" font-size="10.00">math/blas/Stats.h</text>
</a>
</g>
</g>
<!-- Node22&#45;&gt;Node28 -->
<g id="edge50" class="edge">
<title>Node22&#45;&gt;Node28</title>
<path fill="none" stroke="midnightblue" d="M1287.24,-307.93C1196.94,-298.6 924.74,-270.48 802.09,-257.81"/>
<polygon fill="midnightblue" stroke="midnightblue" points="802.41,-254.33 792.11,-256.78 801.69,-261.29 802.41,-254.33"/>
</g>
<!-- Node27 -->
<g id="node27" class="node">
<title>Node27</title>
<g id="a_node27"><a xlink:title=" ">
<polygon fill="white" stroke="#bfbfbf" points="1042,-179.5 1042,-198.5 1092,-198.5 1092,-179.5 1042,-179.5"/>
<text text-anchor="middle" x="1067" y="-186.5" font-family="Helvetica,sans-Serif" font-size="10.00">chrono</text>
</a>
</g>
</g>
<!-- Node26&#45;&gt;Node27 -->
<g id="edge48" class="edge">
<title>Node26&#45;&gt;Node27</title>
<path fill="none" stroke="midnightblue" d="M1055.01,-240.98C1057,-232.49 1060.13,-219.2 1062.69,-208.32"/>
<polygon fill="midnightblue" stroke="midnightblue" points="1066.11,-209.04 1065,-198.51 1059.3,-207.44 1066.11,-209.04"/>
</g>
<!-- Node28&#45;&gt;Node2 -->
<g id="edge52" class="edge">
<title>Node28&#45;&gt;Node2</title>
<path fill="none" stroke="midnightblue" d="M759.22,-241C782.84,-228.71 819.42,-204.65 805,-179 794.35,-160.06 773.4,-147.39 755.21,-139.48"/>
<polygon fill="midnightblue" stroke="midnightblue" points="756.33,-136.16 745.74,-135.67 753.71,-142.65 756.33,-136.16"/>
</g>
<!-- Node28&#45;&gt;Node5 -->
<g id="edge60" class="edge">
<title>Node28&#45;&gt;Node5</title>
<path fill="none" stroke="midnightblue" d="M689.76,-244.49C634.75,-238.05 545.37,-224.54 472,-199 430.21,-184.45 385.44,-158.56 359.68,-142.52"/>
<polygon fill="midnightblue" stroke="midnightblue" points="361.41,-139.48 351.09,-137.1 357.68,-145.4 361.41,-139.48"/>
</g>
<!-- Node28&#45;&gt;Node6 -->
<g id="edge51" class="edge">
<title>Node28&#45;&gt;Node6</title>
<path fill="none" stroke="midnightblue" d="M766.28,-240.93C784.82,-233.15 808.66,-219.7 820,-199 844.66,-153.96 777.26,-124.18 755,-112 684.57,-73.47 656.58,-92.41 578,-76 577.9,-75.98 577.8,-75.96 577.7,-75.94"/>
<polygon fill="midnightblue" stroke="midnightblue" points="578.6,-72.55 568.1,-73.91 577.16,-79.4 578.6,-72.55"/>
</g>
<!-- Node28&#45;&gt;Node8 -->
<g id="edge55" class="edge">
<title>Node28&#45;&gt;Node8</title>
<path fill="none" stroke="midnightblue" d="M725.1,-240.95C707.57,-231.33 678.69,-214.97 655,-199 580.63,-148.86 560.44,-137.35 495,-76 478.83,-60.84 462.35,-41.55 451.3,-27.93"/>
<polygon fill="midnightblue" stroke="midnightblue" points="453.86,-25.52 444.88,-19.9 448.39,-29.89 453.86,-25.52"/>
</g>
<!-- Node28&#45;&gt;Node10 -->
<g id="edge61" class="edge">
<title>Node28&#45;&gt;Node10</title>
<path fill="none" stroke="midnightblue" d="M765.25,-240.98C792.59,-229.8 831.81,-208.13 820,-179 798.51,-125.97 735.93,-94.53 694.86,-79.03"/>
<polygon fill="midnightblue" stroke="midnightblue" points="696.02,-75.73 685.43,-75.61 693.64,-82.31 696.02,-75.73"/>
</g>
<!-- Node29 -->
<g id="node29" class="node">
<title>Node29</title>
<g id="a_node29"><a xlink:title=" ">
<polygon fill="white" stroke="#bfbfbf" points="664,-179.5 664,-198.5 720,-198.5 720,-179.5 664,-179.5"/>
<text text-anchor="middle" x="692" y="-186.5" font-family="Helvetica,sans-Serif" font-size="10.00">numeric</text>
</a>
</g>
</g>
<!-- Node28&#45;&gt;Node29 -->
<g id="edge53" class="edge">
<title>Node28&#45;&gt;Node29</title>
<path fill="none" stroke="midnightblue" d="M733.98,-240.98C726.56,-231.96 714.67,-217.52 705.43,-206.31"/>
<polygon fill="midnightblue" stroke="midnightblue" points="708.07,-204 699.01,-198.51 702.66,-208.45 708.07,-204"/>
</g>
<!-- Node30 -->
<g id="node30" class="node">
<title>Node30</title>
<g id="a_node30"><a xlink:title=" ">
<polygon fill="white" stroke="#bfbfbf" points="738.5,-179.5 738.5,-198.5 795.5,-198.5 795.5,-179.5 738.5,-179.5"/>
<text text-anchor="middle" x="767" y="-186.5" font-family="Helvetica,sans-Serif" font-size="10.00">ostream</text>
</a>
</g>
</g>
<!-- Node28&#45;&gt;Node30 -->
<g id="edge54" class="edge">
<title>Node28&#45;&gt;Node30</title>
<path fill="none" stroke="midnightblue" d="M744.73,-240.98C748.47,-232.4 754.36,-218.93 759.14,-207.98"/>
<polygon fill="midnightblue" stroke="midnightblue" points="762.48,-209.07 763.28,-198.51 756.07,-206.27 762.48,-209.07"/>
</g>
<!-- Node31 -->
<g id="node31" class="node">
<title>Node31</title>
<g id="a_node31"><a xlink:href="../../d1/d80/BLAS_8h.html" target="_top" xlink:title=" ">
<polygon fill="white" stroke="black" points="480.5,-179.5 480.5,-198.5 531.5,-198.5 531.5,-179.5 480.5,-179.5"/>
<text text-anchor="middle" x="506" y="-186.5" font-family="Helvetica,sans-Serif" font-size="10.00">BLAS.h</text>
</a>
</g>
</g>
<!-- Node28&#45;&gt;Node31 -->
<g id="edge56" class="edge">
<title>Node28&#45;&gt;Node31</title>
<path fill="none" stroke="midnightblue" d="M707.33,-240.98C663.29,-229.83 586.48,-210.38 541.54,-199"/>
<polygon fill="midnightblue" stroke="midnightblue" points="542.2,-195.56 531.65,-196.49 540.48,-202.34 542.2,-195.56"/>
</g>
<!-- Node31&#45;&gt;Node2 -->
<g id="edge57" class="edge">
<title>Node31&#45;&gt;Node2</title>
<path fill="none" stroke="midnightblue" d="M531.63,-180.94C570.73,-170.17 645.32,-149.62 688.61,-137.7"/>
<polygon fill="midnightblue" stroke="midnightblue" points="689.67,-141.03 698.39,-135 687.82,-134.29 689.67,-141.03"/>
</g>
<!-- Node31&#45;&gt;Node5 -->
<g id="edge58" class="edge">
<title>Node31&#45;&gt;Node5</title>
<path fill="none" stroke="midnightblue" d="M481.93,-179.48C452.99,-169.22 404.24,-151.96 371.6,-140.4"/>
<polygon fill="midnightblue" stroke="midnightblue" points="372.62,-137.05 362.03,-137.01 370.28,-143.65 372.62,-137.05"/>
</g>
<!-- Node31&#45;&gt;Node10 -->
<g id="edge59" class="edge">
<title>Node31&#45;&gt;Node10</title>
<path fill="none" stroke="midnightblue" d="M516.86,-179.3C542.33,-158.89 606.15,-107.75 638.12,-82.13"/>
<polygon fill="midnightblue" stroke="midnightblue" points="640.62,-84.61 646.24,-75.62 636.25,-79.15 640.62,-84.61"/>
</g>
<!-- Node34&#45;&gt;Node5 -->
<g id="edge73" class="edge">
<title>Node34&#45;&gt;Node5</title>
<path fill="none" stroke="midnightblue" d="M324.04,-240.77C322.77,-227.4 321,-201.07 324,-179 325.48,-168.13 328.67,-156.29 331.64,-146.81"/>
<polygon fill="midnightblue" stroke="midnightblue" points="334.97,-147.88 334.78,-137.29 328.32,-145.69 334.97,-147.88"/>
</g>
<!-- Node34&#45;&gt;Node10 -->
<g id="edge74" class="edge">
<title>Node34&#45;&gt;Node10</title>
<path fill="none" stroke="midnightblue" d="M333.36,-240.77C346.78,-226.94 374.28,-199.48 400,-179 441.85,-145.68 451.48,-134.53 500,-112 533.3,-96.54 573.08,-85.2 604.27,-77.78"/>
<polygon fill="midnightblue" stroke="midnightblue" points="605.12,-81.17 614.07,-75.5 603.54,-74.35 605.12,-81.17"/>
</g>
<!-- Node34&#45;&gt;Node31 -->
<g id="edge72" class="edge">
<title>Node34&#45;&gt;Node31</title>
<path fill="none" stroke="midnightblue" d="M350.93,-240.98C382.34,-230.65 435.39,-213.21 470.55,-201.65"/>
<polygon fill="midnightblue" stroke="midnightblue" points="472,-204.86 480.41,-198.41 469.81,-198.21 472,-204.86"/>
</g>
<!-- Node35&#45;&gt;Node28 -->
<g id="edge78" class="edge">
<title>Node35&#45;&gt;Node28</title>
<path fill="none" stroke="midnightblue" d="M242.15,-304.88C347.52,-293.61 571.51,-269.64 679.82,-258.05"/>
<polygon fill="midnightblue" stroke="midnightblue" points="680.36,-261.51 689.94,-256.96 679.62,-254.55 680.36,-261.51"/>
</g>
<!-- Node35&#45;&gt;Node34 -->
<g id="edge76" class="edge">
<title>Node35&#45;&gt;Node34</title>
<path fill="none" stroke="midnightblue" d="M205.06,-302.48C228.76,-292.4 268.41,-275.55 295.58,-264"/>
<polygon fill="midnightblue" stroke="midnightblue" points="297.14,-267.14 304.98,-260.01 294.41,-260.7 297.14,-267.14"/>
</g>
<!-- Node36 -->
<g id="node36" class="node">
<title>Node36</title>
<g id="a_node36"><a xlink:href="../../d0/d24/RelaxationMethods_8h.html" target="_top" xlink:title="This file contains the declaration of the RelaxationMethods namespace, which includes the Type enumer...">
<polygon fill="white" stroke="black" points="0,-235.5 0,-265.5 150,-265.5 150,-235.5 0,-235.5"/>
<text text-anchor="start" x="8" y="-253.5" font-family="Helvetica,sans-Serif" font-size="10.00">math/relaxation/Relaxation</text>
<text text-anchor="middle" x="75" y="-242.5" font-family="Helvetica,sans-Serif" font-size="10.00">Methods.h</text>
</a>
</g>
</g>
<!-- Node35&#45;&gt;Node36 -->
<g id="edge77" class="edge">
<title>Node35&#45;&gt;Node36</title>
<path fill="none" stroke="midnightblue" d="M169.24,-302.48C153.78,-294.12 129.7,-281.09 109.75,-270.3"/>
<polygon fill="midnightblue" stroke="midnightblue" points="111.39,-267.2 100.92,-265.52 108.06,-273.36 111.39,-267.2"/>
</g>
<!-- Node37 -->
<g id="node37" class="node">
<title>Node37</title>
<g id="a_node37"><a xlink:title=" ">
<polygon fill="white" stroke="#bfbfbf" points="167.5,-241 167.5,-260 218.5,-260 218.5,-241 167.5,-241"/>
<text text-anchor="middle" x="193" y="-248" font-family="Helvetica,sans-Serif" font-size="10.00">variant</text>
</a>
</g>
</g>
<!-- Node35&#45;&gt;Node37 -->
<g id="edge79" class="edge">
<title>Node35&#45;&gt;Node37</title>
<path fill="none" stroke="midnightblue" d="M186.15,-302.48C187.27,-294.08 189.04,-280.98 190.49,-270.16"/>
<polygon fill="midnightblue" stroke="midnightblue" points="193.99,-270.39 191.86,-260.01 187.05,-269.45 193.99,-270.39"/>
</g>
</g>
</svg>
