<?xml version="1.0" encoding="UTF-8" standalone="no"?>
<!DOCTYPE svg PUBLIC "-//W3C//DTD SVG 1.1//EN"
 "http://www.w3.org/Graphics/SVG/1.1/DTD/svg11.dtd">
<!-- Generated by graphviz version 2.43.0 (0)
 -->
<!-- Title: src/utils/math/factorization/LUP.h Pages: 1 -->
<!--zoomable 442 -->
<svg id="main" version="1.1" xmlns="http://www.w3.org/2000/svg" xmlns:xlink="http://www.w3.org/1999/xlink" xml:space="preserve" onload="init(evt)">
<style type="text/css"><![CDATA[
.edge:hover path { stroke: red; }
.edge:hover polygon { stroke: red; fill: red; }
]]></style>
<script type="text/javascript"><![CDATA[
var edges = document.getElementsByTagName('g');
if (edges && edges.length) {
  for (var i=0;i<edges.length;i++) {
    if (edges[i].id.substr(0,4)=='edge') {
      edges[i].setAttribute('class','edge');
    }
  }
}
]]></script>
        <defs>
                <circle id="rim" cx="0" cy="0" r="7"/>
                <circle id="rim2" cx="0" cy="0" r="3.5"/>
                <g id="zoomPlus">
                        <use xlink:href="#rim" fill="#404040">
                                <set attributeName="fill" to="#808080" begin="zoomplus.mouseover" end="zoomplus.mouseout"/>
                        </use>
                        <path d="M-4,0h8M0,-4v8" fill="none" stroke="white" stroke-width="1.5" pointer-events="none"/>
                </g>
                <g id="zoomMin">
                        <use xlink:href="#rim" fill="#404040">
                                <set attributeName="fill" to="#808080" begin="zoomminus.mouseover" end="zoomminus.mouseout"/>
                        </use>
                        <path d="M-4,0h8" fill="none" stroke="white" stroke-width="1.5" pointer-events="none"/>
                </g>
                <g id="dirArrow">
                        <path fill="none" stroke="white" stroke-width="1.5" d="M0,-3.0v7 M-2.5,-0.5L0,-3.0L2.5,-0.5"/>
                </g>
               <g id="resetDef">
                       <use xlink:href="#rim2" fill="#404040">
                               <set attributeName="fill" to="#808080" begin="reset.mouseover" end="reset.mouseout"/>
                       </use>
               </g>
        </defs>

<script type="text/javascript">
var viewWidth = 1148;
var viewHeight = 442;
var sectionId = 'dynsection-0';
</script>
<script xlink:href="../../svgpan.js"/>
<svg id="graph" class="graph">
<g id="viewport">
<title>src/utils/math/factorization/LUP.h</title>
<polygon fill="white" stroke="transparent" points="-4,4 -4,-438 1143.5,-438 1143.5,4 -4,4"/>
<!-- Node1 -->
<g id="node1" class="node">
<title>Node1</title>
<g id="a_node1"><a xlink:title="LU factorization with pivoting.">
<polygon fill="#bfbfbf" stroke="black" points="241,-403.5 241,-433.5 389,-433.5 389,-403.5 241,-403.5"/>
<text text-anchor="start" x="249" y="-421.5" font-family="Helvetica,sans-Serif" font-size="10.00">src/utils/math/factorization</text>
<text text-anchor="middle" x="315" y="-410.5" font-family="Helvetica,sans-Serif" font-size="10.00">/LUP.h</text>
</a>
</g>
</g>
<!-- Node2 -->
<g id="node2" class="node">
<title>Node2</title>
<g id="a_node2"><a xlink:title=" ">
<polygon fill="white" stroke="#bfbfbf" points="130.5,-168.5 130.5,-187.5 177.5,-187.5 177.5,-168.5 130.5,-168.5"/>
<text text-anchor="middle" x="154" y="-175.5" font-family="Helvetica,sans-Serif" font-size="10.00">cmath</text>
</a>
</g>
</g>
<!-- Node1&#45;&gt;Node2 -->
<g id="edge1" class="edge">
<title>Node1&#45;&gt;Node2</title>
<path fill="none" stroke="midnightblue" d="M281.26,-403.43C229.22,-379.58 131.56,-325.69 95,-244 85.71,-223.25 107.28,-204.62 126.89,-192.67"/>
<polygon fill="midnightblue" stroke="midnightblue" points="128.7,-195.67 135.65,-187.67 125.23,-189.59 128.7,-195.67"/>
</g>
<!-- Node3 -->
<g id="node3" class="node">
<title>Node3</title>
<g id="a_node3"><a xlink:title=" ">
<polygon fill="white" stroke="#bfbfbf" points="220,-56.5 220,-75.5 280,-75.5 280,-56.5 220,-56.5"/>
<text text-anchor="middle" x="250" y="-63.5" font-family="Helvetica,sans-Serif" font-size="10.00">iostream</text>
</a>
</g>
</g>
<!-- Node1&#45;&gt;Node3 -->
<g id="edge2" class="edge">
<title>Node1&#45;&gt;Node3</title>
<path fill="none" stroke="midnightblue" d="M336.33,-403.49C364.06,-383.4 409,-343.58 409,-296.5 409,-296.5 409,-296.5 409,-177 409,-143.08 395.15,-133.6 369,-112 356.34,-101.54 318.24,-88.05 288.52,-78.58"/>
<polygon fill="midnightblue" stroke="midnightblue" points="289.41,-75.19 278.82,-75.53 287.31,-81.87 289.41,-75.19"/>
</g>
<!-- Node4 -->
<g id="node4" class="node">
<title>Node4</title>
<g id="a_node4"><a xlink:href="../../d7/dff/LU_8h.html" target="_top" xlink:title="LU factorization and related methods for MyBLAS library.">
<polygon fill="white" stroke="black" points="343,-224.5 343,-243.5 381,-243.5 381,-224.5 343,-224.5"/>
<text text-anchor="middle" x="362" y="-231.5" font-family="Helvetica,sans-Serif" font-size="10.00">LU.h</text>
</a>
</g>
</g>
<!-- Node1&#45;&gt;Node4 -->
<g id="edge3" class="edge">
<title>Node1&#45;&gt;Node4</title>
<path fill="none" stroke="midnightblue" d="M318.61,-403.48C326.99,-370.96 347.75,-290.34 357.19,-253.68"/>
<polygon fill="midnightblue" stroke="midnightblue" points="360.62,-254.38 359.73,-243.82 353.85,-252.63 360.62,-254.38"/>
</g>
<!-- Node5 -->
<g id="node5" class="node">
<title>Node5</title>
<g id="a_node5"><a xlink:href="../../d3/db1/Matrix_8h.html" target="_top" xlink:title="This file contains my BLAS::Matrix declarations.">
<polygon fill="white" stroke="black" points="195.5,-168.5 195.5,-187.5 304.5,-187.5 304.5,-168.5 195.5,-168.5"/>
<text text-anchor="middle" x="250" y="-175.5" font-family="Helvetica,sans-Serif" font-size="10.00">math/blas/Matrix.h</text>
</a>
</g>
</g>
<!-- Node1&#45;&gt;Node5 -->
<g id="edge36" class="edge">
<title>Node1&#45;&gt;Node5</title>
<path fill="none" stroke="midnightblue" d="M311.13,-403.29C299.97,-362.35 267.73,-244.05 255.13,-197.83"/>
<polygon fill="midnightblue" stroke="midnightblue" points="258.44,-196.67 252.44,-187.95 251.69,-198.51 258.44,-196.67"/>
</g>
<!-- Node8 -->
<g id="node8" class="node">
<title>Node8</title>
<g id="a_node8"><a xlink:href="../../d6/dbe/Vector_8h.html" target="_top" xlink:title="This file contains my BLAS::Vector implementation.">
<polygon fill="white" stroke="black" points="114.5,-112.5 114.5,-131.5 221.5,-131.5 221.5,-112.5 114.5,-112.5"/>
<text text-anchor="middle" x="168" y="-119.5" font-family="Helvetica,sans-Serif" font-size="10.00">math/blas/Vector.h</text>
</a>
</g>
</g>
<!-- Node1&#45;&gt;Node8 -->
<g id="edge37" class="edge">
<title>Node1&#45;&gt;Node8</title>
<path fill="none" stroke="midnightblue" d="M240.75,-404.3C147.62,-385.59 0,-347.83 0,-296.5 0,-296.5 0,-296.5 0,-233 0,-177.23 65.61,-148.2 114.82,-134.28"/>
<polygon fill="midnightblue" stroke="midnightblue" points="115.99,-137.59 124.74,-131.61 114.17,-130.83 115.99,-137.59"/>
</g>
<!-- Node10 -->
<g id="node10" class="node">
<title>Node10</title>
<g id="a_node10"><a xlink:href="../../d9/d41/CommandLine_8h.html" target="_top" xlink:title="This file contains the definition of the CommandLine class and the HeaderInfo struct.">
<polygon fill="white" stroke="black" points="495,-168.5 495,-187.5 609,-187.5 609,-168.5 495,-168.5"/>
<text text-anchor="middle" x="552" y="-175.5" font-family="Helvetica,sans-Serif" font-size="10.00">../../CommandLine.h</text>
</a>
</g>
</g>
<!-- Node1&#45;&gt;Node10 -->
<g id="edge38" class="edge">
<title>Node1&#45;&gt;Node10</title>
<path fill="none" stroke="midnightblue" d="M358.02,-403.49C379.14,-395.17 404.06,-383.07 423,-367 482.07,-316.9 526.21,-233.54 543.73,-197.05"/>
<polygon fill="midnightblue" stroke="midnightblue" points="547.04,-198.23 548.13,-187.69 540.71,-195.25 547.04,-198.23"/>
</g>
<!-- Node20 -->
<g id="node20" class="node">
<title>Node20</title>
<g id="a_node20"><a xlink:href="../../d4/d2e/Stopwatch_8h.html" target="_top" xlink:title="This file contains the Stopwatch class which is a utility for measuring time durations in various uni...">
<polygon fill="white" stroke="black" points="971.5,-56.5 971.5,-75.5 1048.5,-75.5 1048.5,-56.5 971.5,-56.5"/>
<text text-anchor="middle" x="1010" y="-63.5" font-family="Helvetica,sans-Serif" font-size="10.00">Stopwatch.h</text>
</a>
</g>
</g>
<!-- Node1&#45;&gt;Node20 -->
<g id="edge39" class="edge">
<title>Node1&#45;&gt;Node20</title>
<path fill="none" stroke="midnightblue" d="M389.09,-417.33C545.05,-414.98 893,-398.32 893,-296.5 893,-296.5 893,-296.5 893,-177 893,-129.6 944.6,-96.64 979.27,-79.85"/>
<polygon fill="midnightblue" stroke="midnightblue" points="980.95,-82.93 988.54,-75.54 978,-76.58 980.95,-82.93"/>
</g>
<!-- Node24 -->
<g id="node24" class="node">
<title>Node24</title>
<g id="a_node24"><a xlink:href="../../d1/d6a/Factorize_8h.html" target="_top" xlink:title="This file contains the declaration of the MyFactorizationMethod namespace, which includes methods and...">
<polygon fill="white" stroke="black" points="179.5,-286 179.5,-305 248.5,-305 248.5,-286 179.5,-286"/>
<text text-anchor="middle" x="214" y="-293" font-family="Helvetica,sans-Serif" font-size="10.00">Factorize.h</text>
</a>
</g>
</g>
<!-- Node1&#45;&gt;Node24 -->
<g id="edge40" class="edge">
<title>Node1&#45;&gt;Node24</title>
<path fill="none" stroke="midnightblue" d="M298.73,-403.22C288.06,-393.49 274.07,-380.05 263,-367 248.44,-349.85 234.02,-328.41 224.63,-313.71"/>
<polygon fill="midnightblue" stroke="midnightblue" points="227.52,-311.73 219.24,-305.13 221.6,-315.46 227.52,-311.73"/>
</g>
<!-- Node26 -->
<g id="node26" class="node">
<title>Node26</title>
<g id="a_node26"><a xlink:href="../../df/dbd/LinearSolver_8h.html" target="_top" xlink:title="This file contains the definition of the LinearSolver class and its associated methods.">
<polygon fill="white" stroke="black" points="930,-347.5 930,-366.5 1044,-366.5 1044,-347.5 930,-347.5"/>
<text text-anchor="middle" x="987" y="-354.5" font-family="Helvetica,sans-Serif" font-size="10.00">math/LinearSolver.h</text>
</a>
</g>
</g>
<!-- Node1&#45;&gt;Node26 -->
<g id="edge47" class="edge">
<title>Node1&#45;&gt;Node26</title>
<path fill="none" stroke="midnightblue" d="M389.36,-411.8C501.59,-403.06 720.95,-385.4 907,-367 911.15,-366.59 915.41,-366.15 919.71,-365.7"/>
<polygon fill="midnightblue" stroke="midnightblue" points="920.2,-369.17 929.77,-364.63 919.46,-362.21 920.2,-369.17"/>
</g>
<!-- Node4&#45;&gt;Node2 -->
<g id="edge4" class="edge">
<title>Node4&#45;&gt;Node2</title>
<path fill="none" stroke="midnightblue" d="M342.95,-228.29C312.26,-220.66 249.74,-204.99 187.7,-188.41"/>
<polygon fill="midnightblue" stroke="midnightblue" points="188.31,-184.96 177.75,-185.75 186.5,-191.72 188.31,-184.96"/>
</g>
<!-- Node4&#45;&gt;Node3 -->
<g id="edge5" class="edge">
<title>Node4&#45;&gt;Node3</title>
<path fill="none" stroke="midnightblue" d="M363.92,-224.38C368.16,-203.05 376.04,-146.99 351,-112 342.98,-100.79 312.16,-87.99 286.65,-78.92"/>
<polygon fill="midnightblue" stroke="midnightblue" points="287.79,-75.61 277.19,-75.63 285.49,-82.22 287.79,-75.61"/>
</g>
<!-- Node4&#45;&gt;Node5 -->
<g id="edge6" class="edge">
<title>Node4&#45;&gt;Node5</title>
<path fill="none" stroke="midnightblue" d="M344.01,-224.32C325.96,-215.62 297.95,-202.12 277.2,-192.11"/>
<polygon fill="midnightblue" stroke="midnightblue" points="278.48,-188.84 267.95,-187.65 275.44,-195.15 278.48,-188.84"/>
</g>
<!-- Node4&#45;&gt;Node8 -->
<g id="edge14" class="edge">
<title>Node4&#45;&gt;Node8</title>
<path fill="none" stroke="midnightblue" d="M357.84,-224.47C350.63,-210.58 334.5,-183.12 313,-168 288.9,-151.05 258.2,-140.33 231.26,-133.62"/>
<polygon fill="midnightblue" stroke="midnightblue" points="232.07,-130.21 221.53,-131.33 230.46,-137.02 232.07,-130.21"/>
</g>
<!-- Node4&#45;&gt;Node10 -->
<g id="edge15" class="edge">
<title>Node4&#45;&gt;Node10</title>
<path fill="none" stroke="midnightblue" d="M381.26,-227.53C411.79,-218.85 471.93,-201.76 512.05,-190.35"/>
<polygon fill="midnightblue" stroke="midnightblue" points="513.13,-193.69 521.79,-187.59 511.22,-186.95 513.13,-193.69"/>
</g>
<!-- Node4&#45;&gt;Node20 -->
<g id="edge35" class="edge">
<title>Node4&#45;&gt;Node20</title>
<path fill="none" stroke="midnightblue" d="M381.06,-230.24C423.73,-223.92 530.1,-207.46 618,-188 711.89,-167.21 735.55,-161.75 827,-132 850.55,-124.34 855.73,-120.47 879,-112 911.26,-100.26 948.28,-87.62 974.72,-78.73"/>
<polygon fill="midnightblue" stroke="midnightblue" points="975.93,-82.02 984.3,-75.52 973.71,-75.38 975.93,-82.02"/>
</g>
<!-- Node5&#45;&gt;Node3 -->
<g id="edge8" class="edge">
<title>Node5&#45;&gt;Node3</title>
<path fill="none" stroke="midnightblue" d="M250,-168.37C250,-150.62 250,-109.67 250,-85.6"/>
<polygon fill="midnightblue" stroke="midnightblue" points="253.5,-85.59 250,-75.59 246.5,-85.59 253.5,-85.59"/>
</g>
<!-- Node6 -->
<g id="node6" class="node">
<title>Node6</title>
<g id="a_node6"><a xlink:title=" ">
<polygon fill="white" stroke="#bfbfbf" points="278,-112.5 278,-131.5 342,-131.5 342,-112.5 278,-112.5"/>
<text text-anchor="middle" x="310" y="-119.5" font-family="Helvetica,sans-Serif" font-size="10.00">algorithm</text>
</a>
</g>
</g>
<!-- Node5&#45;&gt;Node6 -->
<g id="edge7" class="edge">
<title>Node5&#45;&gt;Node6</title>
<path fill="none" stroke="midnightblue" d="M259.64,-168.32C268.51,-160.34 281.87,-148.31 292.61,-138.65"/>
<polygon fill="midnightblue" stroke="midnightblue" points="295.09,-141.13 300.18,-131.83 290.41,-135.92 295.09,-141.13"/>
</g>
<!-- Node7 -->
<g id="node7" class="node">
<title>Node7</title>
<g id="a_node7"><a xlink:title=" ">
<polygon fill="white" stroke="#bfbfbf" points="103.5,-56.5 103.5,-75.5 150.5,-75.5 150.5,-56.5 103.5,-56.5"/>
<text text-anchor="middle" x="127" y="-63.5" font-family="Helvetica,sans-Serif" font-size="10.00">vector</text>
</a>
</g>
</g>
<!-- Node5&#45;&gt;Node7 -->
<g id="edge9" class="edge">
<title>Node5&#45;&gt;Node7</title>
<path fill="none" stroke="midnightblue" d="M202.04,-168.43C164.49,-160.63 116.73,-147.92 105,-132 94.45,-117.68 103.69,-97.96 113.22,-84"/>
<polygon fill="midnightblue" stroke="midnightblue" points="116.17,-85.89 119.32,-75.78 110.55,-81.72 116.17,-85.89"/>
</g>
<!-- Node5&#45;&gt;Node8 -->
<g id="edge10" class="edge">
<title>Node5&#45;&gt;Node8</title>
<path fill="none" stroke="midnightblue" d="M236.83,-168.32C224.15,-159.98 204.77,-147.21 189.79,-137.35"/>
<polygon fill="midnightblue" stroke="midnightblue" points="191.42,-134.23 181.14,-131.65 187.57,-140.08 191.42,-134.23"/>
</g>
<!-- Node8&#45;&gt;Node3 -->
<g id="edge12" class="edge">
<title>Node8&#45;&gt;Node3</title>
<path fill="none" stroke="midnightblue" d="M181.17,-112.32C193.85,-103.98 213.23,-91.21 228.21,-81.35"/>
<polygon fill="midnightblue" stroke="midnightblue" points="230.43,-84.08 236.86,-75.65 226.58,-78.23 230.43,-84.08"/>
</g>
<!-- Node8&#45;&gt;Node7 -->
<g id="edge13" class="edge">
<title>Node8&#45;&gt;Node7</title>
<path fill="none" stroke="midnightblue" d="M161.23,-112.08C155.44,-104.46 146.94,-93.26 139.86,-83.94"/>
<polygon fill="midnightblue" stroke="midnightblue" points="142.48,-81.6 133.64,-75.75 136.9,-85.83 142.48,-81.6"/>
</g>
<!-- Node9 -->
<g id="node9" class="node">
<title>Node9</title>
<g id="a_node9"><a xlink:title=" ">
<polygon fill="white" stroke="#bfbfbf" points="591,-56.5 591,-75.5 647,-75.5 647,-56.5 591,-56.5"/>
<text text-anchor="middle" x="619" y="-63.5" font-family="Helvetica,sans-Serif" font-size="10.00">iomanip</text>
</a>
</g>
</g>
<!-- Node8&#45;&gt;Node9 -->
<g id="edge11" class="edge">
<title>Node8&#45;&gt;Node9</title>
<path fill="none" stroke="midnightblue" d="M221.74,-116.04C313.6,-107.42 498.13,-89.45 580.77,-75.97"/>
<polygon fill="midnightblue" stroke="midnightblue" points="581.53,-79.39 590.8,-74.26 580.35,-72.49 581.53,-79.39"/>
</g>
<!-- Node10&#45;&gt;Node3 -->
<g id="edge33" class="edge">
<title>Node10&#45;&gt;Node3</title>
<path fill="none" stroke="midnightblue" d="M536.07,-168.44C506.83,-152.81 445.53,-120.49 423,-112 398.87,-102.9 333.17,-86.65 290.04,-76.37"/>
<polygon fill="midnightblue" stroke="midnightblue" points="290.67,-72.92 280.13,-74.02 289.05,-79.74 290.67,-72.92"/>
</g>
<!-- Node11 -->
<g id="node11" class="node">
<title>Node11</title>
<g id="a_node11"><a xlink:href="../../db/df1/Helpers_8h.html" target="_top" xlink:title="This file contains helper functions and structures used throughout the program.">
<polygon fill="white" stroke="black" points="725.5,-112.5 725.5,-131.5 788.5,-131.5 788.5,-112.5 725.5,-112.5"/>
<text text-anchor="middle" x="757" y="-119.5" font-family="Helvetica,sans-Serif" font-size="10.00">Helpers.h</text>
</a>
</g>
</g>
<!-- Node10&#45;&gt;Node11 -->
<g id="edge16" class="edge">
<title>Node10&#45;&gt;Node11</title>
<path fill="none" stroke="midnightblue" d="M584.48,-168.44C619.93,-159.11 676.77,-144.13 715.44,-133.95"/>
<polygon fill="midnightblue" stroke="midnightblue" points="716.56,-137.27 725.34,-131.34 714.78,-130.5 716.56,-137.27"/>
</g>
<!-- Node14 -->
<g id="node14" class="node">
<title>Node14</title>
<g id="a_node14"><a xlink:title=" ">
<polygon fill="white" stroke="#bfbfbf" points="803,-56.5 803,-75.5 953,-75.5 953,-56.5 803,-56.5"/>
<text text-anchor="middle" x="878" y="-63.5" font-family="Helvetica,sans-Serif" font-size="10.00">boost/program_options.hpp</text>
</a>
</g>
</g>
<!-- Node10&#45;&gt;Node14 -->
<g id="edge32" class="edge">
<title>Node10&#45;&gt;Node14</title>
<path fill="none" stroke="midnightblue" d="M609.12,-174.58C660.58,-170.57 737.27,-159.97 798,-132 823.51,-120.25 847.81,-98.48 862.79,-83.39"/>
<polygon fill="midnightblue" stroke="midnightblue" points="865.69,-85.43 870.11,-75.8 860.65,-80.57 865.69,-85.43"/>
</g>
<!-- Node15 -->
<g id="node15" class="node">
<title>Node15</title>
<g id="a_node15"><a xlink:href="../../df/d69/Profiler_8h.html" target="_top" xlink:title="This file contains helper classes and functions for profiling.">
<polygon fill="white" stroke="black" points="475.5,-112.5 475.5,-131.5 534.5,-131.5 534.5,-112.5 475.5,-112.5"/>
<text text-anchor="middle" x="505" y="-119.5" font-family="Helvetica,sans-Serif" font-size="10.00">Profiler.h</text>
</a>
</g>
</g>
<!-- Node10&#45;&gt;Node15 -->
<g id="edge22" class="edge">
<title>Node10&#45;&gt;Node15</title>
<path fill="none" stroke="midnightblue" d="M544.24,-168.08C537.46,-160.3 527.46,-148.8 519.24,-139.37"/>
<polygon fill="midnightblue" stroke="midnightblue" points="521.82,-137 512.62,-131.75 516.54,-141.59 521.82,-137"/>
</g>
<!-- Node22 -->
<g id="node22" class="node">
<title>Node22</title>
<g id="a_node22"><a xlink:title=" ">
<polygon fill="white" stroke="#bfbfbf" points="553,-112.5 553,-131.5 645,-131.5 645,-112.5 553,-112.5"/>
<text text-anchor="middle" x="599" y="-119.5" font-family="Helvetica,sans-Serif" font-size="10.00">project&#45;config.h</text>
</a>
</g>
</g>
<!-- Node10&#45;&gt;Node22 -->
<g id="edge31" class="edge">
<title>Node10&#45;&gt;Node22</title>
<path fill="none" stroke="midnightblue" d="M559.76,-168.08C566.54,-160.3 576.54,-148.8 584.76,-139.37"/>
<polygon fill="midnightblue" stroke="midnightblue" points="587.46,-141.59 591.38,-131.75 582.18,-137 587.46,-141.59"/>
</g>
<!-- Node23 -->
<g id="node23" class="node">
<title>Node23</title>
<g id="a_node23"><a xlink:title=" ">
<polygon fill="white" stroke="#bfbfbf" points="663,-112.5 663,-131.5 707,-131.5 707,-112.5 663,-112.5"/>
<text text-anchor="middle" x="685" y="-119.5" font-family="Helvetica,sans-Serif" font-size="10.00">string</text>
</a>
</g>
</g>
<!-- Node10&#45;&gt;Node23 -->
<g id="edge34" class="edge">
<title>Node10&#45;&gt;Node23</title>
<path fill="none" stroke="midnightblue" d="M573.07,-168.44C595.06,-159.52 629.73,-145.44 654.66,-135.32"/>
<polygon fill="midnightblue" stroke="midnightblue" points="656.08,-138.52 664.02,-131.52 653.44,-132.04 656.08,-138.52"/>
</g>
<!-- Node11&#45;&gt;Node3 -->
<g id="edge18" class="edge">
<title>Node11&#45;&gt;Node3</title>
<path fill="none" stroke="midnightblue" d="M725.29,-113.61C722.16,-113.01 719.03,-112.46 716,-112 530.91,-84.01 478.92,-104.75 290.12,-75.95"/>
<polygon fill="midnightblue" stroke="midnightblue" points="290.57,-72.48 280.15,-74.41 289.5,-79.4 290.57,-72.48"/>
</g>
<!-- Node11&#45;&gt;Node9 -->
<g id="edge17" class="edge">
<title>Node11&#45;&gt;Node9</title>
<path fill="none" stroke="midnightblue" d="M735.13,-112.44C712.22,-103.48 676.02,-89.31 650.13,-79.18"/>
<polygon fill="midnightblue" stroke="midnightblue" points="651.35,-75.9 640.76,-75.52 648.8,-82.42 651.35,-75.9"/>
</g>
<!-- Node12 -->
<g id="node12" class="node">
<title>Node12</title>
<g id="a_node12"><a xlink:title=" ">
<polygon fill="white" stroke="#bfbfbf" points="741,-56.5 741,-75.5 785,-75.5 785,-56.5 741,-56.5"/>
<text text-anchor="middle" x="763" y="-63.5" font-family="Helvetica,sans-Serif" font-size="10.00">limits</text>
</a>
</g>
</g>
<!-- Node11&#45;&gt;Node12 -->
<g id="edge19" class="edge">
<title>Node11&#45;&gt;Node12</title>
<path fill="none" stroke="midnightblue" d="M757.99,-112.08C758.79,-104.93 759.93,-94.64 760.92,-85.69"/>
<polygon fill="midnightblue" stroke="midnightblue" points="764.4,-86.08 762.03,-75.75 757.44,-85.3 764.4,-86.08"/>
</g>
<!-- Node13 -->
<g id="node13" class="node">
<title>Node13</title>
<g id="a_node13"><a xlink:title=" ">
<polygon fill="white" stroke="#bfbfbf" points="665,-56.5 665,-75.5 723,-75.5 723,-56.5 665,-56.5"/>
<text text-anchor="middle" x="694" y="-63.5" font-family="Helvetica,sans-Serif" font-size="10.00">json.hpp</text>
</a>
</g>
</g>
<!-- Node11&#45;&gt;Node13 -->
<g id="edge20" class="edge">
<title>Node11&#45;&gt;Node13</title>
<path fill="none" stroke="midnightblue" d="M746.88,-112.32C737.47,-104.26 723.26,-92.08 711.93,-82.37"/>
<polygon fill="midnightblue" stroke="midnightblue" points="714.18,-79.68 704.31,-75.83 709.62,-85 714.18,-79.68"/>
</g>
<!-- Node11&#45;&gt;Node14 -->
<g id="edge21" class="edge">
<title>Node11&#45;&gt;Node14</title>
<path fill="none" stroke="midnightblue" d="M776.17,-112.44C795.91,-103.64 826.89,-89.81 849.49,-79.72"/>
<polygon fill="midnightblue" stroke="midnightblue" points="851.21,-82.79 858.92,-75.52 848.36,-76.4 851.21,-82.79"/>
</g>
<!-- Node15&#45;&gt;Node3 -->
<g id="edge26" class="edge">
<title>Node15&#45;&gt;Node3</title>
<path fill="none" stroke="midnightblue" d="M475.22,-114.88C428.16,-105.19 337.76,-86.53 290.01,-76.18"/>
<polygon fill="midnightblue" stroke="midnightblue" points="290.74,-72.75 280.22,-74.04 289.24,-79.59 290.74,-72.75"/>
</g>
<!-- Node15&#45;&gt;Node9 -->
<g id="edge25" class="edge">
<title>Node15&#45;&gt;Node9</title>
<path fill="none" stroke="midnightblue" d="M523.06,-112.44C541.57,-103.68 570.58,-89.94 591.86,-79.86"/>
<polygon fill="midnightblue" stroke="midnightblue" points="593.48,-82.96 601.02,-75.52 590.49,-76.63 593.48,-82.96"/>
</g>
<!-- Node16 -->
<g id="node16" class="node">
<title>Node16</title>
<g id="a_node16"><a xlink:title=" ">
<polygon fill="white" stroke="#bfbfbf" points="517.5,-56.5 517.5,-75.5 572.5,-75.5 572.5,-56.5 517.5,-56.5"/>
<text text-anchor="middle" x="545" y="-63.5" font-family="Helvetica,sans-Serif" font-size="10.00">fstream</text>
</a>
</g>
</g>
<!-- Node15&#45;&gt;Node16 -->
<g id="edge23" class="edge">
<title>Node15&#45;&gt;Node16</title>
<path fill="none" stroke="midnightblue" d="M511.61,-112.08C517.26,-104.46 525.54,-93.26 532.45,-83.94"/>
<polygon fill="midnightblue" stroke="midnightblue" points="535.38,-85.87 538.52,-75.75 529.75,-81.7 535.38,-85.87"/>
</g>
<!-- Node17 -->
<g id="node17" class="node">
<title>Node17</title>
<g id="a_node17"><a xlink:title=" ">
<polygon fill="white" stroke="#bfbfbf" points="298.5,-56.5 298.5,-75.5 363.5,-75.5 363.5,-56.5 298.5,-56.5"/>
<text text-anchor="middle" x="331" y="-63.5" font-family="Helvetica,sans-Serif" font-size="10.00">functional</text>
</a>
</g>
</g>
<!-- Node15&#45;&gt;Node17 -->
<g id="edge24" class="edge">
<title>Node15&#45;&gt;Node17</title>
<path fill="none" stroke="midnightblue" d="M477.43,-112.44C447.9,-103.28 400.88,-88.69 368.12,-78.52"/>
<polygon fill="midnightblue" stroke="midnightblue" points="369.03,-75.14 358.44,-75.52 366.96,-81.82 369.03,-75.14"/>
</g>
<!-- Node18 -->
<g id="node18" class="node">
<title>Node18</title>
<g id="a_node18"><a xlink:title=" ">
<polygon fill="white" stroke="#bfbfbf" points="382,-56.5 382,-75.5 436,-75.5 436,-56.5 382,-56.5"/>
<text text-anchor="middle" x="409" y="-63.5" font-family="Helvetica,sans-Serif" font-size="10.00">random</text>
</a>
</g>
</g>
<!-- Node15&#45;&gt;Node18 -->
<g id="edge27" class="edge">
<title>Node15&#45;&gt;Node18</title>
<path fill="none" stroke="midnightblue" d="M489.58,-112.32C474.46,-103.82 451.18,-90.73 433.53,-80.8"/>
<polygon fill="midnightblue" stroke="midnightblue" points="434.82,-77.51 424.39,-75.65 431.39,-83.61 434.82,-77.51"/>
</g>
<!-- Node19 -->
<g id="node19" class="node">
<title>Node19</title>
<g id="a_node19"><a xlink:title=" ">
<polygon fill="white" stroke="#bfbfbf" points="454.5,-56.5 454.5,-75.5 499.5,-75.5 499.5,-56.5 454.5,-56.5"/>
<text text-anchor="middle" x="477" y="-63.5" font-family="Helvetica,sans-Serif" font-size="10.00">utility</text>
</a>
</g>
</g>
<!-- Node15&#45;&gt;Node19 -->
<g id="edge28" class="edge">
<title>Node15&#45;&gt;Node19</title>
<path fill="none" stroke="midnightblue" d="M500.38,-112.08C496.54,-104.69 490.98,-93.95 486.24,-84.81"/>
<polygon fill="midnightblue" stroke="midnightblue" points="489.25,-83.02 481.54,-75.75 483.03,-86.24 489.25,-83.02"/>
</g>
<!-- Node15&#45;&gt;Node20 -->
<g id="edge29" class="edge">
<title>Node15&#45;&gt;Node20</title>
<path fill="none" stroke="midnightblue" d="M534.73,-113.69C537.85,-113.05 540.98,-112.48 544,-112 724.95,-83.47 775.48,-100.59 961.18,-75.96"/>
<polygon fill="midnightblue" stroke="midnightblue" points="961.84,-79.41 971.28,-74.6 960.9,-72.47 961.84,-79.41"/>
</g>
<!-- Node21 -->
<g id="node21" class="node">
<title>Node21</title>
<g id="a_node21"><a xlink:title=" ">
<polygon fill="white" stroke="#bfbfbf" points="985,-0.5 985,-19.5 1035,-19.5 1035,-0.5 985,-0.5"/>
<text text-anchor="middle" x="1010" y="-7.5" font-family="Helvetica,sans-Serif" font-size="10.00">chrono</text>
</a>
</g>
</g>
<!-- Node20&#45;&gt;Node21 -->
<g id="edge30" class="edge">
<title>Node20&#45;&gt;Node21</title>
<path fill="none" stroke="midnightblue" d="M1010,-56.08C1010,-49.01 1010,-38.86 1010,-29.99"/>
<polygon fill="midnightblue" stroke="midnightblue" points="1013.5,-29.75 1010,-19.75 1006.5,-29.75 1013.5,-29.75"/>
</g>
<!-- Node24&#45;&gt;Node5 -->
<g id="edge45" class="edge">
<title>Node24&#45;&gt;Node5</title>
<path fill="none" stroke="midnightblue" d="M216.99,-285.96C220.47,-275.94 226.34,-258.83 231,-244 235.9,-228.4 241.09,-210.57 244.8,-197.53"/>
<polygon fill="midnightblue" stroke="midnightblue" points="248.18,-198.44 247.53,-187.87 241.44,-196.54 248.18,-198.44"/>
</g>
<!-- Node24&#45;&gt;Node8 -->
<g id="edge46" class="edge">
<title>Node24&#45;&gt;Node8</title>
<path fill="none" stroke="midnightblue" d="M179.25,-290.13C151.24,-284.58 113.58,-272.07 95,-244 70.23,-206.57 118.14,-160.85 147.5,-137.8"/>
<polygon fill="midnightblue" stroke="midnightblue" points="149.73,-140.5 155.57,-131.66 145.49,-134.93 149.73,-140.5"/>
</g>
<!-- Node25 -->
<g id="node25" class="node">
<title>Node25</title>
<g id="a_node25"><a xlink:href="../../d9/d77/MyBLAS_8h.html" target="_top" xlink:title="My BLAS methods for NE591&#45;008.">
<polygon fill="white" stroke="black" points="104,-224.5 104,-243.5 222,-243.5 222,-224.5 104,-224.5"/>
<text text-anchor="middle" x="163" y="-231.5" font-family="Helvetica,sans-Serif" font-size="10.00">math/blas/MyBLAS.h</text>
</a>
</g>
</g>
<!-- Node24&#45;&gt;Node25 -->
<g id="edge41" class="edge">
<title>Node24&#45;&gt;Node25</title>
<path fill="none" stroke="midnightblue" d="M206.69,-285.98C198.97,-276.96 186.59,-262.52 176.98,-251.31"/>
<polygon fill="midnightblue" stroke="midnightblue" points="179.46,-248.82 170.29,-243.51 174.14,-253.38 179.46,-248.82"/>
</g>
<!-- Node25&#45;&gt;Node2 -->
<g id="edge42" class="edge">
<title>Node25&#45;&gt;Node2</title>
<path fill="none" stroke="midnightblue" d="M161.51,-224.08C160.32,-216.93 158.61,-206.64 157.12,-197.69"/>
<polygon fill="midnightblue" stroke="midnightblue" points="160.55,-197.04 155.46,-187.75 153.65,-198.19 160.55,-197.04"/>
</g>
<!-- Node25&#45;&gt;Node5 -->
<g id="edge43" class="edge">
<title>Node25&#45;&gt;Node5</title>
<path fill="none" stroke="midnightblue" d="M176.98,-224.32C190.55,-215.9 211.38,-202.97 227.32,-193.07"/>
<polygon fill="midnightblue" stroke="midnightblue" points="229.41,-195.9 236.06,-187.65 225.71,-189.95 229.41,-195.9"/>
</g>
<!-- Node25&#45;&gt;Node8 -->
<g id="edge44" class="edge">
<title>Node25&#45;&gt;Node8</title>
<path fill="none" stroke="midnightblue" d="M150.8,-224.5C135.31,-212.57 111.66,-189.87 121,-168 126.15,-155.95 136.28,-145.58 145.83,-137.84"/>
<polygon fill="midnightblue" stroke="midnightblue" points="148.04,-140.55 153.92,-131.74 143.83,-134.96 148.04,-140.55"/>
</g>
<!-- Node26&#45;&gt;Node24 -->
<g id="edge48" class="edge">
<title>Node26&#45;&gt;Node24</title>
<path fill="none" stroke="midnightblue" d="M929.85,-351.6C782.43,-340.25 391.6,-310.17 258.85,-299.95"/>
<polygon fill="midnightblue" stroke="midnightblue" points="258.88,-296.44 248.64,-299.17 258.35,-303.42 258.88,-296.44"/>
</g>
<!-- Node27 -->
<g id="node27" class="node">
<title>Node27</title>
<g id="a_node27"><a xlink:href="../../d0/d24/RelaxationMethods_8h.html" target="_top" xlink:title="This file contains the declaration of the RelaxationMethods namespace, which includes the Type enumer...">
<polygon fill="white" stroke="black" points="921,-280.5 921,-310.5 1071,-310.5 1071,-280.5 921,-280.5"/>
<text text-anchor="start" x="929" y="-298.5" font-family="Helvetica,sans-Serif" font-size="10.00">math/relaxation/Relaxation</text>
<text text-anchor="middle" x="996" y="-287.5" font-family="Helvetica,sans-Serif" font-size="10.00">Methods.h</text>
</a>
</g>
</g>
<!-- Node26&#45;&gt;Node27 -->
<g id="edge49" class="edge">
<title>Node26&#45;&gt;Node27</title>
<path fill="none" stroke="midnightblue" d="M988.29,-347.48C989.35,-340.47 990.9,-330.19 992.34,-320.7"/>
<polygon fill="midnightblue" stroke="midnightblue" points="995.84,-320.93 993.88,-310.52 988.92,-319.89 995.84,-320.93"/>
</g>
<!-- Node28 -->
<g id="node28" class="node">
<title>Node28</title>
<g id="a_node28"><a xlink:title=" ">
<polygon fill="white" stroke="#bfbfbf" points="1088.5,-286 1088.5,-305 1139.5,-305 1139.5,-286 1088.5,-286"/>
<text text-anchor="middle" x="1114" y="-293" font-family="Helvetica,sans-Serif" font-size="10.00">variant</text>
</a>
</g>
</g>
<!-- Node26&#45;&gt;Node28 -->
<g id="edge50" class="edge">
<title>Node26&#45;&gt;Node28</title>
<path fill="none" stroke="midnightblue" d="M1005.2,-347.48C1026.51,-337.49 1062.03,-320.85 1086.66,-309.31"/>
<polygon fill="midnightblue" stroke="midnightblue" points="1088.27,-312.42 1095.84,-305.01 1085.3,-306.08 1088.27,-312.42"/>
</g>
</g>
</svg>
        <g id="navigator" transform="translate(0 0)" fill="#404254">
                <rect fill="#f2f5e9" fill-opacity="0.5" stroke="#606060" stroke-width=".5" x="0" y="0" width="60" height="60"/>
                <use id="zoomplus" xlink:href="#zoomPlus" x="17" y="9" onmousedown="handleZoom(evt,'in')"/>
                <use id="zoomminus" xlink:href="#zoomMin" x="42" y="9" onmousedown="handleZoom(evt,'out')"/>
                <use id="reset" xlink:href="#resetDef" x="30" y="36" onmousedown="handleReset()"/>
                <g id="arrowUp" xlink:href="#dirArrow" transform="translate(30 24)" onmousedown="handlePan(0,-1)">
                  <use xlink:href="#rim" fill="#404040">
                        <set attributeName="fill" to="#808080" begin="arrowUp.mouseover" end="arrowUp.mouseout"/>
                  </use>
                  <path fill="none" stroke="white" stroke-width="1.5" d="M0,-3.0v7 M-2.5,-0.5L0,-3.0L2.5,-0.5"/>
                </g>
                <g id="arrowRight" xlink:href="#dirArrow" transform="rotate(90) translate(36 -43)" onmousedown="handlePan(1,0)">
                  <use xlink:href="#rim" fill="#404040">
                        <set attributeName="fill" to="#808080" begin="arrowRight.mouseover" end="arrowRight.mouseout"/>
                  </use>
                  <path fill="none" stroke="white" stroke-width="1.5" d="M0,-3.0v7 M-2.5,-0.5L0,-3.0L2.5,-0.5"/>
                </g>
                <g id="arrowDown" xlink:href="#dirArrow" transform="rotate(180) translate(-30 -48)" onmousedown="handlePan(0,1)">
                  <use xlink:href="#rim" fill="#404040">
                        <set attributeName="fill" to="#808080" begin="arrowDown.mouseover" end="arrowDown.mouseout"/>
                  </use>
                  <path fill="none" stroke="white" stroke-width="1.5" d="M0,-3.0v7 M-2.5,-0.5L0,-3.0L2.5,-0.5"/>
                </g>
                <g id="arrowLeft" xlink:href="#dirArrow" transform="rotate(270) translate(-36 17)" onmousedown="handlePan(-1,0)">
                  <use xlink:href="#rim" fill="#404040">
                        <set attributeName="fill" to="#808080" begin="arrowLeft.mouseover" end="arrowLeft.mouseout"/>
                  </use>
                  <path fill="none" stroke="white" stroke-width="1.5" d="M0,-3.0v7 M-2.5,-0.5L0,-3.0L2.5,-0.5"/>
                </g>
        </g>
        <svg viewBox="0 0 15 15" width="100%" height="30px" preserveAspectRatio="xMaxYMin meet">
         <g id="arrow_out" transform="scale(0.3 0.3)">
          <a xlink:href="LUP_8h__incl_org.svg" target="_base">
           <rect id="button" ry="5" rx="5" y="6" x="6" height="38" width="38"
                fill="#f2f5e9" fill-opacity="0.5" stroke="#606060" stroke-width="1.0"/>
           <path id="arrow"
             d="M 11.500037,31.436501 C 11.940474,20.09759 22.043105,11.32322 32.158766,21.979434 L 37.068811,17.246167 C 37.068811,17.246167 37.088388,32 37.088388,32 L 22.160133,31.978069 C 22.160133,31.978069 26.997745,27.140456 26.997745,27.140456 C 18.528582,18.264221 13.291696,25.230495 11.500037,31.436501 z"
             style="fill:#404040;"/>
          </a>
         </g>
        </svg>
</svg>
