<?xml version="1.0" encoding="UTF-8" standalone="no"?>
<!DOCTYPE svg PUBLIC "-//W3C//DTD SVG 1.1//EN"
 "http://www.w3.org/Graphics/SVG/1.1/DTD/svg11.dtd">
<!-- Generated by graphviz version 2.43.0 (0)
 -->
<!-- Title: MyBLAS::Solver::TemplatedParameters::setRelaxationFactor Pages: 1 -->
<svg width="445pt" height="39pt"
 viewBox="0.00 0.00 445.00 39.00" xmlns="http://www.w3.org/2000/svg" xmlns:xlink="http://www.w3.org/1999/xlink">
<g id="graph0" class="graph" transform="scale(1 1) rotate(0) translate(4 35)">
<title>MyBLAS::Solver::TemplatedParameters::setRelaxationFactor</title>
<polygon fill="white" stroke="transparent" points="-4,4 -4,-35 441,-35 441,4 -4,4"/>
<!-- Node1 -->
<g id="node1" class="node">
<title>Node1</title>
<g id="a_node1"><a xlink:title="Set the relaxation factor.">
<polygon fill="#bfbfbf" stroke="black" points="0,-0.5 0,-30.5 175,-30.5 175,-0.5 0,-0.5"/>
<text text-anchor="start" x="8" y="-18.5" font-family="Helvetica,sans-Serif" font-size="10.00">MyBLAS::Solver::Templated</text>
<text text-anchor="middle" x="87.5" y="-7.5" font-family="Helvetica,sans-Serif" font-size="10.00">Parameters::setRelaxationFactor</text>
</a>
</g>
</g>
<!-- Node2 -->
<g id="node2" class="node">
<title>Node2</title>
<g id="a_node2"><a xlink:href="../../de/d4d/namespaceMyMath.html#a308f33828e533b4824ad79e67faee59b" target="_top" xlink:title="Check if a numeric value is finite.">
<polygon fill="white" stroke="black" points="211,-6 211,-25 306,-25 306,-6 211,-6"/>
<text text-anchor="middle" x="258.5" y="-13" font-family="Helvetica,sans-Serif" font-size="10.00">MyMath::isfinite</text>
</a>
</g>
</g>
<!-- Node1&#45;&gt;Node2 -->
<g id="edge1" class="edge">
<title>Node1&#45;&gt;Node2</title>
<path fill="none" stroke="midnightblue" d="M175.48,-15.5C184.01,-15.5 192.5,-15.5 200.62,-15.5"/>
<polygon fill="midnightblue" stroke="midnightblue" points="200.66,-19 210.66,-15.5 200.66,-12 200.66,-19"/>
</g>
<!-- Node3 -->
<g id="node3" class="node">
<title>Node3</title>
<g id="a_node3"><a xlink:href="../../de/d4d/namespaceMyMath.html#a52ed3b9bbd57490ed3dac1c78fe4832b" target="_top" xlink:title="Specialization for the __float128 type.">
<polygon fill="white" stroke="black" points="342,-6 342,-25 437,-25 437,-6 342,-6"/>
<text text-anchor="middle" x="389.5" y="-13" font-family="Helvetica,sans-Serif" font-size="10.00">MyMath::isfinite</text>
</a>
</g>
</g>
<!-- Node2&#45;&gt;Node3 -->
<g id="edge2" class="edge">
<title>Node2&#45;&gt;Node3</title>
<path fill="none" stroke="midnightblue" d="M306.07,-15.5C314.48,-15.5 323.32,-15.5 331.97,-15.5"/>
<polygon fill="midnightblue" stroke="midnightblue" points="332,-19 342,-15.5 332,-12 332,-19"/>
</g>
</g>
</svg>
