<?xml version="1.0" encoding="UTF-8" standalone="no"?>
<!DOCTYPE svg PUBLIC "-//W3C//DTD SVG 1.1//EN"
 "http://www.w3.org/Graphics/SVG/1.1/DTD/svg11.dtd">
<!-- Generated by graphviz version 2.43.0 (0)
 -->
<!-- Title: Parser::buildInputs Pages: 1 -->
<svg width="891pt" height="450pt"
 viewBox="0.00 0.00 891.00 450.00" xmlns="http://www.w3.org/2000/svg" xmlns:xlink="http://www.w3.org/1999/xlink">
<g id="graph0" class="graph" transform="scale(1 1) rotate(0) translate(4 446)">
<title>Parser::buildInputs</title>
<polygon fill="white" stroke="transparent" points="-4,4 -4,-446 887,-446 887,4 -4,4"/>
<!-- Node1 -->
<g id="node1" class="node">
<title>Node1</title>
<g id="a_node1"><a xlink:title="Builds the input matrices for the MyBLAS library from a JSON file.">
<polygon fill="#bfbfbf" stroke="black" points="0,-137.5 0,-156.5 107,-156.5 107,-137.5 0,-137.5"/>
<text text-anchor="middle" x="53.5" y="-144.5" font-family="Helvetica,sans-Serif" font-size="10.00">Parser::buildInputs</text>
</a>
</g>
</g>
<!-- Node2 -->
<g id="node2" class="node">
<title>Node2</title>
<g id="a_node2"><a xlink:href="../../d5/d7a/namespaceMyBLAS_1_1System.html#a487070ac751d33afa7f9fceaef312ea0" target="_top" xlink:title="This function generates a circuit with random resistances and currents, and computes the correspondin...">
<polygon fill="white" stroke="black" points="155,-327.5 155,-346.5 292,-346.5 292,-327.5 155,-327.5"/>
<text text-anchor="middle" x="223.5" y="-334.5" font-family="Helvetica,sans-Serif" font-size="10.00">MyBLAS::System::Circuit</text>
</a>
</g>
</g>
<!-- Node1&#45;&gt;Node2 -->
<g id="edge1" class="edge">
<title>Node1&#45;&gt;Node2</title>
<path fill="none" stroke="midnightblue" d="M61.79,-156.58C76.56,-175.86 111.34,-220.55 143,-256 163.53,-278.99 188.65,-304.12 205.09,-320.2"/>
<polygon fill="midnightblue" stroke="midnightblue" points="202.79,-322.85 212.4,-327.31 207.67,-317.83 202.79,-322.85"/>
</g>
<!-- Node11 -->
<g id="node11" class="node">
<title>Node11</title>
<g id="a_node11"><a xlink:href="../../d4/d4d/classMyBLAS_1_1Vector.html#aae30f8178e4a34d332317c61e77c147a" target="_top" xlink:title="Getter for the size of the vector.">
<polygon fill="white" stroke="black" points="752,-270.5 752,-289.5 871,-289.5 871,-270.5 752,-270.5"/>
<text text-anchor="middle" x="811.5" y="-277.5" font-family="Helvetica,sans-Serif" font-size="10.00">MyBLAS::Vector::size</text>
</a>
</g>
</g>
<!-- Node1&#45;&gt;Node11 -->
<g id="edge27" class="edge">
<title>Node1&#45;&gt;Node11</title>
<path fill="none" stroke="midnightblue" d="M72.26,-156.58C89.75,-165.58 117.49,-178.73 143,-186 356.2,-246.73 619.35,-269.05 741.81,-276.56"/>
<polygon fill="midnightblue" stroke="midnightblue" points="741.6,-280.05 751.8,-277.15 742.02,-273.06 741.6,-280.05"/>
</g>
<!-- Node12 -->
<g id="node12" class="node">
<title>Node12</title>
<g id="a_node12"><a xlink:href="../../d2/d6e/namespaceMyBLAS.html#a0b887e323f8337bd87ef20dff8af5c1f" target="_top" xlink:title="Checks if the given matrix is a square matrix.">
<polygon fill="white" stroke="black" points="567,-213.5 567,-232.5 704,-232.5 704,-213.5 567,-213.5"/>
<text text-anchor="middle" x="635.5" y="-220.5" font-family="Helvetica,sans-Serif" font-size="10.00">MyBLAS::isSquareMatrix</text>
</a>
</g>
</g>
<!-- Node1&#45;&gt;Node12 -->
<g id="edge24" class="edge">
<title>Node1&#45;&gt;Node12</title>
<path fill="none" stroke="midnightblue" d="M107.34,-155.64C119.07,-157.48 131.45,-159.36 143,-161 288.98,-181.75 459.85,-202.51 556.82,-213.97"/>
<polygon fill="midnightblue" stroke="midnightblue" points="556.49,-217.45 566.83,-215.15 557.31,-210.5 556.49,-217.45"/>
</g>
<!-- Node14 -->
<g id="node14" class="node">
<title>Node14</title>
<g id="a_node14"><a xlink:href="../../d0/d27/classMyBLAS_1_1Matrix.html#a0772df3e76eadc9035e847316de0d249" target="_top" xlink:title="Getter for the number of rows in the matrix.">
<polygon fill="white" stroke="black" points="740,-175.5 740,-194.5 883,-194.5 883,-175.5 740,-175.5"/>
<text text-anchor="middle" x="811.5" y="-182.5" font-family="Helvetica,sans-Serif" font-size="10.00">MyBLAS::Matrix::getRows</text>
</a>
</g>
</g>
<!-- Node1&#45;&gt;Node14 -->
<g id="edge23" class="edge">
<title>Node1&#45;&gt;Node14</title>
<path fill="none" stroke="midnightblue" d="M107.06,-149.64C236.93,-156.17 573.68,-173.1 729.37,-180.92"/>
<polygon fill="midnightblue" stroke="midnightblue" points="729.65,-184.44 739.81,-181.45 730,-177.45 729.65,-184.44"/>
</g>
<!-- Node17 -->
<g id="node17" class="node">
<title>Node17</title>
<g id="a_node17"><a xlink:href="../../dd/d02/classCommandLine.html#a6a94f5e16b2081e769567d3790b6d8ec" target="_top" xlink:title="Method to get the current precision.">
<polygon fill="white" stroke="black" points="143,-88 143,-118 304,-118 304,-88 143,-88"/>
<text text-anchor="start" x="151" y="-106" font-family="Helvetica,sans-Serif" font-size="10.00">CommandLine&lt; InLab6Inputs</text>
<text text-anchor="middle" x="223.5" y="-95" font-family="Helvetica,sans-Serif" font-size="10.00"> &gt;::getCurrentPrecision</text>
</a>
</g>
</g>
<!-- Node1&#45;&gt;Node17 -->
<g id="edge22" class="edge">
<title>Node1&#45;&gt;Node17</title>
<path fill="none" stroke="midnightblue" d="M90.95,-137.45C109.7,-132.54 133.16,-126.4 155.05,-120.67"/>
<polygon fill="midnightblue" stroke="midnightblue" points="156.19,-123.98 164.98,-118.07 154.42,-117.21 156.19,-123.98"/>
</g>
<!-- Node18 -->
<g id="node18" class="node">
<title>Node18</title>
<g id="a_node18"><a xlink:href="../../dd/d02/classCommandLine.html#a7001590923e6bfdf380448136b8e65bd" target="_top" xlink:title="Method to print a line to the console. This method prints a line of dashes to the console.">
<polygon fill="white" stroke="black" points="143,-39 143,-69 304,-69 304,-39 143,-39"/>
<text text-anchor="start" x="151" y="-57" font-family="Helvetica,sans-Serif" font-size="10.00">CommandLine&lt; InLab6Inputs</text>
<text text-anchor="middle" x="223.5" y="-46" font-family="Helvetica,sans-Serif" font-size="10.00"> &gt;::printLine</text>
</a>
</g>
</g>
<!-- Node1&#45;&gt;Node18 -->
<g id="edge25" class="edge">
<title>Node1&#45;&gt;Node18</title>
<path fill="none" stroke="midnightblue" d="M64.26,-137.37C79.72,-122.61 111.34,-94.39 143,-78 146.57,-76.15 150.31,-74.42 154.13,-72.8"/>
<polygon fill="midnightblue" stroke="midnightblue" points="155.74,-75.93 163.77,-69.02 153.18,-69.42 155.74,-75.93"/>
</g>
<!-- Node19 -->
<g id="node19" class="node">
<title>Node19</title>
<g id="a_node19"><a xlink:href="../../d7/de4/FileParser_8h.html#a05aeb46aa7f312dd74467464305b1a5b" target="_top" xlink:title="Reads a JSON file and stores the data in a JSON object.">
<polygon fill="white" stroke="black" points="192.5,-0.5 192.5,-19.5 254.5,-19.5 254.5,-0.5 192.5,-0.5"/>
<text text-anchor="middle" x="223.5" y="-7.5" font-family="Helvetica,sans-Serif" font-size="10.00">readJSON</text>
</a>
</g>
</g>
<!-- Node1&#45;&gt;Node19 -->
<g id="edge26" class="edge">
<title>Node1&#45;&gt;Node19</title>
<path fill="none" stroke="midnightblue" d="M58.88,-137.25C69.66,-114.45 99.76,-57.39 143,-29 154.63,-21.37 169.01,-16.79 182.32,-14.06"/>
<polygon fill="midnightblue" stroke="midnightblue" points="183,-17.49 192.24,-12.3 181.78,-10.6 183,-17.49"/>
</g>
<!-- Node3 -->
<g id="node3" class="node">
<title>Node3</title>
<g id="a_node3"><a xlink:href="../../d6/d03/namespaceRandom.html#a4895ec4a961ca014f3a4e1499f95cc8e" target="_top" xlink:title="Generates a matrix of random numbers.">
<polygon fill="white" stroke="black" points="363.5,-384.5 363.5,-403.5 507.5,-403.5 507.5,-384.5 363.5,-384.5"/>
<text text-anchor="middle" x="435.5" y="-391.5" font-family="Helvetica,sans-Serif" font-size="10.00">Random::generate_matrix</text>
</a>
</g>
</g>
<!-- Node2&#45;&gt;Node3 -->
<g id="edge2" class="edge">
<title>Node2&#45;&gt;Node3</title>
<path fill="none" stroke="midnightblue" d="M250.38,-346.5C273.62,-354.79 308.77,-366.76 340,-375 350.05,-377.65 360.8,-380.14 371.3,-382.38"/>
<polygon fill="midnightblue" stroke="midnightblue" points="370.76,-385.84 381.26,-384.45 372.19,-378.99 370.76,-385.84"/>
</g>
<!-- Node7 -->
<g id="node7" class="node">
<title>Node7</title>
<g id="a_node7"><a xlink:href="../../d6/d03/namespaceRandom.html#adfa5e70492a249fd39898582a640e5fb" target="_top" xlink:title="Generates a vector of random numbers.">
<polygon fill="white" stroke="black" points="364,-422.5 364,-441.5 507,-441.5 507,-422.5 364,-422.5"/>
<text text-anchor="middle" x="435.5" y="-429.5" font-family="Helvetica,sans-Serif" font-size="10.00">Random::generate_vector</text>
</a>
</g>
</g>
<!-- Node2&#45;&gt;Node7 -->
<g id="edge7" class="edge">
<title>Node2&#45;&gt;Node7</title>
<path fill="none" stroke="midnightblue" d="M235.78,-346.6C255.54,-362.89 298.27,-395.83 340,-413 346.34,-415.61 353.08,-417.87 359.91,-419.83"/>
<polygon fill="midnightblue" stroke="midnightblue" points="359.41,-423.31 369.97,-422.48 361.2,-416.54 359.41,-423.31"/>
</g>
<!-- Node8 -->
<g id="node8" class="node">
<title>Node8</title>
<g id="a_node8"><a xlink:href="../../d2/d6e/namespaceMyBLAS.html#a092394bd4dee1886f97451d5918c0dce" target="_top" xlink:title="Computes the inner product of two matrices.">
<polygon fill="white" stroke="black" points="373,-308.5 373,-327.5 498,-327.5 498,-308.5 373,-308.5"/>
<text text-anchor="middle" x="435.5" y="-315.5" font-family="Helvetica,sans-Serif" font-size="10.00">MyBLAS::innerProduct</text>
</a>
</g>
</g>
<!-- Node2&#45;&gt;Node8 -->
<g id="edge10" class="edge">
<title>Node2&#45;&gt;Node8</title>
<path fill="none" stroke="midnightblue" d="M292.1,-330.88C314.66,-328.84 339.87,-326.56 362.74,-324.49"/>
<polygon fill="midnightblue" stroke="midnightblue" points="363.07,-327.98 372.72,-323.59 362.44,-321.01 363.07,-327.98"/>
</g>
<!-- Node9 -->
<g id="node9" class="node">
<title>Node9</title>
<g id="a_node9"><a xlink:href="../../d2/d6e/namespaceMyBLAS.html#a4ae8cb61e3457065790607979b939564" target="_top" xlink:title="Checks if the given matrix is diagonally dominant.">
<polygon fill="white" stroke="black" points="349.5,-346.5 349.5,-365.5 521.5,-365.5 521.5,-346.5 349.5,-346.5"/>
<text text-anchor="middle" x="435.5" y="-353.5" font-family="Helvetica,sans-Serif" font-size="10.00">MyBLAS::isDiagonallyDominant</text>
</a>
</g>
</g>
<!-- Node2&#45;&gt;Node9 -->
<g id="edge11" class="edge">
<title>Node2&#45;&gt;Node9</title>
<path fill="none" stroke="midnightblue" d="M292.1,-343.12C307.05,-344.47 323.17,-345.93 338.99,-347.36"/>
<polygon fill="midnightblue" stroke="midnightblue" points="339.06,-350.88 349.33,-348.29 339.69,-343.91 339.06,-350.88"/>
</g>
<!-- Node16 -->
<g id="node16" class="node">
<title>Node16</title>
<g id="a_node16"><a xlink:href="../../d2/d6e/namespaceMyBLAS.html#a95a31a537601936a645cd405411f3732" target="_top" xlink:title="Makes the given matrix diagonally dominant.">
<polygon fill="white" stroke="black" points="340,-270.5 340,-289.5 531,-289.5 531,-270.5 340,-270.5"/>
<text text-anchor="middle" x="435.5" y="-277.5" font-family="Helvetica,sans-Serif" font-size="10.00">MyBLAS::makeDiagonallyDominant</text>
</a>
</g>
</g>
<!-- Node2&#45;&gt;Node16 -->
<g id="edge19" class="edge">
<title>Node2&#45;&gt;Node16</title>
<path fill="none" stroke="midnightblue" d="M250.38,-327.5C273.62,-319.21 308.77,-307.24 340,-299 350.05,-296.35 360.8,-293.86 371.3,-291.62"/>
<polygon fill="midnightblue" stroke="midnightblue" points="372.19,-295.01 381.26,-289.55 370.76,-288.16 372.19,-295.01"/>
</g>
<!-- Node4 -->
<g id="node4" class="node">
<title>Node4</title>
<g id="a_node4"><a xlink:href="../../dd/df5/namespaceMyBLAS_1_1Stats.html#a403bf760cf802cddf8dd73e5d3e46a05" target="_top" xlink:title="Function to find the maximum value in a vector.">
<polygon fill="white" stroke="black" points="577.5,-422.5 577.5,-441.5 693.5,-441.5 693.5,-422.5 577.5,-422.5"/>
<text text-anchor="middle" x="635.5" y="-429.5" font-family="Helvetica,sans-Serif" font-size="10.00">MyBLAS::Stats::max</text>
</a>
</g>
</g>
<!-- Node3&#45;&gt;Node4 -->
<g id="edge3" class="edge">
<title>Node3&#45;&gt;Node4</title>
<path fill="none" stroke="midnightblue" d="M486.21,-403.54C513.04,-408.69 546.36,-415.08 574.61,-420.51"/>
<polygon fill="midnightblue" stroke="midnightblue" points="574.29,-424.01 584.77,-422.46 575.61,-417.13 574.29,-424.01"/>
</g>
<!-- Node6 -->
<g id="node6" class="node">
<title>Node6</title>
<g id="a_node6"><a xlink:href="../../dd/df5/namespaceMyBLAS_1_1Stats.html#ac06efe71c44675ea021ddeb404d730dc" target="_top" xlink:title="Function to find the minimum value in a vector.">
<polygon fill="white" stroke="black" points="579,-384.5 579,-403.5 692,-403.5 692,-384.5 579,-384.5"/>
<text text-anchor="middle" x="635.5" y="-391.5" font-family="Helvetica,sans-Serif" font-size="10.00">MyBLAS::Stats::min</text>
</a>
</g>
</g>
<!-- Node3&#45;&gt;Node6 -->
<g id="edge5" class="edge">
<title>Node3&#45;&gt;Node6</title>
<path fill="none" stroke="midnightblue" d="M507.7,-394C527.62,-394 549.18,-394 568.77,-394"/>
<polygon fill="midnightblue" stroke="midnightblue" points="568.81,-397.5 578.81,-394 568.81,-390.5 568.81,-397.5"/>
</g>
<!-- Node5 -->
<g id="node5" class="node">
<title>Node5</title>
<g id="a_node5"><a xlink:href="../../d4/d4d/classMyBLAS_1_1Vector.html#a6188d71192e096e25ae1c1a46150a0ab" target="_top" xlink:title="Getter for the vector data.">
<polygon fill="white" stroke="black" points="742,-384.5 742,-403.5 881,-403.5 881,-384.5 742,-384.5"/>
<text text-anchor="middle" x="811.5" y="-391.5" font-family="Helvetica,sans-Serif" font-size="10.00">MyBLAS::Vector::getData</text>
</a>
</g>
</g>
<!-- Node4&#45;&gt;Node5 -->
<g id="edge4" class="edge">
<title>Node4&#45;&gt;Node5</title>
<path fill="none" stroke="midnightblue" d="M680.41,-422.41C703.68,-417.33 732.45,-411.04 757.02,-405.68"/>
<polygon fill="midnightblue" stroke="midnightblue" points="757.89,-409.07 766.91,-403.52 756.39,-402.23 757.89,-409.07"/>
</g>
<!-- Node6&#45;&gt;Node5 -->
<g id="edge6" class="edge">
<title>Node6&#45;&gt;Node5</title>
<path fill="none" stroke="midnightblue" d="M692.03,-394C704.63,-394 718.25,-394 731.62,-394"/>
<polygon fill="midnightblue" stroke="midnightblue" points="731.76,-397.5 741.76,-394 731.76,-390.5 731.76,-397.5"/>
</g>
<!-- Node7&#45;&gt;Node4 -->
<g id="edge8" class="edge">
<title>Node7&#45;&gt;Node4</title>
<path fill="none" stroke="midnightblue" d="M507.14,-432C526.63,-432 547.72,-432 567.02,-432"/>
<polygon fill="midnightblue" stroke="midnightblue" points="567.24,-435.5 577.24,-432 567.24,-428.5 567.24,-435.5"/>
</g>
<!-- Node7&#45;&gt;Node6 -->
<g id="edge9" class="edge">
<title>Node7&#45;&gt;Node6</title>
<path fill="none" stroke="midnightblue" d="M486.21,-422.46C513.04,-417.31 546.36,-410.92 574.61,-405.49"/>
<polygon fill="midnightblue" stroke="midnightblue" points="575.61,-408.87 584.77,-403.54 574.29,-401.99 575.61,-408.87"/>
</g>
<!-- Node10 -->
<g id="node10" class="node">
<title>Node10</title>
<g id="a_node10"><a xlink:href="../../dd/df5/namespaceMyBLAS_1_1Stats.html#afeaf3b7bba0ff1b952b35d0effc0bca9" target="_top" xlink:title="Function to find the absolute value of each element in a vector.">
<polygon fill="white" stroke="black" points="580,-289.5 580,-308.5 691,-308.5 691,-289.5 580,-289.5"/>
<text text-anchor="middle" x="635.5" y="-296.5" font-family="Helvetica,sans-Serif" font-size="10.00">MyBLAS::Stats::abs</text>
</a>
</g>
</g>
<!-- Node9&#45;&gt;Node10 -->
<g id="edge12" class="edge">
<title>Node9&#45;&gt;Node10</title>
<path fill="none" stroke="midnightblue" d="M491.31,-346.46C504.41,-343.78 518.28,-340.59 531,-337 555.22,-330.16 581.87,-320.32 602.05,-312.37"/>
<polygon fill="midnightblue" stroke="midnightblue" points="603.41,-315.6 611.41,-308.64 600.82,-309.09 603.41,-315.6"/>
</g>
<!-- Node9&#45;&gt;Node12 -->
<g id="edge14" class="edge">
<title>Node9&#45;&gt;Node12</title>
<path fill="none" stroke="midnightblue" d="M513.02,-346.35C519.39,-343.87 525.49,-340.8 531,-337 555.68,-320.01 547.32,-302.6 567,-280 580.6,-264.39 598.62,-249.39 612.62,-238.7"/>
<polygon fill="midnightblue" stroke="midnightblue" points="614.83,-241.42 620.75,-232.64 610.64,-235.82 614.83,-241.42"/>
</g>
<!-- Node15 -->
<g id="node15" class="node">
<title>Node15</title>
<g id="a_node15"><a xlink:href="../../dd/df5/namespaceMyBLAS_1_1Stats.html#aaa0d2e3d22af2b7894169b7c90ba6146" target="_top" xlink:title="Function to find the sum of all elements in a vector.">
<polygon fill="white" stroke="black" points="578,-346.5 578,-365.5 693,-365.5 693,-346.5 578,-346.5"/>
<text text-anchor="middle" x="635.5" y="-353.5" font-family="Helvetica,sans-Serif" font-size="10.00">MyBLAS::Stats::sum</text>
</a>
</g>
</g>
<!-- Node9&#45;&gt;Node15 -->
<g id="edge17" class="edge">
<title>Node9&#45;&gt;Node15</title>
<path fill="none" stroke="midnightblue" d="M521.62,-356C537.03,-356 552.91,-356 567.7,-356"/>
<polygon fill="midnightblue" stroke="midnightblue" points="567.75,-359.5 577.75,-356 567.75,-352.5 567.75,-359.5"/>
</g>
<!-- Node10&#45;&gt;Node11 -->
<g id="edge13" class="edge">
<title>Node10&#45;&gt;Node11</title>
<path fill="none" stroke="midnightblue" d="M691.08,-293.04C707.09,-291.29 724.81,-289.36 741.59,-287.52"/>
<polygon fill="midnightblue" stroke="midnightblue" points="742.34,-290.96 751.9,-286.4 741.58,-284.01 742.34,-290.96"/>
</g>
<!-- Node13 -->
<g id="node13" class="node">
<title>Node13</title>
<g id="a_node13"><a xlink:href="../../d0/d27/classMyBLAS_1_1Matrix.html#a720cd9095d330d43de367bfbffffb864" target="_top" xlink:title="Getter for the number of columns in the matrix.">
<polygon fill="white" stroke="black" points="743,-213.5 743,-232.5 880,-232.5 880,-213.5 743,-213.5"/>
<text text-anchor="middle" x="811.5" y="-220.5" font-family="Helvetica,sans-Serif" font-size="10.00">MyBLAS::Matrix::getCols</text>
</a>
</g>
</g>
<!-- Node12&#45;&gt;Node13 -->
<g id="edge15" class="edge">
<title>Node12&#45;&gt;Node13</title>
<path fill="none" stroke="midnightblue" d="M704.27,-223C713.59,-223 723.22,-223 732.7,-223"/>
<polygon fill="midnightblue" stroke="midnightblue" points="732.91,-226.5 742.91,-223 732.91,-219.5 732.91,-226.5"/>
</g>
<!-- Node12&#45;&gt;Node14 -->
<g id="edge16" class="edge">
<title>Node12&#45;&gt;Node14</title>
<path fill="none" stroke="midnightblue" d="M680.41,-213.41C703.68,-208.33 732.45,-202.04 757.02,-196.68"/>
<polygon fill="midnightblue" stroke="midnightblue" points="757.89,-200.07 766.91,-194.52 756.39,-193.23 757.89,-200.07"/>
</g>
<!-- Node15&#45;&gt;Node5 -->
<g id="edge18" class="edge">
<title>Node15&#45;&gt;Node5</title>
<path fill="none" stroke="midnightblue" d="M680.41,-365.59C703.68,-370.67 732.45,-376.96 757.02,-382.32"/>
<polygon fill="midnightblue" stroke="midnightblue" points="756.39,-385.77 766.91,-384.48 757.89,-378.93 756.39,-385.77"/>
</g>
<!-- Node16&#45;&gt;Node10 -->
<g id="edge20" class="edge">
<title>Node16&#45;&gt;Node10</title>
<path fill="none" stroke="midnightblue" d="M531.15,-289.08C544.2,-290.33 557.35,-291.6 569.69,-292.78"/>
<polygon fill="midnightblue" stroke="midnightblue" points="569.56,-296.28 579.85,-293.76 570.23,-289.32 569.56,-296.28"/>
</g>
<!-- Node16&#45;&gt;Node14 -->
<g id="edge21" class="edge">
<title>Node16&#45;&gt;Node14</title>
<path fill="none" stroke="midnightblue" d="M448.57,-270.41C470.6,-253.52 519.45,-218.85 567,-204 619.62,-187.57 681.59,-182.93 729.85,-182.34"/>
<polygon fill="midnightblue" stroke="midnightblue" points="729.95,-185.84 739.93,-182.27 729.9,-178.84 729.95,-185.84"/>
</g>
</g>
</svg>
