<?xml version="1.0" encoding="UTF-8" standalone="no"?>
<!DOCTYPE svg PUBLIC "-//W3C//DTD SVG 1.1//EN"
 "http://www.w3.org/Graphics/SVG/1.1/DTD/svg11.dtd">
<!-- Generated by graphviz version 2.43.0 (0)
 -->
<!-- Title: Parser::buildInputs Pages: 1 -->
<svg width="867pt" height="344pt"
 viewBox="0.00 0.00 867.00 344.00" xmlns="http://www.w3.org/2000/svg" xmlns:xlink="http://www.w3.org/1999/xlink">
<g id="graph0" class="graph" transform="scale(1 1) rotate(0) translate(4 340)">
<title>Parser::buildInputs</title>
<polygon fill="white" stroke="transparent" points="-4,4 -4,-340 863,-340 863,4 -4,4"/>
<!-- Node1 -->
<g id="node1" class="node">
<title>Node1</title>
<g id="a_node1"><a xlink:title="Builds the inputs.">
<polygon fill="#bfbfbf" stroke="black" points="0,-103.5 0,-122.5 107,-122.5 107,-103.5 0,-103.5"/>
<text text-anchor="middle" x="53.5" y="-110.5" font-family="Helvetica,sans-Serif" font-size="10.00">Parser::buildInputs</text>
</a>
</g>
</g>
<!-- Node2 -->
<g id="node2" class="node">
<title>Node2</title>
<g id="a_node2"><a xlink:href="../../d5/d7a/namespaceMyBLAS_1_1System.html#a487070ac751d33afa7f9fceaef312ea0" target="_top" xlink:title="This function generates a circuit with random resistances and currents, and computes the correspondin...">
<polygon fill="white" stroke="black" points="143,-221.5 143,-240.5 280,-240.5 280,-221.5 143,-221.5"/>
<text text-anchor="middle" x="211.5" y="-228.5" font-family="Helvetica,sans-Serif" font-size="10.00">MyBLAS::System::Circuit</text>
</a>
</g>
</g>
<!-- Node1&#45;&gt;Node2 -->
<g id="edge1" class="edge">
<title>Node1&#45;&gt;Node2</title>
<path fill="none" stroke="midnightblue" d="M65.01,-122.73C81.21,-137.52 113.49,-166.25 143,-188 156.5,-197.95 172.28,-208.08 185.18,-216"/>
<polygon fill="midnightblue" stroke="midnightblue" points="183.63,-219.15 194,-221.35 187.26,-213.17 183.63,-219.15"/>
</g>
<!-- Node9 -->
<g id="node9" class="node">
<title>Node9</title>
<g id="a_node9"><a xlink:href="../../d2/d6e/namespaceMyBLAS.html#a4ae8cb61e3457065790607979b939564" target="_top" xlink:title="Checks if the given matrix is diagonally dominant.">
<polygon fill="white" stroke="black" points="325.5,-164.5 325.5,-183.5 497.5,-183.5 497.5,-164.5 325.5,-164.5"/>
<text text-anchor="middle" x="411.5" y="-171.5" font-family="Helvetica,sans-Serif" font-size="10.00">MyBLAS::isDiagonallyDominant</text>
</a>
</g>
</g>
<!-- Node1&#45;&gt;Node9 -->
<g id="edge21" class="edge">
<title>Node1&#45;&gt;Node9</title>
<path fill="none" stroke="midnightblue" d="M84.14,-122.51C101.21,-127.7 123.15,-133.88 143,-138 199.67,-149.76 263.93,-158.55 315.26,-164.5"/>
<polygon fill="midnightblue" stroke="midnightblue" points="315.01,-168 325.35,-165.65 315.81,-161.04 315.01,-168"/>
</g>
<!-- Node11 -->
<g id="node11" class="node">
<title>Node11</title>
<g id="a_node11"><a xlink:href="../../d2/d6e/namespaceMyBLAS.html#a0b887e323f8337bd87ef20dff8af5c1f" target="_top" xlink:title="Checks if the given matrix is a square matrix.">
<polygon fill="white" stroke="black" points="543,-104.5 543,-123.5 680,-123.5 680,-104.5 543,-104.5"/>
<text text-anchor="middle" x="611.5" y="-111.5" font-family="Helvetica,sans-Serif" font-size="10.00">MyBLAS::isSquareMatrix</text>
</a>
</g>
</g>
<!-- Node1&#45;&gt;Node11 -->
<g id="edge26" class="edge">
<title>Node1&#45;&gt;Node11</title>
<path fill="none" stroke="midnightblue" d="M79.37,-103.32C149.05,-77.69 351.27,-13.57 507,-67 526.17,-73.58 524.91,-85.86 543,-95 547.57,-97.31 552.46,-99.37 557.44,-101.21"/>
<polygon fill="midnightblue" stroke="midnightblue" points="556.48,-104.57 567.07,-104.46 558.72,-97.94 556.48,-104.57"/>
</g>
<!-- Node16 -->
<g id="node16" class="node">
<title>Node16</title>
<g id="a_node16"><a xlink:href="../../d2/d6e/namespaceMyBLAS.html#ad78205a07b1500a10fae544f919d0801" target="_top" xlink:title="Checks if the given matrix is positive definite using Cholesky decomposition.">
<polygon fill="white" stroke="black" points="337,-77 337,-107 486,-107 486,-77 337,-77"/>
<text text-anchor="start" x="345" y="-95" font-family="Helvetica,sans-Serif" font-size="10.00">MyBLAS::isPositiveDefinite</text>
<text text-anchor="middle" x="411.5" y="-84" font-family="Helvetica,sans-Serif" font-size="10.00">Matrix</text>
</a>
</g>
</g>
<!-- Node1&#45;&gt;Node16 -->
<g id="edge22" class="edge">
<title>Node1&#45;&gt;Node16</title>
<path fill="none" stroke="midnightblue" d="M107.03,-109.9C164.8,-106.49 258.43,-100.97 326.43,-96.96"/>
<polygon fill="midnightblue" stroke="midnightblue" points="326.92,-100.44 336.7,-96.35 326.51,-93.45 326.92,-100.44"/>
</g>
<!-- Node18 -->
<g id="node18" class="node">
<title>Node18</title>
<g id="a_node18"><a xlink:href="../../d2/d6e/namespaceMyBLAS.html#af293c95e705171bdd15268039d337135" target="_top" xlink:title="Checks if the given matrix is symmetric.">
<polygon fill="white" stroke="black" points="333.5,-126.5 333.5,-145.5 489.5,-145.5 489.5,-126.5 333.5,-126.5"/>
<text text-anchor="middle" x="411.5" y="-133.5" font-family="Helvetica,sans-Serif" font-size="10.00">MyBLAS::isSymmetricMatrix</text>
</a>
</g>
</g>
<!-- Node1&#45;&gt;Node18 -->
<g id="edge27" class="edge">
<title>Node1&#45;&gt;Node18</title>
<path fill="none" stroke="midnightblue" d="M107.03,-116.39C163.88,-120.07 255.46,-125.98 323.17,-130.36"/>
<polygon fill="midnightblue" stroke="midnightblue" points="323.19,-133.87 333.4,-131.02 323.64,-126.88 323.19,-133.87"/>
</g>
<!-- Node19 -->
<g id="node19" class="node">
<title>Node19</title>
<g id="a_node19"><a xlink:href="../../d7/de4/FileParser_8h.html#a05aeb46aa7f312dd74467464305b1a5b" target="_top" xlink:title="Reads a JSON file and stores the data in a JSON object.">
<polygon fill="white" stroke="black" points="180.5,-0.5 180.5,-19.5 242.5,-19.5 242.5,-0.5 180.5,-0.5"/>
<text text-anchor="middle" x="211.5" y="-7.5" font-family="Helvetica,sans-Serif" font-size="10.00">readJSON</text>
</a>
</g>
</g>
<!-- Node1&#45;&gt;Node19 -->
<g id="edge30" class="edge">
<title>Node1&#45;&gt;Node19</title>
<path fill="none" stroke="midnightblue" d="M62.87,-103.42C77.58,-87.1 109.69,-53.75 143,-34 151.58,-28.92 161.4,-24.66 170.85,-21.22"/>
<polygon fill="midnightblue" stroke="midnightblue" points="172.16,-24.47 180.49,-17.92 169.89,-17.84 172.16,-24.47"/>
</g>
<!-- Node3 -->
<g id="node3" class="node">
<title>Node3</title>
<g id="a_node3"><a xlink:href="../../d6/d03/namespaceRandom.html#a4895ec4a961ca014f3a4e1499f95cc8e" target="_top" xlink:title="Generates a matrix of random numbers.">
<polygon fill="white" stroke="black" points="339.5,-316.5 339.5,-335.5 483.5,-335.5 483.5,-316.5 339.5,-316.5"/>
<text text-anchor="middle" x="411.5" y="-323.5" font-family="Helvetica,sans-Serif" font-size="10.00">Random::generate_matrix</text>
</a>
</g>
</g>
<!-- Node2&#45;&gt;Node3 -->
<g id="edge2" class="edge">
<title>Node2&#45;&gt;Node3</title>
<path fill="none" stroke="midnightblue" d="M222.41,-240.65C239.81,-257.02 277.66,-290.07 316,-307 321.78,-309.55 327.9,-311.76 334.15,-313.68"/>
<polygon fill="midnightblue" stroke="midnightblue" points="333.46,-317.12 344.04,-316.46 335.36,-310.38 333.46,-317.12"/>
</g>
<!-- Node7 -->
<g id="node7" class="node">
<title>Node7</title>
<g id="a_node7"><a xlink:href="../../d6/d03/namespaceRandom.html#adfa5e70492a249fd39898582a640e5fb" target="_top" xlink:title="Generates a vector of random numbers.">
<polygon fill="white" stroke="black" points="340,-278.5 340,-297.5 483,-297.5 483,-278.5 340,-278.5"/>
<text text-anchor="middle" x="411.5" y="-285.5" font-family="Helvetica,sans-Serif" font-size="10.00">Random::generate_vector</text>
</a>
</g>
</g>
<!-- Node2&#45;&gt;Node7 -->
<g id="edge7" class="edge">
<title>Node2&#45;&gt;Node7</title>
<path fill="none" stroke="midnightblue" d="M235.59,-240.64C256.35,-249.02 287.81,-261.04 316,-269 325.54,-271.69 335.73,-274.16 345.75,-276.36"/>
<polygon fill="midnightblue" stroke="midnightblue" points="345.18,-279.81 355.69,-278.46 346.63,-272.96 345.18,-279.81"/>
</g>
<!-- Node8 -->
<g id="node8" class="node">
<title>Node8</title>
<g id="a_node8"><a xlink:href="../../d2/d6e/namespaceMyBLAS.html#a092394bd4dee1886f97451d5918c0dce" target="_top" xlink:title="Computes the inner product of two matrices.">
<polygon fill="white" stroke="black" points="349,-240.5 349,-259.5 474,-259.5 474,-240.5 349,-240.5"/>
<text text-anchor="middle" x="411.5" y="-247.5" font-family="Helvetica,sans-Serif" font-size="10.00">MyBLAS::innerProduct</text>
</a>
</g>
</g>
<!-- Node2&#45;&gt;Node8 -->
<g id="edge10" class="edge">
<title>Node2&#45;&gt;Node8</title>
<path fill="none" stroke="midnightblue" d="M280.09,-237.49C298.98,-239.3 319.59,-241.28 338.72,-243.11"/>
<polygon fill="midnightblue" stroke="midnightblue" points="338.58,-246.61 348.87,-244.09 339.25,-239.65 338.58,-246.61"/>
</g>
<!-- Node2&#45;&gt;Node9 -->
<g id="edge11" class="edge">
<title>Node2&#45;&gt;Node9</title>
<path fill="none" stroke="midnightblue" d="M235.59,-221.36C256.35,-212.98 287.81,-200.96 316,-193 325.54,-190.31 335.73,-187.84 345.75,-185.64"/>
<polygon fill="midnightblue" stroke="midnightblue" points="346.63,-189.04 355.69,-183.54 345.18,-182.19 346.63,-189.04"/>
</g>
<!-- Node15 -->
<g id="node15" class="node">
<title>Node15</title>
<g id="a_node15"><a xlink:href="../../d2/d6e/namespaceMyBLAS.html#a95a31a537601936a645cd405411f3732" target="_top" xlink:title="Makes the given matrix diagonally dominant.">
<polygon fill="white" stroke="black" points="316,-202.5 316,-221.5 507,-221.5 507,-202.5 316,-202.5"/>
<text text-anchor="middle" x="411.5" y="-209.5" font-family="Helvetica,sans-Serif" font-size="10.00">MyBLAS::makeDiagonallyDominant</text>
</a>
</g>
</g>
<!-- Node2&#45;&gt;Node15 -->
<g id="edge18" class="edge">
<title>Node2&#45;&gt;Node15</title>
<path fill="none" stroke="midnightblue" d="M280.09,-224.51C288.38,-223.72 297,-222.89 305.68,-222.06"/>
<polygon fill="midnightblue" stroke="midnightblue" points="306.27,-225.52 315.89,-221.08 305.6,-218.55 306.27,-225.52"/>
</g>
<!-- Node4 -->
<g id="node4" class="node">
<title>Node4</title>
<g id="a_node4"><a xlink:href="../../dd/df5/namespaceMyBLAS_1_1Stats.html#a403bf760cf802cddf8dd73e5d3e46a05" target="_top" xlink:title="Function to find the maximum value in a vector.">
<polygon fill="white" stroke="black" points="553.5,-278.5 553.5,-297.5 669.5,-297.5 669.5,-278.5 553.5,-278.5"/>
<text text-anchor="middle" x="611.5" y="-285.5" font-family="Helvetica,sans-Serif" font-size="10.00">MyBLAS::Stats::max</text>
</a>
</g>
</g>
<!-- Node3&#45;&gt;Node4 -->
<g id="edge3" class="edge">
<title>Node3&#45;&gt;Node4</title>
<path fill="none" stroke="midnightblue" d="M462.21,-316.46C489.04,-311.31 522.36,-304.92 550.61,-299.49"/>
<polygon fill="midnightblue" stroke="midnightblue" points="551.61,-302.87 560.77,-297.54 550.29,-295.99 551.61,-302.87"/>
</g>
<!-- Node6 -->
<g id="node6" class="node">
<title>Node6</title>
<g id="a_node6"><a xlink:href="../../dd/df5/namespaceMyBLAS_1_1Stats.html#ac06efe71c44675ea021ddeb404d730dc" target="_top" xlink:title="Function to find the minimum value in a vector.">
<polygon fill="white" stroke="black" points="555,-316.5 555,-335.5 668,-335.5 668,-316.5 555,-316.5"/>
<text text-anchor="middle" x="611.5" y="-323.5" font-family="Helvetica,sans-Serif" font-size="10.00">MyBLAS::Stats::min</text>
</a>
</g>
</g>
<!-- Node3&#45;&gt;Node6 -->
<g id="edge5" class="edge">
<title>Node3&#45;&gt;Node6</title>
<path fill="none" stroke="midnightblue" d="M483.7,-326C503.62,-326 525.18,-326 544.77,-326"/>
<polygon fill="midnightblue" stroke="midnightblue" points="544.81,-329.5 554.81,-326 544.81,-322.5 544.81,-329.5"/>
</g>
<!-- Node5 -->
<g id="node5" class="node">
<title>Node5</title>
<g id="a_node5"><a xlink:href="../../d4/d4d/classMyBLAS_1_1Vector.html#a6188d71192e096e25ae1c1a46150a0ab" target="_top" xlink:title="Getter for the vector data.">
<polygon fill="white" stroke="black" points="718,-278.5 718,-297.5 857,-297.5 857,-278.5 718,-278.5"/>
<text text-anchor="middle" x="787.5" y="-285.5" font-family="Helvetica,sans-Serif" font-size="10.00">MyBLAS::Vector::getData</text>
</a>
</g>
</g>
<!-- Node4&#45;&gt;Node5 -->
<g id="edge4" class="edge">
<title>Node4&#45;&gt;Node5</title>
<path fill="none" stroke="midnightblue" d="M669.96,-288C682.06,-288 695.04,-288 707.77,-288"/>
<polygon fill="midnightblue" stroke="midnightblue" points="707.91,-291.5 717.91,-288 707.91,-284.5 707.91,-291.5"/>
</g>
<!-- Node6&#45;&gt;Node5 -->
<g id="edge6" class="edge">
<title>Node6&#45;&gt;Node5</title>
<path fill="none" stroke="midnightblue" d="M656.41,-316.41C679.68,-311.33 708.45,-305.04 733.02,-299.68"/>
<polygon fill="midnightblue" stroke="midnightblue" points="733.89,-303.07 742.91,-297.52 732.39,-296.23 733.89,-303.07"/>
</g>
<!-- Node7&#45;&gt;Node4 -->
<g id="edge8" class="edge">
<title>Node7&#45;&gt;Node4</title>
<path fill="none" stroke="midnightblue" d="M483.14,-288C502.63,-288 523.72,-288 543.02,-288"/>
<polygon fill="midnightblue" stroke="midnightblue" points="543.24,-291.5 553.24,-288 543.24,-284.5 543.24,-291.5"/>
</g>
<!-- Node7&#45;&gt;Node6 -->
<g id="edge9" class="edge">
<title>Node7&#45;&gt;Node6</title>
<path fill="none" stroke="midnightblue" d="M462.21,-297.54C489.04,-302.69 522.36,-309.08 550.61,-314.51"/>
<polygon fill="midnightblue" stroke="midnightblue" points="550.29,-318.01 560.77,-316.46 551.61,-311.13 550.29,-318.01"/>
</g>
<!-- Node10 -->
<g id="node10" class="node">
<title>Node10</title>
<g id="a_node10"><a xlink:href="../../de/d4d/namespaceMyMath.html#a65264d3fe16d8278498a14fc821b438a" target="_top" xlink:title="A template function to calculate the absolute value of a number.">
<polygon fill="white" stroke="black" points="571.5,-180.5 571.5,-199.5 651.5,-199.5 651.5,-180.5 571.5,-180.5"/>
<text text-anchor="middle" x="611.5" y="-187.5" font-family="Helvetica,sans-Serif" font-size="10.00">MyMath::abs</text>
</a>
</g>
</g>
<!-- Node9&#45;&gt;Node10 -->
<g id="edge12" class="edge">
<title>Node9&#45;&gt;Node10</title>
<path fill="none" stroke="midnightblue" d="M497.62,-180.88C519.39,-182.64 542.07,-184.47 561.34,-186.03"/>
<polygon fill="midnightblue" stroke="midnightblue" points="561.12,-189.52 571.37,-186.84 561.69,-182.54 561.12,-189.52"/>
</g>
<!-- Node9&#45;&gt;Node11 -->
<g id="edge13" class="edge">
<title>Node9&#45;&gt;Node11</title>
<path fill="none" stroke="midnightblue" d="M475.91,-164.44C486.48,-161.95 497.18,-158.85 507,-155 524.46,-148.16 525.81,-140.5 543,-133 548.36,-130.66 554.09,-128.53 559.85,-126.61"/>
<polygon fill="midnightblue" stroke="midnightblue" points="561.04,-129.91 569.54,-123.59 558.95,-123.23 561.04,-129.91"/>
</g>
<!-- Node14 -->
<g id="node14" class="node">
<title>Node14</title>
<g id="a_node14"><a xlink:href="../../dd/df5/namespaceMyBLAS_1_1Stats.html#aaa0d2e3d22af2b7894169b7c90ba6146" target="_top" xlink:title="Function to find the sum of all elements in a vector.">
<polygon fill="white" stroke="black" points="554,-142.5 554,-161.5 669,-161.5 669,-142.5 554,-142.5"/>
<text text-anchor="middle" x="611.5" y="-149.5" font-family="Helvetica,sans-Serif" font-size="10.00">MyBLAS::Stats::sum</text>
</a>
</g>
</g>
<!-- Node9&#45;&gt;Node14 -->
<g id="edge16" class="edge">
<title>Node9&#45;&gt;Node14</title>
<path fill="none" stroke="midnightblue" d="M497.62,-164.54C513.03,-162.83 528.91,-161.07 543.7,-159.42"/>
<polygon fill="midnightblue" stroke="midnightblue" points="544.2,-162.89 553.75,-158.31 543.43,-155.93 544.2,-162.89"/>
</g>
<!-- Node12 -->
<g id="node12" class="node">
<title>Node12</title>
<g id="a_node12"><a xlink:href="../../d0/d27/classMyBLAS_1_1Matrix.html#a720cd9095d330d43de367bfbffffb864" target="_top" xlink:title="Getter for the number of columns in the matrix.">
<polygon fill="white" stroke="black" points="719,-104.5 719,-123.5 856,-123.5 856,-104.5 719,-104.5"/>
<text text-anchor="middle" x="787.5" y="-111.5" font-family="Helvetica,sans-Serif" font-size="10.00">MyBLAS::Matrix::getCols</text>
</a>
</g>
</g>
<!-- Node11&#45;&gt;Node12 -->
<g id="edge14" class="edge">
<title>Node11&#45;&gt;Node12</title>
<path fill="none" stroke="midnightblue" d="M680.27,-114C689.59,-114 699.22,-114 708.7,-114"/>
<polygon fill="midnightblue" stroke="midnightblue" points="708.91,-117.5 718.91,-114 708.91,-110.5 708.91,-117.5"/>
</g>
<!-- Node13 -->
<g id="node13" class="node">
<title>Node13</title>
<g id="a_node13"><a xlink:href="../../d0/d27/classMyBLAS_1_1Matrix.html#a0772df3e76eadc9035e847316de0d249" target="_top" xlink:title="Getter for the number of rows in the matrix.">
<polygon fill="white" stroke="black" points="716,-180.5 716,-199.5 859,-199.5 859,-180.5 716,-180.5"/>
<text text-anchor="middle" x="787.5" y="-187.5" font-family="Helvetica,sans-Serif" font-size="10.00">MyBLAS::Matrix::getRows</text>
</a>
</g>
</g>
<!-- Node11&#45;&gt;Node13 -->
<g id="edge15" class="edge">
<title>Node11&#45;&gt;Node13</title>
<path fill="none" stroke="midnightblue" d="M651.89,-123.54C661.24,-126.22 671.08,-129.41 680,-133 709.48,-144.88 741.39,-162.67 762.51,-175.21"/>
<polygon fill="midnightblue" stroke="midnightblue" points="760.76,-178.24 771.14,-180.4 764.37,-172.25 760.76,-178.24"/>
</g>
<!-- Node14&#45;&gt;Node5 -->
<g id="edge17" class="edge">
<title>Node14&#45;&gt;Node5</title>
<path fill="none" stroke="midnightblue" d="M659.69,-161.61C666.78,-164.08 673.79,-167.16 680,-171 682.82,-172.74 741.78,-238.2 770.74,-270.43"/>
<polygon fill="midnightblue" stroke="midnightblue" points="768.43,-273.11 777.72,-278.21 773.64,-268.43 768.43,-273.11"/>
</g>
<!-- Node15&#45;&gt;Node10 -->
<g id="edge19" class="edge">
<title>Node15&#45;&gt;Node10</title>
<path fill="none" stroke="midnightblue" d="M498.19,-202.48C519.81,-200.08 542.29,-197.58 561.41,-195.45"/>
<polygon fill="midnightblue" stroke="midnightblue" points="561.81,-198.93 571.36,-194.35 561.04,-191.97 561.81,-198.93"/>
</g>
<!-- Node15&#45;&gt;Node13 -->
<g id="edge20" class="edge">
<title>Node15&#45;&gt;Node13</title>
<path fill="none" stroke="midnightblue" d="M507.1,-214.74C558.37,-215.27 622.78,-214.39 680,-209 697.19,-207.38 715.76,-204.48 732.52,-201.42"/>
<polygon fill="midnightblue" stroke="midnightblue" points="733.5,-204.79 742.68,-199.5 732.21,-197.91 733.5,-204.79"/>
</g>
<!-- Node16&#45;&gt;Node11 -->
<g id="edge23" class="edge">
<title>Node16&#45;&gt;Node11</title>
<path fill="none" stroke="midnightblue" d="M486.23,-100.19C501.47,-101.89 517.57,-103.67 532.94,-105.38"/>
<polygon fill="midnightblue" stroke="midnightblue" points="532.6,-108.87 542.93,-106.49 533.37,-101.91 532.6,-108.87"/>
</g>
<!-- Node16&#45;&gt;Node14 -->
<g id="edge25" class="edge">
<title>Node16&#45;&gt;Node14</title>
<path fill="none" stroke="midnightblue" d="M474.95,-107.01C485.73,-110.03 496.75,-113.39 507,-117 523.52,-122.81 526.53,-127.06 543,-133 549.46,-135.33 556.36,-137.56 563.18,-139.61"/>
<polygon fill="midnightblue" stroke="midnightblue" points="562.48,-143.06 573.06,-142.5 564.44,-136.34 562.48,-143.06"/>
</g>
<!-- Node17 -->
<g id="node17" class="node">
<title>Node17</title>
<g id="a_node17"><a xlink:href="../../dd/dd7/plot__points_8m.html#a07ca9f04874775e798496347c3e80b84" target="_top" xlink:title=" ">
<polygon fill="white" stroke="black" points="597,-66.5 597,-85.5 626,-85.5 626,-66.5 597,-66.5"/>
<text text-anchor="middle" x="611.5" y="-73.5" font-family="Helvetica,sans-Serif" font-size="10.00">L</text>
</a>
</g>
</g>
<!-- Node16&#45;&gt;Node17 -->
<g id="edge24" class="edge">
<title>Node16&#45;&gt;Node17</title>
<path fill="none" stroke="midnightblue" d="M486.23,-86.04C521.7,-83.18 561.8,-79.94 586.62,-77.93"/>
<polygon fill="midnightblue" stroke="midnightblue" points="587.2,-81.39 596.88,-77.1 586.63,-74.42 587.2,-81.39"/>
</g>
<!-- Node18&#45;&gt;Node10 -->
<g id="edge28" class="edge">
<title>Node18&#45;&gt;Node10</title>
<path fill="none" stroke="midnightblue" d="M470.24,-145.51C482.5,-148.11 495.28,-151.27 507,-155 523.68,-160.31 526.53,-165.06 543,-171 549.46,-173.33 556.36,-175.56 563.18,-177.61"/>
<polygon fill="midnightblue" stroke="midnightblue" points="562.48,-181.06 573.06,-180.5 564.44,-174.34 562.48,-181.06"/>
</g>
<!-- Node18&#45;&gt;Node11 -->
<g id="edge29" class="edge">
<title>Node18&#45;&gt;Node11</title>
<path fill="none" stroke="midnightblue" d="M489.62,-127.43C503.77,-125.86 518.56,-124.22 532.73,-122.64"/>
<polygon fill="midnightblue" stroke="midnightblue" points="533.37,-126.09 542.93,-121.51 532.6,-119.13 533.37,-126.09"/>
</g>
</g>
</svg>
