<?xml version="1.0" encoding="UTF-8" standalone="no"?>
<!DOCTYPE svg PUBLIC "-//W3C//DTD SVG 1.1//EN"
 "http://www.w3.org/Graphics/SVG/1.1/DTD/svg11.dtd">
<!-- Generated by graphviz version 2.43.0 (0)
 -->
<!-- Title: Parser::buildInputs Pages: 1 -->
<!--zoomable 431 -->
<svg id="main" version="1.1" xmlns="http://www.w3.org/2000/svg" xmlns:xlink="http://www.w3.org/1999/xlink" xml:space="preserve" onload="init(evt)">
<style type="text/css"><![CDATA[
.edge:hover path { stroke: red; }
.edge:hover polygon { stroke: red; fill: red; }
]]></style>
<script type="text/javascript"><![CDATA[
var edges = document.getElementsByTagName('g');
if (edges && edges.length) {
  for (var i=0;i<edges.length;i++) {
    if (edges[i].id.substr(0,4)=='edge') {
      edges[i].setAttribute('class','edge');
    }
  }
}
]]></script>
        <defs>
                <circle id="rim" cx="0" cy="0" r="7"/>
                <circle id="rim2" cx="0" cy="0" r="3.5"/>
                <g id="zoomPlus">
                        <use xlink:href="#rim" fill="#404040">
                                <set attributeName="fill" to="#808080" begin="zoomplus.mouseover" end="zoomplus.mouseout"/>
                        </use>
                        <path d="M-4,0h8M0,-4v8" fill="none" stroke="white" stroke-width="1.5" pointer-events="none"/>
                </g>
                <g id="zoomMin">
                        <use xlink:href="#rim" fill="#404040">
                                <set attributeName="fill" to="#808080" begin="zoomminus.mouseover" end="zoomminus.mouseout"/>
                        </use>
                        <path d="M-4,0h8" fill="none" stroke="white" stroke-width="1.5" pointer-events="none"/>
                </g>
                <g id="dirArrow">
                        <path fill="none" stroke="white" stroke-width="1.5" d="M0,-3.0v7 M-2.5,-0.5L0,-3.0L2.5,-0.5"/>
                </g>
               <g id="resetDef">
                       <use xlink:href="#rim2" fill="#404040">
                               <set attributeName="fill" to="#808080" begin="reset.mouseover" end="reset.mouseout"/>
                       </use>
               </g>
        </defs>

<script type="text/javascript">
var viewWidth = 891;
var viewHeight = 431;
var sectionId = 'dynsection-7';
</script>
<script xlink:href="../../svgpan.js"/>
<svg id="graph" class="graph">
<g id="viewport">
<title>Parser::buildInputs</title>
<polygon fill="white" stroke="transparent" points="-4,4 -4,-427 887,-427 887,4 -4,4"/>
<!-- Node1 -->
<g id="node1" class="node">
<title>Node1</title>
<g id="a_node1"><a xlink:title="Builds the input matrices for the MyBLAS library from a JSON file.">
<polygon fill="#bfbfbf" stroke="black" points="0,-156.5 0,-175.5 107,-175.5 107,-156.5 0,-156.5"/>
<text text-anchor="middle" x="53.5" y="-163.5" font-family="Helvetica,sans-Serif" font-size="10.00">Parser::buildInputs</text>
</a>
</g>
</g>
<!-- Node2 -->
<g id="node2" class="node">
<title>Node2</title>
<g id="a_node2"><a xlink:href="../../d5/d7a/namespaceMyBLAS_1_1System.html#a487070ac751d33afa7f9fceaef312ea0" target="_top" xlink:title="This function generates a circuit with random resistances and currents, and computes the correspondin...">
<polygon fill="white" stroke="black" points="155,-175.5 155,-194.5 292,-194.5 292,-175.5 155,-175.5"/>
<text text-anchor="middle" x="223.5" y="-182.5" font-family="Helvetica,sans-Serif" font-size="10.00">MyBLAS::System::Circuit</text>
</a>
</g>
</g>
<!-- Node1&#45;&gt;Node2 -->
<g id="edge1" class="edge">
<title>Node1&#45;&gt;Node2</title>
<path fill="none" stroke="midnightblue" d="M107.2,-171.96C119.12,-173.31 132.02,-174.77 144.73,-176.2"/>
<polygon fill="midnightblue" stroke="midnightblue" points="144.53,-179.7 154.86,-177.35 145.32,-172.75 144.53,-179.7"/>
</g>
<!-- Node3 -->
<g id="node3" class="node">
<title>Node3</title>
<g id="a_node3"><a xlink:href="../../d6/d03/namespaceRandom.html#a26c3caf157a29ac9d9227ec40248c845" target="_top" xlink:title="Generates a vector of random numbers.">
<polygon fill="white" stroke="black" points="382,-365.5 382,-384.5 489,-384.5 489,-365.5 382,-365.5"/>
<text text-anchor="middle" x="435.5" y="-372.5" font-family="Helvetica,sans-Serif" font-size="10.00">Random::generate</text>
</a>
</g>
</g>
<!-- Node1&#45;&gt;Node3 -->
<g id="edge24" class="edge">
<title>Node1&#45;&gt;Node3</title>
<path fill="none" stroke="midnightblue" d="M55.8,-175.81C60.57,-207.54 80.26,-307.77 143,-351 212.12,-398.63 313.51,-394.76 376.68,-386.03"/>
<polygon fill="midnightblue" stroke="midnightblue" points="377.48,-389.45 386.86,-384.54 376.46,-382.53 377.48,-389.45"/>
</g>
<!-- Node6 -->
<g id="node6" class="node">
<title>Node6</title>
<g id="a_node6"><a xlink:href="../../d4/d4d/classMyBLAS_1_1Vector.html#aae30f8178e4a34d332317c61e77c147a" target="_top" xlink:title="Getter for the size of the vector.">
<polygon fill="white" stroke="black" points="752,-336.5 752,-355.5 871,-355.5 871,-336.5 752,-336.5"/>
<text text-anchor="middle" x="811.5" y="-343.5" font-family="Helvetica,sans-Serif" font-size="10.00">MyBLAS::Vector::size</text>
</a>
</g>
</g>
<!-- Node1&#45;&gt;Node6 -->
<g id="edge30" class="edge">
<title>Node1&#45;&gt;Node6</title>
<path fill="none" stroke="midnightblue" d="M63.27,-175.58C78.09,-191.12 109.73,-221.65 143,-237 345.99,-330.69 616.26,-345.31 741.45,-346.65"/>
<polygon fill="midnightblue" stroke="midnightblue" points="741.63,-350.15 751.66,-346.74 741.69,-343.15 741.63,-350.15"/>
</g>
<!-- Node10 -->
<g id="node10" class="node">
<title>Node10</title>
<g id="a_node10"><a xlink:href="../../d0/d27/classMyBLAS_1_1Matrix.html#a0772df3e76eadc9035e847316de0d249" target="_top" xlink:title="Getter for the number of rows in the matrix.">
<polygon fill="white" stroke="black" points="740,-156.5 740,-175.5 883,-175.5 883,-156.5 740,-156.5"/>
<text text-anchor="middle" x="811.5" y="-163.5" font-family="Helvetica,sans-Serif" font-size="10.00">MyBLAS::Matrix::getRows</text>
</a>
</g>
</g>
<!-- Node1&#45;&gt;Node10 -->
<g id="edge26" class="edge">
<title>Node1&#45;&gt;Node10</title>
<path fill="none" stroke="midnightblue" d="M73.39,-175.52C91.01,-184.06 118.23,-196.39 143,-204 308.63,-254.88 358.41,-257.34 531,-242 608.81,-235.08 629.12,-233.23 704,-211 731.37,-202.88 761.2,-189.89 782.3,-179.95"/>
<polygon fill="midnightblue" stroke="midnightblue" points="783.84,-183.1 791.35,-175.63 780.82,-176.78 783.84,-183.1"/>
</g>
<!-- Node13 -->
<g id="node13" class="node">
<title>Node13</title>
<g id="a_node13"><a xlink:href="../../d2/d6e/namespaceMyBLAS.html#adb9840781dcd1f2ff4a8c378b30434e0" target="_top" xlink:title="Checks if the given matrix is a square matrix.">
<polygon fill="white" stroke="black" points="567,-99.5 567,-118.5 704,-118.5 704,-99.5 567,-99.5"/>
<text text-anchor="middle" x="635.5" y="-106.5" font-family="Helvetica,sans-Serif" font-size="10.00">MyBLAS::isSquareMatrix</text>
</a>
</g>
</g>
<!-- Node1&#45;&gt;Node13 -->
<g id="edge27" class="edge">
<title>Node1&#45;&gt;Node13</title>
<path fill="none" stroke="midnightblue" d="M107.25,-160.82C209.82,-150.74 436.56,-128.45 556.54,-116.66"/>
<polygon fill="midnightblue" stroke="midnightblue" points="557.14,-120.12 566.75,-115.66 556.46,-113.15 557.14,-120.12"/>
</g>
<!-- Node16 -->
<g id="node16" class="node">
<title>Node16</title>
<g id="a_node16"><a xlink:href="../../dd/d02/classCommandLine.html#a6a94f5e16b2081e769567d3790b6d8ec" target="_top" xlink:title="Method to get the current precision.">
<polygon fill="white" stroke="black" points="143,-88 143,-118 304,-118 304,-88 143,-88"/>
<text text-anchor="start" x="151" y="-106" font-family="Helvetica,sans-Serif" font-size="10.00">CommandLine&lt; InLab6Inputs</text>
<text text-anchor="middle" x="223.5" y="-95" font-family="Helvetica,sans-Serif" font-size="10.00"> &gt;::getCurrentPrecision</text>
</a>
</g>
</g>
<!-- Node1&#45;&gt;Node16 -->
<g id="edge25" class="edge">
<title>Node1&#45;&gt;Node16</title>
<path fill="none" stroke="midnightblue" d="M80.02,-156.43C104.53,-147.24 142.25,-133.1 172.71,-121.67"/>
<polygon fill="midnightblue" stroke="midnightblue" points="174.19,-124.85 182.33,-118.07 171.73,-118.3 174.19,-124.85"/>
</g>
<!-- Node17 -->
<g id="node17" class="node">
<title>Node17</title>
<g id="a_node17"><a xlink:href="../../dd/d02/classCommandLine.html#a7001590923e6bfdf380448136b8e65bd" target="_top" xlink:title="Method to print a line to the console. This method prints a line of dashes to the console.">
<polygon fill="white" stroke="black" points="143,-39 143,-69 304,-69 304,-39 143,-39"/>
<text text-anchor="start" x="151" y="-57" font-family="Helvetica,sans-Serif" font-size="10.00">CommandLine&lt; InLab6Inputs</text>
<text text-anchor="middle" x="223.5" y="-46" font-family="Helvetica,sans-Serif" font-size="10.00"> &gt;::printLine</text>
</a>
</g>
</g>
<!-- Node1&#45;&gt;Node17 -->
<g id="edge28" class="edge">
<title>Node1&#45;&gt;Node17</title>
<path fill="none" stroke="midnightblue" d="M61.63,-156.25C75.36,-138.16 107.27,-99.31 143,-78 145.85,-76.3 148.83,-74.71 151.89,-73.23"/>
<polygon fill="midnightblue" stroke="midnightblue" points="153.54,-76.33 161.28,-69.09 150.71,-69.92 153.54,-76.33"/>
</g>
<!-- Node18 -->
<g id="node18" class="node">
<title>Node18</title>
<g id="a_node18"><a xlink:href="../../d7/de4/FileParser_8h.html#a05aeb46aa7f312dd74467464305b1a5b" target="_top" xlink:title="Reads a JSON file and stores the data in a JSON object.">
<polygon fill="white" stroke="black" points="192.5,-0.5 192.5,-19.5 254.5,-19.5 254.5,-0.5 192.5,-0.5"/>
<text text-anchor="middle" x="223.5" y="-7.5" font-family="Helvetica,sans-Serif" font-size="10.00">readJSON</text>
</a>
</g>
</g>
<!-- Node1&#45;&gt;Node18 -->
<g id="edge29" class="edge">
<title>Node1&#45;&gt;Node18</title>
<path fill="none" stroke="midnightblue" d="M57.86,-156.22C67.1,-130.87 95.39,-62.7 143,-29 154.45,-20.9 168.9,-16.22 182.33,-13.53"/>
<polygon fill="midnightblue" stroke="midnightblue" points="183.07,-16.96 192.34,-11.84 181.9,-10.05 183.07,-16.96"/>
</g>
<!-- Node2&#45;&gt;Node3 -->
<g id="edge2" class="edge">
<title>Node2&#45;&gt;Node3</title>
<path fill="none" stroke="midnightblue" d="M235.2,-194.68C268.97,-225.24 373.57,-319.87 416.17,-358.41"/>
<polygon fill="midnightblue" stroke="midnightblue" points="414.06,-361.22 423.82,-365.34 418.75,-356.03 414.06,-361.22"/>
</g>
<!-- Node8 -->
<g id="node8" class="node">
<title>Node8</title>
<g id="a_node8"><a xlink:href="../../d2/d6e/namespaceMyBLAS.html#ad7773b2c0d8c2fea46841a6522f483f5" target="_top" xlink:title="Computes the inner product of two matrices.">
<polygon fill="white" stroke="black" points="573,-61.5 573,-80.5 698,-80.5 698,-61.5 573,-61.5"/>
<text text-anchor="middle" x="635.5" y="-68.5" font-family="Helvetica,sans-Serif" font-size="10.00">MyBLAS::innerProduct</text>
</a>
</g>
</g>
<!-- Node2&#45;&gt;Node8 -->
<g id="edge9" class="edge">
<title>Node2&#45;&gt;Node8</title>
<path fill="none" stroke="midnightblue" d="M258.75,-175.48C332.84,-154.88 507.92,-106.2 590.25,-83.3"/>
<polygon fill="midnightblue" stroke="midnightblue" points="591.36,-86.63 600.06,-80.58 589.49,-79.88 591.36,-86.63"/>
</g>
<!-- Node11 -->
<g id="node11" class="node">
<title>Node11</title>
<g id="a_node11"><a xlink:href="../../d2/d6e/namespaceMyBLAS.html#a4c6e919f9667070f40bd837a5f6bcab6" target="_top" xlink:title="Checks if the given matrix is diagonally dominant.">
<polygon fill="white" stroke="black" points="349.5,-175.5 349.5,-194.5 521.5,-194.5 521.5,-175.5 349.5,-175.5"/>
<text text-anchor="middle" x="435.5" y="-182.5" font-family="Helvetica,sans-Serif" font-size="10.00">MyBLAS::isDiagonallyDominant</text>
</a>
</g>
</g>
<!-- Node2&#45;&gt;Node11 -->
<g id="edge12" class="edge">
<title>Node2&#45;&gt;Node11</title>
<path fill="none" stroke="midnightblue" d="M292.1,-185C307.05,-185 323.17,-185 338.99,-185"/>
<polygon fill="midnightblue" stroke="midnightblue" points="339.33,-188.5 349.33,-185 339.33,-181.5 339.33,-188.5"/>
</g>
<!-- Node14 -->
<g id="node14" class="node">
<title>Node14</title>
<g id="a_node14"><a xlink:href="../../d2/d6e/namespaceMyBLAS.html#a95a31a537601936a645cd405411f3732" target="_top" xlink:title="Makes the given matrix diagonally dominant.">
<polygon fill="white" stroke="black" points="340,-213.5 340,-232.5 531,-232.5 531,-213.5 340,-213.5"/>
<text text-anchor="middle" x="435.5" y="-220.5" font-family="Helvetica,sans-Serif" font-size="10.00">MyBLAS::makeDiagonallyDominant</text>
</a>
</g>
</g>
<!-- Node2&#45;&gt;Node14 -->
<g id="edge20" class="edge">
<title>Node2&#45;&gt;Node14</title>
<path fill="none" stroke="midnightblue" d="M277.22,-194.54C305.93,-199.73 341.64,-206.2 371.77,-211.65"/>
<polygon fill="midnightblue" stroke="midnightblue" points="371.29,-215.12 381.76,-213.46 372.54,-208.23 371.29,-215.12"/>
</g>
<!-- Node4 -->
<g id="node4" class="node">
<title>Node4</title>
<g id="a_node4"><a xlink:href="../../d2/d6e/namespaceMyBLAS.html#a990467e8430064e652754897d099b7bf" target="_top" xlink:title="Calculates the maximum value of the vector.">
<polygon fill="white" stroke="black" points="593,-365.5 593,-384.5 678,-384.5 678,-365.5 593,-365.5"/>
<text text-anchor="middle" x="635.5" y="-372.5" font-family="Helvetica,sans-Serif" font-size="10.00">MyBLAS::max</text>
</a>
</g>
</g>
<!-- Node3&#45;&gt;Node4 -->
<g id="edge3" class="edge">
<title>Node3&#45;&gt;Node4</title>
<path fill="none" stroke="midnightblue" d="M489.04,-375C517.92,-375 553.61,-375 582.42,-375"/>
<polygon fill="midnightblue" stroke="midnightblue" points="582.69,-378.5 592.69,-375 582.69,-371.5 582.69,-378.5"/>
</g>
<!-- Node7 -->
<g id="node7" class="node">
<title>Node7</title>
<g id="a_node7"><a xlink:href="../../d2/d6e/namespaceMyBLAS.html#a50834683eb1a4cb5adbe71091be113c7" target="_top" xlink:title="Calculates the minimum value of the vector.">
<polygon fill="white" stroke="black" points="594.5,-403.5 594.5,-422.5 676.5,-422.5 676.5,-403.5 594.5,-403.5"/>
<text text-anchor="middle" x="635.5" y="-410.5" font-family="Helvetica,sans-Serif" font-size="10.00">MyBLAS::min</text>
</a>
</g>
</g>
<!-- Node3&#45;&gt;Node7 -->
<g id="edge6" class="edge">
<title>Node3&#45;&gt;Node7</title>
<path fill="none" stroke="midnightblue" d="M486.21,-384.54C516.26,-390.31 554.45,-397.64 584.55,-403.41"/>
<polygon fill="midnightblue" stroke="midnightblue" points="583.94,-406.86 594.42,-405.31 585.26,-399.99 583.94,-406.86"/>
</g>
<!-- Node5 -->
<g id="node5" class="node">
<title>Node5</title>
<g id="a_node5"><a xlink:href="../../d4/d4d/classMyBLAS_1_1Vector.html#a6188d71192e096e25ae1c1a46150a0ab" target="_top" xlink:title="Getter for the vector data.">
<polygon fill="white" stroke="black" points="742,-393.5 742,-412.5 881,-412.5 881,-393.5 742,-393.5"/>
<text text-anchor="middle" x="811.5" y="-400.5" font-family="Helvetica,sans-Serif" font-size="10.00">MyBLAS::Vector::getData</text>
</a>
</g>
</g>
<!-- Node4&#45;&gt;Node5 -->
<g id="edge4" class="edge">
<title>Node4&#45;&gt;Node5</title>
<path fill="none" stroke="midnightblue" d="M678.18,-381.71C697.1,-384.75 719.99,-388.43 741.37,-391.88"/>
<polygon fill="midnightblue" stroke="midnightblue" points="740.97,-395.36 751.4,-393.49 742.08,-388.44 740.97,-395.36"/>
</g>
<!-- Node4&#45;&gt;Node6 -->
<g id="edge5" class="edge">
<title>Node4&#45;&gt;Node6</title>
<path fill="none" stroke="midnightblue" d="M678.18,-368.05C697.71,-364.8 721.46,-360.84 743.43,-357.18"/>
<polygon fill="midnightblue" stroke="midnightblue" points="744.09,-360.62 753.38,-355.52 742.94,-353.71 744.09,-360.62"/>
</g>
<!-- Node7&#45;&gt;Node5 -->
<g id="edge7" class="edge">
<title>Node7&#45;&gt;Node5</title>
<path fill="none" stroke="midnightblue" d="M676.86,-410.68C693.2,-409.74 712.65,-408.62 731.59,-407.54"/>
<polygon fill="midnightblue" stroke="midnightblue" points="731.95,-411.02 741.73,-406.95 731.55,-404.03 731.95,-411.02"/>
</g>
<!-- Node7&#45;&gt;Node6 -->
<g id="edge8" class="edge">
<title>Node7&#45;&gt;Node6</title>
<path fill="none" stroke="midnightblue" d="M674.31,-403.43C684.07,-400.67 694.5,-397.45 704,-394 731.27,-384.08 761.33,-370.25 782.54,-359.99"/>
<polygon fill="midnightblue" stroke="midnightblue" points="784.17,-363.08 791.62,-355.55 781.1,-356.8 784.17,-363.08"/>
</g>
<!-- Node9 -->
<g id="node9" class="node">
<title>Node9</title>
<g id="a_node9"><a xlink:href="../../d0/d27/classMyBLAS_1_1Matrix.html#a720cd9095d330d43de367bfbffffb864" target="_top" xlink:title="Getter for the number of columns in the matrix.">
<polygon fill="white" stroke="black" points="743,-99.5 743,-118.5 880,-118.5 880,-99.5 743,-99.5"/>
<text text-anchor="middle" x="811.5" y="-106.5" font-family="Helvetica,sans-Serif" font-size="10.00">MyBLAS::Matrix::getCols</text>
</a>
</g>
</g>
<!-- Node8&#45;&gt;Node9 -->
<g id="edge10" class="edge">
<title>Node8&#45;&gt;Node9</title>
<path fill="none" stroke="midnightblue" d="M680.41,-80.59C703.68,-85.67 732.45,-91.96 757.02,-97.32"/>
<polygon fill="midnightblue" stroke="midnightblue" points="756.39,-100.77 766.91,-99.48 757.89,-93.93 756.39,-100.77"/>
</g>
<!-- Node8&#45;&gt;Node10 -->
<g id="edge11" class="edge">
<title>Node8&#45;&gt;Node10</title>
<path fill="none" stroke="midnightblue" d="M683.26,-80.59C690.48,-83.07 697.64,-86.16 704,-90 723.91,-102.03 721.53,-113.86 740,-128 751.97,-137.16 766.43,-145.37 779.14,-151.8"/>
<polygon fill="midnightblue" stroke="midnightblue" points="777.93,-155.1 788.45,-156.36 781,-148.82 777.93,-155.1"/>
</g>
<!-- Node11&#45;&gt;Node10 -->
<g id="edge16" class="edge">
<title>Node11&#45;&gt;Node10</title>
<path fill="none" stroke="midnightblue" d="M521.83,-180.66C584.33,-177.49 668.58,-173.21 729.93,-170.09"/>
<polygon fill="midnightblue" stroke="midnightblue" points="730.14,-173.59 739.95,-169.58 729.79,-166.6 730.14,-173.59"/>
</g>
<!-- Node12 -->
<g id="node12" class="node">
<title>Node12</title>
<g id="a_node12"><a xlink:href="../../d2/d6e/namespaceMyBLAS.html#a6f970b1188ed02d14bee3698f1b9d40a" target="_top" xlink:title="Calculates the absolute value of the matrix.">
<polygon fill="white" stroke="black" points="595.5,-137.5 595.5,-156.5 675.5,-156.5 675.5,-137.5 595.5,-137.5"/>
<text text-anchor="middle" x="635.5" y="-144.5" font-family="Helvetica,sans-Serif" font-size="10.00">MyBLAS::abs</text>
</a>
</g>
</g>
<!-- Node11&#45;&gt;Node12 -->
<g id="edge13" class="edge">
<title>Node11&#45;&gt;Node12</title>
<path fill="none" stroke="midnightblue" d="M486.21,-175.46C516.57,-169.63 555.23,-162.21 585.47,-156.41"/>
<polygon fill="midnightblue" stroke="midnightblue" points="586.22,-159.83 595.38,-154.51 584.9,-152.96 586.22,-159.83"/>
</g>
<!-- Node11&#45;&gt;Node13 -->
<g id="edge17" class="edge">
<title>Node11&#45;&gt;Node13</title>
<path fill="none" stroke="midnightblue" d="M493.18,-175.43C506.07,-171.96 519.38,-167.28 531,-161 550.1,-150.68 548.04,-138.56 567,-128 571,-125.77 575.27,-123.79 579.66,-122.03"/>
<polygon fill="midnightblue" stroke="midnightblue" points="581.17,-125.21 589.39,-118.52 578.8,-118.62 581.17,-125.21"/>
</g>
<!-- Node12&#45;&gt;Node9 -->
<g id="edge14" class="edge">
<title>Node12&#45;&gt;Node9</title>
<path fill="none" stroke="midnightblue" d="M675.55,-138.47C699.63,-133.21 730.83,-126.4 757.17,-120.65"/>
<polygon fill="midnightblue" stroke="midnightblue" points="757.97,-124.05 767,-118.5 756.48,-117.22 757.97,-124.05"/>
</g>
<!-- Node12&#45;&gt;Node10 -->
<g id="edge15" class="edge">
<title>Node12&#45;&gt;Node10</title>
<path fill="none" stroke="midnightblue" d="M675.55,-151.26C691.6,-153.02 710.82,-155.12 729.65,-157.17"/>
<polygon fill="midnightblue" stroke="midnightblue" points="729.43,-160.67 739.75,-158.27 730.19,-153.71 729.43,-160.67"/>
</g>
<!-- Node13&#45;&gt;Node9 -->
<g id="edge18" class="edge">
<title>Node13&#45;&gt;Node9</title>
<path fill="none" stroke="midnightblue" d="M704.27,-109C713.59,-109 723.22,-109 732.7,-109"/>
<polygon fill="midnightblue" stroke="midnightblue" points="732.91,-112.5 742.91,-109 732.91,-105.5 732.91,-112.5"/>
</g>
<!-- Node13&#45;&gt;Node10 -->
<g id="edge19" class="edge">
<title>Node13&#45;&gt;Node10</title>
<path fill="none" stroke="midnightblue" d="M672.02,-118.51C682.37,-121.41 693.68,-124.71 704,-128 728.11,-135.68 754.94,-145.27 775.64,-152.88"/>
<polygon fill="midnightblue" stroke="midnightblue" points="774.68,-156.26 785.27,-156.45 777.11,-149.7 774.68,-156.26"/>
</g>
<!-- Node14&#45;&gt;Node10 -->
<g id="edge23" class="edge">
<title>Node14&#45;&gt;Node10</title>
<path fill="none" stroke="midnightblue" d="M521.67,-213.48C574.34,-207.19 643.27,-198.23 704,-188 721.66,-185.02 740.86,-181.23 758.03,-177.64"/>
<polygon fill="midnightblue" stroke="midnightblue" points="758.82,-181.05 767.88,-175.55 757.37,-174.2 758.82,-181.05"/>
</g>
<!-- Node15 -->
<g id="node15" class="node">
<title>Node15</title>
<g id="a_node15"><a xlink:href="../../d2/d6e/namespaceMyBLAS.html#a9db3b5457815887bf65b24bb4fe2937b" target="_top" xlink:title="Calculates the absolute value of the vector.">
<polygon fill="white" stroke="black" points="595.5,-289.5 595.5,-308.5 675.5,-308.5 675.5,-289.5 595.5,-289.5"/>
<text text-anchor="middle" x="635.5" y="-296.5" font-family="Helvetica,sans-Serif" font-size="10.00">MyBLAS::abs</text>
</a>
</g>
</g>
<!-- Node14&#45;&gt;Node15 -->
<g id="edge21" class="edge">
<title>Node14&#45;&gt;Node15</title>
<path fill="none" stroke="midnightblue" d="M461.58,-232.63C496.69,-246.1 560.62,-270.64 600.14,-285.81"/>
<polygon fill="midnightblue" stroke="midnightblue" points="599.04,-289.14 609.63,-289.45 601.55,-282.6 599.04,-289.14"/>
</g>
<!-- Node15&#45;&gt;Node6 -->
<g id="edge22" class="edge">
<title>Node15&#45;&gt;Node6</title>
<path fill="none" stroke="midnightblue" d="M671.71,-308.51C698.63,-315.78 735.94,-325.86 765.1,-333.74"/>
<polygon fill="midnightblue" stroke="midnightblue" points="764.48,-337.19 775.04,-336.42 766.3,-330.44 764.48,-337.19"/>
</g>
</g>
</svg>
        <g id="navigator" transform="translate(0 0)" fill="#404254">
                <rect fill="#f2f5e9" fill-opacity="0.5" stroke="#606060" stroke-width=".5" x="0" y="0" width="60" height="60"/>
                <use id="zoomplus" xlink:href="#zoomPlus" x="17" y="9" onmousedown="handleZoom(evt,'in')"/>
                <use id="zoomminus" xlink:href="#zoomMin" x="42" y="9" onmousedown="handleZoom(evt,'out')"/>
                <use id="reset" xlink:href="#resetDef" x="30" y="36" onmousedown="handleReset()"/>
                <g id="arrowUp" xlink:href="#dirArrow" transform="translate(30 24)" onmousedown="handlePan(0,-1)">
                  <use xlink:href="#rim" fill="#404040">
                        <set attributeName="fill" to="#808080" begin="arrowUp.mouseover" end="arrowUp.mouseout"/>
                  </use>
                  <path fill="none" stroke="white" stroke-width="1.5" d="M0,-3.0v7 M-2.5,-0.5L0,-3.0L2.5,-0.5"/>
                </g>
                <g id="arrowRight" xlink:href="#dirArrow" transform="rotate(90) translate(36 -43)" onmousedown="handlePan(1,0)">
                  <use xlink:href="#rim" fill="#404040">
                        <set attributeName="fill" to="#808080" begin="arrowRight.mouseover" end="arrowRight.mouseout"/>
                  </use>
                  <path fill="none" stroke="white" stroke-width="1.5" d="M0,-3.0v7 M-2.5,-0.5L0,-3.0L2.5,-0.5"/>
                </g>
                <g id="arrowDown" xlink:href="#dirArrow" transform="rotate(180) translate(-30 -48)" onmousedown="handlePan(0,1)">
                  <use xlink:href="#rim" fill="#404040">
                        <set attributeName="fill" to="#808080" begin="arrowDown.mouseover" end="arrowDown.mouseout"/>
                  </use>
                  <path fill="none" stroke="white" stroke-width="1.5" d="M0,-3.0v7 M-2.5,-0.5L0,-3.0L2.5,-0.5"/>
                </g>
                <g id="arrowLeft" xlink:href="#dirArrow" transform="rotate(270) translate(-36 17)" onmousedown="handlePan(-1,0)">
                  <use xlink:href="#rim" fill="#404040">
                        <set attributeName="fill" to="#808080" begin="arrowLeft.mouseover" end="arrowLeft.mouseout"/>
                  </use>
                  <path fill="none" stroke="white" stroke-width="1.5" d="M0,-3.0v7 M-2.5,-0.5L0,-3.0L2.5,-0.5"/>
                </g>
        </g>
        <svg viewBox="0 0 15 15" width="100%" height="30px" preserveAspectRatio="xMaxYMin meet">
         <g id="arrow_out" transform="scale(0.3 0.3)">
          <a xlink:href="classParser_a123dc1be35999de898396ade606098f6_cgraph_org.svg" target="_base">
           <rect id="button" ry="5" rx="5" y="6" x="6" height="38" width="38"
                fill="#f2f5e9" fill-opacity="0.5" stroke="#606060" stroke-width="1.0"/>
           <path id="arrow"
             d="M 11.500037,31.436501 C 11.940474,20.09759 22.043105,11.32322 32.158766,21.979434 L 37.068811,17.246167 C 37.068811,17.246167 37.088388,32 37.088388,32 L 22.160133,31.978069 C 22.160133,31.978069 26.997745,27.140456 26.997745,27.140456 C 18.528582,18.264221 13.291696,25.230495 11.500037,31.436501 z"
             style="fill:#404040;"/>
          </a>
         </g>
        </svg>
</svg>
