<?xml version="1.0" encoding="UTF-8" standalone="no"?>
<!DOCTYPE svg PUBLIC "-//W3C//DTD SVG 1.1//EN"
 "http://www.w3.org/Graphics/SVG/1.1/DTD/svg11.dtd">
<!-- Generated by graphviz version 2.43.0 (0)
 -->
<!-- Title: Parser::buildInputs Pages: 1 -->
<svg width="312pt" height="127pt"
 viewBox="0.00 0.00 312.00 126.50" xmlns="http://www.w3.org/2000/svg" xmlns:xlink="http://www.w3.org/1999/xlink">
<g id="graph0" class="graph" transform="scale(1 1) rotate(0) translate(4 122.5)">
<title>Parser::buildInputs</title>
<polygon fill="white" stroke="transparent" points="-4,4 -4,-122.5 308,-122.5 308,4 -4,4"/>
<!-- Node1 -->
<g id="node1" class="node">
<title>Node1</title>
<g id="a_node1"><a xlink:title="Builds the input matrices for the MyBLAS library from a JSON file.">
<polygon fill="#bfbfbf" stroke="black" points="0,-44.5 0,-63.5 107,-63.5 107,-44.5 0,-44.5"/>
<text text-anchor="middle" x="53.5" y="-51.5" font-family="Helvetica,sans-Serif" font-size="10.00">Parser::buildInputs</text>
</a>
</g>
</g>
<!-- Node2 -->
<g id="node2" class="node">
<title>Node2</title>
<g id="a_node2"><a xlink:href="../../dd/d02/classCommandLine.html#a6a94f5e16b2081e769567d3790b6d8ec" target="_top" xlink:title="Method to get the current precision.">
<polygon fill="white" stroke="black" points="143,-88 143,-118 304,-118 304,-88 143,-88"/>
<text text-anchor="start" x="151" y="-106" font-family="Helvetica,sans-Serif" font-size="10.00">CommandLine&lt; InLab6Inputs</text>
<text text-anchor="middle" x="223.5" y="-95" font-family="Helvetica,sans-Serif" font-size="10.00"> &gt;::getCurrentPrecision</text>
</a>
</g>
</g>
<!-- Node1&#45;&gt;Node2 -->
<g id="edge1" class="edge">
<title>Node1&#45;&gt;Node2</title>
<path fill="none" stroke="midnightblue" d="M87.29,-63.56C108.28,-69.69 136.17,-77.82 161.17,-85.11"/>
<polygon fill="midnightblue" stroke="midnightblue" points="160.36,-88.52 170.94,-87.96 162.32,-81.8 160.36,-88.52"/>
</g>
<!-- Node3 -->
<g id="node3" class="node">
<title>Node3</title>
<g id="a_node3"><a xlink:href="../../dd/d02/classCommandLine.html#a7001590923e6bfdf380448136b8e65bd" target="_top" xlink:title="Method to print a line to the console. This method prints a line of dashes to the console.">
<polygon fill="white" stroke="black" points="143,-39 143,-69 304,-69 304,-39 143,-39"/>
<text text-anchor="start" x="151" y="-57" font-family="Helvetica,sans-Serif" font-size="10.00">CommandLine&lt; InLab6Inputs</text>
<text text-anchor="middle" x="223.5" y="-46" font-family="Helvetica,sans-Serif" font-size="10.00"> &gt;::printLine</text>
</a>
</g>
</g>
<!-- Node1&#45;&gt;Node3 -->
<g id="edge2" class="edge">
<title>Node1&#45;&gt;Node3</title>
<path fill="none" stroke="midnightblue" d="M107.2,-54C115.36,-54 123.98,-54 132.68,-54"/>
<polygon fill="midnightblue" stroke="midnightblue" points="132.92,-57.5 142.92,-54 132.92,-50.5 132.92,-57.5"/>
</g>
<!-- Node4 -->
<g id="node4" class="node">
<title>Node4</title>
<g id="a_node4"><a xlink:href="../../d7/de4/FileParser_8h.html#a05aeb46aa7f312dd74467464305b1a5b" target="_top" xlink:title="Reads a JSON file and stores the data in a JSON object.">
<polygon fill="white" stroke="black" points="192.5,-0.5 192.5,-19.5 254.5,-19.5 254.5,-0.5 192.5,-0.5"/>
<text text-anchor="middle" x="223.5" y="-7.5" font-family="Helvetica,sans-Serif" font-size="10.00">readJSON</text>
</a>
</g>
</g>
<!-- Node1&#45;&gt;Node4 -->
<g id="edge3" class="edge">
<title>Node1&#45;&gt;Node4</title>
<path fill="none" stroke="midnightblue" d="M89.35,-44.39C105.63,-39.94 125.29,-34.63 143,-30 155.82,-26.65 169.83,-23.09 182.47,-19.92"/>
<polygon fill="midnightblue" stroke="midnightblue" points="183.41,-23.29 192.27,-17.47 181.72,-16.5 183.41,-23.29"/>
</g>
</g>
</svg>
