<?xml version="1.0" encoding="UTF-8" standalone="no"?>
<!DOCTYPE svg PUBLIC "-//W3C//DTD SVG 1.1//EN"
 "http://www.w3.org/Graphics/SVG/1.1/DTD/svg11.dtd">
<!-- Generated by graphviz version 2.43.0 (0)
 -->
<!-- Title: Parser::buildInputs Pages: 1 -->
<!--zoomable 355 -->
<svg id="main" version="1.1" xmlns="http://www.w3.org/2000/svg" xmlns:xlink="http://www.w3.org/1999/xlink" xml:space="preserve" onload="init(evt)">
<style type="text/css"><![CDATA[
.edge:hover path { stroke: red; }
.edge:hover polygon { stroke: red; fill: red; }
]]></style>
<script type="text/javascript"><![CDATA[
var edges = document.getElementsByTagName('g');
if (edges && edges.length) {
  for (var i=0;i<edges.length;i++) {
    if (edges[i].id.substr(0,4)=='edge') {
      edges[i].setAttribute('class','edge');
    }
  }
}
]]></script>
        <defs>
                <circle id="rim" cx="0" cy="0" r="7"/>
                <circle id="rim2" cx="0" cy="0" r="3.5"/>
                <g id="zoomPlus">
                        <use xlink:href="#rim" fill="#404040">
                                <set attributeName="fill" to="#808080" begin="zoomplus.mouseover" end="zoomplus.mouseout"/>
                        </use>
                        <path d="M-4,0h8M0,-4v8" fill="none" stroke="white" stroke-width="1.5" pointer-events="none"/>
                </g>
                <g id="zoomMin">
                        <use xlink:href="#rim" fill="#404040">
                                <set attributeName="fill" to="#808080" begin="zoomminus.mouseover" end="zoomminus.mouseout"/>
                        </use>
                        <path d="M-4,0h8" fill="none" stroke="white" stroke-width="1.5" pointer-events="none"/>
                </g>
                <g id="dirArrow">
                        <path fill="none" stroke="white" stroke-width="1.5" d="M0,-3.0v7 M-2.5,-0.5L0,-3.0L2.5,-0.5"/>
                </g>
               <g id="resetDef">
                       <use xlink:href="#rim2" fill="#404040">
                               <set attributeName="fill" to="#808080" begin="reset.mouseover" end="reset.mouseout"/>
                       </use>
               </g>
        </defs>

<script type="text/javascript">
var viewWidth = 891;
var viewHeight = 355;
var sectionId = 'dynsection-8';
</script>
<script xlink:href="../../svgpan.js"/>
<svg id="graph" class="graph">
<g id="viewport">
<title>Parser::buildInputs</title>
<polygon fill="white" stroke="transparent" points="-4,4 -4,-351 887,-351 887,4 -4,4"/>
<!-- Node1 -->
<g id="node1" class="node">
<title>Node1</title>
<g id="a_node1"><a xlink:title="Builds the input matrices for the MyBLAS library from a JSON file.">
<polygon fill="#bfbfbf" stroke="black" points="0,-93.5 0,-112.5 107,-112.5 107,-93.5 0,-93.5"/>
<text text-anchor="middle" x="53.5" y="-100.5" font-family="Helvetica,sans-Serif" font-size="10.00">Parser::buildInputs</text>
</a>
</g>
</g>
<!-- Node2 -->
<g id="node2" class="node">
<title>Node2</title>
<g id="a_node2"><a xlink:href="../../d5/d7a/namespaceMyBLAS_1_1System.html#a487070ac751d33afa7f9fceaef312ea0" target="_top" xlink:title="This function generates a circuit with random resistances and currents, and computes the correspondin...">
<polygon fill="white" stroke="black" points="155,-232.5 155,-251.5 292,-251.5 292,-232.5 155,-232.5"/>
<text text-anchor="middle" x="223.5" y="-239.5" font-family="Helvetica,sans-Serif" font-size="10.00">MyBLAS::System::Circuit</text>
</a>
</g>
</g>
<!-- Node1&#45;&gt;Node2 -->
<g id="edge1" class="edge">
<title>Node1&#45;&gt;Node2</title>
<path fill="none" stroke="midnightblue" d="M66.05,-112.55C94.34,-135.96 167.39,-196.4 202.74,-225.65"/>
<polygon fill="midnightblue" stroke="midnightblue" points="200.94,-228.7 210.87,-232.38 205.4,-223.31 200.94,-228.7"/>
</g>
<!-- Node11 -->
<g id="node11" class="node">
<title>Node11</title>
<g id="a_node11"><a xlink:href="../../d2/d6e/namespaceMyBLAS.html#a0b887e323f8337bd87ef20dff8af5c1f" target="_top" xlink:title="Checks if the given matrix is a square matrix.">
<polygon fill="white" stroke="black" points="567,-118.5 567,-137.5 704,-137.5 704,-118.5 567,-118.5"/>
<text text-anchor="middle" x="635.5" y="-125.5" font-family="Helvetica,sans-Serif" font-size="10.00">MyBLAS::isSquareMatrix</text>
</a>
</g>
</g>
<!-- Node1&#45;&gt;Node11 -->
<g id="edge22" class="edge">
<title>Node1&#45;&gt;Node11</title>
<path fill="none" stroke="midnightblue" d="M82.41,-112.59C99.64,-118.01 122.33,-124.23 143,-127 288.19,-146.49 459.68,-140.29 556.91,-134.09"/>
<polygon fill="midnightblue" stroke="midnightblue" points="557.19,-137.58 566.94,-133.43 556.74,-130.59 557.19,-137.58"/>
</g>
<!-- Node16 -->
<g id="node16" class="node">
<title>Node16</title>
<g id="a_node16"><a xlink:href="../../dd/d02/classCommandLine.html#a6a94f5e16b2081e769567d3790b6d8ec" target="_top" xlink:title="Method to get the current precision.">
<polygon fill="white" stroke="black" points="143,-88 143,-118 304,-118 304,-88 143,-88"/>
<text text-anchor="start" x="151" y="-106" font-family="Helvetica,sans-Serif" font-size="10.00">CommandLine&lt; InLab6Inputs</text>
<text text-anchor="middle" x="223.5" y="-95" font-family="Helvetica,sans-Serif" font-size="10.00"> &gt;::getCurrentPrecision</text>
</a>
</g>
</g>
<!-- Node1&#45;&gt;Node16 -->
<g id="edge21" class="edge">
<title>Node1&#45;&gt;Node16</title>
<path fill="none" stroke="midnightblue" d="M107.2,-103C115.36,-103 123.98,-103 132.68,-103"/>
<polygon fill="midnightblue" stroke="midnightblue" points="132.92,-106.5 142.92,-103 132.92,-99.5 132.92,-106.5"/>
</g>
<!-- Node17 -->
<g id="node17" class="node">
<title>Node17</title>
<g id="a_node17"><a xlink:href="../../dd/d02/classCommandLine.html#a7001590923e6bfdf380448136b8e65bd" target="_top" xlink:title="Method to print a line to the console. This method prints a line of dashes to the console.">
<polygon fill="white" stroke="black" points="143,-39 143,-69 304,-69 304,-39 143,-39"/>
<text text-anchor="start" x="151" y="-57" font-family="Helvetica,sans-Serif" font-size="10.00">CommandLine&lt; InLab6Inputs</text>
<text text-anchor="middle" x="223.5" y="-46" font-family="Helvetica,sans-Serif" font-size="10.00"> &gt;::printLine</text>
</a>
</g>
</g>
<!-- Node1&#45;&gt;Node17 -->
<g id="edge23" class="edge">
<title>Node1&#45;&gt;Node17</title>
<path fill="none" stroke="midnightblue" d="M87.29,-93.44C108.28,-87.31 136.17,-79.18 161.17,-71.89"/>
<polygon fill="midnightblue" stroke="midnightblue" points="162.32,-75.2 170.94,-69.04 160.36,-68.48 162.32,-75.2"/>
</g>
<!-- Node18 -->
<g id="node18" class="node">
<title>Node18</title>
<g id="a_node18"><a xlink:href="../../d7/de4/FileParser_8h.html#a05aeb46aa7f312dd74467464305b1a5b" target="_top" xlink:title="Reads a JSON file and stores the data in a JSON object.">
<polygon fill="white" stroke="black" points="192.5,-0.5 192.5,-19.5 254.5,-19.5 254.5,-0.5 192.5,-0.5"/>
<text text-anchor="middle" x="223.5" y="-7.5" font-family="Helvetica,sans-Serif" font-size="10.00">readJSON</text>
</a>
</g>
</g>
<!-- Node1&#45;&gt;Node18 -->
<g id="edge24" class="edge">
<title>Node1&#45;&gt;Node18</title>
<path fill="none" stroke="midnightblue" d="M63.03,-93.43C77.74,-77.55 109.53,-45.81 143,-29 155.11,-22.92 169.24,-18.73 182.21,-15.87"/>
<polygon fill="midnightblue" stroke="midnightblue" points="183.18,-19.24 192.29,-13.85 181.8,-12.38 183.18,-19.24"/>
</g>
<!-- Node3 -->
<g id="node3" class="node">
<title>Node3</title>
<g id="a_node3"><a xlink:href="../../d6/d03/namespaceRandom.html#a4895ec4a961ca014f3a4e1499f95cc8e" target="_top" xlink:title="Generates a matrix of random numbers.">
<polygon fill="white" stroke="black" points="363.5,-289.5 363.5,-308.5 507.5,-308.5 507.5,-289.5 363.5,-289.5"/>
<text text-anchor="middle" x="435.5" y="-296.5" font-family="Helvetica,sans-Serif" font-size="10.00">Random::generate_matrix</text>
</a>
</g>
</g>
<!-- Node2&#45;&gt;Node3 -->
<g id="edge2" class="edge">
<title>Node2&#45;&gt;Node3</title>
<path fill="none" stroke="midnightblue" d="M250.38,-251.5C273.62,-259.79 308.77,-271.76 340,-280 350.05,-282.65 360.8,-285.14 371.3,-287.38"/>
<polygon fill="midnightblue" stroke="midnightblue" points="370.76,-290.84 381.26,-289.45 372.19,-283.99 370.76,-290.84"/>
</g>
<!-- Node7 -->
<g id="node7" class="node">
<title>Node7</title>
<g id="a_node7"><a xlink:href="../../d6/d03/namespaceRandom.html#adfa5e70492a249fd39898582a640e5fb" target="_top" xlink:title="Generates a vector of random numbers.">
<polygon fill="white" stroke="black" points="364,-251.5 364,-270.5 507,-270.5 507,-251.5 364,-251.5"/>
<text text-anchor="middle" x="435.5" y="-258.5" font-family="Helvetica,sans-Serif" font-size="10.00">Random::generate_vector</text>
</a>
</g>
</g>
<!-- Node2&#45;&gt;Node7 -->
<g id="edge7" class="edge">
<title>Node2&#45;&gt;Node7</title>
<path fill="none" stroke="midnightblue" d="M292.1,-248.12C311.69,-249.89 333.28,-251.84 353.6,-253.68"/>
<polygon fill="midnightblue" stroke="midnightblue" points="353.5,-257.19 363.77,-254.6 354.13,-250.21 353.5,-257.19"/>
</g>
<!-- Node8 -->
<g id="node8" class="node">
<title>Node8</title>
<g id="a_node8"><a xlink:href="../../d2/d6e/namespaceMyBLAS.html#a092394bd4dee1886f97451d5918c0dce" target="_top" xlink:title="Computes the inner product of two matrices.">
<polygon fill="white" stroke="black" points="373,-327.5 373,-346.5 498,-346.5 498,-327.5 373,-327.5"/>
<text text-anchor="middle" x="435.5" y="-334.5" font-family="Helvetica,sans-Serif" font-size="10.00">MyBLAS::innerProduct</text>
</a>
</g>
</g>
<!-- Node2&#45;&gt;Node8 -->
<g id="edge10" class="edge">
<title>Node2&#45;&gt;Node8</title>
<path fill="none" stroke="midnightblue" d="M235.78,-251.6C255.54,-267.89 298.27,-300.83 340,-318 347.37,-321.03 355.27,-323.59 363.25,-325.75"/>
<polygon fill="midnightblue" stroke="midnightblue" points="362.44,-329.16 372.99,-328.2 364.14,-322.37 362.44,-329.16"/>
</g>
<!-- Node9 -->
<g id="node9" class="node">
<title>Node9</title>
<g id="a_node9"><a xlink:href="../../d2/d6e/namespaceMyBLAS.html#a4ae8cb61e3457065790607979b939564" target="_top" xlink:title="Checks if the given matrix is diagonally dominant.">
<polygon fill="white" stroke="black" points="349.5,-213.5 349.5,-232.5 521.5,-232.5 521.5,-213.5 349.5,-213.5"/>
<text text-anchor="middle" x="435.5" y="-220.5" font-family="Helvetica,sans-Serif" font-size="10.00">MyBLAS::isDiagonallyDominant</text>
</a>
</g>
</g>
<!-- Node2&#45;&gt;Node9 -->
<g id="edge11" class="edge">
<title>Node2&#45;&gt;Node9</title>
<path fill="none" stroke="midnightblue" d="M292.1,-235.88C307.05,-234.53 323.17,-233.07 338.99,-231.64"/>
<polygon fill="midnightblue" stroke="midnightblue" points="339.69,-235.09 349.33,-230.71 339.06,-228.12 339.69,-235.09"/>
</g>
<!-- Node15 -->
<g id="node15" class="node">
<title>Node15</title>
<g id="a_node15"><a xlink:href="../../d2/d6e/namespaceMyBLAS.html#a95a31a537601936a645cd405411f3732" target="_top" xlink:title="Makes the given matrix diagonally dominant.">
<polygon fill="white" stroke="black" points="340,-175.5 340,-194.5 531,-194.5 531,-175.5 340,-175.5"/>
<text text-anchor="middle" x="435.5" y="-182.5" font-family="Helvetica,sans-Serif" font-size="10.00">MyBLAS::makeDiagonallyDominant</text>
</a>
</g>
</g>
<!-- Node2&#45;&gt;Node15 -->
<g id="edge18" class="edge">
<title>Node2&#45;&gt;Node15</title>
<path fill="none" stroke="midnightblue" d="M250.38,-232.5C273.62,-224.21 308.77,-212.24 340,-204 350.05,-201.35 360.8,-198.86 371.3,-196.62"/>
<polygon fill="midnightblue" stroke="midnightblue" points="372.19,-200.01 381.26,-194.55 370.76,-193.16 372.19,-200.01"/>
</g>
<!-- Node4 -->
<g id="node4" class="node">
<title>Node4</title>
<g id="a_node4"><a xlink:href="../../dd/df5/namespaceMyBLAS_1_1Stats.html#a403bf760cf802cddf8dd73e5d3e46a05" target="_top" xlink:title="Function to find the maximum value in a vector.">
<polygon fill="white" stroke="black" points="577.5,-308.5 577.5,-327.5 693.5,-327.5 693.5,-308.5 577.5,-308.5"/>
<text text-anchor="middle" x="635.5" y="-315.5" font-family="Helvetica,sans-Serif" font-size="10.00">MyBLAS::Stats::max</text>
</a>
</g>
</g>
<!-- Node3&#45;&gt;Node4 -->
<g id="edge3" class="edge">
<title>Node3&#45;&gt;Node4</title>
<path fill="none" stroke="midnightblue" d="M507.7,-305.83C527.06,-307.69 547.97,-309.7 567.11,-311.53"/>
<polygon fill="midnightblue" stroke="midnightblue" points="566.95,-315.03 577.24,-312.51 567.62,-308.07 566.95,-315.03"/>
</g>
<!-- Node6 -->
<g id="node6" class="node">
<title>Node6</title>
<g id="a_node6"><a xlink:href="../../dd/df5/namespaceMyBLAS_1_1Stats.html#ac06efe71c44675ea021ddeb404d730dc" target="_top" xlink:title="Function to find the minimum value in a vector.">
<polygon fill="white" stroke="black" points="579,-270.5 579,-289.5 692,-289.5 692,-270.5 579,-270.5"/>
<text text-anchor="middle" x="635.5" y="-277.5" font-family="Helvetica,sans-Serif" font-size="10.00">MyBLAS::Stats::min</text>
</a>
</g>
</g>
<!-- Node3&#45;&gt;Node6 -->
<g id="edge5" class="edge">
<title>Node3&#45;&gt;Node6</title>
<path fill="none" stroke="midnightblue" d="M507.7,-292.17C527.62,-290.26 549.18,-288.19 568.77,-286.31"/>
<polygon fill="midnightblue" stroke="midnightblue" points="569.19,-289.78 578.81,-285.34 568.52,-282.82 569.19,-289.78"/>
</g>
<!-- Node5 -->
<g id="node5" class="node">
<title>Node5</title>
<g id="a_node5"><a xlink:href="../../d4/d4d/classMyBLAS_1_1Vector.html#a6188d71192e096e25ae1c1a46150a0ab" target="_top" xlink:title="Getter for the vector data.">
<polygon fill="white" stroke="black" points="742,-270.5 742,-289.5 881,-289.5 881,-270.5 742,-270.5"/>
<text text-anchor="middle" x="811.5" y="-277.5" font-family="Helvetica,sans-Serif" font-size="10.00">MyBLAS::Vector::getData</text>
</a>
</g>
</g>
<!-- Node4&#45;&gt;Node5 -->
<g id="edge4" class="edge">
<title>Node4&#45;&gt;Node5</title>
<path fill="none" stroke="midnightblue" d="M680.41,-308.41C703.68,-303.33 732.45,-297.04 757.02,-291.68"/>
<polygon fill="midnightblue" stroke="midnightblue" points="757.89,-295.07 766.91,-289.52 756.39,-288.23 757.89,-295.07"/>
</g>
<!-- Node6&#45;&gt;Node5 -->
<g id="edge6" class="edge">
<title>Node6&#45;&gt;Node5</title>
<path fill="none" stroke="midnightblue" d="M692.03,-280C704.63,-280 718.25,-280 731.62,-280"/>
<polygon fill="midnightblue" stroke="midnightblue" points="731.76,-283.5 741.76,-280 731.76,-276.5 731.76,-283.5"/>
</g>
<!-- Node7&#45;&gt;Node4 -->
<g id="edge8" class="edge">
<title>Node7&#45;&gt;Node4</title>
<path fill="none" stroke="midnightblue" d="M497.19,-270.52C508.59,-273.05 520.28,-276.18 531,-280 548.04,-286.07 550.2,-292.29 567,-299 572.86,-301.34 579.12,-303.51 585.37,-305.49"/>
<polygon fill="midnightblue" stroke="midnightblue" points="584.54,-308.9 595.13,-308.43 586.56,-302.19 584.54,-308.9"/>
</g>
<!-- Node7&#45;&gt;Node6 -->
<g id="edge9" class="edge">
<title>Node7&#45;&gt;Node6</title>
<path fill="none" stroke="midnightblue" d="M507.14,-267.78C527.19,-269.7 548.94,-271.79 568.69,-273.68"/>
<polygon fill="midnightblue" stroke="midnightblue" points="568.53,-277.19 578.82,-274.66 569.2,-270.22 568.53,-277.19"/>
</g>
<!-- Node10 -->
<g id="node10" class="node">
<title>Node10</title>
<g id="a_node10"><a xlink:href="../../de/d4d/namespaceMyMath.html#a65264d3fe16d8278498a14fc821b438a" target="_top" xlink:title="A template function to calculate the absolute value of a number.">
<polygon fill="white" stroke="black" points="595.5,-194.5 595.5,-213.5 675.5,-213.5 675.5,-194.5 595.5,-194.5"/>
<text text-anchor="middle" x="635.5" y="-201.5" font-family="Helvetica,sans-Serif" font-size="10.00">MyMath::abs</text>
</a>
</g>
</g>
<!-- Node9&#45;&gt;Node10 -->
<g id="edge12" class="edge">
<title>Node9&#45;&gt;Node10</title>
<path fill="none" stroke="midnightblue" d="M521.62,-214.83C543.39,-212.74 566.07,-210.57 585.34,-208.72"/>
<polygon fill="midnightblue" stroke="midnightblue" points="585.75,-212.19 595.37,-207.75 585.09,-205.23 585.75,-212.19"/>
</g>
<!-- Node9&#45;&gt;Node11 -->
<g id="edge13" class="edge">
<title>Node9&#45;&gt;Node11</title>
<path fill="none" stroke="midnightblue" d="M502.96,-213.46C512.58,-210.99 522.2,-207.89 531,-204 564.55,-189.18 597.72,-162.03 617.14,-144.51"/>
<polygon fill="midnightblue" stroke="midnightblue" points="619.6,-147 624.59,-137.65 614.86,-141.85 619.6,-147"/>
</g>
<!-- Node14 -->
<g id="node14" class="node">
<title>Node14</title>
<g id="a_node14"><a xlink:href="../../dd/df5/namespaceMyBLAS_1_1Stats.html#aaa0d2e3d22af2b7894169b7c90ba6146" target="_top" xlink:title="Function to find the sum of all elements in a vector.">
<polygon fill="white" stroke="black" points="578,-232.5 578,-251.5 693,-251.5 693,-232.5 578,-232.5"/>
<text text-anchor="middle" x="635.5" y="-239.5" font-family="Helvetica,sans-Serif" font-size="10.00">MyBLAS::Stats::sum</text>
</a>
</g>
</g>
<!-- Node9&#45;&gt;Node14 -->
<g id="edge16" class="edge">
<title>Node9&#45;&gt;Node14</title>
<path fill="none" stroke="midnightblue" d="M521.62,-231.17C537.03,-232.65 552.91,-234.17 567.7,-235.59"/>
<polygon fill="midnightblue" stroke="midnightblue" points="567.46,-239.08 577.75,-236.55 568.13,-232.12 567.46,-239.08"/>
</g>
<!-- Node12 -->
<g id="node12" class="node">
<title>Node12</title>
<g id="a_node12"><a xlink:href="../../d0/d27/classMyBLAS_1_1Matrix.html#a720cd9095d330d43de367bfbffffb864" target="_top" xlink:title="Getter for the number of columns in the matrix.">
<polygon fill="white" stroke="black" points="743,-118.5 743,-137.5 880,-137.5 880,-118.5 743,-118.5"/>
<text text-anchor="middle" x="811.5" y="-125.5" font-family="Helvetica,sans-Serif" font-size="10.00">MyBLAS::Matrix::getCols</text>
</a>
</g>
</g>
<!-- Node11&#45;&gt;Node12 -->
<g id="edge14" class="edge">
<title>Node11&#45;&gt;Node12</title>
<path fill="none" stroke="midnightblue" d="M704.27,-128C713.59,-128 723.22,-128 732.7,-128"/>
<polygon fill="midnightblue" stroke="midnightblue" points="732.91,-131.5 742.91,-128 732.91,-124.5 732.91,-131.5"/>
</g>
<!-- Node13 -->
<g id="node13" class="node">
<title>Node13</title>
<g id="a_node13"><a xlink:href="../../d0/d27/classMyBLAS_1_1Matrix.html#a0772df3e76eadc9035e847316de0d249" target="_top" xlink:title="Getter for the number of rows in the matrix.">
<polygon fill="white" stroke="black" points="740,-156.5 740,-175.5 883,-175.5 883,-156.5 740,-156.5"/>
<text text-anchor="middle" x="811.5" y="-163.5" font-family="Helvetica,sans-Serif" font-size="10.00">MyBLAS::Matrix::getRows</text>
</a>
</g>
</g>
<!-- Node11&#45;&gt;Node13 -->
<g id="edge15" class="edge">
<title>Node11&#45;&gt;Node13</title>
<path fill="none" stroke="midnightblue" d="M680.41,-137.59C703.68,-142.67 732.45,-148.96 757.02,-154.32"/>
<polygon fill="midnightblue" stroke="midnightblue" points="756.39,-157.77 766.91,-156.48 757.89,-150.93 756.39,-157.77"/>
</g>
<!-- Node14&#45;&gt;Node5 -->
<g id="edge17" class="edge">
<title>Node14&#45;&gt;Node5</title>
<path fill="none" stroke="midnightblue" d="M680.41,-251.59C703.68,-256.67 732.45,-262.96 757.02,-268.32"/>
<polygon fill="midnightblue" stroke="midnightblue" points="756.39,-271.77 766.91,-270.48 757.89,-264.93 756.39,-271.77"/>
</g>
<!-- Node15&#45;&gt;Node10 -->
<g id="edge19" class="edge">
<title>Node15&#45;&gt;Node10</title>
<path fill="none" stroke="midnightblue" d="M531.15,-194.08C549.75,-195.87 568.55,-197.67 584.92,-199.24"/>
<polygon fill="midnightblue" stroke="midnightblue" points="585.02,-202.77 595.31,-200.24 585.69,-195.8 585.02,-202.77"/>
</g>
<!-- Node15&#45;&gt;Node13 -->
<g id="edge20" class="edge">
<title>Node15&#45;&gt;Node13</title>
<path fill="none" stroke="midnightblue" d="M531.36,-180.18C592.6,-177.07 671.43,-173.07 729.69,-170.11"/>
<polygon fill="midnightblue" stroke="midnightblue" points="730.14,-173.59 739.95,-169.58 729.79,-166.6 730.14,-173.59"/>
</g>
</g>
</svg>
        <g id="navigator" transform="translate(0 0)" fill="#404254">
                <rect fill="#f2f5e9" fill-opacity="0.5" stroke="#606060" stroke-width=".5" x="0" y="0" width="60" height="60"/>
                <use id="zoomplus" xlink:href="#zoomPlus" x="17" y="9" onmousedown="handleZoom(evt,'in')"/>
                <use id="zoomminus" xlink:href="#zoomMin" x="42" y="9" onmousedown="handleZoom(evt,'out')"/>
                <use id="reset" xlink:href="#resetDef" x="30" y="36" onmousedown="handleReset()"/>
                <g id="arrowUp" xlink:href="#dirArrow" transform="translate(30 24)" onmousedown="handlePan(0,-1)">
                  <use xlink:href="#rim" fill="#404040">
                        <set attributeName="fill" to="#808080" begin="arrowUp.mouseover" end="arrowUp.mouseout"/>
                  </use>
                  <path fill="none" stroke="white" stroke-width="1.5" d="M0,-3.0v7 M-2.5,-0.5L0,-3.0L2.5,-0.5"/>
                </g>
                <g id="arrowRight" xlink:href="#dirArrow" transform="rotate(90) translate(36 -43)" onmousedown="handlePan(1,0)">
                  <use xlink:href="#rim" fill="#404040">
                        <set attributeName="fill" to="#808080" begin="arrowRight.mouseover" end="arrowRight.mouseout"/>
                  </use>
                  <path fill="none" stroke="white" stroke-width="1.5" d="M0,-3.0v7 M-2.5,-0.5L0,-3.0L2.5,-0.5"/>
                </g>
                <g id="arrowDown" xlink:href="#dirArrow" transform="rotate(180) translate(-30 -48)" onmousedown="handlePan(0,1)">
                  <use xlink:href="#rim" fill="#404040">
                        <set attributeName="fill" to="#808080" begin="arrowDown.mouseover" end="arrowDown.mouseout"/>
                  </use>
                  <path fill="none" stroke="white" stroke-width="1.5" d="M0,-3.0v7 M-2.5,-0.5L0,-3.0L2.5,-0.5"/>
                </g>
                <g id="arrowLeft" xlink:href="#dirArrow" transform="rotate(270) translate(-36 17)" onmousedown="handlePan(-1,0)">
                  <use xlink:href="#rim" fill="#404040">
                        <set attributeName="fill" to="#808080" begin="arrowLeft.mouseover" end="arrowLeft.mouseout"/>
                  </use>
                  <path fill="none" stroke="white" stroke-width="1.5" d="M0,-3.0v7 M-2.5,-0.5L0,-3.0L2.5,-0.5"/>
                </g>
        </g>
        <svg viewBox="0 0 15 15" width="100%" height="30px" preserveAspectRatio="xMaxYMin meet">
         <g id="arrow_out" transform="scale(0.3 0.3)">
          <a xlink:href="classParser_ab783bbc55d63563ece4a83a4a1c8f683_cgraph_org.svg" target="_base">
           <rect id="button" ry="5" rx="5" y="6" x="6" height="38" width="38"
                fill="#f2f5e9" fill-opacity="0.5" stroke="#606060" stroke-width="1.0"/>
           <path id="arrow"
             d="M 11.500037,31.436501 C 11.940474,20.09759 22.043105,11.32322 32.158766,21.979434 L 37.068811,17.246167 C 37.068811,17.246167 37.088388,32 37.088388,32 L 22.160133,31.978069 C 22.160133,31.978069 26.997745,27.140456 26.997745,27.140456 C 18.528582,18.264221 13.291696,25.230495 11.500037,31.436501 z"
             style="fill:#404040;"/>
          </a>
         </g>
        </svg>
</svg>
