<?xml version="1.0" encoding="UTF-8" standalone="no"?>
<!DOCTYPE svg PUBLIC "-//W3C//DTD SVG 1.1//EN"
 "http://www.w3.org/Graphics/SVG/1.1/DTD/svg11.dtd">
<!-- Generated by graphviz version 2.43.0 (0)
 -->
<!-- Title: Parser::buildInputs Pages: 1 -->
<svg width="1095pt" height="650pt"
 viewBox="0.00 0.00 1095.00 649.50" xmlns="http://www.w3.org/2000/svg" xmlns:xlink="http://www.w3.org/1999/xlink">
<g id="graph0" class="graph" transform="scale(1 1) rotate(0) translate(4 645.5)">
<title>Parser::buildInputs</title>
<polygon fill="white" stroke="transparent" points="-4,4 -4,-645.5 1091,-645.5 1091,4 -4,4"/>
<!-- Node1 -->
<g id="node1" class="node">
<title>Node1</title>
<g id="a_node1"><a xlink:title="Builds the inputs.">
<polygon fill="#bfbfbf" stroke="black" points="0,-182 0,-201 107,-201 107,-182 0,-182"/>
<text text-anchor="middle" x="53.5" y="-189" font-family="Helvetica,sans-Serif" font-size="10.00">Parser::buildInputs</text>
</a>
</g>
</g>
<!-- Node2 -->
<g id="node2" class="node">
<title>Node2</title>
<g id="a_node2"><a xlink:href="../../d5/d7a/namespaceMyBLAS_1_1System.html#a487070ac751d33afa7f9fceaef312ea0" target="_top" xlink:title="This function generates a circuit with random resistances and currents, and computes the correspondin...">
<polygon fill="white" stroke="black" points="162,-369 162,-388 299,-388 299,-369 162,-369"/>
<text text-anchor="middle" x="230.5" y="-376" font-family="Helvetica,sans-Serif" font-size="10.00">MyBLAS::System::Circuit</text>
</a>
</g>
</g>
<!-- Node1&#45;&gt;Node2 -->
<g id="edge1" class="edge">
<title>Node1&#45;&gt;Node2</title>
<path fill="none" stroke="midnightblue" d="M58.47,-201.25C68.97,-226 99.63,-292.13 143,-332.5 157.68,-346.16 177.17,-356.99 193.94,-364.7"/>
<polygon fill="midnightblue" stroke="midnightblue" points="192.88,-368.06 203.44,-368.88 195.7,-361.65 192.88,-368.06"/>
</g>
<!-- Node13 -->
<g id="node13" class="node">
<title>Node13</title>
<g id="a_node13"><a xlink:href="../../d2/d6e/namespaceMyBLAS.html#a4ae8cb61e3457065790607979b939564" target="_top" xlink:title="Checks if the given matrix is diagonally dominant.">
<polygon fill="white" stroke="black" points="354,-312 354,-331 526,-331 526,-312 354,-312"/>
<text text-anchor="middle" x="440" y="-319" font-family="Helvetica,sans-Serif" font-size="10.00">MyBLAS::isDiagonallyDominant</text>
</a>
</g>
</g>
<!-- Node1&#45;&gt;Node13 -->
<g id="edge36" class="edge">
<title>Node1&#45;&gt;Node13</title>
<path fill="none" stroke="midnightblue" d="M61.21,-201.23C74.46,-219.6 105.94,-259.17 143,-277.5 205.29,-308.31 283.3,-318.94 343.59,-322.06"/>
<polygon fill="midnightblue" stroke="midnightblue" points="343.72,-325.57 353.87,-322.53 344.04,-318.57 343.72,-325.57"/>
</g>
<!-- Node16 -->
<g id="node16" class="node">
<title>Node16</title>
<g id="a_node16"><a xlink:href="../../d2/d6e/namespaceMyBLAS.html#a0b887e323f8337bd87ef20dff8af5c1f" target="_top" xlink:title="Checks if the given matrix is a square matrix.">
<polygon fill="white" stroke="black" points="589,-192 589,-211 726,-211 726,-192 589,-192"/>
<text text-anchor="middle" x="657.5" y="-199" font-family="Helvetica,sans-Serif" font-size="10.00">MyBLAS::isSquareMatrix</text>
</a>
</g>
</g>
<!-- Node1&#45;&gt;Node16 -->
<g id="edge38" class="edge">
<title>Node1&#45;&gt;Node16</title>
<path fill="none" stroke="midnightblue" d="M82.41,-201.11C99.64,-206.53 122.33,-212.75 143,-215.5 296.41,-235.93 477.8,-222.23 578.74,-211.28"/>
<polygon fill="midnightblue" stroke="midnightblue" points="579.3,-214.74 588.85,-210.17 578.53,-207.78 579.3,-214.74"/>
</g>
<!-- Node18 -->
<g id="node18" class="node">
<title>Node18</title>
<g id="a_node18"><a xlink:href="../../d2/d6e/namespaceMyBLAS.html#ad78205a07b1500a10fae544f919d0801" target="_top" xlink:title="Checks if the given matrix is positive definite using Cholesky decomposition.">
<polygon fill="white" stroke="black" points="365.5,-262.5 365.5,-292.5 514.5,-292.5 514.5,-262.5 365.5,-262.5"/>
<text text-anchor="start" x="373.5" y="-280.5" font-family="Helvetica,sans-Serif" font-size="10.00">MyBLAS::isPositiveDefinite</text>
<text text-anchor="middle" x="440" y="-269.5" font-family="Helvetica,sans-Serif" font-size="10.00">Matrix</text>
</a>
</g>
</g>
<!-- Node1&#45;&gt;Node18 -->
<g id="edge37" class="edge">
<title>Node1&#45;&gt;Node18</title>
<path fill="none" stroke="midnightblue" d="M65.28,-201.13C81.06,-214.6 111.97,-238.62 143,-249.5 211.73,-273.6 294.6,-279.64 355.16,-280.21"/>
<polygon fill="midnightblue" stroke="midnightblue" points="355.43,-283.71 365.44,-280.25 355.46,-276.71 355.43,-283.71"/>
</g>
<!-- Node22 -->
<g id="node22" class="node">
<title>Node22</title>
<g id="a_node22"><a xlink:href="../../dd/d02/classCommandLine.html#a6a94f5e16b2081e769567d3790b6d8ec" target="_top" xlink:title="Method to get the current precision.">
<polygon fill="white" stroke="black" points="143,-176.5 143,-206.5 318,-206.5 318,-176.5 143,-176.5"/>
<text text-anchor="start" x="151" y="-194.5" font-family="Helvetica,sans-Serif" font-size="10.00">CommandLine&lt; OutLab12Inputs</text>
<text text-anchor="middle" x="230.5" y="-183.5" font-family="Helvetica,sans-Serif" font-size="10.00"> &gt;::getCurrentPrecision</text>
</a>
</g>
</g>
<!-- Node1&#45;&gt;Node22 -->
<g id="edge35" class="edge">
<title>Node1&#45;&gt;Node22</title>
<path fill="none" stroke="midnightblue" d="M107.01,-191.5C115.27,-191.5 124.04,-191.5 132.93,-191.5"/>
<polygon fill="midnightblue" stroke="midnightblue" points="133,-195 143,-191.5 133,-188 133,-195"/>
</g>
<!-- Node23 -->
<g id="node23" class="node">
<title>Node23</title>
<g id="a_node23"><a xlink:href="../../d2/d6e/namespaceMyBLAS.html#af293c95e705171bdd15268039d337135" target="_top" xlink:title="Checks if the given matrix is symmetric.">
<polygon fill="white" stroke="black" points="362,-154 362,-173 518,-173 518,-154 362,-154"/>
<text text-anchor="middle" x="440" y="-161" font-family="Helvetica,sans-Serif" font-size="10.00">MyBLAS::isSymmetricMatrix</text>
</a>
</g>
</g>
<!-- Node1&#45;&gt;Node23 -->
<g id="edge39" class="edge">
<title>Node1&#45;&gt;Node23</title>
<path fill="none" stroke="midnightblue" d="M81.21,-181.95C98.57,-176.25 121.82,-169.54 143,-166.5 212.73,-156.48 292.64,-156.33 351.85,-158.35"/>
<polygon fill="midnightblue" stroke="midnightblue" points="351.79,-161.85 361.91,-158.72 352.05,-154.86 351.79,-161.85"/>
</g>
<!-- Node24 -->
<g id="node24" class="node">
<title>Node24</title>
<g id="a_node24"><a xlink:href="../../dd/d02/classCommandLine.html#a7001590923e6bfdf380448136b8e65bd" target="_top" xlink:title="Method to print a line to the console. This method prints a line of dashes to the console.">
<polygon fill="white" stroke="black" points="143,-88.5 143,-118.5 318,-118.5 318,-88.5 143,-88.5"/>
<text text-anchor="start" x="151" y="-106.5" font-family="Helvetica,sans-Serif" font-size="10.00">CommandLine&lt; OutLab12Inputs</text>
<text text-anchor="middle" x="230.5" y="-95.5" font-family="Helvetica,sans-Serif" font-size="10.00"> &gt;::printLine</text>
</a>
</g>
</g>
<!-- Node1&#45;&gt;Node24 -->
<g id="edge42" class="edge">
<title>Node1&#45;&gt;Node24</title>
<path fill="none" stroke="midnightblue" d="M67.09,-181.8C83.74,-169.33 114.32,-147.6 143,-133.5 151.47,-129.34 160.66,-125.49 169.79,-122.04"/>
<polygon fill="midnightblue" stroke="midnightblue" points="171.05,-125.3 179.24,-118.59 168.65,-118.73 171.05,-125.3"/>
</g>
<!-- Node25 -->
<g id="node25" class="node">
<title>Node25</title>
<g id="a_node25"><a xlink:href="../../d7/de4/FileParser_8h.html#a05aeb46aa7f312dd74467464305b1a5b" target="_top" xlink:title="Reads a JSON file and stores the data in a JSON object.">
<polygon fill="white" stroke="black" points="199.5,-50 199.5,-69 261.5,-69 261.5,-50 199.5,-50"/>
<text text-anchor="middle" x="230.5" y="-57" font-family="Helvetica,sans-Serif" font-size="10.00">readJSON</text>
</a>
</g>
</g>
<!-- Node1&#45;&gt;Node25 -->
<g id="edge43" class="edge">
<title>Node1&#45;&gt;Node25</title>
<path fill="none" stroke="midnightblue" d="M59.13,-181.79C70.22,-159.62 100.6,-105.16 143,-78.5 156.64,-69.92 173.61,-65.18 188.9,-62.58"/>
<polygon fill="midnightblue" stroke="midnightblue" points="189.76,-65.99 199.15,-61.09 188.76,-59.06 189.76,-65.99"/>
</g>
<!-- Node26 -->
<g id="node26" class="node">
<title>Node26</title>
<g id="a_node26"><a xlink:href="../../d0/d81/structMyBLAS_1_1Solver_1_1TemplatedParameters.html#aac2f40ed7d12cdde0e8bb57ea099a51e" target="_top" xlink:title="Set the eigenvalue.">
<polygon fill="white" stroke="black" points="155,-0.5 155,-30.5 306,-30.5 306,-0.5 155,-0.5"/>
<text text-anchor="start" x="163" y="-18.5" font-family="Helvetica,sans-Serif" font-size="10.00">MyBLAS::Solver::Templated</text>
<text text-anchor="middle" x="230.5" y="-7.5" font-family="Helvetica,sans-Serif" font-size="10.00">Parameters::setEigenvalue</text>
</a>
</g>
</g>
<!-- Node1&#45;&gt;Node26 -->
<g id="edge44" class="edge">
<title>Node1&#45;&gt;Node26</title>
<path fill="none" stroke="midnightblue" d="M57.41,-181.66C65.87,-154.73 93.11,-79.3 143,-40.5 145.31,-38.7 147.75,-37.03 150.29,-35.48"/>
<polygon fill="midnightblue" stroke="midnightblue" points="152.08,-38.49 159.22,-30.66 148.75,-32.33 152.08,-38.49"/>
</g>
<!-- Node3 -->
<g id="node3" class="node">
<title>Node3</title>
<g id="a_node3"><a xlink:href="../../d0/d27/classMyBLAS_1_1Matrix.html#a58e4d8c70a333a73d08121e0e5509910" target="_top" xlink:title="Computes the element&#45;wise product of two matrices.">
<polygon fill="white" stroke="black" points="575.5,-306.5 575.5,-336.5 739.5,-336.5 739.5,-306.5 575.5,-306.5"/>
<text text-anchor="start" x="583.5" y="-324.5" font-family="Helvetica,sans-Serif" font-size="10.00">MyBLAS::Matrix::elementwise</text>
<text text-anchor="middle" x="657.5" y="-313.5" font-family="Helvetica,sans-Serif" font-size="10.00">Product</text>
</a>
</g>
</g>
<!-- Node2&#45;&gt;Node3 -->
<g id="edge2" class="edge">
<title>Node2&#45;&gt;Node3</title>
<path fill="none" stroke="midnightblue" d="M299.09,-370.1C358.81,-362.59 448.24,-351.18 526,-340.5 538.74,-338.75 552.18,-336.85 565.39,-334.96"/>
<polygon fill="midnightblue" stroke="midnightblue" points="566.03,-338.4 575.43,-333.51 565.03,-331.47 566.03,-338.4"/>
</g>
<!-- Node6 -->
<g id="node6" class="node">
<title>Node6</title>
<g id="a_node6"><a xlink:href="../../d6/d03/namespaceRandom.html#a4895ec4a961ca014f3a4e1499f95cc8e" target="_top" xlink:title="Generates a matrix of random numbers.">
<polygon fill="white" stroke="black" points="368,-508 368,-527 512,-527 512,-508 368,-508"/>
<text text-anchor="middle" x="440" y="-515" font-family="Helvetica,sans-Serif" font-size="10.00">Random::generate_matrix</text>
</a>
</g>
</g>
<!-- Node2&#45;&gt;Node6 -->
<g id="edge5" class="edge">
<title>Node2&#45;&gt;Node6</title>
<path fill="none" stroke="midnightblue" d="M238.97,-388.15C256.55,-410.21 302.96,-464.65 354,-493.5 362.04,-498.04 371,-501.78 380,-504.83"/>
<polygon fill="midnightblue" stroke="midnightblue" points="379.16,-508.24 389.75,-507.89 381.25,-501.56 379.16,-508.24"/>
</g>
<!-- Node10 -->
<g id="node10" class="node">
<title>Node10</title>
<g id="a_node10"><a xlink:href="../../d6/d03/namespaceRandom.html#adfa5e70492a249fd39898582a640e5fb" target="_top" xlink:title="Generates a vector of random numbers.">
<polygon fill="white" stroke="black" points="368.5,-546 368.5,-565 511.5,-565 511.5,-546 368.5,-546"/>
<text text-anchor="middle" x="440" y="-553" font-family="Helvetica,sans-Serif" font-size="10.00">Random::generate_vector</text>
</a>
</g>
</g>
<!-- Node2&#45;&gt;Node10 -->
<g id="edge10" class="edge">
<title>Node2&#45;&gt;Node10</title>
<path fill="none" stroke="midnightblue" d="M235.98,-388.19C249.45,-416.14 292.46,-497.44 354,-536.5 357.35,-538.63 360.91,-540.52 364.6,-542.2"/>
<polygon fill="midnightblue" stroke="midnightblue" points="363.4,-545.49 373.98,-545.96 366,-538.99 363.4,-545.49"/>
</g>
<!-- Node2&#45;&gt;Node13 -->
<g id="edge15" class="edge">
<title>Node2&#45;&gt;Node13</title>
<path fill="none" stroke="midnightblue" d="M266.23,-368.96C301.39,-359.3 355.91,-344.32 394.28,-333.78"/>
<polygon fill="midnightblue" stroke="midnightblue" points="395.44,-337.1 404.16,-331.07 393.59,-330.35 395.44,-337.1"/>
</g>
<!-- Node2&#45;&gt;Node18 -->
<g id="edge23" class="edge">
<title>Node2&#45;&gt;Node18</title>
<path fill="none" stroke="midnightblue" d="M244.44,-368.82C266.09,-353.02 311.51,-321.51 354,-302.5 359.31,-300.13 364.9,-297.91 370.58,-295.85"/>
<polygon fill="midnightblue" stroke="midnightblue" points="371.87,-299.11 380.18,-292.54 369.59,-292.49 371.87,-299.11"/>
</g>
<!-- Node20 -->
<g id="node20" class="node">
<title>Node20</title>
<g id="a_node20"><a xlink:href="../../d2/d6e/namespaceMyBLAS.html#a95a31a537601936a645cd405411f3732" target="_top" xlink:title="Makes the given matrix diagonally dominant.">
<polygon fill="white" stroke="black" points="562,-470 562,-489 753,-489 753,-470 562,-470"/>
<text text-anchor="middle" x="657.5" y="-477" font-family="Helvetica,sans-Serif" font-size="10.00">MyBLAS::makeDiagonallyDominant</text>
</a>
</g>
</g>
<!-- Node2&#45;&gt;Node20 -->
<g id="edge27" class="edge">
<title>Node2&#45;&gt;Node20</title>
<path fill="none" stroke="midnightblue" d="M241.6,-388.08C261.35,-406.1 307.21,-444.67 354,-460.5 417.26,-481.91 492.14,-486.76 551.57,-486.21"/>
<polygon fill="midnightblue" stroke="midnightblue" points="551.78,-489.71 561.72,-486.06 551.67,-482.71 551.78,-489.71"/>
</g>
<!-- Node21 -->
<g id="node21" class="node">
<title>Node21</title>
<g id="a_node21"><a xlink:href="../../d2/d6e/namespaceMyBLAS.html#acb783ecb31d72a117d2e37878395bc54" target="_top" xlink:title="Makes the given matrix positive&#45;definite.">
<polygon fill="white" stroke="black" points="356.5,-432 356.5,-451 523.5,-451 523.5,-432 356.5,-432"/>
<text text-anchor="middle" x="440" y="-439" font-family="Helvetica,sans-Serif" font-size="10.00">MyBLAS::makePositiveDefinite</text>
</a>
</g>
</g>
<!-- Node2&#45;&gt;Node21 -->
<g id="edge30" class="edge">
<title>Node2&#45;&gt;Node21</title>
<path fill="none" stroke="midnightblue" d="M263.01,-388.07C299.07,-399.02 358.24,-416.98 397.89,-429.02"/>
<polygon fill="midnightblue" stroke="midnightblue" points="396.94,-432.39 407.53,-431.95 398.98,-425.69 396.94,-432.39"/>
</g>
<!-- Node4 -->
<g id="node4" class="node">
<title>Node4</title>
<g id="a_node4"><a xlink:href="../../d0/d27/classMyBLAS_1_1Matrix.html#a720cd9095d330d43de367bfbffffb864" target="_top" xlink:title="Getter for the number of columns in the matrix.">
<polygon fill="white" stroke="black" points="792,-236 792,-255 929,-255 929,-236 792,-236"/>
<text text-anchor="middle" x="860.5" y="-243" font-family="Helvetica,sans-Serif" font-size="10.00">MyBLAS::Matrix::getCols</text>
</a>
</g>
</g>
<!-- Node3&#45;&gt;Node4 -->
<g id="edge3" class="edge">
<title>Node3&#45;&gt;Node4</title>
<path fill="none" stroke="midnightblue" d="M722.04,-306.45C732.49,-303.47 743.13,-300.13 753,-296.5 781.2,-286.12 812.01,-270.91 833.21,-259.8"/>
<polygon fill="midnightblue" stroke="midnightblue" points="835.03,-262.8 842.23,-255.02 831.75,-256.62 835.03,-262.8"/>
</g>
<!-- Node5 -->
<g id="node5" class="node">
<title>Node5</title>
<g id="a_node5"><a xlink:href="../../d0/d27/classMyBLAS_1_1Matrix.html#a0772df3e76eadc9035e847316de0d249" target="_top" xlink:title="Getter for the number of rows in the matrix.">
<polygon fill="white" stroke="black" points="789,-315 789,-334 932,-334 932,-315 789,-315"/>
<text text-anchor="middle" x="860.5" y="-322" font-family="Helvetica,sans-Serif" font-size="10.00">MyBLAS::Matrix::getRows</text>
</a>
</g>
</g>
<!-- Node3&#45;&gt;Node5 -->
<g id="edge4" class="edge">
<title>Node3&#45;&gt;Node5</title>
<path fill="none" stroke="midnightblue" d="M739.68,-322.71C752.48,-322.9 765.73,-323.1 778.54,-323.29"/>
<polygon fill="midnightblue" stroke="midnightblue" points="778.64,-326.79 788.69,-323.44 778.75,-319.79 778.64,-326.79"/>
</g>
<!-- Node7 -->
<g id="node7" class="node">
<title>Node7</title>
<g id="a_node7"><a xlink:href="../../dd/df5/namespaceMyBLAS_1_1Stats.html#a403bf760cf802cddf8dd73e5d3e46a05" target="_top" xlink:title="Function to find the maximum value in a vector.">
<polygon fill="white" stroke="black" points="599.5,-508 599.5,-527 715.5,-527 715.5,-508 599.5,-508"/>
<text text-anchor="middle" x="657.5" y="-515" font-family="Helvetica,sans-Serif" font-size="10.00">MyBLAS::Stats::max</text>
</a>
</g>
</g>
<!-- Node6&#45;&gt;Node7 -->
<g id="edge6" class="edge">
<title>Node6&#45;&gt;Node7</title>
<path fill="none" stroke="midnightblue" d="M512.16,-517.5C536.94,-517.5 564.65,-517.5 589.11,-517.5"/>
<polygon fill="midnightblue" stroke="midnightblue" points="589.38,-521 599.38,-517.5 589.38,-514 589.38,-521"/>
</g>
<!-- Node9 -->
<g id="node9" class="node">
<title>Node9</title>
<g id="a_node9"><a xlink:href="../../dd/df5/namespaceMyBLAS_1_1Stats.html#ac06efe71c44675ea021ddeb404d730dc" target="_top" xlink:title="Function to find the minimum value in a vector.">
<polygon fill="white" stroke="black" points="601,-546 601,-565 714,-565 714,-546 601,-546"/>
<text text-anchor="middle" x="657.5" y="-553" font-family="Helvetica,sans-Serif" font-size="10.00">MyBLAS::Stats::min</text>
</a>
</g>
</g>
<!-- Node6&#45;&gt;Node9 -->
<g id="edge8" class="edge">
<title>Node6&#45;&gt;Node9</title>
<path fill="none" stroke="midnightblue" d="M495.1,-527.04C524.56,-532.23 561.21,-538.7 592.13,-544.15"/>
<polygon fill="midnightblue" stroke="midnightblue" points="591.92,-547.67 602.38,-545.96 593.14,-540.77 591.92,-547.67"/>
</g>
<!-- Node8 -->
<g id="node8" class="node">
<title>Node8</title>
<g id="a_node8"><a xlink:href="../../d4/d4d/classMyBLAS_1_1Vector.html#a6188d71192e096e25ae1c1a46150a0ab" target="_top" xlink:title="Getter for the vector data.">
<polygon fill="white" stroke="black" points="791,-508 791,-527 930,-527 930,-508 791,-508"/>
<text text-anchor="middle" x="860.5" y="-515" font-family="Helvetica,sans-Serif" font-size="10.00">MyBLAS::Vector::getData</text>
</a>
</g>
</g>
<!-- Node7&#45;&gt;Node8 -->
<g id="edge7" class="edge">
<title>Node7&#45;&gt;Node8</title>
<path fill="none" stroke="midnightblue" d="M715.56,-517.5C735.8,-517.5 758.95,-517.5 780.68,-517.5"/>
<polygon fill="midnightblue" stroke="midnightblue" points="780.88,-521 790.88,-517.5 780.88,-514 780.88,-521"/>
</g>
<!-- Node9&#45;&gt;Node8 -->
<g id="edge9" class="edge">
<title>Node9&#45;&gt;Node8</title>
<path fill="none" stroke="midnightblue" d="M708.96,-545.96C736.32,-540.79 770.32,-534.36 799.08,-528.92"/>
<polygon fill="midnightblue" stroke="midnightblue" points="799.84,-532.34 809.02,-527.04 798.54,-525.46 799.84,-532.34"/>
</g>
<!-- Node10&#45;&gt;Node7 -->
<g id="edge13" class="edge">
<title>Node10&#45;&gt;Node7</title>
<path fill="none" stroke="midnightblue" d="M495.1,-545.96C524.56,-540.77 561.21,-534.3 592.13,-528.85"/>
<polygon fill="midnightblue" stroke="midnightblue" points="593.14,-532.23 602.38,-527.04 591.92,-525.33 593.14,-532.23"/>
</g>
<!-- Node10&#45;&gt;Node9 -->
<g id="edge14" class="edge">
<title>Node10&#45;&gt;Node9</title>
<path fill="none" stroke="midnightblue" d="M511.56,-555.5C537.02,-555.5 565.64,-555.5 590.68,-555.5"/>
<polygon fill="midnightblue" stroke="midnightblue" points="590.81,-559 600.81,-555.5 590.81,-552 590.81,-559"/>
</g>
<!-- Node11 -->
<g id="node11" class="node">
<title>Node11</title>
<g id="a_node11"><a xlink:href="../../d4/d4d/classMyBLAS_1_1Vector.html#a8abd3eb60846ec22b005055248b49f17" target="_top" xlink:title=" ">
<polygon fill="white" stroke="black" points="594,-622 594,-641 721,-641 721,-622 594,-622"/>
<text text-anchor="middle" x="657.5" y="-629" font-family="Helvetica,sans-Serif" font-size="10.00">MyBLAS::Vector::begin</text>
</a>
</g>
</g>
<!-- Node10&#45;&gt;Node11 -->
<g id="edge11" class="edge">
<title>Node10&#45;&gt;Node11</title>
<path fill="none" stroke="midnightblue" d="M458.09,-565.18C481.04,-577.79 523.42,-599.74 562,-612.5 570.25,-615.23 579.05,-617.63 587.83,-619.73"/>
<polygon fill="midnightblue" stroke="midnightblue" points="587.17,-623.17 597.7,-621.97 588.72,-616.35 587.17,-623.17"/>
</g>
<!-- Node12 -->
<g id="node12" class="node">
<title>Node12</title>
<g id="a_node12"><a xlink:href="../../d4/d4d/classMyBLAS_1_1Vector.html#ae742df1314de90158282ecbfe3ca9ece" target="_top" xlink:title=" ">
<polygon fill="white" stroke="black" points="598.5,-584 598.5,-603 716.5,-603 716.5,-584 598.5,-584"/>
<text text-anchor="middle" x="657.5" y="-591" font-family="Helvetica,sans-Serif" font-size="10.00">MyBLAS::Vector::end</text>
</a>
</g>
</g>
<!-- Node10&#45;&gt;Node12 -->
<g id="edge12" class="edge">
<title>Node10&#45;&gt;Node12</title>
<path fill="none" stroke="midnightblue" d="M495.1,-565.04C524.56,-570.23 561.21,-576.7 592.13,-582.15"/>
<polygon fill="midnightblue" stroke="midnightblue" points="591.92,-585.67 602.38,-583.96 593.14,-578.77 591.92,-585.67"/>
</g>
<!-- Node14 -->
<g id="node14" class="node">
<title>Node14</title>
<g id="a_node14"><a xlink:href="../../d2/d6e/namespaceMyBLAS.html#ab04220788b1a4758fe6b7f4fedc39a19" target="_top" xlink:title=" ">
<polygon fill="white" stroke="black" points="820.5,-394 820.5,-413 900.5,-413 900.5,-394 820.5,-394"/>
<text text-anchor="middle" x="860.5" y="-401" font-family="Helvetica,sans-Serif" font-size="10.00">MyBLAS::abs</text>
</a>
</g>
</g>
<!-- Node13&#45;&gt;Node14 -->
<g id="edge16" class="edge">
<title>Node13&#45;&gt;Node14</title>
<path fill="none" stroke="midnightblue" d="M486.36,-331.03C509.06,-335.76 536.97,-341.52 562,-346.5 649.34,-363.89 751.3,-383.21 810.33,-394.3"/>
<polygon fill="midnightblue" stroke="midnightblue" points="810.01,-397.8 820.48,-396.21 811.3,-390.92 810.01,-397.8"/>
</g>
<!-- Node13&#45;&gt;Node16 -->
<g id="edge18" class="edge">
<title>Node13&#45;&gt;Node16</title>
<path fill="none" stroke="midnightblue" d="M510.45,-311.95C516.04,-309.45 521.33,-306.34 526,-302.5 556.73,-277.21 531,-245.46 562,-220.5 567.26,-216.27 573.2,-212.9 579.48,-210.23"/>
<polygon fill="midnightblue" stroke="midnightblue" points="580.7,-213.51 588.89,-206.79 578.3,-206.93 580.7,-213.51"/>
</g>
<!-- Node17 -->
<g id="node17" class="node">
<title>Node17</title>
<g id="a_node17"><a xlink:href="../../dd/df5/namespaceMyBLAS_1_1Stats.html#aaa0d2e3d22af2b7894169b7c90ba6146" target="_top" xlink:title="Function to find the sum of all elements in a vector.">
<polygon fill="white" stroke="black" points="600,-268 600,-287 715,-287 715,-268 600,-268"/>
<text text-anchor="middle" x="657.5" y="-275" font-family="Helvetica,sans-Serif" font-size="10.00">MyBLAS::Stats::sum</text>
</a>
</g>
</g>
<!-- Node13&#45;&gt;Node17 -->
<g id="edge21" class="edge">
<title>Node13&#45;&gt;Node17</title>
<path fill="none" stroke="midnightblue" d="M487.76,-311.95C520.66,-305.24 564.87,-296.21 599.78,-289.08"/>
<polygon fill="midnightblue" stroke="midnightblue" points="600.73,-292.46 609.83,-287.03 599.33,-285.6 600.73,-292.46"/>
</g>
<!-- Node15 -->
<g id="node15" class="node">
<title>Node15</title>
<g id="a_node15"><a xlink:href="../../d4/d4d/classMyBLAS_1_1Vector.html#aae30f8178e4a34d332317c61e77c147a" target="_top" xlink:title="Getter for the size of the vector.">
<polygon fill="white" stroke="black" points="968,-394 968,-413 1087,-413 1087,-394 968,-394"/>
<text text-anchor="middle" x="1027.5" y="-401" font-family="Helvetica,sans-Serif" font-size="10.00">MyBLAS::Vector::size</text>
</a>
</g>
</g>
<!-- Node14&#45;&gt;Node15 -->
<g id="edge17" class="edge">
<title>Node14&#45;&gt;Node15</title>
<path fill="none" stroke="midnightblue" d="M900.6,-403.5C917.73,-403.5 938.34,-403.5 957.88,-403.5"/>
<polygon fill="midnightblue" stroke="midnightblue" points="957.97,-407 967.97,-403.5 957.97,-400 957.97,-407"/>
</g>
<!-- Node16&#45;&gt;Node4 -->
<g id="edge19" class="edge">
<title>Node16&#45;&gt;Node4</title>
<path fill="none" stroke="midnightblue" d="M707.61,-211.06C722.24,-213.99 738.28,-217.29 753,-220.5 771.7,-224.57 792.18,-229.31 810.15,-233.57"/>
<polygon fill="midnightblue" stroke="midnightblue" points="809.58,-237.03 820.12,-235.94 811.2,-230.22 809.58,-237.03"/>
</g>
<!-- Node16&#45;&gt;Node5 -->
<g id="edge20" class="edge">
<title>Node16&#45;&gt;Node5</title>
<path fill="none" stroke="midnightblue" d="M726.22,-209.18C735.61,-211.91 744.83,-215.58 753,-220.5 774.65,-233.53 771.31,-246.46 789,-264.5 804.8,-280.61 824.49,-297.11 839.03,-308.71"/>
<polygon fill="midnightblue" stroke="midnightblue" points="836.92,-311.5 846.94,-314.94 841.25,-306 836.92,-311.5"/>
</g>
<!-- Node17&#45;&gt;Node8 -->
<g id="edge22" class="edge">
<title>Node17&#45;&gt;Node8</title>
<path fill="none" stroke="midnightblue" d="M715.19,-279.46C728.97,-282.45 742.69,-287.9 753,-297.5 795.32,-336.89 763.36,-370.68 789,-422.5 803.56,-451.93 827.42,-481.64 843.29,-499.81"/>
<polygon fill="midnightblue" stroke="midnightblue" points="841.1,-502.62 850.37,-507.76 846.33,-497.96 841.1,-502.62"/>
</g>
<!-- Node18&#45;&gt;Node16 -->
<g id="edge24" class="edge">
<title>Node18&#45;&gt;Node16</title>
<path fill="none" stroke="midnightblue" d="M491.97,-262.35C503.45,-258.17 515.38,-253.19 526,-247.5 543.63,-238.06 543.75,-228.67 562,-220.5 567.71,-217.94 573.77,-215.73 579.96,-213.81"/>
<polygon fill="midnightblue" stroke="midnightblue" points="581.09,-217.13 589.75,-211.03 579.17,-210.39 581.09,-217.13"/>
</g>
<!-- Node18&#45;&gt;Node17 -->
<g id="edge26" class="edge">
<title>Node18&#45;&gt;Node17</title>
<path fill="none" stroke="midnightblue" d="M514.56,-277.5C538.99,-277.5 566.04,-277.5 589.92,-277.5"/>
<polygon fill="midnightblue" stroke="midnightblue" points="589.94,-281 599.94,-277.5 589.94,-274 589.94,-281"/>
</g>
<!-- Node19 -->
<g id="node19" class="node">
<title>Node19</title>
<g id="a_node19"><a xlink:href="../../dd/dd7/plot__points_8m.html#a07ca9f04874775e798496347c3e80b84" target="_top" xlink:title=" ">
<polygon fill="white" stroke="black" points="643,-230 643,-249 672,-249 672,-230 643,-230"/>
<text text-anchor="middle" x="657.5" y="-237" font-family="Helvetica,sans-Serif" font-size="10.00">L</text>
</a>
</g>
</g>
<!-- Node18&#45;&gt;Node19 -->
<g id="edge25" class="edge">
<title>Node18&#45;&gt;Node19</title>
<path fill="none" stroke="midnightblue" d="M514.56,-264.53C555.68,-257.28 604.21,-248.72 632.55,-243.72"/>
<polygon fill="midnightblue" stroke="midnightblue" points="633.46,-247.12 642.7,-241.93 632.25,-240.22 633.46,-247.12"/>
</g>
<!-- Node20&#45;&gt;Node5 -->
<g id="edge29" class="edge">
<title>Node20&#45;&gt;Node5</title>
<path fill="none" stroke="midnightblue" d="M674.76,-469.94C694.03,-458.36 726.83,-437.87 753,-417.5 770.13,-404.17 772.73,-398.87 789,-384.5 806.12,-369.38 825.96,-352.56 840.22,-340.58"/>
<polygon fill="midnightblue" stroke="midnightblue" points="842.49,-343.24 847.91,-334.14 838,-337.88 842.49,-343.24"/>
</g>
<!-- Node20&#45;&gt;Node14 -->
<g id="edge28" class="edge">
<title>Node20&#45;&gt;Node14</title>
<path fill="none" stroke="midnightblue" d="M704.26,-469.88C719.93,-466.07 737.43,-461.21 753,-455.5 781.48,-445.06 812.48,-429.4 833.65,-417.99"/>
<polygon fill="midnightblue" stroke="midnightblue" points="835.54,-420.95 842.64,-413.09 832.18,-414.8 835.54,-420.95"/>
</g>
<!-- Node21&#45;&gt;Node5 -->
<g id="edge32" class="edge">
<title>Node21&#45;&gt;Node5</title>
<path fill="none" stroke="midnightblue" d="M475.25,-431.93C550.85,-410.79 731.91,-360.17 815.65,-336.76"/>
<polygon fill="midnightblue" stroke="midnightblue" points="816.68,-340.11 825.37,-334.04 814.79,-333.36 816.68,-340.11"/>
</g>
<!-- Node21&#45;&gt;Node7 -->
<g id="edge34" class="edge">
<title>Node21&#45;&gt;Node7</title>
<path fill="none" stroke="midnightblue" d="M458.09,-451.18C481.04,-463.79 523.42,-485.74 562,-498.5 570.75,-501.39 580.11,-503.92 589.41,-506.11"/>
<polygon fill="midnightblue" stroke="midnightblue" points="588.93,-509.59 599.45,-508.35 590.45,-502.75 588.93,-509.59"/>
</g>
<!-- Node21&#45;&gt;Node14 -->
<g id="edge31" class="edge">
<title>Node21&#45;&gt;Node14</title>
<path fill="none" stroke="midnightblue" d="M523.55,-436.37C586.51,-432.16 675.33,-425.59 753,-417.5 771.69,-415.55 792.17,-412.97 810.14,-410.55"/>
<polygon fill="midnightblue" stroke="midnightblue" points="810.67,-414.01 820.11,-409.19 809.73,-407.08 810.67,-414.01"/>
</g>
<!-- Node21&#45;&gt;Node20 -->
<g id="edge33" class="edge">
<title>Node21&#45;&gt;Node20</title>
<path fill="none" stroke="midnightblue" d="M495.1,-451.04C524.56,-456.23 561.21,-462.7 592.13,-468.15"/>
<polygon fill="midnightblue" stroke="midnightblue" points="591.92,-471.67 602.38,-469.96 593.14,-464.77 591.92,-471.67"/>
</g>
<!-- Node23&#45;&gt;Node14 -->
<g id="edge40" class="edge">
<title>Node23&#45;&gt;Node14</title>
<path fill="none" stroke="midnightblue" d="M474.39,-153.92C537.14,-138.14 673.49,-114.74 753,-182.5 808.8,-230.06 751.12,-280.72 789,-343.5 800.17,-362.02 819.08,-377.65 834.51,-388.31"/>
<polygon fill="midnightblue" stroke="midnightblue" points="832.83,-391.4 843.1,-394 836.69,-385.56 832.83,-391.4"/>
</g>
<!-- Node23&#45;&gt;Node16 -->
<g id="edge41" class="edge">
<title>Node23&#45;&gt;Node16</title>
<path fill="none" stroke="midnightblue" d="M495.1,-173.04C524.56,-178.23 561.21,-184.7 592.13,-190.15"/>
<polygon fill="midnightblue" stroke="midnightblue" points="591.92,-193.67 602.38,-191.96 593.14,-186.77 591.92,-193.67"/>
</g>
</g>
</svg>
