<?xml version="1.0" encoding="UTF-8" standalone="no"?>
<!DOCTYPE svg PUBLIC "-//W3C//DTD SVG 1.1//EN"
 "http://www.w3.org/Graphics/SVG/1.1/DTD/svg11.dtd">
<!-- Generated by graphviz version 2.43.0 (0)
 -->
<!-- Title: Parser::buildInputs Pages: 1 -->
<svg width="675pt" height="367pt"
 viewBox="0.00 0.00 675.00 366.50" xmlns="http://www.w3.org/2000/svg" xmlns:xlink="http://www.w3.org/1999/xlink">
<g id="graph0" class="graph" transform="scale(1 1) rotate(0) translate(4 362.5)">
<title>Parser::buildInputs</title>
<polygon fill="white" stroke="transparent" points="-4,4 -4,-362.5 671,-362.5 671,4 -4,4"/>
<!-- Node1 -->
<g id="node1" class="node">
<title>Node1</title>
<g id="a_node1"><a xlink:title="Builds the inputs.">
<polygon fill="#bfbfbf" stroke="black" points="0,-175.5 0,-194.5 107,-194.5 107,-175.5 0,-175.5"/>
<text text-anchor="middle" x="53.5" y="-182.5" font-family="Helvetica,sans-Serif" font-size="10.00">Parser::buildInputs</text>
</a>
</g>
</g>
<!-- Node2 -->
<g id="node2" class="node">
<title>Node2</title>
<g id="a_node2"><a xlink:href="../../dd/d02/classCommandLine.html#a6a94f5e16b2081e769567d3790b6d8ec" target="_top" xlink:title="Method to get the current precision.">
<polygon fill="white" stroke="black" points="148.5,-328 148.5,-358 309.5,-358 309.5,-328 148.5,-328"/>
<text text-anchor="start" x="156.5" y="-346" font-family="Helvetica,sans-Serif" font-size="10.00">CommandLine&lt; InLab6Inputs</text>
<text text-anchor="middle" x="229" y="-335" font-family="Helvetica,sans-Serif" font-size="10.00"> &gt;::getCurrentPrecision</text>
</a>
</g>
</g>
<!-- Node1&#45;&gt;Node2 -->
<g id="edge1" class="edge">
<title>Node1&#45;&gt;Node2</title>
<path fill="none" stroke="midnightblue" d="M58.55,-194.56C69.01,-218.12 99.21,-279.53 143,-313 148.35,-317.09 154.29,-320.65 160.49,-323.74"/>
<polygon fill="midnightblue" stroke="midnightblue" points="159.16,-326.98 169.71,-327.95 162.07,-320.61 159.16,-326.98"/>
</g>
<!-- Node3 -->
<g id="node3" class="node">
<title>Node3</title>
<g id="a_node3"><a xlink:href="../../d0/d27/classMyBLAS_1_1Matrix.html#a0772df3e76eadc9035e847316de0d249" target="_top" xlink:title="Getter for the number of rows in the matrix.">
<polygon fill="white" stroke="black" points="524,-270.5 524,-289.5 667,-289.5 667,-270.5 524,-270.5"/>
<text text-anchor="middle" x="595.5" y="-277.5" font-family="Helvetica,sans-Serif" font-size="10.00">MyBLAS::Matrix::getRows</text>
</a>
</g>
</g>
<!-- Node1&#45;&gt;Node3 -->
<g id="edge2" class="edge">
<title>Node1&#45;&gt;Node3</title>
<path fill="none" stroke="midnightblue" d="M61.98,-194.73C75.79,-211.85 107.21,-246.88 143,-261 270.14,-311.17 433.34,-301.85 524.63,-290.78"/>
<polygon fill="midnightblue" stroke="midnightblue" points="525.11,-294.25 534.59,-289.53 524.24,-287.3 525.11,-294.25"/>
</g>
<!-- Node4 -->
<g id="node4" class="node">
<title>Node4</title>
<g id="a_node4"><a xlink:href="../../d2/d6e/namespaceMyBLAS.html#a4ae8cb61e3457065790607979b939564" target="_top" xlink:title="Checks if the given matrix is diagonally dominant.">
<polygon fill="white" stroke="black" points="143,-175.5 143,-194.5 315,-194.5 315,-175.5 143,-175.5"/>
<text text-anchor="middle" x="229" y="-182.5" font-family="Helvetica,sans-Serif" font-size="10.00">MyBLAS::isDiagonallyDominant</text>
</a>
</g>
</g>
<!-- Node1&#45;&gt;Node4 -->
<g id="edge3" class="edge">
<title>Node1&#45;&gt;Node4</title>
<path fill="none" stroke="midnightblue" d="M107.03,-185C115.29,-185 124.04,-185 132.91,-185"/>
<polygon fill="midnightblue" stroke="midnightblue" points="132.96,-188.5 142.96,-185 132.96,-181.5 132.96,-188.5"/>
</g>
<!-- Node6 -->
<g id="node6" class="node">
<title>Node6</title>
<g id="a_node6"><a xlink:href="../../d4/d4d/classMyBLAS_1_1Vector.html#aae30f8178e4a34d332317c61e77c147a" target="_top" xlink:title="Getter for the size of the vector.">
<polygon fill="white" stroke="black" points="536,-156.5 536,-175.5 655,-175.5 655,-156.5 536,-156.5"/>
<text text-anchor="middle" x="595.5" y="-163.5" font-family="Helvetica,sans-Serif" font-size="10.00">MyBLAS::Vector::size</text>
</a>
</g>
</g>
<!-- Node1&#45;&gt;Node6 -->
<g id="edge21" class="edge">
<title>Node1&#45;&gt;Node6</title>
<path fill="none" stroke="midnightblue" d="M90.39,-175.49C106.37,-171.73 125.5,-167.86 143,-166 277.96,-151.68 436.9,-156.73 525.64,-161.5"/>
<polygon fill="midnightblue" stroke="midnightblue" points="525.67,-165.01 535.85,-162.06 526.05,-158.02 525.67,-165.01"/>
</g>
<!-- Node7 -->
<g id="node7" class="node">
<title>Node7</title>
<g id="a_node7"><a xlink:href="../../d2/d6e/namespaceMyBLAS.html#a0b887e323f8337bd87ef20dff8af5c1f" target="_top" xlink:title="Checks if the given matrix is a square matrix.">
<polygon fill="white" stroke="black" points="351,-213.5 351,-232.5 488,-232.5 488,-213.5 351,-213.5"/>
<text text-anchor="middle" x="419.5" y="-220.5" font-family="Helvetica,sans-Serif" font-size="10.00">MyBLAS::isSquareMatrix</text>
</a>
</g>
</g>
<!-- Node1&#45;&gt;Node7 -->
<g id="edge15" class="edge">
<title>Node1&#45;&gt;Node7</title>
<path fill="none" stroke="midnightblue" d="M64.92,-194.63C80.51,-208.31 111.44,-232.72 143,-242 222.67,-265.44 320.66,-248.46 375.7,-235.03"/>
<polygon fill="midnightblue" stroke="midnightblue" points="376.62,-238.41 385.46,-232.57 374.91,-231.62 376.62,-238.41"/>
</g>
<!-- Node11 -->
<g id="node11" class="node">
<title>Node11</title>
<g id="a_node11"><a xlink:href="../../d2/d6e/namespaceMyBLAS.html#ad78205a07b1500a10fae544f919d0801" target="_top" xlink:title="Checks if the given matrix is positive definite using Cholesky decomposition.">
<polygon fill="white" stroke="black" points="154.5,-88 154.5,-118 303.5,-118 303.5,-88 154.5,-88"/>
<text text-anchor="start" x="162.5" y="-106" font-family="Helvetica,sans-Serif" font-size="10.00">MyBLAS::isPositiveDefinite</text>
<text text-anchor="middle" x="229" y="-95" font-family="Helvetica,sans-Serif" font-size="10.00">Matrix</text>
</a>
</g>
</g>
<!-- Node1&#45;&gt;Node11 -->
<g id="edge11" class="edge">
<title>Node1&#45;&gt;Node11</title>
<path fill="none" stroke="midnightblue" d="M68.75,-175.46C85.87,-164.29 115.69,-145.7 143,-133 151.74,-128.94 161.2,-125.09 170.52,-121.59"/>
<polygon fill="midnightblue" stroke="midnightblue" points="171.95,-124.8 180.15,-118.08 169.55,-118.22 171.95,-124.8"/>
</g>
<!-- Node13 -->
<g id="node13" class="node">
<title>Node13</title>
<g id="a_node13"><a xlink:href="../../d2/d6e/namespaceMyBLAS.html#af293c95e705171bdd15268039d337135" target="_top" xlink:title="Checks if the given matrix is symmetric.">
<polygon fill="white" stroke="black" points="151,-213.5 151,-232.5 307,-232.5 307,-213.5 151,-213.5"/>
<text text-anchor="middle" x="229" y="-220.5" font-family="Helvetica,sans-Serif" font-size="10.00">MyBLAS::isSymmetricMatrix</text>
</a>
</g>
</g>
<!-- Node1&#45;&gt;Node13 -->
<g id="edge16" class="edge">
<title>Node1&#45;&gt;Node13</title>
<path fill="none" stroke="midnightblue" d="M98.28,-194.59C121.49,-199.67 150.18,-205.96 174.67,-211.32"/>
<polygon fill="midnightblue" stroke="midnightblue" points="174.02,-214.76 184.53,-213.48 175.51,-207.92 174.02,-214.76"/>
</g>
<!-- Node14 -->
<g id="node14" class="node">
<title>Node14</title>
<g id="a_node14"><a xlink:href="../../dd/d02/classCommandLine.html#a7001590923e6bfdf380448136b8e65bd" target="_top" xlink:title="Method to print a line to the console. This method prints a line of dashes to the console.">
<polygon fill="white" stroke="black" points="148.5,-39 148.5,-69 309.5,-69 309.5,-39 148.5,-39"/>
<text text-anchor="start" x="156.5" y="-57" font-family="Helvetica,sans-Serif" font-size="10.00">CommandLine&lt; InLab6Inputs</text>
<text text-anchor="middle" x="229" y="-46" font-family="Helvetica,sans-Serif" font-size="10.00"> &gt;::printLine</text>
</a>
</g>
</g>
<!-- Node1&#45;&gt;Node14 -->
<g id="edge19" class="edge">
<title>Node1&#45;&gt;Node14</title>
<path fill="none" stroke="midnightblue" d="M59.73,-175.34C71.62,-154.32 102.81,-104.19 143,-78 145.47,-76.39 148.05,-74.89 150.7,-73.49"/>
<polygon fill="midnightblue" stroke="midnightblue" points="152.45,-76.53 159.99,-69.09 149.45,-70.2 152.45,-76.53"/>
</g>
<!-- Node15 -->
<g id="node15" class="node">
<title>Node15</title>
<g id="a_node15"><a xlink:href="../../d7/de4/FileParser_8h.html#a05aeb46aa7f312dd74467464305b1a5b" target="_top" xlink:title="Reads a JSON file and stores the data in a JSON object.">
<polygon fill="white" stroke="black" points="198,-0.5 198,-19.5 260,-19.5 260,-0.5 198,-0.5"/>
<text text-anchor="middle" x="229" y="-7.5" font-family="Helvetica,sans-Serif" font-size="10.00">readJSON</text>
</a>
</g>
</g>
<!-- Node1&#45;&gt;Node15 -->
<g id="edge20" class="edge">
<title>Node1&#45;&gt;Node15</title>
<path fill="none" stroke="midnightblue" d="M56.96,-175.47C64.56,-147.96 90.45,-67.91 143,-29 155.84,-19.5 172.55,-14.6 187.76,-12.13"/>
<polygon fill="midnightblue" stroke="midnightblue" points="188.52,-15.56 197.98,-10.78 187.6,-8.62 188.52,-15.56"/>
</g>
<!-- Node5 -->
<g id="node5" class="node">
<title>Node5</title>
<g id="a_node5"><a xlink:href="../../dd/df5/namespaceMyBLAS_1_1Stats.html#afeaf3b7bba0ff1b952b35d0effc0bca9" target="_top" xlink:title="Function to find the absolute value of each element in a vector.">
<polygon fill="white" stroke="black" points="364,-175.5 364,-194.5 475,-194.5 475,-175.5 364,-175.5"/>
<text text-anchor="middle" x="419.5" y="-182.5" font-family="Helvetica,sans-Serif" font-size="10.00">MyBLAS::Stats::abs</text>
</a>
</g>
</g>
<!-- Node4&#45;&gt;Node5 -->
<g id="edge4" class="edge">
<title>Node4&#45;&gt;Node5</title>
<path fill="none" stroke="midnightblue" d="M315.15,-185C328.11,-185 341.3,-185 353.73,-185"/>
<polygon fill="midnightblue" stroke="midnightblue" points="353.97,-188.5 363.97,-185 353.97,-181.5 353.97,-188.5"/>
</g>
<!-- Node4&#45;&gt;Node7 -->
<g id="edge6" class="edge">
<title>Node4&#45;&gt;Node7</title>
<path fill="none" stroke="midnightblue" d="M277.57,-194.59C303,-199.72 334.5,-206.07 361.27,-211.46"/>
<polygon fill="midnightblue" stroke="midnightblue" points="360.78,-214.93 371.28,-213.48 362.16,-208.07 360.78,-214.93"/>
</g>
<!-- Node9 -->
<g id="node9" class="node">
<title>Node9</title>
<g id="a_node9"><a xlink:href="../../dd/df5/namespaceMyBLAS_1_1Stats.html#aaa0d2e3d22af2b7894169b7c90ba6146" target="_top" xlink:title="Function to find the sum of all elements in a vector.">
<polygon fill="white" stroke="black" points="362,-99.5 362,-118.5 477,-118.5 477,-99.5 362,-99.5"/>
<text text-anchor="middle" x="419.5" y="-106.5" font-family="Helvetica,sans-Serif" font-size="10.00">MyBLAS::Stats::sum</text>
</a>
</g>
</g>
<!-- Node4&#45;&gt;Node9 -->
<g id="edge9" class="edge">
<title>Node4&#45;&gt;Node9</title>
<path fill="none" stroke="midnightblue" d="M253.87,-175.37C287.16,-161.95 347.65,-137.57 385.31,-122.38"/>
<polygon fill="midnightblue" stroke="midnightblue" points="386.85,-125.53 394.82,-118.55 384.24,-119.04 386.85,-125.53"/>
</g>
<!-- Node5&#45;&gt;Node6 -->
<g id="edge5" class="edge">
<title>Node5&#45;&gt;Node6</title>
<path fill="none" stroke="midnightblue" d="M475.08,-179.04C491.09,-177.29 508.81,-175.36 525.59,-173.52"/>
<polygon fill="midnightblue" stroke="midnightblue" points="526.34,-176.96 535.9,-172.4 525.58,-170.01 526.34,-176.96"/>
</g>
<!-- Node7&#45;&gt;Node3 -->
<g id="edge8" class="edge">
<title>Node7&#45;&gt;Node3</title>
<path fill="none" stroke="midnightblue" d="M449.62,-232.54C478.73,-242.08 523.66,-256.79 555.76,-267.31"/>
<polygon fill="midnightblue" stroke="midnightblue" points="554.69,-270.64 565.28,-270.43 556.87,-263.99 554.69,-270.64"/>
</g>
<!-- Node8 -->
<g id="node8" class="node">
<title>Node8</title>
<g id="a_node8"><a xlink:href="../../d0/d27/classMyBLAS_1_1Matrix.html#a720cd9095d330d43de367bfbffffb864" target="_top" xlink:title="Getter for the number of columns in the matrix.">
<polygon fill="white" stroke="black" points="527,-213.5 527,-232.5 664,-232.5 664,-213.5 527,-213.5"/>
<text text-anchor="middle" x="595.5" y="-220.5" font-family="Helvetica,sans-Serif" font-size="10.00">MyBLAS::Matrix::getCols</text>
</a>
</g>
</g>
<!-- Node7&#45;&gt;Node8 -->
<g id="edge7" class="edge">
<title>Node7&#45;&gt;Node8</title>
<path fill="none" stroke="midnightblue" d="M488.27,-223C497.59,-223 507.22,-223 516.7,-223"/>
<polygon fill="midnightblue" stroke="midnightblue" points="516.91,-226.5 526.91,-223 516.91,-219.5 516.91,-226.5"/>
</g>
<!-- Node10 -->
<g id="node10" class="node">
<title>Node10</title>
<g id="a_node10"><a xlink:href="../../d4/d4d/classMyBLAS_1_1Vector.html#a6188d71192e096e25ae1c1a46150a0ab" target="_top" xlink:title="Getter for the vector data.">
<polygon fill="white" stroke="black" points="526,-99.5 526,-118.5 665,-118.5 665,-99.5 526,-99.5"/>
<text text-anchor="middle" x="595.5" y="-106.5" font-family="Helvetica,sans-Serif" font-size="10.00">MyBLAS::Vector::getData</text>
</a>
</g>
</g>
<!-- Node9&#45;&gt;Node10 -->
<g id="edge10" class="edge">
<title>Node9&#45;&gt;Node10</title>
<path fill="none" stroke="midnightblue" d="M477.47,-109C489.67,-109 502.77,-109 515.63,-109"/>
<polygon fill="midnightblue" stroke="midnightblue" points="515.87,-112.5 525.87,-109 515.87,-105.5 515.87,-112.5"/>
</g>
<!-- Node11&#45;&gt;Node7 -->
<g id="edge12" class="edge">
<title>Node11&#45;&gt;Node7</title>
<path fill="none" stroke="midnightblue" d="M252.48,-118.05C270.1,-130.22 294.93,-148.21 315,-166 332.41,-181.43 331.09,-191.97 351,-204 354.58,-206.16 358.41,-208.08 362.36,-209.79"/>
<polygon fill="midnightblue" stroke="midnightblue" points="361.15,-213.08 371.74,-213.41 363.66,-206.54 361.15,-213.08"/>
</g>
<!-- Node11&#45;&gt;Node9 -->
<g id="edge14" class="edge">
<title>Node11&#45;&gt;Node9</title>
<path fill="none" stroke="midnightblue" d="M303.69,-105.35C319.53,-105.85 336.18,-106.38 351.74,-106.88"/>
<polygon fill="midnightblue" stroke="midnightblue" points="351.68,-110.37 361.79,-107.19 351.9,-103.38 351.68,-110.37"/>
</g>
<!-- Node12 -->
<g id="node12" class="node">
<title>Node12</title>
<g id="a_node12"><a xlink:href="../../dd/dd7/plot__points_8m.html#a07ca9f04874775e798496347c3e80b84" target="_top" xlink:title=" ">
<polygon fill="white" stroke="black" points="405,-61.5 405,-80.5 434,-80.5 434,-61.5 405,-61.5"/>
<text text-anchor="middle" x="419.5" y="-68.5" font-family="Helvetica,sans-Serif" font-size="10.00">L</text>
</a>
</g>
</g>
<!-- Node11&#45;&gt;Node12 -->
<g id="edge13" class="edge">
<title>Node11&#45;&gt;Node12</title>
<path fill="none" stroke="midnightblue" d="M303.69,-90.49C335.99,-85.01 371.68,-78.95 394.56,-75.06"/>
<polygon fill="midnightblue" stroke="midnightblue" points="395.41,-78.47 404.69,-73.34 394.24,-71.57 395.41,-78.47"/>
</g>
<!-- Node13&#45;&gt;Node5 -->
<g id="edge17" class="edge">
<title>Node13&#45;&gt;Node5</title>
<path fill="none" stroke="midnightblue" d="M277.57,-213.41C303,-208.28 334.5,-201.93 361.27,-196.54"/>
<polygon fill="midnightblue" stroke="midnightblue" points="362.16,-199.93 371.28,-194.52 360.78,-193.07 362.16,-199.93"/>
</g>
<!-- Node13&#45;&gt;Node7 -->
<g id="edge18" class="edge">
<title>Node13&#45;&gt;Node7</title>
<path fill="none" stroke="midnightblue" d="M307.21,-223C318.27,-223 329.65,-223 340.71,-223"/>
<polygon fill="midnightblue" stroke="midnightblue" points="340.77,-226.5 350.77,-223 340.77,-219.5 340.77,-226.5"/>
</g>
</g>
</svg>
