<?xml version="1.0" encoding="UTF-8" standalone="no"?>
<!DOCTYPE svg PUBLIC "-//W3C//DTD SVG 1.1//EN"
 "http://www.w3.org/Graphics/SVG/1.1/DTD/svg11.dtd">
<!-- Generated by graphviz version 2.43.0 (0)
 -->
<!-- Title: src/utils/mpi/MPIProject.h Pages: 1 -->
<svg width="464pt" height="140pt"
 viewBox="0.00 0.00 463.50 140.00" xmlns="http://www.w3.org/2000/svg" xmlns:xlink="http://www.w3.org/1999/xlink">
<g id="graph0" class="graph" transform="scale(1 1) rotate(0) translate(4 136)">
<title>src/utils/mpi/MPIProject.h</title>
<polygon fill="white" stroke="transparent" points="-4,4 -4,-136 459.5,-136 459.5,4 -4,4"/>
<!-- Node1 -->
<g id="node1" class="node">
<title>Node1</title>
<g id="a_node1"><a xlink:title="This file contains the definition of the MPIProject class, which is a template class for creating MPI...">
<polygon fill="#bfbfbf" stroke="black" points="154.5,-112.5 154.5,-131.5 294.5,-131.5 294.5,-112.5 154.5,-112.5"/>
<text text-anchor="middle" x="224.5" y="-119.5" font-family="Helvetica,sans-Serif" font-size="10.00">src/utils/mpi/MPIProject.h</text>
</a>
</g>
</g>
<!-- Node2 -->
<g id="node2" class="node">
<title>Node2</title>
<g id="a_node2"><a xlink:href="../../d6/d06/inlab8_2inlab8_8h.html" target="_top" xlink:title=" ">
<polygon fill="white" stroke="black" points="5,-56.5 5,-75.5 134,-75.5 134,-56.5 5,-56.5"/>
<text text-anchor="middle" x="69.5" y="-63.5" font-family="Helvetica,sans-Serif" font-size="10.00">src/labs/inlab8/inlab8.h</text>
</a>
</g>
</g>
<!-- Node1&#45;&gt;Node2 -->
<g id="edge1" class="edge">
<title>Node1&#45;&gt;Node2</title>
<path fill="none" stroke="midnightblue" d="M190.17,-109.04C161,-98.88 119.86,-84.55 93.95,-75.52"/>
<polygon fill="midnightblue" stroke="midnightblue" points="189.34,-112.46 199.94,-112.44 191.65,-105.85 189.34,-112.46"/>
</g>
<!-- Node4 -->
<g id="node4" class="node">
<title>Node4</title>
<g id="a_node4"><a xlink:href="../../d8/d5d/outlab7_8h.html" target="_top" xlink:title=" ">
<polygon fill="white" stroke="black" points="153,-56.5 153,-75.5 296,-75.5 296,-56.5 153,-56.5"/>
<text text-anchor="middle" x="224.5" y="-63.5" font-family="Helvetica,sans-Serif" font-size="10.00">src/labs/outlab7/outlab7.h</text>
</a>
</g>
</g>
<!-- Node1&#45;&gt;Node4 -->
<g id="edge3" class="edge">
<title>Node1&#45;&gt;Node4</title>
<path fill="none" stroke="midnightblue" d="M224.5,-101.8C224.5,-92.91 224.5,-82.78 224.5,-75.75"/>
<polygon fill="midnightblue" stroke="midnightblue" points="221,-102.08 224.5,-112.08 228,-102.08 221,-102.08"/>
</g>
<!-- Node6 -->
<g id="node6" class="node">
<title>Node6</title>
<g id="a_node6"><a xlink:href="../../dd/d2c/outlab8_2inlab8_8h.html" target="_top" xlink:title=" ">
<polygon fill="white" stroke="black" points="315.5,-56.5 315.5,-75.5 451.5,-75.5 451.5,-56.5 315.5,-56.5"/>
<text text-anchor="middle" x="383.5" y="-63.5" font-family="Helvetica,sans-Serif" font-size="10.00">src/labs/outlab8/inlab8.h</text>
</a>
</g>
</g>
<!-- Node1&#45;&gt;Node6 -->
<g id="edge5" class="edge">
<title>Node1&#45;&gt;Node6</title>
<path fill="none" stroke="midnightblue" d="M259.33,-109.17C289.27,-99 331.72,-84.59 358.42,-75.52"/>
<polygon fill="midnightblue" stroke="midnightblue" points="258.04,-105.91 249.69,-112.44 260.29,-112.54 258.04,-105.91"/>
</g>
<!-- Node3 -->
<g id="node3" class="node">
<title>Node3</title>
<g id="a_node3"><a xlink:href="../../df/de9/labs_2inlab8_2main_8cpp.html" target="_top" xlink:title=" ">
<polygon fill="white" stroke="black" points="0,-0.5 0,-19.5 135,-19.5 135,-0.5 0,-0.5"/>
<text text-anchor="middle" x="67.5" y="-7.5" font-family="Helvetica,sans-Serif" font-size="10.00">src/labs/inlab8/main.cpp</text>
</a>
</g>
</g>
<!-- Node2&#45;&gt;Node3 -->
<g id="edge2" class="edge">
<title>Node2&#45;&gt;Node3</title>
<path fill="none" stroke="midnightblue" d="M68.79,-45.8C68.46,-36.91 68.08,-26.78 67.82,-19.75"/>
<polygon fill="midnightblue" stroke="midnightblue" points="65.3,-46.22 69.17,-56.08 72.3,-45.96 65.3,-46.22"/>
</g>
<!-- Node5 -->
<g id="node5" class="node">
<title>Node5</title>
<g id="a_node5"><a xlink:href="../../d5/d52/labs_2outlab7_2main_8cpp.html" target="_top" xlink:title=" ">
<polygon fill="white" stroke="black" points="153.5,-0.5 153.5,-19.5 295.5,-19.5 295.5,-0.5 153.5,-0.5"/>
<text text-anchor="middle" x="224.5" y="-7.5" font-family="Helvetica,sans-Serif" font-size="10.00">src/labs/outlab7/main.cpp</text>
</a>
</g>
</g>
<!-- Node4&#45;&gt;Node5 -->
<g id="edge4" class="edge">
<title>Node4&#45;&gt;Node5</title>
<path fill="none" stroke="midnightblue" d="M224.5,-45.8C224.5,-36.91 224.5,-26.78 224.5,-19.75"/>
<polygon fill="midnightblue" stroke="midnightblue" points="221,-46.08 224.5,-56.08 228,-46.08 221,-46.08"/>
</g>
<!-- Node7 -->
<g id="node7" class="node">
<title>Node7</title>
<g id="a_node7"><a xlink:href="../../d5/d90/labs_2outlab8_2main_8cpp.html" target="_top" xlink:title=" ">
<polygon fill="white" stroke="black" points="313.5,-0.5 313.5,-19.5 455.5,-19.5 455.5,-0.5 313.5,-0.5"/>
<text text-anchor="middle" x="384.5" y="-7.5" font-family="Helvetica,sans-Serif" font-size="10.00">src/labs/outlab8/main.cpp</text>
</a>
</g>
</g>
<!-- Node6&#45;&gt;Node7 -->
<g id="edge6" class="edge">
<title>Node6&#45;&gt;Node7</title>
<path fill="none" stroke="midnightblue" d="M383.86,-45.8C384.02,-36.91 384.21,-26.78 384.34,-19.75"/>
<polygon fill="midnightblue" stroke="midnightblue" points="380.35,-46.02 383.67,-56.08 387.35,-46.15 380.35,-46.02"/>
</g>
</g>
</svg>
