<?xml version="1.0" encoding="UTF-8" standalone="no"?>
<!DOCTYPE svg PUBLIC "-//W3C//DTD SVG 1.1//EN"
 "http://www.w3.org/Graphics/SVG/1.1/DTD/svg11.dtd">
<!-- Generated by graphviz version 2.43.0 (0)
 -->
<!-- Title: MyBLAS::norm Pages: 1 -->
<!--zoomable 619 -->
<svg id="main" version="1.1" xmlns="http://www.w3.org/2000/svg" xmlns:xlink="http://www.w3.org/1999/xlink" xml:space="preserve" onload="init(evt)">
<style type="text/css"><![CDATA[
.edge:hover path { stroke: red; }
.edge:hover polygon { stroke: red; fill: red; }
]]></style>
<script type="text/javascript"><![CDATA[
var edges = document.getElementsByTagName('g');
if (edges && edges.length) {
  for (var i=0;i<edges.length;i++) {
    if (edges[i].id.substr(0,4)=='edge') {
      edges[i].setAttribute('class','edge');
    }
  }
}
]]></script>
        <defs>
                <circle id="rim" cx="0" cy="0" r="7"/>
                <circle id="rim2" cx="0" cy="0" r="3.5"/>
                <g id="zoomPlus">
                        <use xlink:href="#rim" fill="#404040">
                                <set attributeName="fill" to="#808080" begin="zoomplus.mouseover" end="zoomplus.mouseout"/>
                        </use>
                        <path d="M-4,0h8M0,-4v8" fill="none" stroke="white" stroke-width="1.5" pointer-events="none"/>
                </g>
                <g id="zoomMin">
                        <use xlink:href="#rim" fill="#404040">
                                <set attributeName="fill" to="#808080" begin="zoomminus.mouseover" end="zoomminus.mouseout"/>
                        </use>
                        <path d="M-4,0h8" fill="none" stroke="white" stroke-width="1.5" pointer-events="none"/>
                </g>
                <g id="dirArrow">
                        <path fill="none" stroke="white" stroke-width="1.5" d="M0,-3.0v7 M-2.5,-0.5L0,-3.0L2.5,-0.5"/>
                </g>
               <g id="resetDef">
                       <use xlink:href="#rim2" fill="#404040">
                               <set attributeName="fill" to="#808080" begin="reset.mouseover" end="reset.mouseout"/>
                       </use>
               </g>
        </defs>

<script type="text/javascript">
var viewWidth = 801;
var viewHeight = 619;
var sectionId = 'dynsection-44';
</script>
<script xlink:href="../../svgpan.js"/>
<svg id="graph" class="graph">
<g id="viewport">
<title>MyBLAS::norm</title>
<polygon fill="white" stroke="transparent" points="-4,4 -4,-615 797,-615 797,4 -4,4"/>
<!-- Node1 -->
<g id="node1" class="node">
<title>Node1</title>
<g id="a_node1"><a xlink:title="A template function to calculate the norm of a vector.">
<polygon fill="#bfbfbf" stroke="black" points="704,-334.5 704,-353.5 793,-353.5 793,-334.5 704,-334.5"/>
<text text-anchor="middle" x="748.5" y="-341.5" font-family="Helvetica,sans-Serif" font-size="10.00">MyBLAS::norm</text>
</a>
</g>
</g>
<!-- Node2 -->
<g id="node2" class="node">
<title>Node2</title>
<g id="a_node2"><a xlink:href="../../d2/d6e/namespaceMyBLAS.html#a76d22f1b64bcd3b2dbd1546df0fa691f" target="_top" xlink:title="Checks if the given vector is a unit vector.">
<polygon fill="white" stroke="black" points="532.5,-545.5 532.5,-564.5 654.5,-564.5 654.5,-545.5 532.5,-545.5"/>
<text text-anchor="middle" x="593.5" y="-552.5" font-family="Helvetica,sans-Serif" font-size="10.00">MyBLAS::isUnitVector</text>
</a>
</g>
</g>
<!-- Node1&#45;&gt;Node2 -->
<g id="edge1" class="edge">
<title>Node1&#45;&gt;Node2</title>
<path fill="none" stroke="midnightblue" d="M739.8,-363.13C727.43,-392.51 701.11,-449.65 668,-491 650.24,-513.19 624.13,-533.82 608.29,-545.38"/>
<polygon fill="midnightblue" stroke="midnightblue" points="743.14,-364.23 743.72,-353.65 736.67,-361.56 743.14,-364.23"/>
</g>
<!-- Node4 -->
<g id="node4" class="node">
<title>Node4</title>
<g id="a_node4"><a xlink:href="../../db/df1/Helpers_8h.html#a059322c7104ae7ad1ee091c6e7ca17c1" target="_top" xlink:title="Calculates the number of iterations for a given point in the Julia set.">
<polygon fill="white" stroke="black" points="543.5,-462.5 543.5,-481.5 643.5,-481.5 643.5,-462.5 543.5,-462.5"/>
<text text-anchor="middle" x="593.5" y="-469.5" font-family="Helvetica,sans-Serif" font-size="10.00">juliaSetIterations</text>
</a>
</g>
</g>
<!-- Node1&#45;&gt;Node4 -->
<g id="edge3" class="edge">
<title>Node1&#45;&gt;Node4</title>
<path fill="none" stroke="midnightblue" d="M728.17,-360.17C695.97,-387.11 632.29,-440.38 606.13,-462.27"/>
<polygon fill="midnightblue" stroke="midnightblue" points="730.58,-362.72 736,-353.62 726.08,-357.35 730.58,-362.72"/>
</g>
<!-- Node6 -->
<g id="node6" class="node">
<title>Node6</title>
<g id="a_node6"><a xlink:href="../../d2/d6e/namespaceMyBLAS.html#ac6dacb7fc104126e5fa62e02f0ec1446" target="_top" xlink:title="Calculates the L2 norm of the distance (Euclidean distance) between two containers.">
<polygon fill="white" stroke="black" points="556.5,-334.5 556.5,-353.5 630.5,-353.5 630.5,-334.5 556.5,-334.5"/>
<text text-anchor="middle" x="593.5" y="-341.5" font-family="Helvetica,sans-Serif" font-size="10.00">MyBLAS::L2</text>
</a>
</g>
</g>
<!-- Node1&#45;&gt;Node6 -->
<g id="edge5" class="edge">
<title>Node1&#45;&gt;Node6</title>
<path fill="none" stroke="midnightblue" d="M693.64,-344C672.76,-344 649.4,-344 630.61,-344"/>
<polygon fill="midnightblue" stroke="midnightblue" points="693.66,-347.5 703.66,-344 693.66,-340.5 693.66,-347.5"/>
</g>
<!-- Node36 -->
<g id="node36" class="node">
<title>Node36</title>
<g id="a_node36"><a xlink:href="../../dc/d9f/classInLab4.html#a95f32ac7f4ed5eb5d1093d22a291a6cb" target="_top" xlink:title="This function prints the Mandelbrot set.">
<polygon fill="white" stroke="black" points="519,-296.5 519,-315.5 668,-315.5 668,-296.5 519,-296.5"/>
<text text-anchor="middle" x="593.5" y="-303.5" font-family="Helvetica,sans-Serif" font-size="10.00">InLab4::printMandelbrotSet</text>
</a>
</g>
</g>
<!-- Node1&#45;&gt;Node36 -->
<g id="edge40" class="edge">
<title>Node1&#45;&gt;Node36</title>
<path fill="none" stroke="midnightblue" d="M699.02,-331.96C677.65,-326.65 652.89,-320.5 632.83,-315.52"/>
<polygon fill="midnightblue" stroke="midnightblue" points="698.34,-335.4 708.89,-334.41 700.03,-328.6 698.34,-335.4"/>
</g>
<!-- Node37 -->
<g id="node37" class="node">
<title>Node37</title>
<g id="a_node37"><a xlink:href="../../d2/d6e/namespaceMyBLAS.html#aca7f3065834fed0441d330abaee56e3b" target="_top" xlink:title=" ">
<polygon fill="white" stroke="black" points="531.5,-258.5 531.5,-277.5 655.5,-277.5 655.5,-258.5 531.5,-258.5"/>
<text text-anchor="middle" x="593.5" y="-265.5" font-family="Helvetica,sans-Serif" font-size="10.00">MyBLAS::TYPED_TEST</text>
</a>
</g>
</g>
<!-- Node1&#45;&gt;Node37 -->
<g id="edge41" class="edge">
<title>Node1&#45;&gt;Node37</title>
<path fill="none" stroke="midnightblue" d="M729.3,-327.94C713.94,-315.15 690.84,-297.69 668,-287 659.88,-283.2 650.89,-280.08 642.06,-277.55"/>
<polygon fill="midnightblue" stroke="midnightblue" points="727.11,-330.67 736.99,-334.49 731.65,-325.34 727.11,-330.67"/>
</g>
<!-- Node3 -->
<g id="node3" class="node">
<title>Node3</title>
<g id="a_node3"><a xlink:href="../../d2/d6e/namespaceMyBLAS.html#a07edd788b903c20da93e3c3c60f0c098" target="_top" xlink:title=" ">
<polygon fill="white" stroke="black" points="350.5,-591.5 350.5,-610.5 474.5,-610.5 474.5,-591.5 350.5,-591.5"/>
<text text-anchor="middle" x="412.5" y="-598.5" font-family="Helvetica,sans-Serif" font-size="10.00">MyBLAS::TYPED_TEST</text>
</a>
</g>
</g>
<!-- Node2&#45;&gt;Node3 -->
<g id="edge2" class="edge">
<title>Node2&#45;&gt;Node3</title>
<path fill="none" stroke="midnightblue" d="M545.68,-567.03C516,-574.66 478.13,-584.39 450.54,-591.48"/>
<polygon fill="midnightblue" stroke="midnightblue" points="546.6,-570.41 555.41,-564.53 544.85,-563.63 546.6,-570.41"/>
</g>
<!-- Node5 -->
<g id="node5" class="node">
<title>Node5</title>
<g id="a_node5"><a xlink:href="../../db/df1/Helpers_8h.html#ae8d5abc9a487df9eaa8058819e252d0f" target="_top" xlink:title="Prints the Julia set to the console using the specified canvas properties.">
<polygon fill="white" stroke="black" points="374.5,-553.5 374.5,-572.5 450.5,-572.5 450.5,-553.5 374.5,-553.5"/>
<text text-anchor="middle" x="412.5" y="-560.5" font-family="Helvetica,sans-Serif" font-size="10.00">printJuliaSet</text>
</a>
</g>
</g>
<!-- Node4&#45;&gt;Node5 -->
<g id="edge4" class="edge">
<title>Node4&#45;&gt;Node5</title>
<path fill="none" stroke="midnightblue" d="M572.59,-487.89C551.46,-504.06 516.56,-528.84 483,-544 472.85,-548.58 461.36,-552.28 450.69,-555.14"/>
<polygon fill="midnightblue" stroke="midnightblue" points="575.01,-490.45 580.76,-481.54 570.71,-484.92 575.01,-490.45"/>
</g>
<!-- Node7 -->
<g id="node7" class="node">
<title>Node7</title>
<g id="a_node7"><a xlink:href="../../d7/d9a/namespaceMyRelaxationMethod.html#afdf5008e9dbe2c5d17070d2dbfb89ebd" target="_top" xlink:title=" ">
<polygon fill="white" stroke="black" points="342,-329 342,-359 483,-359 483,-329 342,-329"/>
<text text-anchor="start" x="350" y="-347" font-family="Helvetica,sans-Serif" font-size="10.00">MyRelaxationMethod</text>
<text text-anchor="middle" x="412.5" y="-336" font-family="Helvetica,sans-Serif" font-size="10.00">::applyConjugateGradient</text>
</a>
</g>
</g>
<!-- Node6&#45;&gt;Node7 -->
<g id="edge6" class="edge">
<title>Node6&#45;&gt;Node7</title>
<path fill="none" stroke="midnightblue" d="M546.04,-344C526.93,-344 504.38,-344 483.35,-344"/>
<polygon fill="midnightblue" stroke="midnightblue" points="546.28,-347.5 556.28,-344 546.28,-340.5 546.28,-347.5"/>
</g>
<!-- Node11 -->
<g id="node11" class="node">
<title>Node11</title>
<g id="a_node11"><a xlink:href="../../d7/d9a/namespaceMyRelaxationMethod.html#ac76943650285426073d6d4965cbb6834" target="_top" xlink:title=" ">
<polygon fill="white" stroke="black" points="352,-280 352,-310 473,-310 473,-280 352,-280"/>
<text text-anchor="start" x="360" y="-298" font-family="Helvetica,sans-Serif" font-size="10.00">MyRelaxationMethod</text>
<text text-anchor="middle" x="412.5" y="-287" font-family="Helvetica,sans-Serif" font-size="10.00">::applyP2SOR</text>
</a>
</g>
</g>
<!-- Node6&#45;&gt;Node11 -->
<g id="edge10" class="edge">
<title>Node6&#45;&gt;Node11</title>
<path fill="none" stroke="midnightblue" d="M546.49,-332.29C537.37,-329.92 527.87,-327.41 519,-325 501.54,-320.26 482.51,-314.91 465.48,-310.05"/>
<polygon fill="midnightblue" stroke="midnightblue" points="545.63,-335.68 556.19,-334.8 547.39,-328.9 545.63,-335.68"/>
</g>
<!-- Node12 -->
<g id="node12" class="node">
<title>Node12</title>
<g id="a_node12"><a xlink:href="../../d7/d9a/namespaceMyRelaxationMethod.html#a37b1fd2ee5b2724d52808f9490c1c5a8" target="_top" xlink:title="This function applies the Point Jacobi method to solve a system of linear equations.">
<polygon fill="white" stroke="black" points="352,-231 352,-261 473,-261 473,-231 352,-231"/>
<text text-anchor="start" x="360" y="-249" font-family="Helvetica,sans-Serif" font-size="10.00">MyRelaxationMethod</text>
<text text-anchor="middle" x="412.5" y="-238" font-family="Helvetica,sans-Serif" font-size="10.00">::applyPointJacobi</text>
</a>
</g>
</g>
<!-- Node6&#45;&gt;Node12 -->
<g id="edge11" class="edge">
<title>Node6&#45;&gt;Node12</title>
<path fill="none" stroke="midnightblue" d="M546.3,-337.52C536.69,-334.72 527.05,-330.72 519,-325 495.49,-308.29 505.72,-288.78 483,-271 478.05,-267.13 472.45,-263.82 466.63,-261.01"/>
<polygon fill="midnightblue" stroke="midnightblue" points="545.68,-340.97 556.23,-340.02 547.38,-334.18 545.68,-340.97"/>
</g>
<!-- Node21 -->
<g id="node21" class="node">
<title>Node21</title>
<g id="a_node21"><a xlink:href="../../d7/d9a/namespaceMyRelaxationMethod.html#a243ad9b544328fb7b499b467e67ddd9c" target="_top" xlink:title=" ">
<polygon fill="white" stroke="black" points="352,-90 352,-120 473,-120 473,-90 352,-90"/>
<text text-anchor="start" x="360" y="-108" font-family="Helvetica,sans-Serif" font-size="10.00">MyRelaxationMethod</text>
<text text-anchor="middle" x="412.5" y="-97" font-family="Helvetica,sans-Serif" font-size="10.00">::applyPSOR</text>
</a>
</g>
</g>
<!-- Node6&#45;&gt;Node21 -->
<g id="edge23" class="edge">
<title>Node6&#45;&gt;Node21</title>
<path fill="none" stroke="midnightblue" d="M546.37,-340.38C536.14,-337.5 526.22,-332.75 519,-325 458.91,-260.53 540.05,-197.18 483,-130 479.68,-126.09 475.7,-122.79 471.35,-120.01"/>
<polygon fill="midnightblue" stroke="midnightblue" points="545.65,-343.81 556.18,-342.6 547.2,-336.98 545.65,-343.81"/>
</g>
<!-- Node22 -->
<g id="node22" class="node">
<title>Node22</title>
<g id="a_node22"><a xlink:href="../../d7/d9a/namespaceMyRelaxationMethod.html#a8b6c4702b1a4d0420694761b497512c4" target="_top" xlink:title=" ">
<polygon fill="white" stroke="black" points="352,-33 352,-63 473,-63 473,-33 352,-33"/>
<text text-anchor="start" x="360" y="-51" font-family="Helvetica,sans-Serif" font-size="10.00">MyRelaxationMethod</text>
<text text-anchor="middle" x="412.5" y="-40" font-family="Helvetica,sans-Serif" font-size="10.00">::applySOR</text>
</a>
</g>
</g>
<!-- Node6&#45;&gt;Node22 -->
<g id="edge24" class="edge">
<title>Node6&#45;&gt;Node22</title>
<path fill="none" stroke="midnightblue" d="M546.45,-340.65C536.13,-337.77 526.14,-332.95 519,-325 445.45,-243.12 548.96,-168.11 483,-80 477.75,-72.98 470.58,-67.46 462.84,-63.12"/>
<polygon fill="midnightblue" stroke="midnightblue" points="545.84,-344.1 556.36,-342.85 547.36,-337.26 545.84,-344.1"/>
</g>
<!-- Node25 -->
<g id="node25" class="node">
<title>Node25</title>
<g id="a_node25"><a xlink:href="../../d7/d9a/namespaceMyRelaxationMethod.html#ae0d661fe726935eb50716fa26511e640" target="_top" xlink:title=" ">
<polygon fill="white" stroke="black" points="346,-504 346,-534 479,-534 479,-504 346,-504"/>
<text text-anchor="start" x="354" y="-522" font-family="Helvetica,sans-Serif" font-size="10.00">MyRelaxationMethod</text>
<text text-anchor="middle" x="412.5" y="-511" font-family="Helvetica,sans-Serif" font-size="10.00">::applySORBlockParallel</text>
</a>
</g>
</g>
<!-- Node6&#45;&gt;Node25 -->
<g id="edge27" class="edge">
<title>Node6&#45;&gt;Node25</title>
<path fill="none" stroke="midnightblue" d="M580.25,-362.15C554.46,-400.17 495.89,-485.44 483,-495 478.39,-498.42 473.25,-501.38 467.91,-503.94"/>
<polygon fill="midnightblue" stroke="midnightblue" points="583.34,-363.82 586.05,-353.58 577.55,-359.9 583.34,-363.82"/>
</g>
<!-- Node27 -->
<g id="node27" class="node">
<title>Node27</title>
<g id="a_node27"><a xlink:href="../../d7/d9a/namespaceMyRelaxationMethod.html#aa22486c856620523255787ef5bdb1f64" target="_top" xlink:title="This function applies the Successive Over&#45;Relaxation (SOR) method to solve a system of linear equatio...">
<polygon fill="white" stroke="black" points="352,-455 352,-485 473,-485 473,-455 352,-455"/>
<text text-anchor="start" x="360" y="-473" font-family="Helvetica,sans-Serif" font-size="10.00">MyRelaxationMethod</text>
<text text-anchor="middle" x="412.5" y="-462" font-family="Helvetica,sans-Serif" font-size="10.00">::applySORSerial</text>
</a>
</g>
</g>
<!-- Node6&#45;&gt;Node27 -->
<g id="edge29" class="edge">
<title>Node6&#45;&gt;Node27</title>
<path fill="none" stroke="midnightblue" d="M577.77,-361.34C558.15,-383.48 521.43,-421.69 483,-445 476.86,-448.72 470.08,-452.01 463.24,-454.88"/>
<polygon fill="midnightblue" stroke="midnightblue" points="580.49,-363.55 584.42,-353.71 575.21,-358.95 580.49,-363.55"/>
</g>
<!-- Node28 -->
<g id="node28" class="node">
<title>Node28</title>
<g id="a_node28"><a xlink:href="../../d7/d9a/namespaceMyRelaxationMethod.html#ac37edae4aec371352810b2f552647be4" target="_top" xlink:title="Applies the Symmetric Successive Over&#45;Relaxation (SSOR) method to solve a system of linear equations.">
<polygon fill="white" stroke="black" points="352,-139 352,-169 473,-169 473,-139 352,-139"/>
<text text-anchor="start" x="360" y="-157" font-family="Helvetica,sans-Serif" font-size="10.00">MyRelaxationMethod</text>
<text text-anchor="middle" x="412.5" y="-146" font-family="Helvetica,sans-Serif" font-size="10.00">::applySSOR</text>
</a>
</g>
</g>
<!-- Node6&#45;&gt;Node28 -->
<g id="edge30" class="edge">
<title>Node6&#45;&gt;Node28</title>
<path fill="none" stroke="midnightblue" d="M546.12,-339.87C536.09,-336.98 526.32,-332.36 519,-325 473.07,-278.85 525.53,-232.29 483,-183 478.13,-177.36 471.99,-172.79 465.37,-169.1"/>
<polygon fill="midnightblue" stroke="midnightblue" points="545.61,-343.34 556.14,-342.2 547.2,-336.53 545.61,-343.34"/>
</g>
<!-- Node31 -->
<g id="node31" class="node">
<title>Node31</title>
<g id="a_node31"><a xlink:href="../../df/df1/structOutput.html#aa91aa39c068c79585b906df4c6fda232" target="_top" xlink:title="Calculates and returns the error of the solution.">
<polygon fill="white" stroke="black" points="345.5,-192.5 345.5,-211.5 479.5,-211.5 479.5,-192.5 345.5,-192.5"/>
<text text-anchor="middle" x="412.5" y="-199.5" font-family="Helvetica,sans-Serif" font-size="10.00">Output::getSolutionError</text>
</a>
</g>
</g>
<!-- Node6&#45;&gt;Node31 -->
<g id="edge34" class="edge">
<title>Node6&#45;&gt;Node31</title>
<path fill="none" stroke="midnightblue" d="M546.28,-339.31C536.34,-336.44 526.57,-331.96 519,-325 483.31,-292.17 518.24,-255.32 483,-222 478.44,-217.69 473.01,-214.3 467.22,-211.63"/>
<polygon fill="midnightblue" stroke="midnightblue" points="545.66,-342.76 556.2,-341.67 547.29,-335.95 545.66,-342.76"/>
</g>
<!-- Node34 -->
<g id="node34" class="node">
<title>Node34</title>
<g id="a_node34"><a xlink:href="../../d2/d6e/namespaceMyBLAS.html#a4a13a3c077ee693c0297e4c68cbcc521" target="_top" xlink:title="Overloaded function that calculates the L2 norm (Euclidean distance) between two MyBLAS::Vector objec...">
<polygon fill="white" stroke="black" points="375.5,-416.5 375.5,-435.5 449.5,-435.5 449.5,-416.5 375.5,-416.5"/>
<text text-anchor="middle" x="412.5" y="-423.5" font-family="Helvetica,sans-Serif" font-size="10.00">MyBLAS::L2</text>
</a>
</g>
</g>
<!-- Node6&#45;&gt;Node34 -->
<g id="edge38" class="edge">
<title>Node6&#45;&gt;Node34</title>
<path fill="none" stroke="midnightblue" d="M570.15,-359.14C548.61,-373.17 514.71,-393.8 483,-407 472.49,-411.37 460.67,-415.04 449.8,-417.95"/>
<polygon fill="midnightblue" stroke="midnightblue" points="572.16,-362.01 578.58,-353.58 568.3,-356.16 572.16,-362.01"/>
</g>
<!-- Node35 -->
<g id="node35" class="node">
<title>Node35</title>
<g id="a_node35"><a xlink:href="../../d2/d6e/namespaceMyBLAS.html#a16a9e05487bec1dd53f7e66f6aa230ac" target="_top" xlink:title=" ">
<polygon fill="white" stroke="black" points="350.5,-378.5 350.5,-397.5 474.5,-397.5 474.5,-378.5 350.5,-378.5"/>
<text text-anchor="middle" x="412.5" y="-385.5" font-family="Helvetica,sans-Serif" font-size="10.00">MyBLAS::TYPED_TEST</text>
</a>
</g>
</g>
<!-- Node6&#45;&gt;Node35 -->
<g id="edge39" class="edge">
<title>Node6&#45;&gt;Node35</title>
<path fill="none" stroke="midnightblue" d="M546.35,-355.34C517.24,-362.5 480.08,-371.63 452.46,-378.42"/>
<polygon fill="midnightblue" stroke="midnightblue" points="547.4,-358.69 556.28,-352.9 545.73,-351.89 547.4,-358.69"/>
</g>
<!-- Node8 -->
<g id="node8" class="node">
<title>Node8</title>
<g id="a_node8"><a xlink:href="../../df/dfd/OutLab10Tests_8cpp.html#a151f7c7b9d80ddcf53ecd6bcbf489b2f" target="_top" xlink:title="Test for the Conjugate Gradient method.">
<polygon fill="white" stroke="black" points="175,-334.5 175,-353.5 252,-353.5 252,-334.5 175,-334.5"/>
<text text-anchor="middle" x="213.5" y="-341.5" font-family="Helvetica,sans-Serif" font-size="10.00">TYPED_TEST</text>
</a>
</g>
</g>
<!-- Node7&#45;&gt;Node8 -->
<g id="edge7" class="edge">
<title>Node7&#45;&gt;Node8</title>
<path fill="none" stroke="midnightblue" d="M331.73,-344C304.18,-344 274.6,-344 252.05,-344"/>
<polygon fill="midnightblue" stroke="midnightblue" points="331.77,-347.5 341.77,-344 331.77,-340.5 331.77,-347.5"/>
</g>
<!-- Node9 -->
<g id="node9" class="node">
<title>Node9</title>
<g id="a_node9"><a xlink:href="../../de/db3/namespaceCompute.html#a89c7abd89e30a9e6279b5e53081b2661" target="_top" xlink:title=" ">
<polygon fill="white" stroke="black" points="121,-382.5 121,-401.5 306,-401.5 306,-382.5 121,-382.5"/>
<text text-anchor="middle" x="213.5" y="-389.5" font-family="Helvetica,sans-Serif" font-size="10.00">Compute::usingConjugateGradient</text>
</a>
</g>
</g>
<!-- Node7&#45;&gt;Node9 -->
<g id="edge8" class="edge">
<title>Node7&#45;&gt;Node9</title>
<path fill="none" stroke="midnightblue" d="M339.99,-361.42C310.89,-368.51 278.39,-376.43 253.75,-382.44"/>
<polygon fill="midnightblue" stroke="midnightblue" points="340.82,-364.82 349.71,-359.06 339.16,-358.02 340.82,-364.82"/>
</g>
<!-- Node10 -->
<g id="node10" class="node">
<title>Node10</title>
<g id="a_node10"><a xlink:href="../../d7/d1f/classOutLab10.html#a7b70a96347bc6131b594841c796a0329" target="_top" xlink:title="This function is used to perform the main computation.">
<polygon fill="white" stroke="black" points="0,-392.5 0,-411.5 85,-411.5 85,-392.5 0,-392.5"/>
<text text-anchor="middle" x="42.5" y="-399.5" font-family="Helvetica,sans-Serif" font-size="10.00">OutLab10::run</text>
</a>
</g>
</g>
<!-- Node9&#45;&gt;Node10 -->
<g id="edge9" class="edge">
<title>Node9&#45;&gt;Node10</title>
<path fill="none" stroke="midnightblue" d="M110.49,-398.04C101.63,-398.56 93.05,-399.07 85.14,-399.54"/>
<polygon fill="midnightblue" stroke="midnightblue" points="110.81,-401.52 120.58,-397.44 110.39,-394.54 110.81,-401.52"/>
</g>
<!-- Node13 -->
<g id="node13" class="node">
<title>Node13</title>
<g id="a_node13"><a xlink:href="../../de/db3/namespaceCompute.html#a3b30a49d004f8370d19cd13f6492ddba" target="_top" xlink:title="Solves a linear system using the Jacobi SOR method.">
<polygon fill="white" stroke="black" points="142,-240.5 142,-259.5 285,-259.5 285,-240.5 142,-240.5"/>
<text text-anchor="middle" x="213.5" y="-247.5" font-family="Helvetica,sans-Serif" font-size="10.00">Compute::usingJacobiSOR</text>
</a>
</g>
</g>
<!-- Node12&#45;&gt;Node13 -->
<g id="edge12" class="edge">
<title>Node12&#45;&gt;Node13</title>
<path fill="none" stroke="midnightblue" d="M341.8,-247.42C323.38,-247.79 303.49,-248.19 285.03,-248.57"/>
<polygon fill="midnightblue" stroke="midnightblue" points="341.93,-250.91 351.86,-247.21 341.79,-243.91 341.93,-250.91"/>
</g>
<!-- Node17 -->
<g id="node17" class="node">
<title>Node17</title>
<g id="a_node17"><a xlink:href="../../de/db3/namespaceCompute.html#a0aa73a107ee5ea0767e15b7caddeecc7" target="_top" xlink:title="This method applies the Point Jacobi relaxation method to the given input matrices.">
<polygon fill="white" stroke="black" points="140,-278.5 140,-297.5 287,-297.5 287,-278.5 140,-278.5"/>
<text text-anchor="middle" x="213.5" y="-285.5" font-family="Helvetica,sans-Serif" font-size="10.00">Compute::usingPointJacobi</text>
</a>
</g>
</g>
<!-- Node12&#45;&gt;Node17 -->
<g id="edge16" class="edge">
<title>Node12&#45;&gt;Node17</title>
<path fill="none" stroke="midnightblue" d="M341.88,-261.28C329.92,-263.88 317.6,-266.53 306,-269 291.4,-272.11 275.48,-275.43 261.07,-278.42"/>
<polygon fill="midnightblue" stroke="midnightblue" points="342.79,-264.66 351.82,-259.12 341.31,-257.82 342.79,-264.66"/>
</g>
<!-- Node14 -->
<g id="node14" class="node">
<title>Node14</title>
<g id="a_node14"><a xlink:href="../../d0/d4c/classOutLab6.html#a901a1283fd029c9174f8469ac5cb3ad8" target="_top" xlink:title="This function runs the computation.">
<polygon fill="white" stroke="black" points="3,-202.5 3,-221.5 82,-221.5 82,-202.5 3,-202.5"/>
<text text-anchor="middle" x="42.5" y="-209.5" font-family="Helvetica,sans-Serif" font-size="10.00">OutLab6::run</text>
</a>
</g>
</g>
<!-- Node13&#45;&gt;Node14 -->
<g id="edge13" class="edge">
<title>Node13&#45;&gt;Node14</title>
<path fill="none" stroke="midnightblue" d="M155.13,-238.42C143.8,-236.04 132.02,-233.49 121,-231 108.03,-228.06 93.89,-224.66 81.28,-221.55"/>
<polygon fill="midnightblue" stroke="midnightblue" points="154.44,-241.84 164.94,-240.46 155.87,-234.99 154.44,-241.84"/>
</g>
<!-- Node15 -->
<g id="node15" class="node">
<title>Node15</title>
<g id="a_node15"><a xlink:href="../../dd/db5/classProject2.html#a0990db917f6a27a4e1cb9ac885698524" target="_top" xlink:title="This function runs the project.">
<polygon fill="white" stroke="black" points="3.5,-240.5 3.5,-259.5 81.5,-259.5 81.5,-240.5 3.5,-240.5"/>
<text text-anchor="middle" x="42.5" y="-247.5" font-family="Helvetica,sans-Serif" font-size="10.00">Project2::run</text>
</a>
</g>
</g>
<!-- Node13&#45;&gt;Node15 -->
<g id="edge14" class="edge">
<title>Node13&#45;&gt;Node15</title>
<path fill="none" stroke="midnightblue" d="M131.59,-250C114.16,-250 96.52,-250 81.65,-250"/>
<polygon fill="midnightblue" stroke="midnightblue" points="131.81,-253.5 141.81,-250 131.81,-246.5 131.81,-253.5"/>
</g>
<!-- Node16 -->
<g id="node16" class="node">
<title>Node16</title>
<g id="a_node16"><a xlink:href="../../dd/dfb/classProject3.html#a8bcff99aaba60e7d5e5be3cb7552d163" target="_top" xlink:title="This function runs the project.">
<polygon fill="white" stroke="black" points="3.5,-164.5 3.5,-183.5 81.5,-183.5 81.5,-164.5 3.5,-164.5"/>
<text text-anchor="middle" x="42.5" y="-171.5" font-family="Helvetica,sans-Serif" font-size="10.00">Project3::run</text>
</a>
</g>
</g>
<!-- Node13&#45;&gt;Node16 -->
<g id="edge15" class="edge">
<title>Node13&#45;&gt;Node16</title>
<path fill="none" stroke="midnightblue" d="M133.64,-236.96C129.26,-235.21 125.01,-233.24 121,-231 100.68,-219.67 103.92,-206.53 85,-193 79.97,-189.4 74.16,-186.24 68.5,-183.57"/>
<polygon fill="midnightblue" stroke="midnightblue" points="132.8,-240.37 143.39,-240.41 135.14,-233.77 132.8,-240.37"/>
</g>
<!-- Node17&#45;&gt;Node14 -->
<g id="edge18" class="edge">
<title>Node17&#45;&gt;Node14</title>
<path fill="none" stroke="midnightblue" d="M133.64,-274.96C129.26,-273.21 125.01,-271.24 121,-269 100.68,-257.67 103.92,-244.53 85,-231 79.97,-227.4 74.16,-224.24 68.5,-221.57"/>
<polygon fill="midnightblue" stroke="midnightblue" points="132.8,-278.37 143.39,-278.41 135.14,-271.77 132.8,-278.37"/>
</g>
<!-- Node17&#45;&gt;Node15 -->
<g id="edge19" class="edge">
<title>Node17&#45;&gt;Node15</title>
<path fill="none" stroke="midnightblue" d="M155.13,-276.42C143.8,-274.04 132.02,-271.49 121,-269 108.03,-266.06 93.89,-262.66 81.28,-259.55"/>
<polygon fill="midnightblue" stroke="midnightblue" points="154.44,-279.84 164.94,-278.46 155.87,-272.99 154.44,-279.84"/>
</g>
<!-- Node17&#45;&gt;Node16 -->
<g id="edge20" class="edge">
<title>Node17&#45;&gt;Node16</title>
<path fill="none" stroke="midnightblue" d="M130.53,-275.25C127.18,-273.42 123.98,-271.34 121,-269 91.62,-245.89 111.6,-219.26 85,-193 81.17,-189.21 76.44,-186.1 71.57,-183.57"/>
<polygon fill="midnightblue" stroke="midnightblue" points="129.18,-278.49 139.72,-279.57 132.16,-272.15 129.18,-278.49"/>
</g>
<!-- Node18 -->
<g id="node18" class="node">
<title>Node18</title>
<g id="a_node18"><a xlink:href="../../d1/d8c/classInLab6.html#a55667f27b7ba522dd4288f18d16c9f8d" target="_top" xlink:title="This function runs the project.">
<polygon fill="white" stroke="black" points="7,-278.5 7,-297.5 78,-297.5 78,-278.5 7,-278.5"/>
<text text-anchor="middle" x="42.5" y="-285.5" font-family="Helvetica,sans-Serif" font-size="10.00">InLab6::run</text>
</a>
</g>
</g>
<!-- Node17&#45;&gt;Node18 -->
<g id="edge17" class="edge">
<title>Node17&#45;&gt;Node18</title>
<path fill="none" stroke="midnightblue" d="M129.73,-288C111.46,-288 93.07,-288 78.01,-288"/>
<polygon fill="midnightblue" stroke="midnightblue" points="129.85,-291.5 139.85,-288 129.85,-284.5 129.85,-291.5"/>
</g>
<!-- Node19 -->
<g id="node19" class="node">
<title>Node19</title>
<g id="a_node19"><a xlink:href="../../d2/dfd/classProject4.html#a3779e87d22c7d4949f3c01bae1d08ab9" target="_top" xlink:title="This function runs the project.">
<polygon fill="white" stroke="black" points="3.5,-354.5 3.5,-373.5 81.5,-373.5 81.5,-354.5 3.5,-354.5"/>
<text text-anchor="middle" x="42.5" y="-361.5" font-family="Helvetica,sans-Serif" font-size="10.00">Project4::run</text>
</a>
</g>
</g>
<!-- Node17&#45;&gt;Node19 -->
<g id="edge21" class="edge">
<title>Node17&#45;&gt;Node19</title>
<path fill="none" stroke="midnightblue" d="M176.88,-301.23C159.77,-307.88 139.09,-316.36 121,-325 104.48,-332.89 101.33,-336.74 85,-345 78.64,-348.22 71.62,-351.52 65.19,-354.45"/>
<polygon fill="midnightblue" stroke="midnightblue" points="178.42,-304.39 186.5,-297.54 175.91,-297.85 178.42,-304.39"/>
</g>
<!-- Node20 -->
<g id="node20" class="node">
<title>Node20</title>
<g id="a_node20"><a xlink:href="../../d5/dd8/classProject5.html#ad0d283fb148505600a22fbfef054c177" target="_top" xlink:title="This function runs the project.">
<polygon fill="white" stroke="black" points="3.5,-316.5 3.5,-335.5 81.5,-335.5 81.5,-316.5 3.5,-316.5"/>
<text text-anchor="middle" x="42.5" y="-323.5" font-family="Helvetica,sans-Serif" font-size="10.00">Project5::run</text>
</a>
</g>
</g>
<!-- Node17&#45;&gt;Node20 -->
<g id="edge22" class="edge">
<title>Node17&#45;&gt;Node20</title>
<path fill="none" stroke="midnightblue" d="M160.01,-299.8C134.61,-305.51 104.68,-312.24 81.52,-317.45"/>
<polygon fill="midnightblue" stroke="midnightblue" points="160.87,-303.2 169.85,-297.59 159.33,-296.37 160.87,-303.2"/>
</g>
<!-- Node23 -->
<g id="node23" class="node">
<title>Node23</title>
<g id="a_node23"><a xlink:href="../../de/db3/namespaceCompute.html#a017b511b9ab24d2388a864d6cb14c1cc" target="_top" xlink:title="Solves a linear system using the Gauss&#45;Seidel method.">
<polygon fill="white" stroke="black" points="137,-0.5 137,-19.5 290,-19.5 290,-0.5 137,-0.5"/>
<text text-anchor="middle" x="213.5" y="-7.5" font-family="Helvetica,sans-Serif" font-size="10.00">Compute::usingGaussSeidel</text>
</a>
</g>
</g>
<!-- Node22&#45;&gt;Node23 -->
<g id="edge25" class="edge">
<title>Node22&#45;&gt;Node23</title>
<path fill="none" stroke="midnightblue" d="M341.8,-34.55C316.1,-29.6 287.54,-24.09 264,-19.55"/>
<polygon fill="midnightblue" stroke="midnightblue" points="341.38,-38.04 351.86,-36.5 342.7,-31.16 341.38,-38.04"/>
</g>
<!-- Node24 -->
<g id="node24" class="node">
<title>Node24</title>
<g id="a_node24"><a xlink:href="../../de/db3/namespaceCompute.html#acc65d891a271875002feed91306902d0" target="_top" xlink:title="Solves a linear system using the Successive Over&#45;Relaxation (SOR) method.">
<polygon fill="white" stroke="black" points="157,-38.5 157,-57.5 270,-57.5 270,-38.5 157,-38.5"/>
<text text-anchor="middle" x="213.5" y="-45.5" font-family="Helvetica,sans-Serif" font-size="10.00">Compute::usingSOR</text>
</a>
</g>
</g>
<!-- Node22&#45;&gt;Node24 -->
<g id="edge26" class="edge">
<title>Node22&#45;&gt;Node24</title>
<path fill="none" stroke="midnightblue" d="M341.64,-48C318.21,-48 292.43,-48 270.24,-48"/>
<polygon fill="midnightblue" stroke="midnightblue" points="341.86,-51.5 351.86,-48 341.86,-44.5 341.86,-51.5"/>
</g>
<!-- Node26 -->
<g id="node26" class="node">
<title>Node26</title>
<g id="a_node26"><a xlink:href="../../de/db3/namespaceCompute.html#a38a211087e8692a3768fbabed21d4a0c" target="_top" xlink:title="Solves a linear system using the Gauss&#45;Seidel method.">
<polygon fill="white" stroke="black" points="137,-509.5 137,-528.5 290,-528.5 290,-509.5 137,-509.5"/>
<text text-anchor="middle" x="213.5" y="-516.5" font-family="Helvetica,sans-Serif" font-size="10.00">Compute::usingGaussSeidel</text>
</a>
</g>
</g>
<!-- Node25&#45;&gt;Node26 -->
<g id="edge28" class="edge">
<title>Node25&#45;&gt;Node26</title>
<path fill="none" stroke="midnightblue" d="M335.67,-519C320.7,-519 304.99,-519 290.03,-519"/>
<polygon fill="midnightblue" stroke="midnightblue" points="335.9,-522.5 345.9,-519 335.9,-515.5 335.9,-522.5"/>
</g>
<!-- Node29 -->
<g id="node29" class="node">
<title>Node29</title>
<g id="a_node29"><a xlink:href="../../de/db3/namespaceCompute.html#af9b2fed99d9965f94cb5cfab410419a0" target="_top" xlink:title="Solves a linear system using the Symmetric Gauss&#45;Seidel method.">
<polygon fill="white" stroke="black" points="125.5,-77 125.5,-107 301.5,-107 301.5,-77 125.5,-77"/>
<text text-anchor="start" x="133.5" y="-95" font-family="Helvetica,sans-Serif" font-size="10.00">Compute::usingSymmetricGauss</text>
<text text-anchor="middle" x="213.5" y="-84" font-family="Helvetica,sans-Serif" font-size="10.00">Seidel</text>
</a>
</g>
</g>
<!-- Node28&#45;&gt;Node29 -->
<g id="edge31" class="edge">
<title>Node28&#45;&gt;Node29</title>
<path fill="none" stroke="midnightblue" d="M359.9,-135.52C338.65,-127.99 316.57,-120.29 306,-117 295.15,-113.62 283.5,-110.25 272.28,-107.12"/>
<polygon fill="midnightblue" stroke="midnightblue" points="358.96,-138.9 369.56,-138.95 361.31,-132.31 358.96,-138.9"/>
</g>
<!-- Node30 -->
<g id="node30" class="node">
<title>Node30</title>
<g id="a_node30"><a xlink:href="../../de/db3/namespaceCompute.html#ab38c6016d5c4907c1f4f468600278560" target="_top" xlink:title="Solves a linear system using the Symmetric SOR method.">
<polygon fill="white" stroke="black" points="130,-126.5 130,-145.5 297,-145.5 297,-126.5 130,-126.5"/>
<text text-anchor="middle" x="213.5" y="-133.5" font-family="Helvetica,sans-Serif" font-size="10.00">Compute::usingSymmetricSOR</text>
</a>
</g>
</g>
<!-- Node28&#45;&gt;Node30 -->
<g id="edge33" class="edge">
<title>Node28&#45;&gt;Node30</title>
<path fill="none" stroke="midnightblue" d="M341.58,-147.61C327.21,-146.3 311.96,-144.91 297.2,-143.56"/>
<polygon fill="midnightblue" stroke="midnightblue" points="341.58,-151.13 351.86,-148.55 342.22,-144.16 341.58,-151.13"/>
</g>
<!-- Node29&#45;&gt;Node16 -->
<g id="edge32" class="edge">
<title>Node29&#45;&gt;Node16</title>
<path fill="none" stroke="midnightblue" d="M136.37,-110.45C131.08,-112.45 125.91,-114.63 121,-117 94.84,-129.65 68.44,-151.44 54.21,-164.1"/>
<polygon fill="midnightblue" stroke="midnightblue" points="137.7,-113.69 145.96,-107.06 135.37,-107.09 137.7,-113.69"/>
</g>
<!-- Node32 -->
<g id="node32" class="node">
<title>Node32</title>
<g id="a_node32"><a xlink:href="../../d0/d4c/classOutLab6.html#a770effb030dbdb45bcecb764ed75d455" target="_top" xlink:title="This function prints the results of the computation.">
<polygon fill="white" stroke="black" points="152.5,-164.5 152.5,-183.5 274.5,-183.5 274.5,-164.5 152.5,-164.5"/>
<text text-anchor="middle" x="213.5" y="-171.5" font-family="Helvetica,sans-Serif" font-size="10.00">OutLab6::printResults</text>
</a>
</g>
</g>
<!-- Node31&#45;&gt;Node32 -->
<g id="edge35" class="edge">
<title>Node31&#45;&gt;Node32</title>
<path fill="none" stroke="midnightblue" d="M335.27,-191.17C315.12,-188.3 293.66,-185.25 274.5,-182.53"/>
<polygon fill="midnightblue" stroke="midnightblue" points="334.96,-194.66 345.35,-192.6 335.95,-187.73 334.96,-194.66"/>
</g>
<!-- Node33 -->
<g id="node33" class="node">
<title>Node33</title>
<g id="a_node33"><a xlink:href="../../df/df1/structOutput.html#a0412b8fd27d6e91551671da11cd8fe93" target="_top" xlink:title="Converts the output parameters to a JSON object.">
<polygon fill="white" stroke="black" points="169,-202.5 169,-221.5 258,-221.5 258,-202.5 169,-202.5"/>
<text text-anchor="middle" x="213.5" y="-209.5" font-family="Helvetica,sans-Serif" font-size="10.00">Output::toJSON</text>
</a>
</g>
</g>
<!-- Node31&#45;&gt;Node33 -->
<g id="edge37" class="edge">
<title>Node31&#45;&gt;Node33</title>
<path fill="none" stroke="midnightblue" d="M335.1,-205.88C309.03,-207.2 280.77,-208.64 258.17,-209.78"/>
<polygon fill="midnightblue" stroke="midnightblue" points="335.54,-209.36 345.35,-205.36 335.19,-202.37 335.54,-209.36"/>
</g>
<!-- Node32&#45;&gt;Node14 -->
<g id="edge36" class="edge">
<title>Node32&#45;&gt;Node14</title>
<path fill="none" stroke="midnightblue" d="M155.13,-185.58C143.8,-187.96 132.02,-190.51 121,-193 108.03,-195.94 93.89,-199.34 81.28,-202.45"/>
<polygon fill="midnightblue" stroke="midnightblue" points="155.87,-189.01 164.94,-183.54 154.44,-182.16 155.87,-189.01"/>
</g>
</g>
</svg>
        <g id="navigator" transform="translate(0 0)" fill="#404254">
                <rect fill="#f2f5e9" fill-opacity="0.5" stroke="#606060" stroke-width=".5" x="0" y="0" width="60" height="60"/>
                <use id="zoomplus" xlink:href="#zoomPlus" x="17" y="9" onmousedown="handleZoom(evt,'in')"/>
                <use id="zoomminus" xlink:href="#zoomMin" x="42" y="9" onmousedown="handleZoom(evt,'out')"/>
                <use id="reset" xlink:href="#resetDef" x="30" y="36" onmousedown="handleReset()"/>
                <g id="arrowUp" xlink:href="#dirArrow" transform="translate(30 24)" onmousedown="handlePan(0,-1)">
                  <use xlink:href="#rim" fill="#404040">
                        <set attributeName="fill" to="#808080" begin="arrowUp.mouseover" end="arrowUp.mouseout"/>
                  </use>
                  <path fill="none" stroke="white" stroke-width="1.5" d="M0,-3.0v7 M-2.5,-0.5L0,-3.0L2.5,-0.5"/>
                </g>
                <g id="arrowRight" xlink:href="#dirArrow" transform="rotate(90) translate(36 -43)" onmousedown="handlePan(1,0)">
                  <use xlink:href="#rim" fill="#404040">
                        <set attributeName="fill" to="#808080" begin="arrowRight.mouseover" end="arrowRight.mouseout"/>
                  </use>
                  <path fill="none" stroke="white" stroke-width="1.5" d="M0,-3.0v7 M-2.5,-0.5L0,-3.0L2.5,-0.5"/>
                </g>
                <g id="arrowDown" xlink:href="#dirArrow" transform="rotate(180) translate(-30 -48)" onmousedown="handlePan(0,1)">
                  <use xlink:href="#rim" fill="#404040">
                        <set attributeName="fill" to="#808080" begin="arrowDown.mouseover" end="arrowDown.mouseout"/>
                  </use>
                  <path fill="none" stroke="white" stroke-width="1.5" d="M0,-3.0v7 M-2.5,-0.5L0,-3.0L2.5,-0.5"/>
                </g>
                <g id="arrowLeft" xlink:href="#dirArrow" transform="rotate(270) translate(-36 17)" onmousedown="handlePan(-1,0)">
                  <use xlink:href="#rim" fill="#404040">
                        <set attributeName="fill" to="#808080" begin="arrowLeft.mouseover" end="arrowLeft.mouseout"/>
                  </use>
                  <path fill="none" stroke="white" stroke-width="1.5" d="M0,-3.0v7 M-2.5,-0.5L0,-3.0L2.5,-0.5"/>
                </g>
        </g>
        <svg viewBox="0 0 15 15" width="100%" height="30px" preserveAspectRatio="xMaxYMin meet">
         <g id="arrow_out" transform="scale(0.3 0.3)">
          <a xlink:href="namespaceMyBLAS_ac12a3b113ae6b7edd2fcb21280c0f804_icgraph_org.svg" target="_base">
           <rect id="button" ry="5" rx="5" y="6" x="6" height="38" width="38"
                fill="#f2f5e9" fill-opacity="0.5" stroke="#606060" stroke-width="1.0"/>
           <path id="arrow"
             d="M 11.500037,31.436501 C 11.940474,20.09759 22.043105,11.32322 32.158766,21.979434 L 37.068811,17.246167 C 37.068811,17.246167 37.088388,32 37.088388,32 L 22.160133,31.978069 C 22.160133,31.978069 26.997745,27.140456 26.997745,27.140456 C 18.528582,18.264221 13.291696,25.230495 11.500037,31.436501 z"
             style="fill:#404040;"/>
          </a>
         </g>
        </svg>
</svg>
