<?xml version="1.0" encoding="UTF-8" standalone="no"?>
<!DOCTYPE svg PUBLIC "-//W3C//DTD SVG 1.1//EN"
 "http://www.w3.org/Graphics/SVG/1.1/DTD/svg11.dtd">
<!-- Generated by graphviz version 2.43.0 (0)
 -->
<!-- Title: MyBLAS::haveEqualRank Pages: 1 -->
<svg width="577pt" height="39pt"
 viewBox="0.00 0.00 577.00 39.00" xmlns="http://www.w3.org/2000/svg" xmlns:xlink="http://www.w3.org/1999/xlink">
<g id="graph0" class="graph" transform="scale(1 1) rotate(0) translate(4 35)">
<title>MyBLAS::haveEqualRank</title>
<polygon fill="white" stroke="transparent" points="-4,4 -4,-35 573,-35 573,4 -4,4"/>
<!-- Node1 -->
<g id="node1" class="node">
<title>Node1</title>
<g id="a_node1"><a xlink:title="Checks if two matrices have the same rank.">
<polygon fill="#bfbfbf" stroke="black" points="430,-6 430,-25 569,-25 569,-6 430,-6"/>
<text text-anchor="middle" x="499.5" y="-13" font-family="Helvetica,sans-Serif" font-size="10.00">MyBLAS::haveEqualRank</text>
</a>
</g>
</g>
<!-- Node2 -->
<g id="node2" class="node">
<title>Node2</title>
<g id="a_node2"><a xlink:href="../../d1/d18/namespaceMyFactorizationMethod.html#a008870884c4fdedb666a2811c6401d2a" target="_top" xlink:title="Function to check if the input matrices pass the pre&#45;checks for the factorization methods.">
<polygon fill="white" stroke="black" points="263,-0.5 263,-30.5 394,-30.5 394,-0.5 263,-0.5"/>
<text text-anchor="start" x="271" y="-18.5" font-family="Helvetica,sans-Serif" font-size="10.00">MyFactorizationMethod</text>
<text text-anchor="middle" x="328.5" y="-7.5" font-family="Helvetica,sans-Serif" font-size="10.00">::passesPreChecks</text>
</a>
</g>
</g>
<!-- Node1&#45;&gt;Node2 -->
<g id="edge1" class="edge">
<title>Node1&#45;&gt;Node2</title>
<path fill="none" stroke="midnightblue" d="M419.74,-15.5C411.15,-15.5 402.48,-15.5 394.08,-15.5"/>
<polygon fill="midnightblue" stroke="midnightblue" points="419.76,-19 429.76,-15.5 419.76,-12 419.76,-19"/>
</g>
<!-- Node3 -->
<g id="node3" class="node">
<title>Node3</title>
<g id="a_node3"><a xlink:href="../../de/db3/namespaceCompute.html#a9aaa2e3c1db51432d5a62c1d4541fd90" target="_top" xlink:title="Solves a linear system using LUP decomposition.">
<polygon fill="white" stroke="black" points="115,-6 115,-25 227,-25 227,-6 115,-6"/>
<text text-anchor="middle" x="171" y="-13" font-family="Helvetica,sans-Serif" font-size="10.00">Compute::usingLUP</text>
</a>
</g>
</g>
<!-- Node2&#45;&gt;Node3 -->
<g id="edge2" class="edge">
<title>Node2&#45;&gt;Node3</title>
<path fill="none" stroke="midnightblue" d="M252.83,-15.5C244.21,-15.5 235.54,-15.5 227.24,-15.5"/>
<polygon fill="midnightblue" stroke="midnightblue" points="252.9,-19 262.9,-15.5 252.9,-12 252.9,-19"/>
</g>
<!-- Node4 -->
<g id="node4" class="node">
<title>Node4</title>
<g id="a_node4"><a xlink:href="../../d0/d4c/classOutLab6.html#a7f817fd9bedd2b88e683e2514d386c8c" target="_top" xlink:title="This function runs the computation.">
<polygon fill="white" stroke="black" points="0,-6 0,-25 79,-25 79,-6 0,-6"/>
<text text-anchor="middle" x="39.5" y="-13" font-family="Helvetica,sans-Serif" font-size="10.00">OutLab6::run</text>
</a>
</g>
</g>
<!-- Node3&#45;&gt;Node4 -->
<g id="edge3" class="edge">
<title>Node3&#45;&gt;Node4</title>
<path fill="none" stroke="midnightblue" d="M104.54,-15.5C95.87,-15.5 87.2,-15.5 79.18,-15.5"/>
<polygon fill="midnightblue" stroke="midnightblue" points="104.7,-19 114.7,-15.5 104.7,-12 104.7,-19"/>
</g>
</g>
</svg>
