<?xml version="1.0" encoding="UTF-8" standalone="no"?>
<!DOCTYPE svg PUBLIC "-//W3C//DTD SVG 1.1//EN"
 "http://www.w3.org/Graphics/SVG/1.1/DTD/svg11.dtd">
<!-- Generated by graphviz version 2.43.0 (0)
 -->
<!-- Title: MyBLAS::isSquareMatrix Pages: 1 -->
<svg width="853pt" height="709pt"
 viewBox="0.00 0.00 853.00 709.00" xmlns="http://www.w3.org/2000/svg" xmlns:xlink="http://www.w3.org/1999/xlink">
<g id="graph0" class="graph" transform="scale(1 1) rotate(0) translate(4 705)">
<title>MyBLAS::isSquareMatrix</title>
<polygon fill="white" stroke="transparent" points="-4,4 -4,-705 849,-705 849,4 -4,4"/>
<!-- Node1 -->
<g id="node1" class="node">
<title>Node1</title>
<g id="a_node1"><a xlink:title="Checks if the given matrix is a square matrix.">
<polygon fill="#bfbfbf" stroke="black" points="708,-425.5 708,-444.5 845,-444.5 845,-425.5 708,-425.5"/>
<text text-anchor="middle" x="776.5" y="-432.5" font-family="Helvetica,sans-Serif" font-size="10.00">MyBLAS::isSquareMatrix</text>
</a>
</g>
</g>
<!-- Node2 -->
<g id="node2" class="node">
<title>Node2</title>
<g id="a_node2"><a xlink:href="../../d0/d40/classParser.html#adc1e5a3b57b2c25485ef09ea6521d0a7" target="_top" xlink:title="Builds the inputs.">
<polygon fill="white" stroke="black" points="342,-643.5 342,-662.5 449,-662.5 449,-643.5 342,-643.5"/>
<text text-anchor="middle" x="395.5" y="-650.5" font-family="Helvetica,sans-Serif" font-size="10.00">Parser::buildInputs</text>
</a>
</g>
</g>
<!-- Node1&#45;&gt;Node2 -->
<g id="edge1" class="edge">
<title>Node1&#45;&gt;Node2</title>
<path fill="none" stroke="midnightblue" d="M769.32,-454.6C757,-490.2 725.85,-565.2 672,-602 653.85,-614.4 523.99,-634.72 449.21,-645.59"/>
<polygon fill="midnightblue" stroke="midnightblue" points="772.71,-455.5 772.54,-444.9 766.06,-453.29 772.71,-455.5"/>
</g>
<!-- Node3 -->
<g id="node3" class="node">
<title>Node3</title>
<g id="a_node3"><a xlink:href="../../d2/d6e/namespaceMyBLAS.html#a4ae8cb61e3457065790607979b939564" target="_top" xlink:title="Checks if the given matrix is diagonally dominant.">
<polygon fill="white" stroke="black" points="500,-491.5 500,-510.5 672,-510.5 672,-491.5 500,-491.5"/>
<text text-anchor="middle" x="586" y="-498.5" font-family="Helvetica,sans-Serif" font-size="10.00">MyBLAS::isDiagonallyDominant</text>
</a>
</g>
</g>
<!-- Node1&#45;&gt;Node3 -->
<g id="edge2" class="edge">
<title>Node1&#45;&gt;Node3</title>
<path fill="none" stroke="midnightblue" d="M738.3,-448.03C701.72,-460.83 646.77,-480.07 614.14,-491.5"/>
<polygon fill="midnightblue" stroke="midnightblue" points="739.81,-451.21 748.09,-444.6 737.5,-444.6 739.81,-451.21"/>
</g>
<!-- Node6 -->
<g id="node6" class="node">
<title>Node6</title>
<g id="a_node6"><a xlink:href="../../d7/d9a/namespaceMyRelaxationMethod.html#a985bd80ba02c84e9d1ca2e434a32bd3f" target="_top" xlink:title="Function to perform pre&#45;checks on the coefficient matrix and the right&#45;hand side vector.">
<polygon fill="white" stroke="black" points="335,-442 335,-472 456,-472 456,-442 335,-442"/>
<text text-anchor="start" x="343" y="-460" font-family="Helvetica,sans-Serif" font-size="10.00">MyRelaxationMethod</text>
<text text-anchor="middle" x="395.5" y="-449" font-family="Helvetica,sans-Serif" font-size="10.00">::passesPreChecks</text>
</a>
</g>
</g>
<!-- Node1&#45;&gt;Node6 -->
<g id="edge52" class="edge">
<title>Node1&#45;&gt;Node6</title>
<path fill="none" stroke="midnightblue" d="M697.43,-439.53C625.83,-443.69 521.31,-449.75 456.19,-453.54"/>
<polygon fill="midnightblue" stroke="midnightblue" points="697.96,-443.01 707.74,-438.93 697.56,-436.02 697.96,-443.01"/>
</g>
<!-- Node17 -->
<g id="node17" class="node">
<title>Node17</title>
<g id="a_node17"><a xlink:href="../../d2/d6e/namespaceMyBLAS.html#a670e376572710e06706a94b3e8c75d02" target="_top" xlink:title="Checks if the given matrix is a valid permutation matrix.">
<polygon fill="white" stroke="black" points="504.5,-296.5 504.5,-315.5 667.5,-315.5 667.5,-296.5 504.5,-296.5"/>
<text text-anchor="middle" x="586" y="-303.5" font-family="Helvetica,sans-Serif" font-size="10.00">MyBLAS::isPermutationMatrix</text>
</a>
</g>
</g>
<!-- Node1&#45;&gt;Node17 -->
<g id="edge18" class="edge">
<title>Node1&#45;&gt;Node17</title>
<path fill="none" stroke="midnightblue" d="M752.67,-419.37C713.21,-392.37 633.4,-337.76 601.08,-315.63"/>
<polygon fill="midnightblue" stroke="midnightblue" points="751.1,-422.54 761.33,-425.3 755.06,-416.77 751.1,-422.54"/>
</g>
<!-- Node23 -->
<g id="node23" class="node">
<title>Node23</title>
<g id="a_node23"><a xlink:href="../../d2/d6e/namespaceMyBLAS.html#ad78205a07b1500a10fae544f919d0801" target="_top" xlink:title="Checks if the given matrix is positive definite using Cholesky decomposition.">
<polygon fill="white" stroke="black" points="511.5,-562 511.5,-592 660.5,-592 660.5,-562 511.5,-562"/>
<text text-anchor="start" x="519.5" y="-580" font-family="Helvetica,sans-Serif" font-size="10.00">MyBLAS::isPositiveDefinite</text>
<text text-anchor="middle" x="586" y="-569" font-family="Helvetica,sans-Serif" font-size="10.00">Matrix</text>
</a>
</g>
</g>
<!-- Node1&#45;&gt;Node23 -->
<g id="edge24" class="edge">
<title>Node1&#45;&gt;Node23</title>
<path fill="none" stroke="midnightblue" d="M757,-451.12C736.62,-468.64 702.67,-497.2 672,-520 651.89,-534.94 628.15,-550.72 610.87,-561.87"/>
<polygon fill="midnightblue" stroke="midnightblue" points="759.32,-453.73 764.6,-444.54 754.75,-448.43 759.32,-453.73"/>
</g>
<!-- Node25 -->
<g id="node25" class="node">
<title>Node25</title>
<g id="a_node25"><a xlink:href="../../d2/d6e/namespaceMyBLAS.html#af293c95e705171bdd15268039d337135" target="_top" xlink:title="Checks if the given matrix is symmetric.">
<polygon fill="white" stroke="black" points="508,-649.5 508,-668.5 664,-668.5 664,-649.5 508,-649.5"/>
<text text-anchor="middle" x="586" y="-656.5" font-family="Helvetica,sans-Serif" font-size="10.00">MyBLAS::isSymmetricMatrix</text>
</a>
</g>
</g>
<!-- Node1&#45;&gt;Node25 -->
<g id="edge28" class="edge">
<title>Node1&#45;&gt;Node25</title>
<path fill="none" stroke="midnightblue" d="M770.98,-454.51C760.66,-494.57 731.54,-586.44 672,-635 664.28,-641.3 655,-645.95 645.45,-649.38"/>
<polygon fill="midnightblue" stroke="midnightblue" points="774.41,-455.2 773.4,-444.66 767.61,-453.53 774.41,-455.2"/>
</g>
<!-- Node27 -->
<g id="node27" class="node">
<title>Node27</title>
<g id="a_node27"><a xlink:href="../../d2/d6e/namespaceMyBLAS.html#ae371a7b6812d897b1395ef461745cea1" target="_top" xlink:title="Checks if the given matrix is a valid unit lower triangular matrix.">
<polygon fill="white" stroke="black" points="501.5,-174 501.5,-204 670.5,-204 670.5,-174 501.5,-174"/>
<text text-anchor="start" x="509.5" y="-192" font-family="Helvetica,sans-Serif" font-size="10.00">MyBLAS::isUnitLowerTriangular</text>
<text text-anchor="middle" x="586" y="-181" font-family="Helvetica,sans-Serif" font-size="10.00">Matrix</text>
</a>
</g>
</g>
<!-- Node1&#45;&gt;Node27 -->
<g id="edge31" class="edge">
<title>Node1&#45;&gt;Node27</title>
<path fill="none" stroke="midnightblue" d="M771.93,-415.31C763.08,-372.21 736.03,-268.98 672,-214 667.45,-210.09 662.31,-206.79 656.87,-204.01"/>
<polygon fill="midnightblue" stroke="midnightblue" points="768.54,-416.2 773.88,-425.35 775.41,-414.86 768.54,-416.2"/>
</g>
<!-- Node31 -->
<g id="node31" class="node">
<title>Node31</title>
<g id="a_node31"><a xlink:href="../../d2/d6e/namespaceMyBLAS.html#ada02d6a37edcab7294168e9b005871a1" target="_top" xlink:title="Checks if the given matrix is a valid upper triangular matrix.">
<polygon fill="white" stroke="black" points="511.5,-223 511.5,-253 660.5,-253 660.5,-223 511.5,-223"/>
<text text-anchor="start" x="519.5" y="-241" font-family="Helvetica,sans-Serif" font-size="10.00">MyBLAS::isUpperTriangular</text>
<text text-anchor="middle" x="586" y="-230" font-family="Helvetica,sans-Serif" font-size="10.00">Matrix</text>
</a>
</g>
</g>
<!-- Node1&#45;&gt;Node31 -->
<g id="edge39" class="edge">
<title>Node1&#45;&gt;Node31</title>
<path fill="none" stroke="midnightblue" d="M765.92,-416.24C749.8,-386.08 714.79,-326.2 672,-287 656.93,-273.19 637.31,-261.56 620.72,-253.1"/>
<polygon fill="midnightblue" stroke="midnightblue" points="762.91,-418.03 770.65,-425.26 769.11,-414.78 762.91,-418.03"/>
</g>
<!-- Node34 -->
<g id="node34" class="node">
<title>Node34</title>
<g id="a_node34"><a xlink:href="../../d1/d18/namespaceMyFactorizationMethod.html#a3edc078b9a5c660f07e2216ec4df7c37" target="_top" xlink:title="Checks if a matrix and a vector pass certain pre&#45;checks.">
<polygon fill="white" stroke="black" points="520.5,-398 520.5,-428 651.5,-428 651.5,-398 520.5,-398"/>
<text text-anchor="start" x="528.5" y="-416" font-family="Helvetica,sans-Serif" font-size="10.00">MyFactorizationMethod</text>
<text text-anchor="middle" x="586" y="-405" font-family="Helvetica,sans-Serif" font-size="10.00">::passesPreChecks</text>
</a>
</g>
</g>
<!-- Node1&#45;&gt;Node34 -->
<g id="edge47" class="edge">
<title>Node1&#45;&gt;Node34</title>
<path fill="none" stroke="midnightblue" d="M697.95,-425.95C682.51,-424.15 666.47,-422.27 651.53,-420.53"/>
<polygon fill="midnightblue" stroke="midnightblue" points="697.64,-429.44 707.98,-427.12 698.45,-422.48 697.64,-429.44"/>
</g>
<!-- Node36 -->
<g id="node36" class="node">
<title>Node36</title>
<g id="a_node36"><a xlink:href="../../d2/d6e/namespaceMyBLAS.html#acecd401f72e17ad0c784c2e52f0c3606" target="_top" xlink:title=" ">
<polygon fill="white" stroke="black" points="524,-135.5 524,-154.5 648,-154.5 648,-135.5 524,-135.5"/>
<text text-anchor="middle" x="586" y="-142.5" font-family="Helvetica,sans-Serif" font-size="10.00">MyBLAS::TYPED_TEST</text>
</a>
</g>
</g>
<!-- Node1&#45;&gt;Node36 -->
<g id="edge53" class="edge">
<title>Node1&#45;&gt;Node36</title>
<path fill="none" stroke="midnightblue" d="M774.04,-415.2C769.26,-365.15 749.52,-232.71 672,-165 665.15,-159.02 656.84,-154.74 648.13,-151.7"/>
<polygon fill="midnightblue" stroke="midnightblue" points="770.57,-415.67 774.91,-425.33 777.55,-415.07 770.57,-415.67"/>
</g>
<!-- Node4 -->
<g id="node4" class="node">
<title>Node4</title>
<g id="a_node4"><a xlink:href="../../d0/d40/classParser.html#a57359ba31d7b2ba138ff175ae1406021" target="_top" xlink:title="Builds the inputs.">
<polygon fill="white" stroke="black" points="149.5,-567.5 149.5,-586.5 256.5,-586.5 256.5,-567.5 149.5,-567.5"/>
<text text-anchor="middle" x="203" y="-574.5" font-family="Helvetica,sans-Serif" font-size="10.00">Parser::buildInputs</text>
</a>
</g>
</g>
<!-- Node3&#45;&gt;Node4 -->
<g id="edge3" class="edge">
<title>Node3&#45;&gt;Node4</title>
<path fill="none" stroke="midnightblue" d="M526.87,-512.59C451.52,-527.63 321.52,-553.56 251.67,-567.49"/>
<polygon fill="midnightblue" stroke="midnightblue" points="528.01,-515.94 537.13,-510.55 526.64,-509.07 528.01,-515.94"/>
</g>
<!-- Node5 -->
<g id="node5" class="node">
<title>Node5</title>
<g id="a_node5"><a xlink:href="../../d5/d7a/namespaceMyBLAS_1_1System.html#a487070ac751d33afa7f9fceaef312ea0" target="_top" xlink:title="This function generates a circuit with random resistances and currents, and computes the correspondin...">
<polygon fill="white" stroke="black" points="327,-567.5 327,-586.5 464,-586.5 464,-567.5 327,-567.5"/>
<text text-anchor="middle" x="395.5" y="-574.5" font-family="Helvetica,sans-Serif" font-size="10.00">MyBLAS::System::Circuit</text>
</a>
</g>
</g>
<!-- Node3&#45;&gt;Node5 -->
<g id="edge4" class="edge">
<title>Node3&#45;&gt;Node5</title>
<path fill="none" stroke="midnightblue" d="M554.34,-514.82C530.01,-525.63 495.06,-540.82 464,-553 451.15,-558.04 436.75,-563.22 424.56,-567.47"/>
<polygon fill="midnightblue" stroke="midnightblue" points="556.05,-517.9 563.75,-510.62 553.19,-511.5 556.05,-517.9"/>
</g>
<!-- Node3&#45;&gt;Node6 -->
<g id="edge6" class="edge">
<title>Node3&#45;&gt;Node6</title>
<path fill="none" stroke="midnightblue" d="M534.13,-489.13C510.13,-483.52 481.33,-476.8 456.29,-470.96"/>
<polygon fill="midnightblue" stroke="midnightblue" points="533.56,-492.59 544.1,-491.45 535.16,-485.77 533.56,-492.59"/>
</g>
<!-- Node16 -->
<g id="node16" class="node">
<title>Node16</title>
<g id="a_node16"><a xlink:href="../../d2/d6e/namespaceMyBLAS.html#afc64a1cc2e3756fccfc41bc258f84787" target="_top" xlink:title=" ">
<polygon fill="white" stroke="black" points="333.5,-491.5 333.5,-510.5 457.5,-510.5 457.5,-491.5 333.5,-491.5"/>
<text text-anchor="middle" x="395.5" y="-498.5" font-family="Helvetica,sans-Serif" font-size="10.00">MyBLAS::TYPED_TEST</text>
</a>
</g>
</g>
<!-- Node3&#45;&gt;Node16 -->
<g id="edge17" class="edge">
<title>Node3&#45;&gt;Node16</title>
<path fill="none" stroke="midnightblue" d="M489.8,-501C478.85,-501 467.92,-501 457.59,-501"/>
<polygon fill="midnightblue" stroke="midnightblue" points="489.85,-504.5 499.85,-501 489.85,-497.5 489.85,-504.5"/>
</g>
<!-- Node5&#45;&gt;Node4 -->
<g id="edge5" class="edge">
<title>Node5&#45;&gt;Node4</title>
<path fill="none" stroke="midnightblue" d="M316.65,-577C296.42,-577 275.1,-577 256.51,-577"/>
<polygon fill="midnightblue" stroke="midnightblue" points="316.8,-580.5 326.8,-577 316.8,-573.5 316.8,-580.5"/>
</g>
<!-- Node7 -->
<g id="node7" class="node">
<title>Node7</title>
<g id="a_node7"><a xlink:href="../../de/db3/namespaceCompute.html#a017b511b9ab24d2388a864d6cb14c1cc" target="_top" xlink:title="Solves a linear system using the Gauss&#45;Seidel method.">
<polygon fill="white" stroke="black" points="126.5,-453.5 126.5,-472.5 279.5,-472.5 279.5,-453.5 126.5,-453.5"/>
<text text-anchor="middle" x="203" y="-460.5" font-family="Helvetica,sans-Serif" font-size="10.00">Compute::usingGaussSeidel</text>
</a>
</g>
</g>
<!-- Node6&#45;&gt;Node7 -->
<g id="edge7" class="edge">
<title>Node6&#45;&gt;Node7</title>
<path fill="none" stroke="midnightblue" d="M324.75,-459.2C310.08,-459.66 294.54,-460.15 279.67,-460.62"/>
<polygon fill="midnightblue" stroke="midnightblue" points="324.86,-462.7 334.75,-458.88 324.64,-455.7 324.86,-462.7"/>
</g>
<!-- Node8 -->
<g id="node8" class="node">
<title>Node8</title>
<g id="a_node8"><a xlink:href="../../de/db3/namespaceCompute.html#a3b30a49d004f8370d19cd13f6492ddba" target="_top" xlink:title="Solves a linear system using the Jacobi SOR method.">
<polygon fill="white" stroke="black" points="131.5,-365.5 131.5,-384.5 274.5,-384.5 274.5,-365.5 131.5,-365.5"/>
<text text-anchor="middle" x="203" y="-372.5" font-family="Helvetica,sans-Serif" font-size="10.00">Compute::usingJacobiSOR</text>
</a>
</g>
</g>
<!-- Node6&#45;&gt;Node8 -->
<g id="edge8" class="edge">
<title>Node6&#45;&gt;Node8</title>
<path fill="none" stroke="midnightblue" d="M345.77,-437.52C339.29,-434.31 332.87,-430.78 327,-427 309.01,-415.4 310.02,-404.82 291,-395 282.6,-390.67 273.26,-387.26 263.91,-384.59"/>
<polygon fill="midnightblue" stroke="midnightblue" points="344.7,-440.89 355.24,-442 347.69,-434.56 344.7,-440.89"/>
</g>
<!-- Node12 -->
<g id="node12" class="node">
<title>Node12</title>
<g id="a_node12"><a xlink:href="../../de/db3/namespaceCompute.html#a0741aa46b479eae78cfad76bdf7cb091" target="_top" xlink:title="Solves a linear system using the Point Jacobi method.">
<polygon fill="white" stroke="black" points="129.5,-327.5 129.5,-346.5 276.5,-346.5 276.5,-327.5 129.5,-327.5"/>
<text text-anchor="middle" x="203" y="-334.5" font-family="Helvetica,sans-Serif" font-size="10.00">Compute::usingPointJacobi</text>
</a>
</g>
</g>
<!-- Node6&#45;&gt;Node12 -->
<g id="edge12" class="edge">
<title>Node6&#45;&gt;Node12</title>
<path fill="none" stroke="midnightblue" d="M340.21,-437.04C335.45,-434.09 330.95,-430.75 327,-427 301.35,-402.63 318.99,-377.64 291,-356 286.11,-352.22 280.62,-349.15 274.84,-346.67"/>
<polygon fill="midnightblue" stroke="midnightblue" points="338.55,-440.12 348.99,-441.94 341.96,-434.01 338.55,-440.12"/>
</g>
<!-- Node13 -->
<g id="node13" class="node">
<title>Node13</title>
<g id="a_node13"><a xlink:href="../../de/db3/namespaceCompute.html#a26fcd23146e3ca00ed9eefc59c89c07a" target="_top" xlink:title="Solves a linear system using the Successive Over&#45;Relaxation (SOR) method.">
<polygon fill="white" stroke="black" points="146.5,-529.5 146.5,-548.5 259.5,-548.5 259.5,-529.5 146.5,-529.5"/>
<text text-anchor="middle" x="203" y="-536.5" font-family="Helvetica,sans-Serif" font-size="10.00">Compute::usingSOR</text>
</a>
</g>
</g>
<!-- Node6&#45;&gt;Node13 -->
<g id="edge13" class="edge">
<title>Node6&#45;&gt;Node13</title>
<path fill="none" stroke="midnightblue" d="M336.32,-476.52C333.09,-478.22 329.96,-480.05 327,-482 307.59,-494.82 311.26,-508.57 291,-520 281.44,-525.39 270.49,-529.26 259.66,-532.02"/>
<polygon fill="midnightblue" stroke="midnightblue" points="338.13,-479.53 345.62,-472.03 335.09,-473.22 338.13,-479.53"/>
</g>
<!-- Node14 -->
<g id="node14" class="node">
<title>Node14</title>
<g id="a_node14"><a xlink:href="../../de/db3/namespaceCompute.html#af9b2fed99d9965f94cb5cfab410419a0" target="_top" xlink:title="Solves a linear system using the Symmetric Gauss&#45;Seidel method.">
<polygon fill="white" stroke="black" points="115,-404 115,-434 291,-434 291,-404 115,-404"/>
<text text-anchor="start" x="123" y="-422" font-family="Helvetica,sans-Serif" font-size="10.00">Compute::usingSymmetricGauss</text>
<text text-anchor="middle" x="203" y="-411" font-family="Helvetica,sans-Serif" font-size="10.00">Seidel</text>
</a>
</g>
</g>
<!-- Node6&#45;&gt;Node14 -->
<g id="edge14" class="edge">
<title>Node6&#45;&gt;Node14</title>
<path fill="none" stroke="midnightblue" d="M324.69,-443.07C309.92,-440.13 294.28,-437.01 279.32,-434.03"/>
<polygon fill="midnightblue" stroke="midnightblue" points="324.26,-446.56 334.75,-445.08 325.63,-439.69 324.26,-446.56"/>
</g>
<!-- Node15 -->
<g id="node15" class="node">
<title>Node15</title>
<g id="a_node15"><a xlink:href="../../de/db3/namespaceCompute.html#ab38c6016d5c4907c1f4f468600278560" target="_top" xlink:title="Solves a linear system using the Symmetric SOR method.">
<polygon fill="white" stroke="black" points="119.5,-491.5 119.5,-510.5 286.5,-510.5 286.5,-491.5 119.5,-491.5"/>
<text text-anchor="middle" x="203" y="-498.5" font-family="Helvetica,sans-Serif" font-size="10.00">Compute::usingSymmetricSOR</text>
</a>
</g>
</g>
<!-- Node6&#45;&gt;Node15 -->
<g id="edge16" class="edge">
<title>Node6&#45;&gt;Node15</title>
<path fill="none" stroke="midnightblue" d="M325.01,-474.01C313.66,-476.72 302.01,-479.47 291,-482 277.29,-485.15 262.33,-488.46 248.75,-491.42"/>
<polygon fill="midnightblue" stroke="midnightblue" points="325.99,-477.37 334.9,-471.63 324.36,-470.56 325.99,-477.37"/>
</g>
<!-- Node9 -->
<g id="node9" class="node">
<title>Node9</title>
<g id="a_node9"><a xlink:href="../../d0/d4c/classOutLab6.html#a901a1283fd029c9174f8469ac5cb3ad8" target="_top" xlink:title="This function runs the computation.">
<polygon fill="white" stroke="black" points="0,-289.5 0,-308.5 79,-308.5 79,-289.5 0,-289.5"/>
<text text-anchor="middle" x="39.5" y="-296.5" font-family="Helvetica,sans-Serif" font-size="10.00">OutLab6::run</text>
</a>
</g>
</g>
<!-- Node8&#45;&gt;Node9 -->
<g id="edge9" class="edge">
<title>Node8&#45;&gt;Node9</title>
<path fill="none" stroke="midnightblue" d="M127.52,-361.96C123.18,-360.22 118.97,-358.24 115,-356 94.74,-344.57 97.72,-331.81 79,-318 74.2,-314.46 68.64,-311.28 63.27,-308.57"/>
<polygon fill="midnightblue" stroke="midnightblue" points="126.6,-365.35 137.19,-365.42 128.95,-358.75 126.6,-365.35"/>
</g>
<!-- Node10 -->
<g id="node10" class="node">
<title>Node10</title>
<g id="a_node10"><a xlink:href="../../dd/db5/classProject2.html#a0990db917f6a27a4e1cb9ac885698524" target="_top" xlink:title="This function runs the project.">
<polygon fill="white" stroke="black" points="0.5,-327.5 0.5,-346.5 78.5,-346.5 78.5,-327.5 0.5,-327.5"/>
<text text-anchor="middle" x="39.5" y="-334.5" font-family="Helvetica,sans-Serif" font-size="10.00">Project2::run</text>
</a>
</g>
</g>
<!-- Node8&#45;&gt;Node10 -->
<g id="edge10" class="edge">
<title>Node8&#45;&gt;Node10</title>
<path fill="none" stroke="midnightblue" d="M146.8,-363.25C136.23,-360.91 125.26,-358.43 115,-356 102.53,-353.05 88.94,-349.64 76.81,-346.53"/>
<polygon fill="midnightblue" stroke="midnightblue" points="146.26,-366.71 156.78,-365.44 147.76,-359.87 146.26,-366.71"/>
</g>
<!-- Node11 -->
<g id="node11" class="node">
<title>Node11</title>
<g id="a_node11"><a xlink:href="../../dd/dfb/classProject3.html#a8bcff99aaba60e7d5e5be3cb7552d163" target="_top" xlink:title="This function runs the project.">
<polygon fill="white" stroke="black" points="0.5,-365.5 0.5,-384.5 78.5,-384.5 78.5,-365.5 0.5,-365.5"/>
<text text-anchor="middle" x="39.5" y="-372.5" font-family="Helvetica,sans-Serif" font-size="10.00">Project3::run</text>
</a>
</g>
</g>
<!-- Node8&#45;&gt;Node11 -->
<g id="edge11" class="edge">
<title>Node8&#45;&gt;Node11</title>
<path fill="none" stroke="midnightblue" d="M121.01,-375C106.31,-375 91.63,-375 78.9,-375"/>
<polygon fill="midnightblue" stroke="midnightblue" points="121.16,-378.5 131.16,-375 121.16,-371.5 121.16,-378.5"/>
</g>
<!-- Node14&#45;&gt;Node11 -->
<g id="edge15" class="edge">
<title>Node14&#45;&gt;Node11</title>
<path fill="none" stroke="midnightblue" d="M137.04,-401.3C116.07,-395.59 93.63,-389.47 75.66,-384.58"/>
<polygon fill="midnightblue" stroke="midnightblue" points="136.3,-404.73 146.87,-403.98 138.14,-397.98 136.3,-404.73"/>
</g>
<!-- Node18 -->
<g id="node18" class="node">
<title>Node18</title>
<g id="a_node18"><a xlink:href="../../d0/d40/classParser.html#a0b1cb3d47420a05306264ecc1e66e8c5" target="_top" xlink:title="Builds the input matrices for the MyBLAS library from a JSON file.">
<polygon fill="white" stroke="black" points="342,-114.5 342,-133.5 449,-133.5 449,-114.5 342,-114.5"/>
<text text-anchor="middle" x="395.5" y="-121.5" font-family="Helvetica,sans-Serif" font-size="10.00">Parser::buildInputs</text>
</a>
</g>
</g>
<!-- Node17&#45;&gt;Node18 -->
<g id="edge19" class="edge">
<title>Node17&#45;&gt;Node18</title>
<path fill="none" stroke="midnightblue" d="M542.51,-292.54C527.24,-285.82 511.08,-276.23 500,-263 464.26,-220.3 503.71,-182.04 464,-143 459.75,-138.82 454.65,-135.54 449.18,-132.98"/>
<polygon fill="midnightblue" stroke="midnightblue" points="541.27,-295.81 551.85,-296.36 543.92,-289.33 541.27,-295.81"/>
</g>
<!-- Node19 -->
<g id="node19" class="node">
<title>Node19</title>
<g id="a_node19"><a xlink:href="../../d7/da1/project_2project1_2Compute_8h.html#acddcb7395a0d22a81020f268fd96918a" target="_top" xlink:title="Solves the linear system.">
<polygon fill="white" stroke="black" points="341.5,-316 341.5,-346 449.5,-346 449.5,-316 341.5,-316"/>
<text text-anchor="start" x="349.5" y="-334" font-family="Helvetica,sans-Serif" font-size="10.00">naive_solve_linear</text>
<text text-anchor="middle" x="395.5" y="-323" font-family="Helvetica,sans-Serif" font-size="10.00">_system</text>
</a>
</g>
</g>
<!-- Node17&#45;&gt;Node19 -->
<g id="edge20" class="edge">
<title>Node17&#45;&gt;Node19</title>
<path fill="none" stroke="midnightblue" d="M503.2,-316.85C485.05,-319.26 466.28,-321.75 449.63,-323.95"/>
<polygon fill="midnightblue" stroke="midnightblue" points="503.75,-320.31 513.2,-315.52 502.83,-313.37 503.75,-320.31"/>
</g>
<!-- Node20 -->
<g id="node20" class="node">
<title>Node20</title>
<g id="a_node20"><a xlink:href="../../d1/d18/namespaceMyFactorizationMethod.html#af023ef80907979472242ab3db7dcd9ff" target="_top" xlink:title="Function to check if the factorized matrices pass the post&#45;checks for the factorization methods.">
<polygon fill="white" stroke="black" points="330,-267 330,-297 461,-297 461,-267 330,-267"/>
<text text-anchor="start" x="338" y="-285" font-family="Helvetica,sans-Serif" font-size="10.00">MyFactorizationMethod</text>
<text text-anchor="middle" x="395.5" y="-274" font-family="Helvetica,sans-Serif" font-size="10.00">::passesPostChecks</text>
</a>
</g>
</g>
<!-- Node17&#45;&gt;Node20 -->
<g id="edge21" class="edge">
<title>Node17&#45;&gt;Node20</title>
<path fill="none" stroke="midnightblue" d="M500.25,-295.21C487.11,-293.54 473.73,-291.83 461.13,-290.23"/>
<polygon fill="midnightblue" stroke="midnightblue" points="499.87,-298.69 510.23,-296.48 500.75,-291.75 499.87,-298.69"/>
</g>
<!-- Node21 -->
<g id="node21" class="node">
<title>Node21</title>
<g id="a_node21"><a xlink:href="../../d3/d1d/classOutLab5.html#aa1d5363426e0ce8f620d47c1b2aa2260" target="_top" xlink:title="This function runs the project.">
<polygon fill="white" stroke="black" points="356,-228.5 356,-247.5 435,-247.5 435,-228.5 356,-228.5"/>
<text text-anchor="middle" x="395.5" y="-235.5" font-family="Helvetica,sans-Serif" font-size="10.00">OutLab5::run</text>
</a>
</g>
</g>
<!-- Node17&#45;&gt;Node21 -->
<g id="edge22" class="edge">
<title>Node17&#45;&gt;Node21</title>
<path fill="none" stroke="midnightblue" d="M553.07,-292.43C528.84,-282.35 494.6,-268.58 464,-258 453.37,-254.33 441.67,-250.71 431.03,-247.58"/>
<polygon fill="midnightblue" stroke="midnightblue" points="551.9,-295.73 562.48,-296.36 554.61,-289.27 551.9,-295.73"/>
</g>
<!-- Node22 -->
<g id="node22" class="node">
<title>Node22</title>
<g id="a_node22"><a xlink:href="../../d2/d6e/namespaceMyBLAS.html#ae0e21db4e593f8fce4d188406560a2ce" target="_top" xlink:title=" ">
<polygon fill="white" stroke="black" points="333.5,-365.5 333.5,-384.5 457.5,-384.5 457.5,-365.5 333.5,-365.5"/>
<text text-anchor="middle" x="395.5" y="-372.5" font-family="Helvetica,sans-Serif" font-size="10.00">MyBLAS::TYPED_TEST</text>
</a>
</g>
</g>
<!-- Node17&#45;&gt;Node22 -->
<g id="edge23" class="edge">
<title>Node17&#45;&gt;Node22</title>
<path fill="none" stroke="midnightblue" d="M554.5,-319.77C530.26,-330.43 495.34,-345.16 464,-356 454.22,-359.38 443.49,-362.62 433.53,-365.42"/>
<polygon fill="midnightblue" stroke="midnightblue" points="556.15,-322.87 563.87,-315.62 553.31,-316.47 556.15,-322.87"/>
</g>
<!-- Node23&#45;&gt;Node2 -->
<g id="edge25" class="edge">
<title>Node23&#45;&gt;Node2</title>
<path fill="none" stroke="midnightblue" d="M524.55,-595.76C516.12,-599.11 507.72,-602.87 500,-607 482.37,-616.44 481.93,-625.14 464,-634 456.36,-637.78 447.85,-640.91 439.52,-643.46"/>
<polygon fill="midnightblue" stroke="midnightblue" points="525.93,-598.98 534.03,-592.15 523.44,-592.44 525.93,-598.98"/>
</g>
<!-- Node23&#45;&gt;Node5 -->
<g id="edge26" class="edge">
<title>Node23&#45;&gt;Node5</title>
<path fill="none" stroke="midnightblue" d="M501.05,-577C488.75,-577 476.22,-577 464.29,-577"/>
<polygon fill="midnightblue" stroke="midnightblue" points="501.31,-580.5 511.31,-577 501.31,-573.5 501.31,-580.5"/>
</g>
<!-- Node24 -->
<g id="node24" class="node">
<title>Node24</title>
<g id="a_node24"><a xlink:href="../../d2/d6e/namespaceMyBLAS.html#a6ae2bf6751779ac28fa5f53bf3f9ea97" target="_top" xlink:title=" ">
<polygon fill="white" stroke="black" points="333.5,-605.5 333.5,-624.5 457.5,-624.5 457.5,-605.5 333.5,-605.5"/>
<text text-anchor="middle" x="395.5" y="-612.5" font-family="Helvetica,sans-Serif" font-size="10.00">MyBLAS::TYPED_TEST</text>
</a>
</g>
</g>
<!-- Node23&#45;&gt;Node24 -->
<g id="edge27" class="edge">
<title>Node23&#45;&gt;Node24</title>
<path fill="none" stroke="midnightblue" d="M501.37,-593.86C481.63,-597.84 461.25,-601.95 443.77,-605.47"/>
<polygon fill="midnightblue" stroke="midnightblue" points="502.2,-597.26 511.31,-591.86 500.82,-590.4 502.2,-597.26"/>
</g>
<!-- Node25&#45;&gt;Node2 -->
<g id="edge29" class="edge">
<title>Node25&#45;&gt;Node2</title>
<path fill="none" stroke="midnightblue" d="M497.54,-656.22C481,-655.69 464.18,-655.15 449.14,-654.68"/>
<polygon fill="midnightblue" stroke="midnightblue" points="497.68,-659.72 507.79,-656.54 497.9,-652.73 497.68,-659.72"/>
</g>
<!-- Node26 -->
<g id="node26" class="node">
<title>Node26</title>
<g id="a_node26"><a xlink:href="../../d2/d6e/namespaceMyBLAS.html#a53f98ce7d1a4a8ef64f41d4ba714eb86" target="_top" xlink:title=" ">
<polygon fill="white" stroke="black" points="333.5,-681.5 333.5,-700.5 457.5,-700.5 457.5,-681.5 333.5,-681.5"/>
<text text-anchor="middle" x="395.5" y="-688.5" font-family="Helvetica,sans-Serif" font-size="10.00">MyBLAS::TYPED_TEST</text>
</a>
</g>
</g>
<!-- Node25&#45;&gt;Node26 -->
<g id="edge30" class="edge">
<title>Node25&#45;&gt;Node26</title>
<path fill="none" stroke="midnightblue" d="M518.87,-670.23C497.25,-673.9 473.46,-677.93 452.66,-681.47"/>
<polygon fill="midnightblue" stroke="midnightblue" points="519.68,-673.64 528.95,-668.51 518.51,-666.74 519.68,-673.64"/>
</g>
<!-- Node27&#45;&gt;Node18 -->
<g id="edge32" class="edge">
<title>Node27&#45;&gt;Node18</title>
<path fill="none" stroke="midnightblue" d="M516.94,-170.59C511.14,-168.54 505.43,-166.34 500,-164 482.99,-156.67 481.05,-150.23 464,-143 455.37,-139.34 445.83,-136.16 436.7,-133.51"/>
<polygon fill="midnightblue" stroke="midnightblue" points="516.13,-174.01 526.72,-173.9 518.37,-167.38 516.13,-174.01"/>
</g>
<!-- Node27&#45;&gt;Node19 -->
<g id="edge33" class="edge">
<title>Node27&#45;&gt;Node19</title>
<path fill="none" stroke="midnightblue" d="M505.37,-209.59C503.5,-210.97 501.7,-212.43 500,-214 467.38,-244.01 495.77,-276.1 464,-307 459.81,-311.08 454.88,-314.46 449.63,-317.28"/>
<polygon fill="midnightblue" stroke="midnightblue" points="507.43,-212.43 514.01,-204.12 503.69,-206.51 507.43,-212.43"/>
</g>
<!-- Node27&#45;&gt;Node20 -->
<g id="edge34" class="edge">
<title>Node27&#45;&gt;Node20</title>
<path fill="none" stroke="midnightblue" d="M509.89,-208.3C506.46,-210.05 503.14,-211.94 500,-214 479.15,-227.66 484.37,-242.64 464,-257 458.59,-260.82 452.52,-264.13 446.31,-266.97"/>
<polygon fill="midnightblue" stroke="midnightblue" points="511.56,-211.39 519.2,-204.04 508.65,-205.03 511.56,-211.39"/>
</g>
<!-- Node27&#45;&gt;Node21 -->
<g id="edge36" class="edge">
<title>Node27&#45;&gt;Node21</title>
<path fill="none" stroke="midnightblue" d="M517.29,-206.6C488.91,-213.98 457.03,-222.27 433.15,-228.47"/>
<polygon fill="midnightblue" stroke="midnightblue" points="518.36,-209.94 527.16,-204.03 516.6,-203.16 518.36,-209.94"/>
</g>
<!-- Node28 -->
<g id="node28" class="node">
<title>Node28</title>
<g id="a_node28"><a xlink:href="../../d8/d5b/classOutLab4.html#af3d8d1b60ac7a85a1aabf6a3d511ecce" target="_top" xlink:title="This function runs the project.">
<polygon fill="white" stroke="black" points="356,-76.5 356,-95.5 435,-95.5 435,-76.5 356,-76.5"/>
<text text-anchor="middle" x="395.5" y="-83.5" font-family="Helvetica,sans-Serif" font-size="10.00">OutLab4::run</text>
</a>
</g>
</g>
<!-- Node27&#45;&gt;Node28 -->
<g id="edge35" class="edge">
<title>Node27&#45;&gt;Node28</title>
<path fill="none" stroke="midnightblue" d="M507.38,-169.02C504.82,-167.47 502.35,-165.8 500,-164 475.63,-145.3 488.48,-123.56 464,-105 455.66,-98.68 445.3,-94.46 435.23,-91.64"/>
<polygon fill="midnightblue" stroke="midnightblue" points="505.96,-172.23 516.43,-173.84 509.25,-166.05 505.96,-172.23"/>
</g>
<!-- Node29 -->
<g id="node29" class="node">
<title>Node29</title>
<g id="a_node29"><a xlink:href="../../db/d13/labs_2inlab6_2tests_2LUMatrixTests_8cpp.html#a5669c38650f4e827fcd26a72acde0dbe" target="_top" xlink:title=" ">
<polygon fill="white" stroke="black" points="369.5,-38.5 369.5,-57.5 421.5,-57.5 421.5,-38.5 369.5,-38.5"/>
<text text-anchor="middle" x="395.5" y="-45.5" font-family="Helvetica,sans-Serif" font-size="10.00">TEST_P</text>
</a>
</g>
</g>
<!-- Node27&#45;&gt;Node29 -->
<g id="edge37" class="edge">
<title>Node27&#45;&gt;Node29</title>
<path fill="none" stroke="midnightblue" d="M505.34,-168.44C503.48,-167.06 501.69,-165.58 500,-164 466.38,-132.63 497.81,-98.17 464,-67 452.54,-56.44 435.67,-51.69 421.66,-49.58"/>
<polygon fill="midnightblue" stroke="midnightblue" points="503.64,-171.51 513.95,-173.94 507.41,-165.61 503.64,-171.51"/>
</g>
<!-- Node30 -->
<g id="node30" class="node">
<title>Node30</title>
<g id="a_node30"><a xlink:href="../../d2/d6e/namespaceMyBLAS.html#a1ed822044d18b37a31873e57f98047b0" target="_top" xlink:title=" ">
<polygon fill="white" stroke="black" points="333.5,-0.5 333.5,-19.5 457.5,-19.5 457.5,-0.5 333.5,-0.5"/>
<text text-anchor="middle" x="395.5" y="-7.5" font-family="Helvetica,sans-Serif" font-size="10.00">MyBLAS::TYPED_TEST</text>
</a>
</g>
</g>
<!-- Node27&#45;&gt;Node30 -->
<g id="edge38" class="edge">
<title>Node27&#45;&gt;Node30</title>
<path fill="none" stroke="midnightblue" d="M504.45,-168.09C502.9,-166.81 501.41,-165.45 500,-164 456.65,-119.54 507.61,-73.21 464,-29 460.24,-25.19 455.78,-22.12 450.96,-19.66"/>
<polygon fill="midnightblue" stroke="midnightblue" points="502.54,-171.02 512.73,-173.89 506.55,-165.29 502.54,-171.02"/>
</g>
<!-- Node31&#45;&gt;Node18 -->
<g id="edge40" class="edge">
<title>Node31&#45;&gt;Node18</title>
<path fill="none" stroke="midnightblue" d="M504.84,-217.64C503.17,-216.49 501.55,-215.28 500,-214 472.68,-191.52 491.33,-165.46 464,-143 459.3,-139.13 453.86,-136.05 448.15,-133.6"/>
<polygon fill="midnightblue" stroke="midnightblue" points="503.22,-220.74 513.6,-222.85 506.8,-214.72 503.22,-220.74"/>
</g>
<!-- Node31&#45;&gt;Node19 -->
<g id="edge41" class="edge">
<title>Node31&#45;&gt;Node19</title>
<path fill="none" stroke="midnightblue" d="M550.14,-258.08C516,-277.71 468.46,-304.95 464,-307 457.1,-310.16 449.66,-313.18 442.32,-315.94"/>
<polygon fill="midnightblue" stroke="midnightblue" points="552.01,-261.04 558.93,-253.02 548.52,-254.97 552.01,-261.04"/>
</g>
<!-- Node31&#45;&gt;Node20 -->
<g id="edge42" class="edge">
<title>Node31&#45;&gt;Node20</title>
<path fill="none" stroke="midnightblue" d="M510.56,-255.38C494.13,-259.21 476.86,-263.24 460.87,-266.97"/>
<polygon fill="midnightblue" stroke="midnightblue" points="511.71,-258.7 520.66,-253.02 510.12,-251.88 511.71,-258.7"/>
</g>
<!-- Node31&#45;&gt;Node21 -->
<g id="edge44" class="edge">
<title>Node31&#45;&gt;Node21</title>
<path fill="none" stroke="midnightblue" d="M501.16,-238C478.12,-238 454.24,-238 435.12,-238"/>
<polygon fill="midnightblue" stroke="midnightblue" points="501.31,-241.5 511.31,-238 501.31,-234.5 501.31,-241.5"/>
</g>
<!-- Node31&#45;&gt;Node28 -->
<g id="edge43" class="edge">
<title>Node31&#45;&gt;Node28</title>
<path fill="none" stroke="midnightblue" d="M503.45,-217.04C502.26,-216.07 501.11,-215.06 500,-214 463.14,-178.72 500.87,-140.26 464,-105 456.17,-97.51 445.63,-92.93 435.2,-90.15"/>
<polygon fill="midnightblue" stroke="midnightblue" points="501.58,-220.01 511.79,-222.82 505.57,-214.25 501.58,-220.01"/>
</g>
<!-- Node32 -->
<g id="node32" class="node">
<title>Node32</title>
<g id="a_node32"><a xlink:href="../../db/d13/labs_2inlab6_2tests_2LUMatrixTests_8cpp.html#af2449afdc1f5af023ce615518d6e28a9" target="_top" xlink:title=" ">
<polygon fill="white" stroke="black" points="369.5,-190.5 369.5,-209.5 421.5,-209.5 421.5,-190.5 369.5,-190.5"/>
<text text-anchor="middle" x="395.5" y="-197.5" font-family="Helvetica,sans-Serif" font-size="10.00">TEST_P</text>
</a>
</g>
</g>
<!-- Node31&#45;&gt;Node32 -->
<g id="edge45" class="edge">
<title>Node31&#45;&gt;Node32</title>
<path fill="none" stroke="midnightblue" d="M501.16,-221.1C472.24,-215.27 442,-209.17 421.51,-205.04"/>
<polygon fill="midnightblue" stroke="midnightblue" points="500.82,-224.6 511.31,-223.14 502.2,-217.74 500.82,-224.6"/>
</g>
<!-- Node33 -->
<g id="node33" class="node">
<title>Node33</title>
<g id="a_node33"><a xlink:href="../../d2/d6e/namespaceMyBLAS.html#a8ac68009c46bf5425d47f1e705dee16a" target="_top" xlink:title=" ">
<polygon fill="white" stroke="black" points="333.5,-152.5 333.5,-171.5 457.5,-171.5 457.5,-152.5 333.5,-152.5"/>
<text text-anchor="middle" x="395.5" y="-159.5" font-family="Helvetica,sans-Serif" font-size="10.00">MyBLAS::TYPED_TEST</text>
</a>
</g>
</g>
<!-- Node31&#45;&gt;Node33 -->
<g id="edge46" class="edge">
<title>Node31&#45;&gt;Node33</title>
<path fill="none" stroke="midnightblue" d="M510.21,-219.09C506.7,-217.52 503.27,-215.82 500,-214 481.04,-203.43 482.96,-191.56 464,-181 457.09,-177.15 449.33,-174.03 441.61,-171.52"/>
<polygon fill="midnightblue" stroke="midnightblue" points="509.1,-222.42 519.68,-222.98 511.76,-215.95 509.1,-222.42"/>
</g>
<!-- Node35 -->
<g id="node35" class="node">
<title>Node35</title>
<g id="a_node35"><a xlink:href="../../de/db3/namespaceCompute.html#a9aaa2e3c1db51432d5a62c1d4541fd90" target="_top" xlink:title="Solves a linear system using LUP decomposition.">
<polygon fill="white" stroke="black" points="147,-289.5 147,-308.5 259,-308.5 259,-289.5 147,-289.5"/>
<text text-anchor="middle" x="203" y="-296.5" font-family="Helvetica,sans-Serif" font-size="10.00">Compute::usingLUP</text>
</a>
</g>
</g>
<!-- Node34&#45;&gt;Node35 -->
<g id="edge48" class="edge">
<title>Node34&#45;&gt;Node35</title>
<path fill="none" stroke="midnightblue" d="M510.19,-426.32C454.85,-432 380.18,-430.46 327,-394 296.17,-372.87 320.26,-341.26 291,-318 281.92,-310.78 270.7,-306.17 259.36,-303.24"/>
<polygon fill="midnightblue" stroke="midnightblue" points="510.74,-429.78 520.29,-425.19 509.96,-422.83 510.74,-429.78"/>
</g>
<!-- Node35&#45;&gt;Node9 -->
<g id="edge49" class="edge">
<title>Node35&#45;&gt;Node9</title>
<path fill="none" stroke="midnightblue" d="M136.78,-299C117.2,-299 96.36,-299 79.1,-299"/>
<polygon fill="midnightblue" stroke="midnightblue" points="136.87,-302.5 146.87,-299 136.87,-295.5 136.87,-302.5"/>
</g>
<!-- Node35&#45;&gt;Node10 -->
<g id="edge50" class="edge">
<title>Node35&#45;&gt;Node10</title>
<path fill="none" stroke="midnightblue" d="M146.8,-310.75C136.23,-313.09 125.26,-315.57 115,-318 102.53,-320.95 88.94,-324.36 76.81,-327.47"/>
<polygon fill="midnightblue" stroke="midnightblue" points="147.76,-314.13 156.78,-308.56 146.26,-307.29 147.76,-314.13"/>
</g>
<!-- Node35&#45;&gt;Node11 -->
<g id="edge51" class="edge">
<title>Node35&#45;&gt;Node11</title>
<path fill="none" stroke="midnightblue" d="M137.02,-308.64C129.34,-311.09 121.82,-314.15 115,-318 94.74,-329.43 97.72,-342.19 79,-356 74.2,-359.54 68.64,-362.72 63.27,-365.43"/>
<polygon fill="midnightblue" stroke="midnightblue" points="138.14,-311.96 146.8,-305.86 136.22,-305.23 138.14,-311.96"/>
</g>
</g>
</svg>
