<?xml version="1.0" encoding="UTF-8" standalone="no"?>
<!DOCTYPE svg PUBLIC "-//W3C//DTD SVG 1.1//EN"
 "http://www.w3.org/Graphics/SVG/1.1/DTD/svg11.dtd">
<!-- Generated by graphviz version 2.43.0 (0)
 -->
<!-- Title: MyBLAS::haveEqualRank Pages: 1 -->
<svg width="577pt" height="66pt"
 viewBox="0.00 0.00 577.00 66.00" xmlns="http://www.w3.org/2000/svg" xmlns:xlink="http://www.w3.org/1999/xlink">
<g id="graph0" class="graph" transform="scale(1 1) rotate(0) translate(4 62)">
<title>MyBLAS::haveEqualRank</title>
<polygon fill="white" stroke="transparent" points="-4,4 -4,-62 573,-62 573,4 -4,4"/>
<!-- Node1 -->
<g id="node1" class="node">
<title>Node1</title>
<g id="a_node1"><a xlink:title="Checks if two matrices have the same rank.">
<polygon fill="#bfbfbf" stroke="black" points="430,-19.5 430,-38.5 569,-38.5 569,-19.5 430,-19.5"/>
<text text-anchor="middle" x="499.5" y="-26.5" font-family="Helvetica,sans-Serif" font-size="10.00">MyBLAS::haveEqualRank</text>
</a>
</g>
</g>
<!-- Node2 -->
<g id="node2" class="node">
<title>Node2</title>
<g id="a_node2"><a xlink:href="../../d1/d18/namespaceMyFactorizationMethod.html#a3edc078b9a5c660f07e2216ec4df7c37" target="_top" xlink:title=" ">
<polygon fill="white" stroke="black" points="263,-14 263,-44 394,-44 394,-14 263,-14"/>
<text text-anchor="start" x="271" y="-32" font-family="Helvetica,sans-Serif" font-size="10.00">MyFactorizationMethod</text>
<text text-anchor="middle" x="328.5" y="-21" font-family="Helvetica,sans-Serif" font-size="10.00">::passesPreChecks</text>
</a>
</g>
</g>
<!-- Node1&#45;&gt;Node2 -->
<g id="edge1" class="edge">
<title>Node1&#45;&gt;Node2</title>
<path fill="none" stroke="midnightblue" d="M419.74,-29C411.15,-29 402.48,-29 394.08,-29"/>
<polygon fill="midnightblue" stroke="midnightblue" points="419.76,-32.5 429.76,-29 419.76,-25.5 419.76,-32.5"/>
</g>
<!-- Node3 -->
<g id="node3" class="node">
<title>Node3</title>
<g id="a_node3"><a xlink:href="../../de/db3/namespaceCompute.html#a9aaa2e3c1db51432d5a62c1d4541fd90" target="_top" xlink:title="Solves a linear system using LUP decomposition.">
<polygon fill="white" stroke="black" points="115,-19.5 115,-38.5 227,-38.5 227,-19.5 115,-19.5"/>
<text text-anchor="middle" x="171" y="-26.5" font-family="Helvetica,sans-Serif" font-size="10.00">Compute::usingLUP</text>
</a>
</g>
</g>
<!-- Node2&#45;&gt;Node3 -->
<g id="edge2" class="edge">
<title>Node2&#45;&gt;Node3</title>
<path fill="none" stroke="midnightblue" d="M252.83,-29C244.21,-29 235.54,-29 227.24,-29"/>
<polygon fill="midnightblue" stroke="midnightblue" points="252.9,-32.5 262.9,-29 252.9,-25.5 252.9,-32.5"/>
</g>
<!-- Node4 -->
<g id="node4" class="node">
<title>Node4</title>
<g id="a_node4"><a xlink:href="../../d0/d4c/classOutLab6.html#a7f817fd9bedd2b88e683e2514d386c8c" target="_top" xlink:title="This function runs the computation.">
<polygon fill="white" stroke="black" points="0,-38.5 0,-57.5 79,-57.5 79,-38.5 0,-38.5"/>
<text text-anchor="middle" x="39.5" y="-45.5" font-family="Helvetica,sans-Serif" font-size="10.00">OutLab6::run</text>
</a>
</g>
</g>
<!-- Node3&#45;&gt;Node4 -->
<g id="edge3" class="edge">
<title>Node3&#45;&gt;Node4</title>
<path fill="none" stroke="midnightblue" d="M104.54,-38.6C95.87,-39.88 87.2,-41.15 79.18,-42.32"/>
<polygon fill="midnightblue" stroke="midnightblue" points="105.32,-42.03 114.7,-37.11 104.3,-35.1 105.32,-42.03"/>
</g>
<!-- Node5 -->
<g id="node5" class="node">
<title>Node5</title>
<g id="a_node5"><a xlink:href="../../dd/db5/classProject2.html#ae3fb99498f7859230efae48b2915a8cb" target="_top" xlink:title="This function runs the project.">
<polygon fill="white" stroke="black" points="0.5,-0.5 0.5,-19.5 78.5,-19.5 78.5,-0.5 0.5,-0.5"/>
<text text-anchor="middle" x="39.5" y="-7.5" font-family="Helvetica,sans-Serif" font-size="10.00">Project2::run</text>
</a>
</g>
</g>
<!-- Node3&#45;&gt;Node5 -->
<g id="edge4" class="edge">
<title>Node3&#45;&gt;Node5</title>
<path fill="none" stroke="midnightblue" d="M104.71,-19.42C95.84,-18.12 86.98,-16.82 78.8,-15.62"/>
<polygon fill="midnightblue" stroke="midnightblue" points="104.3,-22.9 114.7,-20.89 105.32,-15.97 104.3,-22.9"/>
</g>
</g>
</svg>
