<?xml version="1.0" encoding="UTF-8" standalone="no"?>
<!DOCTYPE svg PUBLIC "-//W3C//DTD SVG 1.1//EN"
 "http://www.w3.org/Graphics/SVG/1.1/DTD/svg11.dtd">
<!-- Generated by graphviz version 2.43.0 (0)
 -->
<!-- Title: MyBLAS::abs Pages: 1 -->
<!--zoomable 170 -->
<svg id="main" version="1.1" xmlns="http://www.w3.org/2000/svg" xmlns:xlink="http://www.w3.org/1999/xlink" xml:space="preserve" onload="init(evt)">
<style type="text/css"><![CDATA[
.edge:hover path { stroke: red; }
.edge:hover polygon { stroke: red; fill: red; }
]]></style>
<script type="text/javascript"><![CDATA[
var edges = document.getElementsByTagName('g');
if (edges && edges.length) {
  for (var i=0;i<edges.length;i++) {
    if (edges[i].id.substr(0,4)=='edge') {
      edges[i].setAttribute('class','edge');
    }
  }
}
]]></script>
        <defs>
                <circle id="rim" cx="0" cy="0" r="7"/>
                <circle id="rim2" cx="0" cy="0" r="3.5"/>
                <g id="zoomPlus">
                        <use xlink:href="#rim" fill="#404040">
                                <set attributeName="fill" to="#808080" begin="zoomplus.mouseover" end="zoomplus.mouseout"/>
                        </use>
                        <path d="M-4,0h8M0,-4v8" fill="none" stroke="white" stroke-width="1.5" pointer-events="none"/>
                </g>
                <g id="zoomMin">
                        <use xlink:href="#rim" fill="#404040">
                                <set attributeName="fill" to="#808080" begin="zoomminus.mouseover" end="zoomminus.mouseout"/>
                        </use>
                        <path d="M-4,0h8" fill="none" stroke="white" stroke-width="1.5" pointer-events="none"/>
                </g>
                <g id="dirArrow">
                        <path fill="none" stroke="white" stroke-width="1.5" d="M0,-3.0v7 M-2.5,-0.5L0,-3.0L2.5,-0.5"/>
                </g>
               <g id="resetDef">
                       <use xlink:href="#rim2" fill="#404040">
                               <set attributeName="fill" to="#808080" begin="reset.mouseover" end="reset.mouseout"/>
                       </use>
               </g>
        </defs>

<script type="text/javascript">
var viewWidth = 962;
var viewHeight = 170;
var sectionId = 'dynsection-1';
</script>
<script xlink:href="../../svgpan.js"/>
<svg id="graph" class="graph">
<g id="viewport">
<title>MyBLAS::abs</title>
<polygon fill="white" stroke="transparent" points="-4,4 -4,-166 958,-166 958,4 -4,4"/>
<!-- Node1 -->
<g id="node1" class="node">
<title>Node1</title>
<g id="a_node1"><a xlink:title="Calculates the absolute value of the matrix.">
<polygon fill="#bfbfbf" stroke="black" points="874,-60.5 874,-79.5 954,-79.5 954,-60.5 874,-60.5"/>
<text text-anchor="middle" x="914" y="-67.5" font-family="Helvetica,sans-Serif" font-size="10.00">MyBLAS::abs</text>
</a>
</g>
</g>
<!-- Node2 -->
<g id="node2" class="node">
<title>Node2</title>
<g id="a_node2"><a xlink:href="../../d2/d6e/namespaceMyBLAS.html#ac1553ed7aac22092b5a958ea0ff002ef" target="_top" xlink:title="Checks if all diagonal elements of a matrix are below a certain threshold.">
<polygon fill="white" stroke="black" points="670,-77 670,-107 834,-107 834,-77 670,-77"/>
<text text-anchor="start" x="678" y="-95" font-family="Helvetica,sans-Serif" font-size="10.00">MyBLAS::allDiagonalElements</text>
<text text-anchor="middle" x="752" y="-84" font-family="Helvetica,sans-Serif" font-size="10.00">BelowThreshold</text>
</a>
</g>
</g>
<!-- Node1&#45;&gt;Node2 -->
<g id="edge1" class="edge">
<title>Node1&#45;&gt;Node2</title>
<path fill="none" stroke="midnightblue" d="M863.87,-76.76C854.39,-78.06 844.23,-79.46 834.04,-80.86"/>
<polygon fill="midnightblue" stroke="midnightblue" points="864.43,-80.21 873.86,-75.38 863.48,-73.28 864.43,-80.21"/>
</g>
<!-- Node11 -->
<g id="node11" class="node">
<title>Node11</title>
<g id="a_node11"><a xlink:href="../../d2/d6e/namespaceMyBLAS.html#a4c6e919f9667070f40bd837a5f6bcab6" target="_top" xlink:title="Checks if the given matrix is diagonally dominant.">
<polygon fill="white" stroke="black" points="666,-38.5 666,-57.5 838,-57.5 838,-38.5 666,-38.5"/>
<text text-anchor="middle" x="752" y="-45.5" font-family="Helvetica,sans-Serif" font-size="10.00">MyBLAS::isDiagonallyDominant</text>
</a>
</g>
</g>
<!-- Node1&#45;&gt;Node11 -->
<g id="edge10" class="edge">
<title>Node1&#45;&gt;Node11</title>
<path fill="none" stroke="midnightblue" d="M863.68,-63.22C850.6,-61.42 836.24,-59.45 822.31,-57.53"/>
<polygon fill="midnightblue" stroke="midnightblue" points="863.48,-66.72 873.86,-64.62 864.43,-59.79 863.48,-66.72"/>
</g>
<!-- Node3 -->
<g id="node3" class="node">
<title>Node3</title>
<g id="a_node3"><a xlink:href="../../d2/d6e/namespaceMyBLAS.html#a8a58dad3aacc3b2d45d0501bf97dc6e1" target="_top" xlink:title="Checks if there are no zeros in the diagonal of a matrix.">
<polygon fill="white" stroke="black" points="475,-126.5 475,-145.5 630,-145.5 630,-126.5 475,-126.5"/>
<text text-anchor="middle" x="552.5" y="-133.5" font-family="Helvetica,sans-Serif" font-size="10.00">MyBLAS::noZerosInDiagonal</text>
</a>
</g>
</g>
<!-- Node2&#45;&gt;Node3 -->
<g id="edge2" class="edge">
<title>Node2&#45;&gt;Node3</title>
<path fill="none" stroke="midnightblue" d="M673.61,-109.24C647.27,-115.11 618.81,-121.45 596.2,-126.49"/>
<polygon fill="midnightblue" stroke="midnightblue" points="674.58,-112.61 683.58,-107.02 673.06,-105.78 674.58,-112.61"/>
</g>
<!-- Node10 -->
<g id="node10" class="node">
<title>Node10</title>
<g id="a_node10"><a xlink:href="../../d1/d18/namespaceMyFactorizationMethod.html#a73662e76e8d6209945aae36a1f125946" target="_top" xlink:title="Function to check if the factorized matrices pass the post&#45;checks for the factorization methods.">
<polygon fill="white" stroke="black" points="487,-77 487,-107 618,-107 618,-77 487,-77"/>
<text text-anchor="start" x="495" y="-95" font-family="Helvetica,sans-Serif" font-size="10.00">MyFactorizationMethod</text>
<text text-anchor="middle" x="552.5" y="-84" font-family="Helvetica,sans-Serif" font-size="10.00">::passesPostChecks</text>
</a>
</g>
</g>
<!-- Node2&#45;&gt;Node10 -->
<g id="edge9" class="edge">
<title>Node2&#45;&gt;Node10</title>
<path fill="none" stroke="midnightblue" d="M659.65,-92C645.61,-92 631.38,-92 618.09,-92"/>
<polygon fill="midnightblue" stroke="midnightblue" points="659.81,-95.5 669.81,-92 659.81,-88.5 659.81,-95.5"/>
</g>
<!-- Node4 -->
<g id="node4" class="node">
<title>Node4</title>
<g id="a_node4"><a xlink:href="../../d7/d9a/namespaceMyRelaxationMethod.html#ab5820b2108969271e8bf7d61170c4288" target="_top" xlink:title="Function to perform pre&#45;checks on the coefficient matrix and the right&#45;hand side vector.">
<polygon fill="white" stroke="black" points="318,-80 318,-110 439,-110 439,-80 318,-80"/>
<text text-anchor="start" x="326" y="-98" font-family="Helvetica,sans-Serif" font-size="10.00">MyRelaxationMethod</text>
<text text-anchor="middle" x="378.5" y="-87" font-family="Helvetica,sans-Serif" font-size="10.00">::passesPreChecks</text>
</a>
</g>
</g>
<!-- Node3&#45;&gt;Node4 -->
<g id="edge3" class="edge">
<title>Node3&#45;&gt;Node4</title>
<path fill="none" stroke="midnightblue" d="M501.68,-124.13C482.12,-119.46 459.5,-114.07 439.08,-109.2"/>
<polygon fill="midnightblue" stroke="midnightblue" points="501.07,-127.58 511.61,-126.49 502.69,-120.77 501.07,-127.58"/>
</g>
<!-- Node5 -->
<g id="node5" class="node">
<title>Node5</title>
<g id="a_node5"><a xlink:href="../../de/db3/namespaceCompute.html#a017b511b9ab24d2388a864d6cb14c1cc" target="_top" xlink:title="Solves a linear system using the Gauss&#45;Seidel method.">
<polygon fill="white" stroke="black" points="122,-142.5 122,-161.5 275,-161.5 275,-142.5 122,-142.5"/>
<text text-anchor="middle" x="198.5" y="-149.5" font-family="Helvetica,sans-Serif" font-size="10.00">Compute::usingGaussSeidel</text>
</a>
</g>
</g>
<!-- Node4&#45;&gt;Node5 -->
<g id="edge4" class="edge">
<title>Node4&#45;&gt;Node5</title>
<path fill="none" stroke="midnightblue" d="M333.8,-114.01C317.71,-120.58 299.21,-127.63 282,-133 270.64,-136.55 258.2,-139.75 246.52,-142.48"/>
<polygon fill="midnightblue" stroke="midnightblue" points="335.58,-117.06 343.48,-110 332.9,-110.6 335.58,-117.06"/>
</g>
<!-- Node6 -->
<g id="node6" class="node">
<title>Node6</title>
<g id="a_node6"><a xlink:href="../../de/db3/namespaceCompute.html#a3b30a49d004f8370d19cd13f6492ddba" target="_top" xlink:title="Solves a linear system using the Jacobi SOR method.">
<polygon fill="white" stroke="black" points="127,-104.5 127,-123.5 270,-123.5 270,-104.5 127,-104.5"/>
<text text-anchor="middle" x="198.5" y="-111.5" font-family="Helvetica,sans-Serif" font-size="10.00">Compute::usingJacobiSOR</text>
</a>
</g>
</g>
<!-- Node4&#45;&gt;Node6 -->
<g id="edge5" class="edge">
<title>Node4&#45;&gt;Node6</title>
<path fill="none" stroke="midnightblue" d="M307.56,-102.47C295.29,-103.78 282.5,-105.14 270.2,-106.45"/>
<polygon fill="midnightblue" stroke="midnightblue" points="308.16,-105.92 317.73,-101.38 307.42,-98.96 308.16,-105.92"/>
</g>
<!-- Node8 -->
<g id="node8" class="node">
<title>Node8</title>
<g id="a_node8"><a xlink:href="../../de/db3/namespaceCompute.html#acfa0341940d2764e69d254afdc2cbb23" target="_top" xlink:title="Solves a linear system using the Successive Over&#45;Relaxation (SOR) method.">
<polygon fill="white" stroke="black" points="142,-66.5 142,-85.5 255,-85.5 255,-66.5 142,-66.5"/>
<text text-anchor="middle" x="198.5" y="-73.5" font-family="Helvetica,sans-Serif" font-size="10.00">Compute::usingSOR</text>
</a>
</g>
</g>
<!-- Node4&#45;&gt;Node8 -->
<g id="edge7" class="edge">
<title>Node4&#45;&gt;Node8</title>
<path fill="none" stroke="midnightblue" d="M307.63,-87.54C290.23,-85.69 271.81,-83.72 255.2,-81.95"/>
<polygon fill="midnightblue" stroke="midnightblue" points="307.42,-91.04 317.73,-88.62 308.16,-84.08 307.42,-91.04"/>
</g>
<!-- Node9 -->
<g id="node9" class="node">
<title>Node9</title>
<g id="a_node9"><a xlink:href="../../de/db3/namespaceCompute.html#ab38c6016d5c4907c1f4f468600278560" target="_top" xlink:title="Solves a linear system using the Symmetric SOR method.">
<polygon fill="white" stroke="black" points="115,-28.5 115,-47.5 282,-47.5 282,-28.5 115,-28.5"/>
<text text-anchor="middle" x="198.5" y="-35.5" font-family="Helvetica,sans-Serif" font-size="10.00">Compute::usingSymmetricSOR</text>
</a>
</g>
</g>
<!-- Node4&#45;&gt;Node9 -->
<g id="edge8" class="edge">
<title>Node4&#45;&gt;Node9</title>
<path fill="none" stroke="midnightblue" d="M333.8,-75.99C317.71,-69.42 299.21,-62.37 282,-57 270.64,-53.45 258.2,-50.25 246.52,-47.52"/>
<polygon fill="midnightblue" stroke="midnightblue" points="332.9,-79.4 343.48,-80 335.58,-72.94 332.9,-79.4"/>
</g>
<!-- Node7 -->
<g id="node7" class="node">
<title>Node7</title>
<g id="a_node7"><a xlink:href="../../d0/d4c/classOutLab6.html#a7f817fd9bedd2b88e683e2514d386c8c" target="_top" xlink:title="This function runs the computation.">
<polygon fill="white" stroke="black" points="0,-104.5 0,-123.5 79,-123.5 79,-104.5 0,-104.5"/>
<text text-anchor="middle" x="39.5" y="-111.5" font-family="Helvetica,sans-Serif" font-size="10.00">OutLab6::run</text>
</a>
</g>
</g>
<!-- Node6&#45;&gt;Node7 -->
<g id="edge6" class="edge">
<title>Node6&#45;&gt;Node7</title>
<path fill="none" stroke="midnightblue" d="M116.76,-114C103.6,-114 90.53,-114 79.02,-114"/>
<polygon fill="midnightblue" stroke="midnightblue" points="116.81,-117.5 126.81,-114 116.81,-110.5 116.81,-117.5"/>
</g>
<!-- Node11&#45;&gt;Node4 -->
<g id="edge13" class="edge">
<title>Node11&#45;&gt;Node4</title>
<path fill="none" stroke="midnightblue" d="M655.74,-50.14C602.29,-52.52 534.57,-57.53 475,-68 458.71,-70.86 441.21,-75.37 425.69,-79.9"/>
<polygon fill="midnightblue" stroke="midnightblue" points="656.05,-53.63 665.9,-49.71 655.76,-46.63 656.05,-53.63"/>
</g>
<!-- Node12 -->
<g id="node12" class="node">
<title>Node12</title>
<g id="a_node12"><a xlink:href="../../d5/d7a/namespaceMyBLAS_1_1System.html#a487070ac751d33afa7f9fceaef312ea0" target="_top" xlink:title="This function generates a circuit with random resistances and currents, and computes the correspondin...">
<polygon fill="white" stroke="black" points="484,-0.5 484,-19.5 621,-19.5 621,-0.5 484,-0.5"/>
<text text-anchor="middle" x="552.5" y="-7.5" font-family="Helvetica,sans-Serif" font-size="10.00">MyBLAS::System::Circuit</text>
</a>
</g>
</g>
<!-- Node11&#45;&gt;Node12 -->
<g id="edge11" class="edge">
<title>Node11&#45;&gt;Node12</title>
<path fill="none" stroke="midnightblue" d="M691.29,-36.51C663.11,-31.09 629.87,-24.69 603.1,-19.54"/>
<polygon fill="midnightblue" stroke="midnightblue" points="690.94,-40.01 701.42,-38.46 692.26,-33.13 690.94,-40.01"/>
</g>
<!-- Node13 -->
<g id="node13" class="node">
<title>Node13</title>
<g id="a_node13"><a xlink:href="../../d0/d40/classParser.html#a123dc1be35999de898396ade606098f6" target="_top" xlink:title="Builds the input matrices for the MyBLAS library from a JSON file.">
<polygon fill="white" stroke="black" points="325,-0.5 325,-19.5 432,-19.5 432,-0.5 325,-0.5"/>
<text text-anchor="middle" x="378.5" y="-7.5" font-family="Helvetica,sans-Serif" font-size="10.00">Parser::buildInputs</text>
</a>
</g>
</g>
<!-- Node12&#45;&gt;Node13 -->
<g id="edge12" class="edge">
<title>Node12&#45;&gt;Node13</title>
<path fill="none" stroke="midnightblue" d="M473.42,-10C459.44,-10 445.18,-10 432.14,-10"/>
<polygon fill="midnightblue" stroke="midnightblue" points="473.52,-13.5 483.52,-10 473.52,-6.5 473.52,-13.5"/>
</g>
</g>
</svg>
        <g id="navigator" transform="translate(0 0)" fill="#404254">
                <rect fill="#f2f5e9" fill-opacity="0.5" stroke="#606060" stroke-width=".5" x="0" y="0" width="60" height="60"/>
                <use id="zoomplus" xlink:href="#zoomPlus" x="17" y="9" onmousedown="handleZoom(evt,'in')"/>
                <use id="zoomminus" xlink:href="#zoomMin" x="42" y="9" onmousedown="handleZoom(evt,'out')"/>
                <use id="reset" xlink:href="#resetDef" x="30" y="36" onmousedown="handleReset()"/>
                <g id="arrowUp" xlink:href="#dirArrow" transform="translate(30 24)" onmousedown="handlePan(0,-1)">
                  <use xlink:href="#rim" fill="#404040">
                        <set attributeName="fill" to="#808080" begin="arrowUp.mouseover" end="arrowUp.mouseout"/>
                  </use>
                  <path fill="none" stroke="white" stroke-width="1.5" d="M0,-3.0v7 M-2.5,-0.5L0,-3.0L2.5,-0.5"/>
                </g>
                <g id="arrowRight" xlink:href="#dirArrow" transform="rotate(90) translate(36 -43)" onmousedown="handlePan(1,0)">
                  <use xlink:href="#rim" fill="#404040">
                        <set attributeName="fill" to="#808080" begin="arrowRight.mouseover" end="arrowRight.mouseout"/>
                  </use>
                  <path fill="none" stroke="white" stroke-width="1.5" d="M0,-3.0v7 M-2.5,-0.5L0,-3.0L2.5,-0.5"/>
                </g>
                <g id="arrowDown" xlink:href="#dirArrow" transform="rotate(180) translate(-30 -48)" onmousedown="handlePan(0,1)">
                  <use xlink:href="#rim" fill="#404040">
                        <set attributeName="fill" to="#808080" begin="arrowDown.mouseover" end="arrowDown.mouseout"/>
                  </use>
                  <path fill="none" stroke="white" stroke-width="1.5" d="M0,-3.0v7 M-2.5,-0.5L0,-3.0L2.5,-0.5"/>
                </g>
                <g id="arrowLeft" xlink:href="#dirArrow" transform="rotate(270) translate(-36 17)" onmousedown="handlePan(-1,0)">
                  <use xlink:href="#rim" fill="#404040">
                        <set attributeName="fill" to="#808080" begin="arrowLeft.mouseover" end="arrowLeft.mouseout"/>
                  </use>
                  <path fill="none" stroke="white" stroke-width="1.5" d="M0,-3.0v7 M-2.5,-0.5L0,-3.0L2.5,-0.5"/>
                </g>
        </g>
        <svg viewBox="0 0 15 15" width="100%" height="30px" preserveAspectRatio="xMaxYMin meet">
         <g id="arrow_out" transform="scale(0.3 0.3)">
          <a xlink:href="namespaceMyBLAS_a6f970b1188ed02d14bee3698f1b9d40a_icgraph_org.svg" target="_base">
           <rect id="button" ry="5" rx="5" y="6" x="6" height="38" width="38"
                fill="#f2f5e9" fill-opacity="0.5" stroke="#606060" stroke-width="1.0"/>
           <path id="arrow"
             d="M 11.500037,31.436501 C 11.940474,20.09759 22.043105,11.32322 32.158766,21.979434 L 37.068811,17.246167 C 37.068811,17.246167 37.088388,32 37.088388,32 L 22.160133,31.978069 C 22.160133,31.978069 26.997745,27.140456 26.997745,27.140456 C 18.528582,18.264221 13.291696,25.230495 11.500037,31.436501 z"
             style="fill:#404040;"/>
          </a>
         </g>
        </svg>
</svg>
