<?xml version="1.0" encoding="UTF-8" standalone="no"?>
<!DOCTYPE svg PUBLIC "-//W3C//DTD SVG 1.1//EN"
 "http://www.w3.org/Graphics/SVG/1.1/DTD/svg11.dtd">
<!-- Generated by graphviz version 2.43.0 (0)
 -->
<!-- Title: MyBLAS::L2 Pages: 1 -->
<svg width="601pt" height="568pt"
 viewBox="0.00 0.00 601.00 568.00" xmlns="http://www.w3.org/2000/svg" xmlns:xlink="http://www.w3.org/1999/xlink">
<g id="graph0" class="graph" transform="scale(1 1) rotate(0) translate(4 564)">
<title>MyBLAS::L2</title>
<polygon fill="white" stroke="transparent" points="-4,4 -4,-564 597,-564 597,4 -4,4"/>
<!-- Node1 -->
<g id="node1" class="node">
<title>Node1</title>
<g id="a_node1"><a xlink:title="Calculates the L2 norm of the distance (Euclidean distance) between two containers.">
<polygon fill="#bfbfbf" stroke="black" points="519,-229.5 519,-248.5 593,-248.5 593,-229.5 519,-229.5"/>
<text text-anchor="middle" x="556" y="-236.5" font-family="Helvetica,sans-Serif" font-size="10.00">MyBLAS::L2</text>
</a>
</g>
</g>
<!-- Node2 -->
<g id="node2" class="node">
<title>Node2</title>
<g id="a_node2"><a xlink:href="../../d7/d9a/namespaceMyRelaxationMethod.html#afdf5008e9dbe2c5d17070d2dbfb89ebd" target="_top" xlink:title=" ">
<polygon fill="white" stroke="black" points="342,-470 342,-500 483,-500 483,-470 342,-470"/>
<text text-anchor="start" x="350" y="-488" font-family="Helvetica,sans-Serif" font-size="10.00">MyRelaxationMethod</text>
<text text-anchor="middle" x="412.5" y="-477" font-family="Helvetica,sans-Serif" font-size="10.00">::applyConjugateGradient</text>
</a>
</g>
</g>
<!-- Node1&#45;&gt;Node2 -->
<g id="edge1" class="edge">
<title>Node1&#45;&gt;Node2</title>
<path fill="none" stroke="midnightblue" d="M553.57,-259.15C549.59,-300.68 535,-396.73 483,-454 477.05,-460.55 469.45,-465.8 461.48,-469.98"/>
<polygon fill="midnightblue" stroke="midnightblue" points="557.07,-259.22 554.43,-248.96 550.1,-258.63 557.07,-259.22"/>
</g>
<!-- Node6 -->
<g id="node6" class="node">
<title>Node6</title>
<g id="a_node6"><a xlink:href="../../d7/d9a/namespaceMyRelaxationMethod.html#ac76943650285426073d6d4965cbb6834" target="_top" xlink:title=" ">
<polygon fill="white" stroke="black" points="352,-414 352,-444 473,-444 473,-414 352,-414"/>
<text text-anchor="start" x="360" y="-432" font-family="Helvetica,sans-Serif" font-size="10.00">MyRelaxationMethod</text>
<text text-anchor="middle" x="412.5" y="-421" font-family="Helvetica,sans-Serif" font-size="10.00">::applyP2SOR</text>
</a>
</g>
</g>
<!-- Node1&#45;&gt;Node6 -->
<g id="edge5" class="edge">
<title>Node1&#45;&gt;Node6</title>
<path fill="none" stroke="midnightblue" d="M551.7,-259.05C544.98,-293.65 526.49,-364.73 483,-405 479.25,-408.47 474.98,-411.44 470.44,-413.98"/>
<polygon fill="midnightblue" stroke="midnightblue" points="555.22,-259.27 553.55,-248.81 548.33,-258.03 555.22,-259.27"/>
</g>
<!-- Node7 -->
<g id="node7" class="node">
<title>Node7</title>
<g id="a_node7"><a xlink:href="../../d7/d9a/namespaceMyRelaxationMethod.html#a37b1fd2ee5b2724d52808f9490c1c5a8" target="_top" xlink:title="This function applies the Point Jacobi method to solve a system of linear equations.">
<polygon fill="white" stroke="black" points="352,-365 352,-395 473,-395 473,-365 352,-365"/>
<text text-anchor="start" x="360" y="-383" font-family="Helvetica,sans-Serif" font-size="10.00">MyRelaxationMethod</text>
<text text-anchor="middle" x="412.5" y="-372" font-family="Helvetica,sans-Serif" font-size="10.00">::applyPointJacobi</text>
</a>
</g>
</g>
<!-- Node1&#45;&gt;Node7 -->
<g id="edge6" class="edge">
<title>Node1&#45;&gt;Node7</title>
<path fill="none" stroke="midnightblue" d="M547.08,-258.11C536.05,-282.65 513.85,-325.15 483,-351 476.39,-356.54 468.56,-361.15 460.59,-364.95"/>
<polygon fill="midnightblue" stroke="midnightblue" points="550.36,-259.36 551.13,-248.79 543.94,-256.57 550.36,-259.36"/>
</g>
<!-- Node16 -->
<g id="node16" class="node">
<title>Node16</title>
<g id="a_node16"><a xlink:href="../../d7/d9a/namespaceMyRelaxationMethod.html#a243ad9b544328fb7b499b467e67ddd9c" target="_top" xlink:title=" ">
<polygon fill="white" stroke="black" points="352,-224 352,-254 473,-254 473,-224 352,-224"/>
<text text-anchor="start" x="360" y="-242" font-family="Helvetica,sans-Serif" font-size="10.00">MyRelaxationMethod</text>
<text text-anchor="middle" x="412.5" y="-231" font-family="Helvetica,sans-Serif" font-size="10.00">::applyPSOR</text>
</a>
</g>
</g>
<!-- Node1&#45;&gt;Node16 -->
<g id="edge18" class="edge">
<title>Node1&#45;&gt;Node16</title>
<path fill="none" stroke="midnightblue" d="M508.79,-239C497.41,-239 485.06,-239 473.15,-239"/>
<polygon fill="midnightblue" stroke="midnightblue" points="508.93,-242.5 518.93,-239 508.93,-235.5 508.93,-242.5"/>
</g>
<!-- Node17 -->
<g id="node17" class="node">
<title>Node17</title>
<g id="a_node17"><a xlink:href="../../d7/d9a/namespaceMyRelaxationMethod.html#a8b6c4702b1a4d0420694761b497512c4" target="_top" xlink:title=" ">
<polygon fill="white" stroke="black" points="352,-175 352,-205 473,-205 473,-175 352,-175"/>
<text text-anchor="start" x="360" y="-193" font-family="Helvetica,sans-Serif" font-size="10.00">MyRelaxationMethod</text>
<text text-anchor="middle" x="412.5" y="-182" font-family="Helvetica,sans-Serif" font-size="10.00">::applySOR</text>
</a>
</g>
</g>
<!-- Node1&#45;&gt;Node17 -->
<g id="edge19" class="edge">
<title>Node1&#45;&gt;Node17</title>
<path fill="none" stroke="midnightblue" d="M517.75,-226.1C499.09,-219.64 476.38,-211.77 456.92,-205.04"/>
<polygon fill="midnightblue" stroke="midnightblue" points="516.79,-229.47 527.38,-229.44 519.08,-222.86 516.79,-229.47"/>
</g>
<!-- Node20 -->
<g id="node20" class="node">
<title>Node20</title>
<g id="a_node20"><a xlink:href="../../d7/d9a/namespaceMyRelaxationMethod.html#ae0d661fe726935eb50716fa26511e640" target="_top" xlink:title=" ">
<polygon fill="white" stroke="black" points="346,-126 346,-156 479,-156 479,-126 346,-126"/>
<text text-anchor="start" x="354" y="-144" font-family="Helvetica,sans-Serif" font-size="10.00">MyRelaxationMethod</text>
<text text-anchor="middle" x="412.5" y="-133" font-family="Helvetica,sans-Serif" font-size="10.00">::applySORBlockParallel</text>
</a>
</g>
</g>
<!-- Node1&#45;&gt;Node20 -->
<g id="edge22" class="edge">
<title>Node1&#45;&gt;Node20</title>
<path fill="none" stroke="midnightblue" d="M541.14,-220.9C527.81,-204.56 506.28,-180.89 483,-166 477.06,-162.2 470.46,-158.88 463.77,-156.01"/>
<polygon fill="midnightblue" stroke="midnightblue" points="538.71,-223.46 547.67,-229.11 544.19,-219.1 538.71,-223.46"/>
</g>
<!-- Node22 -->
<g id="node22" class="node">
<title>Node22</title>
<g id="a_node22"><a xlink:href="../../d7/d9a/namespaceMyRelaxationMethod.html#aa22486c856620523255787ef5bdb1f64" target="_top" xlink:title="This function applies the Successive Over&#45;Relaxation (SOR) method to solve a system of linear equatio...">
<polygon fill="white" stroke="black" points="352,-77 352,-107 473,-107 473,-77 352,-77"/>
<text text-anchor="start" x="360" y="-95" font-family="Helvetica,sans-Serif" font-size="10.00">MyRelaxationMethod</text>
<text text-anchor="middle" x="412.5" y="-84" font-family="Helvetica,sans-Serif" font-size="10.00">::applySORSerial</text>
</a>
</g>
</g>
<!-- Node1&#45;&gt;Node22 -->
<g id="edge24" class="edge">
<title>Node1&#45;&gt;Node22</title>
<path fill="none" stroke="midnightblue" d="M548.58,-219.67C538.66,-192.71 517.14,-143.99 483,-116 478.85,-112.6 474.2,-109.67 469.31,-107.15"/>
<polygon fill="midnightblue" stroke="midnightblue" points="545.4,-221.19 552.01,-229.46 552,-218.87 545.4,-221.19"/>
</g>
<!-- Node23 -->
<g id="node23" class="node">
<title>Node23</title>
<g id="a_node23"><a xlink:href="../../d7/d9a/namespaceMyRelaxationMethod.html#ac37edae4aec371352810b2f552647be4" target="_top" xlink:title="Applies the Symmetric Successive Over&#45;Relaxation (SSOR) method to solve a system of linear equations.">
<polygon fill="white" stroke="black" points="352,-273 352,-303 473,-303 473,-273 352,-273"/>
<text text-anchor="start" x="360" y="-291" font-family="Helvetica,sans-Serif" font-size="10.00">MyRelaxationMethod</text>
<text text-anchor="middle" x="412.5" y="-280" font-family="Helvetica,sans-Serif" font-size="10.00">::applySSOR</text>
</a>
</g>
</g>
<!-- Node1&#45;&gt;Node23 -->
<g id="edge25" class="edge">
<title>Node1&#45;&gt;Node23</title>
<path fill="none" stroke="midnightblue" d="M518.1,-251.82C506.84,-255.74 494.41,-260.05 483,-264 474.68,-266.88 465.79,-269.95 457.25,-272.9"/>
<polygon fill="midnightblue" stroke="midnightblue" points="519.35,-255.1 527.65,-248.51 517.06,-248.48 519.35,-255.1"/>
</g>
<!-- Node26 -->
<g id="node26" class="node">
<title>Node26</title>
<g id="a_node26"><a xlink:href="../../df/df1/structOutput.html#aa91aa39c068c79585b906df4c6fda232" target="_top" xlink:title="Calculates and returns the error of the solution.">
<polygon fill="white" stroke="black" points="345.5,-322.5 345.5,-341.5 479.5,-341.5 479.5,-322.5 345.5,-322.5"/>
<text text-anchor="middle" x="412.5" y="-329.5" font-family="Helvetica,sans-Serif" font-size="10.00">Output::getSolutionError</text>
</a>
</g>
</g>
<!-- Node1&#45;&gt;Node26 -->
<g id="edge29" class="edge">
<title>Node1&#45;&gt;Node26</title>
<path fill="none" stroke="midnightblue" d="M542.09,-256.97C529.04,-273.86 507.36,-298.63 483,-313 476.43,-316.88 469.04,-319.99 461.6,-322.47"/>
<polygon fill="midnightblue" stroke="midnightblue" points="545.23,-258.62 548.42,-248.52 539.63,-254.43 545.23,-258.62"/>
</g>
<!-- Node29 -->
<g id="node29" class="node">
<title>Node29</title>
<g id="a_node29"><a xlink:href="../../d2/d6e/namespaceMyBLAS.html#a4a13a3c077ee693c0297e4c68cbcc521" target="_top" xlink:title="Overloaded function that calculates the L2 norm (Euclidean distance) between two MyBLAS::Vector objec...">
<polygon fill="white" stroke="black" points="375.5,-38.5 375.5,-57.5 449.5,-57.5 449.5,-38.5 375.5,-38.5"/>
<text text-anchor="middle" x="412.5" y="-45.5" font-family="Helvetica,sans-Serif" font-size="10.00">MyBLAS::L2</text>
</a>
</g>
</g>
<!-- Node1&#45;&gt;Node29 -->
<g id="edge33" class="edge">
<title>Node1&#45;&gt;Node29</title>
<path fill="none" stroke="midnightblue" d="M552.36,-218.91C546.56,-182.98 529.31,-107.67 483,-67 473.79,-58.91 461.45,-54.23 449.72,-51.54"/>
<polygon fill="midnightblue" stroke="midnightblue" points="548.94,-219.72 553.87,-229.1 555.87,-218.7 548.94,-219.72"/>
</g>
<!-- Node30 -->
<g id="node30" class="node">
<title>Node30</title>
<g id="a_node30"><a xlink:href="../../d2/d6e/namespaceMyBLAS.html#a16a9e05487bec1dd53f7e66f6aa230ac" target="_top" xlink:title=" ">
<polygon fill="white" stroke="black" points="350.5,-0.5 350.5,-19.5 474.5,-19.5 474.5,-0.5 350.5,-0.5"/>
<text text-anchor="middle" x="412.5" y="-7.5" font-family="Helvetica,sans-Serif" font-size="10.00">MyBLAS::TYPED_TEST</text>
</a>
</g>
</g>
<!-- Node1&#45;&gt;Node30 -->
<g id="edge34" class="edge">
<title>Node1&#45;&gt;Node30</title>
<path fill="none" stroke="midnightblue" d="M554.13,-219.23C551.21,-177.74 538.49,-81.07 483,-29 478.9,-25.15 474.09,-22.06 468.95,-19.59"/>
<polygon fill="midnightblue" stroke="midnightblue" points="550.65,-219.61 554.72,-229.39 557.64,-219.21 550.65,-219.61"/>
</g>
<!-- Node3 -->
<g id="node3" class="node">
<title>Node3</title>
<g id="a_node3"><a xlink:href="../../df/dfd/OutLab10Tests_8cpp.html#a151f7c7b9d80ddcf53ecd6bcbf489b2f" target="_top" xlink:title="Test for the Conjugate Gradient method.">
<polygon fill="white" stroke="black" points="175,-475.5 175,-494.5 252,-494.5 252,-475.5 175,-475.5"/>
<text text-anchor="middle" x="213.5" y="-482.5" font-family="Helvetica,sans-Serif" font-size="10.00">TYPED_TEST</text>
</a>
</g>
</g>
<!-- Node2&#45;&gt;Node3 -->
<g id="edge2" class="edge">
<title>Node2&#45;&gt;Node3</title>
<path fill="none" stroke="midnightblue" d="M331.73,-485C304.18,-485 274.6,-485 252.05,-485"/>
<polygon fill="midnightblue" stroke="midnightblue" points="331.77,-488.5 341.77,-485 331.77,-481.5 331.77,-488.5"/>
</g>
<!-- Node4 -->
<g id="node4" class="node">
<title>Node4</title>
<g id="a_node4"><a xlink:href="../../de/db3/namespaceCompute.html#a89c7abd89e30a9e6279b5e53081b2661" target="_top" xlink:title=" ">
<polygon fill="white" stroke="black" points="121,-527.5 121,-546.5 306,-546.5 306,-527.5 121,-527.5"/>
<text text-anchor="middle" x="213.5" y="-534.5" font-family="Helvetica,sans-Serif" font-size="10.00">Compute::usingConjugateGradient</text>
</a>
</g>
</g>
<!-- Node2&#45;&gt;Node4 -->
<g id="edge3" class="edge">
<title>Node2&#45;&gt;Node4</title>
<path fill="none" stroke="midnightblue" d="M344.49,-502.69C313.03,-510.99 276.78,-520.56 250.57,-527.48"/>
<polygon fill="midnightblue" stroke="midnightblue" points="345.74,-505.98 354.52,-500.04 343.96,-499.21 345.74,-505.98"/>
</g>
<!-- Node5 -->
<g id="node5" class="node">
<title>Node5</title>
<g id="a_node5"><a xlink:href="../../d7/d1f/classOutLab10.html#a7b70a96347bc6131b594841c796a0329" target="_top" xlink:title="This function is used to perform the main computation.">
<polygon fill="white" stroke="black" points="0,-540.5 0,-559.5 85,-559.5 85,-540.5 0,-540.5"/>
<text text-anchor="middle" x="42.5" y="-547.5" font-family="Helvetica,sans-Serif" font-size="10.00">OutLab10::run</text>
</a>
</g>
</g>
<!-- Node4&#45;&gt;Node5 -->
<g id="edge4" class="edge">
<title>Node4&#45;&gt;Node5</title>
<path fill="none" stroke="midnightblue" d="M110.49,-544.85C101.63,-545.53 93.05,-546.19 85.14,-546.8"/>
<polygon fill="midnightblue" stroke="midnightblue" points="110.88,-548.33 120.58,-544.07 110.34,-541.35 110.88,-548.33"/>
</g>
<!-- Node8 -->
<g id="node8" class="node">
<title>Node8</title>
<g id="a_node8"><a xlink:href="../../de/db3/namespaceCompute.html#a3b30a49d004f8370d19cd13f6492ddba" target="_top" xlink:title="Solves a linear system using the Jacobi SOR method.">
<polygon fill="white" stroke="black" points="142,-388.5 142,-407.5 285,-407.5 285,-388.5 142,-388.5"/>
<text text-anchor="middle" x="213.5" y="-395.5" font-family="Helvetica,sans-Serif" font-size="10.00">Compute::usingJacobiSOR</text>
</a>
</g>
</g>
<!-- Node7&#45;&gt;Node8 -->
<g id="edge7" class="edge">
<title>Node7&#45;&gt;Node8</title>
<path fill="none" stroke="midnightblue" d="M341.8,-386.37C323.38,-388.05 303.49,-389.87 285.03,-391.56"/>
<polygon fill="midnightblue" stroke="midnightblue" points="342.22,-389.84 351.86,-385.45 341.58,-382.87 342.22,-389.84"/>
</g>
<!-- Node12 -->
<g id="node12" class="node">
<title>Node12</title>
<g id="a_node12"><a xlink:href="../../de/db3/namespaceCompute.html#a0aa73a107ee5ea0767e15b7caddeecc7" target="_top" xlink:title="This method applies the Point Jacobi relaxation method to the given input matrices.">
<polygon fill="white" stroke="black" points="140,-426.5 140,-445.5 287,-445.5 287,-426.5 140,-426.5"/>
<text text-anchor="middle" x="213.5" y="-433.5" font-family="Helvetica,sans-Serif" font-size="10.00">Compute::usingPointJacobi</text>
</a>
</g>
</g>
<!-- Node7&#45;&gt;Node12 -->
<g id="edge11" class="edge">
<title>Node7&#45;&gt;Node12</title>
<path fill="none" stroke="midnightblue" d="M359.89,-398.44C336.04,-406.9 311.72,-415.41 306,-417 293.34,-420.52 279.53,-423.71 266.56,-426.43"/>
<polygon fill="midnightblue" stroke="midnightblue" points="361.07,-401.74 369.32,-395.09 358.72,-395.14 361.07,-401.74"/>
</g>
<!-- Node9 -->
<g id="node9" class="node">
<title>Node9</title>
<g id="a_node9"><a xlink:href="../../d0/d4c/classOutLab6.html#a901a1283fd029c9174f8469ac5cb3ad8" target="_top" xlink:title="This function runs the computation.">
<polygon fill="white" stroke="black" points="3,-350.5 3,-369.5 82,-369.5 82,-350.5 3,-350.5"/>
<text text-anchor="middle" x="42.5" y="-357.5" font-family="Helvetica,sans-Serif" font-size="10.00">OutLab6::run</text>
</a>
</g>
</g>
<!-- Node8&#45;&gt;Node9 -->
<g id="edge8" class="edge">
<title>Node8&#45;&gt;Node9</title>
<path fill="none" stroke="midnightblue" d="M155.13,-386.42C143.8,-384.04 132.02,-381.49 121,-379 108.03,-376.06 93.89,-372.66 81.28,-369.55"/>
<polygon fill="midnightblue" stroke="midnightblue" points="154.44,-389.84 164.94,-388.46 155.87,-382.99 154.44,-389.84"/>
</g>
<!-- Node10 -->
<g id="node10" class="node">
<title>Node10</title>
<g id="a_node10"><a xlink:href="../../dd/db5/classProject2.html#a0990db917f6a27a4e1cb9ac885698524" target="_top" xlink:title="This function runs the project.">
<polygon fill="white" stroke="black" points="3.5,-388.5 3.5,-407.5 81.5,-407.5 81.5,-388.5 3.5,-388.5"/>
<text text-anchor="middle" x="42.5" y="-395.5" font-family="Helvetica,sans-Serif" font-size="10.00">Project2::run</text>
</a>
</g>
</g>
<!-- Node8&#45;&gt;Node10 -->
<g id="edge9" class="edge">
<title>Node8&#45;&gt;Node10</title>
<path fill="none" stroke="midnightblue" d="M131.59,-398C114.16,-398 96.52,-398 81.65,-398"/>
<polygon fill="midnightblue" stroke="midnightblue" points="131.81,-401.5 141.81,-398 131.81,-394.5 131.81,-401.5"/>
</g>
<!-- Node11 -->
<g id="node11" class="node">
<title>Node11</title>
<g id="a_node11"><a xlink:href="../../dd/dfb/classProject3.html#a8bcff99aaba60e7d5e5be3cb7552d163" target="_top" xlink:title="This function runs the project.">
<polygon fill="white" stroke="black" points="3.5,-312.5 3.5,-331.5 81.5,-331.5 81.5,-312.5 3.5,-312.5"/>
<text text-anchor="middle" x="42.5" y="-319.5" font-family="Helvetica,sans-Serif" font-size="10.00">Project3::run</text>
</a>
</g>
</g>
<!-- Node8&#45;&gt;Node11 -->
<g id="edge10" class="edge">
<title>Node8&#45;&gt;Node11</title>
<path fill="none" stroke="midnightblue" d="M133.64,-384.96C129.26,-383.21 125.01,-381.24 121,-379 100.68,-367.67 103.92,-354.53 85,-341 79.97,-337.4 74.16,-334.24 68.5,-331.57"/>
<polygon fill="midnightblue" stroke="midnightblue" points="132.8,-388.37 143.39,-388.41 135.14,-381.77 132.8,-388.37"/>
</g>
<!-- Node12&#45;&gt;Node9 -->
<g id="edge13" class="edge">
<title>Node12&#45;&gt;Node9</title>
<path fill="none" stroke="midnightblue" d="M133.64,-422.96C129.26,-421.21 125.01,-419.24 121,-417 100.68,-405.67 103.92,-392.53 85,-379 79.97,-375.4 74.16,-372.24 68.5,-369.57"/>
<polygon fill="midnightblue" stroke="midnightblue" points="132.8,-426.37 143.39,-426.41 135.14,-419.77 132.8,-426.37"/>
</g>
<!-- Node12&#45;&gt;Node10 -->
<g id="edge14" class="edge">
<title>Node12&#45;&gt;Node10</title>
<path fill="none" stroke="midnightblue" d="M155.13,-424.42C143.8,-422.04 132.02,-419.49 121,-417 108.03,-414.06 93.89,-410.66 81.28,-407.55"/>
<polygon fill="midnightblue" stroke="midnightblue" points="154.44,-427.84 164.94,-426.46 155.87,-420.99 154.44,-427.84"/>
</g>
<!-- Node12&#45;&gt;Node11 -->
<g id="edge15" class="edge">
<title>Node12&#45;&gt;Node11</title>
<path fill="none" stroke="midnightblue" d="M130.53,-423.25C127.18,-421.42 123.98,-419.34 121,-417 91.62,-393.89 111.6,-367.26 85,-341 81.17,-337.21 76.44,-334.1 71.57,-331.57"/>
<polygon fill="midnightblue" stroke="midnightblue" points="129.18,-426.49 139.72,-427.57 132.16,-420.15 129.18,-426.49"/>
</g>
<!-- Node13 -->
<g id="node13" class="node">
<title>Node13</title>
<g id="a_node13"><a xlink:href="../../d1/d8c/classInLab6.html#a55667f27b7ba522dd4288f18d16c9f8d" target="_top" xlink:title="This function runs the project.">
<polygon fill="white" stroke="black" points="7,-464.5 7,-483.5 78,-483.5 78,-464.5 7,-464.5"/>
<text text-anchor="middle" x="42.5" y="-471.5" font-family="Helvetica,sans-Serif" font-size="10.00">InLab6::run</text>
</a>
</g>
</g>
<!-- Node12&#45;&gt;Node13 -->
<g id="edge12" class="edge">
<title>Node12&#45;&gt;Node13</title>
<path fill="none" stroke="midnightblue" d="M159.92,-447.82C133.3,-453.81 101.72,-460.91 78.17,-466.2"/>
<polygon fill="midnightblue" stroke="midnightblue" points="160.87,-451.2 169.85,-445.59 159.33,-444.37 160.87,-451.2"/>
</g>
<!-- Node14 -->
<g id="node14" class="node">
<title>Node14</title>
<g id="a_node14"><a xlink:href="../../d2/dfd/classProject4.html#a3779e87d22c7d4949f3c01bae1d08ab9" target="_top" xlink:title="This function runs the project.">
<polygon fill="white" stroke="black" points="3.5,-426.5 3.5,-445.5 81.5,-445.5 81.5,-426.5 3.5,-426.5"/>
<text text-anchor="middle" x="42.5" y="-433.5" font-family="Helvetica,sans-Serif" font-size="10.00">Project4::run</text>
</a>
</g>
</g>
<!-- Node12&#45;&gt;Node14 -->
<g id="edge16" class="edge">
<title>Node12&#45;&gt;Node14</title>
<path fill="none" stroke="midnightblue" d="M129.46,-436C112.72,-436 95.9,-436 81.64,-436"/>
<polygon fill="midnightblue" stroke="midnightblue" points="129.85,-439.5 139.85,-436 129.85,-432.5 129.85,-439.5"/>
</g>
<!-- Node15 -->
<g id="node15" class="node">
<title>Node15</title>
<g id="a_node15"><a xlink:href="../../d5/dd8/classProject5.html#ad0d283fb148505600a22fbfef054c177" target="_top" xlink:title="This function runs the project.">
<polygon fill="white" stroke="black" points="3.5,-502.5 3.5,-521.5 81.5,-521.5 81.5,-502.5 3.5,-502.5"/>
<text text-anchor="middle" x="42.5" y="-509.5" font-family="Helvetica,sans-Serif" font-size="10.00">Project5::run</text>
</a>
</g>
</g>
<!-- Node12&#45;&gt;Node15 -->
<g id="edge17" class="edge">
<title>Node12&#45;&gt;Node15</title>
<path fill="none" stroke="midnightblue" d="M164.28,-448.57C149.95,-453.15 134.49,-458.97 121,-466 103.26,-475.24 102.19,-482.78 85,-493 79.28,-496.4 72.84,-499.62 66.78,-502.4"/>
<polygon fill="midnightblue" stroke="midnightblue" points="165.45,-451.87 173.98,-445.59 163.39,-445.18 165.45,-451.87"/>
</g>
<!-- Node18 -->
<g id="node18" class="node">
<title>Node18</title>
<g id="a_node18"><a xlink:href="../../de/db3/namespaceCompute.html#a017b511b9ab24d2388a864d6cb14c1cc" target="_top" xlink:title="Solves a linear system using the Gauss&#45;Seidel method.">
<polygon fill="white" stroke="black" points="137,-148.5 137,-167.5 290,-167.5 290,-148.5 137,-148.5"/>
<text text-anchor="middle" x="213.5" y="-155.5" font-family="Helvetica,sans-Serif" font-size="10.00">Compute::usingGaussSeidel</text>
</a>
</g>
</g>
<!-- Node17&#45;&gt;Node18 -->
<g id="edge20" class="edge">
<title>Node17&#45;&gt;Node18</title>
<path fill="none" stroke="midnightblue" d="M341.74,-178.67C319.35,-175.03 294.78,-171.04 273.26,-167.54"/>
<polygon fill="midnightblue" stroke="midnightblue" points="341.43,-182.16 351.86,-180.31 342.55,-175.25 341.43,-182.16"/>
</g>
<!-- Node19 -->
<g id="node19" class="node">
<title>Node19</title>
<g id="a_node19"><a xlink:href="../../de/db3/namespaceCompute.html#acc65d891a271875002feed91306902d0" target="_top" xlink:title="Solves a linear system using the Successive Over&#45;Relaxation (SOR) method.">
<polygon fill="white" stroke="black" points="157,-186.5 157,-205.5 270,-205.5 270,-186.5 157,-186.5"/>
<text text-anchor="middle" x="213.5" y="-193.5" font-family="Helvetica,sans-Serif" font-size="10.00">Compute::usingSOR</text>
</a>
</g>
</g>
<!-- Node17&#45;&gt;Node19 -->
<g id="edge21" class="edge">
<title>Node17&#45;&gt;Node19</title>
<path fill="none" stroke="midnightblue" d="M341.64,-192.13C318.21,-192.84 292.43,-193.63 270.24,-194.3"/>
<polygon fill="midnightblue" stroke="midnightblue" points="341.97,-195.62 351.86,-191.82 341.76,-188.62 341.97,-195.62"/>
</g>
<!-- Node21 -->
<g id="node21" class="node">
<title>Node21</title>
<g id="a_node21"><a xlink:href="../../de/db3/namespaceCompute.html#a38a211087e8692a3768fbabed21d4a0c" target="_top" xlink:title="Solves a linear system using the Gauss&#45;Seidel method.">
<polygon fill="white" stroke="black" points="137,-110.5 137,-129.5 290,-129.5 290,-110.5 137,-110.5"/>
<text text-anchor="middle" x="213.5" y="-117.5" font-family="Helvetica,sans-Serif" font-size="10.00">Compute::usingGaussSeidel</text>
</a>
</g>
</g>
<!-- Node20&#45;&gt;Node21 -->
<g id="edge23" class="edge">
<title>Node20&#45;&gt;Node21</title>
<path fill="none" stroke="midnightblue" d="M335.67,-132.92C320.7,-131.32 304.99,-129.65 290.03,-128.05"/>
<polygon fill="midnightblue" stroke="midnightblue" points="335.59,-136.43 345.9,-134.01 336.33,-129.47 335.59,-136.43"/>
</g>
<!-- Node24 -->
<g id="node24" class="node">
<title>Node24</title>
<g id="a_node24"><a xlink:href="../../de/db3/namespaceCompute.html#af9b2fed99d9965f94cb5cfab410419a0" target="_top" xlink:title="Solves a linear system using the Symmetric Gauss&#45;Seidel method.">
<polygon fill="white" stroke="black" points="125.5,-225 125.5,-255 301.5,-255 301.5,-225 125.5,-225"/>
<text text-anchor="start" x="133.5" y="-243" font-family="Helvetica,sans-Serif" font-size="10.00">Compute::usingSymmetricGauss</text>
<text text-anchor="middle" x="213.5" y="-232" font-family="Helvetica,sans-Serif" font-size="10.00">Seidel</text>
</a>
</g>
</g>
<!-- Node23&#45;&gt;Node24 -->
<g id="edge26" class="edge">
<title>Node23&#45;&gt;Node24</title>
<path fill="none" stroke="midnightblue" d="M341.87,-271.03C320.5,-265.83 297.14,-260.14 276.33,-255.06"/>
<polygon fill="midnightblue" stroke="midnightblue" points="341.31,-274.5 351.86,-273.47 342.97,-267.7 341.31,-274.5"/>
</g>
<!-- Node25 -->
<g id="node25" class="node">
<title>Node25</title>
<g id="a_node25"><a xlink:href="../../de/db3/namespaceCompute.html#ab38c6016d5c4907c1f4f468600278560" target="_top" xlink:title="Solves a linear system using the Symmetric SOR method.">
<polygon fill="white" stroke="black" points="130,-274.5 130,-293.5 297,-293.5 297,-274.5 130,-274.5"/>
<text text-anchor="middle" x="213.5" y="-281.5" font-family="Helvetica,sans-Serif" font-size="10.00">Compute::usingSymmetricSOR</text>
</a>
</g>
</g>
<!-- Node23&#45;&gt;Node25 -->
<g id="edge28" class="edge">
<title>Node23&#45;&gt;Node25</title>
<path fill="none" stroke="midnightblue" d="M341.58,-286.58C327.21,-286.29 311.96,-285.98 297.2,-285.68"/>
<polygon fill="midnightblue" stroke="midnightblue" points="341.79,-290.09 351.86,-286.79 341.93,-283.09 341.79,-290.09"/>
</g>
<!-- Node24&#45;&gt;Node11 -->
<g id="edge27" class="edge">
<title>Node24&#45;&gt;Node11</title>
<path fill="none" stroke="midnightblue" d="M136.37,-258.45C131.08,-260.45 125.91,-262.63 121,-265 94.84,-277.65 68.44,-299.44 54.21,-312.1"/>
<polygon fill="midnightblue" stroke="midnightblue" points="137.7,-261.69 145.96,-255.06 135.37,-255.09 137.7,-261.69"/>
</g>
<!-- Node27 -->
<g id="node27" class="node">
<title>Node27</title>
<g id="a_node27"><a xlink:href="../../d0/d4c/classOutLab6.html#a770effb030dbdb45bcecb764ed75d455" target="_top" xlink:title="This function prints the results of the computation.">
<polygon fill="white" stroke="black" points="152.5,-312.5 152.5,-331.5 274.5,-331.5 274.5,-312.5 152.5,-312.5"/>
<text text-anchor="middle" x="213.5" y="-319.5" font-family="Helvetica,sans-Serif" font-size="10.00">OutLab6::printResults</text>
</a>
</g>
</g>
<!-- Node26&#45;&gt;Node27 -->
<g id="edge30" class="edge">
<title>Node26&#45;&gt;Node27</title>
<path fill="none" stroke="midnightblue" d="M335.27,-328.13C315.12,-327.11 293.66,-326.02 274.5,-325.05"/>
<polygon fill="midnightblue" stroke="midnightblue" points="335.19,-331.63 345.35,-328.64 335.54,-324.64 335.19,-331.63"/>
</g>
<!-- Node28 -->
<g id="node28" class="node">
<title>Node28</title>
<g id="a_node28"><a xlink:href="../../df/df1/structOutput.html#a0412b8fd27d6e91551671da11cd8fe93" target="_top" xlink:title="Converts the output parameters to a JSON object.">
<polygon fill="white" stroke="black" points="169,-350.5 169,-369.5 258,-369.5 258,-350.5 169,-350.5"/>
<text text-anchor="middle" x="213.5" y="-357.5" font-family="Helvetica,sans-Serif" font-size="10.00">Output::toJSON</text>
</a>
</g>
</g>
<!-- Node26&#45;&gt;Node28 -->
<g id="edge32" class="edge">
<title>Node26&#45;&gt;Node28</title>
<path fill="none" stroke="midnightblue" d="M335.45,-342.81C309.28,-346.53 280.87,-350.57 258.17,-353.79"/>
<polygon fill="midnightblue" stroke="midnightblue" points="335.95,-346.27 345.35,-341.4 334.96,-339.34 335.95,-346.27"/>
</g>
<!-- Node27&#45;&gt;Node9 -->
<g id="edge31" class="edge">
<title>Node27&#45;&gt;Node9</title>
<path fill="none" stroke="midnightblue" d="M155.13,-333.58C143.8,-335.96 132.02,-338.51 121,-341 108.03,-343.94 93.89,-347.34 81.28,-350.45"/>
<polygon fill="midnightblue" stroke="midnightblue" points="155.87,-337.01 164.94,-331.54 154.44,-330.16 155.87,-337.01"/>
</g>
</g>
</svg>
