<?xml version="1.0" encoding="UTF-8" standalone="no"?>
<!DOCTYPE svg PUBLIC "-//W3C//DTD SVG 1.1//EN"
 "http://www.w3.org/Graphics/SVG/1.1/DTD/svg11.dtd">
<!-- Generated by graphviz version 2.43.0 (0)
 -->
<!-- Title: MyBLAS::abs Pages: 1 -->
<svg width="788pt" height="748pt"
 viewBox="0.00 0.00 788.00 748.00" xmlns="http://www.w3.org/2000/svg" xmlns:xlink="http://www.w3.org/1999/xlink">
<g id="graph0" class="graph" transform="scale(1 1) rotate(0) translate(4 744)">
<title>MyBLAS::abs</title>
<polygon fill="white" stroke="transparent" points="-4,4 -4,-744 784,-744 784,4 -4,4"/>
<!-- Node1 -->
<g id="node1" class="node">
<title>Node1</title>
<g id="a_node1"><a xlink:title="Calculates the absolute value of the vector.">
<polygon fill="#bfbfbf" stroke="black" points="700,-354.5 700,-373.5 780,-373.5 780,-354.5 700,-354.5"/>
<text text-anchor="middle" x="740" y="-361.5" font-family="Helvetica,sans-Serif" font-size="10.00">MyBLAS::abs</text>
</a>
</g>
</g>
<!-- Node2 -->
<g id="node2" class="node">
<title>Node2</title>
<g id="a_node2"><a xlink:href="../../d2/d6e/namespaceMyBLAS.html#ad38fb7c86134c4334e6bf29c2c734afd" target="_top" xlink:title="Calculates the absolute maximum residual between two containers.">
<polygon fill="white" stroke="black" points="482,-720.5 482,-739.5 651,-739.5 651,-720.5 482,-720.5"/>
<text text-anchor="middle" x="566.5" y="-727.5" font-family="Helvetica,sans-Serif" font-size="10.00">MyBLAS::AbsoluteMaxResidual</text>
</a>
</g>
</g>
<!-- Node1&#45;&gt;Node2 -->
<g id="edge1" class="edge">
<title>Node1&#45;&gt;Node2</title>
<path fill="none" stroke="midnightblue" d="M737.52,-383.78C732.15,-450.33 711.4,-664.47 664,-711 660.22,-714.71 655.95,-717.8 651.34,-720.36"/>
<polygon fill="midnightblue" stroke="midnightblue" points="741.02,-384.02 738.3,-373.78 734.04,-383.48 741.02,-384.02"/>
</g>
<!-- Node3 -->
<g id="node3" class="node">
<title>Node3</title>
<g id="a_node3"><a xlink:href="../../d0/d7d/CheckBounds_8h.html#abce8de40b5bce1a6097233d800370ffd" target="_top" xlink:title="Checks if the absolute value of the input is greater than or equal to 1.">
<polygon fill="white" stroke="black" points="494.5,-671 494.5,-701 638.5,-701 638.5,-671 494.5,-671"/>
<text text-anchor="start" x="502.5" y="-689" font-family="Helvetica,sans-Serif" font-size="10.00">absoluteValueFailsGreater</text>
<text text-anchor="middle" x="566.5" y="-678" font-family="Helvetica,sans-Serif" font-size="10.00">Than1Check</text>
</a>
</g>
</g>
<!-- Node1&#45;&gt;Node3 -->
<g id="edge2" class="edge">
<title>Node1&#45;&gt;Node3</title>
<path fill="none" stroke="midnightblue" d="M736.44,-383.85C728.43,-442.9 702.13,-615.91 664,-656 656.99,-663.37 648.2,-668.94 638.8,-673.15"/>
<polygon fill="midnightblue" stroke="midnightblue" points="739.95,-384 737.79,-373.63 733.01,-383.08 739.95,-384"/>
</g>
<!-- Node5 -->
<g id="node5" class="node">
<title>Node5</title>
<g id="a_node5"><a xlink:href="../../d6/d82/labs_2outlab5_2Compute_8h.html#a42561c10d9c1157e9f1dcd9e940061a2" target="_top" xlink:title="Performs Doolittle&#39;s LU factorization with partial pivoting on a given matrix.">
<polygon fill="white" stroke="black" points="505.5,-594.5 505.5,-613.5 627.5,-613.5 627.5,-594.5 505.5,-594.5"/>
<text text-anchor="middle" x="566.5" y="-601.5" font-family="Helvetica,sans-Serif" font-size="10.00">dooLittleFactorizeLUP</text>
</a>
</g>
</g>
<!-- Node1&#45;&gt;Node5 -->
<g id="edge4" class="edge">
<title>Node1&#45;&gt;Node5</title>
<path fill="none" stroke="midnightblue" d="M738.53,-383.96C736.36,-427.6 724.73,-531.84 664,-585 653.85,-593.88 640.77,-599.1 627.55,-602.05"/>
<polygon fill="midnightblue" stroke="midnightblue" points="742.04,-383.92 738.91,-373.79 735.04,-383.65 742.04,-383.92"/>
</g>
<!-- Node6 -->
<g id="node6" class="node">
<title>Node6</title>
<g id="a_node6"><a xlink:href="../../d3/d1d/classOutLab5.html#aa1d5363426e0ce8f620d47c1b2aa2260" target="_top" xlink:title="This function runs the project.">
<polygon fill="white" stroke="black" points="308.5,-594.5 308.5,-613.5 387.5,-613.5 387.5,-594.5 308.5,-594.5"/>
<text text-anchor="middle" x="348" y="-601.5" font-family="Helvetica,sans-Serif" font-size="10.00">OutLab5::run</text>
</a>
</g>
</g>
<!-- Node1&#45;&gt;Node6 -->
<g id="edge31" class="edge">
<title>Node1&#45;&gt;Node6</title>
<path fill="none" stroke="midnightblue" d="M736.36,-383.57C728.48,-438.75 703.21,-593.53 664,-623 573.78,-690.8 424.79,-637.18 370.03,-613.65"/>
<polygon fill="midnightblue" stroke="midnightblue" points="739.83,-384.04 737.74,-373.65 732.9,-383.07 739.83,-384.04"/>
</g>
<!-- Node7 -->
<g id="node7" class="node">
<title>Node7</title>
<g id="a_node7"><a xlink:href="../../d5/db6/namespaceMyBLAS_1_1LUP.html#ab15d6938948c050657f9870aeec47097" target="_top" xlink:title="Performs Doolittle&#39;s LU factorization with partial pivoting on a given matrix.">
<polygon fill="white" stroke="black" points="470,-518.5 470,-537.5 663,-537.5 663,-518.5 470,-518.5"/>
<text text-anchor="middle" x="566.5" y="-525.5" font-family="Helvetica,sans-Serif" font-size="10.00">MyBLAS::LUP::dooLittleFactorizeLUP</text>
</a>
</g>
</g>
<!-- Node1&#45;&gt;Node7 -->
<g id="edge6" class="edge">
<title>Node1&#45;&gt;Node7</title>
<path fill="none" stroke="midnightblue" d="M734.09,-383.42C725.35,-413.92 704.12,-472.78 664,-504 655.96,-510.26 646.5,-514.9 636.71,-518.35"/>
<polygon fill="midnightblue" stroke="midnightblue" points="737.52,-384.14 736.76,-373.57 730.77,-382.31 737.52,-384.14"/>
</g>
<!-- Node13 -->
<g id="node13" class="node">
<title>Node13</title>
<g id="a_node13"><a xlink:href="../../d8/ddb/classProject1.html#ac7f0febb9852a9871ac5209b58506fb1" target="_top" xlink:title="This function runs the project.">
<polygon fill="white" stroke="black" points="0.5,-502.5 0.5,-521.5 78.5,-521.5 78.5,-502.5 0.5,-502.5"/>
<text text-anchor="middle" x="39.5" y="-509.5" font-family="Helvetica,sans-Serif" font-size="10.00">Project1::run</text>
</a>
</g>
</g>
<!-- Node1&#45;&gt;Node13 -->
<g id="edge32" class="edge">
<title>Node1&#45;&gt;Node13</title>
<path fill="none" stroke="midnightblue" d="M730.68,-383.04C719.34,-406.42 696.63,-445.16 664,-463 612.68,-491.07 205.93,-506.6 78.52,-510.82"/>
<polygon fill="midnightblue" stroke="midnightblue" points="733.94,-384.33 734.96,-373.79 727.59,-381.39 733.94,-384.33"/>
</g>
<!-- Node14 -->
<g id="node14" class="node">
<title>Node14</title>
<g id="a_node14"><a xlink:href="../../dd/db5/classProject2.html#ae3fb99498f7859230efae48b2915a8cb" target="_top" xlink:title="This function runs the project.">
<polygon fill="white" stroke="black" points="0.5,-464.5 0.5,-483.5 78.5,-483.5 78.5,-464.5 0.5,-464.5"/>
<text text-anchor="middle" x="39.5" y="-471.5" font-family="Helvetica,sans-Serif" font-size="10.00">Project2::run</text>
</a>
</g>
</g>
<!-- Node1&#45;&gt;Node14 -->
<g id="edge33" class="edge">
<title>Node1&#45;&gt;Node14</title>
<path fill="none" stroke="midnightblue" d="M725.84,-381.63C712.35,-398.17 689.76,-421.97 664,-433 557.93,-478.44 197.54,-476.67 78.79,-474.78"/>
<polygon fill="midnightblue" stroke="midnightblue" points="728.61,-383.78 732.03,-373.75 723.1,-379.45 728.61,-383.78"/>
</g>
<!-- Node15 -->
<g id="node15" class="node">
<title>Node15</title>
<g id="a_node15"><a xlink:href="../../d6/d82/labs_2outlab5_2Compute_8h.html#a06469338a0b66fbb6224d51ec170b8ad" target="_top" xlink:title="Performs LU factorization with partial pivoting on a given matrix.">
<polygon fill="white" stroke="black" points="484.5,-556.5 484.5,-575.5 648.5,-575.5 648.5,-556.5 484.5,-556.5"/>
<text text-anchor="middle" x="566.5" y="-563.5" font-family="Helvetica,sans-Serif" font-size="10.00">factorizeLUwithPartialPivoting</text>
</a>
</g>
</g>
<!-- Node1&#45;&gt;Node15 -->
<g id="edge14" class="edge">
<title>Node1&#45;&gt;Node15</title>
<path fill="none" stroke="midnightblue" d="M736.91,-384.13C731.83,-422.25 715.2,-504.91 664,-547 659.38,-550.8 654.23,-553.91 648.76,-556.45"/>
<polygon fill="midnightblue" stroke="midnightblue" points="740.43,-384.17 738.14,-373.82 733.48,-383.34 740.43,-384.17"/>
</g>
<!-- Node16 -->
<g id="node16" class="node">
<title>Node16</title>
<g id="a_node16"><a xlink:href="../../d5/db6/namespaceMyBLAS_1_1LUP.html#a9cf8ce4912ef5a8436e173e249b64286" target="_top" xlink:title="Performs LU factorization with partial pivoting on a given matrix.">
<polygon fill="white" stroke="black" points="484.5,-393 484.5,-423 648.5,-423 648.5,-393 484.5,-393"/>
<text text-anchor="start" x="492.5" y="-411" font-family="Helvetica,sans-Serif" font-size="10.00">MyBLAS::LUP::factorizeLUwith</text>
<text text-anchor="middle" x="566.5" y="-400" font-family="Helvetica,sans-Serif" font-size="10.00">PartialPivoting</text>
</a>
</g>
</g>
<!-- Node1&#45;&gt;Node16 -->
<g id="edge16" class="edge">
<title>Node1&#45;&gt;Node16</title>
<path fill="none" stroke="midnightblue" d="M691.85,-376.1C671.56,-381.3 647.64,-387.44 626.22,-392.93"/>
<polygon fill="midnightblue" stroke="midnightblue" points="692.97,-379.42 701.79,-373.55 691.23,-372.64 692.97,-379.42"/>
</g>
<!-- Node17 -->
<g id="node17" class="node">
<title>Node17</title>
<g id="a_node17"><a xlink:href="../../df/df1/structOutput.html#ae704800decdb8ea025e434e5d8ee2765" target="_top" xlink:title="Calculates the maximum residual of the solution.">
<polygon fill="white" stroke="black" points="499.5,-354.5 499.5,-373.5 633.5,-373.5 633.5,-354.5 499.5,-354.5"/>
<text text-anchor="middle" x="566.5" y="-361.5" font-family="Helvetica,sans-Serif" font-size="10.00">Output::getMaxResidual</text>
</a>
</g>
</g>
<!-- Node1&#45;&gt;Node17 -->
<g id="edge17" class="edge">
<title>Node1&#45;&gt;Node17</title>
<path fill="none" stroke="midnightblue" d="M689.18,-364C671.81,-364 652.04,-364 633.56,-364"/>
<polygon fill="midnightblue" stroke="midnightblue" points="689.65,-367.5 699.65,-364 689.65,-360.5 689.65,-367.5"/>
</g>
<!-- Node20 -->
<g id="node20" class="node">
<title>Node20</title>
<g id="a_node20"><a xlink:href="../../df/df1/structOutput.html#a0412b8fd27d6e91551671da11cd8fe93" target="_top" xlink:title="Converts the output parameters to a JSON object.">
<polygon fill="white" stroke="black" points="303.5,-316.5 303.5,-335.5 392.5,-335.5 392.5,-316.5 303.5,-316.5"/>
<text text-anchor="middle" x="348" y="-323.5" font-family="Helvetica,sans-Serif" font-size="10.00">Output::toJSON</text>
</a>
</g>
</g>
<!-- Node1&#45;&gt;Node20 -->
<g id="edge35" class="edge">
<title>Node1&#45;&gt;Node20</title>
<path fill="none" stroke="midnightblue" d="M696.88,-351.85C686.23,-349.19 674.76,-346.67 664,-345 567.91,-330.07 453.63,-326.71 392.59,-326.05"/>
<polygon fill="midnightblue" stroke="midnightblue" points="696.23,-355.3 706.79,-354.43 697.99,-348.53 696.23,-355.3"/>
</g>
<!-- Node21 -->
<g id="node21" class="node">
<title>Node21</title>
<g id="a_node21"><a xlink:href="../../de/d83/structMyLinearSolvingMethod_1_1Solution.html#a935d299aeab719ef51430e7959e2e826" target="_top" xlink:title=" ">
<polygon fill="white" stroke="black" points="493,-267 493,-297 640,-297 640,-267 493,-267"/>
<text text-anchor="start" x="501" y="-285" font-family="Helvetica,sans-Serif" font-size="10.00">MyLinearSolvingMethod</text>
<text text-anchor="middle" x="566.5" y="-274" font-family="Helvetica,sans-Serif" font-size="10.00">::Solution::getMaxResidual</text>
</a>
</g>
</g>
<!-- Node1&#45;&gt;Node21 -->
<g id="edge21" class="edge">
<title>Node1&#45;&gt;Node21</title>
<path fill="none" stroke="midnightblue" d="M719.28,-347.82C704.73,-336.53 684.05,-321.78 664,-312 652.09,-306.19 638.82,-301.2 626.01,-297.05"/>
<polygon fill="midnightblue" stroke="midnightblue" points="717.48,-350.86 727.49,-354.34 721.83,-345.38 717.48,-350.86"/>
</g>
<!-- Node22 -->
<g id="node22" class="node">
<title>Node22</title>
<g id="a_node22"><a xlink:href="../../d2/d6e/namespaceMyBLAS.html#a95a31a537601936a645cd405411f3732" target="_top" xlink:title="Makes the given matrix diagonally dominant.">
<polygon fill="white" stroke="black" points="471,-228.5 471,-247.5 662,-247.5 662,-228.5 471,-228.5"/>
<text text-anchor="middle" x="566.5" y="-235.5" font-family="Helvetica,sans-Serif" font-size="10.00">MyBLAS::makeDiagonallyDominant</text>
</a>
</g>
</g>
<!-- Node1&#45;&gt;Node22 -->
<g id="edge22" class="edge">
<title>Node1&#45;&gt;Node22</title>
<path fill="none" stroke="midnightblue" d="M730.97,-345.01C719.7,-320.79 696.84,-279.5 664,-258 657.42,-253.69 650.08,-250.28 642.48,-247.59"/>
<polygon fill="midnightblue" stroke="midnightblue" points="727.81,-346.52 735.08,-354.23 734.21,-343.67 727.81,-346.52"/>
</g>
<!-- Node25 -->
<g id="node25" class="node">
<title>Node25</title>
<g id="a_node25"><a xlink:href="../../d7/d64/labs_2inlab1_2Compute_8h.html#a36cda562827f6a51f45b57740f8ea850" target="_top" xlink:title="Function to compute sine using a recursive, iterative taylor series discretization approach.">
<polygon fill="white" stroke="black" points="528,-152.5 528,-171.5 605,-171.5 605,-152.5 528,-152.5"/>
<text text-anchor="middle" x="566.5" y="-159.5" font-family="Helvetica,sans-Serif" font-size="10.00">my_sisd_sin</text>
</a>
</g>
</g>
<!-- Node1&#45;&gt;Node25 -->
<g id="edge25" class="edge">
<title>Node1&#45;&gt;Node25</title>
<path fill="none" stroke="midnightblue" d="M736.46,-344.11C730.67,-307.16 712.95,-227.89 664,-186 647.74,-172.08 624.59,-166.01 605.04,-163.46"/>
<polygon fill="midnightblue" stroke="midnightblue" points="733.02,-344.73 737.9,-354.13 739.95,-343.73 733.02,-344.73"/>
</g>
<!-- Node27 -->
<g id="node27" class="node">
<title>Node27</title>
<g id="a_node27"><a xlink:href="../../dd/d40/classInLab1.html#a4e079d8eddd4a202eb5a0373d8fb8ab7" target="_top" xlink:title="Executes the project.">
<polygon fill="white" stroke="black" points="135.5,-171.5 135.5,-190.5 206.5,-190.5 206.5,-171.5 135.5,-171.5"/>
<text text-anchor="middle" x="171" y="-178.5" font-family="Helvetica,sans-Serif" font-size="10.00">InLab1::run</text>
</a>
</g>
</g>
<!-- Node1&#45;&gt;Node27 -->
<g id="edge34" class="edge">
<title>Node1&#45;&gt;Node27</title>
<path fill="none" stroke="midnightblue" d="M735.21,-344.44C727.82,-312.12 708.17,-248.27 664,-219 626.06,-193.86 312.1,-184.27 206.5,-181.74"/>
<polygon fill="midnightblue" stroke="midnightblue" points="731.84,-345.39 737.34,-354.44 738.69,-343.93 731.84,-345.39"/>
</g>
<!-- Node28 -->
<g id="node28" class="node">
<title>Node28</title>
<g id="a_node28"><a xlink:href="../../d6/d82/labs_2outlab5_2Compute_8h.html#a4af95e0f3db41e42885c47e81a6aecd8" target="_top" xlink:title="Performs recursive LU factorization with partial pivoting on a given matrix.">
<polygon fill="white" stroke="black" points="504.5,-114.5 504.5,-133.5 628.5,-133.5 628.5,-114.5 504.5,-114.5"/>
<text text-anchor="middle" x="566.5" y="-121.5" font-family="Helvetica,sans-Serif" font-size="10.00">recursiveFactorizeLUP</text>
</a>
</g>
</g>
<!-- Node1&#45;&gt;Node28 -->
<g id="edge28" class="edge">
<title>Node1&#45;&gt;Node28</title>
<path fill="none" stroke="midnightblue" d="M738.53,-344.04C736.36,-300.4 724.73,-196.16 664,-143 654.11,-134.34 641.43,-129.17 628.55,-126.18"/>
<polygon fill="midnightblue" stroke="midnightblue" points="735.04,-344.35 738.91,-354.21 742.04,-344.08 735.04,-344.35"/>
</g>
<!-- Node29 -->
<g id="node29" class="node">
<title>Node29</title>
<g id="a_node29"><a xlink:href="../../d5/db6/namespaceMyBLAS_1_1LUP.html#a3aae3c4e098a271220214ee7b0f9a695" target="_top" xlink:title="Performs recursive LU factorization with partial pivoting on a given matrix.">
<polygon fill="white" stroke="black" points="469,-76.5 469,-95.5 664,-95.5 664,-76.5 469,-76.5"/>
<text text-anchor="middle" x="566.5" y="-83.5" font-family="Helvetica,sans-Serif" font-size="10.00">MyBLAS::LUP::recursiveFactorizeLUP</text>
</a>
</g>
</g>
<!-- Node1&#45;&gt;Node29 -->
<g id="edge29" class="edge">
<title>Node1&#45;&gt;Node29</title>
<path fill="none" stroke="midnightblue" d="M739.69,-344.36C740.24,-295.84 734.46,-169.55 664,-105 659.97,-101.31 655.44,-98.24 650.6,-95.71"/>
<polygon fill="midnightblue" stroke="midnightblue" points="736.19,-344.39 739.46,-354.46 743.19,-344.54 736.19,-344.39"/>
</g>
<!-- Node30 -->
<g id="node30" class="node">
<title>Node30</title>
<g id="a_node30"><a xlink:href="../../d8/d5b/classOutLab4.html#af3d8d1b60ac7a85a1aabf6a3d511ecce" target="_top" xlink:title="This function runs the project.">
<polygon fill="white" stroke="black" points="527,-38.5 527,-57.5 606,-57.5 606,-38.5 527,-38.5"/>
<text text-anchor="middle" x="566.5" y="-45.5" font-family="Helvetica,sans-Serif" font-size="10.00">OutLab4::run</text>
</a>
</g>
</g>
<!-- Node1&#45;&gt;Node30 -->
<g id="edge30" class="edge">
<title>Node1&#45;&gt;Node30</title>
<path fill="none" stroke="midnightblue" d="M736.77,-344.4C729.57,-284.55 704.96,-105.85 664,-67 648.76,-52.55 625.89,-47.6 606.24,-46.35"/>
<polygon fill="midnightblue" stroke="midnightblue" points="733.31,-344.9 737.95,-354.42 740.26,-344.08 733.31,-344.9"/>
</g>
<!-- Node31 -->
<g id="node31" class="node">
<title>Node31</title>
<g id="a_node31"><a xlink:href="../../da/db0/namespaceRootFinder.html#ab4debb5ce3425fb3d5983d2b63688d87" target="_top" xlink:title="Finds the root of a given function using the Newton&#45;Raphson method.">
<polygon fill="white" stroke="black" points="476,-0.5 476,-19.5 657,-19.5 657,-0.5 476,-0.5"/>
<text text-anchor="middle" x="566.5" y="-7.5" font-family="Helvetica,sans-Serif" font-size="10.00">RootFinder::usingNewtonRaphson</text>
</a>
</g>
</g>
<!-- Node1&#45;&gt;Node31 -->
<g id="edge36" class="edge">
<title>Node1&#45;&gt;Node31</title>
<path fill="none" stroke="midnightblue" d="M737.34,-344.06C731.52,-278.87 709.8,-73.63 664,-29 660.21,-25.31 655.92,-22.23 651.31,-19.67"/>
<polygon fill="midnightblue" stroke="midnightblue" points="733.87,-344.57 738.22,-354.23 740.85,-343.96 733.87,-344.57"/>
</g>
<!-- Node4 -->
<g id="node4" class="node">
<title>Node4</title>
<g id="a_node4"><a xlink:href="../../d0/d40/classParser.html#ab198abe8fec39f369ea744358666859c" target="_top" xlink:title="Performs input checks on the input variables.">
<polygon fill="white" stroke="black" points="263,-671 263,-701 433,-701 433,-671 263,-671"/>
<text text-anchor="start" x="271" y="-689" font-family="Helvetica,sans-Serif" font-size="10.00">Parser::performInputArguments</text>
<text text-anchor="middle" x="348" y="-678" font-family="Helvetica,sans-Serif" font-size="10.00">Check</text>
</a>
</g>
</g>
<!-- Node3&#45;&gt;Node4 -->
<g id="edge3" class="edge">
<title>Node3&#45;&gt;Node4</title>
<path fill="none" stroke="midnightblue" d="M484.06,-686C467.38,-686 449.8,-686 433.03,-686"/>
<polygon fill="midnightblue" stroke="midnightblue" points="484.31,-689.5 494.31,-686 484.31,-682.5 484.31,-689.5"/>
</g>
<!-- Node5&#45;&gt;Node6 -->
<g id="edge5" class="edge">
<title>Node5&#45;&gt;Node6</title>
<path fill="none" stroke="midnightblue" d="M495.11,-604C459.4,-604 417.41,-604 387.63,-604"/>
<polygon fill="midnightblue" stroke="midnightblue" points="495.48,-607.5 505.48,-604 495.48,-600.5 495.48,-607.5"/>
</g>
<!-- Node8 -->
<g id="node8" class="node">
<title>Node8</title>
<g id="a_node8"><a xlink:href="../../d5/db6/namespaceMyBLAS_1_1LUP.html#a2f715f34052a24e79c500e89995fe5d3" target="_top" xlink:title="This function solves a system of linear equations Ax = b using LU factorization with partial pivoting...">
<polygon fill="white" stroke="black" points="281,-556.5 281,-575.5 415,-575.5 415,-556.5 281,-556.5"/>
<text text-anchor="middle" x="348" y="-563.5" font-family="Helvetica,sans-Serif" font-size="10.00">MyBLAS::LUP::applyLUP</text>
</a>
</g>
</g>
<!-- Node7&#45;&gt;Node8 -->
<g id="edge7" class="edge">
<title>Node7&#45;&gt;Node8</title>
<path fill="none" stroke="midnightblue" d="M501.26,-539.28C470.11,-544.74 433.1,-551.24 403.38,-556.46"/>
<polygon fill="midnightblue" stroke="midnightblue" points="501.9,-542.72 511.15,-537.54 500.69,-535.82 501.9,-542.72"/>
</g>
<!-- Node11 -->
<g id="node11" class="node">
<title>Node11</title>
<g id="a_node11"><a xlink:href="../../d5/db6/namespaceMyBLAS_1_1LUP.html#aadc5106a411767f67e83cd6b62cabbce" target="_top" xlink:title="This function performs LU factorization on a given matrix A and stores the results in matrices L and ...">
<polygon fill="white" stroke="black" points="282.5,-518.5 282.5,-537.5 413.5,-537.5 413.5,-518.5 282.5,-518.5"/>
<text text-anchor="middle" x="348" y="-525.5" font-family="Helvetica,sans-Serif" font-size="10.00">MyBLAS::LUP::factorize</text>
</a>
</g>
</g>
<!-- Node7&#45;&gt;Node11 -->
<g id="edge10" class="edge">
<title>Node7&#45;&gt;Node11</title>
<path fill="none" stroke="midnightblue" d="M459.61,-528C443.91,-528 428.14,-528 413.63,-528"/>
<polygon fill="midnightblue" stroke="midnightblue" points="459.91,-531.5 469.91,-528 459.91,-524.5 459.91,-531.5"/>
</g>
<!-- Node9 -->
<g id="node9" class="node">
<title>Node9</title>
<g id="a_node9"><a xlink:href="../../de/db3/namespaceCompute.html#a9aaa2e3c1db51432d5a62c1d4541fd90" target="_top" xlink:title="Solves a linear system using LUP decomposition.">
<polygon fill="white" stroke="black" points="115,-568.5 115,-587.5 227,-587.5 227,-568.5 115,-568.5"/>
<text text-anchor="middle" x="171" y="-575.5" font-family="Helvetica,sans-Serif" font-size="10.00">Compute::usingLUP</text>
</a>
</g>
</g>
<!-- Node8&#45;&gt;Node9 -->
<g id="edge8" class="edge">
<title>Node8&#45;&gt;Node9</title>
<path fill="none" stroke="midnightblue" d="M270.77,-571.23C256.09,-572.23 240.98,-573.27 227.13,-574.22"/>
<polygon fill="midnightblue" stroke="midnightblue" points="271.1,-574.71 280.84,-570.54 270.62,-567.73 271.1,-574.71"/>
</g>
<!-- Node10 -->
<g id="node10" class="node">
<title>Node10</title>
<g id="a_node10"><a xlink:href="../../d0/d4c/classOutLab6.html#a7f817fd9bedd2b88e683e2514d386c8c" target="_top" xlink:title="This function runs the computation.">
<polygon fill="white" stroke="black" points="0,-568.5 0,-587.5 79,-587.5 79,-568.5 0,-568.5"/>
<text text-anchor="middle" x="39.5" y="-575.5" font-family="Helvetica,sans-Serif" font-size="10.00">OutLab6::run</text>
</a>
</g>
</g>
<!-- Node9&#45;&gt;Node10 -->
<g id="edge9" class="edge">
<title>Node9&#45;&gt;Node10</title>
<path fill="none" stroke="midnightblue" d="M104.54,-578C95.87,-578 87.2,-578 79.18,-578"/>
<polygon fill="midnightblue" stroke="midnightblue" points="104.7,-581.5 114.7,-578 104.7,-574.5 104.7,-581.5"/>
</g>
<!-- Node12 -->
<g id="node12" class="node">
<title>Node12</title>
<g id="a_node12"><a xlink:href="../../d7/da1/project_2project1_2Compute_8h.html#acddcb7395a0d22a81020f268fd96918a" target="_top" xlink:title="Solves the linear system.">
<polygon fill="white" stroke="black" points="117,-519 117,-549 225,-549 225,-519 117,-519"/>
<text text-anchor="start" x="125" y="-537" font-family="Helvetica,sans-Serif" font-size="10.00">naive_solve_linear</text>
<text text-anchor="middle" x="171" y="-526" font-family="Helvetica,sans-Serif" font-size="10.00">_system</text>
</a>
</g>
</g>
<!-- Node11&#45;&gt;Node12 -->
<g id="edge11" class="edge">
<title>Node11&#45;&gt;Node12</title>
<path fill="none" stroke="midnightblue" d="M272.08,-530.57C256.32,-531.11 240,-531.67 225.24,-532.17"/>
<polygon fill="midnightblue" stroke="midnightblue" points="272.46,-534.06 282.33,-530.22 272.22,-527.06 272.46,-534.06"/>
</g>
<!-- Node12&#45;&gt;Node13 -->
<g id="edge12" class="edge">
<title>Node12&#45;&gt;Node13</title>
<path fill="none" stroke="midnightblue" d="M106.92,-523.28C97.24,-521.64 87.52,-519.99 78.6,-518.47"/>
<polygon fill="midnightblue" stroke="midnightblue" points="106.51,-526.76 116.95,-524.99 107.68,-519.86 106.51,-526.76"/>
</g>
<!-- Node12&#45;&gt;Node14 -->
<g id="edge13" class="edge">
<title>Node12&#45;&gt;Node14</title>
<path fill="none" stroke="midnightblue" d="M128,-514.54C105.56,-504.15 78.96,-491.82 61.02,-483.51"/>
<polygon fill="midnightblue" stroke="midnightblue" points="126.78,-517.83 137.32,-518.86 129.72,-511.48 126.78,-517.83"/>
</g>
<!-- Node15&#45;&gt;Node6 -->
<g id="edge15" class="edge">
<title>Node15&#45;&gt;Node6</title>
<path fill="none" stroke="midnightblue" d="M500.98,-577.32C464.11,-583.8 419.1,-591.7 387.67,-597.21"/>
<polygon fill="midnightblue" stroke="midnightblue" points="501.9,-580.72 511.15,-575.54 500.69,-573.82 501.9,-580.72"/>
</g>
<!-- Node18 -->
<g id="node18" class="node">
<title>Node18</title>
<g id="a_node18"><a xlink:href="../../d1/d8c/classInLab6.html#af49f9da28a843417e9144f047689eecb" target="_top" xlink:title="This function prints the results of the computation.">
<polygon fill="white" stroke="black" points="291.5,-354.5 291.5,-373.5 404.5,-373.5 404.5,-354.5 291.5,-354.5"/>
<text text-anchor="middle" x="348" y="-361.5" font-family="Helvetica,sans-Serif" font-size="10.00">InLab6::printResults</text>
</a>
</g>
</g>
<!-- Node17&#45;&gt;Node18 -->
<g id="edge18" class="edge">
<title>Node17&#45;&gt;Node18</title>
<path fill="none" stroke="midnightblue" d="M489.24,-364C461.32,-364 430.29,-364 404.53,-364"/>
<polygon fill="midnightblue" stroke="midnightblue" points="489.37,-367.5 499.37,-364 489.37,-360.5 489.37,-367.5"/>
</g>
<!-- Node17&#45;&gt;Node20 -->
<g id="edge20" class="edge">
<title>Node17&#45;&gt;Node20</title>
<path fill="none" stroke="midnightblue" d="M501.04,-352.69C466.13,-346.56 423.91,-339.15 392.83,-333.69"/>
<polygon fill="midnightblue" stroke="midnightblue" points="500.69,-356.18 511.15,-354.46 501.9,-349.28 500.69,-356.18"/>
</g>
<!-- Node19 -->
<g id="node19" class="node">
<title>Node19</title>
<g id="a_node19"><a xlink:href="../../d1/d8c/classInLab6.html#a55667f27b7ba522dd4288f18d16c9f8d" target="_top" xlink:title="This function runs the project.">
<polygon fill="white" stroke="black" points="135.5,-354.5 135.5,-373.5 206.5,-373.5 206.5,-354.5 135.5,-354.5"/>
<text text-anchor="middle" x="171" y="-361.5" font-family="Helvetica,sans-Serif" font-size="10.00">InLab6::run</text>
</a>
</g>
</g>
<!-- Node18&#45;&gt;Node19 -->
<g id="edge19" class="edge">
<title>Node18&#45;&gt;Node19</title>
<path fill="none" stroke="midnightblue" d="M280.89,-364C255.67,-364 227.92,-364 206.75,-364"/>
<polygon fill="midnightblue" stroke="midnightblue" points="281.15,-367.5 291.15,-364 281.15,-360.5 281.15,-367.5"/>
</g>
<!-- Node23 -->
<g id="node23" class="node">
<title>Node23</title>
<g id="a_node23"><a xlink:href="../../d5/d7a/namespaceMyBLAS_1_1System.html#a487070ac751d33afa7f9fceaef312ea0" target="_top" xlink:title="This function generates a circuit with random resistances and currents, and computes the correspondin...">
<polygon fill="white" stroke="black" points="279.5,-228.5 279.5,-247.5 416.5,-247.5 416.5,-228.5 279.5,-228.5"/>
<text text-anchor="middle" x="348" y="-235.5" font-family="Helvetica,sans-Serif" font-size="10.00">MyBLAS::System::Circuit</text>
</a>
</g>
</g>
<!-- Node22&#45;&gt;Node23 -->
<g id="edge23" class="edge">
<title>Node22&#45;&gt;Node23</title>
<path fill="none" stroke="midnightblue" d="M460.57,-238C445.68,-238 430.71,-238 416.78,-238"/>
<polygon fill="midnightblue" stroke="midnightblue" points="460.85,-241.5 470.85,-238 460.85,-234.5 460.85,-241.5"/>
</g>
<!-- Node24 -->
<g id="node24" class="node">
<title>Node24</title>
<g id="a_node24"><a xlink:href="../../d0/d40/classParser.html#a123dc1be35999de898396ade606098f6" target="_top" xlink:title="Builds the input matrices for the MyBLAS library from a JSON file.">
<polygon fill="white" stroke="black" points="117.5,-228.5 117.5,-247.5 224.5,-247.5 224.5,-228.5 117.5,-228.5"/>
<text text-anchor="middle" x="171" y="-235.5" font-family="Helvetica,sans-Serif" font-size="10.00">Parser::buildInputs</text>
</a>
</g>
</g>
<!-- Node23&#45;&gt;Node24 -->
<g id="edge24" class="edge">
<title>Node23&#45;&gt;Node24</title>
<path fill="none" stroke="midnightblue" d="M269.01,-238C253.97,-238 238.55,-238 224.55,-238"/>
<polygon fill="midnightblue" stroke="midnightblue" points="269.34,-241.5 279.34,-238 269.34,-234.5 269.34,-241.5"/>
</g>
<!-- Node26 -->
<g id="node26" class="node">
<title>Node26</title>
<g id="a_node26"><a xlink:href="../../d7/d64/labs_2inlab1_2Compute_8h.html#a7c627810ec1100f6ba69af278a1c5460" target="_top" xlink:title="Function to compute sine.">
<polygon fill="white" stroke="black" points="322,-152.5 322,-171.5 374,-171.5 374,-152.5 322,-152.5"/>
<text text-anchor="middle" x="348" y="-159.5" font-family="Helvetica,sans-Serif" font-size="10.00">my_sin</text>
</a>
</g>
</g>
<!-- Node25&#45;&gt;Node26 -->
<g id="edge26" class="edge">
<title>Node25&#45;&gt;Node26</title>
<path fill="none" stroke="midnightblue" d="M517.54,-162C473.23,-162 409.12,-162 374.13,-162"/>
<polygon fill="midnightblue" stroke="midnightblue" points="517.79,-165.5 527.79,-162 517.79,-158.5 517.79,-165.5"/>
</g>
<!-- Node26&#45;&gt;Node27 -->
<g id="edge27" class="edge">
<title>Node26&#45;&gt;Node27</title>
<path fill="none" stroke="midnightblue" d="M311.71,-165.83C281.11,-169.15 237.09,-173.93 206.68,-177.23"/>
<polygon fill="midnightblue" stroke="midnightblue" points="312.36,-169.28 321.93,-164.72 311.61,-162.32 312.36,-169.28"/>
</g>
<!-- Node32 -->
<g id="node32" class="node">
<title>Node32</title>
<g id="a_node32"><a xlink:href="../../da/d31/labs_2outlab3_2Compute_8h.html#a12082de2c26039464e769e3151eb4d36" target="_top" xlink:title="Computes the Gauss&#45;Legendre node for a given index and polynomial degree.">
<polygon fill="white" stroke="black" points="281.5,-0.5 281.5,-19.5 414.5,-19.5 414.5,-0.5 281.5,-0.5"/>
<text text-anchor="middle" x="348" y="-7.5" font-family="Helvetica,sans-Serif" font-size="10.00">getGaussLegendreNode</text>
</a>
</g>
</g>
<!-- Node31&#45;&gt;Node32 -->
<g id="edge37" class="edge">
<title>Node31&#45;&gt;Node32</title>
<path fill="none" stroke="midnightblue" d="M465.74,-10C448.44,-10 430.85,-10 414.76,-10"/>
<polygon fill="midnightblue" stroke="midnightblue" points="465.88,-13.5 475.88,-10 465.88,-6.5 465.88,-13.5"/>
</g>
</g>
</svg>
