<?xml version="1.0" encoding="UTF-8" standalone="no"?>
<!DOCTYPE svg PUBLIC "-//W3C//DTD SVG 1.1//EN"
 "http://www.w3.org/Graphics/SVG/1.1/DTD/svg11.dtd">
<!-- Generated by graphviz version 2.43.0 (0)
 -->
<!-- Title: MyBLAS::makeDiagonallyDominant Pages: 1 -->
<svg width="533pt" height="66pt"
 viewBox="0.00 0.00 533.00 66.00" xmlns="http://www.w3.org/2000/svg" xmlns:xlink="http://www.w3.org/1999/xlink">
<g id="graph0" class="graph" transform="scale(1 1) rotate(0) translate(4 62)">
<title>MyBLAS::makeDiagonallyDominant</title>
<polygon fill="white" stroke="transparent" points="-4,4 -4,-62 529,-62 529,4 -4,4"/>
<!-- Node1 -->
<g id="node1" class="node">
<title>Node1</title>
<g id="a_node1"><a xlink:title="Makes the given matrix diagonally dominant.">
<polygon fill="#bfbfbf" stroke="black" points="0,-19.5 0,-38.5 191,-38.5 191,-19.5 0,-19.5"/>
<text text-anchor="middle" x="95.5" y="-26.5" font-family="Helvetica,sans-Serif" font-size="10.00">MyBLAS::makeDiagonallyDominant</text>
</a>
</g>
</g>
<!-- Node2 -->
<g id="node2" class="node">
<title>Node2</title>
<g id="a_node2"><a xlink:href="../../dd/df5/namespaceMyBLAS_1_1Stats.html#afeaf3b7bba0ff1b952b35d0effc0bca9" target="_top" xlink:title="Function to find the absolute value of each element in a vector.">
<polygon fill="white" stroke="black" points="243,-38.5 243,-57.5 354,-57.5 354,-38.5 243,-38.5"/>
<text text-anchor="middle" x="298.5" y="-45.5" font-family="Helvetica,sans-Serif" font-size="10.00">MyBLAS::Stats::abs</text>
</a>
</g>
</g>
<!-- Node1&#45;&gt;Node2 -->
<g id="edge1" class="edge">
<title>Node1&#45;&gt;Node2</title>
<path fill="none" stroke="midnightblue" d="M191.11,-37.94C205.23,-39.28 219.51,-40.63 232.82,-41.89"/>
<polygon fill="midnightblue" stroke="midnightblue" points="232.5,-45.37 242.79,-42.83 233.16,-38.4 232.5,-45.37"/>
</g>
<!-- Node4 -->
<g id="node4" class="node">
<title>Node4</title>
<g id="a_node4"><a xlink:href="../../d0/d27/classMyBLAS_1_1Matrix.html#a0772df3e76eadc9035e847316de0d249" target="_top" xlink:title="Getter for the number of rows in the matrix.">
<polygon fill="white" stroke="black" points="227,-0.5 227,-19.5 370,-19.5 370,-0.5 227,-0.5"/>
<text text-anchor="middle" x="298.5" y="-7.5" font-family="Helvetica,sans-Serif" font-size="10.00">MyBLAS::Matrix::getRows</text>
</a>
</g>
</g>
<!-- Node1&#45;&gt;Node4 -->
<g id="edge3" class="edge">
<title>Node1&#45;&gt;Node4</title>
<path fill="none" stroke="midnightblue" d="M191.11,-20.06C199.66,-19.25 208.26,-18.44 216.66,-17.64"/>
<polygon fill="midnightblue" stroke="midnightblue" points="217.18,-21.11 226.81,-16.68 216.52,-14.14 217.18,-21.11"/>
</g>
<!-- Node3 -->
<g id="node3" class="node">
<title>Node3</title>
<g id="a_node3"><a xlink:href="../../d4/d4d/classMyBLAS_1_1Vector.html#aae30f8178e4a34d332317c61e77c147a" target="_top" xlink:title="Getter for the size of the vector.">
<polygon fill="white" stroke="black" points="406,-38.5 406,-57.5 525,-57.5 525,-38.5 406,-38.5"/>
<text text-anchor="middle" x="465.5" y="-45.5" font-family="Helvetica,sans-Serif" font-size="10.00">MyBLAS::Vector::size</text>
</a>
</g>
</g>
<!-- Node2&#45;&gt;Node3 -->
<g id="edge2" class="edge">
<title>Node2&#45;&gt;Node3</title>
<path fill="none" stroke="midnightblue" d="M354.44,-48C367.59,-48 381.79,-48 395.49,-48"/>
<polygon fill="midnightblue" stroke="midnightblue" points="395.83,-51.5 405.83,-48 395.83,-44.5 395.83,-51.5"/>
</g>
</g>
</svg>
