<?xml version="1.0" encoding="UTF-8" standalone="no"?>
<!DOCTYPE svg PUBLIC "-//W3C//DTD SVG 1.1//EN"
 "http://www.w3.org/Graphics/SVG/1.1/DTD/svg11.dtd">
<!-- Generated by graphviz version 2.43.0 (0)
 -->
<!-- Title: MyBLAS::noZerosInDiagonal Pages: 1 -->
<!--zoomable 180 -->
<svg id="main" version="1.1" xmlns="http://www.w3.org/2000/svg" xmlns:xlink="http://www.w3.org/1999/xlink" xml:space="preserve" onload="init(evt)">
<style type="text/css"><![CDATA[
.edge:hover path { stroke: red; }
.edge:hover polygon { stroke: red; fill: red; }
]]></style>
<script type="text/javascript"><![CDATA[
var edges = document.getElementsByTagName('g');
if (edges && edges.length) {
  for (var i=0;i<edges.length;i++) {
    if (edges[i].id.substr(0,4)=='edge') {
      edges[i].setAttribute('class','edge');
    }
  }
}
]]></script>
        <defs>
                <circle id="rim" cx="0" cy="0" r="7"/>
                <circle id="rim2" cx="0" cy="0" r="3.5"/>
                <g id="zoomPlus">
                        <use xlink:href="#rim" fill="#404040">
                                <set attributeName="fill" to="#808080" begin="zoomplus.mouseover" end="zoomplus.mouseout"/>
                        </use>
                        <path d="M-4,0h8M0,-4v8" fill="none" stroke="white" stroke-width="1.5" pointer-events="none"/>
                </g>
                <g id="zoomMin">
                        <use xlink:href="#rim" fill="#404040">
                                <set attributeName="fill" to="#808080" begin="zoomminus.mouseover" end="zoomminus.mouseout"/>
                        </use>
                        <path d="M-4,0h8" fill="none" stroke="white" stroke-width="1.5" pointer-events="none"/>
                </g>
                <g id="dirArrow">
                        <path fill="none" stroke="white" stroke-width="1.5" d="M0,-3.0v7 M-2.5,-0.5L0,-3.0L2.5,-0.5"/>
                </g>
               <g id="resetDef">
                       <use xlink:href="#rim2" fill="#404040">
                               <set attributeName="fill" to="#808080" begin="reset.mouseover" end="reset.mouseout"/>
                       </use>
               </g>
        </defs>

<script type="text/javascript">
var viewWidth = 641;
var viewHeight = 180;
var sectionId = 'dynsection-46';
</script>
<script xlink:href="../../svgpan.js"/>
<svg id="graph" class="graph">
<g id="viewport">
<title>MyBLAS::noZerosInDiagonal</title>
<polygon fill="white" stroke="transparent" points="-4,4 -4,-176 637,-176 637,4 -4,4"/>
<!-- Node1 -->
<g id="node1" class="node">
<title>Node1</title>
<g id="a_node1"><a xlink:title="Checks if there are no zeros in the diagonal of a matrix.">
<polygon fill="#bfbfbf" stroke="black" points="478,-54.5 478,-73.5 633,-73.5 633,-54.5 478,-54.5"/>
<text text-anchor="middle" x="555.5" y="-61.5" font-family="Helvetica,sans-Serif" font-size="10.00">MyBLAS::noZerosInDiagonal</text>
</a>
</g>
</g>
<!-- Node2 -->
<g id="node2" class="node">
<title>Node2</title>
<g id="a_node2"><a xlink:href="../../d7/d9a/namespaceMyRelaxationMethod.html#a985bd80ba02c84e9d1ca2e434a32bd3f" target="_top" xlink:title="Function to perform pre&#45;checks on the coefficient matrix and the right&#45;hand side vector.">
<polygon fill="white" stroke="black" points="319.5,-71 319.5,-101 440.5,-101 440.5,-71 319.5,-71"/>
<text text-anchor="start" x="327.5" y="-89" font-family="Helvetica,sans-Serif" font-size="10.00">MyRelaxationMethod</text>
<text text-anchor="middle" x="380" y="-78" font-family="Helvetica,sans-Serif" font-size="10.00">::passesPreChecks</text>
</a>
</g>
</g>
<!-- Node1&#45;&gt;Node2 -->
<g id="edge1" class="edge">
<title>Node1&#45;&gt;Node2</title>
<path fill="none" stroke="midnightblue" d="M469.3,-74.8C459.57,-76.04 449.82,-77.27 440.52,-78.45"/>
<polygon fill="midnightblue" stroke="midnightblue" points="469.93,-78.25 479.41,-73.52 469.05,-71.31 469.93,-78.25"/>
</g>
<!-- Node11 -->
<g id="node11" class="node">
<title>Node11</title>
<g id="a_node11"><a xlink:href="../../d2/d6e/namespaceMyBLAS.html#a54e4656d322c843fb239547df942f8ae" target="_top" xlink:title=" ">
<polygon fill="white" stroke="black" points="318,-32.5 318,-51.5 442,-51.5 442,-32.5 318,-32.5"/>
<text text-anchor="middle" x="380" y="-39.5" font-family="Helvetica,sans-Serif" font-size="10.00">MyBLAS::TYPED_TEST</text>
</a>
</g>
</g>
<!-- Node1&#45;&gt;Node11 -->
<g id="edge10" class="edge">
<title>Node1&#45;&gt;Node11</title>
<path fill="none" stroke="midnightblue" d="M469.43,-53.21C460.22,-52.04 450.97,-50.87 442.12,-49.75"/>
<polygon fill="midnightblue" stroke="midnightblue" points="469.05,-56.69 479.41,-54.48 469.93,-49.75 469.05,-56.69"/>
</g>
<!-- Node3 -->
<g id="node3" class="node">
<title>Node3</title>
<g id="a_node3"><a xlink:href="../../de/db3/namespaceCompute.html#a017b511b9ab24d2388a864d6cb14c1cc" target="_top" xlink:title="Solves a linear system using the Gauss&#45;Seidel method.">
<polygon fill="white" stroke="black" points="122,-152.5 122,-171.5 275,-171.5 275,-152.5 122,-152.5"/>
<text text-anchor="middle" x="198.5" y="-159.5" font-family="Helvetica,sans-Serif" font-size="10.00">Compute::usingGaussSeidel</text>
</a>
</g>
</g>
<!-- Node2&#45;&gt;Node3 -->
<g id="edge2" class="edge">
<title>Node2&#45;&gt;Node3</title>
<path fill="none" stroke="midnightblue" d="M349.3,-106.67C330.7,-118.78 305.81,-133.52 282,-143 272.58,-146.75 262.24,-149.86 252.17,-152.4"/>
<polygon fill="midnightblue" stroke="midnightblue" points="351.24,-109.59 357.64,-101.14 347.37,-103.75 351.24,-109.59"/>
</g>
<!-- Node4 -->
<g id="node4" class="node">
<title>Node4</title>
<g id="a_node4"><a xlink:href="../../de/db3/namespaceCompute.html#a3b30a49d004f8370d19cd13f6492ddba" target="_top" xlink:title="Solves a linear system using the Jacobi SOR method.">
<polygon fill="white" stroke="black" points="127,-114.5 127,-133.5 270,-133.5 270,-114.5 127,-114.5"/>
<text text-anchor="middle" x="198.5" y="-121.5" font-family="Helvetica,sans-Serif" font-size="10.00">Compute::usingJacobiSOR</text>
</a>
</g>
</g>
<!-- Node2&#45;&gt;Node4 -->
<g id="edge3" class="edge">
<title>Node2&#45;&gt;Node4</title>
<path fill="none" stroke="midnightblue" d="M309.36,-100.74C287.58,-105.35 264.14,-110.32 244.53,-114.47"/>
<polygon fill="midnightblue" stroke="midnightblue" points="310.17,-104.15 319.23,-98.65 308.72,-97.3 310.17,-104.15"/>
</g>
<!-- Node8 -->
<g id="node8" class="node">
<title>Node8</title>
<g id="a_node8"><a xlink:href="../../de/db3/namespaceCompute.html#a0741aa46b479eae78cfad76bdf7cb091" target="_top" xlink:title="Solves a linear system using the Point Jacobi method.">
<polygon fill="white" stroke="black" points="125,-76.5 125,-95.5 272,-95.5 272,-76.5 125,-76.5"/>
<text text-anchor="middle" x="198.5" y="-83.5" font-family="Helvetica,sans-Serif" font-size="10.00">Compute::usingPointJacobi</text>
</a>
</g>
</g>
<!-- Node2&#45;&gt;Node8 -->
<g id="edge7" class="edge">
<title>Node2&#45;&gt;Node8</title>
<path fill="none" stroke="midnightblue" d="M309.16,-86C297.01,-86 284.34,-86 272.11,-86"/>
<polygon fill="midnightblue" stroke="midnightblue" points="309.23,-89.5 319.23,-86 309.23,-82.5 309.23,-89.5"/>
</g>
<!-- Node9 -->
<g id="node9" class="node">
<title>Node9</title>
<g id="a_node9"><a xlink:href="../../de/db3/namespaceCompute.html#a26fcd23146e3ca00ed9eefc59c89c07a" target="_top" xlink:title="Solves a linear system using the Successive Over&#45;Relaxation (SOR) method.">
<polygon fill="white" stroke="black" points="142,-38.5 142,-57.5 255,-57.5 255,-38.5 142,-38.5"/>
<text text-anchor="middle" x="198.5" y="-45.5" font-family="Helvetica,sans-Serif" font-size="10.00">Compute::usingSOR</text>
</a>
</g>
</g>
<!-- Node2&#45;&gt;Node9 -->
<g id="edge8" class="edge">
<title>Node2&#45;&gt;Node9</title>
<path fill="none" stroke="midnightblue" d="M309.36,-71.26C287.58,-66.65 264.14,-61.68 244.53,-57.53"/>
<polygon fill="midnightblue" stroke="midnightblue" points="308.72,-74.7 319.23,-73.35 310.17,-67.85 308.72,-74.7"/>
</g>
<!-- Node10 -->
<g id="node10" class="node">
<title>Node10</title>
<g id="a_node10"><a xlink:href="../../de/db3/namespaceCompute.html#ab38c6016d5c4907c1f4f468600278560" target="_top" xlink:title="Solves a linear system using the Symmetric SOR method.">
<polygon fill="white" stroke="black" points="115,-0.5 115,-19.5 282,-19.5 282,-0.5 115,-0.5"/>
<text text-anchor="middle" x="198.5" y="-7.5" font-family="Helvetica,sans-Serif" font-size="10.00">Compute::usingSymmetricSOR</text>
</a>
</g>
</g>
<!-- Node2&#45;&gt;Node10 -->
<g id="edge9" class="edge">
<title>Node2&#45;&gt;Node10</title>
<path fill="none" stroke="midnightblue" d="M327.72,-66.51C324.37,-64.77 321.1,-62.93 318,-61 299.84,-49.67 301.02,-38.82 282,-29 274.56,-25.16 266.34,-22.08 258.06,-19.63"/>
<polygon fill="midnightblue" stroke="midnightblue" points="326.2,-69.66 336.73,-70.87 329.25,-63.36 326.2,-69.66"/>
</g>
<!-- Node5 -->
<g id="node5" class="node">
<title>Node5</title>
<g id="a_node5"><a xlink:href="../../d0/d4c/classOutLab6.html#a901a1283fd029c9174f8469ac5cb3ad8" target="_top" xlink:title="This function runs the computation.">
<polygon fill="white" stroke="black" points="0,-152.5 0,-171.5 79,-171.5 79,-152.5 0,-152.5"/>
<text text-anchor="middle" x="39.5" y="-159.5" font-family="Helvetica,sans-Serif" font-size="10.00">OutLab6::run</text>
</a>
</g>
</g>
<!-- Node4&#45;&gt;Node5 -->
<g id="edge4" class="edge">
<title>Node4&#45;&gt;Node5</title>
<path fill="none" stroke="midnightblue" d="M145.2,-135.85C135.16,-138.18 124.75,-140.63 115,-143 102.68,-145.99 89.24,-149.38 77.21,-152.46"/>
<polygon fill="midnightblue" stroke="midnightblue" points="146.1,-139.23 155.06,-133.57 144.53,-132.41 146.1,-139.23"/>
</g>
<!-- Node6 -->
<g id="node6" class="node">
<title>Node6</title>
<g id="a_node6"><a xlink:href="../../dd/db5/classProject2.html#a0990db917f6a27a4e1cb9ac885698524" target="_top" xlink:title="This function runs the project.">
<polygon fill="white" stroke="black" points="0.5,-114.5 0.5,-133.5 78.5,-133.5 78.5,-114.5 0.5,-114.5"/>
<text text-anchor="middle" x="39.5" y="-121.5" font-family="Helvetica,sans-Serif" font-size="10.00">Project2::run</text>
</a>
</g>
</g>
<!-- Node4&#45;&gt;Node6 -->
<g id="edge5" class="edge">
<title>Node4&#45;&gt;Node6</title>
<path fill="none" stroke="midnightblue" d="M116.66,-124C103.37,-124 90.18,-124 78.6,-124"/>
<polygon fill="midnightblue" stroke="midnightblue" points="116.81,-127.5 126.81,-124 116.81,-120.5 116.81,-127.5"/>
</g>
<!-- Node7 -->
<g id="node7" class="node">
<title>Node7</title>
<g id="a_node7"><a xlink:href="../../dd/dfb/classProject3.html#a8bcff99aaba60e7d5e5be3cb7552d163" target="_top" xlink:title="This function runs the project.">
<polygon fill="white" stroke="black" points="0.5,-76.5 0.5,-95.5 78.5,-95.5 78.5,-76.5 0.5,-76.5"/>
<text text-anchor="middle" x="39.5" y="-83.5" font-family="Helvetica,sans-Serif" font-size="10.00">Project3::run</text>
</a>
</g>
</g>
<!-- Node4&#45;&gt;Node7 -->
<g id="edge6" class="edge">
<title>Node4&#45;&gt;Node7</title>
<path fill="none" stroke="midnightblue" d="M145.2,-112.15C135.16,-109.82 124.75,-107.37 115,-105 102.68,-102.01 89.24,-98.62 77.21,-95.54"/>
<polygon fill="midnightblue" stroke="midnightblue" points="144.53,-115.59 155.06,-114.43 146.1,-108.77 144.53,-115.59"/>
</g>
</g>
</svg>
        <g id="navigator" transform="translate(0 0)" fill="#404254">
                <rect fill="#f2f5e9" fill-opacity="0.5" stroke="#606060" stroke-width=".5" x="0" y="0" width="60" height="60"/>
                <use id="zoomplus" xlink:href="#zoomPlus" x="17" y="9" onmousedown="handleZoom(evt,'in')"/>
                <use id="zoomminus" xlink:href="#zoomMin" x="42" y="9" onmousedown="handleZoom(evt,'out')"/>
                <use id="reset" xlink:href="#resetDef" x="30" y="36" onmousedown="handleReset()"/>
                <g id="arrowUp" xlink:href="#dirArrow" transform="translate(30 24)" onmousedown="handlePan(0,-1)">
                  <use xlink:href="#rim" fill="#404040">
                        <set attributeName="fill" to="#808080" begin="arrowUp.mouseover" end="arrowUp.mouseout"/>
                  </use>
                  <path fill="none" stroke="white" stroke-width="1.5" d="M0,-3.0v7 M-2.5,-0.5L0,-3.0L2.5,-0.5"/>
                </g>
                <g id="arrowRight" xlink:href="#dirArrow" transform="rotate(90) translate(36 -43)" onmousedown="handlePan(1,0)">
                  <use xlink:href="#rim" fill="#404040">
                        <set attributeName="fill" to="#808080" begin="arrowRight.mouseover" end="arrowRight.mouseout"/>
                  </use>
                  <path fill="none" stroke="white" stroke-width="1.5" d="M0,-3.0v7 M-2.5,-0.5L0,-3.0L2.5,-0.5"/>
                </g>
                <g id="arrowDown" xlink:href="#dirArrow" transform="rotate(180) translate(-30 -48)" onmousedown="handlePan(0,1)">
                  <use xlink:href="#rim" fill="#404040">
                        <set attributeName="fill" to="#808080" begin="arrowDown.mouseover" end="arrowDown.mouseout"/>
                  </use>
                  <path fill="none" stroke="white" stroke-width="1.5" d="M0,-3.0v7 M-2.5,-0.5L0,-3.0L2.5,-0.5"/>
                </g>
                <g id="arrowLeft" xlink:href="#dirArrow" transform="rotate(270) translate(-36 17)" onmousedown="handlePan(-1,0)">
                  <use xlink:href="#rim" fill="#404040">
                        <set attributeName="fill" to="#808080" begin="arrowLeft.mouseover" end="arrowLeft.mouseout"/>
                  </use>
                  <path fill="none" stroke="white" stroke-width="1.5" d="M0,-3.0v7 M-2.5,-0.5L0,-3.0L2.5,-0.5"/>
                </g>
        </g>
        <svg viewBox="0 0 15 15" width="100%" height="30px" preserveAspectRatio="xMaxYMin meet">
         <g id="arrow_out" transform="scale(0.3 0.3)">
          <a xlink:href="namespaceMyBLAS_a56e77d4aef50489830f5ce0ef7bcf7a4_icgraph_org.svg" target="_base">
           <rect id="button" ry="5" rx="5" y="6" x="6" height="38" width="38"
                fill="#f2f5e9" fill-opacity="0.5" stroke="#606060" stroke-width="1.0"/>
           <path id="arrow"
             d="M 11.500037,31.436501 C 11.940474,20.09759 22.043105,11.32322 32.158766,21.979434 L 37.068811,17.246167 C 37.068811,17.246167 37.088388,32 37.088388,32 L 22.160133,31.978069 C 22.160133,31.978069 26.997745,27.140456 26.997745,27.140456 C 18.528582,18.264221 13.291696,25.230495 11.500037,31.436501 z"
             style="fill:#404040;"/>
          </a>
         </g>
        </svg>
</svg>
