<?xml version="1.0" encoding="UTF-8" standalone="no"?>
<!DOCTYPE svg PUBLIC "-//W3C//DTD SVG 1.1//EN"
 "http://www.w3.org/Graphics/SVG/1.1/DTD/svg11.dtd">
<!-- Generated by graphviz version 2.43.0 (0)
 -->
<!-- Title: MyBLAS::forwardSubstitution Pages: 1 -->
<svg width="681pt" height="246pt"
 viewBox="0.00 0.00 681.00 245.50" xmlns="http://www.w3.org/2000/svg" xmlns:xlink="http://www.w3.org/1999/xlink">
<g id="graph0" class="graph" transform="scale(1 1) rotate(0) translate(4 241.5)">
<title>MyBLAS::forwardSubstitution</title>
<polygon fill="white" stroke="transparent" points="-4,4 -4,-241.5 677,-241.5 677,4 -4,4"/>
<!-- Node1 -->
<g id="node1" class="node">
<title>Node1</title>
<g id="a_node1"><a xlink:title="Perform forward substitution.">
<polygon fill="#bfbfbf" stroke="black" points="514,-95.5 514,-114.5 673,-114.5 673,-95.5 514,-95.5"/>
<text text-anchor="middle" x="593.5" y="-102.5" font-family="Helvetica,sans-Serif" font-size="10.00">MyBLAS::forwardSubstitution</text>
</a>
</g>
</g>
<!-- Node2 -->
<g id="node2" class="node">
<title>Node2</title>
<g id="a_node2"><a xlink:href="../../d5/db6/namespaceMyBLAS_1_1LUP.html#ac803dfb6b419afbd84ade6475e608e1f" target="_top" xlink:title="This function solves a system of linear equations Ax = b using LU factorization with partial pivoting...">
<polygon fill="white" stroke="black" points="326,-190.5 326,-209.5 460,-209.5 460,-190.5 326,-190.5"/>
<text text-anchor="middle" x="393" y="-197.5" font-family="Helvetica,sans-Serif" font-size="10.00">MyBLAS::LUP::applyLUP</text>
</a>
</g>
</g>
<!-- Node1&#45;&gt;Node2 -->
<g id="edge1" class="edge">
<title>Node1&#45;&gt;Node2</title>
<path fill="none" stroke="midnightblue" d="M573.48,-120.81C551.73,-138.1 514.41,-165.43 478,-181 469.06,-184.82 459.25,-187.93 449.58,-190.44"/>
<polygon fill="midnightblue" stroke="midnightblue" points="575.71,-123.51 581.28,-114.5 571.31,-118.07 575.71,-123.51"/>
</g>
<!-- Node8 -->
<g id="node8" class="node">
<title>Node8</title>
<g id="a_node8"><a xlink:href="../../d0/d6c/namespaceInLab04.html#ab3a3cbc5744e288d945d91f6febfca15" target="_top" xlink:title="Perform forward substitution.">
<polygon fill="white" stroke="black" points="308,-152.5 308,-171.5 478,-171.5 478,-152.5 308,-152.5"/>
<text text-anchor="middle" x="393" y="-159.5" font-family="Helvetica,sans-Serif" font-size="10.00">InLab04::doForwardSubstitution</text>
</a>
</g>
</g>
<!-- Node1&#45;&gt;Node8 -->
<g id="edge7" class="edge">
<title>Node1&#45;&gt;Node8</title>
<path fill="none" stroke="midnightblue" d="M556.44,-117.97C534.04,-125.79 504.54,-135.61 478,-143 465.76,-146.41 452.38,-149.65 439.98,-152.45"/>
<polygon fill="midnightblue" stroke="midnightblue" points="557.62,-121.27 565.89,-114.65 555.3,-114.67 557.62,-121.27"/>
</g>
<!-- Node9 -->
<g id="node9" class="node">
<title>Node9</title>
<g id="a_node9"><a xlink:href="../../d8/deb/classInLab5.html#a627071ee1dc13ffb289e34d45ad63758" target="_top" xlink:title="This function runs the project.">
<polygon fill="white" stroke="black" points="357.5,-114.5 357.5,-133.5 428.5,-133.5 428.5,-114.5 357.5,-114.5"/>
<text text-anchor="middle" x="393" y="-121.5" font-family="Helvetica,sans-Serif" font-size="10.00">InLab5::run</text>
</a>
</g>
</g>
<!-- Node1&#45;&gt;Node9 -->
<g id="edge8" class="edge">
<title>Node1&#45;&gt;Node9</title>
<path fill="none" stroke="midnightblue" d="M503.64,-113.51C477.05,-116.05 449.46,-118.69 428.61,-120.69"/>
<polygon fill="midnightblue" stroke="midnightblue" points="504.14,-116.97 513.76,-112.54 503.47,-110.01 504.14,-116.97"/>
</g>
<!-- Node10 -->
<g id="node10" class="node">
<title>Node10</title>
<g id="a_node10"><a xlink:href="../../d8/d5b/classOutLab4.html#af3d8d1b60ac7a85a1aabf6a3d511ecce" target="_top" xlink:title="This function runs the project.">
<polygon fill="white" stroke="black" points="353.5,-76.5 353.5,-95.5 432.5,-95.5 432.5,-76.5 353.5,-76.5"/>
<text text-anchor="middle" x="393" y="-83.5" font-family="Helvetica,sans-Serif" font-size="10.00">OutLab4::run</text>
</a>
</g>
</g>
<!-- Node1&#45;&gt;Node10 -->
<g id="edge9" class="edge">
<title>Node1&#45;&gt;Node10</title>
<path fill="none" stroke="midnightblue" d="M503.53,-96.48C478.63,-94.1 452.85,-91.63 432.56,-89.69"/>
<polygon fill="midnightblue" stroke="midnightblue" points="503.47,-99.99 513.76,-97.46 504.14,-93.03 503.47,-99.99"/>
</g>
<!-- Node11 -->
<g id="node11" class="node">
<title>Node11</title>
<g id="a_node11"><a xlink:href="../../d3/d1d/classOutLab5.html#aa1d5363426e0ce8f620d47c1b2aa2260" target="_top" xlink:title="This function runs the project.">
<polygon fill="white" stroke="black" points="353.5,-38.5 353.5,-57.5 432.5,-57.5 432.5,-38.5 353.5,-38.5"/>
<text text-anchor="middle" x="393" y="-45.5" font-family="Helvetica,sans-Serif" font-size="10.00">OutLab5::run</text>
</a>
</g>
</g>
<!-- Node1&#45;&gt;Node11 -->
<g id="edge10" class="edge">
<title>Node1&#45;&gt;Node11</title>
<path fill="none" stroke="midnightblue" d="M556.44,-92.03C534.04,-84.21 504.54,-74.39 478,-67 463.31,-62.91 446.99,-59.06 432.67,-55.92"/>
<polygon fill="midnightblue" stroke="midnightblue" points="555.3,-95.33 565.89,-95.35 557.62,-88.73 555.3,-95.33"/>
</g>
<!-- Node12 -->
<g id="node12" class="node">
<title>Node12</title>
<g id="a_node12"><a xlink:href="../../d8/ddb/classProject1.html#a41a4716fc32985fae5d32da6434b5516" target="_top" xlink:title="This function runs the project.">
<polygon fill="white" stroke="black" points="354,-0.5 354,-19.5 432,-19.5 432,-0.5 354,-0.5"/>
<text text-anchor="middle" x="393" y="-7.5" font-family="Helvetica,sans-Serif" font-size="10.00">Project1::run</text>
</a>
</g>
</g>
<!-- Node1&#45;&gt;Node12 -->
<g id="edge11" class="edge">
<title>Node1&#45;&gt;Node12</title>
<path fill="none" stroke="midnightblue" d="M573.48,-89.19C551.73,-71.9 514.41,-44.57 478,-29 463.57,-22.83 446.84,-18.52 432.13,-15.59"/>
<polygon fill="midnightblue" stroke="midnightblue" points="571.31,-91.93 581.28,-95.5 575.71,-86.49 571.31,-91.93"/>
</g>
<!-- Node3 -->
<g id="node3" class="node">
<title>Node3</title>
<g id="a_node3"><a xlink:href="../../d7/d9a/namespaceMyRelaxationMethod.html#a8f6160a9196f16b9dea0b631a4346d3f" target="_top" xlink:title=" ">
<polygon fill="white" stroke="black" points="115,-207 115,-237 272,-237 272,-207 115,-207"/>
<text text-anchor="start" x="123" y="-225" font-family="Helvetica,sans-Serif" font-size="10.00">MyRelaxationMethod</text>
<text text-anchor="middle" x="193.5" y="-214" font-family="Helvetica,sans-Serif" font-size="10.00">::applyInversePowerIteration</text>
</a>
</g>
</g>
<!-- Node2&#45;&gt;Node3 -->
<g id="edge2" class="edge">
<title>Node2&#45;&gt;Node3</title>
<path fill="none" stroke="midnightblue" d="M315.69,-208.5C301.39,-210.09 286.44,-211.76 272.11,-213.36"/>
<polygon fill="midnightblue" stroke="midnightblue" points="316.41,-211.94 325.96,-207.36 315.63,-204.98 316.41,-211.94"/>
</g>
<!-- Node4 -->
<g id="node4" class="node">
<title>Node4</title>
<g id="a_node4"><a xlink:href="../../de/db3/namespaceCompute.html#a9aaa2e3c1db51432d5a62c1d4541fd90" target="_top" xlink:title="Solves a linear system using LUP decomposition.">
<polygon fill="white" stroke="black" points="137.5,-168.5 137.5,-187.5 249.5,-187.5 249.5,-168.5 137.5,-168.5"/>
<text text-anchor="middle" x="193.5" y="-175.5" font-family="Helvetica,sans-Serif" font-size="10.00">Compute::usingLUP</text>
</a>
</g>
</g>
<!-- Node2&#45;&gt;Node4 -->
<g id="edge3" class="edge">
<title>Node2&#45;&gt;Node4</title>
<path fill="none" stroke="midnightblue" d="M315.94,-191.53C293.85,-189.07 270.15,-186.43 249.61,-184.14"/>
<polygon fill="midnightblue" stroke="midnightblue" points="315.63,-195.02 325.96,-192.64 316.41,-188.06 315.63,-195.02"/>
</g>
<!-- Node5 -->
<g id="node5" class="node">
<title>Node5</title>
<g id="a_node5"><a xlink:href="../../d0/d4c/classOutLab6.html#a901a1283fd029c9174f8469ac5cb3ad8" target="_top" xlink:title="This function runs the computation.">
<polygon fill="white" stroke="black" points="0,-206.5 0,-225.5 79,-225.5 79,-206.5 0,-206.5"/>
<text text-anchor="middle" x="39.5" y="-213.5" font-family="Helvetica,sans-Serif" font-size="10.00">OutLab6::run</text>
</a>
</g>
</g>
<!-- Node4&#45;&gt;Node5 -->
<g id="edge4" class="edge">
<title>Node4&#45;&gt;Node5</title>
<path fill="none" stroke="midnightblue" d="M144.34,-190.04C123.1,-195.35 98.5,-201.5 78.58,-206.48"/>
<polygon fill="midnightblue" stroke="midnightblue" points="145.29,-193.41 154.14,-187.59 143.59,-186.62 145.29,-193.41"/>
</g>
<!-- Node6 -->
<g id="node6" class="node">
<title>Node6</title>
<g id="a_node6"><a xlink:href="../../dd/db5/classProject2.html#a0990db917f6a27a4e1cb9ac885698524" target="_top" xlink:title="This function runs the project.">
<polygon fill="white" stroke="black" points="0.5,-168.5 0.5,-187.5 78.5,-187.5 78.5,-168.5 0.5,-168.5"/>
<text text-anchor="middle" x="39.5" y="-175.5" font-family="Helvetica,sans-Serif" font-size="10.00">Project2::run</text>
</a>
</g>
</g>
<!-- Node4&#45;&gt;Node6 -->
<g id="edge5" class="edge">
<title>Node4&#45;&gt;Node6</title>
<path fill="none" stroke="midnightblue" d="M127.07,-178C110.63,-178 93.51,-178 78.88,-178"/>
<polygon fill="midnightblue" stroke="midnightblue" points="127.19,-181.5 137.19,-178 127.19,-174.5 127.19,-181.5"/>
</g>
<!-- Node7 -->
<g id="node7" class="node">
<title>Node7</title>
<g id="a_node7"><a xlink:href="../../dd/dfb/classProject3.html#a8bcff99aaba60e7d5e5be3cb7552d163" target="_top" xlink:title="This function runs the project.">
<polygon fill="white" stroke="black" points="0.5,-130.5 0.5,-149.5 78.5,-149.5 78.5,-130.5 0.5,-130.5"/>
<text text-anchor="middle" x="39.5" y="-137.5" font-family="Helvetica,sans-Serif" font-size="10.00">Project3::run</text>
</a>
</g>
</g>
<!-- Node4&#45;&gt;Node7 -->
<g id="edge6" class="edge">
<title>Node4&#45;&gt;Node7</title>
<path fill="none" stroke="midnightblue" d="M144.34,-165.96C123.1,-160.65 98.5,-154.5 78.58,-149.52"/>
<polygon fill="midnightblue" stroke="midnightblue" points="143.59,-169.38 154.14,-168.41 145.29,-162.59 143.59,-169.38"/>
</g>
</g>
</svg>
