<?xml version="1.0" encoding="UTF-8" standalone="no"?>
<!DOCTYPE svg PUBLIC "-//W3C//DTD SVG 1.1//EN"
 "http://www.w3.org/Graphics/SVG/1.1/DTD/svg11.dtd">
<!-- Generated by graphviz version 2.43.0 (0)
 -->
<!-- Title: MyBLAS::makePositiveDefinite Pages: 1 -->
<svg width="736pt" height="132pt"
 viewBox="0.00 0.00 736.00 132.00" xmlns="http://www.w3.org/2000/svg" xmlns:xlink="http://www.w3.org/1999/xlink">
<g id="graph0" class="graph" transform="scale(1 1) rotate(0) translate(4 128)">
<title>MyBLAS::makePositiveDefinite</title>
<polygon fill="white" stroke="transparent" points="-4,4 -4,-128 732,-128 732,4 -4,4"/>
<!-- Node1 -->
<g id="node1" class="node">
<title>Node1</title>
<g id="a_node1"><a xlink:title="Makes the given matrix positive&#45;definite.">
<polygon fill="#bfbfbf" stroke="black" points="0,-57.5 0,-76.5 167,-76.5 167,-57.5 0,-57.5"/>
<text text-anchor="middle" x="83.5" y="-64.5" font-family="Helvetica,sans-Serif" font-size="10.00">MyBLAS::makePositiveDefinite</text>
</a>
</g>
</g>
<!-- Node2 -->
<g id="node2" class="node">
<title>Node2</title>
<g id="a_node2"><a xlink:href="../../d2/d6e/namespaceMyBLAS.html#ab04220788b1a4758fe6b7f4fedc39a19" target="_top" xlink:title=" ">
<polygon fill="white" stroke="black" points="461.5,-104.5 461.5,-123.5 541.5,-123.5 541.5,-104.5 461.5,-104.5"/>
<text text-anchor="middle" x="501.5" y="-111.5" font-family="Helvetica,sans-Serif" font-size="10.00">MyBLAS::abs</text>
</a>
</g>
</g>
<!-- Node1&#45;&gt;Node2 -->
<g id="edge1" class="edge">
<title>Node1&#45;&gt;Node2</title>
<path fill="none" stroke="midnightblue" d="M107.62,-76.55C131.16,-85.76 168.93,-99.14 203,-105 289.23,-119.83 391.55,-118.98 450.95,-116.7"/>
<polygon fill="midnightblue" stroke="midnightblue" points="451.32,-120.19 461.17,-116.28 451.03,-113.2 451.32,-120.19"/>
</g>
<!-- Node4 -->
<g id="node4" class="node">
<title>Node4</title>
<g id="a_node4"><a xlink:href="../../d0/d27/classMyBLAS_1_1Matrix.html#a0772df3e76eadc9035e847316de0d249" target="_top" xlink:title="Getter for the number of rows in the matrix.">
<polygon fill="white" stroke="black" points="430,-57.5 430,-76.5 573,-76.5 573,-57.5 430,-57.5"/>
<text text-anchor="middle" x="501.5" y="-64.5" font-family="Helvetica,sans-Serif" font-size="10.00">MyBLAS::Matrix::getRows</text>
</a>
</g>
</g>
<!-- Node1&#45;&gt;Node4 -->
<g id="edge3" class="edge">
<title>Node1&#45;&gt;Node4</title>
<path fill="none" stroke="midnightblue" d="M167.19,-67C240.51,-67 346.95,-67 419.7,-67"/>
<polygon fill="midnightblue" stroke="midnightblue" points="419.74,-70.5 429.74,-67 419.74,-63.5 419.74,-70.5"/>
</g>
<!-- Node5 -->
<g id="node5" class="node">
<title>Node5</title>
<g id="a_node5"><a xlink:href="../../d2/d6e/namespaceMyBLAS.html#a95a31a537601936a645cd405411f3732" target="_top" xlink:title="Makes the given matrix diagonally dominant.">
<polygon fill="white" stroke="black" points="203,-76.5 203,-95.5 394,-95.5 394,-76.5 203,-76.5"/>
<text text-anchor="middle" x="298.5" y="-83.5" font-family="Helvetica,sans-Serif" font-size="10.00">MyBLAS::makeDiagonallyDominant</text>
</a>
</g>
</g>
<!-- Node1&#45;&gt;Node5 -->
<g id="edge4" class="edge">
<title>Node1&#45;&gt;Node5</title>
<path fill="none" stroke="midnightblue" d="M167.16,-74.37C175.56,-75.12 184.18,-75.89 192.77,-76.66"/>
<polygon fill="midnightblue" stroke="midnightblue" points="192.58,-80.15 202.85,-77.56 193.2,-73.18 192.58,-80.15"/>
</g>
<!-- Node6 -->
<g id="node6" class="node">
<title>Node6</title>
<g id="a_node6"><a xlink:href="../../dd/df5/namespaceMyBLAS_1_1Stats.html#a403bf760cf802cddf8dd73e5d3e46a05" target="_top" xlink:title="Function to find the maximum value in a vector.">
<polygon fill="white" stroke="black" points="240.5,-0.5 240.5,-19.5 356.5,-19.5 356.5,-0.5 240.5,-0.5"/>
<text text-anchor="middle" x="298.5" y="-7.5" font-family="Helvetica,sans-Serif" font-size="10.00">MyBLAS::Stats::max</text>
</a>
</g>
</g>
<!-- Node1&#45;&gt;Node6 -->
<g id="edge7" class="edge">
<title>Node1&#45;&gt;Node6</title>
<path fill="none" stroke="midnightblue" d="M117.9,-57.48C141.61,-50.77 174.21,-41.66 203,-34 217.89,-30.04 234.13,-25.86 248.88,-22.12"/>
<polygon fill="midnightblue" stroke="midnightblue" points="249.99,-25.45 258.83,-19.61 248.27,-18.66 249.99,-25.45"/>
</g>
<!-- Node3 -->
<g id="node3" class="node">
<title>Node3</title>
<g id="a_node3"><a xlink:href="../../d4/d4d/classMyBLAS_1_1Vector.html#aae30f8178e4a34d332317c61e77c147a" target="_top" xlink:title="Getter for the size of the vector.">
<polygon fill="white" stroke="black" points="609,-104.5 609,-123.5 728,-123.5 728,-104.5 609,-104.5"/>
<text text-anchor="middle" x="668.5" y="-111.5" font-family="Helvetica,sans-Serif" font-size="10.00">MyBLAS::Vector::size</text>
</a>
</g>
</g>
<!-- Node2&#45;&gt;Node3 -->
<g id="edge2" class="edge">
<title>Node2&#45;&gt;Node3</title>
<path fill="none" stroke="midnightblue" d="M541.6,-114C558.73,-114 579.34,-114 598.88,-114"/>
<polygon fill="midnightblue" stroke="midnightblue" points="598.97,-117.5 608.97,-114 598.97,-110.5 598.97,-117.5"/>
</g>
<!-- Node5&#45;&gt;Node2 -->
<g id="edge5" class="edge">
<title>Node5&#45;&gt;Node2</title>
<path fill="none" stroke="midnightblue" d="M367.83,-95.52C395.24,-99.34 426.21,-103.65 451.34,-107.15"/>
<polygon fill="midnightblue" stroke="midnightblue" points="450.98,-110.63 461.36,-108.55 451.94,-103.7 450.98,-110.63"/>
</g>
<!-- Node5&#45;&gt;Node4 -->
<g id="edge6" class="edge">
<title>Node5&#45;&gt;Node4</title>
<path fill="none" stroke="midnightblue" d="M394.11,-77.06C402.66,-76.25 411.26,-75.44 419.66,-74.64"/>
<polygon fill="midnightblue" stroke="midnightblue" points="420.18,-78.11 429.81,-73.68 419.52,-71.14 420.18,-78.11"/>
</g>
<!-- Node7 -->
<g id="node7" class="node">
<title>Node7</title>
<g id="a_node7"><a xlink:href="../../d4/d4d/classMyBLAS_1_1Vector.html#a6188d71192e096e25ae1c1a46150a0ab" target="_top" xlink:title="Getter for the vector data.">
<polygon fill="white" stroke="black" points="432,-0.5 432,-19.5 571,-19.5 571,-0.5 432,-0.5"/>
<text text-anchor="middle" x="501.5" y="-7.5" font-family="Helvetica,sans-Serif" font-size="10.00">MyBLAS::Vector::getData</text>
</a>
</g>
</g>
<!-- Node6&#45;&gt;Node7 -->
<g id="edge8" class="edge">
<title>Node6&#45;&gt;Node7</title>
<path fill="none" stroke="midnightblue" d="M356.56,-10C376.8,-10 399.95,-10 421.68,-10"/>
<polygon fill="midnightblue" stroke="midnightblue" points="421.88,-13.5 431.88,-10 421.88,-6.5 421.88,-13.5"/>
</g>
</g>
</svg>
