<?xml version="1.0" encoding="UTF-8" standalone="no"?>
<!DOCTYPE svg PUBLIC "-//W3C//DTD SVG 1.1//EN"
 "http://www.w3.org/Graphics/SVG/1.1/DTD/svg11.dtd">
<!-- Generated by graphviz version 2.43.0 (0)
 -->
<!-- Title: MyBLAS::isPermutationMatrix Pages: 1 -->
<svg width="338pt" height="203pt"
 viewBox="0.00 0.00 338.00 203.00" xmlns="http://www.w3.org/2000/svg" xmlns:xlink="http://www.w3.org/1999/xlink">
<g id="graph0" class="graph" transform="scale(1 1) rotate(0) translate(4 199)">
<title>MyBLAS::isPermutationMatrix</title>
<polygon fill="white" stroke="transparent" points="-4,4 -4,-199 334,-199 334,4 -4,4"/>
<!-- Node1 -->
<g id="node1" class="node">
<title>Node1</title>
<g id="a_node1"><a xlink:title="Checks if the given matrix is a valid permutation matrix.">
<polygon fill="#bfbfbf" stroke="black" points="167,-82.5 167,-101.5 330,-101.5 330,-82.5 167,-82.5"/>
<text text-anchor="middle" x="248.5" y="-89.5" font-family="Helvetica,sans-Serif" font-size="10.00">MyBLAS::isPermutationMatrix</text>
</a>
</g>
</g>
<!-- Node2 -->
<g id="node2" class="node">
<title>Node2</title>
<g id="a_node2"><a xlink:href="../../d0/d40/classParser.html#a0b1cb3d47420a05306264ecc1e66e8c5" target="_top" xlink:title="Builds the input matrices for the MyBLAS library from a JSON file.">
<polygon fill="white" stroke="black" points="12,-175.5 12,-194.5 119,-194.5 119,-175.5 12,-175.5"/>
<text text-anchor="middle" x="65.5" y="-182.5" font-family="Helvetica,sans-Serif" font-size="10.00">Parser::buildInputs</text>
</a>
</g>
</g>
<!-- Node1&#45;&gt;Node2 -->
<g id="edge1" class="edge">
<title>Node1&#45;&gt;Node2</title>
<path fill="none" stroke="midnightblue" d="M226.76,-107.71C204.22,-124.17 166.63,-149.82 131,-166 122.92,-169.67 113.96,-172.83 105.34,-175.47"/>
<polygon fill="midnightblue" stroke="midnightblue" points="228.94,-110.45 234.9,-101.69 224.78,-104.82 228.94,-110.45"/>
</g>
<!-- Node3 -->
<g id="node3" class="node">
<title>Node3</title>
<g id="a_node3"><a xlink:href="../../d7/da1/project_2project1_2Compute_8h.html#acddcb7395a0d22a81020f268fd96918a" target="_top" xlink:title="Solves the linear system.">
<polygon fill="white" stroke="black" points="11.5,-126 11.5,-156 119.5,-156 119.5,-126 11.5,-126"/>
<text text-anchor="start" x="19.5" y="-144" font-family="Helvetica,sans-Serif" font-size="10.00">naive_solve_linear</text>
<text text-anchor="middle" x="65.5" y="-133" font-family="Helvetica,sans-Serif" font-size="10.00">_system</text>
</a>
</g>
</g>
<!-- Node1&#45;&gt;Node3 -->
<g id="edge2" class="edge">
<title>Node1&#45;&gt;Node3</title>
<path fill="none" stroke="midnightblue" d="M202.19,-104.27C177.11,-111.06 145.8,-119.53 119.58,-126.63"/>
<polygon fill="midnightblue" stroke="midnightblue" points="203.43,-107.56 212.17,-101.56 201.6,-100.8 203.43,-107.56"/>
</g>
<!-- Node4 -->
<g id="node4" class="node">
<title>Node4</title>
<g id="a_node4"><a xlink:href="../../d1/d18/namespaceMyFactorizationMethod.html#af023ef80907979472242ab3db7dcd9ff" target="_top" xlink:title="Function to check if the factorized matrices pass the post&#45;checks for the factorization methods.">
<polygon fill="white" stroke="black" points="0,-77 0,-107 131,-107 131,-77 0,-77"/>
<text text-anchor="start" x="8" y="-95" font-family="Helvetica,sans-Serif" font-size="10.00">MyFactorizationMethod</text>
<text text-anchor="middle" x="65.5" y="-84" font-family="Helvetica,sans-Serif" font-size="10.00">::passesPostChecks</text>
</a>
</g>
</g>
<!-- Node1&#45;&gt;Node4 -->
<g id="edge3" class="edge">
<title>Node1&#45;&gt;Node4</title>
<path fill="none" stroke="midnightblue" d="M156.66,-92C148.01,-92 139.36,-92 131.03,-92"/>
<polygon fill="midnightblue" stroke="midnightblue" points="156.79,-95.5 166.79,-92 156.79,-88.5 156.79,-95.5"/>
</g>
<!-- Node5 -->
<g id="node5" class="node">
<title>Node5</title>
<g id="a_node5"><a xlink:href="../../d3/d1d/classOutLab5.html#aa1d5363426e0ce8f620d47c1b2aa2260" target="_top" xlink:title="This function runs the project.">
<polygon fill="white" stroke="black" points="26,-38.5 26,-57.5 105,-57.5 105,-38.5 26,-38.5"/>
<text text-anchor="middle" x="65.5" y="-45.5" font-family="Helvetica,sans-Serif" font-size="10.00">OutLab5::run</text>
</a>
</g>
</g>
<!-- Node1&#45;&gt;Node5 -->
<g id="edge4" class="edge">
<title>Node1&#45;&gt;Node5</title>
<path fill="none" stroke="midnightblue" d="M198.19,-80.01C168.89,-72.89 132.26,-63.99 105.08,-57.38"/>
<polygon fill="midnightblue" stroke="midnightblue" points="197.68,-83.49 208.23,-82.45 199.34,-76.69 197.68,-83.49"/>
</g>
<!-- Node6 -->
<g id="node6" class="node">
<title>Node6</title>
<g id="a_node6"><a xlink:href="../../d2/d6e/namespaceMyBLAS.html#ae0e21db4e593f8fce4d188406560a2ce" target="_top" xlink:title=" ">
<polygon fill="white" stroke="black" points="3.5,-0.5 3.5,-19.5 127.5,-19.5 127.5,-0.5 3.5,-0.5"/>
<text text-anchor="middle" x="65.5" y="-7.5" font-family="Helvetica,sans-Serif" font-size="10.00">MyBLAS::TYPED_TEST</text>
</a>
</g>
</g>
<!-- Node1&#45;&gt;Node6 -->
<g id="edge5" class="edge">
<title>Node1&#45;&gt;Node6</title>
<path fill="none" stroke="midnightblue" d="M223.44,-77.05C200.37,-63.19 164.26,-42.71 131,-29 122.37,-25.44 112.83,-22.25 103.8,-19.55"/>
<polygon fill="midnightblue" stroke="midnightblue" points="221.82,-80.16 232.18,-82.36 225.45,-74.18 221.82,-80.16"/>
</g>
</g>
</svg>
