<?xml version="1.0" encoding="UTF-8" standalone="no"?>
<!DOCTYPE svg PUBLIC "-//W3C//DTD SVG 1.1//EN"
 "http://www.w3.org/Graphics/SVG/1.1/DTD/svg11.dtd">
<!-- Generated by graphviz version 2.43.0 (0)
 -->
<!-- Title: MyBLAS::L2 Pages: 1 -->
<svg width="579pt" height="448pt"
 viewBox="0.00 0.00 579.00 447.50" xmlns="http://www.w3.org/2000/svg" xmlns:xlink="http://www.w3.org/1999/xlink">
<g id="graph0" class="graph" transform="scale(1 1) rotate(0) translate(4 443.5)">
<title>MyBLAS::L2</title>
<polygon fill="white" stroke="transparent" points="-4,4 -4,-443.5 575,-443.5 575,4 -4,4"/>
<!-- Node1 -->
<g id="node1" class="node">
<title>Node1</title>
<g id="a_node1"><a xlink:title="Calculates the L2 norm of the distance (Euclidean distance) between two containers.">
<polygon fill="#bfbfbf" stroke="black" points="497,-193.5 497,-212.5 571,-212.5 571,-193.5 497,-193.5"/>
<text text-anchor="middle" x="534" y="-200.5" font-family="Helvetica,sans-Serif" font-size="10.00">MyBLAS::L2</text>
</a>
</g>
</g>
<!-- Node2 -->
<g id="node2" class="node">
<title>Node2</title>
<g id="a_node2"><a xlink:href="../../d7/d9a/namespaceMyRelaxationMethod.html#ac76943650285426073d6d4965cbb6834" target="_top" xlink:title=" ">
<polygon fill="white" stroke="black" points="333.5,-409 333.5,-439 454.5,-439 454.5,-409 333.5,-409"/>
<text text-anchor="start" x="341.5" y="-427" font-family="Helvetica,sans-Serif" font-size="10.00">MyRelaxationMethod</text>
<text text-anchor="middle" x="394" y="-416" font-family="Helvetica,sans-Serif" font-size="10.00">::applyP2SOR</text>
</a>
</g>
</g>
<!-- Node1&#45;&gt;Node2 -->
<g id="edge1" class="edge">
<title>Node1&#45;&gt;Node2</title>
<path fill="none" stroke="midnightblue" d="M531.23,-222.82C526.69,-261.99 511.19,-349.89 461,-400 457.55,-403.45 453.56,-406.4 449.3,-408.93"/>
<polygon fill="midnightblue" stroke="midnightblue" points="534.72,-223.03 532.28,-212.72 527.76,-222.31 534.72,-223.03"/>
</g>
<!-- Node3 -->
<g id="node3" class="node">
<title>Node3</title>
<g id="a_node3"><a xlink:href="../../d7/d9a/namespaceMyRelaxationMethod.html#a37b1fd2ee5b2724d52808f9490c1c5a8" target="_top" xlink:title="This function applies the Point Jacobi method to solve a system of linear equations.">
<polygon fill="white" stroke="black" points="333.5,-213 333.5,-243 454.5,-243 454.5,-213 333.5,-213"/>
<text text-anchor="start" x="341.5" y="-231" font-family="Helvetica,sans-Serif" font-size="10.00">MyRelaxationMethod</text>
<text text-anchor="middle" x="394" y="-220" font-family="Helvetica,sans-Serif" font-size="10.00">::applyPointJacobi</text>
</a>
</g>
</g>
<!-- Node1&#45;&gt;Node3 -->
<g id="edge2" class="edge">
<title>Node1&#45;&gt;Node3</title>
<path fill="none" stroke="midnightblue" d="M486.77,-211.38C476.5,-213.23 465.48,-215.23 454.76,-217.17"/>
<polygon fill="midnightblue" stroke="midnightblue" points="487.53,-214.8 496.74,-209.57 486.28,-207.91 487.53,-214.8"/>
</g>
<!-- Node10 -->
<g id="node10" class="node">
<title>Node10</title>
<g id="a_node10"><a xlink:href="../../d7/d9a/namespaceMyRelaxationMethod.html#a243ad9b544328fb7b499b467e67ddd9c" target="_top" xlink:title=" ">
<polygon fill="white" stroke="black" points="333.5,-311 333.5,-341 454.5,-341 454.5,-311 333.5,-311"/>
<text text-anchor="start" x="341.5" y="-329" font-family="Helvetica,sans-Serif" font-size="10.00">MyRelaxationMethod</text>
<text text-anchor="middle" x="394" y="-318" font-family="Helvetica,sans-Serif" font-size="10.00">::applyPSOR</text>
</a>
</g>
</g>
<!-- Node1&#45;&gt;Node10 -->
<g id="edge12" class="edge">
<title>Node1&#45;&gt;Node10</title>
<path fill="none" stroke="midnightblue" d="M523.75,-221.41C511.94,-243.21 489.57,-279.29 461,-301 456.02,-304.78 450.41,-308.05 444.61,-310.85"/>
<polygon fill="midnightblue" stroke="midnightblue" points="526.88,-222.98 528.42,-212.5 520.68,-219.74 526.88,-222.98"/>
</g>
<!-- Node11 -->
<g id="node11" class="node">
<title>Node11</title>
<g id="a_node11"><a xlink:href="../../d7/d9a/namespaceMyRelaxationMethod.html#a8b6c4702b1a4d0420694761b497512c4" target="_top" xlink:title=" ">
<polygon fill="white" stroke="black" points="333.5,-360 333.5,-390 454.5,-390 454.5,-360 333.5,-360"/>
<text text-anchor="start" x="341.5" y="-378" font-family="Helvetica,sans-Serif" font-size="10.00">MyRelaxationMethod</text>
<text text-anchor="middle" x="394" y="-367" font-family="Helvetica,sans-Serif" font-size="10.00">::applySOR</text>
</a>
</g>
</g>
<!-- Node1&#45;&gt;Node11 -->
<g id="edge13" class="edge">
<title>Node1&#45;&gt;Node11</title>
<path fill="none" stroke="midnightblue" d="M528.34,-222.81C520.02,-254.02 499.73,-314.72 461,-350 456.74,-353.88 451.82,-357.17 446.63,-359.97"/>
<polygon fill="midnightblue" stroke="midnightblue" points="531.83,-223.29 530.88,-212.74 525.04,-221.58 531.83,-223.29"/>
</g>
<!-- Node14 -->
<g id="node14" class="node">
<title>Node14</title>
<g id="a_node14"><a xlink:href="../../d7/d9a/namespaceMyRelaxationMethod.html#ae0d661fe726935eb50716fa26511e640" target="_top" xlink:title=" ">
<polygon fill="white" stroke="black" points="327.5,-115 327.5,-145 460.5,-145 460.5,-115 327.5,-115"/>
<text text-anchor="start" x="335.5" y="-133" font-family="Helvetica,sans-Serif" font-size="10.00">MyRelaxationMethod</text>
<text text-anchor="middle" x="394" y="-122" font-family="Helvetica,sans-Serif" font-size="10.00">::applySORBlockParallel</text>
</a>
</g>
</g>
<!-- Node1&#45;&gt;Node14 -->
<g id="edge16" class="edge">
<title>Node1&#45;&gt;Node14</title>
<path fill="none" stroke="midnightblue" d="M512.49,-187.01C498.53,-176.65 479.33,-163.38 461,-154 454.71,-150.78 447.88,-147.78 441.08,-145.08"/>
<polygon fill="midnightblue" stroke="midnightblue" points="510.76,-190.09 520.84,-193.33 514.98,-184.51 510.76,-190.09"/>
</g>
<!-- Node16 -->
<g id="node16" class="node">
<title>Node16</title>
<g id="a_node16"><a xlink:href="../../d7/d9a/namespaceMyRelaxationMethod.html#aa22486c856620523255787ef5bdb1f64" target="_top" xlink:title="This function applies the Successive Over&#45;Relaxation (SOR) method to solve a system of linear equatio...">
<polygon fill="white" stroke="black" points="333.5,-164 333.5,-194 454.5,-194 454.5,-164 333.5,-164"/>
<text text-anchor="start" x="341.5" y="-182" font-family="Helvetica,sans-Serif" font-size="10.00">MyRelaxationMethod</text>
<text text-anchor="middle" x="394" y="-171" font-family="Helvetica,sans-Serif" font-size="10.00">::applySORSerial</text>
</a>
</g>
</g>
<!-- Node1&#45;&gt;Node16 -->
<g id="edge18" class="edge">
<title>Node1&#45;&gt;Node16</title>
<path fill="none" stroke="midnightblue" d="M486.77,-194.96C476.5,-193.17 465.48,-191.26 454.76,-189.39"/>
<polygon fill="midnightblue" stroke="midnightblue" points="486.29,-198.43 496.74,-196.69 487.49,-191.53 486.29,-198.43"/>
</g>
<!-- Node17 -->
<g id="node17" class="node">
<title>Node17</title>
<g id="a_node17"><a xlink:href="../../d7/d9a/namespaceMyRelaxationMethod.html#ac37edae4aec371352810b2f552647be4" target="_top" xlink:title="Applies the Symmetric Successive Over&#45;Relaxation (SSOR) method to solve a system of linear equations.">
<polygon fill="white" stroke="black" points="333.5,-262 333.5,-292 454.5,-292 454.5,-262 333.5,-262"/>
<text text-anchor="start" x="341.5" y="-280" font-family="Helvetica,sans-Serif" font-size="10.00">MyRelaxationMethod</text>
<text text-anchor="middle" x="394" y="-269" font-family="Helvetica,sans-Serif" font-size="10.00">::applySSOR</text>
</a>
</g>
</g>
<!-- Node1&#45;&gt;Node17 -->
<g id="edge19" class="edge">
<title>Node1&#45;&gt;Node17</title>
<path fill="none" stroke="midnightblue" d="M512.45,-218.91C498.47,-229.24 479.26,-242.5 461,-252 454.15,-255.56 446.68,-258.89 439.3,-261.87"/>
<polygon fill="midnightblue" stroke="midnightblue" points="514.93,-221.42 520.82,-212.61 510.72,-215.83 514.93,-221.42"/>
</g>
<!-- Node20 -->
<g id="node20" class="node">
<title>Node20</title>
<g id="a_node20"><a xlink:href="../../df/df1/structOutput.html#aa91aa39c068c79585b906df4c6fda232" target="_top" xlink:title="Calculates and returns the error of the solution.">
<polygon fill="white" stroke="black" points="327,-76.5 327,-95.5 461,-95.5 461,-76.5 327,-76.5"/>
<text text-anchor="middle" x="394" y="-83.5" font-family="Helvetica,sans-Serif" font-size="10.00">Output::getSolutionError</text>
</a>
</g>
</g>
<!-- Node1&#45;&gt;Node20 -->
<g id="edge23" class="edge">
<title>Node1&#45;&gt;Node20</title>
<path fill="none" stroke="midnightblue" d="M524.05,-184.19C512.52,-161.99 490.44,-125.52 461,-105 455.42,-101.11 449.06,-98.02 442.53,-95.55"/>
<polygon fill="midnightblue" stroke="midnightblue" points="520.98,-185.89 528.58,-193.27 527.25,-182.76 520.98,-185.89"/>
</g>
<!-- Node23 -->
<g id="node23" class="node">
<title>Node23</title>
<g id="a_node23"><a xlink:href="../../d2/d6e/namespaceMyBLAS.html#a4a13a3c077ee693c0297e4c68cbcc521" target="_top" xlink:title="Overloaded function that calculates the L2 norm (Euclidean distance) between two MyBLAS::Vector objec...">
<polygon fill="white" stroke="black" points="357,-38.5 357,-57.5 431,-57.5 431,-38.5 357,-38.5"/>
<text text-anchor="middle" x="394" y="-45.5" font-family="Helvetica,sans-Serif" font-size="10.00">MyBLAS::L2</text>
</a>
</g>
</g>
<!-- Node1&#45;&gt;Node23 -->
<g id="edge27" class="edge">
<title>Node1&#45;&gt;Node23</title>
<path fill="none" stroke="midnightblue" d="M527.99,-183.49C519.36,-153.87 498.88,-97.76 461,-67 452.48,-60.08 441.57,-55.69 431.07,-52.89"/>
<polygon fill="midnightblue" stroke="midnightblue" points="524.69,-184.72 530.72,-193.43 531.44,-182.86 524.69,-184.72"/>
</g>
<!-- Node24 -->
<g id="node24" class="node">
<title>Node24</title>
<g id="a_node24"><a xlink:href="../../d2/d6e/namespaceMyBLAS.html#a16a9e05487bec1dd53f7e66f6aa230ac" target="_top" xlink:title=" ">
<polygon fill="white" stroke="black" points="332,-0.5 332,-19.5 456,-19.5 456,-0.5 332,-0.5"/>
<text text-anchor="middle" x="394" y="-7.5" font-family="Helvetica,sans-Serif" font-size="10.00">MyBLAS::TYPED_TEST</text>
</a>
</g>
</g>
<!-- Node1&#45;&gt;Node24 -->
<g id="edge28" class="edge">
<title>Node1&#45;&gt;Node24</title>
<path fill="none" stroke="midnightblue" d="M530.46,-183.26C524.77,-147.23 507.63,-70.68 461,-29 456.64,-25.11 451.54,-22.01 446.13,-19.54"/>
<polygon fill="midnightblue" stroke="midnightblue" points="527.04,-184.04 531.93,-193.44 533.97,-183.04 527.04,-184.04"/>
</g>
<!-- Node4 -->
<g id="node4" class="node">
<title>Node4</title>
<g id="a_node4"><a xlink:href="../../de/db3/namespaceCompute.html#a3b30a49d004f8370d19cd13f6492ddba" target="_top" xlink:title="Solves a linear system using the Jacobi SOR method.">
<polygon fill="white" stroke="black" points="131.5,-180.5 131.5,-199.5 274.5,-199.5 274.5,-180.5 131.5,-180.5"/>
<text text-anchor="middle" x="203" y="-187.5" font-family="Helvetica,sans-Serif" font-size="10.00">Compute::usingJacobiSOR</text>
</a>
</g>
</g>
<!-- Node3&#45;&gt;Node4 -->
<g id="edge3" class="edge">
<title>Node3&#45;&gt;Node4</title>
<path fill="none" stroke="midnightblue" d="M323.34,-213.99C299.35,-209.17 273.05,-203.88 251.27,-199.5"/>
<polygon fill="midnightblue" stroke="midnightblue" points="322.96,-217.49 333.46,-216.03 324.34,-210.63 322.96,-217.49"/>
</g>
<!-- Node8 -->
<g id="node8" class="node">
<title>Node8</title>
<g id="a_node8"><a xlink:href="../../de/db3/namespaceCompute.html#a0aa73a107ee5ea0767e15b7caddeecc7" target="_top" xlink:title="This method applies the Point Jacobi relaxation method to the given input matrices.">
<polygon fill="white" stroke="black" points="129.5,-218.5 129.5,-237.5 276.5,-237.5 276.5,-218.5 129.5,-218.5"/>
<text text-anchor="middle" x="203" y="-225.5" font-family="Helvetica,sans-Serif" font-size="10.00">Compute::usingPointJacobi</text>
</a>
</g>
</g>
<!-- Node3&#45;&gt;Node8 -->
<g id="edge7" class="edge">
<title>Node3&#45;&gt;Node8</title>
<path fill="none" stroke="midnightblue" d="M323.11,-228C307.91,-228 291.8,-228 276.51,-228"/>
<polygon fill="midnightblue" stroke="midnightblue" points="323.46,-231.5 333.46,-228 323.46,-224.5 323.46,-231.5"/>
</g>
<!-- Node5 -->
<g id="node5" class="node">
<title>Node5</title>
<g id="a_node5"><a xlink:href="../../d0/d4c/classOutLab6.html#a901a1283fd029c9174f8469ac5cb3ad8" target="_top" xlink:title="This function runs the computation.">
<polygon fill="white" stroke="black" points="0,-142.5 0,-161.5 79,-161.5 79,-142.5 0,-142.5"/>
<text text-anchor="middle" x="39.5" y="-149.5" font-family="Helvetica,sans-Serif" font-size="10.00">OutLab6::run</text>
</a>
</g>
</g>
<!-- Node4&#45;&gt;Node5 -->
<g id="edge4" class="edge">
<title>Node4&#45;&gt;Node5</title>
<path fill="none" stroke="midnightblue" d="M151.49,-178.11C128.08,-172.61 100.72,-166.17 79.02,-161.06"/>
<polygon fill="midnightblue" stroke="midnightblue" points="150.71,-181.53 161.25,-180.41 152.31,-174.71 150.71,-181.53"/>
</g>
<!-- Node6 -->
<g id="node6" class="node">
<title>Node6</title>
<g id="a_node6"><a xlink:href="../../dd/db5/classProject2.html#a0990db917f6a27a4e1cb9ac885698524" target="_top" xlink:title="This function runs the project.">
<polygon fill="white" stroke="black" points="0.5,-180.5 0.5,-199.5 78.5,-199.5 78.5,-180.5 0.5,-180.5"/>
<text text-anchor="middle" x="39.5" y="-187.5" font-family="Helvetica,sans-Serif" font-size="10.00">Project2::run</text>
</a>
</g>
</g>
<!-- Node4&#45;&gt;Node6 -->
<g id="edge5" class="edge">
<title>Node4&#45;&gt;Node6</title>
<path fill="none" stroke="midnightblue" d="M121.01,-190C106.31,-190 91.63,-190 78.9,-190"/>
<polygon fill="midnightblue" stroke="midnightblue" points="121.16,-193.5 131.16,-190 121.16,-186.5 121.16,-193.5"/>
</g>
<!-- Node7 -->
<g id="node7" class="node">
<title>Node7</title>
<g id="a_node7"><a xlink:href="../../dd/dfb/classProject3.html#a8bcff99aaba60e7d5e5be3cb7552d163" target="_top" xlink:title="This function runs the project.">
<polygon fill="white" stroke="black" points="0.5,-256.5 0.5,-275.5 78.5,-275.5 78.5,-256.5 0.5,-256.5"/>
<text text-anchor="middle" x="39.5" y="-263.5" font-family="Helvetica,sans-Serif" font-size="10.00">Project3::run</text>
</a>
</g>
</g>
<!-- Node4&#45;&gt;Node7 -->
<g id="edge6" class="edge">
<title>Node4&#45;&gt;Node7</title>
<path fill="none" stroke="midnightblue" d="M127.52,-203.04C123.18,-204.78 118.97,-206.76 115,-209 94.74,-220.43 97.72,-233.19 79,-247 74.2,-250.54 68.64,-253.72 63.27,-256.43"/>
<polygon fill="midnightblue" stroke="midnightblue" points="128.95,-206.25 137.19,-199.58 126.6,-199.65 128.95,-206.25"/>
</g>
<!-- Node8&#45;&gt;Node5 -->
<g id="edge9" class="edge">
<title>Node8&#45;&gt;Node5</title>
<path fill="none" stroke="midnightblue" d="M127.52,-214.96C123.18,-213.22 118.97,-211.24 115,-209 94.74,-197.57 97.72,-184.81 79,-171 74.2,-167.46 68.64,-164.28 63.27,-161.57"/>
<polygon fill="midnightblue" stroke="midnightblue" points="126.6,-218.35 137.19,-218.42 128.95,-211.75 126.6,-218.35"/>
</g>
<!-- Node8&#45;&gt;Node6 -->
<g id="edge10" class="edge">
<title>Node8&#45;&gt;Node6</title>
<path fill="none" stroke="midnightblue" d="M146.8,-216.25C136.23,-213.91 125.26,-211.43 115,-209 102.53,-206.05 88.94,-202.64 76.81,-199.53"/>
<polygon fill="midnightblue" stroke="midnightblue" points="146.26,-219.71 156.78,-218.44 147.76,-212.87 146.26,-219.71"/>
</g>
<!-- Node8&#45;&gt;Node7 -->
<g id="edge11" class="edge">
<title>Node8&#45;&gt;Node7</title>
<path fill="none" stroke="midnightblue" d="M146.8,-239.75C136.23,-242.09 125.26,-244.57 115,-247 102.53,-249.95 88.94,-253.36 76.81,-256.47"/>
<polygon fill="midnightblue" stroke="midnightblue" points="147.76,-243.13 156.78,-237.56 146.26,-236.29 147.76,-243.13"/>
</g>
<!-- Node9 -->
<g id="node9" class="node">
<title>Node9</title>
<g id="a_node9"><a xlink:href="../../d1/d8c/classInLab6.html#a55667f27b7ba522dd4288f18d16c9f8d" target="_top" xlink:title="This function runs the project.">
<polygon fill="white" stroke="black" points="4,-218.5 4,-237.5 75,-237.5 75,-218.5 4,-218.5"/>
<text text-anchor="middle" x="39.5" y="-225.5" font-family="Helvetica,sans-Serif" font-size="10.00">InLab6::run</text>
</a>
</g>
</g>
<!-- Node8&#45;&gt;Node9 -->
<g id="edge8" class="edge">
<title>Node8&#45;&gt;Node9</title>
<path fill="none" stroke="midnightblue" d="M119.14,-228C103.69,-228 88.35,-228 75.37,-228"/>
<polygon fill="midnightblue" stroke="midnightblue" points="119.28,-231.5 129.28,-228 119.28,-224.5 119.28,-231.5"/>
</g>
<!-- Node12 -->
<g id="node12" class="node">
<title>Node12</title>
<g id="a_node12"><a xlink:href="../../de/db3/namespaceCompute.html#a017b511b9ab24d2388a864d6cb14c1cc" target="_top" xlink:title="Solves a linear system using the Gauss&#45;Seidel method.">
<polygon fill="white" stroke="black" points="126.5,-354.5 126.5,-373.5 279.5,-373.5 279.5,-354.5 126.5,-354.5"/>
<text text-anchor="middle" x="203" y="-361.5" font-family="Helvetica,sans-Serif" font-size="10.00">Compute::usingGaussSeidel</text>
</a>
</g>
</g>
<!-- Node11&#45;&gt;Node12 -->
<g id="edge14" class="edge">
<title>Node11&#45;&gt;Node12</title>
<path fill="none" stroke="midnightblue" d="M323.26,-370.94C309.03,-370.11 293.99,-369.24 279.56,-368.4"/>
<polygon fill="midnightblue" stroke="midnightblue" points="323.27,-374.45 333.46,-371.53 323.68,-367.46 323.27,-374.45"/>
</g>
<!-- Node13 -->
<g id="node13" class="node">
<title>Node13</title>
<g id="a_node13"><a xlink:href="../../de/db3/namespaceCompute.html#acfa0341940d2764e69d254afdc2cbb23" target="_top" xlink:title="Solves a linear system using the Successive Over&#45;Relaxation (SOR) method.">
<polygon fill="white" stroke="black" points="146.5,-392.5 146.5,-411.5 259.5,-411.5 259.5,-392.5 146.5,-392.5"/>
<text text-anchor="middle" x="203" y="-399.5" font-family="Helvetica,sans-Serif" font-size="10.00">Compute::usingSOR</text>
</a>
</g>
</g>
<!-- Node11&#45;&gt;Node13 -->
<g id="edge15" class="edge">
<title>Node11&#45;&gt;Node13</title>
<path fill="none" stroke="midnightblue" d="M323.33,-384.95C302.36,-387.95 279.64,-391.19 259.7,-394.04"/>
<polygon fill="midnightblue" stroke="midnightblue" points="324.05,-388.39 333.46,-383.51 323.06,-381.46 324.05,-388.39"/>
</g>
<!-- Node15 -->
<g id="node15" class="node">
<title>Node15</title>
<g id="a_node15"><a xlink:href="../../de/db3/namespaceCompute.html#a38a211087e8692a3768fbabed21d4a0c" target="_top" xlink:title="Solves a linear system using the Gauss&#45;Seidel method.">
<polygon fill="white" stroke="black" points="126.5,-131.5 126.5,-150.5 279.5,-150.5 279.5,-131.5 126.5,-131.5"/>
<text text-anchor="middle" x="203" y="-138.5" font-family="Helvetica,sans-Serif" font-size="10.00">Compute::usingGaussSeidel</text>
</a>
</g>
</g>
<!-- Node14&#45;&gt;Node15 -->
<g id="edge17" class="edge">
<title>Node14&#45;&gt;Node15</title>
<path fill="none" stroke="midnightblue" d="M317.14,-134.42C304.74,-135.14 291.9,-135.88 279.51,-136.61"/>
<polygon fill="midnightblue" stroke="midnightblue" points="317.65,-137.89 327.43,-133.82 317.24,-130.9 317.65,-137.89"/>
</g>
<!-- Node18 -->
<g id="node18" class="node">
<title>Node18</title>
<g id="a_node18"><a xlink:href="../../de/db3/namespaceCompute.html#af9b2fed99d9965f94cb5cfab410419a0" target="_top" xlink:title="Solves a linear system using the Symmetric Gauss&#45;Seidel method.">
<polygon fill="white" stroke="black" points="115,-295 115,-325 291,-325 291,-295 115,-295"/>
<text text-anchor="start" x="123" y="-313" font-family="Helvetica,sans-Serif" font-size="10.00">Compute::usingSymmetricGauss</text>
<text text-anchor="middle" x="203" y="-302" font-family="Helvetica,sans-Serif" font-size="10.00">Seidel</text>
</a>
</g>
</g>
<!-- Node17&#45;&gt;Node18 -->
<g id="edge20" class="edge">
<title>Node17&#45;&gt;Node18</title>
<path fill="none" stroke="midnightblue" d="M323.29,-289.17C312.52,-291.05 301.29,-293.01 290.2,-294.95"/>
<polygon fill="midnightblue" stroke="midnightblue" points="324.21,-292.56 333.46,-287.4 323.01,-285.67 324.21,-292.56"/>
</g>
<!-- Node19 -->
<g id="node19" class="node">
<title>Node19</title>
<g id="a_node19"><a xlink:href="../../de/db3/namespaceCompute.html#ab38c6016d5c4907c1f4f468600278560" target="_top" xlink:title="Solves a linear system using the Symmetric SOR method.">
<polygon fill="white" stroke="black" points="119.5,-256.5 119.5,-275.5 286.5,-275.5 286.5,-256.5 119.5,-256.5"/>
<text text-anchor="middle" x="203" y="-263.5" font-family="Helvetica,sans-Serif" font-size="10.00">Compute::usingSymmetricSOR</text>
</a>
</g>
</g>
<!-- Node17&#45;&gt;Node19 -->
<g id="edge22" class="edge">
<title>Node17&#45;&gt;Node19</title>
<path fill="none" stroke="midnightblue" d="M323.2,-272.94C311.34,-272.25 298.91,-271.52 286.76,-270.82"/>
<polygon fill="midnightblue" stroke="midnightblue" points="323.27,-276.45 333.46,-273.53 323.68,-269.46 323.27,-276.45"/>
</g>
<!-- Node18&#45;&gt;Node7 -->
<g id="edge21" class="edge">
<title>Node18&#45;&gt;Node7</title>
<path fill="none" stroke="midnightblue" d="M137.04,-292.3C116.07,-286.59 93.63,-280.47 75.66,-275.58"/>
<polygon fill="midnightblue" stroke="midnightblue" points="136.3,-295.73 146.87,-294.98 138.14,-288.98 136.3,-295.73"/>
</g>
<!-- Node21 -->
<g id="node21" class="node">
<title>Node21</title>
<g id="a_node21"><a xlink:href="../../d0/d4c/classOutLab6.html#a770effb030dbdb45bcecb764ed75d455" target="_top" xlink:title="This function prints the results of the computation.">
<polygon fill="white" stroke="black" points="142,-55.5 142,-74.5 264,-74.5 264,-55.5 142,-55.5"/>
<text text-anchor="middle" x="203" y="-62.5" font-family="Helvetica,sans-Serif" font-size="10.00">OutLab6::printResults</text>
</a>
</g>
</g>
<!-- Node20&#45;&gt;Node21 -->
<g id="edge24" class="edge">
<title>Node20&#45;&gt;Node21</title>
<path fill="none" stroke="midnightblue" d="M316.7,-77.52C299.18,-75.58 280.78,-73.53 264.06,-71.67"/>
<polygon fill="midnightblue" stroke="midnightblue" points="316.57,-81.03 326.9,-78.66 317.34,-74.07 316.57,-81.03"/>
</g>
<!-- Node22 -->
<g id="node22" class="node">
<title>Node22</title>
<g id="a_node22"><a xlink:href="../../df/df1/structOutput.html#a0412b8fd27d6e91551671da11cd8fe93" target="_top" xlink:title="Converts the output parameters to a JSON object.">
<polygon fill="white" stroke="black" points="158.5,-93.5 158.5,-112.5 247.5,-112.5 247.5,-93.5 158.5,-93.5"/>
<text text-anchor="middle" x="203" y="-100.5" font-family="Helvetica,sans-Serif" font-size="10.00">Output::toJSON</text>
</a>
</g>
</g>
<!-- Node20&#45;&gt;Node22 -->
<g id="edge26" class="edge">
<title>Node20&#45;&gt;Node22</title>
<path fill="none" stroke="midnightblue" d="M316.9,-92.84C293.32,-94.97 268.14,-97.23 247.56,-99.08"/>
<polygon fill="midnightblue" stroke="midnightblue" points="317.25,-96.33 326.9,-91.95 316.62,-89.36 317.25,-96.33"/>
</g>
<!-- Node21&#45;&gt;Node5 -->
<g id="edge25" class="edge">
<title>Node21&#45;&gt;Node5</title>
<path fill="none" stroke="midnightblue" d="M131.73,-76.93C125.93,-78.93 120.28,-81.27 115,-84 86.38,-98.81 60.42,-127.46 48.07,-142.4"/>
<polygon fill="midnightblue" stroke="midnightblue" points="133.08,-80.17 141.59,-73.86 131,-73.49 133.08,-80.17"/>
</g>
</g>
</svg>
