<?xml version="1.0" encoding="UTF-8" standalone="no"?>
<!DOCTYPE svg PUBLIC "-//W3C//DTD SVG 1.1//EN"
 "http://www.w3.org/Graphics/SVG/1.1/DTD/svg11.dtd">
<!-- Generated by graphviz version 2.43.0 (0)
 -->
<!-- Title: MyBLAS::norm Pages: 1 -->
<!--zoomable 288 -->
<svg id="main" version="1.1" xmlns="http://www.w3.org/2000/svg" xmlns:xlink="http://www.w3.org/1999/xlink" xml:space="preserve" onload="init(evt)">
<style type="text/css"><![CDATA[
.edge:hover path { stroke: red; }
.edge:hover polygon { stroke: red; fill: red; }
]]></style>
<script type="text/javascript"><![CDATA[
var edges = document.getElementsByTagName('g');
if (edges && edges.length) {
  for (var i=0;i<edges.length;i++) {
    if (edges[i].id.substr(0,4)=='edge') {
      edges[i].setAttribute('class','edge');
    }
  }
}
]]></script>
        <defs>
                <circle id="rim" cx="0" cy="0" r="7"/>
                <circle id="rim2" cx="0" cy="0" r="3.5"/>
                <g id="zoomPlus">
                        <use xlink:href="#rim" fill="#404040">
                                <set attributeName="fill" to="#808080" begin="zoomplus.mouseover" end="zoomplus.mouseout"/>
                        </use>
                        <path d="M-4,0h8M0,-4v8" fill="none" stroke="white" stroke-width="1.5" pointer-events="none"/>
                </g>
                <g id="zoomMin">
                        <use xlink:href="#rim" fill="#404040">
                                <set attributeName="fill" to="#808080" begin="zoomminus.mouseover" end="zoomminus.mouseout"/>
                        </use>
                        <path d="M-4,0h8" fill="none" stroke="white" stroke-width="1.5" pointer-events="none"/>
                </g>
                <g id="dirArrow">
                        <path fill="none" stroke="white" stroke-width="1.5" d="M0,-3.0v7 M-2.5,-0.5L0,-3.0L2.5,-0.5"/>
                </g>
               <g id="resetDef">
                       <use xlink:href="#rim2" fill="#404040">
                               <set attributeName="fill" to="#808080" begin="reset.mouseover" end="reset.mouseout"/>
                       </use>
               </g>
        </defs>

<script type="text/javascript">
var viewWidth = 844;
var viewHeight = 288;
var sectionId = 'dynsection-41';
</script>
<script xlink:href="../../svgpan.js"/>
<svg id="graph" class="graph">
<g id="viewport">
<title>MyBLAS::norm</title>
<polygon fill="white" stroke="transparent" points="-4,4 -4,-284 840,-284 840,4 -4,4"/>
<!-- Node1 -->
<g id="node1" class="node">
<title>Node1</title>
<g id="a_node1"><a xlink:title="A template function to calculate the norm of a vector.">
<polygon fill="#bfbfbf" stroke="black" points="747,-145.5 747,-164.5 836,-164.5 836,-145.5 747,-145.5"/>
<text text-anchor="middle" x="791.5" y="-152.5" font-family="Helvetica,sans-Serif" font-size="10.00">MyBLAS::norm</text>
</a>
</g>
</g>
<!-- Node2 -->
<g id="node2" class="node">
<title>Node2</title>
<g id="a_node2"><a xlink:href="../../db/df1/Helpers_8h.html#a059322c7104ae7ad1ee091c6e7ca17c1" target="_top" xlink:title="Calculates the number of iterations for a given point in the Julia set.">
<polygon fill="white" stroke="black" points="586.5,-232.5 586.5,-251.5 686.5,-251.5 686.5,-232.5 586.5,-232.5"/>
<text text-anchor="middle" x="636.5" y="-239.5" font-family="Helvetica,sans-Serif" font-size="10.00">juliaSetIterations</text>
</a>
</g>
</g>
<!-- Node1&#45;&gt;Node2 -->
<g id="edge1" class="edge">
<title>Node1&#45;&gt;Node2</title>
<path fill="none" stroke="midnightblue" d="M764.51,-169.78C733.13,-187.62 681.23,-217.13 654.53,-232.31"/>
<polygon fill="midnightblue" stroke="midnightblue" points="766.58,-172.63 773.54,-164.64 763.12,-166.54 766.58,-172.63"/>
</g>
<!-- Node4 -->
<g id="node4" class="node">
<title>Node4</title>
<g id="a_node4"><a xlink:href="../../d2/d6e/namespaceMyBLAS.html#ac6dacb7fc104126e5fa62e02f0ec1446" target="_top" xlink:title="Calculates the L2 norm (Euclidean distance) between two containers.">
<polygon fill="white" stroke="black" points="599.5,-145.5 599.5,-164.5 673.5,-164.5 673.5,-145.5 599.5,-145.5"/>
<text text-anchor="middle" x="636.5" y="-152.5" font-family="Helvetica,sans-Serif" font-size="10.00">MyBLAS::L2</text>
</a>
</g>
</g>
<!-- Node1&#45;&gt;Node4 -->
<g id="edge3" class="edge">
<title>Node1&#45;&gt;Node4</title>
<path fill="none" stroke="midnightblue" d="M736.64,-155C715.76,-155 692.4,-155 673.61,-155"/>
<polygon fill="midnightblue" stroke="midnightblue" points="736.66,-158.5 746.66,-155 736.66,-151.5 736.66,-158.5"/>
</g>
<!-- Node21 -->
<g id="node21" class="node">
<title>Node21</title>
<g id="a_node21"><a xlink:href="../../dc/d9f/classInLab4.html#a95f32ac7f4ed5eb5d1093d22a291a6cb" target="_top" xlink:title="This function prints the Mandelbrot set.">
<polygon fill="white" stroke="black" points="562,-107.5 562,-126.5 711,-126.5 711,-107.5 562,-107.5"/>
<text text-anchor="middle" x="636.5" y="-114.5" font-family="Helvetica,sans-Serif" font-size="10.00">InLab4::printMandelbrotSet</text>
</a>
</g>
</g>
<!-- Node1&#45;&gt;Node21 -->
<g id="edge23" class="edge">
<title>Node1&#45;&gt;Node21</title>
<path fill="none" stroke="midnightblue" d="M742.02,-142.96C720.65,-137.65 695.89,-131.5 675.83,-126.52"/>
<polygon fill="midnightblue" stroke="midnightblue" points="741.34,-146.4 751.89,-145.41 743.03,-139.6 741.34,-146.4"/>
</g>
<!-- Node3 -->
<g id="node3" class="node">
<title>Node3</title>
<g id="a_node3"><a xlink:href="../../db/df1/Helpers_8h.html#ae8d5abc9a487df9eaa8058819e252d0f" target="_top" xlink:title="Prints the Julia set to the console using the specified canvas properties.">
<polygon fill="white" stroke="black" points="421,-260.5 421,-279.5 497,-279.5 497,-260.5 421,-260.5"/>
<text text-anchor="middle" x="459" y="-267.5" font-family="Helvetica,sans-Serif" font-size="10.00">printJuliaSet</text>
</a>
</g>
</g>
<!-- Node2&#45;&gt;Node3 -->
<g id="edge2" class="edge">
<title>Node2&#45;&gt;Node3</title>
<path fill="none" stroke="midnightblue" d="M575.95,-251.5C549.8,-255.67 519.91,-260.44 497.02,-264.09"/>
<polygon fill="midnightblue" stroke="midnightblue" points="576.82,-254.91 586.15,-249.87 575.72,-247.99 576.82,-254.91"/>
</g>
<!-- Node5 -->
<g id="node5" class="node">
<title>Node5</title>
<g id="a_node5"><a xlink:href="../../d7/d9a/namespaceMyRelaxationMethod.html#a1ad90cacb42ba2b27223feb0d56320b9" target="_top" xlink:title="This function applies the Point Jacobi method to solve a system of linear equations.">
<polygon fill="white" stroke="black" points="398.5,-74 398.5,-104 519.5,-104 519.5,-74 398.5,-74"/>
<text text-anchor="start" x="406.5" y="-92" font-family="Helvetica,sans-Serif" font-size="10.00">MyRelaxationMethod</text>
<text text-anchor="middle" x="459" y="-81" font-family="Helvetica,sans-Serif" font-size="10.00">::applyPointJacobi</text>
</a>
</g>
</g>
<!-- Node4&#45;&gt;Node5 -->
<g id="edge4" class="edge">
<title>Node4&#45;&gt;Node5</title>
<path fill="none" stroke="midnightblue" d="M589.42,-145.32C580.17,-142.76 570.64,-139.66 562,-136 544.73,-128.68 542.84,-122.25 526,-114 518.85,-110.5 511.07,-107.16 503.45,-104.13"/>
<polygon fill="midnightblue" stroke="midnightblue" points="588.72,-148.76 599.28,-147.89 590.49,-141.98 588.72,-148.76"/>
</g>
<!-- Node11 -->
<g id="node11" class="node">
<title>Node11</title>
<g id="a_node11"><a xlink:href="../../d7/d9a/namespaceMyRelaxationMethod.html#a52bbc804a62498444281f3b3ac5c2c74" target="_top" xlink:title="This function applies the Successive Over&#45;Relaxation (SOR) method to solve a system of linear equatio...">
<polygon fill="white" stroke="black" points="398.5,-211 398.5,-241 519.5,-241 519.5,-211 398.5,-211"/>
<text text-anchor="start" x="406.5" y="-229" font-family="Helvetica,sans-Serif" font-size="10.00">MyRelaxationMethod</text>
<text text-anchor="middle" x="459" y="-218" font-family="Helvetica,sans-Serif" font-size="10.00">::applySOR</text>
</a>
</g>
</g>
<!-- Node4&#45;&gt;Node11 -->
<g id="edge12" class="edge">
<title>Node4&#45;&gt;Node11</title>
<path fill="none" stroke="midnightblue" d="M604.83,-168.71C582.99,-178.35 552.85,-191.36 526,-202 518.41,-205.01 510.26,-208.09 502.38,-210.99"/>
<polygon fill="midnightblue" stroke="midnightblue" points="606.52,-171.8 614.25,-164.55 603.69,-165.4 606.52,-171.8"/>
</g>
<!-- Node15 -->
<g id="node15" class="node">
<title>Node15</title>
<g id="a_node15"><a xlink:href="../../d7/d9a/namespaceMyRelaxationMethod.html#a6ce139c8c66799c77605e84daa52c54c" target="_top" xlink:title="Applies the Symmetric Successive Over&#45;Relaxation (SSOR) method to solve a system of linear equations.">
<polygon fill="white" stroke="black" points="398.5,-162 398.5,-192 519.5,-192 519.5,-162 398.5,-162"/>
<text text-anchor="start" x="406.5" y="-180" font-family="Helvetica,sans-Serif" font-size="10.00">MyRelaxationMethod</text>
<text text-anchor="middle" x="459" y="-169" font-family="Helvetica,sans-Serif" font-size="10.00">::applySSOR</text>
</a>
</g>
</g>
<!-- Node4&#45;&gt;Node15 -->
<g id="edge16" class="edge">
<title>Node4&#45;&gt;Node15</title>
<path fill="none" stroke="midnightblue" d="M589.08,-160.82C567.85,-163.48 542.45,-166.66 519.81,-169.5"/>
<polygon fill="midnightblue" stroke="midnightblue" points="589.65,-164.28 599.14,-159.56 588.78,-157.33 589.65,-164.28"/>
</g>
<!-- Node17 -->
<g id="node17" class="node">
<title>Node17</title>
<g id="a_node17"><a xlink:href="../../df/df1/structOutput.html#aa91aa39c068c79585b906df4c6fda232" target="_top" xlink:title="Calculates and returns the error of the solution.">
<polygon fill="white" stroke="black" points="392,-35.5 392,-54.5 526,-54.5 526,-35.5 392,-35.5"/>
<text text-anchor="middle" x="459" y="-42.5" font-family="Helvetica,sans-Serif" font-size="10.00">Output::getSolutionError</text>
</a>
</g>
</g>
<!-- Node4&#45;&gt;Node17 -->
<g id="edge18" class="edge">
<title>Node4&#45;&gt;Node17</title>
<path fill="none" stroke="midnightblue" d="M589.62,-149.51C579.75,-146.67 569.92,-142.4 562,-136 534.18,-113.5 553.51,-86.88 526,-64 521.32,-60.11 515.89,-57.02 510.19,-54.56"/>
<polygon fill="midnightblue" stroke="midnightblue" points="588.89,-152.93 599.43,-151.9 590.54,-146.13 588.89,-152.93"/>
</g>
<!-- Node20 -->
<g id="node20" class="node">
<title>Node20</title>
<g id="a_node20"><a xlink:href="../../d2/d6e/namespaceMyBLAS.html#a4a13a3c077ee693c0297e4c68cbcc521" target="_top" xlink:title="Overloaded function that calculates the L2 norm (Euclidean distance) between two MyBLAS::Vector objec...">
<polygon fill="white" stroke="black" points="422,-123.5 422,-142.5 496,-142.5 496,-123.5 422,-123.5"/>
<text text-anchor="middle" x="459" y="-130.5" font-family="Helvetica,sans-Serif" font-size="10.00">MyBLAS::L2</text>
</a>
</g>
</g>
<!-- Node4&#45;&gt;Node20 -->
<g id="edge22" class="edge">
<title>Node4&#45;&gt;Node20</title>
<path fill="none" stroke="midnightblue" d="M589.18,-149.19C560.03,-145.54 522.96,-140.89 496.02,-137.51"/>
<polygon fill="midnightblue" stroke="midnightblue" points="588.78,-152.67 599.14,-150.44 589.65,-145.72 588.78,-152.67"/>
</g>
<!-- Node6 -->
<g id="node6" class="node">
<title>Node6</title>
<g id="a_node6"><a xlink:href="../../de/db3/namespaceCompute.html#a3b30a49d004f8370d19cd13f6492ddba" target="_top" xlink:title="Solves a linear system using the Jacobi SOR method.">
<polygon fill="white" stroke="black" points="201,-76.5 201,-95.5 344,-95.5 344,-76.5 201,-76.5"/>
<text text-anchor="middle" x="272.5" y="-83.5" font-family="Helvetica,sans-Serif" font-size="10.00">Compute::usingJacobiSOR</text>
</a>
</g>
</g>
<!-- Node5&#45;&gt;Node6 -->
<g id="edge5" class="edge">
<title>Node5&#45;&gt;Node6</title>
<path fill="none" stroke="midnightblue" d="M388.06,-87.86C373.7,-87.63 358.58,-87.38 344.2,-87.15"/>
<polygon fill="midnightblue" stroke="midnightblue" points="388.3,-91.37 398.35,-88.03 388.41,-84.37 388.3,-91.37"/>
</g>
<!-- Node9 -->
<g id="node9" class="node">
<title>Node9</title>
<g id="a_node9"><a xlink:href="../../de/db3/namespaceCompute.html#a0aa73a107ee5ea0767e15b7caddeecc7" target="_top" xlink:title="This method applies the Point Jacobi relaxation method to the given input matrices.">
<polygon fill="white" stroke="black" points="199,-114.5 199,-133.5 346,-133.5 346,-114.5 199,-114.5"/>
<text text-anchor="middle" x="272.5" y="-121.5" font-family="Helvetica,sans-Serif" font-size="10.00">Compute::usingPointJacobi</text>
</a>
</g>
</g>
<!-- Node5&#45;&gt;Node9 -->
<g id="edge8" class="edge">
<title>Node5&#45;&gt;Node9</title>
<path fill="none" stroke="midnightblue" d="M388.29,-102.22C366.8,-106.3 343.57,-110.71 323.67,-114.48"/>
<polygon fill="midnightblue" stroke="midnightblue" points="389.18,-105.62 398.35,-100.32 387.88,-98.74 389.18,-105.62"/>
</g>
<!-- Node7 -->
<g id="node7" class="node">
<title>Node7</title>
<g id="a_node7"><a xlink:href="../../d0/d4c/classOutLab6.html#a901a1283fd029c9174f8469ac5cb3ad8" target="_top" xlink:title="This function runs the computation.">
<polygon fill="white" stroke="black" points="37,-57.5 37,-76.5 116,-76.5 116,-57.5 37,-57.5"/>
<text text-anchor="middle" x="76.5" y="-64.5" font-family="Helvetica,sans-Serif" font-size="10.00">OutLab6::run</text>
</a>
</g>
</g>
<!-- Node6&#45;&gt;Node7 -->
<g id="edge6" class="edge">
<title>Node6&#45;&gt;Node7</title>
<path fill="none" stroke="midnightblue" d="M190.74,-78.09C164.94,-75.56 137.56,-72.88 116.18,-70.79"/>
<polygon fill="midnightblue" stroke="midnightblue" points="190.62,-81.6 200.91,-79.09 191.3,-74.63 190.62,-81.6"/>
</g>
<!-- Node8 -->
<g id="node8" class="node">
<title>Node8</title>
<g id="a_node8"><a xlink:href="../../dd/db5/classProject2.html#a0990db917f6a27a4e1cb9ac885698524" target="_top" xlink:title="This function runs the project.">
<polygon fill="white" stroke="black" points="37.5,-95.5 37.5,-114.5 115.5,-114.5 115.5,-95.5 37.5,-95.5"/>
<text text-anchor="middle" x="76.5" y="-102.5" font-family="Helvetica,sans-Serif" font-size="10.00">Project2::run</text>
</a>
</g>
</g>
<!-- Node6&#45;&gt;Node8 -->
<g id="edge7" class="edge">
<title>Node6&#45;&gt;Node8</title>
<path fill="none" stroke="midnightblue" d="M190.66,-93.92C164.66,-96.46 137.06,-99.17 115.63,-101.27"/>
<polygon fill="midnightblue" stroke="midnightblue" points="191.3,-97.37 200.91,-92.91 190.62,-90.4 191.3,-97.37"/>
</g>
<!-- Node9&#45;&gt;Node7 -->
<g id="edge10" class="edge">
<title>Node9&#45;&gt;Node7</title>
<path fill="none" stroke="midnightblue" d="M210.93,-111.96C203.46,-109.92 195.99,-107.6 189,-105 172.04,-98.69 169.89,-92.48 153,-86 141.26,-81.5 128.09,-77.76 116.07,-74.83"/>
<polygon fill="midnightblue" stroke="midnightblue" points="210.16,-115.37 220.72,-114.49 211.91,-108.6 210.16,-115.37"/>
</g>
<!-- Node9&#45;&gt;Node8 -->
<g id="edge11" class="edge">
<title>Node9&#45;&gt;Node8</title>
<path fill="none" stroke="midnightblue" d="M188.93,-115.91C163.45,-113.42 136.62,-110.79 115.67,-108.74"/>
<polygon fill="midnightblue" stroke="midnightblue" points="188.69,-119.41 198.99,-116.9 189.37,-112.44 188.69,-119.41"/>
</g>
<!-- Node10 -->
<g id="node10" class="node">
<title>Node10</title>
<g id="a_node10"><a xlink:href="../../d1/d8c/classInLab6.html#a55667f27b7ba522dd4288f18d16c9f8d" target="_top" xlink:title="This function runs the project.">
<polygon fill="white" stroke="black" points="41,-133.5 41,-152.5 112,-152.5 112,-133.5 41,-133.5"/>
<text text-anchor="middle" x="76.5" y="-140.5" font-family="Helvetica,sans-Serif" font-size="10.00">InLab6::run</text>
</a>
</g>
</g>
<!-- Node9&#45;&gt;Node10 -->
<g id="edge9" class="edge">
<title>Node9&#45;&gt;Node10</title>
<path fill="none" stroke="midnightblue" d="M188.78,-132.1C161.92,-134.73 133.57,-137.51 112.21,-139.6"/>
<polygon fill="midnightblue" stroke="midnightblue" points="189.37,-135.56 198.99,-131.1 188.69,-128.59 189.37,-135.56"/>
</g>
<!-- Node12 -->
<g id="node12" class="node">
<title>Node12</title>
<g id="a_node12"><a xlink:href="../../d7/d9a/namespaceMyRelaxationMethod.html#a1b6a833ea067f34c45415750d85b51fa" target="_top" xlink:title="This function applies the Gauss&#45;Seidel method to solve a system of linear equations.">
<polygon fill="white" stroke="black" points="212,-249 212,-279 333,-279 333,-249 212,-249"/>
<text text-anchor="start" x="220" y="-267" font-family="Helvetica,sans-Serif" font-size="10.00">MyRelaxationMethod</text>
<text text-anchor="middle" x="272.5" y="-256" font-family="Helvetica,sans-Serif" font-size="10.00">::applyGaussSeidel</text>
</a>
</g>
</g>
<!-- Node11&#45;&gt;Node12 -->
<g id="edge13" class="edge">
<title>Node11&#45;&gt;Node12</title>
<path fill="none" stroke="midnightblue" d="M388.41,-240.33C370.26,-244.07 350.85,-248.07 333.26,-251.69"/>
<polygon fill="midnightblue" stroke="midnightblue" points="389.26,-243.73 398.35,-238.29 387.85,-236.87 389.26,-243.73"/>
</g>
<!-- Node14 -->
<g id="node14" class="node">
<title>Node14</title>
<g id="a_node14"><a xlink:href="../../de/db3/namespaceCompute.html#acfa0341940d2764e69d254afdc2cbb23" target="_top" xlink:title="Solves a linear system using the Successive Over&#45;Relaxation (SOR) method.">
<polygon fill="white" stroke="black" points="216,-210.5 216,-229.5 329,-229.5 329,-210.5 216,-210.5"/>
<text text-anchor="middle" x="272.5" y="-217.5" font-family="Helvetica,sans-Serif" font-size="10.00">Compute::usingSOR</text>
</a>
</g>
</g>
<!-- Node11&#45;&gt;Node14 -->
<g id="edge15" class="edge">
<title>Node11&#45;&gt;Node14</title>
<path fill="none" stroke="midnightblue" d="M388.29,-223.73C368.76,-223.1 347.79,-222.42 329.18,-221.81"/>
<polygon fill="midnightblue" stroke="midnightblue" points="388.24,-227.23 398.35,-224.06 388.47,-220.24 388.24,-227.23"/>
</g>
<!-- Node13 -->
<g id="node13" class="node">
<title>Node13</title>
<g id="a_node13"><a xlink:href="../../de/db3/namespaceCompute.html#a017b511b9ab24d2388a864d6cb14c1cc" target="_top" xlink:title="Solves a linear system using the Gauss&#45;Seidel method.">
<polygon fill="white" stroke="black" points="0,-254.5 0,-273.5 153,-273.5 153,-254.5 0,-254.5"/>
<text text-anchor="middle" x="76.5" y="-261.5" font-family="Helvetica,sans-Serif" font-size="10.00">Compute::usingGaussSeidel</text>
</a>
</g>
</g>
<!-- Node12&#45;&gt;Node13 -->
<g id="edge14" class="edge">
<title>Node12&#45;&gt;Node13</title>
<path fill="none" stroke="midnightblue" d="M201.76,-264C185.95,-264 169.09,-264 153.05,-264"/>
<polygon fill="midnightblue" stroke="midnightblue" points="201.98,-267.5 211.98,-264 201.98,-260.5 201.98,-267.5"/>
</g>
<!-- Node16 -->
<g id="node16" class="node">
<title>Node16</title>
<g id="a_node16"><a xlink:href="../../de/db3/namespaceCompute.html#ab38c6016d5c4907c1f4f468600278560" target="_top" xlink:title="Solves a linear system using the Symmetric SOR method.">
<polygon fill="white" stroke="black" points="189,-167.5 189,-186.5 356,-186.5 356,-167.5 189,-167.5"/>
<text text-anchor="middle" x="272.5" y="-174.5" font-family="Helvetica,sans-Serif" font-size="10.00">Compute::usingSymmetricSOR</text>
</a>
</g>
</g>
<!-- Node15&#45;&gt;Node16 -->
<g id="edge17" class="edge">
<title>Node15&#45;&gt;Node16</title>
<path fill="none" stroke="midnightblue" d="M388.07,-177C377.63,-177 366.78,-177 356.1,-177"/>
<polygon fill="midnightblue" stroke="midnightblue" points="388.35,-180.5 398.35,-177 388.35,-173.5 388.35,-180.5"/>
</g>
<!-- Node18 -->
<g id="node18" class="node">
<title>Node18</title>
<g id="a_node18"><a xlink:href="../../d0/d4c/classOutLab6.html#a770effb030dbdb45bcecb764ed75d455" target="_top" xlink:title="This function prints the results of the computation.">
<polygon fill="white" stroke="black" points="211.5,-0.5 211.5,-19.5 333.5,-19.5 333.5,-0.5 211.5,-0.5"/>
<text text-anchor="middle" x="272.5" y="-7.5" font-family="Helvetica,sans-Serif" font-size="10.00">OutLab6::printResults</text>
</a>
</g>
</g>
<!-- Node17&#45;&gt;Node18 -->
<g id="edge19" class="edge">
<title>Node17&#45;&gt;Node18</title>
<path fill="none" stroke="midnightblue" d="M397.58,-33.54C373.72,-29.01 346.63,-23.87 323.85,-19.55"/>
<polygon fill="midnightblue" stroke="midnightblue" points="397.11,-37.01 407.58,-35.44 398.41,-30.13 397.11,-37.01"/>
</g>
<!-- Node19 -->
<g id="node19" class="node">
<title>Node19</title>
<g id="a_node19"><a xlink:href="../../df/df1/structOutput.html#a0412b8fd27d6e91551671da11cd8fe93" target="_top" xlink:title="Converts the output parameters to a JSON object.">
<polygon fill="white" stroke="black" points="228,-38.5 228,-57.5 317,-57.5 317,-38.5 228,-38.5"/>
<text text-anchor="middle" x="272.5" y="-45.5" font-family="Helvetica,sans-Serif" font-size="10.00">Output::toJSON</text>
</a>
</g>
</g>
<!-- Node17&#45;&gt;Node19 -->
<g id="edge21" class="edge">
<title>Node17&#45;&gt;Node19</title>
<path fill="none" stroke="midnightblue" d="M381.9,-46.24C359.87,-46.6 336.57,-46.97 317.24,-47.29"/>
<polygon fill="midnightblue" stroke="midnightblue" points="381.97,-49.74 391.91,-46.07 381.86,-42.74 381.97,-49.74"/>
</g>
<!-- Node18&#45;&gt;Node7 -->
<g id="edge20" class="edge">
<title>Node18&#45;&gt;Node7</title>
<path fill="none" stroke="midnightblue" d="M216.46,-21.85C207.25,-24.07 197.82,-26.49 189,-29 159.1,-37.51 125.4,-49.31 102.95,-57.5"/>
<polygon fill="midnightblue" stroke="midnightblue" points="217.4,-25.23 226.33,-19.53 215.79,-18.41 217.4,-25.23"/>
</g>
</g>
</svg>
        <g id="navigator" transform="translate(0 0)" fill="#404254">
                <rect fill="#f2f5e9" fill-opacity="0.5" stroke="#606060" stroke-width=".5" x="0" y="0" width="60" height="60"/>
                <use id="zoomplus" xlink:href="#zoomPlus" x="17" y="9" onmousedown="handleZoom(evt,'in')"/>
                <use id="zoomminus" xlink:href="#zoomMin" x="42" y="9" onmousedown="handleZoom(evt,'out')"/>
                <use id="reset" xlink:href="#resetDef" x="30" y="36" onmousedown="handleReset()"/>
                <g id="arrowUp" xlink:href="#dirArrow" transform="translate(30 24)" onmousedown="handlePan(0,-1)">
                  <use xlink:href="#rim" fill="#404040">
                        <set attributeName="fill" to="#808080" begin="arrowUp.mouseover" end="arrowUp.mouseout"/>
                  </use>
                  <path fill="none" stroke="white" stroke-width="1.5" d="M0,-3.0v7 M-2.5,-0.5L0,-3.0L2.5,-0.5"/>
                </g>
                <g id="arrowRight" xlink:href="#dirArrow" transform="rotate(90) translate(36 -43)" onmousedown="handlePan(1,0)">
                  <use xlink:href="#rim" fill="#404040">
                        <set attributeName="fill" to="#808080" begin="arrowRight.mouseover" end="arrowRight.mouseout"/>
                  </use>
                  <path fill="none" stroke="white" stroke-width="1.5" d="M0,-3.0v7 M-2.5,-0.5L0,-3.0L2.5,-0.5"/>
                </g>
                <g id="arrowDown" xlink:href="#dirArrow" transform="rotate(180) translate(-30 -48)" onmousedown="handlePan(0,1)">
                  <use xlink:href="#rim" fill="#404040">
                        <set attributeName="fill" to="#808080" begin="arrowDown.mouseover" end="arrowDown.mouseout"/>
                  </use>
                  <path fill="none" stroke="white" stroke-width="1.5" d="M0,-3.0v7 M-2.5,-0.5L0,-3.0L2.5,-0.5"/>
                </g>
                <g id="arrowLeft" xlink:href="#dirArrow" transform="rotate(270) translate(-36 17)" onmousedown="handlePan(-1,0)">
                  <use xlink:href="#rim" fill="#404040">
                        <set attributeName="fill" to="#808080" begin="arrowLeft.mouseover" end="arrowLeft.mouseout"/>
                  </use>
                  <path fill="none" stroke="white" stroke-width="1.5" d="M0,-3.0v7 M-2.5,-0.5L0,-3.0L2.5,-0.5"/>
                </g>
        </g>
        <svg viewBox="0 0 15 15" width="100%" height="30px" preserveAspectRatio="xMaxYMin meet">
         <g id="arrow_out" transform="scale(0.3 0.3)">
          <a xlink:href="namespaceMyBLAS_ac12a3b113ae6b7edd2fcb21280c0f804_icgraph_org.svg" target="_base">
           <rect id="button" ry="5" rx="5" y="6" x="6" height="38" width="38"
                fill="#f2f5e9" fill-opacity="0.5" stroke="#606060" stroke-width="1.0"/>
           <path id="arrow"
             d="M 11.500037,31.436501 C 11.940474,20.09759 22.043105,11.32322 32.158766,21.979434 L 37.068811,17.246167 C 37.068811,17.246167 37.088388,32 37.088388,32 L 22.160133,31.978069 C 22.160133,31.978069 26.997745,27.140456 26.997745,27.140456 C 18.528582,18.264221 13.291696,25.230495 11.500037,31.436501 z"
             style="fill:#404040;"/>
          </a>
         </g>
        </svg>
</svg>
