<?xml version="1.0" encoding="UTF-8" standalone="no"?>
<!DOCTYPE svg PUBLIC "-//W3C//DTD SVG 1.1//EN"
 "http://www.w3.org/Graphics/SVG/1.1/DTD/svg11.dtd">
<!-- Generated by graphviz version 2.43.0 (0)
 -->
<!-- Title: src/utils/math/relaxation/SSOR.h Pages: 1 -->
<svg width="1219pt" height="307pt"
 viewBox="0.00 0.00 1218.50 307.00" xmlns="http://www.w3.org/2000/svg" xmlns:xlink="http://www.w3.org/1999/xlink">
<g id="graph0" class="graph" transform="scale(1 1) rotate(0) translate(4 303)">
<title>src/utils/math/relaxation/SSOR.h</title>
<polygon fill="white" stroke="transparent" points="-4,4 -4,-303 1214.5,-303 1214.5,4 -4,4"/>
<!-- Node1 -->
<g id="node1" class="node">
<title>Node1</title>
<g id="a_node1"><a xlink:title="This file contains the implementation of the Symmetric Successive Over&#45;Relaxation (SSOR) method for s...">
<polygon fill="#bfbfbf" stroke="black" points="580.5,-268.5 580.5,-298.5 716.5,-298.5 716.5,-268.5 580.5,-268.5"/>
<text text-anchor="start" x="588.5" y="-286.5" font-family="Helvetica,sans-Serif" font-size="10.00">src/utils/math/relaxation</text>
<text text-anchor="middle" x="648.5" y="-275.5" font-family="Helvetica,sans-Serif" font-size="10.00">/SSOR.h</text>
</a>
</g>
</g>
<!-- Node2 -->
<g id="node2" class="node">
<title>Node2</title>
<g id="a_node2"><a xlink:href="../../d9/d4c/labs_2inlab13_2Compute_8h.html" target="_top" xlink:title="Compute methods for inlab13 in NE591&#45;008.">
<polygon fill="white" stroke="black" points="43,-207 43,-226 192,-226 192,-207 43,-207"/>
<text text-anchor="middle" x="117.5" y="-214" font-family="Helvetica,sans-Serif" font-size="10.00">src/labs/inlab13/Compute.h</text>
</a>
</g>
</g>
<!-- Node1&#45;&gt;Node2 -->
<g id="edge1" class="edge">
<title>Node1&#45;&gt;Node2</title>
<path fill="none" stroke="midnightblue" d="M570.06,-273.54C484.92,-263.73 344.98,-247.34 224.5,-232 209.81,-230.13 194,-228.03 179.15,-226.03"/>
<polygon fill="midnightblue" stroke="midnightblue" points="569.83,-277.04 580.16,-274.7 570.63,-270.08 569.83,-277.04"/>
</g>
<!-- Node6 -->
<g id="node6" class="node">
<title>Node6</title>
<g id="a_node6"><a xlink:href="../../dc/da1/labs_2outlab13_2Compute_8h.html" target="_top" xlink:title="Compute methods for outlab13 in NE591&#45;008.">
<polygon fill="white" stroke="black" points="233.5,-207 233.5,-226 389.5,-226 389.5,-207 233.5,-207"/>
<text text-anchor="middle" x="311.5" y="-214" font-family="Helvetica,sans-Serif" font-size="10.00">src/labs/outlab13/Compute.h</text>
</a>
</g>
</g>
<!-- Node1&#45;&gt;Node6 -->
<g id="edge6" class="edge">
<title>Node1&#45;&gt;Node6</title>
<path fill="none" stroke="midnightblue" d="M570.27,-267.41C503.7,-254.57 410.45,-236.59 355.97,-226.08"/>
<polygon fill="midnightblue" stroke="midnightblue" points="569.82,-270.89 580.3,-269.35 571.15,-264.02 569.82,-270.89"/>
</g>
<!-- Node10 -->
<g id="node10" class="node">
<title>Node10</title>
<g id="a_node10"><a xlink:href="../../dc/d21/labs_2outlab6_2Compute_8h.html" target="_top" xlink:title="This file contains the Compute namespace which includes methods for solving linear systems using vari...">
<polygon fill="white" stroke="black" points="419.5,-207 419.5,-226 569.5,-226 569.5,-207 419.5,-207"/>
<text text-anchor="middle" x="494.5" y="-214" font-family="Helvetica,sans-Serif" font-size="10.00">src/labs/outlab6/Compute.h</text>
</a>
</g>
</g>
<!-- Node1&#45;&gt;Node10 -->
<g id="edge11" class="edge">
<title>Node1&#45;&gt;Node10</title>
<path fill="none" stroke="midnightblue" d="M605.76,-264.46C576,-251.9 537.68,-235.72 514.66,-226.01"/>
<polygon fill="midnightblue" stroke="midnightblue" points="604.51,-267.73 615.08,-268.4 607.23,-261.28 604.51,-267.73"/>
</g>
<!-- Node13 -->
<g id="node13" class="node">
<title>Node13</title>
<g id="a_node13"><a xlink:href="../../db/d6e/project_2project2_2Compute_8h.html" target="_top" xlink:title="Compute methods for project milestone 1 in NE591&#45;008.">
<polygon fill="white" stroke="black" points="593.5,-201.5 593.5,-231.5 703.5,-231.5 703.5,-201.5 593.5,-201.5"/>
<text text-anchor="start" x="601.5" y="-219.5" font-family="Helvetica,sans-Serif" font-size="10.00">src/project/project2</text>
<text text-anchor="middle" x="648.5" y="-208.5" font-family="Helvetica,sans-Serif" font-size="10.00">/Compute.h</text>
</a>
</g>
</g>
<!-- Node1&#45;&gt;Node13 -->
<g id="edge14" class="edge">
<title>Node1&#45;&gt;Node13</title>
<path fill="none" stroke="midnightblue" d="M648.5,-258.11C648.5,-249.15 648.5,-239.32 648.5,-231.58"/>
<polygon fill="midnightblue" stroke="midnightblue" points="645,-258.4 648.5,-268.4 652,-258.4 645,-258.4"/>
</g>
<!-- Node17 -->
<g id="node17" class="node">
<title>Node17</title>
<g id="a_node17"><a xlink:href="../../d8/d8f/project_2project3_2Compute_8h.html" target="_top" xlink:title="Compute methods for project milestone 3 in NE591&#45;008.">
<polygon fill="white" stroke="black" points="727.5,-201.5 727.5,-231.5 837.5,-231.5 837.5,-201.5 727.5,-201.5"/>
<text text-anchor="start" x="735.5" y="-219.5" font-family="Helvetica,sans-Serif" font-size="10.00">src/project/project3</text>
<text text-anchor="middle" x="782.5" y="-208.5" font-family="Helvetica,sans-Serif" font-size="10.00">/Compute.h</text>
</a>
</g>
</g>
<!-- Node1&#45;&gt;Node17 -->
<g id="edge19" class="edge">
<title>Node1&#45;&gt;Node17</title>
<path fill="none" stroke="midnightblue" d="M686.65,-263.99C707.89,-253.69 733.91,-241.07 753.48,-231.58"/>
<polygon fill="midnightblue" stroke="midnightblue" points="685.05,-260.88 677.58,-268.4 688.1,-267.18 685.05,-260.88"/>
</g>
<!-- Node21 -->
<g id="node21" class="node">
<title>Node21</title>
<g id="a_node21"><a xlink:href="../../df/def/project_2project4_2Compute_8h.html" target="_top" xlink:title="Compute methods for project milestone 4 in NE591&#45;008.">
<polygon fill="white" stroke="black" points="893.5,-201.5 893.5,-231.5 1003.5,-231.5 1003.5,-201.5 893.5,-201.5"/>
<text text-anchor="start" x="901.5" y="-219.5" font-family="Helvetica,sans-Serif" font-size="10.00">src/project/project4</text>
<text text-anchor="middle" x="948.5" y="-208.5" font-family="Helvetica,sans-Serif" font-size="10.00">/Compute.h</text>
</a>
</g>
</g>
<!-- Node1&#45;&gt;Node21 -->
<g id="edge24" class="edge">
<title>Node1&#45;&gt;Node21</title>
<path fill="none" stroke="midnightblue" d="M723.22,-266.31C776.03,-254.87 845.66,-239.78 893.45,-229.43"/>
<polygon fill="midnightblue" stroke="midnightblue" points="722.26,-262.94 713.23,-268.48 723.74,-269.78 722.26,-262.94"/>
</g>
<!-- Node25 -->
<g id="node25" class="node">
<title>Node25</title>
<g id="a_node25"><a xlink:href="../../da/da0/project_2project5_2Compute_8h.html" target="_top" xlink:title="Compute methods for project milestone 5 in NE591&#45;008.">
<polygon fill="white" stroke="black" points="1059.5,-201.5 1059.5,-231.5 1169.5,-231.5 1169.5,-201.5 1059.5,-201.5"/>
<text text-anchor="start" x="1067.5" y="-219.5" font-family="Helvetica,sans-Serif" font-size="10.00">src/project/project5</text>
<text text-anchor="middle" x="1114.5" y="-208.5" font-family="Helvetica,sans-Serif" font-size="10.00">/Compute.h</text>
</a>
</g>
</g>
<!-- Node1&#45;&gt;Node25 -->
<g id="edge29" class="edge">
<title>Node1&#45;&gt;Node25</title>
<path fill="none" stroke="midnightblue" d="M726.73,-271.72C800.45,-261.55 913.99,-245.84 1012.5,-232 1027.73,-229.86 1044.24,-227.52 1059.45,-225.36"/>
<polygon fill="midnightblue" stroke="midnightblue" points="726.03,-268.29 716.6,-273.12 726.99,-275.22 726.03,-268.29"/>
</g>
<!-- Node3 -->
<g id="node3" class="node">
<title>Node3</title>
<g id="a_node3"><a xlink:href="../../d7/d99/inlab13_8h.html" target="_top" xlink:title=" ">
<polygon fill="white" stroke="black" points="0,-73 0,-92 141,-92 141,-73 0,-73"/>
<text text-anchor="middle" x="70.5" y="-80" font-family="Helvetica,sans-Serif" font-size="10.00">src/labs/inlab13/inlab13.h</text>
</a>
</g>
</g>
<!-- Node2&#45;&gt;Node3 -->
<g id="edge2" class="edge">
<title>Node2&#45;&gt;Node3</title>
<path fill="none" stroke="midnightblue" d="M84.68,-202.65C68.58,-194.48 50.7,-182.16 41.5,-165 28.16,-140.12 50.05,-107.83 62.62,-92.43"/>
<polygon fill="midnightblue" stroke="midnightblue" points="83.35,-205.89 93.88,-206.99 86.33,-199.56 83.35,-205.89"/>
</g>
<!-- Node5 -->
<g id="node5" class="node">
<title>Node5</title>
<g id="a_node5"><a xlink:href="../../d2/ddd/labs_2inlab13_2Parser_8h.html" target="_top" xlink:title="This file contains the Parser class which is responsible for parsing command line arguments and valid...">
<polygon fill="white" stroke="black" points="50.5,-140 50.5,-159 184.5,-159 184.5,-140 50.5,-140"/>
<text text-anchor="middle" x="117.5" y="-147" font-family="Helvetica,sans-Serif" font-size="10.00">src/labs/inlab13/Parser.h</text>
</a>
</g>
</g>
<!-- Node2&#45;&gt;Node5 -->
<g id="edge4" class="edge">
<title>Node2&#45;&gt;Node5</title>
<path fill="none" stroke="midnightblue" d="M117.5,-196.54C117.5,-184.17 117.5,-168.62 117.5,-159.13"/>
<polygon fill="midnightblue" stroke="midnightblue" points="114,-196.73 117.5,-206.73 121,-196.73 114,-196.73"/>
</g>
<!-- Node4 -->
<g id="node4" class="node">
<title>Node4</title>
<g id="a_node4"><a xlink:href="../../d1/d0e/labs_2inlab13_2main_8cpp.html" target="_top" xlink:title=" ">
<polygon fill="white" stroke="black" points="0,-6 0,-25 141,-25 141,-6 0,-6"/>
<text text-anchor="middle" x="70.5" y="-13" font-family="Helvetica,sans-Serif" font-size="10.00">src/labs/inlab13/main.cpp</text>
</a>
</g>
</g>
<!-- Node3&#45;&gt;Node4 -->
<g id="edge3" class="edge">
<title>Node3&#45;&gt;Node4</title>
<path fill="none" stroke="midnightblue" d="M70.5,-62.54C70.5,-50.17 70.5,-34.62 70.5,-25.13"/>
<polygon fill="midnightblue" stroke="midnightblue" points="67,-62.73 70.5,-72.73 74,-62.73 67,-62.73"/>
</g>
<!-- Node5&#45;&gt;Node3 -->
<g id="edge5" class="edge">
<title>Node5&#45;&gt;Node3</title>
<path fill="none" stroke="midnightblue" d="M105.14,-131.4C96.01,-118.77 83.95,-102.1 76.74,-92.13"/>
<polygon fill="midnightblue" stroke="midnightblue" points="102.47,-133.68 111.16,-139.73 108.14,-129.58 102.47,-133.68"/>
</g>
<!-- Node7 -->
<g id="node7" class="node">
<title>Node7</title>
<g id="a_node7"><a xlink:href="../../df/de1/outlab13_8h.html" target="_top" xlink:title=" ">
<polygon fill="white" stroke="black" points="217,-73 217,-92 372,-92 372,-73 217,-73"/>
<text text-anchor="middle" x="294.5" y="-80" font-family="Helvetica,sans-Serif" font-size="10.00">src/labs/outlab13/outlab13.h</text>
</a>
</g>
</g>
<!-- Node6&#45;&gt;Node7 -->
<g id="edge7" class="edge">
<title>Node6&#45;&gt;Node7</title>
<path fill="none" stroke="midnightblue" d="M275.97,-202.58C259.3,-194.51 241.05,-182.31 231.5,-165 224.85,-152.93 225.54,-146.42 231.5,-134 240.78,-114.67 261.47,-100.4 276.62,-92.06"/>
<polygon fill="midnightblue" stroke="midnightblue" points="274.96,-205.96 285.52,-206.85 277.82,-199.57 274.96,-205.96"/>
</g>
<!-- Node9 -->
<g id="node9" class="node">
<title>Node9</title>
<g id="a_node9"><a xlink:href="../../db/d7a/labs_2outlab13_2Parser_8h.html" target="_top" xlink:title="This file contains the Parser class which is responsible for parsing command line arguments and valid...">
<polygon fill="white" stroke="black" points="241,-140 241,-159 382,-159 382,-140 241,-140"/>
<text text-anchor="middle" x="311.5" y="-147" font-family="Helvetica,sans-Serif" font-size="10.00">src/labs/outlab13/Parser.h</text>
</a>
</g>
</g>
<!-- Node6&#45;&gt;Node9 -->
<g id="edge9" class="edge">
<title>Node6&#45;&gt;Node9</title>
<path fill="none" stroke="midnightblue" d="M311.5,-196.54C311.5,-184.17 311.5,-168.62 311.5,-159.13"/>
<polygon fill="midnightblue" stroke="midnightblue" points="308,-196.73 311.5,-206.73 315,-196.73 308,-196.73"/>
</g>
<!-- Node8 -->
<g id="node8" class="node">
<title>Node8</title>
<g id="a_node8"><a xlink:href="../../db/d47/labs_2outlab13_2main_8cpp.html" target="_top" xlink:title=" ">
<polygon fill="white" stroke="black" points="220.5,-6 220.5,-25 368.5,-25 368.5,-6 220.5,-6"/>
<text text-anchor="middle" x="294.5" y="-13" font-family="Helvetica,sans-Serif" font-size="10.00">src/labs/outlab13/main.cpp</text>
</a>
</g>
</g>
<!-- Node7&#45;&gt;Node8 -->
<g id="edge8" class="edge">
<title>Node7&#45;&gt;Node8</title>
<path fill="none" stroke="midnightblue" d="M294.5,-62.54C294.5,-50.17 294.5,-34.62 294.5,-25.13"/>
<polygon fill="midnightblue" stroke="midnightblue" points="291,-62.73 294.5,-72.73 298,-62.73 291,-62.73"/>
</g>
<!-- Node9&#45;&gt;Node7 -->
<g id="edge10" class="edge">
<title>Node9&#45;&gt;Node7</title>
<path fill="none" stroke="midnightblue" d="M306.64,-129.91C303.39,-117.49 299.26,-101.72 296.76,-92.13"/>
<polygon fill="midnightblue" stroke="midnightblue" points="303.29,-130.94 309.21,-139.73 310.06,-129.17 303.29,-130.94"/>
</g>
<!-- Node11 -->
<g id="node11" class="node">
<title>Node11</title>
<g id="a_node11"><a xlink:href="../../df/df9/outlab6_8h.html" target="_top" xlink:title=" ">
<polygon fill="white" stroke="black" points="400,-140 400,-159 543,-159 543,-140 400,-140"/>
<text text-anchor="middle" x="471.5" y="-147" font-family="Helvetica,sans-Serif" font-size="10.00">src/labs/outlab6/outlab6.h</text>
</a>
</g>
</g>
<!-- Node10&#45;&gt;Node11 -->
<g id="edge12" class="edge">
<title>Node10&#45;&gt;Node11</title>
<path fill="none" stroke="midnightblue" d="M488.06,-197.29C483.64,-184.81 477.98,-168.81 474.55,-159.13"/>
<polygon fill="midnightblue" stroke="midnightblue" points="484.76,-198.47 491.4,-206.73 491.36,-196.14 484.76,-198.47"/>
</g>
<!-- Node12 -->
<g id="node12" class="node">
<title>Node12</title>
<g id="a_node12"><a xlink:href="../../d4/d5d/labs_2outlab6_2main_8cpp.html" target="_top" xlink:title=" ">
<polygon fill="white" stroke="black" points="400.5,-73 400.5,-92 542.5,-92 542.5,-73 400.5,-73"/>
<text text-anchor="middle" x="471.5" y="-80" font-family="Helvetica,sans-Serif" font-size="10.00">src/labs/outlab6/main.cpp</text>
</a>
</g>
</g>
<!-- Node11&#45;&gt;Node12 -->
<g id="edge13" class="edge">
<title>Node11&#45;&gt;Node12</title>
<path fill="none" stroke="midnightblue" d="M471.5,-129.54C471.5,-117.17 471.5,-101.62 471.5,-92.13"/>
<polygon fill="midnightblue" stroke="midnightblue" points="468,-129.73 471.5,-139.73 475,-129.73 468,-129.73"/>
</g>
<!-- Node14 -->
<g id="node14" class="node">
<title>Node14</title>
<g id="a_node14"><a xlink:href="../../d6/da7/project_2project2_2Parser_8h.html" target="_top" xlink:title="This file contains the Parser class which is responsible for parsing command line arguments and valid...">
<polygon fill="white" stroke="black" points="561.5,-134.5 561.5,-164.5 671.5,-164.5 671.5,-134.5 561.5,-134.5"/>
<text text-anchor="start" x="569.5" y="-152.5" font-family="Helvetica,sans-Serif" font-size="10.00">src/project/project2</text>
<text text-anchor="middle" x="616.5" y="-141.5" font-family="Helvetica,sans-Serif" font-size="10.00">/Parser.h</text>
</a>
</g>
</g>
<!-- Node13&#45;&gt;Node14 -->
<g id="edge15" class="edge">
<title>Node13&#45;&gt;Node14</title>
<path fill="none" stroke="midnightblue" d="M637.07,-192.28C632.51,-183.02 627.41,-172.66 623.43,-164.58"/>
<polygon fill="midnightblue" stroke="midnightblue" points="634,-193.97 641.56,-201.4 640.28,-190.88 634,-193.97"/>
</g>
<!-- Node15 -->
<g id="node15" class="node">
<title>Node15</title>
<g id="a_node15"><a xlink:href="../../dc/d79/project2_8h.html" target="_top" xlink:title=" ">
<polygon fill="white" stroke="black" points="580.5,-67.5 580.5,-97.5 690.5,-97.5 690.5,-67.5 580.5,-67.5"/>
<text text-anchor="start" x="588.5" y="-85.5" font-family="Helvetica,sans-Serif" font-size="10.00">src/project/project2</text>
<text text-anchor="middle" x="635.5" y="-74.5" font-family="Helvetica,sans-Serif" font-size="10.00">/project2.h</text>
</a>
</g>
</g>
<!-- Node13&#45;&gt;Node15 -->
<g id="edge18" class="edge">
<title>Node13&#45;&gt;Node15</title>
<path fill="none" stroke="midnightblue" d="M666.71,-193.03C677.66,-176.69 688.12,-154.02 680.5,-134 675.07,-119.73 663.55,-106.93 653.52,-97.79"/>
<polygon fill="midnightblue" stroke="midnightblue" points="663.69,-191.24 660.69,-201.4 669.37,-195.33 663.69,-191.24"/>
</g>
<!-- Node14&#45;&gt;Node15 -->
<g id="edge16" class="edge">
<title>Node14&#45;&gt;Node15</title>
<path fill="none" stroke="midnightblue" d="M623.46,-124.7C626.12,-115.59 629.07,-105.49 631.39,-97.58"/>
<polygon fill="midnightblue" stroke="midnightblue" points="620.07,-123.82 620.62,-134.4 626.79,-125.78 620.07,-123.82"/>
</g>
<!-- Node16 -->
<g id="node16" class="node">
<title>Node16</title>
<g id="a_node16"><a xlink:href="../../dd/d48/project_2project2_2main_8cpp.html" target="_top" xlink:title=" ">
<polygon fill="white" stroke="black" points="580.5,-0.5 580.5,-30.5 690.5,-30.5 690.5,-0.5 580.5,-0.5"/>
<text text-anchor="start" x="588.5" y="-18.5" font-family="Helvetica,sans-Serif" font-size="10.00">src/project/project2</text>
<text text-anchor="middle" x="635.5" y="-7.5" font-family="Helvetica,sans-Serif" font-size="10.00">/main.cpp</text>
</a>
</g>
</g>
<!-- Node15&#45;&gt;Node16 -->
<g id="edge17" class="edge">
<title>Node15&#45;&gt;Node16</title>
<path fill="none" stroke="midnightblue" d="M635.5,-57.11C635.5,-48.15 635.5,-38.32 635.5,-30.58"/>
<polygon fill="midnightblue" stroke="midnightblue" points="632,-57.4 635.5,-67.4 639,-57.4 632,-57.4"/>
</g>
<!-- Node18 -->
<g id="node18" class="node">
<title>Node18</title>
<g id="a_node18"><a xlink:href="../../d7/d5d/project_2project3_2Parser_8h.html" target="_top" xlink:title="This file contains the Parser class which is responsible for parsing command line arguments and valid...">
<polygon fill="white" stroke="black" points="727.5,-134.5 727.5,-164.5 837.5,-164.5 837.5,-134.5 727.5,-134.5"/>
<text text-anchor="start" x="735.5" y="-152.5" font-family="Helvetica,sans-Serif" font-size="10.00">src/project/project3</text>
<text text-anchor="middle" x="782.5" y="-141.5" font-family="Helvetica,sans-Serif" font-size="10.00">/Parser.h</text>
</a>
</g>
</g>
<!-- Node17&#45;&gt;Node18 -->
<g id="edge20" class="edge">
<title>Node17&#45;&gt;Node18</title>
<path fill="none" stroke="midnightblue" d="M782.5,-191.11C782.5,-182.15 782.5,-172.32 782.5,-164.58"/>
<polygon fill="midnightblue" stroke="midnightblue" points="779,-191.4 782.5,-201.4 786,-191.4 779,-191.4"/>
</g>
<!-- Node19 -->
<g id="node19" class="node">
<title>Node19</title>
<g id="a_node19"><a xlink:href="../../da/d0a/project3_8h.html" target="_top" xlink:title=" ">
<polygon fill="white" stroke="black" points="746.5,-67.5 746.5,-97.5 856.5,-97.5 856.5,-67.5 746.5,-67.5"/>
<text text-anchor="start" x="754.5" y="-85.5" font-family="Helvetica,sans-Serif" font-size="10.00">src/project/project3</text>
<text text-anchor="middle" x="801.5" y="-74.5" font-family="Helvetica,sans-Serif" font-size="10.00">/project3.h</text>
</a>
</g>
</g>
<!-- Node17&#45;&gt;Node19 -->
<g id="edge23" class="edge">
<title>Node17&#45;&gt;Node19</title>
<path fill="none" stroke="midnightblue" d="M818.62,-195.8C829.65,-187.81 840.45,-177.48 846.5,-165 852.51,-152.6 851.4,-146.88 846.5,-134 841.07,-119.73 829.55,-106.93 819.52,-97.79"/>
<polygon fill="midnightblue" stroke="midnightblue" points="816.57,-192.97 810.22,-201.46 820.48,-198.78 816.57,-192.97"/>
</g>
<!-- Node18&#45;&gt;Node19 -->
<g id="edge21" class="edge">
<title>Node18&#45;&gt;Node19</title>
<path fill="none" stroke="midnightblue" d="M789.46,-124.7C792.12,-115.59 795.07,-105.49 797.39,-97.58"/>
<polygon fill="midnightblue" stroke="midnightblue" points="786.07,-123.82 786.62,-134.4 792.79,-125.78 786.07,-123.82"/>
</g>
<!-- Node20 -->
<g id="node20" class="node">
<title>Node20</title>
<g id="a_node20"><a xlink:href="../../de/ddf/project_2project3_2main_8cpp.html" target="_top" xlink:title=" ">
<polygon fill="white" stroke="black" points="746.5,-0.5 746.5,-30.5 856.5,-30.5 856.5,-0.5 746.5,-0.5"/>
<text text-anchor="start" x="754.5" y="-18.5" font-family="Helvetica,sans-Serif" font-size="10.00">src/project/project3</text>
<text text-anchor="middle" x="801.5" y="-7.5" font-family="Helvetica,sans-Serif" font-size="10.00">/main.cpp</text>
</a>
</g>
</g>
<!-- Node19&#45;&gt;Node20 -->
<g id="edge22" class="edge">
<title>Node19&#45;&gt;Node20</title>
<path fill="none" stroke="midnightblue" d="M801.5,-57.11C801.5,-48.15 801.5,-38.32 801.5,-30.58"/>
<polygon fill="midnightblue" stroke="midnightblue" points="798,-57.4 801.5,-67.4 805,-57.4 798,-57.4"/>
</g>
<!-- Node22 -->
<g id="node22" class="node">
<title>Node22</title>
<g id="a_node22"><a xlink:href="../../db/d50/project_2project4_2Parser_8h.html" target="_top" xlink:title="This file contains the Parser class which is responsible for parsing command line arguments and valid...">
<polygon fill="white" stroke="black" points="893.5,-134.5 893.5,-164.5 1003.5,-164.5 1003.5,-134.5 893.5,-134.5"/>
<text text-anchor="start" x="901.5" y="-152.5" font-family="Helvetica,sans-Serif" font-size="10.00">src/project/project4</text>
<text text-anchor="middle" x="948.5" y="-141.5" font-family="Helvetica,sans-Serif" font-size="10.00">/Parser.h</text>
</a>
</g>
</g>
<!-- Node21&#45;&gt;Node22 -->
<g id="edge25" class="edge">
<title>Node21&#45;&gt;Node22</title>
<path fill="none" stroke="midnightblue" d="M948.5,-191.11C948.5,-182.15 948.5,-172.32 948.5,-164.58"/>
<polygon fill="midnightblue" stroke="midnightblue" points="945,-191.4 948.5,-201.4 952,-191.4 945,-191.4"/>
</g>
<!-- Node23 -->
<g id="node23" class="node">
<title>Node23</title>
<g id="a_node23"><a xlink:href="../../d9/d80/project4_8h.html" target="_top" xlink:title=" ">
<polygon fill="white" stroke="black" points="912.5,-67.5 912.5,-97.5 1022.5,-97.5 1022.5,-67.5 912.5,-67.5"/>
<text text-anchor="start" x="920.5" y="-85.5" font-family="Helvetica,sans-Serif" font-size="10.00">src/project/project4</text>
<text text-anchor="middle" x="967.5" y="-74.5" font-family="Helvetica,sans-Serif" font-size="10.00">/project4.h</text>
</a>
</g>
</g>
<!-- Node21&#45;&gt;Node23 -->
<g id="edge28" class="edge">
<title>Node21&#45;&gt;Node23</title>
<path fill="none" stroke="midnightblue" d="M984.62,-195.8C995.65,-187.81 1006.45,-177.48 1012.5,-165 1018.51,-152.6 1017.4,-146.88 1012.5,-134 1007.07,-119.73 995.55,-106.93 985.52,-97.79"/>
<polygon fill="midnightblue" stroke="midnightblue" points="982.57,-192.97 976.22,-201.46 986.48,-198.78 982.57,-192.97"/>
</g>
<!-- Node22&#45;&gt;Node23 -->
<g id="edge26" class="edge">
<title>Node22&#45;&gt;Node23</title>
<path fill="none" stroke="midnightblue" d="M955.46,-124.7C958.12,-115.59 961.07,-105.49 963.39,-97.58"/>
<polygon fill="midnightblue" stroke="midnightblue" points="952.07,-123.82 952.62,-134.4 958.79,-125.78 952.07,-123.82"/>
</g>
<!-- Node24 -->
<g id="node24" class="node">
<title>Node24</title>
<g id="a_node24"><a xlink:href="../../d0/d86/project_2project4_2main_8cpp.html" target="_top" xlink:title=" ">
<polygon fill="white" stroke="black" points="912.5,-0.5 912.5,-30.5 1022.5,-30.5 1022.5,-0.5 912.5,-0.5"/>
<text text-anchor="start" x="920.5" y="-18.5" font-family="Helvetica,sans-Serif" font-size="10.00">src/project/project4</text>
<text text-anchor="middle" x="967.5" y="-7.5" font-family="Helvetica,sans-Serif" font-size="10.00">/main.cpp</text>
</a>
</g>
</g>
<!-- Node23&#45;&gt;Node24 -->
<g id="edge27" class="edge">
<title>Node23&#45;&gt;Node24</title>
<path fill="none" stroke="midnightblue" d="M967.5,-57.11C967.5,-48.15 967.5,-38.32 967.5,-30.58"/>
<polygon fill="midnightblue" stroke="midnightblue" points="964,-57.4 967.5,-67.4 971,-57.4 964,-57.4"/>
</g>
<!-- Node26 -->
<g id="node26" class="node">
<title>Node26</title>
<g id="a_node26"><a xlink:href="../../de/db2/project_2project5_2Parser_8h.html" target="_top" xlink:title="This file contains the Parser class which is responsible for parsing command line arguments and valid...">
<polygon fill="white" stroke="black" points="1059.5,-134.5 1059.5,-164.5 1169.5,-164.5 1169.5,-134.5 1059.5,-134.5"/>
<text text-anchor="start" x="1067.5" y="-152.5" font-family="Helvetica,sans-Serif" font-size="10.00">src/project/project5</text>
<text text-anchor="middle" x="1114.5" y="-141.5" font-family="Helvetica,sans-Serif" font-size="10.00">/Parser.h</text>
</a>
</g>
</g>
<!-- Node25&#45;&gt;Node26 -->
<g id="edge30" class="edge">
<title>Node25&#45;&gt;Node26</title>
<path fill="none" stroke="midnightblue" d="M1114.5,-191.11C1114.5,-182.15 1114.5,-172.32 1114.5,-164.58"/>
<polygon fill="midnightblue" stroke="midnightblue" points="1111,-191.4 1114.5,-201.4 1118,-191.4 1111,-191.4"/>
</g>
<!-- Node27 -->
<g id="node27" class="node">
<title>Node27</title>
<g id="a_node27"><a xlink:href="../../d9/dde/project5_8h.html" target="_top" xlink:title=" ">
<polygon fill="white" stroke="black" points="1100.5,-67.5 1100.5,-97.5 1210.5,-97.5 1210.5,-67.5 1100.5,-67.5"/>
<text text-anchor="start" x="1108.5" y="-85.5" font-family="Helvetica,sans-Serif" font-size="10.00">src/project/project5</text>
<text text-anchor="middle" x="1155.5" y="-74.5" font-family="Helvetica,sans-Serif" font-size="10.00">/project5.h</text>
</a>
</g>
</g>
<!-- Node25&#45;&gt;Node27 -->
<g id="edge33" class="edge">
<title>Node25&#45;&gt;Node27</title>
<path fill="none" stroke="midnightblue" d="M1150.62,-195.8C1161.65,-187.81 1172.45,-177.48 1178.5,-165 1189.34,-142.64 1175.84,-114.29 1165.42,-97.59"/>
<polygon fill="midnightblue" stroke="midnightblue" points="1148.57,-192.97 1142.22,-201.46 1152.48,-198.78 1148.57,-192.97"/>
</g>
<!-- Node26&#45;&gt;Node27 -->
<g id="edge31" class="edge">
<title>Node26&#45;&gt;Node27</title>
<path fill="none" stroke="midnightblue" d="M1128.78,-125.87C1134.71,-116.46 1141.41,-105.83 1146.62,-97.58"/>
<polygon fill="midnightblue" stroke="midnightblue" points="1125.77,-124.07 1123.4,-134.4 1131.69,-127.81 1125.77,-124.07"/>
</g>
<!-- Node28 -->
<g id="node28" class="node">
<title>Node28</title>
<g id="a_node28"><a xlink:href="../../dc/dc7/project_2project5_2main_8cpp.html" target="_top" xlink:title=" ">
<polygon fill="white" stroke="black" points="1100.5,-0.5 1100.5,-30.5 1210.5,-30.5 1210.5,-0.5 1100.5,-0.5"/>
<text text-anchor="start" x="1108.5" y="-18.5" font-family="Helvetica,sans-Serif" font-size="10.00">src/project/project5</text>
<text text-anchor="middle" x="1155.5" y="-7.5" font-family="Helvetica,sans-Serif" font-size="10.00">/main.cpp</text>
</a>
</g>
</g>
<!-- Node27&#45;&gt;Node28 -->
<g id="edge32" class="edge">
<title>Node27&#45;&gt;Node28</title>
<path fill="none" stroke="midnightblue" d="M1155.5,-57.11C1155.5,-48.15 1155.5,-38.32 1155.5,-30.58"/>
<polygon fill="midnightblue" stroke="midnightblue" points="1152,-57.4 1155.5,-67.4 1159,-57.4 1152,-57.4"/>
</g>
</g>
</svg>
