<?xml version="1.0" encoding="UTF-8" standalone="no"?>
<!DOCTYPE svg PUBLIC "-//W3C//DTD SVG 1.1//EN"
 "http://www.w3.org/Graphics/SVG/1.1/DTD/svg11.dtd">
<!-- Generated by graphviz version 2.43.0 (0)
 -->
<!-- Title: src/utils/physics/diffusion/DiffusionConstants.h Pages: 1 -->
<svg width="442pt" height="307pt"
 viewBox="0.00 0.00 441.50 307.00" xmlns="http://www.w3.org/2000/svg" xmlns:xlink="http://www.w3.org/1999/xlink">
<g id="graph0" class="graph" transform="scale(1 1) rotate(0) translate(4 303)">
<title>src/utils/physics/diffusion/DiffusionConstants.h</title>
<polygon fill="white" stroke="transparent" points="-4,4 -4,-303 437.5,-303 437.5,4 -4,4"/>
<!-- Node1 -->
<g id="node1" class="node">
<title>Node1</title>
<g id="a_node1"><a xlink:title=" ">
<polygon fill="#bfbfbf" stroke="black" points="112,-268.5 112,-298.5 252,-298.5 252,-268.5 112,-268.5"/>
<text text-anchor="start" x="120" y="-286.5" font-family="Helvetica,sans-Serif" font-size="10.00">src/utils/physics/diffusion</text>
<text text-anchor="middle" x="182" y="-275.5" font-family="Helvetica,sans-Serif" font-size="10.00">/DiffusionConstants.h</text>
</a>
</g>
</g>
<!-- Node2 -->
<g id="node2" class="node">
<title>Node2</title>
<g id="a_node2"><a xlink:href="../../dc/d33/DiffusionConstantsTests_8cpp.html" target="_top" xlink:title=" ">
<polygon fill="white" stroke="black" points="0,-201.5 0,-231.5 184,-231.5 184,-201.5 0,-201.5"/>
<text text-anchor="start" x="8" y="-219.5" font-family="Helvetica,sans-Serif" font-size="10.00">src/utils/physics/diffusion</text>
<text text-anchor="middle" x="92" y="-208.5" font-family="Helvetica,sans-Serif" font-size="10.00">/tests/DiffusionConstantsTests.cpp</text>
</a>
</g>
</g>
<!-- Node1&#45;&gt;Node2 -->
<g id="edge1" class="edge">
<title>Node1&#45;&gt;Node2</title>
<path fill="none" stroke="midnightblue" d="M154.24,-262.45C140.39,-252.45 123.98,-240.6 111.49,-231.58"/>
<polygon fill="midnightblue" stroke="midnightblue" points="152.32,-265.38 162.47,-268.4 156.41,-259.7 152.32,-265.38"/>
</g>
<!-- Node3 -->
<g id="node3" class="node">
<title>Node3</title>
<g id="a_node3"><a xlink:href="../../dd/dfb/DiffusionMatrix_8h.html" target="_top" xlink:title="TODO:: DOCUMENT.">
<polygon fill="white" stroke="black" points="202,-201.5 202,-231.5 342,-231.5 342,-201.5 202,-201.5"/>
<text text-anchor="start" x="210" y="-219.5" font-family="Helvetica,sans-Serif" font-size="10.00">src/utils/physics/diffusion</text>
<text text-anchor="middle" x="272" y="-208.5" font-family="Helvetica,sans-Serif" font-size="10.00">/DiffusionMatrix.h</text>
</a>
</g>
</g>
<!-- Node1&#45;&gt;Node3 -->
<g id="edge2" class="edge">
<title>Node1&#45;&gt;Node3</title>
<path fill="none" stroke="midnightblue" d="M209.76,-262.45C223.61,-252.45 240.02,-240.6 252.51,-231.58"/>
<polygon fill="midnightblue" stroke="midnightblue" points="207.59,-259.7 201.53,-268.4 211.68,-265.38 207.59,-259.7"/>
</g>
<!-- Node4 -->
<g id="node4" class="node">
<title>Node4</title>
<g id="a_node4"><a xlink:href="../../dd/df8/project_2project2_2InputsOutputs_8h.html" target="_top" xlink:title="This file contains the input and output definitions for this project.">
<polygon fill="white" stroke="black" points="138,-134.5 138,-164.5 248,-164.5 248,-134.5 138,-134.5"/>
<text text-anchor="start" x="146" y="-152.5" font-family="Helvetica,sans-Serif" font-size="10.00">src/project/project2</text>
<text text-anchor="middle" x="193" y="-141.5" font-family="Helvetica,sans-Serif" font-size="10.00">/InputsOutputs.h</text>
</a>
</g>
</g>
<!-- Node3&#45;&gt;Node4 -->
<g id="edge3" class="edge">
<title>Node3&#45;&gt;Node4</title>
<path fill="none" stroke="midnightblue" d="M246.94,-194.88C234.94,-185.01 220.87,-173.43 210.11,-164.58"/>
<polygon fill="midnightblue" stroke="midnightblue" points="244.91,-197.75 254.86,-201.4 249.36,-192.34 244.91,-197.75"/>
</g>
<!-- Node7 -->
<g id="node7" class="node">
<title>Node7</title>
<g id="a_node7"><a xlink:href="../../d6/d18/DiffusionMatrixTests_8cpp.html" target="_top" xlink:title="TODO::DOCUMENT.">
<polygon fill="white" stroke="black" points="266.5,-134.5 266.5,-164.5 433.5,-164.5 433.5,-134.5 266.5,-134.5"/>
<text text-anchor="start" x="274.5" y="-152.5" font-family="Helvetica,sans-Serif" font-size="10.00">src/utils/physics/diffusion</text>
<text text-anchor="middle" x="350" y="-141.5" font-family="Helvetica,sans-Serif" font-size="10.00">/tests/DiffusionMatrixTests.cpp</text>
</a>
</g>
</g>
<!-- Node3&#45;&gt;Node7 -->
<g id="edge6" class="edge">
<title>Node3&#45;&gt;Node7</title>
<path fill="none" stroke="midnightblue" d="M296.74,-194.88C308.59,-185.01 322.48,-173.43 333.11,-164.58"/>
<polygon fill="midnightblue" stroke="midnightblue" points="294.37,-192.31 288.92,-201.4 298.85,-197.68 294.37,-192.31"/>
</g>
<!-- Node5 -->
<g id="node5" class="node">
<title>Node5</title>
<g id="a_node5"><a xlink:href="../../dc/d79/project2_8h.html" target="_top" xlink:title=" ">
<polygon fill="white" stroke="black" points="138,-67.5 138,-97.5 248,-97.5 248,-67.5 138,-67.5"/>
<text text-anchor="start" x="146" y="-85.5" font-family="Helvetica,sans-Serif" font-size="10.00">src/project/project2</text>
<text text-anchor="middle" x="193" y="-74.5" font-family="Helvetica,sans-Serif" font-size="10.00">/project2.h</text>
</a>
</g>
</g>
<!-- Node4&#45;&gt;Node5 -->
<g id="edge4" class="edge">
<title>Node4&#45;&gt;Node5</title>
<path fill="none" stroke="midnightblue" d="M193,-124.11C193,-115.15 193,-105.32 193,-97.58"/>
<polygon fill="midnightblue" stroke="midnightblue" points="189.5,-124.4 193,-134.4 196.5,-124.4 189.5,-124.4"/>
</g>
<!-- Node6 -->
<g id="node6" class="node">
<title>Node6</title>
<g id="a_node6"><a xlink:href="../../dd/d48/project_2project2_2main_8cpp.html" target="_top" xlink:title=" ">
<polygon fill="white" stroke="black" points="138,-0.5 138,-30.5 248,-30.5 248,-0.5 138,-0.5"/>
<text text-anchor="start" x="146" y="-18.5" font-family="Helvetica,sans-Serif" font-size="10.00">src/project/project2</text>
<text text-anchor="middle" x="193" y="-7.5" font-family="Helvetica,sans-Serif" font-size="10.00">/main.cpp</text>
</a>
</g>
</g>
<!-- Node5&#45;&gt;Node6 -->
<g id="edge5" class="edge">
<title>Node5&#45;&gt;Node6</title>
<path fill="none" stroke="midnightblue" d="M193,-57.11C193,-48.15 193,-38.32 193,-30.58"/>
<polygon fill="midnightblue" stroke="midnightblue" points="189.5,-57.4 193,-67.4 196.5,-57.4 189.5,-57.4"/>
</g>
</g>
</svg>
