<?xml version="1.0" encoding="UTF-8" standalone="no"?>
<!DOCTYPE svg PUBLIC "-//W3C//DTD SVG 1.1//EN"
 "http://www.w3.org/Graphics/SVG/1.1/DTD/svg11.dtd">
<!-- Generated by graphviz version 2.43.0 (0)
 -->
<!-- Title: src/utils/physics/diffusion/DiffusionConstants.h Pages: 1 -->
<svg width="413pt" height="307pt"
 viewBox="0.00 0.00 413.00 307.00" xmlns="http://www.w3.org/2000/svg" xmlns:xlink="http://www.w3.org/1999/xlink">
<g id="graph0" class="graph" transform="scale(1 1) rotate(0) translate(4 303)">
<title>src/utils/physics/diffusion/DiffusionConstants.h</title>
<polygon fill="white" stroke="transparent" points="-4,4 -4,-303 409,-303 409,4 -4,4"/>
<!-- Node1 -->
<g id="node1" class="node">
<title>Node1</title>
<g id="a_node1"><a xlink:title=" ">
<polygon fill="#bfbfbf" stroke="black" points="153,-268.5 153,-298.5 293,-298.5 293,-268.5 153,-268.5"/>
<text text-anchor="start" x="161" y="-286.5" font-family="Helvetica,sans-Serif" font-size="10.00">src/utils/physics/diffusion</text>
<text text-anchor="middle" x="223" y="-275.5" font-family="Helvetica,sans-Serif" font-size="10.00">/DiffusionConstants.h</text>
</a>
</g>
</g>
<!-- Node2 -->
<g id="node2" class="node">
<title>Node2</title>
<g id="a_node2"><a xlink:href="../../dd/dfb/DiffusionMatrix_8h.html" target="_top" xlink:title="TODO:: DOCUMENT.">
<polygon fill="white" stroke="black" points="63,-201.5 63,-231.5 203,-231.5 203,-201.5 63,-201.5"/>
<text text-anchor="start" x="71" y="-219.5" font-family="Helvetica,sans-Serif" font-size="10.00">src/utils/physics/diffusion</text>
<text text-anchor="middle" x="133" y="-208.5" font-family="Helvetica,sans-Serif" font-size="10.00">/DiffusionMatrix.h</text>
</a>
</g>
</g>
<!-- Node1&#45;&gt;Node2 -->
<g id="edge1" class="edge">
<title>Node1&#45;&gt;Node2</title>
<path fill="none" stroke="midnightblue" d="M195.24,-262.45C181.39,-252.45 164.98,-240.6 152.49,-231.58"/>
<polygon fill="midnightblue" stroke="midnightblue" points="193.32,-265.38 203.47,-268.4 197.41,-259.7 193.32,-265.38"/>
</g>
<!-- Node7 -->
<g id="node7" class="node">
<title>Node7</title>
<g id="a_node7"><a xlink:href="../../dc/d33/DiffusionConstantsTests_8cpp.html" target="_top" xlink:title=" ">
<polygon fill="white" stroke="black" points="221,-201.5 221,-231.5 405,-231.5 405,-201.5 221,-201.5"/>
<text text-anchor="start" x="229" y="-219.5" font-family="Helvetica,sans-Serif" font-size="10.00">src/utils/physics/diffusion</text>
<text text-anchor="middle" x="313" y="-208.5" font-family="Helvetica,sans-Serif" font-size="10.00">/tests/DiffusionConstantsTests.cpp</text>
</a>
</g>
</g>
<!-- Node1&#45;&gt;Node7 -->
<g id="edge6" class="edge">
<title>Node1&#45;&gt;Node7</title>
<path fill="none" stroke="midnightblue" d="M250.76,-262.45C264.61,-252.45 281.02,-240.6 293.51,-231.58"/>
<polygon fill="midnightblue" stroke="midnightblue" points="248.59,-259.7 242.53,-268.4 252.68,-265.38 248.59,-259.7"/>
</g>
<!-- Node3 -->
<g id="node3" class="node">
<title>Node3</title>
<g id="a_node3"><a xlink:href="../../dd/df8/project_2project2_2InputsOutputs_8h.html" target="_top" xlink:title="This file contains the input and output definitions for this project.">
<polygon fill="white" stroke="black" points="0,-134.5 0,-164.5 110,-164.5 110,-134.5 0,-134.5"/>
<text text-anchor="start" x="8" y="-152.5" font-family="Helvetica,sans-Serif" font-size="10.00">src/project/project2</text>
<text text-anchor="middle" x="55" y="-141.5" font-family="Helvetica,sans-Serif" font-size="10.00">/InputsOutputs.h</text>
</a>
</g>
</g>
<!-- Node2&#45;&gt;Node3 -->
<g id="edge2" class="edge">
<title>Node2&#45;&gt;Node3</title>
<path fill="none" stroke="midnightblue" d="M108.26,-194.88C96.41,-185.01 82.52,-173.43 71.89,-164.58"/>
<polygon fill="midnightblue" stroke="midnightblue" points="106.15,-197.68 116.08,-201.4 110.63,-192.31 106.15,-197.68"/>
</g>
<!-- Node6 -->
<g id="node6" class="node">
<title>Node6</title>
<g id="a_node6"><a xlink:href="../../d6/d18/DiffusionMatrixTests_8cpp.html" target="_top" xlink:title="TODO::DOCUMENT.">
<polygon fill="white" stroke="black" points="128.5,-134.5 128.5,-164.5 295.5,-164.5 295.5,-134.5 128.5,-134.5"/>
<text text-anchor="start" x="136.5" y="-152.5" font-family="Helvetica,sans-Serif" font-size="10.00">src/utils/physics/diffusion</text>
<text text-anchor="middle" x="212" y="-141.5" font-family="Helvetica,sans-Serif" font-size="10.00">/tests/DiffusionMatrixTests.cpp</text>
</a>
</g>
</g>
<!-- Node2&#45;&gt;Node6 -->
<g id="edge5" class="edge">
<title>Node2&#45;&gt;Node6</title>
<path fill="none" stroke="midnightblue" d="M158.06,-194.88C170.06,-185.01 184.13,-173.43 194.89,-164.58"/>
<polygon fill="midnightblue" stroke="midnightblue" points="155.64,-192.34 150.14,-201.4 160.09,-197.75 155.64,-192.34"/>
</g>
<!-- Node4 -->
<g id="node4" class="node">
<title>Node4</title>
<g id="a_node4"><a xlink:href="../../dc/d79/project2_8h.html" target="_top" xlink:title=" ">
<polygon fill="white" stroke="black" points="0,-67.5 0,-97.5 110,-97.5 110,-67.5 0,-67.5"/>
<text text-anchor="start" x="8" y="-85.5" font-family="Helvetica,sans-Serif" font-size="10.00">src/project/project2</text>
<text text-anchor="middle" x="55" y="-74.5" font-family="Helvetica,sans-Serif" font-size="10.00">/project2.h</text>
</a>
</g>
</g>
<!-- Node3&#45;&gt;Node4 -->
<g id="edge3" class="edge">
<title>Node3&#45;&gt;Node4</title>
<path fill="none" stroke="midnightblue" d="M55,-124.11C55,-115.15 55,-105.32 55,-97.58"/>
<polygon fill="midnightblue" stroke="midnightblue" points="51.5,-124.4 55,-134.4 58.5,-124.4 51.5,-124.4"/>
</g>
<!-- Node5 -->
<g id="node5" class="node">
<title>Node5</title>
<g id="a_node5"><a xlink:href="../../dd/d48/project_2project2_2main_8cpp.html" target="_top" xlink:title=" ">
<polygon fill="white" stroke="black" points="0,-0.5 0,-30.5 110,-30.5 110,-0.5 0,-0.5"/>
<text text-anchor="start" x="8" y="-18.5" font-family="Helvetica,sans-Serif" font-size="10.00">src/project/project2</text>
<text text-anchor="middle" x="55" y="-7.5" font-family="Helvetica,sans-Serif" font-size="10.00">/main.cpp</text>
</a>
</g>
</g>
<!-- Node4&#45;&gt;Node5 -->
<g id="edge4" class="edge">
<title>Node4&#45;&gt;Node5</title>
<path fill="none" stroke="midnightblue" d="M55,-57.11C55,-48.15 55,-38.32 55,-30.58"/>
<polygon fill="midnightblue" stroke="midnightblue" points="51.5,-57.4 55,-67.4 58.5,-57.4 51.5,-57.4"/>
</g>
</g>
</svg>
