<?xml version="1.0" encoding="UTF-8" standalone="no"?>
<!DOCTYPE svg PUBLIC "-//W3C//DTD SVG 1.1//EN"
 "http://www.w3.org/Graphics/SVG/1.1/DTD/svg11.dtd">
<!-- Generated by graphviz version 2.43.0 (0)
 -->
<!-- Title: src/utils/physics/diffusion/DiffusionConstants.h Pages: 1 -->
<svg width="663pt" height="307pt"
 viewBox="0.00 0.00 663.00 307.00" xmlns="http://www.w3.org/2000/svg" xmlns:xlink="http://www.w3.org/1999/xlink">
<g id="graph0" class="graph" transform="scale(1 1) rotate(0) translate(4 303)">
<title>src/utils/physics/diffusion/DiffusionConstants.h</title>
<polygon fill="white" stroke="transparent" points="-4,4 -4,-303 659,-303 659,4 -4,4"/>
<!-- Node1 -->
<g id="node1" class="node">
<title>Node1</title>
<g id="a_node1"><a xlink:title=" ">
<polygon fill="#bfbfbf" stroke="black" points="313,-268.5 313,-298.5 453,-298.5 453,-268.5 313,-268.5"/>
<text text-anchor="start" x="321" y="-286.5" font-family="Helvetica,sans-Serif" font-size="10.00">src/utils/physics/diffusion</text>
<text text-anchor="middle" x="383" y="-275.5" font-family="Helvetica,sans-Serif" font-size="10.00">/DiffusionConstants.h</text>
</a>
</g>
</g>
<!-- Node2 -->
<g id="node2" class="node">
<title>Node2</title>
<g id="a_node2"><a xlink:href="../../dd/dfb/DiffusionMatrix_8h.html" target="_top" xlink:title="TODO:: DOCUMENT.">
<polygon fill="white" stroke="black" points="142,-201.5 142,-231.5 282,-231.5 282,-201.5 142,-201.5"/>
<text text-anchor="start" x="150" y="-219.5" font-family="Helvetica,sans-Serif" font-size="10.00">src/utils/physics/diffusion</text>
<text text-anchor="middle" x="212" y="-208.5" font-family="Helvetica,sans-Serif" font-size="10.00">/DiffusionMatrix.h</text>
</a>
</g>
</g>
<!-- Node1&#45;&gt;Node2 -->
<g id="edge1" class="edge">
<title>Node1&#45;&gt;Node2</title>
<path fill="none" stroke="midnightblue" d="M336.48,-264.82C309,-254.37 274.67,-241.32 249.03,-231.58"/>
<polygon fill="midnightblue" stroke="midnightblue" points="335.3,-268.11 345.9,-268.4 337.79,-261.57 335.3,-268.11"/>
</g>
<!-- Node7 -->
<g id="node7" class="node">
<title>Node7</title>
<g id="a_node7"><a xlink:href="../../d9/d7b/SourceVector_8h.html" target="_top" xlink:title="TODO:: DOCUMENT.">
<polygon fill="white" stroke="black" points="313,-201.5 313,-231.5 453,-231.5 453,-201.5 313,-201.5"/>
<text text-anchor="start" x="321" y="-219.5" font-family="Helvetica,sans-Serif" font-size="10.00">src/utils/physics/diffusion</text>
<text text-anchor="middle" x="383" y="-208.5" font-family="Helvetica,sans-Serif" font-size="10.00">/SourceVector.h</text>
</a>
</g>
</g>
<!-- Node1&#45;&gt;Node7 -->
<g id="edge6" class="edge">
<title>Node1&#45;&gt;Node7</title>
<path fill="none" stroke="midnightblue" d="M383,-258.11C383,-249.15 383,-239.32 383,-231.58"/>
<polygon fill="midnightblue" stroke="midnightblue" points="379.5,-258.4 383,-268.4 386.5,-258.4 379.5,-258.4"/>
</g>
<!-- Node9 -->
<g id="node9" class="node">
<title>Node9</title>
<g id="a_node9"><a xlink:href="../../dc/d33/DiffusionConstantsTests_8cpp.html" target="_top" xlink:title=" ">
<polygon fill="white" stroke="black" points="471,-201.5 471,-231.5 655,-231.5 655,-201.5 471,-201.5"/>
<text text-anchor="start" x="479" y="-219.5" font-family="Helvetica,sans-Serif" font-size="10.00">src/utils/physics/diffusion</text>
<text text-anchor="middle" x="563" y="-208.5" font-family="Helvetica,sans-Serif" font-size="10.00">/tests/DiffusionConstantsTests.cpp</text>
</a>
</g>
</g>
<!-- Node1&#45;&gt;Node9 -->
<g id="edge8" class="edge">
<title>Node1&#45;&gt;Node9</title>
<path fill="none" stroke="midnightblue" d="M431.59,-264.96C460.58,-254.48 496.91,-241.37 524.02,-231.58"/>
<polygon fill="midnightblue" stroke="midnightblue" points="430.27,-261.71 422.06,-268.4 432.65,-268.29 430.27,-261.71"/>
</g>
<!-- Node3 -->
<g id="node3" class="node">
<title>Node3</title>
<g id="a_node3"><a xlink:href="../../dd/df8/project_2project2_2InputsOutputs_8h.html" target="_top" xlink:title="This file contains the input and output definitions for this project.">
<polygon fill="white" stroke="black" points="0,-134.5 0,-164.5 110,-164.5 110,-134.5 0,-134.5"/>
<text text-anchor="start" x="8" y="-152.5" font-family="Helvetica,sans-Serif" font-size="10.00">src/project/project2</text>
<text text-anchor="middle" x="55" y="-141.5" font-family="Helvetica,sans-Serif" font-size="10.00">/InputsOutputs.h</text>
</a>
</g>
</g>
<!-- Node2&#45;&gt;Node3 -->
<g id="edge2" class="edge">
<title>Node2&#45;&gt;Node3</title>
<path fill="none" stroke="midnightblue" d="M168.63,-197.54C143.51,-187.14 112.34,-174.24 89,-164.58"/>
<polygon fill="midnightblue" stroke="midnightblue" points="167.36,-200.8 177.93,-201.4 170.03,-194.34 167.36,-200.8"/>
</g>
<!-- Node6 -->
<g id="node6" class="node">
<title>Node6</title>
<g id="a_node6"><a xlink:href="../../d6/d18/DiffusionMatrixTests_8cpp.html" target="_top" xlink:title="TODO::DOCUMENT.">
<polygon fill="white" stroke="black" points="128.5,-134.5 128.5,-164.5 295.5,-164.5 295.5,-134.5 128.5,-134.5"/>
<text text-anchor="start" x="136.5" y="-152.5" font-family="Helvetica,sans-Serif" font-size="10.00">src/utils/physics/diffusion</text>
<text text-anchor="middle" x="212" y="-141.5" font-family="Helvetica,sans-Serif" font-size="10.00">/tests/DiffusionMatrixTests.cpp</text>
</a>
</g>
</g>
<!-- Node2&#45;&gt;Node6 -->
<g id="edge5" class="edge">
<title>Node2&#45;&gt;Node6</title>
<path fill="none" stroke="midnightblue" d="M212,-191.11C212,-182.15 212,-172.32 212,-164.58"/>
<polygon fill="midnightblue" stroke="midnightblue" points="208.5,-191.4 212,-201.4 215.5,-191.4 208.5,-191.4"/>
</g>
<!-- Node4 -->
<g id="node4" class="node">
<title>Node4</title>
<g id="a_node4"><a xlink:href="../../dc/d79/project2_8h.html" target="_top" xlink:title=" ">
<polygon fill="white" stroke="black" points="0,-67.5 0,-97.5 110,-97.5 110,-67.5 0,-67.5"/>
<text text-anchor="start" x="8" y="-85.5" font-family="Helvetica,sans-Serif" font-size="10.00">src/project/project2</text>
<text text-anchor="middle" x="55" y="-74.5" font-family="Helvetica,sans-Serif" font-size="10.00">/project2.h</text>
</a>
</g>
</g>
<!-- Node3&#45;&gt;Node4 -->
<g id="edge3" class="edge">
<title>Node3&#45;&gt;Node4</title>
<path fill="none" stroke="midnightblue" d="M55,-124.11C55,-115.15 55,-105.32 55,-97.58"/>
<polygon fill="midnightblue" stroke="midnightblue" points="51.5,-124.4 55,-134.4 58.5,-124.4 51.5,-124.4"/>
</g>
<!-- Node5 -->
<g id="node5" class="node">
<title>Node5</title>
<g id="a_node5"><a xlink:href="../../dd/d48/project_2project2_2main_8cpp.html" target="_top" xlink:title=" ">
<polygon fill="white" stroke="black" points="0,-0.5 0,-30.5 110,-30.5 110,-0.5 0,-0.5"/>
<text text-anchor="start" x="8" y="-18.5" font-family="Helvetica,sans-Serif" font-size="10.00">src/project/project2</text>
<text text-anchor="middle" x="55" y="-7.5" font-family="Helvetica,sans-Serif" font-size="10.00">/main.cpp</text>
</a>
</g>
</g>
<!-- Node4&#45;&gt;Node5 -->
<g id="edge4" class="edge">
<title>Node4&#45;&gt;Node5</title>
<path fill="none" stroke="midnightblue" d="M55,-57.11C55,-48.15 55,-38.32 55,-30.58"/>
<polygon fill="midnightblue" stroke="midnightblue" points="51.5,-57.4 55,-67.4 58.5,-57.4 51.5,-57.4"/>
</g>
<!-- Node8 -->
<g id="node8" class="node">
<title>Node8</title>
<g id="a_node8"><a xlink:href="../../d0/deb/SourceVectorTests_8h_8cpp.html" target="_top" xlink:title=" ">
<polygon fill="white" stroke="black" points="314,-134.5 314,-164.5 478,-164.5 478,-134.5 314,-134.5"/>
<text text-anchor="start" x="322" y="-152.5" font-family="Helvetica,sans-Serif" font-size="10.00">src/utils/physics/diffusion</text>
<text text-anchor="middle" x="396" y="-141.5" font-family="Helvetica,sans-Serif" font-size="10.00">/tests/SourceVectorTests.h.cpp</text>
</a>
</g>
</g>
<!-- Node7&#45;&gt;Node8 -->
<g id="edge7" class="edge">
<title>Node7&#45;&gt;Node8</title>
<path fill="none" stroke="midnightblue" d="M387.82,-191.4C389.63,-182.37 391.62,-172.41 393.18,-164.58"/>
<polygon fill="midnightblue" stroke="midnightblue" points="384.35,-190.9 385.82,-201.4 391.21,-192.28 384.35,-190.9"/>
</g>
</g>
</svg>
