<?xml version="1.0" encoding="UTF-8" standalone="no"?>
<!DOCTYPE svg PUBLIC "-//W3C//DTD SVG 1.1//EN"
 "http://www.w3.org/Graphics/SVG/1.1/DTD/svg11.dtd">
<!-- Generated by graphviz version 2.43.0 (0)
 -->
<!-- Title: src/utils/FileParser.h Pages: 1 -->
<!--zoomable 296 -->
<svg id="main" version="1.1" xmlns="http://www.w3.org/2000/svg" xmlns:xlink="http://www.w3.org/1999/xlink" xml:space="preserve" onload="init(evt)">
<style type="text/css"><![CDATA[
.edge:hover path { stroke: red; }
.edge:hover polygon { stroke: red; fill: red; }
]]></style>
<script type="text/javascript"><![CDATA[
var edges = document.getElementsByTagName('g');
if (edges && edges.length) {
  for (var i=0;i<edges.length;i++) {
    if (edges[i].id.substr(0,4)=='edge') {
      edges[i].setAttribute('class','edge');
    }
  }
}
]]></script>
        <defs>
                <circle id="rim" cx="0" cy="0" r="7"/>
                <circle id="rim2" cx="0" cy="0" r="3.5"/>
                <g id="zoomPlus">
                        <use xlink:href="#rim" fill="#404040">
                                <set attributeName="fill" to="#808080" begin="zoomplus.mouseover" end="zoomplus.mouseout"/>
                        </use>
                        <path d="M-4,0h8M0,-4v8" fill="none" stroke="white" stroke-width="1.5" pointer-events="none"/>
                </g>
                <g id="zoomMin">
                        <use xlink:href="#rim" fill="#404040">
                                <set attributeName="fill" to="#808080" begin="zoomminus.mouseover" end="zoomminus.mouseout"/>
                        </use>
                        <path d="M-4,0h8" fill="none" stroke="white" stroke-width="1.5" pointer-events="none"/>
                </g>
                <g id="dirArrow">
                        <path fill="none" stroke="white" stroke-width="1.5" d="M0,-3.0v7 M-2.5,-0.5L0,-3.0L2.5,-0.5"/>
                </g>
               <g id="resetDef">
                       <use xlink:href="#rim2" fill="#404040">
                               <set attributeName="fill" to="#808080" begin="reset.mouseover" end="reset.mouseout"/>
                       </use>
               </g>
        </defs>

<script type="text/javascript">
var viewWidth = 2658;
var viewHeight = 296;
var sectionId = 'dynsection-1';
</script>
<script xlink:href="../../svgpan.js"/>
<svg id="graph" class="graph">
<g id="viewport">
<title>src/utils/FileParser.h</title>
<polygon fill="white" stroke="transparent" points="-4,4 -4,-292 2653.5,-292 2653.5,4 -4,4"/>
<!-- Node1 -->
<g id="node1" class="node">
<title>Node1</title>
<g id="a_node1"><a xlink:title="This file contains the definitions for functions that handle file parsing operations.">
<polygon fill="#bfbfbf" stroke="black" points="1410,-268.5 1410,-287.5 1523,-287.5 1523,-268.5 1410,-268.5"/>
<text text-anchor="middle" x="1466.5" y="-275.5" font-family="Helvetica,sans-Serif" font-size="10.00">src/utils/FileParser.h</text>
</a>
</g>
</g>
<!-- Node2 -->
<g id="node2" class="node">
<title>Node2</title>
<g id="a_node2"><a xlink:href="../../d4/da9/labs_2inlab10_2Parser_8h.html" target="_top" xlink:title="This file contains the Parser class which is responsible for parsing command line arguments and valid...">
<polygon fill="white" stroke="black" points="6.5,-207 6.5,-226 140.5,-226 140.5,-207 6.5,-207"/>
<text text-anchor="middle" x="73.5" y="-214" font-family="Helvetica,sans-Serif" font-size="10.00">src/labs/inlab10/Parser.h</text>
</a>
</g>
</g>
<!-- Node1&#45;&gt;Node2 -->
<g id="edge1" class="edge">
<title>Node1&#45;&gt;Node2</title>
<path fill="none" stroke="midnightblue" d="M1399.6,-276.01C1167.56,-272.38 398.07,-258.59 152.5,-232 139.75,-230.62 125.96,-228.36 113.52,-226.03"/>
<polygon fill="midnightblue" stroke="midnightblue" points="1399.87,-279.52 1409.92,-276.17 1399.97,-272.52 1399.87,-279.52"/>
</g>
<!-- Node5 -->
<g id="node5" class="node">
<title>Node5</title>
<g id="a_node5"><a xlink:href="../../d6/d20/inlab2_8h.html" target="_top" xlink:title=" ">
<polygon fill="white" stroke="black" points="162,-207 162,-226 291,-226 291,-207 162,-207"/>
<text text-anchor="middle" x="226.5" y="-214" font-family="Helvetica,sans-Serif" font-size="10.00">src/labs/inlab2/inlab2.h</text>
</a>
</g>
</g>
<!-- Node1&#45;&gt;Node5 -->
<g id="edge4" class="edge">
<title>Node1&#45;&gt;Node5</title>
<path fill="none" stroke="midnightblue" d="M1399.59,-275.81C1184.89,-271.76 514.83,-257.38 299.5,-232 287.69,-230.61 274.95,-228.34 263.46,-226.01"/>
<polygon fill="midnightblue" stroke="midnightblue" points="1399.7,-279.31 1409.76,-276 1399.83,-272.31 1399.7,-279.31"/>
</g>
<!-- Node7 -->
<g id="node7" class="node">
<title>Node7</title>
<g id="a_node7"><a xlink:href="../../d6/de0/inlab3_8h.html" target="_top" xlink:title=" ">
<polygon fill="white" stroke="black" points="309,-207 309,-226 438,-226 438,-207 309,-207"/>
<text text-anchor="middle" x="373.5" y="-214" font-family="Helvetica,sans-Serif" font-size="10.00">src/labs/inlab3/inlab3.h</text>
</a>
</g>
</g>
<!-- Node1&#45;&gt;Node7 -->
<g id="edge6" class="edge">
<title>Node1&#45;&gt;Node7</title>
<path fill="none" stroke="midnightblue" d="M1399.55,-277.49C1236.22,-277.94 804.52,-274.62 447.5,-232 435.67,-230.59 422.9,-228.35 411.35,-226.05"/>
<polygon fill="midnightblue" stroke="midnightblue" points="1399.93,-280.99 1409.92,-277.46 1399.91,-273.99 1399.93,-280.99"/>
</g>
<!-- Node9 -->
<g id="node9" class="node">
<title>Node9</title>
<g id="a_node9"><a xlink:href="../../df/dde/labs_2inlab4_2Parser_8h.html" target="_top" xlink:title="This file contains the Parser class which is responsible for parsing command line arguments and valid...">
<polygon fill="white" stroke="black" points="456.5,-207 456.5,-226 584.5,-226 584.5,-207 456.5,-207"/>
<text text-anchor="middle" x="520.5" y="-214" font-family="Helvetica,sans-Serif" font-size="10.00">src/labs/inlab4/Parser.h</text>
</a>
</g>
</g>
<!-- Node1&#45;&gt;Node9 -->
<g id="edge8" class="edge">
<title>Node1&#45;&gt;Node9</title>
<path fill="none" stroke="midnightblue" d="M1399.79,-276.54C1253.94,-274.87 895.93,-267.2 598.5,-232 586.19,-230.54 572.89,-228.32 560.83,-226.05"/>
<polygon fill="midnightblue" stroke="midnightblue" points="1399.88,-280.04 1409.92,-276.65 1399.96,-273.04 1399.88,-280.04"/>
</g>
<!-- Node10 -->
<g id="node10" class="node">
<title>Node10</title>
<g id="a_node10"><a xlink:href="../../d3/d2e/inlab4_8h.html" target="_top" xlink:title=" ">
<polygon fill="white" stroke="black" points="472,-140 472,-159 601,-159 601,-140 472,-140"/>
<text text-anchor="middle" x="536.5" y="-147" font-family="Helvetica,sans-Serif" font-size="10.00">src/labs/inlab4/inlab4.h</text>
</a>
</g>
</g>
<!-- Node1&#45;&gt;Node10 -->
<g id="edge11" class="edge">
<title>Node1&#45;&gt;Node10</title>
<path fill="none" stroke="midnightblue" d="M1399.65,-275.86C1214.13,-272.37 701.92,-260.24 631.5,-232 626.38,-229.95 569.64,-179.9 546.37,-159.27"/>
<polygon fill="midnightblue" stroke="midnightblue" points="1399.75,-279.37 1409.81,-276.05 1399.88,-272.37 1399.75,-279.37"/>
</g>
<!-- Node12 -->
<g id="node12" class="node">
<title>Node12</title>
<g id="a_node12"><a xlink:href="../../dd/da5/inlab5_8h.html" target="_top" xlink:title=" ">
<polygon fill="white" stroke="black" points="641,-207 641,-226 770,-226 770,-207 641,-207"/>
<text text-anchor="middle" x="705.5" y="-214" font-family="Helvetica,sans-Serif" font-size="10.00">src/labs/inlab5/inlab5.h</text>
</a>
</g>
</g>
<!-- Node1&#45;&gt;Node12 -->
<g id="edge12" class="edge">
<title>Node1&#45;&gt;Node12</title>
<path fill="none" stroke="midnightblue" d="M1399.68,-275.46C1276.55,-272 1005.75,-261.45 779.5,-232 767.95,-230.5 755.48,-228.29 744.14,-226.04"/>
<polygon fill="midnightblue" stroke="midnightblue" points="1399.62,-278.96 1409.71,-275.74 1399.81,-271.97 1399.62,-278.96"/>
</g>
<!-- Node14 -->
<g id="node14" class="node">
<title>Node14</title>
<g id="a_node14"><a xlink:href="../../d1/dad/labs_2inlab6_2Parser_8h.html" target="_top" xlink:title="This file contains the Parser class which is responsible for parsing command line arguments and valid...">
<polygon fill="white" stroke="black" points="788.5,-207 788.5,-226 916.5,-226 916.5,-207 788.5,-207"/>
<text text-anchor="middle" x="852.5" y="-214" font-family="Helvetica,sans-Serif" font-size="10.00">src/labs/inlab6/Parser.h</text>
</a>
</g>
</g>
<!-- Node1&#45;&gt;Node14 -->
<g id="edge14" class="edge">
<title>Node1&#45;&gt;Node14</title>
<path fill="none" stroke="midnightblue" d="M1399.6,-273.87C1297.14,-268.54 1095.36,-255.86 925.5,-232 914.37,-230.44 902.37,-228.26 891.38,-226.07"/>
<polygon fill="midnightblue" stroke="midnightblue" points="1399.63,-277.38 1409.8,-274.4 1399.99,-270.39 1399.63,-277.38"/>
</g>
<!-- Node17 -->
<g id="node17" class="node">
<title>Node17</title>
<g id="a_node17"><a xlink:href="../../d7/d44/labs_2inlab8_2Parser_8h.html" target="_top" xlink:title="This file contains the Parser class which is responsible for parsing command line arguments and valid...">
<polygon fill="white" stroke="black" points="934.5,-207 934.5,-226 1062.5,-226 1062.5,-207 934.5,-207"/>
<text text-anchor="middle" x="998.5" y="-214" font-family="Helvetica,sans-Serif" font-size="10.00">src/labs/inlab8/Parser.h</text>
</a>
</g>
</g>
<!-- Node1&#45;&gt;Node17 -->
<g id="edge17" class="edge">
<title>Node1&#45;&gt;Node17</title>
<path fill="none" stroke="midnightblue" d="M1399.46,-271.07C1320.69,-263.7 1186.2,-249.89 1071.5,-232 1060.78,-230.33 1049.23,-228.19 1038.56,-226.08"/>
<polygon fill="midnightblue" stroke="midnightblue" points="1399.44,-274.58 1409.72,-272.02 1400.09,-267.61 1399.44,-274.58"/>
</g>
<!-- Node20 -->
<g id="node20" class="node">
<title>Node20</title>
<g id="a_node20"><a xlink:href="../../d1/de1/labs_2outlab2_2Parser_8h.html" target="_top" xlink:title=" ">
<polygon fill="white" stroke="black" points="1081,-207 1081,-226 1216,-226 1216,-207 1081,-207"/>
<text text-anchor="middle" x="1148.5" y="-214" font-family="Helvetica,sans-Serif" font-size="10.00">src/labs/outlab2/Parser.h</text>
</a>
</g>
</g>
<!-- Node1&#45;&gt;Node20 -->
<g id="edge20" class="edge">
<title>Node1&#45;&gt;Node20</title>
<path fill="none" stroke="midnightblue" d="M1410,-266.57C1360.95,-257.5 1288.01,-243.96 1224.5,-232 1214.34,-230.09 1203.41,-228.01 1193.1,-226.05"/>
<polygon fill="midnightblue" stroke="midnightblue" points="1409.63,-270.06 1420.09,-268.44 1410.9,-263.18 1409.63,-270.06"/>
</g>
<!-- Node23 -->
<g id="node23" class="node">
<title>Node23</title>
<g id="a_node23"><a xlink:href="../../d6/de6/outlab3_8h.html" target="_top" xlink:title=" ">
<polygon fill="white" stroke="black" points="1234,-207 1234,-226 1377,-226 1377,-207 1234,-207"/>
<text text-anchor="middle" x="1305.5" y="-214" font-family="Helvetica,sans-Serif" font-size="10.00">src/labs/outlab3/outlab3.h</text>
</a>
</g>
</g>
<!-- Node1&#45;&gt;Node23 -->
<g id="edge23" class="edge">
<title>Node1&#45;&gt;Node23</title>
<path fill="none" stroke="midnightblue" d="M1433.85,-264.93C1402.56,-253.37 1356.12,-236.21 1328.52,-226.01"/>
<polygon fill="midnightblue" stroke="midnightblue" points="1432.84,-268.29 1443.43,-268.48 1435.27,-261.73 1432.84,-268.29"/>
</g>
<!-- Node25 -->
<g id="node25" class="node">
<title>Node25</title>
<g id="a_node25"><a xlink:href="../../da/dd1/outlab4_8h.html" target="_top" xlink:title=" ">
<polygon fill="white" stroke="black" points="1395,-207 1395,-226 1538,-226 1538,-207 1395,-207"/>
<text text-anchor="middle" x="1466.5" y="-214" font-family="Helvetica,sans-Serif" font-size="10.00">src/labs/outlab4/outlab4.h</text>
</a>
</g>
</g>
<!-- Node1&#45;&gt;Node25 -->
<g id="edge25" class="edge">
<title>Node1&#45;&gt;Node25</title>
<path fill="none" stroke="midnightblue" d="M1466.5,-258.32C1466.5,-247.5 1466.5,-234.4 1466.5,-226.01"/>
<polygon fill="midnightblue" stroke="midnightblue" points="1463,-258.48 1466.5,-268.48 1470,-258.48 1463,-258.48"/>
</g>
<!-- Node27 -->
<g id="node27" class="node">
<title>Node27</title>
<g id="a_node27"><a xlink:href="../../d7/d4d/labs_2outlab5_2Parser_8h.html" target="_top" xlink:title="This file contains the Parser class which is responsible for parsing command line arguments and valid...">
<polygon fill="white" stroke="black" points="1556,-207 1556,-226 1691,-226 1691,-207 1556,-207"/>
<text text-anchor="middle" x="1623.5" y="-214" font-family="Helvetica,sans-Serif" font-size="10.00">src/labs/outlab5/Parser.h</text>
</a>
</g>
</g>
<!-- Node1&#45;&gt;Node27 -->
<g id="edge27" class="edge">
<title>Node1&#45;&gt;Node27</title>
<path fill="none" stroke="midnightblue" d="M1498.74,-264.78C1529.25,-253.22 1574.25,-236.16 1601.05,-226.01"/>
<polygon fill="midnightblue" stroke="midnightblue" points="1497.1,-261.66 1488.99,-268.48 1499.59,-268.2 1497.1,-261.66"/>
</g>
<!-- Node30 -->
<g id="node30" class="node">
<title>Node30</title>
<g id="a_node30"><a xlink:href="../../d9/d9b/labs_2outlab6_2Parser_8h.html" target="_top" xlink:title="This file contains the Parser class which is responsible for parsing command line arguments and valid...">
<polygon fill="white" stroke="black" points="1709,-207 1709,-226 1844,-226 1844,-207 1709,-207"/>
<text text-anchor="middle" x="1776.5" y="-214" font-family="Helvetica,sans-Serif" font-size="10.00">src/labs/outlab6/Parser.h</text>
</a>
</g>
</g>
<!-- Node1&#45;&gt;Node30 -->
<g id="edge30" class="edge">
<title>Node1&#45;&gt;Node30</title>
<path fill="none" stroke="midnightblue" d="M1520.97,-266.55C1581.03,-255.02 1676.5,-236.69 1732.17,-226.01"/>
<polygon fill="midnightblue" stroke="midnightblue" points="1520.08,-263.15 1510.92,-268.48 1521.4,-270.03 1520.08,-263.15"/>
</g>
<!-- Node33 -->
<g id="node33" class="node">
<title>Node33</title>
<g id="a_node33"><a xlink:href="../../d2/d4a/labs_2outlab7_2Parser_8h.html" target="_top" xlink:title="This file contains the Parser class which is responsible for parsing command line arguments and valid...">
<polygon fill="white" stroke="black" points="1862,-207 1862,-226 1997,-226 1997,-207 1862,-207"/>
<text text-anchor="middle" x="1929.5" y="-214" font-family="Helvetica,sans-Serif" font-size="10.00">src/labs/outlab7/Parser.h</text>
</a>
</g>
</g>
<!-- Node1&#45;&gt;Node33 -->
<g id="edge33" class="edge">
<title>Node1&#45;&gt;Node33</title>
<path fill="none" stroke="midnightblue" d="M1533.15,-270.74C1610.42,-263.13 1741.52,-249.17 1853.5,-232 1864.65,-230.29 1876.67,-228.14 1887.78,-226.03"/>
<polygon fill="midnightblue" stroke="midnightblue" points="1532.68,-267.27 1523.07,-271.72 1533.37,-274.23 1532.68,-267.27"/>
</g>
<!-- Node36 -->
<g id="node36" class="node">
<title>Node36</title>
<g id="a_node36"><a xlink:href="../../d0/df9/project_2project1_2Parser_8h.html" target="_top" xlink:title="This file contains the Parser class which is responsible for parsing command line arguments and valid...">
<polygon fill="white" stroke="black" points="2015.5,-201.5 2015.5,-231.5 2125.5,-231.5 2125.5,-201.5 2015.5,-201.5"/>
<text text-anchor="start" x="2023.5" y="-219.5" font-family="Helvetica,sans-Serif" font-size="10.00">src/project/project1</text>
<text text-anchor="middle" x="2070.5" y="-208.5" font-family="Helvetica,sans-Serif" font-size="10.00">/Parser.h</text>
</a>
</g>
</g>
<!-- Node1&#45;&gt;Node36 -->
<g id="edge36" class="edge">
<title>Node1&#45;&gt;Node36</title>
<path fill="none" stroke="midnightblue" d="M1533.36,-274.43C1635.74,-269.83 1837.28,-258.09 2006.5,-232 2009.43,-231.55 2012.42,-231.04 2015.44,-230.49"/>
<polygon fill="midnightblue" stroke="midnightblue" points="1533,-270.95 1523.17,-274.88 1533.31,-277.94 1533,-270.95"/>
</g>
<!-- Node39 -->
<g id="node39" class="node">
<title>Node39</title>
<g id="a_node39"><a xlink:href="../../db/d6e/project_2project2_2Compute_8h.html" target="_top" xlink:title="Compute methods for project milestone 1 in NE591&#45;008.">
<polygon fill="white" stroke="black" points="2143.5,-201.5 2143.5,-231.5 2253.5,-231.5 2253.5,-201.5 2143.5,-201.5"/>
<text text-anchor="start" x="2151.5" y="-219.5" font-family="Helvetica,sans-Serif" font-size="10.00">src/project/project2</text>
<text text-anchor="middle" x="2198.5" y="-208.5" font-family="Helvetica,sans-Serif" font-size="10.00">/Compute.h</text>
</a>
</g>
</g>
<!-- Node1&#45;&gt;Node39 -->
<g id="edge39" class="edge">
<title>Node1&#45;&gt;Node39</title>
<path fill="none" stroke="midnightblue" d="M1533.3,-275.93C1653.96,-273.24 1916.01,-263.91 2134.5,-232 2137.43,-231.57 2140.43,-231.08 2143.44,-230.55"/>
<polygon fill="midnightblue" stroke="midnightblue" points="1533.04,-272.44 1523.12,-276.15 1533.19,-279.44 1533.04,-272.44"/>
</g>
<!-- Node42 -->
<g id="node42" class="node">
<title>Node42</title>
<g id="a_node42"><a xlink:href="../../d6/da7/project_2project2_2Parser_8h.html" target="_top" xlink:title="This file contains the Parser class which is responsible for parsing command line arguments and valid...">
<polygon fill="white" stroke="black" points="2204.5,-134.5 2204.5,-164.5 2314.5,-164.5 2314.5,-134.5 2204.5,-134.5"/>
<text text-anchor="start" x="2212.5" y="-152.5" font-family="Helvetica,sans-Serif" font-size="10.00">src/project/project2</text>
<text text-anchor="middle" x="2259.5" y="-141.5" font-family="Helvetica,sans-Serif" font-size="10.00">/Parser.h</text>
</a>
</g>
</g>
<!-- Node1&#45;&gt;Node42 -->
<g id="edge44" class="edge">
<title>Node1&#45;&gt;Node42</title>
<path fill="none" stroke="midnightblue" d="M1533.51,-275.69C1720.78,-271.7 2237.61,-258.33 2262.5,-232 2279.42,-214.09 2271.95,-182.88 2265.43,-164.72"/>
<polygon fill="midnightblue" stroke="midnightblue" points="1533.17,-272.19 1523.25,-275.9 1533.32,-279.19 1533.17,-272.19"/>
</g>
<!-- Node43 -->
<g id="node43" class="node">
<title>Node43</title>
<g id="a_node43"><a xlink:href="../../d8/d8f/project_2project3_2Compute_8h.html" target="_top" xlink:title="Compute methods for project milestone 3 in NE591&#45;008.">
<polygon fill="white" stroke="black" points="2347.5,-201.5 2347.5,-231.5 2457.5,-231.5 2457.5,-201.5 2347.5,-201.5"/>
<text text-anchor="start" x="2355.5" y="-219.5" font-family="Helvetica,sans-Serif" font-size="10.00">src/project/project3</text>
<text text-anchor="middle" x="2402.5" y="-208.5" font-family="Helvetica,sans-Serif" font-size="10.00">/Compute.h</text>
</a>
</g>
</g>
<!-- Node1&#45;&gt;Node43 -->
<g id="edge45" class="edge">
<title>Node1&#45;&gt;Node43</title>
<path fill="none" stroke="midnightblue" d="M1533.2,-277.06C1679.01,-276.41 2036.84,-270.63 2333.5,-232 2337.99,-231.42 2342.63,-230.7 2347.27,-229.89"/>
<polygon fill="midnightblue" stroke="midnightblue" points="1533.06,-273.56 1523.07,-277.09 1533.08,-280.56 1533.06,-273.56"/>
</g>
<!-- Node44 -->
<g id="node44" class="node">
<title>Node44</title>
<g id="a_node44"><a xlink:href="../../d7/d5d/project_2project3_2Parser_8h.html" target="_top" xlink:title="This file contains the Parser class which is responsible for parsing command line arguments and valid...">
<polygon fill="white" stroke="black" points="2332.5,-134.5 2332.5,-164.5 2442.5,-164.5 2442.5,-134.5 2332.5,-134.5"/>
<text text-anchor="start" x="2340.5" y="-152.5" font-family="Helvetica,sans-Serif" font-size="10.00">src/project/project3</text>
<text text-anchor="middle" x="2387.5" y="-141.5" font-family="Helvetica,sans-Serif" font-size="10.00">/Parser.h</text>
</a>
</g>
</g>
<!-- Node1&#45;&gt;Node44 -->
<g id="edge50" class="edge">
<title>Node1&#45;&gt;Node44</title>
<path fill="none" stroke="midnightblue" d="M1533.55,-275.57C1715.99,-271.36 2212.3,-257.68 2281.5,-232 2320.24,-217.63 2356.35,-183.84 2374.76,-164.58"/>
<polygon fill="midnightblue" stroke="midnightblue" points="1533.21,-272.08 1523.29,-275.81 1533.37,-279.08 1533.21,-272.08"/>
</g>
<!-- Node47 -->
<g id="node47" class="node">
<title>Node47</title>
<g id="a_node47"><a xlink:href="../../df/def/project_2project4_2Compute_8h.html" target="_top" xlink:title="Compute methods for project milestone 4 in NE591&#45;008.">
<polygon fill="white" stroke="black" points="2513.5,-201.5 2513.5,-231.5 2623.5,-231.5 2623.5,-201.5 2513.5,-201.5"/>
<text text-anchor="start" x="2521.5" y="-219.5" font-family="Helvetica,sans-Serif" font-size="10.00">src/project/project4</text>
<text text-anchor="middle" x="2568.5" y="-208.5" font-family="Helvetica,sans-Serif" font-size="10.00">/Compute.h</text>
</a>
</g>
</g>
<!-- Node1&#45;&gt;Node47 -->
<g id="edge51" class="edge">
<title>Node1&#45;&gt;Node47</title>
<path fill="none" stroke="midnightblue" d="M1533.34,-275.52C1731.15,-270.91 2311.51,-255.68 2499.5,-232 2503.99,-231.43 2508.63,-230.73 2513.27,-229.94"/>
<polygon fill="midnightblue" stroke="midnightblue" points="1533.01,-272.02 1523.1,-275.76 1533.17,-279.02 1533.01,-272.02"/>
</g>
<!-- Node48 -->
<g id="node48" class="node">
<title>Node48</title>
<g id="a_node48"><a xlink:href="../../db/d50/project_2project4_2Parser_8h.html" target="_top" xlink:title="This file contains the Parser class which is responsible for parsing command line arguments and valid...">
<polygon fill="white" stroke="black" points="2498.5,-134.5 2498.5,-164.5 2608.5,-164.5 2608.5,-134.5 2498.5,-134.5"/>
<text text-anchor="start" x="2506.5" y="-152.5" font-family="Helvetica,sans-Serif" font-size="10.00">src/project/project4</text>
<text text-anchor="middle" x="2553.5" y="-141.5" font-family="Helvetica,sans-Serif" font-size="10.00">/Parser.h</text>
</a>
</g>
</g>
<!-- Node1&#45;&gt;Node48 -->
<g id="edge56" class="edge">
<title>Node1&#45;&gt;Node48</title>
<path fill="none" stroke="midnightblue" d="M1533.27,-276.67C1743.2,-275.25 2381.06,-268.01 2466.5,-232 2475.37,-228.26 2517.28,-186.93 2539.53,-164.61"/>
<polygon fill="midnightblue" stroke="midnightblue" points="1532.98,-273.17 1523.01,-276.73 1533.03,-280.17 1532.98,-273.17"/>
</g>
<!-- Node3 -->
<g id="node3" class="node">
<title>Node3</title>
<g id="a_node3"><a xlink:href="../../d9/dc1/inlab10_8h.html" target="_top" xlink:title=" ">
<polygon fill="white" stroke="black" points="0,-140 0,-159 141,-159 141,-140 0,-140"/>
<text text-anchor="middle" x="70.5" y="-147" font-family="Helvetica,sans-Serif" font-size="10.00">src/labs/inlab10/inlab10.h</text>
</a>
</g>
</g>
<!-- Node2&#45;&gt;Node3 -->
<g id="edge2" class="edge">
<title>Node2&#45;&gt;Node3</title>
<path fill="none" stroke="midnightblue" d="M72.62,-196.54C72.05,-184.17 71.34,-168.62 70.9,-159.13"/>
<polygon fill="midnightblue" stroke="midnightblue" points="69.14,-196.91 73.1,-206.73 76.13,-196.58 69.14,-196.91"/>
</g>
<!-- Node4 -->
<g id="node4" class="node">
<title>Node4</title>
<g id="a_node4"><a xlink:href="../../dd/d41/labs_2inlab10_2main_8cpp.html" target="_top" xlink:title=" ">
<polygon fill="white" stroke="black" points="0,-73 0,-92 141,-92 141,-73 0,-73"/>
<text text-anchor="middle" x="70.5" y="-80" font-family="Helvetica,sans-Serif" font-size="10.00">src/labs/inlab10/main.cpp</text>
</a>
</g>
</g>
<!-- Node3&#45;&gt;Node4 -->
<g id="edge3" class="edge">
<title>Node3&#45;&gt;Node4</title>
<path fill="none" stroke="midnightblue" d="M70.5,-129.54C70.5,-117.17 70.5,-101.62 70.5,-92.13"/>
<polygon fill="midnightblue" stroke="midnightblue" points="67,-129.73 70.5,-139.73 74,-129.73 67,-129.73"/>
</g>
<!-- Node6 -->
<g id="node6" class="node">
<title>Node6</title>
<g id="a_node6"><a xlink:href="../../de/d2e/labs_2inlab2_2main_8cpp.html" target="_top" xlink:title=" ">
<polygon fill="white" stroke="black" points="159,-140 159,-159 294,-159 294,-140 159,-140"/>
<text text-anchor="middle" x="226.5" y="-147" font-family="Helvetica,sans-Serif" font-size="10.00">src/labs/inlab2/main.cpp</text>
</a>
</g>
</g>
<!-- Node5&#45;&gt;Node6 -->
<g id="edge5" class="edge">
<title>Node5&#45;&gt;Node6</title>
<path fill="none" stroke="midnightblue" d="M226.5,-196.54C226.5,-184.17 226.5,-168.62 226.5,-159.13"/>
<polygon fill="midnightblue" stroke="midnightblue" points="223,-196.73 226.5,-206.73 230,-196.73 223,-196.73"/>
</g>
<!-- Node8 -->
<g id="node8" class="node">
<title>Node8</title>
<g id="a_node8"><a xlink:href="../../db/db9/labs_2inlab3_2main_8cpp.html" target="_top" xlink:title=" ">
<polygon fill="white" stroke="black" points="312,-140 312,-159 447,-159 447,-140 312,-140"/>
<text text-anchor="middle" x="379.5" y="-147" font-family="Helvetica,sans-Serif" font-size="10.00">src/labs/inlab3/main.cpp</text>
</a>
</g>
</g>
<!-- Node7&#45;&gt;Node8 -->
<g id="edge7" class="edge">
<title>Node7&#45;&gt;Node8</title>
<path fill="none" stroke="midnightblue" d="M375.25,-196.54C376.39,-184.17 377.83,-168.62 378.7,-159.13"/>
<polygon fill="midnightblue" stroke="midnightblue" points="371.74,-196.45 374.31,-206.73 378.71,-197.1 371.74,-196.45"/>
</g>
<!-- Node9&#45;&gt;Node10 -->
<g id="edge9" class="edge">
<title>Node9&#45;&gt;Node10</title>
<path fill="none" stroke="midnightblue" d="M525.07,-196.91C528.13,-184.49 532.02,-168.72 534.38,-159.13"/>
<polygon fill="midnightblue" stroke="midnightblue" points="521.65,-196.19 522.66,-206.73 528.45,-197.86 521.65,-196.19"/>
</g>
<!-- Node11 -->
<g id="node11" class="node">
<title>Node11</title>
<g id="a_node11"><a xlink:href="../../dc/dac/labs_2inlab4_2main_8cpp.html" target="_top" xlink:title=" ">
<polygon fill="white" stroke="black" points="469,-73 469,-92 604,-92 604,-73 469,-73"/>
<text text-anchor="middle" x="536.5" y="-80" font-family="Helvetica,sans-Serif" font-size="10.00">src/labs/inlab4/main.cpp</text>
</a>
</g>
</g>
<!-- Node10&#45;&gt;Node11 -->
<g id="edge10" class="edge">
<title>Node10&#45;&gt;Node11</title>
<path fill="none" stroke="midnightblue" d="M536.5,-129.54C536.5,-117.17 536.5,-101.62 536.5,-92.13"/>
<polygon fill="midnightblue" stroke="midnightblue" points="533,-129.73 536.5,-139.73 540,-129.73 533,-129.73"/>
</g>
<!-- Node13 -->
<g id="node13" class="node">
<title>Node13</title>
<g id="a_node13"><a xlink:href="../../d4/db3/labs_2inlab5_2main_8cpp.html" target="_top" xlink:title=" ">
<polygon fill="white" stroke="black" points="626,-140 626,-159 761,-159 761,-140 626,-140"/>
<text text-anchor="middle" x="693.5" y="-147" font-family="Helvetica,sans-Serif" font-size="10.00">src/labs/inlab5/main.cpp</text>
</a>
</g>
</g>
<!-- Node12&#45;&gt;Node13 -->
<g id="edge13" class="edge">
<title>Node12&#45;&gt;Node13</title>
<path fill="none" stroke="midnightblue" d="M702,-196.54C699.72,-184.17 696.85,-168.62 695.09,-159.13"/>
<polygon fill="midnightblue" stroke="midnightblue" points="698.62,-197.54 703.88,-206.73 705.51,-196.26 698.62,-197.54"/>
</g>
<!-- Node15 -->
<g id="node15" class="node">
<title>Node15</title>
<g id="a_node15"><a xlink:href="../../d8/d48/inlab6_8h.html" target="_top" xlink:title=" ">
<polygon fill="white" stroke="black" points="779,-140 779,-159 908,-159 908,-140 779,-140"/>
<text text-anchor="middle" x="843.5" y="-147" font-family="Helvetica,sans-Serif" font-size="10.00">src/labs/inlab6/inlab6.h</text>
</a>
</g>
</g>
<!-- Node14&#45;&gt;Node15 -->
<g id="edge15" class="edge">
<title>Node14&#45;&gt;Node15</title>
<path fill="none" stroke="midnightblue" d="M849.87,-196.54C848.16,-184.17 846.01,-168.62 844.69,-159.13"/>
<polygon fill="midnightblue" stroke="midnightblue" points="846.45,-197.31 851.29,-206.73 853.38,-196.35 846.45,-197.31"/>
</g>
<!-- Node16 -->
<g id="node16" class="node">
<title>Node16</title>
<g id="a_node16"><a xlink:href="../../d2/d34/labs_2inlab6_2main_8cpp.html" target="_top" xlink:title=" ">
<polygon fill="white" stroke="black" points="770,-73 770,-92 905,-92 905,-73 770,-73"/>
<text text-anchor="middle" x="837.5" y="-80" font-family="Helvetica,sans-Serif" font-size="10.00">src/labs/inlab6/main.cpp</text>
</a>
</g>
</g>
<!-- Node15&#45;&gt;Node16 -->
<g id="edge16" class="edge">
<title>Node15&#45;&gt;Node16</title>
<path fill="none" stroke="midnightblue" d="M841.75,-129.54C840.61,-117.17 839.17,-101.62 838.3,-92.13"/>
<polygon fill="midnightblue" stroke="midnightblue" points="838.29,-130.1 842.69,-139.73 845.26,-129.45 838.29,-130.1"/>
</g>
<!-- Node18 -->
<g id="node18" class="node">
<title>Node18</title>
<g id="a_node18"><a xlink:href="../../de/d06/inlab8_8h.html" target="_top" xlink:title=" ">
<polygon fill="white" stroke="black" points="926,-140 926,-159 1055,-159 1055,-140 926,-140"/>
<text text-anchor="middle" x="990.5" y="-147" font-family="Helvetica,sans-Serif" font-size="10.00">src/labs/inlab8/inlab8.h</text>
</a>
</g>
</g>
<!-- Node17&#45;&gt;Node18 -->
<g id="edge18" class="edge">
<title>Node17&#45;&gt;Node18</title>
<path fill="none" stroke="midnightblue" d="M996.17,-196.54C994.64,-184.17 992.73,-168.62 991.56,-159.13"/>
<polygon fill="midnightblue" stroke="midnightblue" points="992.73,-197.24 997.42,-206.73 999.67,-196.38 992.73,-197.24"/>
</g>
<!-- Node19 -->
<g id="node19" class="node">
<title>Node19</title>
<g id="a_node19"><a xlink:href="../../df/de9/labs_2inlab8_2main_8cpp.html" target="_top" xlink:title=" ">
<polygon fill="white" stroke="black" points="923,-73 923,-92 1058,-92 1058,-73 923,-73"/>
<text text-anchor="middle" x="990.5" y="-80" font-family="Helvetica,sans-Serif" font-size="10.00">src/labs/inlab8/main.cpp</text>
</a>
</g>
</g>
<!-- Node18&#45;&gt;Node19 -->
<g id="edge19" class="edge">
<title>Node18&#45;&gt;Node19</title>
<path fill="none" stroke="midnightblue" d="M990.5,-129.54C990.5,-117.17 990.5,-101.62 990.5,-92.13"/>
<polygon fill="midnightblue" stroke="midnightblue" points="987,-129.73 990.5,-139.73 994,-129.73 987,-129.73"/>
</g>
<!-- Node21 -->
<g id="node21" class="node">
<title>Node21</title>
<g id="a_node21"><a xlink:href="../../d9/d34/outlab2_8h.html" target="_top" xlink:title=" ">
<polygon fill="white" stroke="black" points="1073,-140 1073,-159 1216,-159 1216,-140 1073,-140"/>
<text text-anchor="middle" x="1144.5" y="-147" font-family="Helvetica,sans-Serif" font-size="10.00">src/labs/outlab2/outlab2.h</text>
</a>
</g>
</g>
<!-- Node20&#45;&gt;Node21 -->
<g id="edge21" class="edge">
<title>Node20&#45;&gt;Node21</title>
<path fill="none" stroke="midnightblue" d="M1147.33,-196.54C1146.57,-184.17 1145.62,-168.62 1145.03,-159.13"/>
<polygon fill="midnightblue" stroke="midnightblue" points="1143.85,-196.97 1147.96,-206.73 1150.84,-196.54 1143.85,-196.97"/>
</g>
<!-- Node22 -->
<g id="node22" class="node">
<title>Node22</title>
<g id="a_node22"><a xlink:href="../../dc/ddd/labs_2outlab2_2main_8cpp.html" target="_top" xlink:title=" ">
<polygon fill="white" stroke="black" points="1076.5,-73 1076.5,-92 1218.5,-92 1218.5,-73 1076.5,-73"/>
<text text-anchor="middle" x="1147.5" y="-80" font-family="Helvetica,sans-Serif" font-size="10.00">src/labs/outlab2/main.cpp</text>
</a>
</g>
</g>
<!-- Node21&#45;&gt;Node22 -->
<g id="edge22" class="edge">
<title>Node21&#45;&gt;Node22</title>
<path fill="none" stroke="midnightblue" d="M1145.38,-129.54C1145.95,-117.17 1146.66,-101.62 1147.1,-92.13"/>
<polygon fill="midnightblue" stroke="midnightblue" points="1141.87,-129.58 1144.9,-139.73 1148.86,-129.91 1141.87,-129.58"/>
</g>
<!-- Node24 -->
<g id="node24" class="node">
<title>Node24</title>
<g id="a_node24"><a xlink:href="../../d1/d68/labs_2outlab3_2main_8cpp.html" target="_top" xlink:title=" ">
<polygon fill="white" stroke="black" points="1234.5,-140 1234.5,-159 1376.5,-159 1376.5,-140 1234.5,-140"/>
<text text-anchor="middle" x="1305.5" y="-147" font-family="Helvetica,sans-Serif" font-size="10.00">src/labs/outlab3/main.cpp</text>
</a>
</g>
</g>
<!-- Node23&#45;&gt;Node24 -->
<g id="edge24" class="edge">
<title>Node23&#45;&gt;Node24</title>
<path fill="none" stroke="midnightblue" d="M1305.5,-196.54C1305.5,-184.17 1305.5,-168.62 1305.5,-159.13"/>
<polygon fill="midnightblue" stroke="midnightblue" points="1302,-196.73 1305.5,-206.73 1309,-196.73 1302,-196.73"/>
</g>
<!-- Node26 -->
<g id="node26" class="node">
<title>Node26</title>
<g id="a_node26"><a xlink:href="../../d2/d65/labs_2outlab4_2main_8cpp.html" target="_top" xlink:title=" ">
<polygon fill="white" stroke="black" points="1394.5,-140 1394.5,-159 1536.5,-159 1536.5,-140 1394.5,-140"/>
<text text-anchor="middle" x="1465.5" y="-147" font-family="Helvetica,sans-Serif" font-size="10.00">src/labs/outlab4/main.cpp</text>
</a>
</g>
</g>
<!-- Node25&#45;&gt;Node26 -->
<g id="edge26" class="edge">
<title>Node25&#45;&gt;Node26</title>
<path fill="none" stroke="midnightblue" d="M1466.21,-196.54C1466.02,-184.17 1465.78,-168.62 1465.63,-159.13"/>
<polygon fill="midnightblue" stroke="midnightblue" points="1462.71,-196.79 1466.37,-206.73 1469.71,-196.68 1462.71,-196.79"/>
</g>
<!-- Node28 -->
<g id="node28" class="node">
<title>Node28</title>
<g id="a_node28"><a xlink:href="../../dc/d83/outlab5_8h.html" target="_top" xlink:title=" ">
<polygon fill="white" stroke="black" points="1555,-140 1555,-159 1698,-159 1698,-140 1555,-140"/>
<text text-anchor="middle" x="1626.5" y="-147" font-family="Helvetica,sans-Serif" font-size="10.00">src/labs/outlab5/outlab5.h</text>
</a>
</g>
</g>
<!-- Node27&#45;&gt;Node28 -->
<g id="edge28" class="edge">
<title>Node27&#45;&gt;Node28</title>
<path fill="none" stroke="midnightblue" d="M1624.38,-196.54C1624.95,-184.17 1625.66,-168.62 1626.1,-159.13"/>
<polygon fill="midnightblue" stroke="midnightblue" points="1620.87,-196.58 1623.9,-206.73 1627.86,-196.91 1620.87,-196.58"/>
</g>
<!-- Node29 -->
<g id="node29" class="node">
<title>Node29</title>
<g id="a_node29"><a xlink:href="../../dc/d4f/labs_2outlab5_2main_8cpp.html" target="_top" xlink:title=" ">
<polygon fill="white" stroke="black" points="1555.5,-73 1555.5,-92 1697.5,-92 1697.5,-73 1555.5,-73"/>
<text text-anchor="middle" x="1626.5" y="-80" font-family="Helvetica,sans-Serif" font-size="10.00">src/labs/outlab5/main.cpp</text>
</a>
</g>
</g>
<!-- Node28&#45;&gt;Node29 -->
<g id="edge29" class="edge">
<title>Node28&#45;&gt;Node29</title>
<path fill="none" stroke="midnightblue" d="M1626.5,-129.54C1626.5,-117.17 1626.5,-101.62 1626.5,-92.13"/>
<polygon fill="midnightblue" stroke="midnightblue" points="1623,-129.73 1626.5,-139.73 1630,-129.73 1623,-129.73"/>
</g>
<!-- Node31 -->
<g id="node31" class="node">
<title>Node31</title>
<g id="a_node31"><a xlink:href="../../df/df9/outlab6_8h.html" target="_top" xlink:title=" ">
<polygon fill="white" stroke="black" points="1716,-140 1716,-159 1859,-159 1859,-140 1716,-140"/>
<text text-anchor="middle" x="1787.5" y="-147" font-family="Helvetica,sans-Serif" font-size="10.00">src/labs/outlab6/outlab6.h</text>
</a>
</g>
</g>
<!-- Node30&#45;&gt;Node31 -->
<g id="edge31" class="edge">
<title>Node30&#45;&gt;Node31</title>
<path fill="none" stroke="midnightblue" d="M1779.71,-196.54C1781.8,-184.17 1784.43,-168.62 1786.04,-159.13"/>
<polygon fill="midnightblue" stroke="midnightblue" points="1776.2,-196.29 1777.98,-206.73 1783.1,-197.46 1776.2,-196.29"/>
</g>
<!-- Node32 -->
<g id="node32" class="node">
<title>Node32</title>
<g id="a_node32"><a xlink:href="../../d4/d5d/labs_2outlab6_2main_8cpp.html" target="_top" xlink:title=" ">
<polygon fill="white" stroke="black" points="1716.5,-73 1716.5,-92 1858.5,-92 1858.5,-73 1716.5,-73"/>
<text text-anchor="middle" x="1787.5" y="-80" font-family="Helvetica,sans-Serif" font-size="10.00">src/labs/outlab6/main.cpp</text>
</a>
</g>
</g>
<!-- Node31&#45;&gt;Node32 -->
<g id="edge32" class="edge">
<title>Node31&#45;&gt;Node32</title>
<path fill="none" stroke="midnightblue" d="M1787.5,-129.54C1787.5,-117.17 1787.5,-101.62 1787.5,-92.13"/>
<polygon fill="midnightblue" stroke="midnightblue" points="1784,-129.73 1787.5,-139.73 1791,-129.73 1784,-129.73"/>
</g>
<!-- Node34 -->
<g id="node34" class="node">
<title>Node34</title>
<g id="a_node34"><a xlink:href="../../d8/d5d/outlab7_8h.html" target="_top" xlink:title=" ">
<polygon fill="white" stroke="black" points="1877,-140 1877,-159 2020,-159 2020,-140 1877,-140"/>
<text text-anchor="middle" x="1948.5" y="-147" font-family="Helvetica,sans-Serif" font-size="10.00">src/labs/outlab7/outlab7.h</text>
</a>
</g>
</g>
<!-- Node33&#45;&gt;Node34 -->
<g id="edge34" class="edge">
<title>Node33&#45;&gt;Node34</title>
<path fill="none" stroke="midnightblue" d="M1934.93,-196.91C1938.56,-184.49 1943.18,-168.72 1945.98,-159.13"/>
<polygon fill="midnightblue" stroke="midnightblue" points="1931.51,-196.15 1932.06,-206.73 1938.23,-198.12 1931.51,-196.15"/>
</g>
<!-- Node35 -->
<g id="node35" class="node">
<title>Node35</title>
<g id="a_node35"><a xlink:href="../../d5/d52/labs_2outlab7_2main_8cpp.html" target="_top" xlink:title=" ">
<polygon fill="white" stroke="black" points="1877.5,-73 1877.5,-92 2019.5,-92 2019.5,-73 1877.5,-73"/>
<text text-anchor="middle" x="1948.5" y="-80" font-family="Helvetica,sans-Serif" font-size="10.00">src/labs/outlab7/main.cpp</text>
</a>
</g>
</g>
<!-- Node34&#45;&gt;Node35 -->
<g id="edge35" class="edge">
<title>Node34&#45;&gt;Node35</title>
<path fill="none" stroke="midnightblue" d="M1948.5,-129.54C1948.5,-117.17 1948.5,-101.62 1948.5,-92.13"/>
<polygon fill="midnightblue" stroke="midnightblue" points="1945,-129.73 1948.5,-139.73 1952,-129.73 1945,-129.73"/>
</g>
<!-- Node37 -->
<g id="node37" class="node">
<title>Node37</title>
<g id="a_node37"><a xlink:href="../../d3/df7/project1_8h.html" target="_top" xlink:title=" ">
<polygon fill="white" stroke="black" points="2038.5,-134.5 2038.5,-164.5 2148.5,-164.5 2148.5,-134.5 2038.5,-134.5"/>
<text text-anchor="start" x="2046.5" y="-152.5" font-family="Helvetica,sans-Serif" font-size="10.00">src/project/project1</text>
<text text-anchor="middle" x="2093.5" y="-141.5" font-family="Helvetica,sans-Serif" font-size="10.00">/project1.h</text>
</a>
</g>
</g>
<!-- Node36&#45;&gt;Node37 -->
<g id="edge37" class="edge">
<title>Node36&#45;&gt;Node37</title>
<path fill="none" stroke="midnightblue" d="M2078.92,-191.7C2082.15,-182.59 2085.72,-172.49 2088.52,-164.58"/>
<polygon fill="midnightblue" stroke="midnightblue" points="2075.53,-190.8 2075.49,-201.4 2082.13,-193.14 2075.53,-190.8"/>
</g>
<!-- Node38 -->
<g id="node38" class="node">
<title>Node38</title>
<g id="a_node38"><a xlink:href="../../d2/d85/project_2project1_2main_8cpp.html" target="_top" xlink:title=" ">
<polygon fill="white" stroke="black" points="2038.5,-67.5 2038.5,-97.5 2148.5,-97.5 2148.5,-67.5 2038.5,-67.5"/>
<text text-anchor="start" x="2046.5" y="-85.5" font-family="Helvetica,sans-Serif" font-size="10.00">src/project/project1</text>
<text text-anchor="middle" x="2093.5" y="-74.5" font-family="Helvetica,sans-Serif" font-size="10.00">/main.cpp</text>
</a>
</g>
</g>
<!-- Node37&#45;&gt;Node38 -->
<g id="edge38" class="edge">
<title>Node37&#45;&gt;Node38</title>
<path fill="none" stroke="midnightblue" d="M2093.5,-124.11C2093.5,-115.15 2093.5,-105.32 2093.5,-97.58"/>
<polygon fill="midnightblue" stroke="midnightblue" points="2090,-124.4 2093.5,-134.4 2097,-124.4 2090,-124.4"/>
</g>
<!-- Node40 -->
<g id="node40" class="node">
<title>Node40</title>
<g id="a_node40"><a xlink:href="../../dc/d79/project2_8h.html" target="_top" xlink:title=" ">
<polygon fill="white" stroke="black" points="2194.5,-67.5 2194.5,-97.5 2304.5,-97.5 2304.5,-67.5 2194.5,-67.5"/>
<text text-anchor="start" x="2202.5" y="-85.5" font-family="Helvetica,sans-Serif" font-size="10.00">src/project/project2</text>
<text text-anchor="middle" x="2249.5" y="-74.5" font-family="Helvetica,sans-Serif" font-size="10.00">/project2.h</text>
</a>
</g>
</g>
<!-- Node39&#45;&gt;Node40 -->
<g id="edge40" class="edge">
<title>Node39&#45;&gt;Node40</title>
<path fill="none" stroke="midnightblue" d="M2192.26,-191.17C2189.21,-174.41 2187.69,-152.01 2195.5,-134 2201.99,-119.05 2215.33,-106.5 2227.13,-97.65"/>
<polygon fill="midnightblue" stroke="midnightblue" points="2188.9,-192.21 2194.4,-201.26 2195.75,-190.76 2188.9,-192.21"/>
</g>
<!-- Node39&#45;&gt;Node42 -->
<g id="edge42" class="edge">
<title>Node39&#45;&gt;Node42</title>
<path fill="none" stroke="midnightblue" d="M2218.65,-194.02C2227.74,-184.34 2238.22,-173.17 2246.29,-164.58"/>
<polygon fill="midnightblue" stroke="midnightblue" points="2216.03,-191.71 2211.74,-201.4 2221.13,-196.5 2216.03,-191.71"/>
</g>
<!-- Node41 -->
<g id="node41" class="node">
<title>Node41</title>
<g id="a_node41"><a xlink:href="../../dd/d48/project_2project2_2main_8cpp.html" target="_top" xlink:title=" ">
<polygon fill="white" stroke="black" points="2194.5,-0.5 2194.5,-30.5 2304.5,-30.5 2304.5,-0.5 2194.5,-0.5"/>
<text text-anchor="start" x="2202.5" y="-18.5" font-family="Helvetica,sans-Serif" font-size="10.00">src/project/project2</text>
<text text-anchor="middle" x="2249.5" y="-7.5" font-family="Helvetica,sans-Serif" font-size="10.00">/main.cpp</text>
</a>
</g>
</g>
<!-- Node40&#45;&gt;Node41 -->
<g id="edge41" class="edge">
<title>Node40&#45;&gt;Node41</title>
<path fill="none" stroke="midnightblue" d="M2249.5,-57.11C2249.5,-48.15 2249.5,-38.32 2249.5,-30.58"/>
<polygon fill="midnightblue" stroke="midnightblue" points="2246,-57.4 2249.5,-67.4 2253,-57.4 2246,-57.4"/>
</g>
<!-- Node42&#45;&gt;Node40 -->
<g id="edge43" class="edge">
<title>Node42&#45;&gt;Node40</title>
<path fill="none" stroke="midnightblue" d="M2255.79,-124.4C2254.4,-115.37 2252.87,-105.41 2251.67,-97.58"/>
<polygon fill="midnightblue" stroke="midnightblue" points="2252.35,-125.04 2257.33,-134.4 2259.27,-123.98 2252.35,-125.04"/>
</g>
<!-- Node43&#45;&gt;Node44 -->
<g id="edge46" class="edge">
<title>Node43&#45;&gt;Node44</title>
<path fill="none" stroke="midnightblue" d="M2396.94,-191.4C2394.85,-182.37 2392.56,-172.41 2390.75,-164.58"/>
<polygon fill="midnightblue" stroke="midnightblue" points="2393.59,-192.44 2399.25,-201.4 2400.41,-190.87 2393.59,-192.44"/>
</g>
<!-- Node45 -->
<g id="node45" class="node">
<title>Node45</title>
<g id="a_node45"><a xlink:href="../../da/d0a/project3_8h.html" target="_top" xlink:title=" ">
<polygon fill="white" stroke="black" points="2341.5,-67.5 2341.5,-97.5 2451.5,-97.5 2451.5,-67.5 2341.5,-67.5"/>
<text text-anchor="start" x="2349.5" y="-85.5" font-family="Helvetica,sans-Serif" font-size="10.00">src/project/project3</text>
<text text-anchor="middle" x="2396.5" y="-74.5" font-family="Helvetica,sans-Serif" font-size="10.00">/project3.h</text>
</a>
</g>
</g>
<!-- Node43&#45;&gt;Node45 -->
<g id="edge49" class="edge">
<title>Node43&#45;&gt;Node45</title>
<path fill="none" stroke="midnightblue" d="M2429.86,-194.65C2438.47,-186.46 2446.92,-176.3 2451.5,-165 2456.68,-152.23 2457.04,-146.61 2451.5,-134 2444.88,-118.93 2431.29,-106.38 2419.28,-97.56"/>
<polygon fill="midnightblue" stroke="midnightblue" points="2427.49,-192.07 2422.34,-201.33 2432.14,-197.3 2427.49,-192.07"/>
</g>
<!-- Node44&#45;&gt;Node45 -->
<g id="edge47" class="edge">
<title>Node44&#45;&gt;Node45</title>
<path fill="none" stroke="midnightblue" d="M2390.84,-124.4C2392.09,-115.37 2393.47,-105.41 2394.55,-97.58"/>
<polygon fill="midnightblue" stroke="midnightblue" points="2387.36,-124.01 2389.45,-134.4 2394.29,-124.97 2387.36,-124.01"/>
</g>
<!-- Node46 -->
<g id="node46" class="node">
<title>Node46</title>
<g id="a_node46"><a xlink:href="../../de/ddf/project_2project3_2main_8cpp.html" target="_top" xlink:title=" ">
<polygon fill="white" stroke="black" points="2341.5,-0.5 2341.5,-30.5 2451.5,-30.5 2451.5,-0.5 2341.5,-0.5"/>
<text text-anchor="start" x="2349.5" y="-18.5" font-family="Helvetica,sans-Serif" font-size="10.00">src/project/project3</text>
<text text-anchor="middle" x="2396.5" y="-7.5" font-family="Helvetica,sans-Serif" font-size="10.00">/main.cpp</text>
</a>
</g>
</g>
<!-- Node45&#45;&gt;Node46 -->
<g id="edge48" class="edge">
<title>Node45&#45;&gt;Node46</title>
<path fill="none" stroke="midnightblue" d="M2396.5,-57.11C2396.5,-48.15 2396.5,-38.32 2396.5,-30.58"/>
<polygon fill="midnightblue" stroke="midnightblue" points="2393,-57.4 2396.5,-67.4 2400,-57.4 2393,-57.4"/>
</g>
<!-- Node47&#45;&gt;Node48 -->
<g id="edge52" class="edge">
<title>Node47&#45;&gt;Node48</title>
<path fill="none" stroke="midnightblue" d="M2562.94,-191.4C2560.85,-182.37 2558.56,-172.41 2556.75,-164.58"/>
<polygon fill="midnightblue" stroke="midnightblue" points="2559.59,-192.44 2565.25,-201.4 2566.41,-190.87 2559.59,-192.44"/>
</g>
<!-- Node49 -->
<g id="node49" class="node">
<title>Node49</title>
<g id="a_node49"><a xlink:href="../../d9/d80/project4_8h.html" target="_top" xlink:title=" ">
<polygon fill="white" stroke="black" points="2539.5,-67.5 2539.5,-97.5 2649.5,-97.5 2649.5,-67.5 2539.5,-67.5"/>
<text text-anchor="start" x="2547.5" y="-85.5" font-family="Helvetica,sans-Serif" font-size="10.00">src/project/project4</text>
<text text-anchor="middle" x="2594.5" y="-74.5" font-family="Helvetica,sans-Serif" font-size="10.00">/project4.h</text>
</a>
</g>
</g>
<!-- Node47&#45;&gt;Node49 -->
<g id="edge55" class="edge">
<title>Node47&#45;&gt;Node49</title>
<path fill="none" stroke="midnightblue" d="M2595.86,-194.65C2604.47,-186.46 2612.92,-176.3 2617.5,-165 2626.78,-142.11 2613.97,-114.16 2604.07,-97.66"/>
<polygon fill="midnightblue" stroke="midnightblue" points="2593.49,-192.07 2588.34,-201.33 2598.14,-197.3 2593.49,-192.07"/>
</g>
<!-- Node48&#45;&gt;Node49 -->
<g id="edge53" class="edge">
<title>Node48&#45;&gt;Node49</title>
<path fill="none" stroke="midnightblue" d="M2567.78,-125.87C2573.71,-116.46 2580.41,-105.83 2585.62,-97.58"/>
<polygon fill="midnightblue" stroke="midnightblue" points="2564.77,-124.07 2562.4,-134.4 2570.69,-127.81 2564.77,-124.07"/>
</g>
<!-- Node50 -->
<g id="node50" class="node">
<title>Node50</title>
<g id="a_node50"><a xlink:href="../../d0/d86/project_2project4_2main_8cpp.html" target="_top" xlink:title=" ">
<polygon fill="white" stroke="black" points="2539.5,-0.5 2539.5,-30.5 2649.5,-30.5 2649.5,-0.5 2539.5,-0.5"/>
<text text-anchor="start" x="2547.5" y="-18.5" font-family="Helvetica,sans-Serif" font-size="10.00">src/project/project4</text>
<text text-anchor="middle" x="2594.5" y="-7.5" font-family="Helvetica,sans-Serif" font-size="10.00">/main.cpp</text>
</a>
</g>
</g>
<!-- Node49&#45;&gt;Node50 -->
<g id="edge54" class="edge">
<title>Node49&#45;&gt;Node50</title>
<path fill="none" stroke="midnightblue" d="M2594.5,-57.11C2594.5,-48.15 2594.5,-38.32 2594.5,-30.58"/>
<polygon fill="midnightblue" stroke="midnightblue" points="2591,-57.4 2594.5,-67.4 2598,-57.4 2591,-57.4"/>
</g>
</g>
</svg>
        <g id="navigator" transform="translate(0 0)" fill="#404254">
                <rect fill="#f2f5e9" fill-opacity="0.5" stroke="#606060" stroke-width=".5" x="0" y="0" width="60" height="60"/>
                <use id="zoomplus" xlink:href="#zoomPlus" x="17" y="9" onmousedown="handleZoom(evt,'in')"/>
                <use id="zoomminus" xlink:href="#zoomMin" x="42" y="9" onmousedown="handleZoom(evt,'out')"/>
                <use id="reset" xlink:href="#resetDef" x="30" y="36" onmousedown="handleReset()"/>
                <g id="arrowUp" xlink:href="#dirArrow" transform="translate(30 24)" onmousedown="handlePan(0,-1)">
                  <use xlink:href="#rim" fill="#404040">
                        <set attributeName="fill" to="#808080" begin="arrowUp.mouseover" end="arrowUp.mouseout"/>
                  </use>
                  <path fill="none" stroke="white" stroke-width="1.5" d="M0,-3.0v7 M-2.5,-0.5L0,-3.0L2.5,-0.5"/>
                </g>
                <g id="arrowRight" xlink:href="#dirArrow" transform="rotate(90) translate(36 -43)" onmousedown="handlePan(1,0)">
                  <use xlink:href="#rim" fill="#404040">
                        <set attributeName="fill" to="#808080" begin="arrowRight.mouseover" end="arrowRight.mouseout"/>
                  </use>
                  <path fill="none" stroke="white" stroke-width="1.5" d="M0,-3.0v7 M-2.5,-0.5L0,-3.0L2.5,-0.5"/>
                </g>
                <g id="arrowDown" xlink:href="#dirArrow" transform="rotate(180) translate(-30 -48)" onmousedown="handlePan(0,1)">
                  <use xlink:href="#rim" fill="#404040">
                        <set attributeName="fill" to="#808080" begin="arrowDown.mouseover" end="arrowDown.mouseout"/>
                  </use>
                  <path fill="none" stroke="white" stroke-width="1.5" d="M0,-3.0v7 M-2.5,-0.5L0,-3.0L2.5,-0.5"/>
                </g>
                <g id="arrowLeft" xlink:href="#dirArrow" transform="rotate(270) translate(-36 17)" onmousedown="handlePan(-1,0)">
                  <use xlink:href="#rim" fill="#404040">
                        <set attributeName="fill" to="#808080" begin="arrowLeft.mouseover" end="arrowLeft.mouseout"/>
                  </use>
                  <path fill="none" stroke="white" stroke-width="1.5" d="M0,-3.0v7 M-2.5,-0.5L0,-3.0L2.5,-0.5"/>
                </g>
        </g>
        <svg viewBox="0 0 15 15" width="100%" height="30px" preserveAspectRatio="xMaxYMin meet">
         <g id="arrow_out" transform="scale(0.3 0.3)">
          <a xlink:href="FileParser_8h__dep__incl_org.svg" target="_base">
           <rect id="button" ry="5" rx="5" y="6" x="6" height="38" width="38"
                fill="#f2f5e9" fill-opacity="0.5" stroke="#606060" stroke-width="1.0"/>
           <path id="arrow"
             d="M 11.500037,31.436501 C 11.940474,20.09759 22.043105,11.32322 32.158766,21.979434 L 37.068811,17.246167 C 37.068811,17.246167 37.088388,32 37.088388,32 L 22.160133,31.978069 C 22.160133,31.978069 26.997745,27.140456 26.997745,27.140456 C 18.528582,18.264221 13.291696,25.230495 11.500037,31.436501 z"
             style="fill:#404040;"/>
          </a>
         </g>
        </svg>
</svg>
