<?xml version="1.0" encoding="UTF-8" standalone="no"?>
<!DOCTYPE svg PUBLIC "-//W3C//DTD SVG 1.1//EN"
 "http://www.w3.org/Graphics/SVG/1.1/DTD/svg11.dtd">
<!-- Generated by graphviz version 2.43.0 (0)
 -->
<!-- Title: src/utils/physics/diffusion/DiffusionConstants.h Pages: 1 -->
<svg width="706pt" height="386pt"
 viewBox="0.00 0.00 706.00 386.00" xmlns="http://www.w3.org/2000/svg" xmlns:xlink="http://www.w3.org/1999/xlink">
<g id="graph0" class="graph" transform="scale(1 1) rotate(0) translate(4 382)">
<title>src/utils/physics/diffusion/DiffusionConstants.h</title>
<polygon fill="white" stroke="transparent" points="-4,4 -4,-382 702,-382 702,4 -4,4"/>
<!-- Node1 -->
<g id="node1" class="node">
<title>Node1</title>
<g id="a_node1"><a xlink:title="This file contains the Constants struct which is used to store and compute various constants related ...">
<polygon fill="#bfbfbf" stroke="black" points="0,-347.5 0,-377.5 140,-377.5 140,-347.5 0,-347.5"/>
<text text-anchor="start" x="8" y="-365.5" font-family="Helvetica,sans-Serif" font-size="10.00">src/utils/physics/diffusion</text>
<text text-anchor="middle" x="70" y="-354.5" font-family="Helvetica,sans-Serif" font-size="10.00">/DiffusionConstants.h</text>
</a>
</g>
</g>
<!-- Node2 -->
<g id="node2" class="node">
<title>Node2</title>
<g id="a_node2"><a xlink:title=" ">
<polygon fill="white" stroke="#bfbfbf" points="205.5,-0.5 205.5,-19.5 258.5,-19.5 258.5,-0.5 205.5,-0.5"/>
<text text-anchor="middle" x="232" y="-7.5" font-family="Helvetica,sans-Serif" font-size="10.00">cstddef</text>
</a>
</g>
</g>
<!-- Node1&#45;&gt;Node2 -->
<g id="edge1" class="edge">
<title>Node1&#45;&gt;Node2</title>
<path fill="none" stroke="midnightblue" d="M57.63,-347.3C40.87,-326.55 13,-286.03 13,-246 13,-246 13,-246 13,-132 13,-49.87 132.45,-23.06 194.91,-14.65"/>
<polygon fill="midnightblue" stroke="midnightblue" points="195.66,-18.08 205.15,-13.37 194.79,-11.14 195.66,-18.08"/>
</g>
<!-- Node3 -->
<g id="node3" class="node">
<title>Node3</title>
<g id="a_node3"><a xlink:title=" ">
<polygon fill="white" stroke="#bfbfbf" points="41.5,-235.5 41.5,-254.5 98.5,-254.5 98.5,-235.5 41.5,-235.5"/>
<text text-anchor="middle" x="70" y="-242.5" font-family="Helvetica,sans-Serif" font-size="10.00">ostream</text>
</a>
</g>
</g>
<!-- Node1&#45;&gt;Node3 -->
<g id="edge2" class="edge">
<title>Node1&#45;&gt;Node3</title>
<path fill="none" stroke="midnightblue" d="M70,-347.34C70,-326.62 70,-288.02 70,-264.9"/>
<polygon fill="midnightblue" stroke="midnightblue" points="73.5,-264.67 70,-254.67 66.5,-264.67 73.5,-264.67"/>
</g>
<!-- Node4 -->
<g id="node4" class="node">
<title>Node4</title>
<g id="a_node4"><a xlink:href="../../da/db6/DiffusionParams_8h.html" target="_top" xlink:title="This file contains the definition of the Params struct which encapsulates the parameters required for...">
<polygon fill="white" stroke="black" points="134.5,-291.5 134.5,-310.5 239.5,-310.5 239.5,-291.5 134.5,-291.5"/>
<text text-anchor="middle" x="187" y="-298.5" font-family="Helvetica,sans-Serif" font-size="10.00">DiffusionParams.h</text>
</a>
</g>
</g>
<!-- Node1&#45;&gt;Node4 -->
<g id="edge3" class="edge">
<title>Node1&#45;&gt;Node4</title>
<path fill="none" stroke="midnightblue" d="M97.73,-347.4C116.83,-337.68 142.06,-324.86 160.82,-315.31"/>
<polygon fill="midnightblue" stroke="midnightblue" points="162.65,-318.31 169.98,-310.66 159.48,-312.07 162.65,-318.31"/>
</g>
<!-- Node4&#45;&gt;Node2 -->
<g id="edge5" class="edge">
<title>Node4&#45;&gt;Node2</title>
<path fill="none" stroke="midnightblue" d="M178.98,-291.39C171.42,-282.81 160.33,-268.94 154,-255 117.15,-173.83 80.19,-130.59 129,-56 143.61,-33.67 172.01,-22.35 195.29,-16.66"/>
<polygon fill="midnightblue" stroke="midnightblue" points="196.21,-20.04 205.23,-14.48 194.71,-13.2 196.21,-20.04"/>
</g>
<!-- Node4&#45;&gt;Node3 -->
<g id="edge7" class="edge">
<title>Node4&#45;&gt;Node3</title>
<path fill="none" stroke="midnightblue" d="M168.46,-291.44C149.38,-282.64 119.43,-268.81 97.56,-258.72"/>
<polygon fill="midnightblue" stroke="midnightblue" points="99,-255.53 88.45,-254.52 96.07,-261.88 99,-255.53"/>
</g>
<!-- Node5 -->
<g id="node5" class="node">
<title>Node5</title>
<g id="a_node5"><a xlink:title=" ">
<polygon fill="white" stroke="#bfbfbf" points="163.5,-235.5 163.5,-254.5 210.5,-254.5 210.5,-235.5 163.5,-235.5"/>
<text text-anchor="middle" x="187" y="-242.5" font-family="Helvetica,sans-Serif" font-size="10.00">cmath</text>
</a>
</g>
</g>
<!-- Node4&#45;&gt;Node5 -->
<g id="edge4" class="edge">
<title>Node4&#45;&gt;Node5</title>
<path fill="none" stroke="midnightblue" d="M187,-291.08C187,-284.01 187,-273.86 187,-264.99"/>
<polygon fill="midnightblue" stroke="midnightblue" points="190.5,-264.75 187,-254.75 183.5,-264.75 190.5,-264.75"/>
</g>
<!-- Node6 -->
<g id="node6" class="node">
<title>Node6</title>
<g id="a_node6"><a xlink:title=" ">
<polygon fill="white" stroke="#bfbfbf" points="640,-62 640,-81 698,-81 698,-62 640,-62"/>
<text text-anchor="middle" x="669" y="-69" font-family="Helvetica,sans-Serif" font-size="10.00">memory</text>
</a>
</g>
</g>
<!-- Node4&#45;&gt;Node6 -->
<g id="edge6" class="edge">
<title>Node4&#45;&gt;Node6</title>
<path fill="none" stroke="midnightblue" d="M239.66,-300.14C320.54,-297.59 476.05,-281.37 572,-199 610.17,-166.23 643.04,-116.22 658.89,-89.97"/>
<polygon fill="midnightblue" stroke="midnightblue" points="662.03,-91.55 664.11,-81.16 656,-87.98 662.03,-91.55"/>
</g>
<!-- Node7 -->
<g id="node7" class="node">
<title>Node7</title>
<g id="a_node7"><a xlink:title=" ">
<polygon fill="white" stroke="#bfbfbf" points="395.5,-235.5 395.5,-254.5 460.5,-254.5 460.5,-235.5 395.5,-235.5"/>
<text text-anchor="middle" x="428" y="-242.5" font-family="Helvetica,sans-Serif" font-size="10.00">stdexcept</text>
</a>
</g>
</g>
<!-- Node4&#45;&gt;Node7 -->
<g id="edge8" class="edge">
<title>Node4&#45;&gt;Node7</title>
<path fill="none" stroke="midnightblue" d="M225.19,-291.44C268.87,-281.66 340.19,-265.67 385.57,-255.51"/>
<polygon fill="midnightblue" stroke="midnightblue" points="386.41,-258.91 395.4,-253.3 384.88,-252.08 386.41,-258.91"/>
</g>
<!-- Node8 -->
<g id="node8" class="node">
<title>Node8</title>
<g id="a_node8"><a xlink:href="../../d3/db1/Matrix_8h.html" target="_top" xlink:title="Header file for the MyBLAS::Matrix class.">
<polygon fill="white" stroke="black" points="233,-235.5 233,-254.5 377,-254.5 377,-235.5 233,-235.5"/>
<text text-anchor="middle" x="305" y="-242.5" font-family="Helvetica,sans-Serif" font-size="10.00">math/blas/matrix/Matrix.h</text>
</a>
</g>
</g>
<!-- Node4&#45;&gt;Node8 -->
<g id="edge9" class="edge">
<title>Node4&#45;&gt;Node8</title>
<path fill="none" stroke="midnightblue" d="M205.7,-291.44C224.94,-282.64 255.15,-268.81 277.2,-258.72"/>
<polygon fill="midnightblue" stroke="midnightblue" points="278.75,-261.86 286.39,-254.52 275.84,-255.5 278.75,-261.86"/>
</g>
<!-- Node9 -->
<g id="node9" class="node">
<title>Node9</title>
<g id="a_node9"><a xlink:title=" ">
<polygon fill="white" stroke="#bfbfbf" points="558,-62 558,-81 622,-81 622,-62 558,-62"/>
<text text-anchor="middle" x="590" y="-69" font-family="Helvetica,sans-Serif" font-size="10.00">algorithm</text>
</a>
</g>
</g>
<!-- Node8&#45;&gt;Node9 -->
<g id="edge10" class="edge">
<title>Node8&#45;&gt;Node9</title>
<path fill="none" stroke="midnightblue" d="M370.79,-235.46C438.71,-226.09 536.62,-210.8 550,-199 581.42,-171.27 588.38,-119.06 589.78,-91.18"/>
<polygon fill="midnightblue" stroke="midnightblue" points="593.28,-91.27 590.09,-81.16 586.28,-91.05 593.28,-91.27"/>
</g>
<!-- Node10 -->
<g id="node10" class="node">
<title>Node10</title>
<g id="a_node10"><a xlink:title=" ">
<polygon fill="white" stroke="#bfbfbf" points="138,-123.5 138,-142.5 190,-142.5 190,-123.5 138,-123.5"/>
<text text-anchor="middle" x="164" y="-130.5" font-family="Helvetica,sans-Serif" font-size="10.00">cassert</text>
</a>
</g>
</g>
<!-- Node8&#45;&gt;Node10 -->
<g id="edge11" class="edge">
<title>Node8&#45;&gt;Node10</title>
<path fill="none" stroke="midnightblue" d="M284.42,-235.5C266.61,-227.57 240.69,-214.64 221,-199 203.45,-185.06 186.99,-165.27 176.31,-151.2"/>
<polygon fill="midnightblue" stroke="midnightblue" points="178.93,-148.86 170.17,-142.89 173.3,-153.02 178.93,-148.86"/>
</g>
<!-- Node11 -->
<g id="node11" class="node">
<title>Node11</title>
<g id="a_node11"><a xlink:title=" ">
<polygon fill="white" stroke="#bfbfbf" points="208,-123.5 208,-142.5 268,-142.5 268,-123.5 208,-123.5"/>
<text text-anchor="middle" x="238" y="-130.5" font-family="Helvetica,sans-Serif" font-size="10.00">iostream</text>
</a>
</g>
</g>
<!-- Node8&#45;&gt;Node11 -->
<g id="edge12" class="edge">
<title>Node8&#45;&gt;Node11</title>
<path fill="none" stroke="midnightblue" d="M276.98,-235.4C259.83,-228.51 239.25,-216.98 229,-199 220.82,-184.65 224.79,-165.69 229.78,-151.96"/>
<polygon fill="midnightblue" stroke="midnightblue" points="233.05,-153.22 233.6,-142.64 226.57,-150.56 233.05,-153.22"/>
</g>
<!-- Node12 -->
<g id="node12" class="node">
<title>Node12</title>
<g id="a_node12"><a xlink:title=" ">
<polygon fill="white" stroke="#bfbfbf" points="504.5,-123.5 504.5,-142.5 551.5,-142.5 551.5,-123.5 504.5,-123.5"/>
<text text-anchor="middle" x="528" y="-130.5" font-family="Helvetica,sans-Serif" font-size="10.00">vector</text>
</a>
</g>
</g>
<!-- Node8&#45;&gt;Node12 -->
<g id="edge13" class="edge">
<title>Node8&#45;&gt;Node12</title>
<path fill="none" stroke="midnightblue" d="M369.57,-235.49C433.26,-226.43 522.58,-211.68 533,-199 543.54,-186.18 540.36,-166.72 535.73,-152.44"/>
<polygon fill="midnightblue" stroke="midnightblue" points="538.88,-150.86 532.1,-142.71 532.32,-153.31 538.88,-150.86"/>
</g>
<!-- Node13 -->
<g id="node13" class="node">
<title>Node13</title>
<g id="a_node13"><a xlink:href="../../d1/d45/Constants_8h.html" target="_top" xlink:title="MyBLAS Constants definition.">
<polygon fill="white" stroke="black" points="398,-179.5 398,-198.5 524,-198.5 524,-179.5 398,-179.5"/>
<text text-anchor="middle" x="461" y="-186.5" font-family="Helvetica,sans-Serif" font-size="10.00">math/blas/Constants.h</text>
</a>
</g>
</g>
<!-- Node8&#45;&gt;Node13 -->
<g id="edge14" class="edge">
<title>Node8&#45;&gt;Node13</title>
<path fill="none" stroke="midnightblue" d="M329.72,-235.44C355.85,-226.4 397.26,-212.06 426.58,-201.92"/>
<polygon fill="midnightblue" stroke="midnightblue" points="428.09,-205.1 436.4,-198.52 425.8,-198.48 428.09,-205.1"/>
</g>
<!-- Node14 -->
<g id="node14" class="node">
<title>Node14</title>
<g id="a_node14"><a xlink:href="../../d6/dbe/Vector_8h.html" target="_top" xlink:title="Header file for the MyBLAS::Vector class.">
<polygon fill="white" stroke="black" points="238.5,-179.5 238.5,-198.5 379.5,-198.5 379.5,-179.5 238.5,-179.5"/>
<text text-anchor="middle" x="309" y="-186.5" font-family="Helvetica,sans-Serif" font-size="10.00">math/blas/vector/Vector.h</text>
</a>
</g>
</g>
<!-- Node8&#45;&gt;Node14 -->
<g id="edge15" class="edge">
<title>Node8&#45;&gt;Node14</title>
<path fill="none" stroke="midnightblue" d="M305.66,-235.08C306.18,-228.01 306.94,-217.86 307.59,-208.99"/>
<polygon fill="midnightblue" stroke="midnightblue" points="311.1,-208.98 308.35,-198.75 304.12,-208.47 311.1,-208.98"/>
</g>
<!-- Node14&#45;&gt;Node10 -->
<g id="edge26" class="edge">
<title>Node14&#45;&gt;Node10</title>
<path fill="none" stroke="midnightblue" d="M286.02,-179.44C261.84,-170.44 223.58,-156.19 196.35,-146.05"/>
<polygon fill="midnightblue" stroke="midnightblue" points="197.46,-142.73 186.87,-142.52 195.02,-149.29 197.46,-142.73"/>
</g>
<!-- Node14&#45;&gt;Node11 -->
<g id="edge29" class="edge">
<title>Node14&#45;&gt;Node11</title>
<path fill="none" stroke="midnightblue" d="M297.59,-179.32C286.89,-171.18 270.66,-158.84 257.84,-149.09"/>
<polygon fill="midnightblue" stroke="midnightblue" points="259.69,-146.1 249.61,-142.83 255.46,-151.67 259.69,-146.1"/>
</g>
<!-- Node14&#45;&gt;Node12 -->
<g id="edge30" class="edge">
<title>Node14&#45;&gt;Node12</title>
<path fill="none" stroke="midnightblue" d="M343.7,-179.44C385.06,-169.24 453.7,-152.32 494.52,-142.26"/>
<polygon fill="midnightblue" stroke="midnightblue" points="495.39,-145.65 504.26,-139.85 493.71,-138.85 495.39,-145.65"/>
</g>
<!-- Node15 -->
<g id="node15" class="node">
<title>Node15</title>
<g id="a_node15"><a xlink:href="../../de/dcb/LazyVector_8h.html" target="_top" xlink:title="Header file for the LazyVector class.">
<polygon fill="white" stroke="black" points="398,-123.5 398,-142.5 476,-142.5 476,-123.5 398,-123.5"/>
<text text-anchor="middle" x="437" y="-130.5" font-family="Helvetica,sans-Serif" font-size="10.00">LazyVector.h</text>
</a>
</g>
</g>
<!-- Node14&#45;&gt;Node15 -->
<g id="edge16" class="edge">
<title>Node14&#45;&gt;Node15</title>
<path fill="none" stroke="midnightblue" d="M324.19,-179.44C343.48,-170.48 376.83,-156.31 402.37,-146.18"/>
<polygon fill="midnightblue" stroke="midnightblue" points="403.7,-149.42 411.73,-142.52 401.15,-142.9 403.7,-149.42"/>
</g>
<!-- Node16 -->
<g id="node16" class="node">
<title>Node16</title>
<g id="a_node16"><a xlink:title=" ">
<polygon fill="white" stroke="#bfbfbf" points="138.5,-62 138.5,-81 203.5,-81 203.5,-62 138.5,-62"/>
<text text-anchor="middle" x="171" y="-69" font-family="Helvetica,sans-Serif" font-size="10.00">functional</text>
</a>
</g>
</g>
<!-- Node14&#45;&gt;Node16 -->
<g id="edge27" class="edge">
<title>Node14&#45;&gt;Node16</title>
<path fill="none" stroke="midnightblue" d="M321.79,-179.29C338.96,-166.54 365.7,-142.21 351,-123 313.78,-74.37 276.82,-104.03 218,-87 214.8,-86.07 211.49,-85.09 208.16,-84.1"/>
<polygon fill="midnightblue" stroke="midnightblue" points="208.88,-80.65 198.29,-81.1 206.84,-87.35 208.88,-80.65"/>
</g>
<!-- Node19 -->
<g id="node19" class="node">
<title>Node19</title>
<g id="a_node19"><a xlink:title=" ">
<polygon fill="white" stroke="#bfbfbf" points="286,-123.5 286,-142.5 342,-142.5 342,-123.5 286,-123.5"/>
<text text-anchor="middle" x="314" y="-130.5" font-family="Helvetica,sans-Serif" font-size="10.00">iomanip</text>
</a>
</g>
</g>
<!-- Node14&#45;&gt;Node19 -->
<g id="edge28" class="edge">
<title>Node14&#45;&gt;Node19</title>
<path fill="none" stroke="midnightblue" d="M309.83,-179.08C310.48,-172.01 311.42,-161.86 312.24,-152.99"/>
<polygon fill="midnightblue" stroke="midnightblue" points="315.75,-153.03 313.19,-142.75 308.78,-152.39 315.75,-153.03"/>
</g>
<!-- Node15&#45;&gt;Node2 -->
<g id="edge18" class="edge">
<title>Node15&#45;&gt;Node2</title>
<path fill="none" stroke="midnightblue" d="M397.87,-127.32C349.62,-120.75 271.46,-107.3 251,-87 236.02,-72.13 232.22,-47.36 231.55,-30.16"/>
<polygon fill="midnightblue" stroke="midnightblue" points="235.05,-29.65 231.49,-19.67 228.05,-29.69 235.05,-29.65"/>
</g>
<!-- Node15&#45;&gt;Node6 -->
<g id="edge20" class="edge">
<title>Node15&#45;&gt;Node6</title>
<path fill="none" stroke="midnightblue" d="M476.06,-124.57C515.54,-116.69 578.09,-103.15 631,-87 633.42,-86.26 635.91,-85.44 638.4,-84.59"/>
<polygon fill="midnightblue" stroke="midnightblue" points="639.67,-87.85 647.87,-81.15 637.28,-81.27 639.67,-87.85"/>
</g>
<!-- Node15&#45;&gt;Node9 -->
<g id="edge17" class="edge">
<title>Node15&#45;&gt;Node9</title>
<path fill="none" stroke="midnightblue" d="M458.92,-123.48C485.05,-113.31 528.91,-96.26 558.63,-84.7"/>
<polygon fill="midnightblue" stroke="midnightblue" points="560.07,-87.9 568.12,-81.01 557.53,-81.37 560.07,-87.9"/>
</g>
<!-- Node15&#45;&gt;Node14 -->
<g id="edge21" class="edge">
<title>Node15&#45;&gt;Node14</title>
<path fill="none" stroke="midnightblue" d="M421.89,-142.52C402.65,-151.47 369.31,-165.63 343.74,-175.77"/>
<polygon fill="midnightblue" stroke="midnightblue" points="342.4,-172.54 334.37,-179.44 344.96,-179.05 342.4,-172.54"/>
</g>
<!-- Node15&#45;&gt;Node16 -->
<g id="edge19" class="edge">
<title>Node15&#45;&gt;Node16</title>
<path fill="none" stroke="midnightblue" d="M397.97,-125.16C353.97,-117.17 280.41,-103 218,-87 214.4,-86.08 210.66,-85.05 206.94,-83.97"/>
<polygon fill="midnightblue" stroke="midnightblue" points="207.81,-80.58 197.22,-81.08 205.81,-87.29 207.81,-80.58"/>
</g>
<!-- Node17 -->
<g id="node17" class="node">
<title>Node17</title>
<g id="a_node17"><a xlink:href="../../d6/d9f/VectorExpression_8h.html" target="_top" xlink:title="Header file for the MyBLAS::VectorExpression class.">
<polygon fill="white" stroke="black" points="260,-62 260,-81 370,-81 370,-62 260,-62"/>
<text text-anchor="middle" x="315" y="-69" font-family="Helvetica,sans-Serif" font-size="10.00">VectorExpression.h</text>
</a>
</g>
</g>
<!-- Node15&#45;&gt;Node17 -->
<g id="edge22" class="edge">
<title>Node15&#45;&gt;Node17</title>
<path fill="none" stroke="midnightblue" d="M419.52,-123.48C399.14,-113.53 365.22,-96.99 341.58,-85.46"/>
<polygon fill="midnightblue" stroke="midnightblue" points="342.97,-82.25 332.45,-81.01 339.9,-88.54 342.97,-82.25"/>
</g>
<!-- Node18 -->
<g id="node18" class="node">
<title>Node18</title>
<g id="a_node18"><a xlink:href="../../d6/db1/ContainerExpression_8h.html" target="_top" xlink:title="Header file for the ContainerExpression class.">
<polygon fill="white" stroke="black" points="388.5,-56.5 388.5,-86.5 539.5,-86.5 539.5,-56.5 388.5,-56.5"/>
<text text-anchor="start" x="396.5" y="-74.5" font-family="Helvetica,sans-Serif" font-size="10.00">math/blas/matrix/Container</text>
<text text-anchor="middle" x="464" y="-63.5" font-family="Helvetica,sans-Serif" font-size="10.00">Expression.h</text>
</a>
</g>
</g>
<!-- Node15&#45;&gt;Node18 -->
<g id="edge24" class="edge">
<title>Node15&#45;&gt;Node18</title>
<path fill="none" stroke="midnightblue" d="M440.87,-123.48C444.15,-116.25 449.01,-105.53 453.44,-95.78"/>
<polygon fill="midnightblue" stroke="midnightblue" points="456.69,-97.08 457.64,-86.52 450.32,-94.18 456.69,-97.08"/>
</g>
<!-- Node17&#45;&gt;Node2 -->
<g id="edge23" class="edge">
<title>Node17&#45;&gt;Node2</title>
<path fill="none" stroke="midnightblue" d="M303.11,-61.98C289.8,-52.43 268,-36.81 252.04,-25.37"/>
<polygon fill="midnightblue" stroke="midnightblue" points="254.04,-22.49 243.87,-19.51 249.96,-28.18 254.04,-22.49"/>
</g>
<!-- Node18&#45;&gt;Node2 -->
<g id="edge25" class="edge">
<title>Node18&#45;&gt;Node2</title>
<path fill="none" stroke="midnightblue" d="M409.31,-56.47C365.97,-45.36 306.59,-30.13 268.75,-20.43"/>
<polygon fill="midnightblue" stroke="midnightblue" points="269.24,-16.94 258.69,-17.84 267.5,-23.72 269.24,-16.94"/>
</g>
</g>
</svg>
