<?xml version="1.0" encoding="UTF-8" standalone="no"?>
<!DOCTYPE svg PUBLIC "-//W3C//DTD SVG 1.1//EN"
 "http://www.w3.org/Graphics/SVG/1.1/DTD/svg11.dtd">
<!-- Generated by graphviz version 2.43.0 (0)
 -->
<!-- Title: src/utils/physics/diffusion/DiffusionParams.h Pages: 1 -->
<svg width="645pt" height="374pt"
 viewBox="0.00 0.00 644.50 374.00" xmlns="http://www.w3.org/2000/svg" xmlns:xlink="http://www.w3.org/1999/xlink">
<g id="graph0" class="graph" transform="scale(1 1) rotate(0) translate(4 370)">
<title>src/utils/physics/diffusion/DiffusionParams.h</title>
<polygon fill="white" stroke="transparent" points="-4,4 -4,-370 640.5,-370 640.5,4 -4,4"/>
<!-- Node1 -->
<g id="node1" class="node">
<title>Node1</title>
<g id="a_node1"><a xlink:title="This file contains the definition of the Params struct which encapsulates the parameters required for...">
<polygon fill="#bfbfbf" stroke="black" points="220,-335.5 220,-365.5 360,-365.5 360,-335.5 220,-335.5"/>
<text text-anchor="start" x="228" y="-353.5" font-family="Helvetica,sans-Serif" font-size="10.00">src/utils/physics/diffusion</text>
<text text-anchor="middle" x="290" y="-342.5" font-family="Helvetica,sans-Serif" font-size="10.00">/DiffusionParams.h</text>
</a>
</g>
</g>
<!-- Node2 -->
<g id="node2" class="node">
<title>Node2</title>
<g id="a_node2"><a xlink:href="../../dd/df8/project_2project2_2InputsOutputs_8h.html" target="_top" xlink:title="This file contains the input and output definitions for this project.">
<polygon fill="white" stroke="black" points="0,-134.5 0,-164.5 110,-164.5 110,-134.5 0,-134.5"/>
<text text-anchor="start" x="8" y="-152.5" font-family="Helvetica,sans-Serif" font-size="10.00">src/project/project2</text>
<text text-anchor="middle" x="55" y="-141.5" font-family="Helvetica,sans-Serif" font-size="10.00">/InputsOutputs.h</text>
</a>
</g>
</g>
<!-- Node1&#45;&gt;Node2 -->
<g id="edge1" class="edge">
<title>Node1&#45;&gt;Node2</title>
<path fill="none" stroke="midnightblue" d="M220.09,-332.45C168.07,-315.87 100.09,-285.2 64,-232 50.26,-211.74 50.92,-181.91 52.83,-164.52"/>
<polygon fill="midnightblue" stroke="midnightblue" points="219.35,-335.88 229.94,-335.48 221.41,-329.19 219.35,-335.88"/>
</g>
<!-- Node5 -->
<g id="node5" class="node">
<title>Node5</title>
<g id="a_node5"><a xlink:href="../../d8/d5c/DiffusionConstants_8h.html" target="_top" xlink:title=" ">
<polygon fill="white" stroke="black" points="269,-268.5 269,-298.5 409,-298.5 409,-268.5 269,-268.5"/>
<text text-anchor="start" x="277" y="-286.5" font-family="Helvetica,sans-Serif" font-size="10.00">src/utils/physics/diffusion</text>
<text text-anchor="middle" x="339" y="-275.5" font-family="Helvetica,sans-Serif" font-size="10.00">/DiffusionConstants.h</text>
</a>
</g>
</g>
<!-- Node1&#45;&gt;Node5 -->
<g id="edge4" class="edge">
<title>Node1&#45;&gt;Node5</title>
<path fill="none" stroke="midnightblue" d="M306.84,-327.16C313.99,-317.68 322.1,-306.92 328.39,-298.58"/>
<polygon fill="midnightblue" stroke="midnightblue" points="303.86,-325.3 300.63,-335.4 309.45,-329.52 303.86,-325.3"/>
</g>
<!-- Node6 -->
<g id="node6" class="node">
<title>Node6</title>
<g id="a_node6"><a xlink:href="../../dd/dfb/DiffusionMatrix_8h.html" target="_top" xlink:title="TODO:: DOCUMENT.">
<polygon fill="white" stroke="black" points="73,-201.5 73,-231.5 213,-231.5 213,-201.5 73,-201.5"/>
<text text-anchor="start" x="81" y="-219.5" font-family="Helvetica,sans-Serif" font-size="10.00">src/utils/physics/diffusion</text>
<text text-anchor="middle" x="143" y="-208.5" font-family="Helvetica,sans-Serif" font-size="10.00">/DiffusionMatrix.h</text>
</a>
</g>
</g>
<!-- Node1&#45;&gt;Node6 -->
<g id="edge11" class="edge">
<title>Node1&#45;&gt;Node6</title>
<path fill="none" stroke="midnightblue" d="M263.5,-329.17C252.07,-320.17 238.67,-309.3 227,-299 201.4,-276.41 173.23,-248.37 156.88,-231.76"/>
<polygon fill="midnightblue" stroke="midnightblue" points="261.39,-331.96 271.43,-335.36 265.7,-326.45 261.39,-331.96"/>
</g>
<!-- Node7 -->
<g id="node7" class="node">
<title>Node7</title>
<g id="a_node7"><a xlink:href="../../d6/d18/DiffusionMatrixTests_8cpp.html" target="_top" xlink:title="TODO::DOCUMENT.">
<polygon fill="white" stroke="black" points="138.5,-134.5 138.5,-164.5 305.5,-164.5 305.5,-134.5 138.5,-134.5"/>
<text text-anchor="start" x="146.5" y="-152.5" font-family="Helvetica,sans-Serif" font-size="10.00">src/utils/physics/diffusion</text>
<text text-anchor="middle" x="222" y="-141.5" font-family="Helvetica,sans-Serif" font-size="10.00">/tests/DiffusionMatrixTests.cpp</text>
</a>
</g>
</g>
<!-- Node1&#45;&gt;Node7 -->
<g id="edge13" class="edge">
<title>Node1&#45;&gt;Node7</title>
<path fill="none" stroke="midnightblue" d="M274.72,-326.93C269.49,-318.45 263.96,-308.55 260,-299 240.42,-251.81 228.83,-191.87 224.27,-164.85"/>
<polygon fill="midnightblue" stroke="midnightblue" points="271.86,-328.95 280.19,-335.49 277.75,-325.18 271.86,-328.95"/>
</g>
<!-- Node8 -->
<g id="node8" class="node">
<title>Node8</title>
<g id="a_node8"><a xlink:href="../../d9/d7b/SourceVector_8h.html" target="_top" xlink:title="TODO:: DOCUMENT.">
<polygon fill="white" stroke="black" points="471,-201.5 471,-231.5 611,-231.5 611,-201.5 471,-201.5"/>
<text text-anchor="start" x="479" y="-219.5" font-family="Helvetica,sans-Serif" font-size="10.00">src/utils/physics/diffusion</text>
<text text-anchor="middle" x="541" y="-208.5" font-family="Helvetica,sans-Serif" font-size="10.00">/SourceVector.h</text>
</a>
</g>
</g>
<!-- Node1&#45;&gt;Node8 -->
<g id="edge12" class="edge">
<title>Node1&#45;&gt;Node8</title>
<path fill="none" stroke="midnightblue" d="M345.13,-331.98C368.38,-323.53 395.28,-312.32 418,-299 436.81,-287.98 438.14,-280.49 456,-268 475.13,-254.62 497.93,-241.21 515.09,-231.57"/>
<polygon fill="midnightblue" stroke="midnightblue" points="343.66,-328.79 335.41,-335.43 346,-335.38 343.66,-328.79"/>
</g>
<!-- Node11 -->
<g id="node11" class="node">
<title>Node11</title>
<g id="a_node11"><a xlink:href="../../da/d4c/DiffusionParamsTests_8cpp.html" target="_top" xlink:title="The purpose of these tests is to ensure the correct functionality of the DiffusionParams class,...">
<polygon fill="white" stroke="black" points="465.5,-268.5 465.5,-298.5 636.5,-298.5 636.5,-268.5 465.5,-268.5"/>
<text text-anchor="start" x="473.5" y="-286.5" font-family="Helvetica,sans-Serif" font-size="10.00">src/utils/physics/diffusion</text>
<text text-anchor="middle" x="551" y="-275.5" font-family="Helvetica,sans-Serif" font-size="10.00">/tests/DiffusionParamsTests.cpp</text>
</a>
</g>
</g>
<!-- Node1&#45;&gt;Node11 -->
<g id="edge14" class="edge">
<title>Node1&#45;&gt;Node11</title>
<path fill="none" stroke="midnightblue" d="M356.05,-333.05C398.72,-322.43 453.66,-308.74 494.34,-298.61"/>
<polygon fill="midnightblue" stroke="midnightblue" points="355.17,-329.66 346.31,-335.48 356.86,-336.46 355.17,-329.66"/>
</g>
<!-- Node3 -->
<g id="node3" class="node">
<title>Node3</title>
<g id="a_node3"><a xlink:href="../../dc/d79/project2_8h.html" target="_top" xlink:title=" ">
<polygon fill="white" stroke="black" points="0,-67.5 0,-97.5 110,-97.5 110,-67.5 0,-67.5"/>
<text text-anchor="start" x="8" y="-85.5" font-family="Helvetica,sans-Serif" font-size="10.00">src/project/project2</text>
<text text-anchor="middle" x="55" y="-74.5" font-family="Helvetica,sans-Serif" font-size="10.00">/project2.h</text>
</a>
</g>
</g>
<!-- Node2&#45;&gt;Node3 -->
<g id="edge2" class="edge">
<title>Node2&#45;&gt;Node3</title>
<path fill="none" stroke="midnightblue" d="M55,-124.11C55,-115.15 55,-105.32 55,-97.58"/>
<polygon fill="midnightblue" stroke="midnightblue" points="51.5,-124.4 55,-134.4 58.5,-124.4 51.5,-124.4"/>
</g>
<!-- Node4 -->
<g id="node4" class="node">
<title>Node4</title>
<g id="a_node4"><a xlink:href="../../dd/d48/project_2project2_2main_8cpp.html" target="_top" xlink:title=" ">
<polygon fill="white" stroke="black" points="0,-0.5 0,-30.5 110,-30.5 110,-0.5 0,-0.5"/>
<text text-anchor="start" x="8" y="-18.5" font-family="Helvetica,sans-Serif" font-size="10.00">src/project/project2</text>
<text text-anchor="middle" x="55" y="-7.5" font-family="Helvetica,sans-Serif" font-size="10.00">/main.cpp</text>
</a>
</g>
</g>
<!-- Node3&#45;&gt;Node4 -->
<g id="edge3" class="edge">
<title>Node3&#45;&gt;Node4</title>
<path fill="none" stroke="midnightblue" d="M55,-57.11C55,-48.15 55,-38.32 55,-30.58"/>
<polygon fill="midnightblue" stroke="midnightblue" points="51.5,-57.4 55,-67.4 58.5,-57.4 51.5,-57.4"/>
</g>
<!-- Node5&#45;&gt;Node6 -->
<g id="edge5" class="edge">
<title>Node5&#45;&gt;Node6</title>
<path fill="none" stroke="midnightblue" d="M286.92,-265.23C255.21,-254.71 215.22,-241.45 185.45,-231.58"/>
<polygon fill="midnightblue" stroke="midnightblue" points="285.88,-268.57 296.47,-268.4 288.08,-261.93 285.88,-268.57"/>
</g>
<!-- Node5&#45;&gt;Node8 -->
<g id="edge8" class="edge">
<title>Node5&#45;&gt;Node8</title>
<path fill="none" stroke="midnightblue" d="M392.68,-265.23C425.35,-254.71 466.57,-241.45 497.25,-231.58"/>
<polygon fill="midnightblue" stroke="midnightblue" points="391.28,-262 382.83,-268.4 393.42,-268.66 391.28,-262"/>
</g>
<!-- Node10 -->
<g id="node10" class="node">
<title>Node10</title>
<g id="a_node10"><a xlink:href="../../dc/d33/DiffusionConstantsTests_8cpp.html" target="_top" xlink:title=" ">
<polygon fill="white" stroke="black" points="269,-201.5 269,-231.5 453,-231.5 453,-201.5 269,-201.5"/>
<text text-anchor="start" x="277" y="-219.5" font-family="Helvetica,sans-Serif" font-size="10.00">src/utils/physics/diffusion</text>
<text text-anchor="middle" x="361" y="-208.5" font-family="Helvetica,sans-Serif" font-size="10.00">/tests/DiffusionConstantsTests.cpp</text>
</a>
</g>
</g>
<!-- Node5&#45;&gt;Node10 -->
<g id="edge10" class="edge">
<title>Node5&#45;&gt;Node10</title>
<path fill="none" stroke="midnightblue" d="M347.06,-258.7C350.14,-249.59 353.56,-239.49 356.24,-231.58"/>
<polygon fill="midnightblue" stroke="midnightblue" points="343.66,-257.8 343.77,-268.4 350.29,-260.05 343.66,-257.8"/>
</g>
<!-- Node6&#45;&gt;Node2 -->
<g id="edge6" class="edge">
<title>Node6&#45;&gt;Node2</title>
<path fill="none" stroke="midnightblue" d="M115.86,-195.45C102.32,-185.45 86.27,-173.6 74.06,-164.58"/>
<polygon fill="midnightblue" stroke="midnightblue" points="113.78,-198.27 123.91,-201.4 117.94,-192.64 113.78,-198.27"/>
</g>
<!-- Node6&#45;&gt;Node7 -->
<g id="edge7" class="edge">
<title>Node6&#45;&gt;Node7</title>
<path fill="none" stroke="midnightblue" d="M168.06,-194.88C180.06,-185.01 194.13,-173.43 204.89,-164.58"/>
<polygon fill="midnightblue" stroke="midnightblue" points="165.64,-192.34 160.14,-201.4 170.09,-197.75 165.64,-192.34"/>
</g>
<!-- Node9 -->
<g id="node9" class="node">
<title>Node9</title>
<g id="a_node9"><a xlink:href="../../d0/deb/SourceVectorTests_8h_8cpp.html" target="_top" xlink:title=" ">
<polygon fill="white" stroke="black" points="459,-134.5 459,-164.5 623,-164.5 623,-134.5 459,-134.5"/>
<text text-anchor="start" x="467" y="-152.5" font-family="Helvetica,sans-Serif" font-size="10.00">src/utils/physics/diffusion</text>
<text text-anchor="middle" x="541" y="-141.5" font-family="Helvetica,sans-Serif" font-size="10.00">/tests/SourceVectorTests.h.cpp</text>
</a>
</g>
</g>
<!-- Node8&#45;&gt;Node9 -->
<g id="edge9" class="edge">
<title>Node8&#45;&gt;Node9</title>
<path fill="none" stroke="midnightblue" d="M541,-191.11C541,-182.15 541,-172.32 541,-164.58"/>
<polygon fill="midnightblue" stroke="midnightblue" points="537.5,-191.4 541,-201.4 544.5,-191.4 537.5,-191.4"/>
</g>
</g>
</svg>
