<?xml version="1.0" encoding="UTF-8" standalone="no"?>
<!DOCTYPE svg PUBLIC "-//W3C//DTD SVG 1.1//EN"
 "http://www.w3.org/Graphics/SVG/1.1/DTD/svg11.dtd">
<!-- Generated by graphviz version 2.43.0 (0)
 -->
<!-- Title: src/labs/inlab4/Parser.h Pages: 1 -->
<svg width="1373pt" height="252pt"
 viewBox="0.00 0.00 1373.11 252.00" xmlns="http://www.w3.org/2000/svg" xmlns:xlink="http://www.w3.org/1999/xlink">
<g id="graph0" class="graph" transform="scale(1 1) rotate(0) translate(4 248)">
<title>src/labs/inlab4/Parser.h</title>
<polygon fill="white" stroke="transparent" points="-4,4 -4,-248 1369.11,-248 1369.11,4 -4,4"/>
<!-- Node1 -->
<g id="node1" class="node">
<title>Node1</title>
<g id="a_node1"><a xlink:title="This file contains the Parser class which is responsible for parsing command line arguments and valid...">
<polygon fill="#bfbfbf" stroke="black" points="464,-224.5 464,-243.5 592,-243.5 592,-224.5 464,-224.5"/>
<text text-anchor="middle" x="528" y="-231.5" font-family="Helvetica,sans-Serif" font-size="10.00">src/labs/inlab4/Parser.h</text>
</a>
</g>
</g>
<!-- Node2 -->
<g id="node2" class="node">
<title>Node2</title>
<g id="a_node2"><a xlink:href="../../d9/d41/CommandLine_8h.html" target="_top" xlink:title="This file contains the definition of the CommandLine class and the HeaderInfo struct.">
<polygon fill="white" stroke="black" points="276,-168.5 276,-187.5 372,-187.5 372,-168.5 276,-168.5"/>
<text text-anchor="middle" x="324" y="-175.5" font-family="Helvetica,sans-Serif" font-size="10.00">CommandLine.h</text>
</a>
</g>
</g>
<!-- Node1&#45;&gt;Node2 -->
<g id="edge1" class="edge">
<title>Node1&#45;&gt;Node2</title>
<path fill="none" stroke="midnightblue" d="M495.68,-224.44C460.61,-215.16 404.5,-200.31 366.04,-190.13"/>
<polygon fill="midnightblue" stroke="midnightblue" points="366.74,-186.69 356.17,-187.52 364.94,-193.46 366.74,-186.69"/>
</g>
<!-- Node3 -->
<g id="node3" class="node">
<title>Node3</title>
<g id="a_node3"><a xlink:href="../../db/df1/Helpers_8h.html" target="_top" xlink:title="This file contains helper functions and structures used throughout the program.">
<polygon fill="white" stroke="black" points="84.5,-112.5 84.5,-131.5 147.5,-131.5 147.5,-112.5 84.5,-112.5"/>
<text text-anchor="middle" x="116" y="-119.5" font-family="Helvetica,sans-Serif" font-size="10.00">Helpers.h</text>
</a>
</g>
</g>
<!-- Node1&#45;&gt;Node3 -->
<g id="edge40" class="edge">
<title>Node1&#45;&gt;Node3</title>
<path fill="none" stroke="midnightblue" d="M463.75,-226.21C410.32,-219.54 332.68,-207.5 267,-188 221.28,-174.43 170.91,-150.88 141.44,-136.16"/>
<polygon fill="midnightblue" stroke="midnightblue" points="142.78,-132.92 132.28,-131.53 139.63,-139.17 142.78,-132.92"/>
</g>
<!-- Node18 -->
<g id="node18" class="node">
<title>Node18</title>
<g id="a_node18"><a xlink:href="../../d7/de4/FileParser_8h.html" target="_top" xlink:title="This file contains the definitions for functions that handle file parsing operations.">
<polygon fill="white" stroke="black" points="736,-168.5 736,-187.5 808,-187.5 808,-168.5 736,-168.5"/>
<text text-anchor="middle" x="772" y="-175.5" font-family="Helvetica,sans-Serif" font-size="10.00">FileParser.h</text>
</a>
</g>
</g>
<!-- Node1&#45;&gt;Node18 -->
<g id="edge21" class="edge">
<title>Node1&#45;&gt;Node18</title>
<path fill="none" stroke="midnightblue" d="M566.66,-224.44C609.89,-214.88 679.85,-199.39 725.89,-189.2"/>
<polygon fill="midnightblue" stroke="midnightblue" points="726.9,-192.57 735.9,-186.99 725.38,-185.73 726.9,-192.57"/>
</g>
<!-- Node28 -->
<g id="node28" class="node">
<title>Node28</title>
<g id="a_node28"><a xlink:href="../../d7/db1/labs_2inlab4_2InputsOutputs_8h.html" target="_top" xlink:title="This file contains the input and output definitions for this project.">
<polygon fill="white" stroke="black" points="1069,-168.5 1069,-187.5 1163,-187.5 1163,-168.5 1069,-168.5"/>
<text text-anchor="middle" x="1116" y="-175.5" font-family="Helvetica,sans-Serif" font-size="10.00">InputsOutputs.h</text>
</a>
</g>
</g>
<!-- Node1&#45;&gt;Node28 -->
<g id="edge41" class="edge">
<title>Node1&#45;&gt;Node28</title>
<path fill="none" stroke="midnightblue" d="M592.05,-227.12C707.38,-216.53 948.26,-194.4 1058.58,-184.27"/>
<polygon fill="midnightblue" stroke="midnightblue" points="1059.21,-187.73 1068.84,-183.33 1058.57,-180.76 1059.21,-187.73"/>
</g>
<!-- Node2&#45;&gt;Node3 -->
<g id="edge2" class="edge">
<title>Node2&#45;&gt;Node3</title>
<path fill="none" stroke="midnightblue" d="M291.04,-168.44C254.9,-159.06 196.82,-143.98 157.58,-133.79"/>
<polygon fill="midnightblue" stroke="midnightblue" points="158.34,-130.38 147.78,-131.25 156.58,-137.15 158.34,-130.38"/>
</g>
<!-- Node5 -->
<g id="node5" class="node">
<title>Node5</title>
<g id="a_node5"><a xlink:title=" ">
<polygon fill="white" stroke="#bfbfbf" points="786,-0.5 786,-19.5 846,-19.5 846,-0.5 786,-0.5"/>
<text text-anchor="middle" x="816" y="-7.5" font-family="Helvetica,sans-Serif" font-size="10.00">iostream</text>
</a>
</g>
</g>
<!-- Node2&#45;&gt;Node5 -->
<g id="edge19" class="edge">
<title>Node2&#45;&gt;Node5</title>
<path fill="none" stroke="midnightblue" d="M324.11,-168.17C324.77,-154.37 328.03,-127.62 343,-112 356.39,-98.02 489.18,-60.53 508,-56 602.67,-33.22 716.65,-20.21 775.87,-14.51"/>
<polygon fill="midnightblue" stroke="midnightblue" points="776.3,-17.98 785.92,-13.56 775.64,-11.02 776.3,-17.98"/>
</g>
<!-- Node8 -->
<g id="node8" class="node">
<title>Node8</title>
<g id="a_node8"><a xlink:title=" ">
<polygon fill="white" stroke="#bfbfbf" points="138,-56.5 138,-75.5 288,-75.5 288,-56.5 138,-56.5"/>
<text text-anchor="middle" x="213" y="-63.5" font-family="Helvetica,sans-Serif" font-size="10.00">boost/program_options.hpp</text>
</a>
</g>
</g>
<!-- Node2&#45;&gt;Node8 -->
<g id="edge18" class="edge">
<title>Node2&#45;&gt;Node8</title>
<path fill="none" stroke="midnightblue" d="M275.93,-173.63C247.37,-168.86 213.27,-157.72 195,-132 184.97,-117.88 192.54,-98.39 200.71,-84.44"/>
<polygon fill="midnightblue" stroke="midnightblue" points="203.8,-86.1 206.26,-75.8 197.91,-82.32 203.8,-86.1"/>
</g>
<!-- Node9 -->
<g id="node9" class="node">
<title>Node9</title>
<g id="a_node9"><a xlink:href="../../df/d69/Profiler_8h.html" target="_top" xlink:title="This file contains helper classes and functions for profiling.">
<polygon fill="white" stroke="black" points="452.5,-112.5 452.5,-131.5 511.5,-131.5 511.5,-112.5 452.5,-112.5"/>
<text text-anchor="middle" x="482" y="-119.5" font-family="Helvetica,sans-Serif" font-size="10.00">Profiler.h</text>
</a>
</g>
</g>
<!-- Node2&#45;&gt;Node9 -->
<g id="edge8" class="edge">
<title>Node2&#45;&gt;Node9</title>
<path fill="none" stroke="midnightblue" d="M349.04,-168.44C375.62,-159.36 417.81,-144.94 447.52,-134.78"/>
<polygon fill="midnightblue" stroke="midnightblue" points="448.75,-138.06 457.08,-131.52 446.49,-131.44 448.75,-138.06"/>
</g>
<!-- Node16 -->
<g id="node16" class="node">
<title>Node16</title>
<g id="a_node16"><a xlink:title=" ">
<polygon fill="white" stroke="#bfbfbf" points="204,-112.5 204,-131.5 296,-131.5 296,-112.5 204,-112.5"/>
<text text-anchor="middle" x="250" y="-119.5" font-family="Helvetica,sans-Serif" font-size="10.00">project&#45;config.h</text>
</a>
</g>
</g>
<!-- Node2&#45;&gt;Node16 -->
<g id="edge17" class="edge">
<title>Node2&#45;&gt;Node16</title>
<path fill="none" stroke="midnightblue" d="M312.11,-168.32C300.85,-160.11 283.71,-147.6 270.29,-137.81"/>
<polygon fill="midnightblue" stroke="midnightblue" points="272.25,-134.9 262.11,-131.83 268.12,-140.56 272.25,-134.9"/>
</g>
<!-- Node17 -->
<g id="node17" class="node">
<title>Node17</title>
<g id="a_node17"><a xlink:title=" ">
<polygon fill="white" stroke="#bfbfbf" points="352,-112.5 352,-131.5 396,-131.5 396,-112.5 352,-112.5"/>
<text text-anchor="middle" x="374" y="-119.5" font-family="Helvetica,sans-Serif" font-size="10.00">string</text>
</a>
</g>
</g>
<!-- Node2&#45;&gt;Node17 -->
<g id="edge20" class="edge">
<title>Node2&#45;&gt;Node17</title>
<path fill="none" stroke="midnightblue" d="M332.26,-168.08C339.46,-160.3 350.11,-148.8 358.85,-139.37"/>
<polygon fill="midnightblue" stroke="midnightblue" points="361.67,-141.47 365.9,-131.75 356.53,-136.71 361.67,-141.47"/>
</g>
<!-- Node4 -->
<g id="node4" class="node">
<title>Node4</title>
<g id="a_node4"><a xlink:title=" ">
<polygon fill="white" stroke="#bfbfbf" points="460,-0.5 460,-19.5 516,-19.5 516,-0.5 460,-0.5"/>
<text text-anchor="middle" x="488" y="-7.5" font-family="Helvetica,sans-Serif" font-size="10.00">iomanip</text>
</a>
</g>
</g>
<!-- Node3&#45;&gt;Node4 -->
<g id="edge3" class="edge">
<title>Node3&#45;&gt;Node4</title>
<path fill="none" stroke="midnightblue" d="M108.71,-112.31C98.2,-98.7 81.54,-72.21 96,-56 101.88,-49.41 352.69,-24.23 449.99,-14.69"/>
<polygon fill="midnightblue" stroke="midnightblue" points="450.38,-18.17 459.99,-13.71 449.7,-11.2 450.38,-18.17"/>
</g>
<!-- Node3&#45;&gt;Node5 -->
<g id="edge4" class="edge">
<title>Node3&#45;&gt;Node5</title>
<path fill="none" stroke="midnightblue" d="M114.77,-112.24C113.33,-98.03 112.9,-70.1 129,-56 153.45,-34.58 632.5,-17.07 775.83,-12.29"/>
<polygon fill="midnightblue" stroke="midnightblue" points="776.07,-15.78 785.95,-11.96 775.83,-8.79 776.07,-15.78"/>
</g>
<!-- Node6 -->
<g id="node6" class="node">
<title>Node6</title>
<g id="a_node6"><a xlink:title=" ">
<polygon fill="white" stroke="#bfbfbf" points="0,-56.5 0,-75.5 44,-75.5 44,-56.5 0,-56.5"/>
<text text-anchor="middle" x="22" y="-63.5" font-family="Helvetica,sans-Serif" font-size="10.00">limits</text>
</a>
</g>
</g>
<!-- Node3&#45;&gt;Node6 -->
<g id="edge5" class="edge">
<title>Node3&#45;&gt;Node6</title>
<path fill="none" stroke="midnightblue" d="M100.9,-112.32C86.1,-103.82 63.31,-90.73 46.02,-80.8"/>
<polygon fill="midnightblue" stroke="midnightblue" points="47.48,-77.6 37.07,-75.65 43.99,-83.67 47.48,-77.6"/>
</g>
<!-- Node7 -->
<g id="node7" class="node">
<title>Node7</title>
<g id="a_node7"><a xlink:title=" ">
<polygon fill="white" stroke="#bfbfbf" points="983,-56.5 983,-75.5 1041,-75.5 1041,-56.5 983,-56.5"/>
<text text-anchor="middle" x="1012" y="-63.5" font-family="Helvetica,sans-Serif" font-size="10.00">json.hpp</text>
</a>
</g>
</g>
<!-- Node3&#45;&gt;Node7 -->
<g id="edge6" class="edge">
<title>Node3&#45;&gt;Node7</title>
<path fill="none" stroke="midnightblue" d="M147.86,-116.94C162.24,-115.22 179.46,-113.31 195,-112 493.51,-86.8 854.63,-72.58 972.64,-68.35"/>
<polygon fill="midnightblue" stroke="midnightblue" points="972.78,-71.85 982.65,-68 972.53,-64.85 972.78,-71.85"/>
</g>
<!-- Node3&#45;&gt;Node8 -->
<g id="edge7" class="edge">
<title>Node3&#45;&gt;Node8</title>
<path fill="none" stroke="midnightblue" d="M131.58,-112.32C147,-103.74 170.81,-90.49 188.71,-80.52"/>
<polygon fill="midnightblue" stroke="midnightblue" points="190.42,-83.58 197.45,-75.65 187.01,-77.46 190.42,-83.58"/>
</g>
<!-- Node9&#45;&gt;Node4 -->
<g id="edge11" class="edge">
<title>Node9&#45;&gt;Node4</title>
<path fill="none" stroke="midnightblue" d="M482.47,-112.37C483.44,-94.62 485.67,-53.67 486.99,-29.6"/>
<polygon fill="midnightblue" stroke="midnightblue" points="490.48,-29.77 487.53,-19.59 483.49,-29.39 490.48,-29.77"/>
</g>
<!-- Node9&#45;&gt;Node5 -->
<g id="edge12" class="edge">
<title>Node9&#45;&gt;Node5</title>
<path fill="none" stroke="midnightblue" d="M511.78,-115.78C548.18,-108.91 611.31,-95.38 663,-76 681.24,-69.16 684.25,-64.03 702,-56 728.68,-43.93 759.62,-31.83 782.53,-23.22"/>
<polygon fill="midnightblue" stroke="midnightblue" points="783.99,-26.41 792.14,-19.64 781.55,-19.86 783.99,-26.41"/>
</g>
<!-- Node10 -->
<g id="node10" class="node">
<title>Node10</title>
<g id="a_node10"><a xlink:title=" ">
<polygon fill="white" stroke="#bfbfbf" points="710.5,-56.5 710.5,-75.5 765.5,-75.5 765.5,-56.5 710.5,-56.5"/>
<text text-anchor="middle" x="738" y="-63.5" font-family="Helvetica,sans-Serif" font-size="10.00">fstream</text>
</a>
</g>
</g>
<!-- Node9&#45;&gt;Node10 -->
<g id="edge9" class="edge">
<title>Node9&#45;&gt;Node10</title>
<path fill="none" stroke="midnightblue" d="M511.78,-114.78C553.13,-106.12 630.27,-89.95 696,-76 697.46,-75.69 698.95,-75.37 700.45,-75.05"/>
<polygon fill="midnightblue" stroke="midnightblue" points="701.39,-78.43 710.44,-72.92 699.93,-71.59 701.39,-78.43"/>
</g>
<!-- Node11 -->
<g id="node11" class="node">
<title>Node11</title>
<g id="a_node11"><a xlink:title=" ">
<polygon fill="white" stroke="#bfbfbf" points="516.5,-56.5 516.5,-75.5 581.5,-75.5 581.5,-56.5 516.5,-56.5"/>
<text text-anchor="middle" x="549" y="-63.5" font-family="Helvetica,sans-Serif" font-size="10.00">functional</text>
</a>
</g>
</g>
<!-- Node9&#45;&gt;Node11 -->
<g id="edge10" class="edge">
<title>Node9&#45;&gt;Node11</title>
<path fill="none" stroke="midnightblue" d="M492.76,-112.32C502.77,-104.26 517.89,-92.08 529.93,-82.37"/>
<polygon fill="midnightblue" stroke="midnightblue" points="532.45,-84.83 538.04,-75.83 528.06,-79.38 532.45,-84.83"/>
</g>
<!-- Node12 -->
<g id="node12" class="node">
<title>Node12</title>
<g id="a_node12"><a xlink:title=" ">
<polygon fill="white" stroke="#bfbfbf" points="600,-56.5 600,-75.5 654,-75.5 654,-56.5 600,-56.5"/>
<text text-anchor="middle" x="627" y="-63.5" font-family="Helvetica,sans-Serif" font-size="10.00">random</text>
</a>
</g>
</g>
<!-- Node9&#45;&gt;Node12 -->
<g id="edge13" class="edge">
<title>Node9&#45;&gt;Node12</title>
<path fill="none" stroke="midnightblue" d="M504.98,-112.44C529.16,-103.44 567.42,-89.19 594.65,-79.05"/>
<polygon fill="midnightblue" stroke="midnightblue" points="595.98,-82.29 604.13,-75.52 593.54,-75.73 595.98,-82.29"/>
</g>
<!-- Node13 -->
<g id="node13" class="node">
<title>Node13</title>
<g id="a_node13"><a xlink:title=" ">
<polygon fill="white" stroke="#bfbfbf" points="1059.5,-56.5 1059.5,-75.5 1104.5,-75.5 1104.5,-56.5 1059.5,-56.5"/>
<text text-anchor="middle" x="1082" y="-63.5" font-family="Helvetica,sans-Serif" font-size="10.00">utility</text>
</a>
</g>
</g>
<!-- Node9&#45;&gt;Node13 -->
<g id="edge14" class="edge">
<title>Node9&#45;&gt;Node13</title>
<path fill="none" stroke="midnightblue" d="M511.59,-117.24C525.89,-115.5 543.32,-113.49 559,-112 773.53,-91.61 832.7,-113.14 1049.3,-75.73"/>
<polygon fill="midnightblue" stroke="midnightblue" points="1050.16,-79.13 1059.4,-73.96 1048.95,-72.24 1050.16,-79.13"/>
</g>
<!-- Node14 -->
<g id="node14" class="node">
<title>Node14</title>
<g id="a_node14"><a xlink:href="../../d4/d2e/Stopwatch_8h.html" target="_top" xlink:title="This file contains the Stopwatch class which is a utility for measuring time durations in various uni...">
<polygon fill="white" stroke="black" points="344.5,-56.5 344.5,-75.5 421.5,-75.5 421.5,-56.5 344.5,-56.5"/>
<text text-anchor="middle" x="383" y="-63.5" font-family="Helvetica,sans-Serif" font-size="10.00">Stopwatch.h</text>
</a>
</g>
</g>
<!-- Node9&#45;&gt;Node14 -->
<g id="edge15" class="edge">
<title>Node9&#45;&gt;Node14</title>
<path fill="none" stroke="midnightblue" d="M466.09,-112.32C450.36,-103.74 426.06,-90.49 407.79,-80.52"/>
<polygon fill="midnightblue" stroke="midnightblue" points="409.32,-77.37 398.87,-75.65 405.97,-83.52 409.32,-77.37"/>
</g>
<!-- Node15 -->
<g id="node15" class="node">
<title>Node15</title>
<g id="a_node15"><a xlink:title=" ">
<polygon fill="white" stroke="#bfbfbf" points="325,-0.5 325,-19.5 375,-19.5 375,-0.5 325,-0.5"/>
<text text-anchor="middle" x="350" y="-7.5" font-family="Helvetica,sans-Serif" font-size="10.00">chrono</text>
</a>
</g>
</g>
<!-- Node14&#45;&gt;Node15 -->
<g id="edge16" class="edge">
<title>Node14&#45;&gt;Node15</title>
<path fill="none" stroke="midnightblue" d="M377.55,-56.08C372.99,-48.61 366.33,-37.72 360.71,-28.52"/>
<polygon fill="midnightblue" stroke="midnightblue" points="363.55,-26.46 355.35,-19.75 357.58,-30.11 363.55,-26.46"/>
</g>
<!-- Node18&#45;&gt;Node5 -->
<g id="edge25" class="edge">
<title>Node18&#45;&gt;Node5</title>
<path fill="none" stroke="midnightblue" d="M808.43,-174.61C862.88,-170.19 961.44,-158.64 983,-132 988.59,-125.09 987.37,-119.74 983,-112 955.94,-64.01 895.89,-36.24 855.67,-22.36"/>
<polygon fill="midnightblue" stroke="midnightblue" points="856.75,-19.03 846.15,-19.21 854.54,-25.67 856.75,-19.03"/>
</g>
<!-- Node18&#45;&gt;Node7 -->
<g id="edge39" class="edge">
<title>Node18&#45;&gt;Node7</title>
<path fill="none" stroke="midnightblue" d="M808.04,-175.8C869.37,-172.9 989.96,-163.29 1016,-132 1026.61,-119.26 1023.75,-99.79 1019.37,-85.48"/>
<polygon fill="midnightblue" stroke="midnightblue" points="1022.56,-84 1015.93,-75.74 1015.96,-86.33 1022.56,-84"/>
</g>
<!-- Node18&#45;&gt;Node10 -->
<g id="edge24" class="edge">
<title>Node18&#45;&gt;Node10</title>
<path fill="none" stroke="midnightblue" d="M735.68,-174.7C680.81,-170.38 580.84,-158.94 559,-132 553.4,-125.1 553.53,-119.01 559,-112 563.4,-106.36 648.87,-86.67 700.09,-75.29"/>
<polygon fill="midnightblue" stroke="midnightblue" points="701.14,-78.64 710.15,-73.06 699.63,-71.81 701.14,-78.64"/>
</g>
<!-- Node18&#45;&gt;Node15 -->
<g id="edge27" class="edge">
<title>Node18&#45;&gt;Node15</title>
<path fill="none" stroke="midnightblue" d="M735.69,-176.04C674.24,-173.54 546.45,-164.52 444,-132 443.19,-131.74 336.44,-76.72 336,-76 327.22,-61.55 333.07,-42.36 339.68,-28.58"/>
<polygon fill="midnightblue" stroke="midnightblue" points="342.82,-30.13 344.43,-19.65 336.64,-26.84 342.82,-30.13"/>
</g>
<!-- Node18&#45;&gt;Node17 -->
<g id="edge26" class="edge">
<title>Node18&#45;&gt;Node17</title>
<path fill="none" stroke="midnightblue" d="M735.81,-173.97C670.4,-168.16 528.29,-154.05 410,-132 408.75,-131.77 407.49,-131.52 406.21,-131.25"/>
<polygon fill="midnightblue" stroke="midnightblue" points="406.9,-127.82 396.38,-129.04 405.36,-134.65 406.9,-127.82"/>
</g>
<!-- Node19 -->
<g id="node19" class="node">
<title>Node19</title>
<g id="a_node19"><a xlink:title=" ">
<polygon fill="white" stroke="#bfbfbf" points="568,-112.5 568,-131.5 680,-131.5 680,-112.5 568,-112.5"/>
<text text-anchor="middle" x="624" y="-119.5" font-family="Helvetica,sans-Serif" font-size="10.00">boost/tokenizer.hpp</text>
</a>
</g>
</g>
<!-- Node18&#45;&gt;Node19 -->
<g id="edge22" class="edge">
<title>Node18&#45;&gt;Node19</title>
<path fill="none" stroke="midnightblue" d="M748.55,-168.44C723.87,-159.44 684.81,-145.19 657.02,-135.05"/>
<polygon fill="midnightblue" stroke="midnightblue" points="657.94,-131.66 647.34,-131.52 655.54,-138.23 657.94,-131.66"/>
</g>
<!-- Node20 -->
<g id="node20" class="node">
<title>Node20</title>
<g id="a_node20"><a xlink:title=" ">
<polygon fill="white" stroke="#bfbfbf" points="698,-112.5 698,-131.5 766,-131.5 766,-112.5 698,-112.5"/>
<text text-anchor="middle" x="732" y="-119.5" font-family="Helvetica,sans-Serif" font-size="10.00">filesystem</text>
</a>
</g>
</g>
<!-- Node18&#45;&gt;Node20 -->
<g id="edge23" class="edge">
<title>Node18&#45;&gt;Node20</title>
<path fill="none" stroke="midnightblue" d="M765.39,-168.08C759.74,-160.46 751.46,-149.26 744.55,-139.94"/>
<polygon fill="midnightblue" stroke="midnightblue" points="747.25,-137.7 738.48,-131.75 741.62,-141.87 747.25,-137.7"/>
</g>
<!-- Node21 -->
<g id="node21" class="node">
<title>Node21</title>
<g id="a_node21"><a xlink:title=" ">
<polygon fill="white" stroke="#bfbfbf" points="784,-112.5 784,-131.5 842,-131.5 842,-112.5 784,-112.5"/>
<text text-anchor="middle" x="813" y="-119.5" font-family="Helvetica,sans-Serif" font-size="10.00">memory</text>
</a>
</g>
</g>
<!-- Node18&#45;&gt;Node21 -->
<g id="edge28" class="edge">
<title>Node18&#45;&gt;Node21</title>
<path fill="none" stroke="midnightblue" d="M778.77,-168.08C784.56,-160.46 793.06,-149.26 800.14,-139.94"/>
<polygon fill="midnightblue" stroke="midnightblue" points="803.1,-141.83 806.36,-131.75 797.52,-137.6 803.1,-141.83"/>
</g>
<!-- Node22 -->
<g id="node22" class="node">
<title>Node22</title>
<g id="a_node22"><a xlink:title=" ">
<polygon fill="white" stroke="#bfbfbf" points="860,-112.5 860,-131.5 908,-131.5 908,-112.5 860,-112.5"/>
<text text-anchor="middle" x="884" y="-119.5" font-family="Helvetica,sans-Serif" font-size="10.00">mutex</text>
</a>
</g>
</g>
<!-- Node18&#45;&gt;Node22 -->
<g id="edge29" class="edge">
<title>Node18&#45;&gt;Node22</title>
<path fill="none" stroke="midnightblue" d="M789.99,-168.32C808.04,-159.62 836.05,-146.12 856.8,-136.11"/>
<polygon fill="midnightblue" stroke="midnightblue" points="858.56,-139.15 866.05,-131.65 855.52,-132.84 858.56,-139.15"/>
</g>
<!-- Node23 -->
<g id="node23" class="node">
<title>Node23</title>
<g id="a_node23"><a xlink:title=" ">
<polygon fill="white" stroke="#bfbfbf" points="926,-112.5 926,-131.5 974,-131.5 974,-112.5 926,-112.5"/>
<text text-anchor="middle" x="950" y="-119.5" font-family="Helvetica,sans-Serif" font-size="10.00">thread</text>
</a>
</g>
</g>
<!-- Node18&#45;&gt;Node23 -->
<g id="edge30" class="edge">
<title>Node18&#45;&gt;Node23</title>
<path fill="none" stroke="midnightblue" d="M800.2,-168.44C831.65,-158.9 882.5,-143.48 916.09,-133.29"/>
<polygon fill="midnightblue" stroke="midnightblue" points="917.37,-136.56 925.92,-130.3 915.34,-129.86 917.37,-136.56"/>
</g>
<!-- Node24 -->
<g id="node24" class="node">
<title>Node24</title>
<g id="a_node24"><a xlink:href="../../d3/db1/Matrix_8h.html" target="_top" xlink:title="This file contains my BLAS::Matrix declarations.">
<polygon fill="white" stroke="black" points="1144.5,-112.5 1144.5,-131.5 1253.5,-131.5 1253.5,-112.5 1144.5,-112.5"/>
<text text-anchor="middle" x="1199" y="-119.5" font-family="Helvetica,sans-Serif" font-size="10.00">math/blas/Matrix.h</text>
</a>
</g>
</g>
<!-- Node18&#45;&gt;Node24 -->
<g id="edge31" class="edge">
<title>Node18&#45;&gt;Node24</title>
<path fill="none" stroke="midnightblue" d="M808.04,-172.44C880.23,-163.31 1043.43,-142.67 1134.5,-131.16"/>
<polygon fill="midnightblue" stroke="midnightblue" points="1134.94,-134.63 1144.43,-129.9 1134.07,-127.68 1134.94,-134.63"/>
</g>
<!-- Node24&#45;&gt;Node5 -->
<g id="edge33" class="edge">
<title>Node24&#45;&gt;Node5</title>
<path fill="none" stroke="midnightblue" d="M1190.54,-112.11C1176.27,-97.7 1145.81,-69.5 1114,-56 1027.22,-19.17 914.97,-11.89 856.1,-10.81"/>
<polygon fill="midnightblue" stroke="midnightblue" points="856.13,-7.31 846.09,-10.68 856.04,-14.31 856.13,-7.31"/>
</g>
<!-- Node25 -->
<g id="node25" class="node">
<title>Node25</title>
<g id="a_node25"><a xlink:title=" ">
<polygon fill="white" stroke="#bfbfbf" points="1161,-56.5 1161,-75.5 1225,-75.5 1225,-56.5 1161,-56.5"/>
<text text-anchor="middle" x="1193" y="-63.5" font-family="Helvetica,sans-Serif" font-size="10.00">algorithm</text>
</a>
</g>
</g>
<!-- Node24&#45;&gt;Node25 -->
<g id="edge32" class="edge">
<title>Node24&#45;&gt;Node25</title>
<path fill="none" stroke="midnightblue" d="M1198.01,-112.08C1197.21,-104.93 1196.07,-94.64 1195.08,-85.69"/>
<polygon fill="midnightblue" stroke="midnightblue" points="1198.56,-85.3 1193.97,-75.75 1191.6,-86.08 1198.56,-85.3"/>
</g>
<!-- Node26 -->
<g id="node26" class="node">
<title>Node26</title>
<g id="a_node26"><a xlink:title=" ">
<polygon fill="white" stroke="#bfbfbf" points="1314.5,-0.5 1314.5,-19.5 1361.5,-19.5 1361.5,-0.5 1314.5,-0.5"/>
<text text-anchor="middle" x="1338" y="-7.5" font-family="Helvetica,sans-Serif" font-size="10.00">vector</text>
</a>
</g>
</g>
<!-- Node24&#45;&gt;Node26 -->
<g id="edge34" class="edge">
<title>Node24&#45;&gt;Node26</title>
<path fill="none" stroke="midnightblue" d="M1253.85,-112.87C1295.24,-105.48 1347.02,-93.11 1360,-76 1370.75,-61.83 1361.48,-42.08 1351.88,-28.08"/>
<polygon fill="midnightblue" stroke="midnightblue" points="1354.52,-25.75 1345.74,-19.82 1348.9,-29.94 1354.52,-25.75"/>
</g>
<!-- Node27 -->
<g id="node27" class="node">
<title>Node27</title>
<g id="a_node27"><a xlink:href="../../d6/dbe/Vector_8h.html" target="_top" xlink:title="This file contains my BLAS::Vector implementation.">
<polygon fill="white" stroke="black" points="1243.5,-56.5 1243.5,-75.5 1350.5,-75.5 1350.5,-56.5 1243.5,-56.5"/>
<text text-anchor="middle" x="1297" y="-63.5" font-family="Helvetica,sans-Serif" font-size="10.00">math/blas/Vector.h</text>
</a>
</g>
</g>
<!-- Node24&#45;&gt;Node27 -->
<g id="edge35" class="edge">
<title>Node24&#45;&gt;Node27</title>
<path fill="none" stroke="midnightblue" d="M1214.75,-112.32C1230.32,-103.74 1254.38,-90.49 1272.46,-80.52"/>
<polygon fill="midnightblue" stroke="midnightblue" points="1274.22,-83.55 1281.29,-75.65 1270.85,-77.42 1274.22,-83.55"/>
</g>
<!-- Node27&#45;&gt;Node4 -->
<g id="edge36" class="edge">
<title>Node27&#45;&gt;Node4</title>
<path fill="none" stroke="midnightblue" d="M1243.42,-57.04C1240.24,-56.66 1237.08,-56.31 1234,-56 963.85,-28.6 636.83,-15.93 526.48,-12.21"/>
<polygon fill="midnightblue" stroke="midnightblue" points="526.29,-8.7 516.18,-11.87 526.06,-15.7 526.29,-8.7"/>
</g>
<!-- Node27&#45;&gt;Node5 -->
<g id="edge37" class="edge">
<title>Node27&#45;&gt;Node5</title>
<path fill="none" stroke="midnightblue" d="M1243.4,-57.21C1240.22,-56.79 1237.07,-56.38 1234,-56 1095.77,-38.69 931.31,-22.18 856.57,-14.9"/>
<polygon fill="midnightblue" stroke="midnightblue" points="856.49,-11.37 846.2,-13.89 855.82,-18.34 856.49,-11.37"/>
</g>
<!-- Node27&#45;&gt;Node26 -->
<g id="edge38" class="edge">
<title>Node27&#45;&gt;Node26</title>
<path fill="none" stroke="midnightblue" d="M1303.77,-56.08C1309.56,-48.46 1318.06,-37.26 1325.14,-27.94"/>
<polygon fill="midnightblue" stroke="midnightblue" points="1328.1,-29.83 1331.36,-19.75 1322.52,-25.6 1328.1,-29.83"/>
</g>
<!-- Node28&#45;&gt;Node7 -->
<g id="edge43" class="edge">
<title>Node28&#45;&gt;Node7</title>
<path fill="none" stroke="midnightblue" d="M1107.84,-168.37C1090.45,-149.97 1049.51,-106.67 1027.18,-83.05"/>
<polygon fill="midnightblue" stroke="midnightblue" points="1029.54,-80.45 1020.12,-75.59 1024.45,-85.26 1029.54,-80.45"/>
</g>
<!-- Node28&#45;&gt;Node13 -->
<g id="edge42" class="edge">
<title>Node28&#45;&gt;Node13</title>
<path fill="none" stroke="midnightblue" d="M1113.33,-168.37C1107.82,-150.54 1095.07,-109.3 1087.65,-85.27"/>
<polygon fill="midnightblue" stroke="midnightblue" points="1090.95,-84.11 1084.66,-75.59 1084.26,-86.18 1090.95,-84.11"/>
</g>
<!-- Node28&#45;&gt;Node24 -->
<g id="edge44" class="edge">
<title>Node28&#45;&gt;Node24</title>
<path fill="none" stroke="midnightblue" d="M1129.34,-168.32C1142.16,-159.98 1161.78,-147.21 1176.94,-137.35"/>
<polygon fill="midnightblue" stroke="midnightblue" points="1179.22,-140.04 1185.7,-131.65 1175.41,-134.17 1179.22,-140.04"/>
</g>
<!-- Node28&#45;&gt;Node27 -->
<g id="edge45" class="edge">
<title>Node28&#45;&gt;Node27</title>
<path fill="none" stroke="midnightblue" d="M1163.18,-172.07C1194.45,-166.69 1234.77,-155.44 1263,-132 1277.52,-119.94 1286.63,-100.06 1291.72,-85.45"/>
<polygon fill="midnightblue" stroke="midnightblue" points="1295.18,-86.12 1294.85,-75.53 1288.5,-84.01 1295.18,-86.12"/>
</g>
</g>
</svg>
