<?xml version="1.0" encoding="UTF-8" standalone="no"?>
<!DOCTYPE svg PUBLIC "-//W3C//DTD SVG 1.1//EN"
 "http://www.w3.org/Graphics/SVG/1.1/DTD/svg11.dtd">
<!-- Generated by graphviz version 2.43.0 (0)
 -->
<!-- Title: src/labs/inlab4/Parser.h Pages: 1 -->
<!--zoomable 431 -->
<svg id="main" version="1.1" xmlns="http://www.w3.org/2000/svg" xmlns:xlink="http://www.w3.org/1999/xlink" xml:space="preserve" onload="init(evt)">
<style type="text/css"><![CDATA[
.edge:hover path { stroke: red; }
.edge:hover polygon { stroke: red; fill: red; }
]]></style>
<script type="text/javascript"><![CDATA[
var edges = document.getElementsByTagName('g');
if (edges && edges.length) {
  for (var i=0;i<edges.length;i++) {
    if (edges[i].id.substr(0,4)=='edge') {
      edges[i].setAttribute('class','edge');
    }
  }
}
]]></script>
        <defs>
                <circle id="rim" cx="0" cy="0" r="7"/>
                <circle id="rim2" cx="0" cy="0" r="3.5"/>
                <g id="zoomPlus">
                        <use xlink:href="#rim" fill="#404040">
                                <set attributeName="fill" to="#808080" begin="zoomplus.mouseover" end="zoomplus.mouseout"/>
                        </use>
                        <path d="M-4,0h8M0,-4v8" fill="none" stroke="white" stroke-width="1.5" pointer-events="none"/>
                </g>
                <g id="zoomMin">
                        <use xlink:href="#rim" fill="#404040">
                                <set attributeName="fill" to="#808080" begin="zoomminus.mouseover" end="zoomminus.mouseout"/>
                        </use>
                        <path d="M-4,0h8" fill="none" stroke="white" stroke-width="1.5" pointer-events="none"/>
                </g>
                <g id="dirArrow">
                        <path fill="none" stroke="white" stroke-width="1.5" d="M0,-3.0v7 M-2.5,-0.5L0,-3.0L2.5,-0.5"/>
                </g>
               <g id="resetDef">
                       <use xlink:href="#rim2" fill="#404040">
                               <set attributeName="fill" to="#808080" begin="reset.mouseover" end="reset.mouseout"/>
                       </use>
               </g>
        </defs>

<script type="text/javascript">
var viewWidth = 2151;
var viewHeight = 431;
var sectionId = 'dynsection-0';
</script>
<script xlink:href="../../svgpan.js"/>
<svg id="graph" class="graph">
<g id="viewport">
<title>src/labs/inlab4/Parser.h</title>
<polygon fill="white" stroke="transparent" points="-4,4 -4,-427 2146.5,-427 2146.5,4 -4,4"/>
<!-- Node1 -->
<g id="node1" class="node">
<title>Node1</title>
<g id="a_node1"><a xlink:title="This file contains the Parser class which is responsible for parsing command line arguments and valid...">
<polygon fill="#bfbfbf" stroke="black" points="1080.5,-403.5 1080.5,-422.5 1208.5,-422.5 1208.5,-403.5 1080.5,-403.5"/>
<text text-anchor="middle" x="1144.5" y="-410.5" font-family="Helvetica,sans-Serif" font-size="10.00">src/labs/inlab4/Parser.h</text>
</a>
</g>
</g>
<!-- Node2 -->
<g id="node2" class="node">
<title>Node2</title>
<g id="a_node2"><a xlink:href="../../d9/d41/CommandLine_8h.html" target="_top" xlink:title="This file contains the definition of the CommandLine class and the HeaderInfo struct.">
<polygon fill="white" stroke="black" points="694.5,-347.5 694.5,-366.5 790.5,-366.5 790.5,-347.5 694.5,-347.5"/>
<text text-anchor="middle" x="742.5" y="-354.5" font-family="Helvetica,sans-Serif" font-size="10.00">CommandLine.h</text>
</a>
</g>
</g>
<!-- Node1&#45;&gt;Node2 -->
<g id="edge1" class="edge">
<title>Node1&#45;&gt;Node2</title>
<path fill="none" stroke="midnightblue" d="M1080.8,-403.44C1003.84,-393.1 875.42,-375.85 800.9,-365.85"/>
<polygon fill="midnightblue" stroke="midnightblue" points="801.14,-362.35 790.76,-364.48 800.2,-369.28 801.14,-362.35"/>
</g>
<!-- Node9 -->
<g id="node9" class="node">
<title>Node9</title>
<g id="a_node9"><a xlink:href="../../db/df1/Helpers_8h.html" target="_top" xlink:title="This file contains helper functions and structures used throughout the program.">
<polygon fill="white" stroke="black" points="313,-179.5 313,-198.5 376,-198.5 376,-179.5 313,-179.5"/>
<text text-anchor="middle" x="344.5" y="-186.5" font-family="Helvetica,sans-Serif" font-size="10.00">Helpers.h</text>
</a>
</g>
</g>
<!-- Node1&#45;&gt;Node9 -->
<g id="edge69" class="edge">
<title>Node1&#45;&gt;Node9</title>
<path fill="none" stroke="midnightblue" d="M1080.45,-411.74C916.08,-409.82 484.66,-396.56 375.5,-311 344.59,-286.77 341.9,-236.26 342.97,-208.78"/>
<polygon fill="midnightblue" stroke="midnightblue" points="346.48,-208.75 343.59,-198.56 339.49,-208.33 346.48,-208.75"/>
</g>
<!-- Node33 -->
<g id="node33" class="node">
<title>Node33</title>
<g id="a_node33"><a xlink:href="../../d7/de4/FileParser_8h.html" target="_top" xlink:title="This file contains the definitions for functions that handle file parsing operations.">
<polygon fill="white" stroke="black" points="1653.5,-235.5 1653.5,-254.5 1725.5,-254.5 1725.5,-235.5 1653.5,-235.5"/>
<text text-anchor="middle" x="1689.5" y="-242.5" font-family="Helvetica,sans-Serif" font-size="10.00">FileParser.h</text>
</a>
</g>
</g>
<!-- Node1&#45;&gt;Node33 -->
<g id="edge57" class="edge">
<title>Node1&#45;&gt;Node33</title>
<path fill="none" stroke="midnightblue" d="M1208.64,-408.81C1303.73,-403.37 1477.03,-390.55 1534.5,-367 1593.76,-342.72 1649.4,-289.05 1674.91,-262.1"/>
<polygon fill="midnightblue" stroke="midnightblue" points="1677.58,-264.36 1681.82,-254.66 1672.45,-259.6 1677.58,-264.36"/>
</g>
<!-- Node39 -->
<g id="node39" class="node">
<title>Node39</title>
<g id="a_node39"><a xlink:href="../../d7/db1/labs_2inlab4_2InputsOutputs_8h.html" target="_top" xlink:title="This file contains the input and output definitions for this project.">
<polygon fill="white" stroke="black" points="1192.5,-179.5 1192.5,-198.5 1286.5,-198.5 1286.5,-179.5 1192.5,-179.5"/>
<text text-anchor="middle" x="1239.5" y="-186.5" font-family="Helvetica,sans-Serif" font-size="10.00">InputsOutputs.h</text>
</a>
</g>
</g>
<!-- Node1&#45;&gt;Node39 -->
<g id="edge70" class="edge">
<title>Node1&#45;&gt;Node39</title>
<path fill="none" stroke="midnightblue" d="M1148.22,-403.3C1162.29,-370.42 1212.37,-253.39 1231.76,-208.09"/>
<polygon fill="midnightblue" stroke="midnightblue" points="1234.98,-209.45 1235.7,-198.88 1228.55,-206.7 1234.98,-209.45"/>
</g>
<!-- Node3 -->
<g id="node3" class="node">
<title>Node3</title>
<g id="a_node3"><a xlink:href="../../d2/d0e/CommandlineHelpers_8h.html" target="_top" xlink:title="This file contains helper functions for handling command line options and initializing the profiler.">
<polygon fill="white" stroke="black" points="677,-291.5 677,-310.5 808,-310.5 808,-291.5 677,-291.5"/>
<text text-anchor="middle" x="742.5" y="-298.5" font-family="Helvetica,sans-Serif" font-size="10.00">CommandlineHelpers.h</text>
</a>
</g>
</g>
<!-- Node2&#45;&gt;Node3 -->
<g id="edge2" class="edge">
<title>Node2&#45;&gt;Node3</title>
<path fill="none" stroke="midnightblue" d="M742.5,-347.08C742.5,-340.01 742.5,-329.86 742.5,-320.99"/>
<polygon fill="midnightblue" stroke="midnightblue" points="746,-320.75 742.5,-310.75 739,-320.75 746,-320.75"/>
</g>
<!-- Node5 -->
<g id="node5" class="node">
<title>Node5</title>
<g id="a_node5"><a xlink:title=" ">
<polygon fill="white" stroke="#bfbfbf" points="400.5,-118 400.5,-137 550.5,-137 550.5,-118 400.5,-118"/>
<text text-anchor="middle" x="475.5" y="-125" font-family="Helvetica,sans-Serif" font-size="10.00">boost/program_options.hpp</text>
</a>
</g>
</g>
<!-- Node2&#45;&gt;Node5 -->
<g id="edge54" class="edge">
<title>Node2&#45;&gt;Node5</title>
<path fill="none" stroke="midnightblue" d="M694.37,-352.33C653.02,-347.51 592.89,-336.41 546.5,-311 494.17,-282.34 481.26,-258.01 472.5,-199 469.92,-181.6 471.18,-161.53 472.78,-147.27"/>
<polygon fill="midnightblue" stroke="midnightblue" points="476.27,-147.6 474.07,-137.24 469.32,-146.71 476.27,-147.6"/>
</g>
<!-- Node6 -->
<g id="node6" class="node">
<title>Node6</title>
<g id="a_node6"><a xlink:title=" ">
<polygon fill="white" stroke="#bfbfbf" points="1322.5,-0.5 1322.5,-19.5 1382.5,-19.5 1382.5,-0.5 1322.5,-0.5"/>
<text text-anchor="middle" x="1352.5" y="-7.5" font-family="Helvetica,sans-Serif" font-size="10.00">iostream</text>
</a>
</g>
</g>
<!-- Node2&#45;&gt;Node6 -->
<g id="edge55" class="edge">
<title>Node2&#45;&gt;Node6</title>
<path fill="none" stroke="midnightblue" d="M790.59,-356.7C932.4,-357.64 1344.03,-351.81 1425.5,-255 1484.1,-185.37 1401.29,-69.98 1366.57,-27.42"/>
<polygon fill="midnightblue" stroke="midnightblue" points="1369.23,-25.15 1360.14,-19.7 1363.85,-29.63 1369.23,-25.15"/>
</g>
<!-- Node2&#45;&gt;Node9 -->
<g id="edge20" class="edge">
<title>Node2&#45;&gt;Node9</title>
<path fill="none" stroke="midnightblue" d="M694.18,-355.37C610.77,-353.38 444.26,-345.11 398.5,-311 365.26,-286.22 352.05,-236.35 347.15,-209"/>
<polygon fill="midnightblue" stroke="midnightblue" points="350.56,-208.13 345.53,-198.8 343.65,-209.23 350.56,-208.13"/>
</g>
<!-- Node13 -->
<g id="node13" class="node">
<title>Node13</title>
<g id="a_node13"><a xlink:href="../../df/d69/Profiler_8h.html" target="_top" xlink:title="This file contains the Profiler class which is used to profile the execution time of a function.">
<polygon fill="white" stroke="black" points="1034,-291.5 1034,-310.5 1093,-310.5 1093,-291.5 1034,-291.5"/>
<text text-anchor="middle" x="1063.5" y="-298.5" font-family="Helvetica,sans-Serif" font-size="10.00">Profiler.h</text>
</a>
</g>
</g>
<!-- Node2&#45;&gt;Node13 -->
<g id="edge21" class="edge">
<title>Node2&#45;&gt;Node13</title>
<path fill="none" stroke="midnightblue" d="M790.56,-347.92C854.08,-337.23 964.82,-318.6 1023.83,-308.67"/>
<polygon fill="midnightblue" stroke="midnightblue" points="1024.6,-312.09 1033.88,-306.98 1023.44,-305.19 1024.6,-312.09"/>
</g>
<!-- Node31 -->
<g id="node31" class="node">
<title>Node31</title>
<g id="a_node31"><a xlink:title=" ">
<polygon fill="white" stroke="#bfbfbf" points="566.5,-291.5 566.5,-310.5 658.5,-310.5 658.5,-291.5 566.5,-291.5"/>
<text text-anchor="middle" x="612.5" y="-298.5" font-family="Helvetica,sans-Serif" font-size="10.00">project&#45;config.h</text>
</a>
</g>
</g>
<!-- Node2&#45;&gt;Node31 -->
<g id="edge53" class="edge">
<title>Node2&#45;&gt;Node31</title>
<path fill="none" stroke="midnightblue" d="M721.9,-347.44C700.51,-338.56 666.82,-324.56 642.48,-314.45"/>
<polygon fill="midnightblue" stroke="midnightblue" points="643.58,-311.12 633,-310.52 640.89,-317.58 643.58,-311.12"/>
</g>
<!-- Node32 -->
<g id="node32" class="node">
<title>Node32</title>
<g id="a_node32"><a xlink:title=" ">
<polygon fill="white" stroke="#bfbfbf" points="1598.5,-179.5 1598.5,-198.5 1642.5,-198.5 1642.5,-179.5 1598.5,-179.5"/>
<text text-anchor="middle" x="1620.5" y="-186.5" font-family="Helvetica,sans-Serif" font-size="10.00">string</text>
</a>
</g>
</g>
<!-- Node2&#45;&gt;Node32 -->
<g id="edge56" class="edge">
<title>Node2&#45;&gt;Node32</title>
<path fill="none" stroke="midnightblue" d="M790.65,-356.53C930.66,-357.5 1335.45,-356.21 1458.5,-311 1520.61,-288.18 1579.09,-233.36 1605.61,-206.04"/>
<polygon fill="midnightblue" stroke="midnightblue" points="1608.42,-208.17 1612.78,-198.51 1603.35,-203.34 1608.42,-208.17"/>
</g>
<!-- Node4 -->
<g id="node4" class="node">
<title>Node4</title>
<g id="a_node4"><a xlink:href="../../d0/d7d/CheckBounds_8h.html" target="_top" xlink:title="This file contains the declaration of functions for checking the validity of input parameters.">
<polygon fill="white" stroke="black" points="518.5,-235.5 518.5,-254.5 610.5,-254.5 610.5,-235.5 518.5,-235.5"/>
<text text-anchor="middle" x="564.5" y="-242.5" font-family="Helvetica,sans-Serif" font-size="10.00">CheckBounds.h</text>
</a>
</g>
</g>
<!-- Node3&#45;&gt;Node4 -->
<g id="edge3" class="edge">
<title>Node3&#45;&gt;Node4</title>
<path fill="none" stroke="midnightblue" d="M714.3,-291.44C684.09,-282.28 635.99,-267.69 602.47,-257.52"/>
<polygon fill="midnightblue" stroke="midnightblue" points="603.16,-254.07 592.57,-254.52 601.13,-260.77 603.16,-254.07"/>
</g>
<!-- Node3&#45;&gt;Node5 -->
<g id="edge19" class="edge">
<title>Node3&#45;&gt;Node5</title>
<path fill="none" stroke="midnightblue" d="M680.41,-291.46C615.7,-282.02 521.98,-266.61 509.5,-255 479.35,-226.94 474.84,-175.26 474.79,-147.43"/>
<polygon fill="midnightblue" stroke="midnightblue" points="478.29,-147.17 474.97,-137.1 471.29,-147.04 478.29,-147.17"/>
</g>
<!-- Node10 -->
<g id="node10" class="node">
<title>Node10</title>
<g id="a_node10"><a xlink:title=" ">
<polygon fill="white" stroke="#bfbfbf" points="706.5,-118 706.5,-137 764.5,-137 764.5,-118 706.5,-118"/>
<text text-anchor="middle" x="735.5" y="-125" font-family="Helvetica,sans-Serif" font-size="10.00">json.hpp</text>
</a>
</g>
</g>
<!-- Node3&#45;&gt;Node10 -->
<g id="edge18" class="edge">
<title>Node3&#45;&gt;Node10</title>
<path fill="none" stroke="midnightblue" d="M742.1,-291.37C741.69,-282.32 741.03,-267.66 740.5,-255 738.89,-216.71 737.15,-171.89 736.21,-147.2"/>
<polygon fill="midnightblue" stroke="midnightblue" points="739.7,-146.95 735.82,-137.09 732.71,-147.22 739.7,-146.95"/>
</g>
<!-- Node4&#45;&gt;Node2 -->
<g id="edge8" class="edge">
<title>Node4&#45;&gt;Node2</title>
<path fill="none" stroke="midnightblue" d="M560.09,-254.64C553.86,-268.18 544.6,-294.58 557.5,-311 573.14,-330.9 636.24,-343.09 684.45,-349.68"/>
<polygon fill="midnightblue" stroke="midnightblue" points="684.11,-353.16 694.48,-351 685.03,-346.22 684.11,-353.16"/>
</g>
<!-- Node4&#45;&gt;Node5 -->
<g id="edge4" class="edge">
<title>Node4&#45;&gt;Node5</title>
<path fill="none" stroke="midnightblue" d="M557.81,-235.32C543.12,-216.26 507.82,-170.45 488.57,-145.46"/>
<polygon fill="midnightblue" stroke="midnightblue" points="491.14,-143.07 482.27,-137.28 485.6,-147.34 491.14,-143.07"/>
</g>
<!-- Node4&#45;&gt;Node6 -->
<g id="edge5" class="edge">
<title>Node4&#45;&gt;Node6</title>
<path fill="none" stroke="midnightblue" d="M571.05,-235.38C588.94,-212.38 641.08,-148.76 697.5,-112 754.69,-74.74 774.05,-71.59 840.5,-56 1012.5,-15.64 1224.7,-10.79 1312.04,-10.67"/>
<polygon fill="midnightblue" stroke="midnightblue" points="1312.3,-14.17 1322.31,-10.67 1312.31,-7.17 1312.3,-14.17"/>
</g>
<!-- Node7 -->
<g id="node7" class="node">
<title>Node7</title>
<g id="a_node7"><a xlink:title=" ">
<polygon fill="white" stroke="#bfbfbf" points="607.5,-0.5 607.5,-19.5 663.5,-19.5 663.5,-0.5 607.5,-0.5"/>
<text text-anchor="middle" x="635.5" y="-7.5" font-family="Helvetica,sans-Serif" font-size="10.00">iomanip</text>
</a>
</g>
</g>
<!-- Node4&#45;&gt;Node7 -->
<g id="edge6" class="edge">
<title>Node4&#45;&gt;Node7</title>
<path fill="none" stroke="midnightblue" d="M564.93,-235.36C566.56,-207.94 573.83,-120.87 602.5,-56 607.04,-45.72 614.25,-35.51 620.77,-27.43"/>
<polygon fill="midnightblue" stroke="midnightblue" points="623.62,-29.47 627.41,-19.58 618.28,-24.95 623.62,-29.47"/>
</g>
<!-- Node8 -->
<g id="node8" class="node">
<title>Node8</title>
<g id="a_node8"><a xlink:title=" ">
<polygon fill="white" stroke="#bfbfbf" points="338.5,-118 338.5,-137 382.5,-137 382.5,-118 338.5,-118"/>
<text text-anchor="middle" x="360.5" y="-125" font-family="Helvetica,sans-Serif" font-size="10.00">limits</text>
</a>
</g>
</g>
<!-- Node4&#45;&gt;Node8 -->
<g id="edge7" class="edge">
<title>Node4&#45;&gt;Node8</title>
<path fill="none" stroke="midnightblue" d="M549.17,-235.32C513.93,-215.37 426.97,-166.14 384.55,-142.12"/>
<polygon fill="midnightblue" stroke="midnightblue" points="386.16,-139.01 375.73,-137.12 382.71,-145.1 386.16,-139.01"/>
</g>
<!-- Node4&#45;&gt;Node9 -->
<g id="edge9" class="edge">
<title>Node4&#45;&gt;Node9</title>
<path fill="none" stroke="midnightblue" d="M529.64,-235.44C490.69,-225.88 427.66,-210.41 386.14,-200.22"/>
<polygon fill="midnightblue" stroke="midnightblue" points="386.89,-196.8 376.34,-197.82 385.22,-203.6 386.89,-196.8"/>
</g>
<!-- Node4&#45;&gt;Node10 -->
<g id="edge17" class="edge">
<title>Node4&#45;&gt;Node10</title>
<path fill="none" stroke="midnightblue" d="M577.35,-235.32C606.57,-215.59 678.21,-167.2 714.17,-142.91"/>
<polygon fill="midnightblue" stroke="midnightblue" points="716.17,-145.78 722.5,-137.28 712.25,-139.98 716.17,-145.78"/>
</g>
<!-- Node9&#45;&gt;Node5 -->
<g id="edge14" class="edge">
<title>Node9&#45;&gt;Node5</title>
<path fill="none" stroke="midnightblue" d="M363.27,-179.48C385.35,-169.45 422.22,-152.7 447.64,-141.15"/>
<polygon fill="midnightblue" stroke="midnightblue" points="449.11,-144.33 456.77,-137.01 446.21,-137.96 449.11,-144.33"/>
</g>
<!-- Node9&#45;&gt;Node6 -->
<g id="edge11" class="edge">
<title>Node9&#45;&gt;Node6</title>
<path fill="none" stroke="midnightblue" d="M338.8,-179.4C329.43,-164.07 313.35,-131.8 329.5,-112 407.79,-16.02 479.7,-72.19 602.5,-56 871.85,-20.48 1199.37,-12.97 1312.11,-11.4"/>
<polygon fill="midnightblue" stroke="midnightblue" points="1312.39,-14.9 1322.34,-11.27 1312.3,-7.9 1312.39,-14.9"/>
</g>
<!-- Node9&#45;&gt;Node7 -->
<g id="edge10" class="edge">
<title>Node9&#45;&gt;Node7</title>
<path fill="none" stroke="midnightblue" d="M330.13,-179.33C318.62,-171.47 303.31,-158.72 296.5,-143 281.13,-107.52 271.02,-85.08 296.5,-56 316.1,-33.62 512.81,-18.7 597.28,-13.28"/>
<polygon fill="midnightblue" stroke="midnightblue" points="597.72,-16.76 607.48,-12.63 597.28,-9.77 597.72,-16.76"/>
</g>
<!-- Node9&#45;&gt;Node8 -->
<g id="edge12" class="edge">
<title>Node9&#45;&gt;Node8</title>
<path fill="none" stroke="midnightblue" d="M346.79,-179.48C349.07,-170.99 352.65,-157.7 355.57,-146.82"/>
<polygon fill="midnightblue" stroke="midnightblue" points="358.99,-147.57 358.21,-137.01 352.24,-145.76 358.99,-147.57"/>
</g>
<!-- Node9&#45;&gt;Node10 -->
<g id="edge13" class="edge">
<title>Node9&#45;&gt;Node10</title>
<path fill="none" stroke="midnightblue" d="M376.17,-183.18C447.1,-172.39 618.58,-146.29 696.18,-134.48"/>
<polygon fill="midnightblue" stroke="midnightblue" points="697.13,-137.88 706.49,-132.91 696.08,-130.96 697.13,-137.88"/>
</g>
<!-- Node11 -->
<g id="node11" class="node">
<title>Node11</title>
<g id="a_node11"><a xlink:title=" ">
<polygon fill="white" stroke="#bfbfbf" points="0,-112.5 0,-142.5 113,-142.5 113,-112.5 0,-112.5"/>
<text text-anchor="start" x="8" y="-130.5" font-family="Helvetica,sans-Serif" font-size="10.00">boost/accumulators</text>
<text text-anchor="middle" x="56.5" y="-119.5" font-family="Helvetica,sans-Serif" font-size="10.00">/accumulators.hpp</text>
</a>
</g>
</g>
<!-- Node9&#45;&gt;Node11 -->
<g id="edge15" class="edge">
<title>Node9&#45;&gt;Node11</title>
<path fill="none" stroke="midnightblue" d="M312.7,-181.79C271.26,-173.66 196.29,-158.79 123.06,-143.31"/>
<polygon fill="midnightblue" stroke="midnightblue" points="123.71,-139.87 113.21,-141.22 122.26,-146.72 123.71,-139.87"/>
</g>
<!-- Node12 -->
<g id="node12" class="node">
<title>Node12</title>
<g id="a_node12"><a xlink:title=" ">
<polygon fill="white" stroke="#bfbfbf" points="131,-112.5 131,-142.5 244,-142.5 244,-112.5 131,-112.5"/>
<text text-anchor="start" x="139" y="-130.5" font-family="Helvetica,sans-Serif" font-size="10.00">boost/accumulators</text>
<text text-anchor="middle" x="187.5" y="-119.5" font-family="Helvetica,sans-Serif" font-size="10.00">/statistics.hpp</text>
</a>
</g>
</g>
<!-- Node9&#45;&gt;Node12 -->
<g id="edge16" class="edge">
<title>Node9&#45;&gt;Node12</title>
<path fill="none" stroke="midnightblue" d="M322.01,-179.48C299.15,-170.81 263.09,-157.15 234.05,-146.14"/>
<polygon fill="midnightblue" stroke="midnightblue" points="235.09,-142.79 224.5,-142.52 232.61,-149.34 235.09,-142.79"/>
</g>
<!-- Node13&#45;&gt;Node4 -->
<g id="edge28" class="edge">
<title>Node13&#45;&gt;Node4</title>
<path fill="none" stroke="midnightblue" d="M1033.78,-296.78C952.76,-288.02 727.03,-263.59 620.94,-252.11"/>
<polygon fill="midnightblue" stroke="midnightblue" points="621.07,-248.6 610.75,-251.01 620.32,-255.56 621.07,-248.6"/>
</g>
<!-- Node13&#45;&gt;Node6 -->
<g id="edge25" class="edge">
<title>Node13&#45;&gt;Node6</title>
<path fill="none" stroke="midnightblue" d="M1093.27,-293.01C1123.83,-285.38 1172.43,-271.95 1212.5,-255 1229.36,-247.87 1232.08,-243.1 1248.5,-235 1284.56,-217.22 1300.23,-224.28 1331.5,-199 1355.28,-179.77 1362.17,-172.13 1371.5,-143 1384.11,-103.64 1369.9,-55 1360.14,-29.15"/>
<polygon fill="midnightblue" stroke="midnightblue" points="1363.27,-27.55 1356.32,-19.56 1356.77,-30.14 1363.27,-27.55"/>
</g>
<!-- Node13&#45;&gt;Node7 -->
<g id="edge24" class="edge">
<title>Node13&#45;&gt;Node7</title>
<path fill="none" stroke="midnightblue" d="M1033.93,-297.95C943.78,-290.89 678.5,-263.86 678.5,-190 678.5,-190 678.5,-190 678.5,-126.5 678.5,-89.76 659.16,-50.35 646.42,-28.37"/>
<polygon fill="midnightblue" stroke="midnightblue" points="649.28,-26.34 641.12,-19.58 643.28,-29.95 649.28,-26.34"/>
</g>
<!-- Node13&#45;&gt;Node10 -->
<g id="edge31" class="edge">
<title>Node13&#45;&gt;Node10</title>
<path fill="none" stroke="midnightblue" d="M1033.99,-296.87C977.81,-289.48 854.32,-266.2 778.5,-199 762.29,-184.63 750.23,-162.66 743.07,-147.07"/>
<polygon fill="midnightblue" stroke="midnightblue" points="746.1,-145.25 738.91,-137.46 739.68,-148.03 746.1,-145.25"/>
</g>
<!-- Node14 -->
<g id="node14" class="node">
<title>Node14</title>
<g id="a_node14"><a xlink:title=" ">
<polygon fill="white" stroke="#bfbfbf" points="1457,-179.5 1457,-198.5 1512,-198.5 1512,-179.5 1457,-179.5"/>
<text text-anchor="middle" x="1484.5" y="-186.5" font-family="Helvetica,sans-Serif" font-size="10.00">fstream</text>
</a>
</g>
</g>
<!-- Node13&#45;&gt;Node14 -->
<g id="edge22" class="edge">
<title>Node13&#45;&gt;Node14</title>
<path fill="none" stroke="midnightblue" d="M1093.05,-293.1C1129.62,-284.5 1193.79,-269.19 1248.5,-255 1319.02,-236.72 1400.92,-213.77 1447.33,-200.61"/>
<polygon fill="midnightblue" stroke="midnightblue" points="1448.3,-203.97 1456.96,-197.88 1446.38,-197.24 1448.3,-203.97"/>
</g>
<!-- Node15 -->
<g id="node15" class="node">
<title>Node15</title>
<g id="a_node15"><a xlink:title=" ">
<polygon fill="white" stroke="#bfbfbf" points="1031,-235.5 1031,-254.5 1096,-254.5 1096,-235.5 1031,-235.5"/>
<text text-anchor="middle" x="1063.5" y="-242.5" font-family="Helvetica,sans-Serif" font-size="10.00">functional</text>
</a>
</g>
</g>
<!-- Node13&#45;&gt;Node15 -->
<g id="edge23" class="edge">
<title>Node13&#45;&gt;Node15</title>
<path fill="none" stroke="midnightblue" d="M1063.5,-291.08C1063.5,-284.01 1063.5,-273.86 1063.5,-264.99"/>
<polygon fill="midnightblue" stroke="midnightblue" points="1067,-264.75 1063.5,-254.75 1060,-264.75 1067,-264.75"/>
</g>
<!-- Node16 -->
<g id="node16" class="node">
<title>Node16</title>
<g id="a_node16"><a xlink:title=" ">
<polygon fill="white" stroke="#bfbfbf" points="1114.5,-235.5 1114.5,-254.5 1168.5,-254.5 1168.5,-235.5 1114.5,-235.5"/>
<text text-anchor="middle" x="1141.5" y="-242.5" font-family="Helvetica,sans-Serif" font-size="10.00">random</text>
</a>
</g>
</g>
<!-- Node13&#45;&gt;Node16 -->
<g id="edge26" class="edge">
<title>Node13&#45;&gt;Node16</title>
<path fill="none" stroke="midnightblue" d="M1076.03,-291.32C1088.09,-282.98 1106.53,-270.21 1120.77,-260.35"/>
<polygon fill="midnightblue" stroke="midnightblue" points="1122.77,-263.22 1129,-254.65 1118.78,-257.47 1122.77,-263.22"/>
</g>
<!-- Node17 -->
<g id="node17" class="node">
<title>Node17</title>
<g id="a_node17"><a xlink:title=" ">
<polygon fill="white" stroke="#bfbfbf" points="1317,-118 1317,-137 1362,-137 1362,-118 1317,-118"/>
<text text-anchor="middle" x="1339.5" y="-125" font-family="Helvetica,sans-Serif" font-size="10.00">utility</text>
</a>
</g>
</g>
<!-- Node13&#45;&gt;Node17 -->
<g id="edge27" class="edge">
<title>Node13&#45;&gt;Node17</title>
<path fill="none" stroke="midnightblue" d="M1086.37,-291.43C1109.51,-282.65 1146.22,-268.43 1177.5,-255 1196.87,-246.68 1201.14,-243.32 1220.5,-235 1260.46,-217.82 1280.72,-229.73 1311.5,-199 1325.6,-184.92 1332.81,-162.86 1336.35,-147.17"/>
<polygon fill="midnightblue" stroke="midnightblue" points="1339.84,-147.56 1338.33,-137.08 1332.97,-146.22 1339.84,-147.56"/>
</g>
<!-- Node18 -->
<g id="node18" class="node">
<title>Node18</title>
<g id="a_node18"><a xlink:href="../../d4/d2e/Stopwatch_8h.html" target="_top" xlink:title="This file contains the Stopwatch class which is a utility for measuring time durations in various uni...">
<polygon fill="white" stroke="black" points="1339,-235.5 1339,-254.5 1416,-254.5 1416,-235.5 1339,-235.5"/>
<text text-anchor="middle" x="1377.5" y="-242.5" font-family="Helvetica,sans-Serif" font-size="10.00">Stopwatch.h</text>
</a>
</g>
</g>
<!-- Node13&#45;&gt;Node18 -->
<g id="edge29" class="edge">
<title>Node13&#45;&gt;Node18</title>
<path fill="none" stroke="midnightblue" d="M1093.04,-294.92C1147.17,-285.61 1262.73,-265.74 1328.69,-254.39"/>
<polygon fill="midnightblue" stroke="midnightblue" points="1329.57,-257.79 1338.83,-252.65 1328.38,-250.9 1329.57,-257.79"/>
</g>
<!-- Node20 -->
<g id="node20" class="node">
<title>Node20</title>
<g id="a_node20"><a xlink:href="../../dc/d09/Stats_8h.html" target="_top" xlink:title="This file contains the declaration of statistical functions and structures for vectors and matrices.">
<polygon fill="white" stroke="black" points="910.5,-235.5 910.5,-254.5 1012.5,-254.5 1012.5,-235.5 910.5,-235.5"/>
<text text-anchor="middle" x="961.5" y="-242.5" font-family="Helvetica,sans-Serif" font-size="10.00">math/blas/Stats.h</text>
</a>
</g>
</g>
<!-- Node13&#45;&gt;Node20 -->
<g id="edge32" class="edge">
<title>Node13&#45;&gt;Node20</title>
<path fill="none" stroke="midnightblue" d="M1047.11,-291.32C1030.83,-282.7 1005.63,-269.36 986.78,-259.39"/>
<polygon fill="midnightblue" stroke="midnightblue" points="988.32,-256.24 977.85,-254.65 985.05,-262.43 988.32,-256.24"/>
</g>
<!-- Node19 -->
<g id="node19" class="node">
<title>Node19</title>
<g id="a_node19"><a xlink:title=" ">
<polygon fill="white" stroke="#bfbfbf" points="1530.5,-179.5 1530.5,-198.5 1580.5,-198.5 1580.5,-179.5 1530.5,-179.5"/>
<text text-anchor="middle" x="1555.5" y="-186.5" font-family="Helvetica,sans-Serif" font-size="10.00">chrono</text>
</a>
</g>
</g>
<!-- Node18&#45;&gt;Node19 -->
<g id="edge30" class="edge">
<title>Node18&#45;&gt;Node19</title>
<path fill="none" stroke="midnightblue" d="M1405.7,-235.44C1436.8,-226.01 1486.86,-210.82 1520.45,-200.63"/>
<polygon fill="midnightblue" stroke="midnightblue" points="1521.75,-203.9 1530.31,-197.64 1519.72,-197.2 1521.75,-203.9"/>
</g>
<!-- Node21 -->
<g id="node21" class="node">
<title>Node21</title>
<g id="a_node21"><a xlink:title=" ">
<polygon fill="white" stroke="#bfbfbf" points="1008.5,-56.5 1008.5,-75.5 1072.5,-75.5 1072.5,-56.5 1008.5,-56.5"/>
<text text-anchor="middle" x="1040.5" y="-63.5" font-family="Helvetica,sans-Serif" font-size="10.00">algorithm</text>
</a>
</g>
</g>
<!-- Node20&#45;&gt;Node21 -->
<g id="edge33" class="edge">
<title>Node20&#45;&gt;Node21</title>
<path fill="none" stroke="midnightblue" d="M1009.22,-235.47C1060.85,-225.75 1137,-209.83 1145.5,-199 1179.55,-155.62 1106.68,-104.63 1065.77,-80.7"/>
<polygon fill="midnightblue" stroke="midnightblue" points="1067.28,-77.53 1056.86,-75.62 1063.81,-83.61 1067.28,-77.53"/>
</g>
<!-- Node22 -->
<g id="node22" class="node">
<title>Node22</title>
<g id="a_node22"><a xlink:title=" ">
<polygon fill="white" stroke="#bfbfbf" points="975,-118 975,-137 1022,-137 1022,-118 975,-118"/>
<text text-anchor="middle" x="998.5" y="-125" font-family="Helvetica,sans-Serif" font-size="10.00">cmath</text>
</a>
</g>
</g>
<!-- Node20&#45;&gt;Node22 -->
<g id="edge34" class="edge">
<title>Node20&#45;&gt;Node22</title>
<path fill="none" stroke="midnightblue" d="M972.21,-235.3C981.44,-227.07 994.09,-213.79 999.5,-199 1005.6,-182.31 1004.46,-161.87 1002.33,-147.31"/>
<polygon fill="midnightblue" stroke="midnightblue" points="1005.71,-146.31 1000.53,-137.07 998.82,-147.53 1005.71,-146.31"/>
</g>
<!-- Node23 -->
<g id="node23" class="node">
<title>Node23</title>
<g id="a_node23"><a xlink:title=" ">
<polygon fill="white" stroke="#bfbfbf" points="858.5,-179.5 858.5,-198.5 914.5,-198.5 914.5,-179.5 858.5,-179.5"/>
<text text-anchor="middle" x="886.5" y="-186.5" font-family="Helvetica,sans-Serif" font-size="10.00">numeric</text>
</a>
</g>
</g>
<!-- Node20&#45;&gt;Node23 -->
<g id="edge35" class="edge">
<title>Node20&#45;&gt;Node23</title>
<path fill="none" stroke="midnightblue" d="M949.45,-235.32C938.04,-227.11 920.67,-214.6 907.07,-204.81"/>
<polygon fill="midnightblue" stroke="midnightblue" points="908.93,-201.84 898.77,-198.83 904.84,-207.52 908.93,-201.84"/>
</g>
<!-- Node24 -->
<g id="node24" class="node">
<title>Node24</title>
<g id="a_node24"><a xlink:title=" ">
<polygon fill="white" stroke="#bfbfbf" points="933,-179.5 933,-198.5 990,-198.5 990,-179.5 933,-179.5"/>
<text text-anchor="middle" x="961.5" y="-186.5" font-family="Helvetica,sans-Serif" font-size="10.00">ostream</text>
</a>
</g>
</g>
<!-- Node20&#45;&gt;Node24 -->
<g id="edge36" class="edge">
<title>Node20&#45;&gt;Node24</title>
<path fill="none" stroke="midnightblue" d="M961.5,-235.08C961.5,-228.01 961.5,-217.86 961.5,-208.99"/>
<polygon fill="midnightblue" stroke="midnightblue" points="965,-208.75 961.5,-198.75 958,-208.75 965,-208.75"/>
</g>
<!-- Node25 -->
<g id="node25" class="node">
<title>Node25</title>
<g id="a_node25"><a xlink:title=" ">
<polygon fill="white" stroke="#bfbfbf" points="896,-0.5 896,-19.5 943,-19.5 943,-0.5 896,-0.5"/>
<text text-anchor="middle" x="919.5" y="-7.5" font-family="Helvetica,sans-Serif" font-size="10.00">vector</text>
</a>
</g>
</g>
<!-- Node20&#45;&gt;Node25 -->
<g id="edge37" class="edge">
<title>Node20&#45;&gt;Node25</title>
<path fill="none" stroke="midnightblue" d="M910.23,-239.12C883.88,-233.72 853.93,-222.44 837.5,-199 819.95,-173.97 736.77,-229.56 840.5,-56 850.59,-39.12 869.56,-28.02 886.38,-21.06"/>
<polygon fill="midnightblue" stroke="midnightblue" points="887.85,-24.25 895.96,-17.43 885.37,-17.7 887.85,-24.25"/>
</g>
<!-- Node26 -->
<g id="node26" class="node">
<title>Node26</title>
<g id="a_node26"><a xlink:href="../../d1/d80/BLAS_8h.html" target="_top" xlink:title=" ">
<polygon fill="white" stroke="black" points="1085,-179.5 1085,-198.5 1136,-198.5 1136,-179.5 1085,-179.5"/>
<text text-anchor="middle" x="1110.5" y="-186.5" font-family="Helvetica,sans-Serif" font-size="10.00">BLAS.h</text>
</a>
</g>
</g>
<!-- Node20&#45;&gt;Node26 -->
<g id="edge38" class="edge">
<title>Node20&#45;&gt;Node26</title>
<path fill="none" stroke="midnightblue" d="M985.11,-235.44C1009.96,-226.44 1049.27,-212.19 1077.25,-202.05"/>
<polygon fill="midnightblue" stroke="midnightblue" points="1078.79,-205.21 1087,-198.52 1076.41,-198.63 1078.79,-205.21"/>
</g>
<!-- Node27 -->
<g id="node27" class="node">
<title>Node27</title>
<g id="a_node27"><a xlink:href="../../d3/db1/Matrix_8h.html" target="_top" xlink:title="This file contains my BLAS::Matrix declarations.">
<polygon fill="white" stroke="black" points="1154.5,-118 1154.5,-137 1298.5,-137 1298.5,-118 1154.5,-118"/>
<text text-anchor="middle" x="1226.5" y="-125" font-family="Helvetica,sans-Serif" font-size="10.00">math/blas/matrix/Matrix.h</text>
</a>
</g>
</g>
<!-- Node20&#45;&gt;Node27 -->
<g id="edge51" class="edge">
<title>Node20&#45;&gt;Node27</title>
<path fill="none" stroke="midnightblue" d="M1012.75,-236.38C1016.05,-235.91 1019.32,-235.44 1022.5,-235 1083.1,-226.53 1255.16,-245.01 1295.5,-199 1313.78,-178.15 1281.34,-155.47 1255.02,-141.62"/>
<polygon fill="midnightblue" stroke="midnightblue" points="1256.56,-138.48 1246.06,-137.11 1253.41,-144.73 1256.56,-138.48"/>
</g>
<!-- Node29 -->
<g id="node29" class="node">
<title>Node29</title>
<g id="a_node29"><a xlink:href="../../d6/dbe/Vector_8h.html" target="_top" xlink:title="This file contains my BLAS::Vector implementation.">
<polygon fill="white" stroke="black" points="849,-56.5 849,-75.5 990,-75.5 990,-56.5 849,-56.5"/>
<text text-anchor="middle" x="919.5" y="-63.5" font-family="Helvetica,sans-Serif" font-size="10.00">math/blas/vector/Vector.h</text>
</a>
</g>
</g>
<!-- Node20&#45;&gt;Node29 -->
<g id="edge52" class="edge">
<title>Node20&#45;&gt;Node29</title>
<path fill="none" stroke="midnightblue" d="M910.44,-236.57C887.8,-230.46 863.23,-219.31 849.5,-199 822.53,-159.1 871.5,-107.64 900.45,-82.38"/>
<polygon fill="midnightblue" stroke="midnightblue" points="902.97,-84.83 908.34,-75.7 898.45,-79.49 902.97,-84.83"/>
</g>
<!-- Node26&#45;&gt;Node22 -->
<g id="edge39" class="edge">
<title>Node26&#45;&gt;Node22</title>
<path fill="none" stroke="midnightblue" d="M1094.45,-179.48C1075.91,-169.62 1045.16,-153.29 1023.48,-141.77"/>
<polygon fill="midnightblue" stroke="midnightblue" points="1024.99,-138.61 1014.52,-137.01 1021.71,-144.79 1024.99,-138.61"/>
</g>
<!-- Node26&#45;&gt;Node27 -->
<g id="edge40" class="edge">
<title>Node26&#45;&gt;Node27</title>
<path fill="none" stroke="midnightblue" d="M1127.12,-179.48C1146.42,-169.58 1178.46,-153.14 1200.93,-141.62"/>
<polygon fill="midnightblue" stroke="midnightblue" points="1202.61,-144.69 1209.91,-137.01 1199.42,-138.46 1202.61,-144.69"/>
</g>
<!-- Node26&#45;&gt;Node29 -->
<g id="edge50" class="edge">
<title>Node26&#45;&gt;Node29</title>
<path fill="none" stroke="midnightblue" d="M1103.51,-179.37C1090.67,-163.99 1061.86,-131.64 1031.5,-112 1009.12,-97.53 981.34,-86.33 959.04,-78.72"/>
<polygon fill="midnightblue" stroke="midnightblue" points="960.13,-75.4 949.54,-75.58 957.93,-82.04 960.13,-75.4"/>
</g>
<!-- Node27&#45;&gt;Node6 -->
<g id="edge43" class="edge">
<title>Node27&#45;&gt;Node6</title>
<path fill="none" stroke="midnightblue" d="M1262.01,-117.94C1285.43,-110.54 1315.08,-97.55 1333.5,-76 1344.59,-63.02 1349.21,-43.86 1351.14,-29.7"/>
<polygon fill="midnightblue" stroke="midnightblue" points="1354.63,-29.94 1352.17,-19.63 1347.67,-29.22 1354.63,-29.94"/>
</g>
<!-- Node27&#45;&gt;Node21 -->
<g id="edge41" class="edge">
<title>Node27&#45;&gt;Node21</title>
<path fill="none" stroke="midnightblue" d="M1199.85,-117.98C1167.53,-107.64 1112.9,-90.16 1076.77,-78.6"/>
<polygon fill="midnightblue" stroke="midnightblue" points="1077.69,-75.22 1067.1,-75.51 1075.56,-81.89 1077.69,-75.22"/>
</g>
<!-- Node27&#45;&gt;Node25 -->
<g id="edge44" class="edge">
<title>Node27&#45;&gt;Node25</title>
<path fill="none" stroke="midnightblue" d="M1207.83,-117.99C1186.38,-108.14 1150.2,-91.31 1119.5,-76 1102.42,-67.48 1099.24,-63.04 1081.5,-56 1038.41,-38.9 986.44,-25.7 953.19,-18.14"/>
<polygon fill="midnightblue" stroke="midnightblue" points="953.61,-14.65 943.08,-15.89 952.08,-21.48 953.61,-14.65"/>
</g>
<!-- Node28 -->
<g id="node28" class="node">
<title>Node28</title>
<g id="a_node28"><a xlink:title=" ">
<polygon fill="white" stroke="#bfbfbf" points="1128.5,-56.5 1128.5,-75.5 1180.5,-75.5 1180.5,-56.5 1128.5,-56.5"/>
<text text-anchor="middle" x="1154.5" y="-63.5" font-family="Helvetica,sans-Serif" font-size="10.00">cassert</text>
</a>
</g>
</g>
<!-- Node27&#45;&gt;Node28 -->
<g id="edge42" class="edge">
<title>Node27&#45;&gt;Node28</title>
<path fill="none" stroke="midnightblue" d="M1216.18,-117.98C1204.85,-108.61 1186.43,-93.38 1172.66,-82.01"/>
<polygon fill="midnightblue" stroke="midnightblue" points="1174.73,-79.18 1164.8,-75.51 1170.28,-84.58 1174.73,-79.18"/>
</g>
<!-- Node27&#45;&gt;Node29 -->
<g id="edge45" class="edge">
<title>Node27&#45;&gt;Node29</title>
<path fill="none" stroke="midnightblue" d="M1182.51,-117.98C1127.35,-107.28 1032.8,-88.96 973.35,-77.44"/>
<polygon fill="midnightblue" stroke="midnightblue" points="973.89,-73.98 963.4,-75.51 972.56,-80.85 973.89,-73.98"/>
</g>
<!-- Node30 -->
<g id="node30" class="node">
<title>Node30</title>
<g id="a_node30"><a xlink:href="../../d1/d45/Constants_8h.html" target="_top" xlink:title="MyBLAS Constants definition.">
<polygon fill="white" stroke="black" points="1198.5,-56.5 1198.5,-75.5 1324.5,-75.5 1324.5,-56.5 1198.5,-56.5"/>
<text text-anchor="middle" x="1261.5" y="-63.5" font-family="Helvetica,sans-Serif" font-size="10.00">math/blas/Constants.h</text>
</a>
</g>
</g>
<!-- Node27&#45;&gt;Node30 -->
<g id="edge49" class="edge">
<title>Node27&#45;&gt;Node30</title>
<path fill="none" stroke="midnightblue" d="M1231.51,-117.98C1236.66,-109.23 1244.81,-95.37 1251.32,-84.31"/>
<polygon fill="midnightblue" stroke="midnightblue" points="1254.44,-85.9 1256.49,-75.51 1248.41,-82.35 1254.44,-85.9"/>
</g>
<!-- Node29&#45;&gt;Node6 -->
<g id="edge47" class="edge">
<title>Node29&#45;&gt;Node6</title>
<path fill="none" stroke="midnightblue" d="M988.11,-56.44C1079.37,-45.06 1237.77,-25.31 1311.97,-16.05"/>
<polygon fill="midnightblue" stroke="midnightblue" points="1312.8,-19.48 1322.29,-14.77 1311.93,-12.53 1312.8,-19.48"/>
</g>
<!-- Node29&#45;&gt;Node7 -->
<g id="edge46" class="edge">
<title>Node29&#45;&gt;Node7</title>
<path fill="none" stroke="midnightblue" d="M874.5,-56.44C818.93,-45.88 725.38,-28.09 673.34,-18.19"/>
<polygon fill="midnightblue" stroke="midnightblue" points="673.98,-14.75 663.5,-16.32 672.67,-21.63 673.98,-14.75"/>
</g>
<!-- Node29&#45;&gt;Node25 -->
<g id="edge48" class="edge">
<title>Node29&#45;&gt;Node25</title>
<path fill="none" stroke="midnightblue" d="M919.5,-56.08C919.5,-49.01 919.5,-38.86 919.5,-29.99"/>
<polygon fill="midnightblue" stroke="midnightblue" points="923,-29.75 919.5,-19.75 916,-29.75 923,-29.75"/>
</g>
<!-- Node33&#45;&gt;Node6 -->
<g id="edge61" class="edge">
<title>Node33&#45;&gt;Node6</title>
<path fill="none" stroke="midnightblue" d="M1689.69,-235.48C1689.55,-222.08 1687.48,-195.9 1674.5,-179 1602.16,-84.83 1461.98,-38.29 1392.94,-20.27"/>
<polygon fill="midnightblue" stroke="midnightblue" points="1393.44,-16.79 1382.88,-17.72 1391.71,-23.57 1393.44,-16.79"/>
</g>
<!-- Node33&#45;&gt;Node10 -->
<g id="edge68" class="edge">
<title>Node33&#45;&gt;Node10</title>
<path fill="none" stroke="midnightblue" d="M1653.32,-242.21C1539.35,-236.42 1188.76,-217.54 1076.5,-199 1041.61,-193.24 1033.99,-186.77 999.5,-179 920.07,-161.11 826.28,-144.15 774.6,-135.16"/>
<polygon fill="midnightblue" stroke="midnightblue" points="774.99,-131.67 764.54,-133.42 773.79,-138.57 774.99,-131.67"/>
</g>
<!-- Node33&#45;&gt;Node14 -->
<g id="edge60" class="edge">
<title>Node33&#45;&gt;Node14</title>
<path fill="none" stroke="midnightblue" d="M1657.02,-235.44C1620.33,-225.78 1560.72,-210.08 1522.06,-199.89"/>
<polygon fill="midnightblue" stroke="midnightblue" points="1522.79,-196.47 1512.23,-197.3 1521.01,-203.24 1522.79,-196.47"/>
</g>
<!-- Node33&#45;&gt;Node19 -->
<g id="edge63" class="edge">
<title>Node33&#45;&gt;Node19</title>
<path fill="none" stroke="midnightblue" d="M1668.27,-235.44C1646.12,-226.52 1611.18,-212.44 1586.06,-202.32"/>
<polygon fill="midnightblue" stroke="midnightblue" points="1587.22,-199.01 1576.63,-198.52 1584.6,-205.5 1587.22,-199.01"/>
</g>
<!-- Node33&#45;&gt;Node27 -->
<g id="edge67" class="edge">
<title>Node33&#45;&gt;Node27</title>
<path fill="none" stroke="midnightblue" d="M1687.25,-235.5C1682.96,-221.13 1672.15,-192.33 1651.5,-179 1587.11,-137.44 1384.39,-153.68 1308.5,-143 1299.76,-141.77 1290.53,-140.3 1281.54,-138.78"/>
<polygon fill="midnightblue" stroke="midnightblue" points="1281.97,-135.3 1271.52,-137.05 1280.78,-142.2 1281.97,-135.3"/>
</g>
<!-- Node33&#45;&gt;Node32 -->
<g id="edge62" class="edge">
<title>Node33&#45;&gt;Node32</title>
<path fill="none" stroke="midnightblue" d="M1678.41,-235.32C1668.01,-227.18 1652.24,-214.84 1639.78,-205.09"/>
<polygon fill="midnightblue" stroke="midnightblue" points="1641.82,-202.24 1631.79,-198.83 1637.51,-207.75 1641.82,-202.24"/>
</g>
<!-- Node34 -->
<g id="node34" class="node">
<title>Node34</title>
<g id="a_node34"><a xlink:title=" ">
<polygon fill="white" stroke="#bfbfbf" points="1736.5,-179.5 1736.5,-198.5 1848.5,-198.5 1848.5,-179.5 1736.5,-179.5"/>
<text text-anchor="middle" x="1792.5" y="-186.5" font-family="Helvetica,sans-Serif" font-size="10.00">boost/tokenizer.hpp</text>
</a>
</g>
</g>
<!-- Node33&#45;&gt;Node34 -->
<g id="edge58" class="edge">
<title>Node33&#45;&gt;Node34</title>
<path fill="none" stroke="midnightblue" d="M1706.05,-235.32C1722.49,-226.7 1747.93,-213.36 1766.97,-203.39"/>
<polygon fill="midnightblue" stroke="midnightblue" points="1768.76,-206.4 1775.99,-198.65 1765.51,-200.2 1768.76,-206.4"/>
</g>
<!-- Node35 -->
<g id="node35" class="node">
<title>Node35</title>
<g id="a_node35"><a xlink:title=" ">
<polygon fill="white" stroke="#bfbfbf" points="1866.5,-179.5 1866.5,-198.5 1934.5,-198.5 1934.5,-179.5 1866.5,-179.5"/>
<text text-anchor="middle" x="1900.5" y="-186.5" font-family="Helvetica,sans-Serif" font-size="10.00">filesystem</text>
</a>
</g>
</g>
<!-- Node33&#45;&gt;Node35 -->
<g id="edge59" class="edge">
<title>Node33&#45;&gt;Node35</title>
<path fill="none" stroke="midnightblue" d="M1722.93,-235.44C1759.36,-226.12 1817.73,-211.18 1857.53,-201"/>
<polygon fill="midnightblue" stroke="midnightblue" points="1858.4,-204.39 1867.22,-198.52 1856.67,-197.61 1858.4,-204.39"/>
</g>
<!-- Node36 -->
<g id="node36" class="node">
<title>Node36</title>
<g id="a_node36"><a xlink:title=" ">
<polygon fill="white" stroke="#bfbfbf" points="1952.5,-179.5 1952.5,-198.5 2010.5,-198.5 2010.5,-179.5 1952.5,-179.5"/>
<text text-anchor="middle" x="1981.5" y="-186.5" font-family="Helvetica,sans-Serif" font-size="10.00">memory</text>
</a>
</g>
</g>
<!-- Node33&#45;&gt;Node36 -->
<g id="edge64" class="edge">
<title>Node33&#45;&gt;Node36</title>
<path fill="none" stroke="midnightblue" d="M1725.8,-238.24C1773.32,-230.55 1859.43,-216.12 1942.63,-199.09"/>
<polygon fill="midnightblue" stroke="midnightblue" points="1943.41,-202.5 1952.49,-197.05 1941.99,-195.64 1943.41,-202.5"/>
</g>
<!-- Node37 -->
<g id="node37" class="node">
<title>Node37</title>
<g id="a_node37"><a xlink:title=" ">
<polygon fill="white" stroke="#bfbfbf" points="2028.5,-179.5 2028.5,-198.5 2076.5,-198.5 2076.5,-179.5 2028.5,-179.5"/>
<text text-anchor="middle" x="2052.5" y="-186.5" font-family="Helvetica,sans-Serif" font-size="10.00">mutex</text>
</a>
</g>
</g>
<!-- Node33&#45;&gt;Node37 -->
<g id="edge65" class="edge">
<title>Node33&#45;&gt;Node37</title>
<path fill="none" stroke="midnightblue" d="M1725.9,-240.61C1785.19,-234.74 1906.45,-221.33 2018.33,-199"/>
<polygon fill="midnightblue" stroke="midnightblue" points="2019.33,-202.37 2028.44,-196.95 2017.94,-195.51 2019.33,-202.37"/>
</g>
<!-- Node38 -->
<g id="node38" class="node">
<title>Node38</title>
<g id="a_node38"><a xlink:title=" ">
<polygon fill="white" stroke="#bfbfbf" points="2094.5,-179.5 2094.5,-198.5 2142.5,-198.5 2142.5,-179.5 2094.5,-179.5"/>
<text text-anchor="middle" x="2118.5" y="-186.5" font-family="Helvetica,sans-Serif" font-size="10.00">thread</text>
</a>
</g>
</g>
<!-- Node33&#45;&gt;Node38 -->
<g id="edge66" class="edge">
<title>Node33&#45;&gt;Node38</title>
<path fill="none" stroke="midnightblue" d="M1725.54,-241.76C1793.83,-237.12 1946.79,-224.81 2084.56,-198.91"/>
<polygon fill="midnightblue" stroke="midnightblue" points="2085.28,-202.33 2094.45,-197.02 2083.97,-195.45 2085.28,-202.33"/>
</g>
<!-- Node39&#45;&gt;Node10 -->
<g id="edge72" class="edge">
<title>Node39&#45;&gt;Node10</title>
<path fill="none" stroke="midnightblue" d="M1192.08,-182.4C1093.1,-170.72 866.12,-143.92 774.71,-133.13"/>
<polygon fill="midnightblue" stroke="midnightblue" points="775.1,-129.65 764.76,-131.95 774.28,-136.6 775.1,-129.65"/>
</g>
<!-- Node39&#45;&gt;Node17 -->
<g id="edge71" class="edge">
<title>Node39&#45;&gt;Node17</title>
<path fill="none" stroke="midnightblue" d="M1253.83,-179.48C1270.16,-169.75 1297.1,-153.73 1316.41,-142.24"/>
<polygon fill="midnightblue" stroke="midnightblue" points="1318.39,-145.13 1325.2,-137.01 1314.82,-139.11 1318.39,-145.13"/>
</g>
<!-- Node39&#45;&gt;Node27 -->
<g id="edge73" class="edge">
<title>Node39&#45;&gt;Node27</title>
<path fill="none" stroke="midnightblue" d="M1237.64,-179.48C1235.78,-170.99 1232.88,-157.7 1230.5,-146.82"/>
<polygon fill="midnightblue" stroke="midnightblue" points="1233.91,-146.03 1228.36,-137.01 1227.07,-147.53 1233.91,-146.03"/>
</g>
<!-- Node39&#45;&gt;Node29 -->
<g id="edge74" class="edge">
<title>Node39&#45;&gt;Node29</title>
<path fill="none" stroke="midnightblue" d="M1221.26,-179.37C1189.58,-164.55 1122.16,-133.76 1063.5,-112 1029.01,-99.21 989.03,-86.91 959.95,-78.41"/>
<polygon fill="midnightblue" stroke="midnightblue" points="960.73,-74.99 950.15,-75.57 958.78,-81.71 960.73,-74.99"/>
</g>
</g>
</svg>
        <g id="navigator" transform="translate(0 0)" fill="#404254">
                <rect fill="#f2f5e9" fill-opacity="0.5" stroke="#606060" stroke-width=".5" x="0" y="0" width="60" height="60"/>
                <use id="zoomplus" xlink:href="#zoomPlus" x="17" y="9" onmousedown="handleZoom(evt,'in')"/>
                <use id="zoomminus" xlink:href="#zoomMin" x="42" y="9" onmousedown="handleZoom(evt,'out')"/>
                <use id="reset" xlink:href="#resetDef" x="30" y="36" onmousedown="handleReset()"/>
                <g id="arrowUp" xlink:href="#dirArrow" transform="translate(30 24)" onmousedown="handlePan(0,-1)">
                  <use xlink:href="#rim" fill="#404040">
                        <set attributeName="fill" to="#808080" begin="arrowUp.mouseover" end="arrowUp.mouseout"/>
                  </use>
                  <path fill="none" stroke="white" stroke-width="1.5" d="M0,-3.0v7 M-2.5,-0.5L0,-3.0L2.5,-0.5"/>
                </g>
                <g id="arrowRight" xlink:href="#dirArrow" transform="rotate(90) translate(36 -43)" onmousedown="handlePan(1,0)">
                  <use xlink:href="#rim" fill="#404040">
                        <set attributeName="fill" to="#808080" begin="arrowRight.mouseover" end="arrowRight.mouseout"/>
                  </use>
                  <path fill="none" stroke="white" stroke-width="1.5" d="M0,-3.0v7 M-2.5,-0.5L0,-3.0L2.5,-0.5"/>
                </g>
                <g id="arrowDown" xlink:href="#dirArrow" transform="rotate(180) translate(-30 -48)" onmousedown="handlePan(0,1)">
                  <use xlink:href="#rim" fill="#404040">
                        <set attributeName="fill" to="#808080" begin="arrowDown.mouseover" end="arrowDown.mouseout"/>
                  </use>
                  <path fill="none" stroke="white" stroke-width="1.5" d="M0,-3.0v7 M-2.5,-0.5L0,-3.0L2.5,-0.5"/>
                </g>
                <g id="arrowLeft" xlink:href="#dirArrow" transform="rotate(270) translate(-36 17)" onmousedown="handlePan(-1,0)">
                  <use xlink:href="#rim" fill="#404040">
                        <set attributeName="fill" to="#808080" begin="arrowLeft.mouseover" end="arrowLeft.mouseout"/>
                  </use>
                  <path fill="none" stroke="white" stroke-width="1.5" d="M0,-3.0v7 M-2.5,-0.5L0,-3.0L2.5,-0.5"/>
                </g>
        </g>
        <svg viewBox="0 0 15 15" width="100%" height="30px" preserveAspectRatio="xMaxYMin meet">
         <g id="arrow_out" transform="scale(0.3 0.3)">
          <a xlink:href="labs_2inlab4_2Parser_8h__incl_org.svg" target="_base">
           <rect id="button" ry="5" rx="5" y="6" x="6" height="38" width="38"
                fill="#f2f5e9" fill-opacity="0.5" stroke="#606060" stroke-width="1.0"/>
           <path id="arrow"
             d="M 11.500037,31.436501 C 11.940474,20.09759 22.043105,11.32322 32.158766,21.979434 L 37.068811,17.246167 C 37.068811,17.246167 37.088388,32 37.088388,32 L 22.160133,31.978069 C 22.160133,31.978069 26.997745,27.140456 26.997745,27.140456 C 18.528582,18.264221 13.291696,25.230495 11.500037,31.436501 z"
             style="fill:#404040;"/>
          </a>
         </g>
        </svg>
</svg>
