<?xml version="1.0" encoding="UTF-8" standalone="no"?>
<!DOCTYPE svg PUBLIC "-//W3C//DTD SVG 1.1//EN"
 "http://www.w3.org/Graphics/SVG/1.1/DTD/svg11.dtd">
<!-- Generated by graphviz version 2.43.0 (0)
 -->
<!-- Title: src/labs/outlab4/Compute.h Pages: 1 -->
<!--zoomable 431 -->
<svg id="main" version="1.1" xmlns="http://www.w3.org/2000/svg" xmlns:xlink="http://www.w3.org/1999/xlink" xml:space="preserve" onload="init(evt)">
<style type="text/css"><![CDATA[
.edge:hover path { stroke: red; }
.edge:hover polygon { stroke: red; fill: red; }
]]></style>
<script type="text/javascript"><![CDATA[
var edges = document.getElementsByTagName('g');
if (edges && edges.length) {
  for (var i=0;i<edges.length;i++) {
    if (edges[i].id.substr(0,4)=='edge') {
      edges[i].setAttribute('class','edge');
    }
  }
}
]]></script>
        <defs>
                <circle id="rim" cx="0" cy="0" r="7"/>
                <circle id="rim2" cx="0" cy="0" r="3.5"/>
                <g id="zoomPlus">
                        <use xlink:href="#rim" fill="#404040">
                                <set attributeName="fill" to="#808080" begin="zoomplus.mouseover" end="zoomplus.mouseout"/>
                        </use>
                        <path d="M-4,0h8M0,-4v8" fill="none" stroke="white" stroke-width="1.5" pointer-events="none"/>
                </g>
                <g id="zoomMin">
                        <use xlink:href="#rim" fill="#404040">
                                <set attributeName="fill" to="#808080" begin="zoomminus.mouseover" end="zoomminus.mouseout"/>
                        </use>
                        <path d="M-4,0h8" fill="none" stroke="white" stroke-width="1.5" pointer-events="none"/>
                </g>
                <g id="dirArrow">
                        <path fill="none" stroke="white" stroke-width="1.5" d="M0,-3.0v7 M-2.5,-0.5L0,-3.0L2.5,-0.5"/>
                </g>
               <g id="resetDef">
                       <use xlink:href="#rim2" fill="#404040">
                               <set attributeName="fill" to="#808080" begin="reset.mouseover" end="reset.mouseout"/>
                       </use>
               </g>
        </defs>

<script type="text/javascript">
var viewWidth = 1660;
var viewHeight = 431;
var sectionId = 'dynsection-0';
</script>
<script xlink:href="../../svgpan.js"/>
<svg id="graph" class="graph">
<g id="viewport">
<title>src/labs/outlab4/Compute.h</title>
<polygon fill="white" stroke="transparent" points="-4,4 -4,-427 1655.5,-427 1655.5,4 -4,4"/>
<!-- Node1 -->
<g id="node1" class="node">
<title>Node1</title>
<g id="a_node1"><a xlink:title="Compute methods for outlab4 in NE591&#45;008.">
<polygon fill="#bfbfbf" stroke="black" points="1319,-403.5 1319,-422.5 1469,-422.5 1469,-403.5 1319,-403.5"/>
<text text-anchor="middle" x="1394" y="-410.5" font-family="Helvetica,sans-Serif" font-size="10.00">src/labs/outlab4/Compute.h</text>
</a>
</g>
</g>
<!-- Node2 -->
<g id="node2" class="node">
<title>Node2</title>
<g id="a_node2"><a xlink:title=" ">
<polygon fill="white" stroke="#bfbfbf" points="1182.5,-118 1182.5,-137 1229.5,-137 1229.5,-118 1182.5,-118"/>
<text text-anchor="middle" x="1206" y="-125" font-family="Helvetica,sans-Serif" font-size="10.00">cmath</text>
</a>
</g>
</g>
<!-- Node1&#45;&gt;Node2 -->
<g id="edge1" class="edge">
<title>Node1&#45;&gt;Node2</title>
<path fill="none" stroke="midnightblue" d="M1388.17,-403.2C1361.74,-363.35 1252.98,-199.35 1217.36,-145.63"/>
<polygon fill="midnightblue" stroke="midnightblue" points="1220.21,-143.59 1211.76,-137.19 1214.37,-147.46 1220.21,-143.59"/>
</g>
<!-- Node3 -->
<g id="node3" class="node">
<title>Node3</title>
<g id="a_node3"><a xlink:title=" ">
<polygon fill="white" stroke="#bfbfbf" points="314,-0.5 314,-19.5 374,-19.5 374,-0.5 314,-0.5"/>
<text text-anchor="middle" x="344" y="-7.5" font-family="Helvetica,sans-Serif" font-size="10.00">iostream</text>
</a>
</g>
</g>
<!-- Node1&#45;&gt;Node3 -->
<g id="edge2" class="edge">
<title>Node1&#45;&gt;Node3</title>
<path fill="none" stroke="midnightblue" d="M1318.56,-410.03C1028.33,-401.98 0,-368.72 0,-302 0,-302 0,-302 0,-126.5 0,-74.63 45.49,-76.82 93,-56 162.84,-25.39 252.33,-15.6 303.41,-12.47"/>
<polygon fill="midnightblue" stroke="midnightblue" points="303.92,-15.95 313.71,-11.9 303.53,-8.96 303.92,-15.95"/>
</g>
<!-- Node4 -->
<g id="node4" class="node">
<title>Node4</title>
<g id="a_node4"><a xlink:href="../../d3/db1/Matrix_8h.html" target="_top" xlink:title="This file contains my BLAS::Matrix declarations.">
<polygon fill="white" stroke="black" points="960,-118 960,-137 1104,-137 1104,-118 960,-118"/>
<text text-anchor="middle" x="1032" y="-125" font-family="Helvetica,sans-Serif" font-size="10.00">math/blas/matrix/Matrix.h</text>
</a>
</g>
</g>
<!-- Node1&#45;&gt;Node4 -->
<g id="edge3" class="edge">
<title>Node1&#45;&gt;Node4</title>
<path fill="none" stroke="midnightblue" d="M1369.85,-403.34C1311.15,-381.88 1157.07,-323.02 1038,-255 1019.47,-244.42 969.74,-217.98 960,-199 947.61,-174.85 976.69,-154.07 1001.53,-141.45"/>
<polygon fill="midnightblue" stroke="midnightblue" points="1003.24,-144.51 1010.74,-137.03 1000.21,-138.2 1003.24,-144.51"/>
</g>
<!-- Node9 -->
<g id="node9" class="node">
<title>Node9</title>
<g id="a_node9"><a xlink:href="../../d6/dbe/Vector_8h.html" target="_top" xlink:title="This file contains my BLAS::Vector implementation.">
<polygon fill="white" stroke="black" points="1215.5,-56.5 1215.5,-75.5 1356.5,-75.5 1356.5,-56.5 1215.5,-56.5"/>
<text text-anchor="middle" x="1286" y="-63.5" font-family="Helvetica,sans-Serif" font-size="10.00">math/blas/vector/Vector.h</text>
</a>
</g>
</g>
<!-- Node1&#45;&gt;Node9 -->
<g id="edge15" class="edge">
<title>Node1&#45;&gt;Node9</title>
<path fill="none" stroke="midnightblue" d="M1428.87,-403.4C1473.75,-390 1546,-359.49 1546,-302 1546,-302 1546,-302 1546,-188 1546,-107.83 1443.14,-80.64 1366.81,-71.5"/>
<polygon fill="midnightblue" stroke="midnightblue" points="1367.03,-68.01 1356.7,-70.38 1366.25,-74.96 1367.03,-68.01"/>
</g>
<!-- Node12 -->
<g id="node12" class="node">
<title>Node12</title>
<g id="a_node12"><a xlink:href="../../d9/d41/CommandLine_8h.html" target="_top" xlink:title="This file contains the definition of the CommandLine class and the HeaderInfo struct.">
<polygon fill="white" stroke="black" points="635,-347.5 635,-366.5 731,-366.5 731,-347.5 635,-347.5"/>
<text text-anchor="middle" x="683" y="-354.5" font-family="Helvetica,sans-Serif" font-size="10.00">CommandLine.h</text>
</a>
</g>
</g>
<!-- Node1&#45;&gt;Node12 -->
<g id="edge16" class="edge">
<title>Node1&#45;&gt;Node12</title>
<path fill="none" stroke="midnightblue" d="M1318.92,-406.3C1176.42,-395.48 869.56,-372.17 741.26,-362.42"/>
<polygon fill="midnightblue" stroke="midnightblue" points="741.47,-358.93 731.23,-361.66 740.94,-365.91 741.47,-358.93"/>
</g>
<!-- Node25 -->
<g id="node25" class="node">
<title>Node25</title>
<g id="a_node25"><a xlink:href="../../d4/d2e/Stopwatch_8h.html" target="_top" xlink:title="This file contains the Stopwatch class which is a utility for measuring time durations in various uni...">
<polygon fill="white" stroke="black" points="1574.5,-235.5 1574.5,-254.5 1651.5,-254.5 1651.5,-235.5 1574.5,-235.5"/>
<text text-anchor="middle" x="1613" y="-242.5" font-family="Helvetica,sans-Serif" font-size="10.00">Stopwatch.h</text>
</a>
</g>
</g>
<!-- Node1&#45;&gt;Node25 -->
<g id="edge68" class="edge">
<title>Node1&#45;&gt;Node25</title>
<path fill="none" stroke="midnightblue" d="M1469.27,-405.87C1500.35,-399.97 1534.89,-388.64 1560,-367 1591.31,-340.01 1604.81,-291.04 1610.05,-264.42"/>
<polygon fill="midnightblue" stroke="midnightblue" points="1613.51,-264.97 1611.82,-254.51 1606.62,-263.74 1613.51,-264.97"/>
</g>
<!-- Node33 -->
<g id="node33" class="node">
<title>Node33</title>
<g id="a_node33"><a xlink:href="../../d0/dbf/labs_2outlab4_2InputsOutputs_8h.html" target="_top" xlink:title="This file contains the input and output definitions for this project.">
<polygon fill="white" stroke="black" points="1310,-179.5 1310,-198.5 1404,-198.5 1404,-179.5 1310,-179.5"/>
<text text-anchor="middle" x="1357" y="-186.5" font-family="Helvetica,sans-Serif" font-size="10.00">InputsOutputs.h</text>
</a>
</g>
</g>
<!-- Node1&#45;&gt;Node33 -->
<g id="edge63" class="edge">
<title>Node1&#45;&gt;Node33</title>
<path fill="none" stroke="midnightblue" d="M1397.48,-403.39C1407.64,-376.86 1434.88,-294.57 1408,-235 1402.38,-222.56 1391.44,-212.17 1381.12,-204.53"/>
<polygon fill="midnightblue" stroke="midnightblue" points="1382.96,-201.54 1372.73,-198.76 1378.99,-207.31 1382.96,-201.54"/>
</g>
<!-- Node4&#45;&gt;Node3 -->
<g id="edge6" class="edge">
<title>Node4&#45;&gt;Node3</title>
<path fill="none" stroke="midnightblue" d="M1025.02,-117.82C1011.86,-102.2 981.68,-69.7 948,-56 845.3,-14.23 501.93,-10.74 384.09,-10.81"/>
<polygon fill="midnightblue" stroke="midnightblue" points="384.05,-7.31 374.05,-10.82 384.06,-14.31 384.05,-7.31"/>
</g>
<!-- Node5 -->
<g id="node5" class="node">
<title>Node5</title>
<g id="a_node5"><a xlink:title=" ">
<polygon fill="white" stroke="#bfbfbf" points="875,-56.5 875,-75.5 939,-75.5 939,-56.5 875,-56.5"/>
<text text-anchor="middle" x="907" y="-63.5" font-family="Helvetica,sans-Serif" font-size="10.00">algorithm</text>
</a>
</g>
</g>
<!-- Node4&#45;&gt;Node5 -->
<g id="edge4" class="edge">
<title>Node4&#45;&gt;Node5</title>
<path fill="none" stroke="midnightblue" d="M1014.09,-117.98C993.11,-107.99 958.15,-91.35 933.91,-79.81"/>
<polygon fill="midnightblue" stroke="midnightblue" points="935.41,-76.65 924.88,-75.51 932.4,-82.97 935.41,-76.65"/>
</g>
<!-- Node6 -->
<g id="node6" class="node">
<title>Node6</title>
<g id="a_node6"><a xlink:title=" ">
<polygon fill="white" stroke="#bfbfbf" points="1085,-0.5 1085,-19.5 1137,-19.5 1137,-0.5 1085,-0.5"/>
<text text-anchor="middle" x="1111" y="-7.5" font-family="Helvetica,sans-Serif" font-size="10.00">cassert</text>
</a>
</g>
</g>
<!-- Node4&#45;&gt;Node6 -->
<g id="edge5" class="edge">
<title>Node4&#45;&gt;Node6</title>
<path fill="none" stroke="midnightblue" d="M1027.86,-117.96C1021.71,-103.92 1012.09,-75.57 1024,-56 1035.09,-37.78 1056.2,-26.61 1074.85,-19.95"/>
<polygon fill="midnightblue" stroke="midnightblue" points="1076.17,-23.21 1084.6,-16.79 1074.01,-16.55 1076.17,-23.21"/>
</g>
<!-- Node7 -->
<g id="node7" class="node">
<title>Node7</title>
<g id="a_node7"><a xlink:title=" ">
<polygon fill="white" stroke="#bfbfbf" points="1262.5,-0.5 1262.5,-19.5 1309.5,-19.5 1309.5,-0.5 1262.5,-0.5"/>
<text text-anchor="middle" x="1286" y="-7.5" font-family="Helvetica,sans-Serif" font-size="10.00">vector</text>
</a>
</g>
</g>
<!-- Node4&#45;&gt;Node7 -->
<g id="edge7" class="edge">
<title>Node4&#45;&gt;Node7</title>
<path fill="none" stroke="midnightblue" d="M1058.54,-117.95C1086.3,-108.7 1130.9,-92.99 1168,-76 1177.39,-71.7 1230.05,-42.36 1261.76,-24.6"/>
<polygon fill="midnightblue" stroke="midnightblue" points="1263.85,-27.45 1270.86,-19.5 1260.42,-21.34 1263.85,-27.45"/>
</g>
<!-- Node8 -->
<g id="node8" class="node">
<title>Node8</title>
<g id="a_node8"><a xlink:href="../../d1/d45/Constants_8h.html" target="_top" xlink:title="MyBLAS Constants definition.">
<polygon fill="white" stroke="black" points="1033,-56.5 1033,-75.5 1159,-75.5 1159,-56.5 1033,-56.5"/>
<text text-anchor="middle" x="1096" y="-63.5" font-family="Helvetica,sans-Serif" font-size="10.00">math/blas/Constants.h</text>
</a>
</g>
</g>
<!-- Node4&#45;&gt;Node8 -->
<g id="edge8" class="edge">
<title>Node4&#45;&gt;Node8</title>
<path fill="none" stroke="midnightblue" d="M1041.17,-117.98C1051.15,-108.7 1067.31,-93.67 1079.51,-82.33"/>
<polygon fill="midnightblue" stroke="midnightblue" points="1081.91,-84.88 1086.85,-75.51 1077.14,-79.75 1081.91,-84.88"/>
</g>
<!-- Node4&#45;&gt;Node9 -->
<g id="edge9" class="edge">
<title>Node4&#45;&gt;Node9</title>
<path fill="none" stroke="midnightblue" d="M1068.39,-117.98C1113.57,-107.39 1190.65,-89.34 1239.91,-77.8"/>
<polygon fill="midnightblue" stroke="midnightblue" points="1240.74,-81.2 1249.68,-75.51 1239.14,-74.38 1240.74,-81.2"/>
</g>
<!-- Node9&#45;&gt;Node3 -->
<g id="edge12" class="edge">
<title>Node9&#45;&gt;Node3</title>
<path fill="none" stroke="midnightblue" d="M1215.2,-59.35C1199.65,-58.18 1183.27,-57 1168,-56 867.21,-36.32 504.25,-18.59 384.49,-12.9"/>
<polygon fill="midnightblue" stroke="midnightblue" points="384.47,-9.4 374.32,-12.42 384.14,-16.39 384.47,-9.4"/>
</g>
<!-- Node9&#45;&gt;Node6 -->
<g id="edge14" class="edge">
<title>Node9&#45;&gt;Node6</title>
<path fill="none" stroke="midnightblue" d="M1258.27,-56.44C1228.14,-47.15 1179.89,-32.26 1146.89,-22.07"/>
<polygon fill="midnightblue" stroke="midnightblue" points="1147.76,-18.68 1137.17,-19.08 1145.69,-25.37 1147.76,-18.68"/>
</g>
<!-- Node9&#45;&gt;Node7 -->
<g id="edge13" class="edge">
<title>Node9&#45;&gt;Node7</title>
<path fill="none" stroke="midnightblue" d="M1286,-56.08C1286,-49.01 1286,-38.86 1286,-29.99"/>
<polygon fill="midnightblue" stroke="midnightblue" points="1289.5,-29.75 1286,-19.75 1282.5,-29.75 1289.5,-29.75"/>
</g>
<!-- Node10 -->
<g id="node10" class="node">
<title>Node10</title>
<g id="a_node10"><a xlink:title=" ">
<polygon fill="white" stroke="#bfbfbf" points="1403.5,-0.5 1403.5,-19.5 1468.5,-19.5 1468.5,-0.5 1403.5,-0.5"/>
<text text-anchor="middle" x="1436" y="-7.5" font-family="Helvetica,sans-Serif" font-size="10.00">functional</text>
</a>
</g>
</g>
<!-- Node9&#45;&gt;Node10 -->
<g id="edge10" class="edge">
<title>Node9&#45;&gt;Node10</title>
<path fill="none" stroke="midnightblue" d="M1309.77,-56.44C1334.89,-47.4 1374.71,-33.06 1402.9,-22.92"/>
<polygon fill="midnightblue" stroke="midnightblue" points="1404.12,-26.2 1412.34,-19.52 1401.75,-19.61 1404.12,-26.2"/>
</g>
<!-- Node11 -->
<g id="node11" class="node">
<title>Node11</title>
<g id="a_node11"><a xlink:title=" ">
<polygon fill="white" stroke="#bfbfbf" points="731,-0.5 731,-19.5 787,-19.5 787,-0.5 731,-0.5"/>
<text text-anchor="middle" x="759" y="-7.5" font-family="Helvetica,sans-Serif" font-size="10.00">iomanip</text>
</a>
</g>
</g>
<!-- Node9&#45;&gt;Node11 -->
<g id="edge11" class="edge">
<title>Node9&#45;&gt;Node11</title>
<path fill="none" stroke="midnightblue" d="M1215.47,-57.77C1102.55,-46.2 884.94,-23.9 797.13,-14.91"/>
<polygon fill="midnightblue" stroke="midnightblue" points="797.38,-11.41 787.08,-13.88 796.67,-18.38 797.38,-11.41"/>
</g>
<!-- Node12&#45;&gt;Node3 -->
<g id="edge61" class="edge">
<title>Node12&#45;&gt;Node3</title>
<path fill="none" stroke="midnightblue" d="M634.78,-352.87C485.04,-342.51 38,-306.53 38,-246 38,-246 38,-246 38,-126.5 38,-70.34 220.66,-32.02 303.73,-17.49"/>
<polygon fill="midnightblue" stroke="midnightblue" points="304.56,-20.9 313.82,-15.76 303.37,-14 304.56,-20.9"/>
</g>
<!-- Node13 -->
<g id="node13" class="node">
<title>Node13</title>
<g id="a_node13"><a xlink:href="../../d2/d0e/CommandlineHelpers_8h.html" target="_top" xlink:title="This file contains helper functions for handling command line options and initializing the profiler.">
<polygon fill="white" stroke="black" points="461.5,-291.5 461.5,-310.5 592.5,-310.5 592.5,-291.5 461.5,-291.5"/>
<text text-anchor="middle" x="527" y="-298.5" font-family="Helvetica,sans-Serif" font-size="10.00">CommandlineHelpers.h</text>
</a>
</g>
</g>
<!-- Node12&#45;&gt;Node13 -->
<g id="edge17" class="edge">
<title>Node12&#45;&gt;Node13</title>
<path fill="none" stroke="midnightblue" d="M658.28,-347.44C632.15,-338.4 590.74,-324.06 561.42,-313.92"/>
<polygon fill="midnightblue" stroke="midnightblue" points="562.2,-310.48 551.6,-310.52 559.91,-317.1 562.2,-310.48"/>
</g>
<!-- Node15 -->
<g id="node15" class="node">
<title>Node15</title>
<g id="a_node15"><a xlink:title=" ">
<polygon fill="white" stroke="#bfbfbf" points="66,-118 66,-137 216,-137 216,-118 66,-118"/>
<text text-anchor="middle" x="141" y="-125" font-family="Helvetica,sans-Serif" font-size="10.00">boost/program_options.hpp</text>
</a>
</g>
</g>
<!-- Node12&#45;&gt;Node15 -->
<g id="edge60" class="edge">
<title>Node12&#45;&gt;Node15</title>
<path fill="none" stroke="midnightblue" d="M634.8,-350.83C553.42,-340.77 384.94,-314.14 255,-255 213.49,-236.11 197.89,-234.3 169,-199 156.52,-183.75 149.06,-162.23 145.02,-146.99"/>
<polygon fill="midnightblue" stroke="midnightblue" points="148.4,-146.08 142.66,-137.18 141.59,-147.72 148.4,-146.08"/>
</g>
<!-- Node17 -->
<g id="node17" class="node">
<title>Node17</title>
<g id="a_node17"><a xlink:href="../../db/df1/Helpers_8h.html" target="_top" xlink:title="This file contains helper functions and structures used throughout the program.">
<polygon fill="white" stroke="black" points="512.5,-179.5 512.5,-198.5 575.5,-198.5 575.5,-179.5 512.5,-179.5"/>
<text text-anchor="middle" x="544" y="-186.5" font-family="Helvetica,sans-Serif" font-size="10.00">Helpers.h</text>
</a>
</g>
</g>
<!-- Node12&#45;&gt;Node17 -->
<g id="edge35" class="edge">
<title>Node12&#45;&gt;Node17</title>
<path fill="none" stroke="midnightblue" d="M685.55,-347.43C688.9,-334.42 693.36,-309.29 684,-291 661.57,-247.17 610.28,-218 576.4,-202.72"/>
<polygon fill="midnightblue" stroke="midnightblue" points="577.49,-199.38 566.92,-198.61 574.7,-205.8 577.49,-199.38"/>
</g>
<!-- Node21 -->
<g id="node21" class="node">
<title>Node21</title>
<g id="a_node21"><a xlink:href="../../df/d69/Profiler_8h.html" target="_top" xlink:title="This file contains the Profiler class which is used to profile the execution time of a function.">
<polygon fill="white" stroke="black" points="813.5,-291.5 813.5,-310.5 872.5,-310.5 872.5,-291.5 813.5,-291.5"/>
<text text-anchor="middle" x="843" y="-298.5" font-family="Helvetica,sans-Serif" font-size="10.00">Profiler.h</text>
</a>
</g>
</g>
<!-- Node12&#45;&gt;Node21 -->
<g id="edge36" class="edge">
<title>Node12&#45;&gt;Node21</title>
<path fill="none" stroke="midnightblue" d="M708.35,-347.44C735.27,-338.36 778,-323.94 808.09,-313.78"/>
<polygon fill="midnightblue" stroke="midnightblue" points="809.41,-317.03 817.77,-310.52 807.17,-310.4 809.41,-317.03"/>
</g>
<!-- Node31 -->
<g id="node31" class="node">
<title>Node31</title>
<g id="a_node31"><a xlink:title=" ">
<polygon fill="white" stroke="#bfbfbf" points="891,-291.5 891,-310.5 983,-310.5 983,-291.5 891,-291.5"/>
<text text-anchor="middle" x="937" y="-298.5" font-family="Helvetica,sans-Serif" font-size="10.00">project&#45;config.h</text>
</a>
</g>
</g>
<!-- Node12&#45;&gt;Node31 -->
<g id="edge59" class="edge">
<title>Node12&#45;&gt;Node31</title>
<path fill="none" stroke="midnightblue" d="M723.25,-347.44C767.65,-338 839.15,-322.8 887.09,-312.61"/>
<polygon fill="midnightblue" stroke="midnightblue" points="887.89,-316.02 896.94,-310.52 886.43,-309.17 887.89,-316.02"/>
</g>
<!-- Node32 -->
<g id="node32" class="node">
<title>Node32</title>
<g id="a_node32"><a xlink:title=" ">
<polygon fill="white" stroke="#bfbfbf" points="611,-291.5 611,-310.5 655,-310.5 655,-291.5 611,-291.5"/>
<text text-anchor="middle" x="633" y="-298.5" font-family="Helvetica,sans-Serif" font-size="10.00">string</text>
</a>
</g>
</g>
<!-- Node12&#45;&gt;Node32 -->
<g id="edge62" class="edge">
<title>Node12&#45;&gt;Node32</title>
<path fill="none" stroke="midnightblue" d="M674.74,-347.08C667.54,-339.3 656.89,-327.8 648.15,-318.37"/>
<polygon fill="midnightblue" stroke="midnightblue" points="650.47,-315.71 641.1,-310.75 645.33,-320.47 650.47,-315.71"/>
</g>
<!-- Node14 -->
<g id="node14" class="node">
<title>Node14</title>
<g id="a_node14"><a xlink:href="../../d0/d7d/CheckBounds_8h.html" target="_top" xlink:title="This file contains the declaration of functions for checking the validity of input parameters.">
<polygon fill="white" stroke="black" points="498,-235.5 498,-254.5 590,-254.5 590,-235.5 498,-235.5"/>
<text text-anchor="middle" x="544" y="-242.5" font-family="Helvetica,sans-Serif" font-size="10.00">CheckBounds.h</text>
</a>
</g>
</g>
<!-- Node13&#45;&gt;Node14 -->
<g id="edge18" class="edge">
<title>Node13&#45;&gt;Node14</title>
<path fill="none" stroke="midnightblue" d="M529.81,-291.08C532.08,-283.85 535.37,-273.41 538.21,-264.4"/>
<polygon fill="midnightblue" stroke="midnightblue" points="541.58,-265.34 541.25,-254.75 534.9,-263.24 541.58,-265.34"/>
</g>
<!-- Node13&#45;&gt;Node15 -->
<g id="edge34" class="edge">
<title>Node13&#45;&gt;Node15</title>
<path fill="none" stroke="midnightblue" d="M461.32,-292.39C390.06,-281.5 275.56,-256.04 194,-199 174.46,-185.34 159.09,-162.22 150.04,-146.2"/>
<polygon fill="midnightblue" stroke="midnightblue" points="153.06,-144.43 145.24,-137.29 146.9,-147.75 153.06,-144.43"/>
</g>
<!-- Node18 -->
<g id="node18" class="node">
<title>Node18</title>
<g id="a_node18"><a xlink:title=" ">
<polygon fill="white" stroke="#bfbfbf" points="711,-118 711,-137 769,-137 769,-118 711,-118"/>
<text text-anchor="middle" x="740" y="-125" font-family="Helvetica,sans-Serif" font-size="10.00">json.hpp</text>
</a>
</g>
</g>
<!-- Node13&#45;&gt;Node18 -->
<g id="edge33" class="edge">
<title>Node13&#45;&gt;Node18</title>
<path fill="none" stroke="midnightblue" d="M541.26,-291.49C555.92,-282.65 579.33,-268.28 599,-255 634.07,-231.33 644.5,-227.26 676,-199 694.93,-182.02 714.21,-159.99 726.6,-145.12"/>
<polygon fill="midnightblue" stroke="midnightblue" points="729.39,-147.22 733.03,-137.27 723.98,-142.78 729.39,-147.22"/>
</g>
<!-- Node14&#45;&gt;Node3 -->
<g id="edge20" class="edge">
<title>Node14&#45;&gt;Node3</title>
<path fill="none" stroke="midnightblue" d="M497.92,-243.03C432.54,-238.84 315.05,-220.29 263,-143 235.01,-101.44 290.69,-50.44 323.06,-25.77"/>
<polygon fill="midnightblue" stroke="midnightblue" points="325.15,-28.57 331.1,-19.81 320.98,-22.95 325.15,-28.57"/>
</g>
<!-- Node14&#45;&gt;Node11 -->
<g id="edge21" class="edge">
<title>Node14&#45;&gt;Node11</title>
<path fill="none" stroke="midnightblue" d="M553.61,-235.42C572.5,-218.4 615.56,-178.91 649,-143 686.1,-103.16 726.2,-53.05 746.17,-27.55"/>
<polygon fill="midnightblue" stroke="midnightblue" points="748.97,-29.65 752.36,-19.61 743.45,-25.35 748.97,-29.65"/>
</g>
<!-- Node14&#45;&gt;Node12 -->
<g id="edge23" class="edge">
<title>Node14&#45;&gt;Node12</title>
<path fill="none" stroke="midnightblue" d="M590.06,-252.99C615.09,-259.05 644.78,-270.29 664,-291 675.61,-303.51 680.16,-322.74 681.93,-337.04"/>
<polygon fill="midnightblue" stroke="midnightblue" points="678.46,-337.58 682.83,-347.23 685.44,-336.96 678.46,-337.58"/>
</g>
<!-- Node14&#45;&gt;Node15 -->
<g id="edge19" class="edge">
<title>Node14&#45;&gt;Node15</title>
<path fill="none" stroke="midnightblue" d="M497.8,-244.79C434.72,-244.24 319.29,-237.4 230,-199 200.43,-186.28 172.38,-161.11 155.93,-144.54"/>
<polygon fill="midnightblue" stroke="midnightblue" points="158.3,-141.95 148.84,-137.19 153.26,-146.82 158.3,-141.95"/>
</g>
<!-- Node16 -->
<g id="node16" class="node">
<title>Node16</title>
<g id="a_node16"><a xlink:title=" ">
<polygon fill="white" stroke="#bfbfbf" points="272,-118 272,-137 316,-137 316,-118 272,-118"/>
<text text-anchor="middle" x="294" y="-125" font-family="Helvetica,sans-Serif" font-size="10.00">limits</text>
</a>
</g>
</g>
<!-- Node14&#45;&gt;Node16 -->
<g id="edge22" class="edge">
<title>Node14&#45;&gt;Node16</title>
<path fill="none" stroke="midnightblue" d="M525.21,-235.32C481.58,-215.16 373.22,-165.1 321.86,-141.37"/>
<polygon fill="midnightblue" stroke="midnightblue" points="323.21,-138.14 312.67,-137.12 320.28,-144.5 323.21,-138.14"/>
</g>
<!-- Node14&#45;&gt;Node17 -->
<g id="edge24" class="edge">
<title>Node14&#45;&gt;Node17</title>
<path fill="none" stroke="midnightblue" d="M544,-235.08C544,-228.01 544,-217.86 544,-208.99"/>
<polygon fill="midnightblue" stroke="midnightblue" points="547.5,-208.75 544,-198.75 540.5,-208.75 547.5,-208.75"/>
</g>
<!-- Node14&#45;&gt;Node18 -->
<g id="edge32" class="edge">
<title>Node14&#45;&gt;Node18</title>
<path fill="none" stroke="midnightblue" d="M567.68,-235.5C589.07,-227.4 621.08,-214.2 647,-199 674.94,-182.62 704.24,-159.21 722.32,-143.93"/>
<polygon fill="midnightblue" stroke="midnightblue" points="724.92,-146.32 730.23,-137.16 720.36,-141 724.92,-146.32"/>
</g>
<!-- Node17&#45;&gt;Node3 -->
<g id="edge26" class="edge">
<title>Node17&#45;&gt;Node3</title>
<path fill="none" stroke="midnightblue" d="M512.33,-184.37C465.91,-178.38 382.76,-164.86 363,-143 334.75,-111.75 337.06,-58.25 340.76,-29.91"/>
<polygon fill="midnightblue" stroke="midnightblue" points="344.26,-30.16 342.29,-19.75 337.34,-29.12 344.26,-30.16"/>
</g>
<!-- Node17&#45;&gt;Node11 -->
<g id="edge25" class="edge">
<title>Node17&#45;&gt;Node11</title>
<path fill="none" stroke="midnightblue" d="M567.36,-179.44C584.99,-172.02 608.83,-159.81 625,-143 655.04,-111.77 638.29,-86.57 669,-56 683.73,-41.34 704.21,-30.58 721.91,-23.27"/>
<polygon fill="midnightblue" stroke="midnightblue" points="723.36,-26.46 731.4,-19.56 720.81,-19.94 723.36,-26.46"/>
</g>
<!-- Node17&#45;&gt;Node15 -->
<g id="edge29" class="edge">
<title>Node17&#45;&gt;Node15</title>
<path fill="none" stroke="midnightblue" d="M512.38,-183.33C447.25,-173.72 296.9,-151.52 208.77,-138.51"/>
<polygon fill="midnightblue" stroke="midnightblue" points="209.27,-135.04 198.87,-137.04 208.25,-141.97 209.27,-135.04"/>
</g>
<!-- Node17&#45;&gt;Node16 -->
<g id="edge27" class="edge">
<title>Node17&#45;&gt;Node16</title>
<path fill="none" stroke="midnightblue" d="M512.38,-183.14C470.23,-176.26 393.57,-162.32 330,-143 327.72,-142.31 325.37,-141.53 323.03,-140.7"/>
<polygon fill="midnightblue" stroke="midnightblue" points="324.17,-137.39 313.58,-137.11 321.69,-143.93 324.17,-137.39"/>
</g>
<!-- Node17&#45;&gt;Node18 -->
<g id="edge28" class="edge">
<title>Node17&#45;&gt;Node18</title>
<path fill="none" stroke="midnightblue" d="M572.08,-179.48C606.29,-169.09 664.2,-151.51 702.27,-139.95"/>
<polygon fill="midnightblue" stroke="midnightblue" points="703.42,-143.26 711.97,-137.01 701.38,-136.56 703.42,-143.26"/>
</g>
<!-- Node19 -->
<g id="node19" class="node">
<title>Node19</title>
<g id="a_node19"><a xlink:title=" ">
<polygon fill="white" stroke="#bfbfbf" points="372.5,-112.5 372.5,-142.5 485.5,-142.5 485.5,-112.5 372.5,-112.5"/>
<text text-anchor="start" x="380.5" y="-130.5" font-family="Helvetica,sans-Serif" font-size="10.00">boost/accumulators</text>
<text text-anchor="middle" x="429" y="-119.5" font-family="Helvetica,sans-Serif" font-size="10.00">/accumulators.hpp</text>
</a>
</g>
</g>
<!-- Node17&#45;&gt;Node19 -->
<g id="edge30" class="edge">
<title>Node17&#45;&gt;Node19</title>
<path fill="none" stroke="midnightblue" d="M527.52,-179.48C511.29,-171.08 485.96,-157.97 465.05,-147.15"/>
<polygon fill="midnightblue" stroke="midnightblue" points="466.59,-144.01 456.1,-142.52 463.38,-150.23 466.59,-144.01"/>
</g>
<!-- Node20 -->
<g id="node20" class="node">
<title>Node20</title>
<g id="a_node20"><a xlink:title=" ">
<polygon fill="white" stroke="#bfbfbf" points="503.5,-112.5 503.5,-142.5 616.5,-142.5 616.5,-112.5 503.5,-112.5"/>
<text text-anchor="start" x="511.5" y="-130.5" font-family="Helvetica,sans-Serif" font-size="10.00">boost/accumulators</text>
<text text-anchor="middle" x="560" y="-119.5" font-family="Helvetica,sans-Serif" font-size="10.00">/statistics.hpp</text>
</a>
</g>
</g>
<!-- Node17&#45;&gt;Node20 -->
<g id="edge31" class="edge">
<title>Node17&#45;&gt;Node20</title>
<path fill="none" stroke="midnightblue" d="M546.29,-179.48C548.2,-172.4 551,-161.97 553.58,-152.39"/>
<polygon fill="midnightblue" stroke="midnightblue" points="557.01,-153.09 556.23,-142.52 550.25,-151.27 557.01,-153.09"/>
</g>
<!-- Node21&#45;&gt;Node3 -->
<g id="edge40" class="edge">
<title>Node21&#45;&gt;Node3</title>
<path fill="none" stroke="midnightblue" d="M841.18,-291.4C833.94,-257.99 806.22,-137.43 778,-112 719.62,-59.41 480.63,-26.69 384.41,-15.41"/>
<polygon fill="midnightblue" stroke="midnightblue" points="384.54,-11.91 374.21,-14.24 383.74,-18.86 384.54,-11.91"/>
</g>
<!-- Node21&#45;&gt;Node10 -->
<g id="edge38" class="edge">
<title>Node21&#45;&gt;Node10</title>
<path fill="none" stroke="midnightblue" d="M872.73,-292.7C875.85,-292.07 878.98,-291.48 882,-291 1011.73,-270.25 1368.63,-287.2 1466,-199 1495.64,-172.15 1498.57,-150.83 1489,-112 1481.14,-80.11 1461.22,-47.15 1448.16,-27.89"/>
<polygon fill="midnightblue" stroke="midnightblue" points="1450.98,-25.8 1442.39,-19.6 1445.23,-29.8 1450.98,-25.8"/>
</g>
<!-- Node21&#45;&gt;Node11 -->
<g id="edge39" class="edge">
<title>Node21&#45;&gt;Node11</title>
<path fill="none" stroke="midnightblue" d="M841.95,-291.46C839.79,-272.98 835,-227.91 835,-190 835,-190 835,-190 835,-126.5 835,-84.81 800.02,-46.53 777.52,-26.22"/>
<polygon fill="midnightblue" stroke="midnightblue" points="779.73,-23.5 769.89,-19.58 775.14,-28.78 779.73,-23.5"/>
</g>
<!-- Node21&#45;&gt;Node14 -->
<g id="edge43" class="edge">
<title>Node21&#45;&gt;Node14</title>
<path fill="none" stroke="midnightblue" d="M813.24,-294.62C763.71,-285.68 663.56,-267.59 600.35,-256.18"/>
<polygon fill="midnightblue" stroke="midnightblue" points="600.62,-252.67 590.16,-254.34 599.37,-259.56 600.62,-252.67"/>
</g>
<!-- Node21&#45;&gt;Node18 -->
<g id="edge46" class="edge">
<title>Node21&#45;&gt;Node18</title>
<path fill="none" stroke="midnightblue" d="M826.56,-291.38C813.1,-283.54 794.47,-270.81 783,-255 758.8,-221.63 747.48,-173.64 742.82,-147.4"/>
<polygon fill="midnightblue" stroke="midnightblue" points="746.23,-146.6 741.16,-137.3 739.32,-147.73 746.23,-146.6"/>
</g>
<!-- Node22 -->
<g id="node22" class="node">
<title>Node22</title>
<g id="a_node22"><a xlink:title=" ">
<polygon fill="white" stroke="#bfbfbf" points="863.5,-235.5 863.5,-254.5 918.5,-254.5 918.5,-235.5 863.5,-235.5"/>
<text text-anchor="middle" x="891" y="-242.5" font-family="Helvetica,sans-Serif" font-size="10.00">fstream</text>
</a>
</g>
</g>
<!-- Node21&#45;&gt;Node22 -->
<g id="edge37" class="edge">
<title>Node21&#45;&gt;Node22</title>
<path fill="none" stroke="midnightblue" d="M850.93,-291.08C857.85,-283.3 868.07,-271.8 876.45,-262.37"/>
<polygon fill="midnightblue" stroke="midnightblue" points="879.19,-264.55 883.22,-254.75 873.96,-259.9 879.19,-264.55"/>
</g>
<!-- Node23 -->
<g id="node23" class="node">
<title>Node23</title>
<g id="a_node23"><a xlink:title=" ">
<polygon fill="white" stroke="#bfbfbf" points="937,-235.5 937,-254.5 991,-254.5 991,-235.5 937,-235.5"/>
<text text-anchor="middle" x="964" y="-242.5" font-family="Helvetica,sans-Serif" font-size="10.00">random</text>
</a>
</g>
</g>
<!-- Node21&#45;&gt;Node23 -->
<g id="edge41" class="edge">
<title>Node21&#45;&gt;Node23</title>
<path fill="none" stroke="midnightblue" d="M862.17,-291.44C881.91,-282.64 912.89,-268.81 935.49,-258.72"/>
<polygon fill="midnightblue" stroke="midnightblue" points="937.21,-261.79 944.92,-254.52 934.36,-255.4 937.21,-261.79"/>
</g>
<!-- Node24 -->
<g id="node24" class="node">
<title>Node24</title>
<g id="a_node24"><a xlink:title=" ">
<polygon fill="white" stroke="#bfbfbf" points="1434.5,-118 1434.5,-137 1479.5,-137 1479.5,-118 1434.5,-118"/>
<text text-anchor="middle" x="1457" y="-125" font-family="Helvetica,sans-Serif" font-size="10.00">utility</text>
</a>
</g>
</g>
<!-- Node21&#45;&gt;Node24 -->
<g id="edge42" class="edge">
<title>Node21&#45;&gt;Node24</title>
<path fill="none" stroke="midnightblue" d="M872.75,-292.82C875.86,-292.16 878.99,-291.54 882,-291 944.49,-279.74 1401.95,-244.73 1446,-199 1459,-185.5 1460.48,-163.34 1459.51,-147.46"/>
<polygon fill="midnightblue" stroke="midnightblue" points="1462.97,-146.84 1458.5,-137.23 1456,-147.52 1462.97,-146.84"/>
</g>
<!-- Node21&#45;&gt;Node25 -->
<g id="edge44" class="edge">
<title>Node21&#45;&gt;Node25</title>
<path fill="none" stroke="midnightblue" d="M872.71,-292.61C875.84,-291.99 878.97,-291.44 882,-291 1014.27,-271.8 1422.31,-253.79 1563.96,-247.96"/>
<polygon fill="midnightblue" stroke="midnightblue" points="1564.23,-251.45 1574.08,-247.54 1563.95,-244.46 1564.23,-251.45"/>
</g>
<!-- Node27 -->
<g id="node27" class="node">
<title>Node27</title>
<g id="a_node27"><a xlink:href="../../dc/d09/Stats_8h.html" target="_top" xlink:title="This file contains the declaration of statistical functions and structures for vectors and matrices.">
<polygon fill="white" stroke="black" points="1047,-235.5 1047,-254.5 1149,-254.5 1149,-235.5 1047,-235.5"/>
<text text-anchor="middle" x="1098" y="-242.5" font-family="Helvetica,sans-Serif" font-size="10.00">math/blas/Stats.h</text>
</a>
</g>
</g>
<!-- Node21&#45;&gt;Node27 -->
<g id="edge47" class="edge">
<title>Node21&#45;&gt;Node27</title>
<path fill="none" stroke="midnightblue" d="M872.8,-293.05C875.9,-292.35 879.01,-291.66 882,-291 937.88,-278.73 1002.09,-265.46 1045.88,-256.53"/>
<polygon fill="midnightblue" stroke="midnightblue" points="1046.63,-259.95 1055.73,-254.53 1045.23,-253.09 1046.63,-259.95"/>
</g>
<!-- Node26 -->
<g id="node26" class="node">
<title>Node26</title>
<g id="a_node26"><a xlink:title=" ">
<polygon fill="white" stroke="#bfbfbf" points="1588,-179.5 1588,-198.5 1638,-198.5 1638,-179.5 1588,-179.5"/>
<text text-anchor="middle" x="1613" y="-186.5" font-family="Helvetica,sans-Serif" font-size="10.00">chrono</text>
</a>
</g>
</g>
<!-- Node25&#45;&gt;Node26 -->
<g id="edge45" class="edge">
<title>Node25&#45;&gt;Node26</title>
<path fill="none" stroke="midnightblue" d="M1613,-235.08C1613,-228.01 1613,-217.86 1613,-208.99"/>
<polygon fill="midnightblue" stroke="midnightblue" points="1616.5,-208.75 1613,-198.75 1609.5,-208.75 1616.5,-208.75"/>
</g>
<!-- Node27&#45;&gt;Node2 -->
<g id="edge49" class="edge">
<title>Node27&#45;&gt;Node2</title>
<path fill="none" stroke="midnightblue" d="M1128.12,-235.5C1147.28,-228.61 1171.19,-217.04 1186,-199 1197.96,-184.42 1202.78,-163.09 1204.71,-147.72"/>
<polygon fill="midnightblue" stroke="midnightblue" points="1208.24,-147.61 1205.7,-137.33 1201.27,-146.95 1208.24,-147.61"/>
</g>
<!-- Node27&#45;&gt;Node4 -->
<g id="edge57" class="edge">
<title>Node27&#45;&gt;Node4</title>
<path fill="none" stroke="midnightblue" d="M1057.94,-235.48C1023.84,-227.31 978.7,-214.03 968,-199 952.76,-177.6 981.1,-155.6 1004.79,-142"/>
<polygon fill="midnightblue" stroke="midnightblue" points="1006.76,-144.91 1013.86,-137.04 1003.41,-138.76 1006.76,-144.91"/>
</g>
<!-- Node27&#45;&gt;Node5 -->
<g id="edge48" class="edge">
<title>Node27&#45;&gt;Node5</title>
<path fill="none" stroke="midnightblue" d="M1046.67,-238.03C1018.06,-232.29 983.56,-221.04 960,-199 927.19,-168.31 914.25,-114.57 909.5,-86.05"/>
<polygon fill="midnightblue" stroke="midnightblue" points="912.91,-85.19 907.98,-75.82 905.99,-86.23 912.91,-85.19"/>
</g>
<!-- Node27&#45;&gt;Node7 -->
<g id="edge52" class="edge">
<title>Node27&#45;&gt;Node7</title>
<path fill="none" stroke="midnightblue" d="M1149.33,-238.43C1236.39,-228.74 1404.44,-208.87 1413,-199 1428.37,-181.27 1432.87,-134.56 1365,-56 1352.69,-41.76 1334.71,-31.02 1319.01,-23.61"/>
<polygon fill="midnightblue" stroke="midnightblue" points="1320.16,-20.29 1309.6,-19.43 1317.32,-26.69 1320.16,-20.29"/>
</g>
<!-- Node27&#45;&gt;Node9 -->
<g id="edge58" class="edge">
<title>Node27&#45;&gt;Node9</title>
<path fill="none" stroke="midnightblue" d="M1133.14,-235.48C1155.89,-228.59 1185.06,-217.01 1206,-199 1243.29,-166.93 1268.23,-112.99 1279.36,-85.03"/>
<polygon fill="midnightblue" stroke="midnightblue" points="1282.64,-86.27 1282.95,-75.68 1276.1,-83.76 1282.64,-86.27"/>
</g>
<!-- Node28 -->
<g id="node28" class="node">
<title>Node28</title>
<g id="a_node28"><a xlink:title=" ">
<polygon fill="white" stroke="#bfbfbf" points="977,-179.5 977,-198.5 1033,-198.5 1033,-179.5 977,-179.5"/>
<text text-anchor="middle" x="1005" y="-186.5" font-family="Helvetica,sans-Serif" font-size="10.00">numeric</text>
</a>
</g>
</g>
<!-- Node27&#45;&gt;Node28 -->
<g id="edge50" class="edge">
<title>Node27&#45;&gt;Node28</title>
<path fill="none" stroke="midnightblue" d="M1083.06,-235.32C1068.41,-226.82 1045.87,-213.73 1028.76,-203.8"/>
<polygon fill="midnightblue" stroke="midnightblue" points="1030.31,-200.65 1019.9,-198.65 1026.8,-206.7 1030.31,-200.65"/>
</g>
<!-- Node29 -->
<g id="node29" class="node">
<title>Node29</title>
<g id="a_node29"><a xlink:title=" ">
<polygon fill="white" stroke="#bfbfbf" points="1051.5,-179.5 1051.5,-198.5 1108.5,-198.5 1108.5,-179.5 1051.5,-179.5"/>
<text text-anchor="middle" x="1080" y="-186.5" font-family="Helvetica,sans-Serif" font-size="10.00">ostream</text>
</a>
</g>
</g>
<!-- Node27&#45;&gt;Node29 -->
<g id="edge51" class="edge">
<title>Node27&#45;&gt;Node29</title>
<path fill="none" stroke="midnightblue" d="M1095.03,-235.08C1092.62,-227.85 1089.14,-217.41 1086.13,-208.4"/>
<polygon fill="midnightblue" stroke="midnightblue" points="1089.4,-207.13 1082.92,-198.75 1082.76,-209.34 1089.4,-207.13"/>
</g>
<!-- Node30 -->
<g id="node30" class="node">
<title>Node30</title>
<g id="a_node30"><a xlink:href="../../d1/d80/BLAS_8h.html" target="_top" xlink:title=" ">
<polygon fill="white" stroke="black" points="1126.5,-179.5 1126.5,-198.5 1177.5,-198.5 1177.5,-179.5 1126.5,-179.5"/>
<text text-anchor="middle" x="1152" y="-186.5" font-family="Helvetica,sans-Serif" font-size="10.00">BLAS.h</text>
</a>
</g>
</g>
<!-- Node27&#45;&gt;Node30 -->
<g id="edge53" class="edge">
<title>Node27&#45;&gt;Node30</title>
<path fill="none" stroke="midnightblue" d="M1106.92,-235.08C1114.78,-227.22 1126.43,-215.57 1135.92,-206.08"/>
<polygon fill="midnightblue" stroke="midnightblue" points="1138.65,-208.3 1143.25,-198.75 1133.7,-203.35 1138.65,-208.3"/>
</g>
<!-- Node30&#45;&gt;Node2 -->
<g id="edge54" class="edge">
<title>Node30&#45;&gt;Node2</title>
<path fill="none" stroke="midnightblue" d="M1159.74,-179.48C1168,-170.37 1181.28,-155.74 1191.49,-144.48"/>
<polygon fill="midnightblue" stroke="midnightblue" points="1194.15,-146.77 1198.28,-137.01 1188.97,-142.06 1194.15,-146.77"/>
</g>
<!-- Node30&#45;&gt;Node4 -->
<g id="edge55" class="edge">
<title>Node30&#45;&gt;Node4</title>
<path fill="none" stroke="midnightblue" d="M1134.81,-179.48C1114.76,-169.53 1081.4,-152.99 1058.14,-141.46"/>
<polygon fill="midnightblue" stroke="midnightblue" points="1059.68,-138.32 1049.16,-137.01 1056.57,-144.59 1059.68,-138.32"/>
</g>
<!-- Node30&#45;&gt;Node9 -->
<g id="edge56" class="edge">
<title>Node30&#45;&gt;Node9</title>
<path fill="none" stroke="midnightblue" d="M1152.01,-179.31C1152.48,-163.85 1155.64,-131.37 1173,-112 1187.59,-95.72 1208.87,-85.24 1229.04,-78.54"/>
<polygon fill="midnightblue" stroke="midnightblue" points="1230.28,-81.82 1238.81,-75.55 1228.23,-75.13 1230.28,-81.82"/>
</g>
<!-- Node33&#45;&gt;Node4 -->
<g id="edge66" class="edge">
<title>Node33&#45;&gt;Node4</title>
<path fill="none" stroke="midnightblue" d="M1310.44,-179.48C1251.91,-168.76 1151.52,-150.38 1088.62,-138.87"/>
<polygon fill="midnightblue" stroke="midnightblue" points="1088.95,-135.37 1078.48,-137.01 1087.68,-142.25 1088.95,-135.37"/>
</g>
<!-- Node33&#45;&gt;Node9 -->
<g id="edge67" class="edge">
<title>Node33&#45;&gt;Node9</title>
<path fill="none" stroke="midnightblue" d="M1351.89,-179.3C1340.28,-159.5 1311.69,-110.78 1296.26,-84.49"/>
<polygon fill="midnightblue" stroke="midnightblue" points="1299.14,-82.48 1291.06,-75.62 1293.1,-86.02 1299.14,-82.48"/>
</g>
<!-- Node33&#45;&gt;Node18 -->
<g id="edge65" class="edge">
<title>Node33&#45;&gt;Node18</title>
<path fill="none" stroke="midnightblue" d="M1309.86,-183.45C1192.36,-172.12 888.1,-142.78 779.36,-132.3"/>
<polygon fill="midnightblue" stroke="midnightblue" points="779.45,-128.79 769.16,-131.31 778.78,-135.76 779.45,-128.79"/>
</g>
<!-- Node33&#45;&gt;Node24 -->
<g id="edge64" class="edge">
<title>Node33&#45;&gt;Node24</title>
<path fill="none" stroke="midnightblue" d="M1371.33,-179.48C1387.66,-169.75 1414.6,-153.73 1433.91,-142.24"/>
<polygon fill="midnightblue" stroke="midnightblue" points="1435.89,-145.13 1442.7,-137.01 1432.32,-139.11 1435.89,-145.13"/>
</g>
</g>
</svg>
        <g id="navigator" transform="translate(0 0)" fill="#404254">
                <rect fill="#f2f5e9" fill-opacity="0.5" stroke="#606060" stroke-width=".5" x="0" y="0" width="60" height="60"/>
                <use id="zoomplus" xlink:href="#zoomPlus" x="17" y="9" onmousedown="handleZoom(evt,'in')"/>
                <use id="zoomminus" xlink:href="#zoomMin" x="42" y="9" onmousedown="handleZoom(evt,'out')"/>
                <use id="reset" xlink:href="#resetDef" x="30" y="36" onmousedown="handleReset()"/>
                <g id="arrowUp" xlink:href="#dirArrow" transform="translate(30 24)" onmousedown="handlePan(0,-1)">
                  <use xlink:href="#rim" fill="#404040">
                        <set attributeName="fill" to="#808080" begin="arrowUp.mouseover" end="arrowUp.mouseout"/>
                  </use>
                  <path fill="none" stroke="white" stroke-width="1.5" d="M0,-3.0v7 M-2.5,-0.5L0,-3.0L2.5,-0.5"/>
                </g>
                <g id="arrowRight" xlink:href="#dirArrow" transform="rotate(90) translate(36 -43)" onmousedown="handlePan(1,0)">
                  <use xlink:href="#rim" fill="#404040">
                        <set attributeName="fill" to="#808080" begin="arrowRight.mouseover" end="arrowRight.mouseout"/>
                  </use>
                  <path fill="none" stroke="white" stroke-width="1.5" d="M0,-3.0v7 M-2.5,-0.5L0,-3.0L2.5,-0.5"/>
                </g>
                <g id="arrowDown" xlink:href="#dirArrow" transform="rotate(180) translate(-30 -48)" onmousedown="handlePan(0,1)">
                  <use xlink:href="#rim" fill="#404040">
                        <set attributeName="fill" to="#808080" begin="arrowDown.mouseover" end="arrowDown.mouseout"/>
                  </use>
                  <path fill="none" stroke="white" stroke-width="1.5" d="M0,-3.0v7 M-2.5,-0.5L0,-3.0L2.5,-0.5"/>
                </g>
                <g id="arrowLeft" xlink:href="#dirArrow" transform="rotate(270) translate(-36 17)" onmousedown="handlePan(-1,0)">
                  <use xlink:href="#rim" fill="#404040">
                        <set attributeName="fill" to="#808080" begin="arrowLeft.mouseover" end="arrowLeft.mouseout"/>
                  </use>
                  <path fill="none" stroke="white" stroke-width="1.5" d="M0,-3.0v7 M-2.5,-0.5L0,-3.0L2.5,-0.5"/>
                </g>
        </g>
        <svg viewBox="0 0 15 15" width="100%" height="30px" preserveAspectRatio="xMaxYMin meet">
         <g id="arrow_out" transform="scale(0.3 0.3)">
          <a xlink:href="labs_2outlab4_2Compute_8h__incl_org.svg" target="_base">
           <rect id="button" ry="5" rx="5" y="6" x="6" height="38" width="38"
                fill="#f2f5e9" fill-opacity="0.5" stroke="#606060" stroke-width="1.0"/>
           <path id="arrow"
             d="M 11.500037,31.436501 C 11.940474,20.09759 22.043105,11.32322 32.158766,21.979434 L 37.068811,17.246167 C 37.068811,17.246167 37.088388,32 37.088388,32 L 22.160133,31.978069 C 22.160133,31.978069 26.997745,27.140456 26.997745,27.140456 C 18.528582,18.264221 13.291696,25.230495 11.500037,31.436501 z"
             style="fill:#404040;"/>
          </a>
         </g>
        </svg>
</svg>
