<?xml version="1.0" encoding="UTF-8" standalone="no"?>
<!DOCTYPE svg PUBLIC "-//W3C//DTD SVG 1.1//EN"
 "http://www.w3.org/Graphics/SVG/1.1/DTD/svg11.dtd">
<!-- Generated by graphviz version 2.43.0 (0)
 -->
<!-- Title: src/labs/inlab1/Parser.h Pages: 1 -->
<!--zoomable 487 -->
<svg id="main" version="1.1" xmlns="http://www.w3.org/2000/svg" xmlns:xlink="http://www.w3.org/1999/xlink" xml:space="preserve" onload="init(evt)">
<style type="text/css"><![CDATA[
.edge:hover path { stroke: red; }
.edge:hover polygon { stroke: red; fill: red; }
]]></style>
<script type="text/javascript"><![CDATA[
var edges = document.getElementsByTagName('g');
if (edges && edges.length) {
  for (var i=0;i<edges.length;i++) {
    if (edges[i].id.substr(0,4)=='edge') {
      edges[i].setAttribute('class','edge');
    }
  }
}
]]></script>
        <defs>
                <circle id="rim" cx="0" cy="0" r="7"/>
                <circle id="rim2" cx="0" cy="0" r="3.5"/>
                <g id="zoomPlus">
                        <use xlink:href="#rim" fill="#404040">
                                <set attributeName="fill" to="#808080" begin="zoomplus.mouseover" end="zoomplus.mouseout"/>
                        </use>
                        <path d="M-4,0h8M0,-4v8" fill="none" stroke="white" stroke-width="1.5" pointer-events="none"/>
                </g>
                <g id="zoomMin">
                        <use xlink:href="#rim" fill="#404040">
                                <set attributeName="fill" to="#808080" begin="zoomminus.mouseover" end="zoomminus.mouseout"/>
                        </use>
                        <path d="M-4,0h8" fill="none" stroke="white" stroke-width="1.5" pointer-events="none"/>
                </g>
                <g id="dirArrow">
                        <path fill="none" stroke="white" stroke-width="1.5" d="M0,-3.0v7 M-2.5,-0.5L0,-3.0L2.5,-0.5"/>
                </g>
               <g id="resetDef">
                       <use xlink:href="#rim2" fill="#404040">
                               <set attributeName="fill" to="#808080" begin="reset.mouseover" end="reset.mouseout"/>
                       </use>
               </g>
        </defs>

<script type="text/javascript">
var viewWidth = 1343;
var viewHeight = 487;
var sectionId = 'dynsection-0';
</script>
<script xlink:href="../../svgpan.js"/>
<svg id="graph" class="graph">
<g id="viewport">
<title>src/labs/inlab1/Parser.h</title>
<polygon fill="white" stroke="transparent" points="-4,4 -4,-483 1338.71,-483 1338.71,4 -4,4"/>
<!-- Node1 -->
<g id="node1" class="node">
<title>Node1</title>
<g id="a_node1"><a xlink:title=" ">
<polygon fill="#bfbfbf" stroke="black" points="403,-459.5 403,-478.5 531,-478.5 531,-459.5 403,-459.5"/>
<text text-anchor="middle" x="467" y="-466.5" font-family="Helvetica,sans-Serif" font-size="10.00">src/labs/inlab1/Parser.h</text>
</a>
</g>
</g>
<!-- Node2 -->
<g id="node2" class="node">
<title>Node2</title>
<g id="a_node2"><a xlink:href="../../d0/d7d/CheckBounds_8h.html" target="_top" xlink:title="This file contains the declaration of functions for checking the validity of input parameters.">
<polygon fill="white" stroke="black" points="496,-403.5 496,-422.5 588,-422.5 588,-403.5 496,-403.5"/>
<text text-anchor="middle" x="542" y="-410.5" font-family="Helvetica,sans-Serif" font-size="10.00">CheckBounds.h</text>
</a>
</g>
</g>
<!-- Node1&#45;&gt;Node2 -->
<g id="edge1" class="edge">
<title>Node1&#45;&gt;Node2</title>
<path fill="none" stroke="midnightblue" d="M479.05,-459.32C490.46,-451.11 507.83,-438.6 521.43,-428.81"/>
<polygon fill="midnightblue" stroke="midnightblue" points="523.66,-431.52 529.73,-422.83 519.57,-425.84 523.66,-431.52"/>
</g>
<!-- Node7 -->
<g id="node7" class="node">
<title>Node7</title>
<g id="a_node7"><a xlink:href="../../d9/d41/CommandLine_8h.html" target="_top" xlink:title="This file contains the definition of the CommandLine class and the HeaderInfo struct.">
<polygon fill="white" stroke="black" points="419,-347.5 419,-366.5 515,-366.5 515,-347.5 419,-347.5"/>
<text text-anchor="middle" x="467" y="-354.5" font-family="Helvetica,sans-Serif" font-size="10.00">CommandLine.h</text>
</a>
</g>
</g>
<!-- Node1&#45;&gt;Node7 -->
<g id="edge55" class="edge">
<title>Node1&#45;&gt;Node7</title>
<path fill="none" stroke="midnightblue" d="M467,-459.37C467,-441.62 467,-400.67 467,-376.6"/>
<polygon fill="midnightblue" stroke="midnightblue" points="470.5,-376.59 467,-366.59 463.5,-376.59 470.5,-376.59"/>
</g>
<!-- Node10 -->
<g id="node10" class="node">
<title>Node10</title>
<g id="a_node10"><a xlink:href="../../db/df1/Helpers_8h.html" target="_top" xlink:title="This file contains helper functions and structures used throughout the program.">
<polygon fill="white" stroke="black" points="165.5,-291.5 165.5,-310.5 228.5,-310.5 228.5,-291.5 165.5,-291.5"/>
<text text-anchor="middle" x="197" y="-298.5" font-family="Helvetica,sans-Serif" font-size="10.00">Helpers.h</text>
</a>
</g>
</g>
<!-- Node1&#45;&gt;Node10 -->
<g id="edge56" class="edge">
<title>Node1&#45;&gt;Node10</title>
<path fill="none" stroke="midnightblue" d="M412.9,-459.49C357.02,-447.96 270.86,-422.09 219,-367 207.14,-354.41 201.66,-335.19 199.13,-320.91"/>
<polygon fill="midnightblue" stroke="midnightblue" points="202.56,-320.15 197.68,-310.74 195.63,-321.14 202.56,-320.15"/>
</g>
<!-- Node3 -->
<g id="node3" class="node">
<title>Node3</title>
<g id="a_node3"><a xlink:title=" ">
<polygon fill="white" stroke="#bfbfbf" points="468,-230 468,-249 618,-249 618,-230 468,-230"/>
<text text-anchor="middle" x="543" y="-237" font-family="Helvetica,sans-Serif" font-size="10.00">boost/program_options.hpp</text>
</a>
</g>
</g>
<!-- Node2&#45;&gt;Node3 -->
<g id="edge2" class="edge">
<title>Node2&#45;&gt;Node3</title>
<path fill="none" stroke="midnightblue" d="M542.05,-403.26C542.21,-376.65 542.68,-296.21 542.89,-259.34"/>
<polygon fill="midnightblue" stroke="midnightblue" points="546.39,-259.04 542.95,-249.02 539.39,-259 546.39,-259.04"/>
</g>
<!-- Node4 -->
<g id="node4" class="node">
<title>Node4</title>
<g id="a_node4"><a xlink:title=" ">
<polygon fill="white" stroke="#bfbfbf" points="828,-0.5 828,-19.5 888,-19.5 888,-0.5 828,-0.5"/>
<text text-anchor="middle" x="858" y="-7.5" font-family="Helvetica,sans-Serif" font-size="10.00">iostream</text>
</a>
</g>
</g>
<!-- Node2&#45;&gt;Node4 -->
<g id="edge3" class="edge">
<title>Node2&#45;&gt;Node4</title>
<path fill="none" stroke="midnightblue" d="M588.07,-410.25C753.25,-403.38 1306,-374.95 1306,-302 1306,-302 1306,-302 1306,-121 1306,-45.07 1221.14,-76.41 1148,-56 1101.79,-43.11 966.62,-24.83 898.39,-16.07"/>
<polygon fill="midnightblue" stroke="midnightblue" points="898.79,-12.59 888.43,-14.8 897.91,-19.53 898.79,-12.59"/>
</g>
<!-- Node5 -->
<g id="node5" class="node">
<title>Node5</title>
<g id="a_node5"><a xlink:title=" ">
<polygon fill="white" stroke="#bfbfbf" points="224,-0.5 224,-19.5 280,-19.5 280,-0.5 224,-0.5"/>
<text text-anchor="middle" x="252" y="-7.5" font-family="Helvetica,sans-Serif" font-size="10.00">iomanip</text>
</a>
</g>
</g>
<!-- Node2&#45;&gt;Node5 -->
<g id="edge4" class="edge">
<title>Node2&#45;&gt;Node5</title>
<path fill="none" stroke="midnightblue" d="M495.79,-412.39C364.72,-412.25 0,-402.82 0,-302 0,-302 0,-302 0,-121 0,-29.05 142.66,-13.2 213.3,-10.98"/>
<polygon fill="midnightblue" stroke="midnightblue" points="213.67,-14.47 223.58,-10.74 213.5,-7.48 213.67,-14.47"/>
</g>
<!-- Node6 -->
<g id="node6" class="node">
<title>Node6</title>
<g id="a_node6"><a xlink:title=" ">
<polygon fill="white" stroke="#bfbfbf" points="368,-230 368,-249 412,-249 412,-230 368,-230"/>
<text text-anchor="middle" x="390" y="-237" font-family="Helvetica,sans-Serif" font-size="10.00">limits</text>
</a>
</g>
</g>
<!-- Node2&#45;&gt;Node6 -->
<g id="edge5" class="edge">
<title>Node2&#45;&gt;Node6</title>
<path fill="none" stroke="midnightblue" d="M495.75,-409.9C433.38,-404.26 324.53,-383.88 276,-311 271.07,-303.6 271.15,-298.45 276,-291 278.47,-287.2 326.6,-266.72 359.53,-253.03"/>
<polygon fill="midnightblue" stroke="midnightblue" points="361.29,-256.09 369.19,-249.03 358.61,-249.62 361.29,-256.09"/>
</g>
<!-- Node2&#45;&gt;Node7 -->
<g id="edge6" class="edge">
<title>Node2&#45;&gt;Node7</title>
<path fill="none" stroke="midnightblue" d="M529.95,-403.32C518.54,-395.11 501.17,-382.6 487.57,-372.81"/>
<polygon fill="midnightblue" stroke="midnightblue" points="489.43,-369.84 479.27,-366.83 485.34,-375.52 489.43,-369.84"/>
</g>
<!-- Node9 -->
<g id="node9" class="node">
<title>Node9</title>
<g id="a_node9"><a xlink:title=" ">
<polygon fill="white" stroke="#bfbfbf" points="636,-230 636,-249 694,-249 694,-230 636,-230"/>
<text text-anchor="middle" x="665" y="-237" font-family="Helvetica,sans-Serif" font-size="10.00">json.hpp</text>
</a>
</g>
</g>
<!-- Node2&#45;&gt;Node9 -->
<g id="edge54" class="edge">
<title>Node2&#45;&gt;Node9</title>
<path fill="none" stroke="midnightblue" d="M574.41,-403.42C614.93,-390.76 682.54,-362.77 712,-311 723.32,-291.11 703.53,-269.37 686.26,-255.36"/>
<polygon fill="midnightblue" stroke="midnightblue" points="688.2,-252.44 678.13,-249.15 683.95,-258 688.2,-252.44"/>
</g>
<!-- Node2&#45;&gt;Node10 -->
<g id="edge53" class="edge">
<title>Node2&#45;&gt;Node10</title>
<path fill="none" stroke="midnightblue" d="M495.89,-409.45C422.82,-404.69 284.45,-392.54 243,-367 225.21,-356.04 212.4,-335.37 204.88,-320.27"/>
<polygon fill="midnightblue" stroke="midnightblue" points="207.91,-318.49 200.53,-310.9 201.56,-321.44 207.91,-318.49"/>
</g>
<!-- Node7&#45;&gt;Node3 -->
<g id="edge50" class="edge">
<title>Node7&#45;&gt;Node3</title>
<path fill="none" stroke="midnightblue" d="M472.71,-347.32C485.2,-328.34 515.13,-282.85 531.62,-257.79"/>
<polygon fill="midnightblue" stroke="midnightblue" points="534.65,-259.56 537.22,-249.28 528.8,-255.71 534.65,-259.56"/>
</g>
<!-- Node7&#45;&gt;Node4 -->
<g id="edge51" class="edge">
<title>Node7&#45;&gt;Node4</title>
<path fill="none" stroke="midnightblue" d="M464.7,-347.23C458.17,-321.56 440,-244.28 440,-179 440,-179 440,-179 440,-121 440,-43.37 713.02,-19.37 817.76,-13.02"/>
<polygon fill="midnightblue" stroke="midnightblue" points="818.16,-16.5 827.94,-12.43 817.75,-9.52 818.16,-16.5"/>
</g>
<!-- Node8 -->
<g id="node8" class="node">
<title>Node8</title>
<g id="a_node8"><a xlink:href="../../d2/d0e/CommandlineHelpers_8h.html" target="_top" xlink:title="This file contains helper functions for handling command line options and initializing the profiler.">
<polygon fill="white" stroke="black" points="571.5,-291.5 571.5,-310.5 702.5,-310.5 702.5,-291.5 571.5,-291.5"/>
<text text-anchor="middle" x="637" y="-298.5" font-family="Helvetica,sans-Serif" font-size="10.00">CommandlineHelpers.h</text>
</a>
</g>
</g>
<!-- Node7&#45;&gt;Node8 -->
<g id="edge7" class="edge">
<title>Node7&#45;&gt;Node8</title>
<path fill="none" stroke="midnightblue" d="M493.94,-347.44C522.66,-338.32 568.33,-323.81 600.32,-313.65"/>
<polygon fill="midnightblue" stroke="midnightblue" points="601.72,-316.88 610.19,-310.52 599.6,-310.21 601.72,-316.88"/>
</g>
<!-- Node7&#45;&gt;Node10 -->
<g id="edge11" class="edge">
<title>Node7&#45;&gt;Node10</title>
<path fill="none" stroke="midnightblue" d="M424.22,-347.44C373.3,-337.26 288.86,-320.37 238.51,-310.3"/>
<polygon fill="midnightblue" stroke="midnightblue" points="239.11,-306.85 228.61,-308.32 237.73,-313.72 239.11,-306.85"/>
</g>
<!-- Node13 -->
<g id="node13" class="node">
<title>Node13</title>
<g id="a_node13"><a xlink:href="../../df/d69/Profiler_8h.html" target="_top" xlink:title="This file contains the Profiler class which is used to profile the execution time of a function.">
<polygon fill="white" stroke="black" points="822.5,-291.5 822.5,-310.5 881.5,-310.5 881.5,-291.5 822.5,-291.5"/>
<text text-anchor="middle" x="852" y="-298.5" font-family="Helvetica,sans-Serif" font-size="10.00">Profiler.h</text>
</a>
</g>
</g>
<!-- Node7&#45;&gt;Node13 -->
<g id="edge19" class="edge">
<title>Node7&#45;&gt;Node13</title>
<path fill="none" stroke="midnightblue" d="M515.37,-349.22C592.21,-338.44 740.74,-317.61 811.98,-307.61"/>
<polygon fill="midnightblue" stroke="midnightblue" points="812.9,-311.02 822.32,-306.16 811.93,-304.09 812.9,-311.02"/>
</g>
<!-- Node29 -->
<g id="node29" class="node">
<title>Node29</title>
<g id="a_node29"><a xlink:title=" ">
<polygon fill="white" stroke="#bfbfbf" points="285,-291.5 285,-310.5 377,-310.5 377,-291.5 285,-291.5"/>
<text text-anchor="middle" x="331" y="-298.5" font-family="Helvetica,sans-Serif" font-size="10.00">project&#45;config.h</text>
</a>
</g>
</g>
<!-- Node7&#45;&gt;Node29 -->
<g id="edge49" class="edge">
<title>Node7&#45;&gt;Node29</title>
<path fill="none" stroke="midnightblue" d="M445.45,-347.44C422.97,-338.52 387.51,-324.44 362.02,-314.32"/>
<polygon fill="midnightblue" stroke="midnightblue" points="363.03,-310.95 352.45,-310.52 360.45,-317.46 363.03,-310.95"/>
</g>
<!-- Node30 -->
<g id="node30" class="node">
<title>Node30</title>
<g id="a_node30"><a xlink:title=" ">
<polygon fill="white" stroke="#bfbfbf" points="395,-291.5 395,-310.5 439,-310.5 439,-291.5 395,-291.5"/>
<text text-anchor="middle" x="417" y="-298.5" font-family="Helvetica,sans-Serif" font-size="10.00">string</text>
</a>
</g>
</g>
<!-- Node7&#45;&gt;Node30 -->
<g id="edge52" class="edge">
<title>Node7&#45;&gt;Node30</title>
<path fill="none" stroke="midnightblue" d="M458.74,-347.08C451.54,-339.3 440.89,-327.8 432.15,-318.37"/>
<polygon fill="midnightblue" stroke="midnightblue" points="434.47,-315.71 425.1,-310.75 429.33,-320.47 434.47,-315.71"/>
</g>
<!-- Node8&#45;&gt;Node2 -->
<g id="edge8" class="edge">
<title>Node8&#45;&gt;Node2</title>
<path fill="none" stroke="midnightblue" d="M629.58,-310.59C613.79,-328.87 576.66,-371.87 556.18,-395.59"/>
<polygon fill="midnightblue" stroke="midnightblue" points="553.34,-393.51 549.45,-403.37 558.64,-398.09 553.34,-393.51"/>
</g>
<!-- Node8&#45;&gt;Node3 -->
<g id="edge10" class="edge">
<title>Node8&#45;&gt;Node3</title>
<path fill="none" stroke="midnightblue" d="M623.53,-291.48C608.32,-281.84 583.31,-266.02 565.2,-254.55"/>
<polygon fill="midnightblue" stroke="midnightblue" points="566.76,-251.4 556.44,-249.01 563.02,-257.31 566.76,-251.4"/>
</g>
<!-- Node8&#45;&gt;Node9 -->
<g id="edge9" class="edge">
<title>Node8&#45;&gt;Node9</title>
<path fill="none" stroke="midnightblue" d="M641.01,-291.48C645.09,-282.82 651.52,-269.15 656.7,-258.15"/>
<polygon fill="midnightblue" stroke="midnightblue" points="659.9,-259.55 661,-249.01 653.57,-256.57 659.9,-259.55"/>
</g>
<!-- Node10&#45;&gt;Node3 -->
<g id="edge16" class="edge">
<title>Node10&#45;&gt;Node3</title>
<path fill="none" stroke="midnightblue" d="M228.62,-294.56C286.3,-284.64 409.43,-263.47 483.32,-250.76"/>
<polygon fill="midnightblue" stroke="midnightblue" points="484.15,-254.17 493.41,-249.03 482.96,-247.27 484.15,-254.17"/>
</g>
<!-- Node10&#45;&gt;Node4 -->
<g id="edge13" class="edge">
<title>Node10&#45;&gt;Node4</title>
<path fill="none" stroke="midnightblue" d="M228.76,-294.93C255.71,-289.22 294.01,-277.61 320,-255 395.6,-189.22 342.88,-111.97 426,-56 489.38,-13.33 723.13,-10.02 817.8,-10.49"/>
<polygon fill="midnightblue" stroke="midnightblue" points="817.82,-13.99 827.84,-10.56 817.86,-6.99 817.82,-13.99"/>
</g>
<!-- Node10&#45;&gt;Node5 -->
<g id="edge12" class="edge">
<title>Node10&#45;&gt;Node5</title>
<path fill="none" stroke="midnightblue" d="M193.69,-291.34C186.48,-271.69 170,-222.05 170,-179 170,-179 170,-179 170,-121 170,-80.27 206.59,-44.87 230.88,-25.86"/>
<polygon fill="midnightblue" stroke="midnightblue" points="233.3,-28.42 239.19,-19.61 229.09,-22.82 233.3,-28.42"/>
</g>
<!-- Node10&#45;&gt;Node6 -->
<g id="edge14" class="edge">
<title>Node10&#45;&gt;Node6</title>
<path fill="none" stroke="midnightblue" d="M228.58,-291.98C260.49,-283.64 311.1,-269.74 354,-255 356.12,-254.27 358.3,-253.49 360.49,-252.67"/>
<polygon fill="midnightblue" stroke="midnightblue" points="361.9,-255.88 369.96,-249 359.37,-249.35 361.9,-255.88"/>
</g>
<!-- Node10&#45;&gt;Node9 -->
<g id="edge15" class="edge">
<title>Node10&#45;&gt;Node9</title>
<path fill="none" stroke="midnightblue" d="M228.51,-296.33C242.98,-294.66 260.35,-292.69 276,-291 431.91,-274.12 474.43,-291.26 627,-255 629.99,-254.29 633.07,-253.4 636.12,-252.41"/>
<polygon fill="midnightblue" stroke="midnightblue" points="637.35,-255.69 645.59,-249.03 634.99,-249.1 637.35,-255.69"/>
</g>
<!-- Node11 -->
<g id="node11" class="node">
<title>Node11</title>
<g id="a_node11"><a xlink:title=" ">
<polygon fill="white" stroke="#bfbfbf" points="198.5,-224.5 198.5,-254.5 311.5,-254.5 311.5,-224.5 198.5,-224.5"/>
<text text-anchor="start" x="206.5" y="-242.5" font-family="Helvetica,sans-Serif" font-size="10.00">boost/accumulators</text>
<text text-anchor="middle" x="255" y="-231.5" font-family="Helvetica,sans-Serif" font-size="10.00">/accumulators.hpp</text>
</a>
</g>
</g>
<!-- Node10&#45;&gt;Node11 -->
<g id="edge17" class="edge">
<title>Node10&#45;&gt;Node11</title>
<path fill="none" stroke="midnightblue" d="M205.31,-291.48C212.8,-283.79 224.13,-272.17 234.08,-261.96"/>
<polygon fill="midnightblue" stroke="midnightblue" points="236.86,-264.13 241.33,-254.52 231.84,-259.24 236.86,-264.13"/>
</g>
<!-- Node12 -->
<g id="node12" class="node">
<title>Node12</title>
<g id="a_node12"><a xlink:title=" ">
<polygon fill="white" stroke="#bfbfbf" points="28.5,-224.5 28.5,-254.5 141.5,-254.5 141.5,-224.5 28.5,-224.5"/>
<text text-anchor="start" x="36.5" y="-242.5" font-family="Helvetica,sans-Serif" font-size="10.00">boost/accumulators</text>
<text text-anchor="middle" x="85" y="-231.5" font-family="Helvetica,sans-Serif" font-size="10.00">/statistics.hpp</text>
</a>
</g>
</g>
<!-- Node10&#45;&gt;Node12 -->
<g id="edge18" class="edge">
<title>Node10&#45;&gt;Node12</title>
<path fill="none" stroke="midnightblue" d="M180.95,-291.48C165.22,-283.12 140.7,-270.09 120.39,-259.3"/>
<polygon fill="midnightblue" stroke="midnightblue" points="121.87,-256.12 111.4,-254.52 118.59,-262.31 121.87,-256.12"/>
</g>
<!-- Node13&#45;&gt;Node2 -->
<g id="edge26" class="edge">
<title>Node13&#45;&gt;Node2</title>
<path fill="none" stroke="midnightblue" d="M840.79,-310.54C822,-324.44 782.51,-351.93 745,-367 697.19,-386.21 639.59,-397.99 597.98,-404.65"/>
<polygon fill="midnightblue" stroke="midnightblue" points="597.37,-401.2 588.02,-406.19 598.44,-408.12 597.37,-401.2"/>
</g>
<!-- Node13&#45;&gt;Node4 -->
<g id="edge23" class="edge">
<title>Node13&#45;&gt;Node4</title>
<path fill="none" stroke="midnightblue" d="M881.63,-298.57C969.03,-294.08 1221.44,-279.14 1249,-255 1275.19,-232.06 1268,-213.82 1268,-179 1268,-179 1268,-179 1268,-121 1268,-82.97 1001.46,-34.75 898.19,-17.5"/>
<polygon fill="midnightblue" stroke="midnightblue" points="898.59,-14.02 888.15,-15.84 897.44,-20.93 898.59,-14.02"/>
</g>
<!-- Node13&#45;&gt;Node5 -->
<g id="edge22" class="edge">
<title>Node13&#45;&gt;Node5</title>
<path fill="none" stroke="midnightblue" d="M825.23,-291.45C802.32,-283.58 768.88,-270.75 742,-255 722.9,-243.81 722.02,-235.34 703,-224 559.36,-138.31 505.41,-153.12 357,-76 326.84,-60.33 293.77,-39.14 272.95,-25.27"/>
<polygon fill="midnightblue" stroke="midnightblue" points="274.82,-22.31 264.57,-19.64 270.92,-28.12 274.82,-22.31"/>
</g>
<!-- Node13&#45;&gt;Node9 -->
<g id="edge29" class="edge">
<title>Node13&#45;&gt;Node9</title>
<path fill="none" stroke="midnightblue" d="M824.07,-291.47C795.01,-282.56 748.23,-268.07 708,-255 705.26,-254.11 702.43,-253.18 699.58,-252.24"/>
<polygon fill="midnightblue" stroke="midnightblue" points="700.57,-248.88 689.98,-249.03 698.36,-255.52 700.57,-248.88"/>
</g>
<!-- Node14 -->
<g id="node14" class="node">
<title>Node14</title>
<g id="a_node14"><a xlink:title=" ">
<polygon fill="white" stroke="#bfbfbf" points="1029.5,-230 1029.5,-249 1084.5,-249 1084.5,-230 1029.5,-230"/>
<text text-anchor="middle" x="1057" y="-237" font-family="Helvetica,sans-Serif" font-size="10.00">fstream</text>
</a>
</g>
</g>
<!-- Node13&#45;&gt;Node14 -->
<g id="edge20" class="edge">
<title>Node13&#45;&gt;Node14</title>
<path fill="none" stroke="midnightblue" d="M881.73,-293.1C915.54,-285.01 972.24,-270.7 1020,-255 1022.27,-254.25 1024.6,-253.45 1026.93,-252.6"/>
<polygon fill="midnightblue" stroke="midnightblue" points="1028.28,-255.84 1036.41,-249.04 1025.81,-249.29 1028.28,-255.84"/>
</g>
<!-- Node15 -->
<g id="node15" class="node">
<title>Node15</title>
<g id="a_node15"><a xlink:title=" ">
<polygon fill="white" stroke="#bfbfbf" points="1102.5,-230 1102.5,-249 1167.5,-249 1167.5,-230 1102.5,-230"/>
<text text-anchor="middle" x="1135" y="-237" font-family="Helvetica,sans-Serif" font-size="10.00">functional</text>
</a>
</g>
</g>
<!-- Node13&#45;&gt;Node15 -->
<g id="edge21" class="edge">
<title>Node13&#45;&gt;Node15</title>
<path fill="none" stroke="midnightblue" d="M881.76,-296C927.76,-289.46 1018.67,-275.19 1094,-255 1096.97,-254.2 1100.03,-253.3 1103.07,-252.33"/>
<polygon fill="midnightblue" stroke="midnightblue" points="1104.28,-255.62 1112.64,-249.12 1102.05,-248.98 1104.28,-255.62"/>
</g>
<!-- Node16 -->
<g id="node16" class="node">
<title>Node16</title>
<g id="a_node16"><a xlink:title=" ">
<polygon fill="white" stroke="#bfbfbf" points="1186,-230 1186,-249 1240,-249 1240,-230 1186,-230"/>
<text text-anchor="middle" x="1213" y="-237" font-family="Helvetica,sans-Serif" font-size="10.00">random</text>
</a>
</g>
</g>
<!-- Node13&#45;&gt;Node16 -->
<g id="edge24" class="edge">
<title>Node13&#45;&gt;Node16</title>
<path fill="none" stroke="midnightblue" d="M881.61,-298.33C939.31,-294.56 1070.49,-283.36 1177,-255 1179.51,-254.33 1182.07,-253.54 1184.63,-252.67"/>
<polygon fill="midnightblue" stroke="midnightblue" points="1186.1,-255.85 1194.24,-249.07 1183.65,-249.3 1186.1,-255.85"/>
</g>
<!-- Node17 -->
<g id="node17" class="node">
<title>Node17</title>
<g id="a_node17"><a xlink:title=" ">
<polygon fill="white" stroke="#bfbfbf" points="750.5,-230 750.5,-249 795.5,-249 795.5,-230 750.5,-230"/>
<text text-anchor="middle" x="773" y="-237" font-family="Helvetica,sans-Serif" font-size="10.00">utility</text>
</a>
</g>
</g>
<!-- Node13&#45;&gt;Node17 -->
<g id="edge25" class="edge">
<title>Node13&#45;&gt;Node17</title>
<path fill="none" stroke="midnightblue" d="M840.68,-291.48C828.13,-282.02 807.65,-266.6 792.5,-255.19"/>
<polygon fill="midnightblue" stroke="midnightblue" points="794.39,-252.23 784.3,-249.01 790.18,-257.82 794.39,-252.23"/>
</g>
<!-- Node18 -->
<g id="node18" class="node">
<title>Node18</title>
<g id="a_node18"><a xlink:href="../../d4/d2e/Stopwatch_8h.html" target="_top" xlink:title="This file contains the Stopwatch class which is a utility for measuring time durations in various uni...">
<polygon fill="white" stroke="black" points="813.5,-230 813.5,-249 890.5,-249 890.5,-230 813.5,-230"/>
<text text-anchor="middle" x="852" y="-237" font-family="Helvetica,sans-Serif" font-size="10.00">Stopwatch.h</text>
</a>
</g>
</g>
<!-- Node13&#45;&gt;Node18 -->
<g id="edge27" class="edge">
<title>Node13&#45;&gt;Node18</title>
<path fill="none" stroke="midnightblue" d="M852,-291.48C852,-283.08 852,-269.98 852,-259.16"/>
<polygon fill="midnightblue" stroke="midnightblue" points="855.5,-259.01 852,-249.01 848.5,-259.01 855.5,-259.01"/>
</g>
<!-- Node20 -->
<g id="node20" class="node">
<title>Node20</title>
<g id="a_node20"><a xlink:href="../../dc/d09/Stats_8h.html" target="_top" xlink:title="This file contains the declaration of statistical functions and structures for vectors and matrices.">
<polygon fill="white" stroke="black" points="909,-230 909,-249 1011,-249 1011,-230 909,-230"/>
<text text-anchor="middle" x="960" y="-237" font-family="Helvetica,sans-Serif" font-size="10.00">math/blas/Stats.h</text>
</a>
</g>
</g>
<!-- Node13&#45;&gt;Node20 -->
<g id="edge30" class="edge">
<title>Node13&#45;&gt;Node20</title>
<path fill="none" stroke="midnightblue" d="M867.47,-291.48C885.28,-281.67 914.74,-265.43 935.63,-253.92"/>
<polygon fill="midnightblue" stroke="midnightblue" points="937.49,-256.9 944.55,-249.01 934.11,-250.77 937.49,-256.9"/>
</g>
<!-- Node19 -->
<g id="node19" class="node">
<title>Node19</title>
<g id="a_node19"><a xlink:title=" ">
<polygon fill="white" stroke="#bfbfbf" points="709,-168.5 709,-187.5 759,-187.5 759,-168.5 709,-168.5"/>
<text text-anchor="middle" x="734" y="-175.5" font-family="Helvetica,sans-Serif" font-size="10.00">chrono</text>
</a>
</g>
</g>
<!-- Node18&#45;&gt;Node19 -->
<g id="edge28" class="edge">
<title>Node18&#45;&gt;Node19</title>
<path fill="none" stroke="midnightblue" d="M835.09,-229.98C815.47,-220.08 782.87,-203.64 760.01,-192.12"/>
<polygon fill="midnightblue" stroke="midnightblue" points="761.38,-188.89 750.88,-187.51 758.23,-195.14 761.38,-188.89"/>
</g>
<!-- Node21 -->
<g id="node21" class="node">
<title>Node21</title>
<g id="a_node21"><a xlink:title=" ">
<polygon fill="white" stroke="#bfbfbf" points="1025,-56.5 1025,-75.5 1089,-75.5 1089,-56.5 1025,-56.5"/>
<text text-anchor="middle" x="1057" y="-63.5" font-family="Helvetica,sans-Serif" font-size="10.00">algorithm</text>
</a>
</g>
</g>
<!-- Node20&#45;&gt;Node21 -->
<g id="edge31" class="edge">
<title>Node20&#45;&gt;Node21</title>
<path fill="none" stroke="midnightblue" d="M985.6,-229.93C1005.85,-221.97 1033.54,-208.25 1051,-188 1073.88,-161.46 1077.61,-146.59 1072,-112 1070.53,-102.96 1067.51,-93.28 1064.56,-85.22"/>
<polygon fill="midnightblue" stroke="midnightblue" points="1067.76,-83.79 1060.86,-75.75 1061.24,-86.34 1067.76,-83.79"/>
</g>
<!-- Node22 -->
<g id="node22" class="node">
<title>Node22</title>
<g id="a_node22"><a xlink:title=" ">
<polygon fill="white" stroke="#bfbfbf" points="1015.5,-112.5 1015.5,-131.5 1062.5,-131.5 1062.5,-112.5 1015.5,-112.5"/>
<text text-anchor="middle" x="1039" y="-119.5" font-family="Helvetica,sans-Serif" font-size="10.00">cmath</text>
</a>
</g>
</g>
<!-- Node20&#45;&gt;Node22 -->
<g id="edge32" class="edge">
<title>Node20&#45;&gt;Node22</title>
<path fill="none" stroke="midnightblue" d="M981.9,-229.92C999.23,-221.88 1022.4,-208.06 1034,-188 1042.06,-174.07 1042.71,-155.56 1041.69,-141.86"/>
<polygon fill="midnightblue" stroke="midnightblue" points="1045.14,-141.24 1040.57,-131.68 1038.19,-142.01 1045.14,-141.24"/>
</g>
<!-- Node23 -->
<g id="node23" class="node">
<title>Node23</title>
<g id="a_node23"><a xlink:title=" ">
<polygon fill="white" stroke="#bfbfbf" points="1119,-168.5 1119,-187.5 1175,-187.5 1175,-168.5 1119,-168.5"/>
<text text-anchor="middle" x="1147" y="-175.5" font-family="Helvetica,sans-Serif" font-size="10.00">numeric</text>
</a>
</g>
</g>
<!-- Node20&#45;&gt;Node23 -->
<g id="edge33" class="edge">
<title>Node20&#45;&gt;Node23</title>
<path fill="none" stroke="midnightblue" d="M986.79,-229.98C1019.29,-219.64 1074.21,-202.16 1110.54,-190.6"/>
<polygon fill="midnightblue" stroke="midnightblue" points="1111.79,-193.88 1120.26,-187.51 1109.67,-187.21 1111.79,-193.88"/>
</g>
<!-- Node24 -->
<g id="node24" class="node">
<title>Node24</title>
<g id="a_node24"><a xlink:title=" ">
<polygon fill="white" stroke="#bfbfbf" points="967.5,-168.5 967.5,-187.5 1024.5,-187.5 1024.5,-168.5 967.5,-168.5"/>
<text text-anchor="middle" x="996" y="-175.5" font-family="Helvetica,sans-Serif" font-size="10.00">ostream</text>
</a>
</g>
</g>
<!-- Node20&#45;&gt;Node24 -->
<g id="edge34" class="edge">
<title>Node20&#45;&gt;Node24</title>
<path fill="none" stroke="midnightblue" d="M965.16,-229.98C970.45,-221.23 978.84,-207.37 985.53,-196.31"/>
<polygon fill="midnightblue" stroke="midnightblue" points="988.67,-197.88 990.85,-187.51 982.68,-194.25 988.67,-197.88"/>
</g>
<!-- Node25 -->
<g id="node25" class="node">
<title>Node25</title>
<g id="a_node25"><a xlink:title=" ">
<polygon fill="white" stroke="#bfbfbf" points="938.5,-0.5 938.5,-19.5 985.5,-19.5 985.5,-0.5 938.5,-0.5"/>
<text text-anchor="middle" x="962" y="-7.5" font-family="Helvetica,sans-Serif" font-size="10.00">vector</text>
</a>
</g>
</g>
<!-- Node20&#45;&gt;Node25 -->
<g id="edge35" class="edge">
<title>Node20&#45;&gt;Node25</title>
<path fill="none" stroke="midnightblue" d="M995.46,-229.97C1003.83,-227.98 1012.72,-225.9 1021,-224 1093.31,-207.42 1117.3,-220.48 1184,-188 1259.73,-151.12 1375.72,-119.17 1320,-56 1298.71,-31.87 1080.99,-17.49 995.86,-12.75"/>
<polygon fill="midnightblue" stroke="midnightblue" points="995.86,-9.24 985.69,-12.19 995.48,-16.23 995.86,-9.24"/>
</g>
<!-- Node26 -->
<g id="node26" class="node">
<title>Node26</title>
<g id="a_node26"><a xlink:href="../../d1/d80/BLAS_8h.html" target="_top" xlink:title=" ">
<polygon fill="white" stroke="black" points="898.5,-168.5 898.5,-187.5 949.5,-187.5 949.5,-168.5 898.5,-168.5"/>
<text text-anchor="middle" x="924" y="-175.5" font-family="Helvetica,sans-Serif" font-size="10.00">BLAS.h</text>
</a>
</g>
</g>
<!-- Node20&#45;&gt;Node26 -->
<g id="edge36" class="edge">
<title>Node20&#45;&gt;Node26</title>
<path fill="none" stroke="midnightblue" d="M954.84,-229.98C949.55,-221.23 941.16,-207.37 934.47,-196.31"/>
<polygon fill="midnightblue" stroke="midnightblue" points="937.32,-194.25 929.15,-187.51 931.33,-197.88 937.32,-194.25"/>
</g>
<!-- Node27 -->
<g id="node27" class="node">
<title>Node27</title>
<g id="a_node27"><a xlink:href="../../d3/db1/Matrix_8h.html" target="_top" xlink:title="This file contains my BLAS::Matrix declarations.">
<polygon fill="white" stroke="black" points="853,-112.5 853,-131.5 997,-131.5 997,-112.5 853,-112.5"/>
<text text-anchor="middle" x="925" y="-119.5" font-family="Helvetica,sans-Serif" font-size="10.00">math/blas/matrix/Matrix.h</text>
</a>
</g>
</g>
<!-- Node20&#45;&gt;Node27 -->
<g id="edge47" class="edge">
<title>Node20&#45;&gt;Node27</title>
<path fill="none" stroke="midnightblue" d="M939.2,-229.99C922.51,-221.91 900.24,-208.01 890,-188 881.39,-171.18 894.3,-152.18 906.8,-139.09"/>
<polygon fill="midnightblue" stroke="midnightblue" points="909.6,-141.25 914.34,-131.77 904.73,-136.23 909.6,-141.25"/>
</g>
<!-- Node28 -->
<g id="node28" class="node">
<title>Node28</title>
<g id="a_node28"><a xlink:href="../../d6/dbe/Vector_8h.html" target="_top" xlink:title="This file contains my BLAS::Vector implementation.">
<polygon fill="white" stroke="black" points="754.5,-56.5 754.5,-75.5 895.5,-75.5 895.5,-56.5 754.5,-56.5"/>
<text text-anchor="middle" x="825" y="-63.5" font-family="Helvetica,sans-Serif" font-size="10.00">math/blas/vector/Vector.h</text>
</a>
</g>
</g>
<!-- Node20&#45;&gt;Node28 -->
<g id="edge48" class="edge">
<title>Node20&#45;&gt;Node28</title>
<path fill="none" stroke="midnightblue" d="M940.4,-229.92C909.52,-215.15 850.83,-181.64 829,-132 822.6,-117.45 822.02,-99.27 822.8,-85.84"/>
<polygon fill="midnightblue" stroke="midnightblue" points="826.29,-86.13 823.68,-75.86 819.32,-85.51 826.29,-86.13"/>
</g>
<!-- Node26&#45;&gt;Node22 -->
<g id="edge37" class="edge">
<title>Node26&#45;&gt;Node22</title>
<path fill="none" stroke="midnightblue" d="M942.22,-168.44C960.9,-159.68 990.16,-145.94 1011.62,-135.86"/>
<polygon fill="midnightblue" stroke="midnightblue" points="1013.3,-138.93 1020.86,-131.52 1010.32,-132.6 1013.3,-138.93"/>
</g>
<!-- Node26&#45;&gt;Node27 -->
<g id="edge38" class="edge">
<title>Node26&#45;&gt;Node27</title>
<path fill="none" stroke="midnightblue" d="M924.17,-168.08C924.3,-161.01 924.48,-150.86 924.65,-141.99"/>
<polygon fill="midnightblue" stroke="midnightblue" points="928.15,-141.81 924.84,-131.75 921.15,-141.68 928.15,-141.81"/>
</g>
<!-- Node26&#45;&gt;Node28 -->
<g id="edge46" class="edge">
<title>Node26&#45;&gt;Node28</title>
<path fill="none" stroke="midnightblue" d="M898.16,-168.41C880.5,-161.29 857.88,-149.47 844,-132 833.38,-118.64 828.7,-99.52 826.63,-85.48"/>
<polygon fill="midnightblue" stroke="midnightblue" points="830.1,-85.04 825.47,-75.51 823.15,-85.85 830.1,-85.04"/>
</g>
<!-- Node27&#45;&gt;Node4 -->
<g id="edge40" class="edge">
<title>Node27&#45;&gt;Node4</title>
<path fill="none" stroke="midnightblue" d="M923.78,-112.43C921.63,-99.43 916.28,-74.29 905,-56 897.93,-44.55 887.27,-34.01 877.88,-26.02"/>
<polygon fill="midnightblue" stroke="midnightblue" points="880.06,-23.27 870.09,-19.69 875.64,-28.71 880.06,-23.27"/>
</g>
<!-- Node27&#45;&gt;Node21 -->
<g id="edge39" class="edge">
<title>Node27&#45;&gt;Node21</title>
<path fill="none" stroke="midnightblue" d="M945.92,-112.44C967.74,-103.52 1002.15,-89.44 1026.89,-79.32"/>
<polygon fill="midnightblue" stroke="midnightblue" points="1028.25,-82.54 1036.18,-75.52 1025.6,-76.06 1028.25,-82.54"/>
</g>
<!-- Node27&#45;&gt;Node25 -->
<g id="edge41" class="edge">
<title>Node27&#45;&gt;Node25</title>
<path fill="none" stroke="midnightblue" d="M927.9,-112.37C933.9,-94.54 947.77,-53.3 955.85,-29.27"/>
<polygon fill="midnightblue" stroke="midnightblue" points="959.24,-30.19 959.11,-19.59 952.6,-27.95 959.24,-30.19"/>
</g>
<!-- Node27&#45;&gt;Node28 -->
<g id="edge42" class="edge">
<title>Node27&#45;&gt;Node28</title>
<path fill="none" stroke="midnightblue" d="M908.93,-112.32C893.04,-103.74 868.49,-90.49 850.04,-80.52"/>
<polygon fill="midnightblue" stroke="midnightblue" points="851.49,-77.33 841.03,-75.65 848.16,-83.49 851.49,-77.33"/>
</g>
<!-- Node28&#45;&gt;Node4 -->
<g id="edge44" class="edge">
<title>Node28&#45;&gt;Node4</title>
<path fill="none" stroke="midnightblue" d="M830.45,-56.08C835.01,-48.61 841.67,-37.72 847.29,-28.52"/>
<polygon fill="midnightblue" stroke="midnightblue" points="850.42,-30.11 852.65,-19.75 844.45,-26.46 850.42,-30.11"/>
</g>
<!-- Node28&#45;&gt;Node5 -->
<g id="edge43" class="edge">
<title>Node28&#45;&gt;Node5</title>
<path fill="none" stroke="midnightblue" d="M754.45,-58.35C632.2,-46.83 384.99,-23.53 290.19,-14.6"/>
<polygon fill="midnightblue" stroke="midnightblue" points="290.47,-11.11 280.19,-13.66 289.81,-18.08 290.47,-11.11"/>
</g>
<!-- Node28&#45;&gt;Node25 -->
<g id="edge45" class="edge">
<title>Node28&#45;&gt;Node25</title>
<path fill="none" stroke="midnightblue" d="M846.71,-56.44C869.35,-47.52 905.07,-33.44 930.75,-23.32"/>
<polygon fill="midnightblue" stroke="midnightblue" points="932.37,-26.44 940.39,-19.52 929.81,-19.93 932.37,-26.44"/>
</g>
</g>
</svg>
        <g id="navigator" transform="translate(0 0)" fill="#404254">
                <rect fill="#f2f5e9" fill-opacity="0.5" stroke="#606060" stroke-width=".5" x="0" y="0" width="60" height="60"/>
                <use id="zoomplus" xlink:href="#zoomPlus" x="17" y="9" onmousedown="handleZoom(evt,'in')"/>
                <use id="zoomminus" xlink:href="#zoomMin" x="42" y="9" onmousedown="handleZoom(evt,'out')"/>
                <use id="reset" xlink:href="#resetDef" x="30" y="36" onmousedown="handleReset()"/>
                <g id="arrowUp" xlink:href="#dirArrow" transform="translate(30 24)" onmousedown="handlePan(0,-1)">
                  <use xlink:href="#rim" fill="#404040">
                        <set attributeName="fill" to="#808080" begin="arrowUp.mouseover" end="arrowUp.mouseout"/>
                  </use>
                  <path fill="none" stroke="white" stroke-width="1.5" d="M0,-3.0v7 M-2.5,-0.5L0,-3.0L2.5,-0.5"/>
                </g>
                <g id="arrowRight" xlink:href="#dirArrow" transform="rotate(90) translate(36 -43)" onmousedown="handlePan(1,0)">
                  <use xlink:href="#rim" fill="#404040">
                        <set attributeName="fill" to="#808080" begin="arrowRight.mouseover" end="arrowRight.mouseout"/>
                  </use>
                  <path fill="none" stroke="white" stroke-width="1.5" d="M0,-3.0v7 M-2.5,-0.5L0,-3.0L2.5,-0.5"/>
                </g>
                <g id="arrowDown" xlink:href="#dirArrow" transform="rotate(180) translate(-30 -48)" onmousedown="handlePan(0,1)">
                  <use xlink:href="#rim" fill="#404040">
                        <set attributeName="fill" to="#808080" begin="arrowDown.mouseover" end="arrowDown.mouseout"/>
                  </use>
                  <path fill="none" stroke="white" stroke-width="1.5" d="M0,-3.0v7 M-2.5,-0.5L0,-3.0L2.5,-0.5"/>
                </g>
                <g id="arrowLeft" xlink:href="#dirArrow" transform="rotate(270) translate(-36 17)" onmousedown="handlePan(-1,0)">
                  <use xlink:href="#rim" fill="#404040">
                        <set attributeName="fill" to="#808080" begin="arrowLeft.mouseover" end="arrowLeft.mouseout"/>
                  </use>
                  <path fill="none" stroke="white" stroke-width="1.5" d="M0,-3.0v7 M-2.5,-0.5L0,-3.0L2.5,-0.5"/>
                </g>
        </g>
        <svg viewBox="0 0 15 15" width="100%" height="30px" preserveAspectRatio="xMaxYMin meet">
         <g id="arrow_out" transform="scale(0.3 0.3)">
          <a xlink:href="labs_2inlab1_2Parser_8h__incl_org.svg" target="_base">
           <rect id="button" ry="5" rx="5" y="6" x="6" height="38" width="38"
                fill="#f2f5e9" fill-opacity="0.5" stroke="#606060" stroke-width="1.0"/>
           <path id="arrow"
             d="M 11.500037,31.436501 C 11.940474,20.09759 22.043105,11.32322 32.158766,21.979434 L 37.068811,17.246167 C 37.068811,17.246167 37.088388,32 37.088388,32 L 22.160133,31.978069 C 22.160133,31.978069 26.997745,27.140456 26.997745,27.140456 C 18.528582,18.264221 13.291696,25.230495 11.500037,31.436501 z"
             style="fill:#404040;"/>
          </a>
         </g>
        </svg>
</svg>
