<?xml version="1.0" encoding="UTF-8" standalone="no"?>
<!DOCTYPE svg PUBLIC "-//W3C//DTD SVG 1.1//EN"
 "http://www.w3.org/Graphics/SVG/1.1/DTD/svg11.dtd">
<!-- Generated by graphviz version 2.43.0 (0)
 -->
<!-- Title: src/labs/inlab1/Parser.h Pages: 1 -->
<svg width="1816pt" height="599pt"
 viewBox="0.00 0.00 1816.00 599.00" xmlns="http://www.w3.org/2000/svg" xmlns:xlink="http://www.w3.org/1999/xlink">
<g id="graph0" class="graph" transform="scale(1 1) rotate(0) translate(4 595)">
<title>src/labs/inlab1/Parser.h</title>
<polygon fill="white" stroke="transparent" points="-4,4 -4,-595 1812,-595 1812,4 -4,4"/>
<!-- Node1 -->
<g id="node1" class="node">
<title>Node1</title>
<g id="a_node1"><a xlink:title=" ">
<polygon fill="#bfbfbf" stroke="black" points="440,-571.5 440,-590.5 568,-590.5 568,-571.5 440,-571.5"/>
<text text-anchor="middle" x="504" y="-578.5" font-family="Helvetica,sans-Serif" font-size="10.00">src/labs/inlab1/Parser.h</text>
</a>
</g>
</g>
<!-- Node2 -->
<g id="node2" class="node">
<title>Node2</title>
<g id="a_node2"><a xlink:href="../../d0/d7d/CheckBounds_8h.html" target="_top" xlink:title="This file contains the declaration of functions for checking the validity of input parameters.">
<polygon fill="white" stroke="black" points="698,-515.5 698,-534.5 790,-534.5 790,-515.5 698,-515.5"/>
<text text-anchor="middle" x="744" y="-522.5" font-family="Helvetica,sans-Serif" font-size="10.00">CheckBounds.h</text>
</a>
</g>
</g>
<!-- Node1&#45;&gt;Node2 -->
<g id="edge1" class="edge">
<title>Node1&#45;&gt;Node2</title>
<path fill="none" stroke="midnightblue" d="M542.03,-571.44C583.81,-562.04 650.98,-546.93 696.27,-536.74"/>
<polygon fill="midnightblue" stroke="midnightblue" points="697.16,-540.13 706.15,-534.52 695.62,-533.3 697.16,-540.13"/>
</g>
<!-- Node7 -->
<g id="node7" class="node">
<title>Node7</title>
<g id="a_node7"><a xlink:href="../../d9/d41/CommandLine_8h.html" target="_top" xlink:title="This file contains the definition of the CommandLine class and the HeaderInfo struct.">
<polygon fill="white" stroke="black" points="456,-459.5 456,-478.5 552,-478.5 552,-459.5 456,-459.5"/>
<text text-anchor="middle" x="504" y="-466.5" font-family="Helvetica,sans-Serif" font-size="10.00">CommandLine.h</text>
</a>
</g>
</g>
<!-- Node1&#45;&gt;Node7 -->
<g id="edge68" class="edge">
<title>Node1&#45;&gt;Node7</title>
<path fill="none" stroke="midnightblue" d="M504,-571.37C504,-553.62 504,-512.67 504,-488.6"/>
<polygon fill="midnightblue" stroke="midnightblue" points="507.5,-488.59 504,-478.59 500.5,-488.59 507.5,-488.59"/>
</g>
<!-- Node10 -->
<g id="node10" class="node">
<title>Node10</title>
<g id="a_node10"><a xlink:href="../../db/df1/Helpers_8h.html" target="_top" xlink:title="This file contains helper functions and structures used throughout the program.">
<polygon fill="white" stroke="black" points="340.5,-403.5 340.5,-422.5 403.5,-422.5 403.5,-403.5 340.5,-403.5"/>
<text text-anchor="middle" x="372" y="-410.5" font-family="Helvetica,sans-Serif" font-size="10.00">Helpers.h</text>
</a>
</g>
</g>
<!-- Node1&#45;&gt;Node10 -->
<g id="edge69" class="edge">
<title>Node1&#45;&gt;Node10</title>
<path fill="none" stroke="midnightblue" d="M495.58,-571.48C479.06,-554.56 441.6,-515.25 414,-479 402.21,-463.52 390.32,-444.75 382.21,-431.36"/>
<polygon fill="midnightblue" stroke="midnightblue" points="385.17,-429.49 377.03,-422.7 379.16,-433.08 385.17,-429.49"/>
</g>
<!-- Node3 -->
<g id="node3" class="node">
<title>Node3</title>
<g id="a_node3"><a xlink:title=" ">
<polygon fill="white" stroke="#bfbfbf" points="503,-342 503,-361 653,-361 653,-342 503,-342"/>
<text text-anchor="middle" x="578" y="-349" font-family="Helvetica,sans-Serif" font-size="10.00">boost/program_options.hpp</text>
</a>
</g>
</g>
<!-- Node2&#45;&gt;Node3 -->
<g id="edge2" class="edge">
<title>Node2&#45;&gt;Node3</title>
<path fill="none" stroke="midnightblue" d="M724.1,-515.29C693.03,-500.7 633.14,-468.37 600,-423 588.79,-407.65 583.19,-386.44 580.45,-371.31"/>
<polygon fill="midnightblue" stroke="midnightblue" points="583.87,-370.46 578.88,-361.11 576.95,-371.53 583.87,-370.46"/>
</g>
<!-- Node4 -->
<g id="node4" class="node">
<title>Node4</title>
<g id="a_node4"><a xlink:title=" ">
<polygon fill="white" stroke="#bfbfbf" points="862,-112.5 862,-131.5 922,-131.5 922,-112.5 862,-112.5"/>
<text text-anchor="middle" x="892" y="-119.5" font-family="Helvetica,sans-Serif" font-size="10.00">iostream</text>
</a>
</g>
</g>
<!-- Node2&#45;&gt;Node4 -->
<g id="edge3" class="edge">
<title>Node2&#45;&gt;Node4</title>
<path fill="none" stroke="midnightblue" d="M773.14,-515.43C813.9,-501.45 883,-469.55 883,-414 883,-414 883,-414 883,-233 883,-200.84 886.87,-163.57 889.53,-141.71"/>
<polygon fill="midnightblue" stroke="midnightblue" points="893.04,-141.9 890.82,-131.54 886.09,-141.02 893.04,-141.9"/>
</g>
<!-- Node5 -->
<g id="node5" class="node">
<title>Node5</title>
<g id="a_node5"><a xlink:title=" ">
<polygon fill="white" stroke="#bfbfbf" points="1229,-112.5 1229,-131.5 1285,-131.5 1285,-112.5 1229,-112.5"/>
<text text-anchor="middle" x="1257" y="-119.5" font-family="Helvetica,sans-Serif" font-size="10.00">iomanip</text>
</a>
</g>
</g>
<!-- Node2&#45;&gt;Node5 -->
<g id="edge4" class="edge">
<title>Node2&#45;&gt;Node5</title>
<path fill="none" stroke="midnightblue" d="M790.28,-524.21C919.71,-523.56 1276,-512.79 1276,-414 1276,-414 1276,-414 1276,-233 1276,-200.49 1267.84,-163.35 1262.22,-141.61"/>
<polygon fill="midnightblue" stroke="midnightblue" points="1265.54,-140.5 1259.56,-131.75 1258.78,-142.32 1265.54,-140.5"/>
</g>
<!-- Node6 -->
<g id="node6" class="node">
<title>Node6</title>
<g id="a_node6"><a xlink:title=" ">
<polygon fill="white" stroke="#bfbfbf" points="671,-342 671,-361 715,-361 715,-342 671,-342"/>
<text text-anchor="middle" x="693" y="-349" font-family="Helvetica,sans-Serif" font-size="10.00">limits</text>
</a>
</g>
</g>
<!-- Node2&#45;&gt;Node6 -->
<g id="edge5" class="edge">
<title>Node2&#45;&gt;Node6</title>
<path fill="none" stroke="midnightblue" d="M746.88,-515.3C753.17,-494.71 766.26,-441.81 749,-403 742.32,-387.98 728.73,-375.55 716.61,-366.78"/>
<polygon fill="midnightblue" stroke="midnightblue" points="718.4,-363.77 708.16,-361.05 714.47,-369.56 718.4,-363.77"/>
</g>
<!-- Node2&#45;&gt;Node7 -->
<g id="edge6" class="edge">
<title>Node2&#45;&gt;Node7</title>
<path fill="none" stroke="midnightblue" d="M705.97,-515.44C664.19,-506.04 597.02,-490.93 551.73,-480.74"/>
<polygon fill="midnightblue" stroke="midnightblue" points="552.38,-477.3 541.85,-478.52 550.84,-484.13 552.38,-477.3"/>
</g>
<!-- Node9 -->
<g id="node9" class="node">
<title>Node9</title>
<g id="a_node9"><a xlink:title=" ">
<polygon fill="white" stroke="#bfbfbf" points="733,-342 733,-361 791,-361 791,-342 733,-342"/>
<text text-anchor="middle" x="762" y="-349" font-family="Helvetica,sans-Serif" font-size="10.00">json.hpp</text>
</a>
</g>
</g>
<!-- Node2&#45;&gt;Node9 -->
<g id="edge67" class="edge">
<title>Node2&#45;&gt;Node9</title>
<path fill="none" stroke="midnightblue" d="M754.71,-515.3C763.94,-507.07 776.59,-493.79 782,-479 793.6,-447.28 788.33,-436.18 782,-403 779.85,-391.71 775.21,-379.72 770.94,-370.26"/>
<polygon fill="midnightblue" stroke="midnightblue" points="774.05,-368.65 766.59,-361.13 767.74,-371.67 774.05,-368.65"/>
</g>
<!-- Node2&#45;&gt;Node10 -->
<g id="edge66" class="edge">
<title>Node2&#45;&gt;Node10</title>
<path fill="none" stroke="midnightblue" d="M697.99,-524.81C637.61,-524.18 529.63,-517.12 447,-479 422.45,-467.67 399.81,-445.81 385.97,-430.58"/>
<polygon fill="midnightblue" stroke="midnightblue" points="388.46,-428.11 379.23,-422.91 383.2,-432.73 388.46,-428.11"/>
</g>
<!-- Node7&#45;&gt;Node3 -->
<g id="edge62" class="edge">
<title>Node7&#45;&gt;Node3</title>
<path fill="none" stroke="midnightblue" d="M509.56,-459.32C521.72,-440.34 550.87,-394.85 566.92,-369.79"/>
<polygon fill="midnightblue" stroke="midnightblue" points="569.93,-371.59 572.37,-361.28 564.03,-367.81 569.93,-371.59"/>
</g>
<!-- Node7&#45;&gt;Node4 -->
<g id="edge63" class="edge">
<title>Node7&#45;&gt;Node4</title>
<path fill="none" stroke="midnightblue" d="M455.67,-467.14C329.53,-463.58 0,-445.41 0,-352.5 0,-352.5 0,-352.5 0,-233 0,-145.94 678.01,-127.07 851.8,-123.67"/>
<polygon fill="midnightblue" stroke="midnightblue" points="851.88,-127.17 861.81,-123.48 851.75,-120.17 851.88,-127.17"/>
</g>
<!-- Node8 -->
<g id="node8" class="node">
<title>Node8</title>
<g id="a_node8"><a xlink:href="../../d2/d0e/CommandlineHelpers_8h.html" target="_top" xlink:title="This file contains helper functions for handling command line options and initializing the profiler.">
<polygon fill="white" stroke="black" points="608.5,-403.5 608.5,-422.5 739.5,-422.5 739.5,-403.5 608.5,-403.5"/>
<text text-anchor="middle" x="674" y="-410.5" font-family="Helvetica,sans-Serif" font-size="10.00">CommandlineHelpers.h</text>
</a>
</g>
</g>
<!-- Node7&#45;&gt;Node8 -->
<g id="edge7" class="edge">
<title>Node7&#45;&gt;Node8</title>
<path fill="none" stroke="midnightblue" d="M530.94,-459.44C559.66,-450.32 605.33,-435.81 637.32,-425.65"/>
<polygon fill="midnightblue" stroke="midnightblue" points="638.72,-428.88 647.19,-422.52 636.6,-422.21 638.72,-428.88"/>
</g>
<!-- Node7&#45;&gt;Node10 -->
<g id="edge11" class="edge">
<title>Node7&#45;&gt;Node10</title>
<path fill="none" stroke="midnightblue" d="M483.08,-459.44C461.26,-450.52 426.85,-436.44 402.11,-426.32"/>
<polygon fill="midnightblue" stroke="midnightblue" points="403.4,-423.06 392.82,-422.52 400.75,-429.54 403.4,-423.06"/>
</g>
<!-- Node12 -->
<g id="node12" class="node">
<title>Node12</title>
<g id="a_node12"><a xlink:title=" ">
<polygon fill="white" stroke="#bfbfbf" points="28,-342 28,-361 72,-361 72,-342 28,-342"/>
<text text-anchor="middle" x="50" y="-349" font-family="Helvetica,sans-Serif" font-size="10.00">string</text>
</a>
</g>
</g>
<!-- Node7&#45;&gt;Node12 -->
<g id="edge64" class="edge">
<title>Node7&#45;&gt;Node12</title>
<path fill="none" stroke="midnightblue" d="M455.83,-459.8C376.37,-445.55 213.4,-413.23 81,-367 79.38,-366.43 77.73,-365.81 76.08,-365.15"/>
<polygon fill="midnightblue" stroke="midnightblue" points="77.36,-361.89 66.8,-361.11 74.57,-368.31 77.36,-361.89"/>
</g>
<!-- Node15 -->
<g id="node15" class="node">
<title>Node15</title>
<g id="a_node15"><a xlink:href="../../df/d69/Profiler_8h.html" target="_top" xlink:title="This file contains the Profiler class which is used to profile the execution time of a function.">
<polygon fill="white" stroke="black" points="929.5,-403.5 929.5,-422.5 988.5,-422.5 988.5,-403.5 929.5,-403.5"/>
<text text-anchor="middle" x="959" y="-410.5" font-family="Helvetica,sans-Serif" font-size="10.00">Profiler.h</text>
</a>
</g>
</g>
<!-- Node7&#45;&gt;Node15 -->
<g id="edge21" class="edge">
<title>Node7&#45;&gt;Node15</title>
<path fill="none" stroke="midnightblue" d="M552.26,-462.27C642.63,-451.55 835.74,-428.63 919.21,-418.72"/>
<polygon fill="midnightblue" stroke="midnightblue" points="919.78,-422.18 929.3,-417.53 918.95,-415.23 919.78,-422.18"/>
</g>
<!-- Node19 -->
<g id="node19" class="node">
<title>Node19</title>
<g id="a_node19"><a xlink:title=" ">
<polygon fill="white" stroke="#bfbfbf" points="809.5,-342 809.5,-361 854.5,-361 854.5,-342 809.5,-342"/>
<text text-anchor="middle" x="832" y="-349" font-family="Helvetica,sans-Serif" font-size="10.00">utility</text>
</a>
</g>
</g>
<!-- Node7&#45;&gt;Node19 -->
<g id="edge65" class="edge">
<title>Node7&#45;&gt;Node19</title>
<path fill="none" stroke="midnightblue" d="M552.29,-466.46C603.4,-463.19 685.31,-453.21 749,-423 776.64,-409.89 802.49,-385.19 817.78,-368.79"/>
<polygon fill="midnightblue" stroke="midnightblue" points="820.65,-370.83 824.77,-361.07 815.46,-366.14 820.65,-370.83"/>
</g>
<!-- Node36 -->
<g id="node36" class="node">
<title>Node36</title>
<g id="a_node36"><a xlink:title=" ">
<polygon fill="white" stroke="#bfbfbf" points="422,-403.5 422,-422.5 514,-422.5 514,-403.5 422,-403.5"/>
<text text-anchor="middle" x="468" y="-410.5" font-family="Helvetica,sans-Serif" font-size="10.00">project&#45;config.h</text>
</a>
</g>
</g>
<!-- Node7&#45;&gt;Node36 -->
<g id="edge61" class="edge">
<title>Node7&#45;&gt;Node36</title>
<path fill="none" stroke="midnightblue" d="M498.06,-459.08C493.02,-451.53 485.66,-440.49 479.49,-431.23"/>
<polygon fill="midnightblue" stroke="midnightblue" points="482.29,-429.13 473.83,-422.75 476.47,-433.01 482.29,-429.13"/>
</g>
<!-- Node8&#45;&gt;Node2 -->
<g id="edge8" class="edge">
<title>Node8&#45;&gt;Node2</title>
<path fill="none" stroke="midnightblue" d="M679.47,-422.59C690.95,-440.63 717.75,-482.74 732.95,-506.64"/>
<polygon fill="midnightblue" stroke="midnightblue" points="730.19,-508.81 738.51,-515.37 736.09,-505.05 730.19,-508.81"/>
</g>
<!-- Node8&#45;&gt;Node3 -->
<g id="edge10" class="edge">
<title>Node8&#45;&gt;Node3</title>
<path fill="none" stroke="midnightblue" d="M660.25,-403.48C644.63,-393.8 618.94,-377.87 600.42,-366.39"/>
<polygon fill="midnightblue" stroke="midnightblue" points="602.07,-363.3 591.73,-361.01 598.38,-369.25 602.07,-363.3"/>
</g>
<!-- Node8&#45;&gt;Node9 -->
<g id="edge9" class="edge">
<title>Node8&#45;&gt;Node9</title>
<path fill="none" stroke="midnightblue" d="M686.61,-403.48C700.72,-393.93 723.83,-378.31 740.75,-366.87"/>
<polygon fill="midnightblue" stroke="midnightblue" points="743.09,-369.51 749.42,-361.01 739.17,-363.71 743.09,-369.51"/>
</g>
<!-- Node10&#45;&gt;Node3 -->
<g id="edge18" class="edge">
<title>Node10&#45;&gt;Node3</title>
<path fill="none" stroke="midnightblue" d="M401.51,-403.48C437.62,-393.05 498.85,-375.36 538.85,-363.81"/>
<polygon fill="midnightblue" stroke="midnightblue" points="539.9,-367.15 548.54,-361.01 537.96,-360.42 539.9,-367.15"/>
</g>
<!-- Node10&#45;&gt;Node4 -->
<g id="edge13" class="edge">
<title>Node10&#45;&gt;Node4</title>
<path fill="none" stroke="midnightblue" d="M383.7,-403.29C393.96,-395.04 408.53,-381.75 417,-367 434.4,-336.71 437,-325.93 437,-291 437,-291 437,-291 437,-233 437,-202.2 436.68,-186.89 461,-168 491.52,-144.29 750.72,-129.65 851.83,-124.8"/>
<polygon fill="midnightblue" stroke="midnightblue" points="852.13,-128.29 861.96,-124.32 851.8,-121.29 852.13,-128.29"/>
</g>
<!-- Node10&#45;&gt;Node5 -->
<g id="edge12" class="edge">
<title>Node10&#45;&gt;Node5</title>
<path fill="none" stroke="midnightblue" d="M389.89,-403.44C404.64,-395.64 425.29,-382.93 439,-367 463.39,-338.68 475,-328.38 475,-291 475,-291 475,-291 475,-233 475,-157.03 1061.26,-130.15 1218.56,-124.31"/>
<polygon fill="midnightblue" stroke="midnightblue" points="1218.84,-127.8 1228.71,-123.94 1218.59,-120.8 1218.84,-127.8"/>
</g>
<!-- Node10&#45;&gt;Node6 -->
<g id="edge14" class="edge">
<title>Node10&#45;&gt;Node6</title>
<path fill="none" stroke="midnightblue" d="M403.74,-404.79C406.86,-404.16 409.99,-403.55 413,-403 523.01,-383 554.87,-399.03 662,-367 663.88,-366.44 665.79,-365.78 667.69,-365.06"/>
<polygon fill="midnightblue" stroke="midnightblue" points="669.13,-368.25 676.94,-361.1 666.37,-361.82 669.13,-368.25"/>
</g>
<!-- Node10&#45;&gt;Node9 -->
<g id="edge17" class="edge">
<title>Node10&#45;&gt;Node9</title>
<path fill="none" stroke="midnightblue" d="M403.72,-404.71C406.85,-404.09 409.98,-403.5 413,-403 550.24,-380.05 588.84,-400.06 724,-367 726.83,-366.31 729.73,-365.46 732.61,-364.53"/>
<polygon fill="midnightblue" stroke="midnightblue" points="733.93,-367.78 742.18,-361.13 731.59,-361.18 733.93,-367.78"/>
</g>
<!-- Node11 -->
<g id="node11" class="node">
<title>Node11</title>
<g id="a_node11"><a xlink:title=" ">
<polygon fill="white" stroke="#bfbfbf" points="90,-342 90,-361 146,-361 146,-342 90,-342"/>
<text text-anchor="middle" x="118" y="-349" font-family="Helvetica,sans-Serif" font-size="10.00">sstream</text>
</a>
</g>
</g>
<!-- Node10&#45;&gt;Node11 -->
<g id="edge15" class="edge">
<title>Node10&#45;&gt;Node11</title>
<path fill="none" stroke="midnightblue" d="M340.32,-407.16C297.69,-400.25 219.72,-386.24 155,-367 152.57,-366.28 150.07,-365.46 147.58,-364.6"/>
<polygon fill="midnightblue" stroke="midnightblue" points="148.73,-361.29 138.14,-361.1 146.3,-367.86 148.73,-361.29"/>
</g>
<!-- Node10&#45;&gt;Node12 -->
<g id="edge16" class="edge">
<title>Node10&#45;&gt;Node12</title>
<path fill="none" stroke="midnightblue" d="M340.34,-410.05C286.18,-406.08 172.7,-394.91 81,-367 79.12,-366.43 77.22,-365.76 75.32,-365.04"/>
<polygon fill="midnightblue" stroke="midnightblue" points="76.64,-361.8 66.07,-361.07 73.88,-368.23 76.64,-361.8"/>
</g>
<!-- Node13 -->
<g id="node13" class="node">
<title>Node13</title>
<g id="a_node13"><a xlink:title=" ">
<polygon fill="white" stroke="#bfbfbf" points="164.5,-336.5 164.5,-366.5 277.5,-366.5 277.5,-336.5 164.5,-336.5"/>
<text text-anchor="start" x="172.5" y="-354.5" font-family="Helvetica,sans-Serif" font-size="10.00">boost/accumulators</text>
<text text-anchor="middle" x="221" y="-343.5" font-family="Helvetica,sans-Serif" font-size="10.00">/accumulators.hpp</text>
</a>
</g>
</g>
<!-- Node10&#45;&gt;Node13 -->
<g id="edge19" class="edge">
<title>Node10&#45;&gt;Node13</title>
<path fill="none" stroke="midnightblue" d="M350.37,-403.48C328.48,-394.85 294,-381.26 266.14,-370.29"/>
<polygon fill="midnightblue" stroke="midnightblue" points="267.17,-366.93 256.59,-366.52 264.61,-373.45 267.17,-366.93"/>
</g>
<!-- Node14 -->
<g id="node14" class="node">
<title>Node14</title>
<g id="a_node14"><a xlink:title=" ">
<polygon fill="white" stroke="#bfbfbf" points="295.5,-336.5 295.5,-366.5 408.5,-366.5 408.5,-336.5 295.5,-336.5"/>
<text text-anchor="start" x="303.5" y="-354.5" font-family="Helvetica,sans-Serif" font-size="10.00">boost/accumulators</text>
<text text-anchor="middle" x="352" y="-343.5" font-family="Helvetica,sans-Serif" font-size="10.00">/statistics.hpp</text>
</a>
</g>
</g>
<!-- Node10&#45;&gt;Node14 -->
<g id="edge20" class="edge">
<title>Node10&#45;&gt;Node14</title>
<path fill="none" stroke="midnightblue" d="M369.13,-403.48C366.73,-396.32 363.18,-385.75 359.93,-376.08"/>
<polygon fill="midnightblue" stroke="midnightblue" points="363.22,-374.89 356.71,-366.52 356.58,-377.12 363.22,-374.89"/>
</g>
<!-- Node15&#45;&gt;Node2 -->
<g id="edge28" class="edge">
<title>Node15&#45;&gt;Node2</title>
<path fill="none" stroke="midnightblue" d="M953.18,-422.53C943.27,-436.43 921.77,-463.9 897,-479 867.48,-497 830.35,-508.15 800.06,-514.84"/>
<polygon fill="midnightblue" stroke="midnightblue" points="799.14,-511.46 790.07,-516.95 800.58,-518.31 799.14,-511.46"/>
</g>
<!-- Node15&#45;&gt;Node4 -->
<g id="edge25" class="edge">
<title>Node15&#45;&gt;Node4</title>
<path fill="none" stroke="midnightblue" d="M954.34,-403.48C944.19,-384.12 921,-335.04 921,-291 921,-291 921,-291 921,-233 921,-199.72 908.43,-162.58 899.84,-141.09"/>
<polygon fill="midnightblue" stroke="midnightblue" points="902.98,-139.53 895.91,-131.64 896.52,-142.21 902.98,-139.53"/>
</g>
<!-- Node15&#45;&gt;Node5 -->
<g id="edge24" class="edge">
<title>Node15&#45;&gt;Node5</title>
<path fill="none" stroke="midnightblue" d="M988.8,-410.82C1049.8,-407.8 1185.94,-397.71 1219,-367 1244.51,-343.3 1238,-325.82 1238,-291 1238,-291 1238,-291 1238,-233 1238,-200.49 1246.16,-163.35 1251.78,-141.61"/>
<polygon fill="midnightblue" stroke="midnightblue" points="1255.22,-142.32 1254.44,-131.75 1248.46,-140.5 1255.22,-142.32"/>
</g>
<!-- Node15&#45;&gt;Node9 -->
<g id="edge31" class="edge">
<title>Node15&#45;&gt;Node9</title>
<path fill="none" stroke="midnightblue" d="M929.38,-404.31C897.47,-395.85 845.31,-381.52 801,-367 798.6,-366.21 796.12,-365.37 793.64,-364.5"/>
<polygon fill="midnightblue" stroke="midnightblue" points="794.76,-361.18 784.17,-361.08 792.39,-367.77 794.76,-361.18"/>
</g>
<!-- Node16 -->
<g id="node16" class="node">
<title>Node16</title>
<g id="a_node16"><a xlink:title=" ">
<polygon fill="white" stroke="#bfbfbf" points="1154.5,-342 1154.5,-361 1209.5,-361 1209.5,-342 1154.5,-342"/>
<text text-anchor="middle" x="1182" y="-349" font-family="Helvetica,sans-Serif" font-size="10.00">fstream</text>
</a>
</g>
</g>
<!-- Node15&#45;&gt;Node16 -->
<g id="edge22" class="edge">
<title>Node15&#45;&gt;Node16</title>
<path fill="none" stroke="midnightblue" d="M988.52,-406.3C1025.69,-398.79 1091.3,-384.49 1146,-367 1148.27,-366.27 1150.61,-365.47 1152.94,-364.62"/>
<polygon fill="midnightblue" stroke="midnightblue" points="1154.3,-367.85 1162.38,-361.01 1151.79,-361.32 1154.3,-367.85"/>
</g>
<!-- Node17 -->
<g id="node17" class="node">
<title>Node17</title>
<g id="a_node17"><a xlink:title=" ">
<polygon fill="white" stroke="#bfbfbf" points="1346.5,-56.5 1346.5,-75.5 1411.5,-75.5 1411.5,-56.5 1346.5,-56.5"/>
<text text-anchor="middle" x="1379" y="-63.5" font-family="Helvetica,sans-Serif" font-size="10.00">functional</text>
</a>
</g>
</g>
<!-- Node15&#45;&gt;Node17 -->
<g id="edge23" class="edge">
<title>Node15&#45;&gt;Node17</title>
<path fill="none" stroke="midnightblue" d="M959,-403.49C959,-383.74 959,-333.22 959,-291 959,-291 959,-291 959,-177 959,-99.59 1229.4,-75.58 1336.28,-69.12"/>
<polygon fill="midnightblue" stroke="midnightblue" points="1336.61,-72.61 1346.39,-68.53 1336.21,-65.62 1336.61,-72.61"/>
</g>
<!-- Node18 -->
<g id="node18" class="node">
<title>Node18</title>
<g id="a_node18"><a xlink:title=" ">
<polygon fill="white" stroke="#bfbfbf" points="987,-342 987,-361 1041,-361 1041,-342 987,-342"/>
<text text-anchor="middle" x="1014" y="-349" font-family="Helvetica,sans-Serif" font-size="10.00">random</text>
</a>
</g>
</g>
<!-- Node15&#45;&gt;Node18 -->
<g id="edge26" class="edge">
<title>Node15&#45;&gt;Node18</title>
<path fill="none" stroke="midnightblue" d="M966.88,-403.48C975.29,-394.37 988.82,-379.74 999.23,-368.48"/>
<polygon fill="midnightblue" stroke="midnightblue" points="1001.92,-370.73 1006.13,-361.01 996.78,-365.98 1001.92,-370.73"/>
</g>
<!-- Node15&#45;&gt;Node19 -->
<g id="edge27" class="edge">
<title>Node15&#45;&gt;Node19</title>
<path fill="none" stroke="midnightblue" d="M940.8,-403.48C919.49,-393.49 883.97,-376.85 859.34,-365.31"/>
<polygon fill="midnightblue" stroke="midnightblue" points="860.7,-362.08 850.16,-361.01 857.73,-368.42 860.7,-362.08"/>
</g>
<!-- Node20 -->
<g id="node20" class="node">
<title>Node20</title>
<g id="a_node20"><a xlink:href="../../d4/d2e/Stopwatch_8h.html" target="_top" xlink:title="This file contains the Stopwatch class which is a utility for measuring time durations in various uni...">
<polygon fill="white" stroke="black" points="1059.5,-342 1059.5,-361 1136.5,-361 1136.5,-342 1059.5,-342"/>
<text text-anchor="middle" x="1098" y="-349" font-family="Helvetica,sans-Serif" font-size="10.00">Stopwatch.h</text>
</a>
</g>
</g>
<!-- Node15&#45;&gt;Node20 -->
<g id="edge29" class="edge">
<title>Node15&#45;&gt;Node20</title>
<path fill="none" stroke="midnightblue" d="M978.92,-403.48C1002.45,-393.4 1041.81,-376.55 1068.79,-365"/>
<polygon fill="midnightblue" stroke="midnightblue" points="1070.31,-368.16 1078.12,-361.01 1067.55,-361.73 1070.31,-368.16"/>
</g>
<!-- Node22 -->
<g id="node22" class="node">
<title>Node22</title>
<g id="a_node22"><a xlink:href="../../dc/d09/Stats_8h.html" target="_top" xlink:title="This file contains the declaration of statistical functions and structures for vectors and matrices.">
<polygon fill="white" stroke="black" points="1460,-342 1460,-361 1562,-361 1562,-342 1460,-342"/>
<text text-anchor="middle" x="1511" y="-349" font-family="Helvetica,sans-Serif" font-size="10.00">math/blas/Stats.h</text>
</a>
</g>
</g>
<!-- Node15&#45;&gt;Node22 -->
<g id="edge32" class="edge">
<title>Node15&#45;&gt;Node22</title>
<path fill="none" stroke="midnightblue" d="M988.68,-408.8C1075.72,-399.42 1331.61,-371.84 1449.83,-359.09"/>
<polygon fill="midnightblue" stroke="midnightblue" points="1450.24,-362.57 1459.81,-358.02 1449.49,-355.61 1450.24,-362.57"/>
</g>
<!-- Node21 -->
<g id="node21" class="node">
<title>Node21</title>
<g id="a_node21"><a xlink:title=" ">
<polygon fill="white" stroke="#bfbfbf" points="1073,-280.5 1073,-299.5 1123,-299.5 1123,-280.5 1073,-280.5"/>
<text text-anchor="middle" x="1098" y="-287.5" font-family="Helvetica,sans-Serif" font-size="10.00">chrono</text>
</a>
</g>
</g>
<!-- Node20&#45;&gt;Node21 -->
<g id="edge30" class="edge">
<title>Node20&#45;&gt;Node21</title>
<path fill="none" stroke="midnightblue" d="M1098,-341.98C1098,-333.58 1098,-320.48 1098,-309.66"/>
<polygon fill="midnightblue" stroke="midnightblue" points="1101.5,-309.51 1098,-299.51 1094.5,-309.51 1101.5,-309.51"/>
</g>
<!-- Node23 -->
<g id="node23" class="node">
<title>Node23</title>
<g id="a_node23"><a xlink:title=" ">
<polygon fill="white" stroke="#bfbfbf" points="1700,-56.5 1700,-75.5 1764,-75.5 1764,-56.5 1700,-56.5"/>
<text text-anchor="middle" x="1732" y="-63.5" font-family="Helvetica,sans-Serif" font-size="10.00">algorithm</text>
</a>
</g>
</g>
<!-- Node22&#45;&gt;Node23 -->
<g id="edge33" class="edge">
<title>Node22&#45;&gt;Node23</title>
<path fill="none" stroke="midnightblue" d="M1559.71,-341.97C1643.97,-325.82 1808,-287.63 1808,-235 1808,-235 1808,-235 1808,-177 1808,-137.28 1774.04,-101.5 1751.52,-82.15"/>
<polygon fill="midnightblue" stroke="midnightblue" points="1753.48,-79.24 1743.54,-75.57 1749.02,-84.63 1753.48,-79.24"/>
</g>
<!-- Node24 -->
<g id="node24" class="node">
<title>Node24</title>
<g id="a_node24"><a xlink:title=" ">
<polygon fill="white" stroke="#bfbfbf" points="1441.5,-224.5 1441.5,-243.5 1488.5,-243.5 1488.5,-224.5 1441.5,-224.5"/>
<text text-anchor="middle" x="1465" y="-231.5" font-family="Helvetica,sans-Serif" font-size="10.00">cmath</text>
</a>
</g>
</g>
<!-- Node22&#45;&gt;Node24 -->
<g id="edge34" class="edge">
<title>Node22&#45;&gt;Node24</title>
<path fill="none" stroke="midnightblue" d="M1503.52,-341.84C1495.66,-332.26 1483.55,-316.05 1477,-300 1470.96,-285.21 1467.94,-267.28 1466.44,-254"/>
<polygon fill="midnightblue" stroke="midnightblue" points="1469.9,-253.36 1465.48,-243.73 1462.93,-254.01 1469.9,-253.36"/>
</g>
<!-- Node25 -->
<g id="node25" class="node">
<title>Node25</title>
<g id="a_node25"><a xlink:title=" ">
<polygon fill="white" stroke="#bfbfbf" points="1555,-280.5 1555,-299.5 1611,-299.5 1611,-280.5 1555,-280.5"/>
<text text-anchor="middle" x="1583" y="-287.5" font-family="Helvetica,sans-Serif" font-size="10.00">numeric</text>
</a>
</g>
</g>
<!-- Node22&#45;&gt;Node25 -->
<g id="edge35" class="edge">
<title>Node22&#45;&gt;Node25</title>
<path fill="none" stroke="midnightblue" d="M1521.32,-341.98C1532.65,-332.61 1551.07,-317.38 1564.84,-306.01"/>
<polygon fill="midnightblue" stroke="midnightblue" points="1567.22,-308.58 1572.7,-299.51 1562.77,-303.18 1567.22,-308.58"/>
</g>
<!-- Node26 -->
<g id="node26" class="node">
<title>Node26</title>
<g id="a_node26"><a xlink:title=" ">
<polygon fill="white" stroke="#bfbfbf" points="1327.5,-280.5 1327.5,-299.5 1384.5,-299.5 1384.5,-280.5 1327.5,-280.5"/>
<text text-anchor="middle" x="1356" y="-287.5" font-family="Helvetica,sans-Serif" font-size="10.00">ostream</text>
</a>
</g>
</g>
<!-- Node22&#45;&gt;Node26 -->
<g id="edge36" class="edge">
<title>Node22&#45;&gt;Node26</title>
<path fill="none" stroke="midnightblue" d="M1488.79,-341.98C1462.32,-331.81 1417.89,-314.76 1387.78,-303.2"/>
<polygon fill="midnightblue" stroke="midnightblue" points="1388.76,-299.83 1378.17,-299.51 1386.25,-306.36 1388.76,-299.83"/>
</g>
<!-- Node27 -->
<g id="node27" class="node">
<title>Node27</title>
<g id="a_node27"><a xlink:title=" ">
<polygon fill="white" stroke="#bfbfbf" points="1656.5,-112.5 1656.5,-131.5 1703.5,-131.5 1703.5,-112.5 1656.5,-112.5"/>
<text text-anchor="middle" x="1680" y="-119.5" font-family="Helvetica,sans-Serif" font-size="10.00">vector</text>
</a>
</g>
</g>
<!-- Node22&#45;&gt;Node27 -->
<g id="edge37" class="edge">
<title>Node22&#45;&gt;Node27</title>
<path fill="none" stroke="midnightblue" d="M1557.69,-341.92C1607.42,-329.89 1682.9,-302.52 1712,-244 1729.25,-209.3 1706.94,-164.23 1691.81,-140.08"/>
<polygon fill="midnightblue" stroke="midnightblue" points="1694.69,-138.08 1686.28,-131.63 1688.84,-141.92 1694.69,-138.08"/>
</g>
<!-- Node28 -->
<g id="node28" class="node">
<title>Node28</title>
<g id="a_node28"><a xlink:href="../../d1/d80/BLAS_8h.html" target="_top" xlink:title=" ">
<polygon fill="white" stroke="black" points="1485.5,-280.5 1485.5,-299.5 1536.5,-299.5 1536.5,-280.5 1485.5,-280.5"/>
<text text-anchor="middle" x="1511" y="-287.5" font-family="Helvetica,sans-Serif" font-size="10.00">BLAS.h</text>
</a>
</g>
</g>
<!-- Node22&#45;&gt;Node28 -->
<g id="edge38" class="edge">
<title>Node22&#45;&gt;Node28</title>
<path fill="none" stroke="midnightblue" d="M1511,-341.98C1511,-333.58 1511,-320.48 1511,-309.66"/>
<polygon fill="midnightblue" stroke="midnightblue" points="1514.5,-309.51 1511,-299.51 1507.5,-309.51 1514.5,-309.51"/>
</g>
<!-- Node29 -->
<g id="node29" class="node">
<title>Node29</title>
<g id="a_node29"><a xlink:href="../../d3/db1/Matrix_8h.html" target="_top" xlink:title="This file contains my BLAS::Matrix declarations.">
<polygon fill="white" stroke="black" points="1559,-224.5 1559,-243.5 1703,-243.5 1703,-224.5 1559,-224.5"/>
<text text-anchor="middle" x="1631" y="-231.5" font-family="Helvetica,sans-Serif" font-size="10.00">math/blas/matrix/Matrix.h</text>
</a>
</g>
</g>
<!-- Node22&#45;&gt;Node29 -->
<g id="edge59" class="edge">
<title>Node22&#45;&gt;Node29</title>
<path fill="none" stroke="midnightblue" d="M1550.65,-342C1574.4,-334.81 1603.16,-322.04 1620,-300 1630.09,-286.79 1632.27,-267.66 1632.27,-253.57"/>
<polygon fill="midnightblue" stroke="midnightblue" points="1635.77,-253.43 1631.91,-243.56 1628.77,-253.68 1635.77,-253.43"/>
</g>
<!-- Node32 -->
<g id="node32" class="node">
<title>Node32</title>
<g id="a_node32"><a xlink:href="../../d6/dbe/Vector_8h.html" target="_top" xlink:title="This file contains my BLAS::Vector implementation.">
<polygon fill="white" stroke="black" points="1342.5,-168.5 1342.5,-187.5 1483.5,-187.5 1483.5,-168.5 1342.5,-168.5"/>
<text text-anchor="middle" x="1413" y="-175.5" font-family="Helvetica,sans-Serif" font-size="10.00">math/blas/vector/Vector.h</text>
</a>
</g>
</g>
<!-- Node22&#45;&gt;Node32 -->
<g id="edge60" class="edge">
<title>Node22&#45;&gt;Node32</title>
<path fill="none" stroke="midnightblue" d="M1502.73,-341.94C1493.51,-332.19 1478.39,-315.58 1467,-300 1449.82,-276.49 1444.93,-270.56 1433,-244 1426.2,-228.85 1420.83,-210.73 1417.38,-197.48"/>
<polygon fill="midnightblue" stroke="midnightblue" points="1420.75,-196.52 1414.94,-187.66 1413.96,-198.21 1420.75,-196.52"/>
</g>
<!-- Node28&#45;&gt;Node24 -->
<g id="edge39" class="edge">
<title>Node28&#45;&gt;Node24</title>
<path fill="none" stroke="midnightblue" d="M1503.4,-280.08C1496.77,-272.3 1486.98,-260.8 1478.94,-251.37"/>
<polygon fill="midnightblue" stroke="midnightblue" points="1481.6,-249.09 1472.45,-243.75 1476.27,-253.63 1481.6,-249.09"/>
</g>
<!-- Node28&#45;&gt;Node29 -->
<g id="edge40" class="edge">
<title>Node28&#45;&gt;Node29</title>
<path fill="none" stroke="midnightblue" d="M1530.01,-280.44C1549.59,-271.64 1580.31,-257.81 1602.73,-247.72"/>
<polygon fill="midnightblue" stroke="midnightblue" points="1604.39,-250.81 1612.07,-243.52 1601.52,-244.43 1604.39,-250.81"/>
</g>
<!-- Node28&#45;&gt;Node32 -->
<g id="edge58" class="edge">
<title>Node28&#45;&gt;Node32</title>
<path fill="none" stroke="midnightblue" d="M1511.5,-280.5C1511.84,-267.13 1510.66,-240.98 1498,-224 1486.74,-208.89 1468.89,-198.36 1452.44,-191.3"/>
<polygon fill="midnightblue" stroke="midnightblue" points="1453.57,-187.99 1442.99,-187.54 1450.99,-194.49 1453.57,-187.99"/>
</g>
<!-- Node29&#45;&gt;Node4 -->
<g id="edge43" class="edge">
<title>Node29&#45;&gt;Node4</title>
<path fill="none" stroke="midnightblue" d="M1573.63,-224.46C1429.63,-203.03 1055.65,-147.36 932.2,-128.98"/>
<polygon fill="midnightblue" stroke="midnightblue" points="932.46,-125.48 922.05,-127.47 931.43,-132.41 932.46,-125.48"/>
</g>
<!-- Node29&#45;&gt;Node23 -->
<g id="edge41" class="edge">
<title>Node29&#45;&gt;Node23</title>
<path fill="none" stroke="midnightblue" d="M1644.95,-224.46C1657.3,-216.34 1675.16,-203.12 1687,-188 1711.32,-156.93 1723.47,-111.38 1728.69,-85.95"/>
<polygon fill="midnightblue" stroke="midnightblue" points="1732.19,-86.28 1730.62,-75.81 1725.31,-84.98 1732.19,-86.28"/>
</g>
<!-- Node29&#45;&gt;Node27 -->
<g id="edge44" class="edge">
<title>Node29&#45;&gt;Node27</title>
<path fill="none" stroke="midnightblue" d="M1641.1,-224.47C1650.23,-216.15 1663.23,-202.64 1670,-188 1676.67,-173.57 1679.05,-155.62 1679.82,-142.23"/>
<polygon fill="midnightblue" stroke="midnightblue" points="1683.33,-141.96 1680.16,-131.85 1676.34,-141.73 1683.33,-141.96"/>
</g>
<!-- Node30 -->
<g id="node30" class="node">
<title>Node30</title>
<g id="a_node30"><a xlink:title=" ">
<polygon fill="white" stroke="#bfbfbf" points="1545,-112.5 1545,-131.5 1597,-131.5 1597,-112.5 1545,-112.5"/>
<text text-anchor="middle" x="1571" y="-119.5" font-family="Helvetica,sans-Serif" font-size="10.00">cassert</text>
</a>
</g>
</g>
<!-- Node29&#45;&gt;Node30 -->
<g id="edge42" class="edge">
<title>Node29&#45;&gt;Node30</title>
<path fill="none" stroke="midnightblue" d="M1634.63,-224.42C1639.54,-211.4 1646.64,-186.24 1637,-168 1629.58,-153.95 1615.58,-143.47 1602.38,-136.17"/>
<polygon fill="midnightblue" stroke="midnightblue" points="1603.96,-133.04 1593.46,-131.62 1600.78,-139.28 1603.96,-133.04"/>
</g>
<!-- Node31 -->
<g id="node31" class="node">
<title>Node31</title>
<g id="a_node31"><a xlink:href="../../d1/d45/Constants_8h.html" target="_top" xlink:title="MyBLAS Constants definition.">
<polygon fill="white" stroke="black" points="1502,-168.5 1502,-187.5 1628,-187.5 1628,-168.5 1502,-168.5"/>
<text text-anchor="middle" x="1565" y="-175.5" font-family="Helvetica,sans-Serif" font-size="10.00">math/blas/Constants.h</text>
</a>
</g>
</g>
<!-- Node29&#45;&gt;Node31 -->
<g id="edge45" class="edge">
<title>Node29&#45;&gt;Node31</title>
<path fill="none" stroke="midnightblue" d="M1620.4,-224.32C1610.54,-216.26 1595.65,-204.08 1583.78,-194.37"/>
<polygon fill="midnightblue" stroke="midnightblue" points="1585.75,-191.46 1575.8,-187.83 1581.32,-196.88 1585.75,-191.46"/>
</g>
<!-- Node29&#45;&gt;Node32 -->
<g id="edge46" class="edge">
<title>Node29&#45;&gt;Node32</title>
<path fill="none" stroke="midnightblue" d="M1596.46,-224.44C1558.75,-215.1 1498.26,-200.12 1457.14,-189.93"/>
<polygon fill="midnightblue" stroke="midnightblue" points="1457.93,-186.52 1447.38,-187.52 1456.25,-193.32 1457.93,-186.52"/>
</g>
<!-- Node32&#45;&gt;Node4 -->
<g id="edge56" class="edge">
<title>Node32&#45;&gt;Node4</title>
<path fill="none" stroke="midnightblue" d="M1342.04,-169.47C1337.29,-168.97 1332.58,-168.48 1328,-168 1182.35,-152.77 1009.29,-135.01 932.34,-127.13"/>
<polygon fill="midnightblue" stroke="midnightblue" points="932.44,-123.62 922.13,-126.08 931.72,-130.58 932.44,-123.62"/>
</g>
<!-- Node32&#45;&gt;Node5 -->
<g id="edge55" class="edge">
<title>Node32&#45;&gt;Node5</title>
<path fill="none" stroke="midnightblue" d="M1388.28,-168.44C1362.15,-159.4 1320.74,-145.06 1291.42,-134.92"/>
<polygon fill="midnightblue" stroke="midnightblue" points="1292.2,-131.48 1281.6,-131.52 1289.91,-138.1 1292.2,-131.48"/>
</g>
<!-- Node32&#45;&gt;Node17 -->
<g id="edge54" class="edge">
<title>Node32&#45;&gt;Node17</title>
<path fill="none" stroke="midnightblue" d="M1410.03,-168.4C1406.93,-159.37 1401.98,-144.73 1398,-132 1393.12,-116.4 1387.94,-98.56 1384.22,-85.53"/>
<polygon fill="midnightblue" stroke="midnightblue" points="1387.57,-84.53 1381.48,-75.86 1380.84,-86.44 1387.57,-84.53"/>
</g>
<!-- Node32&#45;&gt;Node27 -->
<g id="edge57" class="edge">
<title>Node32&#45;&gt;Node27</title>
<path fill="none" stroke="midnightblue" d="M1455.31,-168.44C1508.19,-157.75 1597.63,-139.66 1646.19,-129.84"/>
<polygon fill="midnightblue" stroke="midnightblue" points="1647.08,-133.23 1656.19,-127.82 1645.69,-126.37 1647.08,-133.23"/>
</g>
<!-- Node32&#45;&gt;Node30 -->
<g id="edge53" class="edge">
<title>Node32&#45;&gt;Node30</title>
<path fill="none" stroke="midnightblue" d="M1438.04,-168.44C1464.62,-159.36 1506.81,-144.94 1536.52,-134.78"/>
<polygon fill="midnightblue" stroke="midnightblue" points="1537.75,-138.06 1546.08,-131.52 1535.49,-131.44 1537.75,-138.06"/>
</g>
<!-- Node33 -->
<g id="node33" class="node">
<title>Node33</title>
<g id="a_node33"><a xlink:href="../../de/dcb/LazyVector_8h.html" target="_top" xlink:title="TODO:: DOCUMENT.">
<polygon fill="white" stroke="black" points="1407,-112.5 1407,-131.5 1485,-131.5 1485,-112.5 1407,-112.5"/>
<text text-anchor="middle" x="1446" y="-119.5" font-family="Helvetica,sans-Serif" font-size="10.00">LazyVector.h</text>
</a>
</g>
</g>
<!-- Node32&#45;&gt;Node33 -->
<g id="edge47" class="edge">
<title>Node32&#45;&gt;Node33</title>
<path fill="none" stroke="midnightblue" d="M1418.45,-168.08C1423.01,-160.61 1429.67,-149.72 1435.29,-140.52"/>
<polygon fill="midnightblue" stroke="midnightblue" points="1438.42,-142.11 1440.65,-131.75 1432.45,-138.46 1438.42,-142.11"/>
</g>
<!-- Node33&#45;&gt;Node17 -->
<g id="edge50" class="edge">
<title>Node33&#45;&gt;Node17</title>
<path fill="none" stroke="midnightblue" d="M1435.24,-112.32C1425.23,-104.26 1410.11,-92.08 1398.07,-82.37"/>
<polygon fill="midnightblue" stroke="midnightblue" points="1399.94,-79.38 1389.96,-75.83 1395.55,-84.83 1399.94,-79.38"/>
</g>
<!-- Node33&#45;&gt;Node23 -->
<g id="edge48" class="edge">
<title>Node33&#45;&gt;Node23</title>
<path fill="none" stroke="midnightblue" d="M1485.17,-113.6C1538.78,-103.48 1634.62,-85.39 1689.78,-74.97"/>
<polygon fill="midnightblue" stroke="midnightblue" points="1690.74,-78.35 1699.92,-73.06 1689.44,-71.47 1690.74,-78.35"/>
</g>
<!-- Node34 -->
<g id="node34" class="node">
<title>Node34</title>
<g id="a_node34"><a xlink:title=" ">
<polygon fill="white" stroke="#bfbfbf" points="1457.5,-0.5 1457.5,-19.5 1510.5,-19.5 1510.5,-0.5 1457.5,-0.5"/>
<text text-anchor="middle" x="1484" y="-7.5" font-family="Helvetica,sans-Serif" font-size="10.00">cstddef</text>
</a>
</g>
</g>
<!-- Node33&#45;&gt;Node34 -->
<g id="edge49" class="edge">
<title>Node33&#45;&gt;Node34</title>
<path fill="none" stroke="midnightblue" d="M1447.51,-112.41C1449.85,-99.81 1454.87,-75.66 1462,-56 1465.37,-46.7 1470.09,-36.78 1474.3,-28.63"/>
<polygon fill="midnightblue" stroke="midnightblue" points="1477.43,-30.19 1479.04,-19.72 1471.25,-26.9 1477.43,-30.19"/>
</g>
<!-- Node35 -->
<g id="node35" class="node">
<title>Node35</title>
<g id="a_node35"><a xlink:href="../../d6/d9f/VectorExpression_8h.html" target="_top" xlink:title="TODO:: DOCUMENT.">
<polygon fill="white" stroke="black" points="1471,-56.5 1471,-75.5 1581,-75.5 1581,-56.5 1471,-56.5"/>
<text text-anchor="middle" x="1526" y="-63.5" font-family="Helvetica,sans-Serif" font-size="10.00">VectorExpression.h</text>
</a>
</g>
</g>
<!-- Node33&#45;&gt;Node35 -->
<g id="edge51" class="edge">
<title>Node33&#45;&gt;Node35</title>
<path fill="none" stroke="midnightblue" d="M1458.85,-112.32C1471.22,-103.98 1490.13,-91.21 1504.74,-81.35"/>
<polygon fill="midnightblue" stroke="midnightblue" points="1506.85,-84.15 1513.18,-75.65 1502.93,-78.35 1506.85,-84.15"/>
</g>
<!-- Node35&#45;&gt;Node34 -->
<g id="edge52" class="edge">
<title>Node35&#45;&gt;Node34</title>
<path fill="none" stroke="midnightblue" d="M1519.06,-56.08C1513.07,-48.38 1504.25,-37.03 1496.95,-27.65"/>
<polygon fill="midnightblue" stroke="midnightblue" points="1499.71,-25.5 1490.81,-19.75 1494.18,-29.79 1499.71,-25.5"/>
</g>
</g>
</svg>
