<?xml version="1.0" encoding="UTF-8" standalone="no"?>
<!DOCTYPE svg PUBLIC "-//W3C//DTD SVG 1.1//EN"
 "http://www.w3.org/Graphics/SVG/1.1/DTD/svg11.dtd">
<!-- Generated by graphviz version 2.43.0 (0)
 -->
<!-- Title: DiffusionParamsTest Pages: 1 -->
<svg width="252pt" height="215pt"
 viewBox="0.00 0.00 251.50 215.00" xmlns="http://www.w3.org/2000/svg" xmlns:xlink="http://www.w3.org/1999/xlink">
<g id="graph0" class="graph" transform="scale(1 1) rotate(0) translate(4 211)">
<title>DiffusionParamsTest</title>
<polygon fill="white" stroke="transparent" points="-4,4 -4,-211 247.5,-211 247.5,4 -4,4"/>
<!-- Node1 -->
<g id="node1" class="node">
<title>Node1</title>
<g id="a_node1"><a xlink:title="A test fixture class for DiffusionParams.">
<polygon fill="#bfbfbf" stroke="black" points="45,-0.5 45,-57.5 161,-57.5 161,-0.5 45,-0.5"/>
<text text-anchor="middle" x="103" y="-45.5" font-family="Helvetica,sans-Serif" font-size="10.00">DiffusionParamsTest</text>
<polyline fill="none" stroke="black" points="45,-38.5 161,-38.5 "/>
<text text-anchor="middle" x="103" y="-26.5" font-family="Helvetica,sans-Serif" font-size="10.00"> </text>
<polyline fill="none" stroke="black" points="45,-19.5 161,-19.5 "/>
<text text-anchor="middle" x="103" y="-7.5" font-family="Helvetica,sans-Serif" font-size="10.00"> </text>
</a>
</g>
</g>
<!-- Node2 -->
<g id="node2" class="node">
<title>Node2</title>
<g id="a_node2"><a xlink:title=" ">
<polygon fill="white" stroke="#bfbfbf" points="0,-127.5 0,-184.5 76,-184.5 76,-127.5 0,-127.5"/>
<text text-anchor="middle" x="38" y="-172.5" font-family="Helvetica,sans-Serif" font-size="10.00">testing::Test</text>
<polyline fill="none" stroke="#bfbfbf" points="0,-165.5 76,-165.5 "/>
<text text-anchor="middle" x="38" y="-153.5" font-family="Helvetica,sans-Serif" font-size="10.00"> </text>
<polyline fill="none" stroke="#bfbfbf" points="0,-146.5 76,-146.5 "/>
<text text-anchor="middle" x="38" y="-134.5" font-family="Helvetica,sans-Serif" font-size="10.00"> </text>
</a>
</g>
</g>
<!-- Node2&#45;&gt;Node1 -->
<g id="edge1" class="edge">
<title>Node2&#45;&gt;Node1</title>
<path fill="none" stroke="midnightblue" d="M57.04,-118.38C67.13,-98.98 79.32,-75.53 88.61,-57.66"/>
<polygon fill="none" stroke="midnightblue" points="53.93,-116.77 52.43,-127.26 60.14,-120 53.93,-116.77"/>
</g>
<!-- Node3 -->
<g id="node3" class="node">
<title>Node3</title>
<g id="a_node3"><a xlink:href="../../d6/d0c/structMyPhysics_1_1Diffusion_1_1Params.html" target="_top" xlink:title=" ">
<polygon fill="white" stroke="black" points="94.5,-105.5 94.5,-206.5 243.5,-206.5 243.5,-105.5 94.5,-105.5"/>
<text text-anchor="start" x="102.5" y="-194.5" font-family="Helvetica,sans-Serif" font-size="10.00">MyPhysics::Diffusion</text>
<text text-anchor="middle" x="169" y="-183.5" font-family="Helvetica,sans-Serif" font-size="10.00">::Params&lt; FLOAT_TYPE &gt;</text>
<polyline fill="none" stroke="black" points="94.5,-176.5 243.5,-176.5 "/>
<text text-anchor="start" x="102.5" y="-164.5" font-family="Helvetica,sans-Serif" font-size="10.00">&#45; _a</text>
<text text-anchor="start" x="102.5" y="-153.5" font-family="Helvetica,sans-Serif" font-size="10.00">and 8 more...</text>
<polyline fill="none" stroke="black" points="94.5,-146.5 243.5,-146.5 "/>
<text text-anchor="start" x="102.5" y="-134.5" font-family="Helvetica,sans-Serif" font-size="10.00">+ Params()</text>
<text text-anchor="start" x="102.5" y="-123.5" font-family="Helvetica,sans-Serif" font-size="10.00">and 17 more...</text>
<text text-anchor="start" x="102.5" y="-112.5" font-family="Helvetica,sans-Serif" font-size="10.00">&#45; compute_mesh_spacing()</text>
</a>
</g>
</g>
<!-- Node3&#45;&gt;Node1 -->
<g id="edge2" class="edge">
<title>Node3&#45;&gt;Node1</title>
<path fill="none" stroke="#404040" d="M142.73,-105.24C136.24,-92.96 129.4,-79.99 123.25,-68.35"/>
<polygon fill="none" stroke="#404040" points="123.21,-68.27 116.87,-64.83 117.6,-57.66 123.94,-61.1 123.21,-68.27"/>
<text text-anchor="middle" x="157.5" y="-79" font-family="Helvetica,sans-Serif" font-size="10.00"> #params</text>
</g>
</g>
</svg>
