<?xml version="1.0" encoding="UTF-8" standalone="no"?>
<!DOCTYPE svg PUBLIC "-//W3C//DTD SVG 1.1//EN"
 "http://www.w3.org/Graphics/SVG/1.1/DTD/svg11.dtd">
<!-- Generated by graphviz version 2.43.0 (0)
 -->
<!-- Title: MyRelaxationMethod::applyConjugateGradient Pages: 1 -->
<svg width="503pt" height="104pt"
 viewBox="0.00 0.00 503.00 104.00" xmlns="http://www.w3.org/2000/svg" xmlns:xlink="http://www.w3.org/1999/xlink">
<g id="graph0" class="graph" transform="scale(1 1) rotate(0) translate(4 100)">
<title>MyRelaxationMethod::applyConjugateGradient</title>
<polygon fill="white" stroke="transparent" points="-4,4 -4,-100 499,-100 499,4 -4,4"/>
<!-- Node1 -->
<g id="node1" class="node">
<title>Node1</title>
<g id="a_node1"><a xlink:title=" ">
<polygon fill="#bfbfbf" stroke="black" points="0,-33 0,-63 141,-63 141,-33 0,-33"/>
<text text-anchor="start" x="8" y="-51" font-family="Helvetica,sans-Serif" font-size="10.00">MyRelaxationMethod</text>
<text text-anchor="middle" x="70.5" y="-40" font-family="Helvetica,sans-Serif" font-size="10.00">::applyConjugateGradient</text>
</a>
</g>
</g>
<!-- Node2 -->
<g id="node2" class="node">
<title>Node2</title>
<g id="a_node2"><a xlink:href="../../d0/d27/classMyBLAS_1_1Matrix.html#a0772df3e76eadc9035e847316de0d249" target="_top" xlink:title="Getter for the number of rows in the matrix.">
<polygon fill="white" stroke="black" points="177,-76.5 177,-95.5 320,-95.5 320,-76.5 177,-76.5"/>
<text text-anchor="middle" x="248.5" y="-83.5" font-family="Helvetica,sans-Serif" font-size="10.00">MyBLAS::Matrix::getRows</text>
</a>
</g>
</g>
<!-- Node1&#45;&gt;Node2 -->
<g id="edge1" class="edge">
<title>Node1&#45;&gt;Node2</title>
<path fill="none" stroke="midnightblue" d="M141.06,-63.02C158.49,-66.78 176.92,-70.76 193.47,-74.33"/>
<polygon fill="midnightblue" stroke="midnightblue" points="192.98,-77.81 203.5,-76.5 194.46,-70.97 192.98,-77.81"/>
</g>
<!-- Node3 -->
<g id="node3" class="node">
<title>Node3</title>
<g id="a_node3"><a xlink:href="../../dd/df5/namespaceMyBLAS_1_1Stats.html#a403bf760cf802cddf8dd73e5d3e46a05" target="_top" xlink:title="Function to find the maximum value in a vector.">
<polygon fill="white" stroke="black" points="190.5,-38.5 190.5,-57.5 306.5,-57.5 306.5,-38.5 190.5,-38.5"/>
<text text-anchor="middle" x="248.5" y="-45.5" font-family="Helvetica,sans-Serif" font-size="10.00">MyBLAS::Stats::max</text>
</a>
</g>
</g>
<!-- Node1&#45;&gt;Node3 -->
<g id="edge2" class="edge">
<title>Node1&#45;&gt;Node3</title>
<path fill="none" stroke="midnightblue" d="M141.06,-48C153.95,-48 167.39,-48 180.21,-48"/>
<polygon fill="midnightblue" stroke="midnightblue" points="180.34,-51.5 190.34,-48 180.34,-44.5 180.34,-51.5"/>
</g>
<!-- Node5 -->
<g id="node5" class="node">
<title>Node5</title>
<g id="a_node5"><a xlink:href="../../de/d4d/namespaceMyMath.html#af3e9a9de7b922fdfb6e3d2988b1212ff" target="_top" xlink:title="A template function to calculate the power of a base number.">
<polygon fill="white" stroke="black" points="207,-0.5 207,-19.5 290,-19.5 290,-0.5 207,-0.5"/>
<text text-anchor="middle" x="248.5" y="-7.5" font-family="Helvetica,sans-Serif" font-size="10.00">MyMath::pow</text>
</a>
</g>
</g>
<!-- Node1&#45;&gt;Node5 -->
<g id="edge4" class="edge">
<title>Node1&#45;&gt;Node5</title>
<path fill="none" stroke="midnightblue" d="M141.06,-32.98C159.69,-28.96 179.48,-24.69 196.88,-20.93"/>
<polygon fill="midnightblue" stroke="midnightblue" points="197.78,-24.32 206.82,-18.78 196.3,-17.47 197.78,-24.32"/>
</g>
<!-- Node4 -->
<g id="node4" class="node">
<title>Node4</title>
<g id="a_node4"><a xlink:href="../../d4/d4d/classMyBLAS_1_1Vector.html#a6188d71192e096e25ae1c1a46150a0ab" target="_top" xlink:title="Getter for the vector data.">
<polygon fill="white" stroke="black" points="356,-38.5 356,-57.5 495,-57.5 495,-38.5 356,-38.5"/>
<text text-anchor="middle" x="425.5" y="-45.5" font-family="Helvetica,sans-Serif" font-size="10.00">MyBLAS::Vector::getData</text>
</a>
</g>
</g>
<!-- Node3&#45;&gt;Node4 -->
<g id="edge3" class="edge">
<title>Node3&#45;&gt;Node4</title>
<path fill="none" stroke="midnightblue" d="M306.8,-48C319.15,-48 332.41,-48 345.43,-48"/>
<polygon fill="midnightblue" stroke="midnightblue" points="345.79,-51.5 355.79,-48 345.79,-44.5 345.79,-51.5"/>
</g>
<!-- Node6 -->
<g id="node6" class="node">
<title>Node6</title>
<g id="a_node6"><a xlink:href="../../de/d4d/namespaceMyMath.html#a5f2b6e445ba885637efd0db1a7708919" target="_top" xlink:title="A template specialization function to calculate the power of a __float128 base number.">
<polygon fill="white" stroke="black" points="384,-0.5 384,-19.5 467,-19.5 467,-0.5 384,-0.5"/>
<text text-anchor="middle" x="425.5" y="-7.5" font-family="Helvetica,sans-Serif" font-size="10.00">MyMath::pow</text>
</a>
</g>
</g>
<!-- Node5&#45;&gt;Node6 -->
<g id="edge5" class="edge">
<title>Node5&#45;&gt;Node6</title>
<path fill="none" stroke="midnightblue" d="M290.09,-10C314.96,-10 347.01,-10 373.57,-10"/>
<polygon fill="midnightblue" stroke="midnightblue" points="373.83,-13.5 383.83,-10 373.83,-6.5 373.83,-13.5"/>
</g>
</g>
</svg>
