<?xml version="1.0" encoding="UTF-8" standalone="no"?>
<!DOCTYPE svg PUBLIC "-//W3C//DTD SVG 1.1//EN"
 "http://www.w3.org/Graphics/SVG/1.1/DTD/svg11.dtd">
<!-- Generated by graphviz version 2.43.0 (0)
 -->
<!-- Title: MyRelaxationMethod::applyGaussSeidel Pages: 1 -->
<svg width="878pt" height="142pt"
 viewBox="0.00 0.00 878.00 142.00" xmlns="http://www.w3.org/2000/svg" xmlns:xlink="http://www.w3.org/1999/xlink">
<g id="graph0" class="graph" transform="scale(1 1) rotate(0) translate(4 138)">
<title>MyRelaxationMethod::applyGaussSeidel</title>
<polygon fill="white" stroke="transparent" points="-4,4 -4,-138 874,-138 874,4 -4,4"/>
<!-- Node1 -->
<g id="node1" class="node">
<title>Node1</title>
<g id="a_node1"><a xlink:title="This function applies the Gauss&#45;Seidel method to solve a system of linear equations.">
<polygon fill="#bfbfbf" stroke="black" points="0,-52 0,-82 121,-82 121,-52 0,-52"/>
<text text-anchor="start" x="8" y="-70" font-family="Helvetica,sans-Serif" font-size="10.00">MyRelaxationMethod</text>
<text text-anchor="middle" x="60.5" y="-59" font-family="Helvetica,sans-Serif" font-size="10.00">::applyGaussSeidel</text>
</a>
</g>
</g>
<!-- Node2 -->
<g id="node2" class="node">
<title>Node2</title>
<g id="a_node2"><a xlink:href="../../d7/d9a/namespaceMyRelaxationMethod.html#a52bbc804a62498444281f3b3ac5c2c74" target="_top" xlink:title="This function applies the Successive Over&#45;Relaxation (SOR) method to solve a system of linear equatio...">
<polygon fill="white" stroke="black" points="157,-52 157,-82 278,-82 278,-52 157,-52"/>
<text text-anchor="start" x="165" y="-70" font-family="Helvetica,sans-Serif" font-size="10.00">MyRelaxationMethod</text>
<text text-anchor="middle" x="217.5" y="-59" font-family="Helvetica,sans-Serif" font-size="10.00">::applySOR</text>
</a>
</g>
</g>
<!-- Node1&#45;&gt;Node2 -->
<g id="edge1" class="edge">
<title>Node1&#45;&gt;Node2</title>
<path fill="none" stroke="midnightblue" d="M121.43,-67C129.72,-67 138.31,-67 146.76,-67"/>
<polygon fill="midnightblue" stroke="midnightblue" points="146.99,-70.5 156.99,-67 146.99,-63.5 146.99,-70.5"/>
</g>
<!-- Node3 -->
<g id="node3" class="node">
<title>Node3</title>
<g id="a_node3"><a xlink:href="../../d2/d6e/namespaceMyBLAS.html#ac6dacb7fc104126e5fa62e02f0ec1446" target="_top" xlink:title=" ">
<polygon fill="white" stroke="black" points="314,-76.5 314,-95.5 388,-95.5 388,-76.5 314,-76.5"/>
<text text-anchor="middle" x="351" y="-83.5" font-family="Helvetica,sans-Serif" font-size="10.00">MyBLAS::L2</text>
</a>
</g>
</g>
<!-- Node2&#45;&gt;Node3 -->
<g id="edge2" class="edge">
<title>Node2&#45;&gt;Node3</title>
<path fill="none" stroke="midnightblue" d="M278.09,-75.61C286.79,-76.87 295.63,-78.14 304,-79.35"/>
<polygon fill="midnightblue" stroke="midnightblue" points="303.54,-82.82 313.94,-80.79 304.54,-75.9 303.54,-82.82"/>
</g>
<!-- Node5 -->
<g id="node5" class="node">
<title>Node5</title>
<g id="a_node5"><a xlink:href="../../de/d4d/namespaceMyMath.html#af3e9a9de7b922fdfb6e3d2988b1212ff" target="_top" xlink:title=" ">
<polygon fill="white" stroke="black" points="594,-114.5 594,-133.5 677,-133.5 677,-114.5 594,-114.5"/>
<text text-anchor="middle" x="635.5" y="-121.5" font-family="Helvetica,sans-Serif" font-size="10.00">MyMath::pow</text>
</a>
</g>
</g>
<!-- Node2&#45;&gt;Node5 -->
<g id="edge12" class="edge">
<title>Node2&#45;&gt;Node5</title>
<path fill="none" stroke="midnightblue" d="M251.52,-82.03C269.66,-89.79 292.73,-98.9 314,-105 410.93,-132.8 439.16,-125.53 540,-125 554.13,-124.93 569.44,-124.79 583.55,-124.64"/>
<polygon fill="midnightblue" stroke="midnightblue" points="583.61,-128.14 593.57,-124.53 583.53,-121.14 583.61,-128.14"/>
</g>
<!-- Node8 -->
<g id="node8" class="node">
<title>Node8</title>
<g id="a_node8"><a xlink:href="../../dd/df5/namespaceMyBLAS_1_1Stats.html#aaa0d2e3d22af2b7894169b7c90ba6146" target="_top" xlink:title="Function to find the sum of all elements in a vector.">
<polygon fill="white" stroke="black" points="578,-38.5 578,-57.5 693,-57.5 693,-38.5 578,-38.5"/>
<text text-anchor="middle" x="635.5" y="-45.5" font-family="Helvetica,sans-Serif" font-size="10.00">MyBLAS::Stats::sum</text>
</a>
</g>
</g>
<!-- Node2&#45;&gt;Node8 -->
<g id="edge13" class="edge">
<title>Node2&#45;&gt;Node8</title>
<path fill="none" stroke="midnightblue" d="M278.1,-64.28C354.65,-60.78 487.13,-54.73 567.22,-51.07"/>
<polygon fill="midnightblue" stroke="midnightblue" points="567.85,-54.55 577.68,-50.6 567.53,-47.56 567.85,-54.55"/>
</g>
<!-- Node10 -->
<g id="node10" class="node">
<title>Node10</title>
<g id="a_node10"><a xlink:href="../../dd/df5/namespaceMyBLAS_1_1Stats.html#a403bf760cf802cddf8dd73e5d3e46a05" target="_top" xlink:title="Function to find the maximum value in a vector.">
<polygon fill="white" stroke="black" points="424,-0.5 424,-19.5 540,-19.5 540,-0.5 424,-0.5"/>
<text text-anchor="middle" x="482" y="-7.5" font-family="Helvetica,sans-Serif" font-size="10.00">MyBLAS::Stats::max</text>
</a>
</g>
</g>
<!-- Node2&#45;&gt;Node10 -->
<g id="edge10" class="edge">
<title>Node2&#45;&gt;Node10</title>
<path fill="none" stroke="midnightblue" d="M256.57,-51.98C273.87,-45.64 294.74,-38.67 314,-34 346.35,-26.16 382.9,-20.55 413.53,-16.74"/>
<polygon fill="midnightblue" stroke="midnightblue" points="414.17,-20.19 423.68,-15.51 413.33,-13.24 414.17,-20.19"/>
</g>
<!-- Node4 -->
<g id="node4" class="node">
<title>Node4</title>
<g id="a_node4"><a xlink:href="../../d2/d6e/namespaceMyBLAS.html#ac12a3b113ae6b7edd2fcb21280c0f804" target="_top" xlink:title=" ">
<polygon fill="white" stroke="black" points="437.5,-76.5 437.5,-95.5 526.5,-95.5 526.5,-76.5 437.5,-76.5"/>
<text text-anchor="middle" x="482" y="-83.5" font-family="Helvetica,sans-Serif" font-size="10.00">MyBLAS::norm</text>
</a>
</g>
</g>
<!-- Node3&#45;&gt;Node4 -->
<g id="edge3" class="edge">
<title>Node3&#45;&gt;Node4</title>
<path fill="none" stroke="midnightblue" d="M388.28,-86C400.27,-86 413.89,-86 426.93,-86"/>
<polygon fill="midnightblue" stroke="midnightblue" points="427.21,-89.5 437.21,-86 427.21,-82.5 427.21,-89.5"/>
</g>
<!-- Node3&#45;&gt;Node5 -->
<g id="edge9" class="edge">
<title>Node3&#45;&gt;Node5</title>
<path fill="none" stroke="midnightblue" d="M383.64,-95.58C396.12,-99.03 410.63,-102.65 424,-105 478.09,-114.51 540.88,-119.39 583.71,-121.81"/>
<polygon fill="midnightblue" stroke="midnightblue" points="583.71,-125.31 593.88,-122.36 584.08,-118.33 583.71,-125.31"/>
</g>
<!-- Node4&#45;&gt;Node5 -->
<g id="edge4" class="edge">
<title>Node4&#45;&gt;Node5</title>
<path fill="none" stroke="midnightblue" d="M521.23,-95.59C541.13,-100.58 565.66,-106.73 586.79,-112.03"/>
<polygon fill="midnightblue" stroke="midnightblue" points="585.99,-115.44 596.55,-114.48 587.7,-108.65 585.99,-115.44"/>
</g>
<!-- Node7 -->
<g id="node7" class="node">
<title>Node7</title>
<g id="a_node7"><a xlink:href="../../d4/d4d/classMyBLAS_1_1Vector.html#aae30f8178e4a34d332317c61e77c147a" target="_top" xlink:title="Getter for the size of the vector.">
<polygon fill="white" stroke="black" points="576,-76.5 576,-95.5 695,-95.5 695,-76.5 576,-76.5"/>
<text text-anchor="middle" x="635.5" y="-83.5" font-family="Helvetica,sans-Serif" font-size="10.00">MyBLAS::Vector::size</text>
</a>
</g>
</g>
<!-- Node4&#45;&gt;Node7 -->
<g id="edge6" class="edge">
<title>Node4&#45;&gt;Node7</title>
<path fill="none" stroke="midnightblue" d="M526.82,-86C539.01,-86 552.54,-86 565.79,-86"/>
<polygon fill="midnightblue" stroke="midnightblue" points="565.84,-89.5 575.84,-86 565.84,-82.5 565.84,-89.5"/>
</g>
<!-- Node4&#45;&gt;Node8 -->
<g id="edge7" class="edge">
<title>Node4&#45;&gt;Node8</title>
<path fill="none" stroke="midnightblue" d="M521.23,-76.41C541.13,-71.42 565.66,-65.27 586.79,-59.97"/>
<polygon fill="midnightblue" stroke="midnightblue" points="587.7,-63.35 596.55,-57.52 585.99,-56.56 587.7,-63.35"/>
</g>
<!-- Node6 -->
<g id="node6" class="node">
<title>Node6</title>
<g id="a_node6"><a xlink:href="../../de/d4d/namespaceMyMath.html#a5f2b6e445ba885637efd0db1a7708919" target="_top" xlink:title=" ">
<polygon fill="white" stroke="black" points="759,-114.5 759,-133.5 842,-133.5 842,-114.5 759,-114.5"/>
<text text-anchor="middle" x="800.5" y="-121.5" font-family="Helvetica,sans-Serif" font-size="10.00">MyMath::pow</text>
</a>
</g>
</g>
<!-- Node5&#45;&gt;Node6 -->
<g id="edge5" class="edge">
<title>Node5&#45;&gt;Node6</title>
<path fill="none" stroke="midnightblue" d="M677.21,-124C698.8,-124 725.53,-124 748.49,-124"/>
<polygon fill="midnightblue" stroke="midnightblue" points="748.74,-127.5 758.74,-124 748.74,-120.5 748.74,-127.5"/>
</g>
<!-- Node9 -->
<g id="node9" class="node">
<title>Node9</title>
<g id="a_node9"><a xlink:href="../../d4/d4d/classMyBLAS_1_1Vector.html#a6188d71192e096e25ae1c1a46150a0ab" target="_top" xlink:title="Getter for the vector data.">
<polygon fill="white" stroke="black" points="731,-19.5 731,-38.5 870,-38.5 870,-19.5 731,-19.5"/>
<text text-anchor="middle" x="800.5" y="-26.5" font-family="Helvetica,sans-Serif" font-size="10.00">MyBLAS::Vector::getData</text>
</a>
</g>
</g>
<!-- Node8&#45;&gt;Node9 -->
<g id="edge8" class="edge">
<title>Node8&#45;&gt;Node9</title>
<path fill="none" stroke="midnightblue" d="M693.05,-41.41C702.03,-40.36 711.46,-39.26 720.84,-38.17"/>
<polygon fill="midnightblue" stroke="midnightblue" points="721.44,-41.62 730.97,-36.99 720.63,-34.67 721.44,-41.62"/>
</g>
<!-- Node10&#45;&gt;Node9 -->
<g id="edge11" class="edge">
<title>Node10&#45;&gt;Node9</title>
<path fill="none" stroke="midnightblue" d="M540.32,-13.44C590.71,-16.47 664.54,-20.9 720.52,-24.26"/>
<polygon fill="midnightblue" stroke="midnightblue" points="720.57,-27.77 730.76,-24.87 720.99,-20.78 720.57,-27.77"/>
</g>
</g>
</svg>
