<?xml version="1.0" encoding="UTF-8" standalone="no"?>
<!DOCTYPE svg PUBLIC "-//W3C//DTD SVG 1.1//EN"
 "http://www.w3.org/Graphics/SVG/1.1/DTD/svg11.dtd">
<!-- Generated by graphviz version 2.43.0 (0)
 -->
<!-- Title: MyRelaxationMethod::passesPreChecks Pages: 1 -->
<svg width="456pt" height="230pt"
 viewBox="0.00 0.00 456.00 230.00" xmlns="http://www.w3.org/2000/svg" xmlns:xlink="http://www.w3.org/1999/xlink">
<g id="graph0" class="graph" transform="scale(1 1) rotate(0) translate(4 226)">
<title>MyRelaxationMethod::passesPreChecks</title>
<polygon fill="white" stroke="transparent" points="-4,4 -4,-226 452,-226 452,4 -4,4"/>
<!-- Node1 -->
<g id="node1" class="node">
<title>Node1</title>
<g id="a_node1"><a xlink:title="Function to perform pre&#45;checks on the coefficient matrix and the right&#45;hand side vector.">
<polygon fill="#bfbfbf" stroke="black" points="327,-102 327,-132 448,-132 448,-102 327,-102"/>
<text text-anchor="start" x="335" y="-120" font-family="Helvetica,sans-Serif" font-size="10.00">MyRelaxationMethod</text>
<text text-anchor="middle" x="387.5" y="-109" font-family="Helvetica,sans-Serif" font-size="10.00">::passesPreChecks</text>
</a>
</g>
</g>
<!-- Node2 -->
<g id="node2" class="node">
<title>Node2</title>
<g id="a_node2"><a xlink:href="../../de/db3/namespaceCompute.html#a017b511b9ab24d2388a864d6cb14c1cc" target="_top" xlink:title="Solves a linear system using the Gauss&#45;Seidel method.">
<polygon fill="white" stroke="black" points="126.5,-202.5 126.5,-221.5 279.5,-221.5 279.5,-202.5 126.5,-202.5"/>
<text text-anchor="middle" x="203" y="-209.5" font-family="Helvetica,sans-Serif" font-size="10.00">Compute::usingGaussSeidel</text>
</a>
</g>
</g>
<!-- Node1&#45;&gt;Node2 -->
<g id="edge1" class="edge">
<title>Node1&#45;&gt;Node2</title>
<path fill="none" stroke="midnightblue" d="M364.93,-139.02C346.77,-156.28 319.3,-179.55 291,-193 282.9,-196.85 274.01,-199.93 265.09,-202.39"/>
<polygon fill="midnightblue" stroke="midnightblue" points="367.38,-141.52 372.11,-132.04 362.5,-136.5 367.38,-141.52"/>
</g>
<!-- Node3 -->
<g id="node3" class="node">
<title>Node3</title>
<g id="a_node3"><a xlink:href="../../de/db3/namespaceCompute.html#a3b30a49d004f8370d19cd13f6492ddba" target="_top" xlink:title="Solves a linear system using the Jacobi SOR method.">
<polygon fill="white" stroke="black" points="131.5,-164.5 131.5,-183.5 274.5,-183.5 274.5,-164.5 131.5,-164.5"/>
<text text-anchor="middle" x="203" y="-171.5" font-family="Helvetica,sans-Serif" font-size="10.00">Compute::usingJacobiSOR</text>
</a>
</g>
</g>
<!-- Node1&#45;&gt;Node3 -->
<g id="edge2" class="edge">
<title>Node1&#45;&gt;Node3</title>
<path fill="none" stroke="midnightblue" d="M342.83,-136.12C326.75,-142.7 308.24,-149.73 291,-155 279.32,-158.57 266.56,-161.75 254.51,-164.44"/>
<polygon fill="midnightblue" stroke="midnightblue" points="344.61,-139.17 352.51,-132.1 341.93,-132.7 344.61,-139.17"/>
</g>
<!-- Node7 -->
<g id="node7" class="node">
<title>Node7</title>
<g id="a_node7"><a xlink:href="../../de/db3/namespaceCompute.html#a0741aa46b479eae78cfad76bdf7cb091" target="_top" xlink:title="Solves a linear system using the Point Jacobi method.">
<polygon fill="white" stroke="black" points="129.5,-126.5 129.5,-145.5 276.5,-145.5 276.5,-126.5 129.5,-126.5"/>
<text text-anchor="middle" x="203" y="-133.5" font-family="Helvetica,sans-Serif" font-size="10.00">Compute::usingPointJacobi</text>
</a>
</g>
</g>
<!-- Node1&#45;&gt;Node7 -->
<g id="edge6" class="edge">
<title>Node1&#45;&gt;Node7</title>
<path fill="none" stroke="midnightblue" d="M316.68,-124.27C303.63,-125.63 289.95,-127.05 276.81,-128.42"/>
<polygon fill="midnightblue" stroke="midnightblue" points="317.41,-127.71 327,-123.2 316.69,-120.75 317.41,-127.71"/>
</g>
<!-- Node8 -->
<g id="node8" class="node">
<title>Node8</title>
<g id="a_node8"><a xlink:href="../../de/db3/namespaceCompute.html#a26fcd23146e3ca00ed9eefc59c89c07a" target="_top" xlink:title="Solves a linear system using the Successive Over&#45;Relaxation (SOR) method.">
<polygon fill="white" stroke="black" points="146.5,-88.5 146.5,-107.5 259.5,-107.5 259.5,-88.5 146.5,-88.5"/>
<text text-anchor="middle" x="203" y="-95.5" font-family="Helvetica,sans-Serif" font-size="10.00">Compute::usingSOR</text>
</a>
</g>
</g>
<!-- Node1&#45;&gt;Node8 -->
<g id="edge7" class="edge">
<title>Node1&#45;&gt;Node8</title>
<path fill="none" stroke="midnightblue" d="M316.94,-109.76C298.01,-107.79 277.76,-105.68 259.71,-103.8"/>
<polygon fill="midnightblue" stroke="midnightblue" points="316.69,-113.25 327,-110.8 317.41,-106.29 316.69,-113.25"/>
</g>
<!-- Node9 -->
<g id="node9" class="node">
<title>Node9</title>
<g id="a_node9"><a xlink:href="../../de/db3/namespaceCompute.html#af9b2fed99d9965f94cb5cfab410419a0" target="_top" xlink:title="Solves a linear system using the Symmetric Gauss&#45;Seidel method.">
<polygon fill="white" stroke="black" points="115,-39 115,-69 291,-69 291,-39 115,-39"/>
<text text-anchor="start" x="123" y="-57" font-family="Helvetica,sans-Serif" font-size="10.00">Compute::usingSymmetricGauss</text>
<text text-anchor="middle" x="203" y="-46" font-family="Helvetica,sans-Serif" font-size="10.00">Seidel</text>
</a>
</g>
</g>
<!-- Node1&#45;&gt;Node9 -->
<g id="edge8" class="edge">
<title>Node1&#45;&gt;Node9</title>
<path fill="none" stroke="midnightblue" d="M341.44,-98.01C325.62,-91.63 307.64,-84.69 291,-79 280.89,-75.54 270.01,-72.16 259.48,-69.05"/>
<polygon fill="midnightblue" stroke="midnightblue" points="340.4,-101.37 350.99,-101.9 343.05,-94.88 340.4,-101.37"/>
</g>
<!-- Node10 -->
<g id="node10" class="node">
<title>Node10</title>
<g id="a_node10"><a xlink:href="../../de/db3/namespaceCompute.html#ab38c6016d5c4907c1f4f468600278560" target="_top" xlink:title="Solves a linear system using the Symmetric SOR method.">
<polygon fill="white" stroke="black" points="119.5,-0.5 119.5,-19.5 286.5,-19.5 286.5,-0.5 119.5,-0.5"/>
<text text-anchor="middle" x="203" y="-7.5" font-family="Helvetica,sans-Serif" font-size="10.00">Compute::usingSymmetricSOR</text>
</a>
</g>
</g>
<!-- Node1&#45;&gt;Node10 -->
<g id="edge10" class="edge">
<title>Node1&#45;&gt;Node10</title>
<path fill="none" stroke="midnightblue" d="M368,-94.13C350.36,-73.87 321.94,-45.1 291,-29 283.59,-25.15 275.44,-22.07 267.19,-19.62"/>
<polygon fill="midnightblue" stroke="midnightblue" points="365.52,-96.61 374.66,-101.96 370.85,-92.07 365.52,-96.61"/>
</g>
<!-- Node4 -->
<g id="node4" class="node">
<title>Node4</title>
<g id="a_node4"><a xlink:href="../../d0/d4c/classOutLab6.html#a901a1283fd029c9174f8469ac5cb3ad8" target="_top" xlink:title="This function runs the computation.">
<polygon fill="white" stroke="black" points="0,-183.5 0,-202.5 79,-202.5 79,-183.5 0,-183.5"/>
<text text-anchor="middle" x="39.5" y="-190.5" font-family="Helvetica,sans-Serif" font-size="10.00">OutLab6::run</text>
</a>
</g>
</g>
<!-- Node3&#45;&gt;Node4 -->
<g id="edge3" class="edge">
<title>Node3&#45;&gt;Node4</title>
<path fill="none" stroke="midnightblue" d="M121.11,-183.52C106.55,-185.23 92,-186.94 79.34,-188.43"/>
<polygon fill="midnightblue" stroke="midnightblue" points="121.64,-186.98 131.16,-182.33 120.82,-180.03 121.64,-186.98"/>
</g>
<!-- Node5 -->
<g id="node5" class="node">
<title>Node5</title>
<g id="a_node5"><a xlink:href="../../dd/db5/classProject2.html#a0990db917f6a27a4e1cb9ac885698524" target="_top" xlink:title="This function runs the project.">
<polygon fill="white" stroke="black" points="0.5,-145.5 0.5,-164.5 78.5,-164.5 78.5,-145.5 0.5,-145.5"/>
<text text-anchor="middle" x="39.5" y="-152.5" font-family="Helvetica,sans-Serif" font-size="10.00">Project2::run</text>
</a>
</g>
</g>
<!-- Node3&#45;&gt;Node5 -->
<g id="edge4" class="edge">
<title>Node3&#45;&gt;Node5</title>
<path fill="none" stroke="midnightblue" d="M121.01,-164.47C106.31,-162.74 91.63,-161.01 78.9,-159.52"/>
<polygon fill="midnightblue" stroke="midnightblue" points="120.82,-167.97 131.16,-165.67 121.64,-161.02 120.82,-167.97"/>
</g>
<!-- Node6 -->
<g id="node6" class="node">
<title>Node6</title>
<g id="a_node6"><a xlink:href="../../dd/dfb/classProject3.html#a8bcff99aaba60e7d5e5be3cb7552d163" target="_top" xlink:title="This function runs the project.">
<polygon fill="white" stroke="black" points="0.5,-85.5 0.5,-104.5 78.5,-104.5 78.5,-85.5 0.5,-85.5"/>
<text text-anchor="middle" x="39.5" y="-92.5" font-family="Helvetica,sans-Serif" font-size="10.00">Project3::run</text>
</a>
</g>
</g>
<!-- Node3&#45;&gt;Node6 -->
<g id="edge5" class="edge">
<title>Node3&#45;&gt;Node6</title>
<path fill="none" stroke="midnightblue" d="M130.91,-161.38C125.42,-159.54 120.05,-157.42 115,-155 88.34,-142.24 62.73,-118.21 49.61,-104.76"/>
<polygon fill="midnightblue" stroke="midnightblue" points="130.3,-164.86 140.89,-164.43 132.35,-158.16 130.3,-164.86"/>
</g>
<!-- Node9&#45;&gt;Node6 -->
<g id="edge9" class="edge">
<title>Node9&#45;&gt;Node6</title>
<path fill="none" stroke="midnightblue" d="M133.03,-71.51C114.2,-76.29 94.5,-81.29 78.14,-85.45"/>
<polygon fill="midnightblue" stroke="midnightblue" points="133.95,-74.89 142.78,-69.03 132.23,-68.1 133.95,-74.89"/>
</g>
</g>
</svg>
