<?xml version="1.0" encoding="UTF-8" standalone="no"?>
<!DOCTYPE svg PUBLIC "-//W3C//DTD SVG 1.1//EN"
 "http://www.w3.org/Graphics/SVG/1.1/DTD/svg11.dtd">
<!-- Generated by graphviz version 2.43.0 (0)
 -->
<!-- Title: MyRelaxationMethod::passesPreChecks Pages: 1 -->
<svg width="867pt" height="180pt"
 viewBox="0.00 0.00 867.00 180.00" xmlns="http://www.w3.org/2000/svg" xmlns:xlink="http://www.w3.org/1999/xlink">
<g id="graph0" class="graph" transform="scale(1 1) rotate(0) translate(4 176)">
<title>MyRelaxationMethod::passesPreChecks</title>
<polygon fill="white" stroke="transparent" points="-4,4 -4,-176 863,-176 863,4 -4,4"/>
<!-- Node1 -->
<g id="node1" class="node">
<title>Node1</title>
<g id="a_node1"><a xlink:title="Function to perform pre&#45;checks on the coefficient matrix and the right&#45;hand side vector.">
<polygon fill="#bfbfbf" stroke="black" points="0,-52 0,-82 121,-82 121,-52 0,-52"/>
<text text-anchor="start" x="8" y="-70" font-family="Helvetica,sans-Serif" font-size="10.00">MyRelaxationMethod</text>
<text text-anchor="middle" x="60.5" y="-59" font-family="Helvetica,sans-Serif" font-size="10.00">::passesPreChecks</text>
</a>
</g>
</g>
<!-- Node2 -->
<g id="node2" class="node">
<title>Node2</title>
<g id="a_node2"><a xlink:href="../../d2/d6e/namespaceMyBLAS.html#a4ae8cb61e3457065790607979b939564" target="_top" xlink:title="Checks if the given matrix is diagonally dominant.">
<polygon fill="white" stroke="black" points="157,-114.5 157,-133.5 329,-133.5 329,-114.5 157,-114.5"/>
<text text-anchor="middle" x="243" y="-121.5" font-family="Helvetica,sans-Serif" font-size="10.00">MyBLAS::isDiagonallyDominant</text>
</a>
</g>
</g>
<!-- Node1&#45;&gt;Node2 -->
<g id="edge1" class="edge">
<title>Node1&#45;&gt;Node2</title>
<path fill="none" stroke="midnightblue" d="M103.64,-82.15C120.2,-87.95 139.43,-94.49 157,-100 169.7,-103.98 183.56,-108.02 196.33,-111.63"/>
<polygon fill="midnightblue" stroke="midnightblue" points="195.73,-115.09 206.3,-114.41 197.61,-108.35 195.73,-115.09"/>
</g>
<!-- Node5 -->
<g id="node5" class="node">
<title>Node5</title>
<g id="a_node5"><a xlink:href="../../d2/d6e/namespaceMyBLAS.html#a0b887e323f8337bd87ef20dff8af5c1f" target="_top" xlink:title="Checks if the given matrix is a square matrix.">
<polygon fill="white" stroke="black" points="378.5,-76.5 378.5,-95.5 515.5,-95.5 515.5,-76.5 378.5,-76.5"/>
<text text-anchor="middle" x="447" y="-83.5" font-family="Helvetica,sans-Serif" font-size="10.00">MyBLAS::isSquareMatrix</text>
</a>
</g>
</g>
<!-- Node1&#45;&gt;Node5 -->
<g id="edge8" class="edge">
<title>Node1&#45;&gt;Node5</title>
<path fill="none" stroke="midnightblue" d="M121.16,-69.95C187.64,-73.23 295.37,-78.56 368.37,-82.16"/>
<polygon fill="midnightblue" stroke="midnightblue" points="368.27,-85.66 378.43,-82.66 368.61,-78.67 368.27,-85.66"/>
</g>
<!-- Node8 -->
<g id="node8" class="node">
<title>Node8</title>
<g id="a_node8"><a xlink:href="../../d2/d6e/namespaceMyBLAS.html#a1f0325293f4b4969ac4a450ba3db1f87" target="_top" xlink:title="Checks if the given matrix is empty.">
<polygon fill="white" stroke="black" points="176,-38.5 176,-57.5 310,-57.5 310,-38.5 176,-38.5"/>
<text text-anchor="middle" x="243" y="-45.5" font-family="Helvetica,sans-Serif" font-size="10.00">MyBLAS::isEmptyMatrix</text>
</a>
</g>
</g>
<!-- Node1&#45;&gt;Node8 -->
<g id="edge7" class="edge">
<title>Node1&#45;&gt;Node8</title>
<path fill="none" stroke="midnightblue" d="M121.1,-60.73C135.37,-59.22 150.8,-57.6 165.7,-56.03"/>
<polygon fill="midnightblue" stroke="midnightblue" points="166.34,-59.48 175.92,-54.96 165.61,-52.52 166.34,-59.48"/>
</g>
<!-- Node9 -->
<g id="node9" class="node">
<title>Node9</title>
<g id="a_node9"><a xlink:href="../../d2/d6e/namespaceMyBLAS.html#a56e77d4aef50489830f5ce0ef7bcf7a4" target="_top" xlink:title="Checks if there are no zeros in the diagonal of a matrix.">
<polygon fill="white" stroke="black" points="165.5,-0.5 165.5,-19.5 320.5,-19.5 320.5,-0.5 165.5,-0.5"/>
<text text-anchor="middle" x="243" y="-7.5" font-family="Helvetica,sans-Serif" font-size="10.00">MyBLAS::noZerosInDiagonal</text>
</a>
</g>
</g>
<!-- Node1&#45;&gt;Node9 -->
<g id="edge9" class="edge">
<title>Node1&#45;&gt;Node9</title>
<path fill="none" stroke="midnightblue" d="M95.51,-51.94C113.53,-44.35 136.2,-35.42 157,-29 165.4,-26.41 174.36,-24.01 183.21,-21.86"/>
<polygon fill="midnightblue" stroke="midnightblue" points="184.17,-25.23 193.1,-19.54 182.57,-18.42 184.17,-25.23"/>
</g>
<!-- Node3 -->
<g id="node3" class="node">
<title>Node3</title>
<g id="a_node3"><a xlink:href="../../dd/df5/namespaceMyBLAS_1_1Stats.html#afeaf3b7bba0ff1b952b35d0effc0bca9" target="_top" xlink:title="Function to find the absolute value of each element in a vector.">
<polygon fill="white" stroke="black" points="579,-73.5 579,-92.5 690,-92.5 690,-73.5 579,-73.5"/>
<text text-anchor="middle" x="634.5" y="-80.5" font-family="Helvetica,sans-Serif" font-size="10.00">MyBLAS::Stats::abs</text>
</a>
</g>
</g>
<!-- Node2&#45;&gt;Node3 -->
<g id="edge2" class="edge">
<title>Node2&#45;&gt;Node3</title>
<path fill="none" stroke="midnightblue" d="M329.12,-121.46C385.93,-119 462.19,-114.21 529,-105 547.27,-102.48 567.12,-98.6 584.56,-94.79"/>
<polygon fill="midnightblue" stroke="midnightblue" points="585.53,-98.16 594.53,-92.57 584,-91.33 585.53,-98.16"/>
</g>
<!-- Node2&#45;&gt;Node5 -->
<g id="edge4" class="edge">
<title>Node2&#45;&gt;Node5</title>
<path fill="none" stroke="midnightblue" d="M294.71,-114.46C322.21,-109.29 356.38,-102.86 385.28,-97.42"/>
<polygon fill="midnightblue" stroke="midnightblue" points="386.09,-100.83 395.27,-95.54 384.79,-93.95 386.09,-100.83"/>
</g>
<!-- Node6 -->
<g id="node6" class="node">
<title>Node6</title>
<g id="a_node6"><a xlink:href="../../dd/df5/namespaceMyBLAS_1_1Stats.html#aaa0d2e3d22af2b7894169b7c90ba6146" target="_top" xlink:title="Function to find the sum of all elements in a vector.">
<polygon fill="white" stroke="black" points="389.5,-152.5 389.5,-171.5 504.5,-171.5 504.5,-152.5 389.5,-152.5"/>
<text text-anchor="middle" x="447" y="-159.5" font-family="Helvetica,sans-Serif" font-size="10.00">MyBLAS::Stats::sum</text>
</a>
</g>
</g>
<!-- Node2&#45;&gt;Node6 -->
<g id="edge5" class="edge">
<title>Node2&#45;&gt;Node6</title>
<path fill="none" stroke="midnightblue" d="M294.71,-133.54C322.21,-138.71 356.38,-145.14 385.28,-150.58"/>
<polygon fill="midnightblue" stroke="midnightblue" points="384.79,-154.05 395.27,-152.46 386.09,-147.17 384.79,-154.05"/>
</g>
<!-- Node4 -->
<g id="node4" class="node">
<title>Node4</title>
<g id="a_node4"><a xlink:href="../../d4/d4d/classMyBLAS_1_1Vector.html#aae30f8178e4a34d332317c61e77c147a" target="_top" xlink:title="Getter for the size of the vector.">
<polygon fill="white" stroke="black" points="740,-73.5 740,-92.5 859,-92.5 859,-73.5 740,-73.5"/>
<text text-anchor="middle" x="799.5" y="-80.5" font-family="Helvetica,sans-Serif" font-size="10.00">MyBLAS::Vector::size</text>
</a>
</g>
</g>
<!-- Node3&#45;&gt;Node4 -->
<g id="edge3" class="edge">
<title>Node3&#45;&gt;Node4</title>
<path fill="none" stroke="midnightblue" d="M690.23,-83C702.78,-83 716.29,-83 729.36,-83"/>
<polygon fill="midnightblue" stroke="midnightblue" points="729.72,-86.5 739.72,-83 729.72,-79.5 729.72,-86.5"/>
</g>
<!-- Node7 -->
<g id="node7" class="node">
<title>Node7</title>
<g id="a_node7"><a xlink:href="../../d4/d4d/classMyBLAS_1_1Vector.html#a6188d71192e096e25ae1c1a46150a0ab" target="_top" xlink:title="Getter for the vector data.">
<polygon fill="white" stroke="black" points="565,-152.5 565,-171.5 704,-171.5 704,-152.5 565,-152.5"/>
<text text-anchor="middle" x="634.5" y="-159.5" font-family="Helvetica,sans-Serif" font-size="10.00">MyBLAS::Vector::getData</text>
</a>
</g>
</g>
<!-- Node6&#45;&gt;Node7 -->
<g id="edge6" class="edge">
<title>Node6&#45;&gt;Node7</title>
<path fill="none" stroke="midnightblue" d="M504.66,-162C520.37,-162 537.71,-162 554.44,-162"/>
<polygon fill="midnightblue" stroke="midnightblue" points="554.76,-165.5 564.76,-162 554.76,-158.5 554.76,-165.5"/>
</g>
<!-- Node10 -->
<g id="node10" class="node">
<title>Node10</title>
<g id="a_node10"><a xlink:href="../../d2/d6e/namespaceMyBLAS.html#a6b103aca5e5fab29f3d0954b77946dc0" target="_top" xlink:title="Checks if all diagonal elements of a matrix are below a certain threshold.">
<polygon fill="white" stroke="black" points="365,-11 365,-41 529,-41 529,-11 365,-11"/>
<text text-anchor="start" x="373" y="-29" font-family="Helvetica,sans-Serif" font-size="10.00">MyBLAS::allDiagonalElements</text>
<text text-anchor="middle" x="447" y="-18" font-family="Helvetica,sans-Serif" font-size="10.00">BelowThreshold</text>
</a>
</g>
</g>
<!-- Node9&#45;&gt;Node10 -->
<g id="edge10" class="edge">
<title>Node9&#45;&gt;Node10</title>
<path fill="none" stroke="midnightblue" d="M320.66,-16.07C331.68,-16.94 343.11,-17.85 354.39,-18.74"/>
<polygon fill="midnightblue" stroke="midnightblue" points="354.44,-22.26 364.69,-19.56 354.99,-15.28 354.44,-22.26"/>
</g>
<!-- Node10&#45;&gt;Node3 -->
<g id="edge11" class="edge">
<title>Node10&#45;&gt;Node3</title>
<path fill="none" stroke="midnightblue" d="M497.22,-41.13C526.95,-50.26 564.4,-61.77 592.51,-70.41"/>
<polygon fill="midnightblue" stroke="midnightblue" points="591.83,-73.86 602.42,-73.45 593.89,-67.17 591.83,-73.86"/>
</g>
</g>
</svg>
