<?xml version="1.0" encoding="UTF-8" standalone="no"?>
<!DOCTYPE svg PUBLIC "-//W3C//DTD SVG 1.1//EN"
 "http://www.w3.org/Graphics/SVG/1.1/DTD/svg11.dtd">
<!-- Generated by graphviz version 2.43.0 (0)
 -->
<!-- Title: MyRelaxationMethod::applyRayleighQuotientPowerIteration Pages: 1 -->
<svg width="681pt" height="161pt"
 viewBox="0.00 0.00 681.00 161.00" xmlns="http://www.w3.org/2000/svg" xmlns:xlink="http://www.w3.org/1999/xlink">
<g id="graph0" class="graph" transform="scale(1 1) rotate(0) translate(4 157)">
<title>MyRelaxationMethod::applyRayleighQuotientPowerIteration</title>
<polygon fill="white" stroke="transparent" points="-4,4 -4,-157 677,-157 677,4 -4,4"/>
<!-- Node1 -->
<g id="node1" class="node">
<title>Node1</title>
<g id="a_node1"><a xlink:title=" ">
<polygon fill="#bfbfbf" stroke="black" points="0,-84.5 0,-125.5 164,-125.5 164,-84.5 0,-84.5"/>
<text text-anchor="start" x="8" y="-113.5" font-family="Helvetica,sans-Serif" font-size="10.00">MyRelaxationMethod</text>
<text text-anchor="start" x="8" y="-102.5" font-family="Helvetica,sans-Serif" font-size="10.00">::applyRayleighQuotientPower</text>
<text text-anchor="middle" x="82" y="-91.5" font-family="Helvetica,sans-Serif" font-size="10.00">Iteration</text>
</a>
</g>
</g>
<!-- Node2 -->
<g id="node2" class="node">
<title>Node2</title>
<g id="a_node2"><a xlink:href="../../d2/d6e/namespaceMyBLAS.html#ab04220788b1a4758fe6b7f4fedc39a19" target="_top" xlink:title=" ">
<polygon fill="white" stroke="black" points="231.5,-76.5 231.5,-95.5 311.5,-95.5 311.5,-76.5 231.5,-76.5"/>
<text text-anchor="middle" x="271.5" y="-83.5" font-family="Helvetica,sans-Serif" font-size="10.00">MyBLAS::abs</text>
</a>
</g>
</g>
<!-- Node1&#45;&gt;Node2 -->
<g id="edge1" class="edge">
<title>Node1&#45;&gt;Node2</title>
<path fill="none" stroke="midnightblue" d="M164.15,-96.78C183.68,-94.8 203.94,-92.74 221.48,-90.97"/>
<polygon fill="midnightblue" stroke="midnightblue" points="221.87,-94.45 231.47,-89.96 221.17,-87.48 221.87,-94.45"/>
</g>
<!-- Node4 -->
<g id="node4" class="node">
<title>Node4</title>
<g id="a_node4"><a xlink:href="../../d0/d27/classMyBLAS_1_1Matrix.html#a0772df3e76eadc9035e847316de0d249" target="_top" xlink:title="Getter for the number of rows in the matrix.">
<polygon fill="white" stroke="black" points="200,-114.5 200,-133.5 343,-133.5 343,-114.5 200,-114.5"/>
<text text-anchor="middle" x="271.5" y="-121.5" font-family="Helvetica,sans-Serif" font-size="10.00">MyBLAS::Matrix::getRows</text>
</a>
</g>
</g>
<!-- Node1&#45;&gt;Node4 -->
<g id="edge3" class="edge">
<title>Node1&#45;&gt;Node4</title>
<path fill="none" stroke="midnightblue" d="M164.15,-113.22C172.59,-114.08 181.18,-114.95 189.62,-115.8"/>
<polygon fill="midnightblue" stroke="midnightblue" points="189.52,-119.31 199.82,-116.84 190.23,-112.35 189.52,-119.31"/>
</g>
<!-- Node5 -->
<g id="node5" class="node">
<title>Node5</title>
<g id="a_node5"><a xlink:href="../../dd/df5/namespaceMyBLAS_1_1Stats.html#a403bf760cf802cddf8dd73e5d3e46a05" target="_top" xlink:title="Function to find the maximum value in a vector.">
<polygon fill="white" stroke="black" points="380.5,-133.5 380.5,-152.5 496.5,-152.5 496.5,-133.5 380.5,-133.5"/>
<text text-anchor="middle" x="438.5" y="-140.5" font-family="Helvetica,sans-Serif" font-size="10.00">MyBLAS::Stats::max</text>
</a>
</g>
</g>
<!-- Node1&#45;&gt;Node5 -->
<g id="edge4" class="edge">
<title>Node1&#45;&gt;Node5</title>
<path fill="none" stroke="midnightblue" d="M134.27,-125.51C154.41,-132.54 177.96,-139.51 200,-143 256.91,-152.01 322.46,-151.18 370.26,-148.57"/>
<polygon fill="midnightblue" stroke="midnightblue" points="370.71,-152.05 380.48,-147.97 370.3,-145.07 370.71,-152.05"/>
</g>
<!-- Node7 -->
<g id="node7" class="node">
<title>Node7</title>
<g id="a_node7"><a xlink:href="../../d2/d6e/namespaceMyBLAS.html#ac12a3b113ae6b7edd2fcb21280c0f804" target="_top" xlink:title="A template function to calculate the norm of a vector.">
<polygon fill="white" stroke="black" points="227,-38.5 227,-57.5 316,-57.5 316,-38.5 227,-38.5"/>
<text text-anchor="middle" x="271.5" y="-45.5" font-family="Helvetica,sans-Serif" font-size="10.00">MyBLAS::norm</text>
</a>
</g>
</g>
<!-- Node1&#45;&gt;Node7 -->
<g id="edge6" class="edge">
<title>Node1&#45;&gt;Node7</title>
<path fill="none" stroke="midnightblue" d="M144.15,-84.49C162.09,-78.65 181.78,-72.41 200,-67 207.78,-64.69 216.07,-62.35 224.13,-60.14"/>
<polygon fill="midnightblue" stroke="midnightblue" points="225.08,-63.51 233.81,-57.51 223.24,-56.75 225.08,-63.51"/>
</g>
<!-- Node3 -->
<g id="node3" class="node">
<title>Node3</title>
<g id="a_node3"><a xlink:href="../../d4/d4d/classMyBLAS_1_1Vector.html#aae30f8178e4a34d332317c61e77c147a" target="_top" xlink:title="Getter for the size of the vector.">
<polygon fill="white" stroke="black" points="379,-76.5 379,-95.5 498,-95.5 498,-76.5 379,-76.5"/>
<text text-anchor="middle" x="438.5" y="-83.5" font-family="Helvetica,sans-Serif" font-size="10.00">MyBLAS::Vector::size</text>
</a>
</g>
</g>
<!-- Node2&#45;&gt;Node3 -->
<g id="edge2" class="edge">
<title>Node2&#45;&gt;Node3</title>
<path fill="none" stroke="midnightblue" d="M311.6,-86C328.73,-86 349.34,-86 368.88,-86"/>
<polygon fill="midnightblue" stroke="midnightblue" points="368.97,-89.5 378.97,-86 368.97,-82.5 368.97,-89.5"/>
</g>
<!-- Node6 -->
<g id="node6" class="node">
<title>Node6</title>
<g id="a_node6"><a xlink:href="../../d4/d4d/classMyBLAS_1_1Vector.html#a6188d71192e096e25ae1c1a46150a0ab" target="_top" xlink:title="Getter for the vector data.">
<polygon fill="white" stroke="black" points="534,-76.5 534,-95.5 673,-95.5 673,-76.5 534,-76.5"/>
<text text-anchor="middle" x="603.5" y="-83.5" font-family="Helvetica,sans-Serif" font-size="10.00">MyBLAS::Vector::getData</text>
</a>
</g>
</g>
<!-- Node5&#45;&gt;Node6 -->
<g id="edge5" class="edge">
<title>Node5&#45;&gt;Node6</title>
<path fill="none" stroke="midnightblue" d="M466.78,-133.46C493.82,-124.01 535.41,-109.46 565.43,-98.96"/>
<polygon fill="midnightblue" stroke="midnightblue" points="566.84,-102.18 575.13,-95.57 564.53,-95.57 566.84,-102.18"/>
</g>
<!-- Node7&#45;&gt;Node3 -->
<g id="edge9" class="edge">
<title>Node7&#45;&gt;Node3</title>
<path fill="none" stroke="midnightblue" d="M314.14,-57.59C336.01,-62.63 363.01,-68.84 386.16,-74.18"/>
<polygon fill="midnightblue" stroke="midnightblue" points="385.63,-77.65 396.16,-76.48 387.2,-70.82 385.63,-77.65"/>
</g>
<!-- Node8 -->
<g id="node8" class="node">
<title>Node8</title>
<g id="a_node8"><a xlink:href="../../de/d4d/namespaceMyMath.html#af3e9a9de7b922fdfb6e3d2988b1212ff" target="_top" xlink:title="A template function to calculate the power of a base number.">
<polygon fill="white" stroke="black" points="397,-0.5 397,-19.5 480,-19.5 480,-0.5 397,-0.5"/>
<text text-anchor="middle" x="438.5" y="-7.5" font-family="Helvetica,sans-Serif" font-size="10.00">MyMath::pow</text>
</a>
</g>
</g>
<!-- Node7&#45;&gt;Node8 -->
<g id="edge7" class="edge">
<title>Node7&#45;&gt;Node8</title>
<path fill="none" stroke="midnightblue" d="M314.14,-38.41C336.17,-33.34 363.42,-27.06 386.69,-21.7"/>
<polygon fill="midnightblue" stroke="midnightblue" points="387.77,-25.04 396.73,-19.39 386.2,-18.22 387.77,-25.04"/>
</g>
<!-- Node10 -->
<g id="node10" class="node">
<title>Node10</title>
<g id="a_node10"><a xlink:href="../../dd/df5/namespaceMyBLAS_1_1Stats.html#aaa0d2e3d22af2b7894169b7c90ba6146" target="_top" xlink:title="Function to find the sum of all elements in a vector.">
<polygon fill="white" stroke="black" points="381,-38.5 381,-57.5 496,-57.5 496,-38.5 381,-38.5"/>
<text text-anchor="middle" x="438.5" y="-45.5" font-family="Helvetica,sans-Serif" font-size="10.00">MyBLAS::Stats::sum</text>
</a>
</g>
</g>
<!-- Node7&#45;&gt;Node10 -->
<g id="edge10" class="edge">
<title>Node7&#45;&gt;Node10</title>
<path fill="none" stroke="midnightblue" d="M316.28,-48C332.96,-48 352.36,-48 370.69,-48"/>
<polygon fill="midnightblue" stroke="midnightblue" points="370.74,-51.5 380.74,-48 370.74,-44.5 370.74,-51.5"/>
</g>
<!-- Node9 -->
<g id="node9" class="node">
<title>Node9</title>
<g id="a_node9"><a xlink:href="../../de/d4d/namespaceMyMath.html#a5f2b6e445ba885637efd0db1a7708919" target="_top" xlink:title="A template specialization function to calculate the power of a __float128 base number.">
<polygon fill="white" stroke="black" points="562,-0.5 562,-19.5 645,-19.5 645,-0.5 562,-0.5"/>
<text text-anchor="middle" x="603.5" y="-7.5" font-family="Helvetica,sans-Serif" font-size="10.00">MyMath::pow</text>
</a>
</g>
</g>
<!-- Node8&#45;&gt;Node9 -->
<g id="edge8" class="edge">
<title>Node8&#45;&gt;Node9</title>
<path fill="none" stroke="midnightblue" d="M480.21,-10C501.8,-10 528.53,-10 551.49,-10"/>
<polygon fill="midnightblue" stroke="midnightblue" points="551.74,-13.5 561.74,-10 551.74,-6.5 551.74,-13.5"/>
</g>
<!-- Node10&#45;&gt;Node6 -->
<g id="edge11" class="edge">
<title>Node10&#45;&gt;Node6</title>
<path fill="none" stroke="midnightblue" d="M480.63,-57.59C502.24,-62.63 528.91,-68.84 551.79,-74.18"/>
<polygon fill="midnightblue" stroke="midnightblue" points="551.13,-77.62 561.66,-76.48 552.72,-70.8 551.13,-77.62"/>
</g>
</g>
</svg>
