<?xml version="1.0" encoding="UTF-8" standalone="no"?>
<!DOCTYPE svg PUBLIC "-//W3C//DTD SVG 1.1//EN"
 "http://www.w3.org/Graphics/SVG/1.1/DTD/svg11.dtd">
<!-- Generated by graphviz version 2.43.0 (0)
 -->
<!-- Title: src/utils/math/blas/tests/matrix/MatrixMemoryAllocationTests.cpp Pages: 1 -->
<svg width="822pt" height="341pt"
 viewBox="0.00 0.00 821.50 341.00" xmlns="http://www.w3.org/2000/svg" xmlns:xlink="http://www.w3.org/1999/xlink">
<g id="graph0" class="graph" transform="scale(1 1) rotate(0) translate(4 337)">
<title>src/utils/math/blas/tests/matrix/MatrixMemoryAllocationTests.cpp</title>
<polygon fill="white" stroke="transparent" points="-4,4 -4,-337 817.5,-337 817.5,4 -4,4"/>
<!-- Node1 -->
<g id="node1" class="node">
<title>Node1</title>
<g id="a_node1"><a xlink:title="This file contains unit tests for the MyBLAS::Matrix class.">
<polygon fill="#bfbfbf" stroke="black" points="284,-291.5 284,-332.5 438,-332.5 438,-291.5 284,-291.5"/>
<text text-anchor="start" x="292" y="-320.5" font-family="Helvetica,sans-Serif" font-size="10.00">src/utils/math/blas</text>
<text text-anchor="start" x="292" y="-309.5" font-family="Helvetica,sans-Serif" font-size="10.00">/tests/matrix/MatrixMemory</text>
<text text-anchor="middle" x="361" y="-298.5" font-family="Helvetica,sans-Serif" font-size="10.00">AllocationTests.cpp</text>
</a>
</g>
</g>
<!-- Node2 -->
<g id="node2" class="node">
<title>Node2</title>
<g id="a_node2"><a xlink:href="../../dc/dc5/ResourceMonitor_8h.html" target="_top" xlink:title="Header file for the ResourceMonitor class.">
<polygon fill="white" stroke="black" points="149.5,-123.5 149.5,-142.5 294.5,-142.5 294.5,-123.5 149.5,-123.5"/>
<text text-anchor="middle" x="222" y="-130.5" font-family="Helvetica,sans-Serif" font-size="10.00">profiler/ResourceMonitor.h</text>
</a>
</g>
</g>
<!-- Node1&#45;&gt;Node2 -->
<g id="edge1" class="edge">
<title>Node1&#45;&gt;Node2</title>
<path fill="none" stroke="midnightblue" d="M324.33,-291.35C309.18,-281.88 292.32,-269.44 280,-255 253.26,-223.66 235.79,-177.89 227.54,-152.57"/>
<polygon fill="midnightblue" stroke="midnightblue" points="230.8,-151.29 224.48,-142.79 224.12,-153.37 230.8,-151.29"/>
</g>
<!-- Node7 -->
<g id="node7" class="node">
<title>Node7</title>
<g id="a_node7"><a xlink:href="../../d3/db1/Matrix_8h.html" target="_top" xlink:title="Header file for the MyBLAS::Matrix class.">
<polygon fill="white" stroke="black" points="289,-235.5 289,-254.5 433,-254.5 433,-235.5 289,-235.5"/>
<text text-anchor="middle" x="361" y="-242.5" font-family="Helvetica,sans-Serif" font-size="10.00">math/blas/matrix/Matrix.h</text>
</a>
</g>
</g>
<!-- Node1&#45;&gt;Node7 -->
<g id="edge6" class="edge">
<title>Node1&#45;&gt;Node7</title>
<path fill="none" stroke="midnightblue" d="M361,-291.5C361,-283.07 361,-273.24 361,-264.87"/>
<polygon fill="midnightblue" stroke="midnightblue" points="364.5,-264.65 361,-254.65 357.5,-264.65 364.5,-264.65"/>
</g>
<!-- Node19 -->
<g id="node19" class="node">
<title>Node19</title>
<g id="a_node19"><a xlink:title=" ">
<polygon fill="white" stroke="#bfbfbf" points="451,-235.5 451,-254.5 529,-254.5 529,-235.5 451,-235.5"/>
<text text-anchor="middle" x="490" y="-242.5" font-family="Helvetica,sans-Serif" font-size="10.00">gtest/gtest.h</text>
</a>
</g>
</g>
<!-- Node1&#45;&gt;Node19 -->
<g id="edge31" class="edge">
<title>Node1&#45;&gt;Node19</title>
<path fill="none" stroke="midnightblue" d="M399.7,-291.5C420.43,-281.05 445.42,-268.46 463.85,-259.18"/>
<polygon fill="midnightblue" stroke="midnightblue" points="465.47,-262.28 472.83,-254.65 462.32,-256.03 465.47,-262.28"/>
</g>
<!-- Node3 -->
<g id="node3" class="node">
<title>Node3</title>
<g id="a_node3"><a xlink:title=" ">
<polygon fill="white" stroke="#bfbfbf" points="254,-62 254,-81 318,-81 318,-62 254,-62"/>
<text text-anchor="middle" x="286" y="-69" font-family="Helvetica,sans-Serif" font-size="10.00">algorithm</text>
</a>
</g>
</g>
<!-- Node2&#45;&gt;Node3 -->
<g id="edge2" class="edge">
<title>Node2&#45;&gt;Node3</title>
<path fill="none" stroke="midnightblue" d="M231.17,-123.48C241.15,-114.2 257.31,-99.17 269.51,-87.83"/>
<polygon fill="midnightblue" stroke="midnightblue" points="271.91,-90.38 276.85,-81.01 267.14,-85.25 271.91,-90.38"/>
</g>
<!-- Node4 -->
<g id="node4" class="node">
<title>Node4</title>
<g id="a_node4"><a xlink:title=" ">
<polygon fill="white" stroke="#bfbfbf" points="437.5,-0.5 437.5,-19.5 490.5,-19.5 490.5,-0.5 437.5,-0.5"/>
<text text-anchor="middle" x="464" y="-7.5" font-family="Helvetica,sans-Serif" font-size="10.00">cstddef</text>
</a>
</g>
</g>
<!-- Node2&#45;&gt;Node4 -->
<g id="edge3" class="edge">
<title>Node2&#45;&gt;Node4</title>
<path fill="none" stroke="midnightblue" d="M221.93,-123.47C222.29,-107.67 225.45,-73.84 245,-56 271.26,-32.03 372.08,-19.32 427.31,-14.03"/>
<polygon fill="midnightblue" stroke="midnightblue" points="427.75,-17.51 437.38,-13.1 427.1,-10.54 427.75,-17.51"/>
</g>
<!-- Node5 -->
<g id="node5" class="node">
<title>Node5</title>
<g id="a_node5"><a xlink:title=" ">
<polygon fill="white" stroke="#bfbfbf" points="0,-62 0,-81 86,-81 86,-62 0,-62"/>
<text text-anchor="middle" x="43" y="-69" font-family="Helvetica,sans-Serif" font-size="10.00">unordered_set</text>
</a>
</g>
</g>
<!-- Node2&#45;&gt;Node5 -->
<g id="edge4" class="edge">
<title>Node2&#45;&gt;Node5</title>
<path fill="none" stroke="midnightblue" d="M196.35,-123.48C165.38,-113.18 113.13,-95.81 78.35,-84.25"/>
<polygon fill="midnightblue" stroke="midnightblue" points="79.19,-80.84 68.6,-81.01 76.98,-87.48 79.19,-80.84"/>
</g>
<!-- Node6 -->
<g id="node6" class="node">
<title>Node6</title>
<g id="a_node6"><a xlink:title=" ">
<polygon fill="white" stroke="#bfbfbf" points="104.5,-62 104.5,-81 197.5,-81 197.5,-62 104.5,-62"/>
<text text-anchor="middle" x="151" y="-69" font-family="Helvetica,sans-Serif" font-size="10.00">unordered_map</text>
</a>
</g>
</g>
<!-- Node2&#45;&gt;Node6 -->
<g id="edge5" class="edge">
<title>Node2&#45;&gt;Node6</title>
<path fill="none" stroke="midnightblue" d="M211.83,-123.48C200.65,-114.11 182.48,-98.88 168.91,-87.51"/>
<polygon fill="midnightblue" stroke="midnightblue" points="171.07,-84.75 161.15,-81.01 166.57,-90.11 171.07,-84.75"/>
</g>
<!-- Node7&#45;&gt;Node2 -->
<g id="edge30" class="edge">
<title>Node7&#45;&gt;Node2</title>
<path fill="none" stroke="midnightblue" d="M350.09,-235.37C326.44,-216.65 270.21,-172.15 240.74,-148.83"/>
<polygon fill="midnightblue" stroke="midnightblue" points="242.87,-146.05 232.86,-142.59 238.53,-151.54 242.87,-146.05"/>
</g>
<!-- Node7&#45;&gt;Node3 -->
<g id="edge7" class="edge">
<title>Node7&#45;&gt;Node3</title>
<path fill="none" stroke="midnightblue" d="M357.18,-235.26C345.44,-208.42 309.75,-126.82 293.82,-90.39"/>
<polygon fill="midnightblue" stroke="midnightblue" points="296.94,-88.78 289.73,-81.02 290.53,-91.58 296.94,-88.78"/>
</g>
<!-- Node7&#45;&gt;Node5 -->
<g id="edge11" class="edge">
<title>Node7&#45;&gt;Node5</title>
<path fill="none" stroke="midnightblue" d="M338.31,-235.38C297.42,-219.48 209.21,-183.42 140,-143 111,-126.07 80.04,-102.48 61.1,-87.35"/>
<polygon fill="midnightblue" stroke="midnightblue" points="63.27,-84.61 53.29,-81.05 58.87,-90.06 63.27,-84.61"/>
</g>
<!-- Node8 -->
<g id="node8" class="node">
<title>Node8</title>
<g id="a_node8"><a xlink:title=" ">
<polygon fill="white" stroke="#bfbfbf" points="378,-123.5 378,-142.5 430,-142.5 430,-123.5 378,-123.5"/>
<text text-anchor="middle" x="404" y="-130.5" font-family="Helvetica,sans-Serif" font-size="10.00">cassert</text>
</a>
</g>
</g>
<!-- Node7&#45;&gt;Node8 -->
<g id="edge8" class="edge">
<title>Node7&#45;&gt;Node8</title>
<path fill="none" stroke="midnightblue" d="M362.92,-235.4C365.86,-222.77 372.01,-198.6 380,-179 383.8,-169.67 388.96,-159.75 393.53,-151.6"/>
<polygon fill="midnightblue" stroke="midnightblue" points="396.7,-153.11 398.66,-142.7 390.63,-149.62 396.7,-153.11"/>
</g>
<!-- Node9 -->
<g id="node9" class="node">
<title>Node9</title>
<g id="a_node9"><a xlink:title=" ">
<polygon fill="white" stroke="#bfbfbf" points="685,-123.5 685,-142.5 745,-142.5 745,-123.5 685,-123.5"/>
<text text-anchor="middle" x="715" y="-130.5" font-family="Helvetica,sans-Serif" font-size="10.00">iostream</text>
</a>
</g>
</g>
<!-- Node7&#45;&gt;Node9 -->
<g id="edge9" class="edge">
<title>Node7&#45;&gt;Node9</title>
<path fill="none" stroke="midnightblue" d="M433.36,-235.67C525.47,-224.82 673.96,-206.35 684,-199 699.1,-187.94 707.14,-167.6 711.21,-152.6"/>
<polygon fill="midnightblue" stroke="midnightblue" points="714.63,-153.38 713.52,-142.84 707.81,-151.77 714.63,-153.38"/>
</g>
<!-- Node10 -->
<g id="node10" class="node">
<title>Node10</title>
<g id="a_node10"><a xlink:title=" ">
<polygon fill="white" stroke="#bfbfbf" points="763.5,-123.5 763.5,-142.5 810.5,-142.5 810.5,-123.5 763.5,-123.5"/>
<text text-anchor="middle" x="787" y="-130.5" font-family="Helvetica,sans-Serif" font-size="10.00">vector</text>
</a>
</g>
</g>
<!-- Node7&#45;&gt;Node10 -->
<g id="edge10" class="edge">
<title>Node7&#45;&gt;Node10</title>
<path fill="none" stroke="midnightblue" d="M433.3,-235.58C530.76,-224.08 693.6,-204.29 706,-199 732.55,-187.68 757.57,-165.1 772.59,-149.77"/>
<polygon fill="midnightblue" stroke="midnightblue" points="775.14,-152.17 779.49,-142.51 770.07,-147.35 775.14,-152.17"/>
</g>
<!-- Node11 -->
<g id="node11" class="node">
<title>Node11</title>
<g id="a_node11"><a xlink:href="../../d1/d45/Constants_8h.html" target="_top" xlink:title="MyBLAS Constants definition.">
<polygon fill="white" stroke="black" points="389,-179.5 389,-198.5 515,-198.5 515,-179.5 389,-179.5"/>
<text text-anchor="middle" x="452" y="-186.5" font-family="Helvetica,sans-Serif" font-size="10.00">math/blas/Constants.h</text>
</a>
</g>
</g>
<!-- Node7&#45;&gt;Node11 -->
<g id="edge12" class="edge">
<title>Node7&#45;&gt;Node11</title>
<path fill="none" stroke="midnightblue" d="M375.62,-235.32C389.95,-226.82 412.01,-213.73 428.75,-203.8"/>
<polygon fill="midnightblue" stroke="midnightblue" points="430.6,-206.77 437.42,-198.65 427.03,-200.75 430.6,-206.77"/>
</g>
<!-- Node12 -->
<g id="node12" class="node">
<title>Node12</title>
<g id="a_node12"><a xlink:href="../../d6/dbe/Vector_8h.html" target="_top" xlink:title="Header file for the MyBLAS::Vector class.">
<polygon fill="white" stroke="black" points="533.5,-179.5 533.5,-198.5 674.5,-198.5 674.5,-179.5 533.5,-179.5"/>
<text text-anchor="middle" x="604" y="-186.5" font-family="Helvetica,sans-Serif" font-size="10.00">math/blas/vector/Vector.h</text>
</a>
</g>
</g>
<!-- Node7&#45;&gt;Node12 -->
<g id="edge13" class="edge">
<title>Node7&#45;&gt;Node12</title>
<path fill="none" stroke="midnightblue" d="M399.5,-235.44C441.81,-226.04 509.82,-210.93 555.67,-200.74"/>
<polygon fill="midnightblue" stroke="midnightblue" points="556.67,-204.1 565.68,-198.52 555.15,-197.27 556.67,-204.1"/>
</g>
<!-- Node12&#45;&gt;Node2 -->
<g id="edge29" class="edge">
<title>Node12&#45;&gt;Node2</title>
<path fill="none" stroke="midnightblue" d="M543.47,-179.44C475.3,-169.81 364.64,-154.16 292.59,-143.98"/>
<polygon fill="midnightblue" stroke="midnightblue" points="292.64,-140.45 282.25,-142.52 291.66,-147.38 292.64,-140.45"/>
</g>
<!-- Node12&#45;&gt;Node8 -->
<g id="edge14" class="edge">
<title>Node12&#45;&gt;Node8</title>
<path fill="none" stroke="midnightblue" d="M572.31,-179.44C536.37,-169.74 477.87,-153.95 440.17,-143.77"/>
<polygon fill="midnightblue" stroke="midnightblue" points="440.69,-140.28 430.12,-141.05 438.87,-147.04 440.69,-140.28"/>
</g>
<!-- Node12&#45;&gt;Node9 -->
<g id="edge17" class="edge">
<title>Node12&#45;&gt;Node9</title>
<path fill="none" stroke="midnightblue" d="M621.83,-179.32C639.72,-170.62 667.48,-157.12 688.05,-147.11"/>
<polygon fill="midnightblue" stroke="midnightblue" points="689.75,-150.18 697.21,-142.65 686.69,-143.88 689.75,-150.18"/>
</g>
<!-- Node12&#45;&gt;Node10 -->
<g id="edge18" class="edge">
<title>Node12&#45;&gt;Node10</title>
<path fill="none" stroke="midnightblue" d="M633,-179.44C665.84,-169.75 719.25,-153.99 753.75,-143.81"/>
<polygon fill="midnightblue" stroke="midnightblue" points="754.78,-147.16 763.38,-140.97 752.79,-140.44 754.78,-147.16"/>
</g>
<!-- Node13 -->
<g id="node13" class="node">
<title>Node13</title>
<g id="a_node13"><a xlink:title=" ">
<polygon fill="white" stroke="#bfbfbf" points="748.5,-62 748.5,-81 813.5,-81 813.5,-62 748.5,-62"/>
<text text-anchor="middle" x="781" y="-69" font-family="Helvetica,sans-Serif" font-size="10.00">functional</text>
</a>
</g>
</g>
<!-- Node12&#45;&gt;Node13 -->
<g id="edge15" class="edge">
<title>Node12&#45;&gt;Node13</title>
<path fill="none" stroke="midnightblue" d="M612.19,-179.13C624.9,-165.73 650.55,-140.09 676,-123 699.16,-107.45 727.83,-94 749.36,-84.9"/>
<polygon fill="midnightblue" stroke="midnightblue" points="750.8,-88.09 758.7,-81.03 748.12,-81.62 750.8,-88.09"/>
</g>
<!-- Node14 -->
<g id="node14" class="node">
<title>Node14</title>
<g id="a_node14"><a xlink:title=" ">
<polygon fill="white" stroke="#bfbfbf" points="573,-123.5 573,-142.5 629,-142.5 629,-123.5 573,-123.5"/>
<text text-anchor="middle" x="601" y="-130.5" font-family="Helvetica,sans-Serif" font-size="10.00">iomanip</text>
</a>
</g>
</g>
<!-- Node12&#45;&gt;Node14 -->
<g id="edge16" class="edge">
<title>Node12&#45;&gt;Node14</title>
<path fill="none" stroke="midnightblue" d="M603.5,-179.08C603.11,-172.01 602.55,-161.86 602.05,-152.99"/>
<polygon fill="midnightblue" stroke="midnightblue" points="605.54,-152.54 601.49,-142.75 598.55,-152.93 605.54,-152.54"/>
</g>
<!-- Node15 -->
<g id="node15" class="node">
<title>Node15</title>
<g id="a_node15"><a xlink:href="../../de/dcb/LazyVector_8h.html" target="_top" xlink:title="Header file for the LazyVector class.">
<polygon fill="white" stroke="black" points="477,-123.5 477,-142.5 555,-142.5 555,-123.5 477,-123.5"/>
<text text-anchor="middle" x="516" y="-130.5" font-family="Helvetica,sans-Serif" font-size="10.00">LazyVector.h</text>
</a>
</g>
</g>
<!-- Node12&#45;&gt;Node15 -->
<g id="edge19" class="edge">
<title>Node12&#45;&gt;Node15</title>
<path fill="none" stroke="midnightblue" d="M584.75,-179.32C569.43,-171.03 548.48,-158.36 533.61,-148.53"/>
<polygon fill="midnightblue" stroke="midnightblue" points="535.48,-145.57 525.25,-142.83 531.54,-151.35 535.48,-145.57"/>
</g>
<!-- Node15&#45;&gt;Node3 -->
<g id="edge20" class="edge">
<title>Node15&#45;&gt;Node3</title>
<path fill="none" stroke="midnightblue" d="M476.95,-123.97C438.51,-115.77 378.28,-102.13 327,-87 324.22,-86.18 321.34,-85.28 318.47,-84.34"/>
<polygon fill="midnightblue" stroke="midnightblue" points="319.44,-80.97 308.85,-81.06 317.18,-87.6 319.44,-80.97"/>
</g>
<!-- Node15&#45;&gt;Node4 -->
<g id="edge21" class="edge">
<title>Node15&#45;&gt;Node4</title>
<path fill="none" stroke="midnightblue" d="M514.74,-123.22C512.44,-108.69 506.76,-78.98 496,-56 491.28,-45.93 484.27,-35.74 478.01,-27.61"/>
<polygon fill="midnightblue" stroke="midnightblue" points="480.65,-25.31 471.66,-19.7 475.19,-29.69 480.65,-25.31"/>
</g>
<!-- Node15&#45;&gt;Node12 -->
<g id="edge24" class="edge">
<title>Node15&#45;&gt;Node12</title>
<path fill="none" stroke="midnightblue" d="M535.21,-142.65C550.61,-150.99 571.73,-163.76 586.62,-173.62"/>
<polygon fill="midnightblue" stroke="midnightblue" points="584.74,-176.58 594.98,-179.32 588.69,-170.8 584.74,-176.58"/>
</g>
<!-- Node15&#45;&gt;Node13 -->
<g id="edge22" class="edge">
<title>Node15&#45;&gt;Node13</title>
<path fill="none" stroke="midnightblue" d="M555.32,-124.36C614.52,-112.82 721.52,-91.76 739,-87 742.03,-86.18 745.16,-85.25 748.27,-84.27"/>
<polygon fill="midnightblue" stroke="midnightblue" points="749.67,-87.49 758.07,-81.04 747.47,-80.85 749.67,-87.49"/>
</g>
<!-- Node16 -->
<g id="node16" class="node">
<title>Node16</title>
<g id="a_node16"><a xlink:title=" ">
<polygon fill="white" stroke="#bfbfbf" points="672,-62 672,-81 730,-81 730,-62 672,-62"/>
<text text-anchor="middle" x="701" y="-69" font-family="Helvetica,sans-Serif" font-size="10.00">memory</text>
</a>
</g>
</g>
<!-- Node15&#45;&gt;Node16 -->
<g id="edge23" class="edge">
<title>Node15&#45;&gt;Node16</title>
<path fill="none" stroke="midnightblue" d="M546.03,-123.45C575.88,-114.8 622.86,-100.78 663,-87 665.25,-86.23 667.57,-85.4 669.9,-84.56"/>
<polygon fill="midnightblue" stroke="midnightblue" points="671.23,-87.8 679.39,-81.04 668.8,-81.24 671.23,-87.8"/>
</g>
<!-- Node17 -->
<g id="node17" class="node">
<title>Node17</title>
<g id="a_node17"><a xlink:href="../../d6/d9f/VectorExpression_8h.html" target="_top" xlink:title="Header file for the MyBLAS::VectorExpression class.">
<polygon fill="white" stroke="black" points="544,-62 544,-81 654,-81 654,-62 544,-62"/>
<text text-anchor="middle" x="599" y="-69" font-family="Helvetica,sans-Serif" font-size="10.00">VectorExpression.h</text>
</a>
</g>
</g>
<!-- Node15&#45;&gt;Node17 -->
<g id="edge25" class="edge">
<title>Node15&#45;&gt;Node17</title>
<path fill="none" stroke="midnightblue" d="M527.89,-123.48C541.2,-113.93 563,-98.31 578.96,-86.87"/>
<polygon fill="midnightblue" stroke="midnightblue" points="581.04,-89.68 587.13,-81.01 576.96,-83.99 581.04,-89.68"/>
</g>
<!-- Node18 -->
<g id="node18" class="node">
<title>Node18</title>
<g id="a_node18"><a xlink:href="../../d6/db1/ContainerExpression_8h.html" target="_top" xlink:title="Header file for the ContainerExpression class.">
<polygon fill="white" stroke="black" points="336.5,-56.5 336.5,-86.5 487.5,-86.5 487.5,-56.5 336.5,-56.5"/>
<text text-anchor="start" x="344.5" y="-74.5" font-family="Helvetica,sans-Serif" font-size="10.00">math/blas/matrix/Container</text>
<text text-anchor="middle" x="412" y="-63.5" font-family="Helvetica,sans-Serif" font-size="10.00">Expression.h</text>
</a>
</g>
</g>
<!-- Node15&#45;&gt;Node18 -->
<g id="edge27" class="edge">
<title>Node15&#45;&gt;Node18</title>
<path fill="none" stroke="midnightblue" d="M501.1,-123.48C486.62,-115.19 464.13,-102.32 445.37,-91.59"/>
<polygon fill="midnightblue" stroke="midnightblue" points="446.93,-88.45 436.51,-86.52 443.45,-94.53 446.93,-88.45"/>
</g>
<!-- Node17&#45;&gt;Node4 -->
<g id="edge26" class="edge">
<title>Node17&#45;&gt;Node4</title>
<path fill="none" stroke="midnightblue" d="M579.66,-61.98C556.9,-51.95 518.91,-35.2 492.71,-23.65"/>
<polygon fill="midnightblue" stroke="midnightblue" points="493.87,-20.34 483.31,-19.51 491.05,-26.74 493.87,-20.34"/>
</g>
<!-- Node18&#45;&gt;Node4 -->
<g id="edge28" class="edge">
<title>Node18&#45;&gt;Node4</title>
<path fill="none" stroke="midnightblue" d="M424.32,-56.4C431.96,-47.66 441.79,-36.41 449.76,-27.3"/>
<polygon fill="midnightblue" stroke="midnightblue" points="452.49,-29.49 456.43,-19.66 447.22,-24.88 452.49,-29.49"/>
</g>
</g>
</svg>
