<?xml version="1.0" encoding="UTF-8" standalone="no"?>
<!DOCTYPE svg PUBLIC "-//W3C//DTD SVG 1.1//EN"
 "http://www.w3.org/Graphics/SVG/1.1/DTD/svg11.dtd">
<!-- Generated by graphviz version 2.43.0 (0)
 -->
<!-- Title: src/utils/physics/diffusion/DiffusionParams.h Pages: 1 -->
<!--zoomable 330 -->
<svg id="main" version="1.1" xmlns="http://www.w3.org/2000/svg" xmlns:xlink="http://www.w3.org/1999/xlink" xml:space="preserve" onload="init(evt)">
<style type="text/css"><![CDATA[
.edge:hover path { stroke: red; }
.edge:hover polygon { stroke: red; fill: red; }
]]></style>
<script type="text/javascript"><![CDATA[
var edges = document.getElementsByTagName('g');
if (edges && edges.length) {
  for (var i=0;i<edges.length;i++) {
    if (edges[i].id.substr(0,4)=='edge') {
      edges[i].setAttribute('class','edge');
    }
  }
}
]]></script>
        <defs>
                <circle id="rim" cx="0" cy="0" r="7"/>
                <circle id="rim2" cx="0" cy="0" r="3.5"/>
                <g id="zoomPlus">
                        <use xlink:href="#rim" fill="#404040">
                                <set attributeName="fill" to="#808080" begin="zoomplus.mouseover" end="zoomplus.mouseout"/>
                        </use>
                        <path d="M-4,0h8M0,-4v8" fill="none" stroke="white" stroke-width="1.5" pointer-events="none"/>
                </g>
                <g id="zoomMin">
                        <use xlink:href="#rim" fill="#404040">
                                <set attributeName="fill" to="#808080" begin="zoomminus.mouseover" end="zoomminus.mouseout"/>
                        </use>
                        <path d="M-4,0h8" fill="none" stroke="white" stroke-width="1.5" pointer-events="none"/>
                </g>
                <g id="dirArrow">
                        <path fill="none" stroke="white" stroke-width="1.5" d="M0,-3.0v7 M-2.5,-0.5L0,-3.0L2.5,-0.5"/>
                </g>
               <g id="resetDef">
                       <use xlink:href="#rim2" fill="#404040">
                               <set attributeName="fill" to="#808080" begin="reset.mouseover" end="reset.mouseout"/>
                       </use>
               </g>
        </defs>

<script type="text/javascript">
var viewWidth = 672;
var viewHeight = 330;
var sectionId = 'dynsection-0';
</script>
<script xlink:href="../../svgpan.js"/>
<svg id="graph" class="graph">
<g id="viewport">
<title>src/utils/physics/diffusion/DiffusionParams.h</title>
<polygon fill="white" stroke="transparent" points="-4,4 -4,-326 667.5,-326 667.5,4 -4,4"/>
<!-- Node1 -->
<g id="node1" class="node">
<title>Node1</title>
<g id="a_node1"><a xlink:title="This file contains the definition of the Params struct which encapsulates the parameters required for...">
<polygon fill="#bfbfbf" stroke="black" points="74.5,-291.5 74.5,-321.5 214.5,-321.5 214.5,-291.5 74.5,-291.5"/>
<text text-anchor="start" x="82.5" y="-309.5" font-family="Helvetica,sans-Serif" font-size="10.00">src/utils/physics/diffusion</text>
<text text-anchor="middle" x="144.5" y="-298.5" font-family="Helvetica,sans-Serif" font-size="10.00">/DiffusionParams.h</text>
</a>
</g>
</g>
<!-- Node2 -->
<g id="node2" class="node">
<title>Node2</title>
<g id="a_node2"><a xlink:title=" ">
<polygon fill="white" stroke="#bfbfbf" points="0,-235.5 0,-254.5 47,-254.5 47,-235.5 0,-235.5"/>
<text text-anchor="middle" x="23.5" y="-242.5" font-family="Helvetica,sans-Serif" font-size="10.00">cmath</text>
</a>
</g>
</g>
<!-- Node1&#45;&gt;Node2 -->
<g id="edge1" class="edge">
<title>Node1&#45;&gt;Node2</title>
<path fill="none" stroke="midnightblue" d="M115.82,-291.4C95.98,-281.64 69.74,-268.74 50.31,-259.18"/>
<polygon fill="midnightblue" stroke="midnightblue" points="51.62,-255.93 41.11,-254.66 48.54,-262.21 51.62,-255.93"/>
</g>
<!-- Node3 -->
<g id="node3" class="node">
<title>Node3</title>
<g id="a_node3"><a xlink:title=" ">
<polygon fill="white" stroke="#bfbfbf" points="281,-0.5 281,-19.5 334,-19.5 334,-0.5 281,-0.5"/>
<text text-anchor="middle" x="307.5" y="-7.5" font-family="Helvetica,sans-Serif" font-size="10.00">cstddef</text>
</a>
</g>
</g>
<!-- Node1&#45;&gt;Node3 -->
<g id="edge2" class="edge">
<title>Node1&#45;&gt;Node3</title>
<path fill="none" stroke="midnightblue" d="M129.19,-291.45C108.86,-271.18 75.5,-231.58 75.5,-190 75.5,-190 75.5,-190 75.5,-132 75.5,-97.18 69.43,-80.16 94.5,-56 119.25,-32.15 216.34,-19.47 270.49,-14.13"/>
<polygon fill="midnightblue" stroke="midnightblue" points="271.09,-17.59 280.72,-13.16 270.43,-10.62 271.09,-17.59"/>
</g>
<!-- Node4 -->
<g id="node4" class="node">
<title>Node4</title>
<g id="a_node4"><a xlink:title=" ">
<polygon fill="white" stroke="#bfbfbf" points="103.5,-62 103.5,-81 161.5,-81 161.5,-62 103.5,-62"/>
<text text-anchor="middle" x="132.5" y="-69" font-family="Helvetica,sans-Serif" font-size="10.00">memory</text>
</a>
</g>
</g>
<!-- Node1&#45;&gt;Node4 -->
<g id="edge3" class="edge">
<title>Node1&#45;&gt;Node4</title>
<path fill="none" stroke="midnightblue" d="M141.37,-291.43C139.28,-281.35 136.7,-267.41 135.5,-255 129.74,-195.47 130.84,-124.51 131.82,-91.34"/>
<polygon fill="midnightblue" stroke="midnightblue" points="135.32,-91.37 132.15,-81.27 128.32,-91.15 135.32,-91.37"/>
</g>
<!-- Node5 -->
<g id="node5" class="node">
<title>Node5</title>
<g id="a_node5"><a xlink:title=" ">
<polygon fill="white" stroke="#bfbfbf" points="145,-235.5 145,-254.5 202,-254.5 202,-235.5 145,-235.5"/>
<text text-anchor="middle" x="173.5" y="-242.5" font-family="Helvetica,sans-Serif" font-size="10.00">ostream</text>
</a>
</g>
</g>
<!-- Node1&#45;&gt;Node5 -->
<g id="edge4" class="edge">
<title>Node1&#45;&gt;Node5</title>
<path fill="none" stroke="midnightblue" d="M151.37,-291.4C155.41,-283.11 160.56,-272.55 164.87,-263.71"/>
<polygon fill="midnightblue" stroke="midnightblue" points="168.05,-265.18 169.28,-254.66 161.75,-262.11 168.05,-265.18"/>
</g>
<!-- Node6 -->
<g id="node6" class="node">
<title>Node6</title>
<g id="a_node6"><a xlink:title=" ">
<polygon fill="white" stroke="#bfbfbf" points="220,-235.5 220,-254.5 285,-254.5 285,-235.5 220,-235.5"/>
<text text-anchor="middle" x="252.5" y="-242.5" font-family="Helvetica,sans-Serif" font-size="10.00">stdexcept</text>
</a>
</g>
</g>
<!-- Node1&#45;&gt;Node6 -->
<g id="edge5" class="edge">
<title>Node1&#45;&gt;Node6</title>
<path fill="none" stroke="midnightblue" d="M170.09,-291.4C187.57,-281.77 210.59,-269.09 227.86,-259.58"/>
<polygon fill="midnightblue" stroke="midnightblue" points="229.72,-262.55 236.79,-254.66 226.34,-256.42 229.72,-262.55"/>
</g>
<!-- Node7 -->
<g id="node7" class="node">
<title>Node7</title>
<g id="a_node7"><a xlink:href="../../d3/db1/Matrix_8h.html" target="_top" xlink:title="Header file for the MyBLAS::Matrix class.">
<polygon fill="white" stroke="black" points="332.5,-235.5 332.5,-254.5 476.5,-254.5 476.5,-235.5 332.5,-235.5"/>
<text text-anchor="middle" x="404.5" y="-242.5" font-family="Helvetica,sans-Serif" font-size="10.00">math/blas/matrix/Matrix.h</text>
</a>
</g>
</g>
<!-- Node1&#45;&gt;Node7 -->
<g id="edge6" class="edge">
<title>Node1&#45;&gt;Node7</title>
<path fill="none" stroke="midnightblue" d="M205.79,-291.47C252.21,-280.85 315.04,-266.47 357.52,-256.75"/>
<polygon fill="midnightblue" stroke="midnightblue" points="358.36,-260.15 367.33,-254.51 356.8,-253.33 358.36,-260.15"/>
</g>
<!-- Node8 -->
<g id="node8" class="node">
<title>Node8</title>
<g id="a_node8"><a xlink:title=" ">
<polygon fill="white" stroke="#bfbfbf" points="599.5,-62 599.5,-81 663.5,-81 663.5,-62 599.5,-62"/>
<text text-anchor="middle" x="631.5" y="-69" font-family="Helvetica,sans-Serif" font-size="10.00">algorithm</text>
</a>
</g>
</g>
<!-- Node7&#45;&gt;Node8 -->
<g id="edge7" class="edge">
<title>Node7&#45;&gt;Node8</title>
<path fill="none" stroke="midnightblue" d="M449.74,-235.41C498.48,-223.59 574.19,-197.28 612.5,-143 623.33,-127.65 627.99,-106.44 629.99,-91.3"/>
<polygon fill="midnightblue" stroke="midnightblue" points="633.5,-91.42 631.06,-81.11 626.54,-90.69 633.5,-91.42"/>
</g>
<!-- Node9 -->
<g id="node9" class="node">
<title>Node9</title>
<g id="a_node9"><a xlink:title=" ">
<polygon fill="white" stroke="#bfbfbf" points="199.5,-123.5 199.5,-142.5 251.5,-142.5 251.5,-123.5 199.5,-123.5"/>
<text text-anchor="middle" x="225.5" y="-130.5" font-family="Helvetica,sans-Serif" font-size="10.00">cassert</text>
</a>
</g>
</g>
<!-- Node7&#45;&gt;Node9 -->
<g id="edge8" class="edge">
<title>Node7&#45;&gt;Node9</title>
<path fill="none" stroke="midnightblue" d="M388.38,-235.35C372.09,-226.52 346.28,-212.25 324.5,-199 297.08,-182.32 266.29,-161.81 246.44,-148.35"/>
<polygon fill="midnightblue" stroke="midnightblue" points="248.37,-145.43 238.14,-142.7 244.43,-151.22 248.37,-145.43"/>
</g>
<!-- Node10 -->
<g id="node10" class="node">
<title>Node10</title>
<g id="a_node10"><a xlink:title=" ">
<polygon fill="white" stroke="#bfbfbf" points="477.5,-123.5 477.5,-142.5 537.5,-142.5 537.5,-123.5 477.5,-123.5"/>
<text text-anchor="middle" x="507.5" y="-130.5" font-family="Helvetica,sans-Serif" font-size="10.00">iostream</text>
</a>
</g>
</g>
<!-- Node7&#45;&gt;Node10 -->
<g id="edge9" class="edge">
<title>Node7&#45;&gt;Node10</title>
<path fill="none" stroke="midnightblue" d="M428.56,-235.5C445.96,-228.24 468.9,-216.21 483.5,-199 494.8,-185.68 501,-166.56 504.25,-152.51"/>
<polygon fill="midnightblue" stroke="midnightblue" points="507.72,-153.02 506.27,-142.53 500.86,-151.63 507.72,-153.02"/>
</g>
<!-- Node11 -->
<g id="node11" class="node">
<title>Node11</title>
<g id="a_node11"><a xlink:title=" ">
<polygon fill="white" stroke="#bfbfbf" points="556,-123.5 556,-142.5 603,-142.5 603,-123.5 556,-123.5"/>
<text text-anchor="middle" x="579.5" y="-130.5" font-family="Helvetica,sans-Serif" font-size="10.00">vector</text>
</a>
</g>
</g>
<!-- Node7&#45;&gt;Node11 -->
<g id="edge10" class="edge">
<title>Node7&#45;&gt;Node11</title>
<path fill="none" stroke="midnightblue" d="M428.26,-235.39C448.93,-227.39 479.29,-214.42 503.5,-199 525.99,-184.68 548.84,-164.15 563.53,-150.01"/>
<polygon fill="midnightblue" stroke="midnightblue" points="566.1,-152.4 570.8,-142.9 561.21,-147.39 566.1,-152.4"/>
</g>
<!-- Node12 -->
<g id="node12" class="node">
<title>Node12</title>
<g id="a_node12"><a xlink:href="../../d1/d45/Constants_8h.html" target="_top" xlink:title="MyBLAS Constants definition.">
<polygon fill="white" stroke="black" points="151.5,-179.5 151.5,-198.5 277.5,-198.5 277.5,-179.5 151.5,-179.5"/>
<text text-anchor="middle" x="214.5" y="-186.5" font-family="Helvetica,sans-Serif" font-size="10.00">math/blas/Constants.h</text>
</a>
</g>
</g>
<!-- Node7&#45;&gt;Node12 -->
<g id="edge11" class="edge">
<title>Node7&#45;&gt;Node12</title>
<path fill="none" stroke="midnightblue" d="M374.39,-235.44C341.87,-226.2 289.92,-211.44 254.11,-201.26"/>
<polygon fill="midnightblue" stroke="midnightblue" points="255.04,-197.88 244.47,-198.52 253.13,-204.62 255.04,-197.88"/>
</g>
<!-- Node13 -->
<g id="node13" class="node">
<title>Node13</title>
<g id="a_node13"><a xlink:href="../../d6/dbe/Vector_8h.html" target="_top" xlink:title="Header file for the MyBLAS::Vector class.">
<polygon fill="white" stroke="black" points="334,-179.5 334,-198.5 475,-198.5 475,-179.5 334,-179.5"/>
<text text-anchor="middle" x="404.5" y="-186.5" font-family="Helvetica,sans-Serif" font-size="10.00">math/blas/vector/Vector.h</text>
</a>
</g>
</g>
<!-- Node7&#45;&gt;Node13 -->
<g id="edge12" class="edge">
<title>Node7&#45;&gt;Node13</title>
<path fill="none" stroke="midnightblue" d="M404.5,-235.08C404.5,-228.01 404.5,-217.86 404.5,-208.99"/>
<polygon fill="midnightblue" stroke="midnightblue" points="408,-208.75 404.5,-198.75 401,-208.75 408,-208.75"/>
</g>
<!-- Node13&#45;&gt;Node9 -->
<g id="edge23" class="edge">
<title>Node13&#45;&gt;Node9</title>
<path fill="none" stroke="midnightblue" d="M376.14,-179.44C345.14,-170.09 295.39,-155.08 261.62,-144.9"/>
<polygon fill="midnightblue" stroke="midnightblue" points="262.28,-141.44 251.69,-141.9 260.26,-148.14 262.28,-141.44"/>
</g>
<!-- Node13&#45;&gt;Node10 -->
<g id="edge26" class="edge">
<title>Node13&#45;&gt;Node10</title>
<path fill="none" stroke="midnightblue" d="M421.05,-179.32C437.49,-170.7 462.93,-157.36 481.97,-147.39"/>
<polygon fill="midnightblue" stroke="midnightblue" points="483.76,-150.4 490.99,-142.65 480.51,-144.2 483.76,-150.4"/>
</g>
<!-- Node13&#45;&gt;Node11 -->
<g id="edge27" class="edge">
<title>Node13&#45;&gt;Node11</title>
<path fill="none" stroke="midnightblue" d="M432.23,-179.44C463.15,-169.9 513.14,-154.48 546.16,-144.29"/>
<polygon fill="midnightblue" stroke="midnightblue" points="547.31,-147.6 555.83,-141.3 545.24,-140.91 547.31,-147.6"/>
</g>
<!-- Node14 -->
<g id="node14" class="node">
<title>Node14</title>
<g id="a_node14"><a xlink:href="../../de/dcb/LazyVector_8h.html" target="_top" xlink:title="Header file for the LazyVector class.">
<polygon fill="white" stroke="black" points="343.5,-123.5 343.5,-142.5 421.5,-142.5 421.5,-123.5 343.5,-123.5"/>
<text text-anchor="middle" x="382.5" y="-130.5" font-family="Helvetica,sans-Serif" font-size="10.00">LazyVector.h</text>
</a>
</g>
</g>
<!-- Node13&#45;&gt;Node14 -->
<g id="edge13" class="edge">
<title>Node13&#45;&gt;Node14</title>
<path fill="none" stroke="midnightblue" d="M395.7,-179.08C391.28,-171.93 386.65,-161.64 383.66,-152.69"/>
<polygon fill="midnightblue" stroke="midnightblue" points="386.95,-151.47 380.93,-142.75 380.2,-153.32 386.95,-151.47"/>
</g>
<!-- Node15 -->
<g id="node15" class="node">
<title>Node15</title>
<g id="a_node15"><a xlink:title=" ">
<polygon fill="white" stroke="#bfbfbf" points="516,-62 516,-81 581,-81 581,-62 516,-62"/>
<text text-anchor="middle" x="548.5" y="-69" font-family="Helvetica,sans-Serif" font-size="10.00">functional</text>
</a>
</g>
</g>
<!-- Node13&#45;&gt;Node15 -->
<g id="edge24" class="edge">
<title>Node13&#45;&gt;Node15</title>
<path fill="none" stroke="midnightblue" d="M411.82,-179.38C423.18,-166.31 446.05,-141.08 468.5,-123 485.93,-108.96 507.47,-95.56 523.8,-86.1"/>
<polygon fill="midnightblue" stroke="midnightblue" points="525.79,-88.99 532.75,-81 522.33,-82.91 525.79,-88.99"/>
</g>
<!-- Node18 -->
<g id="node18" class="node">
<title>Node18</title>
<g id="a_node18"><a xlink:title=" ">
<polygon fill="white" stroke="#bfbfbf" points="269.5,-123.5 269.5,-142.5 325.5,-142.5 325.5,-123.5 269.5,-123.5"/>
<text text-anchor="middle" x="297.5" y="-130.5" font-family="Helvetica,sans-Serif" font-size="10.00">iomanip</text>
</a>
</g>
</g>
<!-- Node13&#45;&gt;Node18 -->
<g id="edge25" class="edge">
<title>Node13&#45;&gt;Node18</title>
<path fill="none" stroke="midnightblue" d="M387.31,-179.32C370.15,-170.66 343.55,-157.24 323.75,-147.25"/>
<polygon fill="midnightblue" stroke="midnightblue" points="325.15,-144.04 314.65,-142.65 322,-150.28 325.15,-144.04"/>
</g>
<!-- Node14&#45;&gt;Node3 -->
<g id="edge15" class="edge">
<title>Node14&#45;&gt;Node3</title>
<path fill="none" stroke="midnightblue" d="M378.01,-123.4C370.48,-109.13 354.63,-79.79 339.5,-56 333.45,-46.5 326.22,-36.24 320.16,-27.92"/>
<polygon fill="midnightblue" stroke="midnightblue" points="322.91,-25.75 314.15,-19.78 317.27,-29.9 322.91,-25.75"/>
</g>
<!-- Node14&#45;&gt;Node4 -->
<g id="edge17" class="edge">
<title>Node14&#45;&gt;Node4</title>
<path fill="none" stroke="midnightblue" d="M343.08,-124.39C291.05,-114.23 202.35,-96.39 170.5,-87 167.92,-86.24 165.27,-85.38 162.62,-84.48"/>
<polygon fill="midnightblue" stroke="midnightblue" points="163.8,-81.18 153.21,-81.07 161.42,-87.77 163.8,-81.18"/>
</g>
<!-- Node14&#45;&gt;Node8 -->
<g id="edge14" class="edge">
<title>Node14&#45;&gt;Node8</title>
<path fill="none" stroke="midnightblue" d="M421.58,-125.08C463.66,-117.27 532.39,-103.49 590.5,-87 593.29,-86.21 596.17,-85.33 599.04,-84.4"/>
<polygon fill="midnightblue" stroke="midnightblue" points="600.32,-87.66 608.68,-81.15 598.09,-81.03 600.32,-87.66"/>
</g>
<!-- Node14&#45;&gt;Node13 -->
<g id="edge18" class="edge">
<title>Node14&#45;&gt;Node13</title>
<path fill="none" stroke="midnightblue" d="M391.2,-142.75C395.67,-149.94 400.35,-160.36 403.37,-169.4"/>
<polygon fill="midnightblue" stroke="midnightblue" points="400.01,-170.37 406.03,-179.08 406.76,-168.51 400.01,-170.37"/>
</g>
<!-- Node14&#45;&gt;Node15 -->
<g id="edge16" class="edge">
<title>Node14&#45;&gt;Node15</title>
<path fill="none" stroke="midnightblue" d="M406.28,-123.48C434.88,-113.22 483.05,-95.96 515.3,-84.4"/>
<polygon fill="midnightblue" stroke="midnightblue" points="516.53,-87.68 524.76,-81.01 514.17,-81.09 516.53,-87.68"/>
</g>
<!-- Node16 -->
<g id="node16" class="node">
<title>Node16</title>
<g id="a_node16"><a xlink:href="../../d6/d9f/VectorExpression_8h.html" target="_top" xlink:title="Header file for the MyBLAS::VectorExpression class.">
<polygon fill="white" stroke="black" points="387.5,-62 387.5,-81 497.5,-81 497.5,-62 387.5,-62"/>
<text text-anchor="middle" x="442.5" y="-69" font-family="Helvetica,sans-Serif" font-size="10.00">VectorExpression.h</text>
</a>
</g>
</g>
<!-- Node14&#45;&gt;Node16 -->
<g id="edge19" class="edge">
<title>Node14&#45;&gt;Node16</title>
<path fill="none" stroke="midnightblue" d="M391.1,-123.48C400.36,-114.28 415.32,-99.46 426.71,-88.16"/>
<polygon fill="midnightblue" stroke="midnightblue" points="429.28,-90.54 433.92,-81.01 424.35,-85.57 429.28,-90.54"/>
</g>
<!-- Node17 -->
<g id="node17" class="node">
<title>Node17</title>
<g id="a_node17"><a xlink:href="../../d6/db1/ContainerExpression_8h.html" target="_top" xlink:title="Header file for the ContainerExpression class.">
<polygon fill="white" stroke="black" points="180,-56.5 180,-86.5 331,-86.5 331,-56.5 180,-56.5"/>
<text text-anchor="start" x="188" y="-74.5" font-family="Helvetica,sans-Serif" font-size="10.00">math/blas/matrix/Container</text>
<text text-anchor="middle" x="255.5" y="-63.5" font-family="Helvetica,sans-Serif" font-size="10.00">Expression.h</text>
</a>
</g>
</g>
<!-- Node14&#45;&gt;Node17 -->
<g id="edge21" class="edge">
<title>Node14&#45;&gt;Node17</title>
<path fill="none" stroke="midnightblue" d="M364.3,-123.48C346.22,-115 317.91,-101.74 294.69,-90.86"/>
<polygon fill="midnightblue" stroke="midnightblue" points="295.97,-87.6 285.43,-86.52 293,-93.93 295.97,-87.6"/>
</g>
<!-- Node16&#45;&gt;Node3 -->
<g id="edge20" class="edge">
<title>Node16&#45;&gt;Node3</title>
<path fill="none" stroke="midnightblue" d="M423.16,-61.98C400.4,-51.95 362.41,-35.2 336.21,-23.65"/>
<polygon fill="midnightblue" stroke="midnightblue" points="337.37,-20.34 326.81,-19.51 334.55,-26.74 337.37,-20.34"/>
</g>
<!-- Node17&#45;&gt;Node3 -->
<g id="edge22" class="edge">
<title>Node17&#45;&gt;Node3</title>
<path fill="none" stroke="midnightblue" d="M267.82,-56.4C275.46,-47.66 285.29,-36.41 293.26,-27.3"/>
<polygon fill="midnightblue" stroke="midnightblue" points="295.99,-29.49 299.93,-19.66 290.72,-24.88 295.99,-29.49"/>
</g>
</g>
</svg>
        <g id="navigator" transform="translate(0 0)" fill="#404254">
                <rect fill="#f2f5e9" fill-opacity="0.5" stroke="#606060" stroke-width=".5" x="0" y="0" width="60" height="60"/>
                <use id="zoomplus" xlink:href="#zoomPlus" x="17" y="9" onmousedown="handleZoom(evt,'in')"/>
                <use id="zoomminus" xlink:href="#zoomMin" x="42" y="9" onmousedown="handleZoom(evt,'out')"/>
                <use id="reset" xlink:href="#resetDef" x="30" y="36" onmousedown="handleReset()"/>
                <g id="arrowUp" xlink:href="#dirArrow" transform="translate(30 24)" onmousedown="handlePan(0,-1)">
                  <use xlink:href="#rim" fill="#404040">
                        <set attributeName="fill" to="#808080" begin="arrowUp.mouseover" end="arrowUp.mouseout"/>
                  </use>
                  <path fill="none" stroke="white" stroke-width="1.5" d="M0,-3.0v7 M-2.5,-0.5L0,-3.0L2.5,-0.5"/>
                </g>
                <g id="arrowRight" xlink:href="#dirArrow" transform="rotate(90) translate(36 -43)" onmousedown="handlePan(1,0)">
                  <use xlink:href="#rim" fill="#404040">
                        <set attributeName="fill" to="#808080" begin="arrowRight.mouseover" end="arrowRight.mouseout"/>
                  </use>
                  <path fill="none" stroke="white" stroke-width="1.5" d="M0,-3.0v7 M-2.5,-0.5L0,-3.0L2.5,-0.5"/>
                </g>
                <g id="arrowDown" xlink:href="#dirArrow" transform="rotate(180) translate(-30 -48)" onmousedown="handlePan(0,1)">
                  <use xlink:href="#rim" fill="#404040">
                        <set attributeName="fill" to="#808080" begin="arrowDown.mouseover" end="arrowDown.mouseout"/>
                  </use>
                  <path fill="none" stroke="white" stroke-width="1.5" d="M0,-3.0v7 M-2.5,-0.5L0,-3.0L2.5,-0.5"/>
                </g>
                <g id="arrowLeft" xlink:href="#dirArrow" transform="rotate(270) translate(-36 17)" onmousedown="handlePan(-1,0)">
                  <use xlink:href="#rim" fill="#404040">
                        <set attributeName="fill" to="#808080" begin="arrowLeft.mouseover" end="arrowLeft.mouseout"/>
                  </use>
                  <path fill="none" stroke="white" stroke-width="1.5" d="M0,-3.0v7 M-2.5,-0.5L0,-3.0L2.5,-0.5"/>
                </g>
        </g>
        <svg viewBox="0 0 15 15" width="100%" height="30px" preserveAspectRatio="xMaxYMin meet">
         <g id="arrow_out" transform="scale(0.3 0.3)">
          <a xlink:href="DiffusionParams_8h__incl_org.svg" target="_base">
           <rect id="button" ry="5" rx="5" y="6" x="6" height="38" width="38"
                fill="#f2f5e9" fill-opacity="0.5" stroke="#606060" stroke-width="1.0"/>
           <path id="arrow"
             d="M 11.500037,31.436501 C 11.940474,20.09759 22.043105,11.32322 32.158766,21.979434 L 37.068811,17.246167 C 37.068811,17.246167 37.088388,32 37.088388,32 L 22.160133,31.978069 C 22.160133,31.978069 26.997745,27.140456 26.997745,27.140456 C 18.528582,18.264221 13.291696,25.230495 11.500037,31.436501 z"
             style="fill:#404040;"/>
          </a>
         </g>
        </svg>
</svg>
