<?xml version="1.0" encoding="UTF-8" standalone="no"?>
<!DOCTYPE svg PUBLIC "-//W3C//DTD SVG 1.1//EN"
 "http://www.w3.org/Graphics/SVG/1.1/DTD/svg11.dtd">
<!-- Generated by graphviz version 2.43.0 (0)
 -->
<!-- Title: MPIProject::sendInputs Pages: 1 -->
<svg width="437pt" height="28pt"
 viewBox="0.00 0.00 437.00 28.00" xmlns="http://www.w3.org/2000/svg" xmlns:xlink="http://www.w3.org/1999/xlink">
<g id="graph0" class="graph" transform="scale(1 1) rotate(0) translate(4 24)">
<title>MPIProject::sendInputs</title>
<polygon fill="white" stroke="transparent" points="-4,4 -4,-24 433,-24 433,4 -4,4"/>
<!-- Node1 -->
<g id="node1" class="node">
<title>Node1</title>
<g id="a_node1"><a xlink:title=" ">
<polygon fill="#bfbfbf" stroke="black" points="301,-0.5 301,-19.5 429,-19.5 429,-0.5 301,-0.5"/>
<text text-anchor="middle" x="365" y="-7.5" font-family="Helvetica,sans-Serif" font-size="10.00">MPIProject::sendInputs</text>
</a>
</g>
</g>
<!-- Node2 -->
<g id="node2" class="node">
<title>Node2</title>
<g id="a_node2"><a xlink:href="../../d0/df0/classMPIProject.html#a40e319fa4491d3b686e0afc0d0ebee3c" target="_top" xlink:title="Initializes the project.">
<polygon fill="white" stroke="black" points="149,-0.5 149,-19.5 265,-19.5 265,-0.5 149,-0.5"/>
<text text-anchor="middle" x="207" y="-7.5" font-family="Helvetica,sans-Serif" font-size="10.00">MPIProject::initialize</text>
</a>
</g>
</g>
<!-- Node1&#45;&gt;Node2 -->
<g id="edge1" class="edge">
<title>Node1&#45;&gt;Node2</title>
<path fill="none" stroke="midnightblue" d="M290.92,-10C282.28,-10 273.57,-10 265.19,-10"/>
<polygon fill="midnightblue" stroke="midnightblue" points="291,-13.5 301,-10 291,-6.5 291,-13.5"/>
</g>
<!-- Node3 -->
<g id="node3" class="node">
<title>Node3</title>
<g id="a_node3"><a xlink:href="../../d0/df0/classMPIProject.html#a81eaeb709e6273f7270572bd1956998a" target="_top" xlink:title="Executes the project.">
<polygon fill="white" stroke="black" points="0,-0.5 0,-19.5 113,-19.5 113,-0.5 0,-0.5"/>
<text text-anchor="middle" x="56.5" y="-7.5" font-family="Helvetica,sans-Serif" font-size="10.00">MPIProject::execute</text>
</a>
</g>
</g>
<!-- Node2&#45;&gt;Node3 -->
<g id="edge2" class="edge">
<title>Node2&#45;&gt;Node3</title>
<path fill="none" stroke="midnightblue" d="M138.42,-10C130.02,-10 121.5,-10 113.3,-10"/>
<polygon fill="midnightblue" stroke="midnightblue" points="138.59,-13.5 148.59,-10 138.59,-6.5 138.59,-13.5"/>
</g>
</g>
</svg>
