<?xml version="1.0" encoding="UTF-8" standalone="no"?>
<!DOCTYPE svg PUBLIC "-//W3C//DTD SVG 1.1//EN"
 "http://www.w3.org/Graphics/SVG/1.1/DTD/svg11.dtd">
<!-- Generated by graphviz version 2.43.0 (0)
 -->
<!-- Title: Stopwatch::click Pages: 1 -->
<svg width="422pt" height="408pt"
 viewBox="0.00 0.00 422.00 408.00" xmlns="http://www.w3.org/2000/svg" xmlns:xlink="http://www.w3.org/1999/xlink">
<g id="graph0" class="graph" transform="scale(1 1) rotate(0) translate(4 404)">
<title>Stopwatch::click</title>
<polygon fill="white" stroke="transparent" points="-4,4 -4,-404 418,-404 418,4 -4,4"/>
<!-- Node1 -->
<g id="node1" class="node">
<title>Node1</title>
<g id="a_node1"><a xlink:title="Save the current time as the clicked time point.">
<polygon fill="#bfbfbf" stroke="black" points="318,-190.5 318,-209.5 414,-209.5 414,-190.5 318,-190.5"/>
<text text-anchor="middle" x="366" y="-197.5" font-family="Helvetica,sans-Serif" font-size="10.00">Stopwatch::click</text>
</a>
</g>
</g>
<!-- Node2 -->
<g id="node2" class="node">
<title>Node2</title>
<g id="a_node2"><a xlink:href="../../d1/dcf/labs_2outlab2_2Compute_8h.html#ac03dad33fd27f534eac0a60c2ddc8e1b" target="_top" xlink:title="This function computes the Lagrange polynomials for a given set of data points.">
<polygon fill="white" stroke="black" points="148.5,-380.5 148.5,-399.5 248.5,-399.5 248.5,-380.5 148.5,-380.5"/>
<text text-anchor="middle" x="198.5" y="-387.5" font-family="Helvetica,sans-Serif" font-size="10.00">fillLagrangePolys</text>
</a>
</g>
</g>
<!-- Node1&#45;&gt;Node2 -->
<g id="edge1" class="edge">
<title>Node1&#45;&gt;Node2</title>
<path fill="none" stroke="midnightblue" d="M361.24,-219.71C353.31,-255.63 331.38,-331.67 282,-371 272.46,-378.6 260.43,-383.27 248.53,-386.11"/>
<polygon fill="midnightblue" stroke="midnightblue" points="364.74,-220.06 363.34,-209.56 357.88,-218.64 364.74,-220.06"/>
</g>
<!-- Node3 -->
<g id="node3" class="node">
<title>Node3</title>
<g id="a_node3"><a xlink:href="../../da/d31/labs_2outlab3_2Compute_8h.html#a95d9daf0856a3302dc96b43022c3545e" target="_top" xlink:title="Computes the integral of a user&#45;defined function using Gauss&#45;Legendre quadrature.">
<polygon fill="white" stroke="black" points="118,-342.5 118,-361.5 279,-361.5 279,-342.5 118,-342.5"/>
<text text-anchor="middle" x="198.5" y="-349.5" font-family="Helvetica,sans-Serif" font-size="10.00">fillUsingGaussianQuadratures</text>
</a>
</g>
</g>
<!-- Node1&#45;&gt;Node3 -->
<g id="edge2" class="edge">
<title>Node1&#45;&gt;Node3</title>
<path fill="none" stroke="midnightblue" d="M358.58,-219C347.67,-248.26 322.65,-304 282,-333 276.62,-336.84 270.57,-339.92 264.28,-342.38"/>
<polygon fill="midnightblue" stroke="midnightblue" points="361.9,-220.11 361.96,-209.51 355.3,-217.75 361.9,-220.11"/>
</g>
<!-- Node4 -->
<g id="node4" class="node">
<title>Node4</title>
<g id="a_node4"><a xlink:href="../../d5/dd9/labs_2inlab3_2Compute_8h.html#ae164366952566cd01a8361d871afa49c" target="_top" xlink:title="This function computes the integral of a user&#45;defined function using Simpson&#39;s rule.">
<polygon fill="white" stroke="black" points="146.5,-266.5 146.5,-285.5 250.5,-285.5 250.5,-266.5 146.5,-266.5"/>
<text text-anchor="middle" x="198.5" y="-273.5" font-family="Helvetica,sans-Serif" font-size="10.00">fillUsingSimpsons</text>
</a>
</g>
</g>
<!-- Node1&#45;&gt;Node4 -->
<g id="edge3" class="edge">
<title>Node1&#45;&gt;Node4</title>
<path fill="none" stroke="midnightblue" d="M345.96,-216.19C329.89,-229.05 305.76,-246.56 282,-257 272.18,-261.32 261.25,-264.72 250.64,-267.37"/>
<polygon fill="midnightblue" stroke="midnightblue" points="348.49,-218.64 354,-209.59 344.05,-213.23 348.49,-218.64"/>
</g>
<!-- Node7 -->
<g id="node7" class="node">
<title>Node7</title>
<g id="a_node7"><a xlink:href="../../d5/dd9/labs_2inlab3_2Compute_8h.html#af4bb26246ad605fa03817abc9fe3d10c" target="_top" xlink:title="This function computes the integral of a user&#45;defined function using the trapezoidal rule.">
<polygon fill="white" stroke="black" points="142.5,-304.5 142.5,-323.5 254.5,-323.5 254.5,-304.5 142.5,-304.5"/>
<text text-anchor="middle" x="198.5" y="-311.5" font-family="Helvetica,sans-Serif" font-size="10.00">fillUsingTrapezoidal</text>
</a>
</g>
</g>
<!-- Node1&#45;&gt;Node7 -->
<g id="edge6" class="edge">
<title>Node1&#45;&gt;Node7</title>
<path fill="none" stroke="midnightblue" d="M354.19,-218.2C340.29,-239.95 314.08,-275.79 282,-295 273.68,-299.98 264.16,-303.66 254.62,-306.37"/>
<polygon fill="midnightblue" stroke="midnightblue" points="357.24,-219.92 359.53,-209.58 351.29,-216.24 357.24,-219.92"/>
</g>
<!-- Node8 -->
<g id="node8" class="node">
<title>Node8</title>
<g id="a_node8"><a xlink:href="../../dd/d40/classInLab1.html#a4e079d8eddd4a202eb5a0373d8fb8ab7" target="_top" xlink:title="Executes the project.">
<polygon fill="white" stroke="black" points="163,-228.5 163,-247.5 234,-247.5 234,-228.5 163,-228.5"/>
<text text-anchor="middle" x="198.5" y="-235.5" font-family="Helvetica,sans-Serif" font-size="10.00">InLab1::run</text>
</a>
</g>
</g>
<!-- Node1&#45;&gt;Node8 -->
<g id="edge9" class="edge">
<title>Node1&#45;&gt;Node8</title>
<path fill="none" stroke="midnightblue" d="M313.27,-211.88C287.55,-217.78 257.16,-224.76 234.26,-230.02"/>
<polygon fill="midnightblue" stroke="midnightblue" points="314.27,-215.24 323.24,-209.59 312.71,-208.42 314.27,-215.24"/>
</g>
<!-- Node9 -->
<g id="node9" class="node">
<title>Node9</title>
<g id="a_node9"><a xlink:href="../../de/db3/namespaceCompute.html#a017b511b9ab24d2388a864d6cb14c1cc" target="_top" xlink:title="Solves a linear system using the Gauss&#45;Seidel method.">
<polygon fill="white" stroke="black" points="122,-190.5 122,-209.5 275,-209.5 275,-190.5 122,-190.5"/>
<text text-anchor="middle" x="198.5" y="-197.5" font-family="Helvetica,sans-Serif" font-size="10.00">Compute::usingGaussSeidel</text>
</a>
</g>
</g>
<!-- Node1&#45;&gt;Node9 -->
<g id="edge10" class="edge">
<title>Node1&#45;&gt;Node9</title>
<path fill="none" stroke="midnightblue" d="M307.36,-200C296.93,-200 285.91,-200 275.05,-200"/>
<polygon fill="midnightblue" stroke="midnightblue" points="307.57,-203.5 317.57,-200 307.57,-196.5 307.57,-203.5"/>
</g>
<!-- Node10 -->
<g id="node10" class="node">
<title>Node10</title>
<g id="a_node10"><a xlink:href="../../de/db3/namespaceCompute.html#a3b30a49d004f8370d19cd13f6492ddba" target="_top" xlink:title="Solves a linear system using the Jacobi SOR method.">
<polygon fill="white" stroke="black" points="127,-114.5 127,-133.5 270,-133.5 270,-114.5 127,-114.5"/>
<text text-anchor="middle" x="198.5" y="-121.5" font-family="Helvetica,sans-Serif" font-size="10.00">Compute::usingJacobiSOR</text>
</a>
</g>
</g>
<!-- Node1&#45;&gt;Node10 -->
<g id="edge11" class="edge">
<title>Node1&#45;&gt;Node10</title>
<path fill="none" stroke="midnightblue" d="M345.96,-183.81C329.89,-170.95 305.76,-153.44 282,-143 273.25,-139.16 263.63,-136.04 254.14,-133.53"/>
<polygon fill="midnightblue" stroke="midnightblue" points="344.05,-186.77 354,-190.41 348.49,-181.36 344.05,-186.77"/>
</g>
<!-- Node14 -->
<g id="node14" class="node">
<title>Node14</title>
<g id="a_node14"><a xlink:href="../../de/db3/namespaceCompute.html#a9aaa2e3c1db51432d5a62c1d4541fd90" target="_top" xlink:title="Solves a linear system using LUP decomposition.">
<polygon fill="white" stroke="black" points="142.5,-152.5 142.5,-171.5 254.5,-171.5 254.5,-152.5 142.5,-152.5"/>
<text text-anchor="middle" x="198.5" y="-159.5" font-family="Helvetica,sans-Serif" font-size="10.00">Compute::usingLUP</text>
</a>
</g>
</g>
<!-- Node1&#45;&gt;Node14 -->
<g id="edge15" class="edge">
<title>Node1&#45;&gt;Node14</title>
<path fill="none" stroke="midnightblue" d="M313.19,-188.1C289.93,-182.76 262.85,-176.55 240.96,-171.52"/>
<polygon fill="midnightblue" stroke="midnightblue" points="312.71,-191.58 323.24,-190.41 314.27,-184.76 312.71,-191.58"/>
</g>
<!-- Node15 -->
<g id="node15" class="node">
<title>Node15</title>
<g id="a_node15"><a xlink:href="../../de/db3/namespaceCompute.html#a0aa73a107ee5ea0767e15b7caddeecc7" target="_top" xlink:title="This method applies the Point Jacobi relaxation method to the given input matrices.">
<polygon fill="white" stroke="black" points="125,-76.5 125,-95.5 272,-95.5 272,-76.5 125,-76.5"/>
<text text-anchor="middle" x="198.5" y="-83.5" font-family="Helvetica,sans-Serif" font-size="10.00">Compute::usingPointJacobi</text>
</a>
</g>
</g>
<!-- Node1&#45;&gt;Node15 -->
<g id="edge19" class="edge">
<title>Node1&#45;&gt;Node15</title>
<path fill="none" stroke="midnightblue" d="M354.19,-181.8C340.29,-160.05 314.08,-124.21 282,-105 275.57,-101.15 268.43,-98.08 261.11,-95.63"/>
<polygon fill="midnightblue" stroke="midnightblue" points="351.29,-183.76 359.53,-190.42 357.24,-180.08 351.29,-183.76"/>
</g>
<!-- Node18 -->
<g id="node18" class="node">
<title>Node18</title>
<g id="a_node18"><a xlink:href="../../de/db3/namespaceCompute.html#acfa0341940d2764e69d254afdc2cbb23" target="_top" xlink:title="Solves a linear system using the Successive Over&#45;Relaxation (SOR) method.">
<polygon fill="white" stroke="black" points="142,-38.5 142,-57.5 255,-57.5 255,-38.5 142,-38.5"/>
<text text-anchor="middle" x="198.5" y="-45.5" font-family="Helvetica,sans-Serif" font-size="10.00">Compute::usingSOR</text>
</a>
</g>
</g>
<!-- Node1&#45;&gt;Node18 -->
<g id="edge25" class="edge">
<title>Node1&#45;&gt;Node18</title>
<path fill="none" stroke="midnightblue" d="M358.58,-181C347.67,-151.74 322.65,-96 282,-67 274.1,-61.37 264.79,-57.38 255.33,-54.55"/>
<polygon fill="midnightblue" stroke="midnightblue" points="355.3,-182.25 361.96,-190.49 361.9,-179.89 355.3,-182.25"/>
</g>
<!-- Node19 -->
<g id="node19" class="node">
<title>Node19</title>
<g id="a_node19"><a xlink:href="../../de/db3/namespaceCompute.html#ab38c6016d5c4907c1f4f468600278560" target="_top" xlink:title="Solves a linear system using the Symmetric SOR method.">
<polygon fill="white" stroke="black" points="115,-0.5 115,-19.5 282,-19.5 282,-0.5 115,-0.5"/>
<text text-anchor="middle" x="198.5" y="-7.5" font-family="Helvetica,sans-Serif" font-size="10.00">Compute::usingSymmetricSOR</text>
</a>
</g>
</g>
<!-- Node1&#45;&gt;Node19 -->
<g id="edge26" class="edge">
<title>Node1&#45;&gt;Node19</title>
<path fill="none" stroke="midnightblue" d="M361.24,-180.29C353.31,-144.37 331.38,-68.33 282,-29 277.17,-25.15 271.71,-22.06 265.94,-19.57"/>
<polygon fill="midnightblue" stroke="midnightblue" points="357.88,-181.36 363.34,-190.44 364.74,-179.94 357.88,-181.36"/>
</g>
<!-- Node5 -->
<g id="node5" class="node">
<title>Node5</title>
<g id="a_node5"><a xlink:href="../../d1/d1f/classInLab3.html#a95bc0719c1cc54ac936e3c7a5b20043d" target="_top" xlink:title="Runs the numerical integration using Composite Newton&#45;Cotes Formulas.">
<polygon fill="white" stroke="black" points="4,-266.5 4,-285.5 75,-285.5 75,-266.5 4,-266.5"/>
<text text-anchor="middle" x="39.5" y="-273.5" font-family="Helvetica,sans-Serif" font-size="10.00">InLab3::run</text>
</a>
</g>
</g>
<!-- Node4&#45;&gt;Node5 -->
<g id="edge4" class="edge">
<title>Node4&#45;&gt;Node5</title>
<path fill="none" stroke="midnightblue" d="M135.81,-276C115.2,-276 92.97,-276 75.16,-276"/>
<polygon fill="midnightblue" stroke="midnightblue" points="136.09,-279.5 146.09,-276 136.09,-272.5 136.09,-279.5"/>
</g>
<!-- Node6 -->
<g id="node6" class="node">
<title>Node6</title>
<g id="a_node6"><a xlink:href="../../da/df0/classOutLab3.html#a19a79946e1512bbd5d67fab314399b2b" target="_top" xlink:title="Runs the numerical integration using Composite Newton&#45;Cotes Formulas.">
<polygon fill="white" stroke="black" points="0,-304.5 0,-323.5 79,-323.5 79,-304.5 0,-304.5"/>
<text text-anchor="middle" x="39.5" y="-311.5" font-family="Helvetica,sans-Serif" font-size="10.00">OutLab3::run</text>
</a>
</g>
</g>
<!-- Node4&#45;&gt;Node6 -->
<g id="edge5" class="edge">
<title>Node4&#45;&gt;Node6</title>
<path fill="none" stroke="midnightblue" d="M145.2,-287.85C135.16,-290.18 124.75,-292.63 115,-295 102.68,-297.99 89.24,-301.38 77.21,-304.46"/>
<polygon fill="midnightblue" stroke="midnightblue" points="146.1,-291.23 155.06,-285.57 144.53,-284.41 146.1,-291.23"/>
</g>
<!-- Node7&#45;&gt;Node5 -->
<g id="edge7" class="edge">
<title>Node7&#45;&gt;Node5</title>
<path fill="none" stroke="midnightblue" d="M145.2,-302.15C135.16,-299.82 124.75,-297.37 115,-295 102.03,-291.85 87.82,-288.26 75.33,-285.06"/>
<polygon fill="midnightblue" stroke="midnightblue" points="144.53,-305.59 155.06,-304.43 146.1,-298.77 144.53,-305.59"/>
</g>
<!-- Node7&#45;&gt;Node6 -->
<g id="edge8" class="edge">
<title>Node7&#45;&gt;Node6</title>
<path fill="none" stroke="midnightblue" d="M131.98,-314C113.98,-314 95.05,-314 79.1,-314"/>
<polygon fill="midnightblue" stroke="midnightblue" points="132.15,-317.5 142.15,-314 132.15,-310.5 132.15,-317.5"/>
</g>
<!-- Node11 -->
<g id="node11" class="node">
<title>Node11</title>
<g id="a_node11"><a xlink:href="../../d0/d4c/classOutLab6.html#a901a1283fd029c9174f8469ac5cb3ad8" target="_top" xlink:title="This function runs the computation.">
<polygon fill="white" stroke="black" points="0,-152.5 0,-171.5 79,-171.5 79,-152.5 0,-152.5"/>
<text text-anchor="middle" x="39.5" y="-159.5" font-family="Helvetica,sans-Serif" font-size="10.00">OutLab6::run</text>
</a>
</g>
</g>
<!-- Node10&#45;&gt;Node11 -->
<g id="edge12" class="edge">
<title>Node10&#45;&gt;Node11</title>
<path fill="none" stroke="midnightblue" d="M145.2,-135.85C135.16,-138.18 124.75,-140.63 115,-143 102.68,-145.99 89.24,-149.38 77.21,-152.46"/>
<polygon fill="midnightblue" stroke="midnightblue" points="146.1,-139.23 155.06,-133.57 144.53,-132.41 146.1,-139.23"/>
</g>
<!-- Node12 -->
<g id="node12" class="node">
<title>Node12</title>
<g id="a_node12"><a xlink:href="../../dd/db5/classProject2.html#a0990db917f6a27a4e1cb9ac885698524" target="_top" xlink:title="This function runs the project.">
<polygon fill="white" stroke="black" points="0.5,-114.5 0.5,-133.5 78.5,-133.5 78.5,-114.5 0.5,-114.5"/>
<text text-anchor="middle" x="39.5" y="-121.5" font-family="Helvetica,sans-Serif" font-size="10.00">Project2::run</text>
</a>
</g>
</g>
<!-- Node10&#45;&gt;Node12 -->
<g id="edge13" class="edge">
<title>Node10&#45;&gt;Node12</title>
<path fill="none" stroke="midnightblue" d="M116.66,-124C103.37,-124 90.18,-124 78.6,-124"/>
<polygon fill="midnightblue" stroke="midnightblue" points="116.81,-127.5 126.81,-124 116.81,-120.5 116.81,-127.5"/>
</g>
<!-- Node13 -->
<g id="node13" class="node">
<title>Node13</title>
<g id="a_node13"><a xlink:href="../../dd/dfb/classProject3.html#a8bcff99aaba60e7d5e5be3cb7552d163" target="_top" xlink:title="This function runs the project.">
<polygon fill="white" stroke="black" points="0.5,-76.5 0.5,-95.5 78.5,-95.5 78.5,-76.5 0.5,-76.5"/>
<text text-anchor="middle" x="39.5" y="-83.5" font-family="Helvetica,sans-Serif" font-size="10.00">Project3::run</text>
</a>
</g>
</g>
<!-- Node10&#45;&gt;Node13 -->
<g id="edge14" class="edge">
<title>Node10&#45;&gt;Node13</title>
<path fill="none" stroke="midnightblue" d="M145.2,-112.15C135.16,-109.82 124.75,-107.37 115,-105 102.68,-102.01 89.24,-98.62 77.21,-95.54"/>
<polygon fill="midnightblue" stroke="midnightblue" points="144.53,-115.59 155.06,-114.43 146.1,-108.77 144.53,-115.59"/>
</g>
<!-- Node14&#45;&gt;Node11 -->
<g id="edge16" class="edge">
<title>Node14&#45;&gt;Node11</title>
<path fill="none" stroke="midnightblue" d="M131.98,-162C113.98,-162 95.05,-162 79.1,-162"/>
<polygon fill="midnightblue" stroke="midnightblue" points="132.15,-165.5 142.15,-162 132.15,-158.5 132.15,-165.5"/>
</g>
<!-- Node14&#45;&gt;Node12 -->
<g id="edge17" class="edge">
<title>Node14&#45;&gt;Node12</title>
<path fill="none" stroke="midnightblue" d="M145.2,-150.15C135.16,-147.82 124.75,-145.37 115,-143 102.68,-140.01 89.24,-136.62 77.21,-133.54"/>
<polygon fill="midnightblue" stroke="midnightblue" points="144.53,-153.59 155.06,-152.43 146.1,-146.77 144.53,-153.59"/>
</g>
<!-- Node14&#45;&gt;Node13 -->
<g id="edge18" class="edge">
<title>Node14&#45;&gt;Node13</title>
<path fill="none" stroke="midnightblue" d="M132.45,-150.89C126.36,-148.71 120.44,-146.11 115,-143 94.8,-131.45 97.72,-118.81 79,-105 74.2,-101.46 68.64,-98.28 63.27,-95.57"/>
<polygon fill="midnightblue" stroke="midnightblue" points="131.51,-154.27 142.11,-153.97 133.64,-147.6 131.51,-154.27"/>
</g>
<!-- Node15&#45;&gt;Node11 -->
<g id="edge21" class="edge">
<title>Node15&#45;&gt;Node11</title>
<path fill="none" stroke="midnightblue" d="M127.35,-99.05C123.07,-100.79 118.91,-102.76 115,-105 94.8,-116.55 97.72,-129.19 79,-143 74.2,-146.54 68.64,-149.72 63.27,-152.43"/>
<polygon fill="midnightblue" stroke="midnightblue" points="128.69,-102.29 136.9,-95.6 126.31,-95.71 128.69,-102.29"/>
</g>
<!-- Node15&#45;&gt;Node12 -->
<g id="edge22" class="edge">
<title>Node15&#45;&gt;Node12</title>
<path fill="none" stroke="midnightblue" d="M145.2,-97.85C135.16,-100.18 124.75,-102.63 115,-105 102.68,-107.99 89.24,-111.38 77.21,-114.46"/>
<polygon fill="midnightblue" stroke="midnightblue" points="146.1,-101.23 155.06,-95.57 144.53,-94.41 146.1,-101.23"/>
</g>
<!-- Node15&#45;&gt;Node13 -->
<g id="edge23" class="edge">
<title>Node15&#45;&gt;Node13</title>
<path fill="none" stroke="midnightblue" d="M114.89,-86C102.32,-86 89.89,-86 78.9,-86"/>
<polygon fill="midnightblue" stroke="midnightblue" points="114.97,-89.5 124.97,-86 114.97,-82.5 114.97,-89.5"/>
</g>
<!-- Node16 -->
<g id="node16" class="node">
<title>Node16</title>
<g id="a_node16"><a xlink:href="../../d1/d8c/classInLab6.html#a55667f27b7ba522dd4288f18d16c9f8d" target="_top" xlink:title="This function runs the project.">
<polygon fill="white" stroke="black" points="4,-0.5 4,-19.5 75,-19.5 75,-0.5 4,-0.5"/>
<text text-anchor="middle" x="39.5" y="-7.5" font-family="Helvetica,sans-Serif" font-size="10.00">InLab6::run</text>
</a>
</g>
</g>
<!-- Node15&#45;&gt;Node16 -->
<g id="edge20" class="edge">
<title>Node15&#45;&gt;Node16</title>
<path fill="none" stroke="midnightblue" d="M127.35,-72.95C123.07,-71.21 118.91,-69.24 115,-67 94.8,-55.45 97.72,-42.81 79,-29 74.2,-25.46 68.64,-22.28 63.27,-19.57"/>
<polygon fill="midnightblue" stroke="midnightblue" points="126.31,-76.29 136.9,-76.4 128.69,-69.71 126.31,-76.29"/>
</g>
<!-- Node17 -->
<g id="node17" class="node">
<title>Node17</title>
<g id="a_node17"><a xlink:href="../../d2/dfd/classProject4.html#a3779e87d22c7d4949f3c01bae1d08ab9" target="_top" xlink:title="This function runs the project.">
<polygon fill="white" stroke="black" points="0.5,-38.5 0.5,-57.5 78.5,-57.5 78.5,-38.5 0.5,-38.5"/>
<text text-anchor="middle" x="39.5" y="-45.5" font-family="Helvetica,sans-Serif" font-size="10.00">Project4::run</text>
</a>
</g>
</g>
<!-- Node15&#45;&gt;Node17 -->
<g id="edge24" class="edge">
<title>Node15&#45;&gt;Node17</title>
<path fill="none" stroke="midnightblue" d="M145.2,-74.15C135.16,-71.82 124.75,-69.37 115,-67 102.68,-64.01 89.24,-60.62 77.21,-57.54"/>
<polygon fill="midnightblue" stroke="midnightblue" points="144.53,-77.59 155.06,-76.43 146.1,-70.77 144.53,-77.59"/>
</g>
</g>
</svg>
