<?xml version="1.0" encoding="UTF-8" standalone="no"?>
<!DOCTYPE svg PUBLIC "-//W3C//DTD SVG 1.1//EN"
 "http://www.w3.org/Graphics/SVG/1.1/DTD/svg11.dtd">
<!-- Generated by graphviz version 2.43.0 (0)
 -->
<!-- Title: src/utils/math/relaxation/SOR.h Pages: 1 -->
<svg width="887pt" height="386pt"
 viewBox="0.00 0.00 886.87 386.00" xmlns="http://www.w3.org/2000/svg" xmlns:xlink="http://www.w3.org/1999/xlink">
<g id="graph0" class="graph" transform="scale(1 1) rotate(0) translate(4 382)">
<title>src/utils/math/relaxation/SOR.h</title>
<polygon fill="white" stroke="transparent" points="-4,4 -4,-382 882.87,-382 882.87,4 -4,4"/>
<!-- Node1 -->
<g id="node1" class="node">
<title>Node1</title>
<g id="a_node1"><a xlink:title="This file contains the implementation of the Successive Over&#45;Relaxation (SOR) method for solving syst...">
<polygon fill="#bfbfbf" stroke="black" points="415.87,-347.5 415.87,-377.5 551.87,-377.5 551.87,-347.5 415.87,-347.5"/>
<text text-anchor="start" x="423.87" y="-365.5" font-family="Helvetica,sans-Serif" font-size="10.00">src/utils/math/relaxation</text>
<text text-anchor="middle" x="483.87" y="-354.5" font-family="Helvetica,sans-Serif" font-size="10.00">/SOR.h</text>
</a>
</g>
</g>
<!-- Node2 -->
<g id="node2" class="node">
<title>Node2</title>
<g id="a_node2"><a xlink:href="../../df/dbd/LinearSolver_8h.html" target="_top" xlink:title="This file contains the definition of the LinearSolver class and its associated methods.">
<polygon fill="white" stroke="black" points="247.87,-291.5 247.87,-310.5 361.87,-310.5 361.87,-291.5 247.87,-291.5"/>
<text text-anchor="middle" x="304.87" y="-298.5" font-family="Helvetica,sans-Serif" font-size="10.00">math/LinearSolver.h</text>
</a>
</g>
</g>
<!-- Node1&#45;&gt;Node2 -->
<g id="edge1" class="edge">
<title>Node1&#45;&gt;Node2</title>
<path fill="none" stroke="midnightblue" d="M441.45,-347.4C410.65,-337.16 369.46,-323.47 340.39,-313.81"/>
<polygon fill="midnightblue" stroke="midnightblue" points="341.24,-310.4 330.65,-310.57 339.04,-317.05 341.24,-310.4"/>
</g>
<!-- Node4 -->
<g id="node4" class="node">
<title>Node4</title>
<g id="a_node4"><a xlink:href="../../d1/d80/BLAS_8h.html" target="_top" xlink:title=" ">
<polygon fill="white" stroke="black" points="359.37,-168.5 359.37,-187.5 462.37,-187.5 462.37,-168.5 359.37,-168.5"/>
<text text-anchor="middle" x="410.87" y="-175.5" font-family="Helvetica,sans-Serif" font-size="10.00">math/blas/BLAS.h</text>
</a>
</g>
</g>
<!-- Node1&#45;&gt;Node4 -->
<g id="edge27" class="edge">
<title>Node1&#45;&gt;Node4</title>
<path fill="none" stroke="midnightblue" d="M484.97,-347.2C486.33,-321.01 486.18,-264.31 463.87,-224 457.01,-211.62 445.33,-201.15 434.67,-193.43"/>
<polygon fill="midnightblue" stroke="midnightblue" points="436.33,-190.32 426.09,-187.61 432.4,-196.12 436.33,-190.32"/>
</g>
<!-- Node6 -->
<g id="node6" class="node">
<title>Node6</title>
<g id="a_node6"><a xlink:href="../../d3/db1/Matrix_8h.html" target="_top" xlink:title="This file contains my BLAS::Matrix declarations.">
<polygon fill="white" stroke="black" points="117.37,-112.5 117.37,-131.5 226.37,-131.5 226.37,-112.5 117.37,-112.5"/>
<text text-anchor="middle" x="171.87" y="-119.5" font-family="Helvetica,sans-Serif" font-size="10.00">math/blas/Matrix.h</text>
</a>
</g>
</g>
<!-- Node1&#45;&gt;Node6 -->
<g id="edge28" class="edge">
<title>Node1&#45;&gt;Node6</title>
<path fill="none" stroke="midnightblue" d="M415.46,-356.48C296.47,-346.16 59.34,-318.03 9.87,-255 -16.19,-221.81 14.57,-193.92 47.87,-168 68.58,-151.88 95.61,-141.17 119.14,-134.26"/>
<polygon fill="midnightblue" stroke="midnightblue" points="120.28,-137.58 128.98,-131.53 118.41,-130.83 120.28,-137.58"/>
</g>
<!-- Node10 -->
<g id="node10" class="node">
<title>Node10</title>
<g id="a_node10"><a xlink:href="../../d6/dbe/Vector_8h.html" target="_top" xlink:title="This file contains my BLAS::Vector implementation.">
<polygon fill="white" stroke="black" points="225.37,-56.5 225.37,-75.5 332.37,-75.5 332.37,-56.5 225.37,-56.5"/>
<text text-anchor="middle" x="278.87" y="-63.5" font-family="Helvetica,sans-Serif" font-size="10.00">math/blas/Vector.h</text>
</a>
</g>
</g>
<!-- Node1&#45;&gt;Node10 -->
<g id="edge33" class="edge">
<title>Node1&#45;&gt;Node10</title>
<path fill="none" stroke="midnightblue" d="M492.97,-347.24C506.12,-325.24 528.87,-281.29 528.87,-240.5 528.87,-240.5 528.87,-240.5 528.87,-177 528.87,-95.71 416.75,-73.96 342.68,-68.47"/>
<polygon fill="midnightblue" stroke="midnightblue" points="342.71,-64.96 332.5,-67.8 342.24,-71.95 342.71,-64.96"/>
</g>
<!-- Node17 -->
<g id="node17" class="node">
<title>Node17</title>
<g id="a_node17"><a xlink:href="../../d4/d8a/Ops_8h.html" target="_top" xlink:title="This file contains the definition of the L2Norm function, which calculates the L2 norm (Euclidean dis...">
<polygon fill="white" stroke="black" points="617.87,-291.5 617.87,-310.5 713.87,-310.5 713.87,-291.5 617.87,-291.5"/>
<text text-anchor="middle" x="665.87" y="-298.5" font-family="Helvetica,sans-Serif" font-size="10.00">math/blas/Ops.h</text>
</a>
</g>
</g>
<!-- Node1&#45;&gt;Node17 -->
<g id="edge29" class="edge">
<title>Node1&#45;&gt;Node17</title>
<path fill="none" stroke="midnightblue" d="M527,-347.4C558.45,-337.12 600.56,-323.35 630.13,-313.68"/>
<polygon fill="midnightblue" stroke="midnightblue" points="631.23,-317.01 639.65,-310.57 629.06,-310.35 631.23,-317.01"/>
</g>
<!-- Node3 -->
<g id="node3" class="node">
<title>Node3</title>
<g id="a_node3"><a xlink:href="../../d1/d6a/Factorize_8h.html" target="_top" xlink:title="This file contains the declaration of the MyFactorizationMethod namespace, which includes methods and...">
<polygon fill="white" stroke="black" points="348.37,-224.5 348.37,-254.5 455.37,-254.5 455.37,-224.5 348.37,-224.5"/>
<text text-anchor="start" x="356.37" y="-242.5" font-family="Helvetica,sans-Serif" font-size="10.00">math/factorization</text>
<text text-anchor="middle" x="401.87" y="-231.5" font-family="Helvetica,sans-Serif" font-size="10.00">/Factorize.h</text>
</a>
</g>
</g>
<!-- Node2&#45;&gt;Node3 -->
<g id="edge2" class="edge">
<title>Node2&#45;&gt;Node3</title>
<path fill="none" stroke="midnightblue" d="M318.76,-291.48C332.15,-283.27 352.86,-270.56 370.26,-259.88"/>
<polygon fill="midnightblue" stroke="midnightblue" points="372.31,-262.74 379,-254.52 368.65,-256.77 372.31,-262.74"/>
</g>
<!-- Node12 -->
<g id="node12" class="node">
<title>Node12</title>
<g id="a_node12"><a xlink:href="../../d0/d24/RelaxationMethods_8h.html" target="_top" xlink:title="This file contains the declaration of the RelaxationMethods namespace, which includes the Type enumer...">
<polygon fill="white" stroke="black" points="18.87,-224.5 18.87,-254.5 168.87,-254.5 168.87,-224.5 18.87,-224.5"/>
<text text-anchor="start" x="26.87" y="-242.5" font-family="Helvetica,sans-Serif" font-size="10.00">math/relaxation/Relaxation</text>
<text text-anchor="middle" x="93.87" y="-231.5" font-family="Helvetica,sans-Serif" font-size="10.00">Methods.h</text>
</a>
</g>
</g>
<!-- Node2&#45;&gt;Node12 -->
<g id="edge16" class="edge">
<title>Node2&#45;&gt;Node12</title>
<path fill="none" stroke="midnightblue" d="M274.63,-291.48C243.12,-282.59 192.91,-268.43 153.39,-257.29"/>
<polygon fill="midnightblue" stroke="midnightblue" points="154.17,-253.87 143.59,-254.52 152.27,-260.61 154.17,-253.87"/>
</g>
<!-- Node13 -->
<g id="node13" class="node">
<title>Node13</title>
<g id="a_node13"><a xlink:href="../../dc/d09/Stats_8h.html" target="_top" xlink:title="This file contains the declaration of statistical functions and structures for vectors and matrices.">
<polygon fill="white" stroke="black" points="186.87,-230 186.87,-249 260.87,-249 260.87,-230 186.87,-230"/>
<text text-anchor="middle" x="223.87" y="-237" font-family="Helvetica,sans-Serif" font-size="10.00">blas/Stats.h</text>
</a>
</g>
</g>
<!-- Node2&#45;&gt;Node13 -->
<g id="edge17" class="edge">
<title>Node2&#45;&gt;Node13</title>
<path fill="none" stroke="midnightblue" d="M293.26,-291.48C280.39,-282.02 259.39,-266.6 243.86,-255.19"/>
<polygon fill="midnightblue" stroke="midnightblue" points="245.58,-252.11 235.45,-249.01 241.44,-257.75 245.58,-252.11"/>
</g>
<!-- Node16 -->
<g id="node16" class="node">
<title>Node16</title>
<g id="a_node16"><a xlink:title=" ">
<polygon fill="white" stroke="#bfbfbf" points="279.37,-230 279.37,-249 330.37,-249 330.37,-230 279.37,-230"/>
<text text-anchor="middle" x="304.87" y="-237" font-family="Helvetica,sans-Serif" font-size="10.00">variant</text>
</a>
</g>
</g>
<!-- Node2&#45;&gt;Node16 -->
<g id="edge26" class="edge">
<title>Node2&#45;&gt;Node16</title>
<path fill="none" stroke="midnightblue" d="M304.87,-291.48C304.87,-283.08 304.87,-269.98 304.87,-259.16"/>
<polygon fill="midnightblue" stroke="midnightblue" points="308.37,-259.01 304.87,-249.01 301.37,-259.01 308.37,-259.01"/>
</g>
<!-- Node3&#45;&gt;Node4 -->
<g id="edge3" class="edge">
<title>Node3&#45;&gt;Node4</title>
<path fill="none" stroke="midnightblue" d="M404,-224.4C405.21,-216.38 406.75,-206.23 408.06,-197.57"/>
<polygon fill="midnightblue" stroke="midnightblue" points="411.52,-198.07 409.56,-187.66 404.6,-197.02 411.52,-198.07"/>
</g>
<!-- Node3&#45;&gt;Node6 -->
<g id="edge14" class="edge">
<title>Node3&#45;&gt;Node6</title>
<path fill="none" stroke="midnightblue" d="M373.66,-224.34C328.72,-201.77 241.49,-157.97 197.93,-136.09"/>
<polygon fill="midnightblue" stroke="midnightblue" points="199.34,-132.88 188.84,-131.52 196.2,-139.14 199.34,-132.88"/>
</g>
<!-- Node3&#45;&gt;Node10 -->
<g id="edge15" class="edge">
<title>Node3&#45;&gt;Node10</title>
<path fill="none" stroke="midnightblue" d="M433.14,-224.25C456.99,-211.24 483.73,-190.63 470.87,-168 442.09,-117.36 378.01,-91.04 331.78,-78.14"/>
<polygon fill="midnightblue" stroke="midnightblue" points="332.48,-74.71 321.92,-75.52 330.68,-81.47 332.48,-74.71"/>
</g>
<!-- Node5 -->
<g id="node5" class="node">
<title>Node5</title>
<g id="a_node5"><a xlink:title=" ">
<polygon fill="white" stroke="#bfbfbf" points="296.37,-112.5 296.37,-131.5 343.37,-131.5 343.37,-112.5 296.37,-112.5"/>
<text text-anchor="middle" x="319.87" y="-119.5" font-family="Helvetica,sans-Serif" font-size="10.00">cmath</text>
</a>
</g>
</g>
<!-- Node4&#45;&gt;Node5 -->
<g id="edge4" class="edge">
<title>Node4&#45;&gt;Node5</title>
<path fill="none" stroke="midnightblue" d="M396.25,-168.32C381.92,-159.82 359.85,-146.73 343.12,-136.8"/>
<polygon fill="midnightblue" stroke="midnightblue" points="344.84,-133.75 334.45,-131.65 341.26,-139.77 344.84,-133.75"/>
</g>
<!-- Node4&#45;&gt;Node6 -->
<g id="edge5" class="edge">
<title>Node4&#45;&gt;Node6</title>
<path fill="none" stroke="midnightblue" d="M373,-168.44C331.39,-159.04 264.5,-143.93 219.4,-133.74"/>
<polygon fill="midnightblue" stroke="midnightblue" points="220.08,-130.31 209.56,-131.52 218.54,-137.13 220.08,-130.31"/>
</g>
<!-- Node4&#45;&gt;Node10 -->
<g id="edge13" class="edge">
<title>Node4&#45;&gt;Node10</title>
<path fill="none" stroke="midnightblue" d="M404.28,-168.29C394.02,-155.1 373.2,-129.72 351.87,-112 337.3,-99.91 319.2,-88.72 304.66,-80.53"/>
<polygon fill="midnightblue" stroke="midnightblue" points="306.15,-77.35 295.7,-75.6 302.77,-83.49 306.15,-77.35"/>
</g>
<!-- Node7 -->
<g id="node7" class="node">
<title>Node7</title>
<g id="a_node7"><a xlink:title=" ">
<polygon fill="white" stroke="#bfbfbf" points="32.87,-56.5 32.87,-75.5 96.87,-75.5 96.87,-56.5 32.87,-56.5"/>
<text text-anchor="middle" x="64.87" y="-63.5" font-family="Helvetica,sans-Serif" font-size="10.00">algorithm</text>
</a>
</g>
</g>
<!-- Node6&#45;&gt;Node7 -->
<g id="edge6" class="edge">
<title>Node6&#45;&gt;Node7</title>
<path fill="none" stroke="midnightblue" d="M154.67,-112.32C137.51,-103.66 110.92,-90.24 91.12,-80.25"/>
<polygon fill="midnightblue" stroke="midnightblue" points="92.52,-77.04 82.01,-75.65 89.37,-83.28 92.52,-77.04"/>
</g>
<!-- Node8 -->
<g id="node8" class="node">
<title>Node8</title>
<g id="a_node8"><a xlink:title=" ">
<polygon fill="white" stroke="#bfbfbf" points="180.87,-0.5 180.87,-19.5 240.87,-19.5 240.87,-0.5 180.87,-0.5"/>
<text text-anchor="middle" x="210.87" y="-7.5" font-family="Helvetica,sans-Serif" font-size="10.00">iostream</text>
</a>
</g>
</g>
<!-- Node6&#45;&gt;Node8 -->
<g id="edge7" class="edge">
<title>Node6&#45;&gt;Node8</title>
<path fill="none" stroke="midnightblue" d="M174.93,-112.37C181.25,-94.54 195.87,-53.3 204.39,-29.27"/>
<polygon fill="midnightblue" stroke="midnightblue" points="207.78,-30.19 207.82,-19.59 201.18,-27.85 207.78,-30.19"/>
</g>
<!-- Node9 -->
<g id="node9" class="node">
<title>Node9</title>
<g id="a_node9"><a xlink:title=" ">
<polygon fill="white" stroke="#bfbfbf" points="115.37,-0.5 115.37,-19.5 162.37,-19.5 162.37,-0.5 115.37,-0.5"/>
<text text-anchor="middle" x="138.87" y="-7.5" font-family="Helvetica,sans-Serif" font-size="10.00">vector</text>
</a>
</g>
</g>
<!-- Node6&#45;&gt;Node9 -->
<g id="edge8" class="edge">
<title>Node6&#45;&gt;Node9</title>
<path fill="none" stroke="midnightblue" d="M169.28,-112.37C163.93,-94.54 151.55,-53.3 144.35,-29.27"/>
<polygon fill="midnightblue" stroke="midnightblue" points="147.67,-28.16 141.44,-19.59 140.96,-30.18 147.67,-28.16"/>
</g>
<!-- Node6&#45;&gt;Node10 -->
<g id="edge9" class="edge">
<title>Node6&#45;&gt;Node10</title>
<path fill="none" stroke="midnightblue" d="M189.06,-112.32C206.22,-103.66 232.81,-90.24 252.61,-80.25"/>
<polygon fill="midnightblue" stroke="midnightblue" points="254.37,-83.28 261.72,-75.65 251.21,-77.04 254.37,-83.28"/>
</g>
<!-- Node10&#45;&gt;Node8 -->
<g id="edge11" class="edge">
<title>Node10&#45;&gt;Node8</title>
<path fill="none" stroke="midnightblue" d="M267.94,-56.32C257.69,-48.18 242.15,-35.84 229.86,-26.09"/>
<polygon fill="midnightblue" stroke="midnightblue" points="232,-23.31 221.99,-19.83 227.64,-28.79 232,-23.31"/>
</g>
<!-- Node10&#45;&gt;Node9 -->
<g id="edge12" class="edge">
<title>Node10&#45;&gt;Node9</title>
<path fill="none" stroke="midnightblue" d="M256.68,-56.44C233.44,-47.48 196.72,-33.31 170.45,-23.18"/>
<polygon fill="midnightblue" stroke="midnightblue" points="171.54,-19.85 160.95,-19.52 169.02,-26.38 171.54,-19.85"/>
</g>
<!-- Node11 -->
<g id="node11" class="node">
<title>Node11</title>
<g id="a_node11"><a xlink:title=" ">
<polygon fill="white" stroke="#bfbfbf" points="258.87,-0.5 258.87,-19.5 314.87,-19.5 314.87,-0.5 258.87,-0.5"/>
<text text-anchor="middle" x="286.87" y="-7.5" font-family="Helvetica,sans-Serif" font-size="10.00">iomanip</text>
</a>
</g>
</g>
<!-- Node10&#45;&gt;Node11 -->
<g id="edge10" class="edge">
<title>Node10&#45;&gt;Node11</title>
<path fill="none" stroke="midnightblue" d="M280.19,-56.08C281.25,-48.93 282.77,-38.64 284.1,-29.69"/>
<polygon fill="midnightblue" stroke="midnightblue" points="287.57,-30.16 285.57,-19.75 280.64,-29.13 287.57,-30.16"/>
</g>
<!-- Node13&#45;&gt;Node4 -->
<g id="edge23" class="edge">
<title>Node13&#45;&gt;Node4</title>
<path fill="none" stroke="midnightblue" d="M250.66,-229.98C283.15,-219.64 338.07,-202.16 374.4,-190.6"/>
<polygon fill="midnightblue" stroke="midnightblue" points="375.65,-193.88 384.12,-187.51 373.53,-187.21 375.65,-193.88"/>
</g>
<!-- Node13&#45;&gt;Node5 -->
<g id="edge19" class="edge">
<title>Node13&#45;&gt;Node5</title>
<path fill="none" stroke="midnightblue" d="M232,-229.71C241.15,-219.75 256.36,-202.95 268.87,-188 282.33,-171.91 297.05,-152.99 307.2,-139.72"/>
<polygon fill="midnightblue" stroke="midnightblue" points="310.16,-141.62 313.43,-131.55 304.59,-137.38 310.16,-141.62"/>
</g>
<!-- Node13&#45;&gt;Node6 -->
<g id="edge24" class="edge">
<title>Node13&#45;&gt;Node6</title>
<path fill="none" stroke="midnightblue" d="M220.93,-229.65C216.34,-216.13 206.95,-189.62 196.87,-168 192.52,-158.69 187.04,-148.66 182.31,-140.44"/>
<polygon fill="midnightblue" stroke="midnightblue" points="185.3,-138.63 177.23,-131.77 179.27,-142.17 185.3,-138.63"/>
</g>
<!-- Node13&#45;&gt;Node7 -->
<g id="edge18" class="edge">
<title>Node13&#45;&gt;Node7</title>
<path fill="none" stroke="midnightblue" d="M197.16,-229.91C190.85,-227.92 184.13,-225.85 177.87,-224 120.38,-206.99 84.16,-235.72 47.87,-188 24.74,-157.59 42.56,-110.09 55.17,-84.59"/>
<polygon fill="midnightblue" stroke="midnightblue" points="58.29,-86.17 59.8,-75.69 52.08,-82.94 58.29,-86.17"/>
</g>
<!-- Node13&#45;&gt;Node9 -->
<g id="edge22" class="edge">
<title>Node13&#45;&gt;Node9</title>
<path fill="none" stroke="midnightblue" d="M197.67,-229.96C191.22,-227.93 184.31,-225.83 177.87,-224 115.24,-206.21 78.53,-237.18 35.87,-188 -2.74,-143.5 -9.34,-104.66 23.87,-56 41.9,-29.58 77.97,-18.67 104.93,-14.17"/>
<polygon fill="midnightblue" stroke="midnightblue" points="105.73,-17.59 115.13,-12.69 104.73,-10.66 105.73,-17.59"/>
</g>
<!-- Node13&#45;&gt;Node10 -->
<g id="edge25" class="edge">
<title>Node13&#45;&gt;Node10</title>
<path fill="none" stroke="midnightblue" d="M226.67,-229.76C235.24,-203.04 261.22,-122.02 272.98,-85.36"/>
<polygon fill="midnightblue" stroke="midnightblue" points="276.41,-86.11 276.13,-75.52 269.75,-83.97 276.41,-86.11"/>
</g>
<!-- Node14 -->
<g id="node14" class="node">
<title>Node14</title>
<g id="a_node14"><a xlink:title=" ">
<polygon fill="white" stroke="#bfbfbf" points="56.87,-168.5 56.87,-187.5 112.87,-187.5 112.87,-168.5 56.87,-168.5"/>
<text text-anchor="middle" x="84.87" y="-175.5" font-family="Helvetica,sans-Serif" font-size="10.00">numeric</text>
</a>
</g>
</g>
<!-- Node13&#45;&gt;Node14 -->
<g id="edge20" class="edge">
<title>Node13&#45;&gt;Node14</title>
<path fill="none" stroke="midnightblue" d="M203.95,-229.98C180.42,-219.9 141.06,-203.05 114.07,-191.5"/>
<polygon fill="midnightblue" stroke="midnightblue" points="115.31,-188.23 104.74,-187.51 112.56,-194.66 115.31,-188.23"/>
</g>
<!-- Node15 -->
<g id="node15" class="node">
<title>Node15</title>
<g id="a_node15"><a xlink:title=" ">
<polygon fill="white" stroke="#bfbfbf" points="131.37,-168.5 131.37,-187.5 188.37,-187.5 188.37,-168.5 131.37,-168.5"/>
<text text-anchor="middle" x="159.87" y="-175.5" font-family="Helvetica,sans-Serif" font-size="10.00">ostream</text>
</a>
</g>
</g>
<!-- Node13&#45;&gt;Node15 -->
<g id="edge21" class="edge">
<title>Node13&#45;&gt;Node15</title>
<path fill="none" stroke="midnightblue" d="M214.7,-229.98C204.72,-220.7 188.55,-205.67 176.36,-194.33"/>
<polygon fill="midnightblue" stroke="midnightblue" points="178.73,-191.75 169.02,-187.51 173.96,-196.88 178.73,-191.75"/>
</g>
<!-- Node18 -->
<g id="node18" class="node">
<title>Node18</title>
<g id="a_node18"><a xlink:title=" ">
<polygon fill="white" stroke="#bfbfbf" points="762.87,-224.5 762.87,-254.5 878.87,-254.5 878.87,-224.5 762.87,-224.5"/>
<text text-anchor="start" x="770.87" y="-242.5" font-family="Helvetica,sans-Serif" font-size="10.00">boost/numeric/ublas</text>
<text text-anchor="middle" x="820.87" y="-231.5" font-family="Helvetica,sans-Serif" font-size="10.00">/io.hpp</text>
</a>
</g>
</g>
<!-- Node17&#45;&gt;Node18 -->
<g id="edge30" class="edge">
<title>Node17&#45;&gt;Node18</title>
<path fill="none" stroke="midnightblue" d="M688.07,-291.48C710.64,-282.81 746.24,-269.15 774.91,-258.14"/>
<polygon fill="midnightblue" stroke="midnightblue" points="776.25,-261.37 784.34,-254.52 773.75,-254.84 776.25,-261.37"/>
</g>
<!-- Node19 -->
<g id="node19" class="node">
<title>Node19</title>
<g id="a_node19"><a xlink:title=" ">
<polygon fill="white" stroke="#bfbfbf" points="556.87,-224.5 556.87,-254.5 672.87,-254.5 672.87,-224.5 556.87,-224.5"/>
<text text-anchor="start" x="564.87" y="-242.5" font-family="Helvetica,sans-Serif" font-size="10.00">boost/numeric/ublas</text>
<text text-anchor="middle" x="614.87" y="-231.5" font-family="Helvetica,sans-Serif" font-size="10.00">/matrix.hpp</text>
</a>
</g>
</g>
<!-- Node17&#45;&gt;Node19 -->
<g id="edge31" class="edge">
<title>Node17&#45;&gt;Node19</title>
<path fill="none" stroke="midnightblue" d="M658.56,-291.48C652.04,-283.87 642.21,-272.4 633.52,-262.26"/>
<polygon fill="midnightblue" stroke="midnightblue" points="636.05,-259.84 626.89,-254.52 630.74,-264.39 636.05,-259.84"/>
</g>
<!-- Node20 -->
<g id="node20" class="node">
<title>Node20</title>
<g id="a_node20"><a xlink:title=" ">
<polygon fill="white" stroke="#bfbfbf" points="690.87,-230 690.87,-249 744.87,-249 744.87,-230 690.87,-230"/>
<text text-anchor="middle" x="717.87" y="-237" font-family="Helvetica,sans-Serif" font-size="10.00">random</text>
</a>
</g>
</g>
<!-- Node17&#45;&gt;Node20 -->
<g id="edge32" class="edge">
<title>Node17&#45;&gt;Node20</title>
<path fill="none" stroke="midnightblue" d="M673.32,-291.48C681.19,-282.46 693.81,-268.02 703.61,-256.81"/>
<polygon fill="midnightblue" stroke="midnightblue" points="706.48,-258.84 710.43,-249.01 701.21,-254.24 706.48,-258.84"/>
</g>
</g>
</svg>
