<?xml version="1.0" encoding="UTF-8" standalone="no"?>
<!DOCTYPE svg PUBLIC "-//W3C//DTD SVG 1.1//EN"
 "http://www.w3.org/Graphics/SVG/1.1/DTD/svg11.dtd">
<!-- Generated by graphviz version 2.43.0 (0)
 -->
<!-- Title: src/utils/math/blas/matrix/LazyMatrix.h Pages: 1 -->
<svg width="1274pt" height="352pt"
 viewBox="0.00 0.00 1273.78 352.00" xmlns="http://www.w3.org/2000/svg" xmlns:xlink="http://www.w3.org/1999/xlink">
<g id="graph0" class="graph" transform="scale(1 1) rotate(0) translate(4 348)">
<title>src/utils/math/blas/matrix/LazyMatrix.h</title>
<polygon fill="white" stroke="transparent" points="-4,4 -4,-348 1269.78,-348 1269.78,4 -4,4"/>
<!-- Node1 -->
<g id="node1" class="node">
<title>Node1</title>
<g id="a_node1"><a xlink:title="Header file for the LazyMatrix class.">
<polygon fill="#bfbfbf" stroke="black" points="552.28,-313.5 552.28,-343.5 670.28,-343.5 670.28,-313.5 552.28,-313.5"/>
<text text-anchor="start" x="560.28" y="-331.5" font-family="Helvetica,sans-Serif" font-size="10.00">src/utils/math/blas</text>
<text text-anchor="middle" x="611.28" y="-320.5" font-family="Helvetica,sans-Serif" font-size="10.00">/matrix/LazyMatrix.h</text>
</a>
</g>
</g>
<!-- Node2 -->
<g id="node2" class="node">
<title>Node2</title>
<g id="a_node2"><a xlink:title=" ">
<polygon fill="white" stroke="#bfbfbf" points="362.28,-62 362.28,-81 426.28,-81 426.28,-62 362.28,-62"/>
<text text-anchor="middle" x="394.28" y="-69" font-family="Helvetica,sans-Serif" font-size="10.00">algorithm</text>
</a>
</g>
</g>
<!-- Node1&#45;&gt;Node2 -->
<g id="edge1" class="edge">
<title>Node1&#45;&gt;Node2</title>
<path fill="none" stroke="midnightblue" d="M552.09,-320.73C442.56,-306.84 215.24,-271.18 169.28,-210 115.86,-138.89 273.1,-96.52 352.03,-80.22"/>
<polygon fill="midnightblue" stroke="midnightblue" points="353.05,-83.59 362.16,-78.19 351.67,-76.73 353.05,-83.59"/>
</g>
<!-- Node3 -->
<g id="node3" class="node">
<title>Node3</title>
<g id="a_node3"><a xlink:title=" ">
<polygon fill="white" stroke="#bfbfbf" points="733.78,-0.5 733.78,-19.5 786.78,-19.5 786.78,-0.5 733.78,-0.5"/>
<text text-anchor="middle" x="760.28" y="-7.5" font-family="Helvetica,sans-Serif" font-size="10.00">cstddef</text>
</a>
</g>
</g>
<!-- Node1&#45;&gt;Node3 -->
<g id="edge2" class="edge">
<title>Node1&#45;&gt;Node3</title>
<path fill="none" stroke="midnightblue" d="M552.27,-326.32C410.75,-322.97 60.85,-311.25 21.28,-277 -6.84,-252.66 2.28,-232.69 2.28,-195.5 2.28,-195.5 2.28,-195.5 2.28,-132 2.28,-29.81 119.34,-77.3 219.28,-56 405.96,-16.22 635.85,-11.22 723.75,-10.86"/>
<polygon fill="midnightblue" stroke="midnightblue" points="723.76,-14.36 733.76,-10.84 723.75,-7.36 723.76,-14.36"/>
</g>
<!-- Node4 -->
<g id="node4" class="node">
<title>Node4</title>
<g id="a_node4"><a xlink:title=" ">
<polygon fill="white" stroke="#bfbfbf" points="788.78,-62 788.78,-81 853.78,-81 853.78,-62 788.78,-62"/>
<text text-anchor="middle" x="821.28" y="-69" font-family="Helvetica,sans-Serif" font-size="10.00">functional</text>
</a>
</g>
</g>
<!-- Node1&#45;&gt;Node4 -->
<g id="edge3" class="edge">
<title>Node1&#45;&gt;Node4</title>
<path fill="none" stroke="midnightblue" d="M666.69,-313.43C722.39,-296.82 807.74,-264.36 863.28,-210 892.83,-181.07 915.71,-159.51 896.28,-123 887.22,-105.97 869.57,-93.66 853.68,-85.45"/>
<polygon fill="midnightblue" stroke="midnightblue" points="855.12,-82.26 844.6,-81.09 852.09,-88.57 855.12,-82.26"/>
</g>
<!-- Node5 -->
<g id="node5" class="node">
<title>Node5</title>
<g id="a_node5"><a xlink:title=" ">
<polygon fill="white" stroke="#bfbfbf" points="1038.28,-62 1038.28,-81 1096.28,-81 1096.28,-62 1038.28,-62"/>
<text text-anchor="middle" x="1067.28" y="-69" font-family="Helvetica,sans-Serif" font-size="10.00">memory</text>
</a>
</g>
</g>
<!-- Node1&#45;&gt;Node5 -->
<g id="edge4" class="edge">
<title>Node1&#45;&gt;Node5</title>
<path fill="none" stroke="midnightblue" d="M670.44,-325.68C761.19,-321.84 929.4,-310.34 978.28,-277 1042.31,-233.32 1060.62,-132.91 1065.56,-91.2"/>
<polygon fill="midnightblue" stroke="midnightblue" points="1069.06,-91.4 1066.63,-81.09 1062.1,-90.66 1069.06,-91.4"/>
</g>
<!-- Node6 -->
<g id="node6" class="node">
<title>Node6</title>
<g id="a_node6"><a xlink:href="../../d6/db1/ContainerExpression_8h.html" target="_top" xlink:title="Header file for the ContainerExpression class.">
<polygon fill="white" stroke="black" points="1114.78,-56.5 1114.78,-86.5 1265.78,-86.5 1265.78,-56.5 1114.78,-56.5"/>
<text text-anchor="start" x="1122.78" y="-74.5" font-family="Helvetica,sans-Serif" font-size="10.00">math/blas/matrix/Container</text>
<text text-anchor="middle" x="1190.28" y="-63.5" font-family="Helvetica,sans-Serif" font-size="10.00">Expression.h</text>
</a>
</g>
</g>
<!-- Node1&#45;&gt;Node6 -->
<g id="edge5" class="edge">
<title>Node1&#45;&gt;Node6</title>
<path fill="none" stroke="midnightblue" d="M670.34,-325C766.05,-320.13 950.07,-307.06 1007.28,-277 1089.01,-234.05 1151.86,-138.95 1177.59,-95.26"/>
<polygon fill="midnightblue" stroke="midnightblue" points="1180.67,-96.92 1182.64,-86.51 1174.61,-93.42 1180.67,-96.92"/>
</g>
<!-- Node7 -->
<g id="node7" class="node">
<title>Node7</title>
<g id="a_node7"><a xlink:href="../../df/df0/ElementwiseExpression_8h.html" target="_top" xlink:title="This file defines a class for performing element&#45;wise operations on two containers.">
<polygon fill="white" stroke="black" points="177.78,-179.5 177.78,-209.5 344.78,-209.5 344.78,-179.5 177.78,-179.5"/>
<text text-anchor="start" x="185.78" y="-197.5" font-family="Helvetica,sans-Serif" font-size="10.00">math/blas/matrix/Elementwise</text>
<text text-anchor="middle" x="261.28" y="-186.5" font-family="Helvetica,sans-Serif" font-size="10.00">Expression.h</text>
</a>
</g>
</g>
<!-- Node1&#45;&gt;Node7 -->
<g id="edge7" class="edge">
<title>Node1&#45;&gt;Node7</title>
<path fill="none" stroke="midnightblue" d="M574.16,-313.5C509.97,-289.29 378.39,-239.67 308.06,-213.14"/>
<polygon fill="midnightblue" stroke="midnightblue" points="309.14,-209.81 298.55,-209.56 306.67,-216.36 309.14,-209.81"/>
</g>
<!-- Node9 -->
<g id="node9" class="node">
<title>Node9</title>
<g id="a_node9"><a xlink:href="../../d3/db1/Matrix_8h.html" target="_top" xlink:title="Header file for the MyBLAS::Matrix class.">
<polygon fill="white" stroke="black" points="539.28,-252 539.28,-271 683.28,-271 683.28,-252 539.28,-252"/>
<text text-anchor="middle" x="611.28" y="-259" font-family="Helvetica,sans-Serif" font-size="10.00">math/blas/matrix/Matrix.h</text>
</a>
</g>
</g>
<!-- Node1&#45;&gt;Node9 -->
<g id="edge10" class="edge">
<title>Node1&#45;&gt;Node9</title>
<path fill="none" stroke="midnightblue" d="M611.28,-313.4C611.28,-304.06 611.28,-291.71 611.28,-281.52"/>
<polygon fill="midnightblue" stroke="midnightblue" points="614.78,-281.19 611.28,-271.19 607.78,-281.19 614.78,-281.19"/>
</g>
<!-- Node16 -->
<g id="node16" class="node">
<title>Node16</title>
<g id="a_node16"><a xlink:href="../../de/dcb/LazyVector_8h.html" target="_top" xlink:title="Header file for the LazyVector class.">
<polygon fill="white" stroke="black" points="966.28,-123.5 966.28,-142.5 1044.28,-142.5 1044.28,-123.5 966.28,-123.5"/>
<text text-anchor="middle" x="1005.28" y="-130.5" font-family="Helvetica,sans-Serif" font-size="10.00">LazyVector.h</text>
</a>
</g>
</g>
<!-- Node1&#45;&gt;Node16 -->
<g id="edge38" class="edge">
<title>Node1&#45;&gt;Node16</title>
<path fill="none" stroke="midnightblue" d="M670.39,-325.85C756.32,-322.3 910.1,-311.21 952.28,-277 990.57,-245.94 1001.2,-184.41 1004.15,-153.16"/>
<polygon fill="midnightblue" stroke="midnightblue" points="1007.67,-153.04 1004.94,-142.8 1000.69,-152.5 1007.67,-153.04"/>
</g>
<!-- Node20 -->
<g id="node20" class="node">
<title>Node20</title>
<g id="a_node20"><a xlink:href="../../d2/dc6/MatrixVectorExpression_8h.html" target="_top" xlink:title="Header file for the MatrixVectorExpression class.">
<polygon fill="white" stroke="black" points="30.28,-246.5 30.28,-276.5 194.28,-276.5 194.28,-246.5 30.28,-246.5"/>
<text text-anchor="start" x="38.28" y="-264.5" font-family="Helvetica,sans-Serif" font-size="10.00">math/blas/vector/MatrixVector</text>
<text text-anchor="middle" x="112.28" y="-253.5" font-family="Helvetica,sans-Serif" font-size="10.00">Expression.h</text>
</a>
</g>
</g>
<!-- Node1&#45;&gt;Node20 -->
<g id="edge39" class="edge">
<title>Node1&#45;&gt;Node20</title>
<path fill="none" stroke="midnightblue" d="M552.15,-320.56C473.54,-311.24 330.34,-293.86 208.28,-277 207.01,-276.82 205.73,-276.65 204.45,-276.47"/>
<polygon fill="midnightblue" stroke="midnightblue" points="204.87,-272.99 194.48,-275.06 203.89,-279.92 204.87,-272.99"/>
</g>
<!-- Node6&#45;&gt;Node3 -->
<g id="edge6" class="edge">
<title>Node6&#45;&gt;Node3</title>
<path fill="none" stroke="midnightblue" d="M1114.76,-57.46C1111.56,-56.96 1108.39,-56.47 1105.28,-56 993.48,-39.18 860.74,-22.9 797.44,-15.36"/>
<polygon fill="midnightblue" stroke="midnightblue" points="797.51,-11.85 787.17,-14.14 796.69,-18.8 797.51,-11.85"/>
</g>
<!-- Node7&#45;&gt;Node3 -->
<g id="edge9" class="edge">
<title>Node7&#45;&gt;Node3</title>
<path fill="none" stroke="midnightblue" d="M266.14,-179.2C276.79,-150.29 305.16,-85.21 353.28,-56 415.11,-18.47 635.78,-12.17 723.72,-11.17"/>
<polygon fill="midnightblue" stroke="midnightblue" points="723.8,-14.67 733.77,-11.07 723.74,-7.67 723.8,-14.67"/>
</g>
<!-- Node8 -->
<g id="node8" class="node">
<title>Node8</title>
<g id="a_node8"><a xlink:title=" ">
<polygon fill="white" stroke="#bfbfbf" points="400.28,-123.5 400.28,-142.5 452.28,-142.5 452.28,-123.5 400.28,-123.5"/>
<text text-anchor="middle" x="426.28" y="-130.5" font-family="Helvetica,sans-Serif" font-size="10.00">cassert</text>
</a>
</g>
</g>
<!-- Node7&#45;&gt;Node8 -->
<g id="edge8" class="edge">
<title>Node7&#45;&gt;Node8</title>
<path fill="none" stroke="midnightblue" d="M300.38,-179.4C328.44,-169.28 365.85,-155.79 392.59,-146.15"/>
<polygon fill="midnightblue" stroke="midnightblue" points="394.05,-149.34 402.27,-142.66 391.68,-142.76 394.05,-149.34"/>
</g>
<!-- Node9&#45;&gt;Node2 -->
<g id="edge11" class="edge">
<title>Node9&#45;&gt;Node2</title>
<path fill="none" stroke="midnightblue" d="M539.12,-258.41C497.89,-253.58 447.87,-241.02 414.28,-210 381.43,-179.67 385.66,-121.2 390.5,-91.22"/>
<polygon fill="midnightblue" stroke="midnightblue" points="393.97,-91.71 392.31,-81.24 387.08,-90.46 393.97,-91.71"/>
</g>
<!-- Node9&#45;&gt;Node8 -->
<g id="edge12" class="edge">
<title>Node9&#45;&gt;Node8</title>
<path fill="none" stroke="midnightblue" d="M553.23,-251.94C506.01,-243.68 444.75,-229.54 429.28,-210 416.5,-193.87 418.17,-169.21 421.43,-152.38"/>
<polygon fill="midnightblue" stroke="midnightblue" points="424.85,-153.16 423.67,-142.63 418.02,-151.59 424.85,-153.16"/>
</g>
<!-- Node10 -->
<g id="node10" class="node">
<title>Node10</title>
<g id="a_node10"><a xlink:title=" ">
<polygon fill="white" stroke="#bfbfbf" points="508.28,-123.5 508.28,-142.5 568.28,-142.5 568.28,-123.5 508.28,-123.5"/>
<text text-anchor="middle" x="538.28" y="-130.5" font-family="Helvetica,sans-Serif" font-size="10.00">iostream</text>
</a>
</g>
</g>
<!-- Node9&#45;&gt;Node10 -->
<g id="edge13" class="edge">
<title>Node9&#45;&gt;Node10</title>
<path fill="none" stroke="midnightblue" d="M613.1,-251.94C615.94,-236.27 619.82,-202.45 606.28,-179 598.17,-164.96 583.7,-154.47 570.19,-147.17"/>
<polygon fill="midnightblue" stroke="midnightblue" points="571.58,-143.96 561.07,-142.62 568.46,-150.22 571.58,-143.96"/>
</g>
<!-- Node11 -->
<g id="node11" class="node">
<title>Node11</title>
<g id="a_node11"><a xlink:title=" ">
<polygon fill="white" stroke="#bfbfbf" points="586.78,-123.5 586.78,-142.5 633.78,-142.5 633.78,-123.5 586.78,-123.5"/>
<text text-anchor="middle" x="610.28" y="-130.5" font-family="Helvetica,sans-Serif" font-size="10.00">vector</text>
</a>
</g>
</g>
<!-- Node9&#45;&gt;Node11 -->
<g id="edge14" class="edge">
<title>Node9&#45;&gt;Node11</title>
<path fill="none" stroke="midnightblue" d="M619.1,-252C627.21,-242.56 639.38,-226.46 644.28,-210 648.21,-196.8 648.66,-192.06 644.28,-179 640.68,-168.25 633.38,-158.02 626.46,-150.04"/>
<polygon fill="midnightblue" stroke="midnightblue" points="628.93,-147.56 619.57,-142.61 623.8,-152.32 628.93,-147.56"/>
</g>
<!-- Node12 -->
<g id="node12" class="node">
<title>Node12</title>
<g id="a_node12"><a xlink:title=" ">
<polygon fill="white" stroke="#bfbfbf" points="486.28,-62 486.28,-81 572.28,-81 572.28,-62 486.28,-62"/>
<text text-anchor="middle" x="529.28" y="-69" font-family="Helvetica,sans-Serif" font-size="10.00">unordered_set</text>
</a>
</g>
</g>
<!-- Node9&#45;&gt;Node12 -->
<g id="edge15" class="edge">
<title>Node9&#45;&gt;Node12</title>
<path fill="none" stroke="midnightblue" d="M609.28,-251.77C605.16,-235.53 594.3,-200.37 573.28,-179 547.63,-152.93 518.68,-174.01 499.28,-143 488.43,-125.65 501.45,-103.7 513.57,-88.94"/>
<polygon fill="midnightblue" stroke="midnightblue" points="516.43,-90.99 520.42,-81.17 511.18,-86.36 516.43,-90.99"/>
</g>
<!-- Node13 -->
<g id="node13" class="node">
<title>Node13</title>
<g id="a_node13"><a xlink:href="../../d1/d45/Constants_8h.html" target="_top" xlink:title="MyBLAS Constants definition.">
<polygon fill="white" stroke="black" points="438.28,-185 438.28,-204 564.28,-204 564.28,-185 438.28,-185"/>
<text text-anchor="middle" x="501.28" y="-192" font-family="Helvetica,sans-Serif" font-size="10.00">math/blas/Constants.h</text>
</a>
</g>
</g>
<!-- Node9&#45;&gt;Node13 -->
<g id="edge16" class="edge">
<title>Node9&#45;&gt;Node13</title>
<path fill="none" stroke="midnightblue" d="M596.44,-251.73C577.97,-240.82 546.21,-222.05 524.5,-209.22"/>
<polygon fill="midnightblue" stroke="midnightblue" points="526.27,-206.2 515.88,-204.13 522.71,-212.23 526.27,-206.2"/>
</g>
<!-- Node14 -->
<g id="node14" class="node">
<title>Node14</title>
<g id="a_node14"><a xlink:href="../../d6/dbe/Vector_8h.html" target="_top" xlink:title="Header file for the MyBLAS::Vector class.">
<polygon fill="white" stroke="black" points="696.78,-185 696.78,-204 837.78,-204 837.78,-185 696.78,-185"/>
<text text-anchor="middle" x="767.28" y="-192" font-family="Helvetica,sans-Serif" font-size="10.00">math/blas/vector/Vector.h</text>
</a>
</g>
</g>
<!-- Node9&#45;&gt;Node14 -->
<g id="edge17" class="edge">
<title>Node9&#45;&gt;Node14</title>
<path fill="none" stroke="midnightblue" d="M632,-251.87C658.92,-240.65 706.14,-220.98 737.06,-208.09"/>
<polygon fill="midnightblue" stroke="midnightblue" points="738.59,-211.24 746.48,-204.17 735.9,-204.78 738.59,-211.24"/>
</g>
<!-- Node18 -->
<g id="node18" class="node">
<title>Node18</title>
<g id="a_node18"><a xlink:href="../../dc/dc5/ResourceMonitor_8h.html" target="_top" xlink:title="Header file for the ResourceMonitor class.">
<polygon fill="white" stroke="black" points="726.78,-123.5 726.78,-142.5 871.78,-142.5 871.78,-123.5 726.78,-123.5"/>
<text text-anchor="middle" x="799.28" y="-130.5" font-family="Helvetica,sans-Serif" font-size="10.00">profiler/ResourceMonitor.h</text>
</a>
</g>
</g>
<!-- Node9&#45;&gt;Node18 -->
<g id="edge37" class="edge">
<title>Node9&#45;&gt;Node18</title>
<path fill="none" stroke="midnightblue" d="M683.56,-254.85C745.18,-248.35 826.93,-235.17 847.28,-210 863.34,-190.14 839.26,-164.62 819.79,-148.79"/>
<polygon fill="midnightblue" stroke="midnightblue" points="821.91,-146 811.86,-142.64 817.62,-151.53 821.91,-146"/>
</g>
<!-- Node14&#45;&gt;Node4 -->
<g id="edge19" class="edge">
<title>Node14&#45;&gt;Node4</title>
<path fill="none" stroke="midnightblue" d="M815.57,-184.93C839.65,-177.95 866.7,-165.41 881.28,-143 895.15,-121.69 868.96,-99.79 846.93,-86.17"/>
<polygon fill="midnightblue" stroke="midnightblue" points="848.57,-83.08 838.18,-81.04 845.03,-89.12 848.57,-83.08"/>
</g>
<!-- Node14&#45;&gt;Node8 -->
<g id="edge18" class="edge">
<title>Node14&#45;&gt;Node8</title>
<path fill="none" stroke="midnightblue" d="M718.42,-184.98C649.14,-172.89 523.93,-151.04 462.4,-140.3"/>
<polygon fill="midnightblue" stroke="midnightblue" points="462.83,-136.83 452.38,-138.55 461.63,-143.72 462.83,-136.83"/>
</g>
<!-- Node14&#45;&gt;Node10 -->
<g id="edge21" class="edge">
<title>Node14&#45;&gt;Node10</title>
<path fill="none" stroke="midnightblue" d="M734.47,-184.98C693.28,-174.27 622.66,-155.92 578.33,-144.41"/>
<polygon fill="midnightblue" stroke="midnightblue" points="579.03,-140.97 568.47,-141.85 577.27,-147.75 579.03,-140.97"/>
</g>
<!-- Node14&#45;&gt;Node11 -->
<g id="edge22" class="edge">
<title>Node14&#45;&gt;Node11</title>
<path fill="none" stroke="midnightblue" d="M744.79,-184.98C717.97,-174.81 672.96,-157.76 642.47,-146.2"/>
<polygon fill="midnightblue" stroke="midnightblue" points="643.32,-142.78 632.73,-142.51 640.84,-149.33 643.32,-142.78"/>
</g>
<!-- Node15 -->
<g id="node15" class="node">
<title>Node15</title>
<g id="a_node15"><a xlink:title=" ">
<polygon fill="white" stroke="#bfbfbf" points="652.28,-123.5 652.28,-142.5 708.28,-142.5 708.28,-123.5 652.28,-123.5"/>
<text text-anchor="middle" x="680.28" y="-130.5" font-family="Helvetica,sans-Serif" font-size="10.00">iomanip</text>
</a>
</g>
</g>
<!-- Node14&#45;&gt;Node15 -->
<g id="edge20" class="edge">
<title>Node14&#45;&gt;Node15</title>
<path fill="none" stroke="midnightblue" d="M754.81,-184.98C740.86,-175.43 718.01,-159.81 701.29,-148.37"/>
<polygon fill="midnightblue" stroke="midnightblue" points="702.95,-145.27 692.72,-142.51 699,-151.04 702.95,-145.27"/>
</g>
<!-- Node14&#45;&gt;Node16 -->
<g id="edge23" class="edge">
<title>Node14&#45;&gt;Node16</title>
<path fill="none" stroke="midnightblue" d="M796.48,-184.98C836.41,-174.42 908.28,-156.41 956.45,-144.87"/>
<polygon fill="midnightblue" stroke="midnightblue" points="957.43,-148.23 966.35,-142.51 955.81,-141.42 957.43,-148.23"/>
</g>
<!-- Node14&#45;&gt;Node18 -->
<g id="edge32" class="edge">
<title>Node14&#45;&gt;Node18</title>
<path fill="none" stroke="midnightblue" d="M771.86,-184.98C776.52,-176.32 783.87,-162.65 789.79,-151.65"/>
<polygon fill="midnightblue" stroke="midnightblue" points="793.05,-152.97 794.7,-142.51 786.88,-149.66 793.05,-152.97"/>
</g>
<!-- Node16&#45;&gt;Node2 -->
<g id="edge24" class="edge">
<title>Node16&#45;&gt;Node2</title>
<path fill="none" stroke="midnightblue" d="M966.18,-129.12C860.73,-121.27 572.05,-99.29 477.28,-87 464,-85.28 449.61,-82.93 436.59,-80.63"/>
<polygon fill="midnightblue" stroke="midnightblue" points="436.96,-77.14 426.5,-78.81 435.72,-84.03 436.96,-77.14"/>
</g>
<!-- Node16&#45;&gt;Node3 -->
<g id="edge25" class="edge">
<title>Node16&#45;&gt;Node3</title>
<path fill="none" stroke="midnightblue" d="M1006.52,-123.31C1008.23,-107.55 1009.31,-74.21 991.28,-56 964.63,-29.07 855.36,-17.54 797.16,-13.23"/>
<polygon fill="midnightblue" stroke="midnightblue" points="797.14,-9.72 786.92,-12.51 796.65,-16.71 797.14,-9.72"/>
</g>
<!-- Node16&#45;&gt;Node4 -->
<g id="edge26" class="edge">
<title>Node16&#45;&gt;Node4</title>
<path fill="none" stroke="midnightblue" d="M977.73,-123.5C949.07,-114.6 902.93,-100.12 863.28,-87 860.69,-86.14 858.02,-85.25 855.33,-84.34"/>
<polygon fill="midnightblue" stroke="midnightblue" points="856.27,-80.96 845.67,-81.04 854.01,-87.58 856.27,-80.96"/>
</g>
<!-- Node16&#45;&gt;Node5 -->
<g id="edge27" class="edge">
<title>Node16&#45;&gt;Node5</title>
<path fill="none" stroke="midnightblue" d="M1014.16,-123.48C1023.74,-114.28 1039.19,-99.46 1050.97,-88.16"/>
<polygon fill="midnightblue" stroke="midnightblue" points="1053.62,-90.46 1058.41,-81.01 1048.77,-85.41 1053.62,-90.46"/>
</g>
<!-- Node16&#45;&gt;Node6 -->
<g id="edge31" class="edge">
<title>Node16&#45;&gt;Node6</title>
<path fill="none" stroke="midnightblue" d="M1031.79,-123.48C1059.07,-114.7 1102.33,-100.79 1136.76,-89.71"/>
<polygon fill="midnightblue" stroke="midnightblue" points="1138.23,-92.92 1146.68,-86.52 1136.09,-86.25 1138.23,-92.92"/>
</g>
<!-- Node16&#45;&gt;Node14 -->
<g id="edge28" class="edge">
<title>Node16&#45;&gt;Node14</title>
<path fill="none" stroke="midnightblue" d="M976.14,-142.51C936.24,-153.06 864.38,-171.07 816.18,-182.61"/>
<polygon fill="midnightblue" stroke="midnightblue" points="815.2,-179.25 806.28,-184.98 816.82,-186.06 815.2,-179.25"/>
</g>
<!-- Node17 -->
<g id="node17" class="node">
<title>Node17</title>
<g id="a_node17"><a xlink:href="../../d6/d9f/VectorExpression_8h.html" target="_top" xlink:title="Header file for the MyBLAS::VectorExpression class.">
<polygon fill="white" stroke="black" points="872.28,-62 872.28,-81 982.28,-81 982.28,-62 872.28,-62"/>
<text text-anchor="middle" x="927.28" y="-69" font-family="Helvetica,sans-Serif" font-size="10.00">VectorExpression.h</text>
</a>
</g>
</g>
<!-- Node16&#45;&gt;Node17 -->
<g id="edge29" class="edge">
<title>Node16&#45;&gt;Node17</title>
<path fill="none" stroke="midnightblue" d="M994.1,-123.48C981.71,-114.02 961.49,-98.6 946.53,-87.19"/>
<polygon fill="midnightblue" stroke="midnightblue" points="948.51,-84.29 938.43,-81.01 944.26,-89.86 948.51,-84.29"/>
</g>
<!-- Node17&#45;&gt;Node3 -->
<g id="edge30" class="edge">
<title>Node17&#45;&gt;Node3</title>
<path fill="none" stroke="midnightblue" d="M903.35,-61.98C874.58,-51.72 826.12,-34.46 793.68,-22.9"/>
<polygon fill="midnightblue" stroke="midnightblue" points="794.76,-19.57 784.16,-19.51 792.41,-26.16 794.76,-19.57"/>
</g>
<!-- Node18&#45;&gt;Node2 -->
<g id="edge33" class="edge">
<title>Node18&#45;&gt;Node2</title>
<path fill="none" stroke="midnightblue" d="M733.5,-123.48C668.36,-114.88 565.8,-100.91 477.28,-87 464.05,-84.92 449.67,-82.48 436.66,-80.19"/>
<polygon fill="midnightblue" stroke="midnightblue" points="437.02,-76.7 426.56,-78.4 435.8,-83.59 437.02,-76.7"/>
</g>
<!-- Node18&#45;&gt;Node3 -->
<g id="edge34" class="edge">
<title>Node18&#45;&gt;Node3</title>
<path fill="none" stroke="midnightblue" d="M795.11,-123.18C790.98,-114.21 784.66,-99.84 780.28,-87 773.69,-67.67 767.97,-44.96 764.36,-29.44"/>
<polygon fill="midnightblue" stroke="midnightblue" points="767.74,-28.53 762.11,-19.55 760.91,-30.08 767.74,-28.53"/>
</g>
<!-- Node18&#45;&gt;Node12 -->
<g id="edge35" class="edge">
<title>Node18&#45;&gt;Node12</title>
<path fill="none" stroke="midnightblue" d="M760.6,-123.48C712.48,-112.87 630.29,-94.76 577.95,-83.22"/>
<polygon fill="midnightblue" stroke="midnightblue" points="578.41,-79.74 567.89,-81.01 576.9,-86.58 578.41,-79.74"/>
</g>
<!-- Node19 -->
<g id="node19" class="node">
<title>Node19</title>
<g id="a_node19"><a xlink:title=" ">
<polygon fill="white" stroke="#bfbfbf" points="638.78,-62 638.78,-81 731.78,-81 731.78,-62 638.78,-62"/>
<text text-anchor="middle" x="685.28" y="-69" font-family="Helvetica,sans-Serif" font-size="10.00">unordered_map</text>
</a>
</g>
</g>
<!-- Node18&#45;&gt;Node19 -->
<g id="edge36" class="edge">
<title>Node18&#45;&gt;Node19</title>
<path fill="none" stroke="midnightblue" d="M782.95,-123.48C764.07,-113.62 732.77,-97.29 710.7,-85.77"/>
<polygon fill="midnightblue" stroke="midnightblue" points="712.07,-82.53 701.58,-81.01 708.83,-88.74 712.07,-82.53"/>
</g>
<!-- Node20&#45;&gt;Node3 -->
<g id="edge40" class="edge">
<title>Node20&#45;&gt;Node3</title>
<path fill="none" stroke="midnightblue" d="M115.89,-246.22C123.4,-219.03 143.12,-159.32 179.28,-123 226.82,-75.25 250.51,-74.57 315.28,-56 462.14,-13.89 646.1,-9.93 723.4,-10.35"/>
<polygon fill="midnightblue" stroke="midnightblue" points="723.55,-13.85 733.58,-10.43 723.61,-6.85 723.55,-13.85"/>
</g>
</g>
</svg>
