<?xml version="1.0" encoding="UTF-8" standalone="no"?>
<!DOCTYPE svg PUBLIC "-//W3C//DTD SVG 1.1//EN"
 "http://www.w3.org/Graphics/SVG/1.1/DTD/svg11.dtd">
<!-- Generated by graphviz version 2.43.0 (0)
 -->
<!-- Title: src/labs/outlab5/main.cpp Pages: 1 -->
<!--zoomable 364 -->
<svg id="main" version="1.1" xmlns="http://www.w3.org/2000/svg" xmlns:xlink="http://www.w3.org/1999/xlink" xml:space="preserve" onload="init(evt)">
<style type="text/css"><![CDATA[
.edge:hover path { stroke: red; }
.edge:hover polygon { stroke: red; fill: red; }
]]></style>
<script type="text/javascript"><![CDATA[
var edges = document.getElementsByTagName('g');
if (edges && edges.length) {
  for (var i=0;i<edges.length;i++) {
    if (edges[i].id.substr(0,4)=='edge') {
      edges[i].setAttribute('class','edge');
    }
  }
}
]]></script>
        <defs>
                <circle id="rim" cx="0" cy="0" r="7"/>
                <circle id="rim2" cx="0" cy="0" r="3.5"/>
                <g id="zoomPlus">
                        <use xlink:href="#rim" fill="#404040">
                                <set attributeName="fill" to="#808080" begin="zoomplus.mouseover" end="zoomplus.mouseout"/>
                        </use>
                        <path d="M-4,0h8M0,-4v8" fill="none" stroke="white" stroke-width="1.5" pointer-events="none"/>
                </g>
                <g id="zoomMin">
                        <use xlink:href="#rim" fill="#404040">
                                <set attributeName="fill" to="#808080" begin="zoomminus.mouseover" end="zoomminus.mouseout"/>
                        </use>
                        <path d="M-4,0h8" fill="none" stroke="white" stroke-width="1.5" pointer-events="none"/>
                </g>
                <g id="dirArrow">
                        <path fill="none" stroke="white" stroke-width="1.5" d="M0,-3.0v7 M-2.5,-0.5L0,-3.0L2.5,-0.5"/>
                </g>
               <g id="resetDef">
                       <use xlink:href="#rim2" fill="#404040">
                               <set attributeName="fill" to="#808080" begin="reset.mouseover" end="reset.mouseout"/>
                       </use>
               </g>
        </defs>

<script type="text/javascript">
var viewWidth = 1676;
var viewHeight = 364;
var sectionId = 'dynsection-0';
</script>
<script xlink:href="../../svgpan.js"/>
<svg id="graph" class="graph">
<g id="viewport">
<title>src/labs/outlab5/main.cpp</title>
<polygon fill="white" stroke="transparent" points="-4,4 -4,-360 1672,-360 1672,4 -4,4"/>
<!-- Node1 -->
<g id="node1" class="node">
<title>Node1</title>
<g id="a_node1"><a xlink:title=" ">
<polygon fill="#bfbfbf" stroke="black" points="1085,-336.5 1085,-355.5 1227,-355.5 1227,-336.5 1085,-336.5"/>
<text text-anchor="middle" x="1156" y="-343.5" font-family="Helvetica,sans-Serif" font-size="10.00">src/labs/outlab5/main.cpp</text>
</a>
</g>
</g>
<!-- Node2 -->
<g id="node2" class="node">
<title>Node2</title>
<g id="a_node2"><a xlink:href="../../dc/d83/outlab5_8h.html" target="_top" xlink:title=" ">
<polygon fill="white" stroke="black" points="651,-280.5 651,-299.5 713,-299.5 713,-280.5 651,-280.5"/>
<text text-anchor="middle" x="682" y="-287.5" font-family="Helvetica,sans-Serif" font-size="10.00">outlab5.h</text>
</a>
</g>
</g>
<!-- Node1&#45;&gt;Node2 -->
<g id="edge1" class="edge">
<title>Node1&#45;&gt;Node2</title>
<path fill="none" stroke="midnightblue" d="M1084.78,-336.89C984.36,-325.45 804.39,-304.94 723.44,-295.72"/>
<polygon fill="midnightblue" stroke="midnightblue" points="723.48,-292.2 713.15,-294.55 722.69,-299.16 723.48,-292.2"/>
</g>
<!-- Node18 -->
<g id="node18" class="node">
<title>Node18</title>
<g id="a_node18"><a xlink:href="../../d9/d41/CommandLine_8h.html" target="_top" xlink:title="This file contains the definition of the CommandLine class and the HeaderInfo struct.">
<polygon fill="white" stroke="black" points="1398,-112.5 1398,-131.5 1494,-131.5 1494,-112.5 1398,-112.5"/>
<text text-anchor="middle" x="1446" y="-119.5" font-family="Helvetica,sans-Serif" font-size="10.00">CommandLine.h</text>
</a>
</g>
</g>
<!-- Node1&#45;&gt;Node18 -->
<g id="edge69" class="edge">
<title>Node1&#45;&gt;Node18</title>
<path fill="none" stroke="midnightblue" d="M1227.03,-339.8C1342.7,-329.7 1563.65,-303.01 1611,-244 1651.75,-193.21 1549.56,-153.12 1488.23,-134.45"/>
<polygon fill="midnightblue" stroke="midnightblue" points="1488.98,-131.02 1478.39,-131.53 1486.98,-137.73 1488.98,-131.02"/>
</g>
<!-- Node3 -->
<g id="node3" class="node">
<title>Node3</title>
<g id="a_node3"><a xlink:title=" ">
<polygon fill="white" stroke="#bfbfbf" points="1550.5,-224.5 1550.5,-243.5 1601.5,-243.5 1601.5,-224.5 1550.5,-224.5"/>
<text text-anchor="middle" x="1576" y="-231.5" font-family="Helvetica,sans-Serif" font-size="10.00">variant</text>
</a>
</g>
</g>
<!-- Node2&#45;&gt;Node3 -->
<g id="edge2" class="edge">
<title>Node2&#45;&gt;Node3</title>
<path fill="none" stroke="midnightblue" d="M713.2,-289.25C825.14,-289.74 1216.84,-287.99 1536,-244 1537.45,-243.8 1538.93,-243.57 1540.43,-243.33"/>
<polygon fill="midnightblue" stroke="midnightblue" points="1541.12,-246.76 1550.3,-241.45 1539.82,-239.88 1541.12,-246.76"/>
</g>
<!-- Node4 -->
<g id="node4" class="node">
<title>Node4</title>
<g id="a_node4"><a xlink:title=" ">
<polygon fill="white" stroke="#bfbfbf" points="0,-224.5 0,-243.5 56,-243.5 56,-224.5 0,-224.5"/>
<text text-anchor="middle" x="28" y="-231.5" font-family="Helvetica,sans-Serif" font-size="10.00">numeric</text>
</a>
</g>
</g>
<!-- Node2&#45;&gt;Node4 -->
<g id="edge3" class="edge">
<title>Node2&#45;&gt;Node4</title>
<path fill="none" stroke="midnightblue" d="M650.95,-288.23C560.77,-285.66 291.2,-275.68 70,-244 68.75,-243.82 67.49,-243.63 66.22,-243.42"/>
<polygon fill="midnightblue" stroke="midnightblue" points="66.84,-239.98 56.37,-241.63 65.58,-246.86 66.84,-239.98"/>
</g>
<!-- Node5 -->
<g id="node5" class="node">
<title>Node5</title>
<g id="a_node5"><a xlink:title=" ">
<polygon fill="white" stroke="#bfbfbf" points="611,-0.5 611,-19.5 671,-19.5 671,-0.5 611,-0.5"/>
<text text-anchor="middle" x="641" y="-7.5" font-family="Helvetica,sans-Serif" font-size="10.00">iostream</text>
</a>
</g>
</g>
<!-- Node2&#45;&gt;Node5 -->
<g id="edge4" class="edge">
<title>Node2&#45;&gt;Node5</title>
<path fill="none" stroke="midnightblue" d="M713.26,-288.44C831.01,-286.08 1247.64,-275.66 1376,-244 1444.96,-226.99 1522,-250.03 1522,-179 1522,-179 1522,-179 1522,-121 1522,-90.9 1526.6,-74.67 1503,-56 1470.44,-30.24 848.16,-15.36 681.67,-11.82"/>
<polygon fill="midnightblue" stroke="midnightblue" points="681.45,-8.32 671.38,-11.61 681.3,-15.32 681.45,-8.32"/>
</g>
<!-- Node6 -->
<g id="node6" class="node">
<title>Node6</title>
<g id="a_node6"><a xlink:title=" ">
<polygon fill="white" stroke="#bfbfbf" points="252,-0.5 252,-19.5 308,-19.5 308,-0.5 252,-0.5"/>
<text text-anchor="middle" x="280" y="-7.5" font-family="Helvetica,sans-Serif" font-size="10.00">iomanip</text>
</a>
</g>
</g>
<!-- Node2&#45;&gt;Node6 -->
<g id="edge5" class="edge">
<title>Node2&#45;&gt;Node6</title>
<path fill="none" stroke="midnightblue" d="M650.87,-289.18C550.73,-289.32 238.13,-286.28 148,-244 111.3,-226.78 84,-219.54 84,-179 84,-179 84,-179 84,-121 84,-49.37 184.79,-23.91 241.81,-15.23"/>
<polygon fill="midnightblue" stroke="midnightblue" points="242.51,-18.67 251.92,-13.8 241.53,-11.74 242.51,-18.67"/>
</g>
<!-- Node7 -->
<g id="node7" class="node">
<title>Node7</title>
<g id="a_node7"><a xlink:title=" ">
<polygon fill="white" stroke="#bfbfbf" points="1504,-0.5 1504,-19.5 1654,-19.5 1654,-0.5 1504,-0.5"/>
<text text-anchor="middle" x="1579" y="-7.5" font-family="Helvetica,sans-Serif" font-size="10.00">boost/program_options.hpp</text>
</a>
</g>
</g>
<!-- Node2&#45;&gt;Node7 -->
<g id="edge6" class="edge">
<title>Node2&#45;&gt;Node7</title>
<path fill="none" stroke="midnightblue" d="M713.14,-288.93C865.52,-288.38 1528.7,-283.72 1611,-244 1645.6,-227.3 1668,-217.42 1668,-179 1668,-179 1668,-179 1668,-121 1668,-78.85 1628.01,-43.78 1601.64,-25.24"/>
<polygon fill="midnightblue" stroke="midnightblue" points="1603.54,-22.3 1593.3,-19.6 1599.62,-28.1 1603.54,-22.3"/>
</g>
<!-- Node8 -->
<g id="node8" class="node">
<title>Node8</title>
<g id="a_node8"><a xlink:href="../../da/d01/labs_2outlab5_2InputsOutputs_8h.html" target="_top" xlink:title="This file contains the input and output definitions for this project.">
<polygon fill="white" stroke="black" points="233,-224.5 233,-243.5 327,-243.5 327,-224.5 233,-224.5"/>
<text text-anchor="middle" x="280" y="-231.5" font-family="Helvetica,sans-Serif" font-size="10.00">InputsOutputs.h</text>
</a>
</g>
</g>
<!-- Node2&#45;&gt;Node8 -->
<g id="edge7" class="edge">
<title>Node2&#45;&gt;Node8</title>
<path fill="none" stroke="midnightblue" d="M650.79,-284.81C583.43,-275.76 423.55,-254.28 337.38,-242.71"/>
<polygon fill="midnightblue" stroke="midnightblue" points="337.63,-239.21 327.25,-241.35 336.7,-246.15 337.63,-239.21"/>
</g>
<!-- Node10 -->
<g id="node10" class="node">
<title>Node10</title>
<g id="a_node10"><a xlink:href="../../d3/db1/Matrix_8h.html" target="_top" xlink:title="This file contains my BLAS::Matrix declarations.">
<polygon fill="white" stroke="black" points="288.5,-112.5 288.5,-131.5 397.5,-131.5 397.5,-112.5 288.5,-112.5"/>
<text text-anchor="middle" x="343" y="-119.5" font-family="Helvetica,sans-Serif" font-size="10.00">math/blas/Matrix.h</text>
</a>
</g>
</g>
<!-- Node2&#45;&gt;Node10 -->
<g id="edge54" class="edge">
<title>Node2&#45;&gt;Node10</title>
<path fill="none" stroke="midnightblue" d="M650.72,-282.46C621.79,-275.58 578.23,-263.07 544,-244 498.26,-218.52 498.82,-195.06 454,-168 431,-154.11 402.94,-142.78 380.79,-134.96"/>
<polygon fill="midnightblue" stroke="midnightblue" points="381.66,-131.56 371.06,-131.62 379.38,-138.18 381.66,-131.56"/>
</g>
<!-- Node14 -->
<g id="node14" class="node">
<title>Node14</title>
<g id="a_node14"><a xlink:title=" ">
<polygon fill="white" stroke="#bfbfbf" points="503,-0.5 503,-19.5 561,-19.5 561,-0.5 503,-0.5"/>
<text text-anchor="middle" x="532" y="-7.5" font-family="Helvetica,sans-Serif" font-size="10.00">json.hpp</text>
</a>
</g>
</g>
<!-- Node2&#45;&gt;Node14 -->
<g id="edge63" class="edge">
<title>Node2&#45;&gt;Node14</title>
<path fill="none" stroke="midnightblue" d="M650.69,-289.57C532.76,-290.87 122,-287.62 122,-179 122,-179 122,-179 122,-121 122,-74.84 160.6,-74.23 203,-56 254.47,-33.87 417.42,-19.4 492.91,-13.72"/>
<polygon fill="midnightblue" stroke="midnightblue" points="493.25,-17.21 502.96,-12.98 492.73,-10.23 493.25,-17.21"/>
</g>
<!-- Node15 -->
<g id="node15" class="node">
<title>Node15</title>
<g id="a_node15"><a xlink:href="../../d9/d77/MyBLAS_8h.html" target="_top" xlink:title="My BLAS methods for NE591&#45;008.">
<polygon fill="white" stroke="black" points="264,-168.5 264,-187.5 382,-187.5 382,-168.5 264,-168.5"/>
<text text-anchor="middle" x="323" y="-175.5" font-family="Helvetica,sans-Serif" font-size="10.00">math/blas/MyBLAS.h</text>
</a>
</g>
</g>
<!-- Node2&#45;&gt;Node15 -->
<g id="edge53" class="edge">
<title>Node2&#45;&gt;Node15</title>
<path fill="none" stroke="midnightblue" d="M650.86,-285.12C607.34,-279.16 526.23,-266.06 460,-244 418.85,-230.29 373.92,-207.3 347.12,-192.66"/>
<polygon fill="midnightblue" stroke="midnightblue" points="348.55,-189.45 338.11,-187.67 345.16,-195.58 348.55,-189.45"/>
</g>
<!-- Node17 -->
<g id="node17" class="node">
<title>Node17</title>
<g id="a_node17"><a xlink:href="../../d7/d4d/labs_2outlab5_2Parser_8h.html" target="_top" xlink:title="This file contains the Parser class which is responsible for parsing command line arguments and valid...">
<polygon fill="white" stroke="black" points="1127.5,-224.5 1127.5,-243.5 1182.5,-243.5 1182.5,-224.5 1127.5,-224.5"/>
<text text-anchor="middle" x="1155" y="-231.5" font-family="Helvetica,sans-Serif" font-size="10.00">Parser.h</text>
</a>
</g>
</g>
<!-- Node2&#45;&gt;Node17 -->
<g id="edge23" class="edge">
<title>Node2&#45;&gt;Node17</title>
<path fill="none" stroke="midnightblue" d="M713.03,-285.46C796.66,-275.91 1026.5,-249.67 1117.34,-239.3"/>
<polygon fill="midnightblue" stroke="midnightblue" points="1117.92,-242.76 1127.46,-238.14 1117.13,-235.8 1117.92,-242.76"/>
</g>
<!-- Node2&#45;&gt;Node18 -->
<g id="edge52" class="edge">
<title>Node2&#45;&gt;Node18</title>
<path fill="none" stroke="midnightblue" d="M713.17,-288.33C824.99,-285.69 1205.6,-274.6 1323,-244 1379.56,-229.26 1409.18,-236.37 1442,-188 1451.12,-174.56 1451.26,-155.75 1449.64,-141.82"/>
<polygon fill="midnightblue" stroke="midnightblue" points="1453.09,-141.23 1448.09,-131.89 1446.17,-142.31 1453.09,-141.23"/>
</g>
<!-- Node31 -->
<g id="node31" class="node">
<title>Node31</title>
<g id="a_node31"><a xlink:href="../../d2/dff/Project_8h.html" target="_top" xlink:title="This file contains the definition of the Project class template. The Project class is a generic class...">
<polygon fill="white" stroke="black" points="1254.5,-224.5 1254.5,-243.5 1313.5,-243.5 1313.5,-224.5 1254.5,-224.5"/>
<text text-anchor="middle" x="1284" y="-231.5" font-family="Helvetica,sans-Serif" font-size="10.00">Project.h</text>
</a>
</g>
</g>
<!-- Node2&#45;&gt;Node31 -->
<g id="edge48" class="edge">
<title>Node2&#45;&gt;Node31</title>
<path fill="none" stroke="midnightblue" d="M713.06,-286.36C792.67,-279.58 1010.57,-260.88 1192,-244 1209.04,-242.41 1227.85,-240.59 1243.99,-239"/>
<polygon fill="midnightblue" stroke="midnightblue" points="1244.57,-242.46 1254.17,-237.99 1243.88,-235.49 1244.57,-242.46"/>
</g>
<!-- Node32 -->
<g id="node32" class="node">
<title>Node32</title>
<g id="a_node32"><a xlink:href="../../d7/dff/LU_8h.html" target="_top" xlink:title="LU factorization and related methods for MyBLAS library.">
<polygon fill="white" stroke="black" points="616.5,-168.5 616.5,-187.5 747.5,-187.5 747.5,-168.5 616.5,-168.5"/>
<text text-anchor="middle" x="682" y="-175.5" font-family="Helvetica,sans-Serif" font-size="10.00">math/factorization/LU.h</text>
</a>
</g>
</g>
<!-- Node2&#45;&gt;Node32 -->
<g id="edge55" class="edge">
<title>Node2&#45;&gt;Node32</title>
<path fill="none" stroke="midnightblue" d="M682,-280.37C682,-262.62 682,-221.67 682,-197.6"/>
<polygon fill="midnightblue" stroke="midnightblue" points="685.5,-197.59 682,-187.59 678.5,-197.59 685.5,-197.59"/>
</g>
<!-- Node34 -->
<g id="node34" class="node">
<title>Node34</title>
<g id="a_node34"><a xlink:href="../../d6/d82/labs_2outlab5_2Compute_8h.html" target="_top" xlink:title="Compute methods for outlab5 in NE591&#45;008.">
<polygon fill="white" stroke="black" points="553,-224.5 553,-243.5 623,-243.5 623,-224.5 553,-224.5"/>
<text text-anchor="middle" x="588" y="-231.5" font-family="Helvetica,sans-Serif" font-size="10.00">Compute.h</text>
</a>
</g>
</g>
<!-- Node2&#45;&gt;Node34 -->
<g id="edge64" class="edge">
<title>Node2&#45;&gt;Node34</title>
<path fill="none" stroke="midnightblue" d="M666.9,-280.32C652.1,-271.82 629.31,-258.73 612.02,-248.8"/>
<polygon fill="midnightblue" stroke="midnightblue" points="613.48,-245.6 603.07,-243.65 609.99,-251.67 613.48,-245.6"/>
</g>
<!-- Node9 -->
<g id="node9" class="node">
<title>Node9</title>
<g id="a_node9"><a xlink:title=" ">
<polygon fill="white" stroke="#bfbfbf" points="400.5,-168.5 400.5,-187.5 445.5,-187.5 445.5,-168.5 400.5,-168.5"/>
<text text-anchor="middle" x="423" y="-175.5" font-family="Helvetica,sans-Serif" font-size="10.00">utility</text>
</a>
</g>
</g>
<!-- Node8&#45;&gt;Node9 -->
<g id="edge8" class="edge">
<title>Node8&#45;&gt;Node9</title>
<path fill="none" stroke="midnightblue" d="M302.66,-224.44C326.4,-215.48 363.91,-201.31 390.74,-191.18"/>
<polygon fill="midnightblue" stroke="midnightblue" points="392.33,-194.32 400.45,-187.52 389.86,-187.77 392.33,-194.32"/>
</g>
<!-- Node8&#45;&gt;Node10 -->
<g id="edge9" class="edge">
<title>Node8&#45;&gt;Node10</title>
<path fill="none" stroke="midnightblue" d="M271.7,-224.12C260.62,-211.16 243.64,-186.56 255,-168 264.51,-152.46 281.26,-142.07 297.62,-135.23"/>
<polygon fill="midnightblue" stroke="midnightblue" points="299.05,-138.43 307.15,-131.6 296.56,-131.89 299.05,-138.43"/>
</g>
<!-- Node13 -->
<g id="node13" class="node">
<title>Node13</title>
<g id="a_node13"><a xlink:href="../../d6/dbe/Vector_8h.html" target="_top" xlink:title="This file contains my BLAS::Vector implementation.">
<polygon fill="white" stroke="black" points="226.5,-56.5 226.5,-75.5 333.5,-75.5 333.5,-56.5 226.5,-56.5"/>
<text text-anchor="middle" x="280" y="-63.5" font-family="Helvetica,sans-Serif" font-size="10.00">math/blas/Vector.h</text>
</a>
</g>
</g>
<!-- Node8&#45;&gt;Node13 -->
<g id="edge17" class="edge">
<title>Node8&#45;&gt;Node13</title>
<path fill="none" stroke="midnightblue" d="M271.25,-224.29C263.44,-215.84 252.55,-202.25 248,-188 236.38,-151.59 255.83,-108.1 269.14,-84.44"/>
<polygon fill="midnightblue" stroke="midnightblue" points="272.29,-85.98 274.36,-75.59 266.27,-82.43 272.29,-85.98"/>
</g>
<!-- Node8&#45;&gt;Node14 -->
<g id="edge18" class="edge">
<title>Node8&#45;&gt;Node14</title>
<path fill="none" stroke="midnightblue" d="M271.41,-224.14C245.32,-196.16 171.48,-108.49 217,-56 234.84,-35.43 412.02,-19.85 492.54,-13.78"/>
<polygon fill="midnightblue" stroke="midnightblue" points="493.06,-17.25 502.78,-13.02 492.55,-10.27 493.06,-17.25"/>
</g>
<!-- Node8&#45;&gt;Node15 -->
<g id="edge19" class="edge">
<title>Node8&#45;&gt;Node15</title>
<path fill="none" stroke="midnightblue" d="M287.1,-224.08C293.24,-216.38 302.27,-205.03 309.74,-195.65"/>
<polygon fill="midnightblue" stroke="midnightblue" points="312.54,-197.75 316.03,-187.75 307.06,-193.39 312.54,-197.75"/>
</g>
<!-- Node10&#45;&gt;Node5 -->
<g id="edge11" class="edge">
<title>Node10&#45;&gt;Node5</title>
<path fill="none" stroke="midnightblue" d="M367.58,-112.41C391.99,-103.73 430.37,-89.68 463,-76 482.44,-67.85 486.42,-63.79 506,-56 538.1,-43.23 575.41,-30.99 602.66,-22.5"/>
<polygon fill="midnightblue" stroke="midnightblue" points="603.69,-25.85 612.22,-19.55 601.63,-19.16 603.69,-25.85"/>
</g>
<!-- Node11 -->
<g id="node11" class="node">
<title>Node11</title>
<g id="a_node11"><a xlink:title=" ">
<polygon fill="white" stroke="#bfbfbf" points="332.5,-0.5 332.5,-19.5 379.5,-19.5 379.5,-0.5 332.5,-0.5"/>
<text text-anchor="middle" x="356" y="-7.5" font-family="Helvetica,sans-Serif" font-size="10.00">vector</text>
</a>
</g>
</g>
<!-- Node10&#45;&gt;Node11 -->
<g id="edge10" class="edge">
<title>Node10&#45;&gt;Node11</title>
<path fill="none" stroke="midnightblue" d="M344.02,-112.37C346.12,-94.62 350.96,-53.67 353.8,-29.6"/>
<polygon fill="midnightblue" stroke="midnightblue" points="357.29,-29.93 354.98,-19.59 350.34,-29.11 357.29,-29.93"/>
</g>
<!-- Node12 -->
<g id="node12" class="node">
<title>Node12</title>
<g id="a_node12"><a xlink:title=" ">
<polygon fill="white" stroke="#bfbfbf" points="390,-56.5 390,-75.5 454,-75.5 454,-56.5 390,-56.5"/>
<text text-anchor="middle" x="422" y="-63.5" font-family="Helvetica,sans-Serif" font-size="10.00">algorithm</text>
</a>
</g>
</g>
<!-- Node10&#45;&gt;Node12 -->
<g id="edge12" class="edge">
<title>Node10&#45;&gt;Node12</title>
<path fill="none" stroke="midnightblue" d="M355.69,-112.32C367.9,-103.98 386.58,-91.21 401,-81.35"/>
<polygon fill="midnightblue" stroke="midnightblue" points="403.06,-84.19 409.34,-75.65 399.11,-78.41 403.06,-84.19"/>
</g>
<!-- Node10&#45;&gt;Node13 -->
<g id="edge13" class="edge">
<title>Node10&#45;&gt;Node13</title>
<path fill="none" stroke="midnightblue" d="M332.88,-112.32C323.47,-104.26 309.26,-92.08 297.93,-82.37"/>
<polygon fill="midnightblue" stroke="midnightblue" points="300.18,-79.68 290.31,-75.83 295.62,-85 300.18,-79.68"/>
</g>
<!-- Node13&#45;&gt;Node5 -->
<g id="edge15" class="edge">
<title>Node13&#45;&gt;Node5</title>
<path fill="none" stroke="midnightblue" d="M333.66,-56.97C406.59,-46.06 535.39,-26.8 600.66,-17.03"/>
<polygon fill="midnightblue" stroke="midnightblue" points="601.58,-20.44 610.95,-15.49 600.55,-13.51 601.58,-20.44"/>
</g>
<!-- Node13&#45;&gt;Node6 -->
<g id="edge16" class="edge">
<title>Node13&#45;&gt;Node6</title>
<path fill="none" stroke="midnightblue" d="M280,-56.08C280,-49.01 280,-38.86 280,-29.99"/>
<polygon fill="midnightblue" stroke="midnightblue" points="283.5,-29.75 280,-19.75 276.5,-29.75 283.5,-29.75"/>
</g>
<!-- Node13&#45;&gt;Node11 -->
<g id="edge14" class="edge">
<title>Node13&#45;&gt;Node11</title>
<path fill="none" stroke="midnightblue" d="M292.21,-56.32C303.78,-48.11 321.38,-35.6 335.16,-25.81"/>
<polygon fill="midnightblue" stroke="midnightblue" points="337.44,-28.48 343.57,-19.83 333.39,-22.77 337.44,-28.48"/>
</g>
<!-- Node15&#45;&gt;Node10 -->
<g id="edge21" class="edge">
<title>Node15&#45;&gt;Node10</title>
<path fill="none" stroke="midnightblue" d="M326.3,-168.08C328.98,-160.85 332.85,-150.41 336.19,-141.4"/>
<polygon fill="midnightblue" stroke="midnightblue" points="339.57,-142.34 339.76,-131.75 333,-139.91 339.57,-142.34"/>
</g>
<!-- Node15&#45;&gt;Node13 -->
<g id="edge22" class="edge">
<title>Node15&#45;&gt;Node13</title>
<path fill="none" stroke="midnightblue" d="M310.22,-168.37C299.61,-160.36 285.27,-147.38 279,-132 273.01,-117.3 273.9,-99.14 275.92,-85.75"/>
<polygon fill="midnightblue" stroke="midnightblue" points="279.38,-86.28 277.76,-75.81 272.5,-85.01 279.38,-86.28"/>
</g>
<!-- Node16 -->
<g id="node16" class="node">
<title>Node16</title>
<g id="a_node16"><a xlink:title=" ">
<polygon fill="white" stroke="#bfbfbf" points="454.5,-112.5 454.5,-131.5 501.5,-131.5 501.5,-112.5 454.5,-112.5"/>
<text text-anchor="middle" x="478" y="-119.5" font-family="Helvetica,sans-Serif" font-size="10.00">cmath</text>
</a>
</g>
</g>
<!-- Node15&#45;&gt;Node16 -->
<g id="edge20" class="edge">
<title>Node15&#45;&gt;Node16</title>
<path fill="none" stroke="midnightblue" d="M347.56,-168.44C373.75,-159.32 415.4,-144.81 444.57,-134.65"/>
<polygon fill="midnightblue" stroke="midnightblue" points="446.03,-137.85 454.32,-131.25 443.72,-131.24 446.03,-137.85"/>
</g>
<!-- Node17&#45;&gt;Node18 -->
<g id="edge24" class="edge">
<title>Node17&#45;&gt;Node18</title>
<path fill="none" stroke="midnightblue" d="M1182.73,-229.68C1235.8,-222.99 1349.54,-206.89 1384,-188 1405.06,-176.45 1423.23,-155.27 1434.35,-140.23"/>
<polygon fill="midnightblue" stroke="midnightblue" points="1437.4,-141.98 1440.33,-131.79 1431.69,-137.92 1437.4,-141.98"/>
</g>
<!-- Node21 -->
<g id="node21" class="node">
<title>Node21</title>
<g id="a_node21"><a xlink:href="../../db/df1/Helpers_8h.html" target="_top" xlink:title="This file contains helper functions and structures used throughout the program.">
<polygon fill="white" stroke="black" points="1282.5,-56.5 1282.5,-75.5 1345.5,-75.5 1345.5,-56.5 1282.5,-56.5"/>
<text text-anchor="middle" x="1314" y="-63.5" font-family="Helvetica,sans-Serif" font-size="10.00">Helpers.h</text>
</a>
</g>
</g>
<!-- Node17&#45;&gt;Node21 -->
<g id="edge47" class="edge">
<title>Node17&#45;&gt;Node21</title>
<path fill="none" stroke="midnightblue" d="M1182.81,-225.73C1222.42,-213.71 1293.64,-185.51 1324,-132 1332.17,-117.6 1327.87,-98.65 1322.61,-84.93"/>
<polygon fill="midnightblue" stroke="midnightblue" points="1325.77,-83.42 1318.59,-75.62 1319.34,-86.19 1325.77,-83.42"/>
</g>
<!-- Node23 -->
<g id="node23" class="node">
<title>Node23</title>
<g id="a_node23"><a xlink:href="../../d7/de4/FileParser_8h.html" target="_top" xlink:title="This file contains the definitions for functions that handle file parsing operations.">
<polygon fill="white" stroke="black" points="1066,-168.5 1066,-187.5 1138,-187.5 1138,-168.5 1066,-168.5"/>
<text text-anchor="middle" x="1102" y="-175.5" font-family="Helvetica,sans-Serif" font-size="10.00">FileParser.h</text>
</a>
</g>
</g>
<!-- Node17&#45;&gt;Node23 -->
<g id="edge35" class="edge">
<title>Node17&#45;&gt;Node23</title>
<path fill="none" stroke="midnightblue" d="M1146.25,-224.08C1138.53,-216.22 1127.1,-204.57 1117.78,-195.08"/>
<polygon fill="midnightblue" stroke="midnightblue" points="1120.09,-192.44 1110.59,-187.75 1115.1,-197.34 1120.09,-192.44"/>
</g>
<!-- Node18&#45;&gt;Node5 -->
<g id="edge26" class="edge">
<title>Node18&#45;&gt;Node5</title>
<path fill="none" stroke="midnightblue" d="M1435.39,-112.27C1415.41,-96.03 1372.65,-62.28 1355,-56 1229.52,-11.39 813.26,-9.94 681.42,-10.65"/>
<polygon fill="midnightblue" stroke="midnightblue" points="681.32,-7.15 671.34,-10.71 681.36,-14.15 681.32,-7.15"/>
</g>
<!-- Node18&#45;&gt;Node7 -->
<g id="edge27" class="edge">
<title>Node18&#45;&gt;Node7</title>
<path fill="none" stroke="midnightblue" d="M1457.03,-112.5C1468.59,-103.54 1487.22,-88.97 1503,-76 1523.37,-59.26 1546.32,-39.5 1561.62,-26.2"/>
<polygon fill="midnightblue" stroke="midnightblue" points="1564.03,-28.75 1569.27,-19.54 1559.43,-23.47 1564.03,-28.75"/>
</g>
<!-- Node19 -->
<g id="node19" class="node">
<title>Node19</title>
<g id="a_node19"><a xlink:title=" ">
<polygon fill="white" stroke="#bfbfbf" points="1220,-56.5 1220,-75.5 1264,-75.5 1264,-56.5 1220,-56.5"/>
<text text-anchor="middle" x="1242" y="-63.5" font-family="Helvetica,sans-Serif" font-size="10.00">string</text>
</a>
</g>
</g>
<!-- Node18&#45;&gt;Node19 -->
<g id="edge25" class="edge">
<title>Node18&#45;&gt;Node19</title>
<path fill="none" stroke="midnightblue" d="M1412.66,-112.47C1377.97,-103.55 1322.11,-89.06 1274,-76 1273.9,-75.97 1273.8,-75.95 1273.7,-75.92"/>
<polygon fill="midnightblue" stroke="midnightblue" points="1274.59,-72.53 1264.02,-73.25 1272.73,-79.28 1274.59,-72.53"/>
</g>
<!-- Node20 -->
<g id="node20" class="node">
<title>Node20</title>
<g id="a_node20"><a xlink:title=" ">
<polygon fill="white" stroke="#bfbfbf" points="1402,-56.5 1402,-75.5 1494,-75.5 1494,-56.5 1402,-56.5"/>
<text text-anchor="middle" x="1448" y="-63.5" font-family="Helvetica,sans-Serif" font-size="10.00">project&#45;config.h</text>
</a>
</g>
</g>
<!-- Node18&#45;&gt;Node20 -->
<g id="edge28" class="edge">
<title>Node18&#45;&gt;Node20</title>
<path fill="none" stroke="midnightblue" d="M1446.33,-112.08C1446.59,-105.01 1446.97,-94.86 1447.3,-85.99"/>
<polygon fill="midnightblue" stroke="midnightblue" points="1450.8,-85.87 1447.68,-75.75 1443.81,-85.61 1450.8,-85.87"/>
</g>
<!-- Node18&#45;&gt;Node21 -->
<g id="edge29" class="edge">
<title>Node18&#45;&gt;Node21</title>
<path fill="none" stroke="midnightblue" d="M1425.08,-112.44C1403.26,-103.52 1368.85,-89.44 1344.11,-79.32"/>
<polygon fill="midnightblue" stroke="midnightblue" points="1345.4,-76.06 1334.82,-75.52 1342.75,-82.54 1345.4,-76.06"/>
</g>
<!-- Node21&#45;&gt;Node5 -->
<g id="edge30" class="edge">
<title>Node21&#45;&gt;Node5</title>
<path fill="none" stroke="midnightblue" d="M1282.3,-57.57C1279.17,-56.97 1276.03,-56.44 1273,-56 1050.88,-23.89 781.37,-14.38 681.1,-11.84"/>
<polygon fill="midnightblue" stroke="midnightblue" points="681.18,-8.34 671.1,-11.6 681.01,-15.34 681.18,-8.34"/>
</g>
<!-- Node21&#45;&gt;Node6 -->
<g id="edge31" class="edge">
<title>Node21&#45;&gt;Node6</title>
<path fill="none" stroke="midnightblue" d="M1282.31,-57.46C1279.18,-56.89 1276.04,-56.39 1273,-56 853.88,-2.49 742.38,-71.46 323,-20 321.49,-19.81 319.95,-19.6 318.39,-19.37"/>
<polygon fill="midnightblue" stroke="midnightblue" points="318.56,-15.85 308.11,-17.59 317.36,-22.74 318.56,-15.85"/>
</g>
<!-- Node21&#45;&gt;Node7 -->
<g id="edge33" class="edge">
<title>Node21&#45;&gt;Node7</title>
<path fill="none" stroke="midnightblue" d="M1345.7,-58.54C1390.62,-49.39 1473.29,-32.54 1527.2,-21.56"/>
<polygon fill="midnightblue" stroke="midnightblue" points="1528.14,-24.94 1537.24,-19.51 1526.74,-18.08 1528.14,-24.94"/>
</g>
<!-- Node21&#45;&gt;Node14 -->
<g id="edge34" class="edge">
<title>Node21&#45;&gt;Node14</title>
<path fill="none" stroke="midnightblue" d="M1282.31,-57.51C1279.17,-56.93 1276.03,-56.41 1273,-56 977.06,-15.85 899.42,-47.06 602,-20 592.04,-19.09 581.31,-17.85 571.32,-16.58"/>
<polygon fill="midnightblue" stroke="midnightblue" points="571.61,-13.08 561.24,-15.25 570.7,-20.02 571.61,-13.08"/>
</g>
<!-- Node22 -->
<g id="node22" class="node">
<title>Node22</title>
<g id="a_node22"><a xlink:title=" ">
<polygon fill="white" stroke="#bfbfbf" points="1292,-0.5 1292,-19.5 1336,-19.5 1336,-0.5 1292,-0.5"/>
<text text-anchor="middle" x="1314" y="-7.5" font-family="Helvetica,sans-Serif" font-size="10.00">limits</text>
</a>
</g>
</g>
<!-- Node21&#45;&gt;Node22 -->
<g id="edge32" class="edge">
<title>Node21&#45;&gt;Node22</title>
<path fill="none" stroke="midnightblue" d="M1314,-56.08C1314,-49.01 1314,-38.86 1314,-29.99"/>
<polygon fill="midnightblue" stroke="midnightblue" points="1317.5,-29.75 1314,-19.75 1310.5,-29.75 1317.5,-29.75"/>
</g>
<!-- Node23&#45;&gt;Node5 -->
<g id="edge37" class="edge">
<title>Node23&#45;&gt;Node5</title>
<path fill="none" stroke="midnightblue" d="M1138,-174.22C1192.99,-168.63 1288.14,-152.86 1254,-112 1180.5,-24.03 806.46,-12.52 681.62,-11.14"/>
<polygon fill="midnightblue" stroke="midnightblue" points="681.39,-7.64 671.35,-11.04 681.32,-14.64 681.39,-7.64"/>
</g>
<!-- Node23&#45;&gt;Node10 -->
<g id="edge45" class="edge">
<title>Node23&#45;&gt;Node10</title>
<path fill="none" stroke="midnightblue" d="M1065.66,-174.76C966.25,-168.59 681.51,-150.53 445,-132 432.95,-131.06 420.11,-129.98 407.75,-128.91"/>
<polygon fill="midnightblue" stroke="midnightblue" points="407.77,-125.39 397.51,-128.01 407.16,-132.37 407.77,-125.39"/>
</g>
<!-- Node23&#45;&gt;Node14 -->
<g id="edge46" class="edge">
<title>Node23&#45;&gt;Node14</title>
<path fill="none" stroke="midnightblue" d="M1065.7,-177.23C967.97,-177.28 701.57,-173.51 626,-132 583.2,-108.49 553.45,-56.49 540.04,-28.94"/>
<polygon fill="midnightblue" stroke="midnightblue" points="543.12,-27.26 535.71,-19.69 536.78,-30.23 543.12,-27.26"/>
</g>
<!-- Node23&#45;&gt;Node19 -->
<g id="edge40" class="edge">
<title>Node23&#45;&gt;Node19</title>
<path fill="none" stroke="midnightblue" d="M1138.01,-174.44C1191.28,-169.81 1287.05,-158.02 1308,-132 1323.74,-112.45 1295.76,-92.58 1271.52,-80.05"/>
<polygon fill="midnightblue" stroke="midnightblue" points="1273.03,-76.89 1262.51,-75.62 1269.94,-83.17 1273.03,-76.89"/>
</g>
<!-- Node24 -->
<g id="node24" class="node">
<title>Node24</title>
<g id="a_node24"><a xlink:title=" ">
<polygon fill="white" stroke="#bfbfbf" points="748,-112.5 748,-131.5 816,-131.5 816,-112.5 748,-112.5"/>
<text text-anchor="middle" x="782" y="-119.5" font-family="Helvetica,sans-Serif" font-size="10.00">filesystem</text>
</a>
</g>
</g>
<!-- Node23&#45;&gt;Node24 -->
<g id="edge36" class="edge">
<title>Node23&#45;&gt;Node24</title>
<path fill="none" stroke="midnightblue" d="M1065.75,-171.56C1012.92,-163.54 911.71,-147.75 826,-132 825.9,-131.98 825.8,-131.96 825.7,-131.94"/>
<polygon fill="midnightblue" stroke="midnightblue" points="826.56,-128.55 816.08,-130.11 825.25,-135.42 826.56,-128.55"/>
</g>
<!-- Node25 -->
<g id="node25" class="node">
<title>Node25</title>
<g id="a_node25"><a xlink:title=" ">
<polygon fill="white" stroke="#bfbfbf" points="834.5,-112.5 834.5,-131.5 889.5,-131.5 889.5,-112.5 834.5,-112.5"/>
<text text-anchor="middle" x="862" y="-119.5" font-family="Helvetica,sans-Serif" font-size="10.00">fstream</text>
</a>
</g>
</g>
<!-- Node23&#45;&gt;Node25 -->
<g id="edge38" class="edge">
<title>Node23&#45;&gt;Node25</title>
<path fill="none" stroke="midnightblue" d="M1065.65,-169.18C1026.97,-160.8 963.75,-146.96 899.73,-132.13"/>
<polygon fill="midnightblue" stroke="midnightblue" points="900.4,-128.7 889.87,-129.84 898.81,-135.51 900.4,-128.7"/>
</g>
<!-- Node26 -->
<g id="node26" class="node">
<title>Node26</title>
<g id="a_node26"><a xlink:title=" ">
<polygon fill="white" stroke="#bfbfbf" points="908,-112.5 908,-131.5 1020,-131.5 1020,-112.5 908,-112.5"/>
<text text-anchor="middle" x="964" y="-119.5" font-family="Helvetica,sans-Serif" font-size="10.00">boost/tokenizer.hpp</text>
</a>
</g>
</g>
<!-- Node23&#45;&gt;Node26 -->
<g id="edge39" class="edge">
<title>Node23&#45;&gt;Node26</title>
<path fill="none" stroke="midnightblue" d="M1080.13,-168.44C1057.22,-159.48 1021.02,-145.31 995.13,-135.18"/>
<polygon fill="midnightblue" stroke="midnightblue" points="996.35,-131.9 985.76,-131.52 993.8,-138.42 996.35,-131.9"/>
</g>
<!-- Node27 -->
<g id="node27" class="node">
<title>Node27</title>
<g id="a_node27"><a xlink:title=" ">
<polygon fill="white" stroke="#bfbfbf" points="885,-56.5 885,-75.5 935,-75.5 935,-56.5 885,-56.5"/>
<text text-anchor="middle" x="910" y="-63.5" font-family="Helvetica,sans-Serif" font-size="10.00">chrono</text>
</a>
</g>
</g>
<!-- Node23&#45;&gt;Node27 -->
<g id="edge41" class="edge">
<title>Node23&#45;&gt;Node27</title>
<path fill="none" stroke="midnightblue" d="M1138.35,-172.61C1188.09,-165.19 1267.85,-147.39 1237,-112 1199.42,-68.89 1021.63,-65.65 945.14,-66.31"/>
<polygon fill="midnightblue" stroke="midnightblue" points="945,-62.81 935.04,-66.43 945.08,-69.81 945,-62.81"/>
</g>
<!-- Node28 -->
<g id="node28" class="node">
<title>Node28</title>
<g id="a_node28"><a xlink:title=" ">
<polygon fill="white" stroke="#bfbfbf" points="1038,-112.5 1038,-131.5 1096,-131.5 1096,-112.5 1038,-112.5"/>
<text text-anchor="middle" x="1067" y="-119.5" font-family="Helvetica,sans-Serif" font-size="10.00">memory</text>
</a>
</g>
</g>
<!-- Node23&#45;&gt;Node28 -->
<g id="edge42" class="edge">
<title>Node23&#45;&gt;Node28</title>
<path fill="none" stroke="midnightblue" d="M1096.22,-168.08C1091.33,-160.53 1084.17,-149.49 1078.17,-140.23"/>
<polygon fill="midnightblue" stroke="midnightblue" points="1081.05,-138.24 1072.67,-131.75 1075.17,-142.05 1081.05,-138.24"/>
</g>
<!-- Node29 -->
<g id="node29" class="node">
<title>Node29</title>
<g id="a_node29"><a xlink:title=" ">
<polygon fill="white" stroke="#bfbfbf" points="1114,-112.5 1114,-131.5 1162,-131.5 1162,-112.5 1114,-112.5"/>
<text text-anchor="middle" x="1138" y="-119.5" font-family="Helvetica,sans-Serif" font-size="10.00">mutex</text>
</a>
</g>
</g>
<!-- Node23&#45;&gt;Node29 -->
<g id="edge43" class="edge">
<title>Node23&#45;&gt;Node29</title>
<path fill="none" stroke="midnightblue" d="M1107.94,-168.08C1112.98,-160.53 1120.34,-149.49 1126.51,-140.23"/>
<polygon fill="midnightblue" stroke="midnightblue" points="1129.53,-142.01 1132.17,-131.75 1123.71,-138.13 1129.53,-142.01"/>
</g>
<!-- Node30 -->
<g id="node30" class="node">
<title>Node30</title>
<g id="a_node30"><a xlink:title=" ">
<polygon fill="white" stroke="#bfbfbf" points="1180,-112.5 1180,-131.5 1228,-131.5 1228,-112.5 1180,-112.5"/>
<text text-anchor="middle" x="1204" y="-119.5" font-family="Helvetica,sans-Serif" font-size="10.00">thread</text>
</a>
</g>
</g>
<!-- Node23&#45;&gt;Node30 -->
<g id="edge44" class="edge">
<title>Node23&#45;&gt;Node30</title>
<path fill="none" stroke="midnightblue" d="M1118.39,-168.32C1134.67,-159.7 1159.87,-146.36 1178.72,-136.39"/>
<polygon fill="midnightblue" stroke="midnightblue" points="1180.45,-139.43 1187.65,-131.65 1177.18,-133.24 1180.45,-139.43"/>
</g>
<!-- Node31&#45;&gt;Node7 -->
<g id="edge49" class="edge">
<title>Node31&#45;&gt;Node7</title>
<path fill="none" stroke="midnightblue" d="M1313.53,-228.8C1346.51,-223.17 1400.68,-211.12 1442,-188 1508.67,-150.7 1553.74,-66.31 1571.06,-29.15"/>
<polygon fill="midnightblue" stroke="midnightblue" points="1574.44,-30.17 1575.38,-19.61 1568.06,-27.28 1574.44,-30.17"/>
</g>
<!-- Node31&#45;&gt;Node9 -->
<g id="edge50" class="edge">
<title>Node31&#45;&gt;Node9</title>
<path fill="none" stroke="midnightblue" d="M1254.19,-229.79C1236.2,-227.92 1212.8,-225.63 1192,-224 1045.44,-212.55 583.49,-187.58 455.92,-180.75"/>
<polygon fill="midnightblue" stroke="midnightblue" points="455.8,-177.24 445.63,-180.2 455.43,-184.23 455.8,-177.24"/>
</g>
<!-- Node31&#45;&gt;Node18 -->
<g id="edge51" class="edge">
<title>Node31&#45;&gt;Node18</title>
<path fill="none" stroke="midnightblue" d="M1313.69,-230.77C1344.55,-226.94 1392.4,-216.48 1422,-188 1434.59,-175.89 1440.61,-156.61 1443.48,-142.19"/>
<polygon fill="midnightblue" stroke="midnightblue" points="1447,-142.32 1445.16,-131.89 1440.09,-141.2 1447,-142.32"/>
</g>
<!-- Node32&#45;&gt;Node5 -->
<g id="edge56" class="edge">
<title>Node32&#45;&gt;Node5</title>
<path fill="none" stroke="midnightblue" d="M664.5,-168.46C651.21,-160.92 633.92,-148.53 626,-132 609.9,-98.41 623.02,-53.83 632.8,-29.24"/>
<polygon fill="midnightblue" stroke="midnightblue" points="636.14,-30.31 636.81,-19.73 629.7,-27.58 636.14,-30.31"/>
</g>
<!-- Node32&#45;&gt;Node10 -->
<g id="edge58" class="edge">
<title>Node32&#45;&gt;Node10</title>
<path fill="none" stroke="midnightblue" d="M628.28,-168.44C568.03,-158.85 470.39,-143.29 406.43,-133.1"/>
<polygon fill="midnightblue" stroke="midnightblue" points="406.89,-129.63 396.46,-131.52 405.79,-136.55 406.89,-129.63"/>
</g>
<!-- Node32&#45;&gt;Node13 -->
<g id="edge59" class="edge">
<title>Node32&#45;&gt;Node13</title>
<path fill="none" stroke="midnightblue" d="M655.24,-168.44C629.15,-159.89 588.47,-146.04 554,-132 534.48,-124.05 531.05,-118.51 511,-112 455.79,-94.08 390.71,-82.19 343.72,-75.16"/>
<polygon fill="midnightblue" stroke="midnightblue" points="344.08,-71.67 333.68,-73.69 343.07,-78.6 344.08,-71.67"/>
</g>
<!-- Node32&#45;&gt;Node16 -->
<g id="edge57" class="edge">
<title>Node32&#45;&gt;Node16</title>
<path fill="none" stroke="midnightblue" d="M649.68,-168.44C611.99,-158.47 549.99,-142.06 511.71,-131.92"/>
<polygon fill="midnightblue" stroke="midnightblue" points="512.15,-128.42 501.59,-129.24 510.36,-135.19 512.15,-128.42"/>
</g>
<!-- Node32&#45;&gt;Node18 -->
<g id="edge60" class="edge">
<title>Node32&#45;&gt;Node18</title>
<path fill="none" stroke="midnightblue" d="M747.8,-172.35C894.87,-161.95 1248.25,-136.98 1387.85,-127.11"/>
<polygon fill="midnightblue" stroke="midnightblue" points="1388.19,-130.59 1397.92,-126.4 1387.7,-123.61 1388.19,-130.59"/>
</g>
<!-- Node33 -->
<g id="node33" class="node">
<title>Node33</title>
<g id="a_node33"><a xlink:href="../../d4/d2e/Stopwatch_8h.html" target="_top" xlink:title="This file contains the Stopwatch class which is a utility for measuring time durations in various uni...">
<polygon fill="white" stroke="black" points="634.5,-112.5 634.5,-131.5 729.5,-131.5 729.5,-112.5 634.5,-112.5"/>
<text text-anchor="middle" x="682" y="-119.5" font-family="Helvetica,sans-Serif" font-size="10.00">../../Stopwatch.h</text>
</a>
</g>
</g>
<!-- Node32&#45;&gt;Node33 -->
<g id="edge61" class="edge">
<title>Node32&#45;&gt;Node33</title>
<path fill="none" stroke="midnightblue" d="M682,-168.08C682,-161.01 682,-150.86 682,-141.99"/>
<polygon fill="midnightblue" stroke="midnightblue" points="685.5,-141.75 682,-131.75 678.5,-141.75 685.5,-141.75"/>
</g>
<!-- Node33&#45;&gt;Node27 -->
<g id="edge62" class="edge">
<title>Node33&#45;&gt;Node27</title>
<path fill="none" stroke="midnightblue" d="M718.13,-112.44C761.16,-102.25 832.56,-85.34 875.07,-75.27"/>
<polygon fill="midnightblue" stroke="midnightblue" points="876.03,-78.64 884.96,-72.93 874.42,-71.83 876.03,-78.64"/>
</g>
<!-- Node34&#45;&gt;Node5 -->
<g id="edge65" class="edge">
<title>Node34&#45;&gt;Node5</title>
<path fill="none" stroke="midnightblue" d="M580.22,-224.11C568.13,-210.69 543.65,-185.02 519,-168 485.06,-144.57 423.53,-147.22 445,-112 454.57,-96.3 560.16,-47.28 612.26,-23.8"/>
<polygon fill="midnightblue" stroke="midnightblue" points="613.94,-26.88 621.63,-19.59 611.08,-20.49 613.94,-26.88"/>
</g>
<!-- Node34&#45;&gt;Node10 -->
<g id="edge67" class="edge">
<title>Node34&#45;&gt;Node10</title>
<path fill="none" stroke="midnightblue" d="M576.9,-224.31C559.06,-210.68 522.49,-184.18 488,-168 456.62,-153.28 419.22,-141.81 390.26,-134.13"/>
<polygon fill="midnightblue" stroke="midnightblue" points="390.96,-130.7 380.4,-131.58 389.2,-137.47 390.96,-130.7"/>
</g>
<!-- Node34&#45;&gt;Node16 -->
<g id="edge66" class="edge">
<title>Node34&#45;&gt;Node16</title>
<path fill="none" stroke="midnightblue" d="M586.84,-224.41C584.62,-210.93 578.61,-184.62 564,-168 550.01,-152.09 529.02,-140.95 511.28,-133.74"/>
<polygon fill="midnightblue" stroke="midnightblue" points="512.41,-130.43 501.82,-130.13 509.92,-136.97 512.41,-130.43"/>
</g>
<!-- Node34&#45;&gt;Node32 -->
<g id="edge68" class="edge">
<title>Node34&#45;&gt;Node32</title>
<path fill="none" stroke="midnightblue" d="M603.1,-224.32C617.9,-215.82 640.69,-202.73 657.98,-192.8"/>
<polygon fill="midnightblue" stroke="midnightblue" points="660.01,-195.67 666.93,-187.65 656.52,-189.6 660.01,-195.67"/>
</g>
</g>
</svg>
        <g id="navigator" transform="translate(0 0)" fill="#404254">
                <rect fill="#f2f5e9" fill-opacity="0.5" stroke="#606060" stroke-width=".5" x="0" y="0" width="60" height="60"/>
                <use id="zoomplus" xlink:href="#zoomPlus" x="17" y="9" onmousedown="handleZoom(evt,'in')"/>
                <use id="zoomminus" xlink:href="#zoomMin" x="42" y="9" onmousedown="handleZoom(evt,'out')"/>
                <use id="reset" xlink:href="#resetDef" x="30" y="36" onmousedown="handleReset()"/>
                <g id="arrowUp" xlink:href="#dirArrow" transform="translate(30 24)" onmousedown="handlePan(0,-1)">
                  <use xlink:href="#rim" fill="#404040">
                        <set attributeName="fill" to="#808080" begin="arrowUp.mouseover" end="arrowUp.mouseout"/>
                  </use>
                  <path fill="none" stroke="white" stroke-width="1.5" d="M0,-3.0v7 M-2.5,-0.5L0,-3.0L2.5,-0.5"/>
                </g>
                <g id="arrowRight" xlink:href="#dirArrow" transform="rotate(90) translate(36 -43)" onmousedown="handlePan(1,0)">
                  <use xlink:href="#rim" fill="#404040">
                        <set attributeName="fill" to="#808080" begin="arrowRight.mouseover" end="arrowRight.mouseout"/>
                  </use>
                  <path fill="none" stroke="white" stroke-width="1.5" d="M0,-3.0v7 M-2.5,-0.5L0,-3.0L2.5,-0.5"/>
                </g>
                <g id="arrowDown" xlink:href="#dirArrow" transform="rotate(180) translate(-30 -48)" onmousedown="handlePan(0,1)">
                  <use xlink:href="#rim" fill="#404040">
                        <set attributeName="fill" to="#808080" begin="arrowDown.mouseover" end="arrowDown.mouseout"/>
                  </use>
                  <path fill="none" stroke="white" stroke-width="1.5" d="M0,-3.0v7 M-2.5,-0.5L0,-3.0L2.5,-0.5"/>
                </g>
                <g id="arrowLeft" xlink:href="#dirArrow" transform="rotate(270) translate(-36 17)" onmousedown="handlePan(-1,0)">
                  <use xlink:href="#rim" fill="#404040">
                        <set attributeName="fill" to="#808080" begin="arrowLeft.mouseover" end="arrowLeft.mouseout"/>
                  </use>
                  <path fill="none" stroke="white" stroke-width="1.5" d="M0,-3.0v7 M-2.5,-0.5L0,-3.0L2.5,-0.5"/>
                </g>
        </g>
        <svg viewBox="0 0 15 15" width="100%" height="30px" preserveAspectRatio="xMaxYMin meet">
         <g id="arrow_out" transform="scale(0.3 0.3)">
          <a xlink:href="labs_2outlab5_2main_8cpp__incl_org.svg" target="_base">
           <rect id="button" ry="5" rx="5" y="6" x="6" height="38" width="38"
                fill="#f2f5e9" fill-opacity="0.5" stroke="#606060" stroke-width="1.0"/>
           <path id="arrow"
             d="M 11.500037,31.436501 C 11.940474,20.09759 22.043105,11.32322 32.158766,21.979434 L 37.068811,17.246167 C 37.068811,17.246167 37.088388,32 37.088388,32 L 22.160133,31.978069 C 22.160133,31.978069 26.997745,27.140456 26.997745,27.140456 C 18.528582,18.264221 13.291696,25.230495 11.500037,31.436501 z"
             style="fill:#404040;"/>
          </a>
         </g>
        </svg>
</svg>
