<?xml version="1.0" encoding="UTF-8" standalone="no"?>
<!DOCTYPE svg PUBLIC "-//W3C//DTD SVG 1.1//EN"
 "http://www.w3.org/Graphics/SVG/1.1/DTD/svg11.dtd">
<!-- Generated by graphviz version 2.43.0 (0)
 -->
<!-- Title: src/labs/inlab4/inlab4.h Pages: 1 -->
<!--zoomable 319 -->
<svg id="main" version="1.1" xmlns="http://www.w3.org/2000/svg" xmlns:xlink="http://www.w3.org/1999/xlink" xml:space="preserve" onload="init(evt)">
<style type="text/css"><![CDATA[
.edge:hover path { stroke: red; }
.edge:hover polygon { stroke: red; fill: red; }
]]></style>
<script type="text/javascript"><![CDATA[
var edges = document.getElementsByTagName('g');
if (edges && edges.length) {
  for (var i=0;i<edges.length;i++) {
    if (edges[i].id.substr(0,4)=='edge') {
      edges[i].setAttribute('class','edge');
    }
  }
}
]]></script>
        <defs>
                <circle id="rim" cx="0" cy="0" r="7"/>
                <circle id="rim2" cx="0" cy="0" r="3.5"/>
                <g id="zoomPlus">
                        <use xlink:href="#rim" fill="#404040">
                                <set attributeName="fill" to="#808080" begin="zoomplus.mouseover" end="zoomplus.mouseout"/>
                        </use>
                        <path d="M-4,0h8M0,-4v8" fill="none" stroke="white" stroke-width="1.5" pointer-events="none"/>
                </g>
                <g id="zoomMin">
                        <use xlink:href="#rim" fill="#404040">
                                <set attributeName="fill" to="#808080" begin="zoomminus.mouseover" end="zoomminus.mouseout"/>
                        </use>
                        <path d="M-4,0h8" fill="none" stroke="white" stroke-width="1.5" pointer-events="none"/>
                </g>
                <g id="dirArrow">
                        <path fill="none" stroke="white" stroke-width="1.5" d="M0,-3.0v7 M-2.5,-0.5L0,-3.0L2.5,-0.5"/>
                </g>
               <g id="resetDef">
                       <use xlink:href="#rim2" fill="#404040">
                               <set attributeName="fill" to="#808080" begin="reset.mouseover" end="reset.mouseout"/>
                       </use>
               </g>
        </defs>

<script type="text/javascript">
var viewWidth = 1542;
var viewHeight = 319;
var sectionId = 'dynsection-0';
</script>
<script xlink:href="../../svgpan.js"/>
<svg id="graph" class="graph">
<g id="viewport">
<title>src/labs/inlab4/inlab4.h</title>
<polygon fill="white" stroke="transparent" points="-4,4 -4,-315 1538.19,-315 1538.19,4 -4,4"/>
<!-- Node1 -->
<g id="node1" class="node">
<title>Node1</title>
<g id="a_node1"><a xlink:title=" ">
<polygon fill="#bfbfbf" stroke="black" points="767.5,-291.5 767.5,-310.5 896.5,-310.5 896.5,-291.5 767.5,-291.5"/>
<text text-anchor="middle" x="832" y="-298.5" font-family="Helvetica,sans-Serif" font-size="10.00">src/labs/inlab4/inlab4.h</text>
</a>
</g>
</g>
<!-- Node2 -->
<g id="node2" class="node">
<title>Node2</title>
<g id="a_node2"><a xlink:title=" ">
<polygon fill="white" stroke="#bfbfbf" points="1350,-62 1350,-81 1500,-81 1500,-62 1350,-62"/>
<text text-anchor="middle" x="1425" y="-69" font-family="Helvetica,sans-Serif" font-size="10.00">boost/program_options.hpp</text>
</a>
</g>
</g>
<!-- Node1&#45;&gt;Node2 -->
<g id="edge1" class="edge">
<title>Node1&#45;&gt;Node2</title>
<path fill="none" stroke="midnightblue" d="M896.54,-295.93C996.89,-287.76 1194.83,-264.13 1349,-199 1392.4,-180.67 1416.12,-184.18 1439,-143 1448.06,-126.69 1441.76,-105.39 1434.96,-90.49"/>
<polygon fill="midnightblue" stroke="midnightblue" points="1437.97,-88.69 1430.35,-81.33 1431.72,-91.84 1437.97,-88.69"/>
</g>
<!-- Node3 -->
<g id="node3" class="node">
<title>Node3</title>
<g id="a_node3"><a xlink:title=" ">
<polygon fill="white" stroke="#bfbfbf" points="160,-0.5 160,-19.5 216,-19.5 216,-0.5 160,-0.5"/>
<text text-anchor="middle" x="188" y="-7.5" font-family="Helvetica,sans-Serif" font-size="10.00">iomanip</text>
</a>
</g>
</g>
<!-- Node1&#45;&gt;Node3 -->
<g id="edge2" class="edge">
<title>Node1&#45;&gt;Node3</title>
<path fill="none" stroke="midnightblue" d="M767.41,-298.23C571.92,-292.04 0,-267.31 0,-190 0,-190 0,-190 0,-132 0,-93.19 12.78,-80.36 43,-56 73.7,-31.26 118.03,-20.06 149.58,-15.04"/>
<polygon fill="midnightblue" stroke="midnightblue" points="150.36,-18.46 159.75,-13.56 149.35,-11.53 150.36,-18.46"/>
</g>
<!-- Node4 -->
<g id="node4" class="node">
<title>Node4</title>
<g id="a_node4"><a xlink:title=" ">
<polygon fill="white" stroke="#bfbfbf" points="877,-0.5 877,-19.5 937,-19.5 937,-0.5 877,-0.5"/>
<text text-anchor="middle" x="907" y="-7.5" font-family="Helvetica,sans-Serif" font-size="10.00">iostream</text>
</a>
</g>
</g>
<!-- Node1&#45;&gt;Node4 -->
<g id="edge3" class="edge">
<title>Node1&#45;&gt;Node4</title>
<path fill="none" stroke="midnightblue" d="M896.78,-296.61C1070.57,-286.67 1534,-254.15 1534,-190 1534,-190 1534,-190 1534,-132 1534,-96.44 1537.01,-77.91 1509,-56 1464.89,-21.5 1074.78,-13.24 947.19,-11.45"/>
<polygon fill="midnightblue" stroke="midnightblue" points="947.11,-7.95 937.07,-11.32 947.02,-14.95 947.11,-7.95"/>
</g>
<!-- Node5 -->
<g id="node5" class="node">
<title>Node5</title>
<g id="a_node5"><a xlink:title=" ">
<polygon fill="white" stroke="#bfbfbf" points="705,-235.5 705,-254.5 761,-254.5 761,-235.5 705,-235.5"/>
<text text-anchor="middle" x="733" y="-242.5" font-family="Helvetica,sans-Serif" font-size="10.00">numeric</text>
</a>
</g>
</g>
<!-- Node1&#45;&gt;Node5 -->
<g id="edge4" class="edge">
<title>Node1&#45;&gt;Node5</title>
<path fill="none" stroke="midnightblue" d="M816.09,-291.32C800.36,-282.74 776.06,-269.49 757.79,-259.52"/>
<polygon fill="midnightblue" stroke="midnightblue" points="759.32,-256.37 748.87,-254.65 755.97,-262.52 759.32,-256.37"/>
</g>
<!-- Node6 -->
<g id="node6" class="node">
<title>Node6</title>
<g id="a_node6"><a xlink:title=" ">
<polygon fill="white" stroke="#bfbfbf" points="779.5,-235.5 779.5,-254.5 830.5,-254.5 830.5,-235.5 779.5,-235.5"/>
<text text-anchor="middle" x="805" y="-242.5" font-family="Helvetica,sans-Serif" font-size="10.00">variant</text>
</a>
</g>
</g>
<!-- Node1&#45;&gt;Node6 -->
<g id="edge5" class="edge">
<title>Node1&#45;&gt;Node6</title>
<path fill="none" stroke="midnightblue" d="M827.54,-291.08C823.85,-283.69 818.48,-272.95 813.91,-263.81"/>
<polygon fill="midnightblue" stroke="midnightblue" points="816.98,-262.13 809.38,-254.75 810.72,-265.26 816.98,-262.13"/>
</g>
<!-- Node7 -->
<g id="node7" class="node">
<title>Node7</title>
<g id="a_node7"><a xlink:href="../../d9/d80/labs_2inlab4_2Compute_8h.html" target="_top" xlink:title="Compute methods for inlab4 in NE591&#45;008.">
<polygon fill="white" stroke="black" points="215,-235.5 215,-254.5 285,-254.5 285,-235.5 215,-235.5"/>
<text text-anchor="middle" x="250" y="-242.5" font-family="Helvetica,sans-Serif" font-size="10.00">Compute.h</text>
</a>
</g>
</g>
<!-- Node1&#45;&gt;Node7 -->
<g id="edge6" class="edge">
<title>Node1&#45;&gt;Node7</title>
<path fill="none" stroke="midnightblue" d="M767.49,-294.01C648.6,-282.98 397.72,-259.71 295.15,-250.19"/>
<polygon fill="midnightblue" stroke="midnightblue" points="295.4,-246.7 285.11,-249.26 294.75,-253.67 295.4,-246.7"/>
</g>
<!-- Node14 -->
<g id="node14" class="node">
<title>Node14</title>
<g id="a_node14"><a xlink:href="../../d7/de4/FileParser_8h.html" target="_top" xlink:title="This file contains the definitions for functions that handle file parsing operations.">
<polygon fill="white" stroke="black" points="823,-179.5 823,-198.5 895,-198.5 895,-179.5 823,-179.5"/>
<text text-anchor="middle" x="859" y="-186.5" font-family="Helvetica,sans-Serif" font-size="10.00">FileParser.h</text>
</a>
</g>
</g>
<!-- Node1&#45;&gt;Node14 -->
<g id="edge22" class="edge">
<title>Node1&#45;&gt;Node14</title>
<path fill="none" stroke="midnightblue" d="M834.12,-291.37C838.48,-273.62 848.53,-232.67 854.44,-208.6"/>
<polygon fill="midnightblue" stroke="midnightblue" points="857.91,-209.14 856.89,-198.59 851.11,-207.47 857.91,-209.14"/>
</g>
<!-- Node24 -->
<g id="node24" class="node">
<title>Node24</title>
<g id="a_node24"><a xlink:href="../../d7/db1/labs_2inlab4_2InputsOutputs_8h.html" target="_top" xlink:title="This file contains the input and output definitions for this project.">
<polygon fill="white" stroke="black" points="363,-179.5 363,-198.5 457,-198.5 457,-179.5 363,-179.5"/>
<text text-anchor="middle" x="410" y="-186.5" font-family="Helvetica,sans-Serif" font-size="10.00">InputsOutputs.h</text>
</a>
</g>
</g>
<!-- Node1&#45;&gt;Node24 -->
<g id="edge34" class="edge">
<title>Node1&#45;&gt;Node24</title>
<path fill="none" stroke="midnightblue" d="M799.24,-291.46C723.59,-271.74 536.81,-223.05 452.5,-201.08"/>
<polygon fill="midnightblue" stroke="midnightblue" points="453.3,-197.67 442.74,-198.53 451.54,-204.44 453.3,-197.67"/>
</g>
<!-- Node26 -->
<g id="node26" class="node">
<title>Node26</title>
<g id="a_node26"><a xlink:href="../../df/dde/labs_2inlab4_2Parser_8h.html" target="_top" xlink:title="This file contains the Parser class which is responsible for parsing command line arguments and valid...">
<polygon fill="white" stroke="black" points="887.5,-235.5 887.5,-254.5 942.5,-254.5 942.5,-235.5 887.5,-235.5"/>
<text text-anchor="middle" x="915" y="-242.5" font-family="Helvetica,sans-Serif" font-size="10.00">Parser.h</text>
</a>
</g>
</g>
<!-- Node1&#45;&gt;Node26 -->
<g id="edge39" class="edge">
<title>Node1&#45;&gt;Node26</title>
<path fill="none" stroke="midnightblue" d="M845.34,-291.32C858.16,-282.98 877.78,-270.21 892.94,-260.35"/>
<polygon fill="midnightblue" stroke="midnightblue" points="895.22,-263.04 901.7,-254.65 891.41,-257.17 895.22,-263.04"/>
</g>
<!-- Node33 -->
<g id="node33" class="node">
<title>Node33</title>
<g id="a_node33"><a xlink:href="../../d2/dff/Project_8h.html" target="_top" xlink:title="This file contains the definition of the Project class template. The Project class is a generic class...">
<polygon fill="white" stroke="black" points="1054.5,-235.5 1054.5,-254.5 1113.5,-254.5 1113.5,-235.5 1054.5,-235.5"/>
<text text-anchor="middle" x="1084" y="-242.5" font-family="Helvetica,sans-Serif" font-size="10.00">Project.h</text>
</a>
</g>
</g>
<!-- Node1&#45;&gt;Node33 -->
<g id="edge56" class="edge">
<title>Node1&#45;&gt;Node33</title>
<path fill="none" stroke="midnightblue" d="M871.93,-291.44C919.25,-281.3 997.6,-264.51 1044.66,-254.43"/>
<polygon fill="midnightblue" stroke="midnightblue" points="1045.45,-257.84 1054.49,-252.32 1043.98,-251 1045.45,-257.84"/>
</g>
<!-- Node7&#45;&gt;Node4 -->
<g id="edge8" class="edge">
<title>Node7&#45;&gt;Node4</title>
<path fill="none" stroke="midnightblue" d="M255.87,-235.22C277.23,-204.11 354.44,-98.75 448,-56 522.22,-22.09 769.22,-13.65 866.82,-11.62"/>
<polygon fill="midnightblue" stroke="midnightblue" points="866.95,-15.12 876.88,-11.42 866.81,-8.12 866.95,-15.12"/>
</g>
<!-- Node8 -->
<g id="node8" class="node">
<title>Node8</title>
<g id="a_node8"><a xlink:title=" ">
<polygon fill="white" stroke="#bfbfbf" points="28.5,-123.5 28.5,-142.5 75.5,-142.5 75.5,-123.5 28.5,-123.5"/>
<text text-anchor="middle" x="52" y="-130.5" font-family="Helvetica,sans-Serif" font-size="10.00">cmath</text>
</a>
</g>
</g>
<!-- Node7&#45;&gt;Node8 -->
<g id="edge7" class="edge">
<title>Node7&#45;&gt;Node8</title>
<path fill="none" stroke="midnightblue" d="M214.91,-244.28C175.97,-242.69 113.53,-234.27 75,-199 61.91,-187.02 56.27,-167.12 53.84,-152.49"/>
<polygon fill="midnightblue" stroke="midnightblue" points="57.3,-152.01 52.53,-142.55 50.36,-152.92 57.3,-152.01"/>
</g>
<!-- Node9 -->
<g id="node9" class="node">
<title>Node9</title>
<g id="a_node9"><a xlink:href="../../d3/db1/Matrix_8h.html" target="_top" xlink:title="This file contains my BLAS::Matrix declarations.">
<polygon fill="white" stroke="black" points="132.5,-123.5 132.5,-142.5 241.5,-142.5 241.5,-123.5 132.5,-123.5"/>
<text text-anchor="middle" x="187" y="-130.5" font-family="Helvetica,sans-Serif" font-size="10.00">math/blas/Matrix.h</text>
</a>
</g>
</g>
<!-- Node7&#45;&gt;Node9 -->
<g id="edge9" class="edge">
<title>Node7&#45;&gt;Node9</title>
<path fill="none" stroke="midnightblue" d="M245.06,-235.37C234.71,-217.3 210.58,-175.18 196.91,-151.31"/>
<polygon fill="midnightblue" stroke="midnightblue" points="199.93,-149.53 191.92,-142.59 193.85,-153.01 199.93,-149.53"/>
</g>
<!-- Node12 -->
<g id="node12" class="node">
<title>Node12</title>
<g id="a_node12"><a xlink:href="../../d6/dbe/Vector_8h.html" target="_top" xlink:title="This file contains my BLAS::Vector implementation.">
<polygon fill="white" stroke="black" points="134.5,-62 134.5,-81 241.5,-81 241.5,-62 134.5,-62"/>
<text text-anchor="middle" x="188" y="-69" font-family="Helvetica,sans-Serif" font-size="10.00">math/blas/Vector.h</text>
</a>
</g>
</g>
<!-- Node7&#45;&gt;Node12 -->
<g id="edge21" class="edge">
<title>Node7&#45;&gt;Node12</title>
<path fill="none" stroke="midnightblue" d="M252.57,-235.23C258.12,-214.48 269.36,-161.26 251,-123 243.46,-107.29 228.39,-94.93 214.87,-86.37"/>
<polygon fill="midnightblue" stroke="midnightblue" points="216.27,-83.13 205.88,-81.06 212.71,-89.16 216.27,-83.13"/>
</g>
<!-- Node13 -->
<g id="node13" class="node">
<title>Node13</title>
<g id="a_node13"><a xlink:href="../../d9/d77/MyBLAS_8h.html" target="_top" xlink:title="My BLAS methods for NE591&#45;008.">
<polygon fill="white" stroke="black" points="84,-179.5 84,-198.5 202,-198.5 202,-179.5 84,-179.5"/>
<text text-anchor="middle" x="143" y="-186.5" font-family="Helvetica,sans-Serif" font-size="10.00">math/blas/MyBLAS.h</text>
</a>
</g>
</g>
<!-- Node7&#45;&gt;Node13 -->
<g id="edge17" class="edge">
<title>Node7&#45;&gt;Node13</title>
<path fill="none" stroke="midnightblue" d="M232.81,-235.32C215.65,-226.66 189.05,-213.24 169.25,-203.25"/>
<polygon fill="midnightblue" stroke="midnightblue" points="170.65,-200.04 160.15,-198.65 167.5,-206.28 170.65,-200.04"/>
</g>
<!-- Node9&#45;&gt;Node4 -->
<g id="edge11" class="edge">
<title>Node9&#45;&gt;Node4</title>
<path fill="none" stroke="midnightblue" d="M199.3,-123.42C212.21,-114.39 233.08,-99.76 251,-87 270.19,-73.34 271.86,-64.06 294,-56 399.86,-17.48 748.05,-11.89 866.86,-11.11"/>
<polygon fill="midnightblue" stroke="midnightblue" points="867,-14.61 876.98,-11.05 866.96,-7.61 867,-14.61"/>
</g>
<!-- Node10 -->
<g id="node10" class="node">
<title>Node10</title>
<g id="a_node10"><a xlink:title=" ">
<polygon fill="white" stroke="#bfbfbf" points="52,-62 52,-81 116,-81 116,-62 52,-62"/>
<text text-anchor="middle" x="84" y="-69" font-family="Helvetica,sans-Serif" font-size="10.00">algorithm</text>
</a>
</g>
</g>
<!-- Node9&#45;&gt;Node10 -->
<g id="edge10" class="edge">
<title>Node9&#45;&gt;Node10</title>
<path fill="none" stroke="midnightblue" d="M172.24,-123.48C155.34,-113.71 127.42,-97.58 107.51,-86.08"/>
<polygon fill="midnightblue" stroke="midnightblue" points="109.14,-82.98 98.73,-81.01 105.64,-89.04 109.14,-82.98"/>
</g>
<!-- Node11 -->
<g id="node11" class="node">
<title>Node11</title>
<g id="a_node11"><a xlink:title=" ">
<polygon fill="white" stroke="#bfbfbf" points="16.5,-0.5 16.5,-19.5 63.5,-19.5 63.5,-0.5 16.5,-0.5"/>
<text text-anchor="middle" x="40" y="-7.5" font-family="Helvetica,sans-Serif" font-size="10.00">vector</text>
</a>
</g>
</g>
<!-- Node9&#45;&gt;Node11 -->
<g id="edge12" class="edge">
<title>Node9&#45;&gt;Node11</title>
<path fill="none" stroke="midnightblue" d="M132.45,-129.77C101.08,-125.38 63.87,-114.24 43,-87 30.6,-70.82 32.07,-46.52 35.18,-29.77"/>
<polygon fill="midnightblue" stroke="midnightblue" points="38.69,-30.1 37.45,-19.58 31.86,-28.58 38.69,-30.1"/>
</g>
<!-- Node9&#45;&gt;Node12 -->
<g id="edge13" class="edge">
<title>Node9&#45;&gt;Node12</title>
<path fill="none" stroke="midnightblue" d="M187.14,-123.48C187.28,-115.08 187.5,-101.98 187.69,-91.16"/>
<polygon fill="midnightblue" stroke="midnightblue" points="191.19,-91.07 187.86,-81.01 184.19,-90.95 191.19,-91.07"/>
</g>
<!-- Node12&#45;&gt;Node3 -->
<g id="edge14" class="edge">
<title>Node12&#45;&gt;Node3</title>
<path fill="none" stroke="midnightblue" d="M188,-61.98C188,-53.58 188,-40.48 188,-29.66"/>
<polygon fill="midnightblue" stroke="midnightblue" points="191.5,-29.51 188,-19.51 184.5,-29.51 191.5,-29.51"/>
</g>
<!-- Node12&#45;&gt;Node4 -->
<g id="edge15" class="edge">
<title>Node12&#45;&gt;Node4</title>
<path fill="none" stroke="midnightblue" d="M223.48,-61.95C233.9,-59.7 245.36,-57.49 256,-56 485.71,-23.73 764.42,-14.29 866.8,-11.81"/>
<polygon fill="midnightblue" stroke="midnightblue" points="867.08,-15.3 877,-11.57 866.92,-8.31 867.08,-15.3"/>
</g>
<!-- Node12&#45;&gt;Node11 -->
<g id="edge16" class="edge">
<title>Node12&#45;&gt;Node11</title>
<path fill="none" stroke="midnightblue" d="M166.8,-61.98C141.63,-51.86 99.46,-34.9 70.72,-23.35"/>
<polygon fill="midnightblue" stroke="midnightblue" points="71.75,-19.99 61.17,-19.51 69.14,-26.49 71.75,-19.99"/>
</g>
<!-- Node13&#45;&gt;Node8 -->
<g id="edge18" class="edge">
<title>Node13&#45;&gt;Node8</title>
<path fill="none" stroke="midnightblue" d="M128.38,-179.32C114.05,-170.82 91.99,-157.73 75.25,-147.8"/>
<polygon fill="midnightblue" stroke="midnightblue" points="76.97,-144.75 66.58,-142.65 73.4,-150.77 76.97,-144.75"/>
</g>
<!-- Node13&#45;&gt;Node9 -->
<g id="edge19" class="edge">
<title>Node13&#45;&gt;Node9</title>
<path fill="none" stroke="midnightblue" d="M150.27,-179.08C156.54,-171.38 165.79,-160.03 173.43,-150.65"/>
<polygon fill="midnightblue" stroke="midnightblue" points="176.27,-152.71 179.87,-142.75 170.84,-148.29 176.27,-152.71"/>
</g>
<!-- Node13&#45;&gt;Node12 -->
<g id="edge20" class="edge">
<title>Node13&#45;&gt;Node12</title>
<path fill="none" stroke="midnightblue" d="M136.53,-179.25C127.91,-166.44 114.77,-142.04 124,-123 131.7,-107.12 147.08,-94.73 160.83,-86.2"/>
<polygon fill="midnightblue" stroke="midnightblue" points="162.65,-89.19 169.54,-81.15 159.13,-83.14 162.65,-89.19"/>
</g>
<!-- Node14&#45;&gt;Node4 -->
<g id="edge26" class="edge">
<title>Node14&#45;&gt;Node4</title>
<path fill="none" stroke="midnightblue" d="M895.15,-185.67C949.77,-181.31 1049.27,-169.83 1071,-143 1076.59,-136.09 1076.46,-130.02 1071,-123 1031.02,-71.62 975.8,-132.26 929,-87 913.53,-72.04 908.75,-46.92 907.38,-29.69"/>
<polygon fill="midnightblue" stroke="midnightblue" points="910.87,-29.5 906.89,-19.68 903.88,-29.84 910.87,-29.5"/>
</g>
<!-- Node14&#45;&gt;Node9 -->
<g id="edge32" class="edge">
<title>Node14&#45;&gt;Node9</title>
<path fill="none" stroke="midnightblue" d="M822.87,-185.1C714.49,-176.39 391.05,-150.4 251.87,-139.21"/>
<polygon fill="midnightblue" stroke="midnightblue" points="252.02,-135.71 241.77,-138.4 251.46,-142.69 252.02,-135.71"/>
</g>
<!-- Node15 -->
<g id="node15" class="node">
<title>Node15</title>
<g id="a_node15"><a xlink:title=" ">
<polygon fill="white" stroke="#bfbfbf" points="580,-123.5 580,-142.5 692,-142.5 692,-123.5 580,-123.5"/>
<text text-anchor="middle" x="636" y="-130.5" font-family="Helvetica,sans-Serif" font-size="10.00">boost/tokenizer.hpp</text>
</a>
</g>
</g>
<!-- Node14&#45;&gt;Node15 -->
<g id="edge23" class="edge">
<title>Node14&#45;&gt;Node15</title>
<path fill="none" stroke="midnightblue" d="M823.66,-179.44C785.09,-170.1 723.22,-155.12 681.15,-144.93"/>
<polygon fill="midnightblue" stroke="midnightblue" points="681.71,-141.47 671.17,-142.52 680.07,-148.27 681.71,-141.47"/>
</g>
<!-- Node16 -->
<g id="node16" class="node">
<title>Node16</title>
<g id="a_node16"><a xlink:title=" ">
<polygon fill="white" stroke="#bfbfbf" points="710,-123.5 710,-142.5 778,-142.5 778,-123.5 710,-123.5"/>
<text text-anchor="middle" x="744" y="-130.5" font-family="Helvetica,sans-Serif" font-size="10.00">filesystem</text>
</a>
</g>
</g>
<!-- Node14&#45;&gt;Node16 -->
<g id="edge24" class="edge">
<title>Node14&#45;&gt;Node16</title>
<path fill="none" stroke="midnightblue" d="M840.78,-179.44C822.1,-170.68 792.84,-156.94 771.38,-146.86"/>
<polygon fill="midnightblue" stroke="midnightblue" points="772.68,-143.6 762.14,-142.52 769.7,-149.93 772.68,-143.6"/>
</g>
<!-- Node17 -->
<g id="node17" class="node">
<title>Node17</title>
<g id="a_node17"><a xlink:title=" ">
<polygon fill="white" stroke="#bfbfbf" points="796.5,-123.5 796.5,-142.5 851.5,-142.5 851.5,-123.5 796.5,-123.5"/>
<text text-anchor="middle" x="824" y="-130.5" font-family="Helvetica,sans-Serif" font-size="10.00">fstream</text>
</a>
</g>
</g>
<!-- Node14&#45;&gt;Node17 -->
<g id="edge25" class="edge">
<title>Node14&#45;&gt;Node17</title>
<path fill="none" stroke="midnightblue" d="M853.22,-179.08C848.33,-171.53 841.17,-160.49 835.17,-151.23"/>
<polygon fill="midnightblue" stroke="midnightblue" points="838.05,-149.24 829.67,-142.75 832.17,-153.05 838.05,-149.24"/>
</g>
<!-- Node18 -->
<g id="node18" class="node">
<title>Node18</title>
<g id="a_node18"><a xlink:title=" ">
<polygon fill="white" stroke="#bfbfbf" points="1118,-123.5 1118,-142.5 1162,-142.5 1162,-123.5 1118,-123.5"/>
<text text-anchor="middle" x="1140" y="-130.5" font-family="Helvetica,sans-Serif" font-size="10.00">string</text>
</a>
</g>
</g>
<!-- Node14&#45;&gt;Node18 -->
<g id="edge27" class="edge">
<title>Node14&#45;&gt;Node18</title>
<path fill="none" stroke="midnightblue" d="M895.26,-182.08C943.2,-174.08 1030.25,-158.98 1104,-143 1105.28,-142.72 1106.57,-142.44 1107.88,-142.14"/>
<polygon fill="midnightblue" stroke="midnightblue" points="1109.05,-145.46 1117.97,-139.74 1107.43,-138.65 1109.05,-145.46"/>
</g>
<!-- Node19 -->
<g id="node19" class="node">
<title>Node19</title>
<g id="a_node19"><a xlink:title=" ">
<polygon fill="white" stroke="#bfbfbf" points="870,-123.5 870,-142.5 920,-142.5 920,-123.5 870,-123.5"/>
<text text-anchor="middle" x="895" y="-130.5" font-family="Helvetica,sans-Serif" font-size="10.00">chrono</text>
</a>
</g>
</g>
<!-- Node14&#45;&gt;Node19 -->
<g id="edge28" class="edge">
<title>Node14&#45;&gt;Node19</title>
<path fill="none" stroke="midnightblue" d="M864.94,-179.08C869.98,-171.53 877.34,-160.49 883.51,-151.23"/>
<polygon fill="midnightblue" stroke="midnightblue" points="886.53,-153.01 889.17,-142.75 880.71,-149.13 886.53,-153.01"/>
</g>
<!-- Node20 -->
<g id="node20" class="node">
<title>Node20</title>
<g id="a_node20"><a xlink:title=" ">
<polygon fill="white" stroke="#bfbfbf" points="938,-123.5 938,-142.5 996,-142.5 996,-123.5 938,-123.5"/>
<text text-anchor="middle" x="967" y="-130.5" font-family="Helvetica,sans-Serif" font-size="10.00">memory</text>
</a>
</g>
</g>
<!-- Node14&#45;&gt;Node20 -->
<g id="edge29" class="edge">
<title>Node14&#45;&gt;Node20</title>
<path fill="none" stroke="midnightblue" d="M876.35,-179.32C893.67,-170.66 920.52,-157.24 940.5,-147.25"/>
<polygon fill="midnightblue" stroke="midnightblue" points="942.31,-150.26 949.69,-142.65 939.18,-144 942.31,-150.26"/>
</g>
<!-- Node21 -->
<g id="node21" class="node">
<title>Node21</title>
<g id="a_node21"><a xlink:title=" ">
<polygon fill="white" stroke="#bfbfbf" points="1014,-123.5 1014,-142.5 1062,-142.5 1062,-123.5 1014,-123.5"/>
<text text-anchor="middle" x="1038" y="-130.5" font-family="Helvetica,sans-Serif" font-size="10.00">mutex</text>
</a>
</g>
</g>
<!-- Node14&#45;&gt;Node21 -->
<g id="edge30" class="edge">
<title>Node14&#45;&gt;Node21</title>
<path fill="none" stroke="midnightblue" d="M887.36,-179.44C918.99,-169.9 970.12,-154.48 1003.9,-144.29"/>
<polygon fill="midnightblue" stroke="midnightblue" points="1005.23,-147.54 1013.79,-141.3 1003.2,-140.84 1005.23,-147.54"/>
</g>
<!-- Node22 -->
<g id="node22" class="node">
<title>Node22</title>
<g id="a_node22"><a xlink:title=" ">
<polygon fill="white" stroke="#bfbfbf" points="514,-123.5 514,-142.5 562,-142.5 562,-123.5 514,-123.5"/>
<text text-anchor="middle" x="538" y="-130.5" font-family="Helvetica,sans-Serif" font-size="10.00">thread</text>
</a>
</g>
</g>
<!-- Node14&#45;&gt;Node22 -->
<g id="edge31" class="edge">
<title>Node14&#45;&gt;Node22</title>
<path fill="none" stroke="midnightblue" d="M822.84,-183.66C769.86,-177.02 667.88,-163.16 571.94,-143"/>
<polygon fill="midnightblue" stroke="midnightblue" points="572.58,-139.56 562.07,-140.9 571.13,-146.4 572.58,-139.56"/>
</g>
<!-- Node23 -->
<g id="node23" class="node">
<title>Node23</title>
<g id="a_node23"><a xlink:title=" ">
<polygon fill="white" stroke="#bfbfbf" points="457,-62 457,-81 515,-81 515,-62 457,-62"/>
<text text-anchor="middle" x="486" y="-69" font-family="Helvetica,sans-Serif" font-size="10.00">json.hpp</text>
</a>
</g>
</g>
<!-- Node14&#45;&gt;Node23 -->
<g id="edge33" class="edge">
<title>Node14&#45;&gt;Node23</title>
<path fill="none" stroke="midnightblue" d="M822.81,-185.67C737.41,-179.85 528.7,-163.66 505,-143 490.54,-130.4 486.54,-108.07 485.68,-91.91"/>
<polygon fill="midnightblue" stroke="midnightblue" points="489.17,-91.41 485.51,-81.47 482.17,-91.52 489.17,-91.41"/>
</g>
<!-- Node24&#45;&gt;Node9 -->
<g id="edge37" class="edge">
<title>Node24&#45;&gt;Node9</title>
<path fill="none" stroke="midnightblue" d="M374.66,-179.44C336.09,-170.1 274.22,-155.12 232.15,-144.93"/>
<polygon fill="midnightblue" stroke="midnightblue" points="232.71,-141.47 222.17,-142.52 231.07,-148.27 232.71,-141.47"/>
</g>
<!-- Node24&#45;&gt;Node12 -->
<g id="edge38" class="edge">
<title>Node24&#45;&gt;Node12</title>
<path fill="none" stroke="midnightblue" d="M393.31,-179.32C354.81,-159.29 259.54,-109.72 213.6,-85.82"/>
<polygon fill="midnightblue" stroke="midnightblue" points="215.06,-82.64 204.58,-81.12 211.83,-88.84 215.06,-82.64"/>
</g>
<!-- Node24&#45;&gt;Node23 -->
<g id="edge36" class="edge">
<title>Node24&#45;&gt;Node23</title>
<path fill="none" stroke="midnightblue" d="M406.26,-179.36C401.22,-166.26 393.94,-141.01 404,-123 413.84,-105.39 432.62,-93.16 449.72,-85.15"/>
<polygon fill="midnightblue" stroke="midnightblue" points="451.21,-88.32 458.99,-81.13 448.42,-81.9 451.21,-88.32"/>
</g>
<!-- Node25 -->
<g id="node25" class="node">
<title>Node25</title>
<g id="a_node25"><a xlink:title=" ">
<polygon fill="white" stroke="#bfbfbf" points="412.5,-123.5 412.5,-142.5 457.5,-142.5 457.5,-123.5 412.5,-123.5"/>
<text text-anchor="middle" x="435" y="-130.5" font-family="Helvetica,sans-Serif" font-size="10.00">utility</text>
</a>
</g>
</g>
<!-- Node24&#45;&gt;Node25 -->
<g id="edge35" class="edge">
<title>Node24&#45;&gt;Node25</title>
<path fill="none" stroke="midnightblue" d="M414.13,-179.08C417.51,-171.77 422.42,-161.18 426.62,-152.1"/>
<polygon fill="midnightblue" stroke="midnightblue" points="429.92,-153.3 430.95,-142.75 423.57,-150.36 429.92,-153.3"/>
</g>
<!-- Node26&#45;&gt;Node14 -->
<g id="edge53" class="edge">
<title>Node26&#45;&gt;Node14</title>
<path fill="none" stroke="midnightblue" d="M906,-235.32C897.81,-227.42 885.49,-215.55 875.53,-205.94"/>
<polygon fill="midnightblue" stroke="midnightblue" points="877.79,-203.26 868.16,-198.83 872.93,-208.29 877.79,-203.26"/>
</g>
<!-- Node26&#45;&gt;Node24 -->
<g id="edge55" class="edge">
<title>Node26&#45;&gt;Node24</title>
<path fill="none" stroke="midnightblue" d="M887.23,-240.57C873.1,-238.84 855.64,-236.76 840,-235 706.59,-220.02 549.71,-204 467.27,-195.71"/>
<polygon fill="midnightblue" stroke="midnightblue" points="467.41,-192.21 457.11,-194.69 466.71,-199.18 467.41,-192.21"/>
</g>
<!-- Node27 -->
<g id="node27" class="node">
<title>Node27</title>
<g id="a_node27"><a xlink:href="../../d9/d41/CommandLine_8h.html" target="_top" xlink:title="This file contains the definition of the CommandLine class and the HeaderInfo struct.">
<polygon fill="white" stroke="black" points="1164,-179.5 1164,-198.5 1260,-198.5 1260,-179.5 1164,-179.5"/>
<text text-anchor="middle" x="1212" y="-186.5" font-family="Helvetica,sans-Serif" font-size="10.00">CommandLine.h</text>
</a>
</g>
</g>
<!-- Node26&#45;&gt;Node27 -->
<g id="edge40" class="edge">
<title>Node26&#45;&gt;Node27</title>
<path fill="none" stroke="midnightblue" d="M942.67,-238.97C990.99,-230.18 1091.66,-211.88 1155.3,-200.31"/>
<polygon fill="midnightblue" stroke="midnightblue" points="1155.97,-203.74 1165.18,-198.51 1154.72,-196.86 1155.97,-203.74"/>
</g>
<!-- Node28 -->
<g id="node28" class="node">
<title>Node28</title>
<g id="a_node28"><a xlink:href="../../db/df1/Helpers_8h.html" target="_top" xlink:title="This file contains helper functions and structures used throughout the program.">
<polygon fill="white" stroke="black" points="1180.5,-123.5 1180.5,-142.5 1243.5,-142.5 1243.5,-123.5 1180.5,-123.5"/>
<text text-anchor="middle" x="1212" y="-130.5" font-family="Helvetica,sans-Serif" font-size="10.00">Helpers.h</text>
</a>
</g>
</g>
<!-- Node26&#45;&gt;Node28 -->
<g id="edge54" class="edge">
<title>Node26&#45;&gt;Node28</title>
<path fill="none" stroke="midnightblue" d="M938.31,-235.37C990.9,-215.89 1118.91,-168.48 1179.36,-146.09"/>
<polygon fill="midnightblue" stroke="midnightblue" points="1180.64,-149.35 1188.8,-142.59 1178.21,-142.78 1180.64,-149.35"/>
</g>
<!-- Node27&#45;&gt;Node2 -->
<g id="edge50" class="edge">
<title>Node27&#45;&gt;Node2</title>
<path fill="none" stroke="midnightblue" d="M1260.21,-181.89C1309.17,-174.77 1380.6,-161.56 1401,-143 1415.47,-129.84 1421.22,-107.61 1423.5,-91.63"/>
<polygon fill="midnightblue" stroke="midnightblue" points="1427.02,-91.64 1424.63,-81.32 1420.06,-90.88 1427.02,-91.64"/>
</g>
<!-- Node27&#45;&gt;Node4 -->
<g id="edge51" class="edge">
<title>Node27&#45;&gt;Node4</title>
<path fill="none" stroke="midnightblue" d="M1224.37,-179.23C1254.43,-156.89 1326.26,-96.77 1290,-56 1267.48,-30.68 1041.06,-17.26 947.31,-12.76"/>
<polygon fill="midnightblue" stroke="midnightblue" points="947.24,-9.25 937.08,-12.28 946.91,-16.24 947.24,-9.25"/>
</g>
<!-- Node27&#45;&gt;Node18 -->
<g id="edge52" class="edge">
<title>Node27&#45;&gt;Node18</title>
<path fill="none" stroke="midnightblue" d="M1200.43,-179.32C1189.58,-171.18 1173.12,-158.84 1160.12,-149.09"/>
<polygon fill="midnightblue" stroke="midnightblue" points="1161.88,-146.03 1151.78,-142.83 1157.68,-151.63 1161.88,-146.03"/>
</g>
<!-- Node27&#45;&gt;Node28 -->
<g id="edge41" class="edge">
<title>Node27&#45;&gt;Node28</title>
<path fill="none" stroke="midnightblue" d="M1212,-179.08C1212,-172.01 1212,-161.86 1212,-152.99"/>
<polygon fill="midnightblue" stroke="midnightblue" points="1215.5,-152.75 1212,-142.75 1208.5,-152.75 1215.5,-152.75"/>
</g>
<!-- Node32 -->
<g id="node32" class="node">
<title>Node32</title>
<g id="a_node32"><a xlink:title=" ">
<polygon fill="white" stroke="#bfbfbf" points="1300,-123.5 1300,-142.5 1392,-142.5 1392,-123.5 1300,-123.5"/>
<text text-anchor="middle" x="1346" y="-130.5" font-family="Helvetica,sans-Serif" font-size="10.00">project&#45;config.h</text>
</a>
</g>
</g>
<!-- Node27&#45;&gt;Node32 -->
<g id="edge49" class="edge">
<title>Node27&#45;&gt;Node32</title>
<path fill="none" stroke="midnightblue" d="M1233.23,-179.44C1255.38,-170.52 1290.32,-156.44 1315.44,-146.32"/>
<polygon fill="midnightblue" stroke="midnightblue" points="1316.9,-149.5 1324.87,-142.52 1314.28,-143.01 1316.9,-149.5"/>
</g>
<!-- Node28&#45;&gt;Node2 -->
<g id="edge46" class="edge">
<title>Node28&#45;&gt;Node2</title>
<path fill="none" stroke="midnightblue" d="M1242.52,-123.48C1279.92,-113.03 1343.43,-95.29 1384.79,-83.73"/>
<polygon fill="midnightblue" stroke="midnightblue" points="1385.85,-87.07 1394.54,-81.01 1383.97,-80.33 1385.85,-87.07"/>
</g>
<!-- Node28&#45;&gt;Node3 -->
<g id="edge42" class="edge">
<title>Node28&#45;&gt;Node3</title>
<path fill="none" stroke="midnightblue" d="M1180.28,-124.7C1177.15,-124.08 1174.02,-123.5 1171,-123 805.59,-62.24 358.23,-24.37 226.31,-13.94"/>
<polygon fill="midnightblue" stroke="midnightblue" points="226.54,-10.45 216.3,-13.15 225.99,-17.43 226.54,-10.45"/>
</g>
<!-- Node28&#45;&gt;Node4 -->
<g id="edge43" class="edge">
<title>Node28&#45;&gt;Node4</title>
<path fill="none" stroke="midnightblue" d="M1180.24,-124.89C1177.12,-124.23 1174,-123.59 1171,-123 1079.81,-105.03 1044.43,-135.26 965,-87 942.23,-73.17 925.22,-46.81 915.69,-29.06"/>
<polygon fill="midnightblue" stroke="midnightblue" points="918.61,-27.1 910.96,-19.77 912.38,-30.27 918.61,-27.1"/>
</g>
<!-- Node28&#45;&gt;Node23 -->
<g id="edge45" class="edge">
<title>Node28&#45;&gt;Node23</title>
<path fill="none" stroke="midnightblue" d="M1180.3,-124.57C1177.17,-123.98 1174.03,-123.44 1171,-123 1138.91,-118.32 666.54,-85.11 525.48,-75.25"/>
<polygon fill="midnightblue" stroke="midnightblue" points="525.37,-71.74 515.15,-74.53 524.88,-78.72 525.37,-71.74"/>
</g>
<!-- Node29 -->
<g id="node29" class="node">
<title>Node29</title>
<g id="a_node29"><a xlink:title=" ">
<polygon fill="white" stroke="#bfbfbf" points="1105,-62 1105,-81 1149,-81 1149,-62 1105,-62"/>
<text text-anchor="middle" x="1127" y="-69" font-family="Helvetica,sans-Serif" font-size="10.00">limits</text>
</a>
</g>
</g>
<!-- Node28&#45;&gt;Node29 -->
<g id="edge44" class="edge">
<title>Node28&#45;&gt;Node29</title>
<path fill="none" stroke="midnightblue" d="M1199.82,-123.48C1186.19,-113.93 1163.87,-98.31 1147.53,-86.87"/>
<polygon fill="midnightblue" stroke="midnightblue" points="1149.36,-83.88 1139.16,-81.01 1145.34,-89.61 1149.36,-83.88"/>
</g>
<!-- Node30 -->
<g id="node30" class="node">
<title>Node30</title>
<g id="a_node30"><a xlink:title=" ">
<polygon fill="white" stroke="#bfbfbf" points="1167.5,-56.5 1167.5,-86.5 1280.5,-86.5 1280.5,-56.5 1167.5,-56.5"/>
<text text-anchor="start" x="1175.5" y="-74.5" font-family="Helvetica,sans-Serif" font-size="10.00">boost/accumulators</text>
<text text-anchor="middle" x="1224" y="-63.5" font-family="Helvetica,sans-Serif" font-size="10.00">/accumulators.hpp</text>
</a>
</g>
</g>
<!-- Node28&#45;&gt;Node30 -->
<g id="edge47" class="edge">
<title>Node28&#45;&gt;Node30</title>
<path fill="none" stroke="midnightblue" d="M1213.72,-123.48C1215.15,-116.4 1217.25,-105.97 1219.18,-96.39"/>
<polygon fill="midnightblue" stroke="midnightblue" points="1222.63,-97.02 1221.17,-86.52 1215.76,-95.63 1222.63,-97.02"/>
</g>
<!-- Node31 -->
<g id="node31" class="node">
<title>Node31</title>
<g id="a_node31"><a xlink:title=" ">
<polygon fill="white" stroke="#bfbfbf" points="973.5,-56.5 973.5,-86.5 1086.5,-86.5 1086.5,-56.5 973.5,-56.5"/>
<text text-anchor="start" x="981.5" y="-74.5" font-family="Helvetica,sans-Serif" font-size="10.00">boost/accumulators</text>
<text text-anchor="middle" x="1030" y="-63.5" font-family="Helvetica,sans-Serif" font-size="10.00">/statistics.hpp</text>
</a>
</g>
</g>
<!-- Node28&#45;&gt;Node31 -->
<g id="edge48" class="edge">
<title>Node28&#45;&gt;Node31</title>
<path fill="none" stroke="midnightblue" d="M1185.92,-123.48C1159.09,-114.7 1116.53,-100.79 1082.65,-89.71"/>
<polygon fill="midnightblue" stroke="midnightblue" points="1083.49,-86.3 1072.89,-86.52 1081.31,-92.96 1083.49,-86.3"/>
</g>
<!-- Node33&#45;&gt;Node2 -->
<g id="edge58" class="edge">
<title>Node33&#45;&gt;Node2</title>
<path fill="none" stroke="midnightblue" d="M1113.53,-239.69C1188.64,-228.07 1383.61,-193.5 1421,-143 1431.92,-128.25 1431.44,-106.65 1429.15,-91.25"/>
<polygon fill="midnightblue" stroke="midnightblue" points="1432.58,-90.51 1427.31,-81.32 1425.69,-91.79 1432.58,-90.51"/>
</g>
<!-- Node33&#45;&gt;Node25 -->
<g id="edge59" class="edge">
<title>Node33&#45;&gt;Node25</title>
<path fill="none" stroke="midnightblue" d="M1054.43,-239.12C1004.75,-230.91 901.39,-213.78 814,-199 685.86,-177.33 533.46,-151.03 467.78,-139.67"/>
<polygon fill="midnightblue" stroke="midnightblue" points="468.08,-136.18 457.63,-137.92 466.89,-143.07 468.08,-136.18"/>
</g>
<!-- Node33&#45;&gt;Node27 -->
<g id="edge57" class="edge">
<title>Node33&#45;&gt;Node27</title>
<path fill="none" stroke="midnightblue" d="M1104.28,-235.44C1125.35,-226.56 1158.52,-212.56 1182.49,-202.45"/>
<polygon fill="midnightblue" stroke="midnightblue" points="1183.96,-205.63 1191.81,-198.52 1181.24,-199.18 1183.96,-205.63"/>
</g>
</g>
</svg>
        <g id="navigator" transform="translate(0 0)" fill="#404254">
                <rect fill="#f2f5e9" fill-opacity="0.5" stroke="#606060" stroke-width=".5" x="0" y="0" width="60" height="60"/>
                <use id="zoomplus" xlink:href="#zoomPlus" x="17" y="9" onmousedown="handleZoom(evt,'in')"/>
                <use id="zoomminus" xlink:href="#zoomMin" x="42" y="9" onmousedown="handleZoom(evt,'out')"/>
                <use id="reset" xlink:href="#resetDef" x="30" y="36" onmousedown="handleReset()"/>
                <g id="arrowUp" xlink:href="#dirArrow" transform="translate(30 24)" onmousedown="handlePan(0,-1)">
                  <use xlink:href="#rim" fill="#404040">
                        <set attributeName="fill" to="#808080" begin="arrowUp.mouseover" end="arrowUp.mouseout"/>
                  </use>
                  <path fill="none" stroke="white" stroke-width="1.5" d="M0,-3.0v7 M-2.5,-0.5L0,-3.0L2.5,-0.5"/>
                </g>
                <g id="arrowRight" xlink:href="#dirArrow" transform="rotate(90) translate(36 -43)" onmousedown="handlePan(1,0)">
                  <use xlink:href="#rim" fill="#404040">
                        <set attributeName="fill" to="#808080" begin="arrowRight.mouseover" end="arrowRight.mouseout"/>
                  </use>
                  <path fill="none" stroke="white" stroke-width="1.5" d="M0,-3.0v7 M-2.5,-0.5L0,-3.0L2.5,-0.5"/>
                </g>
                <g id="arrowDown" xlink:href="#dirArrow" transform="rotate(180) translate(-30 -48)" onmousedown="handlePan(0,1)">
                  <use xlink:href="#rim" fill="#404040">
                        <set attributeName="fill" to="#808080" begin="arrowDown.mouseover" end="arrowDown.mouseout"/>
                  </use>
                  <path fill="none" stroke="white" stroke-width="1.5" d="M0,-3.0v7 M-2.5,-0.5L0,-3.0L2.5,-0.5"/>
                </g>
                <g id="arrowLeft" xlink:href="#dirArrow" transform="rotate(270) translate(-36 17)" onmousedown="handlePan(-1,0)">
                  <use xlink:href="#rim" fill="#404040">
                        <set attributeName="fill" to="#808080" begin="arrowLeft.mouseover" end="arrowLeft.mouseout"/>
                  </use>
                  <path fill="none" stroke="white" stroke-width="1.5" d="M0,-3.0v7 M-2.5,-0.5L0,-3.0L2.5,-0.5"/>
                </g>
        </g>
        <svg viewBox="0 0 15 15" width="100%" height="30px" preserveAspectRatio="xMaxYMin meet">
         <g id="arrow_out" transform="scale(0.3 0.3)">
          <a xlink:href="inlab4_8h__incl_org.svg" target="_base">
           <rect id="button" ry="5" rx="5" y="6" x="6" height="38" width="38"
                fill="#f2f5e9" fill-opacity="0.5" stroke="#606060" stroke-width="1.0"/>
           <path id="arrow"
             d="M 11.500037,31.436501 C 11.940474,20.09759 22.043105,11.32322 32.158766,21.979434 L 37.068811,17.246167 C 37.068811,17.246167 37.088388,32 37.088388,32 L 22.160133,31.978069 C 22.160133,31.978069 26.997745,27.140456 26.997745,27.140456 C 18.528582,18.264221 13.291696,25.230495 11.500037,31.436501 z"
             style="fill:#404040;"/>
          </a>
         </g>
        </svg>
</svg>
