<?xml version="1.0" encoding="UTF-8" standalone="no"?>
<!DOCTYPE svg PUBLIC "-//W3C//DTD SVG 1.1//EN"
 "http://www.w3.org/Graphics/SVG/1.1/DTD/svg11.dtd">
<!-- Generated by graphviz version 2.43.0 (0)
 -->
<!-- Title: src/utils/FileParser.h Pages: 1 -->
<svg width="1025pt" height="319pt"
 viewBox="0.00 0.00 1025.00 319.00" xmlns="http://www.w3.org/2000/svg" xmlns:xlink="http://www.w3.org/1999/xlink">
<g id="graph0" class="graph" transform="scale(1 1) rotate(0) translate(4 315)">
<title>src/utils/FileParser.h</title>
<polygon fill="white" stroke="transparent" points="-4,4 -4,-315 1021,-315 1021,4 -4,4"/>
<!-- Node1 -->
<g id="node1" class="node">
<title>Node1</title>
<g id="a_node1"><a xlink:title="This file contains the definitions for functions that handle file parsing operations.">
<polygon fill="#bfbfbf" stroke="black" points="433.5,-291.5 433.5,-310.5 546.5,-310.5 546.5,-291.5 433.5,-291.5"/>
<text text-anchor="middle" x="490" y="-298.5" font-family="Helvetica,sans-Serif" font-size="10.00">src/utils/FileParser.h</text>
</a>
</g>
</g>
<!-- Node2 -->
<g id="node2" class="node">
<title>Node2</title>
<g id="a_node2"><a xlink:title=" ">
<polygon fill="white" stroke="#bfbfbf" points="0,-235.5 0,-254.5 112,-254.5 112,-235.5 0,-235.5"/>
<text text-anchor="middle" x="56" y="-242.5" font-family="Helvetica,sans-Serif" font-size="10.00">boost/tokenizer.hpp</text>
</a>
</g>
</g>
<!-- Node1&#45;&gt;Node2 -->
<g id="edge1" class="edge">
<title>Node1&#45;&gt;Node2</title>
<path fill="none" stroke="midnightblue" d="M433.39,-293.39C362.98,-285.09 238.84,-270.26 122.19,-255.14"/>
<polygon fill="midnightblue" stroke="midnightblue" points="122.38,-251.63 112.01,-253.81 121.48,-258.57 122.38,-251.63"/>
</g>
<!-- Node3 -->
<g id="node3" class="node">
<title>Node3</title>
<g id="a_node3"><a xlink:title=" ">
<polygon fill="white" stroke="#bfbfbf" points="130,-235.5 130,-254.5 198,-254.5 198,-235.5 130,-235.5"/>
<text text-anchor="middle" x="164" y="-242.5" font-family="Helvetica,sans-Serif" font-size="10.00">filesystem</text>
</a>
</g>
</g>
<!-- Node1&#45;&gt;Node3 -->
<g id="edge2" class="edge">
<title>Node1&#45;&gt;Node3</title>
<path fill="none" stroke="midnightblue" d="M433.48,-291.84C378.44,-283.71 292.16,-270.46 208.2,-255.15"/>
<polygon fill="midnightblue" stroke="midnightblue" points="208.71,-251.69 198.24,-253.32 207.44,-258.57 208.71,-251.69"/>
</g>
<!-- Node4 -->
<g id="node4" class="node">
<title>Node4</title>
<g id="a_node4"><a xlink:title=" ">
<polygon fill="white" stroke="#bfbfbf" points="216.5,-235.5 216.5,-254.5 271.5,-254.5 271.5,-235.5 216.5,-235.5"/>
<text text-anchor="middle" x="244" y="-242.5" font-family="Helvetica,sans-Serif" font-size="10.00">fstream</text>
</a>
</g>
</g>
<!-- Node1&#45;&gt;Node4 -->
<g id="edge3" class="edge">
<title>Node1&#45;&gt;Node4</title>
<path fill="none" stroke="midnightblue" d="M451.02,-291.44C404.54,-281.24 327.41,-264.31 281.57,-254.25"/>
<polygon fill="midnightblue" stroke="midnightblue" points="282.25,-250.81 271.73,-252.09 280.74,-257.65 282.25,-250.81"/>
</g>
<!-- Node5 -->
<g id="node5" class="node">
<title>Node5</title>
<g id="a_node5"><a xlink:title=" ">
<polygon fill="white" stroke="#bfbfbf" points="854,-123.5 854,-142.5 914,-142.5 914,-123.5 854,-123.5"/>
<text text-anchor="middle" x="884" y="-130.5" font-family="Helvetica,sans-Serif" font-size="10.00">iostream</text>
</a>
</g>
</g>
<!-- Node1&#45;&gt;Node5 -->
<g id="edge4" class="edge">
<title>Node1&#45;&gt;Node5</title>
<path fill="none" stroke="midnightblue" d="M546.6,-298.3C628.54,-294.83 775.12,-284.58 818,-255 853.83,-230.28 872.07,-179.58 879.62,-152.32"/>
<polygon fill="midnightblue" stroke="midnightblue" points="883.04,-153.07 882.15,-142.51 876.26,-151.32 883.04,-153.07"/>
</g>
<!-- Node6 -->
<g id="node6" class="node">
<title>Node6</title>
<g id="a_node6"><a xlink:title=" ">
<polygon fill="white" stroke="#bfbfbf" points="403,-235.5 403,-254.5 447,-254.5 447,-235.5 403,-235.5"/>
<text text-anchor="middle" x="425" y="-242.5" font-family="Helvetica,sans-Serif" font-size="10.00">string</text>
</a>
</g>
</g>
<!-- Node1&#45;&gt;Node6 -->
<g id="edge5" class="edge">
<title>Node1&#45;&gt;Node6</title>
<path fill="none" stroke="midnightblue" d="M479.56,-291.32C469.85,-283.26 455.18,-271.08 443.5,-261.37"/>
<polygon fill="midnightblue" stroke="midnightblue" points="445.56,-258.53 435.63,-254.83 441.09,-263.92 445.56,-258.53"/>
</g>
<!-- Node7 -->
<g id="node7" class="node">
<title>Node7</title>
<g id="a_node7"><a xlink:title=" ">
<polygon fill="white" stroke="#bfbfbf" points="465,-235.5 465,-254.5 515,-254.5 515,-235.5 465,-235.5"/>
<text text-anchor="middle" x="490" y="-242.5" font-family="Helvetica,sans-Serif" font-size="10.00">chrono</text>
</a>
</g>
</g>
<!-- Node1&#45;&gt;Node7 -->
<g id="edge6" class="edge">
<title>Node1&#45;&gt;Node7</title>
<path fill="none" stroke="midnightblue" d="M490,-291.08C490,-284.01 490,-273.86 490,-264.99"/>
<polygon fill="midnightblue" stroke="midnightblue" points="493.5,-264.75 490,-254.75 486.5,-264.75 493.5,-264.75"/>
</g>
<!-- Node8 -->
<g id="node8" class="node">
<title>Node8</title>
<g id="a_node8"><a xlink:title=" ">
<polygon fill="white" stroke="#bfbfbf" points="138,-62 138,-81 196,-81 196,-62 138,-62"/>
<text text-anchor="middle" x="167" y="-69" font-family="Helvetica,sans-Serif" font-size="10.00">memory</text>
</a>
</g>
</g>
<!-- Node1&#45;&gt;Node8 -->
<g id="edge7" class="edge">
<title>Node1&#45;&gt;Node8</title>
<path fill="none" stroke="midnightblue" d="M458.34,-291.45C411.84,-277.73 324.02,-247.36 263,-199 223.53,-167.72 191.51,-116.67 176.4,-90"/>
<polygon fill="midnightblue" stroke="midnightblue" points="179.36,-88.11 171.46,-81.05 173.24,-91.5 179.36,-88.11"/>
</g>
<!-- Node9 -->
<g id="node9" class="node">
<title>Node9</title>
<g id="a_node9"><a xlink:title=" ">
<polygon fill="white" stroke="#bfbfbf" points="695,-235.5 695,-254.5 743,-254.5 743,-235.5 695,-235.5"/>
<text text-anchor="middle" x="719" y="-242.5" font-family="Helvetica,sans-Serif" font-size="10.00">mutex</text>
</a>
</g>
</g>
<!-- Node1&#45;&gt;Node9 -->
<g id="edge8" class="edge">
<title>Node1&#45;&gt;Node9</title>
<path fill="none" stroke="midnightblue" d="M529.16,-291.5C566.71,-283.24 625.24,-270.08 684.91,-255.2"/>
<polygon fill="midnightblue" stroke="midnightblue" points="686.03,-258.53 694.88,-252.7 684.33,-251.74 686.03,-258.53"/>
</g>
<!-- Node10 -->
<g id="node10" class="node">
<title>Node10</title>
<g id="a_node10"><a xlink:title=" ">
<polygon fill="white" stroke="#bfbfbf" points="761,-235.5 761,-254.5 809,-254.5 809,-235.5 761,-235.5"/>
<text text-anchor="middle" x="785" y="-242.5" font-family="Helvetica,sans-Serif" font-size="10.00">thread</text>
</a>
</g>
</g>
<!-- Node1&#45;&gt;Node10 -->
<g id="edge9" class="edge">
<title>Node1&#45;&gt;Node10</title>
<path fill="none" stroke="midnightblue" d="M546.52,-291.9C597.51,-284.23 674.72,-271.72 750.69,-255.12"/>
<polygon fill="midnightblue" stroke="midnightblue" points="751.91,-258.43 760.92,-252.86 750.4,-251.6 751.91,-258.43"/>
</g>
<!-- Node11 -->
<g id="node11" class="node">
<title>Node11</title>
<g id="a_node11"><a xlink:href="../../d3/db1/Matrix_8h.html" target="_top" xlink:title="Header file for the MyBLAS::Matrix class.">
<polygon fill="white" stroke="black" points="533,-235.5 533,-254.5 677,-254.5 677,-235.5 533,-235.5"/>
<text text-anchor="middle" x="605" y="-242.5" font-family="Helvetica,sans-Serif" font-size="10.00">math/blas/matrix/Matrix.h</text>
</a>
</g>
</g>
<!-- Node1&#45;&gt;Node11 -->
<g id="edge10" class="edge">
<title>Node1&#45;&gt;Node11</title>
<path fill="none" stroke="midnightblue" d="M508.22,-291.44C526.9,-282.68 556.16,-268.94 577.62,-258.86"/>
<polygon fill="midnightblue" stroke="midnightblue" points="579.3,-261.93 586.86,-254.52 576.32,-255.6 579.3,-261.93"/>
</g>
<!-- Node26 -->
<g id="node26" class="node">
<title>Node26</title>
<g id="a_node26"><a xlink:title=" ">
<polygon fill="white" stroke="#bfbfbf" points="959,-235.5 959,-254.5 1017,-254.5 1017,-235.5 959,-235.5"/>
<text text-anchor="middle" x="988" y="-242.5" font-family="Helvetica,sans-Serif" font-size="10.00">json.hpp</text>
</a>
</g>
</g>
<!-- Node1&#45;&gt;Node26 -->
<g id="edge39" class="edge">
<title>Node1&#45;&gt;Node26</title>
<path fill="none" stroke="midnightblue" d="M546.64,-296.37C632.94,-290.39 802.4,-276.91 945,-255 946.27,-254.8 947.56,-254.6 948.87,-254.38"/>
<polygon fill="midnightblue" stroke="midnightblue" points="949.73,-257.78 958.93,-252.53 948.47,-250.89 949.73,-257.78"/>
</g>
<!-- Node11&#45;&gt;Node5 -->
<g id="edge13" class="edge">
<title>Node11&#45;&gt;Node5</title>
<path fill="none" stroke="midnightblue" d="M626.89,-235.37C676.09,-215.97 795.56,-168.87 852.63,-146.37"/>
<polygon fill="midnightblue" stroke="midnightblue" points="854.19,-149.52 862.21,-142.59 851.62,-143 854.19,-149.52"/>
</g>
<!-- Node12 -->
<g id="node12" class="node">
<title>Node12</title>
<g id="a_node12"><a xlink:title=" ">
<polygon fill="white" stroke="#bfbfbf" points="634,-62 634,-81 698,-81 698,-62 634,-62"/>
<text text-anchor="middle" x="666" y="-69" font-family="Helvetica,sans-Serif" font-size="10.00">algorithm</text>
</a>
</g>
</g>
<!-- Node11&#45;&gt;Node12 -->
<g id="edge11" class="edge">
<title>Node11&#45;&gt;Node12</title>
<path fill="none" stroke="midnightblue" d="M608.38,-235.4C615.19,-218.03 630.9,-177.47 643,-143 649.18,-125.38 655.74,-105.1 660.27,-90.83"/>
<polygon fill="midnightblue" stroke="midnightblue" points="663.63,-91.81 663.29,-81.22 656.95,-89.71 663.63,-91.81"/>
</g>
<!-- Node13 -->
<g id="node13" class="node">
<title>Node13</title>
<g id="a_node13"><a xlink:title=" ">
<polygon fill="white" stroke="#bfbfbf" points="516,-123.5 516,-142.5 568,-142.5 568,-123.5 516,-123.5"/>
<text text-anchor="middle" x="542" y="-130.5" font-family="Helvetica,sans-Serif" font-size="10.00">cassert</text>
</a>
</g>
</g>
<!-- Node11&#45;&gt;Node13 -->
<g id="edge12" class="edge">
<title>Node11&#45;&gt;Node13</title>
<path fill="none" stroke="midnightblue" d="M600.06,-235.37C589.71,-217.3 565.58,-175.18 551.91,-151.31"/>
<polygon fill="midnightblue" stroke="midnightblue" points="554.93,-149.53 546.92,-142.59 548.85,-153.01 554.93,-149.53"/>
</g>
<!-- Node14 -->
<g id="node14" class="node">
<title>Node14</title>
<g id="a_node14"><a xlink:title=" ">
<polygon fill="white" stroke="#bfbfbf" points="586.5,-123.5 586.5,-142.5 633.5,-142.5 633.5,-123.5 586.5,-123.5"/>
<text text-anchor="middle" x="610" y="-130.5" font-family="Helvetica,sans-Serif" font-size="10.00">vector</text>
</a>
</g>
</g>
<!-- Node11&#45;&gt;Node14 -->
<g id="edge14" class="edge">
<title>Node11&#45;&gt;Node14</title>
<path fill="none" stroke="midnightblue" d="M605.39,-235.37C606.2,-217.62 608.06,-176.67 609.15,-152.6"/>
<polygon fill="midnightblue" stroke="midnightblue" points="612.65,-152.74 609.61,-142.59 605.66,-152.42 612.65,-152.74"/>
</g>
<!-- Node15 -->
<g id="node15" class="node">
<title>Node15</title>
<g id="a_node15"><a xlink:title=" ">
<polygon fill="white" stroke="#bfbfbf" points="883,-62 883,-81 969,-81 969,-62 883,-62"/>
<text text-anchor="middle" x="926" y="-69" font-family="Helvetica,sans-Serif" font-size="10.00">unordered_set</text>
</a>
</g>
</g>
<!-- Node11&#45;&gt;Node15 -->
<g id="edge15" class="edge">
<title>Node11&#45;&gt;Node15</title>
<path fill="none" stroke="midnightblue" d="M654.45,-235.45C735.4,-220.35 890.48,-186.4 923,-143 934,-128.33 933.16,-106.71 930.57,-91.29"/>
<polygon fill="midnightblue" stroke="midnightblue" points="933.96,-90.43 928.51,-81.34 927.11,-91.84 933.96,-90.43"/>
</g>
<!-- Node16 -->
<g id="node16" class="node">
<title>Node16</title>
<g id="a_node16"><a xlink:href="../../d1/d45/Constants_8h.html" target="_top" xlink:title="MyBLAS Constants definition.">
<polygon fill="white" stroke="black" points="272,-179.5 272,-198.5 398,-198.5 398,-179.5 272,-179.5"/>
<text text-anchor="middle" x="335" y="-186.5" font-family="Helvetica,sans-Serif" font-size="10.00">math/blas/Constants.h</text>
</a>
</g>
</g>
<!-- Node11&#45;&gt;Node16 -->
<g id="edge16" class="edge">
<title>Node11&#45;&gt;Node16</title>
<path fill="none" stroke="midnightblue" d="M562.22,-235.44C514.82,-225.96 438.37,-210.67 387.42,-200.48"/>
<polygon fill="midnightblue" stroke="midnightblue" points="388.07,-197.05 377.58,-198.52 386.7,-203.91 388.07,-197.05"/>
</g>
<!-- Node17 -->
<g id="node17" class="node">
<title>Node17</title>
<g id="a_node17"><a xlink:href="../../d6/dbe/Vector_8h.html" target="_top" xlink:title="Header file for the MyBLAS::Vector class.">
<polygon fill="white" stroke="black" points="416.5,-179.5 416.5,-198.5 557.5,-198.5 557.5,-179.5 416.5,-179.5"/>
<text text-anchor="middle" x="487" y="-186.5" font-family="Helvetica,sans-Serif" font-size="10.00">math/blas/vector/Vector.h</text>
</a>
</g>
</g>
<!-- Node11&#45;&gt;Node17 -->
<g id="edge17" class="edge">
<title>Node11&#45;&gt;Node17</title>
<path fill="none" stroke="midnightblue" d="M586.3,-235.44C567.06,-226.64 536.85,-212.81 514.8,-202.72"/>
<polygon fill="midnightblue" stroke="midnightblue" points="516.16,-199.5 505.61,-198.52 513.25,-205.86 516.16,-199.5"/>
</g>
<!-- Node24 -->
<g id="node24" class="node">
<title>Node24</title>
<g id="a_node24"><a xlink:href="../../dc/dc5/ResourceMonitor_8h.html" target="_top" xlink:title="Header file for the ResourceMonitor class.">
<polygon fill="white" stroke="black" points="690.5,-123.5 690.5,-142.5 835.5,-142.5 835.5,-123.5 690.5,-123.5"/>
<text text-anchor="middle" x="763" y="-130.5" font-family="Helvetica,sans-Serif" font-size="10.00">profiler/ResourceMonitor.h</text>
</a>
</g>
</g>
<!-- Node11&#45;&gt;Node24 -->
<g id="edge38" class="edge">
<title>Node11&#45;&gt;Node24</title>
<path fill="none" stroke="midnightblue" d="M619.35,-235.35C633.84,-226.51 656.77,-212.25 676,-199 699.8,-182.6 726.29,-162.54 743.71,-149.08"/>
<polygon fill="midnightblue" stroke="midnightblue" points="746.19,-151.59 751.94,-142.69 741.89,-146.06 746.19,-151.59"/>
</g>
<!-- Node17&#45;&gt;Node5 -->
<g id="edge21" class="edge">
<title>Node17&#45;&gt;Node5</title>
<path fill="none" stroke="midnightblue" d="M557.63,-181.27C627.8,-174.09 738.66,-161.44 843.68,-143.08"/>
<polygon fill="midnightblue" stroke="midnightblue" points="844.59,-146.47 853.83,-141.28 843.37,-139.58 844.59,-146.47"/>
</g>
<!-- Node17&#45;&gt;Node13 -->
<g id="edge18" class="edge">
<title>Node17&#45;&gt;Node13</title>
<path fill="none" stroke="midnightblue" d="M496.08,-179.08C504.17,-171.14 516.2,-159.34 525.91,-149.8"/>
<polygon fill="midnightblue" stroke="midnightblue" points="528.4,-152.25 533.09,-142.75 523.5,-147.26 528.4,-152.25"/>
</g>
<!-- Node17&#45;&gt;Node14 -->
<g id="edge22" class="edge">
<title>Node17&#45;&gt;Node14</title>
<path fill="none" stroke="midnightblue" d="M506.49,-179.44C526.64,-170.6 558.32,-156.69 581.33,-146.59"/>
<polygon fill="midnightblue" stroke="midnightblue" points="582.85,-149.74 590.6,-142.52 580.04,-143.33 582.85,-149.74"/>
</g>
<!-- Node18 -->
<g id="node18" class="node">
<title>Node18</title>
<g id="a_node18"><a xlink:title=" ">
<polygon fill="white" stroke="#bfbfbf" points="550.5,-62 550.5,-81 615.5,-81 615.5,-62 550.5,-62"/>
<text text-anchor="middle" x="583" y="-69" font-family="Helvetica,sans-Serif" font-size="10.00">functional</text>
</a>
</g>
</g>
<!-- Node17&#45;&gt;Node18 -->
<g id="edge19" class="edge">
<title>Node17&#45;&gt;Node18</title>
<path fill="none" stroke="midnightblue" d="M487.82,-179.16C489.46,-165.81 494.14,-140.22 507,-123 519.12,-106.77 538.1,-94.15 554.06,-85.58"/>
<polygon fill="midnightblue" stroke="midnightblue" points="555.71,-88.67 563.03,-81.02 552.53,-82.43 555.71,-88.67"/>
</g>
<!-- Node19 -->
<g id="node19" class="node">
<title>Node19</title>
<g id="a_node19"><a xlink:title=" ">
<polygon fill="white" stroke="#bfbfbf" points="308,-123.5 308,-142.5 364,-142.5 364,-123.5 308,-123.5"/>
<text text-anchor="middle" x="336" y="-130.5" font-family="Helvetica,sans-Serif" font-size="10.00">iomanip</text>
</a>
</g>
</g>
<!-- Node17&#45;&gt;Node19 -->
<g id="edge20" class="edge">
<title>Node17&#45;&gt;Node19</title>
<path fill="none" stroke="midnightblue" d="M463.07,-179.44C437.78,-170.4 397.7,-156.06 369.32,-145.92"/>
<polygon fill="midnightblue" stroke="midnightblue" points="370.41,-142.59 359.81,-142.52 368.05,-149.18 370.41,-142.59"/>
</g>
<!-- Node20 -->
<g id="node20" class="node">
<title>Node20</title>
<g id="a_node20"><a xlink:href="../../de/dcb/LazyVector_8h.html" target="_top" xlink:title="Header file for the LazyVector class.">
<polygon fill="white" stroke="black" points="382,-123.5 382,-142.5 460,-142.5 460,-123.5 382,-123.5"/>
<text text-anchor="middle" x="421" y="-130.5" font-family="Helvetica,sans-Serif" font-size="10.00">LazyVector.h</text>
</a>
</g>
</g>
<!-- Node17&#45;&gt;Node20 -->
<g id="edge23" class="edge">
<title>Node17&#45;&gt;Node20</title>
<path fill="none" stroke="midnightblue" d="M471.28,-179.32C459.91,-171.42 445.03,-159.55 434.26,-149.94"/>
<polygon fill="midnightblue" stroke="midnightblue" points="436.35,-147.1 426.65,-142.83 431.57,-152.22 436.35,-147.1"/>
</g>
<!-- Node17&#45;&gt;Node24 -->
<g id="edge33" class="edge">
<title>Node17&#45;&gt;Node24</title>
<path fill="none" stroke="midnightblue" d="M530.73,-179.44C579.18,-169.96 657.33,-154.67 709.42,-144.48"/>
<polygon fill="midnightblue" stroke="midnightblue" points="710.33,-147.87 719.47,-142.52 708.99,-141 710.33,-147.87"/>
</g>
<!-- Node20&#45;&gt;Node8 -->
<g id="edge27" class="edge">
<title>Node20&#45;&gt;Node8</title>
<path fill="none" stroke="midnightblue" d="M381.73,-124.6C328.85,-114.49 237.62,-96.56 205,-87 202.42,-86.24 199.77,-85.39 197.12,-84.49"/>
<polygon fill="midnightblue" stroke="midnightblue" points="198.3,-81.19 187.7,-81.08 195.91,-87.78 198.3,-81.19"/>
</g>
<!-- Node20&#45;&gt;Node12 -->
<g id="edge24" class="edge">
<title>Node20&#45;&gt;Node12</title>
<path fill="none" stroke="midnightblue" d="M460.08,-124.86C501.41,-116.97 568.34,-103.2 625,-87 627.79,-86.2 630.67,-85.32 633.54,-84.39"/>
<polygon fill="midnightblue" stroke="midnightblue" points="634.82,-87.65 643.17,-81.13 632.58,-81.02 634.82,-87.65"/>
</g>
<!-- Node20&#45;&gt;Node17 -->
<g id="edge28" class="edge">
<title>Node20&#45;&gt;Node17</title>
<path fill="none" stroke="midnightblue" d="M436.57,-142.57C448.03,-150.53 463.11,-162.56 473.94,-172.24"/>
<polygon fill="midnightblue" stroke="midnightblue" points="471.57,-174.82 481.27,-179.08 476.35,-169.7 471.57,-174.82"/>
</g>
<!-- Node20&#45;&gt;Node18 -->
<g id="edge26" class="edge">
<title>Node20&#45;&gt;Node18</title>
<path fill="none" stroke="midnightblue" d="M444.21,-123.48C472,-113.27 518.72,-96.11 550.19,-84.55"/>
<polygon fill="midnightblue" stroke="midnightblue" points="551.65,-87.74 559.83,-81.01 549.24,-81.17 551.65,-87.74"/>
</g>
<!-- Node21 -->
<g id="node21" class="node">
<title>Node21</title>
<g id="a_node21"><a xlink:title=" ">
<polygon fill="white" stroke="#bfbfbf" points="443.5,-0.5 443.5,-19.5 496.5,-19.5 496.5,-0.5 443.5,-0.5"/>
<text text-anchor="middle" x="470" y="-7.5" font-family="Helvetica,sans-Serif" font-size="10.00">cstddef</text>
</a>
</g>
</g>
<!-- Node20&#45;&gt;Node21 -->
<g id="edge25" class="edge">
<title>Node20&#45;&gt;Node21</title>
<path fill="none" stroke="midnightblue" d="M452.81,-123.38C470.95,-116.66 492.16,-105.31 503,-87 514.5,-67.57 499.5,-43.4 486.17,-27.61"/>
<polygon fill="midnightblue" stroke="midnightblue" points="488.4,-24.86 479.11,-19.78 483.2,-29.55 488.4,-24.86"/>
</g>
<!-- Node22 -->
<g id="node22" class="node">
<title>Node22</title>
<g id="a_node22"><a xlink:href="../../d6/d9f/VectorExpression_8h.html" target="_top" xlink:title="Header file for the MyBLAS::VectorExpression class.">
<polygon fill="white" stroke="black" points="214,-62 214,-81 324,-81 324,-62 214,-62"/>
<text text-anchor="middle" x="269" y="-69" font-family="Helvetica,sans-Serif" font-size="10.00">VectorExpression.h</text>
</a>
</g>
</g>
<!-- Node20&#45;&gt;Node22 -->
<g id="edge29" class="edge">
<title>Node20&#45;&gt;Node22</title>
<path fill="none" stroke="midnightblue" d="M399.22,-123.48C373.26,-113.31 329.69,-96.26 300.17,-84.7"/>
<polygon fill="midnightblue" stroke="midnightblue" points="301.33,-81.4 290.74,-81.01 298.77,-87.91 301.33,-81.4"/>
</g>
<!-- Node23 -->
<g id="node23" class="node">
<title>Node23</title>
<g id="a_node23"><a xlink:href="../../d6/db1/ContainerExpression_8h.html" target="_top" xlink:title="Header file for the ContainerExpression class.">
<polygon fill="white" stroke="black" points="342.5,-56.5 342.5,-86.5 493.5,-86.5 493.5,-56.5 342.5,-56.5"/>
<text text-anchor="start" x="350.5" y="-74.5" font-family="Helvetica,sans-Serif" font-size="10.00">math/blas/matrix/Container</text>
<text text-anchor="middle" x="418" y="-63.5" font-family="Helvetica,sans-Serif" font-size="10.00">Expression.h</text>
</a>
</g>
</g>
<!-- Node20&#45;&gt;Node23 -->
<g id="edge31" class="edge">
<title>Node20&#45;&gt;Node23</title>
<path fill="none" stroke="midnightblue" d="M420.57,-123.48C420.22,-116.47 419.7,-106.19 419.22,-96.7"/>
<polygon fill="midnightblue" stroke="midnightblue" points="422.71,-96.33 418.71,-86.52 415.72,-96.69 422.71,-96.33"/>
</g>
<!-- Node22&#45;&gt;Node21 -->
<g id="edge30" class="edge">
<title>Node22&#45;&gt;Node21</title>
<path fill="none" stroke="midnightblue" d="M297.8,-61.98C333.57,-51.39 394.64,-33.31 433.61,-21.77"/>
<polygon fill="midnightblue" stroke="midnightblue" points="434.9,-25.04 443.5,-18.85 432.92,-18.33 434.9,-25.04"/>
</g>
<!-- Node23&#45;&gt;Node21 -->
<g id="edge32" class="edge">
<title>Node23&#45;&gt;Node21</title>
<path fill="none" stroke="midnightblue" d="M430.32,-56.4C437.96,-47.66 447.79,-36.41 455.76,-27.3"/>
<polygon fill="midnightblue" stroke="midnightblue" points="458.49,-29.49 462.43,-19.66 453.22,-24.88 458.49,-29.49"/>
</g>
<!-- Node24&#45;&gt;Node12 -->
<g id="edge34" class="edge">
<title>Node24&#45;&gt;Node12</title>
<path fill="none" stroke="midnightblue" d="M749.1,-123.48C733.33,-113.8 707.36,-97.87 688.65,-86.39"/>
<polygon fill="midnightblue" stroke="midnightblue" points="690.23,-83.25 679.87,-81.01 686.57,-89.22 690.23,-83.25"/>
</g>
<!-- Node24&#45;&gt;Node15 -->
<g id="edge36" class="edge">
<title>Node24&#45;&gt;Node15</title>
<path fill="none" stroke="midnightblue" d="M786.35,-123.48C814.31,-113.27 861.33,-96.11 892.99,-84.55"/>
<polygon fill="midnightblue" stroke="midnightblue" points="894.5,-87.73 902.69,-81.01 892.1,-81.15 894.5,-87.73"/>
</g>
<!-- Node24&#45;&gt;Node21 -->
<g id="edge35" class="edge">
<title>Node24&#45;&gt;Node21</title>
<path fill="none" stroke="midnightblue" d="M759.24,-123.27C751.82,-107.13 733.63,-72.76 707,-56 674.21,-35.37 565.06,-21.06 507.02,-14.7"/>
<polygon fill="midnightblue" stroke="midnightblue" points="507.13,-11.2 496.81,-13.61 506.38,-18.16 507.13,-11.2"/>
</g>
<!-- Node25 -->
<g id="node25" class="node">
<title>Node25</title>
<g id="a_node25"><a xlink:title=" ">
<polygon fill="white" stroke="#bfbfbf" points="754.5,-62 754.5,-81 847.5,-81 847.5,-62 754.5,-62"/>
<text text-anchor="middle" x="801" y="-69" font-family="Helvetica,sans-Serif" font-size="10.00">unordered_map</text>
</a>
</g>
</g>
<!-- Node24&#45;&gt;Node25 -->
<g id="edge37" class="edge">
<title>Node24&#45;&gt;Node25</title>
<path fill="none" stroke="midnightblue" d="M768.44,-123.48C774.09,-114.64 783.06,-100.59 790.16,-89.48"/>
<polygon fill="midnightblue" stroke="midnightblue" points="793.13,-91.32 795.57,-81.01 787.23,-87.55 793.13,-91.32"/>
</g>
</g>
</svg>
