<?xml version="1.0" encoding="UTF-8" standalone="no"?>
<!DOCTYPE svg PUBLIC "-//W3C//DTD SVG 1.1//EN"
 "http://www.w3.org/Graphics/SVG/1.1/DTD/svg11.dtd">
<!-- Generated by graphviz version 2.43.0 (0)
 -->
<!-- Title: ArgsPrintMatrix Pages: 1 -->
<!--zoomable 375 -->
<svg id="main" version="1.1" xmlns="http://www.w3.org/2000/svg" xmlns:xlink="http://www.w3.org/1999/xlink" xml:space="preserve" onload="init(evt)">
<style type="text/css"><![CDATA[
.edge:hover path { stroke: red; }
.edge:hover polygon { stroke: red; fill: red; }
]]></style>
<script type="text/javascript"><![CDATA[
var edges = document.getElementsByTagName('g');
if (edges && edges.length) {
  for (var i=0;i<edges.length;i++) {
    if (edges[i].id.substr(0,4)=='edge') {
      edges[i].setAttribute('class','edge');
    }
  }
}
]]></script>
        <defs>
                <circle id="rim" cx="0" cy="0" r="7"/>
                <circle id="rim2" cx="0" cy="0" r="3.5"/>
                <g id="zoomPlus">
                        <use xlink:href="#rim" fill="#404040">
                                <set attributeName="fill" to="#808080" begin="zoomplus.mouseover" end="zoomplus.mouseout"/>
                        </use>
                        <path d="M-4,0h8M0,-4v8" fill="none" stroke="white" stroke-width="1.5" pointer-events="none"/>
                </g>
                <g id="zoomMin">
                        <use xlink:href="#rim" fill="#404040">
                                <set attributeName="fill" to="#808080" begin="zoomminus.mouseover" end="zoomminus.mouseout"/>
                        </use>
                        <path d="M-4,0h8" fill="none" stroke="white" stroke-width="1.5" pointer-events="none"/>
                </g>
                <g id="dirArrow">
                        <path fill="none" stroke="white" stroke-width="1.5" d="M0,-3.0v7 M-2.5,-0.5L0,-3.0L2.5,-0.5"/>
                </g>
               <g id="resetDef">
                       <use xlink:href="#rim2" fill="#404040">
                               <set attributeName="fill" to="#808080" begin="reset.mouseover" end="reset.mouseout"/>
                       </use>
               </g>
        </defs>

<script type="text/javascript">
var viewWidth = 1469;
var viewHeight = 375;
var sectionId = 'dynsection-0';
</script>
<script xlink:href="../../svgpan.js"/>
<svg id="graph" class="graph">
<g id="viewport">
<title>ArgsPrintMatrix</title>
<polygon fill="white" stroke="transparent" points="-4,4 -4,-371 1464.5,-371 1464.5,4 -4,4"/>
<!-- Node1 -->
<g id="node1" class="node">
<title>Node1</title>
<g id="a_node1"><a xlink:title="A struct to hold the arguments for the printMatrix function.">
<polygon fill="#bfbfbf" stroke="black" points="652.5,-0.5 652.5,-68.5 744.5,-68.5 744.5,-0.5 652.5,-0.5"/>
<text text-anchor="middle" x="698.5" y="-56.5" font-family="Helvetica,sans-Serif" font-size="10.00">ArgsPrintMatrix</text>
<polyline fill="none" stroke="black" points="652.5,-49.5 744.5,-49.5 "/>
<text text-anchor="start" x="660.5" y="-37.5" font-family="Helvetica,sans-Serif" font-size="10.00">+ start_row</text>
<text text-anchor="start" x="660.5" y="-26.5" font-family="Helvetica,sans-Serif" font-size="10.00">and 4 more...</text>
<polyline fill="none" stroke="black" points="652.5,-19.5 744.5,-19.5 "/>
<text text-anchor="middle" x="698.5" y="-7.5" font-family="Helvetica,sans-Serif" font-size="10.00"> </text>
</a>
</g>
</g>
<!-- Node2 -->
<g id="node2" class="node">
<title>Node2</title>
<g id="a_node2"><a xlink:href="../../d4/dae/structInput.html" target="_top" xlink:title="Struct representing the input parameters for the Newton&#45;Cotes integration methods.">
<polygon fill="white" stroke="black" points="655,-116.5 655,-195.5 742,-195.5 742,-116.5 655,-116.5"/>
<text text-anchor="middle" x="698.5" y="-183.5" font-family="Helvetica,sans-Serif" font-size="10.00">Input</text>
<polyline fill="none" stroke="black" points="655,-176.5 742,-176.5 "/>
<text text-anchor="start" x="663" y="-164.5" font-family="Helvetica,sans-Serif" font-size="10.00">+ x</text>
<text text-anchor="start" x="663" y="-153.5" font-family="Helvetica,sans-Serif" font-size="10.00">and 17 more...</text>
<polyline fill="none" stroke="black" points="655,-146.5 742,-146.5 "/>
<text text-anchor="start" x="663" y="-134.5" font-family="Helvetica,sans-Serif" font-size="10.00">+ toJSON()</text>
<text text-anchor="start" x="663" y="-123.5" font-family="Helvetica,sans-Serif" font-size="10.00">and 13 more...</text>
</a>
</g>
</g>
<!-- Node2&#45;&gt;Node1 -->
<g id="edge1" class="edge">
<title>Node2&#45;&gt;Node1</title>
<path fill="none" stroke="#404040" d="M698.5,-116.2C698.5,-104.99 698.5,-92.65 698.5,-81.07"/>
<polygon fill="none" stroke="#404040" points="698.5,-80.89 694.5,-74.89 698.5,-68.89 702.5,-74.89 698.5,-80.89"/>
<text text-anchor="middle" x="735" y="-90" font-family="Helvetica,sans-Serif" font-size="10.00"> +inputParams</text>
</g>
<!-- Node3 -->
<g id="node3" class="node">
<title>Node3</title>
<g id="a_node3"><a xlink:href="../../d0/d27/classMyBLAS_1_1Matrix.html" target="_top" xlink:title=" ">
<polygon fill="white" stroke="black" points="0,-271 0,-361 127,-361 127,-271 0,-271"/>
<text text-anchor="start" x="8" y="-349" font-family="Helvetica,sans-Serif" font-size="10.00">MyBLAS::Matrix&lt; long</text>
<text text-anchor="middle" x="63.5" y="-338" font-family="Helvetica,sans-Serif" font-size="10.00"> double &gt;</text>
<polyline fill="none" stroke="black" points="0,-331 127,-331 "/>
<text text-anchor="start" x="8" y="-319" font-family="Helvetica,sans-Serif" font-size="10.00"># data</text>
<polyline fill="none" stroke="black" points="0,-312 127,-312 "/>
<text text-anchor="start" x="8" y="-300" font-family="Helvetica,sans-Serif" font-size="10.00">+ Matrix()</text>
<text text-anchor="start" x="8" y="-289" font-family="Helvetica,sans-Serif" font-size="10.00">and 24 more...</text>
<text text-anchor="start" x="8" y="-278" font-family="Helvetica,sans-Serif" font-size="10.00">+ eye()</text>
</a>
</g>
</g>
<!-- Node3&#45;&gt;Node2 -->
<g id="edge2" class="edge">
<title>Node3&#45;&gt;Node2</title>
<path fill="none" stroke="#404040" d="M120.51,-270.82C150.86,-249.78 189.84,-226.53 228.5,-214 372.82,-167.23 553.34,-158.27 642.85,-156.91"/>
<polygon fill="none" stroke="#404040" points="642.86,-156.91 648.82,-152.84 654.86,-156.77 648.91,-160.84 642.86,-156.91"/>
<text text-anchor="middle" x="261" y="-239" font-family="Helvetica,sans-Serif" font-size="10.00"> +LU</text>
<text text-anchor="middle" x="261" y="-228" font-family="Helvetica,sans-Serif" font-size="10.00">+coefficients</text>
<text text-anchor="middle" x="261" y="-217" font-family="Helvetica,sans-Serif" font-size="10.00">+sources</text>
</g>
<!-- Node4 -->
<g id="node4" class="node">
<title>Node4</title>
<g id="a_node4"><a xlink:href="../../d4/d4d/classMyBLAS_1_1Vector.html" target="_top" xlink:title=" ">
<polygon fill="white" stroke="black" points="145.5,-271 145.5,-361 271.5,-361 271.5,-271 145.5,-271"/>
<text text-anchor="start" x="153.5" y="-349" font-family="Helvetica,sans-Serif" font-size="10.00">MyBLAS::Vector&lt; long</text>
<text text-anchor="middle" x="208.5" y="-338" font-family="Helvetica,sans-Serif" font-size="10.00"> double &gt;</text>
<polyline fill="none" stroke="black" points="145.5,-331 271.5,-331 "/>
<text text-anchor="start" x="153.5" y="-319" font-family="Helvetica,sans-Serif" font-size="10.00"># data</text>
<text text-anchor="start" x="153.5" y="-308" font-family="Helvetica,sans-Serif" font-size="10.00">and 1 more...</text>
<polyline fill="none" stroke="black" points="145.5,-301 271.5,-301 "/>
<text text-anchor="start" x="153.5" y="-289" font-family="Helvetica,sans-Serif" font-size="10.00">+ Vector()</text>
<text text-anchor="start" x="153.5" y="-278" font-family="Helvetica,sans-Serif" font-size="10.00">and 18 more...</text>
</a>
</g>
</g>
<!-- Node4&#45;&gt;Node2 -->
<g id="edge3" class="edge">
<title>Node4&#45;&gt;Node2</title>
<path fill="none" stroke="#404040" d="M261.12,-270.89C288.27,-250.41 322.9,-227.63 357.5,-214 453.18,-176.3 573.53,-163.53 642.67,-159.21"/>
<polygon fill="none" stroke="#404040" points="642.99,-159.19 648.75,-154.85 654.97,-158.5 649.21,-162.84 642.99,-159.19"/>
<text text-anchor="middle" x="407.5" y="-239" font-family="Helvetica,sans-Serif" font-size="10.00"> +constants</text>
<text text-anchor="middle" x="407.5" y="-228" font-family="Helvetica,sans-Serif" font-size="10.00">+diffusionConstants</text>
<text text-anchor="middle" x="407.5" y="-217" font-family="Helvetica,sans-Serif" font-size="10.00">+known_solution</text>
</g>
<!-- Node5 -->
<g id="node5" class="node">
<title>Node5</title>
<g id="a_node5"><a xlink:title=" ">
<polygon fill="white" stroke="#bfbfbf" points="289.5,-287.5 289.5,-344.5 439.5,-344.5 439.5,-287.5 289.5,-287.5"/>
<text text-anchor="middle" x="364.5" y="-332.5" font-family="Helvetica,sans-Serif" font-size="10.00">std::set&lt; IntegrationRule &gt;</text>
<polyline fill="none" stroke="#bfbfbf" points="289.5,-325.5 439.5,-325.5 "/>
<text text-anchor="start" x="297.5" y="-313.5" font-family="Helvetica,sans-Serif" font-size="10.00">+ keys</text>
<polyline fill="none" stroke="#bfbfbf" points="289.5,-306.5 439.5,-306.5 "/>
<text text-anchor="middle" x="364.5" y="-294.5" font-family="Helvetica,sans-Serif" font-size="10.00"> </text>
</a>
</g>
</g>
<!-- Node5&#45;&gt;Node2 -->
<g id="edge4" class="edge">
<title>Node5&#45;&gt;Node2</title>
<path fill="none" stroke="#404040" d="M400.47,-287.31C430.66,-265.1 475.61,-234.38 518.5,-214 558.53,-194.98 606.49,-180.15 642.84,-170.39"/>
<polygon fill="none" stroke="#404040" points="643.08,-170.32 647.87,-164.93 654.69,-167.28 649.9,-172.67 643.08,-170.32"/>
<text text-anchor="middle" x="559.5" y="-228" font-family="Helvetica,sans-Serif" font-size="10.00"> +integral_types</text>
</g>
<!-- Node6 -->
<g id="node6" class="node">
<title>Node6</title>
<g id="a_node6"><a xlink:title=" ">
<polygon fill="white" stroke="#bfbfbf" points="457.5,-287.5 457.5,-344.5 605.5,-344.5 605.5,-287.5 457.5,-287.5"/>
<text text-anchor="middle" x="531.5" y="-332.5" font-family="Helvetica,sans-Serif" font-size="10.00">std::vector&lt; long double &gt;</text>
<polyline fill="none" stroke="#bfbfbf" points="457.5,-325.5 605.5,-325.5 "/>
<text text-anchor="start" x="465.5" y="-313.5" font-family="Helvetica,sans-Serif" font-size="10.00">+ elements</text>
<polyline fill="none" stroke="#bfbfbf" points="457.5,-306.5 605.5,-306.5 "/>
<text text-anchor="middle" x="531.5" y="-294.5" font-family="Helvetica,sans-Serif" font-size="10.00"> </text>
</a>
</g>
</g>
<!-- Node6&#45;&gt;Node2 -->
<g id="edge5" class="edge">
<title>Node6&#45;&gt;Node2</title>
<path fill="none" stroke="#404040" d="M560.59,-287.48C584.79,-264.58 619.79,-231.47 648.48,-204.33"/>
<polygon fill="none" stroke="#404040" points="648.83,-203.99 650.44,-196.96 657.55,-195.75 655.94,-202.78 648.83,-203.99"/>
<text text-anchor="middle" x="657" y="-233.5" font-family="Helvetica,sans-Serif" font-size="10.00"> +fxData</text>
<text text-anchor="middle" x="657" y="-222.5" font-family="Helvetica,sans-Serif" font-size="10.00">+xData</text>
</g>
<!-- Node7 -->
<g id="node7" class="node">
<title>Node7</title>
<g id="a_node7"><a xlink:href="../../d6/d0c/structMyPhysics_1_1Diffusion_1_1Params.html" target="_top" xlink:title=" ">
<polygon fill="white" stroke="black" points="624,-265.5 624,-366.5 773,-366.5 773,-265.5 624,-265.5"/>
<text text-anchor="start" x="632" y="-354.5" font-family="Helvetica,sans-Serif" font-size="10.00">MyPhysics::Diffusion</text>
<text text-anchor="middle" x="698.5" y="-343.5" font-family="Helvetica,sans-Serif" font-size="10.00">::Params&lt; long double &gt;</text>
<polyline fill="none" stroke="black" points="624,-336.5 773,-336.5 "/>
<text text-anchor="start" x="632" y="-324.5" font-family="Helvetica,sans-Serif" font-size="10.00">&#45; _a</text>
<text text-anchor="start" x="632" y="-313.5" font-family="Helvetica,sans-Serif" font-size="10.00">and 8 more...</text>
<polyline fill="none" stroke="black" points="624,-306.5 773,-306.5 "/>
<text text-anchor="start" x="632" y="-294.5" font-family="Helvetica,sans-Serif" font-size="10.00">+ Params()</text>
<text text-anchor="start" x="632" y="-283.5" font-family="Helvetica,sans-Serif" font-size="10.00">and 17 more...</text>
<text text-anchor="start" x="632" y="-272.5" font-family="Helvetica,sans-Serif" font-size="10.00">&#45; compute_mesh_spacing()</text>
</a>
</g>
</g>
<!-- Node7&#45;&gt;Node2 -->
<g id="edge6" class="edge">
<title>Node7&#45;&gt;Node2</title>
<path fill="none" stroke="#404040" d="M698.5,-265.44C698.5,-247.04 698.5,-226.16 698.5,-207.67"/>
<polygon fill="none" stroke="#404040" points="698.5,-207.61 694.5,-201.61 698.5,-195.61 702.5,-201.61 698.5,-207.61"/>
<text text-anchor="middle" x="743.5" y="-228" font-family="Helvetica,sans-Serif" font-size="10.00"> +diffusionParams</text>
</g>
<!-- Node8 -->
<g id="node8" class="node">
<title>Node8</title>
<g id="a_node8"><a xlink:title=" ">
<polygon fill="white" stroke="#bfbfbf" points="791,-287.5 791,-344.5 934,-344.5 934,-287.5 791,-287.5"/>
<text text-anchor="middle" x="862.5" y="-332.5" font-family="Helvetica,sans-Serif" font-size="10.00">std::set&lt; SolverMethod &gt;</text>
<polyline fill="none" stroke="#bfbfbf" points="791,-325.5 934,-325.5 "/>
<text text-anchor="start" x="799" y="-313.5" font-family="Helvetica,sans-Serif" font-size="10.00">+ keys</text>
<polyline fill="none" stroke="#bfbfbf" points="791,-306.5 934,-306.5 "/>
<text text-anchor="middle" x="862.5" y="-294.5" font-family="Helvetica,sans-Serif" font-size="10.00"> </text>
</a>
</g>
</g>
<!-- Node8&#45;&gt;Node2 -->
<g id="edge7" class="edge">
<title>Node8&#45;&gt;Node2</title>
<path fill="none" stroke="#404040" d="M847.66,-287.35C835.03,-265.6 815.34,-235.49 792.5,-214 780.76,-202.95 766.53,-192.99 752.74,-184.6"/>
<polygon fill="none" stroke="#404040" points="752.68,-184.56 745.48,-184.98 742.32,-178.5 749.52,-178.08 752.68,-184.56"/>
<text text-anchor="middle" x="865.5" y="-228" font-family="Helvetica,sans-Serif" font-size="10.00"> +solver_methods</text>
</g>
<!-- Node9 -->
<g id="node9" class="node">
<title>Node9</title>
<g id="a_node9"><a xlink:href="../../de/d18/namespaceMyLinearSolvingMethod.html#de/d18/namespaceMyLinearSolvingMethod" target="_top" xlink:title=" ">
<polygon fill="white" stroke="black" points="952.5,-276.5 952.5,-355.5 1110.5,-355.5 1110.5,-276.5 952.5,-276.5"/>
<text text-anchor="start" x="960.5" y="-343.5" font-family="Helvetica,sans-Serif" font-size="10.00">MyLinearSolvingMethod</text>
<text text-anchor="middle" x="1031.5" y="-332.5" font-family="Helvetica,sans-Serif" font-size="10.00">::Parameters&lt; long double &gt;</text>
<polyline fill="none" stroke="black" points="952.5,-325.5 1110.5,-325.5 "/>
<text text-anchor="start" x="960.5" y="-313.5" font-family="Helvetica,sans-Serif" font-size="10.00">+ n</text>
<text text-anchor="start" x="960.5" y="-302.5" font-family="Helvetica,sans-Serif" font-size="10.00">and 5 more...</text>
<polyline fill="none" stroke="black" points="952.5,-295.5 1110.5,-295.5 "/>
<text text-anchor="middle" x="1031.5" y="-283.5" font-family="Helvetica,sans-Serif" font-size="10.00"> </text>
</a>
</g>
</g>
<!-- Node9&#45;&gt;Node2 -->
<g id="edge8" class="edge">
<title>Node9&#45;&gt;Node2</title>
<path fill="none" stroke="#404040" d="M995.53,-276.26C973.91,-255.07 944.77,-229.95 914.5,-214 863.74,-187.25 799.52,-172.38 754.34,-164.59"/>
<polygon fill="none" stroke="#404040" points="754.26,-164.58 747.69,-167.55 742.42,-162.63 748.99,-159.66 754.26,-164.58"/>
<text text-anchor="middle" x="997" y="-233.5" font-family="Helvetica,sans-Serif" font-size="10.00"> +input</text>
<text text-anchor="middle" x="997" y="-222.5" font-family="Helvetica,sans-Serif" font-size="10.00">+solverParams</text>
</g>
<!-- Node10 -->
<g id="node10" class="node">
<title>Node10</title>
<g id="a_node10"><a xlink:title=" ">
<polygon fill="white" stroke="#bfbfbf" points="1129,-282 1129,-350 1274,-350 1274,-282 1129,-282"/>
<text text-anchor="start" x="1137" y="-338" font-family="Helvetica,sans-Serif" font-size="10.00">std::set&lt; MyLinearSolving</text>
<text text-anchor="middle" x="1201.5" y="-327" font-family="Helvetica,sans-Serif" font-size="10.00">Method::Type &gt;</text>
<polyline fill="none" stroke="#bfbfbf" points="1129,-320 1274,-320 "/>
<text text-anchor="start" x="1137" y="-308" font-family="Helvetica,sans-Serif" font-size="10.00">+ keys</text>
<polyline fill="none" stroke="#bfbfbf" points="1129,-301 1274,-301 "/>
<text text-anchor="middle" x="1201.5" y="-289" font-family="Helvetica,sans-Serif" font-size="10.00"> </text>
</a>
</g>
</g>
<!-- Node10&#45;&gt;Node2 -->
<g id="edge9" class="edge">
<title>Node10&#45;&gt;Node2</title>
<path fill="none" stroke="#404040" d="M1158.63,-281.95C1127.09,-259.31 1082.27,-230.5 1038.5,-214 942.67,-177.89 823.06,-164.58 754.26,-159.73"/>
<polygon fill="none" stroke="#404040" points="754,-159.72 747.75,-163.31 742.03,-158.92 748.28,-155.33 754,-159.72"/>
<text text-anchor="middle" x="1131" y="-228" font-family="Helvetica,sans-Serif" font-size="10.00"> +methods</text>
</g>
<!-- Node11 -->
<g id="node11" class="node">
<title>Node11</title>
<g id="a_node11"><a xlink:title=" ">
<polygon fill="white" stroke="#bfbfbf" points="1292.5,-282 1292.5,-350 1460.5,-350 1460.5,-282 1292.5,-282"/>
<text text-anchor="start" x="1300.5" y="-338" font-family="Helvetica,sans-Serif" font-size="10.00">std::set&lt; MyRelaxationMethod</text>
<text text-anchor="middle" x="1376.5" y="-327" font-family="Helvetica,sans-Serif" font-size="10.00">::Type &gt;</text>
<polyline fill="none" stroke="#bfbfbf" points="1292.5,-320 1460.5,-320 "/>
<text text-anchor="start" x="1300.5" y="-308" font-family="Helvetica,sans-Serif" font-size="10.00">+ keys</text>
<polyline fill="none" stroke="#bfbfbf" points="1292.5,-301 1460.5,-301 "/>
<text text-anchor="middle" x="1376.5" y="-289" font-family="Helvetica,sans-Serif" font-size="10.00"> </text>
</a>
</g>
</g>
<!-- Node11&#45;&gt;Node2 -->
<g id="edge10" class="edge">
<title>Node11&#45;&gt;Node2</title>
<path fill="none" stroke="#404040" d="M1320.96,-281.94C1278.97,-258.67 1219.07,-229.08 1162.5,-214 1018.47,-175.6 842.27,-162.96 754.2,-158.88"/>
<polygon fill="none" stroke="#404040" points="754.11,-158.88 747.94,-162.61 742.12,-158.35 748.29,-154.62 754.11,-158.88"/>
<text text-anchor="middle" x="1275" y="-228" font-family="Helvetica,sans-Serif" font-size="10.00"> +methods</text>
</g>
</g>
</svg>
        <g id="navigator" transform="translate(0 0)" fill="#404254">
                <rect fill="#f2f5e9" fill-opacity="0.5" stroke="#606060" stroke-width=".5" x="0" y="0" width="60" height="60"/>
                <use id="zoomplus" xlink:href="#zoomPlus" x="17" y="9" onmousedown="handleZoom(evt,'in')"/>
                <use id="zoomminus" xlink:href="#zoomMin" x="42" y="9" onmousedown="handleZoom(evt,'out')"/>
                <use id="reset" xlink:href="#resetDef" x="30" y="36" onmousedown="handleReset()"/>
                <g id="arrowUp" xlink:href="#dirArrow" transform="translate(30 24)" onmousedown="handlePan(0,-1)">
                  <use xlink:href="#rim" fill="#404040">
                        <set attributeName="fill" to="#808080" begin="arrowUp.mouseover" end="arrowUp.mouseout"/>
                  </use>
                  <path fill="none" stroke="white" stroke-width="1.5" d="M0,-3.0v7 M-2.5,-0.5L0,-3.0L2.5,-0.5"/>
                </g>
                <g id="arrowRight" xlink:href="#dirArrow" transform="rotate(90) translate(36 -43)" onmousedown="handlePan(1,0)">
                  <use xlink:href="#rim" fill="#404040">
                        <set attributeName="fill" to="#808080" begin="arrowRight.mouseover" end="arrowRight.mouseout"/>
                  </use>
                  <path fill="none" stroke="white" stroke-width="1.5" d="M0,-3.0v7 M-2.5,-0.5L0,-3.0L2.5,-0.5"/>
                </g>
                <g id="arrowDown" xlink:href="#dirArrow" transform="rotate(180) translate(-30 -48)" onmousedown="handlePan(0,1)">
                  <use xlink:href="#rim" fill="#404040">
                        <set attributeName="fill" to="#808080" begin="arrowDown.mouseover" end="arrowDown.mouseout"/>
                  </use>
                  <path fill="none" stroke="white" stroke-width="1.5" d="M0,-3.0v7 M-2.5,-0.5L0,-3.0L2.5,-0.5"/>
                </g>
                <g id="arrowLeft" xlink:href="#dirArrow" transform="rotate(270) translate(-36 17)" onmousedown="handlePan(-1,0)">
                  <use xlink:href="#rim" fill="#404040">
                        <set attributeName="fill" to="#808080" begin="arrowLeft.mouseover" end="arrowLeft.mouseout"/>
                  </use>
                  <path fill="none" stroke="white" stroke-width="1.5" d="M0,-3.0v7 M-2.5,-0.5L0,-3.0L2.5,-0.5"/>
                </g>
        </g>
        <svg viewBox="0 0 15 15" width="100%" height="30px" preserveAspectRatio="xMaxYMin meet">
         <g id="arrow_out" transform="scale(0.3 0.3)">
          <a xlink:href="structArgsPrintMatrix__coll__graph_org.svg" target="_base">
           <rect id="button" ry="5" rx="5" y="6" x="6" height="38" width="38"
                fill="#f2f5e9" fill-opacity="0.5" stroke="#606060" stroke-width="1.0"/>
           <path id="arrow"
             d="M 11.500037,31.436501 C 11.940474,20.09759 22.043105,11.32322 32.158766,21.979434 L 37.068811,17.246167 C 37.068811,17.246167 37.088388,32 37.088388,32 L 22.160133,31.978069 C 22.160133,31.978069 26.997745,27.140456 26.997745,27.140456 C 18.528582,18.264221 13.291696,25.230495 11.500037,31.436501 z"
             style="fill:#404040;"/>
          </a>
         </g>
        </svg>
</svg>
