<?xml version="1.0" encoding="UTF-8" standalone="no"?>
<!DOCTYPE svg PUBLIC "-//W3C//DTD SVG 1.1//EN"
 "http://www.w3.org/Graphics/SVG/1.1/DTD/svg11.dtd">
<!-- Generated by graphviz version 2.43.0 (0)
 -->
<!-- Title: MyPhysics::Diffusion::Vector&lt; T &gt; Pages: 1 -->
<svg width="320pt" height="259pt"
 viewBox="0.00 0.00 320.00 259.00" xmlns="http://www.w3.org/2000/svg" xmlns:xlink="http://www.w3.org/1999/xlink">
<g id="graph0" class="graph" transform="scale(1 1) rotate(0) translate(4 255)">
<title>MyPhysics::Diffusion::Vector&lt; T &gt;</title>
<polygon fill="white" stroke="transparent" points="-4,4 -4,-255 316,-255 316,4 -4,4"/>
<!-- Node1 -->
<g id="node1" class="node">
<title>Node1</title>
<g id="a_node1"><a xlink:title=" ">
<polygon fill="#bfbfbf" stroke="black" points="95.5,-0.5 95.5,-101.5 213.5,-101.5 213.5,-0.5 95.5,-0.5"/>
<text text-anchor="start" x="103.5" y="-89.5" font-family="Helvetica,sans-Serif" font-size="10.00">MyPhysics::Diffusion</text>
<text text-anchor="middle" x="154.5" y="-78.5" font-family="Helvetica,sans-Serif" font-size="10.00">::Vector&lt; T &gt;</text>
<polyline fill="none" stroke="black" points="95.5,-71.5 213.5,-71.5 "/>
<text text-anchor="start" x="103.5" y="-59.5" font-family="Helvetica,sans-Serif" font-size="10.00">&#45; _size</text>
<text text-anchor="start" x="103.5" y="-48.5" font-family="Helvetica,sans-Serif" font-size="10.00">and 1 more...</text>
<polyline fill="none" stroke="black" points="95.5,-41.5 213.5,-41.5 "/>
<text text-anchor="start" x="103.5" y="-29.5" font-family="Helvetica,sans-Serif" font-size="10.00">+ Vector()</text>
<text text-anchor="start" x="103.5" y="-18.5" font-family="Helvetica,sans-Serif" font-size="10.00">and 7 more...</text>
<text text-anchor="start" x="103.5" y="-7.5" font-family="Helvetica,sans-Serif" font-size="10.00">+ generate()</text>
</a>
</g>
</g>
<!-- Node2 -->
<g id="node2" class="node">
<title>Node2</title>
<g id="a_node2"><a xlink:href="../../d6/d07/classMyBLAS_1_1LazyVector.html" target="_top" xlink:title=" ">
<polygon fill="white" stroke="black" points="0,-160.5 0,-239.5 145,-239.5 145,-160.5 0,-160.5"/>
<text text-anchor="middle" x="72.5" y="-227.5" font-family="Helvetica,sans-Serif" font-size="10.00">MyBLAS::LazyVector&lt; T &gt;</text>
<polyline fill="none" stroke="black" points="0,-220.5 145,-220.5 "/>
<text text-anchor="start" x="8" y="-208.5" font-family="Helvetica,sans-Serif" font-size="10.00">&#45; size_</text>
<text text-anchor="start" x="8" y="-197.5" font-family="Helvetica,sans-Serif" font-size="10.00">and 1 more...</text>
<polyline fill="none" stroke="black" points="0,-190.5 145,-190.5 "/>
<text text-anchor="start" x="8" y="-178.5" font-family="Helvetica,sans-Serif" font-size="10.00">+ LazyVector()</text>
<text text-anchor="start" x="8" y="-167.5" font-family="Helvetica,sans-Serif" font-size="10.00">and 17 more...</text>
</a>
</g>
</g>
<!-- Node2&#45;&gt;Node1 -->
<g id="edge1" class="edge">
<title>Node2&#45;&gt;Node1</title>
<path fill="none" stroke="midnightblue" d="M99.12,-151.28C107.97,-135.42 117.84,-117.73 126.77,-101.72"/>
<polygon fill="none" stroke="midnightblue" points="95.86,-149.94 94.04,-160.38 101.97,-153.35 95.86,-149.94"/>
</g>
<!-- Node3 -->
<g id="node3" class="node">
<title>Node3</title>
<g id="a_node3"><a xlink:href="../../d6/d0c/structMyPhysics_1_1Diffusion_1_1Params.html" target="_top" xlink:title=" ">
<polygon fill="white" stroke="black" points="163,-149.5 163,-250.5 312,-250.5 312,-149.5 163,-149.5"/>
<text text-anchor="start" x="171" y="-238.5" font-family="Helvetica,sans-Serif" font-size="10.00">MyPhysics::Diffusion</text>
<text text-anchor="middle" x="237.5" y="-227.5" font-family="Helvetica,sans-Serif" font-size="10.00">::Params&lt; T &gt;</text>
<polyline fill="none" stroke="black" points="163,-220.5 312,-220.5 "/>
<text text-anchor="start" x="171" y="-208.5" font-family="Helvetica,sans-Serif" font-size="10.00">&#45; _a</text>
<text text-anchor="start" x="171" y="-197.5" font-family="Helvetica,sans-Serif" font-size="10.00">and 8 more...</text>
<polyline fill="none" stroke="black" points="163,-190.5 312,-190.5 "/>
<text text-anchor="start" x="171" y="-178.5" font-family="Helvetica,sans-Serif" font-size="10.00">+ Params()</text>
<text text-anchor="start" x="171" y="-167.5" font-family="Helvetica,sans-Serif" font-size="10.00">and 17 more...</text>
<text text-anchor="start" x="171" y="-156.5" font-family="Helvetica,sans-Serif" font-size="10.00">&#45; compute_mesh_spacing()</text>
</a>
</g>
</g>
<!-- Node3&#45;&gt;Node1 -->
<g id="edge2" class="edge">
<title>Node3&#45;&gt;Node1</title>
<path fill="none" stroke="#404040" d="M209.4,-149.23C202.71,-137.38 195.49,-124.6 188.57,-112.33"/>
<polygon fill="none" stroke="#404040" points="188.47,-112.17 182.04,-108.91 182.57,-101.72 189,-104.97 188.47,-112.17"/>
<text text-anchor="middle" x="223" y="-123" font-family="Helvetica,sans-Serif" font-size="10.00"> &#45;_params</text>
</g>
</g>
</svg>
