<?xml version="1.0" encoding="UTF-8" standalone="no"?>
<!DOCTYPE svg PUBLIC "-//W3C//DTD SVG 1.1//EN"
 "http://www.w3.org/Graphics/SVG/1.1/DTD/svg11.dtd">
<!-- Generated by graphviz version 2.43.0 (0)
 -->
<!-- Title: Profiler Pages: 1 -->
<svg width="173pt" height="215pt"
 viewBox="0.00 0.00 173.00 215.00" xmlns="http://www.w3.org/2000/svg" xmlns:xlink="http://www.w3.org/1999/xlink">
<g id="graph0" class="graph" transform="scale(1 1) rotate(0) translate(4 211)">
<title>Profiler</title>
<polygon fill="white" stroke="transparent" points="-4,4 -4,-211 169,-211 169,4 -4,4"/>
<!-- Node1 -->
<g id="node1" class="node">
<title>Node1</title>
<g id="a_node1"><a xlink:title="A class that provides methods for profiling the execution time of functions.">
<polygon fill="#bfbfbf" stroke="black" points="0,-0.5 0,-90.5 165,-90.5 165,-0.5 0,-0.5"/>
<text text-anchor="middle" x="82.5" y="-78.5" font-family="Helvetica,sans-Serif" font-size="10.00">Profiler</text>
<polyline fill="none" stroke="black" points="0,-71.5 165,-71.5 "/>
<text text-anchor="middle" x="82.5" y="-59.5" font-family="Helvetica,sans-Serif" font-size="10.00"> </text>
<polyline fill="none" stroke="black" points="0,-52.5 165,-52.5 "/>
<text text-anchor="start" x="8" y="-40.5" font-family="Helvetica,sans-Serif" font-size="10.00">+ Profiler()</text>
<text text-anchor="start" x="8" y="-29.5" font-family="Helvetica,sans-Serif" font-size="10.00">and 4 more...</text>
<text text-anchor="start" x="8" y="-18.5" font-family="Helvetica,sans-Serif" font-size="10.00">+ buildCommandlineOptions()</text>
<text text-anchor="start" x="8" y="-7.5" font-family="Helvetica,sans-Serif" font-size="10.00">and 3 more...</text>
</a>
</g>
</g>
<!-- Node2 -->
<g id="node2" class="node">
<title>Node2</title>
<g id="a_node2"><a xlink:href="../../df/d69/Profiler_8h.html#da/d6a/structProfilerOptions" target="_top" xlink:title=" ">
<polygon fill="white" stroke="black" points="38,-138.5 38,-206.5 127,-206.5 127,-138.5 38,-138.5"/>
<text text-anchor="middle" x="82.5" y="-194.5" font-family="Helvetica,sans-Serif" font-size="10.00">ProfilerOptions</text>
<polyline fill="none" stroke="black" points="38,-187.5 127,-187.5 "/>
<text text-anchor="start" x="46" y="-175.5" font-family="Helvetica,sans-Serif" font-size="10.00">+ runs</text>
<text text-anchor="start" x="46" y="-164.5" font-family="Helvetica,sans-Serif" font-size="10.00">and 1 more...</text>
<polyline fill="none" stroke="black" points="38,-157.5 127,-157.5 "/>
<text text-anchor="middle" x="82.5" y="-145.5" font-family="Helvetica,sans-Serif" font-size="10.00"> </text>
</a>
</g>
</g>
<!-- Node2&#45;&gt;Node1 -->
<g id="edge1" class="edge">
<title>Node2&#45;&gt;Node1</title>
<path fill="none" stroke="#404040" d="M82.5,-138.33C82.5,-127.37 82.5,-114.86 82.5,-102.67"/>
<polygon fill="none" stroke="#404040" points="82.5,-102.66 78.5,-96.66 82.5,-90.66 86.5,-96.66 82.5,-102.66"/>
<text text-anchor="middle" x="104" y="-112" font-family="Helvetica,sans-Serif" font-size="10.00"> &#45;options</text>
</g>
</g>
</svg>
