<?xml version="1.0" encoding="UTF-8" standalone="no"?>
<!DOCTYPE svg PUBLIC "-//W3C//DTD SVG 1.1//EN"
 "http://www.w3.org/Graphics/SVG/1.1/DTD/svg11.dtd">
<!-- Generated by graphviz version 2.43.0 (0)
 -->
<!-- Title: OutLab3::run Pages: 1 -->
<svg width="636pt" height="310pt"
 viewBox="0.00 0.00 636.00 310.00" xmlns="http://www.w3.org/2000/svg" xmlns:xlink="http://www.w3.org/1999/xlink">
<g id="graph0" class="graph" transform="scale(1 1) rotate(0) translate(4 306)">
<title>OutLab3::run</title>
<polygon fill="white" stroke="transparent" points="-4,4 -4,-306 632,-306 632,4 -4,4"/>
<!-- Node1 -->
<g id="node1" class="node">
<title>Node1</title>
<g id="a_node1"><a xlink:title="Runs the numerical integration using Composite Newton&#45;Cotes Formulas.">
<polygon fill="#bfbfbf" stroke="black" points="0,-140.5 0,-159.5 79,-159.5 79,-140.5 0,-140.5"/>
<text text-anchor="middle" x="39.5" y="-147.5" font-family="Helvetica,sans-Serif" font-size="10.00">OutLab3::run</text>
</a>
</g>
</g>
<!-- Node2 -->
<g id="node2" class="node">
<title>Node2</title>
<g id="a_node2"><a xlink:href="../../d5/dd9/labs_2inlab3_2Compute_8h.html#a3e18aa760500d3be04149ef88c6e25ff" target="_top" xlink:title="This function computes the integral of a user&#45;defined function using Gaussian quadrature.">
<polygon fill="white" stroke="black" points="115,-282.5 115,-301.5 276,-301.5 276,-282.5 115,-282.5"/>
<text text-anchor="middle" x="195.5" y="-289.5" font-family="Helvetica,sans-Serif" font-size="10.00">fillUsingGaussianQuadratures</text>
</a>
</g>
</g>
<!-- Node1&#45;&gt;Node2 -->
<g id="edge1" class="edge">
<title>Node1&#45;&gt;Node2</title>
<path fill="none" stroke="midnightblue" d="M43.49,-159.79C51.2,-183.29 74.06,-243.13 115,-273 117.55,-274.86 120.27,-276.55 123.09,-278.07"/>
<polygon fill="midnightblue" stroke="midnightblue" points="121.88,-281.36 132.42,-282.39 124.82,-275.01 121.88,-281.36"/>
</g>
<!-- Node3 -->
<g id="node3" class="node">
<title>Node3</title>
<g id="a_node3"><a xlink:href="../../d5/dd9/labs_2inlab3_2Compute_8h.html#ae164366952566cd01a8361d871afa49c" target="_top" xlink:title="This function computes the integral of a user&#45;defined function using Simpson&#39;s rule.">
<polygon fill="white" stroke="black" points="143.5,-206.5 143.5,-225.5 247.5,-225.5 247.5,-206.5 143.5,-206.5"/>
<text text-anchor="middle" x="195.5" y="-213.5" font-family="Helvetica,sans-Serif" font-size="10.00">fillUsingSimpsons</text>
</a>
</g>
</g>
<!-- Node1&#45;&gt;Node3 -->
<g id="edge2" class="edge">
<title>Node1&#45;&gt;Node3</title>
<path fill="none" stroke="midnightblue" d="M52.97,-159.69C67.23,-170.31 91.61,-187.14 115,-197 120.92,-199.49 127.24,-201.7 133.62,-203.64"/>
<polygon fill="midnightblue" stroke="midnightblue" points="133.08,-207.13 143.66,-206.48 134.99,-200.39 133.08,-207.13"/>
</g>
<!-- Node10 -->
<g id="node10" class="node">
<title>Node10</title>
<g id="a_node10"><a xlink:href="../../d5/dd9/labs_2inlab3_2Compute_8h.html#af4bb26246ad605fa03817abc9fe3d10c" target="_top" xlink:title="This function computes the integral of a user&#45;defined function using the trapezoidal rule.">
<polygon fill="white" stroke="black" points="139.5,-244.5 139.5,-263.5 251.5,-263.5 251.5,-244.5 139.5,-244.5"/>
<text text-anchor="middle" x="195.5" y="-251.5" font-family="Helvetica,sans-Serif" font-size="10.00">fillUsingTrapezoidal</text>
</a>
</g>
</g>
<!-- Node1&#45;&gt;Node10 -->
<g id="edge9" class="edge">
<title>Node1&#45;&gt;Node10</title>
<path fill="none" stroke="midnightblue" d="M46.09,-159.63C56.96,-177.46 82.74,-215.54 115,-235 119.63,-237.79 124.65,-240.18 129.83,-242.21"/>
<polygon fill="midnightblue" stroke="midnightblue" points="128.7,-245.52 139.29,-245.51 131,-238.91 128.7,-245.52"/>
</g>
<!-- Node11 -->
<g id="node11" class="node">
<title>Node11</title>
<g id="a_node11"><a xlink:href="../../dd/d02/classCommandLine.html#a7001590923e6bfdf380448136b8e65bd" target="_top" xlink:title="Method to print a line to the console. This method prints a line of dashes to the console.">
<polygon fill="white" stroke="black" points="115,-157 115,-187 276,-187 276,-157 115,-157"/>
<text text-anchor="start" x="123" y="-175" font-family="Helvetica,sans-Serif" font-size="10.00">CommandLine&lt; InLab6Inputs</text>
<text text-anchor="middle" x="195.5" y="-164" font-family="Helvetica,sans-Serif" font-size="10.00"> &gt;::printLine</text>
</a>
</g>
</g>
<!-- Node1&#45;&gt;Node11 -->
<g id="edge14" class="edge">
<title>Node1&#45;&gt;Node11</title>
<path fill="none" stroke="midnightblue" d="M79.36,-155.55C87.26,-156.68 95.87,-157.91 104.72,-159.17"/>
<polygon fill="midnightblue" stroke="midnightblue" points="104.38,-162.66 114.78,-160.61 105.37,-155.73 104.38,-162.66"/>
</g>
<!-- Node12 -->
<g id="node12" class="node">
<title>Node12</title>
<g id="a_node12"><a xlink:href="../../db/def/labs_2inlab3_2InputsOutputs_8h.html#ac3a588c5d982cb2787542091d61c7b2a" target="_top" xlink:title="Function to get the string representation of an IntegrationRule.">
<polygon fill="white" stroke="black" points="169,-118.5 169,-137.5 222,-137.5 222,-118.5 169,-118.5"/>
<text text-anchor="middle" x="195.5" y="-125.5" font-family="Helvetica,sans-Serif" font-size="10.00">ruleKey</text>
</a>
</g>
</g>
<!-- Node1&#45;&gt;Node12 -->
<g id="edge15" class="edge">
<title>Node1&#45;&gt;Node12</title>
<path fill="none" stroke="midnightblue" d="M79.36,-144.45C103.73,-140.97 134.92,-136.51 158.69,-133.12"/>
<polygon fill="midnightblue" stroke="midnightblue" points="159.31,-136.56 168.71,-131.68 158.32,-129.63 159.31,-136.56"/>
</g>
<!-- Node13 -->
<g id="node13" class="node">
<title>Node13</title>
<g id="a_node13"><a xlink:href="../../db/d86/structOutputs.html#afafdef44ca6ae2722fa7f1bf58b201af" target="_top" xlink:title="Converts the data in the structure to a JSON format.">
<polygon fill="white" stroke="black" points="148,-80.5 148,-99.5 243,-99.5 243,-80.5 148,-80.5"/>
<text text-anchor="middle" x="195.5" y="-87.5" font-family="Helvetica,sans-Serif" font-size="10.00">Outputs::toJSON</text>
</a>
</g>
</g>
<!-- Node1&#45;&gt;Node13 -->
<g id="edge16" class="edge">
<title>Node1&#45;&gt;Node13</title>
<path fill="none" stroke="midnightblue" d="M55.05,-140.45C69.67,-131.23 93.11,-117.46 115,-109 122.26,-106.19 130.06,-103.72 137.83,-101.56"/>
<polygon fill="midnightblue" stroke="midnightblue" points="138.83,-104.92 147.62,-99 137.06,-98.14 138.83,-104.92"/>
</g>
<!-- Node14 -->
<g id="node14" class="node">
<title>Node14</title>
<g id="a_node14"><a xlink:href="../../df/df1/structOutput.html#a0412b8fd27d6e91551671da11cd8fe93" target="_top" xlink:title="Converts the output parameters to a JSON object.">
<polygon fill="white" stroke="black" points="151,-42.5 151,-61.5 240,-61.5 240,-42.5 151,-42.5"/>
<text text-anchor="middle" x="195.5" y="-49.5" font-family="Helvetica,sans-Serif" font-size="10.00">Output::toJSON</text>
</a>
</g>
</g>
<!-- Node1&#45;&gt;Node14 -->
<g id="edge17" class="edge">
<title>Node1&#45;&gt;Node14</title>
<path fill="none" stroke="midnightblue" d="M46.8,-140.27C58.25,-123.4 84.16,-88.85 115,-71 122.94,-66.41 131.93,-62.92 140.95,-60.28"/>
<polygon fill="midnightblue" stroke="midnightblue" points="141.9,-63.65 150.69,-57.73 140.13,-56.87 141.9,-63.65"/>
</g>
<!-- Node16 -->
<g id="node16" class="node">
<title>Node16</title>
<g id="a_node16"><a xlink:href="../../d7/de4/FileParser_8h.html#abb1a95d027a077ecf097a06ef4a968b6" target="_top" xlink:title="Writes the given JSON data to a file at the specified file path.">
<polygon fill="white" stroke="black" points="163,-3.5 163,-22.5 228,-22.5 228,-3.5 163,-3.5"/>
<text text-anchor="middle" x="195.5" y="-10.5" font-family="Helvetica,sans-Serif" font-size="10.00">writeJSON</text>
</a>
</g>
</g>
<!-- Node1&#45;&gt;Node16 -->
<g id="edge19" class="edge">
<title>Node1&#45;&gt;Node16</title>
<path fill="none" stroke="midnightblue" d="M43.78,-140.38C51.97,-117.86 75.56,-61.47 115,-33 125.93,-25.11 139.65,-20.33 152.6,-17.42"/>
<polygon fill="midnightblue" stroke="midnightblue" points="153.59,-20.8 162.75,-15.47 152.27,-13.92 153.59,-20.8"/>
</g>
<!-- Node4 -->
<g id="node4" class="node">
<title>Node4</title>
<g id="a_node4"><a xlink:href="../../de/def/classStopwatch.html#a3c8a6cb60a31a8cafd1d2dad1b6c851d" target="_top" xlink:title="Save the current time as the clicked time point.">
<polygon fill="white" stroke="black" points="334.5,-168.5 334.5,-187.5 430.5,-187.5 430.5,-168.5 334.5,-168.5"/>
<text text-anchor="middle" x="382.5" y="-175.5" font-family="Helvetica,sans-Serif" font-size="10.00">Stopwatch::click</text>
</a>
</g>
</g>
<!-- Node3&#45;&gt;Node4 -->
<g id="edge3" class="edge">
<title>Node3&#45;&gt;Node4</title>
<path fill="none" stroke="midnightblue" d="M243.18,-206.41C268.15,-201.28 299.06,-194.93 325.33,-189.54"/>
<polygon fill="midnightblue" stroke="midnightblue" points="326.06,-192.96 335.15,-187.52 324.65,-186.1 326.06,-192.96"/>
</g>
<!-- Node5 -->
<g id="node5" class="node">
<title>Node5</title>
<g id="a_node5"><a xlink:href="../../de/def/classStopwatch.html#ac5fd84825ff7ae966d1963a20e9cf47b" target="_top" xlink:title="Static method to calculate the duration between two time points.">
<polygon fill="white" stroke="black" points="325.5,-282.5 325.5,-301.5 439.5,-301.5 439.5,-282.5 325.5,-282.5"/>
<text text-anchor="middle" x="382.5" y="-289.5" font-family="Helvetica,sans-Serif" font-size="10.00">Stopwatch::duration</text>
</a>
</g>
</g>
<!-- Node3&#45;&gt;Node5 -->
<g id="edge4" class="edge">
<title>Node3&#45;&gt;Node5</title>
<path fill="none" stroke="midnightblue" d="M247.79,-223.65C257.55,-226.36 267.4,-230.03 276,-235 296.15,-246.63 292.04,-261.05 312,-273 315.62,-275.17 319.5,-277.1 323.49,-278.81"/>
<polygon fill="midnightblue" stroke="midnightblue" points="322.4,-282.14 332.99,-282.42 324.89,-275.59 322.4,-282.14"/>
</g>
<!-- Node6 -->
<g id="node6" class="node">
<title>Node6</title>
<g id="a_node6"><a xlink:href="../../de/def/classStopwatch.html#a2cc3c2b39972ca34f3ff9622471b1bbb" target="_top" xlink:title="Restart the stopwatch by setting the initial and clicked time points to the current time.">
<polygon fill="white" stroke="black" points="329.5,-244.5 329.5,-263.5 435.5,-263.5 435.5,-244.5 329.5,-244.5"/>
<text text-anchor="middle" x="382.5" y="-251.5" font-family="Helvetica,sans-Serif" font-size="10.00">Stopwatch::restart</text>
</a>
</g>
</g>
<!-- Node3&#45;&gt;Node6 -->
<g id="edge5" class="edge">
<title>Node3&#45;&gt;Node6</title>
<path fill="none" stroke="midnightblue" d="M243.18,-225.59C268.15,-230.72 299.06,-237.07 325.33,-242.46"/>
<polygon fill="midnightblue" stroke="midnightblue" points="324.65,-245.9 335.15,-244.48 326.06,-239.04 324.65,-245.9"/>
</g>
<!-- Node7 -->
<g id="node7" class="node">
<title>Node7</title>
<g id="a_node7"><a xlink:href="../../dd/df5/namespaceMyBLAS_1_1Stats.html#aaa0d2e3d22af2b7894169b7c90ba6146" target="_top" xlink:title="Function to find the sum of all elements in a vector.">
<polygon fill="white" stroke="black" points="325,-130.5 325,-149.5 440,-149.5 440,-130.5 325,-130.5"/>
<text text-anchor="middle" x="382.5" y="-137.5" font-family="Helvetica,sans-Serif" font-size="10.00">MyBLAS::Stats::sum</text>
</a>
</g>
</g>
<!-- Node3&#45;&gt;Node7 -->
<g id="edge6" class="edge">
<title>Node3&#45;&gt;Node7</title>
<path fill="none" stroke="midnightblue" d="M247.79,-208.35C257.55,-205.64 267.4,-201.97 276,-197 296.15,-185.37 292.04,-170.95 312,-159 315.62,-156.83 319.5,-154.9 323.49,-153.19"/>
<polygon fill="midnightblue" stroke="midnightblue" points="324.89,-156.41 332.99,-149.58 322.4,-149.86 324.89,-156.41"/>
</g>
<!-- Node9 -->
<g id="node9" class="node">
<title>Node9</title>
<g id="a_node9"><a xlink:href="../../de/d49/inlab3_2extern_2function_8h.html#acd544cac25c4f4d6e10393313244a78f" target="_top" xlink:title="A user&#45;defined function that calculates the value of the function f(x) = e^(x)">
<polygon fill="white" stroke="black" points="335.5,-206.5 335.5,-225.5 429.5,-225.5 429.5,-206.5 335.5,-206.5"/>
<text text-anchor="middle" x="382.5" y="-213.5" font-family="Helvetica,sans-Serif" font-size="10.00">user_defined_fx</text>
</a>
</g>
</g>
<!-- Node3&#45;&gt;Node9 -->
<g id="edge8" class="edge">
<title>Node3&#45;&gt;Node9</title>
<path fill="none" stroke="midnightblue" d="M247.54,-216C271.59,-216 300.36,-216 325.06,-216"/>
<polygon fill="midnightblue" stroke="midnightblue" points="325.37,-219.5 335.37,-216 325.37,-212.5 325.37,-219.5"/>
</g>
<!-- Node8 -->
<g id="node8" class="node">
<title>Node8</title>
<g id="a_node8"><a xlink:href="../../d4/d4d/classMyBLAS_1_1Vector.html#a6188d71192e096e25ae1c1a46150a0ab" target="_top" xlink:title="Getter for the vector data.">
<polygon fill="white" stroke="black" points="489,-130.5 489,-149.5 628,-149.5 628,-130.5 489,-130.5"/>
<text text-anchor="middle" x="558.5" y="-137.5" font-family="Helvetica,sans-Serif" font-size="10.00">MyBLAS::Vector::getData</text>
</a>
</g>
</g>
<!-- Node7&#45;&gt;Node8 -->
<g id="edge7" class="edge">
<title>Node7&#45;&gt;Node8</title>
<path fill="none" stroke="midnightblue" d="M440.47,-140C452.67,-140 465.77,-140 478.63,-140"/>
<polygon fill="midnightblue" stroke="midnightblue" points="478.87,-143.5 488.87,-140 478.87,-136.5 478.87,-143.5"/>
</g>
<!-- Node10&#45;&gt;Node4 -->
<g id="edge10" class="edge">
<title>Node10&#45;&gt;Node4</title>
<path fill="none" stroke="midnightblue" d="M251.56,-245.25C260.06,-242.67 268.5,-239.33 276,-235 296.15,-223.37 292.04,-208.95 312,-197 316.08,-194.56 320.48,-192.42 325.01,-190.56"/>
<polygon fill="midnightblue" stroke="midnightblue" points="326.27,-193.82 334.45,-187.09 323.86,-187.25 326.27,-193.82"/>
</g>
<!-- Node10&#45;&gt;Node5 -->
<g id="edge11" class="edge">
<title>Node10&#45;&gt;Node5</title>
<path fill="none" stroke="midnightblue" d="M243.18,-263.59C268.15,-268.72 299.06,-275.07 325.33,-280.46"/>
<polygon fill="midnightblue" stroke="midnightblue" points="324.65,-283.9 335.15,-282.48 326.06,-277.04 324.65,-283.9"/>
</g>
<!-- Node10&#45;&gt;Node6 -->
<g id="edge12" class="edge">
<title>Node10&#45;&gt;Node6</title>
<path fill="none" stroke="midnightblue" d="M251.51,-254C272.75,-254 297.16,-254 319.05,-254"/>
<polygon fill="midnightblue" stroke="midnightblue" points="319.24,-257.5 329.24,-254 319.24,-250.5 319.24,-257.5"/>
</g>
<!-- Node10&#45;&gt;Node9 -->
<g id="edge13" class="edge">
<title>Node10&#45;&gt;Node9</title>
<path fill="none" stroke="midnightblue" d="M243.18,-244.41C268.24,-239.26 299.3,-232.88 325.63,-227.48"/>
<polygon fill="midnightblue" stroke="midnightblue" points="326.38,-230.89 335.47,-225.45 324.97,-224.04 326.38,-230.89"/>
</g>
<!-- Node15 -->
<g id="node15" class="node">
<title>Node15</title>
<g id="a_node15"><a xlink:href="../../dc/da4/structMyBLAS_1_1Stats_1_1Summary.html#a96a66f2ddbad3de15b434c6582bd2011" target="_top" xlink:title=" ">
<polygon fill="white" stroke="black" points="312,-39 312,-69 453,-69 453,-39 312,-39"/>
<text text-anchor="start" x="320" y="-57" font-family="Helvetica,sans-Serif" font-size="10.00">MyBLAS::Stats::Summary</text>
<text text-anchor="middle" x="382.5" y="-46" font-family="Helvetica,sans-Serif" font-size="10.00">::toJSON</text>
</a>
</g>
</g>
<!-- Node14&#45;&gt;Node15 -->
<g id="edge18" class="edge">
<title>Node14&#45;&gt;Node15</title>
<path fill="none" stroke="midnightblue" d="M240.34,-52.47C258.71,-52.67 280.65,-52.91 301.7,-53.14"/>
<polygon fill="midnightblue" stroke="midnightblue" points="301.9,-56.64 311.94,-53.25 301.98,-49.64 301.9,-56.64"/>
</g>
<!-- Node17 -->
<g id="node17" class="node">
<title>Node17</title>
<g id="a_node17"><a xlink:href="../../d7/de4/FileParser_8h.html#a784eb9bb658a54b0577db5cc2d73acae" target="_top" xlink:title="Checks if a file is writable.">
<polygon fill="white" stroke="black" points="341,-0.5 341,-19.5 424,-19.5 424,-0.5 341,-0.5"/>
<text text-anchor="middle" x="382.5" y="-7.5" font-family="Helvetica,sans-Serif" font-size="10.00">isFileWritable</text>
</a>
</g>
</g>
<!-- Node16&#45;&gt;Node17 -->
<g id="edge20" class="edge">
<title>Node16&#45;&gt;Node17</title>
<path fill="none" stroke="midnightblue" d="M228.3,-12.48C256.36,-12.03 297.76,-11.36 330.45,-10.83"/>
<polygon fill="midnightblue" stroke="midnightblue" points="330.79,-14.32 340.73,-10.66 330.68,-7.32 330.79,-14.32"/>
</g>
</g>
</svg>
