<?xml version="1.0" encoding="UTF-8" standalone="no"?>
<!DOCTYPE svg PUBLIC "-//W3C//DTD SVG 1.1//EN"
 "http://www.w3.org/Graphics/SVG/1.1/DTD/svg11.dtd">
<!-- Generated by graphviz version 2.43.0 (0)
 -->
<!-- Title: elementFromA Pages: 1 -->
<svg width="337pt" height="142pt"
 viewBox="0.00 0.00 337.00 142.00" xmlns="http://www.w3.org/2000/svg" xmlns:xlink="http://www.w3.org/1999/xlink">
<g id="graph0" class="graph" transform="scale(1 1) rotate(0) translate(4 138)">
<title>elementFromA</title>
<polygon fill="white" stroke="transparent" points="-4,4 -4,-138 333,-138 333,4 -4,4"/>
<!-- Node1 -->
<g id="node1" class="node">
<title>Node1</title>
<g id="a_node1"><a xlink:title="Computes the value of an element in matrix A.">
<polygon fill="#bfbfbf" stroke="black" points="240,-57.5 240,-76.5 329,-76.5 329,-57.5 240,-57.5"/>
<text text-anchor="middle" x="284.5" y="-64.5" font-family="Helvetica,sans-Serif" font-size="10.00">elementFromA</text>
</a>
</g>
</g>
<!-- Node2 -->
<g id="node2" class="node">
<title>Node2</title>
<g id="a_node2"><a xlink:href="../../d5/d65/labs_2outlab1_2Compute_8h.html#a44278365efe26db246f915a6e23f5421" target="_top" xlink:title="Computes the value of an element in matrix C.">
<polygon fill="white" stroke="black" points="115,-114.5 115,-133.5 204,-133.5 204,-114.5 115,-114.5"/>
<text text-anchor="middle" x="159.5" y="-121.5" font-family="Helvetica,sans-Serif" font-size="10.00">elementFromC</text>
</a>
</g>
</g>
<!-- Node1&#45;&gt;Node2 -->
<g id="edge1" class="edge">
<title>Node1&#45;&gt;Node2</title>
<path fill="none" stroke="midnightblue" d="M253.81,-80.76C231.34,-91.17 201.05,-105.21 181.15,-114.43"/>
<polygon fill="midnightblue" stroke="midnightblue" points="255.31,-83.92 262.91,-76.54 252.37,-77.57 255.31,-83.92"/>
</g>
<!-- Node3 -->
<g id="node3" class="node">
<title>Node3</title>
<g id="a_node3"><a xlink:href="../../dd/df3/classOutLab1.html#a71177f641d53b6016fd8593af674a36c" target="_top" xlink:title="This function runs the main logic of the program.">
<polygon fill="white" stroke="black" points="0,-57.5 0,-76.5 79,-76.5 79,-57.5 0,-57.5"/>
<text text-anchor="middle" x="39.5" y="-64.5" font-family="Helvetica,sans-Serif" font-size="10.00">OutLab1::run</text>
</a>
</g>
</g>
<!-- Node1&#45;&gt;Node3 -->
<g id="edge7" class="edge">
<title>Node1&#45;&gt;Node3</title>
<path fill="none" stroke="midnightblue" d="M229.76,-67C184.13,-67 119.74,-67 79.07,-67"/>
<polygon fill="midnightblue" stroke="midnightblue" points="229.78,-70.5 239.78,-67 229.78,-63.5 229.78,-70.5"/>
</g>
<!-- Node4 -->
<g id="node4" class="node">
<title>Node4</title>
<g id="a_node4"><a xlink:href="../../d5/d65/labs_2outlab1_2Compute_8h.html#ae3ff689e573f915d93b9f30137287c48" target="_top" xlink:title="Computes the value of an element in matrix D.">
<polygon fill="white" stroke="black" points="115,-38.5 115,-57.5 204,-57.5 204,-38.5 115,-38.5"/>
<text text-anchor="middle" x="159.5" y="-45.5" font-family="Helvetica,sans-Serif" font-size="10.00">elementFromD</text>
</a>
</g>
</g>
<!-- Node1&#45;&gt;Node4 -->
<g id="edge3" class="edge">
<title>Node1&#45;&gt;Node4</title>
<path fill="none" stroke="midnightblue" d="M229.82,-58.71C221.22,-57.38 212.4,-56.02 204.07,-54.73"/>
<polygon fill="midnightblue" stroke="midnightblue" points="229.37,-62.18 239.79,-60.25 230.44,-55.26 229.37,-62.18"/>
</g>
<!-- Node5 -->
<g id="node5" class="node">
<title>Node5</title>
<g id="a_node5"><a xlink:href="../../d5/d65/labs_2outlab1_2Compute_8h.html#a0f63c551d89f9cf8d10242d5af9a8299" target="_top" xlink:title="Computes the value of an element in matrix E.">
<polygon fill="white" stroke="black" points="115.5,-0.5 115.5,-19.5 203.5,-19.5 203.5,-0.5 115.5,-0.5"/>
<text text-anchor="middle" x="159.5" y="-7.5" font-family="Helvetica,sans-Serif" font-size="10.00">elementFromE</text>
</a>
</g>
</g>
<!-- Node1&#45;&gt;Node5 -->
<g id="edge5" class="edge">
<title>Node1&#45;&gt;Node5</title>
<path fill="none" stroke="midnightblue" d="M254.69,-52.94C239.64,-45.67 220.89,-36.72 204,-29 197.1,-25.85 189.55,-22.51 182.69,-19.52"/>
<polygon fill="midnightblue" stroke="midnightblue" points="253.46,-56.23 263.98,-57.44 256.51,-49.93 253.46,-56.23"/>
</g>
<!-- Node2&#45;&gt;Node3 -->
<g id="edge2" class="edge">
<title>Node2&#45;&gt;Node3</title>
<path fill="none" stroke="midnightblue" d="M129.73,-110.1C108.2,-99.7 79.31,-85.75 60.31,-76.57"/>
<polygon fill="midnightblue" stroke="midnightblue" points="128.22,-113.26 138.75,-114.46 131.27,-106.96 128.22,-113.26"/>
</g>
<!-- Node4&#45;&gt;Node3 -->
<g id="edge4" class="edge">
<title>Node4&#45;&gt;Node3</title>
<path fill="none" stroke="midnightblue" d="M104.88,-56.63C96.24,-58.02 87.45,-59.44 79.25,-60.76"/>
<polygon fill="midnightblue" stroke="midnightblue" points="105.58,-60.07 114.9,-55.02 104.47,-53.16 105.58,-60.07"/>
</g>
<!-- Node5&#45;&gt;Node3 -->
<g id="edge6" class="edge">
<title>Node5&#45;&gt;Node3</title>
<path fill="none" stroke="midnightblue" d="M126.38,-23.77C122.53,-25.5 118.67,-27.27 115,-29 95.44,-38.25 73.41,-49.6 58.42,-57.48"/>
<polygon fill="midnightblue" stroke="midnightblue" points="128.07,-26.85 135.81,-19.61 125.25,-20.45 128.07,-26.85"/>
</g>
</g>
</svg>
