<?xml version="1.0" encoding="UTF-8" standalone="no"?>
<!DOCTYPE svg PUBLIC "-//W3C//DTD SVG 1.1//EN"
 "http://www.w3.org/Graphics/SVG/1.1/DTD/svg11.dtd">
<!-- Generated by graphviz version 2.43.0 (0)
 -->
<!-- Title: src/labs/outlab6/Compute.h Pages: 1 -->
<!--zoomable 386 -->
<svg id="main" version="1.1" xmlns="http://www.w3.org/2000/svg" xmlns:xlink="http://www.w3.org/1999/xlink" xml:space="preserve" onload="init(evt)">
<style type="text/css"><![CDATA[
.edge:hover path { stroke: red; }
.edge:hover polygon { stroke: red; fill: red; }
]]></style>
<script type="text/javascript"><![CDATA[
var edges = document.getElementsByTagName('g');
if (edges && edges.length) {
  for (var i=0;i<edges.length;i++) {
    if (edges[i].id.substr(0,4)=='edge') {
      edges[i].setAttribute('class','edge');
    }
  }
}
]]></script>
        <defs>
                <circle id="rim" cx="0" cy="0" r="7"/>
                <circle id="rim2" cx="0" cy="0" r="3.5"/>
                <g id="zoomPlus">
                        <use xlink:href="#rim" fill="#404040">
                                <set attributeName="fill" to="#808080" begin="zoomplus.mouseover" end="zoomplus.mouseout"/>
                        </use>
                        <path d="M-4,0h8M0,-4v8" fill="none" stroke="white" stroke-width="1.5" pointer-events="none"/>
                </g>
                <g id="zoomMin">
                        <use xlink:href="#rim" fill="#404040">
                                <set attributeName="fill" to="#808080" begin="zoomminus.mouseover" end="zoomminus.mouseout"/>
                        </use>
                        <path d="M-4,0h8" fill="none" stroke="white" stroke-width="1.5" pointer-events="none"/>
                </g>
                <g id="dirArrow">
                        <path fill="none" stroke="white" stroke-width="1.5" d="M0,-3.0v7 M-2.5,-0.5L0,-3.0L2.5,-0.5"/>
                </g>
               <g id="resetDef">
                       <use xlink:href="#rim2" fill="#404040">
                               <set attributeName="fill" to="#808080" begin="reset.mouseover" end="reset.mouseout"/>
                       </use>
               </g>
        </defs>

<script type="text/javascript">
var viewWidth = 1857;
var viewHeight = 386;
var sectionId = 'dynsection-0';
</script>
<script xlink:href="../../svgpan.js"/>
<svg id="graph" class="graph">
<g id="viewport">
<title>src/labs/outlab6/Compute.h</title>
<polygon fill="white" stroke="transparent" points="-4,4 -4,-382 1852.92,-382 1852.92,4 -4,4"/>
<!-- Node1 -->
<g id="node1" class="node">
<title>Node1</title>
<g id="a_node1"><a xlink:title="This file contains the Compute namespace which includes methods for solving linear systems using vari...">
<polygon fill="#bfbfbf" stroke="black" points="1108.5,-358.5 1108.5,-377.5 1258.5,-377.5 1258.5,-358.5 1108.5,-358.5"/>
<text text-anchor="middle" x="1183.5" y="-365.5" font-family="Helvetica,sans-Serif" font-size="10.00">src/labs/outlab6/Compute.h</text>
</a>
</g>
</g>
<!-- Node2 -->
<g id="node2" class="node">
<title>Node2</title>
<g id="a_node2"><a xlink:title=" ">
<polygon fill="white" stroke="#bfbfbf" points="1381.5,-0.5 1381.5,-19.5 1441.5,-19.5 1441.5,-0.5 1381.5,-0.5"/>
<text text-anchor="middle" x="1411.5" y="-7.5" font-family="Helvetica,sans-Serif" font-size="10.00">iostream</text>
</a>
</g>
</g>
<!-- Node1&#45;&gt;Node2 -->
<g id="edge1" class="edge">
<title>Node1&#45;&gt;Node2</title>
<path fill="none" stroke="midnightblue" d="M1258.7,-361.71C1432.54,-348.48 1847.5,-310.7 1847.5,-251.5 1847.5,-251.5 1847.5,-251.5 1847.5,-126.5 1847.5,-94.05 1853.16,-77.09 1828.5,-56 1814.27,-43.83 1553.63,-22.16 1451.79,-14.12"/>
<polygon fill="midnightblue" stroke="midnightblue" points="1451.84,-10.61 1441.6,-13.32 1451.29,-17.59 1451.84,-10.61"/>
</g>
<!-- Node3 -->
<g id="node3" class="node">
<title>Node3</title>
<g id="a_node3"><a xlink:title=" ">
<polygon fill="white" stroke="#bfbfbf" points="1259,-118 1259,-137 1306,-137 1306,-118 1259,-118"/>
<text text-anchor="middle" x="1282.5" y="-125" font-family="Helvetica,sans-Serif" font-size="10.00">cmath</text>
</a>
</g>
</g>
<!-- Node1&#45;&gt;Node3 -->
<g id="edge2" class="edge">
<title>Node1&#45;&gt;Node3</title>
<path fill="none" stroke="midnightblue" d="M1187.14,-358.23C1201.61,-323.38 1255.18,-194.31 1275.04,-146.48"/>
<polygon fill="midnightblue" stroke="midnightblue" points="1278.33,-147.68 1278.93,-137.1 1271.86,-144.99 1278.33,-147.68"/>
</g>
<!-- Node4 -->
<g id="node4" class="node">
<title>Node4</title>
<g id="a_node4"><a xlink:href="../../d3/db1/Matrix_8h.html" target="_top" xlink:title="This file contains my BLAS::Matrix declarations.">
<polygon fill="white" stroke="black" points="1131,-118 1131,-137 1240,-137 1240,-118 1131,-118"/>
<text text-anchor="middle" x="1185.5" y="-125" font-family="Helvetica,sans-Serif" font-size="10.00">math/blas/Matrix.h</text>
</a>
</g>
</g>
<!-- Node1&#45;&gt;Node4 -->
<g id="edge3" class="edge">
<title>Node1&#45;&gt;Node4</title>
<path fill="none" stroke="midnightblue" d="M1183.57,-358.23C1183.86,-323.6 1184.93,-195.93 1185.34,-147.4"/>
<polygon fill="midnightblue" stroke="midnightblue" points="1188.84,-147.13 1185.43,-137.1 1181.84,-147.07 1188.84,-147.13"/>
</g>
<!-- Node9 -->
<g id="node9" class="node">
<title>Node9</title>
<g id="a_node9"><a xlink:href="../../d7/dff/LU_8h.html" target="_top" xlink:title="LU factorization and related methods for MyBLAS library.">
<polygon fill="white" stroke="black" points="1402,-179.5 1402,-198.5 1533,-198.5 1533,-179.5 1402,-179.5"/>
<text text-anchor="middle" x="1467.5" y="-186.5" font-family="Helvetica,sans-Serif" font-size="10.00">math/factorization/LU.h</text>
</a>
</g>
</g>
<!-- Node1&#45;&gt;Node9 -->
<g id="edge11" class="edge">
<title>Node1&#45;&gt;Node9</title>
<path fill="none" stroke="midnightblue" d="M1204.4,-358.43C1241.6,-342.72 1321.05,-307.15 1381.5,-266 1408.11,-247.88 1435.39,-222.36 1451.89,-206"/>
<polygon fill="midnightblue" stroke="midnightblue" points="1454.5,-208.33 1459.07,-198.78 1449.54,-203.4 1454.5,-208.33"/>
</g>
<!-- Node19 -->
<g id="node19" class="node">
<title>Node19</title>
<g id="a_node19"><a xlink:href="../../d1/d6a/Factorize_8h.html" target="_top" xlink:title="This file contains the declaration of the MyFactorizationMethod namespace, which includes methods and...">
<polygon fill="white" stroke="black" points="1006,-112.5 1006,-142.5 1113,-142.5 1113,-112.5 1006,-112.5"/>
<text text-anchor="start" x="1014" y="-130.5" font-family="Helvetica,sans-Serif" font-size="10.00">math/factorization</text>
<text text-anchor="middle" x="1059.5" y="-119.5" font-family="Helvetica,sans-Serif" font-size="10.00">/Factorize.h</text>
</a>
</g>
</g>
<!-- Node1&#45;&gt;Node19 -->
<g id="edge29" class="edge">
<title>Node1&#45;&gt;Node19</title>
<path fill="none" stroke="midnightblue" d="M1178.94,-358.23C1161.45,-324.6 1098.33,-203.18 1071.6,-151.76"/>
<polygon fill="midnightblue" stroke="midnightblue" points="1074.62,-149.99 1066.9,-142.74 1068.41,-153.22 1074.62,-149.99"/>
</g>
<!-- Node20 -->
<g id="node20" class="node">
<title>Node20</title>
<g id="a_node20"><a xlink:href="../../dd/d7b/PointJacobi_8h.html" target="_top" xlink:title="This file contains the implementation of the Point Jacobi method for solving systems of linear equati...">
<polygon fill="white" stroke="black" points="379,-241 379,-260 540,-260 540,-241 379,-241"/>
<text text-anchor="middle" x="459.5" y="-248" font-family="Helvetica,sans-Serif" font-size="10.00">math/relaxation/PointJacobi.h</text>
</a>
</g>
</g>
<!-- Node1&#45;&gt;Node20 -->
<g id="edge30" class="edge">
<title>Node1&#45;&gt;Node20</title>
<path fill="none" stroke="midnightblue" d="M1108.39,-364.83C1011.48,-360.96 838.06,-350.39 692.5,-322 619.23,-307.71 536.14,-279.58 491.67,-263.5"/>
<polygon fill="midnightblue" stroke="midnightblue" points="492.85,-260.21 482.26,-260.08 490.46,-266.79 492.85,-260.21"/>
</g>
<!-- Node29 -->
<g id="node29" class="node">
<title>Node29</title>
<g id="a_node29"><a xlink:href="../../d6/db9/GaussSeidel_8h.html" target="_top" xlink:title="This file contains the implementation of the Gauss&#45;Seidel method for solving systems of linear equati...">
<polygon fill="white" stroke="black" points="702,-302.5 702,-321.5 869,-321.5 869,-302.5 702,-302.5"/>
<text text-anchor="middle" x="785.5" y="-309.5" font-family="Helvetica,sans-Serif" font-size="10.00">math/relaxation/GaussSeidel.h</text>
</a>
</g>
</g>
<!-- Node1&#45;&gt;Node29 -->
<g id="edge43" class="edge">
<title>Node1&#45;&gt;Node29</title>
<path fill="none" stroke="midnightblue" d="M1120.44,-358.44C1049.26,-348.79 933.64,-333.1 858.58,-322.92"/>
<polygon fill="midnightblue" stroke="midnightblue" points="858.65,-319.39 848.27,-321.52 857.71,-326.33 858.65,-319.39"/>
</g>
<!-- Node32 -->
<g id="node32" class="node">
<title>Node32</title>
<g id="a_node32"><a xlink:href="../../d0/de6/SSOR_8h.html" target="_top" xlink:title="This file contains the implementation of the Symmetric Successive Over&#45;Relaxation (SSOR) method for s...">
<polygon fill="white" stroke="black" points="912,-241 912,-260 1045,-260 1045,-241 912,-241"/>
<text text-anchor="middle" x="978.5" y="-248" font-family="Helvetica,sans-Serif" font-size="10.00">math/relaxation/SSOR.h</text>
</a>
</g>
</g>
<!-- Node1&#45;&gt;Node32 -->
<g id="edge58" class="edge">
<title>Node1&#45;&gt;Node32</title>
<path fill="none" stroke="midnightblue" d="M1168.09,-358.32C1132.69,-338.37 1045.3,-289.14 1002.67,-265.12"/>
<polygon fill="midnightblue" stroke="midnightblue" points="1004.24,-261.98 993.81,-260.12 1000.8,-268.08 1004.24,-261.98"/>
</g>
<!-- Node33 -->
<g id="node33" class="node">
<title>Node33</title>
<g id="a_node33"><a xlink:href="../../d4/dfb/LUP_8h.html" target="_top" xlink:title="LU factorization with pivoting.">
<polygon fill="white" stroke="black" points="1266,-235.5 1266,-265.5 1373,-265.5 1373,-235.5 1266,-235.5"/>
<text text-anchor="start" x="1274" y="-253.5" font-family="Helvetica,sans-Serif" font-size="10.00">math/factorization</text>
<text text-anchor="middle" x="1319.5" y="-242.5" font-family="Helvetica,sans-Serif" font-size="10.00">/LUP.h</text>
</a>
</g>
</g>
<!-- Node1&#45;&gt;Node33 -->
<g id="edge64" class="edge">
<title>Node1&#45;&gt;Node33</title>
<path fill="none" stroke="midnightblue" d="M1193.72,-358.32C1215.07,-340.19 1264.88,-297.88 1295.02,-272.29"/>
<polygon fill="midnightblue" stroke="midnightblue" points="1297.61,-274.69 1302.96,-265.55 1293.07,-269.35 1297.61,-274.69"/>
</g>
<!-- Node4&#45;&gt;Node2 -->
<g id="edge5" class="edge">
<title>Node4&#45;&gt;Node2</title>
<path fill="none" stroke="midnightblue" d="M1202.49,-117.82C1241.68,-97.79 1338.67,-48.22 1385.44,-24.32"/>
<polygon fill="midnightblue" stroke="midnightblue" points="1387.31,-27.29 1394.62,-19.62 1384.13,-21.06 1387.31,-27.29"/>
</g>
<!-- Node5 -->
<g id="node5" class="node">
<title>Node5</title>
<g id="a_node5"><a xlink:title=" ">
<polygon fill="white" stroke="#bfbfbf" points="1083,-0.5 1083,-19.5 1130,-19.5 1130,-0.5 1083,-0.5"/>
<text text-anchor="middle" x="1106.5" y="-7.5" font-family="Helvetica,sans-Serif" font-size="10.00">vector</text>
</a>
</g>
</g>
<!-- Node4&#45;&gt;Node5 -->
<g id="edge4" class="edge">
<title>Node4&#45;&gt;Node5</title>
<path fill="none" stroke="midnightblue" d="M1179.56,-117.82C1166.58,-98.84 1135.47,-53.35 1118.32,-28.29"/>
<polygon fill="midnightblue" stroke="midnightblue" points="1121.04,-26.06 1112.51,-19.78 1115.26,-30.01 1121.04,-26.06"/>
</g>
<!-- Node6 -->
<g id="node6" class="node">
<title>Node6</title>
<g id="a_node6"><a xlink:title=" ">
<polygon fill="white" stroke="#bfbfbf" points="1175.5,-56.5 1175.5,-75.5 1239.5,-75.5 1239.5,-56.5 1175.5,-56.5"/>
<text text-anchor="middle" x="1207.5" y="-63.5" font-family="Helvetica,sans-Serif" font-size="10.00">algorithm</text>
</a>
</g>
</g>
<!-- Node4&#45;&gt;Node6 -->
<g id="edge6" class="edge">
<title>Node4&#45;&gt;Node6</title>
<path fill="none" stroke="midnightblue" d="M1188.65,-117.98C1191.82,-109.4 1196.8,-95.93 1200.85,-84.98"/>
<polygon fill="midnightblue" stroke="midnightblue" points="1204.17,-86.1 1204.35,-75.51 1197.6,-83.67 1204.17,-86.1"/>
</g>
<!-- Node7 -->
<g id="node7" class="node">
<title>Node7</title>
<g id="a_node7"><a xlink:href="../../d6/dbe/Vector_8h.html" target="_top" xlink:title="This file contains my BLAS::Vector implementation.">
<polygon fill="white" stroke="black" points="1012,-56.5 1012,-75.5 1119,-75.5 1119,-56.5 1012,-56.5"/>
<text text-anchor="middle" x="1065.5" y="-63.5" font-family="Helvetica,sans-Serif" font-size="10.00">math/blas/Vector.h</text>
</a>
</g>
</g>
<!-- Node4&#45;&gt;Node7 -->
<g id="edge7" class="edge">
<title>Node4&#45;&gt;Node7</title>
<path fill="none" stroke="midnightblue" d="M1168.31,-117.98C1148.26,-108.03 1114.9,-91.49 1091.64,-79.96"/>
<polygon fill="midnightblue" stroke="midnightblue" points="1093.18,-76.82 1082.66,-75.51 1090.07,-83.09 1093.18,-76.82"/>
</g>
<!-- Node7&#45;&gt;Node2 -->
<g id="edge9" class="edge">
<title>Node7&#45;&gt;Node2</title>
<path fill="none" stroke="midnightblue" d="M1119.18,-56.62C1188.8,-45.76 1308.69,-27.05 1371.09,-17.31"/>
<polygon fill="midnightblue" stroke="midnightblue" points="1371.99,-20.71 1381.33,-15.71 1370.91,-13.79 1371.99,-20.71"/>
</g>
<!-- Node7&#45;&gt;Node5 -->
<g id="edge8" class="edge">
<title>Node7&#45;&gt;Node5</title>
<path fill="none" stroke="midnightblue" d="M1072.27,-56.08C1078.06,-48.46 1086.56,-37.26 1093.64,-27.94"/>
<polygon fill="midnightblue" stroke="midnightblue" points="1096.6,-29.83 1099.86,-19.75 1091.02,-25.6 1096.6,-29.83"/>
</g>
<!-- Node8 -->
<g id="node8" class="node">
<title>Node8</title>
<g id="a_node8"><a xlink:title=" ">
<polygon fill="white" stroke="#bfbfbf" points="1236.5,-0.5 1236.5,-19.5 1292.5,-19.5 1292.5,-0.5 1236.5,-0.5"/>
<text text-anchor="middle" x="1264.5" y="-7.5" font-family="Helvetica,sans-Serif" font-size="10.00">iomanip</text>
</a>
</g>
</g>
<!-- Node7&#45;&gt;Node8 -->
<g id="edge10" class="edge">
<title>Node7&#45;&gt;Node8</title>
<path fill="none" stroke="midnightblue" d="M1097.03,-56.44C1132.09,-46.93 1188.72,-31.56 1226.28,-21.37"/>
<polygon fill="midnightblue" stroke="midnightblue" points="1227.6,-24.64 1236.33,-18.64 1225.77,-17.88 1227.6,-24.64"/>
</g>
<!-- Node9&#45;&gt;Node2 -->
<g id="edge12" class="edge">
<title>Node9&#45;&gt;Node2</title>
<path fill="none" stroke="midnightblue" d="M1464.52,-179.32C1458.09,-160.54 1442.55,-114.71 1430.5,-76 1425.64,-60.39 1420.45,-42.56 1416.73,-29.53"/>
<polygon fill="midnightblue" stroke="midnightblue" points="1420.08,-28.52 1413.98,-19.86 1413.35,-30.44 1420.08,-28.52"/>
</g>
<!-- Node9&#45;&gt;Node3 -->
<g id="edge13" class="edge">
<title>Node9&#45;&gt;Node3</title>
<path fill="none" stroke="midnightblue" d="M1440.99,-179.48C1407.93,-168.84 1351.41,-150.66 1315.55,-139.13"/>
<polygon fill="midnightblue" stroke="midnightblue" points="1316.62,-135.8 1306.03,-136.07 1314.48,-142.46 1316.62,-135.8"/>
</g>
<!-- Node9&#45;&gt;Node4 -->
<g id="edge14" class="edge">
<title>Node9&#45;&gt;Node4</title>
<path fill="none" stroke="midnightblue" d="M1424.84,-179.45C1380.86,-170.57 1310.31,-156.16 1249.5,-143 1244.07,-141.82 1238.39,-140.57 1232.75,-139.31"/>
<polygon fill="midnightblue" stroke="midnightblue" points="1233.22,-135.83 1222.7,-137.06 1231.69,-142.66 1233.22,-135.83"/>
</g>
<!-- Node9&#45;&gt;Node7 -->
<g id="edge15" class="edge">
<title>Node9&#45;&gt;Node7</title>
<path fill="none" stroke="midnightblue" d="M1457.26,-179.25C1437.73,-163.09 1393.21,-128.69 1349.5,-112 1310.33,-97.05 1200.27,-82.34 1129.23,-74"/>
<polygon fill="midnightblue" stroke="midnightblue" points="1129.38,-70.49 1119.05,-72.81 1128.58,-77.44 1129.38,-70.49"/>
</g>
<!-- Node10 -->
<g id="node10" class="node">
<title>Node10</title>
<g id="a_node10"><a xlink:href="../../d9/d41/CommandLine_8h.html" target="_top" xlink:title="This file contains the definition of the CommandLine class and the HeaderInfo struct.">
<polygon fill="white" stroke="black" points="1491.5,-118 1491.5,-137 1605.5,-137 1605.5,-118 1491.5,-118"/>
<text text-anchor="middle" x="1548.5" y="-125" font-family="Helvetica,sans-Serif" font-size="10.00">../../CommandLine.h</text>
</a>
</g>
</g>
<!-- Node9&#45;&gt;Node10 -->
<g id="edge16" class="edge">
<title>Node9&#45;&gt;Node10</title>
<path fill="none" stroke="midnightblue" d="M1479.11,-179.48C1491.98,-170.02 1512.97,-154.6 1528.51,-143.19"/>
<polygon fill="midnightblue" stroke="midnightblue" points="1530.93,-145.75 1536.92,-137.01 1526.78,-140.11 1530.93,-145.75"/>
</g>
<!-- Node17 -->
<g id="node17" class="node">
<title>Node17</title>
<g id="a_node17"><a xlink:href="../../d4/d2e/Stopwatch_8h.html" target="_top" xlink:title="This file contains the Stopwatch class which is a utility for measuring time durations in various uni...">
<polygon fill="white" stroke="black" points="1624,-118 1624,-137 1719,-137 1719,-118 1624,-118"/>
<text text-anchor="middle" x="1671.5" y="-125" font-family="Helvetica,sans-Serif" font-size="10.00">../../Stopwatch.h</text>
</a>
</g>
</g>
<!-- Node9&#45;&gt;Node17 -->
<g id="edge27" class="edge">
<title>Node9&#45;&gt;Node17</title>
<path fill="none" stroke="midnightblue" d="M1496.73,-179.48C1532.4,-169.07 1592.86,-151.44 1632.48,-139.88"/>
<polygon fill="midnightblue" stroke="midnightblue" points="1633.71,-143.17 1642.33,-137.01 1631.75,-136.45 1633.71,-143.17"/>
</g>
<!-- Node10&#45;&gt;Node2 -->
<g id="edge18" class="edge">
<title>Node10&#45;&gt;Node2</title>
<path fill="none" stroke="midnightblue" d="M1543.2,-117.79C1534.19,-103.5 1514.67,-74.8 1492.5,-56 1477.01,-42.87 1457.11,-31.74 1440.9,-23.84"/>
<polygon fill="midnightblue" stroke="midnightblue" points="1442.39,-20.67 1431.85,-19.57 1439.4,-27.01 1442.39,-20.67"/>
</g>
<!-- Node11 -->
<g id="node11" class="node">
<title>Node11</title>
<g id="a_node11"><a xlink:title=" ">
<polygon fill="white" stroke="#bfbfbf" points="1439.5,-56.5 1439.5,-75.5 1483.5,-75.5 1483.5,-56.5 1439.5,-56.5"/>
<text text-anchor="middle" x="1461.5" y="-63.5" font-family="Helvetica,sans-Serif" font-size="10.00">string</text>
</a>
</g>
</g>
<!-- Node10&#45;&gt;Node11 -->
<g id="edge17" class="edge">
<title>Node10&#45;&gt;Node11</title>
<path fill="none" stroke="midnightblue" d="M1536.04,-117.98C1522.08,-108.43 1499.24,-92.81 1482.51,-81.37"/>
<polygon fill="midnightblue" stroke="midnightblue" points="1484.17,-78.27 1473.94,-75.51 1480.22,-84.04 1484.17,-78.27"/>
</g>
<!-- Node12 -->
<g id="node12" class="node">
<title>Node12</title>
<g id="a_node12"><a xlink:title=" ">
<polygon fill="white" stroke="#bfbfbf" points="1693.5,-0.5 1693.5,-19.5 1843.5,-19.5 1843.5,-0.5 1693.5,-0.5"/>
<text text-anchor="middle" x="1768.5" y="-7.5" font-family="Helvetica,sans-Serif" font-size="10.00">boost/program_options.hpp</text>
</a>
</g>
</g>
<!-- Node10&#45;&gt;Node12 -->
<g id="edge19" class="edge">
<title>Node10&#45;&gt;Node12</title>
<path fill="none" stroke="midnightblue" d="M1589.21,-117.96C1633.58,-108.08 1701.1,-91.23 1722.5,-76 1739.52,-63.88 1752.48,-43.42 1760.23,-28.69"/>
<polygon fill="midnightblue" stroke="midnightblue" points="1763.45,-30.09 1764.76,-19.58 1757.18,-26.97 1763.45,-30.09"/>
</g>
<!-- Node13 -->
<g id="node13" class="node">
<title>Node13</title>
<g id="a_node13"><a xlink:title=" ">
<polygon fill="white" stroke="#bfbfbf" points="1539.5,-56.5 1539.5,-75.5 1631.5,-75.5 1631.5,-56.5 1539.5,-56.5"/>
<text text-anchor="middle" x="1585.5" y="-63.5" font-family="Helvetica,sans-Serif" font-size="10.00">project&#45;config.h</text>
</a>
</g>
</g>
<!-- Node10&#45;&gt;Node13 -->
<g id="edge20" class="edge">
<title>Node10&#45;&gt;Node13</title>
<path fill="none" stroke="midnightblue" d="M1553.8,-117.98C1559.24,-109.23 1567.86,-95.37 1574.74,-84.31"/>
<polygon fill="midnightblue" stroke="midnightblue" points="1577.9,-85.85 1580.21,-75.51 1571.96,-82.15 1577.9,-85.85"/>
</g>
<!-- Node14 -->
<g id="node14" class="node">
<title>Node14</title>
<g id="a_node14"><a xlink:href="../../db/df1/Helpers_8h.html" target="_top" xlink:title="This file contains helper functions and structures used throughout the program.">
<polygon fill="white" stroke="black" points="1650,-56.5 1650,-75.5 1713,-75.5 1713,-56.5 1650,-56.5"/>
<text text-anchor="middle" x="1681.5" y="-63.5" font-family="Helvetica,sans-Serif" font-size="10.00">Helpers.h</text>
</a>
</g>
</g>
<!-- Node10&#45;&gt;Node14 -->
<g id="edge21" class="edge">
<title>Node10&#45;&gt;Node14</title>
<path fill="none" stroke="midnightblue" d="M1567.56,-117.98C1589.97,-107.95 1627.41,-91.2 1653.21,-79.65"/>
<polygon fill="midnightblue" stroke="midnightblue" points="1654.78,-82.79 1662.48,-75.51 1651.92,-76.4 1654.78,-82.79"/>
</g>
<!-- Node14&#45;&gt;Node2 -->
<g id="edge22" class="edge">
<title>Node14&#45;&gt;Node2</title>
<path fill="none" stroke="midnightblue" d="M1649.73,-57.95C1646.61,-57.28 1643.5,-56.62 1640.5,-56 1574.44,-42.26 1497.42,-27.35 1451.66,-18.61"/>
<polygon fill="midnightblue" stroke="midnightblue" points="1452.03,-15.12 1441.55,-16.69 1450.72,-22 1452.03,-15.12"/>
</g>
<!-- Node14&#45;&gt;Node8 -->
<g id="edge23" class="edge">
<title>Node14&#45;&gt;Node8</title>
<path fill="none" stroke="midnightblue" d="M1649.78,-57.72C1646.65,-57.1 1643.52,-56.51 1640.5,-56 1518.05,-35.28 1371.59,-20.64 1303.22,-14.38"/>
<polygon fill="midnightblue" stroke="midnightblue" points="1303.21,-10.87 1292.94,-13.45 1302.58,-17.84 1303.21,-10.87"/>
</g>
<!-- Node14&#45;&gt;Node12 -->
<g id="edge25" class="edge">
<title>Node14&#45;&gt;Node12</title>
<path fill="none" stroke="midnightblue" d="M1695.48,-56.32C1709.05,-47.9 1729.88,-34.97 1745.82,-25.07"/>
<polygon fill="midnightblue" stroke="midnightblue" points="1747.91,-27.9 1754.56,-19.65 1744.21,-21.95 1747.91,-27.9"/>
</g>
<!-- Node15 -->
<g id="node15" class="node">
<title>Node15</title>
<g id="a_node15"><a xlink:title=" ">
<polygon fill="white" stroke="#bfbfbf" points="1631.5,-0.5 1631.5,-19.5 1675.5,-19.5 1675.5,-0.5 1631.5,-0.5"/>
<text text-anchor="middle" x="1653.5" y="-7.5" font-family="Helvetica,sans-Serif" font-size="10.00">limits</text>
</a>
</g>
</g>
<!-- Node14&#45;&gt;Node15 -->
<g id="edge24" class="edge">
<title>Node14&#45;&gt;Node15</title>
<path fill="none" stroke="midnightblue" d="M1676.88,-56.08C1673.04,-48.69 1667.48,-37.95 1662.74,-28.81"/>
<polygon fill="midnightblue" stroke="midnightblue" points="1665.75,-27.02 1658.04,-19.75 1659.53,-30.24 1665.75,-27.02"/>
</g>
<!-- Node16 -->
<g id="node16" class="node">
<title>Node16</title>
<g id="a_node16"><a xlink:title=" ">
<polygon fill="white" stroke="#bfbfbf" points="1555.5,-0.5 1555.5,-19.5 1613.5,-19.5 1613.5,-0.5 1555.5,-0.5"/>
<text text-anchor="middle" x="1584.5" y="-7.5" font-family="Helvetica,sans-Serif" font-size="10.00">json.hpp</text>
</a>
</g>
</g>
<!-- Node14&#45;&gt;Node16 -->
<g id="edge26" class="edge">
<title>Node14&#45;&gt;Node16</title>
<path fill="none" stroke="midnightblue" d="M1665.92,-56.32C1650.5,-47.74 1626.69,-34.49 1608.79,-24.52"/>
<polygon fill="midnightblue" stroke="midnightblue" points="1610.49,-21.46 1600.05,-19.65 1607.08,-27.58 1610.49,-21.46"/>
</g>
<!-- Node18 -->
<g id="node18" class="node">
<title>Node18</title>
<g id="a_node18"><a xlink:title=" ">
<polygon fill="white" stroke="#bfbfbf" points="1769.5,-56.5 1769.5,-75.5 1819.5,-75.5 1819.5,-56.5 1769.5,-56.5"/>
<text text-anchor="middle" x="1794.5" y="-63.5" font-family="Helvetica,sans-Serif" font-size="10.00">chrono</text>
</a>
</g>
</g>
<!-- Node17&#45;&gt;Node18 -->
<g id="edge28" class="edge">
<title>Node17&#45;&gt;Node18</title>
<path fill="none" stroke="midnightblue" d="M1689.12,-117.98C1709.67,-108.03 1743.86,-91.49 1767.71,-79.96"/>
<polygon fill="midnightblue" stroke="midnightblue" points="1769.43,-83.01 1776.91,-75.51 1766.38,-76.71 1769.43,-83.01"/>
</g>
<!-- Node20&#45;&gt;Node4 -->
<g id="edge32" class="edge">
<title>Node20&#45;&gt;Node4</title>
<path fill="none" stroke="midnightblue" d="M458.91,-240.88C458.39,-225.66 459.8,-194.18 478.5,-179 534.06,-133.91 1050.64,-152.94 1121.5,-143 1128.4,-142.03 1135.65,-140.7 1142.7,-139.23"/>
<polygon fill="midnightblue" stroke="midnightblue" points="1143.79,-142.58 1152.81,-137.01 1142.29,-135.74 1143.79,-142.58"/>
</g>
<!-- Node20&#45;&gt;Node7 -->
<g id="edge33" class="edge">
<title>Node20&#45;&gt;Node7</title>
<path fill="none" stroke="midnightblue" d="M378.89,-244.78C248.4,-234.42 13.81,-202.83 100.5,-112 131.62,-79.39 791.09,-69.82 1001.55,-67.58"/>
<polygon fill="midnightblue" stroke="midnightblue" points="1001.86,-71.08 1011.82,-67.48 1001.79,-64.08 1001.86,-71.08"/>
</g>
<!-- Node21 -->
<g id="node21" class="node">
<title>Node21</title>
<g id="a_node21"><a xlink:title=" ">
<polygon fill="white" stroke="#bfbfbf" points="0,-179.5 0,-198.5 53,-198.5 53,-179.5 0,-179.5"/>
<text text-anchor="middle" x="26.5" y="-186.5" font-family="Helvetica,sans-Serif" font-size="10.00">cstddef</text>
</a>
</g>
</g>
<!-- Node20&#45;&gt;Node21 -->
<g id="edge31" class="edge">
<title>Node20&#45;&gt;Node21</title>
<path fill="none" stroke="midnightblue" d="M378.86,-241.21C299.39,-232.55 174.65,-217.63 67.5,-199 66.21,-198.78 64.89,-198.54 63.57,-198.29"/>
<polygon fill="midnightblue" stroke="midnightblue" points="63.83,-194.77 53.34,-196.25 62.46,-201.64 63.83,-194.77"/>
</g>
<!-- Node22 -->
<g id="node22" class="node">
<title>Node22</title>
<g id="a_node22"><a xlink:href="../../d4/d8a/Ops_8h.html" target="_top" xlink:title="This file contains the definition of the L2Norm function, which calculates the L2 norm (Euclidean dis...">
<polygon fill="white" stroke="black" points="487.5,-179.5 487.5,-198.5 583.5,-198.5 583.5,-179.5 487.5,-179.5"/>
<text text-anchor="middle" x="535.5" y="-186.5" font-family="Helvetica,sans-Serif" font-size="10.00">math/blas/Ops.h</text>
</a>
</g>
</g>
<!-- Node20&#45;&gt;Node22 -->
<g id="edge34" class="edge">
<title>Node20&#45;&gt;Node22</title>
<path fill="none" stroke="midnightblue" d="M470.39,-240.98C482.47,-231.52 502.17,-216.1 516.74,-204.69"/>
<polygon fill="midnightblue" stroke="midnightblue" points="518.91,-207.43 524.63,-198.51 514.6,-201.92 518.91,-207.43"/>
</g>
<!-- Node26 -->
<g id="node26" class="node">
<title>Node26</title>
<g id="a_node26"><a xlink:href="../../d0/d24/RelaxationMethods_8h.html" target="_top" xlink:title="This file contains the declaration of the RelaxationMethods namespace, which includes the Type enumer...">
<polygon fill="white" stroke="black" points="449.5,-112.5 449.5,-142.5 599.5,-142.5 599.5,-112.5 449.5,-112.5"/>
<text text-anchor="start" x="457.5" y="-130.5" font-family="Helvetica,sans-Serif" font-size="10.00">math/relaxation/Relaxation</text>
<text text-anchor="middle" x="524.5" y="-119.5" font-family="Helvetica,sans-Serif" font-size="10.00">Methods.h</text>
</a>
</g>
</g>
<!-- Node20&#45;&gt;Node26 -->
<g id="edge38" class="edge">
<title>Node20&#45;&gt;Node26</title>
<path fill="none" stroke="midnightblue" d="M454.18,-240.69C446.53,-226.75 434.47,-199.14 445.5,-179 452.81,-165.66 465.3,-155.33 478.23,-147.59"/>
<polygon fill="midnightblue" stroke="midnightblue" points="480.13,-150.54 487.19,-142.64 476.74,-144.41 480.13,-150.54"/>
</g>
<!-- Node27 -->
<g id="node27" class="node">
<title>Node27</title>
<g id="a_node27"><a xlink:href="../../df/dbd/LinearSolver_8h.html" target="_top" xlink:title="This file contains the definition of the LinearSolver class and its associated methods.">
<polygon fill="white" stroke="black" points="677.5,-179.5 677.5,-198.5 791.5,-198.5 791.5,-179.5 677.5,-179.5"/>
<text text-anchor="middle" x="734.5" y="-186.5" font-family="Helvetica,sans-Serif" font-size="10.00">math/LinearSolver.h</text>
</a>
</g>
</g>
<!-- Node20&#45;&gt;Node27 -->
<g id="edge39" class="edge">
<title>Node20&#45;&gt;Node27</title>
<path fill="none" stroke="midnightblue" d="M498.9,-240.98C548.01,-230.35 631.97,-212.18 685.27,-200.65"/>
<polygon fill="midnightblue" stroke="midnightblue" points="686.14,-204.04 695.17,-198.51 684.66,-197.2 686.14,-204.04"/>
</g>
<!-- Node23 -->
<g id="node23" class="node">
<title>Node23</title>
<g id="a_node23"><a xlink:title=" ">
<polygon fill="white" stroke="#bfbfbf" points="109.5,-112.5 109.5,-142.5 225.5,-142.5 225.5,-112.5 109.5,-112.5"/>
<text text-anchor="start" x="117.5" y="-130.5" font-family="Helvetica,sans-Serif" font-size="10.00">boost/numeric/ublas</text>
<text text-anchor="middle" x="167.5" y="-119.5" font-family="Helvetica,sans-Serif" font-size="10.00">/matrix.hpp</text>
</a>
</g>
</g>
<!-- Node22&#45;&gt;Node23 -->
<g id="edge35" class="edge">
<title>Node22&#45;&gt;Node23</title>
<path fill="none" stroke="midnightblue" d="M487.38,-181.78C429.86,-174.14 330.47,-160.24 235.61,-143.13"/>
<polygon fill="midnightblue" stroke="midnightblue" points="236.02,-139.65 225.56,-141.31 234.77,-146.54 236.02,-139.65"/>
</g>
<!-- Node24 -->
<g id="node24" class="node">
<title>Node24</title>
<g id="a_node24"><a xlink:title=" ">
<polygon fill="white" stroke="#bfbfbf" points="243.5,-112.5 243.5,-142.5 359.5,-142.5 359.5,-112.5 243.5,-112.5"/>
<text text-anchor="start" x="251.5" y="-130.5" font-family="Helvetica,sans-Serif" font-size="10.00">boost/numeric/ublas</text>
<text text-anchor="middle" x="301.5" y="-119.5" font-family="Helvetica,sans-Serif" font-size="10.00">/io.hpp</text>
</a>
</g>
</g>
<!-- Node22&#45;&gt;Node24 -->
<g id="edge36" class="edge">
<title>Node22&#45;&gt;Node24</title>
<path fill="none" stroke="midnightblue" d="M501.97,-179.48C466.73,-170.51 410.39,-156.19 366.4,-145"/>
<polygon fill="midnightblue" stroke="midnightblue" points="367.2,-141.6 356.65,-142.52 365.48,-148.38 367.2,-141.6"/>
</g>
<!-- Node25 -->
<g id="node25" class="node">
<title>Node25</title>
<g id="a_node25"><a xlink:title=" ">
<polygon fill="white" stroke="#bfbfbf" points="377.5,-118 377.5,-137 431.5,-137 431.5,-118 377.5,-118"/>
<text text-anchor="middle" x="404.5" y="-125" font-family="Helvetica,sans-Serif" font-size="10.00">random</text>
</a>
</g>
</g>
<!-- Node22&#45;&gt;Node25 -->
<g id="edge37" class="edge">
<title>Node22&#45;&gt;Node25</title>
<path fill="none" stroke="midnightblue" d="M516.73,-179.48C494.65,-169.45 457.78,-152.7 432.36,-141.15"/>
<polygon fill="midnightblue" stroke="midnightblue" points="433.79,-137.96 423.23,-137.01 430.89,-144.33 433.79,-137.96"/>
</g>
<!-- Node27&#45;&gt;Node19 -->
<g id="edge40" class="edge">
<title>Node27&#45;&gt;Node19</title>
<path fill="none" stroke="midnightblue" d="M781.06,-179.48C837.54,-169.14 933.01,-151.66 996.15,-140.1"/>
<polygon fill="midnightblue" stroke="midnightblue" points="996.79,-143.54 1006,-138.3 995.53,-136.65 996.79,-143.54"/>
</g>
<!-- Node27&#45;&gt;Node26 -->
<g id="edge41" class="edge">
<title>Node27&#45;&gt;Node26</title>
<path fill="none" stroke="midnightblue" d="M704.41,-179.48C673.05,-170.59 623.07,-156.43 583.74,-145.29"/>
<polygon fill="midnightblue" stroke="midnightblue" points="584.57,-141.88 573.99,-142.52 582.66,-148.62 584.57,-141.88"/>
</g>
<!-- Node28 -->
<g id="node28" class="node">
<title>Node28</title>
<g id="a_node28"><a xlink:title=" ">
<polygon fill="white" stroke="#bfbfbf" points="709,-118 709,-137 760,-137 760,-118 709,-118"/>
<text text-anchor="middle" x="734.5" y="-125" font-family="Helvetica,sans-Serif" font-size="10.00">variant</text>
</a>
</g>
</g>
<!-- Node27&#45;&gt;Node28 -->
<g id="edge42" class="edge">
<title>Node27&#45;&gt;Node28</title>
<path fill="none" stroke="midnightblue" d="M734.5,-179.48C734.5,-171.08 734.5,-157.98 734.5,-147.16"/>
<polygon fill="midnightblue" stroke="midnightblue" points="738,-147.01 734.5,-137.01 731,-147.01 738,-147.01"/>
</g>
<!-- Node29&#45;&gt;Node4 -->
<g id="edge46" class="edge">
<title>Node29&#45;&gt;Node4</title>
<path fill="none" stroke="midnightblue" d="M869.25,-310.39C924.41,-306.84 996.66,-296.03 1053.5,-266 1108.94,-236.71 1154.63,-175.44 1174.63,-145.59"/>
<polygon fill="midnightblue" stroke="midnightblue" points="1177.65,-147.36 1180.2,-137.08 1171.79,-143.53 1177.65,-147.36"/>
</g>
<!-- Node29&#45;&gt;Node7 -->
<g id="edge47" class="edge">
<title>Node29&#45;&gt;Node7</title>
<path fill="none" stroke="midnightblue" d="M768.65,-302.41C739.69,-286.55 681.36,-249.64 658.5,-199 648.25,-176.29 650.81,-129.79 669.5,-112 693.06,-89.58 895.56,-75.82 1001.49,-70.09"/>
<polygon fill="midnightblue" stroke="midnightblue" points="1001.94,-73.58 1011.74,-69.55 1001.57,-66.58 1001.94,-73.58"/>
</g>
<!-- Node29&#45;&gt;Node22 -->
<g id="edge45" class="edge">
<title>Node29&#45;&gt;Node22</title>
<path fill="none" stroke="midnightblue" d="M701.84,-302.86C667.52,-296.6 628.62,-285.54 597.5,-266 574.14,-251.33 555.52,-224.79 544.99,-207.28"/>
<polygon fill="midnightblue" stroke="midnightblue" points="548.02,-205.53 540,-198.62 541.96,-209.03 548.02,-205.53"/>
</g>
<!-- Node29&#45;&gt;Node27 -->
<g id="edge44" class="edge">
<title>Node29&#45;&gt;Node27</title>
<path fill="none" stroke="midnightblue" d="M777.81,-302.31C770.54,-293.67 759.84,-279.76 753.5,-266 744.99,-247.51 739.93,-224.66 737.2,-208.87"/>
<polygon fill="midnightblue" stroke="midnightblue" points="740.63,-208.12 735.61,-198.79 733.71,-209.21 740.63,-208.12"/>
</g>
<!-- Node30 -->
<g id="node30" class="node">
<title>Node30</title>
<g id="a_node30"><a xlink:href="../../d9/d77/MyBLAS_8h.html" target="_top" xlink:title="My BLAS methods for NE591&#45;008.">
<polygon fill="white" stroke="black" points="847.5,-179.5 847.5,-198.5 965.5,-198.5 965.5,-179.5 847.5,-179.5"/>
<text text-anchor="middle" x="906.5" y="-186.5" font-family="Helvetica,sans-Serif" font-size="10.00">math/blas/MyBLAS.h</text>
</a>
</g>
</g>
<!-- Node29&#45;&gt;Node30 -->
<g id="edge48" class="edge">
<title>Node29&#45;&gt;Node30</title>
<path fill="none" stroke="midnightblue" d="M794.2,-302.3C814.43,-282.07 864.88,-231.62 890.71,-205.79"/>
<polygon fill="midnightblue" stroke="midnightblue" points="893.28,-208.17 897.88,-198.62 888.33,-203.22 893.28,-208.17"/>
</g>
<!-- Node31 -->
<g id="node31" class="node">
<title>Node31</title>
<g id="a_node31"><a xlink:href="../../d3/d3e/SOR_8h.html" target="_top" xlink:title="This file contains the implementation of the Successive Over&#45;Relaxation (SOR) method for solving syst...">
<polygon fill="white" stroke="black" points="762.5,-241 762.5,-260 808.5,-260 808.5,-241 762.5,-241"/>
<text text-anchor="middle" x="785.5" y="-248" font-family="Helvetica,sans-Serif" font-size="10.00">SOR.h</text>
</a>
</g>
</g>
<!-- Node29&#45;&gt;Node31 -->
<g id="edge52" class="edge">
<title>Node29&#45;&gt;Node31</title>
<path fill="none" stroke="midnightblue" d="M785.5,-302.48C785.5,-294.08 785.5,-280.98 785.5,-270.16"/>
<polygon fill="midnightblue" stroke="midnightblue" points="789,-270.01 785.5,-260.01 782,-270.01 789,-270.01"/>
</g>
<!-- Node30&#45;&gt;Node3 -->
<g id="edge49" class="edge">
<title>Node30&#45;&gt;Node3</title>
<path fill="none" stroke="midnightblue" d="M965.55,-185.11C1034.49,-180.63 1151.45,-169.54 1248.5,-143 1250.8,-142.37 1253.14,-141.62 1255.48,-140.8"/>
<polygon fill="midnightblue" stroke="midnightblue" points="1256.81,-144.03 1264.83,-137.11 1254.24,-137.52 1256.81,-144.03"/>
</g>
<!-- Node30&#45;&gt;Node4 -->
<g id="edge50" class="edge">
<title>Node30&#45;&gt;Node4</title>
<path fill="none" stroke="midnightblue" d="M948.16,-179.49C991.51,-170.59 1061.32,-156.11 1121.5,-143 1126.93,-141.82 1132.61,-140.56 1138.25,-139.3"/>
<polygon fill="midnightblue" stroke="midnightblue" points="1139.31,-142.65 1148.3,-137.04 1137.77,-135.82 1139.31,-142.65"/>
</g>
<!-- Node30&#45;&gt;Node7 -->
<g id="edge51" class="edge">
<title>Node30&#45;&gt;Node7</title>
<path fill="none" stroke="midnightblue" d="M911.02,-179.34C919.45,-163.92 938.96,-131.49 963.5,-112 981.99,-97.31 1006.03,-86.4 1026.13,-79"/>
<polygon fill="midnightblue" stroke="midnightblue" points="1027.37,-82.28 1035.64,-75.65 1025.04,-75.67 1027.37,-82.28"/>
</g>
<!-- Node31&#45;&gt;Node4 -->
<g id="edge55" class="edge">
<title>Node31&#45;&gt;Node4</title>
<path fill="none" stroke="midnightblue" d="M789.24,-240.77C796.33,-225.37 813.34,-193.62 838.5,-179 948.13,-115.3 996.64,-165.03 1121.5,-143 1127.76,-141.9 1134.33,-140.58 1140.78,-139.21"/>
<polygon fill="midnightblue" stroke="midnightblue" points="1141.73,-142.58 1150.75,-137.01 1140.23,-135.75 1141.73,-142.58"/>
</g>
<!-- Node31&#45;&gt;Node7 -->
<g id="edge56" class="edge">
<title>Node31&#45;&gt;Node7</title>
<path fill="none" stroke="midnightblue" d="M762.24,-246.95C734.51,-242.52 689.29,-230.61 668.5,-199 649.84,-170.62 675.67,-129.37 699.5,-112 746.31,-77.88 909.83,-69.51 1001.67,-67.54"/>
<polygon fill="midnightblue" stroke="midnightblue" points="1001.75,-71.04 1011.68,-67.34 1001.62,-64.04 1001.75,-71.04"/>
</g>
<!-- Node31&#45;&gt;Node22 -->
<g id="edge54" class="edge">
<title>Node31&#45;&gt;Node22</title>
<path fill="none" stroke="midnightblue" d="M762.43,-244.01C721.32,-234.23 634.7,-213.61 581.17,-200.87"/>
<polygon fill="midnightblue" stroke="midnightblue" points="581.79,-197.42 571.25,-198.51 580.17,-204.23 581.79,-197.42"/>
</g>
<!-- Node31&#45;&gt;Node27 -->
<g id="edge53" class="edge">
<title>Node31&#45;&gt;Node27</title>
<path fill="none" stroke="midnightblue" d="M778.19,-240.98C770.47,-231.96 758.09,-217.52 748.48,-206.31"/>
<polygon fill="midnightblue" stroke="midnightblue" points="750.96,-203.82 741.79,-198.51 745.64,-208.38 750.96,-203.82"/>
</g>
<!-- Node31&#45;&gt;Node30 -->
<g id="edge57" class="edge">
<title>Node31&#45;&gt;Node30</title>
<path fill="none" stroke="midnightblue" d="M802.84,-240.98C823.05,-231.03 856.69,-214.49 880.14,-202.96"/>
<polygon fill="midnightblue" stroke="midnightblue" points="881.77,-206.06 889.2,-198.51 878.68,-199.78 881.77,-206.06"/>
</g>
<!-- Node32&#45;&gt;Node4 -->
<g id="edge61" class="edge">
<title>Node32&#45;&gt;Node4</title>
<path fill="none" stroke="midnightblue" d="M993.06,-240.99C1028.38,-220.34 1118.9,-167.43 1162,-142.24"/>
<polygon fill="midnightblue" stroke="midnightblue" points="1163.82,-145.23 1170.68,-137.16 1160.28,-139.19 1163.82,-145.23"/>
</g>
<!-- Node32&#45;&gt;Node7 -->
<g id="edge62" class="edge">
<title>Node32&#45;&gt;Node7</title>
<path fill="none" stroke="midnightblue" d="M977.31,-240.95C974.57,-218.05 969.96,-154.18 996.5,-112 1005.29,-98.03 1020.17,-87.52 1033.87,-80.17"/>
<polygon fill="midnightblue" stroke="midnightblue" points="1035.68,-83.18 1043.07,-75.6 1032.56,-76.92 1035.68,-83.18"/>
</g>
<!-- Node32&#45;&gt;Node22 -->
<g id="edge60" class="edge">
<title>Node32&#45;&gt;Node22</title>
<path fill="none" stroke="midnightblue" d="M915.03,-240.98C829.02,-229.42 676.68,-208.96 593.56,-197.8"/>
<polygon fill="midnightblue" stroke="midnightblue" points="593.91,-194.31 583.53,-196.45 592.97,-201.25 593.91,-194.31"/>
</g>
<!-- Node32&#45;&gt;Node27 -->
<g id="edge59" class="edge">
<title>Node32&#45;&gt;Node27</title>
<path fill="none" stroke="midnightblue" d="M943.54,-240.98C900.33,-230.44 826.71,-212.49 779.37,-200.94"/>
<polygon fill="midnightblue" stroke="midnightblue" points="779.94,-197.48 769.39,-198.51 778.28,-204.28 779.94,-197.48"/>
</g>
<!-- Node32&#45;&gt;Node30 -->
<g id="edge63" class="edge">
<title>Node32&#45;&gt;Node30</title>
<path fill="none" stroke="midnightblue" d="M968.18,-240.98C956.85,-231.61 938.43,-216.38 924.66,-205.01"/>
<polygon fill="midnightblue" stroke="midnightblue" points="926.73,-202.18 916.8,-198.51 922.28,-207.58 926.73,-202.18"/>
</g>
<!-- Node33&#45;&gt;Node2 -->
<g id="edge65" class="edge">
<title>Node33&#45;&gt;Node2</title>
<path fill="none" stroke="midnightblue" d="M1328.29,-235.26C1334.2,-225.33 1341.89,-211.65 1347.5,-199 1374.11,-138.96 1396.55,-64.19 1406.3,-29.85"/>
<polygon fill="midnightblue" stroke="midnightblue" points="1409.78,-30.4 1409.1,-19.83 1403.04,-28.52 1409.78,-30.4"/>
</g>
<!-- Node33&#45;&gt;Node3 -->
<g id="edge66" class="edge">
<title>Node33&#45;&gt;Node3</title>
<path fill="none" stroke="midnightblue" d="M1315.11,-235.14C1308.37,-213.1 1295.48,-170.95 1288.08,-146.76"/>
<polygon fill="midnightblue" stroke="midnightblue" points="1291.39,-145.59 1285.12,-137.05 1284.69,-147.64 1291.39,-145.59"/>
</g>
<!-- Node33&#45;&gt;Node4 -->
<g id="edge67" class="edge">
<title>Node33&#45;&gt;Node4</title>
<path fill="none" stroke="midnightblue" d="M1303.87,-235.38C1278.57,-212.54 1228.87,-167.67 1202.65,-143.98"/>
<polygon fill="midnightblue" stroke="midnightblue" points="1204.78,-141.2 1195.02,-137.09 1200.09,-146.39 1204.78,-141.2"/>
</g>
<!-- Node33&#45;&gt;Node7 -->
<g id="edge68" class="edge">
<title>Node33&#45;&gt;Node7</title>
<path fill="none" stroke="midnightblue" d="M1324.1,-235.37C1332.07,-207.92 1344.85,-147.02 1314.5,-112 1302.42,-98.06 1198.97,-83.04 1129.27,-74.36"/>
<polygon fill="midnightblue" stroke="midnightblue" points="1129.6,-70.87 1119.25,-73.12 1128.74,-77.82 1129.6,-70.87"/>
</g>
<!-- Node33&#45;&gt;Node9 -->
<g id="edge69" class="edge">
<title>Node33&#45;&gt;Node9</title>
<path fill="none" stroke="midnightblue" d="M1354.57,-235.4C1379.52,-225.37 1412.71,-212.03 1436.64,-202.4"/>
<polygon fill="midnightblue" stroke="midnightblue" points="1437.99,-205.64 1445.96,-198.66 1435.38,-199.14 1437.99,-205.64"/>
</g>
<!-- Node33&#45;&gt;Node10 -->
<g id="edge70" class="edge">
<title>Node33&#45;&gt;Node10</title>
<path fill="none" stroke="midnightblue" d="M1373.2,-244.56C1431.94,-237.95 1520.67,-224.07 1542.5,-199 1554.7,-184.99 1554.58,-162.92 1552.44,-147.2"/>
<polygon fill="midnightblue" stroke="midnightblue" points="1555.84,-146.34 1550.67,-137.09 1548.94,-147.55 1555.84,-146.34"/>
</g>
<!-- Node33&#45;&gt;Node17 -->
<g id="edge71" class="edge">
<title>Node33&#45;&gt;Node17</title>
<path fill="none" stroke="midnightblue" d="M1373.29,-243.84C1423.23,-237.29 1498.92,-224.04 1560.5,-199 1595.47,-184.78 1631.58,-159.51 1652.77,-143.4"/>
<polygon fill="midnightblue" stroke="midnightblue" points="1655.12,-146.01 1660.88,-137.12 1650.83,-140.47 1655.12,-146.01"/>
</g>
<!-- Node33&#45;&gt;Node19 -->
<g id="edge72" class="edge">
<title>Node33&#45;&gt;Node19</title>
<path fill="none" stroke="midnightblue" d="M1289.17,-235.38C1242,-213.43 1151.1,-171.13 1098.91,-146.84"/>
<polygon fill="midnightblue" stroke="midnightblue" points="1100.18,-143.57 1089.64,-142.53 1097.23,-149.92 1100.18,-143.57"/>
</g>
<!-- Node33&#45;&gt;Node27 -->
<g id="edge73" class="edge">
<title>Node33&#45;&gt;Node27</title>
<path fill="none" stroke="midnightblue" d="M1265.77,-244.04C1158.84,-233.16 919.59,-208.82 802.15,-196.88"/>
<polygon fill="midnightblue" stroke="midnightblue" points="802.16,-193.36 791.85,-195.83 801.45,-200.33 802.16,-193.36"/>
</g>
</g>
</svg>
        <g id="navigator" transform="translate(0 0)" fill="#404254">
                <rect fill="#f2f5e9" fill-opacity="0.5" stroke="#606060" stroke-width=".5" x="0" y="0" width="60" height="60"/>
                <use id="zoomplus" xlink:href="#zoomPlus" x="17" y="9" onmousedown="handleZoom(evt,'in')"/>
                <use id="zoomminus" xlink:href="#zoomMin" x="42" y="9" onmousedown="handleZoom(evt,'out')"/>
                <use id="reset" xlink:href="#resetDef" x="30" y="36" onmousedown="handleReset()"/>
                <g id="arrowUp" xlink:href="#dirArrow" transform="translate(30 24)" onmousedown="handlePan(0,-1)">
                  <use xlink:href="#rim" fill="#404040">
                        <set attributeName="fill" to="#808080" begin="arrowUp.mouseover" end="arrowUp.mouseout"/>
                  </use>
                  <path fill="none" stroke="white" stroke-width="1.5" d="M0,-3.0v7 M-2.5,-0.5L0,-3.0L2.5,-0.5"/>
                </g>
                <g id="arrowRight" xlink:href="#dirArrow" transform="rotate(90) translate(36 -43)" onmousedown="handlePan(1,0)">
                  <use xlink:href="#rim" fill="#404040">
                        <set attributeName="fill" to="#808080" begin="arrowRight.mouseover" end="arrowRight.mouseout"/>
                  </use>
                  <path fill="none" stroke="white" stroke-width="1.5" d="M0,-3.0v7 M-2.5,-0.5L0,-3.0L2.5,-0.5"/>
                </g>
                <g id="arrowDown" xlink:href="#dirArrow" transform="rotate(180) translate(-30 -48)" onmousedown="handlePan(0,1)">
                  <use xlink:href="#rim" fill="#404040">
                        <set attributeName="fill" to="#808080" begin="arrowDown.mouseover" end="arrowDown.mouseout"/>
                  </use>
                  <path fill="none" stroke="white" stroke-width="1.5" d="M0,-3.0v7 M-2.5,-0.5L0,-3.0L2.5,-0.5"/>
                </g>
                <g id="arrowLeft" xlink:href="#dirArrow" transform="rotate(270) translate(-36 17)" onmousedown="handlePan(-1,0)">
                  <use xlink:href="#rim" fill="#404040">
                        <set attributeName="fill" to="#808080" begin="arrowLeft.mouseover" end="arrowLeft.mouseout"/>
                  </use>
                  <path fill="none" stroke="white" stroke-width="1.5" d="M0,-3.0v7 M-2.5,-0.5L0,-3.0L2.5,-0.5"/>
                </g>
        </g>
        <svg viewBox="0 0 15 15" width="100%" height="30px" preserveAspectRatio="xMaxYMin meet">
         <g id="arrow_out" transform="scale(0.3 0.3)">
          <a xlink:href="labs_2outlab6_2Compute_8h__incl_org.svg" target="_base">
           <rect id="button" ry="5" rx="5" y="6" x="6" height="38" width="38"
                fill="#f2f5e9" fill-opacity="0.5" stroke="#606060" stroke-width="1.0"/>
           <path id="arrow"
             d="M 11.500037,31.436501 C 11.940474,20.09759 22.043105,11.32322 32.158766,21.979434 L 37.068811,17.246167 C 37.068811,17.246167 37.088388,32 37.088388,32 L 22.160133,31.978069 C 22.160133,31.978069 26.997745,27.140456 26.997745,27.140456 C 18.528582,18.264221 13.291696,25.230495 11.500037,31.436501 z"
             style="fill:#404040;"/>
          </a>
         </g>
        </svg>
</svg>
