<?xml version="1.0" encoding="UTF-8" standalone="no"?>
<!DOCTYPE svg PUBLIC "-//W3C//DTD SVG 1.1//EN"
 "http://www.w3.org/Graphics/SVG/1.1/DTD/svg11.dtd">
<!-- Generated by graphviz version 2.43.0 (0)
 -->
<!-- Title: src/labs/outlab6/Compute.h Pages: 1 -->
<svg width="2065pt" height="498pt"
 viewBox="0.00 0.00 2065.00 498.00" xmlns="http://www.w3.org/2000/svg" xmlns:xlink="http://www.w3.org/1999/xlink">
<g id="graph0" class="graph" transform="scale(1 1) rotate(0) translate(4 494)">
<title>src/labs/outlab6/Compute.h</title>
<polygon fill="white" stroke="transparent" points="-4,4 -4,-494 2061,-494 2061,4 -4,4"/>
<!-- Node1 -->
<g id="node1" class="node">
<title>Node1</title>
<g id="a_node1"><a xlink:title="This file contains the Compute namespace which includes methods for solving linear systems using vari...">
<polygon fill="#bfbfbf" stroke="black" points="826,-470.5 826,-489.5 976,-489.5 976,-470.5 826,-470.5"/>
<text text-anchor="middle" x="901" y="-477.5" font-family="Helvetica,sans-Serif" font-size="10.00">src/labs/outlab6/Compute.h</text>
</a>
</g>
</g>
<!-- Node2 -->
<g id="node2" class="node">
<title>Node2</title>
<g id="a_node2"><a xlink:title=" ">
<polygon fill="white" stroke="#bfbfbf" points="756.5,-112.5 756.5,-131.5 803.5,-131.5 803.5,-112.5 756.5,-112.5"/>
<text text-anchor="middle" x="780" y="-119.5" font-family="Helvetica,sans-Serif" font-size="10.00">cmath</text>
</a>
</g>
</g>
<!-- Node1&#45;&gt;Node2 -->
<g id="edge1" class="edge">
<title>Node1&#45;&gt;Node2</title>
<path fill="none" stroke="midnightblue" d="M890.11,-470.42C869.1,-452.82 825,-410.31 825,-363.5 825,-363.5 825,-363.5 825,-300 825,-240.18 800.56,-172.39 787.7,-140.88"/>
<polygon fill="midnightblue" stroke="midnightblue" points="790.93,-139.52 783.84,-131.64 784.47,-142.22 790.93,-139.52"/>
</g>
<!-- Node3 -->
<g id="node3" class="node">
<title>Node3</title>
<g id="a_node3"><a xlink:title=" ">
<polygon fill="white" stroke="#bfbfbf" points="459,-0.5 459,-19.5 519,-19.5 519,-0.5 459,-0.5"/>
<text text-anchor="middle" x="489" y="-7.5" font-family="Helvetica,sans-Serif" font-size="10.00">iostream</text>
</a>
</g>
</g>
<!-- Node1&#45;&gt;Node3 -->
<g id="edge2" class="edge">
<title>Node1&#45;&gt;Node3</title>
<path fill="none" stroke="midnightblue" d="M825.93,-473.64C652.95,-460.29 241,-422.32 241,-363.5 241,-363.5 241,-363.5 241,-121 241,-90.9 237.78,-76.3 260,-56 273.79,-43.41 386.45,-25.62 448.45,-16.64"/>
<polygon fill="midnightblue" stroke="midnightblue" points="449.27,-20.06 458.67,-15.18 448.28,-13.13 449.27,-20.06"/>
</g>
<!-- Node4 -->
<g id="node4" class="node">
<title>Node4</title>
<g id="a_node4"><a xlink:href="../../d3/db1/Matrix_8h.html" target="_top" xlink:title="This file contains my BLAS::Matrix declarations.">
<polygon fill="white" stroke="black" points="906.5,-112.5 906.5,-131.5 1015.5,-131.5 1015.5,-112.5 906.5,-112.5"/>
<text text-anchor="middle" x="961" y="-119.5" font-family="Helvetica,sans-Serif" font-size="10.00">math/blas/Matrix.h</text>
</a>
</g>
</g>
<!-- Node1&#45;&gt;Node4 -->
<g id="edge3" class="edge">
<title>Node1&#45;&gt;Node4</title>
<path fill="none" stroke="midnightblue" d="M897.94,-470.32C886.75,-437.19 850.32,-315.92 882,-224 894.06,-189.01 923.77,-156.87 943.13,-138.64"/>
<polygon fill="midnightblue" stroke="midnightblue" points="945.69,-141.04 950.7,-131.7 940.96,-135.87 945.69,-141.04"/>
</g>
<!-- Node9 -->
<g id="node9" class="node">
<title>Node9</title>
<g id="a_node9"><a xlink:href="../../d1/d6a/Factorize_8h.html" target="_top" xlink:title="This file contains the declaration of the MyFactorizationMethod namespace, which includes methods and...">
<polygon fill="white" stroke="black" points="891.5,-224.5 891.5,-254.5 998.5,-254.5 998.5,-224.5 891.5,-224.5"/>
<text text-anchor="start" x="899.5" y="-242.5" font-family="Helvetica,sans-Serif" font-size="10.00">math/factorization</text>
<text text-anchor="middle" x="945" y="-231.5" font-family="Helvetica,sans-Serif" font-size="10.00">/Factorize.h</text>
</a>
</g>
</g>
<!-- Node1&#45;&gt;Node9 -->
<g id="edge11" class="edge">
<title>Node1&#45;&gt;Node9</title>
<path fill="none" stroke="midnightblue" d="M904.07,-470.48C907.2,-461.5 912.01,-446.91 915,-434 928.91,-373.97 938.16,-301.95 942.38,-265.01"/>
<polygon fill="midnightblue" stroke="midnightblue" points="945.9,-265.04 943.52,-254.72 938.94,-264.27 945.9,-265.04"/>
</g>
<!-- Node11 -->
<g id="node11" class="node">
<title>Node11</title>
<g id="a_node11"><a xlink:href="../../d7/dff/LU_8h.html" target="_top" xlink:title="LU factorization and related methods for MyBLAS library.">
<polygon fill="white" stroke="black" points="513.5,-168.5 513.5,-187.5 644.5,-187.5 644.5,-168.5 513.5,-168.5"/>
<text text-anchor="middle" x="579" y="-175.5" font-family="Helvetica,sans-Serif" font-size="10.00">math/factorization/LU.h</text>
</a>
</g>
</g>
<!-- Node1&#45;&gt;Node11 -->
<g id="edge18" class="edge">
<title>Node1&#45;&gt;Node11</title>
<path fill="none" stroke="midnightblue" d="M825.78,-475.32C696.75,-466.93 447,-440.71 447,-363.5 447,-363.5 447,-363.5 447,-300 447,-245.98 507.82,-209.54 546.89,-191.71"/>
<polygon fill="midnightblue" stroke="midnightblue" points="548.56,-194.8 556.31,-187.58 545.74,-188.39 548.56,-194.8"/>
</g>
<!-- Node21 -->
<g id="node21" class="node">
<title>Node21</title>
<g id="a_node21"><a xlink:href="../../d4/dfb/LUP_8h.html" target="_top" xlink:title="LU factorization with pivoting.">
<polygon fill="white" stroke="black" points="673.5,-347.5 673.5,-377.5 780.5,-377.5 780.5,-347.5 673.5,-347.5"/>
<text text-anchor="start" x="681.5" y="-365.5" font-family="Helvetica,sans-Serif" font-size="10.00">math/factorization</text>
<text text-anchor="middle" x="727" y="-354.5" font-family="Helvetica,sans-Serif" font-size="10.00">/LUP.h</text>
</a>
</g>
</g>
<!-- Node1&#45;&gt;Node21 -->
<g id="edge36" class="edge">
<title>Node1&#45;&gt;Node21</title>
<path fill="none" stroke="midnightblue" d="M880.6,-470.45C861.85,-462.22 833.64,-448.86 811,-434 788.57,-419.27 765.38,-399.39 749.06,-384.5"/>
<polygon fill="midnightblue" stroke="midnightblue" points="751.35,-381.85 741.64,-377.63 746.6,-386.99 751.35,-381.85"/>
</g>
<!-- Node25 -->
<g id="node25" class="node">
<title>Node25</title>
<g id="a_node25"><a xlink:href="../../d6/db9/GaussSeidel_8h.html" target="_top" xlink:title="This file contains the implementation of the Gauss&#45;Seidel method for solving systems of linear equati...">
<polygon fill="white" stroke="black" points="1095.5,-414.5 1095.5,-433.5 1262.5,-433.5 1262.5,-414.5 1095.5,-414.5"/>
<text text-anchor="middle" x="1179" y="-421.5" font-family="Helvetica,sans-Serif" font-size="10.00">math/relaxation/GaussSeidel.h</text>
</a>
</g>
</g>
<!-- Node1&#45;&gt;Node25 -->
<g id="edge49" class="edge">
<title>Node1&#45;&gt;Node25</title>
<path fill="none" stroke="midnightblue" d="M945.05,-470.44C993.85,-460.96 1072.56,-445.67 1125.03,-435.48"/>
<polygon fill="midnightblue" stroke="midnightblue" points="1126.01,-438.86 1135.16,-433.52 1124.67,-431.99 1126.01,-438.86"/>
</g>
<!-- Node31 -->
<g id="node31" class="node">
<title>Node31</title>
<g id="a_node31"><a xlink:href="../../dd/d7b/PointJacobi_8h.html" target="_top" xlink:title="This file contains the implementation of the Point Jacobi method for solving systems of linear equati...">
<polygon fill="white" stroke="black" points="1752.5,-353 1752.5,-372 1913.5,-372 1913.5,-353 1752.5,-353"/>
<text text-anchor="middle" x="1833" y="-360" font-family="Helvetica,sans-Serif" font-size="10.00">math/relaxation/PointJacobi.h</text>
</a>
</g>
</g>
<!-- Node1&#45;&gt;Node31 -->
<g id="edge64" class="edge">
<title>Node1&#45;&gt;Node31</title>
<path fill="none" stroke="midnightblue" d="M976.17,-471.7C1060.63,-463.33 1201.78,-448.84 1323,-434 1481.95,-414.54 1668.21,-387.79 1765.7,-373.48"/>
<polygon fill="midnightblue" stroke="midnightblue" points="1766.33,-376.93 1775.71,-372.01 1765.31,-370 1766.33,-376.93"/>
</g>
<!-- Node33 -->
<g id="node33" class="node">
<title>Node33</title>
<g id="a_node33"><a xlink:href="../../d0/de6/SSOR_8h.html" target="_top" xlink:title="This file contains the implementation of the Symmetric Successive Over&#45;Relaxation (SSOR) method for s...">
<polygon fill="white" stroke="black" points="1428.5,-353 1428.5,-372 1561.5,-372 1561.5,-353 1428.5,-353"/>
<text text-anchor="middle" x="1495" y="-360" font-family="Helvetica,sans-Serif" font-size="10.00">math/relaxation/SSOR.h</text>
</a>
</g>
</g>
<!-- Node1&#45;&gt;Node33 -->
<g id="edge71" class="edge">
<title>Node1&#45;&gt;Node33</title>
<path fill="none" stroke="midnightblue" d="M976.29,-473.98C1051.73,-468 1170.86,-455.92 1272,-434 1341.62,-418.91 1420.55,-391.39 1463.33,-375.57"/>
<polygon fill="midnightblue" stroke="midnightblue" points="1464.75,-378.77 1472.9,-372 1462.3,-372.21 1464.75,-378.77"/>
</g>
<!-- Node4&#45;&gt;Node3 -->
<g id="edge5" class="edge">
<title>Node4&#45;&gt;Node3</title>
<path fill="none" stroke="midnightblue" d="M924.36,-112.46C837.39,-92.19 619.07,-41.31 528.91,-20.3"/>
<polygon fill="midnightblue" stroke="midnightblue" points="529.61,-16.87 519.07,-18.01 528.02,-23.69 529.61,-16.87"/>
</g>
<!-- Node5 -->
<g id="node5" class="node">
<title>Node5</title>
<g id="a_node5"><a xlink:title=" ">
<polygon fill="white" stroke="#bfbfbf" points="825,-56.5 825,-75.5 889,-75.5 889,-56.5 825,-56.5"/>
<text text-anchor="middle" x="857" y="-63.5" font-family="Helvetica,sans-Serif" font-size="10.00">algorithm</text>
</a>
</g>
</g>
<!-- Node4&#45;&gt;Node5 -->
<g id="edge4" class="edge">
<title>Node4&#45;&gt;Node5</title>
<path fill="none" stroke="midnightblue" d="M944.29,-112.32C927.69,-103.7 902,-90.36 882.78,-80.39"/>
<polygon fill="midnightblue" stroke="midnightblue" points="884.16,-77.16 873.67,-75.65 880.93,-83.37 884.16,-77.16"/>
</g>
<!-- Node6 -->
<g id="node6" class="node">
<title>Node6</title>
<g id="a_node6"><a xlink:title=" ">
<polygon fill="white" stroke="#bfbfbf" points="978.5,-0.5 978.5,-19.5 1025.5,-19.5 1025.5,-0.5 978.5,-0.5"/>
<text text-anchor="middle" x="1002" y="-7.5" font-family="Helvetica,sans-Serif" font-size="10.00">vector</text>
</a>
</g>
</g>
<!-- Node4&#45;&gt;Node6 -->
<g id="edge6" class="edge">
<title>Node4&#45;&gt;Node6</title>
<path fill="none" stroke="midnightblue" d="M981.22,-112.49C995.77,-105.17 1014.3,-93.06 1023,-76 1030.88,-60.55 1022.9,-41.54 1014.61,-28.08"/>
<polygon fill="midnightblue" stroke="midnightblue" points="1017.5,-26.1 1009.02,-19.76 1011.69,-30.01 1017.5,-26.1"/>
</g>
<!-- Node7 -->
<g id="node7" class="node">
<title>Node7</title>
<g id="a_node7"><a xlink:href="../../d6/dbe/Vector_8h.html" target="_top" xlink:title="This file contains my BLAS::Vector implementation.">
<polygon fill="white" stroke="black" points="907.5,-56.5 907.5,-75.5 1014.5,-75.5 1014.5,-56.5 907.5,-56.5"/>
<text text-anchor="middle" x="961" y="-63.5" font-family="Helvetica,sans-Serif" font-size="10.00">math/blas/Vector.h</text>
</a>
</g>
</g>
<!-- Node4&#45;&gt;Node7 -->
<g id="edge7" class="edge">
<title>Node4&#45;&gt;Node7</title>
<path fill="none" stroke="midnightblue" d="M961,-112.08C961,-105.01 961,-94.86 961,-85.99"/>
<polygon fill="midnightblue" stroke="midnightblue" points="964.5,-85.75 961,-75.75 957.5,-85.75 964.5,-85.75"/>
</g>
<!-- Node7&#45;&gt;Node3 -->
<g id="edge9" class="edge">
<title>Node7&#45;&gt;Node3</title>
<path fill="none" stroke="midnightblue" d="M907.4,-57.22C904.22,-56.8 901.07,-56.39 898,-56 763.07,-38.94 602.62,-22.37 529.24,-14.99"/>
<polygon fill="midnightblue" stroke="midnightblue" points="529.36,-11.49 519.06,-13.97 528.66,-18.45 529.36,-11.49"/>
</g>
<!-- Node7&#45;&gt;Node6 -->
<g id="edge10" class="edge">
<title>Node7&#45;&gt;Node6</title>
<path fill="none" stroke="midnightblue" d="M967.77,-56.08C973.56,-48.46 982.06,-37.26 989.14,-27.94"/>
<polygon fill="midnightblue" stroke="midnightblue" points="992.1,-29.83 995.36,-19.75 986.52,-25.6 992.1,-29.83"/>
</g>
<!-- Node8 -->
<g id="node8" class="node">
<title>Node8</title>
<g id="a_node8"><a xlink:title=" ">
<polygon fill="white" stroke="#bfbfbf" points="353,-0.5 353,-19.5 409,-19.5 409,-0.5 353,-0.5"/>
<text text-anchor="middle" x="381" y="-7.5" font-family="Helvetica,sans-Serif" font-size="10.00">iomanip</text>
</a>
</g>
</g>
<!-- Node7&#45;&gt;Node8 -->
<g id="edge8" class="edge">
<title>Node7&#45;&gt;Node8</title>
<path fill="none" stroke="midnightblue" d="M907.41,-57.12C904.23,-56.72 901.07,-56.34 898,-56 699.48,-33.86 648.65,-40.92 450,-20 440.01,-18.95 429.24,-17.63 419.24,-16.33"/>
<polygon fill="midnightblue" stroke="midnightblue" points="419.54,-12.84 409.16,-14.99 418.62,-19.78 419.54,-12.84"/>
</g>
<!-- Node9&#45;&gt;Node4 -->
<g id="edge16" class="edge">
<title>Node9&#45;&gt;Node4</title>
<path fill="none" stroke="midnightblue" d="M946.96,-224.34C949.84,-203.53 955.23,-164.66 958.43,-141.58"/>
<polygon fill="midnightblue" stroke="midnightblue" points="961.89,-142.06 959.8,-131.67 954.96,-141.09 961.89,-142.06"/>
</g>
<!-- Node9&#45;&gt;Node7 -->
<g id="edge17" class="edge">
<title>Node9&#45;&gt;Node7</title>
<path fill="none" stroke="midnightblue" d="M932.01,-224.38C911.7,-200.51 876.76,-150.98 897,-112 904.15,-98.23 917.67,-87.78 930.45,-80.44"/>
<polygon fill="midnightblue" stroke="midnightblue" points="932.32,-83.41 939.52,-75.64 929.04,-77.23 932.32,-83.41"/>
</g>
<!-- Node10 -->
<g id="node10" class="node">
<title>Node10</title>
<g id="a_node10"><a xlink:href="../../d9/d77/MyBLAS_8h.html" target="_top" xlink:title="My BLAS methods for NE591&#45;008.">
<polygon fill="white" stroke="black" points="1005,-168.5 1005,-187.5 1123,-187.5 1123,-168.5 1005,-168.5"/>
<text text-anchor="middle" x="1064" y="-175.5" font-family="Helvetica,sans-Serif" font-size="10.00">math/blas/MyBLAS.h</text>
</a>
</g>
</g>
<!-- Node9&#45;&gt;Node10 -->
<g id="edge12" class="edge">
<title>Node9&#45;&gt;Node10</title>
<path fill="none" stroke="midnightblue" d="M973.2,-224.4C992.72,-214.64 1018.53,-201.74 1037.63,-192.18"/>
<polygon fill="midnightblue" stroke="midnightblue" points="1039.31,-195.26 1046.68,-187.66 1036.17,-189 1039.31,-195.26"/>
</g>
<!-- Node10&#45;&gt;Node2 -->
<g id="edge13" class="edge">
<title>Node10&#45;&gt;Node2</title>
<path fill="none" stroke="midnightblue" d="M1019,-168.44C961.93,-157.59 864.83,-139.13 813.73,-129.41"/>
<polygon fill="midnightblue" stroke="midnightblue" points="814.33,-125.96 803.85,-127.54 813.02,-132.84 814.33,-125.96"/>
</g>
<!-- Node10&#45;&gt;Node4 -->
<g id="edge14" class="edge">
<title>Node10&#45;&gt;Node4</title>
<path fill="none" stroke="midnightblue" d="M1047.45,-168.32C1031.01,-159.7 1005.57,-146.36 986.53,-136.39"/>
<polygon fill="midnightblue" stroke="midnightblue" points="987.99,-133.2 977.51,-131.65 984.74,-139.4 987.99,-133.2"/>
</g>
<!-- Node10&#45;&gt;Node7 -->
<g id="edge15" class="edge">
<title>Node10&#45;&gt;Node7</title>
<path fill="none" stroke="midnightblue" d="M1060.2,-168.24C1054.14,-154.99 1041.31,-129.54 1025,-112 1013.61,-99.76 998.37,-88.88 985.62,-80.89"/>
<polygon fill="midnightblue" stroke="midnightblue" points="987.24,-77.78 976.87,-75.6 983.62,-83.77 987.24,-77.78"/>
</g>
<!-- Node11&#45;&gt;Node2 -->
<g id="edge19" class="edge">
<title>Node11&#45;&gt;Node2</title>
<path fill="none" stroke="midnightblue" d="M610.85,-168.44C647.88,-158.49 708.74,-142.15 746.47,-132.01"/>
<polygon fill="midnightblue" stroke="midnightblue" points="747.72,-135.3 756.46,-129.32 745.9,-128.54 747.72,-135.3"/>
</g>
<!-- Node11&#45;&gt;Node3 -->
<g id="edge20" class="edge">
<title>Node11&#45;&gt;Node3</title>
<path fill="none" stroke="midnightblue" d="M571.9,-168.38C564.83,-159.57 553.92,-145.32 546,-132 525.22,-97.05 506.2,-53.31 496.25,-29.15"/>
<polygon fill="midnightblue" stroke="midnightblue" points="499.46,-27.75 492.46,-19.8 492.98,-30.38 499.46,-27.75"/>
</g>
<!-- Node11&#45;&gt;Node4 -->
<g id="edge21" class="edge">
<title>Node11&#45;&gt;Node4</title>
<path fill="none" stroke="midnightblue" d="M639.53,-168.44C709.51,-158.55 824.25,-142.33 896.05,-132.18"/>
<polygon fill="midnightblue" stroke="midnightblue" points="896.91,-135.59 906.32,-130.73 895.93,-128.66 896.91,-135.59"/>
</g>
<!-- Node11&#45;&gt;Node7 -->
<g id="edge22" class="edge">
<title>Node11&#45;&gt;Node7</title>
<path fill="none" stroke="midnightblue" d="M593.8,-168.5C621.59,-152.66 680.79,-119.55 703,-112 721.1,-105.84 826.83,-88.35 897.19,-77.07"/>
<polygon fill="midnightblue" stroke="midnightblue" points="897.98,-80.49 907.31,-75.46 896.88,-73.58 897.98,-80.49"/>
</g>
<!-- Node12 -->
<g id="node12" class="node">
<title>Node12</title>
<g id="a_node12"><a xlink:href="../../d9/d41/CommandLine_8h.html" target="_top" xlink:title="This file contains the definition of the CommandLine class and the HeaderInfo struct.">
<polygon fill="white" stroke="black" points="344,-112.5 344,-131.5 458,-131.5 458,-112.5 344,-112.5"/>
<text text-anchor="middle" x="401" y="-119.5" font-family="Helvetica,sans-Serif" font-size="10.00">../../CommandLine.h</text>
</a>
</g>
</g>
<!-- Node11&#45;&gt;Node12 -->
<g id="edge23" class="edge">
<title>Node11&#45;&gt;Node12</title>
<path fill="none" stroke="midnightblue" d="M550.8,-168.44C520.59,-159.28 472.49,-144.69 438.97,-134.52"/>
<polygon fill="midnightblue" stroke="midnightblue" points="439.66,-131.07 429.07,-131.52 437.63,-137.77 439.66,-131.07"/>
</g>
<!-- Node19 -->
<g id="node19" class="node">
<title>Node19</title>
<g id="a_node19"><a xlink:href="../../d4/d2e/Stopwatch_8h.html" target="_top" xlink:title="This file contains the Stopwatch class which is a utility for measuring time durations in various uni...">
<polygon fill="white" stroke="black" points="555.5,-112.5 555.5,-131.5 650.5,-131.5 650.5,-112.5 555.5,-112.5"/>
<text text-anchor="middle" x="603" y="-119.5" font-family="Helvetica,sans-Serif" font-size="10.00">../../Stopwatch.h</text>
</a>
</g>
</g>
<!-- Node11&#45;&gt;Node19 -->
<g id="edge34" class="edge">
<title>Node11&#45;&gt;Node19</title>
<path fill="none" stroke="midnightblue" d="M582.96,-168.08C586.21,-160.77 590.92,-150.18 594.95,-141.1"/>
<polygon fill="midnightblue" stroke="midnightblue" points="598.25,-142.31 599.11,-131.75 591.85,-139.47 598.25,-142.31"/>
</g>
<!-- Node12&#45;&gt;Node3 -->
<g id="edge32" class="edge">
<title>Node12&#45;&gt;Node3</title>
<path fill="none" stroke="midnightblue" d="M407.91,-112.37C422.49,-94.14 456.66,-51.43 475.66,-27.68"/>
<polygon fill="midnightblue" stroke="midnightblue" points="478.61,-29.59 482.13,-19.59 473.15,-25.21 478.61,-29.59"/>
</g>
<!-- Node13 -->
<g id="node13" class="node">
<title>Node13</title>
<g id="a_node13"><a xlink:href="../../db/df1/Helpers_8h.html" target="_top" xlink:title="This file contains helper functions and structures used throughout the program.">
<polygon fill="white" stroke="black" points="149.5,-56.5 149.5,-75.5 212.5,-75.5 212.5,-56.5 149.5,-56.5"/>
<text text-anchor="middle" x="181" y="-63.5" font-family="Helvetica,sans-Serif" font-size="10.00">Helpers.h</text>
</a>
</g>
</g>
<!-- Node12&#45;&gt;Node13 -->
<g id="edge24" class="edge">
<title>Node12&#45;&gt;Node13</title>
<path fill="none" stroke="midnightblue" d="M366.14,-112.44C327.19,-102.88 264.16,-87.41 222.64,-77.22"/>
<polygon fill="midnightblue" stroke="midnightblue" points="223.39,-73.8 212.84,-74.82 221.72,-80.6 223.39,-73.8"/>
</g>
<!-- Node16 -->
<g id="node16" class="node">
<title>Node16</title>
<g id="a_node16"><a xlink:title=" ">
<polygon fill="white" stroke="#bfbfbf" points="0,-0.5 0,-19.5 150,-19.5 150,-0.5 0,-0.5"/>
<text text-anchor="middle" x="75" y="-7.5" font-family="Helvetica,sans-Serif" font-size="10.00">boost/program_options.hpp</text>
</a>
</g>
</g>
<!-- Node12&#45;&gt;Node16 -->
<g id="edge31" class="edge">
<title>Node12&#45;&gt;Node16</title>
<path fill="none" stroke="midnightblue" d="M343.9,-120.96C288.81,-118.73 204.5,-109.42 140,-76 117.97,-64.58 98.72,-43.06 87,-27.91"/>
<polygon fill="midnightblue" stroke="midnightblue" points="89.79,-25.79 81.01,-19.86 84.17,-29.97 89.79,-25.79"/>
</g>
<!-- Node17 -->
<g id="node17" class="node">
<title>Node17</title>
<g id="a_node17"><a xlink:title=" ">
<polygon fill="white" stroke="#bfbfbf" points="269,-56.5 269,-75.5 361,-75.5 361,-56.5 269,-56.5"/>
<text text-anchor="middle" x="315" y="-63.5" font-family="Helvetica,sans-Serif" font-size="10.00">project&#45;config.h</text>
</a>
</g>
</g>
<!-- Node12&#45;&gt;Node17 -->
<g id="edge30" class="edge">
<title>Node12&#45;&gt;Node17</title>
<path fill="none" stroke="midnightblue" d="M387.18,-112.32C373.77,-103.9 353.18,-90.97 337.41,-81.07"/>
<polygon fill="midnightblue" stroke="midnightblue" points="339.11,-78.01 328.78,-75.65 335.39,-83.94 339.11,-78.01"/>
</g>
<!-- Node18 -->
<g id="node18" class="node">
<title>Node18</title>
<g id="a_node18"><a xlink:title=" ">
<polygon fill="white" stroke="#bfbfbf" points="379,-56.5 379,-75.5 423,-75.5 423,-56.5 379,-56.5"/>
<text text-anchor="middle" x="401" y="-63.5" font-family="Helvetica,sans-Serif" font-size="10.00">string</text>
</a>
</g>
</g>
<!-- Node12&#45;&gt;Node18 -->
<g id="edge33" class="edge">
<title>Node12&#45;&gt;Node18</title>
<path fill="none" stroke="midnightblue" d="M401,-112.08C401,-105.01 401,-94.86 401,-85.99"/>
<polygon fill="midnightblue" stroke="midnightblue" points="404.5,-85.75 401,-75.75 397.5,-85.75 404.5,-85.75"/>
</g>
<!-- Node13&#45;&gt;Node3 -->
<g id="edge26" class="edge">
<title>Node13&#45;&gt;Node3</title>
<path fill="none" stroke="midnightblue" d="M212.66,-58.71C217.46,-57.78 222.36,-56.85 227,-56 305.35,-41.61 397.16,-26.17 448.65,-17.63"/>
<polygon fill="midnightblue" stroke="midnightblue" points="449.41,-21.06 458.7,-15.97 448.27,-14.15 449.41,-21.06"/>
</g>
<!-- Node13&#45;&gt;Node8 -->
<g id="edge25" class="edge">
<title>Node13&#45;&gt;Node8</title>
<path fill="none" stroke="midnightblue" d="M212.69,-56.44C247.93,-46.93 304.84,-31.56 342.59,-21.37"/>
<polygon fill="midnightblue" stroke="midnightblue" points="343.95,-24.63 352.69,-18.64 342.12,-17.87 343.95,-24.63"/>
</g>
<!-- Node14 -->
<g id="node14" class="node">
<title>Node14</title>
<g id="a_node14"><a xlink:title=" ">
<polygon fill="white" stroke="#bfbfbf" points="244,-0.5 244,-19.5 288,-19.5 288,-0.5 244,-0.5"/>
<text text-anchor="middle" x="266" y="-7.5" font-family="Helvetica,sans-Serif" font-size="10.00">limits</text>
</a>
</g>
</g>
<!-- Node13&#45;&gt;Node14 -->
<g id="edge27" class="edge">
<title>Node13&#45;&gt;Node14</title>
<path fill="none" stroke="midnightblue" d="M194.66,-56.32C207.92,-47.9 228.27,-34.97 243.85,-25.07"/>
<polygon fill="midnightblue" stroke="midnightblue" points="245.81,-27.97 252.38,-19.65 242.06,-22.06 245.81,-27.97"/>
</g>
<!-- Node15 -->
<g id="node15" class="node">
<title>Node15</title>
<g id="a_node15"><a xlink:title=" ">
<polygon fill="white" stroke="#bfbfbf" points="168,-0.5 168,-19.5 226,-19.5 226,-0.5 168,-0.5"/>
<text text-anchor="middle" x="197" y="-7.5" font-family="Helvetica,sans-Serif" font-size="10.00">json.hpp</text>
</a>
</g>
</g>
<!-- Node13&#45;&gt;Node15 -->
<g id="edge28" class="edge">
<title>Node13&#45;&gt;Node15</title>
<path fill="none" stroke="midnightblue" d="M183.64,-56.08C185.79,-48.85 188.88,-38.41 191.55,-29.4"/>
<polygon fill="midnightblue" stroke="midnightblue" points="194.92,-30.33 194.41,-19.75 188.21,-28.34 194.92,-30.33"/>
</g>
<!-- Node13&#45;&gt;Node16 -->
<g id="edge29" class="edge">
<title>Node13&#45;&gt;Node16</title>
<path fill="none" stroke="midnightblue" d="M163.97,-56.32C146.97,-47.66 120.62,-34.24 101.01,-24.25"/>
<polygon fill="midnightblue" stroke="midnightblue" points="102.49,-21.08 91.99,-19.65 99.31,-27.31 102.49,-21.08"/>
</g>
<!-- Node20 -->
<g id="node20" class="node">
<title>Node20</title>
<g id="a_node20"><a xlink:title=" ">
<polygon fill="white" stroke="#bfbfbf" points="578,-56.5 578,-75.5 628,-75.5 628,-56.5 578,-56.5"/>
<text text-anchor="middle" x="603" y="-63.5" font-family="Helvetica,sans-Serif" font-size="10.00">chrono</text>
</a>
</g>
</g>
<!-- Node19&#45;&gt;Node20 -->
<g id="edge35" class="edge">
<title>Node19&#45;&gt;Node20</title>
<path fill="none" stroke="midnightblue" d="M603,-112.08C603,-105.01 603,-94.86 603,-85.99"/>
<polygon fill="midnightblue" stroke="midnightblue" points="606.5,-85.75 603,-75.75 599.5,-85.75 606.5,-85.75"/>
</g>
<!-- Node21&#45;&gt;Node2 -->
<g id="edge37" class="edge">
<title>Node21&#45;&gt;Node2</title>
<path fill="none" stroke="midnightblue" d="M730.16,-347.29C739.26,-306.35 765.54,-188.05 775.82,-141.83"/>
<polygon fill="midnightblue" stroke="midnightblue" points="779.26,-142.47 778.01,-131.95 772.43,-140.95 779.26,-142.47"/>
</g>
<!-- Node21&#45;&gt;Node3 -->
<g id="edge38" class="edge">
<title>Node21&#45;&gt;Node3</title>
<path fill="none" stroke="midnightblue" d="M693.93,-347.44C642.27,-323.42 544.18,-269.09 504,-188 478.03,-135.6 482.31,-63.7 486.27,-29.95"/>
<polygon fill="midnightblue" stroke="midnightblue" points="489.78,-30.07 487.6,-19.7 482.84,-29.16 489.78,-30.07"/>
</g>
<!-- Node21&#45;&gt;Node4 -->
<g id="edge40" class="edge">
<title>Node21&#45;&gt;Node4</title>
<path fill="none" stroke="midnightblue" d="M736.13,-347.5C758.68,-313.64 820.07,-225.89 887,-168 901.37,-155.57 919.57,-144.45 934.33,-136.38"/>
<polygon fill="midnightblue" stroke="midnightblue" points="936.27,-139.31 943.46,-131.52 932.99,-133.13 936.27,-139.31"/>
</g>
<!-- Node21&#45;&gt;Node7 -->
<g id="edge41" class="edge">
<title>Node21&#45;&gt;Node7</title>
<path fill="none" stroke="midnightblue" d="M723.02,-347.46C712.12,-305.69 686.42,-180.83 747,-112 757.02,-100.62 837.87,-85.92 897.25,-76.47"/>
<polygon fill="midnightblue" stroke="midnightblue" points="897.99,-79.9 907.32,-74.89 896.9,-72.98 897.99,-79.9"/>
</g>
<!-- Node21&#45;&gt;Node9 -->
<g id="edge44" class="edge">
<title>Node21&#45;&gt;Node9</title>
<path fill="none" stroke="midnightblue" d="M752.43,-347.38C791.65,-325.62 866.94,-283.83 910.86,-259.45"/>
<polygon fill="midnightblue" stroke="midnightblue" points="912.68,-262.44 919.73,-254.53 909.29,-256.32 912.68,-262.44"/>
</g>
<!-- Node21&#45;&gt;Node11 -->
<g id="edge39" class="edge">
<title>Node21&#45;&gt;Node11</title>
<path fill="none" stroke="midnightblue" d="M703.47,-347.33C689.47,-338.14 671.97,-325.25 659,-311 626.36,-275.14 599.89,-224.01 587.17,-197.13"/>
<polygon fill="midnightblue" stroke="midnightblue" points="590.23,-195.4 582.86,-187.79 583.88,-198.34 590.23,-195.4"/>
</g>
<!-- Node21&#45;&gt;Node12 -->
<g id="edge42" class="edge">
<title>Node21&#45;&gt;Node12</title>
<path fill="none" stroke="midnightblue" d="M673.42,-357.05C607.58,-350.56 500.9,-336.42 471,-311 419.06,-266.84 405.62,-180.29 402.18,-142"/>
<polygon fill="midnightblue" stroke="midnightblue" points="405.65,-141.47 401.39,-131.77 398.67,-142 405.65,-141.47"/>
</g>
<!-- Node21&#45;&gt;Node19 -->
<g id="edge43" class="edge">
<title>Node21&#45;&gt;Node19</title>
<path fill="none" stroke="midnightblue" d="M717.39,-347.4C710.98,-337.53 702.7,-323.87 697,-311 670.05,-250.21 688.78,-224.05 653,-168 645.44,-156.16 633.94,-145.51 623.88,-137.54"/>
<polygon fill="midnightblue" stroke="midnightblue" points="625.97,-134.74 615.88,-131.52 621.76,-140.33 625.97,-134.74"/>
</g>
<!-- Node22 -->
<g id="node22" class="node">
<title>Node22</title>
<g id="a_node22"><a xlink:href="../../df/dbd/LinearSolver_8h.html" target="_top" xlink:title="This file contains the definition of the LinearSolver class and its associated methods.">
<polygon fill="white" stroke="black" points="1207,-291.5 1207,-310.5 1321,-310.5 1321,-291.5 1207,-291.5"/>
<text text-anchor="middle" x="1264" y="-298.5" font-family="Helvetica,sans-Serif" font-size="10.00">math/LinearSolver.h</text>
</a>
</g>
</g>
<!-- Node21&#45;&gt;Node22 -->
<g id="edge45" class="edge">
<title>Node21&#45;&gt;Node22</title>
<path fill="none" stroke="midnightblue" d="M780.95,-355.52C879.63,-344.59 1088.96,-321.39 1196.75,-309.45"/>
<polygon fill="midnightblue" stroke="midnightblue" points="1197.3,-312.91 1206.86,-308.33 1196.53,-305.95 1197.3,-312.91"/>
</g>
<!-- Node22&#45;&gt;Node9 -->
<g id="edge46" class="edge">
<title>Node22&#45;&gt;Node9</title>
<path fill="none" stroke="midnightblue" d="M1218.3,-291.48C1163.3,-281.22 1070.64,-263.93 1008.66,-252.37"/>
<polygon fill="midnightblue" stroke="midnightblue" points="1009.08,-248.89 998.61,-250.5 1007.8,-255.77 1009.08,-248.89"/>
</g>
<!-- Node23 -->
<g id="node23" class="node">
<title>Node23</title>
<g id="a_node23"><a xlink:href="../../d0/d24/RelaxationMethods_8h.html" target="_top" xlink:title="This file contains the declaration of the RelaxationMethods namespace, which includes the Type enumer...">
<polygon fill="white" stroke="black" points="1655,-224.5 1655,-254.5 1805,-254.5 1805,-224.5 1655,-224.5"/>
<text text-anchor="start" x="1663" y="-242.5" font-family="Helvetica,sans-Serif" font-size="10.00">math/relaxation/Relaxation</text>
<text text-anchor="middle" x="1730" y="-231.5" font-family="Helvetica,sans-Serif" font-size="10.00">Methods.h</text>
</a>
</g>
</g>
<!-- Node22&#45;&gt;Node23 -->
<g id="edge47" class="edge">
<title>Node22&#45;&gt;Node23</title>
<path fill="none" stroke="midnightblue" d="M1321.14,-292.7C1402.04,-282.37 1550.57,-263.41 1644.59,-251.41"/>
<polygon fill="midnightblue" stroke="midnightblue" points="1645.17,-254.86 1654.64,-250.12 1644.28,-247.92 1645.17,-254.86"/>
</g>
<!-- Node24 -->
<g id="node24" class="node">
<title>Node24</title>
<g id="a_node24"><a xlink:title=" ">
<polygon fill="white" stroke="#bfbfbf" points="1207.5,-230 1207.5,-249 1258.5,-249 1258.5,-230 1207.5,-230"/>
<text text-anchor="middle" x="1233" y="-237" font-family="Helvetica,sans-Serif" font-size="10.00">variant</text>
</a>
</g>
</g>
<!-- Node22&#45;&gt;Node24 -->
<g id="edge48" class="edge">
<title>Node22&#45;&gt;Node24</title>
<path fill="none" stroke="midnightblue" d="M1259.56,-291.48C1255.05,-282.82 1247.93,-269.15 1242.19,-258.15"/>
<polygon fill="midnightblue" stroke="midnightblue" points="1245.16,-256.26 1237.43,-249.01 1238.95,-259.49 1245.16,-256.26"/>
</g>
<!-- Node25&#45;&gt;Node4 -->
<g id="edge60" class="edge">
<title>Node25&#45;&gt;Node4</title>
<path fill="none" stroke="midnightblue" d="M1165.54,-414.45C1153.08,-406.11 1134.5,-392.6 1121,-378 1048.72,-299.86 990.18,-184.65 969.26,-140.81"/>
<polygon fill="midnightblue" stroke="midnightblue" points="972.4,-139.26 964.97,-131.7 966.07,-142.24 972.4,-139.26"/>
</g>
<!-- Node25&#45;&gt;Node7 -->
<g id="edge63" class="edge">
<title>Node25&#45;&gt;Node7</title>
<path fill="none" stroke="midnightblue" d="M1262.73,-422.68C1430.36,-421.26 1801.49,-414.02 1923,-378 1988.64,-358.54 2057,-370.47 2057,-302 2057,-302 2057,-302 2057,-177 2057,-113.99 1991.87,-128.28 1931,-112 1759.27,-66.08 1212.22,-65.28 1024.75,-66.42"/>
<polygon fill="midnightblue" stroke="midnightblue" points="1024.49,-62.92 1014.51,-66.49 1024.53,-69.92 1024.49,-62.92"/>
</g>
<!-- Node25&#45;&gt;Node10 -->
<g id="edge61" class="edge">
<title>Node25&#45;&gt;Node10</title>
<path fill="none" stroke="midnightblue" d="M1172.32,-414.49C1154.09,-390.78 1103.21,-321.32 1079,-255 1072.1,-236.09 1068.14,-213.31 1066.04,-197.66"/>
<polygon fill="midnightblue" stroke="midnightblue" points="1069.51,-197.17 1064.83,-187.67 1062.56,-198.02 1069.51,-197.17"/>
</g>
<!-- Node25&#45;&gt;Node22 -->
<g id="edge59" class="edge">
<title>Node25&#45;&gt;Node22</title>
<path fill="none" stroke="midnightblue" d="M1185.16,-414.39C1191.62,-405.35 1202.06,-390.7 1211,-378 1225.11,-357.96 1241.2,-334.85 1251.92,-319.43"/>
<polygon fill="midnightblue" stroke="midnightblue" points="1255,-321.12 1257.83,-310.91 1249.25,-317.13 1255,-321.12"/>
</g>
<!-- Node26 -->
<g id="node26" class="node">
<title>Node26</title>
<g id="a_node26"><a xlink:href="../../d3/d3e/SOR_8h.html" target="_top" xlink:title="This file contains the implementation of the Successive Over&#45;Relaxation (SOR) method for solving syst...">
<polygon fill="white" stroke="black" points="1156,-353 1156,-372 1202,-372 1202,-353 1156,-353"/>
<text text-anchor="middle" x="1179" y="-360" font-family="Helvetica,sans-Serif" font-size="10.00">SOR.h</text>
</a>
</g>
</g>
<!-- Node25&#45;&gt;Node26 -->
<g id="edge50" class="edge">
<title>Node25&#45;&gt;Node26</title>
<path fill="none" stroke="midnightblue" d="M1179,-414.48C1179,-406.08 1179,-392.98 1179,-382.16"/>
<polygon fill="midnightblue" stroke="midnightblue" points="1182.5,-382.01 1179,-372.01 1175.5,-382.01 1182.5,-382.01"/>
</g>
<!-- Node27 -->
<g id="node27" class="node">
<title>Node27</title>
<g id="a_node27"><a xlink:href="../../d4/d8a/Ops_8h.html" target="_top" xlink:title="This file contains the definition of the L2Norm function, which calculates the L2 norm (Euclidean dis...">
<polygon fill="white" stroke="black" points="1390,-291.5 1390,-310.5 1486,-310.5 1486,-291.5 1390,-291.5"/>
<text text-anchor="middle" x="1438" y="-298.5" font-family="Helvetica,sans-Serif" font-size="10.00">math/blas/Ops.h</text>
</a>
</g>
</g>
<!-- Node25&#45;&gt;Node27 -->
<g id="edge62" class="edge">
<title>Node25&#45;&gt;Node27</title>
<path fill="none" stroke="midnightblue" d="M1197.21,-414.49C1241.87,-393.63 1357.05,-339.82 1410.27,-314.95"/>
<polygon fill="midnightblue" stroke="midnightblue" points="1411.88,-318.06 1419.46,-310.66 1408.92,-311.72 1411.88,-318.06"/>
</g>
<!-- Node26&#45;&gt;Node4 -->
<g id="edge52" class="edge">
<title>Node26&#45;&gt;Node4</title>
<path fill="none" stroke="midnightblue" d="M1176.51,-352.95C1173.61,-342.93 1168.76,-325.81 1165,-311 1148.95,-247.78 1177.41,-214.82 1132,-168 1104.67,-139.82 1061.97,-128.57 1026.09,-124.36"/>
<polygon fill="midnightblue" stroke="midnightblue" points="1025.98,-120.83 1015.68,-123.31 1025.28,-127.79 1025.98,-120.83"/>
</g>
<!-- Node26&#45;&gt;Node7 -->
<g id="edge58" class="edge">
<title>Node26&#45;&gt;Node7</title>
<path fill="none" stroke="midnightblue" d="M1180.6,-352.67C1185.44,-323.08 1197.03,-226.07 1153,-168 1116.4,-119.73 1050,-92.25 1005.7,-78.48"/>
<polygon fill="midnightblue" stroke="midnightblue" points="1006.63,-75.11 996.04,-75.59 1004.62,-81.82 1006.63,-75.11"/>
</g>
<!-- Node26&#45;&gt;Node10 -->
<g id="edge53" class="edge">
<title>Node26&#45;&gt;Node10</title>
<path fill="none" stroke="midnightblue" d="M1167.92,-352.77C1156.55,-343.38 1138.89,-327.56 1127,-311 1100.32,-273.83 1079.99,-223.6 1070.28,-197.1"/>
<polygon fill="midnightblue" stroke="midnightblue" points="1073.55,-195.83 1066.89,-187.59 1066.96,-198.19 1073.55,-195.83"/>
</g>
<!-- Node26&#45;&gt;Node22 -->
<g id="edge51" class="edge">
<title>Node26&#45;&gt;Node22</title>
<path fill="none" stroke="midnightblue" d="M1191.18,-352.98C1204.81,-343.43 1227.13,-327.81 1243.47,-316.37"/>
<polygon fill="midnightblue" stroke="midnightblue" points="1245.66,-319.11 1251.84,-310.51 1241.64,-313.38 1245.66,-319.11"/>
</g>
<!-- Node26&#45;&gt;Node27 -->
<g id="edge54" class="edge">
<title>Node26&#45;&gt;Node27</title>
<path fill="none" stroke="midnightblue" d="M1202.44,-356.11C1244.88,-346.37 1335.18,-325.62 1390.83,-312.84"/>
<polygon fill="midnightblue" stroke="midnightblue" points="1391.84,-316.2 1400.8,-310.55 1390.27,-309.37 1391.84,-316.2"/>
</g>
<!-- Node28 -->
<g id="node28" class="node">
<title>Node28</title>
<g id="a_node28"><a xlink:title=" ">
<polygon fill="white" stroke="#bfbfbf" points="1483,-224.5 1483,-254.5 1599,-254.5 1599,-224.5 1483,-224.5"/>
<text text-anchor="start" x="1491" y="-242.5" font-family="Helvetica,sans-Serif" font-size="10.00">boost/numeric/ublas</text>
<text text-anchor="middle" x="1541" y="-231.5" font-family="Helvetica,sans-Serif" font-size="10.00">/io.hpp</text>
</a>
</g>
</g>
<!-- Node27&#45;&gt;Node28 -->
<g id="edge55" class="edge">
<title>Node27&#45;&gt;Node28</title>
<path fill="none" stroke="midnightblue" d="M1452.76,-291.48C1467.1,-283.19 1489.37,-270.32 1507.95,-259.59"/>
<polygon fill="midnightblue" stroke="midnightblue" points="1509.82,-262.56 1516.72,-254.52 1506.32,-256.49 1509.82,-262.56"/>
</g>
<!-- Node29 -->
<g id="node29" class="node">
<title>Node29</title>
<g id="a_node29"><a xlink:title=" ">
<polygon fill="white" stroke="#bfbfbf" points="1277,-224.5 1277,-254.5 1393,-254.5 1393,-224.5 1277,-224.5"/>
<text text-anchor="start" x="1285" y="-242.5" font-family="Helvetica,sans-Serif" font-size="10.00">boost/numeric/ublas</text>
<text text-anchor="middle" x="1335" y="-231.5" font-family="Helvetica,sans-Serif" font-size="10.00">/matrix.hpp</text>
</a>
</g>
</g>
<!-- Node27&#45;&gt;Node29 -->
<g id="edge56" class="edge">
<title>Node27&#45;&gt;Node29</title>
<path fill="none" stroke="midnightblue" d="M1423.24,-291.48C1408.9,-283.19 1386.63,-270.32 1368.05,-259.59"/>
<polygon fill="midnightblue" stroke="midnightblue" points="1369.68,-256.49 1359.28,-254.52 1366.18,-262.56 1369.68,-256.49"/>
</g>
<!-- Node30 -->
<g id="node30" class="node">
<title>Node30</title>
<g id="a_node30"><a xlink:title=" ">
<polygon fill="white" stroke="#bfbfbf" points="1411,-230 1411,-249 1465,-249 1465,-230 1411,-230"/>
<text text-anchor="middle" x="1438" y="-237" font-family="Helvetica,sans-Serif" font-size="10.00">random</text>
</a>
</g>
</g>
<!-- Node27&#45;&gt;Node30 -->
<g id="edge57" class="edge">
<title>Node27&#45;&gt;Node30</title>
<path fill="none" stroke="midnightblue" d="M1438,-291.48C1438,-283.08 1438,-269.98 1438,-259.16"/>
<polygon fill="midnightblue" stroke="midnightblue" points="1441.5,-259.01 1438,-249.01 1434.5,-259.01 1441.5,-259.01"/>
</g>
<!-- Node31&#45;&gt;Node4 -->
<g id="edge65" class="edge">
<title>Node31&#45;&gt;Node4</title>
<path fill="none" stroke="midnightblue" d="M1836.38,-352.71C1844.79,-329.22 1864,-264.01 1835,-224 1788.07,-159.25 1742.53,-183.12 1664,-168 1542.84,-144.67 1175.92,-130.16 1025.94,-125.06"/>
<polygon fill="midnightblue" stroke="midnightblue" points="1025.63,-121.55 1015.52,-124.71 1025.4,-128.55 1025.63,-121.55"/>
</g>
<!-- Node31&#45;&gt;Node7 -->
<g id="edge66" class="edge">
<title>Node31&#45;&gt;Node7</title>
<path fill="none" stroke="midnightblue" d="M1913.5,-353.83C1944.25,-347.02 1977.33,-334.37 2000,-311 2022.6,-287.71 2019,-272.95 2019,-240.5 2019,-240.5 2019,-240.5 2019,-177 2019,-76.46 1253.34,-67.37 1024.71,-66.9"/>
<polygon fill="midnightblue" stroke="midnightblue" points="1024.56,-63.4 1014.56,-66.88 1024.55,-70.4 1024.56,-63.4"/>
</g>
<!-- Node31&#45;&gt;Node22 -->
<g id="edge69" class="edge">
<title>Node31&#45;&gt;Node22</title>
<path fill="none" stroke="midnightblue" d="M1752.38,-353.07C1639.49,-341.26 1436.36,-320.02 1331.19,-309.03"/>
<polygon fill="midnightblue" stroke="midnightblue" points="1331.32,-305.52 1321.01,-307.96 1330.6,-312.48 1331.32,-305.52"/>
</g>
<!-- Node31&#45;&gt;Node23 -->
<g id="edge70" class="edge">
<title>Node31&#45;&gt;Node23</title>
<path fill="none" stroke="midnightblue" d="M1825.59,-352.8C1809.62,-334.04 1771.55,-289.31 1748.56,-262.3"/>
<polygon fill="midnightblue" stroke="midnightblue" points="1751.1,-259.89 1741.95,-254.54 1745.77,-264.42 1751.1,-259.89"/>
</g>
<!-- Node31&#45;&gt;Node27 -->
<g id="edge68" class="edge">
<title>Node31&#45;&gt;Node27</title>
<path fill="none" stroke="midnightblue" d="M1776.41,-352.98C1701.94,-341.76 1571.71,-322.14 1496.37,-310.79"/>
<polygon fill="midnightblue" stroke="midnightblue" points="1496.52,-307.28 1486.11,-309.25 1495.48,-314.2 1496.52,-307.28"/>
</g>
<!-- Node32 -->
<g id="node32" class="node">
<title>Node32</title>
<g id="a_node32"><a xlink:title=" ">
<polygon fill="white" stroke="#bfbfbf" points="1937.5,-291.5 1937.5,-310.5 1990.5,-310.5 1990.5,-291.5 1937.5,-291.5"/>
<text text-anchor="middle" x="1964" y="-298.5" font-family="Helvetica,sans-Serif" font-size="10.00">cstddef</text>
</a>
</g>
</g>
<!-- Node31&#45;&gt;Node32 -->
<g id="edge67" class="edge">
<title>Node31&#45;&gt;Node32</title>
<path fill="none" stroke="midnightblue" d="M1851.77,-352.98C1873.85,-342.95 1910.72,-326.2 1936.14,-314.65"/>
<polygon fill="midnightblue" stroke="midnightblue" points="1937.61,-317.83 1945.27,-310.51 1934.71,-311.46 1937.61,-317.83"/>
</g>
<!-- Node33&#45;&gt;Node4 -->
<g id="edge73" class="edge">
<title>Node33&#45;&gt;Node4</title>
<path fill="none" stroke="midnightblue" d="M1561.95,-355.97C1676.41,-344.09 1890.31,-309.88 1814,-224 1761.72,-165.17 1215.56,-134.68 1025.65,-125.8"/>
<polygon fill="midnightblue" stroke="midnightblue" points="1025.68,-122.3 1015.53,-125.33 1025.36,-129.29 1025.68,-122.3"/>
</g>
<!-- Node33&#45;&gt;Node7 -->
<g id="edge76" class="edge">
<title>Node33&#45;&gt;Node7</title>
<path fill="none" stroke="midnightblue" d="M1561.81,-355.79C1640.25,-348.2 1764.87,-333.12 1806,-311 1843.53,-290.81 1871,-283.12 1871,-240.5 1871,-240.5 1871,-240.5 1871,-177 1871,-91.61 1231.37,-72.08 1024.62,-68"/>
<polygon fill="midnightblue" stroke="midnightblue" points="1024.59,-64.5 1014.53,-67.81 1024.46,-71.5 1024.59,-64.5"/>
</g>
<!-- Node33&#45;&gt;Node10 -->
<g id="edge74" class="edge">
<title>Node33&#45;&gt;Node10</title>
<path fill="none" stroke="midnightblue" d="M1511.78,-352.85C1552.63,-330.74 1650.9,-270.6 1608,-224 1607.5,-223.46 1279.95,-196.64 1133.42,-184.67"/>
<polygon fill="midnightblue" stroke="midnightblue" points="1133.44,-181.16 1123.19,-183.83 1132.87,-188.13 1133.44,-181.16"/>
</g>
<!-- Node33&#45;&gt;Node22 -->
<g id="edge72" class="edge">
<title>Node33&#45;&gt;Node22</title>
<path fill="none" stroke="midnightblue" d="M1461.9,-352.98C1421.08,-342.46 1351.59,-324.56 1306.76,-313.01"/>
<polygon fill="midnightblue" stroke="midnightblue" points="1307.59,-309.61 1297.04,-310.51 1305.85,-316.39 1307.59,-309.61"/>
</g>
<!-- Node33&#45;&gt;Node27 -->
<g id="edge75" class="edge">
<title>Node33&#45;&gt;Node27</title>
<path fill="none" stroke="midnightblue" d="M1486.83,-352.98C1478.11,-343.87 1464.1,-329.24 1453.31,-317.98"/>
<polygon fill="midnightblue" stroke="midnightblue" points="1455.6,-315.31 1446.15,-310.51 1450.54,-320.15 1455.6,-315.31"/>
</g>
</g>
</svg>
