<?xml version="1.0" encoding="UTF-8" standalone="no"?>
<!DOCTYPE svg PUBLIC "-//W3C//DTD SVG 1.1//EN"
 "http://www.w3.org/Graphics/SVG/1.1/DTD/svg11.dtd">
<!-- Generated by graphviz version 2.43.0 (0)
 -->
<!-- Title: writeJSON Pages: 1 -->
<svg width="212pt" height="446pt"
 viewBox="0.00 0.00 212.00 446.00" xmlns="http://www.w3.org/2000/svg" xmlns:xlink="http://www.w3.org/1999/xlink">
<g id="graph0" class="graph" transform="scale(1 1) rotate(0) translate(4 442)">
<title>writeJSON</title>
<polygon fill="white" stroke="transparent" points="-4,4 -4,-442 208,-442 208,4 -4,4"/>
<!-- Node1 -->
<g id="node1" class="node">
<title>Node1</title>
<g id="a_node1"><a xlink:title="Writes the given JSON data to a file at the specified file path.">
<polygon fill="#bfbfbf" stroke="black" points="139,-209.5 139,-228.5 204,-228.5 204,-209.5 139,-209.5"/>
<text text-anchor="middle" x="171.5" y="-216.5" font-family="Helvetica,sans-Serif" font-size="10.00">writeJSON</text>
</a>
</g>
</g>
<!-- Node2 -->
<g id="node2" class="node">
<title>Node2</title>
<g id="a_node2"><a xlink:href="../../d9/d0e/classInLab10.html#a70d0f8cd5e183d89633479ebd70e97d5" target="_top" xlink:title="This function is used to perform operations after the main computation.">
<polygon fill="white" stroke="black" points="1,-418.5 1,-437.5 102,-437.5 102,-418.5 1,-418.5"/>
<text text-anchor="middle" x="51.5" y="-425.5" font-family="Helvetica,sans-Serif" font-size="10.00">InLab10::postRun</text>
</a>
</g>
</g>
<!-- Node1&#45;&gt;Node2 -->
<g id="edge1" class="edge">
<title>Node1&#45;&gt;Node2</title>
<path fill="none" stroke="midnightblue" d="M168.85,-239.08C164.66,-277.25 150.34,-360.78 103,-409 99.19,-412.88 94.52,-415.97 89.57,-418.44"/>
<polygon fill="midnightblue" stroke="midnightblue" points="172.37,-239.07 169.85,-228.78 165.4,-238.39 172.37,-239.07"/>
</g>
<!-- Node3 -->
<g id="node3" class="node">
<title>Node3</title>
<g id="a_node3"><a xlink:href="../../d3/d49/classOutLab7.html#addb9cc7be43ee9f4ccdb41febfb53bc6" target="_top" xlink:title="This function is used to perform operations after the main computation.">
<polygon fill="white" stroke="black" points="0,-380.5 0,-399.5 103,-399.5 103,-380.5 0,-380.5"/>
<text text-anchor="middle" x="51.5" y="-387.5" font-family="Helvetica,sans-Serif" font-size="10.00">OutLab7::postRun</text>
</a>
</g>
</g>
<!-- Node1&#45;&gt;Node3 -->
<g id="edge2" class="edge">
<title>Node1&#45;&gt;Node3</title>
<path fill="none" stroke="midnightblue" d="M166.89,-238.58C160.01,-270.56 142.07,-334.13 103,-371 98.91,-374.86 93.97,-377.95 88.79,-380.42"/>
<polygon fill="midnightblue" stroke="midnightblue" points="170.34,-239.17 168.88,-228.68 163.48,-237.79 170.34,-239.17"/>
</g>
<!-- Node4 -->
<g id="node4" class="node">
<title>Node4</title>
<g id="a_node4"><a xlink:href="../../d1/d1f/classInLab3.html#a95bc0719c1cc54ac936e3c7a5b20043d" target="_top" xlink:title="Runs the numerical integration using Composite Newton&#45;Cotes Formulas.">
<polygon fill="white" stroke="black" points="16,-342.5 16,-361.5 87,-361.5 87,-342.5 16,-342.5"/>
<text text-anchor="middle" x="51.5" y="-349.5" font-family="Helvetica,sans-Serif" font-size="10.00">InLab3::run</text>
</a>
</g>
</g>
<!-- Node1&#45;&gt;Node4 -->
<g id="edge3" class="edge">
<title>Node1&#45;&gt;Node4</title>
<path fill="none" stroke="midnightblue" d="M163.77,-238.25C154.06,-263.36 133.84,-307.13 103,-333 98.34,-336.91 92.78,-340.06 87.1,-342.59"/>
<polygon fill="midnightblue" stroke="midnightblue" points="167.1,-239.33 167.28,-228.73 160.53,-236.9 167.1,-239.33"/>
</g>
<!-- Node5 -->
<g id="node5" class="node">
<title>Node5</title>
<g id="a_node5"><a xlink:href="../../da/df0/classOutLab3.html#a19a79946e1512bbd5d67fab314399b2b" target="_top" xlink:title="Runs the numerical integration using Composite Newton&#45;Cotes Formulas.">
<polygon fill="white" stroke="black" points="12,-304.5 12,-323.5 91,-323.5 91,-304.5 12,-304.5"/>
<text text-anchor="middle" x="51.5" y="-311.5" font-family="Helvetica,sans-Serif" font-size="10.00">OutLab3::run</text>
</a>
</g>
</g>
<!-- Node1&#45;&gt;Node5 -->
<g id="edge4" class="edge">
<title>Node1&#45;&gt;Node5</title>
<path fill="none" stroke="midnightblue" d="M158.45,-237.01C146.25,-254.03 125.95,-279.23 103,-295 97.52,-298.77 91.19,-301.91 84.91,-304.48"/>
<polygon fill="midnightblue" stroke="midnightblue" points="161.52,-238.72 164.36,-228.51 155.78,-234.72 161.52,-238.72"/>
</g>
<!-- Node6 -->
<g id="node6" class="node">
<title>Node6</title>
<g id="a_node6"><a xlink:href="../../d1/d8c/classInLab6.html#a55667f27b7ba522dd4288f18d16c9f8d" target="_top" xlink:title="This function runs the project.">
<polygon fill="white" stroke="black" points="16,-266.5 16,-285.5 87,-285.5 87,-266.5 16,-266.5"/>
<text text-anchor="middle" x="51.5" y="-273.5" font-family="Helvetica,sans-Serif" font-size="10.00">InLab6::run</text>
</a>
</g>
</g>
<!-- Node1&#45;&gt;Node6 -->
<g id="edge5" class="edge">
<title>Node1&#45;&gt;Node6</title>
<path fill="none" stroke="midnightblue" d="M146.45,-233.73C133.77,-241.18 117.81,-250.09 103,-257 95.7,-260.4 87.6,-263.67 80.07,-266.5"/>
<polygon fill="midnightblue" stroke="midnightblue" points="148.24,-236.73 155.04,-228.6 144.66,-230.72 148.24,-236.73"/>
</g>
<!-- Node7 -->
<g id="node7" class="node">
<title>Node7</title>
<g id="a_node7"><a xlink:href="../../d8/deb/classInLab5.html#a627071ee1dc13ffb289e34d45ad63758" target="_top" xlink:title="This function runs the project.">
<polygon fill="white" stroke="black" points="16,-228.5 16,-247.5 87,-247.5 87,-228.5 16,-228.5"/>
<text text-anchor="middle" x="51.5" y="-235.5" font-family="Helvetica,sans-Serif" font-size="10.00">InLab5::run</text>
</a>
</g>
</g>
<!-- Node1&#45;&gt;Node7 -->
<g id="edge6" class="edge">
<title>Node1&#45;&gt;Node7</title>
<path fill="none" stroke="midnightblue" d="M128.77,-225.72C115.14,-227.91 100.16,-230.33 87.11,-232.43"/>
<polygon fill="midnightblue" stroke="midnightblue" points="129.56,-229.14 138.88,-224.09 128.45,-222.23 129.56,-229.14"/>
</g>
<!-- Node8 -->
<g id="node8" class="node">
<title>Node8</title>
<g id="a_node8"><a xlink:href="../../d8/d5b/classOutLab4.html#af3d8d1b60ac7a85a1aabf6a3d511ecce" target="_top" xlink:title="This function runs the project.">
<polygon fill="white" stroke="black" points="12,-190.5 12,-209.5 91,-209.5 91,-190.5 12,-190.5"/>
<text text-anchor="middle" x="51.5" y="-197.5" font-family="Helvetica,sans-Serif" font-size="10.00">OutLab4::run</text>
</a>
</g>
</g>
<!-- Node1&#45;&gt;Node8 -->
<g id="edge7" class="edge">
<title>Node1&#45;&gt;Node8</title>
<path fill="none" stroke="midnightblue" d="M128.93,-212.31C116.72,-210.34 103.41,-208.2 91.38,-206.26"/>
<polygon fill="midnightblue" stroke="midnightblue" points="128.45,-215.77 138.88,-213.91 129.56,-208.86 128.45,-215.77"/>
</g>
<!-- Node9 -->
<g id="node9" class="node">
<title>Node9</title>
<g id="a_node9"><a xlink:href="../../d0/d4c/classOutLab6.html#a901a1283fd029c9174f8469ac5cb3ad8" target="_top" xlink:title="This function runs the computation.">
<polygon fill="white" stroke="black" points="12,-152.5 12,-171.5 91,-171.5 91,-152.5 12,-152.5"/>
<text text-anchor="middle" x="51.5" y="-159.5" font-family="Helvetica,sans-Serif" font-size="10.00">OutLab6::run</text>
</a>
</g>
</g>
<!-- Node1&#45;&gt;Node9 -->
<g id="edge8" class="edge">
<title>Node1&#45;&gt;Node9</title>
<path fill="none" stroke="midnightblue" d="M146.45,-204.27C133.77,-196.82 117.81,-187.91 103,-181 95.7,-177.6 87.6,-174.33 80.07,-171.5"/>
<polygon fill="midnightblue" stroke="midnightblue" points="144.66,-207.28 155.04,-209.4 148.24,-201.27 144.66,-207.28"/>
</g>
<!-- Node10 -->
<g id="node10" class="node">
<title>Node10</title>
<g id="a_node10"><a xlink:href="../../dc/d9f/classInLab4.html#a4177d98b14bfef260d100923e8245f24" target="_top" xlink:title="This function runs the project.">
<polygon fill="white" stroke="black" points="16,-114.5 16,-133.5 87,-133.5 87,-114.5 16,-114.5"/>
<text text-anchor="middle" x="51.5" y="-121.5" font-family="Helvetica,sans-Serif" font-size="10.00">InLab4::run</text>
</a>
</g>
</g>
<!-- Node1&#45;&gt;Node10 -->
<g id="edge9" class="edge">
<title>Node1&#45;&gt;Node10</title>
<path fill="none" stroke="midnightblue" d="M158.45,-200.99C146.25,-183.97 125.95,-158.77 103,-143 97.52,-139.23 91.19,-136.09 84.91,-133.52"/>
<polygon fill="midnightblue" stroke="midnightblue" points="155.78,-203.28 164.36,-209.49 161.52,-199.28 155.78,-203.28"/>
</g>
<!-- Node11 -->
<g id="node11" class="node">
<title>Node11</title>
<g id="a_node11"><a xlink:href="../../d3/d1d/classOutLab5.html#aa1d5363426e0ce8f620d47c1b2aa2260" target="_top" xlink:title="This function runs the project.">
<polygon fill="white" stroke="black" points="12,-76.5 12,-95.5 91,-95.5 91,-76.5 12,-76.5"/>
<text text-anchor="middle" x="51.5" y="-83.5" font-family="Helvetica,sans-Serif" font-size="10.00">OutLab5::run</text>
</a>
</g>
</g>
<!-- Node1&#45;&gt;Node11 -->
<g id="edge10" class="edge">
<title>Node1&#45;&gt;Node11</title>
<path fill="none" stroke="midnightblue" d="M163.77,-199.75C154.06,-174.64 133.84,-130.87 103,-105 98.41,-101.15 92.95,-98.03 87.36,-95.53"/>
<polygon fill="midnightblue" stroke="midnightblue" points="160.53,-201.1 167.28,-209.27 167.1,-198.67 160.53,-201.1"/>
</g>
<!-- Node12 -->
<g id="node12" class="node">
<title>Node12</title>
<g id="a_node12"><a xlink:href="../../d8/ddb/classProject1.html#a41a4716fc32985fae5d32da6434b5516" target="_top" xlink:title="This function runs the project.">
<polygon fill="white" stroke="black" points="12.5,-38.5 12.5,-57.5 90.5,-57.5 90.5,-38.5 12.5,-38.5"/>
<text text-anchor="middle" x="51.5" y="-45.5" font-family="Helvetica,sans-Serif" font-size="10.00">Project1::run</text>
</a>
</g>
</g>
<!-- Node1&#45;&gt;Node12 -->
<g id="edge11" class="edge">
<title>Node1&#45;&gt;Node12</title>
<path fill="none" stroke="midnightblue" d="M166.89,-199.42C160.01,-167.44 142.07,-103.87 103,-67 98.91,-63.14 93.97,-60.05 88.79,-57.58"/>
<polygon fill="midnightblue" stroke="midnightblue" points="163.48,-200.21 168.88,-209.32 170.34,-198.83 163.48,-200.21"/>
</g>
<!-- Node13 -->
<g id="node13" class="node">
<title>Node13</title>
<g id="a_node13"><a xlink:href="../../dd/db5/classProject2.html#a0990db917f6a27a4e1cb9ac885698524" target="_top" xlink:title="This function runs the project.">
<polygon fill="white" stroke="black" points="12.5,-0.5 12.5,-19.5 90.5,-19.5 90.5,-0.5 12.5,-0.5"/>
<text text-anchor="middle" x="51.5" y="-7.5" font-family="Helvetica,sans-Serif" font-size="10.00">Project2::run</text>
</a>
</g>
</g>
<!-- Node1&#45;&gt;Node13 -->
<g id="edge12" class="edge">
<title>Node1&#45;&gt;Node13</title>
<path fill="none" stroke="midnightblue" d="M168.85,-198.92C164.66,-160.75 150.34,-77.22 103,-29 99.19,-25.12 94.52,-22.03 89.57,-19.56"/>
<polygon fill="midnightblue" stroke="midnightblue" points="165.4,-199.61 169.85,-209.22 172.37,-198.93 165.4,-199.61"/>
</g>
</g>
</svg>
