<?xml version="1.0" encoding="UTF-8" standalone="no"?>
<!DOCTYPE svg PUBLIC "-//W3C//DTD SVG 1.1//EN"
 "http://www.w3.org/Graphics/SVG/1.1/DTD/svg11.dtd">
<!-- Generated by graphviz version 2.43.0 (0)
 -->
<!-- Title: writeJSON Pages: 1 -->
<svg width="188pt" height="370pt"
 viewBox="0.00 0.00 188.00 370.00" xmlns="http://www.w3.org/2000/svg" xmlns:xlink="http://www.w3.org/1999/xlink">
<g id="graph0" class="graph" transform="scale(1 1) rotate(0) translate(4 366)">
<title>writeJSON</title>
<polygon fill="white" stroke="transparent" points="-4,4 -4,-366 184,-366 184,4 -4,4"/>
<!-- Node1 -->
<g id="node1" class="node">
<title>Node1</title>
<g id="a_node1"><a xlink:title="Writes the given JSON data to a file at the specified file path.">
<polygon fill="#bfbfbf" stroke="black" points="115,-171.5 115,-190.5 180,-190.5 180,-171.5 115,-171.5"/>
<text text-anchor="middle" x="147.5" y="-178.5" font-family="Helvetica,sans-Serif" font-size="10.00">writeJSON</text>
</a>
</g>
</g>
<!-- Node2 -->
<g id="node2" class="node">
<title>Node2</title>
<g id="a_node2"><a xlink:href="../../d1/d1f/classInLab3.html#a95bc0719c1cc54ac936e3c7a5b20043d" target="_top" xlink:title="Runs the numerical integration using Composite Newton&#45;Cotes Formulas.">
<polygon fill="white" stroke="black" points="4,-342.5 4,-361.5 75,-361.5 75,-342.5 4,-342.5"/>
<text text-anchor="middle" x="39.5" y="-349.5" font-family="Helvetica,sans-Serif" font-size="10.00">InLab3::run</text>
</a>
</g>
</g>
<!-- Node1&#45;&gt;Node2 -->
<g id="edge1" class="edge">
<title>Node1&#45;&gt;Node2</title>
<path fill="none" stroke="midnightblue" d="M142.36,-200.61C134.81,-232.14 116.03,-294.44 79,-333 75.39,-336.76 70.87,-339.89 66.22,-342.44"/>
<polygon fill="midnightblue" stroke="midnightblue" points="145.78,-201.36 144.58,-190.84 138.95,-199.82 145.78,-201.36"/>
</g>
<!-- Node3 -->
<g id="node3" class="node">
<title>Node3</title>
<g id="a_node3"><a xlink:href="../../da/df0/classOutLab3.html#a19a79946e1512bbd5d67fab314399b2b" target="_top" xlink:title="Runs the numerical integration using Composite Newton&#45;Cotes Formulas.">
<polygon fill="white" stroke="black" points="0,-304.5 0,-323.5 79,-323.5 79,-304.5 0,-304.5"/>
<text text-anchor="middle" x="39.5" y="-311.5" font-family="Helvetica,sans-Serif" font-size="10.00">OutLab3::run</text>
</a>
</g>
</g>
<!-- Node1&#45;&gt;Node3 -->
<g id="edge2" class="edge">
<title>Node1&#45;&gt;Node3</title>
<path fill="none" stroke="midnightblue" d="M139.22,-200.17C129.02,-224.85 108.38,-267.78 79,-295 75.06,-298.65 70.3,-301.75 65.48,-304.32"/>
<polygon fill="midnightblue" stroke="midnightblue" points="142.5,-201.4 142.94,-190.81 135.99,-198.81 142.5,-201.4"/>
</g>
<!-- Node4 -->
<g id="node4" class="node">
<title>Node4</title>
<g id="a_node4"><a xlink:href="../../d1/d8c/classInLab6.html#a55667f27b7ba522dd4288f18d16c9f8d" target="_top" xlink:title="This function runs the project.">
<polygon fill="white" stroke="black" points="4,-266.5 4,-285.5 75,-285.5 75,-266.5 4,-266.5"/>
<text text-anchor="middle" x="39.5" y="-273.5" font-family="Helvetica,sans-Serif" font-size="10.00">InLab6::run</text>
</a>
</g>
</g>
<!-- Node1&#45;&gt;Node4 -->
<g id="edge3" class="edge">
<title>Node1&#45;&gt;Node4</title>
<path fill="none" stroke="midnightblue" d="M133.49,-199.33C120.97,-215.97 100.79,-240.39 79,-257 74.38,-260.53 69,-263.67 63.75,-266.33"/>
<polygon fill="midnightblue" stroke="midnightblue" points="136.52,-201.11 139.61,-190.98 130.87,-196.97 136.52,-201.11"/>
</g>
<!-- Node5 -->
<g id="node5" class="node">
<title>Node5</title>
<g id="a_node5"><a xlink:href="../../d8/deb/classInLab5.html#a627071ee1dc13ffb289e34d45ad63758" target="_top" xlink:title="This function runs the project.">
<polygon fill="white" stroke="black" points="4,-228.5 4,-247.5 75,-247.5 75,-228.5 4,-228.5"/>
<text text-anchor="middle" x="39.5" y="-235.5" font-family="Helvetica,sans-Serif" font-size="10.00">InLab5::run</text>
</a>
</g>
</g>
<!-- Node1&#45;&gt;Node5 -->
<g id="edge4" class="edge">
<title>Node1&#45;&gt;Node5</title>
<path fill="none" stroke="midnightblue" d="M121.02,-195.78C108.46,-202.95 93.03,-211.6 79,-219 73.07,-222.13 66.55,-225.41 60.59,-228.34"/>
<polygon fill="midnightblue" stroke="midnightblue" points="123.06,-198.64 129.99,-190.62 119.58,-192.57 123.06,-198.64"/>
</g>
<!-- Node6 -->
<g id="node6" class="node">
<title>Node6</title>
<g id="a_node6"><a xlink:href="../../d8/d5b/classOutLab4.html#af3d8d1b60ac7a85a1aabf6a3d511ecce" target="_top" xlink:title="This function runs the project.">
<polygon fill="white" stroke="black" points="0,-190.5 0,-209.5 79,-209.5 79,-190.5 0,-190.5"/>
<text text-anchor="middle" x="39.5" y="-197.5" font-family="Helvetica,sans-Serif" font-size="10.00">OutLab4::run</text>
</a>
</g>
</g>
<!-- Node1&#45;&gt;Node6 -->
<g id="edge5" class="edge">
<title>Node1&#45;&gt;Node6</title>
<path fill="none" stroke="midnightblue" d="M104.92,-188.45C96.45,-189.97 87.58,-191.56 79.21,-193.06"/>
<polygon fill="midnightblue" stroke="midnightblue" points="105.76,-191.86 114.98,-186.65 104.52,-184.97 105.76,-191.86"/>
</g>
<!-- Node7 -->
<g id="node7" class="node">
<title>Node7</title>
<g id="a_node7"><a xlink:href="../../d0/d4c/classOutLab6.html#a7f817fd9bedd2b88e683e2514d386c8c" target="_top" xlink:title="This function runs the computation.">
<polygon fill="white" stroke="black" points="0,-152.5 0,-171.5 79,-171.5 79,-152.5 0,-152.5"/>
<text text-anchor="middle" x="39.5" y="-159.5" font-family="Helvetica,sans-Serif" font-size="10.00">OutLab6::run</text>
</a>
</g>
</g>
<!-- Node1&#45;&gt;Node7 -->
<g id="edge6" class="edge">
<title>Node1&#45;&gt;Node7</title>
<path fill="none" stroke="midnightblue" d="M104.92,-173.55C96.45,-172.03 87.58,-170.44 79.21,-168.94"/>
<polygon fill="midnightblue" stroke="midnightblue" points="104.52,-177.03 114.98,-175.35 105.76,-170.14 104.52,-177.03"/>
</g>
<!-- Node8 -->
<g id="node8" class="node">
<title>Node8</title>
<g id="a_node8"><a xlink:href="../../dc/d9f/classInLab4.html#a4177d98b14bfef260d100923e8245f24" target="_top" xlink:title="This function runs the project.">
<polygon fill="white" stroke="black" points="4,-114.5 4,-133.5 75,-133.5 75,-114.5 4,-114.5"/>
<text text-anchor="middle" x="39.5" y="-121.5" font-family="Helvetica,sans-Serif" font-size="10.00">InLab4::run</text>
</a>
</g>
</g>
<!-- Node1&#45;&gt;Node8 -->
<g id="edge7" class="edge">
<title>Node1&#45;&gt;Node8</title>
<path fill="none" stroke="midnightblue" d="M121.02,-166.22C108.46,-159.05 93.03,-150.4 79,-143 73.07,-139.87 66.55,-136.59 60.59,-133.66"/>
<polygon fill="midnightblue" stroke="midnightblue" points="119.58,-169.43 129.99,-171.38 123.06,-163.36 119.58,-169.43"/>
</g>
<!-- Node9 -->
<g id="node9" class="node">
<title>Node9</title>
<g id="a_node9"><a xlink:href="../../d3/d1d/classOutLab5.html#aa1d5363426e0ce8f620d47c1b2aa2260" target="_top" xlink:title="This function runs the project.">
<polygon fill="white" stroke="black" points="0,-76.5 0,-95.5 79,-95.5 79,-76.5 0,-76.5"/>
<text text-anchor="middle" x="39.5" y="-83.5" font-family="Helvetica,sans-Serif" font-size="10.00">OutLab5::run</text>
</a>
</g>
</g>
<!-- Node1&#45;&gt;Node9 -->
<g id="edge8" class="edge">
<title>Node1&#45;&gt;Node9</title>
<path fill="none" stroke="midnightblue" d="M133.49,-162.67C120.97,-146.03 100.79,-121.61 79,-105 74.38,-101.47 69,-98.33 63.75,-95.67"/>
<polygon fill="midnightblue" stroke="midnightblue" points="130.87,-165.03 139.61,-171.02 136.52,-160.89 130.87,-165.03"/>
</g>
<!-- Node10 -->
<g id="node10" class="node">
<title>Node10</title>
<g id="a_node10"><a xlink:href="../../d8/ddb/classProject1.html#ac7f0febb9852a9871ac5209b58506fb1" target="_top" xlink:title="This function runs the project.">
<polygon fill="white" stroke="black" points="0.5,-38.5 0.5,-57.5 78.5,-57.5 78.5,-38.5 0.5,-38.5"/>
<text text-anchor="middle" x="39.5" y="-45.5" font-family="Helvetica,sans-Serif" font-size="10.00">Project1::run</text>
</a>
</g>
</g>
<!-- Node1&#45;&gt;Node10 -->
<g id="edge9" class="edge">
<title>Node1&#45;&gt;Node10</title>
<path fill="none" stroke="midnightblue" d="M139.22,-161.83C129.02,-137.15 108.38,-94.22 79,-67 75.06,-63.35 70.3,-60.25 65.48,-57.68"/>
<polygon fill="midnightblue" stroke="midnightblue" points="135.99,-163.19 142.94,-171.19 142.5,-160.6 135.99,-163.19"/>
</g>
<!-- Node11 -->
<g id="node11" class="node">
<title>Node11</title>
<g id="a_node11"><a xlink:href="../../dd/db5/classProject2.html#ae3fb99498f7859230efae48b2915a8cb" target="_top" xlink:title="This function runs the project.">
<polygon fill="white" stroke="black" points="0.5,-0.5 0.5,-19.5 78.5,-19.5 78.5,-0.5 0.5,-0.5"/>
<text text-anchor="middle" x="39.5" y="-7.5" font-family="Helvetica,sans-Serif" font-size="10.00">Project2::run</text>
</a>
</g>
</g>
<!-- Node1&#45;&gt;Node11 -->
<g id="edge10" class="edge">
<title>Node1&#45;&gt;Node11</title>
<path fill="none" stroke="midnightblue" d="M142.36,-161.39C134.81,-129.86 116.03,-67.56 79,-29 75.39,-25.24 70.87,-22.11 66.22,-19.56"/>
<polygon fill="midnightblue" stroke="midnightblue" points="138.95,-162.18 144.58,-171.16 145.78,-160.64 138.95,-162.18"/>
</g>
</g>
</svg>
