<?xml version="1.0" encoding="UTF-8" standalone="no"?>
<!DOCTYPE svg PUBLIC "-//W3C//DTD SVG 1.1//EN"
 "http://www.w3.org/Graphics/SVG/1.1/DTD/svg11.dtd">
<!-- Generated by graphviz version 2.43.0 (0)
 -->
<!-- Title: isFileWritable Pages: 1 -->
<svg width="623pt" height="952pt"
 viewBox="0.00 0.00 623.00 952.00" xmlns="http://www.w3.org/2000/svg" xmlns:xlink="http://www.w3.org/1999/xlink">
<g id="graph0" class="graph" transform="scale(1 1) rotate(0) translate(4 948)">
<title>isFileWritable</title>
<polygon fill="white" stroke="transparent" points="-4,4 -4,-948 619,-948 619,4 -4,4"/>
<!-- Node1 -->
<g id="node1" class="node">
<title>Node1</title>
<g id="a_node1"><a xlink:title="Checks if a file is writable.">
<polygon fill="#bfbfbf" stroke="black" points="532,-753.5 532,-772.5 615,-772.5 615,-753.5 532,-753.5"/>
<text text-anchor="middle" x="573.5" y="-760.5" font-family="Helvetica,sans-Serif" font-size="10.00">isFileWritable</text>
</a>
</g>
</g>
<!-- Node2 -->
<g id="node2" class="node">
<title>Node2</title>
<g id="a_node2"><a xlink:href="../../d0/d40/classParser.html#a3369e669d9e28c85a3397e7bc95d2518" target="_top" xlink:title="This function performs checks on the input parameters and prompts the user to enter valid inputs if t...">
<polygon fill="white" stroke="black" points="326,-811 326,-841 496,-841 496,-811 326,-811"/>
<text text-anchor="start" x="334" y="-829" font-family="Helvetica,sans-Serif" font-size="10.00">Parser::performInputArguments</text>
<text text-anchor="middle" x="411" y="-818" font-family="Helvetica,sans-Serif" font-size="10.00">Check</text>
</a>
</g>
</g>
<!-- Node1&#45;&gt;Node2 -->
<g id="edge1" class="edge">
<title>Node1&#45;&gt;Node2</title>
<path fill="none" stroke="midnightblue" d="M546.35,-777.39C531.8,-785.03 513.2,-794.22 496,-801 486.94,-804.57 477.16,-807.91 467.59,-810.93"/>
<polygon fill="midnightblue" stroke="midnightblue" points="548.09,-780.43 555.27,-772.63 544.8,-774.25 548.09,-780.43"/>
</g>
<!-- Node3 -->
<g id="node3" class="node">
<title>Node3</title>
<g id="a_node3"><a xlink:href="../../d7/de4/FileParser_8h.html#ae87885d224a53e1eee2aee7ee11eb396" target="_top" xlink:title="Writes data to a CSV file.">
<polygon fill="white" stroke="black" points="380.5,-772.5 380.5,-791.5 441.5,-791.5 441.5,-772.5 380.5,-772.5"/>
<text text-anchor="middle" x="411" y="-779.5" font-family="Helvetica,sans-Serif" font-size="10.00">writeCSV</text>
</a>
</g>
</g>
<!-- Node1&#45;&gt;Node3 -->
<g id="edge2" class="edge">
<title>Node1&#45;&gt;Node3</title>
<path fill="none" stroke="midnightblue" d="M521.78,-769C495.38,-772.13 464.02,-775.84 441.6,-778.5"/>
<polygon fill="midnightblue" stroke="midnightblue" points="522.48,-772.45 532,-767.79 521.66,-765.49 522.48,-772.45"/>
</g>
<!-- Node5 -->
<g id="node5" class="node">
<title>Node5</title>
<g id="a_node5"><a xlink:href="../../d7/de4/FileParser_8h.html#a3dcefb9b5c6bf2d5e28ebe848b09cad5" target="_top" xlink:title="A template function to write a matrix to a CSV file without headers.">
<polygon fill="white" stroke="black" points="338,-734.5 338,-753.5 484,-753.5 484,-734.5 338,-734.5"/>
<text text-anchor="middle" x="411" y="-741.5" font-family="Helvetica,sans-Serif" font-size="10.00">writeCSVMatrixNoHeaders</text>
</a>
</g>
</g>
<!-- Node1&#45;&gt;Node5 -->
<g id="edge4" class="edge">
<title>Node1&#45;&gt;Node5</title>
<path fill="none" stroke="midnightblue" d="M521.76,-756.99C509.78,-755.57 496.77,-754.03 484.04,-752.53"/>
<polygon fill="midnightblue" stroke="midnightblue" points="521.66,-760.51 532,-758.21 522.48,-753.55 521.66,-760.51"/>
</g>
<!-- Node16 -->
<g id="node16" class="node">
<title>Node16</title>
<g id="a_node16"><a xlink:href="../../d7/de4/FileParser_8h.html#abb1a95d027a077ecf097a06ef4a968b6" target="_top" xlink:title="Writes the given JSON data to a file at the specified file path.">
<polygon fill="white" stroke="black" points="378.5,-304.5 378.5,-323.5 443.5,-323.5 443.5,-304.5 378.5,-304.5"/>
<text text-anchor="middle" x="411" y="-311.5" font-family="Helvetica,sans-Serif" font-size="10.00">writeJSON</text>
</a>
</g>
</g>
<!-- Node1&#45;&gt;Node16 -->
<g id="edge15" class="edge">
<title>Node1&#45;&gt;Node16</title>
<path fill="none" stroke="midnightblue" d="M565.61,-743.72C537.96,-666.38 435.6,-380.03 415.46,-323.67"/>
<polygon fill="midnightblue" stroke="midnightblue" points="562.34,-744.97 569,-753.2 568.93,-742.61 562.34,-744.97"/>
</g>
<!-- Node4 -->
<g id="node4" class="node">
<title>Node4</title>
<g id="a_node4"><a xlink:href="../../d4/d63/classInLab2.html#a833850a60a910d29099f3dd00b1b1830" target="_top" xlink:title="This function is responsible for the main logic of the program.">
<polygon fill="white" stroke="black" points="166.5,-924.5 166.5,-943.5 237.5,-943.5 237.5,-924.5 166.5,-924.5"/>
<text text-anchor="middle" x="202" y="-931.5" font-family="Helvetica,sans-Serif" font-size="10.00">InLab2::run</text>
</a>
</g>
</g>
<!-- Node3&#45;&gt;Node4 -->
<g id="edge3" class="edge">
<title>Node3&#45;&gt;Node4</title>
<path fill="none" stroke="midnightblue" d="M369.81,-783.33C354.44,-785.78 337.79,-791.06 326,-802 287.36,-837.85 328.97,-879.51 290,-915 275.94,-927.8 255.31,-932.69 237.66,-934.31"/>
<polygon fill="midnightblue" stroke="midnightblue" points="370.68,-786.75 380.18,-782.06 369.82,-779.81 370.68,-786.75"/>
</g>
<!-- Node6 -->
<g id="node6" class="node">
<title>Node6</title>
<g id="a_node6"><a xlink:href="../../d8/ddb/classProject1.html#a41a4716fc32985fae5d32da6434b5516" target="_top" xlink:title="This function runs the project.">
<polygon fill="white" stroke="black" points="163,-570.5 163,-589.5 241,-589.5 241,-570.5 163,-570.5"/>
<text text-anchor="middle" x="202" y="-577.5" font-family="Helvetica,sans-Serif" font-size="10.00">Project1::run</text>
</a>
</g>
</g>
<!-- Node5&#45;&gt;Node6 -->
<g id="edge5" class="edge">
<title>Node5&#45;&gt;Node6</title>
<path fill="none" stroke="midnightblue" d="M400.11,-725.35C382.45,-693.97 342.37,-630.91 290,-599 275.35,-590.07 257.04,-585.31 241.01,-582.79"/>
<polygon fill="midnightblue" stroke="midnightblue" points="397.17,-727.26 405.05,-734.35 403.31,-723.9 397.17,-727.26"/>
</g>
<!-- Node7 -->
<g id="node7" class="node">
<title>Node7</title>
<g id="a_node7"><a xlink:href="../../de/db3/namespaceCompute.html#a0b405b6556f147fd5af6a277cccb5e65" target="_top" xlink:title="Solves a linear system using the Gauss&#45;Seidel method.">
<polygon fill="white" stroke="black" points="125.5,-886.5 125.5,-905.5 278.5,-905.5 278.5,-886.5 125.5,-886.5"/>
<text text-anchor="middle" x="202" y="-893.5" font-family="Helvetica,sans-Serif" font-size="10.00">Compute::usingGaussSeidel</text>
</a>
</g>
</g>
<!-- Node5&#45;&gt;Node7 -->
<g id="edge6" class="edge">
<title>Node5&#45;&gt;Node7</title>
<path fill="none" stroke="midnightblue" d="M331.38,-758.66C329.5,-759.99 327.7,-761.44 326,-763 286.9,-798.97 329.24,-841.17 290,-877 285.89,-880.75 281.22,-883.83 276.22,-886.34"/>
<polygon fill="midnightblue" stroke="midnightblue" points="333.28,-761.61 340.1,-753.5 329.71,-755.58 333.28,-761.61"/>
</g>
<!-- Node8 -->
<g id="node8" class="node">
<title>Node8</title>
<g id="a_node8"><a xlink:href="../../de/db3/namespaceCompute.html#a7349dde18d551b9ad66d05e6f32fc196" target="_top" xlink:title="Solves a linear system using the Jacobi SOR method.">
<polygon fill="white" stroke="black" points="130.5,-848.5 130.5,-867.5 273.5,-867.5 273.5,-848.5 130.5,-848.5"/>
<text text-anchor="middle" x="202" y="-855.5" font-family="Helvetica,sans-Serif" font-size="10.00">Compute::usingJacobiSOR</text>
</a>
</g>
</g>
<!-- Node5&#45;&gt;Node8 -->
<g id="edge7" class="edge">
<title>Node5&#45;&gt;Node8</title>
<path fill="none" stroke="midnightblue" d="M332.61,-758.38C330.31,-759.79 328.09,-761.32 326,-763 296.83,-786.37 319.26,-815.74 290,-839 285.04,-842.94 279.43,-846.11 273.52,-848.65"/>
<polygon fill="midnightblue" stroke="midnightblue" points="334.62,-761.28 341.9,-753.58 331.41,-755.07 334.62,-761.28"/>
</g>
<!-- Node9 -->
<g id="node9" class="node">
<title>Node9</title>
<g id="a_node9"><a xlink:href="../../de/db3/namespaceCompute.html#ab494ff4a6113d5d6ab7b0783b9245942" target="_top" xlink:title="Solves a linear system using LUP decomposition.">
<polygon fill="white" stroke="black" points="146,-810.5 146,-829.5 258,-829.5 258,-810.5 146,-810.5"/>
<text text-anchor="middle" x="202" y="-817.5" font-family="Helvetica,sans-Serif" font-size="10.00">Compute::usingLUP</text>
</a>
</g>
</g>
<!-- Node5&#45;&gt;Node9 -->
<g id="edge8" class="edge">
<title>Node5&#45;&gt;Node9</title>
<path fill="none" stroke="midnightblue" d="M338.33,-757.08C334.05,-758.81 329.91,-760.78 326,-763 305.78,-774.51 310.26,-789.57 290,-801 280.31,-806.47 269.18,-810.37 258.2,-813.14"/>
<polygon fill="midnightblue" stroke="midnightblue" points="339.64,-760.33 347.86,-753.64 337.27,-753.74 339.64,-760.33"/>
</g>
<!-- Node10 -->
<g id="node10" class="node">
<title>Node10</title>
<g id="a_node10"><a xlink:href="../../de/db3/namespaceCompute.html#a0741aa46b479eae78cfad76bdf7cb091" target="_top" xlink:title="Solves a linear system using the Point Jacobi method.">
<polygon fill="white" stroke="black" points="128.5,-772.5 128.5,-791.5 275.5,-791.5 275.5,-772.5 128.5,-772.5"/>
<text text-anchor="middle" x="202" y="-779.5" font-family="Helvetica,sans-Serif" font-size="10.00">Compute::usingPointJacobi</text>
</a>
</g>
</g>
<!-- Node5&#45;&gt;Node10 -->
<g id="edge9" class="edge">
<title>Node5&#45;&gt;Node10</title>
<path fill="none" stroke="midnightblue" d="M348.19,-755.35C318.49,-760.8 283.29,-767.26 254.99,-772.46"/>
<polygon fill="midnightblue" stroke="midnightblue" points="348.83,-758.79 358.03,-753.54 347.56,-751.9 348.83,-758.79"/>
</g>
<!-- Node11 -->
<g id="node11" class="node">
<title>Node11</title>
<g id="a_node11"><a xlink:href="../../de/db3/namespaceCompute.html#a26fcd23146e3ca00ed9eefc59c89c07a" target="_top" xlink:title="Solves a linear system using the Successive Over&#45;Relaxation (SOR) method.">
<polygon fill="white" stroke="black" points="145.5,-734.5 145.5,-753.5 258.5,-753.5 258.5,-734.5 145.5,-734.5"/>
<text text-anchor="middle" x="202" y="-741.5" font-family="Helvetica,sans-Serif" font-size="10.00">Compute::usingSOR</text>
</a>
</g>
</g>
<!-- Node5&#45;&gt;Node11 -->
<g id="edge10" class="edge">
<title>Node5&#45;&gt;Node11</title>
<path fill="none" stroke="midnightblue" d="M327.7,-744C304.49,-744 279.79,-744 258.55,-744"/>
<polygon fill="midnightblue" stroke="midnightblue" points="327.89,-747.5 337.89,-744 327.89,-740.5 327.89,-747.5"/>
</g>
<!-- Node12 -->
<g id="node12" class="node">
<title>Node12</title>
<g id="a_node12"><a xlink:href="../../de/db3/namespaceCompute.html#af9b2fed99d9965f94cb5cfab410419a0" target="_top" xlink:title="Solves a linear system using the Symmetric Gauss&#45;Seidel method.">
<polygon fill="white" stroke="black" points="114,-685 114,-715 290,-715 290,-685 114,-685"/>
<text text-anchor="start" x="122" y="-703" font-family="Helvetica,sans-Serif" font-size="10.00">Compute::usingSymmetricGauss</text>
<text text-anchor="middle" x="202" y="-692" font-family="Helvetica,sans-Serif" font-size="10.00">Seidel</text>
</a>
</g>
</g>
<!-- Node5&#45;&gt;Node12 -->
<g id="edge11" class="edge">
<title>Node5&#45;&gt;Node12</title>
<path fill="none" stroke="midnightblue" d="M355.09,-732.33C330.19,-727.04 300.44,-720.71 273.88,-715.07"/>
<polygon fill="midnightblue" stroke="midnightblue" points="354.57,-735.8 365.08,-734.45 356.03,-728.95 354.57,-735.8"/>
</g>
<!-- Node14 -->
<g id="node14" class="node">
<title>Node14</title>
<g id="a_node14"><a xlink:href="../../de/db3/namespaceCompute.html#a5a35addbdcdba218c82923bdc3ef7d93" target="_top" xlink:title="Solves a linear system using the Symmetric SOR method.">
<polygon fill="white" stroke="black" points="118.5,-646.5 118.5,-665.5 285.5,-665.5 285.5,-646.5 118.5,-646.5"/>
<text text-anchor="middle" x="202" y="-653.5" font-family="Helvetica,sans-Serif" font-size="10.00">Compute::usingSymmetricSOR</text>
</a>
</g>
</g>
<!-- Node5&#45;&gt;Node14 -->
<g id="edge13" class="edge">
<title>Node5&#45;&gt;Node14</title>
<path fill="none" stroke="midnightblue" d="M387.78,-728.79C364.4,-713.42 326.06,-690.02 290,-676 279.17,-671.79 267.21,-668.33 255.73,-665.54"/>
<polygon fill="midnightblue" stroke="midnightblue" points="385.99,-731.8 396.26,-734.44 389.88,-725.98 385.99,-731.8"/>
</g>
<!-- Node15 -->
<g id="node15" class="node">
<title>Node15</title>
<g id="a_node15"><a xlink:href="../../d7/de4/FileParser_8h.html#aae0e89e11fed2832c3179eb9e152f249" target="_top" xlink:title=" ">
<polygon fill="white" stroke="black" points="129,-608.5 129,-627.5 275,-627.5 275,-608.5 129,-608.5"/>
<text text-anchor="middle" x="202" y="-615.5" font-family="Helvetica,sans-Serif" font-size="10.00">writeCSVMatrixNoHeaders</text>
</a>
</g>
</g>
<!-- Node5&#45;&gt;Node15 -->
<g id="edge14" class="edge">
<title>Node5&#45;&gt;Node15</title>
<path fill="none" stroke="midnightblue" d="M395.7,-726.54C374.99,-702.49 334.26,-659.57 290,-637 282.43,-633.14 274.09,-630.06 265.67,-627.6"/>
<polygon fill="midnightblue" stroke="midnightblue" points="393.04,-728.82 402.16,-734.2 398.39,-724.3 393.04,-728.82"/>
</g>
<!-- Node13 -->
<g id="node13" class="node">
<title>Node13</title>
<g id="a_node13"><a xlink:href="../../dd/dfb/classProject3.html#a8bcff99aaba60e7d5e5be3cb7552d163" target="_top" xlink:title="This function runs the project.">
<polygon fill="white" stroke="black" points="0,-611.5 0,-630.5 78,-630.5 78,-611.5 0,-611.5"/>
<text text-anchor="middle" x="39" y="-618.5" font-family="Helvetica,sans-Serif" font-size="10.00">Project3::run</text>
</a>
</g>
</g>
<!-- Node12&#45;&gt;Node13 -->
<g id="edge12" class="edge">
<title>Node12&#45;&gt;Node13</title>
<path fill="none" stroke="midnightblue" d="M129.19,-681.57C123.97,-679.56 118.85,-677.37 114,-675 89.43,-662.98 64.47,-642.73 50.74,-630.74"/>
<polygon fill="midnightblue" stroke="midnightblue" points="128.09,-684.89 138.68,-684.99 130.46,-678.31 128.09,-684.89"/>
</g>
<!-- Node16&#45;&gt;Node6 -->
<g id="edge27" class="edge">
<title>Node16&#45;&gt;Node6</title>
<path fill="none" stroke="midnightblue" d="M406.04,-333.5C395.64,-379.53 363.19,-495.62 290,-556 276.34,-567.27 257.79,-573.26 241.33,-576.45"/>
<polygon fill="midnightblue" stroke="midnightblue" points="409.48,-334.12 408.17,-323.61 402.64,-332.65 409.48,-334.12"/>
</g>
<!-- Node16&#45;&gt;Node13 -->
<g id="edge29" class="edge">
<title>Node16&#45;&gt;Node13</title>
<path fill="none" stroke="midnightblue" d="M404.67,-333.62C392.19,-375.55 356.98,-474.05 290,-523 225.39,-570.22 186.16,-526.41 114,-561 87.45,-573.73 62.05,-597.76 49.03,-611.23"/>
<polygon fill="midnightblue" stroke="midnightblue" points="408.09,-334.38 407.47,-323.81 401.36,-332.46 408.09,-334.38"/>
</g>
<!-- Node17 -->
<g id="node17" class="node">
<title>Node17</title>
<g id="a_node17"><a xlink:href="../../d3/d49/classOutLab7.html#addb9cc7be43ee9f4ccdb41febfb53bc6" target="_top" xlink:title="This function is used to perform operations after the main computation.">
<polygon fill="white" stroke="black" points="150.5,-494.5 150.5,-513.5 253.5,-513.5 253.5,-494.5 150.5,-494.5"/>
<text text-anchor="middle" x="202" y="-501.5" font-family="Helvetica,sans-Serif" font-size="10.00">OutLab7::postRun</text>
</a>
</g>
</g>
<!-- Node16&#45;&gt;Node17 -->
<g id="edge16" class="edge">
<title>Node16&#45;&gt;Node17</title>
<path fill="none" stroke="midnightblue" d="M402.35,-332.95C386.87,-368.77 348.27,-446.24 290,-485 279.32,-492.11 266.41,-496.6 253.86,-499.43"/>
<polygon fill="midnightblue" stroke="midnightblue" points="405.62,-334.22 406.26,-323.64 399.16,-331.51 405.62,-334.22"/>
</g>
<!-- Node18 -->
<g id="node18" class="node">
<title>Node18</title>
<g id="a_node18"><a xlink:href="../../d1/d1f/classInLab3.html#a95bc0719c1cc54ac936e3c7a5b20043d" target="_top" xlink:title="Runs the numerical integration using Composite Newton&#45;Cotes Formulas.">
<polygon fill="white" stroke="black" points="166.5,-456.5 166.5,-475.5 237.5,-475.5 237.5,-456.5 166.5,-456.5"/>
<text text-anchor="middle" x="202" y="-463.5" font-family="Helvetica,sans-Serif" font-size="10.00">InLab3::run</text>
</a>
</g>
</g>
<!-- Node16&#45;&gt;Node18 -->
<g id="edge17" class="edge">
<title>Node16&#45;&gt;Node18</title>
<path fill="none" stroke="midnightblue" d="M398.94,-332.31C380.3,-361.48 339.78,-418.11 290,-447 274.22,-456.16 254.5,-460.91 237.83,-463.37"/>
<polygon fill="midnightblue" stroke="midnightblue" points="402.07,-333.9 404.4,-323.56 396.13,-330.19 402.07,-333.9"/>
</g>
<!-- Node19 -->
<g id="node19" class="node">
<title>Node19</title>
<g id="a_node19"><a xlink:href="../../da/df0/classOutLab3.html#a19a79946e1512bbd5d67fab314399b2b" target="_top" xlink:title="Runs the numerical integration using Composite Newton&#45;Cotes Formulas.">
<polygon fill="white" stroke="black" points="162.5,-418.5 162.5,-437.5 241.5,-437.5 241.5,-418.5 162.5,-418.5"/>
<text text-anchor="middle" x="202" y="-425.5" font-family="Helvetica,sans-Serif" font-size="10.00">OutLab3::run</text>
</a>
</g>
</g>
<!-- Node16&#45;&gt;Node19 -->
<g id="edge18" class="edge">
<title>Node16&#45;&gt;Node19</title>
<path fill="none" stroke="midnightblue" d="M394.02,-330.7C372.47,-352.2 331.92,-389.15 290,-409 275.05,-416.08 257.4,-420.56 241.92,-423.38"/>
<polygon fill="midnightblue" stroke="midnightblue" points="396.55,-333.12 401.07,-323.54 391.56,-328.21 396.55,-333.12"/>
</g>
<!-- Node20 -->
<g id="node20" class="node">
<title>Node20</title>
<g id="a_node20"><a xlink:href="../../d9/d0e/classInLab10.html#a7df4bb99d114e9b892c67f95c5635d68" target="_top" xlink:title="This function is used to perform the main computation.">
<polygon fill="white" stroke="black" points="163.5,-380.5 163.5,-399.5 240.5,-399.5 240.5,-380.5 163.5,-380.5"/>
<text text-anchor="middle" x="202" y="-387.5" font-family="Helvetica,sans-Serif" font-size="10.00">InLab10::run</text>
</a>
</g>
</g>
<!-- Node16&#45;&gt;Node20 -->
<g id="edge19" class="edge">
<title>Node16&#45;&gt;Node20</title>
<path fill="none" stroke="midnightblue" d="M383.95,-328.51C360.12,-341.27 323.57,-359.53 290,-371 274.2,-376.4 256.25,-380.62 240.77,-383.7"/>
<polygon fill="midnightblue" stroke="midnightblue" points="385.91,-331.43 393.03,-323.59 382.57,-325.28 385.91,-331.43"/>
</g>
<!-- Node21 -->
<g id="node21" class="node">
<title>Node21</title>
<g id="a_node21"><a xlink:href="../../d1/d8c/classInLab6.html#a55667f27b7ba522dd4288f18d16c9f8d" target="_top" xlink:title="This function runs the project.">
<polygon fill="white" stroke="black" points="166.5,-342.5 166.5,-361.5 237.5,-361.5 237.5,-342.5 166.5,-342.5"/>
<text text-anchor="middle" x="202" y="-349.5" font-family="Helvetica,sans-Serif" font-size="10.00">InLab6::run</text>
</a>
</g>
</g>
<!-- Node16&#45;&gt;Node21 -->
<g id="edge20" class="edge">
<title>Node16&#45;&gt;Node21</title>
<path fill="none" stroke="midnightblue" d="M367.79,-321.75C329.43,-328.79 273.51,-339.06 237.69,-345.63"/>
<polygon fill="midnightblue" stroke="midnightblue" points="368.91,-325.1 378.11,-319.85 367.64,-318.22 368.91,-325.1"/>
</g>
<!-- Node22 -->
<g id="node22" class="node">
<title>Node22</title>
<g id="a_node22"><a xlink:href="../../d8/deb/classInLab5.html#a627071ee1dc13ffb289e34d45ad63758" target="_top" xlink:title="This function runs the project.">
<polygon fill="white" stroke="black" points="166.5,-304.5 166.5,-323.5 237.5,-323.5 237.5,-304.5 166.5,-304.5"/>
<text text-anchor="middle" x="202" y="-311.5" font-family="Helvetica,sans-Serif" font-size="10.00">InLab5::run</text>
</a>
</g>
</g>
<!-- Node16&#45;&gt;Node22 -->
<g id="edge21" class="edge">
<title>Node16&#45;&gt;Node22</title>
<path fill="none" stroke="midnightblue" d="M367.79,-314C329.43,-314 273.51,-314 237.69,-314"/>
<polygon fill="midnightblue" stroke="midnightblue" points="368.11,-317.5 378.11,-314 368.11,-310.5 368.11,-317.5"/>
</g>
<!-- Node23 -->
<g id="node23" class="node">
<title>Node23</title>
<g id="a_node23"><a xlink:href="../../d8/d5b/classOutLab4.html#af3d8d1b60ac7a85a1aabf6a3d511ecce" target="_top" xlink:title="This function runs the project.">
<polygon fill="white" stroke="black" points="162.5,-266.5 162.5,-285.5 241.5,-285.5 241.5,-266.5 162.5,-266.5"/>
<text text-anchor="middle" x="202" y="-273.5" font-family="Helvetica,sans-Serif" font-size="10.00">OutLab4::run</text>
</a>
</g>
</g>
<!-- Node16&#45;&gt;Node23 -->
<g id="edge22" class="edge">
<title>Node16&#45;&gt;Node23</title>
<path fill="none" stroke="midnightblue" d="M368.14,-306.32C331.15,-299.52 277.62,-289.7 241.63,-283.09"/>
<polygon fill="midnightblue" stroke="midnightblue" points="367.64,-309.78 378.11,-308.15 368.91,-302.9 367.64,-309.78"/>
</g>
<!-- Node24 -->
<g id="node24" class="node">
<title>Node24</title>
<g id="a_node24"><a xlink:href="../../d7/d1f/classOutLab10.html#a7b70a96347bc6131b594841c796a0329" target="_top" xlink:title="This function is used to perform the main computation.">
<polygon fill="white" stroke="black" points="159.5,-228.5 159.5,-247.5 244.5,-247.5 244.5,-228.5 159.5,-228.5"/>
<text text-anchor="middle" x="202" y="-235.5" font-family="Helvetica,sans-Serif" font-size="10.00">OutLab10::run</text>
</a>
</g>
</g>
<!-- Node16&#45;&gt;Node24 -->
<g id="edge23" class="edge">
<title>Node16&#45;&gt;Node24</title>
<path fill="none" stroke="midnightblue" d="M383.95,-299.49C360.12,-286.73 323.57,-268.47 290,-257 275.52,-252.05 259.22,-248.09 244.69,-245.09"/>
<polygon fill="midnightblue" stroke="midnightblue" points="382.57,-302.72 393.03,-304.41 385.91,-296.57 382.57,-302.72"/>
</g>
<!-- Node25 -->
<g id="node25" class="node">
<title>Node25</title>
<g id="a_node25"><a xlink:href="../../d0/d4c/classOutLab6.html#a901a1283fd029c9174f8469ac5cb3ad8" target="_top" xlink:title="This function runs the computation.">
<polygon fill="white" stroke="black" points="162.5,-190.5 162.5,-209.5 241.5,-209.5 241.5,-190.5 162.5,-190.5"/>
<text text-anchor="middle" x="202" y="-197.5" font-family="Helvetica,sans-Serif" font-size="10.00">OutLab6::run</text>
</a>
</g>
</g>
<!-- Node16&#45;&gt;Node25 -->
<g id="edge24" class="edge">
<title>Node16&#45;&gt;Node25</title>
<path fill="none" stroke="midnightblue" d="M394.02,-297.3C372.47,-275.8 331.92,-238.85 290,-219 275.05,-211.92 257.4,-207.44 241.92,-204.62"/>
<polygon fill="midnightblue" stroke="midnightblue" points="391.56,-299.79 401.07,-304.46 396.55,-294.88 391.56,-299.79"/>
</g>
<!-- Node26 -->
<g id="node26" class="node">
<title>Node26</title>
<g id="a_node26"><a xlink:href="../../dc/d9f/classInLab4.html#a4177d98b14bfef260d100923e8245f24" target="_top" xlink:title="This function runs the project.">
<polygon fill="white" stroke="black" points="166.5,-152.5 166.5,-171.5 237.5,-171.5 237.5,-152.5 166.5,-152.5"/>
<text text-anchor="middle" x="202" y="-159.5" font-family="Helvetica,sans-Serif" font-size="10.00">InLab4::run</text>
</a>
</g>
</g>
<!-- Node16&#45;&gt;Node26 -->
<g id="edge25" class="edge">
<title>Node16&#45;&gt;Node26</title>
<path fill="none" stroke="midnightblue" d="M398.94,-295.69C380.3,-266.52 339.78,-209.89 290,-181 274.22,-171.84 254.5,-167.09 237.83,-164.63"/>
<polygon fill="midnightblue" stroke="midnightblue" points="396.13,-297.81 404.4,-304.44 402.07,-294.1 396.13,-297.81"/>
</g>
<!-- Node27 -->
<g id="node27" class="node">
<title>Node27</title>
<g id="a_node27"><a xlink:href="../../d3/d1d/classOutLab5.html#aa1d5363426e0ce8f620d47c1b2aa2260" target="_top" xlink:title="This function runs the project.">
<polygon fill="white" stroke="black" points="162.5,-114.5 162.5,-133.5 241.5,-133.5 241.5,-114.5 162.5,-114.5"/>
<text text-anchor="middle" x="202" y="-121.5" font-family="Helvetica,sans-Serif" font-size="10.00">OutLab5::run</text>
</a>
</g>
</g>
<!-- Node16&#45;&gt;Node27 -->
<g id="edge26" class="edge">
<title>Node16&#45;&gt;Node27</title>
<path fill="none" stroke="midnightblue" d="M402.35,-295.05C386.87,-259.23 348.27,-181.76 290,-143 275.84,-133.58 257.79,-128.75 241.8,-126.3"/>
<polygon fill="midnightblue" stroke="midnightblue" points="399.16,-296.49 406.26,-304.36 405.62,-293.78 399.16,-296.49"/>
</g>
<!-- Node28 -->
<g id="node28" class="node">
<title>Node28</title>
<g id="a_node28"><a xlink:href="../../dd/db5/classProject2.html#a0990db917f6a27a4e1cb9ac885698524" target="_top" xlink:title="This function runs the project.">
<polygon fill="white" stroke="black" points="163,-76.5 163,-95.5 241,-95.5 241,-76.5 163,-76.5"/>
<text text-anchor="middle" x="202" y="-83.5" font-family="Helvetica,sans-Serif" font-size="10.00">Project2::run</text>
</a>
</g>
</g>
<!-- Node16&#45;&gt;Node28 -->
<g id="edge28" class="edge">
<title>Node16&#45;&gt;Node28</title>
<path fill="none" stroke="midnightblue" d="M404.66,-294.4C392.17,-252.49 356.92,-154.03 290,-105 276.03,-94.77 257.63,-89.85 241.36,-87.56"/>
<polygon fill="midnightblue" stroke="midnightblue" points="401.35,-295.55 407.47,-304.2 408.08,-293.62 401.35,-295.55"/>
</g>
<!-- Node29 -->
<g id="node29" class="node">
<title>Node29</title>
<g id="a_node29"><a xlink:href="../../d2/dfd/classProject4.html#a3779e87d22c7d4949f3c01bae1d08ab9" target="_top" xlink:title="This function runs the project.">
<polygon fill="white" stroke="black" points="163,-38.5 163,-57.5 241,-57.5 241,-38.5 163,-38.5"/>
<text text-anchor="middle" x="202" y="-45.5" font-family="Helvetica,sans-Serif" font-size="10.00">Project4::run</text>
</a>
</g>
</g>
<!-- Node16&#45;&gt;Node29 -->
<g id="edge30" class="edge">
<title>Node16&#45;&gt;Node29</title>
<path fill="none" stroke="midnightblue" d="M406.51,-294.46C397.01,-247.34 366.13,-126.92 290,-67 276.27,-56.2 257.71,-51.23 241.26,-49.05"/>
<polygon fill="midnightblue" stroke="midnightblue" points="403.08,-295.15 408.39,-304.32 409.95,-293.84 403.08,-295.15"/>
</g>
<!-- Node30 -->
<g id="node30" class="node">
<title>Node30</title>
<g id="a_node30"><a xlink:href="../../d5/dd8/classProject5.html#ad0d283fb148505600a22fbfef054c177" target="_top" xlink:title="This function runs the project.">
<polygon fill="white" stroke="black" points="163,-0.5 163,-19.5 241,-19.5 241,-0.5 163,-0.5"/>
<text text-anchor="middle" x="202" y="-7.5" font-family="Helvetica,sans-Serif" font-size="10.00">Project5::run</text>
</a>
</g>
</g>
<!-- Node16&#45;&gt;Node30 -->
<g id="edge31" class="edge">
<title>Node16&#45;&gt;Node30</title>
<path fill="none" stroke="midnightblue" d="M407.87,-294.35C401.13,-242.3 375.38,-99.99 290,-29 276.45,-17.73 257.71,-12.73 241.1,-10.65"/>
<polygon fill="midnightblue" stroke="midnightblue" points="404.39,-294.77 409.06,-304.29 411.34,-293.94 404.39,-294.77"/>
</g>
</g>
</svg>
