<?xml version="1.0" encoding="UTF-8" standalone="no"?>
<!DOCTYPE svg PUBLIC "-//W3C//DTD SVG 1.1//EN"
 "http://www.w3.org/Graphics/SVG/1.1/DTD/svg11.dtd">
<!-- Generated by graphviz version 2.43.0 (0)
 -->
<!-- Title: readJSON Pages: 1 -->
<svg width="276pt" height="78pt"
 viewBox="0.00 0.00 276.00 77.50" xmlns="http://www.w3.org/2000/svg" xmlns:xlink="http://www.w3.org/1999/xlink">
<g id="graph0" class="graph" transform="scale(1 1) rotate(0) translate(4 73.5)">
<title>readJSON</title>
<polygon fill="white" stroke="transparent" points="-4,4 -4,-73.5 272,-73.5 272,4 -4,4"/>
<!-- Node1 -->
<g id="node1" class="node">
<title>Node1</title>
<g id="a_node1"><a xlink:title="Reads a JSON file and stores the data in a JSON object.">
<polygon fill="#bfbfbf" stroke="black" points="206,-28 206,-47 268,-47 268,-28 206,-28"/>
<text text-anchor="middle" x="237" y="-35" font-family="Helvetica,sans-Serif" font-size="10.00">readJSON</text>
</a>
</g>
</g>
<!-- Node2 -->
<g id="node2" class="node">
<title>Node2</title>
<g id="a_node2"><a xlink:href="../../d0/d40/classParser.html#a24317bfb5366fd221769b389077f5d0e" target="_top" xlink:title="Builds the inputs.">
<polygon fill="white" stroke="black" points="31.5,-50 31.5,-69 138.5,-69 138.5,-50 31.5,-50"/>
<text text-anchor="middle" x="85" y="-57" font-family="Helvetica,sans-Serif" font-size="10.00">Parser::buildInputs</text>
</a>
</g>
</g>
<!-- Node1&#45;&gt;Node2 -->
<g id="edge1" class="edge">
<title>Node1&#45;&gt;Node2</title>
<path fill="none" stroke="midnightblue" d="M195.26,-43.48C177.86,-46.03 157.32,-49.04 138.78,-51.76"/>
<polygon fill="midnightblue" stroke="midnightblue" points="196.26,-46.87 205.65,-41.95 195.24,-39.94 196.26,-46.87"/>
</g>
<!-- Node3 -->
<g id="node3" class="node">
<title>Node3</title>
<g id="a_node3"><a xlink:href="../../d0/d40/classParser.html#a3369e669d9e28c85a3397e7bc95d2518" target="_top" xlink:title="This function performs checks on the input parameters and prompts the user to enter valid inputs if t...">
<polygon fill="white" stroke="black" points="0,-0.5 0,-30.5 170,-30.5 170,-0.5 0,-0.5"/>
<text text-anchor="start" x="8" y="-18.5" font-family="Helvetica,sans-Serif" font-size="10.00">Parser::performInputArguments</text>
<text text-anchor="middle" x="85" y="-7.5" font-family="Helvetica,sans-Serif" font-size="10.00">Check</text>
</a>
</g>
</g>
<!-- Node1&#45;&gt;Node3 -->
<g id="edge2" class="edge">
<title>Node1&#45;&gt;Node3</title>
<path fill="none" stroke="midnightblue" d="M195.55,-31.57C187.54,-30.39 178.86,-29.12 170.01,-27.82"/>
<polygon fill="midnightblue" stroke="midnightblue" points="195.24,-35.06 205.65,-33.05 196.26,-28.13 195.24,-35.06"/>
</g>
</g>
</svg>
