<?xml version="1.0" encoding="UTF-8" standalone="no"?>
<!DOCTYPE svg PUBLIC "-//W3C//DTD SVG 1.1//EN"
 "http://www.w3.org/Graphics/SVG/1.1/DTD/svg11.dtd">
<!-- Generated by graphviz version 2.43.0 (0)
 -->
<!-- Title: writeJSON Pages: 1 -->
<svg width="212pt" height="636pt"
 viewBox="0.00 0.00 212.00 636.00" xmlns="http://www.w3.org/2000/svg" xmlns:xlink="http://www.w3.org/1999/xlink">
<g id="graph0" class="graph" transform="scale(1 1) rotate(0) translate(4 632)">
<title>writeJSON</title>
<polygon fill="white" stroke="transparent" points="-4,4 -4,-632 208,-632 208,4 -4,4"/>
<!-- Node1 -->
<g id="node1" class="node">
<title>Node1</title>
<g id="a_node1"><a xlink:title="Writes the given JSON data to a file at the specified file path.">
<polygon fill="#bfbfbf" stroke="black" points="139,-304.5 139,-323.5 204,-323.5 204,-304.5 139,-304.5"/>
<text text-anchor="middle" x="171.5" y="-311.5" font-family="Helvetica,sans-Serif" font-size="10.00">writeJSON</text>
</a>
</g>
</g>
<!-- Node2 -->
<g id="node2" class="node">
<title>Node2</title>
<g id="a_node2"><a xlink:href="../../d3/d49/classOutLab7.html#addb9cc7be43ee9f4ccdb41febfb53bc6" target="_top" xlink:title="This function is used to perform operations after the main computation.">
<polygon fill="white" stroke="black" points="0,-608.5 0,-627.5 103,-627.5 103,-608.5 0,-608.5"/>
<text text-anchor="middle" x="51.5" y="-615.5" font-family="Helvetica,sans-Serif" font-size="10.00">OutLab7::postRun</text>
</a>
</g>
</g>
<!-- Node1&#45;&gt;Node2 -->
<g id="edge1" class="edge">
<title>Node1&#45;&gt;Node2</title>
<path fill="none" stroke="midnightblue" d="M168.26,-333.64C161.3,-391.33 138.43,-558.74 103,-599 99.6,-602.87 95.32,-605.95 90.71,-608.41"/>
<polygon fill="midnightblue" stroke="midnightblue" points="171.74,-333.98 169.43,-323.64 164.79,-333.16 171.74,-333.98"/>
</g>
<!-- Node3 -->
<g id="node3" class="node">
<title>Node3</title>
<g id="a_node3"><a xlink:href="../../d1/d1f/classInLab3.html#a95bc0719c1cc54ac936e3c7a5b20043d" target="_top" xlink:title="Runs the numerical integration using Composite Newton&#45;Cotes Formulas.">
<polygon fill="white" stroke="black" points="16,-570.5 16,-589.5 87,-589.5 87,-570.5 16,-570.5"/>
<text text-anchor="middle" x="51.5" y="-577.5" font-family="Helvetica,sans-Serif" font-size="10.00">InLab3::run</text>
</a>
</g>
</g>
<!-- Node1&#45;&gt;Node3 -->
<g id="edge2" class="edge">
<title>Node1&#45;&gt;Node3</title>
<path fill="none" stroke="midnightblue" d="M170.82,-334.18C170.47,-380.39 163.16,-494.96 103,-561 98.65,-565.78 92.97,-569.36 87,-572.05"/>
<polygon fill="midnightblue" stroke="midnightblue" points="174.32,-333.97 170.79,-323.98 167.32,-333.99 174.32,-333.97"/>
</g>
<!-- Node4 -->
<g id="node4" class="node">
<title>Node4</title>
<g id="a_node4"><a xlink:href="../../da/df0/classOutLab3.html#a19a79946e1512bbd5d67fab314399b2b" target="_top" xlink:title="Runs the numerical integration using Composite Newton&#45;Cotes Formulas.">
<polygon fill="white" stroke="black" points="12,-532.5 12,-551.5 91,-551.5 91,-532.5 12,-532.5"/>
<text text-anchor="middle" x="51.5" y="-539.5" font-family="Helvetica,sans-Serif" font-size="10.00">OutLab3::run</text>
</a>
</g>
</g>
<!-- Node1&#45;&gt;Node4 -->
<g id="edge3" class="edge">
<title>Node1&#45;&gt;Node4</title>
<path fill="none" stroke="midnightblue" d="M169.64,-333.82C166.81,-374.63 154.71,-468.77 103,-523 99.32,-526.86 94.77,-529.95 89.92,-532.41"/>
<polygon fill="midnightblue" stroke="midnightblue" points="173.13,-333.98 170.21,-323.8 166.14,-333.58 173.13,-333.98"/>
</g>
<!-- Node5 -->
<g id="node5" class="node">
<title>Node5</title>
<g id="a_node5"><a xlink:href="../../d9/d0e/classInLab10.html#a7df4bb99d114e9b892c67f95c5635d68" target="_top" xlink:title="This function is used to perform the main computation.">
<polygon fill="white" stroke="black" points="13,-494.5 13,-513.5 90,-513.5 90,-494.5 13,-494.5"/>
<text text-anchor="middle" x="51.5" y="-501.5" font-family="Helvetica,sans-Serif" font-size="10.00">InLab10::run</text>
</a>
</g>
</g>
<!-- Node1&#45;&gt;Node5 -->
<g id="edge4" class="edge">
<title>Node1&#45;&gt;Node5</title>
<path fill="none" stroke="midnightblue" d="M168.01,-333.54C162.54,-368.57 146.31,-442.38 103,-485 99.06,-488.88 94.25,-491.98 89.19,-494.45"/>
<polygon fill="midnightblue" stroke="midnightblue" points="171.47,-334.01 169.43,-323.62 164.55,-333.02 171.47,-334.01"/>
</g>
<!-- Node6 -->
<g id="node6" class="node">
<title>Node6</title>
<g id="a_node6"><a xlink:href="../../d9/d24/classInLab11.html#a30776f8ccefd65f2a3c76c129927cca1" target="_top" xlink:title="This function is used to perform the main computation.">
<polygon fill="white" stroke="black" points="13,-456.5 13,-475.5 90,-475.5 90,-456.5 13,-456.5"/>
<text text-anchor="middle" x="51.5" y="-463.5" font-family="Helvetica,sans-Serif" font-size="10.00">InLab11::run</text>
</a>
</g>
</g>
<!-- Node1&#45;&gt;Node6 -->
<g id="edge5" class="edge">
<title>Node1&#45;&gt;Node6</title>
<path fill="none" stroke="midnightblue" d="M165.5,-333.52C157.19,-362.2 137.9,-415.73 103,-447 98.67,-450.88 93.48,-453.99 88.1,-456.48"/>
<polygon fill="midnightblue" stroke="midnightblue" points="168.97,-334.08 168.24,-323.52 162.22,-332.24 168.97,-334.08"/>
</g>
<!-- Node7 -->
<g id="node7" class="node">
<title>Node7</title>
<g id="a_node7"><a xlink:href="../../d1/d8c/classInLab6.html#a55667f27b7ba522dd4288f18d16c9f8d" target="_top" xlink:title="This function runs the project.">
<polygon fill="white" stroke="black" points="16,-418.5 16,-437.5 87,-437.5 87,-418.5 16,-418.5"/>
<text text-anchor="middle" x="51.5" y="-425.5" font-family="Helvetica,sans-Serif" font-size="10.00">InLab6::run</text>
</a>
</g>
</g>
<!-- Node1&#45;&gt;Node7 -->
<g id="edge6" class="edge">
<title>Node1&#45;&gt;Node7</title>
<path fill="none" stroke="midnightblue" d="M161.67,-332.48C150.67,-353.69 129.98,-388.21 103,-409 98.03,-412.83 92.2,-415.96 86.3,-418.49"/>
<polygon fill="midnightblue" stroke="midnightblue" points="164.81,-334.02 166.15,-323.51 158.55,-330.89 164.81,-334.02"/>
</g>
<!-- Node8 -->
<g id="node8" class="node">
<title>Node8</title>
<g id="a_node8"><a xlink:href="../../d8/deb/classInLab5.html#a627071ee1dc13ffb289e34d45ad63758" target="_top" xlink:title="This function runs the project.">
<polygon fill="white" stroke="black" points="16,-380.5 16,-399.5 87,-399.5 87,-380.5 16,-380.5"/>
<text text-anchor="middle" x="51.5" y="-387.5" font-family="Helvetica,sans-Serif" font-size="10.00">InLab5::run</text>
</a>
</g>
</g>
<!-- Node1&#45;&gt;Node8 -->
<g id="edge7" class="edge">
<title>Node1&#45;&gt;Node8</title>
<path fill="none" stroke="midnightblue" d="M154.01,-330.74C141.05,-343.16 122.06,-359.82 103,-371 96.78,-374.65 89.73,-377.82 82.92,-380.48"/>
<polygon fill="midnightblue" stroke="midnightblue" points="156.56,-333.14 161.25,-323.64 151.66,-328.15 156.56,-333.14"/>
</g>
<!-- Node9 -->
<g id="node9" class="node">
<title>Node9</title>
<g id="a_node9"><a xlink:href="../../d8/d5b/classOutLab4.html#af3d8d1b60ac7a85a1aabf6a3d511ecce" target="_top" xlink:title="This function runs the project.">
<polygon fill="white" stroke="black" points="12,-342.5 12,-361.5 91,-361.5 91,-342.5 12,-342.5"/>
<text text-anchor="middle" x="51.5" y="-349.5" font-family="Helvetica,sans-Serif" font-size="10.00">OutLab4::run</text>
</a>
</g>
</g>
<!-- Node1&#45;&gt;Node9 -->
<g id="edge8" class="edge">
<title>Node1&#45;&gt;Node9</title>
<path fill="none" stroke="midnightblue" d="M131.12,-326.68C115.18,-331.81 97.08,-337.64 82.27,-342.41"/>
<polygon fill="midnightblue" stroke="midnightblue" points="132.28,-329.99 140.72,-323.59 130.13,-323.32 132.28,-329.99"/>
</g>
<!-- Node10 -->
<g id="node10" class="node">
<title>Node10</title>
<g id="a_node10"><a xlink:href="../../d7/d1f/classOutLab10.html#a7b70a96347bc6131b594841c796a0329" target="_top" xlink:title="This function is used to perform the main computation.">
<polygon fill="white" stroke="black" points="9,-304.5 9,-323.5 94,-323.5 94,-304.5 9,-304.5"/>
<text text-anchor="middle" x="51.5" y="-311.5" font-family="Helvetica,sans-Serif" font-size="10.00">OutLab10::run</text>
</a>
</g>
</g>
<!-- Node1&#45;&gt;Node10 -->
<g id="edge9" class="edge">
<title>Node1&#45;&gt;Node10</title>
<path fill="none" stroke="midnightblue" d="M128.57,-314C117.48,-314 105.51,-314 94.42,-314"/>
<polygon fill="midnightblue" stroke="midnightblue" points="128.88,-317.5 138.88,-314 128.88,-310.5 128.88,-317.5"/>
</g>
<!-- Node11 -->
<g id="node11" class="node">
<title>Node11</title>
<g id="a_node11"><a xlink:href="../../d0/d4c/classOutLab6.html#a901a1283fd029c9174f8469ac5cb3ad8" target="_top" xlink:title="This function runs the computation.">
<polygon fill="white" stroke="black" points="12,-266.5 12,-285.5 91,-285.5 91,-266.5 12,-266.5"/>
<text text-anchor="middle" x="51.5" y="-273.5" font-family="Helvetica,sans-Serif" font-size="10.00">OutLab6::run</text>
</a>
</g>
</g>
<!-- Node1&#45;&gt;Node11 -->
<g id="edge10" class="edge">
<title>Node1&#45;&gt;Node11</title>
<path fill="none" stroke="midnightblue" d="M131.12,-301.32C115.18,-296.19 97.08,-290.36 82.27,-285.59"/>
<polygon fill="midnightblue" stroke="midnightblue" points="130.13,-304.68 140.72,-304.41 132.28,-298.01 130.13,-304.68"/>
</g>
<!-- Node12 -->
<g id="node12" class="node">
<title>Node12</title>
<g id="a_node12"><a xlink:href="../../dc/d9f/classInLab4.html#a4177d98b14bfef260d100923e8245f24" target="_top" xlink:title="This function runs the project.">
<polygon fill="white" stroke="black" points="16,-228.5 16,-247.5 87,-247.5 87,-228.5 16,-228.5"/>
<text text-anchor="middle" x="51.5" y="-235.5" font-family="Helvetica,sans-Serif" font-size="10.00">InLab4::run</text>
</a>
</g>
</g>
<!-- Node1&#45;&gt;Node12 -->
<g id="edge11" class="edge">
<title>Node1&#45;&gt;Node12</title>
<path fill="none" stroke="midnightblue" d="M154.01,-297.26C141.05,-284.84 122.06,-268.18 103,-257 96.78,-253.35 89.73,-250.18 82.92,-247.52"/>
<polygon fill="midnightblue" stroke="midnightblue" points="151.66,-299.85 161.25,-304.36 156.56,-294.86 151.66,-299.85"/>
</g>
<!-- Node13 -->
<g id="node13" class="node">
<title>Node13</title>
<g id="a_node13"><a xlink:href="../../d3/d1d/classOutLab5.html#aa1d5363426e0ce8f620d47c1b2aa2260" target="_top" xlink:title="This function runs the project.">
<polygon fill="white" stroke="black" points="12,-190.5 12,-209.5 91,-209.5 91,-190.5 12,-190.5"/>
<text text-anchor="middle" x="51.5" y="-197.5" font-family="Helvetica,sans-Serif" font-size="10.00">OutLab5::run</text>
</a>
</g>
</g>
<!-- Node1&#45;&gt;Node13 -->
<g id="edge12" class="edge">
<title>Node1&#45;&gt;Node13</title>
<path fill="none" stroke="midnightblue" d="M161.67,-295.52C150.67,-274.31 129.98,-239.79 103,-219 98.03,-215.17 92.2,-212.04 86.3,-209.51"/>
<polygon fill="midnightblue" stroke="midnightblue" points="158.55,-297.11 166.15,-304.49 164.81,-293.98 158.55,-297.11"/>
</g>
<!-- Node14 -->
<g id="node14" class="node">
<title>Node14</title>
<g id="a_node14"><a xlink:href="../../d8/ddb/classProject1.html#a41a4716fc32985fae5d32da6434b5516" target="_top" xlink:title="This function runs the project.">
<polygon fill="white" stroke="black" points="12.5,-152.5 12.5,-171.5 90.5,-171.5 90.5,-152.5 12.5,-152.5"/>
<text text-anchor="middle" x="51.5" y="-159.5" font-family="Helvetica,sans-Serif" font-size="10.00">Project1::run</text>
</a>
</g>
</g>
<!-- Node1&#45;&gt;Node14 -->
<g id="edge13" class="edge">
<title>Node1&#45;&gt;Node14</title>
<path fill="none" stroke="midnightblue" d="M165.5,-294.48C157.19,-265.8 137.9,-212.27 103,-181 98.67,-177.12 93.48,-174.01 88.1,-171.52"/>
<polygon fill="midnightblue" stroke="midnightblue" points="162.22,-295.76 168.24,-304.48 168.97,-293.92 162.22,-295.76"/>
</g>
<!-- Node15 -->
<g id="node15" class="node">
<title>Node15</title>
<g id="a_node15"><a xlink:href="../../dd/db5/classProject2.html#a0990db917f6a27a4e1cb9ac885698524" target="_top" xlink:title="This function runs the project.">
<polygon fill="white" stroke="black" points="12.5,-114.5 12.5,-133.5 90.5,-133.5 90.5,-114.5 12.5,-114.5"/>
<text text-anchor="middle" x="51.5" y="-121.5" font-family="Helvetica,sans-Serif" font-size="10.00">Project2::run</text>
</a>
</g>
</g>
<!-- Node1&#45;&gt;Node15 -->
<g id="edge14" class="edge">
<title>Node1&#45;&gt;Node15</title>
<path fill="none" stroke="midnightblue" d="M168.01,-294.46C162.54,-259.43 146.31,-185.62 103,-143 99.06,-139.12 94.25,-136.02 89.19,-133.55"/>
<polygon fill="midnightblue" stroke="midnightblue" points="164.55,-294.98 169.43,-304.38 171.47,-293.99 164.55,-294.98"/>
</g>
<!-- Node16 -->
<g id="node16" class="node">
<title>Node16</title>
<g id="a_node16"><a xlink:href="../../dd/dfb/classProject3.html#a8bcff99aaba60e7d5e5be3cb7552d163" target="_top" xlink:title="This function runs the project.">
<polygon fill="white" stroke="black" points="12.5,-76.5 12.5,-95.5 90.5,-95.5 90.5,-76.5 12.5,-76.5"/>
<text text-anchor="middle" x="51.5" y="-83.5" font-family="Helvetica,sans-Serif" font-size="10.00">Project3::run</text>
</a>
</g>
</g>
<!-- Node1&#45;&gt;Node16 -->
<g id="edge15" class="edge">
<title>Node1&#45;&gt;Node16</title>
<path fill="none" stroke="midnightblue" d="M169.64,-294.18C166.81,-253.37 154.71,-159.23 103,-105 99.32,-101.14 94.77,-98.05 89.92,-95.59"/>
<polygon fill="midnightblue" stroke="midnightblue" points="166.14,-294.42 170.21,-304.2 173.13,-294.02 166.14,-294.42"/>
</g>
<!-- Node17 -->
<g id="node17" class="node">
<title>Node17</title>
<g id="a_node17"><a xlink:href="../../d2/dfd/classProject4.html#a3779e87d22c7d4949f3c01bae1d08ab9" target="_top" xlink:title="This function runs the project.">
<polygon fill="white" stroke="black" points="12.5,-38.5 12.5,-57.5 90.5,-57.5 90.5,-38.5 12.5,-38.5"/>
<text text-anchor="middle" x="51.5" y="-45.5" font-family="Helvetica,sans-Serif" font-size="10.00">Project4::run</text>
</a>
</g>
</g>
<!-- Node1&#45;&gt;Node17 -->
<g id="edge16" class="edge">
<title>Node1&#45;&gt;Node17</title>
<path fill="none" stroke="midnightblue" d="M170.82,-293.82C170.47,-247.61 163.16,-133.04 103,-67 99.47,-63.12 95.06,-60.03 90.34,-57.57"/>
<polygon fill="midnightblue" stroke="midnightblue" points="167.32,-294.01 170.79,-304.02 174.32,-294.03 167.32,-294.01"/>
</g>
<!-- Node18 -->
<g id="node18" class="node">
<title>Node18</title>
<g id="a_node18"><a xlink:href="../../d5/dd8/classProject5.html#ad0d283fb148505600a22fbfef054c177" target="_top" xlink:title="This function runs the project.">
<polygon fill="white" stroke="black" points="12.5,-0.5 12.5,-19.5 90.5,-19.5 90.5,-0.5 12.5,-0.5"/>
<text text-anchor="middle" x="51.5" y="-7.5" font-family="Helvetica,sans-Serif" font-size="10.00">Project5::run</text>
</a>
</g>
</g>
<!-- Node1&#45;&gt;Node18 -->
<g id="edge17" class="edge">
<title>Node1&#45;&gt;Node18</title>
<path fill="none" stroke="midnightblue" d="M168.26,-294.36C161.3,-236.67 138.43,-69.26 103,-29 99.6,-25.13 95.32,-22.05 90.71,-19.59"/>
<polygon fill="midnightblue" stroke="midnightblue" points="164.79,-294.84 169.43,-304.36 171.74,-294.02 164.79,-294.84"/>
</g>
</g>
</svg>
