<?xml version="1.0" encoding="UTF-8" standalone="no"?>
<!DOCTYPE svg PUBLIC "-//W3C//DTD SVG 1.1//EN"
 "http://www.w3.org/Graphics/SVG/1.1/DTD/svg11.dtd">
<!-- Generated by graphviz version 2.43.0 (0)
 -->
<!-- Title: src/labs/outlab4/main.cpp Pages: 1 -->
<!--zoomable 364 -->
<svg id="main" version="1.1" xmlns="http://www.w3.org/2000/svg" xmlns:xlink="http://www.w3.org/1999/xlink" xml:space="preserve" onload="init(evt)">
<style type="text/css"><![CDATA[
.edge:hover path { stroke: red; }
.edge:hover polygon { stroke: red; fill: red; }
]]></style>
<script type="text/javascript"><![CDATA[
var edges = document.getElementsByTagName('g');
if (edges && edges.length) {
  for (var i=0;i<edges.length;i++) {
    if (edges[i].id.substr(0,4)=='edge') {
      edges[i].setAttribute('class','edge');
    }
  }
}
]]></script>
        <defs>
                <circle id="rim" cx="0" cy="0" r="7"/>
                <circle id="rim2" cx="0" cy="0" r="3.5"/>
                <g id="zoomPlus">
                        <use xlink:href="#rim" fill="#404040">
                                <set attributeName="fill" to="#808080" begin="zoomplus.mouseover" end="zoomplus.mouseout"/>
                        </use>
                        <path d="M-4,0h8M0,-4v8" fill="none" stroke="white" stroke-width="1.5" pointer-events="none"/>
                </g>
                <g id="zoomMin">
                        <use xlink:href="#rim" fill="#404040">
                                <set attributeName="fill" to="#808080" begin="zoomminus.mouseover" end="zoomminus.mouseout"/>
                        </use>
                        <path d="M-4,0h8" fill="none" stroke="white" stroke-width="1.5" pointer-events="none"/>
                </g>
                <g id="dirArrow">
                        <path fill="none" stroke="white" stroke-width="1.5" d="M0,-3.0v7 M-2.5,-0.5L0,-3.0L2.5,-0.5"/>
                </g>
               <g id="resetDef">
                       <use xlink:href="#rim2" fill="#404040">
                               <set attributeName="fill" to="#808080" begin="reset.mouseover" end="reset.mouseout"/>
                       </use>
               </g>
        </defs>

<script type="text/javascript">
var viewWidth = 1941;
var viewHeight = 364;
var sectionId = 'dynsection-0';
</script>
<script xlink:href="../../svgpan.js"/>
<svg id="graph" class="graph">
<g id="viewport">
<title>src/labs/outlab4/main.cpp</title>
<polygon fill="white" stroke="transparent" points="-4,4 -4,-360 1937.33,-360 1937.33,4 -4,4"/>
<!-- Node1 -->
<g id="node1" class="node">
<title>Node1</title>
<g id="a_node1"><a xlink:title=" ">
<polygon fill="#bfbfbf" stroke="black" points="325.33,-336.5 325.33,-355.5 467.33,-355.5 467.33,-336.5 325.33,-336.5"/>
<text text-anchor="middle" x="396.33" y="-343.5" font-family="Helvetica,sans-Serif" font-size="10.00">src/labs/outlab4/main.cpp</text>
</a>
</g>
</g>
<!-- Node2 -->
<g id="node2" class="node">
<title>Node2</title>
<g id="a_node2"><a xlink:href="../../d9/d41/CommandLine_8h.html" target="_top" xlink:title="This file contains the definition of the CommandLine class and the HeaderInfo struct.">
<polygon fill="white" stroke="black" points="242.33,-168.5 242.33,-187.5 338.33,-187.5 338.33,-168.5 242.33,-168.5"/>
<text text-anchor="middle" x="290.33" y="-175.5" font-family="Helvetica,sans-Serif" font-size="10.00">CommandLine.h</text>
</a>
</g>
</g>
<!-- Node1&#45;&gt;Node2 -->
<g id="edge1" class="edge">
<title>Node1&#45;&gt;Node2</title>
<path fill="none" stroke="midnightblue" d="M356.69,-336.45C311.68,-324.39 240.37,-297.58 208.33,-244 194.37,-220.64 224.84,-202.36 252.52,-191.21"/>
<polygon fill="midnightblue" stroke="midnightblue" points="254,-194.39 262.11,-187.57 251.52,-187.85 254,-194.39"/>
</g>
<!-- Node11 -->
<g id="node11" class="node">
<title>Node11</title>
<g id="a_node11"><a xlink:href="../../da/dd1/outlab4_8h.html" target="_top" xlink:title=" ">
<polygon fill="white" stroke="black" points="620.33,-280.5 620.33,-299.5 682.33,-299.5 682.33,-280.5 620.33,-280.5"/>
<text text-anchor="middle" x="651.33" y="-287.5" font-family="Helvetica,sans-Serif" font-size="10.00">outlab4.h</text>
</a>
</g>
</g>
<!-- Node1&#45;&gt;Node11 -->
<g id="edge12" class="edge">
<title>Node1&#45;&gt;Node11</title>
<path fill="none" stroke="midnightblue" d="M436.74,-336.44C484.1,-326.41 562.18,-309.88 609.96,-299.76"/>
<polygon fill="midnightblue" stroke="midnightblue" points="610.9,-303.14 619.96,-297.64 609.45,-296.29 610.9,-303.14"/>
</g>
<!-- Node3 -->
<g id="node3" class="node">
<title>Node3</title>
<g id="a_node3"><a xlink:href="../../db/df1/Helpers_8h.html" target="_top" xlink:title="This file contains helper functions and structures used throughout the program.">
<polygon fill="white" stroke="black" points="331.83,-112.5 331.83,-131.5 394.83,-131.5 394.83,-112.5 331.83,-112.5"/>
<text text-anchor="middle" x="363.33" y="-119.5" font-family="Helvetica,sans-Serif" font-size="10.00">Helpers.h</text>
</a>
</g>
</g>
<!-- Node2&#45;&gt;Node3 -->
<g id="edge2" class="edge">
<title>Node2&#45;&gt;Node3</title>
<path fill="none" stroke="midnightblue" d="M302.06,-168.32C313.17,-160.11 330.08,-147.6 343.32,-137.81"/>
<polygon fill="midnightblue" stroke="midnightblue" points="345.43,-140.59 351.39,-131.83 341.27,-134.97 345.43,-140.59"/>
</g>
<!-- Node5 -->
<g id="node5" class="node">
<title>Node5</title>
<g id="a_node5"><a xlink:title=" ">
<polygon fill="white" stroke="#bfbfbf" points="556.33,-0.5 556.33,-19.5 616.33,-19.5 616.33,-0.5 556.33,-0.5"/>
<text text-anchor="middle" x="586.33" y="-7.5" font-family="Helvetica,sans-Serif" font-size="10.00">iostream</text>
</a>
</g>
</g>
<!-- Node2&#45;&gt;Node5 -->
<g id="edge10" class="edge">
<title>Node2&#45;&gt;Node5</title>
<path fill="none" stroke="midnightblue" d="M264.53,-168.43C235.65,-157.4 195.04,-136.69 212.33,-112 250.93,-56.89 457.65,-26.23 546.12,-15.46"/>
<polygon fill="midnightblue" stroke="midnightblue" points="546.54,-18.94 556.05,-14.28 545.71,-11.99 546.54,-18.94"/>
</g>
<!-- Node8 -->
<g id="node8" class="node">
<title>Node8</title>
<g id="a_node8"><a xlink:title=" ">
<polygon fill="white" stroke="#bfbfbf" points="23.33,-56.5 23.33,-75.5 173.33,-75.5 173.33,-56.5 23.33,-56.5"/>
<text text-anchor="middle" x="98.33" y="-63.5" font-family="Helvetica,sans-Serif" font-size="10.00">boost/program_options.hpp</text>
</a>
</g>
</g>
<!-- Node2&#45;&gt;Node8 -->
<g id="edge9" class="edge">
<title>Node2&#45;&gt;Node8</title>
<path fill="none" stroke="midnightblue" d="M262.84,-168.36C239.72,-160.52 206.24,-147.79 179.33,-132 155.19,-117.83 130.54,-96.94 114.88,-82.7"/>
<polygon fill="midnightblue" stroke="midnightblue" points="116.88,-79.78 107.16,-75.55 112.12,-84.91 116.88,-79.78"/>
</g>
<!-- Node9 -->
<g id="node9" class="node">
<title>Node9</title>
<g id="a_node9"><a xlink:title=" ">
<polygon fill="white" stroke="#bfbfbf" points="221.33,-112.5 221.33,-131.5 313.33,-131.5 313.33,-112.5 221.33,-112.5"/>
<text text-anchor="middle" x="267.33" y="-119.5" font-family="Helvetica,sans-Serif" font-size="10.00">project&#45;config.h</text>
</a>
</g>
</g>
<!-- Node2&#45;&gt;Node9 -->
<g id="edge8" class="edge">
<title>Node2&#45;&gt;Node9</title>
<path fill="none" stroke="midnightblue" d="M286.54,-168.08C283.42,-160.77 278.91,-150.18 275.04,-141.1"/>
<polygon fill="midnightblue" stroke="midnightblue" points="278.2,-139.58 271.06,-131.75 271.76,-142.32 278.2,-139.58"/>
</g>
<!-- Node10 -->
<g id="node10" class="node">
<title>Node10</title>
<g id="a_node10"><a xlink:title=" ">
<polygon fill="white" stroke="#bfbfbf" points="514.33,-112.5 514.33,-131.5 558.33,-131.5 558.33,-112.5 514.33,-112.5"/>
<text text-anchor="middle" x="536.33" y="-119.5" font-family="Helvetica,sans-Serif" font-size="10.00">string</text>
</a>
</g>
</g>
<!-- Node2&#45;&gt;Node10 -->
<g id="edge11" class="edge">
<title>Node2&#45;&gt;Node10</title>
<path fill="none" stroke="midnightblue" d="M329.31,-168.44C377.7,-157.82 459.33,-139.9 504.27,-130.04"/>
<polygon fill="midnightblue" stroke="midnightblue" points="505.05,-133.45 514.07,-127.89 503.55,-126.61 505.05,-133.45"/>
</g>
<!-- Node4 -->
<g id="node4" class="node">
<title>Node4</title>
<g id="a_node4"><a xlink:title=" ">
<polygon fill="white" stroke="#bfbfbf" points="903.33,-0.5 903.33,-19.5 959.33,-19.5 959.33,-0.5 903.33,-0.5"/>
<text text-anchor="middle" x="931.33" y="-7.5" font-family="Helvetica,sans-Serif" font-size="10.00">iomanip</text>
</a>
</g>
</g>
<!-- Node3&#45;&gt;Node4 -->
<g id="edge3" class="edge">
<title>Node3&#45;&gt;Node4</title>
<path fill="none" stroke="midnightblue" d="M395.19,-113.73C397.94,-113.13 400.69,-112.55 403.33,-112 617.73,-67.52 672.51,-62.39 887.33,-20 889.23,-19.63 891.17,-19.24 893.12,-18.85"/>
<polygon fill="midnightblue" stroke="midnightblue" points="893.83,-22.28 902.94,-16.87 892.45,-15.42 893.83,-22.28"/>
</g>
<!-- Node3&#45;&gt;Node5 -->
<g id="edge4" class="edge">
<title>Node3&#45;&gt;Node5</title>
<path fill="none" stroke="midnightblue" d="M363.24,-112.43C363.57,-98.48 366.36,-70.93 382.33,-56 405.68,-34.17 493.58,-21.07 546.07,-15.03"/>
<polygon fill="midnightblue" stroke="midnightblue" points="546.52,-18.5 556.07,-13.91 545.74,-11.54 546.52,-18.5"/>
</g>
<!-- Node6 -->
<g id="node6" class="node">
<title>Node6</title>
<g id="a_node6"><a xlink:title=" ">
<polygon fill="white" stroke="#bfbfbf" points="391.33,-56.5 391.33,-75.5 435.33,-75.5 435.33,-56.5 391.33,-56.5"/>
<text text-anchor="middle" x="413.33" y="-63.5" font-family="Helvetica,sans-Serif" font-size="10.00">limits</text>
</a>
</g>
</g>
<!-- Node3&#45;&gt;Node6 -->
<g id="edge5" class="edge">
<title>Node3&#45;&gt;Node6</title>
<path fill="none" stroke="midnightblue" d="M371.59,-112.08C378.8,-104.3 389.44,-92.8 398.18,-83.37"/>
<polygon fill="midnightblue" stroke="midnightblue" points="401.01,-85.47 405.23,-75.75 395.87,-80.71 401.01,-85.47"/>
</g>
<!-- Node7 -->
<g id="node7" class="node">
<title>Node7</title>
<g id="a_node7"><a xlink:title=" ">
<polygon fill="white" stroke="#bfbfbf" points="1186.33,-56.5 1186.33,-75.5 1244.33,-75.5 1244.33,-56.5 1186.33,-56.5"/>
<text text-anchor="middle" x="1215.33" y="-63.5" font-family="Helvetica,sans-Serif" font-size="10.00">json.hpp</text>
</a>
</g>
</g>
<!-- Node3&#45;&gt;Node7 -->
<g id="edge6" class="edge">
<title>Node3&#45;&gt;Node7</title>
<path fill="none" stroke="midnightblue" d="M395.12,-113.35C397.89,-112.83 400.66,-112.37 403.33,-112 480.15,-101.31 1023.3,-75.82 1175.67,-68.81"/>
<polygon fill="midnightblue" stroke="midnightblue" points="1176.13,-72.29 1185.96,-68.34 1175.81,-65.3 1176.13,-72.29"/>
</g>
<!-- Node3&#45;&gt;Node8 -->
<g id="edge7" class="edge">
<title>Node3&#45;&gt;Node8</title>
<path fill="none" stroke="midnightblue" d="M331.56,-113.97C328.45,-113.29 325.33,-112.63 322.33,-112 264.23,-99.79 197.5,-86.47 152.09,-77.52"/>
<polygon fill="midnightblue" stroke="midnightblue" points="152.65,-74.06 142.16,-75.56 151.3,-80.93 152.65,-74.06"/>
</g>
<!-- Node11&#45;&gt;Node3 -->
<g id="edge41" class="edge">
<title>Node11&#45;&gt;Node3</title>
<path fill="none" stroke="midnightblue" d="M620.1,-286.69C582.63,-282.72 519,-272.1 472.33,-244 427.89,-217.25 391.17,-166.69 373.92,-140.19"/>
<polygon fill="midnightblue" stroke="midnightblue" points="376.79,-138.17 368.47,-131.61 370.88,-141.92 376.79,-138.17"/>
</g>
<!-- Node11&#45;&gt;Node4 -->
<g id="edge14" class="edge">
<title>Node11&#45;&gt;Node4</title>
<path fill="none" stroke="midnightblue" d="M682.39,-288.01C878.17,-281.57 1933.33,-243.85 1933.33,-179 1933.33,-179 1933.33,-179 1933.33,-121 1933.33,-22.18 1153.28,-12.11 969.69,-11.11"/>
<polygon fill="midnightblue" stroke="midnightblue" points="969.46,-7.6 959.44,-11.06 969.43,-14.6 969.46,-7.6"/>
</g>
<!-- Node11&#45;&gt;Node5 -->
<g id="edge15" class="edge">
<title>Node11&#45;&gt;Node5</title>
<path fill="none" stroke="midnightblue" d="M620.3,-283.01C572.5,-271.77 486.33,-242.69 486.33,-179 486.33,-179 486.33,-179 486.33,-121 486.33,-76.98 530.71,-42.8 560.34,-24.87"/>
<polygon fill="midnightblue" stroke="midnightblue" points="562.48,-27.68 569.37,-19.64 558.96,-21.63 562.48,-27.68"/>
</g>
<!-- Node11&#45;&gt;Node7 -->
<g id="edge65" class="edge">
<title>Node11&#45;&gt;Node7</title>
<path fill="none" stroke="midnightblue" d="M682.67,-288.48C792.69,-286.39 1156.8,-277.01 1196.33,-244 1242.51,-205.44 1233.53,-171.73 1226.33,-112 1225.26,-103.11 1223.04,-93.43 1220.87,-85.34"/>
<polygon fill="midnightblue" stroke="midnightblue" points="1224.18,-84.17 1218.06,-75.51 1217.45,-86.09 1224.18,-84.17"/>
</g>
<!-- Node11&#45;&gt;Node8 -->
<g id="edge13" class="edge">
<title>Node11&#45;&gt;Node8</title>
<path fill="none" stroke="midnightblue" d="M620.27,-289.04C503.91,-288.88 98.63,-285.32 60.33,-244 18.54,-198.91 62.8,-119.38 86.01,-84.37"/>
<polygon fill="midnightblue" stroke="midnightblue" points="89.16,-85.98 91.91,-75.75 83.38,-82.03 89.16,-85.98"/>
</g>
<!-- Node12 -->
<g id="node12" class="node">
<title>Node12</title>
<g id="a_node12"><a xlink:title=" ">
<polygon fill="white" stroke="#bfbfbf" points="217.33,-224.5 217.33,-243.5 273.33,-243.5 273.33,-224.5 217.33,-224.5"/>
<text text-anchor="middle" x="245.33" y="-231.5" font-family="Helvetica,sans-Serif" font-size="10.00">numeric</text>
</a>
</g>
</g>
<!-- Node11&#45;&gt;Node12 -->
<g id="edge16" class="edge">
<title>Node11&#45;&gt;Node12</title>
<path fill="none" stroke="midnightblue" d="M620.05,-286.43C557.83,-281.06 414.01,-267.31 283.7,-244.06"/>
<polygon fill="midnightblue" stroke="midnightblue" points="284.01,-240.56 273.54,-242.22 282.76,-247.45 284.01,-240.56"/>
</g>
<!-- Node13 -->
<g id="node13" class="node">
<title>Node13</title>
<g id="a_node13"><a xlink:title=" ">
<polygon fill="white" stroke="#bfbfbf" points="291.83,-224.5 291.83,-243.5 342.83,-243.5 342.83,-224.5 291.83,-224.5"/>
<text text-anchor="middle" x="317.33" y="-231.5" font-family="Helvetica,sans-Serif" font-size="10.00">variant</text>
</a>
</g>
</g>
<!-- Node11&#45;&gt;Node13 -->
<g id="edge17" class="edge">
<title>Node11&#45;&gt;Node13</title>
<path fill="none" stroke="midnightblue" d="M620.04,-285.46C566.97,-279.2 455.79,-265.02 352.82,-244.13"/>
<polygon fill="midnightblue" stroke="midnightblue" points="353.38,-240.67 342.88,-242.08 351.97,-247.53 353.38,-240.67"/>
</g>
<!-- Node14 -->
<g id="node14" class="node">
<title>Node14</title>
<g id="a_node14"><a xlink:href="../../d0/d7d/CheckBounds_8h.html" target="_top" xlink:title="This file contains the declaration of functions for checking the validity of input parameters.">
<polygon fill="white" stroke="black" points="69.33,-224.5 69.33,-243.5 161.33,-243.5 161.33,-224.5 69.33,-224.5"/>
<text text-anchor="middle" x="115.33" y="-231.5" font-family="Helvetica,sans-Serif" font-size="10.00">CheckBounds.h</text>
</a>
</g>
</g>
<!-- Node11&#45;&gt;Node14 -->
<g id="edge18" class="edge">
<title>Node11&#45;&gt;Node14</title>
<path fill="none" stroke="midnightblue" d="M620.2,-285.86C532.78,-277.06 284.11,-252 171.72,-240.68"/>
<polygon fill="midnightblue" stroke="midnightblue" points="171.9,-237.18 161.6,-239.66 171.19,-244.15 171.9,-237.18"/>
</g>
<!-- Node15 -->
<g id="node15" class="node">
<title>Node15</title>
<g id="a_node15"><a xlink:href="../../d7/de4/FileParser_8h.html" target="_top" xlink:title="This file contains the definitions for functions that handle file parsing operations.">
<polygon fill="white" stroke="black" points="1416.33,-168.5 1416.33,-187.5 1488.33,-187.5 1488.33,-168.5 1416.33,-168.5"/>
<text text-anchor="middle" x="1452.33" y="-175.5" font-family="Helvetica,sans-Serif" font-size="10.00">FileParser.h</text>
</a>
</g>
</g>
<!-- Node11&#45;&gt;Node15 -->
<g id="edge22" class="edge">
<title>Node11&#45;&gt;Node15</title>
<path fill="none" stroke="midnightblue" d="M682.72,-288.28C796.22,-285.45 1185.05,-273.76 1305.33,-244 1351.09,-232.68 1400.46,-208 1428.76,-192.52"/>
<polygon fill="midnightblue" stroke="midnightblue" points="1430.47,-195.57 1437.51,-187.66 1427.07,-189.45 1430.47,-195.57"/>
</g>
<!-- Node23 -->
<g id="node23" class="node">
<title>Node23</title>
<g id="a_node23"><a xlink:href="../../d3/db1/Matrix_8h.html" target="_top" xlink:title="This file contains my BLAS::Matrix declarations.">
<polygon fill="white" stroke="black" points="775.83,-112.5 775.83,-131.5 884.83,-131.5 884.83,-112.5 775.83,-112.5"/>
<text text-anchor="middle" x="830.33" y="-119.5" font-family="Helvetica,sans-Serif" font-size="10.00">math/blas/Matrix.h</text>
</a>
</g>
</g>
<!-- Node11&#45;&gt;Node23 -->
<g id="edge66" class="edge">
<title>Node11&#45;&gt;Node23</title>
<path fill="none" stroke="midnightblue" d="M642.61,-280.36C630.92,-267.68 612.79,-243.44 623.33,-224 651.59,-171.87 716.57,-146.25 766.24,-133.91"/>
<polygon fill="midnightblue" stroke="midnightblue" points="767.34,-137.25 776.27,-131.55 765.74,-130.43 767.34,-137.25"/>
</g>
<!-- Node26 -->
<g id="node26" class="node">
<title>Node26</title>
<g id="a_node26"><a xlink:href="../../d6/dbe/Vector_8h.html" target="_top" xlink:title="This file contains my BLAS::Vector implementation.">
<polygon fill="white" stroke="black" points="877.83,-56.5 877.83,-75.5 984.83,-75.5 984.83,-56.5 877.83,-56.5"/>
<text text-anchor="middle" x="931.33" y="-63.5" font-family="Helvetica,sans-Serif" font-size="10.00">math/blas/Vector.h</text>
</a>
</g>
</g>
<!-- Node11&#45;&gt;Node26 -->
<g id="edge71" class="edge">
<title>Node11&#45;&gt;Node26</title>
<path fill="none" stroke="midnightblue" d="M682.52,-288.72C790.25,-287.42 1141.92,-280.41 1175.33,-244 1219.42,-195.97 1166.8,-146.28 1111.33,-112 1076.27,-90.33 1031.28,-79.08 995.06,-73.25"/>
<polygon fill="midnightblue" stroke="midnightblue" points="995.5,-69.77 985.09,-71.74 994.45,-76.7 995.5,-69.77"/>
</g>
<!-- Node27 -->
<g id="node27" class="node">
<title>Node27</title>
<g id="a_node27"><a xlink:href="../../d2/dff/Project_8h.html" target="_top" xlink:title="This file contains the definition of the Project class template. The Project class is a generic class...">
<polygon fill="white" stroke="black" points="360.83,-224.5 360.83,-243.5 419.83,-243.5 419.83,-224.5 360.83,-224.5"/>
<text text-anchor="middle" x="390.33" y="-231.5" font-family="Helvetica,sans-Serif" font-size="10.00">Project.h</text>
</a>
</g>
</g>
<!-- Node11&#45;&gt;Node27 -->
<g id="edge42" class="edge">
<title>Node11&#45;&gt;Node27</title>
<path fill="none" stroke="midnightblue" d="M620.11,-282.54C572.54,-272.7 481.96,-253.96 429.87,-243.18"/>
<polygon fill="midnightblue" stroke="midnightblue" points="430.49,-239.73 419.99,-241.13 429.07,-246.59 430.49,-239.73"/>
</g>
<!-- Node29 -->
<g id="node29" class="node">
<title>Node29</title>
<g id="a_node29"><a xlink:href="../../d1/d59/labs_2outlab4_2Compute_8h.html" target="_top" xlink:title="Compute methods for outlab4 in NE591&#45;008.">
<polygon fill="white" stroke="black" points="782.33,-224.5 782.33,-243.5 852.33,-243.5 852.33,-224.5 782.33,-224.5"/>
<text text-anchor="middle" x="817.33" y="-231.5" font-family="Helvetica,sans-Serif" font-size="10.00">Compute.h</text>
</a>
</g>
</g>
<!-- Node11&#45;&gt;Node29 -->
<g id="edge46" class="edge">
<title>Node11&#45;&gt;Node29</title>
<path fill="none" stroke="midnightblue" d="M677.64,-280.44C705.68,-271.32 750.28,-256.81 781.52,-246.65"/>
<polygon fill="midnightblue" stroke="midnightblue" points="782.73,-249.94 791.15,-243.52 780.56,-243.28 782.73,-249.94"/>
</g>
<!-- Node31 -->
<g id="node31" class="node">
<title>Node31</title>
<g id="a_node31"><a xlink:href="../../d0/dbf/labs_2outlab4_2InputsOutputs_8h.html" target="_top" xlink:title="This file contains the input and output definitions for this project.">
<polygon fill="white" stroke="black" points="1017.33,-168.5 1017.33,-187.5 1111.33,-187.5 1111.33,-168.5 1017.33,-168.5"/>
<text text-anchor="middle" x="1064.33" y="-175.5" font-family="Helvetica,sans-Serif" font-size="10.00">InputsOutputs.h</text>
</a>
</g>
</g>
<!-- Node11&#45;&gt;Node31 -->
<g id="edge59" class="edge">
<title>Node11&#45;&gt;Node31</title>
<path fill="none" stroke="midnightblue" d="M682.59,-287.91C758.83,-284.82 952.19,-274.13 1008.33,-244 1028.58,-233.14 1044.75,-211.77 1054.42,-196.5"/>
<polygon fill="midnightblue" stroke="midnightblue" points="1057.66,-197.9 1059.8,-187.52 1051.66,-194.3 1057.66,-197.9"/>
</g>
<!-- Node33 -->
<g id="node33" class="node">
<title>Node33</title>
<g id="a_node33"><a xlink:href="../../d0/d12/labs_2outlab4_2Parser_8h.html" target="_top" xlink:title="This file contains the Parser class which is responsible for parsing command line arguments and valid...">
<polygon fill="white" stroke="black" points="1111.83,-224.5 1111.83,-243.5 1166.83,-243.5 1166.83,-224.5 1111.83,-224.5"/>
<text text-anchor="middle" x="1139.33" y="-231.5" font-family="Helvetica,sans-Serif" font-size="10.00">Parser.h</text>
</a>
</g>
</g>
<!-- Node11&#45;&gt;Node33 -->
<g id="edge60" class="edge">
<title>Node11&#45;&gt;Node33</title>
<path fill="none" stroke="midnightblue" d="M682.51,-285.75C751.52,-278.52 922.4,-260.46 1065.33,-244 1077.05,-242.65 1089.8,-241.12 1101.36,-239.71"/>
<polygon fill="midnightblue" stroke="midnightblue" points="1102.08,-243.15 1111.58,-238.46 1101.23,-236.2 1102.08,-243.15"/>
</g>
<!-- Node34 -->
<g id="node34" class="node">
<title>Node34</title>
<g id="a_node34"><a xlink:href="../../d9/d77/MyBLAS_8h.html" target="_top" xlink:title="My BLAS methods for NE591&#45;008.">
<polygon fill="white" stroke="black" points="881.33,-224.5 881.33,-243.5 999.33,-243.5 999.33,-224.5 881.33,-224.5"/>
<text text-anchor="middle" x="940.33" y="-231.5" font-family="Helvetica,sans-Serif" font-size="10.00">math/blas/MyBLAS.h</text>
</a>
</g>
</g>
<!-- Node11&#45;&gt;Node34 -->
<g id="edge67" class="edge">
<title>Node11&#45;&gt;Node34</title>
<path fill="none" stroke="midnightblue" d="M682.54,-283.17C730.9,-274.13 824.63,-256.62 884.75,-245.39"/>
<polygon fill="midnightblue" stroke="midnightblue" points="885.65,-248.78 894.84,-243.5 884.36,-241.9 885.65,-248.78"/>
</g>
<!-- Node35 -->
<g id="node35" class="node">
<title>Node35</title>
<g id="a_node35"><a xlink:href="../../d7/dff/LU_8h.html" target="_top" xlink:title="LU factorization and related methods for MyBLAS library.">
<polygon fill="white" stroke="black" points="632.83,-224.5 632.83,-243.5 763.83,-243.5 763.83,-224.5 632.83,-224.5"/>
<text text-anchor="middle" x="698.33" y="-231.5" font-family="Helvetica,sans-Serif" font-size="10.00">math/factorization/LU.h</text>
</a>
</g>
</g>
<!-- Node11&#45;&gt;Node35 -->
<g id="edge72" class="edge">
<title>Node11&#45;&gt;Node35</title>
<path fill="none" stroke="midnightblue" d="M659.1,-280.08C665.87,-272.3 675.88,-260.8 684.09,-251.37"/>
<polygon fill="midnightblue" stroke="midnightblue" points="686.79,-253.59 690.72,-243.75 681.51,-249 686.79,-253.59"/>
</g>
<!-- Node14&#45;&gt;Node2 -->
<g id="edge21" class="edge">
<title>Node14&#45;&gt;Node2</title>
<path fill="none" stroke="midnightblue" d="M143.06,-224.44C172.76,-215.28 220.05,-200.69 253,-190.52"/>
<polygon fill="midnightblue" stroke="midnightblue" points="254.21,-193.81 262.73,-187.52 252.15,-187.12 254.21,-193.81"/>
</g>
<!-- Node14&#45;&gt;Node5 -->
<g id="edge20" class="edge">
<title>Node14&#45;&gt;Node5</title>
<path fill="none" stroke="midnightblue" d="M103.41,-224.38C67.07,-197.12 -36.82,-111.34 14.33,-56 50.31,-17.09 421.71,-11.77 546.04,-11.09"/>
<polygon fill="midnightblue" stroke="midnightblue" points="546.28,-14.59 556.26,-11.04 546.25,-7.59 546.28,-14.59"/>
</g>
<!-- Node14&#45;&gt;Node8 -->
<g id="edge19" class="edge">
<title>Node14&#45;&gt;Node8</title>
<path fill="none" stroke="midnightblue" d="M112.47,-224.49C109.59,-215.53 105.3,-200.95 103.33,-188 97.87,-152.1 97.51,-109.56 97.84,-85.68"/>
<polygon fill="midnightblue" stroke="midnightblue" points="101.35,-85.64 98.05,-75.57 94.35,-85.5 101.35,-85.64"/>
</g>
<!-- Node15&#45;&gt;Node5 -->
<g id="edge26" class="edge">
<title>Node15&#45;&gt;Node5</title>
<path fill="none" stroke="midnightblue" d="M1438.44,-168.43C1394.09,-141.09 1258.49,-57.63 1253.33,-56 1193.75,-37.12 762.16,-18.15 626.82,-12.61"/>
<polygon fill="midnightblue" stroke="midnightblue" points="626.62,-9.1 616.48,-12.19 626.33,-16.09 626.62,-9.1"/>
</g>
<!-- Node15&#45;&gt;Node7 -->
<g id="edge40" class="edge">
<title>Node15&#45;&gt;Node7</title>
<path fill="none" stroke="midnightblue" d="M1488.39,-177.02C1600.22,-176.48 1930.54,-170.02 1876.33,-112 1833.86,-66.53 1390.91,-65.78 1254.86,-66.63"/>
<polygon fill="midnightblue" stroke="midnightblue" points="1254.47,-63.14 1244.5,-66.71 1254.52,-70.14 1254.47,-63.14"/>
</g>
<!-- Node15&#45;&gt;Node10 -->
<g id="edge27" class="edge">
<title>Node15&#45;&gt;Node10</title>
<path fill="none" stroke="midnightblue" d="M1416.14,-174.87C1268.06,-166.14 709.46,-133.21 568.7,-124.91"/>
<polygon fill="midnightblue" stroke="midnightblue" points="568.75,-121.4 558.56,-124.31 568.34,-128.39 568.75,-121.4"/>
</g>
<!-- Node16 -->
<g id="node16" class="node">
<title>Node16</title>
<g id="a_node16"><a xlink:title=" ">
<polygon fill="white" stroke="#bfbfbf" points="1669.33,-112.5 1669.33,-131.5 1781.33,-131.5 1781.33,-112.5 1669.33,-112.5"/>
<text text-anchor="middle" x="1725.33" y="-119.5" font-family="Helvetica,sans-Serif" font-size="10.00">boost/tokenizer.hpp</text>
</a>
</g>
</g>
<!-- Node15&#45;&gt;Node16 -->
<g id="edge23" class="edge">
<title>Node15&#45;&gt;Node16</title>
<path fill="none" stroke="midnightblue" d="M1488.59,-169.83C1535.6,-160.53 1617.96,-144.24 1672.08,-133.53"/>
<polygon fill="midnightblue" stroke="midnightblue" points="1673.04,-136.91 1682.17,-131.54 1671.69,-130.04 1673.04,-136.91"/>
</g>
<!-- Node17 -->
<g id="node17" class="node">
<title>Node17</title>
<g id="a_node17"><a xlink:title=" ">
<polygon fill="white" stroke="#bfbfbf" points="1799.33,-112.5 1799.33,-131.5 1867.33,-131.5 1867.33,-112.5 1799.33,-112.5"/>
<text text-anchor="middle" x="1833.33" y="-119.5" font-family="Helvetica,sans-Serif" font-size="10.00">filesystem</text>
</a>
</g>
</g>
<!-- Node15&#45;&gt;Node17 -->
<g id="edge24" class="edge">
<title>Node15&#45;&gt;Node17</title>
<path fill="none" stroke="midnightblue" d="M1488.48,-173.08C1548.71,-166.35 1673.59,-151.57 1789.04,-132.11"/>
<polygon fill="midnightblue" stroke="midnightblue" points="1789.84,-135.53 1799.11,-130.4 1788.66,-128.63 1789.84,-135.53"/>
</g>
<!-- Node18 -->
<g id="node18" class="node">
<title>Node18</title>
<g id="a_node18"><a xlink:title=" ">
<polygon fill="white" stroke="#bfbfbf" points="1387.83,-112.5 1387.83,-131.5 1442.83,-131.5 1442.83,-112.5 1387.83,-112.5"/>
<text text-anchor="middle" x="1415.33" y="-119.5" font-family="Helvetica,sans-Serif" font-size="10.00">fstream</text>
</a>
</g>
</g>
<!-- Node15&#45;&gt;Node18 -->
<g id="edge25" class="edge">
<title>Node15&#45;&gt;Node18</title>
<path fill="none" stroke="midnightblue" d="M1446.22,-168.08C1441.05,-160.53 1433.49,-149.49 1427.14,-140.23"/>
<polygon fill="midnightblue" stroke="midnightblue" points="1429.87,-138.02 1421.33,-131.75 1424.1,-141.98 1429.87,-138.02"/>
</g>
<!-- Node19 -->
<g id="node19" class="node">
<title>Node19</title>
<g id="a_node19"><a xlink:title=" ">
<polygon fill="white" stroke="#bfbfbf" points="1281.33,-112.5 1281.33,-131.5 1331.33,-131.5 1331.33,-112.5 1281.33,-112.5"/>
<text text-anchor="middle" x="1306.33" y="-119.5" font-family="Helvetica,sans-Serif" font-size="10.00">chrono</text>
</a>
</g>
</g>
<!-- Node15&#45;&gt;Node19 -->
<g id="edge28" class="edge">
<title>Node15&#45;&gt;Node19</title>
<path fill="none" stroke="midnightblue" d="M1429.2,-168.44C1404.85,-159.44 1366.33,-145.19 1338.91,-135.05"/>
<polygon fill="midnightblue" stroke="midnightblue" points="1339.95,-131.7 1329.36,-131.52 1337.52,-138.27 1339.95,-131.7"/>
</g>
<!-- Node20 -->
<g id="node20" class="node">
<title>Node20</title>
<g id="a_node20"><a xlink:title=" ">
<polygon fill="white" stroke="#bfbfbf" points="1461.33,-112.5 1461.33,-131.5 1519.33,-131.5 1519.33,-112.5 1461.33,-112.5"/>
<text text-anchor="middle" x="1490.33" y="-119.5" font-family="Helvetica,sans-Serif" font-size="10.00">memory</text>
</a>
</g>
</g>
<!-- Node15&#45;&gt;Node20 -->
<g id="edge29" class="edge">
<title>Node15&#45;&gt;Node20</title>
<path fill="none" stroke="midnightblue" d="M1458.61,-168.08C1463.98,-160.46 1471.85,-149.26 1478.41,-139.94"/>
<polygon fill="midnightblue" stroke="midnightblue" points="1481.28,-141.94 1484.18,-131.75 1475.56,-137.91 1481.28,-141.94"/>
</g>
<!-- Node21 -->
<g id="node21" class="node">
<title>Node21</title>
<g id="a_node21"><a xlink:title=" ">
<polygon fill="white" stroke="#bfbfbf" points="1537.33,-112.5 1537.33,-131.5 1585.33,-131.5 1585.33,-112.5 1537.33,-112.5"/>
<text text-anchor="middle" x="1561.33" y="-119.5" font-family="Helvetica,sans-Serif" font-size="10.00">mutex</text>
</a>
</g>
</g>
<!-- Node15&#45;&gt;Node21 -->
<g id="edge30" class="edge">
<title>Node15&#45;&gt;Node21</title>
<path fill="none" stroke="midnightblue" d="M1469.85,-168.32C1487.41,-159.62 1514.67,-146.12 1534.87,-136.11"/>
<polygon fill="midnightblue" stroke="midnightblue" points="1536.46,-139.23 1543.86,-131.65 1533.35,-132.96 1536.46,-139.23"/>
</g>
<!-- Node22 -->
<g id="node22" class="node">
<title>Node22</title>
<g id="a_node22"><a xlink:title=" ">
<polygon fill="white" stroke="#bfbfbf" points="1603.33,-112.5 1603.33,-131.5 1651.33,-131.5 1651.33,-112.5 1603.33,-112.5"/>
<text text-anchor="middle" x="1627.33" y="-119.5" font-family="Helvetica,sans-Serif" font-size="10.00">thread</text>
</a>
</g>
</g>
<!-- Node15&#45;&gt;Node22 -->
<g id="edge31" class="edge">
<title>Node15&#45;&gt;Node22</title>
<path fill="none" stroke="midnightblue" d="M1480.06,-168.44C1510.81,-158.96 1560.41,-143.65 1593.44,-133.46"/>
<polygon fill="midnightblue" stroke="midnightblue" points="1594.59,-136.77 1603.12,-130.47 1592.53,-130.08 1594.59,-136.77"/>
</g>
<!-- Node15&#45;&gt;Node23 -->
<g id="edge32" class="edge">
<title>Node15&#45;&gt;Node23</title>
<path fill="none" stroke="midnightblue" d="M1416.2,-173.86C1314.6,-165.04 1025.3,-139.93 895.16,-128.63"/>
<polygon fill="midnightblue" stroke="midnightblue" points="895.21,-125.12 884.94,-127.74 894.6,-132.09 895.21,-125.12"/>
</g>
<!-- Node23&#45;&gt;Node5 -->
<g id="edge34" class="edge">
<title>Node23&#45;&gt;Node5</title>
<path fill="none" stroke="midnightblue" d="M827.78,-112.28C823.15,-98.13 812,-70.29 792.33,-56 743.26,-20.34 671.4,-11.99 626.82,-10.54"/>
<polygon fill="midnightblue" stroke="midnightblue" points="626.72,-7.03 616.65,-10.31 626.57,-14.03 626.72,-7.03"/>
</g>
<!-- Node24 -->
<g id="node24" class="node">
<title>Node24</title>
<g id="a_node24"><a xlink:title=" ">
<polygon fill="white" stroke="#bfbfbf" points="719.33,-56.5 719.33,-75.5 783.33,-75.5 783.33,-56.5 719.33,-56.5"/>
<text text-anchor="middle" x="751.33" y="-63.5" font-family="Helvetica,sans-Serif" font-size="10.00">algorithm</text>
</a>
</g>
</g>
<!-- Node23&#45;&gt;Node24 -->
<g id="edge33" class="edge">
<title>Node23&#45;&gt;Node24</title>
<path fill="none" stroke="midnightblue" d="M817.64,-112.32C805.43,-103.98 786.76,-91.21 772.33,-81.35"/>
<polygon fill="midnightblue" stroke="midnightblue" points="774.23,-78.41 764,-75.65 770.28,-84.19 774.23,-78.41"/>
</g>
<!-- Node25 -->
<g id="node25" class="node">
<title>Node25</title>
<g id="a_node25"><a xlink:title=" ">
<polygon fill="white" stroke="#bfbfbf" points="831.83,-0.5 831.83,-19.5 878.83,-19.5 878.83,-0.5 831.83,-0.5"/>
<text text-anchor="middle" x="855.33" y="-7.5" font-family="Helvetica,sans-Serif" font-size="10.00">vector</text>
</a>
</g>
</g>
<!-- Node23&#45;&gt;Node25 -->
<g id="edge35" class="edge">
<title>Node23&#45;&gt;Node25</title>
<path fill="none" stroke="midnightblue" d="M832.3,-112.37C836.33,-94.62 845.64,-53.67 851.11,-29.6"/>
<polygon fill="midnightblue" stroke="midnightblue" points="854.58,-30.12 853.38,-19.59 847.75,-28.57 854.58,-30.12"/>
</g>
<!-- Node23&#45;&gt;Node26 -->
<g id="edge36" class="edge">
<title>Node23&#45;&gt;Node26</title>
<path fill="none" stroke="midnightblue" d="M846.56,-112.32C862.69,-103.7 887.63,-90.36 906.3,-80.39"/>
<polygon fill="midnightblue" stroke="midnightblue" points="907.98,-83.46 915.15,-75.65 904.68,-77.28 907.98,-83.46"/>
</g>
<!-- Node26&#45;&gt;Node4 -->
<g id="edge37" class="edge">
<title>Node26&#45;&gt;Node4</title>
<path fill="none" stroke="midnightblue" d="M931.33,-56.08C931.33,-49.01 931.33,-38.86 931.33,-29.99"/>
<polygon fill="midnightblue" stroke="midnightblue" points="934.83,-29.75 931.33,-19.75 927.83,-29.75 934.83,-29.75"/>
</g>
<!-- Node26&#45;&gt;Node5 -->
<g id="edge38" class="edge">
<title>Node26&#45;&gt;Node5</title>
<path fill="none" stroke="midnightblue" d="M877.81,-56.62C808.39,-45.76 688.85,-27.05 626.62,-17.31"/>
<polygon fill="midnightblue" stroke="midnightblue" points="626.84,-13.8 616.42,-15.71 625.76,-20.71 626.84,-13.8"/>
</g>
<!-- Node26&#45;&gt;Node25 -->
<g id="edge39" class="edge">
<title>Node26&#45;&gt;Node25</title>
<path fill="none" stroke="midnightblue" d="M919.12,-56.32C907.56,-48.11 889.96,-35.6 876.17,-25.81"/>
<polygon fill="midnightblue" stroke="midnightblue" points="877.95,-22.77 867.77,-19.83 873.89,-28.48 877.95,-22.77"/>
</g>
<!-- Node27&#45;&gt;Node2 -->
<g id="edge43" class="edge">
<title>Node27&#45;&gt;Node2</title>
<path fill="none" stroke="midnightblue" d="M374.27,-224.32C358.38,-215.74 333.83,-202.49 315.38,-192.52"/>
<polygon fill="midnightblue" stroke="midnightblue" points="316.82,-189.33 306.36,-187.65 313.5,-195.49 316.82,-189.33"/>
</g>
<!-- Node27&#45;&gt;Node8 -->
<g id="edge44" class="edge">
<title>Node27&#45;&gt;Node8</title>
<path fill="none" stroke="midnightblue" d="M360.57,-225.6C321.73,-215.74 256.03,-198.36 233.33,-188 191.84,-169.06 180.68,-163.12 147.33,-132 132.06,-117.74 118.08,-98.27 109,-84.36"/>
<polygon fill="midnightblue" stroke="midnightblue" points="111.85,-82.32 103.54,-75.75 105.94,-86.07 111.85,-82.32"/>
</g>
<!-- Node28 -->
<g id="node28" class="node">
<title>Node28</title>
<g id="a_node28"><a xlink:title=" ">
<polygon fill="white" stroke="#bfbfbf" points="412.83,-112.5 412.83,-131.5 457.83,-131.5 457.83,-112.5 412.83,-112.5"/>
<text text-anchor="middle" x="435.33" y="-119.5" font-family="Helvetica,sans-Serif" font-size="10.00">utility</text>
</a>
</g>
</g>
<!-- Node27&#45;&gt;Node28 -->
<g id="edge45" class="edge">
<title>Node27&#45;&gt;Node28</title>
<path fill="none" stroke="midnightblue" d="M393.87,-224.37C401.19,-206.46 418.18,-164.92 427.99,-140.95"/>
<polygon fill="midnightblue" stroke="midnightblue" points="431.27,-142.17 431.82,-131.59 424.79,-139.52 431.27,-142.17"/>
</g>
<!-- Node29&#45;&gt;Node2 -->
<g id="edge51" class="edge">
<title>Node29&#45;&gt;Node2</title>
<path fill="none" stroke="midnightblue" d="M782.02,-225.58C778.75,-225 775.49,-224.46 772.33,-224 620.19,-201.75 439.34,-188.32 348.51,-182.47"/>
<polygon fill="midnightblue" stroke="midnightblue" points="348.62,-178.97 338.42,-181.82 348.18,-185.95 348.62,-178.97"/>
</g>
<!-- Node29&#45;&gt;Node5 -->
<g id="edge48" class="edge">
<title>Node29&#45;&gt;Node5</title>
<path fill="none" stroke="midnightblue" d="M793.24,-224.49C773.86,-216.89 746.61,-204.41 726.33,-188 667.29,-140.22 617.39,-63.3 596.64,-28.78"/>
<polygon fill="midnightblue" stroke="midnightblue" points="599.47,-26.69 591.37,-19.86 593.44,-30.25 599.47,-26.69"/>
</g>
<!-- Node29&#45;&gt;Node23 -->
<g id="edge49" class="edge">
<title>Node29&#45;&gt;Node23</title>
<path fill="none" stroke="midnightblue" d="M788.47,-224.49C758.05,-213.94 716.66,-194.11 733.33,-168 743.53,-152.03 761.02,-141.64 778.37,-134.92"/>
<polygon fill="midnightblue" stroke="midnightblue" points="779.67,-138.17 787.94,-131.55 777.35,-131.56 779.67,-138.17"/>
</g>
<!-- Node29&#45;&gt;Node26 -->
<g id="edge50" class="edge">
<title>Node29&#45;&gt;Node26</title>
<path fill="none" stroke="midnightblue" d="M840.72,-224.48C857.6,-217.21 879.71,-205.18 893.33,-188 917.53,-157.47 926.43,-111.36 929.62,-85.77"/>
<polygon fill="midnightblue" stroke="midnightblue" points="933.13,-85.91 930.72,-75.59 926.17,-85.16 933.13,-85.91"/>
</g>
<!-- Node30 -->
<g id="node30" class="node">
<title>Node30</title>
<g id="a_node30"><a xlink:title=" ">
<polygon fill="white" stroke="#bfbfbf" points="837.83,-168.5 837.83,-187.5 884.83,-187.5 884.83,-168.5 837.83,-168.5"/>
<text text-anchor="middle" x="861.33" y="-175.5" font-family="Helvetica,sans-Serif" font-size="10.00">cmath</text>
</a>
</g>
</g>
<!-- Node29&#45;&gt;Node30 -->
<g id="edge47" class="edge">
<title>Node29&#45;&gt;Node30</title>
<path fill="none" stroke="midnightblue" d="M824.6,-224.08C830.88,-216.38 840.12,-205.03 847.76,-195.65"/>
<polygon fill="midnightblue" stroke="midnightblue" points="850.6,-197.71 854.2,-187.75 845.17,-193.29 850.6,-197.71"/>
</g>
<!-- Node29&#45;&gt;Node31 -->
<g id="edge52" class="edge">
<title>Node29&#45;&gt;Node31</title>
<path fill="none" stroke="midnightblue" d="M852.46,-225.32C895.11,-216 967.29,-200.22 1015.38,-189.7"/>
<polygon fill="midnightblue" stroke="midnightblue" points="1016.23,-193.1 1025.25,-187.54 1014.74,-186.26 1016.23,-193.1"/>
</g>
<!-- Node32 -->
<g id="node32" class="node">
<title>Node32</title>
<g id="a_node32"><a xlink:href="../../d4/d2e/Stopwatch_8h.html" target="_top" xlink:title="This file contains the Stopwatch class which is a utility for measuring time durations in various uni...">
<polygon fill="white" stroke="black" points="742.83,-168.5 742.83,-187.5 819.83,-187.5 819.83,-168.5 742.83,-168.5"/>
<text text-anchor="middle" x="781.33" y="-175.5" font-family="Helvetica,sans-Serif" font-size="10.00">Stopwatch.h</text>
</a>
</g>
</g>
<!-- Node29&#45;&gt;Node32 -->
<g id="edge57" class="edge">
<title>Node29&#45;&gt;Node32</title>
<path fill="none" stroke="midnightblue" d="M811.39,-224.08C806.36,-216.53 799,-205.49 792.82,-196.23"/>
<polygon fill="midnightblue" stroke="midnightblue" points="795.63,-194.13 787.17,-187.75 789.8,-198.01 795.63,-194.13"/>
</g>
<!-- Node31&#45;&gt;Node7 -->
<g id="edge54" class="edge">
<title>Node31&#45;&gt;Node7</title>
<path fill="none" stroke="midnightblue" d="M1076.18,-168.37C1101.98,-149.57 1163.49,-104.77 1195.38,-81.53"/>
<polygon fill="midnightblue" stroke="midnightblue" points="1197.52,-84.31 1203.54,-75.59 1193.4,-78.65 1197.52,-84.31"/>
</g>
<!-- Node31&#45;&gt;Node23 -->
<g id="edge55" class="edge">
<title>Node31&#45;&gt;Node23</title>
<path fill="none" stroke="midnightblue" d="M1027.26,-168.44C986.61,-159.06 921.3,-143.99 877.15,-133.8"/>
<polygon fill="midnightblue" stroke="midnightblue" points="877.77,-130.35 867.24,-131.52 876.2,-137.18 877.77,-130.35"/>
</g>
<!-- Node31&#45;&gt;Node26 -->
<g id="edge56" class="edge">
<title>Node31&#45;&gt;Node26</title>
<path fill="none" stroke="midnightblue" d="M1057.44,-168.33C1046.75,-155.19 1025.1,-129.88 1003.33,-112 988.76,-100.02 970.77,-88.78 956.41,-80.52"/>
<polygon fill="midnightblue" stroke="midnightblue" points="958.01,-77.4 947.58,-75.55 954.58,-83.51 958.01,-77.4"/>
</g>
<!-- Node31&#45;&gt;Node28 -->
<g id="edge53" class="edge">
<title>Node31&#45;&gt;Node28</title>
<path fill="none" stroke="midnightblue" d="M1017.15,-173.96C920.82,-167.59 694.65,-151.78 505.33,-132 493.2,-130.73 479.93,-129.09 468.22,-127.56"/>
<polygon fill="midnightblue" stroke="midnightblue" points="468.38,-124.05 458,-126.19 467.45,-130.98 468.38,-124.05"/>
</g>
<!-- Node32&#45;&gt;Node19 -->
<g id="edge58" class="edge">
<title>Node32&#45;&gt;Node19</title>
<path fill="none" stroke="midnightblue" d="M820.01,-169.29C822.82,-168.82 825.62,-168.39 828.33,-168 992.86,-144.56 1191.04,-130.34 1270.67,-125.19"/>
<polygon fill="midnightblue" stroke="midnightblue" points="1271.34,-128.65 1281.1,-124.52 1270.9,-121.67 1271.34,-128.65"/>
</g>
<!-- Node33&#45;&gt;Node7 -->
<g id="edge62" class="edge">
<title>Node33&#45;&gt;Node7</title>
<path fill="none" stroke="midnightblue" d="M1154.07,-224.21C1166.03,-216.27 1182.33,-203.48 1191.33,-188 1210.2,-155.55 1214.48,-110.83 1215.31,-85.84"/>
<polygon fill="midnightblue" stroke="midnightblue" points="1218.81,-85.64 1215.48,-75.58 1211.81,-85.52 1218.81,-85.64"/>
</g>
<!-- Node33&#45;&gt;Node23 -->
<g id="edge63" class="edge">
<title>Node33&#45;&gt;Node23</title>
<path fill="none" stroke="midnightblue" d="M1139.54,-224.31C1139.35,-210.2 1136.77,-182.42 1120.33,-168 1087.73,-139.4 970.24,-128.94 895.19,-125.14"/>
<polygon fill="midnightblue" stroke="midnightblue" points="895.05,-121.63 884.89,-124.64 894.71,-128.62 895.05,-121.63"/>
</g>
<!-- Node33&#45;&gt;Node26 -->
<g id="edge64" class="edge">
<title>Node33&#45;&gt;Node26</title>
<path fill="none" stroke="midnightblue" d="M1142.45,-224.22C1146.59,-210.95 1152.17,-185.46 1141.33,-168 1109.21,-116.22 1042.19,-90.41 992.46,-77.93"/>
<polygon fill="midnightblue" stroke="midnightblue" points="992.98,-74.46 982.44,-75.54 991.35,-81.27 992.98,-74.46"/>
</g>
<!-- Node33&#45;&gt;Node31 -->
<g id="edge61" class="edge">
<title>Node33&#45;&gt;Node31</title>
<path fill="none" stroke="midnightblue" d="M1127.28,-224.32C1115.87,-216.11 1098.5,-203.6 1084.9,-193.81"/>
<polygon fill="midnightblue" stroke="midnightblue" points="1086.76,-190.84 1076.6,-187.83 1082.67,-196.52 1086.76,-190.84"/>
</g>
<!-- Node34&#45;&gt;Node23 -->
<g id="edge69" class="edge">
<title>Node34&#45;&gt;Node23</title>
<path fill="none" stroke="midnightblue" d="M935.33,-224.33C927.48,-211.18 911.31,-185.87 893.33,-168 881.45,-156.18 866.19,-145.2 853.66,-137.04"/>
<polygon fill="midnightblue" stroke="midnightblue" points="855.44,-134.02 845.12,-131.63 851.69,-139.93 855.44,-134.02"/>
</g>
<!-- Node34&#45;&gt;Node26 -->
<g id="edge70" class="edge">
<title>Node34&#45;&gt;Node26</title>
<path fill="none" stroke="midnightblue" d="M939.85,-224.08C938.43,-197.95 934.27,-121.21 932.34,-85.58"/>
<polygon fill="midnightblue" stroke="midnightblue" points="935.83,-85.36 931.8,-75.57 928.85,-85.74 935.83,-85.36"/>
</g>
<!-- Node34&#45;&gt;Node30 -->
<g id="edge68" class="edge">
<title>Node34&#45;&gt;Node30</title>
<path fill="none" stroke="midnightblue" d="M927.64,-224.32C915.43,-215.98 896.76,-203.21 882.33,-193.35"/>
<polygon fill="midnightblue" stroke="midnightblue" points="884.23,-190.41 874,-187.65 880.28,-196.19 884.23,-190.41"/>
</g>
<!-- Node35&#45;&gt;Node2 -->
<g id="edge77" class="edge">
<title>Node35&#45;&gt;Node2</title>
<path fill="none" stroke="midnightblue" d="M633.69,-224.44C555.25,-214.06 424.16,-196.71 348.68,-186.72"/>
<polygon fill="midnightblue" stroke="midnightblue" points="348.78,-183.21 338.41,-185.36 347.86,-190.14 348.78,-183.21"/>
</g>
<!-- Node35&#45;&gt;Node5 -->
<g id="edge74" class="edge">
<title>Node35&#45;&gt;Node5</title>
<path fill="none" stroke="midnightblue" d="M687.98,-224.48C669.26,-208.47 629.91,-171.88 610.33,-132 593.88,-98.47 588.71,-54.48 587.08,-29.83"/>
<polygon fill="midnightblue" stroke="midnightblue" points="590.57,-29.5 586.54,-19.7 583.58,-29.87 590.57,-29.5"/>
</g>
<!-- Node35&#45;&gt;Node23 -->
<g id="edge75" class="edge">
<title>Node35&#45;&gt;Node23</title>
<path fill="none" stroke="midnightblue" d="M699.94,-224.26C702.88,-210.58 710.36,-184 726.33,-168 742.1,-152.21 764.32,-141.57 784.17,-134.63"/>
<polygon fill="midnightblue" stroke="midnightblue" points="785.27,-137.95 793.69,-131.51 783.09,-131.3 785.27,-137.95"/>
</g>
<!-- Node35&#45;&gt;Node26 -->
<g id="edge76" class="edge">
<title>Node35&#45;&gt;Node26</title>
<path fill="none" stroke="midnightblue" d="M698.14,-224.48C698.2,-211.53 699.7,-186.47 709.33,-168 725.76,-136.51 735.54,-129.69 766.33,-112 797.35,-94.18 835.71,-83.17 867.64,-76.5"/>
<polygon fill="midnightblue" stroke="midnightblue" points="868.64,-79.87 877.76,-74.49 867.27,-73.01 868.64,-79.87"/>
</g>
<!-- Node35&#45;&gt;Node30 -->
<g id="edge73" class="edge">
<title>Node35&#45;&gt;Node30</title>
<path fill="none" stroke="midnightblue" d="M724.16,-224.44C752.23,-215.15 797.17,-200.26 827.91,-190.07"/>
<polygon fill="midnightblue" stroke="midnightblue" points="829.35,-193.28 837.74,-186.82 827.15,-186.64 829.35,-193.28"/>
</g>
<!-- Node35&#45;&gt;Node32 -->
<g id="edge78" class="edge">
<title>Node35&#45;&gt;Node32</title>
<path fill="none" stroke="midnightblue" d="M711.67,-224.32C724.5,-215.98 744.12,-203.21 759.27,-193.35"/>
<polygon fill="midnightblue" stroke="midnightblue" points="761.56,-196.04 768.03,-187.65 757.74,-190.17 761.56,-196.04"/>
</g>
</g>
</svg>
        <g id="navigator" transform="translate(0 0)" fill="#404254">
                <rect fill="#f2f5e9" fill-opacity="0.5" stroke="#606060" stroke-width=".5" x="0" y="0" width="60" height="60"/>
                <use id="zoomplus" xlink:href="#zoomPlus" x="17" y="9" onmousedown="handleZoom(evt,'in')"/>
                <use id="zoomminus" xlink:href="#zoomMin" x="42" y="9" onmousedown="handleZoom(evt,'out')"/>
                <use id="reset" xlink:href="#resetDef" x="30" y="36" onmousedown="handleReset()"/>
                <g id="arrowUp" xlink:href="#dirArrow" transform="translate(30 24)" onmousedown="handlePan(0,-1)">
                  <use xlink:href="#rim" fill="#404040">
                        <set attributeName="fill" to="#808080" begin="arrowUp.mouseover" end="arrowUp.mouseout"/>
                  </use>
                  <path fill="none" stroke="white" stroke-width="1.5" d="M0,-3.0v7 M-2.5,-0.5L0,-3.0L2.5,-0.5"/>
                </g>
                <g id="arrowRight" xlink:href="#dirArrow" transform="rotate(90) translate(36 -43)" onmousedown="handlePan(1,0)">
                  <use xlink:href="#rim" fill="#404040">
                        <set attributeName="fill" to="#808080" begin="arrowRight.mouseover" end="arrowRight.mouseout"/>
                  </use>
                  <path fill="none" stroke="white" stroke-width="1.5" d="M0,-3.0v7 M-2.5,-0.5L0,-3.0L2.5,-0.5"/>
                </g>
                <g id="arrowDown" xlink:href="#dirArrow" transform="rotate(180) translate(-30 -48)" onmousedown="handlePan(0,1)">
                  <use xlink:href="#rim" fill="#404040">
                        <set attributeName="fill" to="#808080" begin="arrowDown.mouseover" end="arrowDown.mouseout"/>
                  </use>
                  <path fill="none" stroke="white" stroke-width="1.5" d="M0,-3.0v7 M-2.5,-0.5L0,-3.0L2.5,-0.5"/>
                </g>
                <g id="arrowLeft" xlink:href="#dirArrow" transform="rotate(270) translate(-36 17)" onmousedown="handlePan(-1,0)">
                  <use xlink:href="#rim" fill="#404040">
                        <set attributeName="fill" to="#808080" begin="arrowLeft.mouseover" end="arrowLeft.mouseout"/>
                  </use>
                  <path fill="none" stroke="white" stroke-width="1.5" d="M0,-3.0v7 M-2.5,-0.5L0,-3.0L2.5,-0.5"/>
                </g>
        </g>
        <svg viewBox="0 0 15 15" width="100%" height="30px" preserveAspectRatio="xMaxYMin meet">
         <g id="arrow_out" transform="scale(0.3 0.3)">
          <a xlink:href="labs_2outlab4_2main_8cpp__incl_org.svg" target="_base">
           <rect id="button" ry="5" rx="5" y="6" x="6" height="38" width="38"
                fill="#f2f5e9" fill-opacity="0.5" stroke="#606060" stroke-width="1.0"/>
           <path id="arrow"
             d="M 11.500037,31.436501 C 11.940474,20.09759 22.043105,11.32322 32.158766,21.979434 L 37.068811,17.246167 C 37.068811,17.246167 37.088388,32 37.088388,32 L 22.160133,31.978069 C 22.160133,31.978069 26.997745,27.140456 26.997745,27.140456 C 18.528582,18.264221 13.291696,25.230495 11.500037,31.436501 z"
             style="fill:#404040;"/>
          </a>
         </g>
        </svg>
</svg>
