<?xml version="1.0" encoding="UTF-8" standalone="no"?>
<!DOCTYPE svg PUBLIC "-//W3C//DTD SVG 1.1//EN"
 "http://www.w3.org/Graphics/SVG/1.1/DTD/svg11.dtd">
<!-- Generated by graphviz version 2.43.0 (0)
 -->
<!-- Title: src/labs/outlab6/InputsOutputs.h Pages: 1 -->
<!--zoomable 565 -->
<svg id="main" version="1.1" xmlns="http://www.w3.org/2000/svg" xmlns:xlink="http://www.w3.org/1999/xlink" xml:space="preserve" onload="init(evt)">
<style type="text/css"><![CDATA[
.edge:hover path { stroke: red; }
.edge:hover polygon { stroke: red; fill: red; }
]]></style>
<script type="text/javascript"><![CDATA[
var edges = document.getElementsByTagName('g');
if (edges && edges.length) {
  for (var i=0;i<edges.length;i++) {
    if (edges[i].id.substr(0,4)=='edge') {
      edges[i].setAttribute('class','edge');
    }
  }
}
]]></script>
        <defs>
                <circle id="rim" cx="0" cy="0" r="7"/>
                <circle id="rim2" cx="0" cy="0" r="3.5"/>
                <g id="zoomPlus">
                        <use xlink:href="#rim" fill="#404040">
                                <set attributeName="fill" to="#808080" begin="zoomplus.mouseover" end="zoomplus.mouseout"/>
                        </use>
                        <path d="M-4,0h8M0,-4v8" fill="none" stroke="white" stroke-width="1.5" pointer-events="none"/>
                </g>
                <g id="zoomMin">
                        <use xlink:href="#rim" fill="#404040">
                                <set attributeName="fill" to="#808080" begin="zoomminus.mouseover" end="zoomminus.mouseout"/>
                        </use>
                        <path d="M-4,0h8" fill="none" stroke="white" stroke-width="1.5" pointer-events="none"/>
                </g>
                <g id="dirArrow">
                        <path fill="none" stroke="white" stroke-width="1.5" d="M0,-3.0v7 M-2.5,-0.5L0,-3.0L2.5,-0.5"/>
                </g>
               <g id="resetDef">
                       <use xlink:href="#rim2" fill="#404040">
                               <set attributeName="fill" to="#808080" begin="reset.mouseover" end="reset.mouseout"/>
                       </use>
               </g>
        </defs>

<script type="text/javascript">
var viewWidth = 1207;
var viewHeight = 565;
var sectionId = 'dynsection-0';
</script>
<script xlink:href="../../svgpan.js"/>
<svg id="graph" class="graph">
<g id="viewport">
<title>src/labs/outlab6/InputsOutputs.h</title>
<polygon fill="white" stroke="transparent" points="-4,4 -4,-561 1202.5,-561 1202.5,4 -4,4"/>
<!-- Node1 -->
<g id="node1" class="node">
<title>Node1</title>
<g id="a_node1"><a xlink:title="This file contains the input and output definitions for this project.">
<polygon fill="#bfbfbf" stroke="black" points="376.5,-537.5 376.5,-556.5 550.5,-556.5 550.5,-537.5 376.5,-537.5"/>
<text text-anchor="middle" x="463.5" y="-544.5" font-family="Helvetica,sans-Serif" font-size="10.00">src/labs/outlab6/InputsOutputs.h</text>
</a>
</g>
</g>
<!-- Node2 -->
<g id="node2" class="node">
<title>Node2</title>
<g id="a_node2"><a xlink:title=" ">
<polygon fill="white" stroke="#bfbfbf" points="0,-481.5 0,-500.5 45,-500.5 45,-481.5 0,-481.5"/>
<text text-anchor="middle" x="22.5" y="-488.5" font-family="Helvetica,sans-Serif" font-size="10.00">utility</text>
</a>
</g>
</g>
<!-- Node1&#45;&gt;Node2 -->
<g id="edge1" class="edge">
<title>Node1&#45;&gt;Node2</title>
<path fill="none" stroke="midnightblue" d="M376.35,-539.53C294.22,-532.67 167.92,-520.14 59.5,-501 58.04,-500.74 56.54,-500.46 55.04,-500.16"/>
<polygon fill="midnightblue" stroke="midnightblue" points="55.62,-496.7 45.1,-497.98 54.12,-503.54 55.62,-496.7"/>
</g>
<!-- Node3 -->
<g id="node3" class="node">
<title>Node3</title>
<g id="a_node3"><a xlink:title=" ">
<polygon fill="white" stroke="#bfbfbf" points="101.5,-358.5 101.5,-377.5 159.5,-377.5 159.5,-358.5 101.5,-358.5"/>
<text text-anchor="middle" x="130.5" y="-365.5" font-family="Helvetica,sans-Serif" font-size="10.00">json.hpp</text>
</a>
</g>
</g>
<!-- Node1&#45;&gt;Node3 -->
<g id="edge2" class="edge">
<title>Node1&#45;&gt;Node3</title>
<path fill="none" stroke="midnightblue" d="M437.79,-537.38C393.44,-522 300.41,-487.4 228.5,-445 198.1,-427.08 166.46,-400.95 147.62,-384.47"/>
<polygon fill="midnightblue" stroke="midnightblue" points="149.73,-381.66 139.92,-377.65 145.08,-386.9 149.73,-381.66"/>
</g>
<!-- Node4 -->
<g id="node4" class="node">
<title>Node4</title>
<g id="a_node4"><a xlink:href="../../df/dbd/LinearSolver_8h.html" target="_top" xlink:title="This file contains the definition of the LinearSolver class and its associated methods.">
<polygon fill="white" stroke="black" points="406.5,-481.5 406.5,-500.5 520.5,-500.5 520.5,-481.5 406.5,-481.5"/>
<text text-anchor="middle" x="463.5" y="-488.5" font-family="Helvetica,sans-Serif" font-size="10.00">math/LinearSolver.h</text>
</a>
</g>
</g>
<!-- Node1&#45;&gt;Node4 -->
<g id="edge3" class="edge">
<title>Node1&#45;&gt;Node4</title>
<path fill="none" stroke="midnightblue" d="M463.5,-537.08C463.5,-530.01 463.5,-519.86 463.5,-510.99"/>
<polygon fill="midnightblue" stroke="midnightblue" points="467,-510.75 463.5,-500.75 460,-510.75 467,-510.75"/>
</g>
<!-- Node6 -->
<g id="node6" class="node">
<title>Node6</title>
<g id="a_node6"><a xlink:href="../../d1/d80/BLAS_8h.html" target="_top" xlink:title=" ">
<polygon fill="white" stroke="black" points="568,-358.5 568,-377.5 671,-377.5 671,-358.5 568,-358.5"/>
<text text-anchor="middle" x="619.5" y="-365.5" font-family="Helvetica,sans-Serif" font-size="10.00">math/blas/BLAS.h</text>
</a>
</g>
</g>
<!-- Node1&#45;&gt;Node6 -->
<g id="edge57" class="edge">
<title>Node1&#45;&gt;Node6</title>
<path fill="none" stroke="midnightblue" d="M518.79,-537.45C570.82,-526.16 645.91,-500.72 681.5,-445 688.92,-433.39 687.76,-426.27 681.5,-414 674.5,-400.27 661.13,-389.75 648.6,-382.35"/>
<polygon fill="midnightblue" stroke="midnightblue" points="650.18,-379.22 639.72,-377.51 646.83,-385.37 650.18,-379.22"/>
</g>
<!-- Node8 -->
<g id="node8" class="node">
<title>Node8</title>
<g id="a_node8"><a xlink:href="../../d4/d8a/Ops_8h.html" target="_top" xlink:title="This file contains the definition of the L2Norm function, which calculates the L2 norm (Euclidean dis...">
<polygon fill="white" stroke="black" points="691.5,-302.5 691.5,-321.5 787.5,-321.5 787.5,-302.5 691.5,-302.5"/>
<text text-anchor="middle" x="739.5" y="-309.5" font-family="Helvetica,sans-Serif" font-size="10.00">math/blas/Ops.h</text>
</a>
</g>
</g>
<!-- Node1&#45;&gt;Node8 -->
<g id="edge59" class="edge">
<title>Node1&#45;&gt;Node8</title>
<path fill="none" stroke="midnightblue" d="M542.66,-537.46C577.02,-531.13 616.61,-520.13 648.5,-501 710.2,-463.99 730.92,-371.42 737.12,-331.64"/>
<polygon fill="midnightblue" stroke="midnightblue" points="740.62,-331.9 738.56,-321.51 733.69,-330.92 740.62,-331.9"/>
</g>
<!-- Node9 -->
<g id="node9" class="node">
<title>Node9</title>
<g id="a_node9"><a xlink:href="../../d3/db1/Matrix_8h.html" target="_top" xlink:title="Header file for the MyBLAS::Matrix class.">
<polygon fill="white" stroke="black" points="397.5,-241 397.5,-260 541.5,-260 541.5,-241 397.5,-241"/>
<text text-anchor="middle" x="469.5" y="-248" font-family="Helvetica,sans-Serif" font-size="10.00">math/blas/matrix/Matrix.h</text>
</a>
</g>
</g>
<!-- Node1&#45;&gt;Node9 -->
<g id="edge58" class="edge">
<title>Node1&#45;&gt;Node9</title>
<path fill="none" stroke="midnightblue" d="M376.46,-537.81C261.52,-524.55 73.5,-493.26 73.5,-430.5 73.5,-430.5 73.5,-430.5 73.5,-367 73.5,-302.26 271.01,-271.36 387.05,-258.79"/>
<polygon fill="midnightblue" stroke="midnightblue" points="387.75,-262.23 397.33,-257.7 387.01,-255.27 387.75,-262.23"/>
</g>
<!-- Node16 -->
<g id="node16" class="node">
<title>Node16</title>
<g id="a_node16"><a xlink:href="../../d6/dbe/Vector_8h.html" target="_top" xlink:title="Header file for the MyBLAS::Vector class.">
<polygon fill="white" stroke="black" points="738,-179.5 738,-198.5 879,-198.5 879,-179.5 738,-179.5"/>
<text text-anchor="middle" x="808.5" y="-186.5" font-family="Helvetica,sans-Serif" font-size="10.00">math/blas/vector/Vector.h</text>
</a>
</g>
</g>
<!-- Node1&#45;&gt;Node16 -->
<g id="edge60" class="edge">
<title>Node1&#45;&gt;Node16</title>
<path fill="none" stroke="midnightblue" d="M550.82,-538.52C720.33,-522.82 1077.5,-483.45 1077.5,-430.5 1077.5,-430.5 1077.5,-430.5 1077.5,-311 1077.5,-272.83 1068.11,-257.8 1037.5,-235 1014.24,-217.68 945.39,-205.66 889.2,-198.42"/>
<polygon fill="midnightblue" stroke="midnightblue" points="889.59,-194.95 879.23,-197.17 888.72,-201.89 889.59,-194.95"/>
</g>
<!-- Node5 -->
<g id="node5" class="node">
<title>Node5</title>
<g id="a_node5"><a xlink:href="../../d1/d6a/Factorize_8h.html" target="_top" xlink:title="This file contains the declaration of the MyFactorizationMethod namespace, which includes methods and...">
<polygon fill="white" stroke="black" points="566,-414.5 566,-444.5 673,-444.5 673,-414.5 566,-414.5"/>
<text text-anchor="start" x="574" y="-432.5" font-family="Helvetica,sans-Serif" font-size="10.00">math/factorization</text>
<text text-anchor="middle" x="619.5" y="-421.5" font-family="Helvetica,sans-Serif" font-size="10.00">/Factorize.h</text>
</a>
</g>
</g>
<!-- Node4&#45;&gt;Node5 -->
<g id="edge4" class="edge">
<title>Node4&#45;&gt;Node5</title>
<path fill="none" stroke="midnightblue" d="M485.85,-481.48C508.56,-472.81 544.4,-459.15 573.25,-448.14"/>
<polygon fill="midnightblue" stroke="midnightblue" points="574.64,-451.36 582.73,-444.52 572.14,-444.82 574.64,-451.36"/>
</g>
<!-- Node29 -->
<g id="node29" class="node">
<title>Node29</title>
<g id="a_node29"><a xlink:href="../../d0/d24/RelaxationMethods_8h.html" target="_top" xlink:title="This file contains the declaration of the RelaxationMethods namespace, which includes the Type enumer...">
<polygon fill="white" stroke="black" points="329.5,-414.5 329.5,-444.5 479.5,-444.5 479.5,-414.5 329.5,-414.5"/>
<text text-anchor="start" x="337.5" y="-432.5" font-family="Helvetica,sans-Serif" font-size="10.00">math/relaxation/Relaxation</text>
<text text-anchor="middle" x="404.5" y="-421.5" font-family="Helvetica,sans-Serif" font-size="10.00">Methods.h</text>
</a>
</g>
</g>
<!-- Node4&#45;&gt;Node29 -->
<g id="edge45" class="edge">
<title>Node4&#45;&gt;Node29</title>
<path fill="none" stroke="midnightblue" d="M455.05,-481.48C447.35,-473.72 435.68,-461.94 425.49,-451.66"/>
<polygon fill="midnightblue" stroke="midnightblue" points="427.93,-449.16 418.41,-444.52 422.96,-454.09 427.93,-449.16"/>
</g>
<!-- Node30 -->
<g id="node30" class="node">
<title>Node30</title>
<g id="a_node30"><a xlink:href="../../dc/d09/Stats_8h.html" target="_top" xlink:title="This file contains the declaration of statistical functions and structures for vectors and matrices.">
<polygon fill="white" stroke="black" points="237.5,-420 237.5,-439 311.5,-439 311.5,-420 237.5,-420"/>
<text text-anchor="middle" x="274.5" y="-427" font-family="Helvetica,sans-Serif" font-size="10.00">blas/Stats.h</text>
</a>
</g>
</g>
<!-- Node4&#45;&gt;Node30 -->
<g id="edge46" class="edge">
<title>Node4&#45;&gt;Node30</title>
<path fill="none" stroke="midnightblue" d="M436.35,-481.46C407.59,-472.41 360.84,-457.71 320.5,-445 317.56,-444.07 314.51,-443.11 311.45,-442.15"/>
<polygon fill="midnightblue" stroke="midnightblue" points="312.33,-438.76 301.74,-439.09 310.23,-445.43 312.33,-438.76"/>
</g>
<!-- Node33 -->
<g id="node33" class="node">
<title>Node33</title>
<g id="a_node33"><a xlink:title=" ">
<polygon fill="white" stroke="#bfbfbf" points="497,-420 497,-439 548,-439 548,-420 497,-420"/>
<text text-anchor="middle" x="522.5" y="-427" font-family="Helvetica,sans-Serif" font-size="10.00">variant</text>
</a>
</g>
</g>
<!-- Node4&#45;&gt;Node33 -->
<g id="edge56" class="edge">
<title>Node4&#45;&gt;Node33</title>
<path fill="none" stroke="midnightblue" d="M471.95,-481.48C481.07,-472.28 495.77,-457.46 506.98,-446.16"/>
<polygon fill="midnightblue" stroke="midnightblue" points="509.51,-448.57 514.06,-439.01 504.54,-443.65 509.51,-448.57"/>
</g>
<!-- Node5&#45;&gt;Node6 -->
<g id="edge5" class="edge">
<title>Node5&#45;&gt;Node6</title>
<path fill="none" stroke="midnightblue" d="M619.5,-414.4C619.5,-406.47 619.5,-396.46 619.5,-387.86"/>
<polygon fill="midnightblue" stroke="midnightblue" points="623,-387.66 619.5,-377.66 616,-387.66 623,-387.66"/>
</g>
<!-- Node5&#45;&gt;Node9 -->
<g id="edge43" class="edge">
<title>Node5&#45;&gt;Node9</title>
<path fill="none" stroke="midnightblue" d="M601,-414.38C588.58,-404.61 572.07,-391.07 558.5,-378 534.47,-354.85 527.81,-349.21 508.5,-322 496.52,-305.11 485.35,-284.17 478.06,-269.52"/>
<polygon fill="midnightblue" stroke="midnightblue" points="481.01,-267.57 473.49,-260.11 474.71,-270.64 481.01,-267.57"/>
</g>
<!-- Node5&#45;&gt;Node16 -->
<g id="edge44" class="edge">
<title>Node5&#45;&gt;Node16</title>
<path fill="none" stroke="midnightblue" d="M673,-424.95C762.79,-415.77 941.7,-382.96 1020.5,-266 1055.61,-213.89 963.11,-197.26 889.37,-192.09"/>
<polygon fill="midnightblue" stroke="midnightblue" points="889.31,-188.58 879.11,-191.44 888.86,-195.57 889.31,-188.58"/>
</g>
<!-- Node7 -->
<g id="node7" class="node">
<title>Node7</title>
<g id="a_node7"><a xlink:title=" ">
<polygon fill="white" stroke="#bfbfbf" points="518,-302.5 518,-321.5 565,-321.5 565,-302.5 518,-302.5"/>
<text text-anchor="middle" x="541.5" y="-309.5" font-family="Helvetica,sans-Serif" font-size="10.00">cmath</text>
</a>
</g>
</g>
<!-- Node6&#45;&gt;Node7 -->
<g id="edge6" class="edge">
<title>Node6&#45;&gt;Node7</title>
<path fill="none" stroke="midnightblue" d="M606.97,-358.32C594.91,-349.98 576.47,-337.21 562.23,-327.35"/>
<polygon fill="midnightblue" stroke="midnightblue" points="564.22,-324.47 554,-321.65 560.23,-330.22 564.22,-324.47"/>
</g>
<!-- Node6&#45;&gt;Node8 -->
<g id="edge7" class="edge">
<title>Node6&#45;&gt;Node8</title>
<path fill="none" stroke="midnightblue" d="M638.51,-358.44C658.09,-349.64 688.81,-335.81 711.23,-325.72"/>
<polygon fill="midnightblue" stroke="midnightblue" points="712.89,-328.81 720.57,-321.52 710.02,-322.43 712.89,-328.81"/>
</g>
<!-- Node6&#45;&gt;Node9 -->
<g id="edge41" class="edge">
<title>Node6&#45;&gt;Node9</title>
<path fill="none" stroke="midnightblue" d="M615.23,-358.37C608.18,-344.84 592.9,-318.45 573.5,-302 553.46,-285 526.71,-272.18 505.36,-263.71"/>
<polygon fill="midnightblue" stroke="midnightblue" points="506.56,-260.42 495.97,-260.12 504.06,-266.96 506.56,-260.42"/>
</g>
<!-- Node6&#45;&gt;Node16 -->
<g id="edge42" class="edge">
<title>Node6&#45;&gt;Node16</title>
<path fill="none" stroke="midnightblue" d="M620.41,-358.19C623.31,-334.7 634.42,-269.99 671.5,-235 689.26,-218.24 713.39,-207.71 736.44,-201.11"/>
<polygon fill="midnightblue" stroke="midnightblue" points="737.46,-204.46 746.23,-198.51 735.67,-197.69 737.46,-204.46"/>
</g>
<!-- Node8&#45;&gt;Node9 -->
<g id="edge8" class="edge">
<title>Node8&#45;&gt;Node9</title>
<path fill="none" stroke="midnightblue" d="M700.82,-302.48C652.7,-291.87 570.51,-273.76 518.17,-262.22"/>
<polygon fill="midnightblue" stroke="midnightblue" points="518.63,-258.74 508.11,-260.01 517.13,-265.58 518.63,-258.74"/>
</g>
<!-- Node8&#45;&gt;Node16 -->
<g id="edge37" class="edge">
<title>Node8&#45;&gt;Node16</title>
<path fill="none" stroke="midnightblue" d="M720.52,-302.4C706.61,-294.95 688.79,-282.74 680.5,-266 674.39,-253.65 672.54,-246.24 680.5,-235 692.03,-218.72 709.94,-208.29 728.75,-201.62"/>
<polygon fill="midnightblue" stroke="midnightblue" points="729.88,-204.93 738.33,-198.54 727.74,-198.26 729.88,-204.93"/>
</g>
<!-- Node26 -->
<g id="node26" class="node">
<title>Node26</title>
<g id="a_node26"><a xlink:title=" ">
<polygon fill="white" stroke="#bfbfbf" points="689.5,-235.5 689.5,-265.5 805.5,-265.5 805.5,-235.5 689.5,-235.5"/>
<text text-anchor="start" x="697.5" y="-253.5" font-family="Helvetica,sans-Serif" font-size="10.00">boost/numeric/ublas</text>
<text text-anchor="middle" x="747.5" y="-242.5" font-family="Helvetica,sans-Serif" font-size="10.00">/io.hpp</text>
</a>
</g>
</g>
<!-- Node8&#45;&gt;Node26 -->
<g id="edge38" class="edge">
<title>Node8&#45;&gt;Node26</title>
<path fill="none" stroke="midnightblue" d="M740.65,-302.48C741.59,-295.47 742.97,-285.19 744.25,-275.7"/>
<polygon fill="midnightblue" stroke="midnightblue" points="747.75,-275.9 745.61,-265.52 740.81,-274.97 747.75,-275.9"/>
</g>
<!-- Node27 -->
<g id="node27" class="node">
<title>Node27</title>
<g id="a_node27"><a xlink:title=" ">
<polygon fill="white" stroke="#bfbfbf" points="823.5,-235.5 823.5,-265.5 939.5,-265.5 939.5,-235.5 823.5,-235.5"/>
<text text-anchor="start" x="831.5" y="-253.5" font-family="Helvetica,sans-Serif" font-size="10.00">boost/numeric/ublas</text>
<text text-anchor="middle" x="881.5" y="-242.5" font-family="Helvetica,sans-Serif" font-size="10.00">/matrix.hpp</text>
</a>
</g>
</g>
<!-- Node8&#45;&gt;Node27 -->
<g id="edge39" class="edge">
<title>Node8&#45;&gt;Node27</title>
<path fill="none" stroke="midnightblue" d="M759.85,-302.48C780.34,-293.89 812.57,-280.38 838.71,-269.43"/>
<polygon fill="midnightblue" stroke="midnightblue" points="840.16,-272.62 848.03,-265.52 837.46,-266.16 840.16,-272.62"/>
</g>
<!-- Node28 -->
<g id="node28" class="node">
<title>Node28</title>
<g id="a_node28"><a xlink:title=" ">
<polygon fill="white" stroke="#bfbfbf" points="957.5,-241 957.5,-260 1011.5,-260 1011.5,-241 957.5,-241"/>
<text text-anchor="middle" x="984.5" y="-248" font-family="Helvetica,sans-Serif" font-size="10.00">random</text>
</a>
</g>
</g>
<!-- Node8&#45;&gt;Node28 -->
<g id="edge40" class="edge">
<title>Node8&#45;&gt;Node28</title>
<path fill="none" stroke="midnightblue" d="M787.83,-303.02C830.58,-295.38 894.38,-282.59 948.5,-266 950.78,-265.3 953.12,-264.52 955.46,-263.68"/>
<polygon fill="midnightblue" stroke="midnightblue" points="956.81,-266.92 964.91,-260.09 954.32,-260.37 956.81,-266.92"/>
</g>
<!-- Node10 -->
<g id="node10" class="node">
<title>Node10</title>
<g id="a_node10"><a xlink:title=" ">
<polygon fill="white" stroke="#bfbfbf" points="384.5,-62 384.5,-81 448.5,-81 448.5,-62 384.5,-62"/>
<text text-anchor="middle" x="416.5" y="-69" font-family="Helvetica,sans-Serif" font-size="10.00">algorithm</text>
</a>
</g>
</g>
<!-- Node9&#45;&gt;Node10 -->
<g id="edge9" class="edge">
<title>Node9&#45;&gt;Node10</title>
<path fill="none" stroke="midnightblue" d="M466.94,-240.96C458.81,-213.81 433.42,-129.01 422.08,-91.12"/>
<polygon fill="midnightblue" stroke="midnightblue" points="425.38,-89.94 419.16,-81.37 418.67,-91.95 425.38,-89.94"/>
</g>
<!-- Node11 -->
<g id="node11" class="node">
<title>Node11</title>
<g id="a_node11"><a xlink:title=" ">
<polygon fill="white" stroke="#bfbfbf" points="710.5,-123.5 710.5,-142.5 762.5,-142.5 762.5,-123.5 710.5,-123.5"/>
<text text-anchor="middle" x="736.5" y="-130.5" font-family="Helvetica,sans-Serif" font-size="10.00">cassert</text>
</a>
</g>
</g>
<!-- Node9&#45;&gt;Node11 -->
<g id="edge10" class="edge">
<title>Node9&#45;&gt;Node11</title>
<path fill="none" stroke="midnightblue" d="M489.57,-240.82C536.26,-220.62 652.38,-170.39 707.09,-146.72"/>
<polygon fill="midnightblue" stroke="midnightblue" points="708.77,-149.81 716.56,-142.62 706,-143.38 708.77,-149.81"/>
</g>
<!-- Node12 -->
<g id="node12" class="node">
<title>Node12</title>
<g id="a_node12"><a xlink:title=" ">
<polygon fill="white" stroke="#bfbfbf" points="780.5,-123.5 780.5,-142.5 840.5,-142.5 840.5,-123.5 780.5,-123.5"/>
<text text-anchor="middle" x="810.5" y="-130.5" font-family="Helvetica,sans-Serif" font-size="10.00">iostream</text>
</a>
</g>
</g>
<!-- Node9&#45;&gt;Node12 -->
<g id="edge11" class="edge">
<title>Node9&#45;&gt;Node12</title>
<path fill="none" stroke="midnightblue" d="M495.62,-240.92C525.92,-230.93 577.38,-213.92 621.5,-199 675.66,-180.69 738.4,-159.02 776.24,-145.9"/>
<polygon fill="midnightblue" stroke="midnightblue" points="777.46,-149.18 785.76,-142.6 775.17,-142.57 777.46,-149.18"/>
</g>
<!-- Node13 -->
<g id="node13" class="node">
<title>Node13</title>
<g id="a_node13"><a xlink:title=" ">
<polygon fill="white" stroke="#bfbfbf" points="482,-123.5 482,-142.5 529,-142.5 529,-123.5 482,-123.5"/>
<text text-anchor="middle" x="505.5" y="-130.5" font-family="Helvetica,sans-Serif" font-size="10.00">vector</text>
</a>
</g>
</g>
<!-- Node9&#45;&gt;Node13 -->
<g id="edge12" class="edge">
<title>Node9&#45;&gt;Node13</title>
<path fill="none" stroke="midnightblue" d="M472.21,-240.82C478.02,-222.17 491.8,-177.94 499.69,-152.63"/>
<polygon fill="midnightblue" stroke="midnightblue" points="503.13,-153.37 502.76,-142.78 496.45,-151.29 503.13,-153.37"/>
</g>
<!-- Node14 -->
<g id="node14" class="node">
<title>Node14</title>
<g id="a_node14"><a xlink:title=" ">
<polygon fill="white" stroke="#bfbfbf" points="467.5,-62 467.5,-81 553.5,-81 553.5,-62 467.5,-62"/>
<text text-anchor="middle" x="510.5" y="-69" font-family="Helvetica,sans-Serif" font-size="10.00">unordered_set</text>
</a>
</g>
</g>
<!-- Node9&#45;&gt;Node14 -->
<g id="edge13" class="edge">
<title>Node9&#45;&gt;Node14</title>
<path fill="none" stroke="midnightblue" d="M467.95,-240.9C464.55,-219.99 457.86,-165.12 472.5,-123 476.97,-110.14 486.02,-97.89 494.18,-88.68"/>
<polygon fill="midnightblue" stroke="midnightblue" points="496.96,-90.82 501.25,-81.13 491.86,-86.03 496.96,-90.82"/>
</g>
<!-- Node15 -->
<g id="node15" class="node">
<title>Node15</title>
<g id="a_node15"><a xlink:href="../../d1/d45/Constants_8h.html" target="_top" xlink:title="MyBLAS Constants definition.">
<polygon fill="white" stroke="black" points="265.5,-179.5 265.5,-198.5 391.5,-198.5 391.5,-179.5 265.5,-179.5"/>
<text text-anchor="middle" x="328.5" y="-186.5" font-family="Helvetica,sans-Serif" font-size="10.00">math/blas/Constants.h</text>
</a>
</g>
</g>
<!-- Node9&#45;&gt;Node15 -->
<g id="edge14" class="edge">
<title>Node9&#45;&gt;Node15</title>
<path fill="none" stroke="midnightblue" d="M449.3,-240.98C425.43,-230.9 385.5,-214.05 358.13,-202.5"/>
<polygon fill="midnightblue" stroke="midnightblue" points="359.24,-199.17 348.66,-198.51 356.52,-205.62 359.24,-199.17"/>
</g>
<!-- Node9&#45;&gt;Node16 -->
<g id="edge15" class="edge">
<title>Node9&#45;&gt;Node16</title>
<path fill="none" stroke="midnightblue" d="M518.07,-240.98C579.24,-230.24 684.26,-211.81 749.84,-200.29"/>
<polygon fill="midnightblue" stroke="midnightblue" points="750.78,-203.69 760.02,-198.51 749.57,-196.79 750.78,-203.69"/>
</g>
<!-- Node24 -->
<g id="node24" class="node">
<title>Node24</title>
<g id="a_node24"><a xlink:href="../../dc/dc5/ResourceMonitor_8h.html" target="_top" xlink:title="Header file for the ResourceMonitor class.">
<polygon fill="white" stroke="black" points="547,-123.5 547,-142.5 692,-142.5 692,-123.5 547,-123.5"/>
<text text-anchor="middle" x="619.5" y="-130.5" font-family="Helvetica,sans-Serif" font-size="10.00">profiler/ResourceMonitor.h</text>
</a>
</g>
</g>
<!-- Node9&#45;&gt;Node24 -->
<g id="edge36" class="edge">
<title>Node9&#45;&gt;Node24</title>
<path fill="none" stroke="midnightblue" d="M480.77,-240.82C506.18,-221.25 568.18,-173.52 599.98,-149.03"/>
<polygon fill="midnightblue" stroke="midnightblue" points="602.31,-151.66 608.09,-142.78 598.04,-146.11 602.31,-151.66"/>
</g>
<!-- Node16&#45;&gt;Node11 -->
<g id="edge16" class="edge">
<title>Node16&#45;&gt;Node11</title>
<path fill="none" stroke="midnightblue" d="M796.93,-179.32C786.08,-171.18 769.62,-158.84 756.62,-149.09"/>
<polygon fill="midnightblue" stroke="midnightblue" points="758.38,-146.03 748.28,-142.83 754.18,-151.63 758.38,-146.03"/>
</g>
<!-- Node16&#45;&gt;Node12 -->
<g id="edge19" class="edge">
<title>Node16&#45;&gt;Node12</title>
<path fill="none" stroke="midnightblue" d="M808.83,-179.08C809.09,-172.01 809.47,-161.86 809.8,-152.99"/>
<polygon fill="midnightblue" stroke="midnightblue" points="813.3,-152.87 810.18,-142.75 806.31,-152.61 813.3,-152.87"/>
</g>
<!-- Node16&#45;&gt;Node13 -->
<g id="edge20" class="edge">
<title>Node16&#45;&gt;Node13</title>
<path fill="none" stroke="midnightblue" d="M745.15,-179.49C692.36,-171.94 615.02,-159.82 539.37,-143.24"/>
<polygon fill="midnightblue" stroke="midnightblue" points="539.71,-139.73 529.19,-140.98 538.2,-146.56 539.71,-139.73"/>
</g>
<!-- Node17 -->
<g id="node17" class="node">
<title>Node17</title>
<g id="a_node17"><a xlink:title=" ">
<polygon fill="white" stroke="#bfbfbf" points="722,-62 722,-81 787,-81 787,-62 722,-62"/>
<text text-anchor="middle" x="754.5" y="-69" font-family="Helvetica,sans-Serif" font-size="10.00">functional</text>
</a>
</g>
</g>
<!-- Node16&#45;&gt;Node17 -->
<g id="edge17" class="edge">
<title>Node16&#45;&gt;Node17</title>
<path fill="none" stroke="midnightblue" d="M820.74,-179.45C836.85,-167.09 861.8,-143.47 849.5,-123 842.28,-110.99 810.88,-95.7 786.12,-85.11"/>
<polygon fill="midnightblue" stroke="midnightblue" points="787.27,-81.8 776.69,-81.16 784.56,-88.25 787.27,-81.8"/>
</g>
<!-- Node18 -->
<g id="node18" class="node">
<title>Node18</title>
<g id="a_node18"><a xlink:title=" ">
<polygon fill="white" stroke="#bfbfbf" points="992.5,-123.5 992.5,-142.5 1048.5,-142.5 1048.5,-123.5 992.5,-123.5"/>
<text text-anchor="middle" x="1020.5" y="-130.5" font-family="Helvetica,sans-Serif" font-size="10.00">iomanip</text>
</a>
</g>
</g>
<!-- Node16&#45;&gt;Node18 -->
<g id="edge18" class="edge">
<title>Node16&#45;&gt;Node18</title>
<path fill="none" stroke="midnightblue" d="M842.09,-179.44C880.33,-169.7 942.64,-153.83 982.59,-143.66"/>
<polygon fill="midnightblue" stroke="midnightblue" points="983.65,-147 992.48,-141.14 981.93,-140.21 983.65,-147"/>
</g>
<!-- Node19 -->
<g id="node19" class="node">
<title>Node19</title>
<g id="a_node19"><a xlink:href="../../de/dcb/LazyVector_8h.html" target="_top" xlink:title="Header file for the LazyVector class.">
<polygon fill="white" stroke="black" points="896.5,-123.5 896.5,-142.5 974.5,-142.5 974.5,-123.5 896.5,-123.5"/>
<text text-anchor="middle" x="935.5" y="-130.5" font-family="Helvetica,sans-Serif" font-size="10.00">LazyVector.h</text>
</a>
</g>
</g>
<!-- Node16&#45;&gt;Node19 -->
<g id="edge21" class="edge">
<title>Node16&#45;&gt;Node19</title>
<path fill="none" stroke="midnightblue" d="M823.53,-179.44C842.57,-170.52 875.45,-156.44 900.76,-146.32"/>
<polygon fill="midnightblue" stroke="midnightblue" points="902.37,-149.44 910.39,-142.52 899.8,-142.93 902.37,-149.44"/>
</g>
<!-- Node16&#45;&gt;Node24 -->
<g id="edge31" class="edge">
<title>Node16&#45;&gt;Node24</title>
<path fill="none" stroke="midnightblue" d="M778.55,-179.44C746.34,-170.24 694.97,-155.56 659.36,-145.39"/>
<polygon fill="midnightblue" stroke="midnightblue" points="659.88,-141.9 649.31,-142.52 657.96,-148.63 659.88,-141.9"/>
</g>
<!-- Node19&#45;&gt;Node10 -->
<g id="edge22" class="edge">
<title>Node19&#45;&gt;Node10</title>
<path fill="none" stroke="midnightblue" d="M896.12,-127.77C881.49,-126.23 864.74,-124.5 849.5,-123 675.83,-105.92 629.1,-123.74 458.5,-87 455,-86.25 451.39,-85.29 447.82,-84.23"/>
<polygon fill="midnightblue" stroke="midnightblue" points="448.61,-80.8 438.02,-81.04 446.44,-87.46 448.61,-80.8"/>
</g>
<!-- Node19&#45;&gt;Node16 -->
<g id="edge26" class="edge">
<title>Node19&#45;&gt;Node16</title>
<path fill="none" stroke="midnightblue" d="M920.55,-142.52C901.47,-151.47 868.39,-165.63 843.02,-175.77"/>
<polygon fill="midnightblue" stroke="midnightblue" points="841.73,-172.52 833.71,-179.44 844.3,-179.03 841.73,-172.52"/>
</g>
<!-- Node19&#45;&gt;Node17 -->
<g id="edge24" class="edge">
<title>Node19&#45;&gt;Node17</title>
<path fill="none" stroke="midnightblue" d="M908.06,-123.44C879.78,-114.55 834.45,-100.14 795.5,-87 793.06,-86.18 790.54,-85.31 788.01,-84.44"/>
<polygon fill="midnightblue" stroke="midnightblue" points="788.9,-81.04 778.31,-81.05 786.59,-87.65 788.9,-81.04"/>
</g>
<!-- Node20 -->
<g id="node20" class="node">
<title>Node20</title>
<g id="a_node20"><a xlink:title=" ">
<polygon fill="white" stroke="#bfbfbf" points="906,-0.5 906,-19.5 959,-19.5 959,-0.5 906,-0.5"/>
<text text-anchor="middle" x="932.5" y="-7.5" font-family="Helvetica,sans-Serif" font-size="10.00">cstddef</text>
</a>
</g>
</g>
<!-- Node19&#45;&gt;Node20 -->
<g id="edge23" class="edge">
<title>Node19&#45;&gt;Node20</title>
<path fill="none" stroke="midnightblue" d="M943.17,-123.46C950.28,-114.93 960.35,-101.09 964.5,-87 968.39,-73.78 968.69,-69.12 964.5,-56 961.16,-45.54 954.4,-35.43 947.95,-27.45"/>
<polygon fill="midnightblue" stroke="midnightblue" points="950.44,-24.98 941.25,-19.71 945.15,-29.56 950.44,-24.98"/>
</g>
<!-- Node21 -->
<g id="node21" class="node">
<title>Node21</title>
<g id="a_node21"><a xlink:title=" ">
<polygon fill="white" stroke="#bfbfbf" points="1140.5,-62 1140.5,-81 1198.5,-81 1198.5,-62 1140.5,-62"/>
<text text-anchor="middle" x="1169.5" y="-69" font-family="Helvetica,sans-Serif" font-size="10.00">memory</text>
</a>
</g>
</g>
<!-- Node19&#45;&gt;Node21 -->
<g id="edge25" class="edge">
<title>Node19&#45;&gt;Node21</title>
<path fill="none" stroke="midnightblue" d="M974.59,-124.69C1014.46,-116.85 1077.89,-103.3 1131.5,-87 1134.07,-86.22 1136.72,-85.35 1139.36,-84.43"/>
<polygon fill="midnightblue" stroke="midnightblue" points="1140.58,-87.72 1148.77,-81 1138.18,-81.14 1140.58,-87.72"/>
</g>
<!-- Node22 -->
<g id="node22" class="node">
<title>Node22</title>
<g id="a_node22"><a xlink:href="../../d6/d9f/VectorExpression_8h.html" target="_top" xlink:title="Header file for the MyBLAS::VectorExpression class.">
<polygon fill="white" stroke="black" points="1012.5,-62 1012.5,-81 1122.5,-81 1122.5,-62 1012.5,-62"/>
<text text-anchor="middle" x="1067.5" y="-69" font-family="Helvetica,sans-Serif" font-size="10.00">VectorExpression.h</text>
</a>
</g>
</g>
<!-- Node19&#45;&gt;Node22 -->
<g id="edge27" class="edge">
<title>Node19&#45;&gt;Node22</title>
<path fill="none" stroke="midnightblue" d="M954.41,-123.48C976.66,-113.45 1013.81,-96.7 1039.43,-85.15"/>
<polygon fill="midnightblue" stroke="midnightblue" points="1040.94,-88.31 1048.62,-81.01 1038.07,-81.93 1040.94,-88.31"/>
</g>
<!-- Node23 -->
<g id="node23" class="node">
<title>Node23</title>
<g id="a_node23"><a xlink:href="../../d6/db1/ContainerExpression_8h.html" target="_top" xlink:title="Header file for the ContainerExpression class.">
<polygon fill="white" stroke="black" points="805,-56.5 805,-86.5 956,-86.5 956,-56.5 805,-56.5"/>
<text text-anchor="start" x="813" y="-74.5" font-family="Helvetica,sans-Serif" font-size="10.00">math/blas/matrix/Container</text>
<text text-anchor="middle" x="880.5" y="-63.5" font-family="Helvetica,sans-Serif" font-size="10.00">Expression.h</text>
</a>
</g>
</g>
<!-- Node19&#45;&gt;Node23 -->
<g id="edge29" class="edge">
<title>Node19&#45;&gt;Node23</title>
<path fill="none" stroke="midnightblue" d="M927.62,-123.48C920.52,-115.79 909.78,-104.17 900.34,-93.96"/>
<polygon fill="midnightblue" stroke="midnightblue" points="902.82,-91.49 893.46,-86.52 897.68,-96.24 902.82,-91.49"/>
</g>
<!-- Node22&#45;&gt;Node20 -->
<g id="edge28" class="edge">
<title>Node22&#45;&gt;Node20</title>
<path fill="none" stroke="midnightblue" d="M1048.16,-61.98C1025.4,-51.95 987.41,-35.2 961.21,-23.65"/>
<polygon fill="midnightblue" stroke="midnightblue" points="962.37,-20.34 951.81,-19.51 959.55,-26.74 962.37,-20.34"/>
</g>
<!-- Node23&#45;&gt;Node20 -->
<g id="edge30" class="edge">
<title>Node23&#45;&gt;Node20</title>
<path fill="none" stroke="midnightblue" d="M892.82,-56.4C900.46,-47.66 910.29,-36.41 918.26,-27.3"/>
<polygon fill="midnightblue" stroke="midnightblue" points="920.99,-29.49 924.93,-19.66 915.72,-24.88 920.99,-29.49"/>
</g>
<!-- Node24&#45;&gt;Node10 -->
<g id="edge32" class="edge">
<title>Node24&#45;&gt;Node10</title>
<path fill="none" stroke="midnightblue" d="M586.65,-123.43C553.99,-114.78 502.55,-100.75 458.5,-87 455.74,-86.14 452.88,-85.22 450.03,-84.27"/>
<polygon fill="midnightblue" stroke="midnightblue" points="451,-80.91 440.41,-81.03 448.76,-87.54 451,-80.91"/>
</g>
<!-- Node24&#45;&gt;Node14 -->
<g id="edge34" class="edge">
<title>Node24&#45;&gt;Node14</title>
<path fill="none" stroke="midnightblue" d="M603.88,-123.48C585.91,-113.67 556.18,-97.43 535.09,-85.92"/>
<polygon fill="midnightblue" stroke="midnightblue" points="536.54,-82.73 526.09,-81.01 533.19,-88.87 536.54,-82.73"/>
</g>
<!-- Node24&#45;&gt;Node20 -->
<g id="edge33" class="edge">
<title>Node24&#45;&gt;Node20</title>
<path fill="none" stroke="midnightblue" d="M629.88,-123.29C653.13,-103.82 707.77,-58.25 712.5,-56 772.65,-27.43 850.47,-16.95 895.61,-13.14"/>
<polygon fill="midnightblue" stroke="midnightblue" points="896.11,-16.61 905.81,-12.35 895.56,-9.63 896.11,-16.61"/>
</g>
<!-- Node25 -->
<g id="node25" class="node">
<title>Node25</title>
<g id="a_node25"><a xlink:title=" ">
<polygon fill="white" stroke="#bfbfbf" points="572,-62 572,-81 665,-81 665,-62 572,-62"/>
<text text-anchor="middle" x="618.5" y="-69" font-family="Helvetica,sans-Serif" font-size="10.00">unordered_map</text>
</a>
</g>
</g>
<!-- Node24&#45;&gt;Node25 -->
<g id="edge35" class="edge">
<title>Node24&#45;&gt;Node25</title>
<path fill="none" stroke="midnightblue" d="M619.36,-123.48C619.22,-115.08 619,-101.98 618.81,-91.16"/>
<polygon fill="midnightblue" stroke="midnightblue" points="622.31,-90.95 618.64,-81.01 615.31,-91.07 622.31,-90.95"/>
</g>
<!-- Node30&#45;&gt;Node3 -->
<g id="edge55" class="edge">
<title>Node30&#45;&gt;Node3</title>
<path fill="none" stroke="midnightblue" d="M253.87,-419.98C229.38,-409.86 188.35,-392.9 160.39,-381.35"/>
<polygon fill="midnightblue" stroke="midnightblue" points="161.67,-378.09 151.09,-377.51 159,-384.56 161.67,-378.09"/>
</g>
<!-- Node30&#45;&gt;Node6 -->
<g id="edge52" class="edge">
<title>Node30&#45;&gt;Node6</title>
<path fill="none" stroke="midnightblue" d="M299.13,-419.96C305.99,-417.79 313.48,-415.62 320.5,-414 401.6,-395.24 496.96,-382.45 557.79,-375.44"/>
<polygon fill="midnightblue" stroke="midnightblue" points="558.45,-378.89 567.99,-374.28 557.66,-371.93 558.45,-378.89"/>
</g>
<!-- Node30&#45;&gt;Node7 -->
<g id="edge48" class="edge">
<title>Node30&#45;&gt;Node7</title>
<path fill="none" stroke="midnightblue" d="M300.69,-419.94C307.14,-417.91 314.05,-415.81 320.5,-414 384.42,-396.01 406.46,-408.39 465.5,-378 489.73,-365.53 512.81,-343.92 527.05,-329.06"/>
<polygon fill="midnightblue" stroke="midnightblue" points="529.74,-331.31 534,-321.61 524.62,-326.53 529.74,-331.31"/>
</g>
<!-- Node30&#45;&gt;Node9 -->
<g id="edge53" class="edge">
<title>Node30&#45;&gt;Node9</title>
<path fill="none" stroke="midnightblue" d="M298.17,-419.99C327.44,-409.15 375.16,-390.34 389.5,-378 419.78,-351.94 416.14,-335.76 437.5,-302 444.49,-290.95 452.35,-278.54 458.53,-268.79"/>
<polygon fill="midnightblue" stroke="midnightblue" points="461.66,-270.4 464.06,-260.08 455.75,-266.65 461.66,-270.4"/>
</g>
<!-- Node30&#45;&gt;Node10 -->
<g id="edge47" class="edge">
<title>Node30&#45;&gt;Node10</title>
<path fill="none" stroke="midnightblue" d="M257.18,-419.86C241.7,-411.27 219.52,-396.71 206.5,-378 189.3,-353.3 187.5,-343.1 187.5,-313 187.5,-313 187.5,-313 187.5,-188 187.5,-105.37 307.83,-81.84 374.04,-75.15"/>
<polygon fill="midnightblue" stroke="midnightblue" points="374.54,-78.62 384.18,-74.22 373.9,-71.65 374.54,-78.62"/>
</g>
<!-- Node30&#45;&gt;Node13 -->
<g id="edge51" class="edge">
<title>Node30&#45;&gt;Node13</title>
<path fill="none" stroke="midnightblue" d="M300.8,-419.94C319.74,-412.24 343.92,-398.87 355.5,-378 359.81,-370.23 357.94,-366.55 355.5,-358 330.51,-270.59 198.21,-248.77 256.5,-179 283.54,-146.64 410.05,-137.51 471.64,-134.96"/>
<polygon fill="midnightblue" stroke="midnightblue" points="472.13,-138.45 481.99,-134.57 471.87,-131.45 472.13,-138.45"/>
</g>
<!-- Node30&#45;&gt;Node16 -->
<g id="edge54" class="edge">
<title>Node30&#45;&gt;Node16</title>
<path fill="none" stroke="midnightblue" d="M301.26,-419.93C335.82,-408.67 393.85,-389.03 413.5,-378 460.65,-351.53 462.87,-331.01 508.5,-302 565.36,-265.85 581.5,-258.91 644.5,-235 682.27,-220.66 726.52,-208.79 759.54,-200.85"/>
<polygon fill="midnightblue" stroke="midnightblue" points="760.48,-204.23 769.4,-198.52 758.86,-197.42 760.48,-204.23"/>
</g>
<!-- Node31 -->
<g id="node31" class="node">
<title>Node31</title>
<g id="a_node31"><a xlink:title=" ">
<polygon fill="white" stroke="#bfbfbf" points="215.5,-358.5 215.5,-377.5 271.5,-377.5 271.5,-358.5 215.5,-358.5"/>
<text text-anchor="middle" x="243.5" y="-365.5" font-family="Helvetica,sans-Serif" font-size="10.00">numeric</text>
</a>
</g>
</g>
<!-- Node30&#45;&gt;Node31 -->
<g id="edge49" class="edge">
<title>Node30&#45;&gt;Node31</title>
<path fill="none" stroke="midnightblue" d="M270.06,-419.98C265.55,-411.32 258.43,-397.65 252.69,-386.65"/>
<polygon fill="midnightblue" stroke="midnightblue" points="255.66,-384.76 247.93,-377.51 249.45,-387.99 255.66,-384.76"/>
</g>
<!-- Node32 -->
<g id="node32" class="node">
<title>Node32</title>
<g id="a_node32"><a xlink:title=" ">
<polygon fill="white" stroke="#bfbfbf" points="290,-358.5 290,-377.5 347,-377.5 347,-358.5 290,-358.5"/>
<text text-anchor="middle" x="318.5" y="-365.5" font-family="Helvetica,sans-Serif" font-size="10.00">ostream</text>
</a>
</g>
</g>
<!-- Node30&#45;&gt;Node32 -->
<g id="edge50" class="edge">
<title>Node30&#45;&gt;Node32</title>
<path fill="none" stroke="midnightblue" d="M280.8,-419.98C287.4,-411.05 297.94,-396.81 306.19,-385.64"/>
<polygon fill="midnightblue" stroke="midnightblue" points="309.08,-387.63 312.21,-377.51 303.45,-383.47 309.08,-387.63"/>
</g>
</g>
</svg>
        <g id="navigator" transform="translate(0 0)" fill="#404254">
                <rect fill="#f2f5e9" fill-opacity="0.5" stroke="#606060" stroke-width=".5" x="0" y="0" width="60" height="60"/>
                <use id="zoomplus" xlink:href="#zoomPlus" x="17" y="9" onmousedown="handleZoom(evt,'in')"/>
                <use id="zoomminus" xlink:href="#zoomMin" x="42" y="9" onmousedown="handleZoom(evt,'out')"/>
                <use id="reset" xlink:href="#resetDef" x="30" y="36" onmousedown="handleReset()"/>
                <g id="arrowUp" xlink:href="#dirArrow" transform="translate(30 24)" onmousedown="handlePan(0,-1)">
                  <use xlink:href="#rim" fill="#404040">
                        <set attributeName="fill" to="#808080" begin="arrowUp.mouseover" end="arrowUp.mouseout"/>
                  </use>
                  <path fill="none" stroke="white" stroke-width="1.5" d="M0,-3.0v7 M-2.5,-0.5L0,-3.0L2.5,-0.5"/>
                </g>
                <g id="arrowRight" xlink:href="#dirArrow" transform="rotate(90) translate(36 -43)" onmousedown="handlePan(1,0)">
                  <use xlink:href="#rim" fill="#404040">
                        <set attributeName="fill" to="#808080" begin="arrowRight.mouseover" end="arrowRight.mouseout"/>
                  </use>
                  <path fill="none" stroke="white" stroke-width="1.5" d="M0,-3.0v7 M-2.5,-0.5L0,-3.0L2.5,-0.5"/>
                </g>
                <g id="arrowDown" xlink:href="#dirArrow" transform="rotate(180) translate(-30 -48)" onmousedown="handlePan(0,1)">
                  <use xlink:href="#rim" fill="#404040">
                        <set attributeName="fill" to="#808080" begin="arrowDown.mouseover" end="arrowDown.mouseout"/>
                  </use>
                  <path fill="none" stroke="white" stroke-width="1.5" d="M0,-3.0v7 M-2.5,-0.5L0,-3.0L2.5,-0.5"/>
                </g>
                <g id="arrowLeft" xlink:href="#dirArrow" transform="rotate(270) translate(-36 17)" onmousedown="handlePan(-1,0)">
                  <use xlink:href="#rim" fill="#404040">
                        <set attributeName="fill" to="#808080" begin="arrowLeft.mouseover" end="arrowLeft.mouseout"/>
                  </use>
                  <path fill="none" stroke="white" stroke-width="1.5" d="M0,-3.0v7 M-2.5,-0.5L0,-3.0L2.5,-0.5"/>
                </g>
        </g>
        <svg viewBox="0 0 15 15" width="100%" height="30px" preserveAspectRatio="xMaxYMin meet">
         <g id="arrow_out" transform="scale(0.3 0.3)">
          <a xlink:href="labs_2outlab6_2InputsOutputs_8h__incl_org.svg" target="_base">
           <rect id="button" ry="5" rx="5" y="6" x="6" height="38" width="38"
                fill="#f2f5e9" fill-opacity="0.5" stroke="#606060" stroke-width="1.0"/>
           <path id="arrow"
             d="M 11.500037,31.436501 C 11.940474,20.09759 22.043105,11.32322 32.158766,21.979434 L 37.068811,17.246167 C 37.068811,17.246167 37.088388,32 37.088388,32 L 22.160133,31.978069 C 22.160133,31.978069 26.997745,27.140456 26.997745,27.140456 C 18.528582,18.264221 13.291696,25.230495 11.500037,31.436501 z"
             style="fill:#404040;"/>
          </a>
         </g>
        </svg>
</svg>
