<?xml version="1.0" encoding="UTF-8" standalone="no"?>
<!DOCTYPE svg PUBLIC "-//W3C//DTD SVG 1.1//EN"
 "http://www.w3.org/Graphics/SVG/1.1/DTD/svg11.dtd">
<!-- Generated by graphviz version 2.43.0 (0)
 -->
<!-- Title: src/labs/outlab6/InputsOutputs.h Pages: 1 -->
<svg width="1046pt" height="487pt"
 viewBox="0.00 0.00 1045.50 487.00" xmlns="http://www.w3.org/2000/svg" xmlns:xlink="http://www.w3.org/1999/xlink">
<g id="graph0" class="graph" transform="scale(1 1) rotate(0) translate(4 483)">
<title>src/labs/outlab6/InputsOutputs.h</title>
<polygon fill="white" stroke="transparent" points="-4,4 -4,-483 1041.5,-483 1041.5,4 -4,4"/>
<!-- Node1 -->
<g id="node1" class="node">
<title>Node1</title>
<g id="a_node1"><a xlink:title="This file contains the input and output definitions for this project.">
<polygon fill="#bfbfbf" stroke="black" points="269.5,-459.5 269.5,-478.5 443.5,-478.5 443.5,-459.5 269.5,-459.5"/>
<text text-anchor="middle" x="356.5" y="-466.5" font-family="Helvetica,sans-Serif" font-size="10.00">src/labs/outlab6/InputsOutputs.h</text>
</a>
</g>
</g>
<!-- Node2 -->
<g id="node2" class="node">
<title>Node2</title>
<g id="a_node2"><a xlink:title=" ">
<polygon fill="white" stroke="#bfbfbf" points="0,-403.5 0,-422.5 45,-422.5 45,-403.5 0,-403.5"/>
<text text-anchor="middle" x="22.5" y="-410.5" font-family="Helvetica,sans-Serif" font-size="10.00">utility</text>
</a>
</g>
</g>
<!-- Node1&#45;&gt;Node2 -->
<g id="edge1" class="edge">
<title>Node1&#45;&gt;Node2</title>
<path fill="none" stroke="midnightblue" d="M281.25,-459.47C222.2,-452.15 137.81,-440.35 54.97,-422.85"/>
<polygon fill="midnightblue" stroke="midnightblue" points="55.65,-419.42 45.14,-420.75 54.18,-426.26 55.65,-419.42"/>
</g>
<!-- Node3 -->
<g id="node3" class="node">
<title>Node3</title>
<g id="a_node3"><a xlink:title=" ">
<polygon fill="white" stroke="#bfbfbf" points="63.5,-403.5 63.5,-422.5 121.5,-422.5 121.5,-403.5 63.5,-403.5"/>
<text text-anchor="middle" x="92.5" y="-410.5" font-family="Helvetica,sans-Serif" font-size="10.00">json.hpp</text>
</a>
</g>
</g>
<!-- Node1&#45;&gt;Node3 -->
<g id="edge2" class="edge">
<title>Node1&#45;&gt;Node3</title>
<path fill="none" stroke="midnightblue" d="M314.12,-459.44C269.62,-450.44 197.62,-435.83 135.5,-423 134.24,-422.74 132.96,-422.47 131.66,-422.21"/>
<polygon fill="midnightblue" stroke="midnightblue" points="132.14,-418.73 121.64,-420.12 130.72,-425.58 132.14,-418.73"/>
</g>
<!-- Node4 -->
<g id="node4" class="node">
<title>Node4</title>
<g id="a_node4"><a xlink:href="../../df/dbd/LinearSolver_8h.html" target="_top" xlink:title="This file contains the definition of the LinearSolver class and its associated methods.">
<polygon fill="white" stroke="black" points="299.5,-403.5 299.5,-422.5 413.5,-422.5 413.5,-403.5 299.5,-403.5"/>
<text text-anchor="middle" x="356.5" y="-410.5" font-family="Helvetica,sans-Serif" font-size="10.00">math/LinearSolver.h</text>
</a>
</g>
</g>
<!-- Node1&#45;&gt;Node4 -->
<g id="edge3" class="edge">
<title>Node1&#45;&gt;Node4</title>
<path fill="none" stroke="midnightblue" d="M356.5,-459.08C356.5,-452.01 356.5,-441.86 356.5,-432.99"/>
<polygon fill="midnightblue" stroke="midnightblue" points="360,-432.75 356.5,-422.75 353,-432.75 360,-432.75"/>
</g>
<!-- Node6 -->
<g id="node6" class="node">
<title>Node6</title>
<g id="a_node6"><a xlink:href="../../d1/d80/BLAS_8h.html" target="_top" xlink:title=" ">
<polygon fill="white" stroke="black" points="518,-280.5 518,-299.5 621,-299.5 621,-280.5 518,-280.5"/>
<text text-anchor="middle" x="569.5" y="-287.5" font-family="Helvetica,sans-Serif" font-size="10.00">math/blas/BLAS.h</text>
</a>
</g>
</g>
<!-- Node1&#45;&gt;Node6 -->
<g id="edge39" class="edge">
<title>Node1&#45;&gt;Node6</title>
<path fill="none" stroke="midnightblue" d="M443.66,-461.21C506.74,-451.21 587.92,-426.72 629.5,-367 637.37,-355.69 635.66,-348.32 629.5,-336 622.77,-322.54 609.89,-312.07 597.79,-304.62"/>
<polygon fill="midnightblue" stroke="midnightblue" points="599.22,-301.41 588.8,-299.52 595.77,-307.5 599.22,-301.41"/>
</g>
<!-- Node8 -->
<g id="node8" class="node">
<title>Node8</title>
<g id="a_node8"><a xlink:href="../../d3/db1/Matrix_8h.html" target="_top" xlink:title="This file contains my BLAS::Matrix declarations.">
<polygon fill="white" stroke="black" points="303.5,-224.5 303.5,-243.5 447.5,-243.5 447.5,-224.5 303.5,-224.5"/>
<text text-anchor="middle" x="375.5" y="-231.5" font-family="Helvetica,sans-Serif" font-size="10.00">math/blas/matrix/Matrix.h</text>
</a>
</g>
</g>
<!-- Node1&#45;&gt;Node8 -->
<g id="edge40" class="edge">
<title>Node1&#45;&gt;Node8</title>
<path fill="none" stroke="midnightblue" d="M319.24,-459.5C261.15,-443.99 157.41,-406.04 175.5,-336 182.62,-308.46 184.07,-297.5 206.5,-280 231.23,-260.7 263.53,-249.65 293.25,-243.33"/>
<polygon fill="midnightblue" stroke="midnightblue" points="294.09,-246.73 303.22,-241.36 292.73,-239.87 294.09,-246.73"/>
</g>
<!-- Node14 -->
<g id="node14" class="node">
<title>Node14</title>
<g id="a_node14"><a xlink:href="../../d6/dbe/Vector_8h.html" target="_top" xlink:title="This file contains my BLAS::Vector implementation.">
<polygon fill="white" stroke="black" points="512,-168.5 512,-187.5 653,-187.5 653,-168.5 512,-168.5"/>
<text text-anchor="middle" x="582.5" y="-175.5" font-family="Helvetica,sans-Serif" font-size="10.00">math/blas/vector/Vector.h</text>
</a>
</g>
</g>
<!-- Node1&#45;&gt;Node14 -->
<g id="edge45" class="edge">
<title>Node1&#45;&gt;Node14</title>
<path fill="none" stroke="midnightblue" d="M443.63,-461.25C489.97,-455.28 547.03,-444.07 594.5,-423 641.91,-401.96 687.5,-404.37 687.5,-352.5 687.5,-352.5 687.5,-352.5 687.5,-289 687.5,-244.02 640.99,-210.19 609.88,-192.59"/>
<polygon fill="midnightblue" stroke="midnightblue" points="611.25,-189.35 600.79,-187.65 607.91,-195.5 611.25,-189.35"/>
</g>
<!-- Node25 -->
<g id="node25" class="node">
<title>Node25</title>
<g id="a_node25"><a xlink:href="../../d4/d8a/Ops_8h.html" target="_top" xlink:title="This file contains the definition of the L2Norm function, which calculates the L2 norm (Euclidean dis...">
<polygon fill="white" stroke="black" points="776.5,-403.5 776.5,-422.5 872.5,-422.5 872.5,-403.5 776.5,-403.5"/>
<text text-anchor="middle" x="824.5" y="-410.5" font-family="Helvetica,sans-Serif" font-size="10.00">math/blas/Ops.h</text>
</a>
</g>
</g>
<!-- Node1&#45;&gt;Node25 -->
<g id="edge41" class="edge">
<title>Node1&#45;&gt;Node25</title>
<path fill="none" stroke="midnightblue" d="M430.4,-459.47C523.46,-448.73 681.44,-430.51 766.37,-420.71"/>
<polygon fill="midnightblue" stroke="midnightblue" points="766.82,-424.18 776.35,-419.56 766.02,-417.22 766.82,-424.18"/>
</g>
<!-- Node5 -->
<g id="node5" class="node">
<title>Node5</title>
<g id="a_node5"><a xlink:href="../../d1/d6a/Factorize_8h.html" target="_top" xlink:title="This file contains the declaration of the MyFactorizationMethod namespace, which includes methods and...">
<polygon fill="white" stroke="black" points="514,-336.5 514,-366.5 621,-366.5 621,-336.5 514,-336.5"/>
<text text-anchor="start" x="522" y="-354.5" font-family="Helvetica,sans-Serif" font-size="10.00">math/factorization</text>
<text text-anchor="middle" x="567.5" y="-343.5" font-family="Helvetica,sans-Serif" font-size="10.00">/Factorize.h</text>
</a>
</g>
</g>
<!-- Node4&#45;&gt;Node5 -->
<g id="edge4" class="edge">
<title>Node4&#45;&gt;Node5</title>
<path fill="none" stroke="midnightblue" d="M386.73,-403.48C418.25,-394.59 468.46,-380.43 507.97,-369.29"/>
<polygon fill="midnightblue" stroke="midnightblue" points="509.1,-372.61 517.77,-366.52 507.2,-365.87 509.1,-372.61"/>
</g>
<!-- Node20 -->
<g id="node20" class="node">
<title>Node20</title>
<g id="a_node20"><a xlink:href="../../d0/d24/RelaxationMethods_8h.html" target="_top" xlink:title="This file contains the declaration of the RelaxationMethods namespace, which includes the Type enumer...">
<polygon fill="white" stroke="black" points="346.5,-336.5 346.5,-366.5 496.5,-366.5 496.5,-336.5 346.5,-336.5"/>
<text text-anchor="start" x="354.5" y="-354.5" font-family="Helvetica,sans-Serif" font-size="10.00">math/relaxation/Relaxation</text>
<text text-anchor="middle" x="421.5" y="-343.5" font-family="Helvetica,sans-Serif" font-size="10.00">Methods.h</text>
</a>
</g>
</g>
<!-- Node4&#45;&gt;Node20 -->
<g id="edge28" class="edge">
<title>Node4&#45;&gt;Node20</title>
<path fill="none" stroke="midnightblue" d="M365.81,-403.48C374.37,-395.64 387.4,-383.71 398.71,-373.37"/>
<polygon fill="midnightblue" stroke="midnightblue" points="401.17,-375.86 406.18,-366.52 396.44,-370.69 401.17,-375.86"/>
</g>
<!-- Node21 -->
<g id="node21" class="node">
<title>Node21</title>
<g id="a_node21"><a xlink:href="../../dc/d09/Stats_8h.html" target="_top" xlink:title="This file contains the declaration of statistical functions and structures for vectors and matrices.">
<polygon fill="white" stroke="black" points="254.5,-342 254.5,-361 328.5,-361 328.5,-342 254.5,-342"/>
<text text-anchor="middle" x="291.5" y="-349" font-family="Helvetica,sans-Serif" font-size="10.00">blas/Stats.h</text>
</a>
</g>
</g>
<!-- Node4&#45;&gt;Node21 -->
<g id="edge29" class="edge">
<title>Node4&#45;&gt;Node21</title>
<path fill="none" stroke="midnightblue" d="M347.19,-403.48C337.05,-394.2 320.64,-379.17 308.25,-367.83"/>
<polygon fill="midnightblue" stroke="midnightblue" points="310.54,-365.18 300.8,-361.01 305.81,-370.34 310.54,-365.18"/>
</g>
<!-- Node24 -->
<g id="node24" class="node">
<title>Node24</title>
<g id="a_node24"><a xlink:title=" ">
<polygon fill="white" stroke="#bfbfbf" points="185,-342 185,-361 236,-361 236,-342 185,-342"/>
<text text-anchor="middle" x="210.5" y="-349" font-family="Helvetica,sans-Serif" font-size="10.00">variant</text>
</a>
</g>
</g>
<!-- Node4&#45;&gt;Node24 -->
<g id="edge38" class="edge">
<title>Node4&#45;&gt;Node24</title>
<path fill="none" stroke="midnightblue" d="M335.2,-403.42C312.84,-394.4 276.67,-379.77 245.5,-367 243.91,-366.35 242.28,-365.68 240.63,-365"/>
<polygon fill="midnightblue" stroke="midnightblue" points="241.8,-361.69 231.22,-361.11 239.12,-368.16 241.8,-361.69"/>
</g>
<!-- Node5&#45;&gt;Node6 -->
<g id="edge5" class="edge">
<title>Node5&#45;&gt;Node6</title>
<path fill="none" stroke="midnightblue" d="M567.97,-336.4C568.24,-328.47 568.58,-318.46 568.87,-309.86"/>
<polygon fill="midnightblue" stroke="midnightblue" points="572.37,-309.77 569.21,-299.66 565.37,-309.53 572.37,-309.77"/>
</g>
<!-- Node5&#45;&gt;Node8 -->
<g id="edge26" class="edge">
<title>Node5&#45;&gt;Node8</title>
<path fill="none" stroke="midnightblue" d="M543.96,-336.34C507,-314.11 435.81,-271.28 398.93,-249.09"/>
<polygon fill="midnightblue" stroke="midnightblue" points="400.28,-245.83 389.91,-243.67 396.68,-251.82 400.28,-245.83"/>
</g>
<!-- Node5&#45;&gt;Node14 -->
<g id="edge27" class="edge">
<title>Node5&#45;&gt;Node14</title>
<path fill="none" stroke="midnightblue" d="M594.06,-336.47C607.33,-327.88 622.11,-315.55 629.5,-300 646.82,-263.56 616.93,-218.92 597.39,-195.36"/>
<polygon fill="midnightblue" stroke="midnightblue" points="599.95,-192.97 590.77,-187.69 594.66,-197.55 599.95,-192.97"/>
</g>
<!-- Node7 -->
<g id="node7" class="node">
<title>Node7</title>
<g id="a_node7"><a xlink:title=" ">
<polygon fill="white" stroke="#bfbfbf" points="505,-224.5 505,-243.5 552,-243.5 552,-224.5 505,-224.5"/>
<text text-anchor="middle" x="528.5" y="-231.5" font-family="Helvetica,sans-Serif" font-size="10.00">cmath</text>
</a>
</g>
</g>
<!-- Node6&#45;&gt;Node7 -->
<g id="edge6" class="edge">
<title>Node6&#45;&gt;Node7</title>
<path fill="none" stroke="midnightblue" d="M562.73,-280.08C556.94,-272.46 548.44,-261.26 541.36,-251.94"/>
<polygon fill="midnightblue" stroke="midnightblue" points="543.98,-249.6 535.14,-243.75 538.4,-253.83 543.98,-249.6"/>
</g>
<!-- Node6&#45;&gt;Node8 -->
<g id="edge7" class="edge">
<title>Node6&#45;&gt;Node8</title>
<path fill="none" stroke="midnightblue" d="M538.76,-280.44C505.56,-271.2 452.51,-256.44 415.94,-246.26"/>
<polygon fill="midnightblue" stroke="midnightblue" points="416.67,-242.83 406.1,-243.52 414.79,-249.57 416.67,-242.83"/>
</g>
<!-- Node6&#45;&gt;Node14 -->
<g id="edge25" class="edge">
<title>Node6&#45;&gt;Node14</title>
<path fill="none" stroke="midnightblue" d="M570.52,-280.37C572.62,-262.62 577.46,-221.67 580.3,-197.6"/>
<polygon fill="midnightblue" stroke="midnightblue" points="583.79,-197.93 581.48,-187.59 576.84,-197.11 583.79,-197.93"/>
</g>
<!-- Node9 -->
<g id="node9" class="node">
<title>Node9</title>
<g id="a_node9"><a xlink:title=" ">
<polygon fill="white" stroke="#bfbfbf" points="367.5,-56.5 367.5,-75.5 431.5,-75.5 431.5,-56.5 367.5,-56.5"/>
<text text-anchor="middle" x="399.5" y="-63.5" font-family="Helvetica,sans-Serif" font-size="10.00">algorithm</text>
</a>
</g>
</g>
<!-- Node8&#45;&gt;Node9 -->
<g id="edge8" class="edge">
<title>Node8&#45;&gt;Node9</title>
<path fill="none" stroke="midnightblue" d="M378.49,-224.49C381.51,-215.53 386.06,-200.95 388.5,-188 395.24,-152.19 397.89,-109.62 398.9,-85.71"/>
<polygon fill="midnightblue" stroke="midnightblue" points="402.41,-85.71 399.28,-75.59 395.41,-85.45 402.41,-85.71"/>
</g>
<!-- Node10 -->
<g id="node10" class="node">
<title>Node10</title>
<g id="a_node10"><a xlink:title=" ">
<polygon fill="white" stroke="#bfbfbf" points="427.5,-112.5 427.5,-131.5 479.5,-131.5 479.5,-112.5 427.5,-112.5"/>
<text text-anchor="middle" x="453.5" y="-119.5" font-family="Helvetica,sans-Serif" font-size="10.00">cassert</text>
</a>
</g>
</g>
<!-- Node8&#45;&gt;Node10 -->
<g id="edge9" class="edge">
<title>Node8&#45;&gt;Node10</title>
<path fill="none" stroke="midnightblue" d="M386.39,-224.23C396.43,-215.74 411.28,-202.11 421.5,-188 432.1,-173.37 440.87,-154.7 446.54,-141.13"/>
<polygon fill="midnightblue" stroke="midnightblue" points="449.92,-142.09 450.39,-131.51 443.42,-139.49 449.92,-142.09"/>
</g>
<!-- Node11 -->
<g id="node11" class="node">
<title>Node11</title>
<g id="a_node11"><a xlink:title=" ">
<polygon fill="white" stroke="#bfbfbf" points="497.5,-112.5 497.5,-131.5 557.5,-131.5 557.5,-112.5 497.5,-112.5"/>
<text text-anchor="middle" x="527.5" y="-119.5" font-family="Helvetica,sans-Serif" font-size="10.00">iostream</text>
</a>
</g>
</g>
<!-- Node8&#45;&gt;Node11 -->
<g id="edge10" class="edge">
<title>Node8&#45;&gt;Node11</title>
<path fill="none" stroke="midnightblue" d="M388.78,-224.22C402.2,-215.29 423.48,-200.94 441.5,-188 464.8,-171.27 491.03,-151.27 508.33,-137.91"/>
<polygon fill="midnightblue" stroke="midnightblue" points="510.73,-140.48 516.5,-131.59 506.45,-134.94 510.73,-140.48"/>
</g>
<!-- Node12 -->
<g id="node12" class="node">
<title>Node12</title>
<g id="a_node12"><a xlink:title=" ">
<polygon fill="white" stroke="#bfbfbf" points="202,-112.5 202,-131.5 249,-131.5 249,-112.5 202,-112.5"/>
<text text-anchor="middle" x="225.5" y="-119.5" font-family="Helvetica,sans-Serif" font-size="10.00">vector</text>
</a>
</g>
</g>
<!-- Node8&#45;&gt;Node12 -->
<g id="edge11" class="edge">
<title>Node8&#45;&gt;Node12</title>
<path fill="none" stroke="midnightblue" d="M314.1,-224.46C289.52,-218.13 262.76,-207.13 244.5,-188 232.71,-175.65 228.19,-156.4 226.47,-142.05"/>
<polygon fill="midnightblue" stroke="midnightblue" points="229.94,-141.49 225.62,-131.82 222.96,-142.08 229.94,-141.49"/>
</g>
<!-- Node13 -->
<g id="node13" class="node">
<title>Node13</title>
<g id="a_node13"><a xlink:href="../../d1/d45/Constants_8h.html" target="_top" xlink:title="MyBLAS Constants definition.">
<polygon fill="white" stroke="black" points="253.5,-168.5 253.5,-187.5 379.5,-187.5 379.5,-168.5 253.5,-168.5"/>
<text text-anchor="middle" x="316.5" y="-175.5" font-family="Helvetica,sans-Serif" font-size="10.00">math/blas/Constants.h</text>
</a>
</g>
</g>
<!-- Node8&#45;&gt;Node13 -->
<g id="edge12" class="edge">
<title>Node8&#45;&gt;Node13</title>
<path fill="none" stroke="midnightblue" d="M366.02,-224.32C357.3,-216.34 344.16,-204.31 333.6,-194.65"/>
<polygon fill="midnightblue" stroke="midnightblue" points="335.89,-192 326.15,-187.83 331.17,-197.17 335.89,-192"/>
</g>
<!-- Node8&#45;&gt;Node14 -->
<g id="edge13" class="edge">
<title>Node8&#45;&gt;Node14</title>
<path fill="none" stroke="midnightblue" d="M408.3,-224.44C443.88,-215.16 500.81,-200.31 539.85,-190.13"/>
<polygon fill="midnightblue" stroke="midnightblue" points="541.06,-193.43 549.85,-187.52 539.29,-186.65 541.06,-193.43"/>
</g>
<!-- Node14&#45;&gt;Node10 -->
<g id="edge20" class="edge">
<title>Node14&#45;&gt;Node10</title>
<path fill="none" stroke="midnightblue" d="M562.06,-168.44C540.83,-159.56 507.4,-145.56 483.25,-135.45"/>
<polygon fill="midnightblue" stroke="midnightblue" points="484.42,-132.15 473.84,-131.52 481.72,-138.61 484.42,-132.15"/>
</g>
<!-- Node14&#45;&gt;Node11 -->
<g id="edge23" class="edge">
<title>Node14&#45;&gt;Node11</title>
<path fill="none" stroke="midnightblue" d="M573.42,-168.08C565.33,-160.14 553.3,-148.34 543.59,-138.8"/>
<polygon fill="midnightblue" stroke="midnightblue" points="546,-136.26 536.41,-131.75 541.1,-141.25 546,-136.26"/>
</g>
<!-- Node14&#45;&gt;Node12 -->
<g id="edge24" class="edge">
<title>Node14&#45;&gt;Node12</title>
<path fill="none" stroke="midnightblue" d="M525.93,-168.44C450.85,-157.09 320.62,-137.39 259.29,-128.11"/>
<polygon fill="midnightblue" stroke="midnightblue" points="259.77,-124.64 249.36,-126.61 258.72,-131.57 259.77,-124.64"/>
</g>
<!-- Node15 -->
<g id="node15" class="node">
<title>Node15</title>
<g id="a_node15"><a xlink:href="../../de/dcb/LazyVector_8h.html" target="_top" xlink:title="TODO:: DOCUMENT.">
<polygon fill="white" stroke="black" points="649.5,-112.5 649.5,-131.5 727.5,-131.5 727.5,-112.5 649.5,-112.5"/>
<text text-anchor="middle" x="688.5" y="-119.5" font-family="Helvetica,sans-Serif" font-size="10.00">LazyVector.h</text>
</a>
</g>
</g>
<!-- Node14&#45;&gt;Node15 -->
<g id="edge14" class="edge">
<title>Node14&#45;&gt;Node15</title>
<path fill="none" stroke="midnightblue" d="M599.53,-168.32C616.53,-159.66 642.88,-146.24 662.49,-136.25"/>
<polygon fill="midnightblue" stroke="midnightblue" points="664.19,-139.31 671.51,-131.65 661.01,-133.08 664.19,-139.31"/>
</g>
<!-- Node17 -->
<g id="node17" class="node">
<title>Node17</title>
<g id="a_node17"><a xlink:title=" ">
<polygon fill="white" stroke="#bfbfbf" points="752,-56.5 752,-75.5 817,-75.5 817,-56.5 752,-56.5"/>
<text text-anchor="middle" x="784.5" y="-63.5" font-family="Helvetica,sans-Serif" font-size="10.00">functional</text>
</a>
</g>
</g>
<!-- Node14&#45;&gt;Node17 -->
<g id="edge21" class="edge">
<title>Node14&#45;&gt;Node17</title>
<path fill="none" stroke="midnightblue" d="M644.26,-168.43C674.13,-162.03 709.32,-150.98 736.5,-132 753.88,-119.86 767.47,-99.4 775.68,-84.68"/>
<polygon fill="midnightblue" stroke="midnightblue" points="778.92,-86.05 780.49,-75.57 772.73,-82.78 778.92,-86.05"/>
</g>
<!-- Node19 -->
<g id="node19" class="node">
<title>Node19</title>
<g id="a_node19"><a xlink:title=" ">
<polygon fill="white" stroke="#bfbfbf" points="575.5,-112.5 575.5,-131.5 631.5,-131.5 631.5,-112.5 575.5,-112.5"/>
<text text-anchor="middle" x="603.5" y="-119.5" font-family="Helvetica,sans-Serif" font-size="10.00">iomanip</text>
</a>
</g>
</g>
<!-- Node14&#45;&gt;Node19 -->
<g id="edge22" class="edge">
<title>Node14&#45;&gt;Node19</title>
<path fill="none" stroke="midnightblue" d="M585.97,-168.08C588.81,-160.77 592.93,-150.18 596.46,-141.1"/>
<polygon fill="midnightblue" stroke="midnightblue" points="599.73,-142.34 600.1,-131.75 593.21,-139.8 599.73,-142.34"/>
</g>
<!-- Node15&#45;&gt;Node9 -->
<g id="edge15" class="edge">
<title>Node15&#45;&gt;Node9</title>
<path fill="none" stroke="midnightblue" d="M649.47,-113.68C646.43,-113.11 643.42,-112.55 640.5,-112 570.93,-98.98 490.04,-83.89 441.91,-74.91"/>
<polygon fill="midnightblue" stroke="midnightblue" points="442.33,-71.43 431.86,-73.03 441.04,-78.31 442.33,-71.43"/>
</g>
<!-- Node16 -->
<g id="node16" class="node">
<title>Node16</title>
<g id="a_node16"><a xlink:title=" ">
<polygon fill="white" stroke="#bfbfbf" points="610,-0.5 610,-19.5 663,-19.5 663,-0.5 610,-0.5"/>
<text text-anchor="middle" x="636.5" y="-7.5" font-family="Helvetica,sans-Serif" font-size="10.00">cstddef</text>
</a>
</g>
</g>
<!-- Node15&#45;&gt;Node16 -->
<g id="edge16" class="edge">
<title>Node15&#45;&gt;Node16</title>
<path fill="none" stroke="midnightblue" d="M661.57,-112.36C644.78,-105.41 624.52,-93.82 614.5,-76 605.96,-60.81 614.36,-41.76 623.13,-28.22"/>
<polygon fill="midnightblue" stroke="midnightblue" points="626.14,-30.03 629.06,-19.84 620.42,-25.99 626.14,-30.03"/>
</g>
<!-- Node15&#45;&gt;Node17 -->
<g id="edge17" class="edge">
<title>Node15&#45;&gt;Node17</title>
<path fill="none" stroke="midnightblue" d="M703.92,-112.32C719.04,-103.82 742.32,-90.73 759.97,-80.8"/>
<polygon fill="midnightblue" stroke="midnightblue" points="762.11,-83.61 769.11,-75.65 758.68,-77.51 762.11,-83.61"/>
</g>
<!-- Node18 -->
<g id="node18" class="node">
<title>Node18</title>
<g id="a_node18"><a xlink:href="../../d6/d9f/VectorExpression_8h.html" target="_top" xlink:title="TODO:: DOCUMENT.">
<polygon fill="white" stroke="black" points="623.5,-56.5 623.5,-75.5 733.5,-75.5 733.5,-56.5 623.5,-56.5"/>
<text text-anchor="middle" x="678.5" y="-63.5" font-family="Helvetica,sans-Serif" font-size="10.00">VectorExpression.h</text>
</a>
</g>
</g>
<!-- Node15&#45;&gt;Node18 -->
<g id="edge18" class="edge">
<title>Node15&#45;&gt;Node18</title>
<path fill="none" stroke="midnightblue" d="M686.85,-112.08C685.52,-104.93 683.62,-94.64 681.96,-85.69"/>
<polygon fill="midnightblue" stroke="midnightblue" points="685.38,-84.95 680.12,-75.75 678.5,-86.22 685.38,-84.95"/>
</g>
<!-- Node18&#45;&gt;Node16 -->
<g id="edge19" class="edge">
<title>Node18&#45;&gt;Node16</title>
<path fill="none" stroke="midnightblue" d="M671.56,-56.08C665.57,-48.38 656.75,-37.03 649.45,-27.65"/>
<polygon fill="midnightblue" stroke="midnightblue" points="652.21,-25.5 643.31,-19.75 646.68,-29.79 652.21,-25.5"/>
</g>
<!-- Node21&#45;&gt;Node6 -->
<g id="edge35" class="edge">
<title>Node21&#45;&gt;Node6</title>
<path fill="none" stroke="midnightblue" d="M317.14,-341.85C323.73,-339.78 330.84,-337.69 337.5,-336 394.74,-321.48 460.96,-309.06 507.96,-300.97"/>
<polygon fill="midnightblue" stroke="midnightblue" points="508.72,-304.39 517.98,-299.26 507.54,-297.49 508.72,-304.39"/>
</g>
<!-- Node21&#45;&gt;Node7 -->
<g id="edge31" class="edge">
<title>Node21&#45;&gt;Node7</title>
<path fill="none" stroke="midnightblue" d="M316.38,-341.99C349.86,-330.41 407.51,-310 427.5,-300 457.1,-285.2 488.81,-263.77 508.65,-249.62"/>
<polygon fill="midnightblue" stroke="midnightblue" points="510.81,-252.37 516.87,-243.68 506.72,-246.7 510.81,-252.37"/>
</g>
<!-- Node21&#45;&gt;Node8 -->
<g id="edge36" class="edge">
<title>Node21&#45;&gt;Node8</title>
<path fill="none" stroke="midnightblue" d="M307.18,-341.91C321.72,-333.17 342.94,-318.33 355.5,-300 364.99,-286.15 370.11,-267.63 372.78,-253.91"/>
<polygon fill="midnightblue" stroke="midnightblue" points="376.29,-254.15 374.5,-243.71 369.39,-252.99 376.29,-254.15"/>
</g>
<!-- Node21&#45;&gt;Node9 -->
<g id="edge30" class="edge">
<title>Node21&#45;&gt;Node9</title>
<path fill="none" stroke="midnightblue" d="M270.14,-341.96C222.46,-322.24 111.5,-272.32 111.5,-235 111.5,-235 111.5,-235 111.5,-177 111.5,-130.84 150.84,-131.88 192.5,-112 245.86,-86.54 313.82,-75.31 357.01,-70.48"/>
<polygon fill="midnightblue" stroke="midnightblue" points="357.59,-73.94 367.17,-69.41 356.86,-66.98 357.59,-73.94"/>
</g>
<!-- Node21&#45;&gt;Node12 -->
<g id="edge34" class="edge">
<title>Node21&#45;&gt;Node12</title>
<path fill="none" stroke="midnightblue" d="M263.12,-341.98C243.39,-334.41 218.56,-321.18 206.5,-300 177.26,-248.62 202.33,-175.19 216.87,-141.36"/>
<polygon fill="midnightblue" stroke="midnightblue" points="220.24,-142.4 221.14,-131.84 213.85,-139.53 220.24,-142.4"/>
</g>
<!-- Node21&#45;&gt;Node14 -->
<g id="edge37" class="edge">
<title>Node21&#45;&gt;Node14</title>
<path fill="none" stroke="midnightblue" d="M306.13,-341.84C322.94,-331.87 351.32,-314.92 375.5,-300 429.22,-266.85 440.74,-255.42 495.5,-224 515.41,-212.57 538.52,-200.68 555.91,-192"/>
<polygon fill="midnightblue" stroke="midnightblue" points="557.52,-195.1 564.93,-187.53 554.41,-188.83 557.52,-195.1"/>
</g>
<!-- Node22 -->
<g id="node22" class="node">
<title>Node22</title>
<g id="a_node22"><a xlink:title=" ">
<polygon fill="white" stroke="#bfbfbf" points="215.5,-280.5 215.5,-299.5 271.5,-299.5 271.5,-280.5 215.5,-280.5"/>
<text text-anchor="middle" x="243.5" y="-287.5" font-family="Helvetica,sans-Serif" font-size="10.00">numeric</text>
</a>
</g>
</g>
<!-- Node21&#45;&gt;Node22 -->
<g id="edge32" class="edge">
<title>Node21&#45;&gt;Node22</title>
<path fill="none" stroke="midnightblue" d="M284.62,-341.98C277.35,-332.96 265.7,-318.52 256.66,-307.31"/>
<polygon fill="midnightblue" stroke="midnightblue" points="259.37,-305.09 250.36,-299.51 253.92,-309.49 259.37,-305.09"/>
</g>
<!-- Node23 -->
<g id="node23" class="node">
<title>Node23</title>
<g id="a_node23"><a xlink:title=" ">
<polygon fill="white" stroke="#bfbfbf" points="290,-280.5 290,-299.5 347,-299.5 347,-280.5 290,-280.5"/>
<text text-anchor="middle" x="318.5" y="-287.5" font-family="Helvetica,sans-Serif" font-size="10.00">ostream</text>
</a>
</g>
</g>
<!-- Node21&#45;&gt;Node23 -->
<g id="edge33" class="edge">
<title>Node21&#45;&gt;Node23</title>
<path fill="none" stroke="midnightblue" d="M295.37,-341.98C299.3,-333.32 305.5,-319.65 310.49,-308.65"/>
<polygon fill="midnightblue" stroke="midnightblue" points="313.69,-310.06 314.64,-299.51 307.32,-307.17 313.69,-310.06"/>
</g>
<!-- Node26 -->
<g id="node26" class="node">
<title>Node26</title>
<g id="a_node26"><a xlink:title=" ">
<polygon fill="white" stroke="#bfbfbf" points="921.5,-336.5 921.5,-366.5 1037.5,-366.5 1037.5,-336.5 921.5,-336.5"/>
<text text-anchor="start" x="929.5" y="-354.5" font-family="Helvetica,sans-Serif" font-size="10.00">boost/numeric/ublas</text>
<text text-anchor="middle" x="979.5" y="-343.5" font-family="Helvetica,sans-Serif" font-size="10.00">/io.hpp</text>
</a>
</g>
</g>
<!-- Node25&#45;&gt;Node26 -->
<g id="edge42" class="edge">
<title>Node25&#45;&gt;Node26</title>
<path fill="none" stroke="midnightblue" d="M846.71,-403.48C869.27,-394.81 904.88,-381.15 933.54,-370.14"/>
<polygon fill="midnightblue" stroke="midnightblue" points="934.89,-373.37 942.97,-366.52 932.38,-366.84 934.89,-373.37"/>
</g>
<!-- Node27 -->
<g id="node27" class="node">
<title>Node27</title>
<g id="a_node27"><a xlink:title=" ">
<polygon fill="white" stroke="#bfbfbf" points="715.5,-336.5 715.5,-366.5 831.5,-366.5 831.5,-336.5 715.5,-336.5"/>
<text text-anchor="start" x="723.5" y="-354.5" font-family="Helvetica,sans-Serif" font-size="10.00">boost/numeric/ublas</text>
<text text-anchor="middle" x="773.5" y="-343.5" font-family="Helvetica,sans-Serif" font-size="10.00">/matrix.hpp</text>
</a>
</g>
</g>
<!-- Node25&#45;&gt;Node27 -->
<g id="edge43" class="edge">
<title>Node25&#45;&gt;Node27</title>
<path fill="none" stroke="midnightblue" d="M817.19,-403.48C810.67,-395.87 800.84,-384.4 792.16,-374.26"/>
<polygon fill="midnightblue" stroke="midnightblue" points="794.69,-371.84 785.52,-366.52 789.37,-376.39 794.69,-371.84"/>
</g>
<!-- Node28 -->
<g id="node28" class="node">
<title>Node28</title>
<g id="a_node28"><a xlink:title=" ">
<polygon fill="white" stroke="#bfbfbf" points="849.5,-342 849.5,-361 903.5,-361 903.5,-342 849.5,-342"/>
<text text-anchor="middle" x="876.5" y="-349" font-family="Helvetica,sans-Serif" font-size="10.00">random</text>
</a>
</g>
</g>
<!-- Node25&#45;&gt;Node28 -->
<g id="edge44" class="edge">
<title>Node25&#45;&gt;Node28</title>
<path fill="none" stroke="midnightblue" d="M831.95,-403.48C839.83,-394.46 852.44,-380.02 862.24,-368.81"/>
<polygon fill="midnightblue" stroke="midnightblue" points="865.12,-370.84 869.06,-361.01 859.85,-366.24 865.12,-370.84"/>
</g>
</g>
</svg>
