<?xml version="1.0" encoding="UTF-8" standalone="no"?>
<!DOCTYPE svg PUBLIC "-//W3C//DTD SVG 1.1//EN"
 "http://www.w3.org/Graphics/SVG/1.1/DTD/svg11.dtd">
<!-- Generated by graphviz version 2.43.0 (0)
 -->
<!-- Title: src/labs/outlab6/InputsOutputs.h Pages: 1 -->
<svg width="1025pt" height="263pt"
 viewBox="0.00 0.00 1024.50 263.00" xmlns="http://www.w3.org/2000/svg" xmlns:xlink="http://www.w3.org/1999/xlink">
<g id="graph0" class="graph" transform="scale(1 1) rotate(0) translate(4 259)">
<title>src/labs/outlab6/InputsOutputs.h</title>
<polygon fill="white" stroke="transparent" points="-4,4 -4,-259 1020.5,-259 1020.5,4 -4,4"/>
<!-- Node1 -->
<g id="node1" class="node">
<title>Node1</title>
<g id="a_node1"><a xlink:title="This file contains the input and output definitions for this project.">
<polygon fill="#bfbfbf" stroke="black" points="172.5,-235.5 172.5,-254.5 346.5,-254.5 346.5,-235.5 172.5,-235.5"/>
<text text-anchor="middle" x="259.5" y="-242.5" font-family="Helvetica,sans-Serif" font-size="10.00">src/labs/outlab6/InputsOutputs.h</text>
</a>
</g>
</g>
<!-- Node2 -->
<g id="node2" class="node">
<title>Node2</title>
<g id="a_node2"><a xlink:title=" ">
<polygon fill="white" stroke="#bfbfbf" points="0,-179.5 0,-198.5 45,-198.5 45,-179.5 0,-179.5"/>
<text text-anchor="middle" x="22.5" y="-186.5" font-family="Helvetica,sans-Serif" font-size="10.00">utility</text>
</a>
</g>
</g>
<!-- Node1&#45;&gt;Node2 -->
<g id="edge1" class="edge">
<title>Node1&#45;&gt;Node2</title>
<path fill="none" stroke="midnightblue" d="M220.74,-235.49C180.41,-226.58 115.47,-212.1 59.5,-199 58.05,-198.66 56.57,-198.31 55.08,-197.96"/>
<polygon fill="midnightblue" stroke="midnightblue" points="55.72,-194.51 45.18,-195.58 54.09,-201.32 55.72,-194.51"/>
</g>
<!-- Node3 -->
<g id="node3" class="node">
<title>Node3</title>
<g id="a_node3"><a xlink:href="../../d3/db1/Matrix_8h.html" target="_top" xlink:title="This file contains my BLAS::Matrix declarations.">
<polygon fill="white" stroke="black" points="205,-118 205,-137 314,-137 314,-118 205,-118"/>
<text text-anchor="middle" x="259.5" y="-125" font-family="Helvetica,sans-Serif" font-size="10.00">math/blas/Matrix.h</text>
</a>
</g>
</g>
<!-- Node1&#45;&gt;Node3 -->
<g id="edge2" class="edge">
<title>Node1&#45;&gt;Node3</title>
<path fill="none" stroke="midnightblue" d="M259.5,-235.32C259.5,-216.76 259.5,-172.84 259.5,-147.47"/>
<polygon fill="midnightblue" stroke="midnightblue" points="263,-147.28 259.5,-137.28 256,-147.28 263,-147.28"/>
</g>
<!-- Node7 -->
<g id="node7" class="node">
<title>Node7</title>
<g id="a_node7"><a xlink:href="../../d6/dbe/Vector_8h.html" target="_top" xlink:title="This file contains my BLAS::Vector implementation.">
<polygon fill="white" stroke="black" points="50,-56.5 50,-75.5 157,-75.5 157,-56.5 50,-56.5"/>
<text text-anchor="middle" x="103.5" y="-63.5" font-family="Helvetica,sans-Serif" font-size="10.00">math/blas/Vector.h</text>
</a>
</g>
</g>
<!-- Node1&#45;&gt;Node7 -->
<g id="edge10" class="edge">
<title>Node1&#45;&gt;Node7</title>
<path fill="none" stroke="midnightblue" d="M202.89,-235.44C162.13,-227.98 112.18,-215.73 99.5,-199 74.32,-165.76 86.94,-113.14 96.35,-85.44"/>
<polygon fill="midnightblue" stroke="midnightblue" points="99.72,-86.43 99.84,-75.83 93.14,-84.04 99.72,-86.43"/>
</g>
<!-- Node9 -->
<g id="node9" class="node">
<title>Node9</title>
<g id="a_node9"><a xlink:href="../../d9/d77/MyBLAS_8h.html" target="_top" xlink:title="My BLAS methods for NE591&#45;008.">
<polygon fill="white" stroke="black" points="108.5,-179.5 108.5,-198.5 226.5,-198.5 226.5,-179.5 108.5,-179.5"/>
<text text-anchor="middle" x="167.5" y="-186.5" font-family="Helvetica,sans-Serif" font-size="10.00">math/blas/MyBLAS.h</text>
</a>
</g>
</g>
<!-- Node1&#45;&gt;Node9 -->
<g id="edge11" class="edge">
<title>Node1&#45;&gt;Node9</title>
<path fill="none" stroke="midnightblue" d="M244.72,-235.32C230.23,-226.82 207.93,-213.73 191.01,-203.8"/>
<polygon fill="midnightblue" stroke="midnightblue" points="192.64,-200.7 182.24,-198.65 189.1,-206.74 192.64,-200.7"/>
</g>
<!-- Node11 -->
<g id="node11" class="node">
<title>Node11</title>
<g id="a_node11"><a xlink:href="../../df/dbd/LinearSolver_8h.html" target="_top" xlink:title="This file contains the definition of the LinearSolver class and its associated methods.">
<polygon fill="white" stroke="black" points="328.5,-179.5 328.5,-198.5 442.5,-198.5 442.5,-179.5 328.5,-179.5"/>
<text text-anchor="middle" x="385.5" y="-186.5" font-family="Helvetica,sans-Serif" font-size="10.00">math/LinearSolver.h</text>
</a>
</g>
</g>
<!-- Node1&#45;&gt;Node11 -->
<g id="edge15" class="edge">
<title>Node1&#45;&gt;Node11</title>
<path fill="none" stroke="midnightblue" d="M279.47,-235.44C300.11,-226.6 332.56,-212.69 356.13,-202.59"/>
<polygon fill="midnightblue" stroke="midnightblue" points="357.82,-205.67 365.63,-198.52 355.06,-199.24 357.82,-205.67"/>
</g>
<!-- Node15 -->
<g id="node15" class="node">
<title>Node15</title>
<g id="a_node15"><a xlink:title=" ">
<polygon fill="white" stroke="#bfbfbf" points="460.5,-179.5 460.5,-198.5 518.5,-198.5 518.5,-179.5 460.5,-179.5"/>
<text text-anchor="middle" x="489.5" y="-186.5" font-family="Helvetica,sans-Serif" font-size="10.00">json.hpp</text>
</a>
</g>
</g>
<!-- Node1&#45;&gt;Node15 -->
<g id="edge19" class="edge">
<title>Node1&#45;&gt;Node15</title>
<path fill="none" stroke="midnightblue" d="M295.96,-235.48C332.54,-226.93 390.8,-213.29 450.48,-199.24"/>
<polygon fill="midnightblue" stroke="midnightblue" points="451.52,-202.59 460.46,-196.89 449.92,-195.77 451.52,-202.59"/>
</g>
<!-- Node16 -->
<g id="node16" class="node">
<title>Node16</title>
<g id="a_node16"><a xlink:href="../../d4/d8a/Ops_8h.html" target="_top" xlink:title="This file contains the definition of the L2Norm function, which calculates the L2 norm (Euclidean dis...">
<polygon fill="white" stroke="black" points="771.5,-179.5 771.5,-198.5 867.5,-198.5 867.5,-179.5 771.5,-179.5"/>
<text text-anchor="middle" x="819.5" y="-186.5" font-family="Helvetica,sans-Serif" font-size="10.00">math/blas/Ops.h</text>
</a>
</g>
</g>
<!-- Node1&#45;&gt;Node16 -->
<g id="edge20" class="edge">
<title>Node1&#45;&gt;Node16</title>
<path fill="none" stroke="midnightblue" d="M346.69,-235.59C462.19,-224.45 662.77,-205.11 761.38,-195.6"/>
<polygon fill="midnightblue" stroke="midnightblue" points="761.84,-199.08 771.45,-194.63 761.16,-192.11 761.84,-199.08"/>
</g>
<!-- Node4 -->
<g id="node4" class="node">
<title>Node4</title>
<g id="a_node4"><a xlink:title=" ">
<polygon fill="white" stroke="#bfbfbf" points="180,-0.5 180,-19.5 227,-19.5 227,-0.5 180,-0.5"/>
<text text-anchor="middle" x="203.5" y="-7.5" font-family="Helvetica,sans-Serif" font-size="10.00">vector</text>
</a>
</g>
</g>
<!-- Node3&#45;&gt;Node4 -->
<g id="edge3" class="edge">
<title>Node3&#45;&gt;Node4</title>
<path fill="none" stroke="midnightblue" d="M259.83,-117.73C259.99,-103.85 258.82,-76.32 248.5,-56 242.6,-44.39 232.59,-33.92 223.5,-26.02"/>
<polygon fill="midnightblue" stroke="midnightblue" points="225.52,-23.15 215.57,-19.51 221.08,-28.56 225.52,-23.15"/>
</g>
<!-- Node5 -->
<g id="node5" class="node">
<title>Node5</title>
<g id="a_node5"><a xlink:title=" ">
<polygon fill="white" stroke="#bfbfbf" points="260.5,-0.5 260.5,-19.5 320.5,-19.5 320.5,-0.5 260.5,-0.5"/>
<text text-anchor="middle" x="290.5" y="-7.5" font-family="Helvetica,sans-Serif" font-size="10.00">iostream</text>
</a>
</g>
</g>
<!-- Node3&#45;&gt;Node5 -->
<g id="edge4" class="edge">
<title>Node3&#45;&gt;Node5</title>
<path fill="none" stroke="midnightblue" d="M264.15,-117.83C269.23,-107.98 277.2,-91.28 281.5,-76 285.79,-60.73 288.08,-42.85 289.27,-29.71"/>
<polygon fill="midnightblue" stroke="midnightblue" points="292.77,-29.81 290.06,-19.57 285.8,-29.26 292.77,-29.81"/>
</g>
<!-- Node6 -->
<g id="node6" class="node">
<title>Node6</title>
<g id="a_node6"><a xlink:title=" ">
<polygon fill="white" stroke="#bfbfbf" points="175.5,-56.5 175.5,-75.5 239.5,-75.5 239.5,-56.5 175.5,-56.5"/>
<text text-anchor="middle" x="207.5" y="-63.5" font-family="Helvetica,sans-Serif" font-size="10.00">algorithm</text>
</a>
</g>
</g>
<!-- Node3&#45;&gt;Node6 -->
<g id="edge5" class="edge">
<title>Node3&#45;&gt;Node6</title>
<path fill="none" stroke="midnightblue" d="M252.05,-117.98C244.17,-108.96 231.56,-94.52 221.76,-83.31"/>
<polygon fill="midnightblue" stroke="midnightblue" points="224.15,-80.74 214.94,-75.51 218.88,-85.34 224.15,-80.74"/>
</g>
<!-- Node3&#45;&gt;Node7 -->
<g id="edge6" class="edge">
<title>Node3&#45;&gt;Node7</title>
<path fill="none" stroke="midnightblue" d="M237.15,-117.98C210.51,-107.81 165.79,-90.76 135.49,-79.2"/>
<polygon fill="midnightblue" stroke="midnightblue" points="136.4,-75.8 125.81,-75.51 133.91,-82.34 136.4,-75.8"/>
</g>
<!-- Node7&#45;&gt;Node4 -->
<g id="edge7" class="edge">
<title>Node7&#45;&gt;Node4</title>
<path fill="none" stroke="midnightblue" d="M119.57,-56.32C135.46,-47.74 160.01,-34.49 178.46,-24.52"/>
<polygon fill="midnightblue" stroke="midnightblue" points="180.34,-27.49 187.47,-19.65 177.01,-21.33 180.34,-27.49"/>
</g>
<!-- Node7&#45;&gt;Node5 -->
<g id="edge8" class="edge">
<title>Node7&#45;&gt;Node5</title>
<path fill="none" stroke="midnightblue" d="M133.13,-56.44C165,-47.24 215.83,-32.56 251.06,-22.39"/>
<polygon fill="midnightblue" stroke="midnightblue" points="252.37,-25.65 261.01,-19.52 250.43,-18.93 252.37,-25.65"/>
</g>
<!-- Node8 -->
<g id="node8" class="node">
<title>Node8</title>
<g id="a_node8"><a xlink:title=" ">
<polygon fill="white" stroke="#bfbfbf" points="75.5,-0.5 75.5,-19.5 131.5,-19.5 131.5,-0.5 75.5,-0.5"/>
<text text-anchor="middle" x="103.5" y="-7.5" font-family="Helvetica,sans-Serif" font-size="10.00">iomanip</text>
</a>
</g>
</g>
<!-- Node7&#45;&gt;Node8 -->
<g id="edge9" class="edge">
<title>Node7&#45;&gt;Node8</title>
<path fill="none" stroke="midnightblue" d="M103.5,-56.08C103.5,-49.01 103.5,-38.86 103.5,-29.99"/>
<polygon fill="midnightblue" stroke="midnightblue" points="107,-29.75 103.5,-19.75 100,-29.75 107,-29.75"/>
</g>
<!-- Node9&#45;&gt;Node3 -->
<g id="edge13" class="edge">
<title>Node9&#45;&gt;Node3</title>
<path fill="none" stroke="midnightblue" d="M180.68,-179.48C195.57,-169.84 220.04,-154.02 237.77,-142.55"/>
<polygon fill="midnightblue" stroke="midnightblue" points="239.85,-145.38 246.34,-137.01 236.05,-139.5 239.85,-145.38"/>
</g>
<!-- Node9&#45;&gt;Node7 -->
<g id="edge14" class="edge">
<title>Node9&#45;&gt;Node7</title>
<path fill="none" stroke="midnightblue" d="M158.84,-179.38C150.62,-170.79 138.37,-156.91 130.5,-143 120.08,-124.58 112.55,-101.42 108.14,-85.54"/>
<polygon fill="midnightblue" stroke="midnightblue" points="111.52,-84.63 105.58,-75.85 104.75,-86.42 111.52,-84.63"/>
</g>
<!-- Node10 -->
<g id="node10" class="node">
<title>Node10</title>
<g id="a_node10"><a xlink:title=" ">
<polygon fill="white" stroke="#bfbfbf" points="140,-118 140,-137 187,-137 187,-118 140,-118"/>
<text text-anchor="middle" x="163.5" y="-125" font-family="Helvetica,sans-Serif" font-size="10.00">cmath</text>
</a>
</g>
</g>
<!-- Node9&#45;&gt;Node10 -->
<g id="edge12" class="edge">
<title>Node9&#45;&gt;Node10</title>
<path fill="none" stroke="midnightblue" d="M166.93,-179.48C166.36,-171.08 165.48,-157.98 164.75,-147.16"/>
<polygon fill="midnightblue" stroke="midnightblue" points="168.24,-146.75 164.07,-137.01 161.25,-147.22 168.24,-146.75"/>
</g>
<!-- Node12 -->
<g id="node12" class="node">
<title>Node12</title>
<g id="a_node12"><a xlink:href="../../d1/d6a/Factorize_8h.html" target="_top" xlink:title="This file contains the declaration of the MyFactorizationMethod namespace, which includes methods and...">
<polygon fill="white" stroke="black" points="332,-112.5 332,-142.5 439,-142.5 439,-112.5 332,-112.5"/>
<text text-anchor="start" x="340" y="-130.5" font-family="Helvetica,sans-Serif" font-size="10.00">math/factorization</text>
<text text-anchor="middle" x="385.5" y="-119.5" font-family="Helvetica,sans-Serif" font-size="10.00">/Factorize.h</text>
</a>
</g>
</g>
<!-- Node11&#45;&gt;Node12 -->
<g id="edge16" class="edge">
<title>Node11&#45;&gt;Node12</title>
<path fill="none" stroke="midnightblue" d="M385.5,-179.48C385.5,-172.47 385.5,-162.19 385.5,-152.7"/>
<polygon fill="midnightblue" stroke="midnightblue" points="389,-152.52 385.5,-142.52 382,-152.52 389,-152.52"/>
</g>
<!-- Node13 -->
<g id="node13" class="node">
<title>Node13</title>
<g id="a_node13"><a xlink:href="../../d0/d24/RelaxationMethods_8h.html" target="_top" xlink:title="This file contains the declaration of the RelaxationMethods namespace, which includes the Type enumer...">
<polygon fill="white" stroke="black" points="457.5,-112.5 457.5,-142.5 607.5,-142.5 607.5,-112.5 457.5,-112.5"/>
<text text-anchor="start" x="465.5" y="-130.5" font-family="Helvetica,sans-Serif" font-size="10.00">math/relaxation/Relaxation</text>
<text text-anchor="middle" x="532.5" y="-119.5" font-family="Helvetica,sans-Serif" font-size="10.00">Methods.h</text>
</a>
</g>
</g>
<!-- Node11&#45;&gt;Node13 -->
<g id="edge17" class="edge">
<title>Node11&#45;&gt;Node13</title>
<path fill="none" stroke="midnightblue" d="M406.56,-179.48C427.87,-170.85 461.44,-157.26 488.56,-146.29"/>
<polygon fill="midnightblue" stroke="midnightblue" points="489.9,-149.52 497.86,-142.52 487.27,-143.03 489.9,-149.52"/>
</g>
<!-- Node14 -->
<g id="node14" class="node">
<title>Node14</title>
<g id="a_node14"><a xlink:title=" ">
<polygon fill="white" stroke="#bfbfbf" points="625,-118 625,-137 676,-137 676,-118 625,-118"/>
<text text-anchor="middle" x="650.5" y="-125" font-family="Helvetica,sans-Serif" font-size="10.00">variant</text>
</a>
</g>
</g>
<!-- Node11&#45;&gt;Node14 -->
<g id="edge18" class="edge">
<title>Node11&#45;&gt;Node14</title>
<path fill="none" stroke="midnightblue" d="M442.81,-180.28C490.06,-173.09 558.5,-160.8 616.5,-143 618.64,-142.34 620.83,-141.59 623.02,-140.79"/>
<polygon fill="midnightblue" stroke="midnightblue" points="624.42,-144 632.41,-137.05 621.83,-137.5 624.42,-144"/>
</g>
<!-- Node17 -->
<g id="node17" class="node">
<title>Node17</title>
<g id="a_node17"><a xlink:title=" ">
<polygon fill="white" stroke="#bfbfbf" points="694.5,-112.5 694.5,-142.5 810.5,-142.5 810.5,-112.5 694.5,-112.5"/>
<text text-anchor="start" x="702.5" y="-130.5" font-family="Helvetica,sans-Serif" font-size="10.00">boost/numeric/ublas</text>
<text text-anchor="middle" x="752.5" y="-119.5" font-family="Helvetica,sans-Serif" font-size="10.00">/matrix.hpp</text>
</a>
</g>
</g>
<!-- Node16&#45;&gt;Node17 -->
<g id="edge21" class="edge">
<title>Node16&#45;&gt;Node17</title>
<path fill="none" stroke="midnightblue" d="M809.9,-179.48C801.08,-171.64 787.65,-159.71 776,-149.37"/>
<polygon fill="midnightblue" stroke="midnightblue" points="778.09,-146.55 768.29,-142.52 773.44,-151.78 778.09,-146.55"/>
</g>
<!-- Node18 -->
<g id="node18" class="node">
<title>Node18</title>
<g id="a_node18"><a xlink:title=" ">
<polygon fill="white" stroke="#bfbfbf" points="828.5,-112.5 828.5,-142.5 944.5,-142.5 944.5,-112.5 828.5,-112.5"/>
<text text-anchor="start" x="836.5" y="-130.5" font-family="Helvetica,sans-Serif" font-size="10.00">boost/numeric/ublas</text>
<text text-anchor="middle" x="886.5" y="-119.5" font-family="Helvetica,sans-Serif" font-size="10.00">/io.hpp</text>
</a>
</g>
</g>
<!-- Node16&#45;&gt;Node18 -->
<g id="edge22" class="edge">
<title>Node16&#45;&gt;Node18</title>
<path fill="none" stroke="midnightblue" d="M829.1,-179.48C837.92,-171.64 851.35,-159.71 863,-149.37"/>
<polygon fill="midnightblue" stroke="midnightblue" points="865.56,-151.78 870.71,-142.52 860.91,-146.55 865.56,-151.78"/>
</g>
<!-- Node19 -->
<g id="node19" class="node">
<title>Node19</title>
<g id="a_node19"><a xlink:title=" ">
<polygon fill="white" stroke="#bfbfbf" points="962.5,-118 962.5,-137 1016.5,-137 1016.5,-118 962.5,-118"/>
<text text-anchor="middle" x="989.5" y="-125" font-family="Helvetica,sans-Serif" font-size="10.00">random</text>
</a>
</g>
</g>
<!-- Node16&#45;&gt;Node19 -->
<g id="edge23" class="edge">
<title>Node16&#45;&gt;Node19</title>
<path fill="none" stroke="midnightblue" d="M846.36,-179.5C873.53,-170.77 916.66,-156.59 953.5,-143 955.35,-142.32 957.25,-141.6 959.15,-140.87"/>
<polygon fill="midnightblue" stroke="midnightblue" points="960.61,-144.06 968.64,-137.14 958.05,-137.54 960.61,-144.06"/>
</g>
</g>
</svg>
