<?xml version="1.0" encoding="UTF-8" standalone="no"?>
<!DOCTYPE svg PUBLIC "-//W3C//DTD SVG 1.1//EN"
 "http://www.w3.org/Graphics/SVG/1.1/DTD/svg11.dtd">
<!-- Generated by graphviz version 2.43.0 (0)
 -->
<!-- Title: src/labs/outlab6/InputsOutputs.h Pages: 1 -->
<svg width="1676pt" height="576pt"
 viewBox="0.00 0.00 1676.00 576.00" xmlns="http://www.w3.org/2000/svg" xmlns:xlink="http://www.w3.org/1999/xlink">
<g id="graph0" class="graph" transform="scale(1 1) rotate(0) translate(4 572)">
<title>src/labs/outlab6/InputsOutputs.h</title>
<polygon fill="white" stroke="transparent" points="-4,4 -4,-572 1672,-572 1672,4 -4,4"/>
<!-- Node1 -->
<g id="node1" class="node">
<title>Node1</title>
<g id="a_node1"><a xlink:title="This file contains the input and output definitions for this project.">
<polygon fill="#bfbfbf" stroke="black" points="359,-548.5 359,-567.5 533,-567.5 533,-548.5 359,-548.5"/>
<text text-anchor="middle" x="446" y="-555.5" font-family="Helvetica,sans-Serif" font-size="10.00">src/labs/outlab6/InputsOutputs.h</text>
</a>
</g>
</g>
<!-- Node2 -->
<g id="node2" class="node">
<title>Node2</title>
<g id="a_node2"><a xlink:title=" ">
<polygon fill="white" stroke="#bfbfbf" points="214.5,-492.5 214.5,-511.5 259.5,-511.5 259.5,-492.5 214.5,-492.5"/>
<text text-anchor="middle" x="237" y="-499.5" font-family="Helvetica,sans-Serif" font-size="10.00">utility</text>
</a>
</g>
</g>
<!-- Node1&#45;&gt;Node2 -->
<g id="edge1" class="edge">
<title>Node1&#45;&gt;Node2</title>
<path fill="none" stroke="midnightblue" d="M411.34,-548.46C377.63,-540.1 324.73,-526.81 269.65,-512.12"/>
<polygon fill="midnightblue" stroke="midnightblue" points="270.27,-508.67 259.71,-509.46 268.46,-515.43 270.27,-508.67"/>
</g>
<!-- Node3 -->
<g id="node3" class="node">
<title>Node3</title>
<g id="a_node3"><a xlink:title=" ">
<polygon fill="white" stroke="#bfbfbf" points="278,-492.5 278,-511.5 336,-511.5 336,-492.5 278,-492.5"/>
<text text-anchor="middle" x="307" y="-499.5" font-family="Helvetica,sans-Serif" font-size="10.00">json.hpp</text>
</a>
</g>
</g>
<!-- Node1&#45;&gt;Node3 -->
<g id="edge2" class="edge">
<title>Node1&#45;&gt;Node3</title>
<path fill="none" stroke="midnightblue" d="M423.98,-548.44C400.9,-539.48 364.44,-525.31 338.36,-515.18"/>
<polygon fill="midnightblue" stroke="midnightblue" points="339.51,-511.88 328.92,-511.52 336.98,-518.4 339.51,-511.88"/>
</g>
<!-- Node4 -->
<g id="node4" class="node">
<title>Node4</title>
<g id="a_node4"><a xlink:href="../../d1/d80/BLAS_8h.html" target="_top" xlink:title=" ">
<polygon fill="white" stroke="black" points="468.5,-369.5 468.5,-388.5 571.5,-388.5 571.5,-369.5 468.5,-369.5"/>
<text text-anchor="middle" x="520" y="-376.5" font-family="Helvetica,sans-Serif" font-size="10.00">math/blas/BLAS.h</text>
</a>
</g>
</g>
<!-- Node1&#45;&gt;Node4 -->
<g id="edge3" class="edge">
<title>Node1&#45;&gt;Node4</title>
<path fill="none" stroke="midnightblue" d="M439.37,-548.27C433.23,-539.61 424.54,-525.67 421,-512 411.3,-474.57 400.07,-457.51 421,-425 431.31,-408.99 448.85,-398.62 466.33,-391.92"/>
<polygon fill="midnightblue" stroke="midnightblue" points="467.7,-395.15 475.99,-388.56 465.4,-388.54 467.7,-395.15"/>
</g>
<!-- Node6 -->
<g id="node6" class="node">
<title>Node6</title>
<g id="a_node6"><a xlink:href="../../d4/d8a/Ops_8h.html" target="_top" xlink:title="This file contains the definition of the L2Norm function, which calculates the L2 norm (Euclidean dis...">
<polygon fill="white" stroke="black" points="614,-313.5 614,-332.5 710,-332.5 710,-313.5 614,-313.5"/>
<text text-anchor="middle" x="662" y="-320.5" font-family="Helvetica,sans-Serif" font-size="10.00">math/blas/Ops.h</text>
</a>
</g>
</g>
<!-- Node1&#45;&gt;Node6 -->
<g id="edge42" class="edge">
<title>Node1&#45;&gt;Node6</title>
<path fill="none" stroke="midnightblue" d="M501.09,-548.5C587.45,-533.91 748.33,-501.27 782,-456 816.77,-409.25 735.64,-359.93 690.17,-337.06"/>
<polygon fill="midnightblue" stroke="midnightblue" points="691.58,-333.85 681.06,-332.59 688.5,-340.14 691.58,-333.85"/>
</g>
<!-- Node8 -->
<g id="node8" class="node">
<title>Node8</title>
<g id="a_node8"><a xlink:href="../../d3/db1/Matrix_8h.html" target="_top" xlink:title="Header file for the MyBLAS::Matrix class.">
<polygon fill="white" stroke="black" points="230,-252 230,-271 374,-271 374,-252 230,-252"/>
<text text-anchor="middle" x="302" y="-259" font-family="Helvetica,sans-Serif" font-size="10.00">math/blas/matrix/Matrix.h</text>
</a>
</g>
</g>
<!-- Node1&#45;&gt;Node8 -->
<g id="edge43" class="edge">
<title>Node1&#45;&gt;Node8</title>
<path fill="none" stroke="midnightblue" d="M438.59,-548.46C431.23,-539.71 419.94,-525.51 412,-512 386.98,-469.41 329.65,-330.46 309.32,-280.55"/>
<polygon fill="midnightblue" stroke="midnightblue" points="312.48,-279.02 305.47,-271.08 305.99,-281.66 312.48,-279.02"/>
</g>
<!-- Node15 -->
<g id="node15" class="node">
<title>Node15</title>
<g id="a_node15"><a xlink:href="../../d6/dbe/Vector_8h.html" target="_top" xlink:title="Header file for the MyBLAS::Vector class.">
<polygon fill="white" stroke="black" points="813.5,-185 813.5,-204 954.5,-204 954.5,-185 813.5,-185"/>
<text text-anchor="middle" x="884" y="-192" font-family="Helvetica,sans-Serif" font-size="10.00">math/blas/vector/Vector.h</text>
</a>
</g>
</g>
<!-- Node1&#45;&gt;Node15 -->
<g id="edge44" class="edge">
<title>Node1&#45;&gt;Node15</title>
<path fill="none" stroke="midnightblue" d="M533.31,-557.44C695.06,-555.87 1025,-540.54 1025,-441.5 1025,-441.5 1025,-441.5 1025,-378 1025,-311.39 1001.92,-292.27 954,-246 939.67,-232.17 921.36,-219.09 907.06,-209.71"/>
<polygon fill="midnightblue" stroke="midnightblue" points="908.63,-206.56 898.32,-204.11 904.85,-212.45 908.63,-206.56"/>
</g>
<!-- Node28 -->
<g id="node28" class="node">
<title>Node28</title>
<g id="a_node28"><a xlink:href="../../de/d10/LinearSolverParams_8h.html" target="_top" xlink:title="This file contains the definition of the LinearSolverParams struct which encapsulates the parameters ...">
<polygon fill="white" stroke="black" points="841.5,-369.5 841.5,-388.5 996.5,-388.5 996.5,-369.5 841.5,-369.5"/>
<text text-anchor="middle" x="919" y="-376.5" font-family="Helvetica,sans-Serif" font-size="10.00">solver/LinearSolverParams.h</text>
</a>
</g>
</g>
<!-- Node1&#45;&gt;Node28 -->
<g id="edge45" class="edge">
<title>Node1&#45;&gt;Node28</title>
<path fill="none" stroke="midnightblue" d="M533.1,-554.9C629.92,-551.15 779.01,-540.76 827,-512 871.6,-485.27 899.98,-427.63 912.15,-398.15"/>
<polygon fill="midnightblue" stroke="midnightblue" points="915.47,-399.27 915.9,-388.68 908.97,-396.69 915.47,-399.27"/>
</g>
<!-- Node33 -->
<g id="node33" class="node">
<title>Node33</title>
<g id="a_node33"><a xlink:href="../../df/dbd/LinearSolver_8h.html" target="_top" xlink:title="This file contains the definition of the LinearSolver class and its associated methods.">
<polygon fill="white" stroke="black" points="430.5,-492.5 430.5,-511.5 549.5,-511.5 549.5,-492.5 430.5,-492.5"/>
<text text-anchor="middle" x="490" y="-499.5" font-family="Helvetica,sans-Serif" font-size="10.00">solver/LinearSolver.h</text>
</a>
</g>
</g>
<!-- Node1&#45;&gt;Node33 -->
<g id="edge65" class="edge">
<title>Node1&#45;&gt;Node33</title>
<path fill="none" stroke="midnightblue" d="M453.27,-548.08C459.54,-540.38 468.79,-529.03 476.43,-519.65"/>
<polygon fill="midnightblue" stroke="midnightblue" points="479.27,-521.71 482.87,-511.75 473.84,-517.29 479.27,-521.71"/>
</g>
<!-- Node5 -->
<g id="node5" class="node">
<title>Node5</title>
<g id="a_node5"><a xlink:title=" ">
<polygon fill="white" stroke="#bfbfbf" points="430.5,-313.5 430.5,-332.5 477.5,-332.5 477.5,-313.5 430.5,-313.5"/>
<text text-anchor="middle" x="454" y="-320.5" font-family="Helvetica,sans-Serif" font-size="10.00">cmath</text>
</a>
</g>
</g>
<!-- Node4&#45;&gt;Node5 -->
<g id="edge4" class="edge">
<title>Node4&#45;&gt;Node5</title>
<path fill="none" stroke="midnightblue" d="M509.4,-369.32C499.54,-361.26 484.65,-349.08 472.78,-339.37"/>
<polygon fill="midnightblue" stroke="midnightblue" points="474.75,-336.46 464.8,-332.83 470.32,-341.88 474.75,-336.46"/>
</g>
<!-- Node4&#45;&gt;Node6 -->
<g id="edge5" class="edge">
<title>Node4&#45;&gt;Node6</title>
<path fill="none" stroke="midnightblue" d="M542.5,-369.44C566.08,-360.48 603.32,-346.31 629.96,-336.18"/>
<polygon fill="midnightblue" stroke="midnightblue" points="631.5,-339.34 639.6,-332.52 629.01,-332.8 631.5,-339.34"/>
</g>
<!-- Node4&#45;&gt;Node8 -->
<g id="edge40" class="edge">
<title>Node4&#45;&gt;Node8</title>
<path fill="none" stroke="midnightblue" d="M499.59,-369.49C479.36,-360.88 447.62,-346.88 421,-333 386.23,-314.86 347.39,-291.17 323.82,-276.4"/>
<polygon fill="midnightblue" stroke="midnightblue" points="325.62,-273.39 315.29,-271.02 321.89,-279.31 325.62,-273.39"/>
</g>
<!-- Node4&#45;&gt;Node15 -->
<g id="edge41" class="edge">
<title>Node4&#45;&gt;Node15</title>
<path fill="none" stroke="midnightblue" d="M516.02,-369.34C510.07,-356.65 498.23,-332.39 486,-313 475.33,-296.08 465.32,-295.97 459,-277 454.64,-263.93 449.85,-256.3 459,-246 470.3,-233.28 682.99,-212.91 803.11,-202.35"/>
<polygon fill="midnightblue" stroke="midnightblue" points="803.71,-205.81 813.36,-201.45 803.1,-198.84 803.71,-205.81"/>
</g>
<!-- Node7 -->
<g id="node7" class="node">
<title>Node7</title>
<g id="a_node7"><a xlink:title=" ">
<polygon fill="white" stroke="#bfbfbf" points="540.5,-252 540.5,-271 587.5,-271 587.5,-252 540.5,-252"/>
<text text-anchor="middle" x="564" y="-259" font-family="Helvetica,sans-Serif" font-size="10.00">omp.h</text>
</a>
</g>
</g>
<!-- Node6&#45;&gt;Node7 -->
<g id="edge6" class="edge">
<title>Node6&#45;&gt;Node7</title>
<path fill="none" stroke="midnightblue" d="M647.96,-313.48C631.95,-303.75 605.55,-287.73 586.63,-276.24"/>
<polygon fill="midnightblue" stroke="midnightblue" points="588.38,-273.21 578.01,-271.01 584.75,-279.19 588.38,-273.21"/>
</g>
<!-- Node6&#45;&gt;Node8 -->
<g id="edge7" class="edge">
<title>Node6&#45;&gt;Node8</title>
<path fill="none" stroke="midnightblue" d="M613.82,-314.04C549.27,-303.37 434.64,-284.42 363.8,-272.71"/>
<polygon fill="midnightblue" stroke="midnightblue" points="364.11,-269.22 353.68,-271.04 362.97,-276.12 364.11,-269.22"/>
</g>
<!-- Node6&#45;&gt;Node15 -->
<g id="edge36" class="edge">
<title>Node6&#45;&gt;Node15</title>
<path fill="none" stroke="midnightblue" d="M710.3,-317.21C763.23,-310.96 843.51,-298.26 865,-277 881.59,-260.59 884.84,-232.68 884.96,-214.16"/>
<polygon fill="midnightblue" stroke="midnightblue" points="888.46,-213.95 884.72,-204.04 881.46,-214.12 888.46,-213.95"/>
</g>
<!-- Node25 -->
<g id="node25" class="node">
<title>Node25</title>
<g id="a_node25"><a xlink:title=" ">
<polygon fill="white" stroke="#bfbfbf" points="606,-246.5 606,-276.5 722,-276.5 722,-246.5 606,-246.5"/>
<text text-anchor="start" x="614" y="-264.5" font-family="Helvetica,sans-Serif" font-size="10.00">boost/numeric/ublas</text>
<text text-anchor="middle" x="664" y="-253.5" font-family="Helvetica,sans-Serif" font-size="10.00">/io.hpp</text>
</a>
</g>
</g>
<!-- Node6&#45;&gt;Node25 -->
<g id="edge37" class="edge">
<title>Node6&#45;&gt;Node25</title>
<path fill="none" stroke="midnightblue" d="M662.29,-313.48C662.52,-306.47 662.87,-296.19 663.19,-286.7"/>
<polygon fill="midnightblue" stroke="midnightblue" points="666.69,-286.63 663.53,-276.52 659.69,-286.4 666.69,-286.63"/>
</g>
<!-- Node26 -->
<g id="node26" class="node">
<title>Node26</title>
<g id="a_node26"><a xlink:title=" ">
<polygon fill="white" stroke="#bfbfbf" points="740,-246.5 740,-276.5 856,-276.5 856,-246.5 740,-246.5"/>
<text text-anchor="start" x="748" y="-264.5" font-family="Helvetica,sans-Serif" font-size="10.00">boost/numeric/ublas</text>
<text text-anchor="middle" x="798" y="-253.5" font-family="Helvetica,sans-Serif" font-size="10.00">/matrix.hpp</text>
</a>
</g>
</g>
<!-- Node6&#45;&gt;Node26 -->
<g id="edge38" class="edge">
<title>Node6&#45;&gt;Node26</title>
<path fill="none" stroke="midnightblue" d="M681.49,-313.48C701.02,-304.93 731.71,-291.5 756.69,-280.57"/>
<polygon fill="midnightblue" stroke="midnightblue" points="758.19,-283.74 765.95,-276.52 755.38,-277.32 758.19,-283.74"/>
</g>
<!-- Node27 -->
<g id="node27" class="node">
<title>Node27</title>
<g id="a_node27"><a xlink:title=" ">
<polygon fill="white" stroke="#bfbfbf" points="468,-252 468,-271 522,-271 522,-252 468,-252"/>
<text text-anchor="middle" x="495" y="-259" font-family="Helvetica,sans-Serif" font-size="10.00">random</text>
</a>
</g>
</g>
<!-- Node6&#45;&gt;Node27 -->
<g id="edge39" class="edge">
<title>Node6&#45;&gt;Node27</title>
<path fill="none" stroke="midnightblue" d="M635.76,-313.43C609.21,-304.66 567.05,-290.44 531,-277 529.15,-276.31 527.26,-275.59 525.35,-274.85"/>
<polygon fill="midnightblue" stroke="midnightblue" points="526.46,-271.53 515.87,-271.12 523.89,-278.04 526.46,-271.53"/>
</g>
<!-- Node9 -->
<g id="node9" class="node">
<title>Node9</title>
<g id="a_node9"><a xlink:title=" ">
<polygon fill="white" stroke="#bfbfbf" points="579,-62 579,-81 643,-81 643,-62 579,-62"/>
<text text-anchor="middle" x="611" y="-69" font-family="Helvetica,sans-Serif" font-size="10.00">algorithm</text>
</a>
</g>
</g>
<!-- Node8&#45;&gt;Node9 -->
<g id="edge8" class="edge">
<title>Node8&#45;&gt;Node9</title>
<path fill="none" stroke="midnightblue" d="M352.23,-251.97C425.02,-239.41 552.09,-216.72 560,-210 595.79,-179.58 606.48,-121.58 609.66,-91.56"/>
<polygon fill="midnightblue" stroke="midnightblue" points="613.18,-91.49 610.57,-81.22 606.21,-90.87 613.18,-91.49"/>
</g>
<!-- Node10 -->
<g id="node10" class="node">
<title>Node10</title>
<g id="a_node10"><a xlink:title=" ">
<polygon fill="white" stroke="#bfbfbf" points="869,-123.5 869,-142.5 921,-142.5 921,-123.5 869,-123.5"/>
<text text-anchor="middle" x="895" y="-130.5" font-family="Helvetica,sans-Serif" font-size="10.00">cassert</text>
</a>
</g>
</g>
<!-- Node8&#45;&gt;Node10 -->
<g id="edge9" class="edge">
<title>Node8&#45;&gt;Node10</title>
<path fill="none" stroke="midnightblue" d="M352.01,-251.98C363.81,-249.99 376.34,-247.9 388,-246 489.25,-229.47 515.69,-231.51 616,-210 704.31,-191.06 806.29,-161.21 859.11,-145.13"/>
<polygon fill="midnightblue" stroke="midnightblue" points="860.15,-148.47 868.69,-142.2 858.11,-141.78 860.15,-148.47"/>
</g>
<!-- Node11 -->
<g id="node11" class="node">
<title>Node11</title>
<g id="a_node11"><a xlink:title=" ">
<polygon fill="white" stroke="#bfbfbf" points="688,-123.5 688,-142.5 748,-142.5 748,-123.5 688,-123.5"/>
<text text-anchor="middle" x="718" y="-130.5" font-family="Helvetica,sans-Serif" font-size="10.00">iostream</text>
</a>
</g>
</g>
<!-- Node8&#45;&gt;Node11 -->
<g id="edge10" class="edge">
<title>Node8&#45;&gt;Node11</title>
<path fill="none" stroke="midnightblue" d="M316.24,-251.86C331.96,-242.16 357.83,-225.73 379,-210 396.22,-197.21 396.43,-187.8 416,-179 461.98,-158.32 606.39,-143.52 677.55,-137.29"/>
<polygon fill="midnightblue" stroke="midnightblue" points="678.25,-140.74 687.91,-136.4 677.65,-133.77 678.25,-140.74"/>
</g>
<!-- Node12 -->
<g id="node12" class="node">
<title>Node12</title>
<g id="a_node12"><a xlink:title=" ">
<polygon fill="white" stroke="#bfbfbf" points="311.5,-123.5 311.5,-142.5 358.5,-142.5 358.5,-123.5 311.5,-123.5"/>
<text text-anchor="middle" x="335" y="-130.5" font-family="Helvetica,sans-Serif" font-size="10.00">vector</text>
</a>
</g>
</g>
<!-- Node8&#45;&gt;Node12 -->
<g id="edge11" class="edge">
<title>Node8&#45;&gt;Node12</title>
<path fill="none" stroke="midnightblue" d="M304.27,-251.81C309.57,-231.49 322.86,-180.55 330.1,-152.78"/>
<polygon fill="midnightblue" stroke="midnightblue" points="333.58,-153.32 332.72,-142.76 326.8,-151.55 333.58,-153.32"/>
</g>
<!-- Node13 -->
<g id="node13" class="node">
<title>Node13</title>
<g id="a_node13"><a xlink:title=" ">
<polygon fill="white" stroke="#bfbfbf" points="273,-62 273,-81 359,-81 359,-62 273,-62"/>
<text text-anchor="middle" x="316" y="-69" font-family="Helvetica,sans-Serif" font-size="10.00">unordered_set</text>
</a>
</g>
</g>
<!-- Node8&#45;&gt;Node13 -->
<g id="edge12" class="edge">
<title>Node8&#45;&gt;Node13</title>
<path fill="none" stroke="midnightblue" d="M301.19,-251.76C299.33,-229.92 295.44,-171.25 302,-123 303.48,-112.13 306.67,-100.29 309.64,-90.81"/>
<polygon fill="midnightblue" stroke="midnightblue" points="312.97,-91.88 312.78,-81.29 306.32,-89.69 312.97,-91.88"/>
</g>
<!-- Node14 -->
<g id="node14" class="node">
<title>Node14</title>
<g id="a_node14"><a xlink:href="../../d1/d45/Constants_8h.html" target="_top" xlink:title="MyBLAS Constants definition.">
<polygon fill="white" stroke="black" points="425,-185 425,-204 551,-204 551,-185 425,-185"/>
<text text-anchor="middle" x="488" y="-192" font-family="Helvetica,sans-Serif" font-size="10.00">math/blas/Constants.h</text>
</a>
</g>
</g>
<!-- Node8&#45;&gt;Node14 -->
<g id="edge13" class="edge">
<title>Node8&#45;&gt;Node14</title>
<path fill="none" stroke="midnightblue" d="M326.7,-251.87C359.31,-240.47 416.88,-220.35 453.7,-207.49"/>
<polygon fill="midnightblue" stroke="midnightblue" points="455.21,-210.67 463.49,-204.06 452.9,-204.06 455.21,-210.67"/>
</g>
<!-- Node8&#45;&gt;Node15 -->
<g id="edge14" class="edge">
<title>Node8&#45;&gt;Node15</title>
<path fill="none" stroke="midnightblue" d="M349.23,-251.96C361.8,-249.85 375.4,-247.7 388,-246 427.98,-240.6 672.83,-216.28 802.92,-203.46"/>
<polygon fill="midnightblue" stroke="midnightblue" points="803.62,-206.91 813.23,-202.45 802.93,-199.94 803.62,-206.91"/>
</g>
<!-- Node23 -->
<g id="node23" class="node">
<title>Node23</title>
<g id="a_node23"><a xlink:href="../../dc/dc5/ResourceMonitor_8h.html" target="_top" xlink:title="Header file for the ResourceMonitor class.">
<polygon fill="white" stroke="black" points="411.5,-123.5 411.5,-142.5 556.5,-142.5 556.5,-123.5 411.5,-123.5"/>
<text text-anchor="middle" x="484" y="-130.5" font-family="Helvetica,sans-Serif" font-size="10.00">profiler/ResourceMonitor.h</text>
</a>
</g>
</g>
<!-- Node8&#45;&gt;Node23 -->
<g id="edge35" class="edge">
<title>Node8&#45;&gt;Node23</title>
<path fill="none" stroke="midnightblue" d="M308.74,-251.84C321.67,-235.72 351.47,-200.75 383,-179 403.23,-165.04 428.5,-153.79 448.69,-146.03"/>
<polygon fill="midnightblue" stroke="midnightblue" points="450.01,-149.27 458.16,-142.5 447.56,-142.71 450.01,-149.27"/>
</g>
<!-- Node15&#45;&gt;Node10 -->
<g id="edge15" class="edge">
<title>Node15&#45;&gt;Node10</title>
<path fill="none" stroke="midnightblue" d="M885.58,-184.98C887.13,-176.58 889.55,-163.48 891.55,-152.66"/>
<polygon fill="midnightblue" stroke="midnightblue" points="895.05,-152.98 893.43,-142.51 888.17,-151.71 895.05,-152.98"/>
</g>
<!-- Node15&#45;&gt;Node11 -->
<g id="edge18" class="edge">
<title>Node15&#45;&gt;Node11</title>
<path fill="none" stroke="midnightblue" d="M860.22,-184.98C831.62,-174.72 783.45,-157.46 751.2,-145.9"/>
<polygon fill="midnightblue" stroke="midnightblue" points="752.33,-142.59 741.74,-142.51 749.97,-149.18 752.33,-142.59"/>
</g>
<!-- Node15&#45;&gt;Node12 -->
<g id="edge19" class="edge">
<title>Node15&#45;&gt;Node12</title>
<path fill="none" stroke="midnightblue" d="M813.28,-186.74C719.27,-177.61 547.99,-160.45 402,-143 391.16,-141.7 379.36,-140.16 368.72,-138.72"/>
<polygon fill="midnightblue" stroke="midnightblue" points="368.93,-135.22 358.54,-137.33 367.98,-142.16 368.93,-135.22"/>
</g>
<!-- Node16 -->
<g id="node16" class="node">
<title>Node16</title>
<g id="a_node16"><a xlink:title=" ">
<polygon fill="white" stroke="#bfbfbf" points="942.5,-62 942.5,-81 1007.5,-81 1007.5,-62 942.5,-62"/>
<text text-anchor="middle" x="975" y="-69" font-family="Helvetica,sans-Serif" font-size="10.00">functional</text>
</a>
</g>
</g>
<!-- Node15&#45;&gt;Node16 -->
<g id="edge16" class="edge">
<title>Node15&#45;&gt;Node16</title>
<path fill="none" stroke="midnightblue" d="M892.62,-184.96C902.24,-175.22 918.03,-158.63 930,-143 943.2,-125.76 956.33,-104.62 964.97,-90"/>
<polygon fill="midnightblue" stroke="midnightblue" points="968.17,-91.46 970.18,-81.06 962.12,-87.94 968.17,-91.46"/>
</g>
<!-- Node17 -->
<g id="node17" class="node">
<title>Node17</title>
<g id="a_node17"><a xlink:title=" ">
<polygon fill="white" stroke="#bfbfbf" points="795,-123.5 795,-142.5 851,-142.5 851,-123.5 795,-123.5"/>
<text text-anchor="middle" x="823" y="-130.5" font-family="Helvetica,sans-Serif" font-size="10.00">iomanip</text>
</a>
</g>
</g>
<!-- Node15&#45;&gt;Node17 -->
<g id="edge17" class="edge">
<title>Node15&#45;&gt;Node17</title>
<path fill="none" stroke="midnightblue" d="M875.26,-184.98C865.84,-175.78 850.64,-160.96 839.05,-149.66"/>
<polygon fill="midnightblue" stroke="midnightblue" points="841.33,-146.99 831.72,-142.51 836.44,-152 841.33,-146.99"/>
</g>
<!-- Node18 -->
<g id="node18" class="node">
<title>Node18</title>
<g id="a_node18"><a xlink:href="../../de/dcb/LazyVector_8h.html" target="_top" xlink:title="Header file for the LazyVector class.">
<polygon fill="white" stroke="black" points="1111,-123.5 1111,-142.5 1189,-142.5 1189,-123.5 1111,-123.5"/>
<text text-anchor="middle" x="1150" y="-130.5" font-family="Helvetica,sans-Serif" font-size="10.00">LazyVector.h</text>
</a>
</g>
</g>
<!-- Node15&#45;&gt;Node18 -->
<g id="edge20" class="edge">
<title>Node15&#45;&gt;Node18</title>
<path fill="none" stroke="midnightblue" d="M917.21,-184.98C963.42,-174.11 1047.17,-155.36 1100.67,-143.88"/>
<polygon fill="midnightblue" stroke="midnightblue" points="1101.57,-147.26 1110.62,-141.75 1100.11,-140.42 1101.57,-147.26"/>
</g>
<!-- Node15&#45;&gt;Node23 -->
<g id="edge30" class="edge">
<title>Node15&#45;&gt;Node23</title>
<path fill="none" stroke="midnightblue" d="M826.69,-184.98C753.92,-174.15 628.55,-155.5 551.31,-144.01"/>
<polygon fill="midnightblue" stroke="midnightblue" points="551.61,-140.52 541.2,-142.51 550.58,-147.44 551.61,-140.52"/>
</g>
<!-- Node18&#45;&gt;Node9 -->
<g id="edge21" class="edge">
<title>Node18&#45;&gt;Node9</title>
<path fill="none" stroke="midnightblue" d="M1110.8,-127.67C1012.3,-116.8 755.03,-88.4 653.29,-77.17"/>
<polygon fill="midnightblue" stroke="midnightblue" points="653.41,-73.66 643.09,-76.04 652.64,-80.62 653.41,-73.66"/>
</g>
<!-- Node18&#45;&gt;Node15 -->
<g id="edge25" class="edge">
<title>Node18&#45;&gt;Node15</title>
<path fill="none" stroke="midnightblue" d="M1116.86,-142.51C1071.7,-153.13 990.64,-171.29 937.02,-182.83"/>
<polygon fill="midnightblue" stroke="midnightblue" points="936.06,-179.46 927.01,-184.98 937.52,-186.3 936.06,-179.46"/>
</g>
<!-- Node18&#45;&gt;Node16 -->
<g id="edge23" class="edge">
<title>Node18&#45;&gt;Node16</title>
<path fill="none" stroke="midnightblue" d="M1124.49,-123.42C1097.7,-114.4 1054.37,-99.77 1017,-87 1014.57,-86.17 1012.07,-85.31 1009.55,-84.45"/>
<polygon fill="midnightblue" stroke="midnightblue" points="1010.46,-81.06 999.87,-81.11 1008.18,-87.68 1010.46,-81.06"/>
</g>
<!-- Node19 -->
<g id="node19" class="node">
<title>Node19</title>
<g id="a_node19"><a xlink:title=" ">
<polygon fill="white" stroke="#bfbfbf" points="1369.5,-0.5 1369.5,-19.5 1422.5,-19.5 1422.5,-0.5 1369.5,-0.5"/>
<text text-anchor="middle" x="1396" y="-7.5" font-family="Helvetica,sans-Serif" font-size="10.00">cstddef</text>
</a>
</g>
</g>
<!-- Node18&#45;&gt;Node19 -->
<g id="edge22" class="edge">
<title>Node18&#45;&gt;Node19</title>
<path fill="none" stroke="midnightblue" d="M1151.14,-123.4C1153.74,-107.48 1161.61,-73.47 1183,-56 1209.56,-34.32 1305.43,-20.77 1359.05,-14.71"/>
<polygon fill="midnightblue" stroke="midnightblue" points="1359.62,-18.17 1369.18,-13.6 1358.85,-11.21 1359.62,-18.17"/>
</g>
<!-- Node20 -->
<g id="node20" class="node">
<title>Node20</title>
<g id="a_node20"><a xlink:title=" ">
<polygon fill="white" stroke="#bfbfbf" points="1192,-62 1192,-81 1250,-81 1250,-62 1192,-62"/>
<text text-anchor="middle" x="1221" y="-69" font-family="Helvetica,sans-Serif" font-size="10.00">memory</text>
</a>
</g>
</g>
<!-- Node18&#45;&gt;Node20 -->
<g id="edge24" class="edge">
<title>Node18&#45;&gt;Node20</title>
<path fill="none" stroke="midnightblue" d="M1160.17,-123.48C1171.35,-114.11 1189.52,-98.88 1203.09,-87.51"/>
<polygon fill="midnightblue" stroke="midnightblue" points="1205.43,-90.11 1210.85,-81.01 1200.93,-84.75 1205.43,-90.11"/>
</g>
<!-- Node21 -->
<g id="node21" class="node">
<title>Node21</title>
<g id="a_node21"><a xlink:href="../../d6/d9f/VectorExpression_8h.html" target="_top" xlink:title="Header file for the MyBLAS::VectorExpression class.">
<polygon fill="white" stroke="black" points="1026,-62 1026,-81 1136,-81 1136,-62 1026,-62"/>
<text text-anchor="middle" x="1081" y="-69" font-family="Helvetica,sans-Serif" font-size="10.00">VectorExpression.h</text>
</a>
</g>
</g>
<!-- Node18&#45;&gt;Node21 -->
<g id="edge26" class="edge">
<title>Node18&#45;&gt;Node21</title>
<path fill="none" stroke="midnightblue" d="M1140.11,-123.48C1129.35,-114.2 1111.93,-99.17 1098.78,-87.83"/>
<polygon fill="midnightblue" stroke="midnightblue" points="1100.73,-84.89 1090.87,-81.01 1096.16,-90.19 1100.73,-84.89"/>
</g>
<!-- Node22 -->
<g id="node22" class="node">
<title>Node22</title>
<g id="a_node22"><a xlink:href="../../d6/db1/ContainerExpression_8h.html" target="_top" xlink:title="Header file for the ContainerExpression class.">
<polygon fill="white" stroke="black" points="1268.5,-56.5 1268.5,-86.5 1419.5,-86.5 1419.5,-56.5 1268.5,-56.5"/>
<text text-anchor="start" x="1276.5" y="-74.5" font-family="Helvetica,sans-Serif" font-size="10.00">math/blas/matrix/Container</text>
<text text-anchor="middle" x="1344" y="-63.5" font-family="Helvetica,sans-Serif" font-size="10.00">Expression.h</text>
</a>
</g>
</g>
<!-- Node18&#45;&gt;Node22 -->
<g id="edge28" class="edge">
<title>Node18&#45;&gt;Node22</title>
<path fill="none" stroke="midnightblue" d="M1177.8,-123.48C1206.53,-114.66 1252.16,-100.67 1288.34,-89.57"/>
<polygon fill="midnightblue" stroke="midnightblue" points="1289.74,-92.8 1298.28,-86.52 1287.69,-86.11 1289.74,-92.8"/>
</g>
<!-- Node21&#45;&gt;Node19 -->
<g id="edge27" class="edge">
<title>Node21&#45;&gt;Node19</title>
<path fill="none" stroke="midnightblue" d="M1120.73,-61.96C1130.31,-59.96 1140.51,-57.86 1150,-56 1224.22,-41.42 1311.35,-25.84 1359.45,-17.38"/>
<polygon fill="midnightblue" stroke="midnightblue" points="1360.14,-20.81 1369.38,-15.63 1358.93,-13.92 1360.14,-20.81"/>
</g>
<!-- Node22&#45;&gt;Node19 -->
<g id="edge29" class="edge">
<title>Node22&#45;&gt;Node19</title>
<path fill="none" stroke="midnightblue" d="M1356.32,-56.4C1363.96,-47.66 1373.79,-36.41 1381.76,-27.3"/>
<polygon fill="midnightblue" stroke="midnightblue" points="1384.49,-29.49 1388.43,-19.66 1379.22,-24.88 1384.49,-29.49"/>
</g>
<!-- Node23&#45;&gt;Node9 -->
<g id="edge31" class="edge">
<title>Node23&#45;&gt;Node9</title>
<path fill="none" stroke="midnightblue" d="M502.2,-123.48C523.51,-113.49 559.03,-96.85 583.66,-85.31"/>
<polygon fill="midnightblue" stroke="midnightblue" points="585.27,-88.42 592.84,-81.01 582.3,-82.08 585.27,-88.42"/>
</g>
<!-- Node23&#45;&gt;Node13 -->
<g id="edge33" class="edge">
<title>Node23&#45;&gt;Node13</title>
<path fill="none" stroke="midnightblue" d="M459.93,-123.48C430.99,-113.22 382.24,-95.96 349.6,-84.4"/>
<polygon fill="midnightblue" stroke="midnightblue" points="350.62,-81.05 340.03,-81.01 348.28,-87.65 350.62,-81.05"/>
</g>
<!-- Node23&#45;&gt;Node19 -->
<g id="edge32" class="edge">
<title>Node23&#45;&gt;Node19</title>
<path fill="none" stroke="midnightblue" d="M493.22,-123.22C513.48,-104.04 560.78,-59.78 570,-56 643.56,-25.84 1207.87,-14.19 1358.92,-11.59"/>
<polygon fill="midnightblue" stroke="midnightblue" points="1359.12,-15.09 1369.06,-11.42 1359.01,-8.09 1359.12,-15.09"/>
</g>
<!-- Node24 -->
<g id="node24" class="node">
<title>Node24</title>
<g id="a_node24"><a xlink:title=" ">
<polygon fill="white" stroke="#bfbfbf" points="429.5,-62 429.5,-81 522.5,-81 522.5,-62 429.5,-62"/>
<text text-anchor="middle" x="476" y="-69" font-family="Helvetica,sans-Serif" font-size="10.00">unordered_map</text>
</a>
</g>
</g>
<!-- Node23&#45;&gt;Node24 -->
<g id="edge34" class="edge">
<title>Node23&#45;&gt;Node24</title>
<path fill="none" stroke="midnightblue" d="M482.85,-123.48C481.73,-115.08 479.96,-101.98 478.51,-91.16"/>
<polygon fill="midnightblue" stroke="midnightblue" points="481.95,-90.45 477.14,-81.01 475.01,-91.39 481.95,-90.45"/>
</g>
<!-- Node28&#45;&gt;Node5 -->
<g id="edge46" class="edge">
<title>Node28&#45;&gt;Node5</title>
<path fill="none" stroke="midnightblue" d="M845.58,-369.47C743.61,-357.63 563.23,-336.69 488.21,-327.97"/>
<polygon fill="midnightblue" stroke="midnightblue" points="488.27,-324.46 477.93,-326.78 487.46,-331.41 488.27,-324.46"/>
</g>
<!-- Node28&#45;&gt;Node8 -->
<g id="edge62" class="edge">
<title>Node28&#45;&gt;Node8</title>
<path fill="none" stroke="midnightblue" d="M846.68,-369.49C782.84,-361.53 687.39,-348.56 605,-333 566.87,-325.8 557.79,-321.82 520,-313 461.04,-299.23 393.06,-283.51 348.91,-273.32"/>
<polygon fill="midnightblue" stroke="midnightblue" points="349.57,-269.88 339.04,-271.04 348,-276.7 349.57,-269.88"/>
</g>
<!-- Node28&#45;&gt;Node15 -->
<g id="edge64" class="edge">
<title>Node28&#45;&gt;Node15</title>
<path fill="none" stroke="midnightblue" d="M923.09,-369.25C932.66,-347.46 954.36,-289.41 936,-246 929.91,-231.59 917.47,-219.27 906.29,-210.4"/>
<polygon fill="midnightblue" stroke="midnightblue" points="908.22,-207.48 898.11,-204.32 904.04,-213.09 908.22,-207.48"/>
</g>
<!-- Node28&#45;&gt;Node18 -->
<g id="edge63" class="edge">
<title>Node28&#45;&gt;Node18</title>
<path fill="none" stroke="midnightblue" d="M942.2,-369.5C960.83,-361.9 986.93,-349.42 1006,-333 1069.8,-278.06 1120.84,-189.5 1140.86,-151.85"/>
<polygon fill="midnightblue" stroke="midnightblue" points="1144.13,-153.14 1145.66,-142.65 1137.93,-149.9 1144.13,-153.14"/>
</g>
<!-- Node28&#45;&gt;Node19 -->
<g id="edge47" class="edge">
<title>Node28&#45;&gt;Node19</title>
<path fill="none" stroke="midnightblue" d="M996.69,-374.08C1188.29,-363.39 1668,-329.89 1668,-262.5 1668,-262.5 1668,-262.5 1668,-132 1668,-30.28 1507.22,-13.45 1432.89,-11.1"/>
<polygon fill="midnightblue" stroke="midnightblue" points="1432.66,-7.59 1422.58,-10.85 1432.49,-14.59 1432.66,-7.59"/>
</g>
<!-- Node29 -->
<g id="node29" class="node">
<title>Node29</title>
<g id="a_node29"><a xlink:title=" ">
<polygon fill="white" stroke="#bfbfbf" points="953,-313.5 953,-332.5 997,-332.5 997,-313.5 953,-313.5"/>
<text text-anchor="middle" x="975" y="-320.5" font-family="Helvetica,sans-Serif" font-size="10.00">limits</text>
</a>
</g>
</g>
<!-- Node28&#45;&gt;Node29 -->
<g id="edge48" class="edge">
<title>Node28&#45;&gt;Node29</title>
<path fill="none" stroke="midnightblue" d="M928,-369.32C936.19,-361.42 948.51,-349.55 958.47,-339.94"/>
<polygon fill="midnightblue" stroke="midnightblue" points="961.07,-342.29 965.84,-332.83 956.21,-337.26 961.07,-342.29"/>
</g>
<!-- Node30 -->
<g id="node30" class="node">
<title>Node30</title>
<g id="a_node30"><a xlink:href="../../d8/d5a/LazyMatrix_8h.html" target="_top" xlink:title="Header file for the LazyMatrix class.">
<polygon fill="white" stroke="black" points="1128.5,-313.5 1128.5,-332.5 1243.5,-332.5 1243.5,-313.5 1128.5,-313.5"/>
<text text-anchor="middle" x="1186" y="-320.5" font-family="Helvetica,sans-Serif" font-size="10.00">matrix/LazyMatrix.h</text>
</a>
</g>
</g>
<!-- Node28&#45;&gt;Node30 -->
<g id="edge49" class="edge">
<title>Node28&#45;&gt;Node30</title>
<path fill="none" stroke="midnightblue" d="M961.31,-369.44C1008.08,-359.98 1083.46,-344.74 1133.85,-334.55"/>
<polygon fill="midnightblue" stroke="midnightblue" points="1134.78,-337.93 1143.89,-332.52 1133.4,-331.07 1134.78,-337.93"/>
</g>
<!-- Node30&#45;&gt;Node8 -->
<g id="edge58" class="edge">
<title>Node30&#45;&gt;Node8</title>
<path fill="none" stroke="midnightblue" d="M1128.47,-319.03C1005.51,-312.56 708.01,-296.2 459,-277 434.76,-275.13 408.44,-272.81 384.41,-270.58"/>
<polygon fill="midnightblue" stroke="midnightblue" points="384.54,-267.08 374.26,-269.64 383.89,-274.05 384.54,-267.08"/>
</g>
<!-- Node30&#45;&gt;Node9 -->
<g id="edge50" class="edge">
<title>Node30&#45;&gt;Node9</title>
<path fill="none" stroke="midnightblue" d="M1176.42,-313.48C1137.07,-278.66 987.21,-147.79 930,-123 837.11,-82.75 716.56,-74.15 653.58,-72.58"/>
<polygon fill="midnightblue" stroke="midnightblue" points="653.32,-69.08 643.25,-72.38 653.18,-76.08 653.32,-69.08"/>
</g>
<!-- Node30&#45;&gt;Node16 -->
<g id="edge52" class="edge">
<title>Node30&#45;&gt;Node16</title>
<path fill="none" stroke="midnightblue" d="M1181.56,-313.2C1166.37,-283.67 1113.84,-186.4 1050,-123 1035.24,-108.34 1015.67,-95.33 1000.22,-86.19"/>
<polygon fill="midnightblue" stroke="midnightblue" points="1001.63,-82.96 991.21,-81.01 998.14,-89.03 1001.63,-82.96"/>
</g>
<!-- Node30&#45;&gt;Node18 -->
<g id="edge59" class="edge">
<title>Node30&#45;&gt;Node18</title>
<path fill="none" stroke="midnightblue" d="M1184.36,-313.43C1178.89,-284.87 1161.19,-192.43 1153.56,-152.57"/>
<polygon fill="midnightblue" stroke="midnightblue" points="1156.97,-151.78 1151.65,-142.62 1150.09,-153.1 1156.97,-151.78"/>
</g>
<!-- Node30&#45;&gt;Node19 -->
<g id="edge51" class="edge">
<title>Node30&#45;&gt;Node19</title>
<path fill="none" stroke="midnightblue" d="M1243.83,-317.61C1278.07,-312.43 1320.56,-301.22 1351,-277 1373.54,-259.07 1438.01,-114.19 1444,-87 1446.97,-73.55 1449.48,-68.64 1444,-56 1438.73,-43.84 1428.38,-33.46 1418.64,-25.74"/>
<polygon fill="midnightblue" stroke="midnightblue" points="1420.5,-22.77 1410.37,-19.67 1416.36,-28.41 1420.5,-22.77"/>
</g>
<!-- Node30&#45;&gt;Node20 -->
<g id="edge53" class="edge">
<title>Node30&#45;&gt;Node20</title>
<path fill="none" stroke="midnightblue" d="M1212.45,-313.44C1251.68,-299.13 1323.9,-266.25 1354,-210 1383.25,-155.35 1299.15,-107.3 1251.44,-85.28"/>
<polygon fill="midnightblue" stroke="midnightblue" points="1252.7,-82 1242.14,-81.1 1249.83,-88.39 1252.7,-82"/>
</g>
<!-- Node30&#45;&gt;Node22 -->
<g id="edge54" class="edge">
<title>Node30&#45;&gt;Node22</title>
<path fill="none" stroke="midnightblue" d="M1232.9,-313.46C1260.19,-306.82 1294.17,-295.52 1320,-277 1350.41,-255.19 1359.04,-245.46 1371,-210 1384.09,-171.2 1368.29,-123.98 1355.94,-96.18"/>
<polygon fill="midnightblue" stroke="midnightblue" points="1359,-94.46 1351.6,-86.87 1352.65,-97.42 1359,-94.46"/>
</g>
<!-- Node31 -->
<g id="node31" class="node">
<title>Node31</title>
<g id="a_node31"><a xlink:href="../../df/df0/ElementwiseExpression_8h.html" target="_top" xlink:title="This file defines a class for performing element&#45;wise operations on two containers.">
<polygon fill="white" stroke="black" points="1177.5,-179.5 1177.5,-209.5 1344.5,-209.5 1344.5,-179.5 1177.5,-179.5"/>
<text text-anchor="start" x="1185.5" y="-197.5" font-family="Helvetica,sans-Serif" font-size="10.00">math/blas/matrix/Elementwise</text>
<text text-anchor="middle" x="1261" y="-186.5" font-family="Helvetica,sans-Serif" font-size="10.00">Expression.h</text>
</a>
</g>
</g>
<!-- Node30&#45;&gt;Node31 -->
<g id="edge55" class="edge">
<title>Node30&#45;&gt;Node31</title>
<path fill="none" stroke="midnightblue" d="M1191.16,-313.31C1202.57,-294.05 1230.32,-247.25 1247.2,-218.78"/>
<polygon fill="midnightblue" stroke="midnightblue" points="1250.38,-220.27 1252.47,-209.89 1244.36,-216.7 1250.38,-220.27"/>
</g>
<!-- Node32 -->
<g id="node32" class="node">
<title>Node32</title>
<g id="a_node32"><a xlink:href="../../d2/dc6/MatrixVectorExpression_8h.html" target="_top" xlink:title="Header file for the MatrixVectorExpression class.">
<polygon fill="white" stroke="black" points="1476,-179.5 1476,-209.5 1640,-209.5 1640,-179.5 1476,-179.5"/>
<text text-anchor="start" x="1484" y="-197.5" font-family="Helvetica,sans-Serif" font-size="10.00">math/blas/vector/MatrixVector</text>
<text text-anchor="middle" x="1558" y="-186.5" font-family="Helvetica,sans-Serif" font-size="10.00">Expression.h</text>
</a>
</g>
</g>
<!-- Node30&#45;&gt;Node32 -->
<g id="edge60" class="edge">
<title>Node30&#45;&gt;Node32</title>
<path fill="none" stroke="midnightblue" d="M1243.58,-321.5C1301.3,-319.01 1391.48,-309.58 1462,-277 1492.56,-262.88 1521.1,-236.26 1538.98,-217.28"/>
<polygon fill="midnightblue" stroke="midnightblue" points="1541.78,-219.41 1545.97,-209.67 1536.63,-214.67 1541.78,-219.41"/>
</g>
<!-- Node31&#45;&gt;Node10 -->
<g id="edge56" class="edge">
<title>Node31&#45;&gt;Node10</title>
<path fill="none" stroke="midnightblue" d="M1177.49,-179.92C1099.83,-167.3 987.83,-149.09 931,-139.85"/>
<polygon fill="midnightblue" stroke="midnightblue" points="931.49,-136.39 921.05,-138.24 930.36,-143.29 931.49,-136.39"/>
</g>
<!-- Node31&#45;&gt;Node19 -->
<g id="edge57" class="edge">
<title>Node31&#45;&gt;Node19</title>
<path fill="none" stroke="midnightblue" d="M1304.83,-179.5C1345.24,-163.98 1402.79,-134.66 1429,-87 1439.88,-67.22 1425.02,-43.13 1411.89,-27.45"/>
<polygon fill="midnightblue" stroke="midnightblue" points="1414.22,-24.8 1404.95,-19.68 1409,-29.47 1414.22,-24.8"/>
</g>
<!-- Node32&#45;&gt;Node19 -->
<g id="edge61" class="edge">
<title>Node32&#45;&gt;Node19</title>
<path fill="none" stroke="midnightblue" d="M1555.67,-179.49C1550.44,-152.26 1535.38,-91.7 1500,-56 1481.63,-37.46 1454.36,-26.05 1432.36,-19.36"/>
<polygon fill="midnightblue" stroke="midnightblue" points="1433.25,-15.97 1422.67,-16.61 1431.33,-22.71 1433.25,-15.97"/>
</g>
<!-- Node34 -->
<g id="node34" class="node">
<title>Node34</title>
<g id="a_node34"><a xlink:href="../../d1/d6a/Factorize_8h.html" target="_top" xlink:title="This file contains the declaration of the MyFactorizationMethod namespace, which includes methods and...">
<polygon fill="white" stroke="black" points="666.5,-425.5 666.5,-455.5 773.5,-455.5 773.5,-425.5 666.5,-425.5"/>
<text text-anchor="start" x="674.5" y="-443.5" font-family="Helvetica,sans-Serif" font-size="10.00">math/factorization</text>
<text text-anchor="middle" x="720" y="-432.5" font-family="Helvetica,sans-Serif" font-size="10.00">/Factorize.h</text>
</a>
</g>
</g>
<!-- Node33&#45;&gt;Node34 -->
<g id="edge66" class="edge">
<title>Node33&#45;&gt;Node34</title>
<path fill="none" stroke="midnightblue" d="M522.95,-492.48C557.64,-483.5 613.1,-469.15 656.36,-457.96"/>
<polygon fill="midnightblue" stroke="midnightblue" points="657.43,-461.3 666.24,-455.41 655.68,-454.52 657.43,-461.3"/>
</g>
<!-- Node35 -->
<g id="node35" class="node">
<title>Node35</title>
<g id="a_node35"><a xlink:href="../../d0/d24/RelaxationMethods_8h.html" target="_top" xlink:title="This file contains the declaration of the RelaxationMethods namespace, which includes the Type enumer...">
<polygon fill="white" stroke="black" points="499,-425.5 499,-455.5 649,-455.5 649,-425.5 499,-425.5"/>
<text text-anchor="start" x="507" y="-443.5" font-family="Helvetica,sans-Serif" font-size="10.00">math/relaxation/Relaxation</text>
<text text-anchor="middle" x="574" y="-432.5" font-family="Helvetica,sans-Serif" font-size="10.00">Methods.h</text>
</a>
</g>
</g>
<!-- Node33&#45;&gt;Node35 -->
<g id="edge70" class="edge">
<title>Node33&#45;&gt;Node35</title>
<path fill="none" stroke="midnightblue" d="M502.04,-492.48C513.41,-484.42 530.91,-472.02 545.8,-461.47"/>
<polygon fill="midnightblue" stroke="midnightblue" points="548.07,-464.16 554.2,-455.52 544.02,-458.45 548.07,-464.16"/>
</g>
<!-- Node36 -->
<g id="node36" class="node">
<title>Node36</title>
<g id="a_node36"><a xlink:href="../../dc/d09/Stats_8h.html" target="_top" xlink:title="This file contains the declaration of statistical functions and structures for vectors and matrices.">
<polygon fill="white" stroke="black" points="194.5,-431 194.5,-450 297.5,-450 297.5,-431 194.5,-431"/>
<text text-anchor="middle" x="246" y="-438" font-family="Helvetica,sans-Serif" font-size="10.00">utils/math/Stats.h</text>
</a>
</g>
</g>
<!-- Node33&#45;&gt;Node36 -->
<g id="edge72" class="edge">
<title>Node33&#45;&gt;Node36</title>
<path fill="none" stroke="midnightblue" d="M455.04,-492.48C411.83,-481.94 338.21,-463.99 290.87,-452.44"/>
<polygon fill="midnightblue" stroke="midnightblue" points="291.44,-448.98 280.89,-450.01 289.78,-455.78 291.44,-448.98"/>
</g>
<!-- Node40 -->
<g id="node40" class="node">
<title>Node40</title>
<g id="a_node40"><a xlink:title=" ">
<polygon fill="white" stroke="#bfbfbf" points="430.5,-431 430.5,-450 481.5,-450 481.5,-431 430.5,-431"/>
<text text-anchor="middle" x="456" y="-438" font-family="Helvetica,sans-Serif" font-size="10.00">variant</text>
</a>
</g>
</g>
<!-- Node33&#45;&gt;Node40 -->
<g id="edge82" class="edge">
<title>Node33&#45;&gt;Node40</title>
<path fill="none" stroke="midnightblue" d="M485.13,-492.48C480.13,-483.73 472.21,-469.87 465.89,-458.81"/>
<polygon fill="midnightblue" stroke="midnightblue" points="468.86,-456.96 460.86,-450.01 462.78,-460.43 468.86,-456.96"/>
</g>
<!-- Node34&#45;&gt;Node4 -->
<g id="edge67" class="edge">
<title>Node34&#45;&gt;Node4</title>
<path fill="none" stroke="midnightblue" d="M672.86,-425.47C637.9,-415.08 590.85,-401.08 558.23,-391.37"/>
<polygon fill="midnightblue" stroke="midnightblue" points="559.18,-388 548.59,-388.51 557.18,-394.71 559.18,-388"/>
</g>
<!-- Node34&#45;&gt;Node8 -->
<g id="edge68" class="edge">
<title>Node34&#45;&gt;Node8</title>
<path fill="none" stroke="midnightblue" d="M692.63,-425.39C653.92,-405.34 581.09,-367.21 520,-333 504.7,-324.43 502.15,-319.82 486,-313 443.61,-295.09 393.03,-281.74 355.64,-273.28"/>
<polygon fill="midnightblue" stroke="midnightblue" points="355.98,-269.78 345.46,-271.03 354.47,-276.61 355.98,-269.78"/>
</g>
<!-- Node34&#45;&gt;Node15 -->
<g id="edge69" class="edge">
<title>Node34&#45;&gt;Node15</title>
<path fill="none" stroke="midnightblue" d="M743.75,-425.44C782.43,-400.98 857.65,-346.5 887,-277 895.58,-256.67 892.6,-230.89 888.96,-213.82"/>
<polygon fill="midnightblue" stroke="midnightblue" points="892.34,-212.91 886.58,-204.02 885.54,-214.56 892.34,-212.91"/>
</g>
<!-- Node35&#45;&gt;Node4 -->
<g id="edge71" class="edge">
<title>Node35&#45;&gt;Node4</title>
<path fill="none" stroke="midnightblue" d="M561.2,-425.4C553.28,-416.66 543.06,-405.41 534.79,-396.3"/>
<polygon fill="midnightblue" stroke="midnightblue" points="537.17,-393.71 527.86,-388.66 531.99,-398.42 537.17,-393.71"/>
</g>
<!-- Node36&#45;&gt;Node4 -->
<g id="edge79" class="edge">
<title>Node36&#45;&gt;Node4</title>
<path fill="none" stroke="midnightblue" d="M285.26,-430.98C334.19,-420.35 417.84,-402.18 470.95,-390.65"/>
<polygon fill="midnightblue" stroke="midnightblue" points="471.79,-394.05 480.82,-388.51 470.3,-387.21 471.79,-394.05"/>
</g>
<!-- Node36&#45;&gt;Node5 -->
<g id="edge74" class="edge">
<title>Node36&#45;&gt;Node5</title>
<path fill="none" stroke="midnightblue" d="M297.81,-434.24C334.08,-428.31 381.97,-415.7 416,-389 431.39,-376.92 441.78,-356.75 447.75,-342.07"/>
<polygon fill="midnightblue" stroke="midnightblue" points="451.08,-343.15 451.32,-332.56 444.53,-340.69 451.08,-343.15"/>
</g>
<!-- Node36&#45;&gt;Node8 -->
<g id="edge80" class="edge">
<title>Node36&#45;&gt;Node8</title>
<path fill="none" stroke="midnightblue" d="M194.34,-434.75C141.33,-427.58 69.91,-410.12 95,-369 128.08,-314.77 198.57,-286.99 248.06,-273.62"/>
<polygon fill="midnightblue" stroke="midnightblue" points="249.17,-276.95 257.97,-271.05 247.41,-270.17 249.17,-276.95"/>
</g>
<!-- Node36&#45;&gt;Node9 -->
<g id="edge73" class="edge">
<title>Node36&#45;&gt;Node9</title>
<path fill="none" stroke="midnightblue" d="M194.43,-437.51C122.3,-431.65 0,-409.16 0,-324 0,-324 0,-324 0,-193.5 0,-73.15 412.34,-107.08 531,-87 543.29,-84.92 556.61,-82.55 568.8,-80.34"/>
<polygon fill="midnightblue" stroke="midnightblue" points="569.51,-83.77 578.72,-78.53 568.26,-76.88 569.51,-83.77"/>
</g>
<!-- Node36&#45;&gt;Node12 -->
<g id="edge77" class="edge">
<title>Node36&#45;&gt;Node12</title>
<path fill="none" stroke="midnightblue" d="M194.32,-433.44C132.72,-423 38,-395.35 38,-324 38,-324 38,-324 38,-260.5 38,-147.16 223.35,-133.95 301.21,-133.4"/>
<polygon fill="midnightblue" stroke="midnightblue" points="301.45,-136.9 311.45,-133.39 301.45,-129.9 301.45,-136.9"/>
</g>
<!-- Node36&#45;&gt;Node15 -->
<g id="edge81" class="edge">
<title>Node36&#45;&gt;Node15</title>
<path fill="none" stroke="midnightblue" d="M270.26,-430.84C291.54,-422.42 322.51,-408.12 345,-389 405.07,-337.93 381.84,-285.63 450,-246 479.79,-228.68 685.94,-210.51 803.08,-201.42"/>
<polygon fill="midnightblue" stroke="midnightblue" points="803.39,-204.9 813.09,-200.64 802.85,-197.92 803.39,-204.9"/>
</g>
<!-- Node37 -->
<g id="node37" class="node">
<title>Node37</title>
<g id="a_node37"><a xlink:title=" ">
<polygon fill="white" stroke="#bfbfbf" points="104,-369.5 104,-388.5 160,-388.5 160,-369.5 104,-369.5"/>
<text text-anchor="middle" x="132" y="-376.5" font-family="Helvetica,sans-Serif" font-size="10.00">numeric</text>
</a>
</g>
</g>
<!-- Node36&#45;&gt;Node37 -->
<g id="edge75" class="edge">
<title>Node36&#45;&gt;Node37</title>
<path fill="none" stroke="midnightblue" d="M229.67,-430.98C210.79,-421.12 179.49,-404.79 157.42,-393.27"/>
<polygon fill="midnightblue" stroke="midnightblue" points="158.79,-390.03 148.3,-388.51 155.55,-396.24 158.79,-390.03"/>
</g>
<!-- Node38 -->
<g id="node38" class="node">
<title>Node38</title>
<g id="a_node38"><a xlink:title=" ">
<polygon fill="white" stroke="#bfbfbf" points="178.5,-369.5 178.5,-388.5 235.5,-388.5 235.5,-369.5 178.5,-369.5"/>
<text text-anchor="middle" x="207" y="-376.5" font-family="Helvetica,sans-Serif" font-size="10.00">ostream</text>
</a>
</g>
</g>
<!-- Node36&#45;&gt;Node38 -->
<g id="edge76" class="edge">
<title>Node36&#45;&gt;Node38</title>
<path fill="none" stroke="midnightblue" d="M240.41,-430.98C234.62,-422.14 225.41,-408.09 218.13,-396.98"/>
<polygon fill="midnightblue" stroke="midnightblue" points="220.99,-394.95 212.58,-388.51 215.13,-398.79 220.99,-394.95"/>
</g>
<!-- Node39 -->
<g id="node39" class="node">
<title>Node39</title>
<g id="a_node39"><a xlink:title=" ">
<polygon fill="white" stroke="#bfbfbf" points="254,-369.5 254,-388.5 336,-388.5 336,-369.5 254,-369.5"/>
<text text-anchor="middle" x="295" y="-376.5" font-family="Helvetica,sans-Serif" font-size="10.00">utils/json.hpp</text>
</a>
</g>
</g>
<!-- Node36&#45;&gt;Node39 -->
<g id="edge78" class="edge">
<title>Node36&#45;&gt;Node39</title>
<path fill="none" stroke="midnightblue" d="M253.02,-430.98C260.44,-421.96 272.33,-407.52 281.57,-396.31"/>
<polygon fill="midnightblue" stroke="midnightblue" points="284.34,-398.45 287.99,-388.51 278.93,-394 284.34,-398.45"/>
</g>
</g>
</svg>
