<?xml version="1.0" encoding="UTF-8" standalone="no"?>
<!DOCTYPE svg PUBLIC "-//W3C//DTD SVG 1.1//EN"
 "http://www.w3.org/Graphics/SVG/1.1/DTD/svg11.dtd">
<!-- Generated by graphviz version 2.43.0 (0)
 -->
<!-- Title: src/labs/outlab2/main.cpp Pages: 1 -->
<svg width="1499pt" height="420pt"
 viewBox="0.00 0.00 1498.74 420.00" xmlns="http://www.w3.org/2000/svg" xmlns:xlink="http://www.w3.org/1999/xlink">
<g id="graph0" class="graph" transform="scale(1 1) rotate(0) translate(4 416)">
<title>src/labs/outlab2/main.cpp</title>
<polygon fill="white" stroke="transparent" points="-4,4 -4,-416 1494.74,-416 1494.74,4 -4,4"/>
<!-- Node1 -->
<g id="node1" class="node">
<title>Node1</title>
<g id="a_node1"><a xlink:title=" ">
<polygon fill="#bfbfbf" stroke="black" points="206,-392.5 206,-411.5 348,-411.5 348,-392.5 206,-392.5"/>
<text text-anchor="middle" x="277" y="-399.5" font-family="Helvetica,sans-Serif" font-size="10.00">src/labs/outlab2/main.cpp</text>
</a>
</g>
</g>
<!-- Node2 -->
<g id="node2" class="node">
<title>Node2</title>
<g id="a_node2"><a xlink:href="../../d9/d34/outlab2_8h.html" target="_top" xlink:title=" ">
<polygon fill="white" stroke="black" points="246,-336.5 246,-355.5 308,-355.5 308,-336.5 246,-336.5"/>
<text text-anchor="middle" x="277" y="-343.5" font-family="Helvetica,sans-Serif" font-size="10.00">outlab2.h</text>
</a>
</g>
</g>
<!-- Node1&#45;&gt;Node2 -->
<g id="edge1" class="edge">
<title>Node1&#45;&gt;Node2</title>
<path fill="none" stroke="midnightblue" d="M277,-392.08C277,-385.01 277,-374.86 277,-365.99"/>
<polygon fill="midnightblue" stroke="midnightblue" points="280.5,-365.75 277,-355.75 273.5,-365.75 280.5,-365.75"/>
</g>
<!-- Node3 -->
<g id="node3" class="node">
<title>Node3</title>
<g id="a_node3"><a xlink:title=" ">
<polygon fill="white" stroke="#bfbfbf" points="0,-280.5 0,-299.5 56,-299.5 56,-280.5 0,-280.5"/>
<text text-anchor="middle" x="28" y="-287.5" font-family="Helvetica,sans-Serif" font-size="10.00">numeric</text>
</a>
</g>
</g>
<!-- Node2&#45;&gt;Node3 -->
<g id="edge2" class="edge">
<title>Node2&#45;&gt;Node3</title>
<path fill="none" stroke="midnightblue" d="M245.97,-338.27C200.45,-328.4 115.64,-310.01 66.3,-299.31"/>
<polygon fill="midnightblue" stroke="midnightblue" points="66.86,-295.85 56.34,-297.15 65.37,-302.69 66.86,-295.85"/>
</g>
<!-- Node4 -->
<g id="node4" class="node">
<title>Node4</title>
<g id="a_node4"><a xlink:href="../../d9/d41/CommandLine_8h.html" target="_top" xlink:title="This file contains the definition of the CommandLine class and the HeaderInfo struct.">
<polygon fill="white" stroke="black" points="370,-168.5 370,-187.5 466,-187.5 466,-168.5 370,-168.5"/>
<text text-anchor="middle" x="418" y="-175.5" font-family="Helvetica,sans-Serif" font-size="10.00">CommandLine.h</text>
</a>
</g>
</g>
<!-- Node2&#45;&gt;Node4 -->
<g id="edge3" class="edge">
<title>Node2&#45;&gt;Node4</title>
<path fill="none" stroke="midnightblue" d="M284.37,-336.36C299.25,-318.92 333.94,-278.24 363,-244 376.97,-227.54 392.89,-208.71 404,-195.57"/>
<polygon fill="midnightblue" stroke="midnightblue" points="406.76,-197.74 410.54,-187.84 401.41,-193.22 406.76,-197.74"/>
</g>
<!-- Node16 -->
<g id="node16" class="node">
<title>Node16</title>
<g id="a_node16"><a xlink:href="../../d4/d2e/Stopwatch_8h.html" target="_top" xlink:title="This file contains the Stopwatch class which is a utility for measuring time durations in various uni...">
<polygon fill="white" stroke="black" points="38.5,-56.5 38.5,-75.5 115.5,-75.5 115.5,-56.5 38.5,-56.5"/>
<text text-anchor="middle" x="77" y="-63.5" font-family="Helvetica,sans-Serif" font-size="10.00">Stopwatch.h</text>
</a>
</g>
</g>
<!-- Node2&#45;&gt;Node16 -->
<g id="edge65" class="edge">
<title>Node2&#45;&gt;Node16</title>
<path fill="none" stroke="midnightblue" d="M245.99,-341.57C191.43,-333.64 84,-308.66 84,-235 84,-235 84,-235 84,-177 84,-144.88 80.99,-107.6 78.92,-85.73"/>
<polygon fill="midnightblue" stroke="midnightblue" points="82.38,-85.15 77.92,-75.55 75.41,-85.84 82.38,-85.15"/>
</g>
<!-- Node20 -->
<g id="node20" class="node">
<title>Node20</title>
<g id="a_node20"><a xlink:href="../../d2/dff/Project_8h.html" target="_top" xlink:title="This file contains the definition of the Project class template. The Project class is a generic class...">
<polygon fill="white" stroke="black" points="206.5,-224.5 206.5,-243.5 265.5,-243.5 265.5,-224.5 206.5,-224.5"/>
<text text-anchor="middle" x="236" y="-231.5" font-family="Helvetica,sans-Serif" font-size="10.00">Project.h</text>
</a>
</g>
</g>
<!-- Node2&#45;&gt;Node20 -->
<g id="edge23" class="edge">
<title>Node2&#45;&gt;Node20</title>
<path fill="none" stroke="midnightblue" d="M273.78,-336.37C267.14,-318.54 251.76,-277.3 242.81,-253.27"/>
<polygon fill="midnightblue" stroke="midnightblue" points="245.97,-251.74 239.2,-243.59 239.42,-254.18 245.97,-251.74"/>
</g>
<!-- Node21 -->
<g id="node21" class="node">
<title>Node21</title>
<g id="a_node21"><a xlink:href="../../d1/dcf/labs_2outlab2_2Compute_8h.html" target="_top" xlink:title="This file contains the declaration of two template functions, fillLagrangePolys and fillInterpolation...">
<polygon fill="white" stroke="black" points="284,-224.5 284,-243.5 354,-243.5 354,-224.5 284,-224.5"/>
<text text-anchor="middle" x="319" y="-231.5" font-family="Helvetica,sans-Serif" font-size="10.00">Compute.h</text>
</a>
</g>
</g>
<!-- Node2&#45;&gt;Node21 -->
<g id="edge28" class="edge">
<title>Node2&#45;&gt;Node21</title>
<path fill="none" stroke="midnightblue" d="M280.3,-336.37C287.13,-318.46 302.99,-276.92 312.15,-252.95"/>
<polygon fill="midnightblue" stroke="midnightblue" points="315.42,-254.18 315.72,-243.59 308.88,-251.69 315.42,-254.18"/>
</g>
<!-- Node23 -->
<g id="node23" class="node">
<title>Node23</title>
<g id="a_node23"><a xlink:href="../../d1/de1/labs_2outlab2_2Parser_8h.html" target="_top" xlink:title=" ">
<polygon fill="white" stroke="black" points="578.5,-280.5 578.5,-299.5 633.5,-299.5 633.5,-280.5 578.5,-280.5"/>
<text text-anchor="middle" x="606" y="-287.5" font-family="Helvetica,sans-Serif" font-size="10.00">Parser.h</text>
</a>
</g>
</g>
<!-- Node2&#45;&gt;Node23 -->
<g id="edge33" class="edge">
<title>Node2&#45;&gt;Node23</title>
<path fill="none" stroke="midnightblue" d="M308.25,-339.87C369,-329.9 502.8,-307.94 568.33,-297.18"/>
<polygon fill="midnightblue" stroke="midnightblue" points="568.94,-300.63 578.24,-295.56 567.81,-293.72 568.94,-300.63"/>
</g>
<!-- Node5 -->
<g id="node5" class="node">
<title>Node5</title>
<g id="a_node5"><a xlink:href="../../db/df1/Helpers_8h.html" target="_top" xlink:title="This file contains helper functions and structures used throughout the program.">
<polygon fill="white" stroke="black" points="528.5,-112.5 528.5,-131.5 591.5,-131.5 591.5,-112.5 528.5,-112.5"/>
<text text-anchor="middle" x="560" y="-119.5" font-family="Helvetica,sans-Serif" font-size="10.00">Helpers.h</text>
</a>
</g>
</g>
<!-- Node4&#45;&gt;Node5 -->
<g id="edge4" class="edge">
<title>Node4&#45;&gt;Node5</title>
<path fill="none" stroke="midnightblue" d="M440.5,-168.44C464.08,-159.48 501.32,-145.31 527.96,-135.18"/>
<polygon fill="midnightblue" stroke="midnightblue" points="529.5,-138.34 537.6,-131.52 527.01,-131.8 529.5,-138.34"/>
</g>
<!-- Node7 -->
<g id="node7" class="node">
<title>Node7</title>
<g id="a_node7"><a xlink:title=" ">
<polygon fill="white" stroke="#bfbfbf" points="938,-56.5 938,-75.5 998,-75.5 998,-56.5 938,-56.5"/>
<text text-anchor="middle" x="968" y="-63.5" font-family="Helvetica,sans-Serif" font-size="10.00">iostream</text>
</a>
</g>
</g>
<!-- Node4&#45;&gt;Node7 -->
<g id="edge21" class="edge">
<title>Node4&#45;&gt;Node7</title>
<path fill="none" stroke="midnightblue" d="M452.74,-168.47C489.56,-159.42 549.38,-144.72 601,-132 637,-123.13 645.65,-119.33 682,-112 769.02,-94.44 872.1,-79.69 927.66,-72.23"/>
<polygon fill="midnightblue" stroke="midnightblue" points="928.34,-75.67 937.79,-70.88 927.41,-68.73 928.34,-75.67"/>
</g>
<!-- Node10 -->
<g id="node10" class="node">
<title>Node10</title>
<g id="a_node10"><a xlink:title=" ">
<polygon fill="white" stroke="#bfbfbf" points="425,-56.5 425,-75.5 575,-75.5 575,-56.5 425,-56.5"/>
<text text-anchor="middle" x="500" y="-63.5" font-family="Helvetica,sans-Serif" font-size="10.00">boost/program_options.hpp</text>
</a>
</g>
</g>
<!-- Node4&#45;&gt;Node10 -->
<g id="edge20" class="edge">
<title>Node4&#45;&gt;Node10</title>
<path fill="none" stroke="midnightblue" d="M389.16,-168.41C357.58,-157.51 313.79,-137.07 333,-112 345.08,-96.23 389.27,-84.75 429.16,-77.32"/>
<polygon fill="midnightblue" stroke="midnightblue" points="429.96,-80.74 439.18,-75.53 428.72,-73.85 429.96,-80.74"/>
</g>
<!-- Node11 -->
<g id="node11" class="node">
<title>Node11</title>
<g id="a_node11"><a xlink:href="../../df/d69/Profiler_8h.html" target="_top" xlink:title="This file contains helper classes and functions for profiling.">
<polygon fill="white" stroke="black" points="188.5,-112.5 188.5,-131.5 247.5,-131.5 247.5,-112.5 188.5,-112.5"/>
<text text-anchor="middle" x="218" y="-119.5" font-family="Helvetica,sans-Serif" font-size="10.00">Profiler.h</text>
</a>
</g>
</g>
<!-- Node4&#45;&gt;Node11 -->
<g id="edge10" class="edge">
<title>Node4&#45;&gt;Node11</title>
<path fill="none" stroke="midnightblue" d="M386.31,-168.44C351.47,-159.04 295.45,-143.91 257.71,-133.72"/>
<polygon fill="midnightblue" stroke="midnightblue" points="258.15,-130.22 247.59,-130.99 256.33,-136.97 258.15,-130.22"/>
</g>
<!-- Node18 -->
<g id="node18" class="node">
<title>Node18</title>
<g id="a_node18"><a xlink:title=" ">
<polygon fill="white" stroke="#bfbfbf" points="342,-112.5 342,-131.5 434,-131.5 434,-112.5 342,-112.5"/>
<text text-anchor="middle" x="388" y="-119.5" font-family="Helvetica,sans-Serif" font-size="10.00">project&#45;config.h</text>
</a>
</g>
</g>
<!-- Node4&#45;&gt;Node18 -->
<g id="edge19" class="edge">
<title>Node4&#45;&gt;Node18</title>
<path fill="none" stroke="midnightblue" d="M413.05,-168.08C408.9,-160.61 402.85,-149.72 397.73,-140.52"/>
<polygon fill="midnightblue" stroke="midnightblue" points="400.78,-138.79 392.86,-131.75 394.66,-142.19 400.78,-138.79"/>
</g>
<!-- Node19 -->
<g id="node19" class="node">
<title>Node19</title>
<g id="a_node19"><a xlink:title=" ">
<polygon fill="white" stroke="#bfbfbf" points="762,-112.5 762,-131.5 806,-131.5 806,-112.5 762,-112.5"/>
<text text-anchor="middle" x="784" y="-119.5" font-family="Helvetica,sans-Serif" font-size="10.00">string</text>
</a>
</g>
</g>
<!-- Node4&#45;&gt;Node19 -->
<g id="edge22" class="edge">
<title>Node4&#45;&gt;Node19</title>
<path fill="none" stroke="midnightblue" d="M466.22,-169.88C542.16,-158.68 687.59,-137.22 751.97,-127.73"/>
<polygon fill="midnightblue" stroke="midnightblue" points="752.56,-131.18 761.94,-126.25 751.54,-124.25 752.56,-131.18"/>
</g>
<!-- Node6 -->
<g id="node6" class="node">
<title>Node6</title>
<g id="a_node6"><a xlink:title=" ">
<polygon fill="white" stroke="#bfbfbf" points="655,-56.5 655,-75.5 711,-75.5 711,-56.5 655,-56.5"/>
<text text-anchor="middle" x="683" y="-63.5" font-family="Helvetica,sans-Serif" font-size="10.00">iomanip</text>
</a>
</g>
</g>
<!-- Node5&#45;&gt;Node6 -->
<g id="edge5" class="edge">
<title>Node5&#45;&gt;Node6</title>
<path fill="none" stroke="midnightblue" d="M579.49,-112.44C599.64,-103.6 631.32,-89.69 654.33,-79.59"/>
<polygon fill="midnightblue" stroke="midnightblue" points="655.85,-82.74 663.6,-75.52 653.04,-76.33 655.85,-82.74"/>
</g>
<!-- Node5&#45;&gt;Node7 -->
<g id="edge6" class="edge">
<title>Node5&#45;&gt;Node7</title>
<path fill="none" stroke="midnightblue" d="M591.68,-116.81C664.96,-107.11 846.14,-83.13 927.41,-72.37"/>
<polygon fill="midnightblue" stroke="midnightblue" points="928.28,-75.79 937.74,-71.01 927.36,-68.85 928.28,-75.79"/>
</g>
<!-- Node8 -->
<g id="node8" class="node">
<title>Node8</title>
<g id="a_node8"><a xlink:title=" ">
<polygon fill="white" stroke="#bfbfbf" points="593,-56.5 593,-75.5 637,-75.5 637,-56.5 593,-56.5"/>
<text text-anchor="middle" x="615" y="-63.5" font-family="Helvetica,sans-Serif" font-size="10.00">limits</text>
</a>
</g>
</g>
<!-- Node5&#45;&gt;Node8 -->
<g id="edge7" class="edge">
<title>Node5&#45;&gt;Node8</title>
<path fill="none" stroke="midnightblue" d="M569.08,-112.08C577.17,-104.14 589.2,-92.34 598.91,-82.8"/>
<polygon fill="midnightblue" stroke="midnightblue" points="601.4,-85.25 606.09,-75.75 596.5,-80.26 601.4,-85.25"/>
</g>
<!-- Node9 -->
<g id="node9" class="node">
<title>Node9</title>
<g id="a_node9"><a xlink:title=" ">
<polygon fill="white" stroke="#bfbfbf" points="767,-56.5 767,-75.5 825,-75.5 825,-56.5 767,-56.5"/>
<text text-anchor="middle" x="796" y="-63.5" font-family="Helvetica,sans-Serif" font-size="10.00">json.hpp</text>
</a>
</g>
</g>
<!-- Node5&#45;&gt;Node9 -->
<g id="edge8" class="edge">
<title>Node5&#45;&gt;Node9</title>
<path fill="none" stroke="midnightblue" d="M591.83,-113.72C634.64,-103.92 710.72,-86.51 756.95,-75.94"/>
<polygon fill="midnightblue" stroke="midnightblue" points="757.93,-79.3 766.9,-73.66 756.37,-72.48 757.93,-79.3"/>
</g>
<!-- Node5&#45;&gt;Node10 -->
<g id="edge9" class="edge">
<title>Node5&#45;&gt;Node10</title>
<path fill="none" stroke="midnightblue" d="M550.36,-112.32C541.49,-104.34 528.13,-92.31 517.39,-82.65"/>
<polygon fill="midnightblue" stroke="midnightblue" points="519.59,-79.92 509.82,-75.83 514.91,-85.13 519.59,-79.92"/>
</g>
<!-- Node11&#45;&gt;Node6 -->
<g id="edge13" class="edge">
<title>Node11&#45;&gt;Node6</title>
<path fill="none" stroke="midnightblue" d="M247.6,-118.41C328.32,-111.26 551.92,-90.91 644.91,-75.93"/>
<polygon fill="midnightblue" stroke="midnightblue" points="645.52,-79.38 654.8,-74.27 644.36,-72.48 645.52,-79.38"/>
</g>
<!-- Node11&#45;&gt;Node7 -->
<g id="edge14" class="edge">
<title>Node11&#45;&gt;Node7</title>
<path fill="none" stroke="midnightblue" d="M247.78,-118.61C270.99,-116.76 304.04,-114.16 333,-112 557.87,-95.23 827.65,-76.61 927.92,-69.74"/>
<polygon fill="midnightblue" stroke="midnightblue" points="928.18,-73.23 937.92,-69.05 927.7,-66.24 928.18,-73.23"/>
</g>
<!-- Node12 -->
<g id="node12" class="node">
<title>Node12</title>
<g id="a_node12"><a xlink:title=" ">
<polygon fill="white" stroke="#bfbfbf" points="352.5,-56.5 352.5,-75.5 407.5,-75.5 407.5,-56.5 352.5,-56.5"/>
<text text-anchor="middle" x="380" y="-63.5" font-family="Helvetica,sans-Serif" font-size="10.00">fstream</text>
</a>
</g>
</g>
<!-- Node11&#45;&gt;Node12 -->
<g id="edge11" class="edge">
<title>Node11&#45;&gt;Node12</title>
<path fill="none" stroke="midnightblue" d="M243.67,-112.44C270.92,-103.36 314.18,-88.94 344.65,-78.78"/>
<polygon fill="midnightblue" stroke="midnightblue" points="346.07,-82 354.45,-75.52 343.86,-75.36 346.07,-82"/>
</g>
<!-- Node13 -->
<g id="node13" class="node">
<title>Node13</title>
<g id="a_node13"><a xlink:title=" ">
<polygon fill="white" stroke="#bfbfbf" points="196.5,-56.5 196.5,-75.5 261.5,-75.5 261.5,-56.5 196.5,-56.5"/>
<text text-anchor="middle" x="229" y="-63.5" font-family="Helvetica,sans-Serif" font-size="10.00">functional</text>
</a>
</g>
</g>
<!-- Node11&#45;&gt;Node13 -->
<g id="edge12" class="edge">
<title>Node11&#45;&gt;Node13</title>
<path fill="none" stroke="midnightblue" d="M219.82,-112.08C221.27,-104.93 223.37,-94.64 225.19,-85.69"/>
<polygon fill="midnightblue" stroke="midnightblue" points="228.65,-86.25 227.22,-75.75 221.79,-84.85 228.65,-86.25"/>
</g>
<!-- Node14 -->
<g id="node14" class="node">
<title>Node14</title>
<g id="a_node14"><a xlink:title=" ">
<polygon fill="white" stroke="#bfbfbf" points="280,-56.5 280,-75.5 334,-75.5 334,-56.5 280,-56.5"/>
<text text-anchor="middle" x="307" y="-63.5" font-family="Helvetica,sans-Serif" font-size="10.00">random</text>
</a>
</g>
</g>
<!-- Node11&#45;&gt;Node14 -->
<g id="edge15" class="edge">
<title>Node11&#45;&gt;Node14</title>
<path fill="none" stroke="midnightblue" d="M232.3,-112.32C246.18,-103.9 267.49,-90.97 283.8,-81.07"/>
<polygon fill="midnightblue" stroke="midnightblue" points="286,-83.83 292.74,-75.65 282.37,-77.85 286,-83.83"/>
</g>
<!-- Node15 -->
<g id="node15" class="node">
<title>Node15</title>
<g id="a_node15"><a xlink:title=" ">
<polygon fill="white" stroke="#bfbfbf" points="133.5,-56.5 133.5,-75.5 178.5,-75.5 178.5,-56.5 133.5,-56.5"/>
<text text-anchor="middle" x="156" y="-63.5" font-family="Helvetica,sans-Serif" font-size="10.00">utility</text>
</a>
</g>
</g>
<!-- Node11&#45;&gt;Node15 -->
<g id="edge16" class="edge">
<title>Node11&#45;&gt;Node15</title>
<path fill="none" stroke="midnightblue" d="M208.04,-112.32C198.87,-104.34 185.06,-92.31 173.97,-82.65"/>
<polygon fill="midnightblue" stroke="midnightblue" points="175.98,-79.76 166.14,-75.83 171.38,-85.04 175.98,-79.76"/>
</g>
<!-- Node11&#45;&gt;Node16 -->
<g id="edge17" class="edge">
<title>Node11&#45;&gt;Node16</title>
<path fill="none" stroke="midnightblue" d="M195.66,-112.44C172.25,-103.48 135.26,-89.31 108.81,-79.18"/>
<polygon fill="midnightblue" stroke="midnightblue" points="109.83,-75.82 99.24,-75.52 107.32,-82.36 109.83,-75.82"/>
</g>
<!-- Node17 -->
<g id="node17" class="node">
<title>Node17</title>
<g id="a_node17"><a xlink:title=" ">
<polygon fill="white" stroke="#bfbfbf" points="765,-0.5 765,-19.5 815,-19.5 815,-0.5 765,-0.5"/>
<text text-anchor="middle" x="790" y="-7.5" font-family="Helvetica,sans-Serif" font-size="10.00">chrono</text>
</a>
</g>
</g>
<!-- Node16&#45;&gt;Node17 -->
<g id="edge18" class="edge">
<title>Node16&#45;&gt;Node17</title>
<path fill="none" stroke="midnightblue" d="M115.67,-57.21C118.48,-56.76 121.28,-56.35 124,-56 363.81,-25.05 655.12,-14.66 754.68,-11.87"/>
<polygon fill="midnightblue" stroke="midnightblue" points="754.89,-15.37 764.79,-11.6 754.7,-8.37 754.89,-15.37"/>
</g>
<!-- Node20&#45;&gt;Node4 -->
<g id="edge24" class="edge">
<title>Node20&#45;&gt;Node4</title>
<path fill="none" stroke="midnightblue" d="M264.84,-224.44C295.86,-215.24 345.33,-200.56 379.62,-190.39"/>
<polygon fill="midnightblue" stroke="midnightblue" points="380.71,-193.72 389.3,-187.52 378.71,-187.01 380.71,-193.72"/>
</g>
<!-- Node20&#45;&gt;Node10 -->
<g id="edge26" class="edge">
<title>Node20&#45;&gt;Node10</title>
<path fill="none" stroke="midnightblue" d="M239.69,-224.39C249.72,-202.09 279.72,-142.04 324,-112 350.73,-93.86 384.24,-83.04 414.83,-76.57"/>
<polygon fill="midnightblue" stroke="midnightblue" points="415.52,-80 424.65,-74.62 414.16,-73.14 415.52,-80"/>
</g>
<!-- Node20&#45;&gt;Node11 -->
<g id="edge25" class="edge">
<title>Node20&#45;&gt;Node11</title>
<path fill="none" stroke="midnightblue" d="M233.26,-224.47C230.49,-215.49 226.3,-200.9 224,-188 221.26,-172.64 219.73,-155 218.91,-141.98"/>
<polygon fill="midnightblue" stroke="midnightblue" points="222.4,-141.69 218.35,-131.89 215.41,-142.07 222.4,-141.69"/>
</g>
<!-- Node20&#45;&gt;Node15 -->
<g id="edge27" class="edge">
<title>Node20&#45;&gt;Node15</title>
<path fill="none" stroke="midnightblue" d="M230.59,-224.32C220.01,-207.13 196.21,-167.36 180,-132 172.95,-116.62 166.4,-98.53 161.93,-85.34"/>
<polygon fill="midnightblue" stroke="midnightblue" points="165.17,-83.97 158.7,-75.58 158.52,-86.17 165.17,-83.97"/>
</g>
<!-- Node21&#45;&gt;Node4 -->
<g id="edge31" class="edge">
<title>Node21&#45;&gt;Node4</title>
<path fill="none" stroke="midnightblue" d="M334.91,-224.32C350.64,-215.74 374.94,-202.49 393.21,-192.52"/>
<polygon fill="midnightblue" stroke="midnightblue" points="395.03,-195.52 402.13,-187.65 391.68,-189.37 395.03,-195.52"/>
</g>
<!-- Node21&#45;&gt;Node7 -->
<g id="edge30" class="edge">
<title>Node21&#45;&gt;Node7</title>
<path fill="none" stroke="midnightblue" d="M349.25,-224.47C380.72,-215.56 431.39,-201.07 475,-188 555.25,-163.94 575.07,-157.12 655,-132 683.03,-123.19 689.48,-119.06 718,-112 791.14,-93.89 878,-79.91 927.7,-72.61"/>
<polygon fill="midnightblue" stroke="midnightblue" points="928.32,-76.06 937.72,-71.16 927.32,-69.13 928.32,-76.06"/>
</g>
<!-- Node21&#45;&gt;Node16 -->
<g id="edge32" class="edge">
<title>Node21&#45;&gt;Node16</title>
<path fill="none" stroke="midnightblue" d="M306.33,-224.31C267.04,-197.36 146.99,-115.01 98.08,-81.46"/>
<polygon fill="midnightblue" stroke="midnightblue" points="99.77,-78.38 89.54,-75.61 95.81,-84.15 99.77,-78.38"/>
</g>
<!-- Node22 -->
<g id="node22" class="node">
<title>Node22</title>
<g id="a_node22"><a xlink:title=" ">
<polygon fill="white" stroke="#bfbfbf" points="304.5,-168.5 304.5,-187.5 351.5,-187.5 351.5,-168.5 304.5,-168.5"/>
<text text-anchor="middle" x="328" y="-175.5" font-family="Helvetica,sans-Serif" font-size="10.00">cmath</text>
</a>
</g>
</g>
<!-- Node21&#45;&gt;Node22 -->
<g id="edge29" class="edge">
<title>Node21&#45;&gt;Node22</title>
<path fill="none" stroke="midnightblue" d="M320.49,-224.08C321.68,-216.93 323.39,-206.64 324.88,-197.69"/>
<polygon fill="midnightblue" stroke="midnightblue" points="328.35,-198.19 326.54,-187.75 321.45,-197.04 328.35,-198.19"/>
</g>
<!-- Node23&#45;&gt;Node4 -->
<g id="edge41" class="edge">
<title>Node23&#45;&gt;Node4</title>
<path fill="none" stroke="midnightblue" d="M578.48,-289.24C541.86,-288.04 477.28,-280.44 439,-244 426.39,-232 421.34,-212.4 419.32,-197.85"/>
<polygon fill="midnightblue" stroke="midnightblue" points="422.76,-197.1 418.27,-187.51 415.8,-197.81 422.76,-197.1"/>
</g>
<!-- Node23&#45;&gt;Node5 -->
<g id="edge61" class="edge">
<title>Node23&#45;&gt;Node5</title>
<path fill="none" stroke="midnightblue" d="M603.21,-280.41C600.3,-271.37 595.66,-256.74 592,-244 581.58,-207.76 570.58,-165.06 564.58,-141.3"/>
<polygon fill="midnightblue" stroke="midnightblue" points="567.96,-140.39 562.12,-131.54 561.17,-142.09 567.96,-140.39"/>
</g>
<!-- Node23&#45;&gt;Node6 -->
<g id="edge34" class="edge">
<title>Node23&#45;&gt;Node6</title>
<path fill="none" stroke="midnightblue" d="M609.02,-280.3C620.4,-247.49 660.84,-130.88 676.63,-85.38"/>
<polygon fill="midnightblue" stroke="midnightblue" points="679.95,-86.48 679.92,-75.88 673.33,-84.18 679.95,-86.48"/>
</g>
<!-- Node23&#45;&gt;Node7 -->
<g id="edge35" class="edge">
<title>Node23&#45;&gt;Node7</title>
<path fill="none" stroke="midnightblue" d="M633.7,-287.82C772.58,-281.65 1388.66,-250.82 1443,-188 1448.82,-181.28 1448.09,-175.29 1443,-168 1432.63,-153.16 1307.56,-116.39 1290,-112 1190.35,-87.1 1069.67,-74.86 1008.21,-69.87"/>
<polygon fill="midnightblue" stroke="midnightblue" points="1008.39,-66.37 998.15,-69.07 1007.84,-73.35 1008.39,-66.37"/>
</g>
<!-- Node23&#45;&gt;Node19 -->
<g id="edge36" class="edge">
<title>Node23&#45;&gt;Node19</title>
<path fill="none" stroke="midnightblue" d="M615.57,-280.08C644.44,-253.15 730.91,-172.51 767.43,-138.45"/>
<polygon fill="midnightblue" stroke="midnightblue" points="769.89,-140.95 774.81,-131.57 765.11,-135.83 769.89,-140.95"/>
</g>
<!-- Node24 -->
<g id="node24" class="node">
<title>Node24</title>
<g id="a_node24"><a xlink:href="../../d0/d7d/CheckBounds_8h.html" target="_top" xlink:title="This file contains the declaration of functions for checking the validity of input parameters.">
<polygon fill="white" stroke="black" points="448,-224.5 448,-243.5 540,-243.5 540,-224.5 448,-224.5"/>
<text text-anchor="middle" x="494" y="-231.5" font-family="Helvetica,sans-Serif" font-size="10.00">CheckBounds.h</text>
</a>
</g>
</g>
<!-- Node23&#45;&gt;Node24 -->
<g id="edge37" class="edge">
<title>Node23&#45;&gt;Node24</title>
<path fill="none" stroke="midnightblue" d="M588.01,-280.32C569.96,-271.62 541.95,-258.12 521.2,-248.11"/>
<polygon fill="midnightblue" stroke="midnightblue" points="522.48,-244.84 511.95,-243.65 519.44,-251.15 522.48,-244.84"/>
</g>
<!-- Node25 -->
<g id="node25" class="node">
<title>Node25</title>
<g id="a_node25"><a xlink:href="../../d7/de4/FileParser_8h.html" target="_top" xlink:title="This file contains the definitions for functions that handle file parsing operations.">
<polygon fill="white" stroke="black" points="977,-224.5 977,-243.5 1049,-243.5 1049,-224.5 977,-224.5"/>
<text text-anchor="middle" x="1013" y="-231.5" font-family="Helvetica,sans-Serif" font-size="10.00">FileParser.h</text>
</a>
</g>
</g>
<!-- Node23&#45;&gt;Node25 -->
<g id="edge42" class="edge">
<title>Node23&#45;&gt;Node25</title>
<path fill="none" stroke="midnightblue" d="M633.65,-285.33C702.36,-276.22 881.37,-252.46 966.6,-241.16"/>
<polygon fill="midnightblue" stroke="midnightblue" points="967.31,-244.59 976.76,-239.81 966.39,-237.65 967.31,-244.59"/>
</g>
<!-- Node35 -->
<g id="node35" class="node">
<title>Node35</title>
<g id="a_node35"><a xlink:href="../../dc/db2/outlab2_2extern_2function_8h.html" target="_top" xlink:title="This file contains the declaration of a user&#45;defined function and a function to fill a vector with th...">
<polygon fill="white" stroke="black" points="1375,-112.5 1375,-131.5 1475,-131.5 1475,-112.5 1375,-112.5"/>
<text text-anchor="middle" x="1425" y="-119.5" font-family="Helvetica,sans-Serif" font-size="10.00">extern/function.h</text>
</a>
</g>
</g>
<!-- Node23&#45;&gt;Node35 -->
<g id="edge62" class="edge">
<title>Node23&#45;&gt;Node35</title>
<path fill="none" stroke="midnightblue" d="M633.88,-288.62C779.41,-286.53 1446.32,-275.26 1476,-244 1499.26,-219.51 1489.89,-198.79 1476,-168 1470.38,-155.56 1459.44,-145.17 1449.12,-137.53"/>
<polygon fill="midnightblue" stroke="midnightblue" points="1450.96,-134.54 1440.73,-131.76 1446.99,-140.31 1450.96,-134.54"/>
</g>
<!-- Node24&#45;&gt;Node4 -->
<g id="edge40" class="edge">
<title>Node24&#45;&gt;Node4</title>
<path fill="none" stroke="midnightblue" d="M481.79,-224.32C470.22,-216.11 452.62,-203.6 438.84,-193.81"/>
<polygon fill="midnightblue" stroke="midnightblue" points="440.61,-190.77 430.43,-187.83 436.56,-196.48 440.61,-190.77"/>
</g>
<!-- Node24&#45;&gt;Node7 -->
<g id="edge39" class="edge">
<title>Node24&#45;&gt;Node7</title>
<path fill="none" stroke="midnightblue" d="M540.02,-225.57C573.94,-218.88 620.51,-207.1 658,-188 706.18,-163.45 704.09,-135.06 753,-112 810,-85.13 883,-74.2 927.59,-69.82"/>
<polygon fill="midnightblue" stroke="midnightblue" points="928.11,-73.29 937.75,-68.89 927.47,-66.32 928.11,-73.29"/>
</g>
<!-- Node24&#45;&gt;Node10 -->
<g id="edge38" class="edge">
<title>Node24&#45;&gt;Node10</title>
<path fill="none" stroke="midnightblue" d="M494.32,-224.08C495.27,-197.95 498.04,-121.21 499.33,-85.58"/>
<polygon fill="midnightblue" stroke="midnightblue" points="502.83,-85.69 499.69,-75.57 495.83,-85.44 502.83,-85.69"/>
</g>
<!-- Node25&#45;&gt;Node7 -->
<g id="edge46" class="edge">
<title>Node25&#45;&gt;Node7</title>
<path fill="none" stroke="midnightblue" d="M1049.02,-229.14C1097.34,-222.46 1174.14,-205.65 1147,-168 1117.42,-126.95 1082.62,-157.64 1039,-132 1016.84,-118.97 995.68,-98.13 982.32,-83.57"/>
<polygon fill="midnightblue" stroke="midnightblue" points="984.67,-80.96 975.4,-75.83 979.45,-85.62 984.67,-80.96"/>
</g>
<!-- Node25&#45;&gt;Node9 -->
<g id="edge60" class="edge">
<title>Node25&#45;&gt;Node9</title>
<path fill="none" stroke="midnightblue" d="M976.91,-231.31C941.6,-227.88 888.13,-217.73 853,-188 844.56,-180.86 817.13,-117.36 803.63,-85.32"/>
<polygon fill="midnightblue" stroke="midnightblue" points="806.73,-83.66 799.64,-75.79 800.28,-86.37 806.73,-83.66"/>
</g>
<!-- Node25&#45;&gt;Node12 -->
<g id="edge45" class="edge">
<title>Node25&#45;&gt;Node12</title>
<path fill="none" stroke="midnightblue" d="M976.99,-228.55C894.55,-217.73 686.37,-186.83 520,-132 477.88,-118.12 431.71,-95.02 404.33,-80.42"/>
<polygon fill="midnightblue" stroke="midnightblue" points="405.93,-77.31 395.47,-75.65 402.61,-83.47 405.93,-77.31"/>
</g>
<!-- Node25&#45;&gt;Node17 -->
<g id="edge48" class="edge">
<title>Node25&#45;&gt;Node17</title>
<path fill="none" stroke="midnightblue" d="M1049.12,-232.92C1140.11,-232.14 1376.21,-226.38 1443,-188 1476.28,-168.88 1503.68,-144.95 1484,-112 1457.08,-66.93 1430.38,-70.76 1380,-56 1275.05,-25.25 936.57,-14.52 825.6,-11.78"/>
<polygon fill="midnightblue" stroke="midnightblue" points="825.37,-8.28 815.29,-11.53 825.2,-15.27 825.37,-8.28"/>
</g>
<!-- Node25&#45;&gt;Node19 -->
<g id="edge47" class="edge">
<title>Node25&#45;&gt;Node19</title>
<path fill="none" stroke="midnightblue" d="M976.98,-233.07C935.23,-231.39 866.26,-222.95 820,-188 804.6,-176.36 794.9,-156.11 789.5,-141.3"/>
<polygon fill="midnightblue" stroke="midnightblue" points="792.78,-140.07 786.31,-131.68 786.13,-142.27 792.78,-140.07"/>
</g>
<!-- Node26 -->
<g id="node26" class="node">
<title>Node26</title>
<g id="a_node26"><a xlink:title=" ">
<polygon fill="white" stroke="#bfbfbf" points="1322,-168.5 1322,-187.5 1434,-187.5 1434,-168.5 1322,-168.5"/>
<text text-anchor="middle" x="1378" y="-175.5" font-family="Helvetica,sans-Serif" font-size="10.00">boost/tokenizer.hpp</text>
</a>
</g>
</g>
<!-- Node25&#45;&gt;Node26 -->
<g id="edge43" class="edge">
<title>Node25&#45;&gt;Node26</title>
<path fill="none" stroke="midnightblue" d="M1049.33,-227.62C1110.51,-218.57 1234.92,-200.17 1311.9,-188.78"/>
<polygon fill="midnightblue" stroke="midnightblue" points="1312.6,-192.21 1321.98,-187.29 1311.57,-185.29 1312.6,-192.21"/>
</g>
<!-- Node27 -->
<g id="node27" class="node">
<title>Node27</title>
<g id="a_node27"><a xlink:title=" ">
<polygon fill="white" stroke="#bfbfbf" points="862,-168.5 862,-187.5 930,-187.5 930,-168.5 862,-168.5"/>
<text text-anchor="middle" x="896" y="-175.5" font-family="Helvetica,sans-Serif" font-size="10.00">filesystem</text>
</a>
</g>
</g>
<!-- Node25&#45;&gt;Node27 -->
<g id="edge44" class="edge">
<title>Node25&#45;&gt;Node27</title>
<path fill="none" stroke="midnightblue" d="M994.46,-224.44C975.38,-215.64 945.43,-201.81 923.56,-191.72"/>
<polygon fill="midnightblue" stroke="midnightblue" points="925,-188.53 914.45,-187.52 922.07,-194.88 925,-188.53"/>
</g>
<!-- Node28 -->
<g id="node28" class="node">
<title>Node28</title>
<g id="a_node28"><a xlink:title=" ">
<polygon fill="white" stroke="#bfbfbf" points="948,-168.5 948,-187.5 1006,-187.5 1006,-168.5 948,-168.5"/>
<text text-anchor="middle" x="977" y="-175.5" font-family="Helvetica,sans-Serif" font-size="10.00">memory</text>
</a>
</g>
</g>
<!-- Node25&#45;&gt;Node28 -->
<g id="edge49" class="edge">
<title>Node25&#45;&gt;Node28</title>
<path fill="none" stroke="midnightblue" d="M1007.06,-224.08C1002.02,-216.53 994.66,-205.49 988.49,-196.23"/>
<polygon fill="midnightblue" stroke="midnightblue" points="991.29,-194.13 982.83,-187.75 985.47,-198.01 991.29,-194.13"/>
</g>
<!-- Node29 -->
<g id="node29" class="node">
<title>Node29</title>
<g id="a_node29"><a xlink:title=" ">
<polygon fill="white" stroke="#bfbfbf" points="1024,-168.5 1024,-187.5 1072,-187.5 1072,-168.5 1024,-168.5"/>
<text text-anchor="middle" x="1048" y="-175.5" font-family="Helvetica,sans-Serif" font-size="10.00">mutex</text>
</a>
</g>
</g>
<!-- Node25&#45;&gt;Node29 -->
<g id="edge50" class="edge">
<title>Node25&#45;&gt;Node29</title>
<path fill="none" stroke="midnightblue" d="M1018.78,-224.08C1023.67,-216.53 1030.83,-205.49 1036.83,-196.23"/>
<polygon fill="midnightblue" stroke="midnightblue" points="1039.83,-198.05 1042.33,-187.75 1033.95,-194.24 1039.83,-198.05"/>
</g>
<!-- Node30 -->
<g id="node30" class="node">
<title>Node30</title>
<g id="a_node30"><a xlink:title=" ">
<polygon fill="white" stroke="#bfbfbf" points="1090,-168.5 1090,-187.5 1138,-187.5 1138,-168.5 1090,-168.5"/>
<text text-anchor="middle" x="1114" y="-175.5" font-family="Helvetica,sans-Serif" font-size="10.00">thread</text>
</a>
</g>
</g>
<!-- Node25&#45;&gt;Node30 -->
<g id="edge51" class="edge">
<title>Node25&#45;&gt;Node30</title>
<path fill="none" stroke="midnightblue" d="M1029.23,-224.32C1045.35,-215.7 1070.3,-202.36 1088.96,-192.39"/>
<polygon fill="midnightblue" stroke="midnightblue" points="1090.64,-195.46 1097.81,-187.65 1087.34,-189.28 1090.64,-195.46"/>
</g>
<!-- Node31 -->
<g id="node31" class="node">
<title>Node31</title>
<g id="a_node31"><a xlink:href="../../d3/db1/Matrix_8h.html" target="_top" xlink:title="This file contains my BLAS::Matrix declarations.">
<polygon fill="white" stroke="black" points="1194.5,-168.5 1194.5,-187.5 1303.5,-187.5 1303.5,-168.5 1194.5,-168.5"/>
<text text-anchor="middle" x="1249" y="-175.5" font-family="Helvetica,sans-Serif" font-size="10.00">math/blas/Matrix.h</text>
</a>
</g>
</g>
<!-- Node25&#45;&gt;Node31 -->
<g id="edge52" class="edge">
<title>Node25&#45;&gt;Node31</title>
<path fill="none" stroke="midnightblue" d="M1049.1,-224.74C1090.04,-215.37 1156.92,-200.07 1201.92,-189.77"/>
<polygon fill="midnightblue" stroke="midnightblue" points="1202.77,-193.17 1211.73,-187.53 1201.21,-186.35 1202.77,-193.17"/>
</g>
<!-- Node31&#45;&gt;Node7 -->
<g id="edge54" class="edge">
<title>Node31&#45;&gt;Node7</title>
<path fill="none" stroke="midnightblue" d="M1206.08,-168.46C1171.98,-160.95 1123.47,-148.61 1083,-132 1048.5,-117.84 1011.44,-95.44 988.98,-80.99"/>
<polygon fill="midnightblue" stroke="midnightblue" points="990.86,-78.04 980.57,-75.51 987.04,-83.9 990.86,-78.04"/>
</g>
<!-- Node32 -->
<g id="node32" class="node">
<title>Node32</title>
<g id="a_node32"><a xlink:title=" ">
<polygon fill="white" stroke="#bfbfbf" points="1217,-112.5 1217,-131.5 1281,-131.5 1281,-112.5 1217,-112.5"/>
<text text-anchor="middle" x="1249" y="-119.5" font-family="Helvetica,sans-Serif" font-size="10.00">algorithm</text>
</a>
</g>
</g>
<!-- Node31&#45;&gt;Node32 -->
<g id="edge53" class="edge">
<title>Node31&#45;&gt;Node32</title>
<path fill="none" stroke="midnightblue" d="M1249,-168.08C1249,-161.01 1249,-150.86 1249,-141.99"/>
<polygon fill="midnightblue" stroke="midnightblue" points="1252.5,-141.75 1249,-131.75 1245.5,-141.75 1252.5,-141.75"/>
</g>
<!-- Node33 -->
<g id="node33" class="node">
<title>Node33</title>
<g id="a_node33"><a xlink:title=" ">
<polygon fill="white" stroke="#bfbfbf" points="1323.5,-56.5 1323.5,-75.5 1370.5,-75.5 1370.5,-56.5 1323.5,-56.5"/>
<text text-anchor="middle" x="1347" y="-63.5" font-family="Helvetica,sans-Serif" font-size="10.00">vector</text>
</a>
</g>
</g>
<!-- Node31&#45;&gt;Node33 -->
<g id="edge55" class="edge">
<title>Node31&#45;&gt;Node33</title>
<path fill="none" stroke="midnightblue" d="M1256.91,-168.42C1265.2,-159.39 1278.59,-144.77 1290,-132 1304.61,-115.66 1321.09,-96.81 1332.56,-83.64"/>
<polygon fill="midnightblue" stroke="midnightblue" points="1335.39,-85.72 1339.31,-75.88 1330.11,-81.13 1335.39,-85.72"/>
</g>
<!-- Node34 -->
<g id="node34" class="node">
<title>Node34</title>
<g id="a_node34"><a xlink:href="../../d6/dbe/Vector_8h.html" target="_top" xlink:title="This file contains my BLAS::Vector implementation.">
<polygon fill="white" stroke="black" points="1091.5,-112.5 1091.5,-131.5 1198.5,-131.5 1198.5,-112.5 1091.5,-112.5"/>
<text text-anchor="middle" x="1145" y="-119.5" font-family="Helvetica,sans-Serif" font-size="10.00">math/blas/Vector.h</text>
</a>
</g>
</g>
<!-- Node31&#45;&gt;Node34 -->
<g id="edge56" class="edge">
<title>Node31&#45;&gt;Node34</title>
<path fill="none" stroke="midnightblue" d="M1232.29,-168.32C1215.69,-159.7 1190,-146.36 1170.78,-136.39"/>
<polygon fill="midnightblue" stroke="midnightblue" points="1172.16,-133.16 1161.67,-131.65 1168.93,-139.37 1172.16,-133.16"/>
</g>
<!-- Node34&#45;&gt;Node6 -->
<g id="edge57" class="edge">
<title>Node34&#45;&gt;Node6</title>
<path fill="none" stroke="midnightblue" d="M1091.47,-114.84C1016.78,-106.23 877.06,-90.07 758,-76 746.01,-74.58 732.95,-73.02 721.14,-71.6"/>
<polygon fill="midnightblue" stroke="midnightblue" points="721.48,-68.12 711.13,-70.4 720.64,-75.07 721.48,-68.12"/>
</g>
<!-- Node34&#45;&gt;Node7 -->
<g id="edge58" class="edge">
<title>Node34&#45;&gt;Node7</title>
<path fill="none" stroke="midnightblue" d="M1116.95,-112.44C1086.92,-103.28 1039.09,-88.69 1005.76,-78.52"/>
<polygon fill="midnightblue" stroke="midnightblue" points="1006.5,-75.09 995.91,-75.52 1004.46,-81.78 1006.5,-75.09"/>
</g>
<!-- Node34&#45;&gt;Node33 -->
<g id="edge59" class="edge">
<title>Node34&#45;&gt;Node33</title>
<path fill="none" stroke="midnightblue" d="M1177.01,-112.44C1214.22,-102.49 1275.38,-86.15 1313.31,-76.01"/>
<polygon fill="midnightblue" stroke="midnightblue" points="1314.59,-79.29 1323.35,-73.32 1312.78,-72.52 1314.59,-79.29"/>
</g>
<!-- Node35&#45;&gt;Node7 -->
<g id="edge63" class="edge">
<title>Node35&#45;&gt;Node7</title>
<path fill="none" stroke="midnightblue" d="M1374.79,-115.07C1283.4,-104.27 1091.65,-81.61 1008.21,-71.75"/>
<polygon fill="midnightblue" stroke="midnightblue" points="1008.46,-68.26 998.12,-70.56 1007.64,-75.21 1008.46,-68.26"/>
</g>
<!-- Node35&#45;&gt;Node33 -->
<g id="edge64" class="edge">
<title>Node35&#45;&gt;Node33</title>
<path fill="none" stroke="midnightblue" d="M1412.47,-112.32C1400.41,-103.98 1381.97,-91.21 1367.73,-81.35"/>
<polygon fill="midnightblue" stroke="midnightblue" points="1369.72,-78.47 1359.5,-75.65 1365.73,-84.22 1369.72,-78.47"/>
</g>
</g>
</svg>
