<?xml version="1.0" encoding="UTF-8" standalone="no"?>
<!DOCTYPE svg PUBLIC "-//W3C//DTD SVG 1.1//EN"
 "http://www.w3.org/Graphics/SVG/1.1/DTD/svg11.dtd">
<!-- Generated by graphviz version 2.43.0 (0)
 -->
<!-- Title: src/labs/outlab2/Compute.h Pages: 1 -->
<svg width="492pt" height="196pt"
 viewBox="0.00 0.00 491.50 196.00" xmlns="http://www.w3.org/2000/svg" xmlns:xlink="http://www.w3.org/1999/xlink">
<g id="graph0" class="graph" transform="scale(1 1) rotate(0) translate(4 192)">
<title>src/labs/outlab2/Compute.h</title>
<polygon fill="white" stroke="transparent" points="-4,4 -4,-192 487.5,-192 487.5,4 -4,4"/>
<!-- Node1 -->
<g id="node1" class="node">
<title>Node1</title>
<g id="a_node1"><a xlink:title="This file contains the declaration of two template functions, fillLagrangePolys and fillInterpolation...">
<polygon fill="#bfbfbf" stroke="black" points="49.5,-168.5 49.5,-187.5 199.5,-187.5 199.5,-168.5 49.5,-168.5"/>
<text text-anchor="middle" x="124.5" y="-175.5" font-family="Helvetica,sans-Serif" font-size="10.00">src/labs/outlab2/Compute.h</text>
</a>
</g>
</g>
<!-- Node2 -->
<g id="node2" class="node">
<title>Node2</title>
<g id="a_node2"><a xlink:title=" ">
<polygon fill="white" stroke="#bfbfbf" points="0,-112.5 0,-131.5 47,-131.5 47,-112.5 0,-112.5"/>
<text text-anchor="middle" x="23.5" y="-119.5" font-family="Helvetica,sans-Serif" font-size="10.00">cmath</text>
</a>
</g>
</g>
<!-- Node1&#45;&gt;Node2 -->
<g id="edge1" class="edge">
<title>Node1&#45;&gt;Node2</title>
<path fill="none" stroke="midnightblue" d="M108.27,-168.32C92.15,-159.7 67.2,-146.36 48.54,-136.39"/>
<polygon fill="midnightblue" stroke="midnightblue" points="50.16,-133.28 39.69,-131.65 46.86,-139.46 50.16,-133.28"/>
</g>
<!-- Node3 -->
<g id="node3" class="node">
<title>Node3</title>
<g id="a_node3"><a xlink:title=" ">
<polygon fill="white" stroke="#bfbfbf" points="22.5,-0.5 22.5,-19.5 82.5,-19.5 82.5,-0.5 22.5,-0.5"/>
<text text-anchor="middle" x="52.5" y="-7.5" font-family="Helvetica,sans-Serif" font-size="10.00">iostream</text>
</a>
</g>
</g>
<!-- Node1&#45;&gt;Node3 -->
<g id="edge2" class="edge">
<title>Node1&#45;&gt;Node3</title>
<path fill="none" stroke="midnightblue" d="M120.63,-168.08C109.25,-141.83 75.72,-64.55 60.36,-29.12"/>
<polygon fill="midnightblue" stroke="midnightblue" points="63.41,-27.35 56.22,-19.57 56.98,-30.14 63.41,-27.35"/>
</g>
<!-- Node4 -->
<g id="node4" class="node">
<title>Node4</title>
<g id="a_node4"><a xlink:href="../../d9/d41/CommandLine_8h.html" target="_top" xlink:title="This file contains the definition of the CommandLine class and the HeaderInfo struct.">
<polygon fill="white" stroke="black" points="155.5,-112.5 155.5,-131.5 251.5,-131.5 251.5,-112.5 155.5,-112.5"/>
<text text-anchor="middle" x="203.5" y="-119.5" font-family="Helvetica,sans-Serif" font-size="10.00">CommandLine.h</text>
</a>
</g>
</g>
<!-- Node1&#45;&gt;Node4 -->
<g id="edge3" class="edge">
<title>Node1&#45;&gt;Node4</title>
<path fill="none" stroke="midnightblue" d="M137.19,-168.32C149.4,-159.98 168.08,-147.21 182.5,-137.35"/>
<polygon fill="midnightblue" stroke="midnightblue" points="184.56,-140.19 190.84,-131.65 180.61,-134.41 184.56,-140.19"/>
</g>
<!-- Node12 -->
<g id="node12" class="node">
<title>Node12</title>
<g id="a_node12"><a xlink:href="../../d4/d2e/Stopwatch_8h.html" target="_top" xlink:title="This file contains the Stopwatch class which is a utility for measuring time durations in various uni...">
<polygon fill="white" stroke="black" points="360,-112.5 360,-131.5 437,-131.5 437,-112.5 360,-112.5"/>
<text text-anchor="middle" x="398.5" y="-119.5" font-family="Helvetica,sans-Serif" font-size="10.00">Stopwatch.h</text>
</a>
</g>
</g>
<!-- Node1&#45;&gt;Node12 -->
<g id="edge14" class="edge">
<title>Node1&#45;&gt;Node12</title>
<path fill="none" stroke="midnightblue" d="M167.92,-168.44C217.43,-158.69 298.18,-142.77 349.8,-132.6"/>
<polygon fill="midnightblue" stroke="midnightblue" points="350.58,-136.01 359.72,-130.64 349.23,-129.14 350.58,-136.01"/>
</g>
<!-- Node4&#45;&gt;Node3 -->
<g id="edge12" class="edge">
<title>Node4&#45;&gt;Node3</title>
<path fill="none" stroke="midnightblue" d="M188.76,-112.35C174.16,-103.63 151.34,-89.55 132.5,-76 110.44,-60.13 86.4,-40.21 70.49,-26.64"/>
<polygon fill="midnightblue" stroke="midnightblue" points="72.42,-23.68 62.55,-19.81 67.85,-28.98 72.42,-23.68"/>
</g>
<!-- Node5 -->
<g id="node5" class="node">
<title>Node5</title>
<g id="a_node5"><a xlink:href="../../db/df1/Helpers_8h.html" target="_top" xlink:title="This file contains helper functions and structures used throughout the program.">
<polygon fill="white" stroke="black" points="142,-56.5 142,-75.5 205,-75.5 205,-56.5 142,-56.5"/>
<text text-anchor="middle" x="173.5" y="-63.5" font-family="Helvetica,sans-Serif" font-size="10.00">Helpers.h</text>
</a>
</g>
</g>
<!-- Node4&#45;&gt;Node5 -->
<g id="edge4" class="edge">
<title>Node4&#45;&gt;Node5</title>
<path fill="none" stroke="midnightblue" d="M198.55,-112.08C194.4,-104.61 188.35,-93.72 183.23,-84.52"/>
<polygon fill="midnightblue" stroke="midnightblue" points="186.28,-82.79 178.36,-75.75 180.16,-86.19 186.28,-82.79"/>
</g>
<!-- Node9 -->
<g id="node9" class="node">
<title>Node9</title>
<g id="a_node9"><a xlink:title=" ">
<polygon fill="white" stroke="#bfbfbf" points="312.5,-0.5 312.5,-19.5 462.5,-19.5 462.5,-0.5 312.5,-0.5"/>
<text text-anchor="middle" x="387.5" y="-7.5" font-family="Helvetica,sans-Serif" font-size="10.00">boost/program_options.hpp</text>
</a>
</g>
</g>
<!-- Node4&#45;&gt;Node9 -->
<g id="edge11" class="edge">
<title>Node4&#45;&gt;Node9</title>
<path fill="none" stroke="midnightblue" d="M207.94,-112.07C215.31,-98.12 231.39,-71.18 252.5,-56 275.34,-39.58 304.58,-28.86 330,-22.02"/>
<polygon fill="midnightblue" stroke="midnightblue" points="331.07,-25.36 339.9,-19.5 329.34,-18.58 331.07,-25.36"/>
</g>
<!-- Node10 -->
<g id="node10" class="node">
<title>Node10</title>
<g id="a_node10"><a xlink:title=" ">
<polygon fill="white" stroke="#bfbfbf" points="261.5,-56.5 261.5,-75.5 353.5,-75.5 353.5,-56.5 261.5,-56.5"/>
<text text-anchor="middle" x="307.5" y="-63.5" font-family="Helvetica,sans-Serif" font-size="10.00">project&#45;config.h</text>
</a>
</g>
</g>
<!-- Node4&#45;&gt;Node10 -->
<g id="edge10" class="edge">
<title>Node4&#45;&gt;Node10</title>
<path fill="none" stroke="midnightblue" d="M220.21,-112.32C236.81,-103.7 262.5,-90.36 281.72,-80.39"/>
<polygon fill="midnightblue" stroke="midnightblue" points="283.57,-83.37 290.83,-75.65 280.34,-77.16 283.57,-83.37"/>
</g>
<!-- Node11 -->
<g id="node11" class="node">
<title>Node11</title>
<g id="a_node11"><a xlink:title=" ">
<polygon fill="white" stroke="#bfbfbf" points="371.5,-56.5 371.5,-75.5 415.5,-75.5 415.5,-56.5 371.5,-56.5"/>
<text text-anchor="middle" x="393.5" y="-63.5" font-family="Helvetica,sans-Serif" font-size="10.00">string</text>
</a>
</g>
</g>
<!-- Node4&#45;&gt;Node11 -->
<g id="edge13" class="edge">
<title>Node4&#45;&gt;Node11</title>
<path fill="none" stroke="midnightblue" d="M234,-112.43C264.08,-103.97 311.62,-90.56 361.77,-76.2"/>
<polygon fill="midnightblue" stroke="midnightblue" points="362.84,-79.53 371.49,-73.41 360.91,-72.8 362.84,-79.53"/>
</g>
<!-- Node5&#45;&gt;Node3 -->
<g id="edge6" class="edge">
<title>Node5&#45;&gt;Node3</title>
<path fill="none" stroke="midnightblue" d="M154.33,-56.44C134.59,-47.64 103.61,-33.81 81.01,-23.72"/>
<polygon fill="midnightblue" stroke="midnightblue" points="82.14,-20.4 71.58,-19.52 79.29,-26.79 82.14,-20.4"/>
</g>
<!-- Node6 -->
<g id="node6" class="node">
<title>Node6</title>
<g id="a_node6"><a xlink:title=" ">
<polygon fill="white" stroke="#bfbfbf" points="100.5,-0.5 100.5,-19.5 156.5,-19.5 156.5,-0.5 100.5,-0.5"/>
<text text-anchor="middle" x="128.5" y="-7.5" font-family="Helvetica,sans-Serif" font-size="10.00">iomanip</text>
</a>
</g>
</g>
<!-- Node5&#45;&gt;Node6 -->
<g id="edge5" class="edge">
<title>Node5&#45;&gt;Node6</title>
<path fill="none" stroke="midnightblue" d="M166.07,-56.08C159.65,-48.38 150.19,-37.03 142.38,-27.65"/>
<polygon fill="midnightblue" stroke="midnightblue" points="144.88,-25.19 135.79,-19.75 139.51,-29.67 144.88,-25.19"/>
</g>
<!-- Node7 -->
<g id="node7" class="node">
<title>Node7</title>
<g id="a_node7"><a xlink:title=" ">
<polygon fill="white" stroke="#bfbfbf" points="174.5,-0.5 174.5,-19.5 218.5,-19.5 218.5,-0.5 174.5,-0.5"/>
<text text-anchor="middle" x="196.5" y="-7.5" font-family="Helvetica,sans-Serif" font-size="10.00">limits</text>
</a>
</g>
</g>
<!-- Node5&#45;&gt;Node7 -->
<g id="edge7" class="edge">
<title>Node5&#45;&gt;Node7</title>
<path fill="none" stroke="midnightblue" d="M177.3,-56.08C180.41,-48.77 184.92,-38.18 188.79,-29.1"/>
<polygon fill="midnightblue" stroke="midnightblue" points="192.07,-30.32 192.77,-19.75 185.63,-27.58 192.07,-30.32"/>
</g>
<!-- Node8 -->
<g id="node8" class="node">
<title>Node8</title>
<g id="a_node8"><a xlink:title=" ">
<polygon fill="white" stroke="#bfbfbf" points="236.5,-0.5 236.5,-19.5 294.5,-19.5 294.5,-0.5 236.5,-0.5"/>
<text text-anchor="middle" x="265.5" y="-7.5" font-family="Helvetica,sans-Serif" font-size="10.00">json.hpp</text>
</a>
</g>
</g>
<!-- Node5&#45;&gt;Node8 -->
<g id="edge8" class="edge">
<title>Node5&#45;&gt;Node8</title>
<path fill="none" stroke="midnightblue" d="M188.28,-56.32C202.77,-47.82 225.07,-34.73 241.99,-24.8"/>
<polygon fill="midnightblue" stroke="midnightblue" points="243.9,-27.74 250.76,-19.65 240.36,-21.7 243.9,-27.74"/>
</g>
<!-- Node5&#45;&gt;Node9 -->
<g id="edge9" class="edge">
<title>Node5&#45;&gt;Node9</title>
<path fill="none" stroke="midnightblue" d="M205.08,-57.03C241.81,-47.76 302.67,-32.4 343.9,-22"/>
<polygon fill="midnightblue" stroke="midnightblue" points="344.83,-25.38 353.67,-19.54 343.12,-18.59 344.83,-25.38"/>
</g>
<!-- Node13 -->
<g id="node13" class="node">
<title>Node13</title>
<g id="a_node13"><a xlink:title=" ">
<polygon fill="white" stroke="#bfbfbf" points="433.5,-56.5 433.5,-75.5 483.5,-75.5 483.5,-56.5 433.5,-56.5"/>
<text text-anchor="middle" x="458.5" y="-63.5" font-family="Helvetica,sans-Serif" font-size="10.00">chrono</text>
</a>
</g>
</g>
<!-- Node12&#45;&gt;Node13 -->
<g id="edge15" class="edge">
<title>Node12&#45;&gt;Node13</title>
<path fill="none" stroke="midnightblue" d="M408.14,-112.32C417.01,-104.34 430.37,-92.31 441.11,-82.65"/>
<polygon fill="midnightblue" stroke="midnightblue" points="443.59,-85.13 448.68,-75.83 438.91,-79.92 443.59,-85.13"/>
</g>
</g>
</svg>
