<?xml version="1.0" encoding="UTF-8" standalone="no"?>
<!DOCTYPE svg PUBLIC "-//W3C//DTD SVG 1.1//EN"
 "http://www.w3.org/Graphics/SVG/1.1/DTD/svg11.dtd">
<!-- Generated by graphviz version 2.43.0 (0)
 -->
<!-- Title: src/utils/math/relaxation/SOR.h Pages: 1 -->
<!--zoomable 307 -->
<svg id="main" version="1.1" xmlns="http://www.w3.org/2000/svg" xmlns:xlink="http://www.w3.org/1999/xlink" xml:space="preserve" onload="init(evt)">
<style type="text/css"><![CDATA[
.edge:hover path { stroke: red; }
.edge:hover polygon { stroke: red; fill: red; }
]]></style>
<script type="text/javascript"><![CDATA[
var edges = document.getElementsByTagName('g');
if (edges && edges.length) {
  for (var i=0;i<edges.length;i++) {
    if (edges[i].id.substr(0,4)=='edge') {
      edges[i].setAttribute('class','edge');
    }
  }
}
]]></script>
        <defs>
                <circle id="rim" cx="0" cy="0" r="7"/>
                <circle id="rim2" cx="0" cy="0" r="3.5"/>
                <g id="zoomPlus">
                        <use xlink:href="#rim" fill="#404040">
                                <set attributeName="fill" to="#808080" begin="zoomplus.mouseover" end="zoomplus.mouseout"/>
                        </use>
                        <path d="M-4,0h8M0,-4v8" fill="none" stroke="white" stroke-width="1.5" pointer-events="none"/>
                </g>
                <g id="zoomMin">
                        <use xlink:href="#rim" fill="#404040">
                                <set attributeName="fill" to="#808080" begin="zoomminus.mouseover" end="zoomminus.mouseout"/>
                        </use>
                        <path d="M-4,0h8" fill="none" stroke="white" stroke-width="1.5" pointer-events="none"/>
                </g>
                <g id="dirArrow">
                        <path fill="none" stroke="white" stroke-width="1.5" d="M0,-3.0v7 M-2.5,-0.5L0,-3.0L2.5,-0.5"/>
                </g>
               <g id="resetDef">
                       <use xlink:href="#rim2" fill="#404040">
                               <set attributeName="fill" to="#808080" begin="reset.mouseover" end="reset.mouseout"/>
                       </use>
               </g>
        </defs>

<script type="text/javascript">
var viewWidth = 819;
var viewHeight = 307;
var sectionId = 'dynsection-1';
</script>
<script xlink:href="../../svgpan.js"/>
<svg id="graph" class="graph">
<g id="viewport">
<title>src/utils/math/relaxation/SOR.h</title>
<polygon fill="white" stroke="transparent" points="-4,4 -4,-303 814.5,-303 814.5,4 -4,4"/>
<!-- Node1 -->
<g id="node1" class="node">
<title>Node1</title>
<g id="a_node1"><a xlink:title="This file contains the implementation of the Successive Over&#45;Relaxation (SOR) method for solving syst...">
<polygon fill="#bfbfbf" stroke="black" points="333.5,-268.5 333.5,-298.5 469.5,-298.5 469.5,-268.5 333.5,-268.5"/>
<text text-anchor="start" x="341.5" y="-286.5" font-family="Helvetica,sans-Serif" font-size="10.00">src/utils/math/relaxation</text>
<text text-anchor="middle" x="401.5" y="-275.5" font-family="Helvetica,sans-Serif" font-size="10.00">/SOR.h</text>
</a>
</g>
</g>
<!-- Node2 -->
<g id="node2" class="node">
<title>Node2</title>
<g id="a_node2"><a xlink:href="../../dc/d21/labs_2outlab6_2Compute_8h.html" target="_top" xlink:title="This file contains the Compute namespace which includes methods for solving linear systems using vari...">
<polygon fill="white" stroke="black" points="14.5,-207 14.5,-226 164.5,-226 164.5,-207 14.5,-207"/>
<text text-anchor="middle" x="89.5" y="-214" font-family="Helvetica,sans-Serif" font-size="10.00">src/labs/outlab6/Compute.h</text>
</a>
</g>
</g>
<!-- Node1&#45;&gt;Node2 -->
<g id="edge1" class="edge">
<title>Node1&#45;&gt;Node2</title>
<path fill="none" stroke="midnightblue" d="M324.16,-266.39C262.82,-253.61 179.52,-236.25 130.44,-226.03"/>
<polygon fill="midnightblue" stroke="midnightblue" points="323.68,-269.86 334.18,-268.48 325.11,-263.01 323.68,-269.86"/>
</g>
<!-- Node5 -->
<g id="node5" class="node">
<title>Node5</title>
<g id="a_node5"><a xlink:href="../../db/d6e/project_2project2_2Compute_8h.html" target="_top" xlink:title="Compute methods for project milestone 1 in NE591&#45;008.">
<polygon fill="white" stroke="black" points="199.5,-201.5 199.5,-231.5 309.5,-231.5 309.5,-201.5 199.5,-201.5"/>
<text text-anchor="start" x="207.5" y="-219.5" font-family="Helvetica,sans-Serif" font-size="10.00">src/project/project2</text>
<text text-anchor="middle" x="254.5" y="-208.5" font-family="Helvetica,sans-Serif" font-size="10.00">/Compute.h</text>
</a>
</g>
</g>
<!-- Node1&#45;&gt;Node5 -->
<g id="edge4" class="edge">
<title>Node1&#45;&gt;Node5</title>
<path fill="none" stroke="midnightblue" d="M360.27,-264.27C336.86,-253.92 307.99,-241.15 286.33,-231.58"/>
<polygon fill="midnightblue" stroke="midnightblue" points="359.04,-267.55 369.6,-268.4 361.87,-261.15 359.04,-267.55"/>
</g>
<!-- Node9 -->
<g id="node9" class="node">
<title>Node9</title>
<g id="a_node9"><a xlink:href="../../d8/d8f/project_2project3_2Compute_8h.html" target="_top" xlink:title="Compute methods for project milestone 3 in NE591&#45;008.">
<polygon fill="white" stroke="black" points="346.5,-201.5 346.5,-231.5 456.5,-231.5 456.5,-201.5 346.5,-201.5"/>
<text text-anchor="start" x="354.5" y="-219.5" font-family="Helvetica,sans-Serif" font-size="10.00">src/project/project3</text>
<text text-anchor="middle" x="401.5" y="-208.5" font-family="Helvetica,sans-Serif" font-size="10.00">/Compute.h</text>
</a>
</g>
</g>
<!-- Node1&#45;&gt;Node9 -->
<g id="edge9" class="edge">
<title>Node1&#45;&gt;Node9</title>
<path fill="none" stroke="midnightblue" d="M401.5,-258.11C401.5,-249.15 401.5,-239.32 401.5,-231.58"/>
<polygon fill="midnightblue" stroke="midnightblue" points="398,-258.4 401.5,-268.4 405,-258.4 398,-258.4"/>
</g>
<!-- Node13 -->
<g id="node13" class="node">
<title>Node13</title>
<g id="a_node13"><a xlink:href="../../df/def/project_2project4_2Compute_8h.html" target="_top" xlink:title="Compute methods for project milestone 4 in NE591&#45;008.">
<polygon fill="white" stroke="black" points="493.5,-201.5 493.5,-231.5 603.5,-231.5 603.5,-201.5 493.5,-201.5"/>
<text text-anchor="start" x="501.5" y="-219.5" font-family="Helvetica,sans-Serif" font-size="10.00">src/project/project4</text>
<text text-anchor="middle" x="548.5" y="-208.5" font-family="Helvetica,sans-Serif" font-size="10.00">/Compute.h</text>
</a>
</g>
</g>
<!-- Node1&#45;&gt;Node13 -->
<g id="edge14" class="edge">
<title>Node1&#45;&gt;Node13</title>
<path fill="none" stroke="midnightblue" d="M442.73,-264.27C466.14,-253.92 495.01,-241.15 516.67,-231.58"/>
<polygon fill="midnightblue" stroke="midnightblue" points="441.13,-261.15 433.4,-268.4 443.96,-267.55 441.13,-261.15"/>
</g>
<!-- Node17 -->
<g id="node17" class="node">
<title>Node17</title>
<g id="a_node17"><a xlink:href="../../da/da0/project_2project5_2Compute_8h.html" target="_top" xlink:title="Compute methods for project milestone 5 in NE591&#45;008.">
<polygon fill="white" stroke="black" points="659.5,-201.5 659.5,-231.5 769.5,-231.5 769.5,-201.5 659.5,-201.5"/>
<text text-anchor="start" x="667.5" y="-219.5" font-family="Helvetica,sans-Serif" font-size="10.00">src/project/project5</text>
<text text-anchor="middle" x="714.5" y="-208.5" font-family="Helvetica,sans-Serif" font-size="10.00">/Compute.h</text>
</a>
</g>
</g>
<!-- Node1&#45;&gt;Node17 -->
<g id="edge19" class="edge">
<title>Node1&#45;&gt;Node17</title>
<path fill="none" stroke="midnightblue" d="M478.91,-266.42C534.93,-254.79 609.27,-239.35 659.34,-228.95"/>
<polygon fill="midnightblue" stroke="midnightblue" points="478.11,-263.02 469.03,-268.48 479.53,-269.87 478.11,-263.02"/>
</g>
<!-- Node3 -->
<g id="node3" class="node">
<title>Node3</title>
<g id="a_node3"><a xlink:href="../../df/df9/outlab6_8h.html" target="_top" xlink:title=" ">
<polygon fill="white" stroke="black" points="0,-140 0,-159 143,-159 143,-140 0,-140"/>
<text text-anchor="middle" x="71.5" y="-147" font-family="Helvetica,sans-Serif" font-size="10.00">src/labs/outlab6/outlab6.h</text>
</a>
</g>
</g>
<!-- Node2&#45;&gt;Node3 -->
<g id="edge2" class="edge">
<title>Node2&#45;&gt;Node3</title>
<path fill="none" stroke="midnightblue" d="M84.35,-196.91C80.91,-184.49 76.54,-168.72 73.89,-159.13"/>
<polygon fill="midnightblue" stroke="midnightblue" points="81.03,-198.03 87.07,-206.73 87.78,-196.16 81.03,-198.03"/>
</g>
<!-- Node4 -->
<g id="node4" class="node">
<title>Node4</title>
<g id="a_node4"><a xlink:href="../../d4/d5d/labs_2outlab6_2main_8cpp.html" target="_top" xlink:title=" ">
<polygon fill="white" stroke="black" points="0.5,-73 0.5,-92 142.5,-92 142.5,-73 0.5,-73"/>
<text text-anchor="middle" x="71.5" y="-80" font-family="Helvetica,sans-Serif" font-size="10.00">src/labs/outlab6/main.cpp</text>
</a>
</g>
</g>
<!-- Node3&#45;&gt;Node4 -->
<g id="edge3" class="edge">
<title>Node3&#45;&gt;Node4</title>
<path fill="none" stroke="midnightblue" d="M71.5,-129.54C71.5,-117.17 71.5,-101.62 71.5,-92.13"/>
<polygon fill="midnightblue" stroke="midnightblue" points="68,-129.73 71.5,-139.73 75,-129.73 68,-129.73"/>
</g>
<!-- Node6 -->
<g id="node6" class="node">
<title>Node6</title>
<g id="a_node6"><a xlink:href="../../dc/d79/project2_8h.html" target="_top" xlink:title=" ">
<polygon fill="white" stroke="black" points="180.5,-67.5 180.5,-97.5 290.5,-97.5 290.5,-67.5 180.5,-67.5"/>
<text text-anchor="start" x="188.5" y="-85.5" font-family="Helvetica,sans-Serif" font-size="10.00">src/project/project2</text>
<text text-anchor="middle" x="235.5" y="-74.5" font-family="Helvetica,sans-Serif" font-size="10.00">/project2.h</text>
</a>
</g>
</g>
<!-- Node5&#45;&gt;Node6 -->
<g id="edge5" class="edge">
<title>Node5&#45;&gt;Node6</title>
<path fill="none" stroke="midnightblue" d="M218.38,-195.8C207.35,-187.81 196.55,-177.48 190.5,-165 184.49,-152.6 185.6,-146.88 190.5,-134 195.93,-119.73 207.45,-106.93 217.48,-97.79"/>
<polygon fill="midnightblue" stroke="midnightblue" points="216.52,-198.78 226.78,-201.46 220.43,-192.97 216.52,-198.78"/>
</g>
<!-- Node8 -->
<g id="node8" class="node">
<title>Node8</title>
<g id="a_node8"><a xlink:href="../../d6/da7/project_2project2_2Parser_8h.html" target="_top" xlink:title="This file contains the Parser class which is responsible for parsing command line arguments and valid...">
<polygon fill="white" stroke="black" points="199.5,-134.5 199.5,-164.5 309.5,-164.5 309.5,-134.5 199.5,-134.5"/>
<text text-anchor="start" x="207.5" y="-152.5" font-family="Helvetica,sans-Serif" font-size="10.00">src/project/project2</text>
<text text-anchor="middle" x="254.5" y="-141.5" font-family="Helvetica,sans-Serif" font-size="10.00">/Parser.h</text>
</a>
</g>
</g>
<!-- Node5&#45;&gt;Node8 -->
<g id="edge7" class="edge">
<title>Node5&#45;&gt;Node8</title>
<path fill="none" stroke="midnightblue" d="M254.5,-191.11C254.5,-182.15 254.5,-172.32 254.5,-164.58"/>
<polygon fill="midnightblue" stroke="midnightblue" points="251,-191.4 254.5,-201.4 258,-191.4 251,-191.4"/>
</g>
<!-- Node7 -->
<g id="node7" class="node">
<title>Node7</title>
<g id="a_node7"><a xlink:href="../../dd/d48/project_2project2_2main_8cpp.html" target="_top" xlink:title=" ">
<polygon fill="white" stroke="black" points="180.5,-0.5 180.5,-30.5 290.5,-30.5 290.5,-0.5 180.5,-0.5"/>
<text text-anchor="start" x="188.5" y="-18.5" font-family="Helvetica,sans-Serif" font-size="10.00">src/project/project2</text>
<text text-anchor="middle" x="235.5" y="-7.5" font-family="Helvetica,sans-Serif" font-size="10.00">/main.cpp</text>
</a>
</g>
</g>
<!-- Node6&#45;&gt;Node7 -->
<g id="edge6" class="edge">
<title>Node6&#45;&gt;Node7</title>
<path fill="none" stroke="midnightblue" d="M235.5,-57.11C235.5,-48.15 235.5,-38.32 235.5,-30.58"/>
<polygon fill="midnightblue" stroke="midnightblue" points="232,-57.4 235.5,-67.4 239,-57.4 232,-57.4"/>
</g>
<!-- Node8&#45;&gt;Node6 -->
<g id="edge8" class="edge">
<title>Node8&#45;&gt;Node6</title>
<path fill="none" stroke="midnightblue" d="M247.54,-124.7C244.88,-115.59 241.93,-105.49 239.61,-97.58"/>
<polygon fill="midnightblue" stroke="midnightblue" points="244.21,-125.78 250.38,-134.4 250.93,-123.82 244.21,-125.78"/>
</g>
<!-- Node10 -->
<g id="node10" class="node">
<title>Node10</title>
<g id="a_node10"><a xlink:href="../../d7/d5d/project_2project3_2Parser_8h.html" target="_top" xlink:title="This file contains the Parser class which is responsible for parsing command line arguments and valid...">
<polygon fill="white" stroke="black" points="327.5,-134.5 327.5,-164.5 437.5,-164.5 437.5,-134.5 327.5,-134.5"/>
<text text-anchor="start" x="335.5" y="-152.5" font-family="Helvetica,sans-Serif" font-size="10.00">src/project/project3</text>
<text text-anchor="middle" x="382.5" y="-141.5" font-family="Helvetica,sans-Serif" font-size="10.00">/Parser.h</text>
</a>
</g>
</g>
<!-- Node9&#45;&gt;Node10 -->
<g id="edge10" class="edge">
<title>Node9&#45;&gt;Node10</title>
<path fill="none" stroke="midnightblue" d="M394.54,-191.7C391.88,-182.59 388.93,-172.49 386.61,-164.58"/>
<polygon fill="midnightblue" stroke="midnightblue" points="391.21,-192.78 397.38,-201.4 397.93,-190.82 391.21,-192.78"/>
</g>
<!-- Node11 -->
<g id="node11" class="node">
<title>Node11</title>
<g id="a_node11"><a xlink:href="../../da/d0a/project3_8h.html" target="_top" xlink:title=" ">
<polygon fill="white" stroke="black" points="346.5,-67.5 346.5,-97.5 456.5,-97.5 456.5,-67.5 346.5,-67.5"/>
<text text-anchor="start" x="354.5" y="-85.5" font-family="Helvetica,sans-Serif" font-size="10.00">src/project/project3</text>
<text text-anchor="middle" x="401.5" y="-74.5" font-family="Helvetica,sans-Serif" font-size="10.00">/project3.h</text>
</a>
</g>
</g>
<!-- Node9&#45;&gt;Node11 -->
<g id="edge13" class="edge">
<title>Node9&#45;&gt;Node11</title>
<path fill="none" stroke="midnightblue" d="M426.72,-194.21C434.61,-185.99 442.34,-175.92 446.5,-165 451.4,-152.12 451.4,-146.88 446.5,-134 441.07,-119.73 429.55,-106.93 419.52,-97.79"/>
<polygon fill="midnightblue" stroke="midnightblue" points="424.25,-191.73 419.52,-201.21 429.13,-196.74 424.25,-191.73"/>
</g>
<!-- Node10&#45;&gt;Node11 -->
<g id="edge11" class="edge">
<title>Node10&#45;&gt;Node11</title>
<path fill="none" stroke="midnightblue" d="M389.46,-124.7C392.12,-115.59 395.07,-105.49 397.39,-97.58"/>
<polygon fill="midnightblue" stroke="midnightblue" points="386.07,-123.82 386.62,-134.4 392.79,-125.78 386.07,-123.82"/>
</g>
<!-- Node12 -->
<g id="node12" class="node">
<title>Node12</title>
<g id="a_node12"><a xlink:href="../../de/ddf/project_2project3_2main_8cpp.html" target="_top" xlink:title=" ">
<polygon fill="white" stroke="black" points="346.5,-0.5 346.5,-30.5 456.5,-30.5 456.5,-0.5 346.5,-0.5"/>
<text text-anchor="start" x="354.5" y="-18.5" font-family="Helvetica,sans-Serif" font-size="10.00">src/project/project3</text>
<text text-anchor="middle" x="401.5" y="-7.5" font-family="Helvetica,sans-Serif" font-size="10.00">/main.cpp</text>
</a>
</g>
</g>
<!-- Node11&#45;&gt;Node12 -->
<g id="edge12" class="edge">
<title>Node11&#45;&gt;Node12</title>
<path fill="none" stroke="midnightblue" d="M401.5,-57.11C401.5,-48.15 401.5,-38.32 401.5,-30.58"/>
<polygon fill="midnightblue" stroke="midnightblue" points="398,-57.4 401.5,-67.4 405,-57.4 398,-57.4"/>
</g>
<!-- Node14 -->
<g id="node14" class="node">
<title>Node14</title>
<g id="a_node14"><a xlink:href="../../db/d50/project_2project4_2Parser_8h.html" target="_top" xlink:title="This file contains the Parser class which is responsible for parsing command line arguments and valid...">
<polygon fill="white" stroke="black" points="493.5,-134.5 493.5,-164.5 603.5,-164.5 603.5,-134.5 493.5,-134.5"/>
<text text-anchor="start" x="501.5" y="-152.5" font-family="Helvetica,sans-Serif" font-size="10.00">src/project/project4</text>
<text text-anchor="middle" x="548.5" y="-141.5" font-family="Helvetica,sans-Serif" font-size="10.00">/Parser.h</text>
</a>
</g>
</g>
<!-- Node13&#45;&gt;Node14 -->
<g id="edge15" class="edge">
<title>Node13&#45;&gt;Node14</title>
<path fill="none" stroke="midnightblue" d="M548.5,-191.11C548.5,-182.15 548.5,-172.32 548.5,-164.58"/>
<polygon fill="midnightblue" stroke="midnightblue" points="545,-191.4 548.5,-201.4 552,-191.4 545,-191.4"/>
</g>
<!-- Node15 -->
<g id="node15" class="node">
<title>Node15</title>
<g id="a_node15"><a xlink:href="../../d9/d80/project4_8h.html" target="_top" xlink:title=" ">
<polygon fill="white" stroke="black" points="512.5,-67.5 512.5,-97.5 622.5,-97.5 622.5,-67.5 512.5,-67.5"/>
<text text-anchor="start" x="520.5" y="-85.5" font-family="Helvetica,sans-Serif" font-size="10.00">src/project/project4</text>
<text text-anchor="middle" x="567.5" y="-74.5" font-family="Helvetica,sans-Serif" font-size="10.00">/project4.h</text>
</a>
</g>
</g>
<!-- Node13&#45;&gt;Node15 -->
<g id="edge18" class="edge">
<title>Node13&#45;&gt;Node15</title>
<path fill="none" stroke="midnightblue" d="M584.62,-195.8C595.65,-187.81 606.45,-177.48 612.5,-165 618.51,-152.6 617.4,-146.88 612.5,-134 607.07,-119.73 595.55,-106.93 585.52,-97.79"/>
<polygon fill="midnightblue" stroke="midnightblue" points="582.57,-192.97 576.22,-201.46 586.48,-198.78 582.57,-192.97"/>
</g>
<!-- Node14&#45;&gt;Node15 -->
<g id="edge16" class="edge">
<title>Node14&#45;&gt;Node15</title>
<path fill="none" stroke="midnightblue" d="M555.46,-124.7C558.12,-115.59 561.07,-105.49 563.39,-97.58"/>
<polygon fill="midnightblue" stroke="midnightblue" points="552.07,-123.82 552.62,-134.4 558.79,-125.78 552.07,-123.82"/>
</g>
<!-- Node16 -->
<g id="node16" class="node">
<title>Node16</title>
<g id="a_node16"><a xlink:href="../../d0/d86/project_2project4_2main_8cpp.html" target="_top" xlink:title=" ">
<polygon fill="white" stroke="black" points="512.5,-0.5 512.5,-30.5 622.5,-30.5 622.5,-0.5 512.5,-0.5"/>
<text text-anchor="start" x="520.5" y="-18.5" font-family="Helvetica,sans-Serif" font-size="10.00">src/project/project4</text>
<text text-anchor="middle" x="567.5" y="-7.5" font-family="Helvetica,sans-Serif" font-size="10.00">/main.cpp</text>
</a>
</g>
</g>
<!-- Node15&#45;&gt;Node16 -->
<g id="edge17" class="edge">
<title>Node15&#45;&gt;Node16</title>
<path fill="none" stroke="midnightblue" d="M567.5,-57.11C567.5,-48.15 567.5,-38.32 567.5,-30.58"/>
<polygon fill="midnightblue" stroke="midnightblue" points="564,-57.4 567.5,-67.4 571,-57.4 564,-57.4"/>
</g>
<!-- Node18 -->
<g id="node18" class="node">
<title>Node18</title>
<g id="a_node18"><a xlink:href="../../de/db2/project_2project5_2Parser_8h.html" target="_top" xlink:title="This file contains the Parser class which is responsible for parsing command line arguments and valid...">
<polygon fill="white" stroke="black" points="659.5,-134.5 659.5,-164.5 769.5,-164.5 769.5,-134.5 659.5,-134.5"/>
<text text-anchor="start" x="667.5" y="-152.5" font-family="Helvetica,sans-Serif" font-size="10.00">src/project/project5</text>
<text text-anchor="middle" x="714.5" y="-141.5" font-family="Helvetica,sans-Serif" font-size="10.00">/Parser.h</text>
</a>
</g>
</g>
<!-- Node17&#45;&gt;Node18 -->
<g id="edge20" class="edge">
<title>Node17&#45;&gt;Node18</title>
<path fill="none" stroke="midnightblue" d="M714.5,-191.11C714.5,-182.15 714.5,-172.32 714.5,-164.58"/>
<polygon fill="midnightblue" stroke="midnightblue" points="711,-191.4 714.5,-201.4 718,-191.4 711,-191.4"/>
</g>
<!-- Node19 -->
<g id="node19" class="node">
<title>Node19</title>
<g id="a_node19"><a xlink:href="../../d9/dde/project5_8h.html" target="_top" xlink:title=" ">
<polygon fill="white" stroke="black" points="700.5,-67.5 700.5,-97.5 810.5,-97.5 810.5,-67.5 700.5,-67.5"/>
<text text-anchor="start" x="708.5" y="-85.5" font-family="Helvetica,sans-Serif" font-size="10.00">src/project/project5</text>
<text text-anchor="middle" x="755.5" y="-74.5" font-family="Helvetica,sans-Serif" font-size="10.00">/project5.h</text>
</a>
</g>
</g>
<!-- Node17&#45;&gt;Node19 -->
<g id="edge23" class="edge">
<title>Node17&#45;&gt;Node19</title>
<path fill="none" stroke="midnightblue" d="M750.62,-195.8C761.65,-187.81 772.45,-177.48 778.5,-165 789.34,-142.64 775.84,-114.29 765.42,-97.59"/>
<polygon fill="midnightblue" stroke="midnightblue" points="748.57,-192.97 742.22,-201.46 752.48,-198.78 748.57,-192.97"/>
</g>
<!-- Node18&#45;&gt;Node19 -->
<g id="edge21" class="edge">
<title>Node18&#45;&gt;Node19</title>
<path fill="none" stroke="midnightblue" d="M728.78,-125.87C734.71,-116.46 741.41,-105.83 746.62,-97.58"/>
<polygon fill="midnightblue" stroke="midnightblue" points="725.77,-124.07 723.4,-134.4 731.69,-127.81 725.77,-124.07"/>
</g>
<!-- Node20 -->
<g id="node20" class="node">
<title>Node20</title>
<g id="a_node20"><a xlink:href="../../dc/dc7/project_2project5_2main_8cpp.html" target="_top" xlink:title=" ">
<polygon fill="white" stroke="black" points="700.5,-0.5 700.5,-30.5 810.5,-30.5 810.5,-0.5 700.5,-0.5"/>
<text text-anchor="start" x="708.5" y="-18.5" font-family="Helvetica,sans-Serif" font-size="10.00">src/project/project5</text>
<text text-anchor="middle" x="755.5" y="-7.5" font-family="Helvetica,sans-Serif" font-size="10.00">/main.cpp</text>
</a>
</g>
</g>
<!-- Node19&#45;&gt;Node20 -->
<g id="edge22" class="edge">
<title>Node19&#45;&gt;Node20</title>
<path fill="none" stroke="midnightblue" d="M755.5,-57.11C755.5,-48.15 755.5,-38.32 755.5,-30.58"/>
<polygon fill="midnightblue" stroke="midnightblue" points="752,-57.4 755.5,-67.4 759,-57.4 752,-57.4"/>
</g>
</g>
</svg>
        <g id="navigator" transform="translate(0 0)" fill="#404254">
                <rect fill="#f2f5e9" fill-opacity="0.5" stroke="#606060" stroke-width=".5" x="0" y="0" width="60" height="60"/>
                <use id="zoomplus" xlink:href="#zoomPlus" x="17" y="9" onmousedown="handleZoom(evt,'in')"/>
                <use id="zoomminus" xlink:href="#zoomMin" x="42" y="9" onmousedown="handleZoom(evt,'out')"/>
                <use id="reset" xlink:href="#resetDef" x="30" y="36" onmousedown="handleReset()"/>
                <g id="arrowUp" xlink:href="#dirArrow" transform="translate(30 24)" onmousedown="handlePan(0,-1)">
                  <use xlink:href="#rim" fill="#404040">
                        <set attributeName="fill" to="#808080" begin="arrowUp.mouseover" end="arrowUp.mouseout"/>
                  </use>
                  <path fill="none" stroke="white" stroke-width="1.5" d="M0,-3.0v7 M-2.5,-0.5L0,-3.0L2.5,-0.5"/>
                </g>
                <g id="arrowRight" xlink:href="#dirArrow" transform="rotate(90) translate(36 -43)" onmousedown="handlePan(1,0)">
                  <use xlink:href="#rim" fill="#404040">
                        <set attributeName="fill" to="#808080" begin="arrowRight.mouseover" end="arrowRight.mouseout"/>
                  </use>
                  <path fill="none" stroke="white" stroke-width="1.5" d="M0,-3.0v7 M-2.5,-0.5L0,-3.0L2.5,-0.5"/>
                </g>
                <g id="arrowDown" xlink:href="#dirArrow" transform="rotate(180) translate(-30 -48)" onmousedown="handlePan(0,1)">
                  <use xlink:href="#rim" fill="#404040">
                        <set attributeName="fill" to="#808080" begin="arrowDown.mouseover" end="arrowDown.mouseout"/>
                  </use>
                  <path fill="none" stroke="white" stroke-width="1.5" d="M0,-3.0v7 M-2.5,-0.5L0,-3.0L2.5,-0.5"/>
                </g>
                <g id="arrowLeft" xlink:href="#dirArrow" transform="rotate(270) translate(-36 17)" onmousedown="handlePan(-1,0)">
                  <use xlink:href="#rim" fill="#404040">
                        <set attributeName="fill" to="#808080" begin="arrowLeft.mouseover" end="arrowLeft.mouseout"/>
                  </use>
                  <path fill="none" stroke="white" stroke-width="1.5" d="M0,-3.0v7 M-2.5,-0.5L0,-3.0L2.5,-0.5"/>
                </g>
        </g>
        <svg viewBox="0 0 15 15" width="100%" height="30px" preserveAspectRatio="xMaxYMin meet">
         <g id="arrow_out" transform="scale(0.3 0.3)">
          <a xlink:href="SOR_8h__dep__incl_org.svg" target="_base">
           <rect id="button" ry="5" rx="5" y="6" x="6" height="38" width="38"
                fill="#f2f5e9" fill-opacity="0.5" stroke="#606060" stroke-width="1.0"/>
           <path id="arrow"
             d="M 11.500037,31.436501 C 11.940474,20.09759 22.043105,11.32322 32.158766,21.979434 L 37.068811,17.246167 C 37.068811,17.246167 37.088388,32 37.088388,32 L 22.160133,31.978069 C 22.160133,31.978069 26.997745,27.140456 26.997745,27.140456 C 18.528582,18.264221 13.291696,25.230495 11.500037,31.436501 z"
             style="fill:#404040;"/>
          </a>
         </g>
        </svg>
</svg>
