<?xml version="1.0" encoding="UTF-8" standalone="no"?>
<!DOCTYPE svg PUBLIC "-//W3C//DTD SVG 1.1//EN"
 "http://www.w3.org/Graphics/SVG/1.1/DTD/svg11.dtd">
<!-- Generated by graphviz version 2.43.0 (0)
 -->
<!-- Title: src/utils/math/relaxation/SOR.h Pages: 1 -->
<svg width="172pt" height="307pt"
 viewBox="0.00 0.00 172.00 307.00" xmlns="http://www.w3.org/2000/svg" xmlns:xlink="http://www.w3.org/1999/xlink">
<g id="graph0" class="graph" transform="scale(1 1) rotate(0) translate(4 303)">
<title>src/utils/math/relaxation/SOR.h</title>
<polygon fill="white" stroke="transparent" points="-4,4 -4,-303 168,-303 168,4 -4,4"/>
<!-- Node1 -->
<g id="node1" class="node">
<title>Node1</title>
<g id="a_node1"><a xlink:title="This file contains the implementation of the Successive Over&#45;Relaxation (SOR) method for solving syst...">
<polygon fill="#bfbfbf" stroke="black" points="28,-268.5 28,-298.5 164,-298.5 164,-268.5 28,-268.5"/>
<text text-anchor="start" x="36" y="-286.5" font-family="Helvetica,sans-Serif" font-size="10.00">src/utils/math/relaxation</text>
<text text-anchor="middle" x="96" y="-275.5" font-family="Helvetica,sans-Serif" font-size="10.00">/SOR.h</text>
</a>
</g>
</g>
<!-- Node2 -->
<g id="node2" class="node">
<title>Node2</title>
<g id="a_node2"><a xlink:href="../../d8/d8f/project_2project3_2Compute_8h.html" target="_top" xlink:title="Compute methods for project milestone 3 in NE591&#45;008.">
<polygon fill="white" stroke="black" points="41,-201.5 41,-231.5 151,-231.5 151,-201.5 41,-201.5"/>
<text text-anchor="start" x="49" y="-219.5" font-family="Helvetica,sans-Serif" font-size="10.00">src/project/project3</text>
<text text-anchor="middle" x="96" y="-208.5" font-family="Helvetica,sans-Serif" font-size="10.00">/Compute.h</text>
</a>
</g>
</g>
<!-- Node1&#45;&gt;Node2 -->
<g id="edge1" class="edge">
<title>Node1&#45;&gt;Node2</title>
<path fill="none" stroke="midnightblue" d="M96,-258.11C96,-249.15 96,-239.32 96,-231.58"/>
<polygon fill="midnightblue" stroke="midnightblue" points="92.5,-258.4 96,-268.4 99.5,-258.4 92.5,-258.4"/>
</g>
<!-- Node3 -->
<g id="node3" class="node">
<title>Node3</title>
<g id="a_node3"><a xlink:href="../../d7/d5d/project_2project3_2Parser_8h.html" target="_top" xlink:title="This file contains the Parser class which is responsible for parsing command line arguments and valid...">
<polygon fill="white" stroke="black" points="0,-134.5 0,-164.5 110,-164.5 110,-134.5 0,-134.5"/>
<text text-anchor="start" x="8" y="-152.5" font-family="Helvetica,sans-Serif" font-size="10.00">src/project/project3</text>
<text text-anchor="middle" x="55" y="-141.5" font-family="Helvetica,sans-Serif" font-size="10.00">/Parser.h</text>
</a>
</g>
</g>
<!-- Node2&#45;&gt;Node3 -->
<g id="edge2" class="edge">
<title>Node2&#45;&gt;Node3</title>
<path fill="none" stroke="midnightblue" d="M81.72,-192.87C75.79,-183.46 69.09,-172.83 63.88,-164.58"/>
<polygon fill="midnightblue" stroke="midnightblue" points="78.81,-194.81 87.1,-201.4 84.73,-191.07 78.81,-194.81"/>
</g>
<!-- Node4 -->
<g id="node4" class="node">
<title>Node4</title>
<g id="a_node4"><a xlink:href="../../da/d0a/project3_8h.html" target="_top" xlink:title=" ">
<polygon fill="white" stroke="black" points="41,-67.5 41,-97.5 151,-97.5 151,-67.5 41,-67.5"/>
<text text-anchor="start" x="49" y="-85.5" font-family="Helvetica,sans-Serif" font-size="10.00">src/project/project3</text>
<text text-anchor="middle" x="96" y="-74.5" font-family="Helvetica,sans-Serif" font-size="10.00">/project3.h</text>
</a>
</g>
</g>
<!-- Node2&#45;&gt;Node4 -->
<g id="edge5" class="edge">
<title>Node2&#45;&gt;Node4</title>
<path fill="none" stroke="midnightblue" d="M109.04,-192.38C113.06,-184.02 116.97,-174.34 119,-165 121.92,-151.54 121.92,-147.46 119,-134 116.18,-121.01 109.72,-107.35 104.36,-97.52"/>
<polygon fill="midnightblue" stroke="midnightblue" points="105.82,-190.99 104.36,-201.48 112.04,-194.19 105.82,-190.99"/>
</g>
<!-- Node3&#45;&gt;Node4 -->
<g id="edge3" class="edge">
<title>Node3&#45;&gt;Node4</title>
<path fill="none" stroke="midnightblue" d="M69.28,-125.87C75.21,-116.46 81.91,-105.83 87.12,-97.58"/>
<polygon fill="midnightblue" stroke="midnightblue" points="66.27,-124.07 63.9,-134.4 72.19,-127.81 66.27,-124.07"/>
</g>
<!-- Node5 -->
<g id="node5" class="node">
<title>Node5</title>
<g id="a_node5"><a xlink:href="../../de/ddf/project_2project3_2main_8cpp.html" target="_top" xlink:title=" ">
<polygon fill="white" stroke="black" points="41,-0.5 41,-30.5 151,-30.5 151,-0.5 41,-0.5"/>
<text text-anchor="start" x="49" y="-18.5" font-family="Helvetica,sans-Serif" font-size="10.00">src/project/project3</text>
<text text-anchor="middle" x="96" y="-7.5" font-family="Helvetica,sans-Serif" font-size="10.00">/main.cpp</text>
</a>
</g>
</g>
<!-- Node4&#45;&gt;Node5 -->
<g id="edge4" class="edge">
<title>Node4&#45;&gt;Node5</title>
<path fill="none" stroke="midnightblue" d="M96,-57.11C96,-48.15 96,-38.32 96,-30.58"/>
<polygon fill="midnightblue" stroke="midnightblue" points="92.5,-57.4 96,-67.4 99.5,-57.4 92.5,-57.4"/>
</g>
</g>
</svg>
