<?xml version="1.0" encoding="UTF-8" standalone="no"?>
<!DOCTYPE svg PUBLIC "-//W3C//DTD SVG 1.1//EN"
 "http://www.w3.org/Graphics/SVG/1.1/DTD/svg11.dtd">
<!-- Generated by graphviz version 2.43.0 (0)
 -->
<!-- Title: src/utils/math/Random.h Pages: 1 -->
<svg width="1455pt" height="274pt"
 viewBox="0.00 0.00 1455.00 274.00" xmlns="http://www.w3.org/2000/svg" xmlns:xlink="http://www.w3.org/1999/xlink">
<g id="graph0" class="graph" transform="scale(1 1) rotate(0) translate(4 270)">
<title>src/utils/math/Random.h</title>
<polygon fill="white" stroke="transparent" points="-4,4 -4,-270 1451,-270 1451,4 -4,4"/>
<!-- Node1 -->
<g id="node1" class="node">
<title>Node1</title>
<g id="a_node1"><a xlink:title="This file contains the Random namespace which provides functions for generating random vectors and ma...">
<polygon fill="#bfbfbf" stroke="black" points="565.5,-246.5 565.5,-265.5 701.5,-265.5 701.5,-246.5 565.5,-246.5"/>
<text text-anchor="middle" x="633.5" y="-253.5" font-family="Helvetica,sans-Serif" font-size="10.00">src/utils/math/Random.h</text>
</a>
</g>
</g>
<!-- Node2 -->
<g id="node2" class="node">
<title>Node2</title>
<g id="a_node2"><a xlink:href="../../de/d20/InLab10Tests_8cpp.html" target="_top" xlink:title=" ">
<polygon fill="white" stroke="black" points="364.5,-174 364.5,-204 484.5,-204 484.5,-174 364.5,-174"/>
<text text-anchor="start" x="372.5" y="-192" font-family="Helvetica,sans-Serif" font-size="10.00">src/labs/inlab10/tests</text>
<text text-anchor="middle" x="424.5" y="-181" font-family="Helvetica,sans-Serif" font-size="10.00">/InLab10Tests.cpp</text>
</a>
</g>
</g>
<!-- Node1&#45;&gt;Node2 -->
<g id="edge1" class="edge">
<title>Node1&#45;&gt;Node2</title>
<path fill="none" stroke="midnightblue" d="M595.8,-243.27C560.36,-232.25 507.28,-215.74 469.61,-204.03"/>
<polygon fill="midnightblue" stroke="midnightblue" points="595.16,-246.74 605.75,-246.37 597.24,-240.06 595.16,-246.74"/>
</g>
<!-- Node3 -->
<g id="node3" class="node">
<title>Node3</title>
<g id="a_node3"><a xlink:href="../../df/dfd/OutLab10Tests_8cpp.html" target="_top" xlink:title=" ">
<polygon fill="white" stroke="black" points="503,-174 503,-204 630,-204 630,-174 503,-174"/>
<text text-anchor="start" x="511" y="-192" font-family="Helvetica,sans-Serif" font-size="10.00">src/labs/outlab10/tests</text>
<text text-anchor="middle" x="566.5" y="-181" font-family="Helvetica,sans-Serif" font-size="10.00">/OutLab10Tests.cpp</text>
</a>
</g>
</g>
<!-- Node1&#45;&gt;Node3 -->
<g id="edge2" class="edge">
<title>Node1&#45;&gt;Node3</title>
<path fill="none" stroke="midnightblue" d="M617.13,-239.12C606.09,-228.41 591.65,-214.4 581.02,-204.09"/>
<polygon fill="midnightblue" stroke="midnightblue" points="614.85,-241.78 624.46,-246.23 619.72,-236.76 614.85,-241.78"/>
</g>
<!-- Node4 -->
<g id="node4" class="node">
<title>Node4</title>
<g id="a_node4"><a xlink:href="../../d3/dde/Circuit_8h.html" target="_top" xlink:title="Header file for the Circuit function, which generates a coefficient matrix A, and vectors x,...">
<polygon fill="white" stroke="black" points="648,-174 648,-204 755,-204 755,-174 648,-174"/>
<text text-anchor="start" x="656" y="-192" font-family="Helvetica,sans-Serif" font-size="10.00">src/utils/math/blas</text>
<text text-anchor="middle" x="701.5" y="-181" font-family="Helvetica,sans-Serif" font-size="10.00">/system/Circuit.h</text>
</a>
</g>
</g>
<!-- Node1&#45;&gt;Node4 -->
<g id="edge3" class="edge">
<title>Node1&#45;&gt;Node4</title>
<path fill="none" stroke="midnightblue" d="M650.12,-239.12C661.32,-228.41 675.97,-214.4 686.76,-204.09"/>
<polygon fill="midnightblue" stroke="midnightblue" points="647.48,-236.79 642.67,-246.23 652.32,-241.85 647.48,-236.79"/>
</g>
<!-- Node32 -->
<g id="node32" class="node">
<title>Node32</title>
<g id="a_node32"><a xlink:href="../../dd/db9/MatrixPerformanceTests_8cpp.html" target="_top" xlink:title="This file contains performance tests for the MyBLAS::Matrix class.">
<polygon fill="white" stroke="black" points="773.5,-168.5 773.5,-209.5 949.5,-209.5 949.5,-168.5 773.5,-168.5"/>
<text text-anchor="start" x="781.5" y="-197.5" font-family="Helvetica,sans-Serif" font-size="10.00">src/utils/math/blas</text>
<text text-anchor="start" x="781.5" y="-186.5" font-family="Helvetica,sans-Serif" font-size="10.00">/tests/matrix/MatrixPerformance</text>
<text text-anchor="middle" x="861.5" y="-175.5" font-family="Helvetica,sans-Serif" font-size="10.00">Tests.cpp</text>
</a>
</g>
</g>
<!-- Node1&#45;&gt;Node32 -->
<g id="edge31" class="edge">
<title>Node1&#45;&gt;Node32</title>
<path fill="none" stroke="midnightblue" d="M673.49,-243.6C706.37,-234.23 753.71,-220.73 792.66,-209.63"/>
<polygon fill="midnightblue" stroke="midnightblue" points="672.43,-240.26 663.78,-246.37 674.35,-246.99 672.43,-240.26"/>
</g>
<!-- Node5 -->
<g id="node5" class="node">
<title>Node5</title>
<g id="a_node5"><a xlink:href="../../d4/da9/labs_2inlab10_2Parser_8h.html" target="_top" xlink:title="This file contains the Parser class which is responsible for parsing command line arguments and valid...">
<polygon fill="white" stroke="black" points="10.5,-112.5 10.5,-131.5 144.5,-131.5 144.5,-112.5 10.5,-112.5"/>
<text text-anchor="middle" x="77.5" y="-119.5" font-family="Helvetica,sans-Serif" font-size="10.00">src/labs/inlab10/Parser.h</text>
</a>
</g>
</g>
<!-- Node4&#45;&gt;Node5 -->
<g id="edge4" class="edge">
<title>Node4&#45;&gt;Node5</title>
<path fill="none" stroke="midnightblue" d="M652.22,-171.16C647.62,-169.95 642.99,-168.87 638.5,-168 427.59,-127.22 370.37,-152.16 156.5,-132 152.65,-131.64 148.7,-131.25 144.71,-130.84"/>
<polygon fill="midnightblue" stroke="midnightblue" points="651.63,-174.63 662.21,-173.98 653.53,-167.9 651.63,-174.63"/>
</g>
<!-- Node8 -->
<g id="node8" class="node">
<title>Node8</title>
<g id="a_node8"><a xlink:href="../../da/dfe/labs_2inlab11_2Parser_8h.html" target="_top" xlink:title="This file contains the Parser class which is responsible for parsing command line arguments and valid...">
<polygon fill="white" stroke="black" points="165.5,-112.5 165.5,-131.5 299.5,-131.5 299.5,-112.5 165.5,-112.5"/>
<text text-anchor="middle" x="232.5" y="-119.5" font-family="Helvetica,sans-Serif" font-size="10.00">src/labs/inlab11/Parser.h</text>
</a>
</g>
</g>
<!-- Node4&#45;&gt;Node8 -->
<g id="edge7" class="edge">
<title>Node4&#45;&gt;Node8</title>
<path fill="none" stroke="midnightblue" d="M651.79,-171.23C647.32,-170.02 642.85,-168.92 638.5,-168 636.44,-167.56 414.38,-143.05 299.59,-130.39"/>
<polygon fill="midnightblue" stroke="midnightblue" points="650.91,-174.62 661.49,-174 652.83,-167.89 650.91,-174.62"/>
</g>
<!-- Node11 -->
<g id="node11" class="node">
<title>Node11</title>
<g id="a_node11"><a xlink:href="../../db/d1a/labs_2inlab12_2Parser_8h.html" target="_top" xlink:title="This file contains the Parser class which is responsible for parsing command line arguments and valid...">
<polygon fill="white" stroke="black" points="323.5,-112.5 323.5,-131.5 457.5,-131.5 457.5,-112.5 323.5,-112.5"/>
<text text-anchor="middle" x="390.5" y="-119.5" font-family="Helvetica,sans-Serif" font-size="10.00">src/labs/inlab12/Parser.h</text>
</a>
</g>
</g>
<!-- Node4&#45;&gt;Node11 -->
<g id="edge10" class="edge">
<title>Node4&#45;&gt;Node11</title>
<path fill="none" stroke="midnightblue" d="M650.05,-171.08C646.16,-169.98 642.28,-168.94 638.5,-168 574.48,-152.1 499.86,-139.32 449.33,-131.5"/>
<polygon fill="midnightblue" stroke="midnightblue" points="649.11,-174.45 659.69,-173.91 651.08,-167.73 649.11,-174.45"/>
</g>
<!-- Node14 -->
<g id="node14" class="node">
<title>Node14</title>
<g id="a_node14"><a xlink:href="../../d7/d44/labs_2inlab8_2Parser_8h.html" target="_top" xlink:title="This file contains the Parser class which is responsible for parsing command line arguments and valid...">
<polygon fill="white" stroke="black" points="480.5,-112.5 480.5,-131.5 608.5,-131.5 608.5,-112.5 480.5,-112.5"/>
<text text-anchor="middle" x="544.5" y="-119.5" font-family="Helvetica,sans-Serif" font-size="10.00">src/labs/inlab8/Parser.h</text>
</a>
</g>
</g>
<!-- Node4&#45;&gt;Node14 -->
<g id="edge13" class="edge">
<title>Node4&#45;&gt;Node14</title>
<path fill="none" stroke="midnightblue" d="M657.92,-169.96C627.59,-157.4 588.52,-141.22 565.05,-131.51"/>
<polygon fill="midnightblue" stroke="midnightblue" points="656.86,-173.3 667.43,-173.9 659.53,-166.84 656.86,-173.3"/>
</g>
<!-- Node17 -->
<g id="node17" class="node">
<title>Node17</title>
<g id="a_node17"><a xlink:href="../../d7/d93/labs_2outlab10_2Parser_8h.html" target="_top" xlink:title="This file contains the Parser class which is responsible for parsing command line arguments and valid...">
<polygon fill="white" stroke="black" points="631,-112.5 631,-131.5 772,-131.5 772,-112.5 631,-112.5"/>
<text text-anchor="middle" x="701.5" y="-119.5" font-family="Helvetica,sans-Serif" font-size="10.00">src/labs/outlab10/Parser.h</text>
</a>
</g>
</g>
<!-- Node4&#45;&gt;Node17 -->
<g id="edge16" class="edge">
<title>Node4&#45;&gt;Node17</title>
<path fill="none" stroke="midnightblue" d="M701.5,-163.75C701.5,-152.52 701.5,-139.88 701.5,-131.69"/>
<polygon fill="midnightblue" stroke="midnightblue" points="698,-163.9 701.5,-173.9 705,-163.9 698,-163.9"/>
</g>
<!-- Node20 -->
<g id="node20" class="node">
<title>Node20</title>
<g id="a_node20"><a xlink:href="../../d8/d8a/labs_2outlab11_2Parser_8h.html" target="_top" xlink:title="This file contains the Parser class which is responsible for parsing command line arguments and valid...">
<polygon fill="white" stroke="black" points="797,-112.5 797,-131.5 938,-131.5 938,-112.5 797,-112.5"/>
<text text-anchor="middle" x="867.5" y="-119.5" font-family="Helvetica,sans-Serif" font-size="10.00">src/labs/outlab11/Parser.h</text>
</a>
</g>
</g>
<!-- Node4&#45;&gt;Node20 -->
<g id="edge19" class="edge">
<title>Node4&#45;&gt;Node20</title>
<path fill="none" stroke="midnightblue" d="M747.16,-170.12C779.29,-157.54 820.85,-141.27 845.77,-131.51"/>
<polygon fill="midnightblue" stroke="midnightblue" points="745.55,-166.99 737.52,-173.9 748.11,-173.51 745.55,-166.99"/>
</g>
<!-- Node23 -->
<g id="node23" class="node">
<title>Node23</title>
<g id="a_node23"><a xlink:href="../../d0/de5/labs_2outlab12_2Parser_8h.html" target="_top" xlink:title="This file contains the Parser class which is responsible for parsing command line arguments and valid...">
<polygon fill="white" stroke="black" points="966,-112.5 966,-131.5 1107,-131.5 1107,-112.5 966,-112.5"/>
<text text-anchor="middle" x="1036.5" y="-119.5" font-family="Helvetica,sans-Serif" font-size="10.00">src/labs/outlab12/Parser.h</text>
</a>
</g>
</g>
<!-- Node4&#45;&gt;Node23 -->
<g id="edge22" class="edge">
<title>Node4&#45;&gt;Node23</title>
<path fill="none" stroke="midnightblue" d="M752.75,-171.06C756.7,-169.96 760.66,-168.92 764.5,-168 833.15,-151.51 912.99,-139.09 968.33,-131.51"/>
<polygon fill="midnightblue" stroke="midnightblue" points="751.57,-167.76 742.95,-173.92 753.52,-174.48 751.57,-167.76"/>
</g>
<!-- Node26 -->
<g id="node26" class="node">
<title>Node26</title>
<g id="a_node26"><a xlink:href="../../d9/d9b/labs_2outlab6_2Parser_8h.html" target="_top" xlink:title="This file contains the Parser class which is responsible for parsing command line arguments and valid...">
<polygon fill="white" stroke="black" points="1136,-112.5 1136,-131.5 1271,-131.5 1271,-112.5 1136,-112.5"/>
<text text-anchor="middle" x="1203.5" y="-119.5" font-family="Helvetica,sans-Serif" font-size="10.00">src/labs/outlab6/Parser.h</text>
</a>
</g>
</g>
<!-- Node4&#45;&gt;Node26 -->
<g id="edge25" class="edge">
<title>Node4&#45;&gt;Node26</title>
<path fill="none" stroke="midnightblue" d="M751.21,-171.19C755.67,-169.99 760.15,-168.9 764.5,-168 765.06,-167.88 1013.01,-142.5 1135.97,-129.91"/>
<polygon fill="midnightblue" stroke="midnightblue" points="750.16,-167.85 741.5,-173.95 752.08,-174.58 750.16,-167.85"/>
</g>
<!-- Node29 -->
<g id="node29" class="node">
<title>Node29</title>
<g id="a_node29"><a xlink:href="../../d2/d4a/labs_2outlab7_2Parser_8h.html" target="_top" xlink:title="This file contains the Parser class which is responsible for parsing command line arguments and valid...">
<polygon fill="white" stroke="black" points="1298,-112.5 1298,-131.5 1433,-131.5 1433,-112.5 1298,-112.5"/>
<text text-anchor="middle" x="1365.5" y="-119.5" font-family="Helvetica,sans-Serif" font-size="10.00">src/labs/outlab7/Parser.h</text>
</a>
</g>
</g>
<!-- Node4&#45;&gt;Node29 -->
<g id="edge28" class="edge">
<title>Node4&#45;&gt;Node29</title>
<path fill="none" stroke="midnightblue" d="M750.77,-171.14C755.38,-169.93 760,-168.86 764.5,-168 989.88,-124.98 1050.92,-151.94 1279.5,-132 1285.48,-131.48 1291.69,-130.9 1297.92,-130.29"/>
<polygon fill="midnightblue" stroke="midnightblue" points="749.46,-167.87 740.79,-173.95 751.36,-174.61 749.46,-167.87"/>
</g>
<!-- Node6 -->
<g id="node6" class="node">
<title>Node6</title>
<g id="a_node6"><a xlink:href="../../d9/dc1/inlab10_8h.html" target="_top" xlink:title=" ">
<polygon fill="white" stroke="black" points="0,-56.5 0,-75.5 141,-75.5 141,-56.5 0,-56.5"/>
<text text-anchor="middle" x="70.5" y="-63.5" font-family="Helvetica,sans-Serif" font-size="10.00">src/labs/inlab10/inlab10.h</text>
</a>
</g>
</g>
<!-- Node5&#45;&gt;Node6 -->
<g id="edge5" class="edge">
<title>Node5&#45;&gt;Node6</title>
<path fill="none" stroke="midnightblue" d="M75.05,-102.1C73.89,-93.14 72.56,-82.86 71.63,-75.75"/>
<polygon fill="midnightblue" stroke="midnightblue" points="71.59,-102.62 76.34,-112.08 78.53,-101.72 71.59,-102.62"/>
</g>
<!-- Node7 -->
<g id="node7" class="node">
<title>Node7</title>
<g id="a_node7"><a xlink:href="../../dd/d41/labs_2inlab10_2main_8cpp.html" target="_top" xlink:title=" ">
<polygon fill="white" stroke="black" points="0,-0.5 0,-19.5 141,-19.5 141,-0.5 0,-0.5"/>
<text text-anchor="middle" x="70.5" y="-7.5" font-family="Helvetica,sans-Serif" font-size="10.00">src/labs/inlab10/main.cpp</text>
</a>
</g>
</g>
<!-- Node6&#45;&gt;Node7 -->
<g id="edge6" class="edge">
<title>Node6&#45;&gt;Node7</title>
<path fill="none" stroke="midnightblue" d="M70.5,-45.8C70.5,-36.91 70.5,-26.78 70.5,-19.75"/>
<polygon fill="midnightblue" stroke="midnightblue" points="67,-46.08 70.5,-56.08 74,-46.08 67,-46.08"/>
</g>
<!-- Node9 -->
<g id="node9" class="node">
<title>Node9</title>
<g id="a_node9"><a xlink:href="../../db/d2d/inlab11_8h.html" target="_top" xlink:title=" ">
<polygon fill="white" stroke="black" points="159,-56.5 159,-75.5 300,-75.5 300,-56.5 159,-56.5"/>
<text text-anchor="middle" x="229.5" y="-63.5" font-family="Helvetica,sans-Serif" font-size="10.00">src/labs/inlab11/inlab11.h</text>
</a>
</g>
</g>
<!-- Node8&#45;&gt;Node9 -->
<g id="edge8" class="edge">
<title>Node8&#45;&gt;Node9</title>
<path fill="none" stroke="midnightblue" d="M231.43,-101.8C230.94,-92.91 230.38,-82.78 229.99,-75.75"/>
<polygon fill="midnightblue" stroke="midnightblue" points="227.96,-102.29 232,-112.08 234.94,-101.9 227.96,-102.29"/>
</g>
<!-- Node10 -->
<g id="node10" class="node">
<title>Node10</title>
<g id="a_node10"><a xlink:href="../../dc/d8f/labs_2inlab11_2main_8cpp.html" target="_top" xlink:title=" ">
<polygon fill="white" stroke="black" points="159,-0.5 159,-19.5 300,-19.5 300,-0.5 159,-0.5"/>
<text text-anchor="middle" x="229.5" y="-7.5" font-family="Helvetica,sans-Serif" font-size="10.00">src/labs/inlab11/main.cpp</text>
</a>
</g>
</g>
<!-- Node9&#45;&gt;Node10 -->
<g id="edge9" class="edge">
<title>Node9&#45;&gt;Node10</title>
<path fill="none" stroke="midnightblue" d="M229.5,-45.8C229.5,-36.91 229.5,-26.78 229.5,-19.75"/>
<polygon fill="midnightblue" stroke="midnightblue" points="226,-46.08 229.5,-56.08 233,-46.08 226,-46.08"/>
</g>
<!-- Node12 -->
<g id="node12" class="node">
<title>Node12</title>
<g id="a_node12"><a xlink:href="../../d2/de9/inlab12_8h.html" target="_top" xlink:title=" ">
<polygon fill="white" stroke="black" points="318,-56.5 318,-75.5 459,-75.5 459,-56.5 318,-56.5"/>
<text text-anchor="middle" x="388.5" y="-63.5" font-family="Helvetica,sans-Serif" font-size="10.00">src/labs/inlab12/inlab12.h</text>
</a>
</g>
</g>
<!-- Node11&#45;&gt;Node12 -->
<g id="edge11" class="edge">
<title>Node11&#45;&gt;Node12</title>
<path fill="none" stroke="midnightblue" d="M389.79,-101.8C389.46,-92.91 389.08,-82.78 388.82,-75.75"/>
<polygon fill="midnightblue" stroke="midnightblue" points="386.3,-102.22 390.17,-112.08 393.3,-101.96 386.3,-102.22"/>
</g>
<!-- Node13 -->
<g id="node13" class="node">
<title>Node13</title>
<g id="a_node13"><a xlink:href="../../db/d97/labs_2inlab12_2main_8cpp.html" target="_top" xlink:title=" ">
<polygon fill="white" stroke="black" points="318,-0.5 318,-19.5 459,-19.5 459,-0.5 318,-0.5"/>
<text text-anchor="middle" x="388.5" y="-7.5" font-family="Helvetica,sans-Serif" font-size="10.00">src/labs/inlab12/main.cpp</text>
</a>
</g>
</g>
<!-- Node12&#45;&gt;Node13 -->
<g id="edge12" class="edge">
<title>Node12&#45;&gt;Node13</title>
<path fill="none" stroke="midnightblue" d="M388.5,-45.8C388.5,-36.91 388.5,-26.78 388.5,-19.75"/>
<polygon fill="midnightblue" stroke="midnightblue" points="385,-46.08 388.5,-56.08 392,-46.08 385,-46.08"/>
</g>
<!-- Node15 -->
<g id="node15" class="node">
<title>Node15</title>
<g id="a_node15"><a xlink:href="../../de/d06/inlab8_8h.html" target="_top" xlink:title=" ">
<polygon fill="white" stroke="black" points="477,-56.5 477,-75.5 606,-75.5 606,-56.5 477,-56.5"/>
<text text-anchor="middle" x="541.5" y="-63.5" font-family="Helvetica,sans-Serif" font-size="10.00">src/labs/inlab8/inlab8.h</text>
</a>
</g>
</g>
<!-- Node14&#45;&gt;Node15 -->
<g id="edge14" class="edge">
<title>Node14&#45;&gt;Node15</title>
<path fill="none" stroke="midnightblue" d="M543.43,-101.8C542.94,-92.91 542.38,-82.78 541.99,-75.75"/>
<polygon fill="midnightblue" stroke="midnightblue" points="539.96,-102.29 544,-112.08 546.94,-101.9 539.96,-102.29"/>
</g>
<!-- Node16 -->
<g id="node16" class="node">
<title>Node16</title>
<g id="a_node16"><a xlink:href="../../df/de9/labs_2inlab8_2main_8cpp.html" target="_top" xlink:title=" ">
<polygon fill="white" stroke="black" points="477,-0.5 477,-19.5 612,-19.5 612,-0.5 477,-0.5"/>
<text text-anchor="middle" x="544.5" y="-7.5" font-family="Helvetica,sans-Serif" font-size="10.00">src/labs/inlab8/main.cpp</text>
</a>
</g>
</g>
<!-- Node15&#45;&gt;Node16 -->
<g id="edge15" class="edge">
<title>Node15&#45;&gt;Node16</title>
<path fill="none" stroke="midnightblue" d="M542.57,-45.8C543.06,-36.91 543.62,-26.78 544.01,-19.75"/>
<polygon fill="midnightblue" stroke="midnightblue" points="539.06,-45.9 542,-56.08 546.04,-46.29 539.06,-45.9"/>
</g>
<!-- Node18 -->
<g id="node18" class="node">
<title>Node18</title>
<g id="a_node18"><a xlink:href="../../df/dcd/outlab10_8h.html" target="_top" xlink:title=" ">
<polygon fill="white" stroke="black" points="624,-56.5 624,-75.5 779,-75.5 779,-56.5 624,-56.5"/>
<text text-anchor="middle" x="701.5" y="-63.5" font-family="Helvetica,sans-Serif" font-size="10.00">src/labs/outlab10/outlab10.h</text>
</a>
</g>
</g>
<!-- Node17&#45;&gt;Node18 -->
<g id="edge17" class="edge">
<title>Node17&#45;&gt;Node18</title>
<path fill="none" stroke="midnightblue" d="M701.5,-101.8C701.5,-92.91 701.5,-82.78 701.5,-75.75"/>
<polygon fill="midnightblue" stroke="midnightblue" points="698,-102.08 701.5,-112.08 705,-102.08 698,-102.08"/>
</g>
<!-- Node19 -->
<g id="node19" class="node">
<title>Node19</title>
<g id="a_node19"><a xlink:href="../../dc/d8a/labs_2outlab10_2main_8cpp.html" target="_top" xlink:title=" ">
<polygon fill="white" stroke="black" points="630.5,-0.5 630.5,-19.5 778.5,-19.5 778.5,-0.5 630.5,-0.5"/>
<text text-anchor="middle" x="704.5" y="-7.5" font-family="Helvetica,sans-Serif" font-size="10.00">src/labs/outlab10/main.cpp</text>
</a>
</g>
</g>
<!-- Node18&#45;&gt;Node19 -->
<g id="edge18" class="edge">
<title>Node18&#45;&gt;Node19</title>
<path fill="none" stroke="midnightblue" d="M702.57,-45.8C703.06,-36.91 703.62,-26.78 704.01,-19.75"/>
<polygon fill="midnightblue" stroke="midnightblue" points="699.06,-45.9 702,-56.08 706.04,-46.29 699.06,-45.9"/>
</g>
<!-- Node21 -->
<g id="node21" class="node">
<title>Node21</title>
<g id="a_node21"><a xlink:href="../../d3/dbf/outlab11_8h.html" target="_top" xlink:title=" ">
<polygon fill="white" stroke="black" points="797,-56.5 797,-75.5 952,-75.5 952,-56.5 797,-56.5"/>
<text text-anchor="middle" x="874.5" y="-63.5" font-family="Helvetica,sans-Serif" font-size="10.00">src/labs/outlab11/outlab11.h</text>
</a>
</g>
</g>
<!-- Node20&#45;&gt;Node21 -->
<g id="edge20" class="edge">
<title>Node20&#45;&gt;Node21</title>
<path fill="none" stroke="midnightblue" d="M869.95,-102.1C871.11,-93.14 872.44,-82.86 873.37,-75.75"/>
<polygon fill="midnightblue" stroke="midnightblue" points="866.47,-101.72 868.66,-112.08 873.41,-102.62 866.47,-101.72"/>
</g>
<!-- Node22 -->
<g id="node22" class="node">
<title>Node22</title>
<g id="a_node22"><a xlink:href="../../d2/d48/labs_2outlab11_2main_8cpp.html" target="_top" xlink:title=" ">
<polygon fill="white" stroke="black" points="800.5,-0.5 800.5,-19.5 948.5,-19.5 948.5,-0.5 800.5,-0.5"/>
<text text-anchor="middle" x="874.5" y="-7.5" font-family="Helvetica,sans-Serif" font-size="10.00">src/labs/outlab11/main.cpp</text>
</a>
</g>
</g>
<!-- Node21&#45;&gt;Node22 -->
<g id="edge21" class="edge">
<title>Node21&#45;&gt;Node22</title>
<path fill="none" stroke="midnightblue" d="M874.5,-45.8C874.5,-36.91 874.5,-26.78 874.5,-19.75"/>
<polygon fill="midnightblue" stroke="midnightblue" points="871,-46.08 874.5,-56.08 878,-46.08 871,-46.08"/>
</g>
<!-- Node24 -->
<g id="node24" class="node">
<title>Node24</title>
<g id="a_node24"><a xlink:href="../../d6/dc3/outlab12_8h.html" target="_top" xlink:title=" ">
<polygon fill="white" stroke="black" points="970,-56.5 970,-75.5 1125,-75.5 1125,-56.5 970,-56.5"/>
<text text-anchor="middle" x="1047.5" y="-63.5" font-family="Helvetica,sans-Serif" font-size="10.00">src/labs/outlab12/outlab12.h</text>
</a>
</g>
</g>
<!-- Node23&#45;&gt;Node24 -->
<g id="edge23" class="edge">
<title>Node23&#45;&gt;Node24</title>
<path fill="none" stroke="midnightblue" d="M1040.35,-102.1C1042.18,-93.14 1044.27,-82.86 1045.72,-75.75"/>
<polygon fill="midnightblue" stroke="midnightblue" points="1036.88,-101.59 1038.32,-112.08 1043.74,-102.98 1036.88,-101.59"/>
</g>
<!-- Node25 -->
<g id="node25" class="node">
<title>Node25</title>
<g id="a_node25"><a xlink:href="../../df/d73/labs_2outlab12_2main_8cpp.html" target="_top" xlink:title=" ">
<polygon fill="white" stroke="black" points="973.5,-0.5 973.5,-19.5 1121.5,-19.5 1121.5,-0.5 973.5,-0.5"/>
<text text-anchor="middle" x="1047.5" y="-7.5" font-family="Helvetica,sans-Serif" font-size="10.00">src/labs/outlab12/main.cpp</text>
</a>
</g>
</g>
<!-- Node24&#45;&gt;Node25 -->
<g id="edge24" class="edge">
<title>Node24&#45;&gt;Node25</title>
<path fill="none" stroke="midnightblue" d="M1047.5,-45.8C1047.5,-36.91 1047.5,-26.78 1047.5,-19.75"/>
<polygon fill="midnightblue" stroke="midnightblue" points="1044,-46.08 1047.5,-56.08 1051,-46.08 1044,-46.08"/>
</g>
<!-- Node27 -->
<g id="node27" class="node">
<title>Node27</title>
<g id="a_node27"><a xlink:href="../../df/df9/outlab6_8h.html" target="_top" xlink:title=" ">
<polygon fill="white" stroke="black" points="1143,-56.5 1143,-75.5 1286,-75.5 1286,-56.5 1143,-56.5"/>
<text text-anchor="middle" x="1214.5" y="-63.5" font-family="Helvetica,sans-Serif" font-size="10.00">src/labs/outlab6/outlab6.h</text>
</a>
</g>
</g>
<!-- Node26&#45;&gt;Node27 -->
<g id="edge26" class="edge">
<title>Node26&#45;&gt;Node27</title>
<path fill="none" stroke="midnightblue" d="M1207.35,-102.1C1209.18,-93.14 1211.27,-82.86 1212.72,-75.75"/>
<polygon fill="midnightblue" stroke="midnightblue" points="1203.88,-101.59 1205.32,-112.08 1210.74,-102.98 1203.88,-101.59"/>
</g>
<!-- Node28 -->
<g id="node28" class="node">
<title>Node28</title>
<g id="a_node28"><a xlink:href="../../d4/d5d/labs_2outlab6_2main_8cpp.html" target="_top" xlink:title=" ">
<polygon fill="white" stroke="black" points="1143.5,-0.5 1143.5,-19.5 1285.5,-19.5 1285.5,-0.5 1143.5,-0.5"/>
<text text-anchor="middle" x="1214.5" y="-7.5" font-family="Helvetica,sans-Serif" font-size="10.00">src/labs/outlab6/main.cpp</text>
</a>
</g>
</g>
<!-- Node27&#45;&gt;Node28 -->
<g id="edge27" class="edge">
<title>Node27&#45;&gt;Node28</title>
<path fill="none" stroke="midnightblue" d="M1214.5,-45.8C1214.5,-36.91 1214.5,-26.78 1214.5,-19.75"/>
<polygon fill="midnightblue" stroke="midnightblue" points="1211,-46.08 1214.5,-56.08 1218,-46.08 1211,-46.08"/>
</g>
<!-- Node30 -->
<g id="node30" class="node">
<title>Node30</title>
<g id="a_node30"><a xlink:href="../../d8/d5d/outlab7_8h.html" target="_top" xlink:title=" ">
<polygon fill="white" stroke="black" points="1304,-56.5 1304,-75.5 1447,-75.5 1447,-56.5 1304,-56.5"/>
<text text-anchor="middle" x="1375.5" y="-63.5" font-family="Helvetica,sans-Serif" font-size="10.00">src/labs/outlab7/outlab7.h</text>
</a>
</g>
</g>
<!-- Node29&#45;&gt;Node30 -->
<g id="edge29" class="edge">
<title>Node29&#45;&gt;Node30</title>
<path fill="none" stroke="midnightblue" d="M1369,-102.1C1370.66,-93.14 1372.56,-82.86 1373.88,-75.75"/>
<polygon fill="midnightblue" stroke="midnightblue" points="1365.53,-101.61 1367.15,-112.08 1372.41,-102.89 1365.53,-101.61"/>
</g>
<!-- Node31 -->
<g id="node31" class="node">
<title>Node31</title>
<g id="a_node31"><a xlink:href="../../d5/d52/labs_2outlab7_2main_8cpp.html" target="_top" xlink:title=" ">
<polygon fill="white" stroke="black" points="1304.5,-0.5 1304.5,-19.5 1446.5,-19.5 1446.5,-0.5 1304.5,-0.5"/>
<text text-anchor="middle" x="1375.5" y="-7.5" font-family="Helvetica,sans-Serif" font-size="10.00">src/labs/outlab7/main.cpp</text>
</a>
</g>
</g>
<!-- Node30&#45;&gt;Node31 -->
<g id="edge30" class="edge">
<title>Node30&#45;&gt;Node31</title>
<path fill="none" stroke="midnightblue" d="M1375.5,-45.8C1375.5,-36.91 1375.5,-26.78 1375.5,-19.75"/>
<polygon fill="midnightblue" stroke="midnightblue" points="1372,-46.08 1375.5,-56.08 1379,-46.08 1372,-46.08"/>
</g>
</g>
</svg>
