<?xml version="1.0" encoding="UTF-8" standalone="no"?>
<!DOCTYPE svg PUBLIC "-//W3C//DTD SVG 1.1//EN"
 "http://www.w3.org/Graphics/SVG/1.1/DTD/svg11.dtd">
<!-- Generated by graphviz version 2.43.0 (0)
 -->
<!-- Title: src/utils/math/Random.h Pages: 1 -->
<svg width="1282pt" height="274pt"
 viewBox="0.00 0.00 1282.00 274.00" xmlns="http://www.w3.org/2000/svg" xmlns:xlink="http://www.w3.org/1999/xlink">
<g id="graph0" class="graph" transform="scale(1 1) rotate(0) translate(4 270)">
<title>src/utils/math/Random.h</title>
<polygon fill="white" stroke="transparent" points="-4,4 -4,-270 1278,-270 1278,4 -4,4"/>
<!-- Node1 -->
<g id="node1" class="node">
<title>Node1</title>
<g id="a_node1"><a xlink:title="This file contains the Random namespace which provides functions for generating random vectors and ma...">
<polygon fill="#bfbfbf" stroke="black" points="485.5,-246.5 485.5,-265.5 621.5,-265.5 621.5,-246.5 485.5,-246.5"/>
<text text-anchor="middle" x="553.5" y="-253.5" font-family="Helvetica,sans-Serif" font-size="10.00">src/utils/math/Random.h</text>
</a>
</g>
</g>
<!-- Node2 -->
<g id="node2" class="node">
<title>Node2</title>
<g id="a_node2"><a xlink:href="../../de/d20/InLab10Tests_8cpp.html" target="_top" xlink:title=" ">
<polygon fill="white" stroke="black" points="284.5,-174 284.5,-204 404.5,-204 404.5,-174 284.5,-174"/>
<text text-anchor="start" x="292.5" y="-192" font-family="Helvetica,sans-Serif" font-size="10.00">src/labs/inlab10/tests</text>
<text text-anchor="middle" x="344.5" y="-181" font-family="Helvetica,sans-Serif" font-size="10.00">/InLab10Tests.cpp</text>
</a>
</g>
</g>
<!-- Node1&#45;&gt;Node2 -->
<g id="edge1" class="edge">
<title>Node1&#45;&gt;Node2</title>
<path fill="none" stroke="midnightblue" d="M515.8,-243.27C480.36,-232.25 427.28,-215.74 389.61,-204.03"/>
<polygon fill="midnightblue" stroke="midnightblue" points="515.16,-246.74 525.75,-246.37 517.24,-240.06 515.16,-246.74"/>
</g>
<!-- Node3 -->
<g id="node3" class="node">
<title>Node3</title>
<g id="a_node3"><a xlink:href="../../df/dfd/OutLab10Tests_8cpp.html" target="_top" xlink:title=" ">
<polygon fill="white" stroke="black" points="423,-174 423,-204 550,-204 550,-174 423,-174"/>
<text text-anchor="start" x="431" y="-192" font-family="Helvetica,sans-Serif" font-size="10.00">src/labs/outlab10/tests</text>
<text text-anchor="middle" x="486.5" y="-181" font-family="Helvetica,sans-Serif" font-size="10.00">/OutLab10Tests.cpp</text>
</a>
</g>
</g>
<!-- Node1&#45;&gt;Node3 -->
<g id="edge2" class="edge">
<title>Node1&#45;&gt;Node3</title>
<path fill="none" stroke="midnightblue" d="M537.13,-239.12C526.09,-228.41 511.65,-214.4 501.02,-204.09"/>
<polygon fill="midnightblue" stroke="midnightblue" points="534.85,-241.78 544.46,-246.23 539.72,-236.76 534.85,-241.78"/>
</g>
<!-- Node4 -->
<g id="node4" class="node">
<title>Node4</title>
<g id="a_node4"><a xlink:href="../../d3/dde/Circuit_8h.html" target="_top" xlink:title="Header file for the Circuit function, which generates a coefficient matrix A, and vectors x,...">
<polygon fill="white" stroke="black" points="568,-174 568,-204 675,-204 675,-174 568,-174"/>
<text text-anchor="start" x="576" y="-192" font-family="Helvetica,sans-Serif" font-size="10.00">src/utils/math/blas</text>
<text text-anchor="middle" x="621.5" y="-181" font-family="Helvetica,sans-Serif" font-size="10.00">/system/Circuit.h</text>
</a>
</g>
</g>
<!-- Node1&#45;&gt;Node4 -->
<g id="edge3" class="edge">
<title>Node1&#45;&gt;Node4</title>
<path fill="none" stroke="midnightblue" d="M570.12,-239.12C581.32,-228.41 595.97,-214.4 606.76,-204.09"/>
<polygon fill="midnightblue" stroke="midnightblue" points="567.48,-236.79 562.67,-246.23 572.32,-241.85 567.48,-236.79"/>
</g>
<!-- Node29 -->
<g id="node29" class="node">
<title>Node29</title>
<g id="a_node29"><a xlink:href="../../dd/db9/MatrixPerformanceTests_8cpp.html" target="_top" xlink:title="This file contains performance tests for the MyBLAS::Matrix class.">
<polygon fill="white" stroke="black" points="693.5,-168.5 693.5,-209.5 869.5,-209.5 869.5,-168.5 693.5,-168.5"/>
<text text-anchor="start" x="701.5" y="-197.5" font-family="Helvetica,sans-Serif" font-size="10.00">src/utils/math/blas</text>
<text text-anchor="start" x="701.5" y="-186.5" font-family="Helvetica,sans-Serif" font-size="10.00">/tests/matrix/MatrixPerformance</text>
<text text-anchor="middle" x="781.5" y="-175.5" font-family="Helvetica,sans-Serif" font-size="10.00">Tests.cpp</text>
</a>
</g>
</g>
<!-- Node1&#45;&gt;Node29 -->
<g id="edge28" class="edge">
<title>Node1&#45;&gt;Node29</title>
<path fill="none" stroke="midnightblue" d="M593.49,-243.6C626.37,-234.23 673.71,-220.73 712.66,-209.63"/>
<polygon fill="midnightblue" stroke="midnightblue" points="592.43,-240.26 583.78,-246.37 594.35,-246.99 592.43,-240.26"/>
</g>
<!-- Node5 -->
<g id="node5" class="node">
<title>Node5</title>
<g id="a_node5"><a xlink:href="../../d4/da9/labs_2inlab10_2Parser_8h.html" target="_top" xlink:title="This file contains the Parser class which is responsible for parsing command line arguments and valid...">
<polygon fill="white" stroke="black" points="10.5,-112.5 10.5,-131.5 144.5,-131.5 144.5,-112.5 10.5,-112.5"/>
<text text-anchor="middle" x="77.5" y="-119.5" font-family="Helvetica,sans-Serif" font-size="10.00">src/labs/inlab10/Parser.h</text>
</a>
</g>
</g>
<!-- Node4&#45;&gt;Node5 -->
<g id="edge4" class="edge">
<title>Node4&#45;&gt;Node5</title>
<path fill="none" stroke="midnightblue" d="M572.01,-171.18C567.47,-169.98 562.92,-168.89 558.5,-168 382.64,-132.65 334.96,-150.15 156.5,-132 152.65,-131.61 148.71,-131.2 144.72,-130.77"/>
<polygon fill="midnightblue" stroke="midnightblue" points="571.28,-174.61 581.85,-173.97 573.19,-167.88 571.28,-174.61"/>
</g>
<!-- Node8 -->
<g id="node8" class="node">
<title>Node8</title>
<g id="a_node8"><a xlink:href="../../da/dfe/labs_2inlab11_2Parser_8h.html" target="_top" xlink:title="This file contains the Parser class which is responsible for parsing command line arguments and valid...">
<polygon fill="white" stroke="black" points="165.5,-112.5 165.5,-131.5 299.5,-131.5 299.5,-112.5 165.5,-112.5"/>
<text text-anchor="middle" x="232.5" y="-119.5" font-family="Helvetica,sans-Serif" font-size="10.00">src/labs/inlab11/Parser.h</text>
</a>
</g>
</g>
<!-- Node4&#45;&gt;Node8 -->
<g id="edge7" class="edge">
<title>Node4&#45;&gt;Node8</title>
<path fill="none" stroke="midnightblue" d="M571.01,-171.15C566.8,-169.99 562.59,-168.92 558.5,-168 510.64,-157.18 380.27,-140.63 299.64,-130.9"/>
<polygon fill="midnightblue" stroke="midnightblue" points="570.19,-174.55 580.77,-173.96 572.13,-167.83 570.19,-174.55"/>
</g>
<!-- Node11 -->
<g id="node11" class="node">
<title>Node11</title>
<g id="a_node11"><a xlink:href="../../db/d1a/labs_2inlab12_2Parser_8h.html" target="_top" xlink:title="This file contains the Parser class which is responsible for parsing command line arguments and valid...">
<polygon fill="white" stroke="black" points="323.5,-112.5 323.5,-131.5 457.5,-131.5 457.5,-112.5 323.5,-112.5"/>
<text text-anchor="middle" x="390.5" y="-119.5" font-family="Helvetica,sans-Serif" font-size="10.00">src/labs/inlab12/Parser.h</text>
</a>
</g>
</g>
<!-- Node4&#45;&gt;Node11 -->
<g id="edge10" class="edge">
<title>Node4&#45;&gt;Node11</title>
<path fill="none" stroke="midnightblue" d="M568.59,-171.01C565.18,-169.97 561.79,-168.96 558.5,-168 512.13,-154.44 458.1,-140.25 424.09,-131.52"/>
<polygon fill="midnightblue" stroke="midnightblue" points="567.61,-174.37 578.2,-173.97 569.67,-167.68 567.61,-174.37"/>
</g>
<!-- Node14 -->
<g id="node14" class="node">
<title>Node14</title>
<g id="a_node14"><a xlink:href="../../d7/d44/labs_2inlab8_2Parser_8h.html" target="_top" xlink:title="This file contains the Parser class which is responsible for parsing command line arguments and valid...">
<polygon fill="white" stroke="black" points="479.5,-112.5 479.5,-131.5 607.5,-131.5 607.5,-112.5 479.5,-112.5"/>
<text text-anchor="middle" x="543.5" y="-119.5" font-family="Helvetica,sans-Serif" font-size="10.00">src/labs/inlab8/Parser.h</text>
</a>
</g>
</g>
<!-- Node4&#45;&gt;Node14 -->
<g id="edge13" class="edge">
<title>Node4&#45;&gt;Node14</title>
<path fill="none" stroke="midnightblue" d="M596.51,-167.17C582.1,-155.17 564.76,-140.72 553.93,-131.69"/>
<polygon fill="midnightblue" stroke="midnightblue" points="594.65,-170.18 604.58,-173.9 599.13,-164.81 594.65,-170.18"/>
</g>
<!-- Node17 -->
<g id="node17" class="node">
<title>Node17</title>
<g id="a_node17"><a xlink:href="../../d7/d93/labs_2outlab10_2Parser_8h.html" target="_top" xlink:title="This file contains the Parser class which is responsible for parsing command line arguments and valid...">
<polygon fill="white" stroke="black" points="629,-112.5 629,-131.5 770,-131.5 770,-112.5 629,-112.5"/>
<text text-anchor="middle" x="699.5" y="-119.5" font-family="Helvetica,sans-Serif" font-size="10.00">src/labs/outlab10/Parser.h</text>
</a>
</g>
</g>
<!-- Node4&#45;&gt;Node17 -->
<g id="edge16" class="edge">
<title>Node4&#45;&gt;Node17</title>
<path fill="none" stroke="midnightblue" d="M646.49,-167.17C660.9,-155.17 678.24,-140.72 689.07,-131.69"/>
<polygon fill="midnightblue" stroke="midnightblue" points="643.87,-164.81 638.42,-173.9 648.35,-170.18 643.87,-164.81"/>
</g>
<!-- Node20 -->
<g id="node20" class="node">
<title>Node20</title>
<g id="a_node20"><a xlink:href="../../d8/d8a/labs_2outlab11_2Parser_8h.html" target="_top" xlink:title="This file contains the Parser class which is responsible for parsing command line arguments and valid...">
<polygon fill="white" stroke="black" points="797,-112.5 797,-131.5 938,-131.5 938,-112.5 797,-112.5"/>
<text text-anchor="middle" x="867.5" y="-119.5" font-family="Helvetica,sans-Serif" font-size="10.00">src/labs/outlab11/Parser.h</text>
</a>
</g>
</g>
<!-- Node4&#45;&gt;Node20 -->
<g id="edge19" class="edge">
<title>Node4&#45;&gt;Node20</title>
<path fill="none" stroke="midnightblue" d="M674.21,-170.98C677.69,-169.95 681.14,-168.95 684.5,-168 734.26,-154 792.31,-140.14 829.46,-131.58"/>
<polygon fill="midnightblue" stroke="midnightblue" points="672.98,-167.7 664.43,-173.95 675.01,-174.4 672.98,-167.7"/>
</g>
<!-- Node23 -->
<g id="node23" class="node">
<title>Node23</title>
<g id="a_node23"><a xlink:href="../../d9/d9b/labs_2outlab6_2Parser_8h.html" target="_top" xlink:title="This file contains the Parser class which is responsible for parsing command line arguments and valid...">
<polygon fill="white" stroke="black" points="966,-112.5 966,-131.5 1101,-131.5 1101,-112.5 966,-112.5"/>
<text text-anchor="middle" x="1033.5" y="-119.5" font-family="Helvetica,sans-Serif" font-size="10.00">src/labs/outlab6/Parser.h</text>
</a>
</g>
</g>
<!-- Node4&#45;&gt;Node23 -->
<g id="edge22" class="edge">
<title>Node4&#45;&gt;Node23</title>
<path fill="none" stroke="midnightblue" d="M671.98,-171.11C676.19,-169.96 680.4,-168.91 684.5,-168 736.54,-156.48 879.79,-139.76 965.73,-130.28"/>
<polygon fill="midnightblue" stroke="midnightblue" points="670.86,-167.79 662.22,-173.91 672.79,-174.51 670.86,-167.79"/>
</g>
<!-- Node26 -->
<g id="node26" class="node">
<title>Node26</title>
<g id="a_node26"><a xlink:href="../../d2/d4a/labs_2outlab7_2Parser_8h.html" target="_top" xlink:title="This file contains the Parser class which is responsible for parsing command line arguments and valid...">
<polygon fill="white" stroke="black" points="1128,-112.5 1128,-131.5 1263,-131.5 1263,-112.5 1128,-112.5"/>
<text text-anchor="middle" x="1195.5" y="-119.5" font-family="Helvetica,sans-Serif" font-size="10.00">src/labs/outlab7/Parser.h</text>
</a>
</g>
</g>
<!-- Node4&#45;&gt;Node26 -->
<g id="edge25" class="edge">
<title>Node4&#45;&gt;Node26</title>
<path fill="none" stroke="midnightblue" d="M670.99,-171.16C675.52,-169.96 680.08,-168.88 684.5,-168 870.44,-131.09 920.78,-149.87 1109.5,-132 1115.48,-131.43 1121.69,-130.83 1127.91,-130.2"/>
<polygon fill="midnightblue" stroke="midnightblue" points="669.81,-167.85 661.14,-173.94 671.72,-174.59 669.81,-167.85"/>
</g>
<!-- Node6 -->
<g id="node6" class="node">
<title>Node6</title>
<g id="a_node6"><a xlink:href="../../d9/dc1/inlab10_8h.html" target="_top" xlink:title=" ">
<polygon fill="white" stroke="black" points="0,-56.5 0,-75.5 141,-75.5 141,-56.5 0,-56.5"/>
<text text-anchor="middle" x="70.5" y="-63.5" font-family="Helvetica,sans-Serif" font-size="10.00">src/labs/inlab10/inlab10.h</text>
</a>
</g>
</g>
<!-- Node5&#45;&gt;Node6 -->
<g id="edge5" class="edge">
<title>Node5&#45;&gt;Node6</title>
<path fill="none" stroke="midnightblue" d="M75.05,-102.1C73.89,-93.14 72.56,-82.86 71.63,-75.75"/>
<polygon fill="midnightblue" stroke="midnightblue" points="71.59,-102.62 76.34,-112.08 78.53,-101.72 71.59,-102.62"/>
</g>
<!-- Node7 -->
<g id="node7" class="node">
<title>Node7</title>
<g id="a_node7"><a xlink:href="../../dd/d41/labs_2inlab10_2main_8cpp.html" target="_top" xlink:title=" ">
<polygon fill="white" stroke="black" points="0,-0.5 0,-19.5 141,-19.5 141,-0.5 0,-0.5"/>
<text text-anchor="middle" x="70.5" y="-7.5" font-family="Helvetica,sans-Serif" font-size="10.00">src/labs/inlab10/main.cpp</text>
</a>
</g>
</g>
<!-- Node6&#45;&gt;Node7 -->
<g id="edge6" class="edge">
<title>Node6&#45;&gt;Node7</title>
<path fill="none" stroke="midnightblue" d="M70.5,-45.8C70.5,-36.91 70.5,-26.78 70.5,-19.75"/>
<polygon fill="midnightblue" stroke="midnightblue" points="67,-46.08 70.5,-56.08 74,-46.08 67,-46.08"/>
</g>
<!-- Node9 -->
<g id="node9" class="node">
<title>Node9</title>
<g id="a_node9"><a xlink:href="../../db/d2d/inlab11_8h.html" target="_top" xlink:title=" ">
<polygon fill="white" stroke="black" points="159,-56.5 159,-75.5 300,-75.5 300,-56.5 159,-56.5"/>
<text text-anchor="middle" x="229.5" y="-63.5" font-family="Helvetica,sans-Serif" font-size="10.00">src/labs/inlab11/inlab11.h</text>
</a>
</g>
</g>
<!-- Node8&#45;&gt;Node9 -->
<g id="edge8" class="edge">
<title>Node8&#45;&gt;Node9</title>
<path fill="none" stroke="midnightblue" d="M231.43,-101.8C230.94,-92.91 230.38,-82.78 229.99,-75.75"/>
<polygon fill="midnightblue" stroke="midnightblue" points="227.96,-102.29 232,-112.08 234.94,-101.9 227.96,-102.29"/>
</g>
<!-- Node10 -->
<g id="node10" class="node">
<title>Node10</title>
<g id="a_node10"><a xlink:href="../../dc/d8f/labs_2inlab11_2main_8cpp.html" target="_top" xlink:title=" ">
<polygon fill="white" stroke="black" points="159,-0.5 159,-19.5 300,-19.5 300,-0.5 159,-0.5"/>
<text text-anchor="middle" x="229.5" y="-7.5" font-family="Helvetica,sans-Serif" font-size="10.00">src/labs/inlab11/main.cpp</text>
</a>
</g>
</g>
<!-- Node9&#45;&gt;Node10 -->
<g id="edge9" class="edge">
<title>Node9&#45;&gt;Node10</title>
<path fill="none" stroke="midnightblue" d="M229.5,-45.8C229.5,-36.91 229.5,-26.78 229.5,-19.75"/>
<polygon fill="midnightblue" stroke="midnightblue" points="226,-46.08 229.5,-56.08 233,-46.08 226,-46.08"/>
</g>
<!-- Node12 -->
<g id="node12" class="node">
<title>Node12</title>
<g id="a_node12"><a xlink:href="../../d2/de9/inlab12_8h.html" target="_top" xlink:title=" ">
<polygon fill="white" stroke="black" points="318,-56.5 318,-75.5 459,-75.5 459,-56.5 318,-56.5"/>
<text text-anchor="middle" x="388.5" y="-63.5" font-family="Helvetica,sans-Serif" font-size="10.00">src/labs/inlab12/inlab12.h</text>
</a>
</g>
</g>
<!-- Node11&#45;&gt;Node12 -->
<g id="edge11" class="edge">
<title>Node11&#45;&gt;Node12</title>
<path fill="none" stroke="midnightblue" d="M389.79,-101.8C389.46,-92.91 389.08,-82.78 388.82,-75.75"/>
<polygon fill="midnightblue" stroke="midnightblue" points="386.3,-102.22 390.17,-112.08 393.3,-101.96 386.3,-102.22"/>
</g>
<!-- Node13 -->
<g id="node13" class="node">
<title>Node13</title>
<g id="a_node13"><a xlink:href="../../db/d97/labs_2inlab12_2main_8cpp.html" target="_top" xlink:title=" ">
<polygon fill="white" stroke="black" points="318,-0.5 318,-19.5 459,-19.5 459,-0.5 318,-0.5"/>
<text text-anchor="middle" x="388.5" y="-7.5" font-family="Helvetica,sans-Serif" font-size="10.00">src/labs/inlab12/main.cpp</text>
</a>
</g>
</g>
<!-- Node12&#45;&gt;Node13 -->
<g id="edge12" class="edge">
<title>Node12&#45;&gt;Node13</title>
<path fill="none" stroke="midnightblue" d="M388.5,-45.8C388.5,-36.91 388.5,-26.78 388.5,-19.75"/>
<polygon fill="midnightblue" stroke="midnightblue" points="385,-46.08 388.5,-56.08 392,-46.08 385,-46.08"/>
</g>
<!-- Node15 -->
<g id="node15" class="node">
<title>Node15</title>
<g id="a_node15"><a xlink:href="../../de/d06/inlab8_8h.html" target="_top" xlink:title=" ">
<polygon fill="white" stroke="black" points="477,-56.5 477,-75.5 606,-75.5 606,-56.5 477,-56.5"/>
<text text-anchor="middle" x="541.5" y="-63.5" font-family="Helvetica,sans-Serif" font-size="10.00">src/labs/inlab8/inlab8.h</text>
</a>
</g>
</g>
<!-- Node14&#45;&gt;Node15 -->
<g id="edge14" class="edge">
<title>Node14&#45;&gt;Node15</title>
<path fill="none" stroke="midnightblue" d="M542.79,-101.8C542.46,-92.91 542.08,-82.78 541.82,-75.75"/>
<polygon fill="midnightblue" stroke="midnightblue" points="539.3,-102.22 543.17,-112.08 546.3,-101.96 539.3,-102.22"/>
</g>
<!-- Node16 -->
<g id="node16" class="node">
<title>Node16</title>
<g id="a_node16"><a xlink:href="../../df/de9/labs_2inlab8_2main_8cpp.html" target="_top" xlink:title=" ">
<polygon fill="white" stroke="black" points="477,-0.5 477,-19.5 612,-19.5 612,-0.5 477,-0.5"/>
<text text-anchor="middle" x="544.5" y="-7.5" font-family="Helvetica,sans-Serif" font-size="10.00">src/labs/inlab8/main.cpp</text>
</a>
</g>
</g>
<!-- Node15&#45;&gt;Node16 -->
<g id="edge15" class="edge">
<title>Node15&#45;&gt;Node16</title>
<path fill="none" stroke="midnightblue" d="M542.57,-45.8C543.06,-36.91 543.62,-26.78 544.01,-19.75"/>
<polygon fill="midnightblue" stroke="midnightblue" points="539.06,-45.9 542,-56.08 546.04,-46.29 539.06,-45.9"/>
</g>
<!-- Node18 -->
<g id="node18" class="node">
<title>Node18</title>
<g id="a_node18"><a xlink:href="../../df/dcd/outlab10_8h.html" target="_top" xlink:title=" ">
<polygon fill="white" stroke="black" points="624,-56.5 624,-75.5 779,-75.5 779,-56.5 624,-56.5"/>
<text text-anchor="middle" x="701.5" y="-63.5" font-family="Helvetica,sans-Serif" font-size="10.00">src/labs/outlab10/outlab10.h</text>
</a>
</g>
</g>
<!-- Node17&#45;&gt;Node18 -->
<g id="edge17" class="edge">
<title>Node17&#45;&gt;Node18</title>
<path fill="none" stroke="midnightblue" d="M700.21,-101.8C700.54,-92.91 700.92,-82.78 701.18,-75.75"/>
<polygon fill="midnightblue" stroke="midnightblue" points="696.7,-101.96 699.83,-112.08 703.7,-102.22 696.7,-101.96"/>
</g>
<!-- Node19 -->
<g id="node19" class="node">
<title>Node19</title>
<g id="a_node19"><a xlink:href="../../dc/d8a/labs_2outlab10_2main_8cpp.html" target="_top" xlink:title=" ">
<polygon fill="white" stroke="black" points="630.5,-0.5 630.5,-19.5 778.5,-19.5 778.5,-0.5 630.5,-0.5"/>
<text text-anchor="middle" x="704.5" y="-7.5" font-family="Helvetica,sans-Serif" font-size="10.00">src/labs/outlab10/main.cpp</text>
</a>
</g>
</g>
<!-- Node18&#45;&gt;Node19 -->
<g id="edge18" class="edge">
<title>Node18&#45;&gt;Node19</title>
<path fill="none" stroke="midnightblue" d="M702.57,-45.8C703.06,-36.91 703.62,-26.78 704.01,-19.75"/>
<polygon fill="midnightblue" stroke="midnightblue" points="699.06,-45.9 702,-56.08 706.04,-46.29 699.06,-45.9"/>
</g>
<!-- Node21 -->
<g id="node21" class="node">
<title>Node21</title>
<g id="a_node21"><a xlink:href="../../d3/dbf/outlab11_8h.html" target="_top" xlink:title=" ">
<polygon fill="white" stroke="black" points="797,-56.5 797,-75.5 952,-75.5 952,-56.5 797,-56.5"/>
<text text-anchor="middle" x="874.5" y="-63.5" font-family="Helvetica,sans-Serif" font-size="10.00">src/labs/outlab11/outlab11.h</text>
</a>
</g>
</g>
<!-- Node20&#45;&gt;Node21 -->
<g id="edge20" class="edge">
<title>Node20&#45;&gt;Node21</title>
<path fill="none" stroke="midnightblue" d="M869.95,-102.1C871.11,-93.14 872.44,-82.86 873.37,-75.75"/>
<polygon fill="midnightblue" stroke="midnightblue" points="866.47,-101.72 868.66,-112.08 873.41,-102.62 866.47,-101.72"/>
</g>
<!-- Node22 -->
<g id="node22" class="node">
<title>Node22</title>
<g id="a_node22"><a xlink:href="../../d2/d48/labs_2outlab11_2main_8cpp.html" target="_top" xlink:title=" ">
<polygon fill="white" stroke="black" points="800.5,-0.5 800.5,-19.5 948.5,-19.5 948.5,-0.5 800.5,-0.5"/>
<text text-anchor="middle" x="874.5" y="-7.5" font-family="Helvetica,sans-Serif" font-size="10.00">src/labs/outlab11/main.cpp</text>
</a>
</g>
</g>
<!-- Node21&#45;&gt;Node22 -->
<g id="edge21" class="edge">
<title>Node21&#45;&gt;Node22</title>
<path fill="none" stroke="midnightblue" d="M874.5,-45.8C874.5,-36.91 874.5,-26.78 874.5,-19.75"/>
<polygon fill="midnightblue" stroke="midnightblue" points="871,-46.08 874.5,-56.08 878,-46.08 871,-46.08"/>
</g>
<!-- Node24 -->
<g id="node24" class="node">
<title>Node24</title>
<g id="a_node24"><a xlink:href="../../df/df9/outlab6_8h.html" target="_top" xlink:title=" ">
<polygon fill="white" stroke="black" points="970,-56.5 970,-75.5 1113,-75.5 1113,-56.5 970,-56.5"/>
<text text-anchor="middle" x="1041.5" y="-63.5" font-family="Helvetica,sans-Serif" font-size="10.00">src/labs/outlab6/outlab6.h</text>
</a>
</g>
</g>
<!-- Node23&#45;&gt;Node24 -->
<g id="edge23" class="edge">
<title>Node23&#45;&gt;Node24</title>
<path fill="none" stroke="midnightblue" d="M1036.3,-102.1C1037.63,-93.14 1039.15,-82.86 1040.2,-75.75"/>
<polygon fill="midnightblue" stroke="midnightblue" points="1032.82,-101.68 1034.82,-112.08 1039.75,-102.7 1032.82,-101.68"/>
</g>
<!-- Node25 -->
<g id="node25" class="node">
<title>Node25</title>
<g id="a_node25"><a xlink:href="../../d4/d5d/labs_2outlab6_2main_8cpp.html" target="_top" xlink:title=" ">
<polygon fill="white" stroke="black" points="970.5,-0.5 970.5,-19.5 1112.5,-19.5 1112.5,-0.5 970.5,-0.5"/>
<text text-anchor="middle" x="1041.5" y="-7.5" font-family="Helvetica,sans-Serif" font-size="10.00">src/labs/outlab6/main.cpp</text>
</a>
</g>
</g>
<!-- Node24&#45;&gt;Node25 -->
<g id="edge24" class="edge">
<title>Node24&#45;&gt;Node25</title>
<path fill="none" stroke="midnightblue" d="M1041.5,-45.8C1041.5,-36.91 1041.5,-26.78 1041.5,-19.75"/>
<polygon fill="midnightblue" stroke="midnightblue" points="1038,-46.08 1041.5,-56.08 1045,-46.08 1038,-46.08"/>
</g>
<!-- Node27 -->
<g id="node27" class="node">
<title>Node27</title>
<g id="a_node27"><a xlink:href="../../d8/d5d/outlab7_8h.html" target="_top" xlink:title=" ">
<polygon fill="white" stroke="black" points="1131,-56.5 1131,-75.5 1274,-75.5 1274,-56.5 1131,-56.5"/>
<text text-anchor="middle" x="1202.5" y="-63.5" font-family="Helvetica,sans-Serif" font-size="10.00">src/labs/outlab7/outlab7.h</text>
</a>
</g>
</g>
<!-- Node26&#45;&gt;Node27 -->
<g id="edge26" class="edge">
<title>Node26&#45;&gt;Node27</title>
<path fill="none" stroke="midnightblue" d="M1197.95,-102.1C1199.11,-93.14 1200.44,-82.86 1201.37,-75.75"/>
<polygon fill="midnightblue" stroke="midnightblue" points="1194.47,-101.72 1196.66,-112.08 1201.41,-102.62 1194.47,-101.72"/>
</g>
<!-- Node28 -->
<g id="node28" class="node">
<title>Node28</title>
<g id="a_node28"><a xlink:href="../../d5/d52/labs_2outlab7_2main_8cpp.html" target="_top" xlink:title=" ">
<polygon fill="white" stroke="black" points="1131.5,-0.5 1131.5,-19.5 1273.5,-19.5 1273.5,-0.5 1131.5,-0.5"/>
<text text-anchor="middle" x="1202.5" y="-7.5" font-family="Helvetica,sans-Serif" font-size="10.00">src/labs/outlab7/main.cpp</text>
</a>
</g>
</g>
<!-- Node27&#45;&gt;Node28 -->
<g id="edge27" class="edge">
<title>Node27&#45;&gt;Node28</title>
<path fill="none" stroke="midnightblue" d="M1202.5,-45.8C1202.5,-36.91 1202.5,-26.78 1202.5,-19.75"/>
<polygon fill="midnightblue" stroke="midnightblue" points="1199,-46.08 1202.5,-56.08 1206,-46.08 1199,-46.08"/>
</g>
</g>
</svg>
