<?xml version="1.0" encoding="UTF-8" standalone="no"?>
<!DOCTYPE svg PUBLIC "-//W3C//DTD SVG 1.1//EN"
 "http://www.w3.org/Graphics/SVG/1.1/DTD/svg11.dtd">
<!-- Generated by graphviz version 2.43.0 (0)
 -->
<!-- Title: src/labs/inlab5/inlab5.h Pages: 1 -->
<!--zoomable 308 -->
<svg id="main" version="1.1" xmlns="http://www.w3.org/2000/svg" xmlns:xlink="http://www.w3.org/1999/xlink" xml:space="preserve" onload="init(evt)">
<style type="text/css"><![CDATA[
.edge:hover path { stroke: red; }
.edge:hover polygon { stroke: red; fill: red; }
]]></style>
<script type="text/javascript"><![CDATA[
var edges = document.getElementsByTagName('g');
if (edges && edges.length) {
  for (var i=0;i<edges.length;i++) {
    if (edges[i].id.substr(0,4)=='edge') {
      edges[i].setAttribute('class','edge');
    }
  }
}
]]></script>
        <defs>
                <circle id="rim" cx="0" cy="0" r="7"/>
                <circle id="rim2" cx="0" cy="0" r="3.5"/>
                <g id="zoomPlus">
                        <use xlink:href="#rim" fill="#404040">
                                <set attributeName="fill" to="#808080" begin="zoomplus.mouseover" end="zoomplus.mouseout"/>
                        </use>
                        <path d="M-4,0h8M0,-4v8" fill="none" stroke="white" stroke-width="1.5" pointer-events="none"/>
                </g>
                <g id="zoomMin">
                        <use xlink:href="#rim" fill="#404040">
                                <set attributeName="fill" to="#808080" begin="zoomminus.mouseover" end="zoomminus.mouseout"/>
                        </use>
                        <path d="M-4,0h8" fill="none" stroke="white" stroke-width="1.5" pointer-events="none"/>
                </g>
                <g id="dirArrow">
                        <path fill="none" stroke="white" stroke-width="1.5" d="M0,-3.0v7 M-2.5,-0.5L0,-3.0L2.5,-0.5"/>
                </g>
               <g id="resetDef">
                       <use xlink:href="#rim2" fill="#404040">
                               <set attributeName="fill" to="#808080" begin="reset.mouseover" end="reset.mouseout"/>
                       </use>
               </g>
        </defs>

<script type="text/javascript">
var viewWidth = 2021;
var viewHeight = 308;
var sectionId = 'dynsection-0';
</script>
<script xlink:href="../../svgpan.js"/>
<svg id="graph" class="graph">
<g id="viewport">
<title>src/labs/inlab5/inlab5.h</title>
<polygon fill="white" stroke="transparent" points="-4,4 -4,-304 2016.5,-304 2016.5,4 -4,4"/>
<!-- Node1 -->
<g id="node1" class="node">
<title>Node1</title>
<g id="a_node1"><a xlink:title=" ">
<polygon fill="#bfbfbf" stroke="black" points="818.5,-280.5 818.5,-299.5 947.5,-299.5 947.5,-280.5 818.5,-280.5"/>
<text text-anchor="middle" x="883" y="-287.5" font-family="Helvetica,sans-Serif" font-size="10.00">src/labs/inlab5/inlab5.h</text>
</a>
</g>
</g>
<!-- Node2 -->
<g id="node2" class="node">
<title>Node2</title>
<g id="a_node2"><a xlink:title=" ">
<polygon fill="white" stroke="#bfbfbf" points="66,-56.5 66,-75.5 216,-75.5 216,-56.5 66,-56.5"/>
<text text-anchor="middle" x="141" y="-63.5" font-family="Helvetica,sans-Serif" font-size="10.00">boost/program_options.hpp</text>
</a>
</g>
</g>
<!-- Node1&#45;&gt;Node2 -->
<g id="edge1" class="edge">
<title>Node1&#45;&gt;Node2</title>
<path fill="none" stroke="midnightblue" d="M818.46,-287.75C633.15,-283.83 111.03,-270.49 86,-244 42.39,-197.86 98.66,-117.72 126.76,-83.38"/>
<polygon fill="midnightblue" stroke="midnightblue" points="129.48,-85.6 133.23,-75.69 124.11,-81.1 129.48,-85.6"/>
</g>
<!-- Node3 -->
<g id="node3" class="node">
<title>Node3</title>
<g id="a_node3"><a xlink:title=" ">
<polygon fill="white" stroke="#bfbfbf" points="702,-0.5 702,-19.5 758,-19.5 758,-0.5 702,-0.5"/>
<text text-anchor="middle" x="730" y="-7.5" font-family="Helvetica,sans-Serif" font-size="10.00">iomanip</text>
</a>
</g>
</g>
<!-- Node1&#45;&gt;Node3 -->
<g id="edge2" class="edge">
<title>Node1&#45;&gt;Node3</title>
<path fill="none" stroke="midnightblue" d="M947.79,-288.52C1165.78,-286.05 1859,-270.97 1859,-179 1859,-179 1859,-179 1859,-121 1859,-5.34 938.22,-30 823,-20 804.93,-18.43 784.91,-16.52 768.08,-14.86"/>
<polygon fill="midnightblue" stroke="midnightblue" points="768.36,-11.37 758.07,-13.86 767.67,-18.33 768.36,-11.37"/>
</g>
<!-- Node4 -->
<g id="node4" class="node">
<title>Node4</title>
<g id="a_node4"><a xlink:title=" ">
<polygon fill="white" stroke="#bfbfbf" points="390,-0.5 390,-19.5 450,-19.5 450,-0.5 390,-0.5"/>
<text text-anchor="middle" x="420" y="-7.5" font-family="Helvetica,sans-Serif" font-size="10.00">iostream</text>
</a>
</g>
</g>
<!-- Node1&#45;&gt;Node4 -->
<g id="edge3" class="edge">
<title>Node1&#45;&gt;Node4</title>
<path fill="none" stroke="midnightblue" d="M818.37,-287.94C638.03,-284.63 138.06,-272.92 70,-244 30.93,-227.4 0,-221.46 0,-179 0,-179 0,-179 0,-121 0,-86.36 13.52,-74.18 43,-56 98.68,-21.67 294.62,-13.52 379.88,-11.59"/>
<polygon fill="midnightblue" stroke="midnightblue" points="380.02,-15.09 389.95,-11.38 379.88,-8.09 380.02,-15.09"/>
</g>
<!-- Node5 -->
<g id="node5" class="node">
<title>Node5</title>
<g id="a_node5"><a xlink:title=" ">
<polygon fill="white" stroke="#bfbfbf" points="1887,-224.5 1887,-243.5 1943,-243.5 1943,-224.5 1887,-224.5"/>
<text text-anchor="middle" x="1915" y="-231.5" font-family="Helvetica,sans-Serif" font-size="10.00">numeric</text>
</a>
</g>
</g>
<!-- Node1&#45;&gt;Node5 -->
<g id="edge4" class="edge">
<title>Node1&#45;&gt;Node5</title>
<path fill="none" stroke="midnightblue" d="M947.6,-289.75C1106.02,-290.8 1526.18,-288.73 1873,-244 1874.25,-243.84 1875.51,-243.66 1876.79,-243.47"/>
<polygon fill="midnightblue" stroke="midnightblue" points="1877.4,-246.91 1886.64,-241.74 1876.19,-240.02 1877.4,-246.91"/>
</g>
<!-- Node6 -->
<g id="node6" class="node">
<title>Node6</title>
<g id="a_node6"><a xlink:title=" ">
<polygon fill="white" stroke="#bfbfbf" points="1961.5,-224.5 1961.5,-243.5 2012.5,-243.5 2012.5,-224.5 1961.5,-224.5"/>
<text text-anchor="middle" x="1987" y="-231.5" font-family="Helvetica,sans-Serif" font-size="10.00">variant</text>
</a>
</g>
</g>
<!-- Node1&#45;&gt;Node6 -->
<g id="edge5" class="edge">
<title>Node1&#45;&gt;Node6</title>
<path fill="none" stroke="midnightblue" d="M947.84,-288.05C1145.13,-284.89 1737.15,-273.28 1950.93,-243.76"/>
<polygon fill="midnightblue" stroke="midnightblue" points="1951.73,-247.18 1961.13,-242.3 1950.73,-240.25 1951.73,-247.18"/>
</g>
<!-- Node7 -->
<g id="node7" class="node">
<title>Node7</title>
<g id="a_node7"><a xlink:href="../../d0/d7d/CheckBounds_8h.html" target="_top" xlink:title="This file contains the declaration of functions for checking the validity of input parameters.">
<polygon fill="white" stroke="black" points="95,-224.5 95,-243.5 187,-243.5 187,-224.5 95,-224.5"/>
<text text-anchor="middle" x="141" y="-231.5" font-family="Helvetica,sans-Serif" font-size="10.00">CheckBounds.h</text>
</a>
</g>
</g>
<!-- Node1&#45;&gt;Node7 -->
<g id="edge6" class="edge">
<title>Node1&#45;&gt;Node7</title>
<path fill="none" stroke="midnightblue" d="M818.44,-286.53C697.18,-281.49 427.22,-268.39 201,-244 199.73,-243.86 198.45,-243.72 197.16,-243.57"/>
<polygon fill="midnightblue" stroke="midnightblue" points="197.5,-240.08 187.14,-242.32 196.63,-247.03 197.5,-240.08"/>
</g>
<!-- Node9 -->
<g id="node9" class="node">
<title>Node9</title>
<g id="a_node9"><a xlink:href="../../db/df1/Helpers_8h.html" target="_top" xlink:title="This file contains helper functions and structures used throughout the program.">
<polygon fill="white" stroke="black" points="253.5,-112.5 253.5,-131.5 316.5,-131.5 316.5,-112.5 253.5,-112.5"/>
<text text-anchor="middle" x="285" y="-119.5" font-family="Helvetica,sans-Serif" font-size="10.00">Helpers.h</text>
</a>
</g>
</g>
<!-- Node1&#45;&gt;Node9 -->
<g id="edge48" class="edge">
<title>Node1&#45;&gt;Node9</title>
<path fill="none" stroke="midnightblue" d="M818.39,-288.78C736.79,-286.95 592.8,-278.51 475,-244 421.21,-228.24 408.87,-218.75 362,-188 339.54,-173.26 316.32,-152.82 301.33,-138.82"/>
<polygon fill="midnightblue" stroke="midnightblue" points="303.57,-136.12 293.91,-131.78 298.76,-141.2 303.57,-136.12"/>
</g>
<!-- Node11 -->
<g id="node11" class="node">
<title>Node11</title>
<g id="a_node11"><a xlink:title=" ">
<polygon fill="white" stroke="#bfbfbf" points="838,-56.5 838,-75.5 896,-75.5 896,-56.5 838,-56.5"/>
<text text-anchor="middle" x="867" y="-63.5" font-family="Helvetica,sans-Serif" font-size="10.00">json.hpp</text>
</a>
</g>
</g>
<!-- Node1&#45;&gt;Node11 -->
<g id="edge76" class="edge">
<title>Node1&#45;&gt;Node11</title>
<path fill="none" stroke="midnightblue" d="M818.33,-286.49C752.27,-282.41 656.2,-271.74 633,-244 595.37,-198.99 595.64,-157.23 633,-112 645.32,-97.08 764.61,-79.94 827.94,-71.78"/>
<polygon fill="midnightblue" stroke="midnightblue" points="828.49,-75.24 837.96,-70.51 827.6,-68.3 828.49,-75.24"/>
</g>
<!-- Node21 -->
<g id="node21" class="node">
<title>Node21</title>
<g id="a_node21"><a xlink:href="../../d7/de4/FileParser_8h.html" target="_top" xlink:title="This file contains the definitions for functions that handle file parsing operations.">
<polygon fill="white" stroke="black" points="1344,-168.5 1344,-187.5 1416,-187.5 1416,-168.5 1344,-168.5"/>
<text text-anchor="middle" x="1380" y="-175.5" font-family="Helvetica,sans-Serif" font-size="10.00">FileParser.h</text>
</a>
</g>
</g>
<!-- Node1&#45;&gt;Node21 -->
<g id="edge29" class="edge">
<title>Node1&#45;&gt;Node21</title>
<path fill="none" stroke="midnightblue" d="M947.54,-286.82C1049.43,-282.61 1242.42,-271.21 1305,-244 1330.06,-233.1 1352.86,-210.75 1366.58,-195.33"/>
<polygon fill="midnightblue" stroke="midnightblue" points="1369.37,-197.46 1373.22,-187.59 1364.06,-192.9 1369.37,-197.46"/>
</g>
<!-- Node27 -->
<g id="node27" class="node">
<title>Node27</title>
<g id="a_node27"><a xlink:href="../../d3/db1/Matrix_8h.html" target="_top" xlink:title="This file contains my BLAS::Matrix declarations.">
<polygon fill="white" stroke="black" points="1145.5,-112.5 1145.5,-131.5 1254.5,-131.5 1254.5,-112.5 1145.5,-112.5"/>
<text text-anchor="middle" x="1200" y="-119.5" font-family="Helvetica,sans-Serif" font-size="10.00">math/blas/Matrix.h</text>
</a>
</g>
</g>
<!-- Node1&#45;&gt;Node27 -->
<g id="edge77" class="edge">
<title>Node1&#45;&gt;Node27</title>
<path fill="none" stroke="midnightblue" d="M947.86,-281.36C1044.14,-268.45 1217.1,-238.63 1250,-188 1261.87,-169.74 1241.7,-150.09 1223.54,-137.24"/>
<polygon fill="midnightblue" stroke="midnightblue" points="1225.21,-134.14 1214.94,-131.51 1221.32,-139.96 1225.21,-134.14"/>
</g>
<!-- Node30 -->
<g id="node30" class="node">
<title>Node30</title>
<g id="a_node30"><a xlink:href="../../d6/dbe/Vector_8h.html" target="_top" xlink:title="This file contains my BLAS::Vector implementation.">
<polygon fill="white" stroke="black" points="987.5,-56.5 987.5,-75.5 1094.5,-75.5 1094.5,-56.5 987.5,-56.5"/>
<text text-anchor="middle" x="1041" y="-63.5" font-family="Helvetica,sans-Serif" font-size="10.00">math/blas/Vector.h</text>
</a>
</g>
</g>
<!-- Node1&#45;&gt;Node30 -->
<g id="edge79" class="edge">
<title>Node1&#45;&gt;Node30</title>
<path fill="none" stroke="midnightblue" d="M846.91,-280.35C825.78,-273.61 799.99,-262.26 783,-244 741.15,-199.03 701.92,-158.56 742,-112 742.96,-110.88 889.8,-89.18 977.32,-76.33"/>
<polygon fill="midnightblue" stroke="midnightblue" points="978.03,-79.76 987.42,-74.84 977.02,-72.83 978.03,-79.76"/>
</g>
<!-- Node31 -->
<g id="node31" class="node">
<title>Node31</title>
<g id="a_node31"><a xlink:href="../../d2/dff/Project_8h.html" target="_top" xlink:title="This file contains the definition of the Project class template. The Project class is a generic class...">
<polygon fill="white" stroke="black" points="483.5,-224.5 483.5,-243.5 542.5,-243.5 542.5,-224.5 483.5,-224.5"/>
<text text-anchor="middle" x="513" y="-231.5" font-family="Helvetica,sans-Serif" font-size="10.00">Project.h</text>
</a>
</g>
</g>
<!-- Node1&#45;&gt;Node31 -->
<g id="edge49" class="edge">
<title>Node1&#45;&gt;Node31</title>
<path fill="none" stroke="midnightblue" d="M824.37,-280.44C748.51,-269.37 618.35,-250.38 552.96,-240.83"/>
<polygon fill="midnightblue" stroke="midnightblue" points="553.06,-237.31 542.66,-239.33 552.05,-244.24 553.06,-237.31"/>
</g>
<!-- Node32 -->
<g id="node32" class="node">
<title>Node32</title>
<g id="a_node32"><a xlink:href="../../d5/d66/labs_2inlab5_2Compute_8h.html" target="_top" xlink:title="Compute methods for inlab5 in NE591&#45;008.">
<polygon fill="white" stroke="black" points="792,-224.5 792,-243.5 862,-243.5 862,-224.5 792,-224.5"/>
<text text-anchor="middle" x="827" y="-231.5" font-family="Helvetica,sans-Serif" font-size="10.00">Compute.h</text>
</a>
</g>
</g>
<!-- Node1&#45;&gt;Node32 -->
<g id="edge54" class="edge">
<title>Node1&#45;&gt;Node32</title>
<path fill="none" stroke="midnightblue" d="M874,-280.32C865.81,-272.42 853.49,-260.55 843.53,-250.94"/>
<polygon fill="midnightblue" stroke="midnightblue" points="845.79,-248.26 836.16,-243.83 840.93,-253.29 845.79,-248.26"/>
</g>
<!-- Node34 -->
<g id="node34" class="node">
<title>Node34</title>
<g id="a_node34"><a xlink:href="../../dc/d35/labs_2inlab5_2InputsOutputs_8h.html" target="_top" xlink:title="This file contains the input and output definitions for this project.">
<polygon fill="white" stroke="black" points="881,-168.5 881,-187.5 975,-187.5 975,-168.5 881,-168.5"/>
<text text-anchor="middle" x="928" y="-175.5" font-family="Helvetica,sans-Serif" font-size="10.00">InputsOutputs.h</text>
</a>
</g>
</g>
<!-- Node1&#45;&gt;Node34 -->
<g id="edge66" class="edge">
<title>Node1&#45;&gt;Node34</title>
<path fill="none" stroke="midnightblue" d="M886.53,-280.37C893.86,-262.46 910.85,-220.92 920.66,-196.95"/>
<polygon fill="midnightblue" stroke="midnightblue" points="923.94,-198.17 924.49,-187.59 917.46,-195.52 923.94,-198.17"/>
</g>
<!-- Node35 -->
<g id="node35" class="node">
<title>Node35</title>
<g id="a_node35"><a xlink:href="../../d1/de2/labs_2inlab5_2Parser_8h.html" target="_top" xlink:title="This file contains the Parser class which is responsible for parsing command line arguments and valid...">
<polygon fill="white" stroke="black" points="1032.5,-224.5 1032.5,-243.5 1087.5,-243.5 1087.5,-224.5 1032.5,-224.5"/>
<text text-anchor="middle" x="1060" y="-231.5" font-family="Helvetica,sans-Serif" font-size="10.00">Parser.h</text>
</a>
</g>
</g>
<!-- Node1&#45;&gt;Node35 -->
<g id="edge67" class="edge">
<title>Node1&#45;&gt;Node35</title>
<path fill="none" stroke="midnightblue" d="M911.05,-280.44C941.17,-271.25 989.19,-256.6 1022.54,-246.43"/>
<polygon fill="midnightblue" stroke="midnightblue" points="1023.83,-249.69 1032.38,-243.43 1021.79,-243 1023.83,-249.69"/>
</g>
<!-- Node36 -->
<g id="node36" class="node">
<title>Node36</title>
<g id="a_node36"><a xlink:href="../../d9/d77/MyBLAS_8h.html" target="_top" xlink:title="My BLAS methods for NE591&#45;008.">
<polygon fill="white" stroke="black" points="1107,-168.5 1107,-187.5 1225,-187.5 1225,-168.5 1107,-168.5"/>
<text text-anchor="middle" x="1166" y="-175.5" font-family="Helvetica,sans-Serif" font-size="10.00">math/blas/MyBLAS.h</text>
</a>
</g>
</g>
<!-- Node1&#45;&gt;Node36 -->
<g id="edge78" class="edge">
<title>Node1&#45;&gt;Node36</title>
<path fill="none" stroke="midnightblue" d="M947.89,-284.59C992,-279.44 1050.56,-268.26 1097,-244 1119.68,-232.15 1140.26,-210.72 1152.93,-195.71"/>
<polygon fill="midnightblue" stroke="midnightblue" points="1155.82,-197.7 1159.43,-187.74 1150.4,-193.28 1155.82,-197.7"/>
</g>
<!-- Node7&#45;&gt;Node2 -->
<g id="edge7" class="edge">
<title>Node7&#45;&gt;Node2</title>
<path fill="none" stroke="midnightblue" d="M141,-224.08C141,-197.95 141,-121.21 141,-85.58"/>
<polygon fill="midnightblue" stroke="midnightblue" points="144.5,-85.57 141,-75.57 137.5,-85.57 144.5,-85.57"/>
</g>
<!-- Node7&#45;&gt;Node4 -->
<g id="edge8" class="edge">
<title>Node7&#45;&gt;Node4</title>
<path fill="none" stroke="midnightblue" d="M130.63,-224.29C99.03,-196.77 9.02,-110.29 57,-56 78.11,-32.11 289.44,-18.01 379.59,-13.04"/>
<polygon fill="midnightblue" stroke="midnightblue" points="379.91,-16.53 389.71,-12.5 379.53,-9.54 379.91,-16.53"/>
</g>
<!-- Node8 -->
<g id="node8" class="node">
<title>Node8</title>
<g id="a_node8"><a xlink:href="../../d9/d41/CommandLine_8h.html" target="_top" xlink:title="This file contains the definition of the CommandLine class and the HeaderInfo struct.">
<polygon fill="white" stroke="black" points="371,-168.5 371,-187.5 467,-187.5 467,-168.5 371,-168.5"/>
<text text-anchor="middle" x="419" y="-175.5" font-family="Helvetica,sans-Serif" font-size="10.00">CommandLine.h</text>
</a>
</g>
</g>
<!-- Node7&#45;&gt;Node8 -->
<g id="edge9" class="edge">
<title>Node7&#45;&gt;Node8</title>
<path fill="none" stroke="midnightblue" d="M185.05,-224.44C233.85,-214.96 312.56,-199.67 365.03,-189.48"/>
<polygon fill="midnightblue" stroke="midnightblue" points="366.01,-192.86 375.16,-187.52 364.67,-185.99 366.01,-192.86"/>
</g>
<!-- Node8&#45;&gt;Node2 -->
<g id="edge26" class="edge">
<title>Node8&#45;&gt;Node2</title>
<path fill="none" stroke="midnightblue" d="M370.81,-168.66C335.14,-161.51 285.85,-149.55 245,-132 213.47,-118.45 180.43,-96.2 160.27,-81.58"/>
<polygon fill="midnightblue" stroke="midnightblue" points="162.34,-78.75 152.21,-75.64 158.18,-84.39 162.34,-78.75"/>
</g>
<!-- Node8&#45;&gt;Node4 -->
<g id="edge27" class="edge">
<title>Node8&#45;&gt;Node4</title>
<path fill="none" stroke="midnightblue" d="M401.8,-168.39C388.75,-160.79 371.77,-148.39 364,-132 360.19,-123.97 361.77,-120.61 364,-112 372.33,-79.81 393.37,-46.93 407.16,-27.77"/>
<polygon fill="midnightblue" stroke="midnightblue" points="410.12,-29.65 413.26,-19.53 404.49,-25.49 410.12,-29.65"/>
</g>
<!-- Node8&#45;&gt;Node9 -->
<g id="edge10" class="edge">
<title>Node8&#45;&gt;Node9</title>
<path fill="none" stroke="midnightblue" d="M397.77,-168.44C375.62,-159.52 340.68,-145.44 315.56,-135.32"/>
<polygon fill="midnightblue" stroke="midnightblue" points="316.72,-132.01 306.13,-131.52 314.1,-138.5 316.72,-132.01"/>
</g>
<!-- Node12 -->
<g id="node12" class="node">
<title>Node12</title>
<g id="a_node12"><a xlink:href="../../df/d69/Profiler_8h.html" target="_top" xlink:title="This file contains helper classes and functions for profiling.">
<polygon fill="white" stroke="black" points="483.5,-112.5 483.5,-131.5 542.5,-131.5 542.5,-112.5 483.5,-112.5"/>
<text text-anchor="middle" x="513" y="-119.5" font-family="Helvetica,sans-Serif" font-size="10.00">Profiler.h</text>
</a>
</g>
</g>
<!-- Node8&#45;&gt;Node12 -->
<g id="edge16" class="edge">
<title>Node8&#45;&gt;Node12</title>
<path fill="none" stroke="midnightblue" d="M434.1,-168.32C448.9,-159.82 471.69,-146.73 488.98,-136.8"/>
<polygon fill="midnightblue" stroke="midnightblue" points="491.01,-139.67 497.93,-131.65 487.52,-133.6 491.01,-139.67"/>
</g>
<!-- Node19 -->
<g id="node19" class="node">
<title>Node19</title>
<g id="a_node19"><a xlink:title=" ">
<polygon fill="white" stroke="#bfbfbf" points="373,-112.5 373,-131.5 465,-131.5 465,-112.5 373,-112.5"/>
<text text-anchor="middle" x="419" y="-119.5" font-family="Helvetica,sans-Serif" font-size="10.00">project&#45;config.h</text>
</a>
</g>
</g>
<!-- Node8&#45;&gt;Node19 -->
<g id="edge25" class="edge">
<title>Node8&#45;&gt;Node19</title>
<path fill="none" stroke="midnightblue" d="M419,-168.08C419,-161.01 419,-150.86 419,-141.99"/>
<polygon fill="midnightblue" stroke="midnightblue" points="422.5,-141.75 419,-131.75 415.5,-141.75 422.5,-141.75"/>
</g>
<!-- Node20 -->
<g id="node20" class="node">
<title>Node20</title>
<g id="a_node20"><a xlink:title=" ">
<polygon fill="white" stroke="#bfbfbf" points="751,-112.5 751,-131.5 795,-131.5 795,-112.5 751,-112.5"/>
<text text-anchor="middle" x="773" y="-119.5" font-family="Helvetica,sans-Serif" font-size="10.00">string</text>
</a>
</g>
</g>
<!-- Node8&#45;&gt;Node20 -->
<g id="edge28" class="edge">
<title>Node8&#45;&gt;Node20</title>
<path fill="none" stroke="midnightblue" d="M467.11,-169.66C540.38,-158.48 678.01,-137.49 740.57,-127.95"/>
<polygon fill="midnightblue" stroke="midnightblue" points="741.29,-131.38 750.64,-126.41 740.23,-124.46 741.29,-131.38"/>
</g>
<!-- Node9&#45;&gt;Node2 -->
<g id="edge15" class="edge">
<title>Node9&#45;&gt;Node2</title>
<path fill="none" stroke="midnightblue" d="M262.18,-112.44C238.17,-103.44 200.17,-89.19 173.13,-79.05"/>
<polygon fill="midnightblue" stroke="midnightblue" points="174.3,-75.75 163.71,-75.52 171.84,-82.3 174.3,-75.75"/>
</g>
<!-- Node9&#45;&gt;Node3 -->
<g id="edge11" class="edge">
<title>Node9&#45;&gt;Node3</title>
<path fill="none" stroke="midnightblue" d="M305.5,-112.41C338.96,-98.7 407.65,-71.78 468,-56 546.33,-35.52 640.33,-21.98 691.74,-15.48"/>
<polygon fill="midnightblue" stroke="midnightblue" points="692.25,-18.95 701.75,-14.24 691.39,-12 692.25,-18.95"/>
</g>
<!-- Node9&#45;&gt;Node4 -->
<g id="edge12" class="edge">
<title>Node9&#45;&gt;Node4</title>
<path fill="none" stroke="midnightblue" d="M289.15,-112.39C296.02,-98.89 310.92,-72.55 330,-56 346.26,-41.9 367.71,-30.95 385.59,-23.38"/>
<polygon fill="midnightblue" stroke="midnightblue" points="387.15,-26.53 395.1,-19.53 384.52,-20.04 387.15,-26.53"/>
</g>
<!-- Node10 -->
<g id="node10" class="node">
<title>Node10</title>
<g id="a_node10"><a xlink:title=" ">
<polygon fill="white" stroke="#bfbfbf" points="234,-56.5 234,-75.5 278,-75.5 278,-56.5 234,-56.5"/>
<text text-anchor="middle" x="256" y="-63.5" font-family="Helvetica,sans-Serif" font-size="10.00">limits</text>
</a>
</g>
</g>
<!-- Node9&#45;&gt;Node10 -->
<g id="edge13" class="edge">
<title>Node9&#45;&gt;Node10</title>
<path fill="none" stroke="midnightblue" d="M280.21,-112.08C276.24,-104.69 270.47,-93.95 265.57,-84.81"/>
<polygon fill="midnightblue" stroke="midnightblue" points="268.51,-82.91 260.7,-75.75 262.35,-86.22 268.51,-82.91"/>
</g>
<!-- Node9&#45;&gt;Node11 -->
<g id="edge14" class="edge">
<title>Node9&#45;&gt;Node11</title>
<path fill="none" stroke="midnightblue" d="M316.5,-117.2C330.96,-115.51 348.34,-113.55 364,-112 553.52,-93.22 601.52,-95.2 791,-76 802.96,-74.79 815.96,-73.31 827.78,-71.9"/>
<polygon fill="midnightblue" stroke="midnightblue" points="828.28,-75.37 837.79,-70.69 827.45,-68.42 828.28,-75.37"/>
</g>
<!-- Node12&#45;&gt;Node3 -->
<g id="edge19" class="edge">
<title>Node12&#45;&gt;Node3</title>
<path fill="none" stroke="midnightblue" d="M501.94,-112.36C486.48,-99.26 461.92,-74 477,-56 503.94,-23.85 627.79,-14.65 691.66,-12.03"/>
<polygon fill="midnightblue" stroke="midnightblue" points="691.88,-15.53 701.75,-11.65 691.62,-8.53 691.88,-15.53"/>
</g>
<!-- Node12&#45;&gt;Node4 -->
<g id="edge20" class="edge">
<title>Node12&#45;&gt;Node4</title>
<path fill="none" stroke="midnightblue" d="M493.26,-112.41C477.91,-104.83 457.11,-92.44 444,-76 433.23,-62.49 426.99,-43.69 423.59,-29.78"/>
<polygon fill="midnightblue" stroke="midnightblue" points="426.98,-28.89 421.43,-19.86 420.14,-30.38 426.98,-28.89"/>
</g>
<!-- Node13 -->
<g id="node13" class="node">
<title>Node13</title>
<g id="a_node13"><a xlink:title=" ">
<polygon fill="white" stroke="#bfbfbf" points="914.5,-56.5 914.5,-75.5 969.5,-75.5 969.5,-56.5 914.5,-56.5"/>
<text text-anchor="middle" x="942" y="-63.5" font-family="Helvetica,sans-Serif" font-size="10.00">fstream</text>
</a>
</g>
</g>
<!-- Node12&#45;&gt;Node13 -->
<g id="edge17" class="edge">
<title>Node12&#45;&gt;Node13</title>
<path fill="none" stroke="midnightblue" d="M542.69,-118.86C606.83,-113.97 763.24,-100.58 904.09,-75.95"/>
<polygon fill="midnightblue" stroke="midnightblue" points="904.96,-79.35 914.2,-74.16 903.74,-72.45 904.96,-79.35"/>
</g>
<!-- Node14 -->
<g id="node14" class="node">
<title>Node14</title>
<g id="a_node14"><a xlink:title=" ">
<polygon fill="white" stroke="#bfbfbf" points="558.5,-56.5 558.5,-75.5 623.5,-75.5 623.5,-56.5 558.5,-56.5"/>
<text text-anchor="middle" x="591" y="-63.5" font-family="Helvetica,sans-Serif" font-size="10.00">functional</text>
</a>
</g>
</g>
<!-- Node12&#45;&gt;Node14 -->
<g id="edge18" class="edge">
<title>Node12&#45;&gt;Node14</title>
<path fill="none" stroke="midnightblue" d="M525.53,-112.32C537.59,-103.98 556.03,-91.21 570.27,-81.35"/>
<polygon fill="midnightblue" stroke="midnightblue" points="572.27,-84.22 578.5,-75.65 568.28,-78.47 572.27,-84.22"/>
</g>
<!-- Node15 -->
<g id="node15" class="node">
<title>Node15</title>
<g id="a_node15"><a xlink:title=" ">
<polygon fill="white" stroke="#bfbfbf" points="486,-56.5 486,-75.5 540,-75.5 540,-56.5 486,-56.5"/>
<text text-anchor="middle" x="513" y="-63.5" font-family="Helvetica,sans-Serif" font-size="10.00">random</text>
</a>
</g>
</g>
<!-- Node12&#45;&gt;Node15 -->
<g id="edge21" class="edge">
<title>Node12&#45;&gt;Node15</title>
<path fill="none" stroke="midnightblue" d="M513,-112.08C513,-105.01 513,-94.86 513,-85.99"/>
<polygon fill="midnightblue" stroke="midnightblue" points="516.5,-85.75 513,-75.75 509.5,-85.75 516.5,-85.75"/>
</g>
<!-- Node16 -->
<g id="node16" class="node">
<title>Node16</title>
<g id="a_node16"><a xlink:title=" ">
<polygon fill="white" stroke="#bfbfbf" points="736.5,-56.5 736.5,-75.5 781.5,-75.5 781.5,-56.5 736.5,-56.5"/>
<text text-anchor="middle" x="759" y="-63.5" font-family="Helvetica,sans-Serif" font-size="10.00">utility</text>
</a>
</g>
</g>
<!-- Node12&#45;&gt;Node16 -->
<g id="edge22" class="edge">
<title>Node12&#45;&gt;Node16</title>
<path fill="none" stroke="midnightblue" d="M542.84,-114.89C592.25,-104.75 688.75,-84.86 726.36,-76.18"/>
<polygon fill="midnightblue" stroke="midnightblue" points="727.46,-79.52 736.37,-73.79 725.83,-72.71 727.46,-79.52"/>
</g>
<!-- Node17 -->
<g id="node17" class="node">
<title>Node17</title>
<g id="a_node17"><a xlink:href="../../d4/d2e/Stopwatch_8h.html" target="_top" xlink:title="This file contains the Stopwatch class which is a utility for measuring time durations in various uni...">
<polygon fill="white" stroke="black" points="641.5,-56.5 641.5,-75.5 718.5,-75.5 718.5,-56.5 641.5,-56.5"/>
<text text-anchor="middle" x="680" y="-63.5" font-family="Helvetica,sans-Serif" font-size="10.00">Stopwatch.h</text>
</a>
</g>
</g>
<!-- Node12&#45;&gt;Node17 -->
<g id="edge23" class="edge">
<title>Node12&#45;&gt;Node17</title>
<path fill="none" stroke="midnightblue" d="M539.46,-112.44C567.68,-103.32 612.54,-88.81 643.97,-78.65"/>
<polygon fill="midnightblue" stroke="midnightblue" points="645.22,-81.92 653.66,-75.52 643.07,-75.26 645.22,-81.92"/>
</g>
<!-- Node18 -->
<g id="node18" class="node">
<title>Node18</title>
<g id="a_node18"><a xlink:title=" ">
<polygon fill="white" stroke="#bfbfbf" points="832,-0.5 832,-19.5 882,-19.5 882,-0.5 832,-0.5"/>
<text text-anchor="middle" x="857" y="-7.5" font-family="Helvetica,sans-Serif" font-size="10.00">chrono</text>
</a>
</g>
</g>
<!-- Node17&#45;&gt;Node18 -->
<g id="edge24" class="edge">
<title>Node17&#45;&gt;Node18</title>
<path fill="none" stroke="midnightblue" d="M708.05,-56.44C738.97,-47.01 788.74,-31.82 822.15,-21.63"/>
<polygon fill="midnightblue" stroke="midnightblue" points="823.4,-24.91 831.95,-18.64 821.36,-18.21 823.4,-24.91"/>
</g>
<!-- Node21&#45;&gt;Node4 -->
<g id="edge33" class="edge">
<title>Node21&#45;&gt;Node4</title>
<path fill="none" stroke="midnightblue" d="M1375.08,-168.23C1361.13,-144.42 1318.63,-78.77 1262,-56 1224.45,-40.9 623.45,-18.31 460.49,-12.44"/>
<polygon fill="midnightblue" stroke="midnightblue" points="460.52,-8.93 450.4,-12.07 460.27,-15.93 460.52,-8.93"/>
</g>
<!-- Node21&#45;&gt;Node11 -->
<g id="edge47" class="edge">
<title>Node21&#45;&gt;Node11</title>
<path fill="none" stroke="midnightblue" d="M1363.65,-168.43C1346.82,-159.54 1319.89,-145.13 1297,-132 1282.12,-123.47 1280.27,-117.44 1264,-112 1115.44,-62.35 1065.82,-100.4 906.46,-75.81"/>
<polygon fill="midnightblue" stroke="midnightblue" points="906.74,-72.31 896.31,-74.18 905.63,-79.22 906.74,-72.31"/>
</g>
<!-- Node21&#45;&gt;Node13 -->
<g id="edge32" class="edge">
<title>Node21&#45;&gt;Node13</title>
<path fill="none" stroke="midnightblue" d="M1372.28,-168.44C1358.68,-153.98 1328.84,-125.04 1297,-112 1168.32,-59.32 1121.17,-98.99 979.7,-75.86"/>
<polygon fill="midnightblue" stroke="midnightblue" points="980.25,-72.4 969.8,-74.16 979.07,-79.3 980.25,-72.4"/>
</g>
<!-- Node21&#45;&gt;Node18 -->
<g id="edge35" class="edge">
<title>Node21&#45;&gt;Node18</title>
<path fill="none" stroke="midnightblue" d="M1375.01,-168.4C1360.88,-145.02 1317.95,-80.38 1262,-56 1195.85,-27.18 977.96,-15.72 892.16,-12.25"/>
<polygon fill="midnightblue" stroke="midnightblue" points="892.27,-8.75 882.14,-11.86 891.99,-15.74 892.27,-8.75"/>
</g>
<!-- Node21&#45;&gt;Node20 -->
<g id="edge34" class="edge">
<title>Node21&#45;&gt;Node20</title>
<path fill="none" stroke="midnightblue" d="M1343.81,-174.52C1257.19,-168.47 1031.16,-151.97 843,-132 830.56,-130.68 816.91,-128.98 804.99,-127.42"/>
<polygon fill="midnightblue" stroke="midnightblue" points="805.41,-123.94 795.04,-126.09 804.49,-130.88 805.41,-123.94"/>
</g>
<!-- Node22 -->
<g id="node22" class="node">
<title>Node22</title>
<g id="a_node22"><a xlink:title=" ">
<polygon fill="white" stroke="#bfbfbf" points="1557,-112.5 1557,-131.5 1669,-131.5 1669,-112.5 1557,-112.5"/>
<text text-anchor="middle" x="1613" y="-119.5" font-family="Helvetica,sans-Serif" font-size="10.00">boost/tokenizer.hpp</text>
</a>
</g>
</g>
<!-- Node21&#45;&gt;Node22 -->
<g id="edge30" class="edge">
<title>Node21&#45;&gt;Node22</title>
<path fill="none" stroke="midnightblue" d="M1416.15,-168.62C1456.47,-159.28 1521.82,-144.13 1566.06,-133.88"/>
<polygon fill="midnightblue" stroke="midnightblue" points="1567.04,-137.24 1575.99,-131.58 1565.46,-130.42 1567.04,-137.24"/>
</g>
<!-- Node23 -->
<g id="node23" class="node">
<title>Node23</title>
<g id="a_node23"><a xlink:title=" ">
<polygon fill="white" stroke="#bfbfbf" points="1687,-112.5 1687,-131.5 1755,-131.5 1755,-112.5 1687,-112.5"/>
<text text-anchor="middle" x="1721" y="-119.5" font-family="Helvetica,sans-Serif" font-size="10.00">filesystem</text>
</a>
</g>
</g>
<!-- Node21&#45;&gt;Node23 -->
<g id="edge31" class="edge">
<title>Node21&#45;&gt;Node23</title>
<path fill="none" stroke="midnightblue" d="M1416.35,-172.19C1470.78,-164.83 1576.9,-149.92 1676.81,-132.13"/>
<polygon fill="midnightblue" stroke="midnightblue" points="1677.54,-135.56 1686.77,-130.35 1676.31,-128.67 1677.54,-135.56"/>
</g>
<!-- Node24 -->
<g id="node24" class="node">
<title>Node24</title>
<g id="a_node24"><a xlink:title=" ">
<polygon fill="white" stroke="#bfbfbf" points="1773,-112.5 1773,-131.5 1831,-131.5 1831,-112.5 1773,-112.5"/>
<text text-anchor="middle" x="1802" y="-119.5" font-family="Helvetica,sans-Serif" font-size="10.00">memory</text>
</a>
</g>
</g>
<!-- Node21&#45;&gt;Node24 -->
<g id="edge36" class="edge">
<title>Node21&#45;&gt;Node24</title>
<path fill="none" stroke="midnightblue" d="M1416.2,-174.17C1482.87,-168.64 1629.69,-155.07 1762.66,-132.06"/>
<polygon fill="midnightblue" stroke="midnightblue" points="1763.37,-135.49 1772.61,-130.32 1762.16,-128.6 1763.37,-135.49"/>
</g>
<!-- Node25 -->
<g id="node25" class="node">
<title>Node25</title>
<g id="a_node25"><a xlink:title=" ">
<polygon fill="white" stroke="#bfbfbf" points="1425,-112.5 1425,-131.5 1473,-131.5 1473,-112.5 1425,-112.5"/>
<text text-anchor="middle" x="1449" y="-119.5" font-family="Helvetica,sans-Serif" font-size="10.00">mutex</text>
</a>
</g>
</g>
<!-- Node21&#45;&gt;Node25 -->
<g id="edge37" class="edge">
<title>Node21&#45;&gt;Node25</title>
<path fill="none" stroke="midnightblue" d="M1391.09,-168.32C1401.49,-160.18 1417.26,-147.84 1429.72,-138.09"/>
<polygon fill="midnightblue" stroke="midnightblue" points="1431.99,-140.75 1437.71,-131.83 1427.68,-135.24 1431.99,-140.75"/>
</g>
<!-- Node26 -->
<g id="node26" class="node">
<title>Node26</title>
<g id="a_node26"><a xlink:title=" ">
<polygon fill="white" stroke="#bfbfbf" points="1491,-112.5 1491,-131.5 1539,-131.5 1539,-112.5 1491,-112.5"/>
<text text-anchor="middle" x="1515" y="-119.5" font-family="Helvetica,sans-Serif" font-size="10.00">thread</text>
</a>
</g>
</g>
<!-- Node21&#45;&gt;Node26 -->
<g id="edge38" class="edge">
<title>Node21&#45;&gt;Node26</title>
<path fill="none" stroke="midnightblue" d="M1401.39,-168.44C1423.71,-159.52 1458.9,-145.44 1484.21,-135.32"/>
<polygon fill="midnightblue" stroke="midnightblue" points="1485.72,-138.48 1493.71,-131.52 1483.12,-131.98 1485.72,-138.48"/>
</g>
<!-- Node21&#45;&gt;Node27 -->
<g id="edge39" class="edge">
<title>Node21&#45;&gt;Node27</title>
<path fill="none" stroke="midnightblue" d="M1351.48,-168.44C1320.93,-159.28 1272.29,-144.69 1238.4,-134.52"/>
<polygon fill="midnightblue" stroke="midnightblue" points="1238.97,-131.04 1228.39,-131.52 1236.96,-137.74 1238.97,-131.04"/>
</g>
<!-- Node27&#45;&gt;Node4 -->
<g id="edge41" class="edge">
<title>Node27&#45;&gt;Node4</title>
<path fill="none" stroke="midnightblue" d="M1188.19,-112.49C1164.65,-95.6 1113.33,-59.2 1104,-56 1043.18,-35.14 597.56,-17.43 460.2,-12.42"/>
<polygon fill="midnightblue" stroke="midnightblue" points="460.22,-8.92 450.1,-12.05 459.97,-15.91 460.22,-8.92"/>
</g>
<!-- Node28 -->
<g id="node28" class="node">
<title>Node28</title>
<g id="a_node28"><a xlink:title=" ">
<polygon fill="white" stroke="#bfbfbf" points="1189,-56.5 1189,-75.5 1253,-75.5 1253,-56.5 1189,-56.5"/>
<text text-anchor="middle" x="1221" y="-63.5" font-family="Helvetica,sans-Serif" font-size="10.00">algorithm</text>
</a>
</g>
</g>
<!-- Node27&#45;&gt;Node28 -->
<g id="edge40" class="edge">
<title>Node27&#45;&gt;Node28</title>
<path fill="none" stroke="midnightblue" d="M1203.47,-112.08C1206.31,-104.77 1210.43,-94.18 1213.96,-85.1"/>
<polygon fill="midnightblue" stroke="midnightblue" points="1217.23,-86.34 1217.6,-75.75 1210.71,-83.8 1217.23,-86.34"/>
</g>
<!-- Node29 -->
<g id="node29" class="node">
<title>Node29</title>
<g id="a_node29"><a xlink:title=" ">
<polygon fill="white" stroke="#bfbfbf" points="1077.5,-0.5 1077.5,-19.5 1124.5,-19.5 1124.5,-0.5 1077.5,-0.5"/>
<text text-anchor="middle" x="1101" y="-7.5" font-family="Helvetica,sans-Serif" font-size="10.00">vector</text>
</a>
</g>
</g>
<!-- Node27&#45;&gt;Node29 -->
<g id="edge42" class="edge">
<title>Node27&#45;&gt;Node29</title>
<path fill="none" stroke="midnightblue" d="M1192.23,-112.37C1175.68,-93.97 1136.7,-50.67 1115.45,-27.05"/>
<polygon fill="midnightblue" stroke="midnightblue" points="1118.02,-24.68 1108.73,-19.59 1112.82,-29.37 1118.02,-24.68"/>
</g>
<!-- Node27&#45;&gt;Node30 -->
<g id="edge43" class="edge">
<title>Node27&#45;&gt;Node30</title>
<path fill="none" stroke="midnightblue" d="M1174.81,-112.44C1148.06,-103.36 1105.6,-88.94 1075.69,-78.78"/>
<polygon fill="midnightblue" stroke="midnightblue" points="1076.67,-75.42 1066.08,-75.52 1074.42,-82.05 1076.67,-75.42"/>
</g>
<!-- Node30&#45;&gt;Node3 -->
<g id="edge44" class="edge">
<title>Node30&#45;&gt;Node3</title>
<path fill="none" stroke="midnightblue" d="M991.72,-56.44C929.64,-45.66 824.3,-27.37 768.06,-17.61"/>
<polygon fill="midnightblue" stroke="midnightblue" points="768.6,-14.15 758.15,-15.89 767.4,-21.05 768.6,-14.15"/>
</g>
<!-- Node30&#45;&gt;Node4 -->
<g id="edge45" class="edge">
<title>Node30&#45;&gt;Node4</title>
<path fill="none" stroke="midnightblue" d="M987.26,-56.98C984.47,-56.64 981.7,-56.3 979,-56 785,-34.13 551.94,-18.91 460.05,-13.34"/>
<polygon fill="midnightblue" stroke="midnightblue" points="460.25,-9.85 450.06,-12.74 459.83,-16.84 460.25,-9.85"/>
</g>
<!-- Node30&#45;&gt;Node29 -->
<g id="edge46" class="edge">
<title>Node30&#45;&gt;Node29</title>
<path fill="none" stroke="midnightblue" d="M1050.64,-56.32C1059.51,-48.34 1072.87,-36.31 1083.61,-26.65"/>
<polygon fill="midnightblue" stroke="midnightblue" points="1086.09,-29.13 1091.18,-19.83 1081.41,-23.92 1086.09,-29.13"/>
</g>
<!-- Node31&#45;&gt;Node2 -->
<g id="edge52" class="edge">
<title>Node31&#45;&gt;Node2</title>
<path fill="none" stroke="midnightblue" d="M483.44,-228.27C426.17,-218.09 297.7,-190.13 206,-132 185.46,-118.98 166.34,-98.43 154.23,-83.93"/>
<polygon fill="midnightblue" stroke="midnightblue" points="156.66,-81.37 147.65,-75.8 151.22,-85.77 156.66,-81.37"/>
</g>
<!-- Node31&#45;&gt;Node8 -->
<g id="edge50" class="edge">
<title>Node31&#45;&gt;Node8</title>
<path fill="none" stroke="midnightblue" d="M497.9,-224.32C483.1,-215.82 460.31,-202.73 443.02,-192.8"/>
<polygon fill="midnightblue" stroke="midnightblue" points="444.48,-189.6 434.07,-187.65 440.99,-195.67 444.48,-189.6"/>
</g>
<!-- Node31&#45;&gt;Node12 -->
<g id="edge51" class="edge">
<title>Node31&#45;&gt;Node12</title>
<path fill="none" stroke="midnightblue" d="M513,-224.37C513,-206.62 513,-165.67 513,-141.6"/>
<polygon fill="midnightblue" stroke="midnightblue" points="516.5,-141.59 513,-131.59 509.5,-141.59 516.5,-141.59"/>
</g>
<!-- Node31&#45;&gt;Node16 -->
<g id="edge53" class="edge">
<title>Node31&#45;&gt;Node16</title>
<path fill="none" stroke="midnightblue" d="M516.29,-224.43C525.28,-202.21 552.45,-142.36 595,-112 642.32,-78.24 666.51,-91.03 726.4,-76.25"/>
<polygon fill="midnightblue" stroke="midnightblue" points="727.55,-79.57 736.33,-73.63 725.76,-72.8 727.55,-79.57"/>
</g>
<!-- Node32&#45;&gt;Node4 -->
<g id="edge56" class="edge">
<title>Node32&#45;&gt;Node4</title>
<path fill="none" stroke="midnightblue" d="M815.94,-224.48C796.52,-208.73 756.92,-172.91 742,-132 738.95,-123.65 737.99,-119.93 742,-112 754.2,-87.89 778.8,-100.11 791,-76 795.01,-68.07 796.89,-62.65 791,-56 769.32,-31.53 551.88,-17.7 460.31,-12.92"/>
<polygon fill="midnightblue" stroke="midnightblue" points="460.21,-9.41 450.04,-12.4 459.85,-16.4 460.21,-9.41"/>
</g>
<!-- Node32&#45;&gt;Node8 -->
<g id="edge59" class="edge">
<title>Node32&#45;&gt;Node8</title>
<path fill="none" stroke="midnightblue" d="M791.86,-228.35C721.65,-219.06 563.4,-198.11 477.36,-186.72"/>
<polygon fill="midnightblue" stroke="midnightblue" points="477.61,-183.23 467.24,-185.38 476.69,-190.17 477.61,-183.23"/>
</g>
<!-- Node32&#45;&gt;Node17 -->
<g id="edge65" class="edge">
<title>Node32&#45;&gt;Node17</title>
<path fill="none" stroke="midnightblue" d="M791.79,-228.48C765.29,-223.23 730.06,-211.97 709,-188 683.54,-159.02 679.49,-111.59 679.37,-85.56"/>
<polygon fill="midnightblue" stroke="midnightblue" points="682.87,-85.58 679.51,-75.53 675.87,-85.48 682.87,-85.58"/>
</g>
<!-- Node32&#45;&gt;Node27 -->
<g id="edge57" class="edge">
<title>Node32&#45;&gt;Node27</title>
<path fill="none" stroke="midnightblue" d="M857.13,-224.49C888.76,-215.53 939.93,-200.95 984,-188 1046.61,-169.61 1119.24,-147.62 1162.31,-134.51"/>
<polygon fill="midnightblue" stroke="midnightblue" points="1163.53,-137.79 1172.07,-131.53 1161.49,-131.1 1163.53,-137.79"/>
</g>
<!-- Node32&#45;&gt;Node30 -->
<g id="edge58" class="edge">
<title>Node32&#45;&gt;Node30</title>
<path fill="none" stroke="midnightblue" d="M825.17,-224.33C821.08,-202.38 813.73,-144.1 843,-112 852.36,-101.73 925.31,-87.04 979.97,-77.27"/>
<polygon fill="midnightblue" stroke="midnightblue" points="980.7,-80.69 989.94,-75.51 979.48,-73.8 980.7,-80.69"/>
</g>
<!-- Node33 -->
<g id="node33" class="node">
<title>Node33</title>
<g id="a_node33"><a xlink:title=" ">
<polygon fill="white" stroke="#bfbfbf" points="851.5,-112.5 851.5,-131.5 898.5,-131.5 898.5,-112.5 851.5,-112.5"/>
<text text-anchor="middle" x="875" y="-119.5" font-family="Helvetica,sans-Serif" font-size="10.00">cmath</text>
</a>
</g>
</g>
<!-- Node32&#45;&gt;Node33 -->
<g id="edge55" class="edge">
<title>Node32&#45;&gt;Node33</title>
<path fill="none" stroke="midnightblue" d="M830.77,-224.37C838.58,-206.46 856.71,-164.92 867.17,-140.95"/>
<polygon fill="midnightblue" stroke="midnightblue" points="870.46,-142.16 871.25,-131.59 864.04,-139.36 870.46,-142.16"/>
</g>
<!-- Node32&#45;&gt;Node34 -->
<g id="edge60" class="edge">
<title>Node32&#45;&gt;Node34</title>
<path fill="none" stroke="midnightblue" d="M843.23,-224.32C859.35,-215.7 884.3,-202.36 902.96,-192.39"/>
<polygon fill="midnightblue" stroke="midnightblue" points="904.64,-195.46 911.81,-187.65 901.34,-189.28 904.64,-195.46"/>
</g>
<!-- Node34&#45;&gt;Node11 -->
<g id="edge62" class="edge">
<title>Node34&#45;&gt;Node11</title>
<path fill="none" stroke="midnightblue" d="M933.2,-168.42C940.36,-155.41 951.27,-130.26 941,-112 932.78,-97.38 917.67,-86.95 903.24,-79.85"/>
<polygon fill="midnightblue" stroke="midnightblue" points="904.48,-76.57 893.93,-75.64 901.6,-82.95 904.48,-76.57"/>
</g>
<!-- Node34&#45;&gt;Node16 -->
<g id="edge61" class="edge">
<title>Node34&#45;&gt;Node16</title>
<path fill="none" stroke="midnightblue" d="M927.8,-168.1C927,-154.2 923.4,-127.32 908,-112 891.63,-95.71 830.69,-81.11 792,-73.21"/>
<polygon fill="midnightblue" stroke="midnightblue" points="792.23,-69.69 781.73,-71.16 790.86,-76.55 792.23,-69.69"/>
</g>
<!-- Node34&#45;&gt;Node27 -->
<g id="edge63" class="edge">
<title>Node34&#45;&gt;Node27</title>
<path fill="none" stroke="midnightblue" d="M971.1,-168.44C1018.85,-158.96 1095.86,-143.67 1147.19,-133.48"/>
<polygon fill="midnightblue" stroke="midnightblue" points="1147.98,-136.9 1157.1,-131.52 1146.61,-130.03 1147.98,-136.9"/>
</g>
<!-- Node34&#45;&gt;Node30 -->
<g id="edge64" class="edge">
<title>Node34&#45;&gt;Node30</title>
<path fill="none" stroke="midnightblue" d="M936.87,-168.37C955.85,-149.89 1000.64,-106.29 1024.83,-82.74"/>
<polygon fill="midnightblue" stroke="midnightblue" points="1027.45,-85.07 1032.17,-75.59 1022.57,-80.06 1027.45,-85.07"/>
</g>
<!-- Node35&#45;&gt;Node11 -->
<g id="edge69" class="edge">
<title>Node35&#45;&gt;Node11</title>
<path fill="none" stroke="midnightblue" d="M1054.46,-224.35C1040.4,-202.94 1001.3,-146.71 957,-112 939.71,-98.45 917.7,-87.36 899.77,-79.58"/>
<polygon fill="midnightblue" stroke="midnightblue" points="900.86,-76.24 890.29,-75.6 898.15,-82.69 900.86,-76.24"/>
</g>
<!-- Node35&#45;&gt;Node27 -->
<g id="edge70" class="edge">
<title>Node35&#45;&gt;Node27</title>
<path fill="none" stroke="midnightblue" d="M1087.57,-229.94C1131.98,-224.37 1216.19,-211.01 1234,-188 1245.97,-172.54 1231.35,-152.24 1217.73,-138.47"/>
<polygon fill="midnightblue" stroke="midnightblue" points="1220.1,-135.9 1210.44,-131.56 1215.29,-140.98 1220.1,-135.9"/>
</g>
<!-- Node35&#45;&gt;Node30 -->
<g id="edge75" class="edge">
<title>Node35&#45;&gt;Node30</title>
<path fill="none" stroke="midnightblue" d="M1058.98,-224.08C1055.99,-197.95 1047.2,-121.21 1043.13,-85.58"/>
<polygon fill="midnightblue" stroke="midnightblue" points="1046.6,-85.11 1041.98,-75.57 1039.64,-85.9 1046.6,-85.11"/>
</g>
<!-- Node35&#45;&gt;Node34 -->
<g id="edge68" class="edge">
<title>Node35&#45;&gt;Node34</title>
<path fill="none" stroke="midnightblue" d="M1039.08,-224.44C1017.26,-215.52 982.85,-201.44 958.11,-191.32"/>
<polygon fill="midnightblue" stroke="midnightblue" points="959.4,-188.06 948.82,-187.52 956.75,-194.54 959.4,-188.06"/>
</g>
<!-- Node35&#45;&gt;Node36 -->
<g id="edge71" class="edge">
<title>Node35&#45;&gt;Node36</title>
<path fill="none" stroke="midnightblue" d="M1077.03,-224.32C1094.03,-215.66 1120.38,-202.24 1139.99,-192.25"/>
<polygon fill="midnightblue" stroke="midnightblue" points="1141.69,-195.31 1149.01,-187.65 1138.51,-189.08 1141.69,-195.31"/>
</g>
<!-- Node36&#45;&gt;Node27 -->
<g id="edge73" class="edge">
<title>Node36&#45;&gt;Node27</title>
<path fill="none" stroke="midnightblue" d="M1171.61,-168.08C1176.37,-160.53 1183.32,-149.49 1189.15,-140.23"/>
<polygon fill="midnightblue" stroke="midnightblue" points="1192.12,-142.08 1194.49,-131.75 1186.2,-138.35 1192.12,-142.08"/>
</g>
<!-- Node36&#45;&gt;Node30 -->
<g id="edge74" class="edge">
<title>Node36&#45;&gt;Node30</title>
<path fill="none" stroke="midnightblue" d="M1156.12,-168.12C1142.13,-155.57 1115.7,-131.93 1093,-112 1081.64,-102.03 1068.81,-90.92 1058.73,-82.23"/>
<polygon fill="midnightblue" stroke="midnightblue" points="1060.87,-79.46 1051.01,-75.59 1056.3,-84.76 1060.87,-79.46"/>
</g>
<!-- Node36&#45;&gt;Node33 -->
<g id="edge72" class="edge">
<title>Node36&#45;&gt;Node33</title>
<path fill="none" stroke="midnightblue" d="M1119.89,-168.44C1061.12,-157.54 960.9,-138.94 908.76,-129.26"/>
<polygon fill="midnightblue" stroke="midnightblue" points="909.17,-125.78 898.7,-127.4 907.89,-132.66 909.17,-125.78"/>
</g>
</g>
</svg>
        <g id="navigator" transform="translate(0 0)" fill="#404254">
                <rect fill="#f2f5e9" fill-opacity="0.5" stroke="#606060" stroke-width=".5" x="0" y="0" width="60" height="60"/>
                <use id="zoomplus" xlink:href="#zoomPlus" x="17" y="9" onmousedown="handleZoom(evt,'in')"/>
                <use id="zoomminus" xlink:href="#zoomMin" x="42" y="9" onmousedown="handleZoom(evt,'out')"/>
                <use id="reset" xlink:href="#resetDef" x="30" y="36" onmousedown="handleReset()"/>
                <g id="arrowUp" xlink:href="#dirArrow" transform="translate(30 24)" onmousedown="handlePan(0,-1)">
                  <use xlink:href="#rim" fill="#404040">
                        <set attributeName="fill" to="#808080" begin="arrowUp.mouseover" end="arrowUp.mouseout"/>
                  </use>
                  <path fill="none" stroke="white" stroke-width="1.5" d="M0,-3.0v7 M-2.5,-0.5L0,-3.0L2.5,-0.5"/>
                </g>
                <g id="arrowRight" xlink:href="#dirArrow" transform="rotate(90) translate(36 -43)" onmousedown="handlePan(1,0)">
                  <use xlink:href="#rim" fill="#404040">
                        <set attributeName="fill" to="#808080" begin="arrowRight.mouseover" end="arrowRight.mouseout"/>
                  </use>
                  <path fill="none" stroke="white" stroke-width="1.5" d="M0,-3.0v7 M-2.5,-0.5L0,-3.0L2.5,-0.5"/>
                </g>
                <g id="arrowDown" xlink:href="#dirArrow" transform="rotate(180) translate(-30 -48)" onmousedown="handlePan(0,1)">
                  <use xlink:href="#rim" fill="#404040">
                        <set attributeName="fill" to="#808080" begin="arrowDown.mouseover" end="arrowDown.mouseout"/>
                  </use>
                  <path fill="none" stroke="white" stroke-width="1.5" d="M0,-3.0v7 M-2.5,-0.5L0,-3.0L2.5,-0.5"/>
                </g>
                <g id="arrowLeft" xlink:href="#dirArrow" transform="rotate(270) translate(-36 17)" onmousedown="handlePan(-1,0)">
                  <use xlink:href="#rim" fill="#404040">
                        <set attributeName="fill" to="#808080" begin="arrowLeft.mouseover" end="arrowLeft.mouseout"/>
                  </use>
                  <path fill="none" stroke="white" stroke-width="1.5" d="M0,-3.0v7 M-2.5,-0.5L0,-3.0L2.5,-0.5"/>
                </g>
        </g>
        <svg viewBox="0 0 15 15" width="100%" height="30px" preserveAspectRatio="xMaxYMin meet">
         <g id="arrow_out" transform="scale(0.3 0.3)">
          <a xlink:href="inlab5_8h__incl_org.svg" target="_base">
           <rect id="button" ry="5" rx="5" y="6" x="6" height="38" width="38"
                fill="#f2f5e9" fill-opacity="0.5" stroke="#606060" stroke-width="1.0"/>
           <path id="arrow"
             d="M 11.500037,31.436501 C 11.940474,20.09759 22.043105,11.32322 32.158766,21.979434 L 37.068811,17.246167 C 37.068811,17.246167 37.088388,32 37.088388,32 L 22.160133,31.978069 C 22.160133,31.978069 26.997745,27.140456 26.997745,27.140456 C 18.528582,18.264221 13.291696,25.230495 11.500037,31.436501 z"
             style="fill:#404040;"/>
          </a>
         </g>
        </svg>
</svg>
