<?xml version="1.0" encoding="UTF-8" standalone="no"?>
<!DOCTYPE svg PUBLIC "-//W3C//DTD SVG 1.1//EN"
 "http://www.w3.org/Graphics/SVG/1.1/DTD/svg11.dtd">
<!-- Generated by graphviz version 2.43.0 (0)
 -->
<!-- Title: src/labs/outlab2/Parser.h Pages: 1 -->
<!--zoomable 487 -->
<svg id="main" version="1.1" xmlns="http://www.w3.org/2000/svg" xmlns:xlink="http://www.w3.org/1999/xlink" xml:space="preserve" onload="init(evt)">
<style type="text/css"><![CDATA[
.edge:hover path { stroke: red; }
.edge:hover polygon { stroke: red; fill: red; }
]]></style>
<script type="text/javascript"><![CDATA[
var edges = document.getElementsByTagName('g');
if (edges && edges.length) {
  for (var i=0;i<edges.length;i++) {
    if (edges[i].id.substr(0,4)=='edge') {
      edges[i].setAttribute('class','edge');
    }
  }
}
]]></script>
        <defs>
                <circle id="rim" cx="0" cy="0" r="7"/>
                <circle id="rim2" cx="0" cy="0" r="3.5"/>
                <g id="zoomPlus">
                        <use xlink:href="#rim" fill="#404040">
                                <set attributeName="fill" to="#808080" begin="zoomplus.mouseover" end="zoomplus.mouseout"/>
                        </use>
                        <path d="M-4,0h8M0,-4v8" fill="none" stroke="white" stroke-width="1.5" pointer-events="none"/>
                </g>
                <g id="zoomMin">
                        <use xlink:href="#rim" fill="#404040">
                                <set attributeName="fill" to="#808080" begin="zoomminus.mouseover" end="zoomminus.mouseout"/>
                        </use>
                        <path d="M-4,0h8" fill="none" stroke="white" stroke-width="1.5" pointer-events="none"/>
                </g>
                <g id="dirArrow">
                        <path fill="none" stroke="white" stroke-width="1.5" d="M0,-3.0v7 M-2.5,-0.5L0,-3.0L2.5,-0.5"/>
                </g>
               <g id="resetDef">
                       <use xlink:href="#rim2" fill="#404040">
                               <set attributeName="fill" to="#808080" begin="reset.mouseover" end="reset.mouseout"/>
                       </use>
               </g>
        </defs>

<script type="text/javascript">
var viewWidth = 2029;
var viewHeight = 487;
var sectionId = 'dynsection-0';
</script>
<script xlink:href="../../svgpan.js"/>
<svg id="graph" class="graph">
<g id="viewport">
<title>src/labs/outlab2/Parser.h</title>
<polygon fill="white" stroke="transparent" points="-4,4 -4,-483 2025,-483 2025,4 -4,4"/>
<!-- Node1 -->
<g id="node1" class="node">
<title>Node1</title>
<g id="a_node1"><a xlink:title=" ">
<polygon fill="#bfbfbf" stroke="black" points="988.5,-459.5 988.5,-478.5 1123.5,-478.5 1123.5,-459.5 988.5,-459.5"/>
<text text-anchor="middle" x="1056" y="-466.5" font-family="Helvetica,sans-Serif" font-size="10.00">src/labs/outlab2/Parser.h</text>
</a>
</g>
</g>
<!-- Node2 -->
<g id="node2" class="node">
<title>Node2</title>
<g id="a_node2"><a xlink:title=" ">
<polygon fill="white" stroke="#bfbfbf" points="67,-0.5 67,-19.5 123,-19.5 123,-0.5 67,-0.5"/>
<text text-anchor="middle" x="95" y="-7.5" font-family="Helvetica,sans-Serif" font-size="10.00">iomanip</text>
</a>
</g>
</g>
<!-- Node1&#45;&gt;Node2 -->
<g id="edge1" class="edge">
<title>Node1&#45;&gt;Node2</title>
<path fill="none" stroke="midnightblue" d="M988.36,-466.78C784.94,-462.84 187.65,-449.14 104,-423 51.97,-406.74 0,-412.51 0,-358 0,-358 0,-358 0,-121 0,-77.74 42.61,-43.09 70.75,-24.91"/>
<polygon fill="midnightblue" stroke="midnightblue" points="72.66,-27.85 79.31,-19.6 68.97,-21.9 72.66,-27.85"/>
</g>
<!-- Node3 -->
<g id="node3" class="node">
<title>Node3</title>
<g id="a_node3"><a xlink:title=" ">
<polygon fill="white" stroke="#bfbfbf" points="653,-0.5 653,-19.5 713,-19.5 713,-0.5 653,-0.5"/>
<text text-anchor="middle" x="683" y="-7.5" font-family="Helvetica,sans-Serif" font-size="10.00">iostream</text>
</a>
</g>
</g>
<!-- Node1&#45;&gt;Node3 -->
<g id="edge2" class="edge">
<title>Node1&#45;&gt;Node3</title>
<path fill="none" stroke="midnightblue" d="M1123.86,-467.39C1343.51,-464.54 2021,-448.42 2021,-358 2021,-358 2021,-358 2021,-121 2021,-54.17 946.9,-18.79 723.43,-12.15"/>
<polygon fill="midnightblue" stroke="midnightblue" points="723.24,-8.65 713.14,-11.85 723.03,-15.64 723.24,-8.65"/>
</g>
<!-- Node4 -->
<g id="node4" class="node">
<title>Node4</title>
<g id="a_node4"><a xlink:title=" ">
<polygon fill="white" stroke="#bfbfbf" points="1411,-230 1411,-249 1455,-249 1455,-230 1411,-230"/>
<text text-anchor="middle" x="1433" y="-237" font-family="Helvetica,sans-Serif" font-size="10.00">string</text>
</a>
</g>
</g>
<!-- Node1&#45;&gt;Node4 -->
<g id="edge3" class="edge">
<title>Node1&#45;&gt;Node4</title>
<path fill="none" stroke="midnightblue" d="M1070.32,-459.36C1127.47,-424.87 1339.57,-296.88 1410.06,-254.35"/>
<polygon fill="midnightblue" stroke="midnightblue" points="1411.91,-257.31 1418.67,-249.15 1408.3,-251.32 1411.91,-257.31"/>
</g>
<!-- Node5 -->
<g id="node5" class="node">
<title>Node5</title>
<g id="a_node5"><a xlink:href="../../d0/d7d/CheckBounds_8h.html" target="_top" xlink:title="This file contains the declaration of functions for checking the validity of input parameters.">
<polygon fill="white" stroke="black" points="666,-403.5 666,-422.5 758,-422.5 758,-403.5 666,-403.5"/>
<text text-anchor="middle" x="712" y="-410.5" font-family="Helvetica,sans-Serif" font-size="10.00">CheckBounds.h</text>
</a>
</g>
</g>
<!-- Node1&#45;&gt;Node5 -->
<g id="edge4" class="edge">
<title>Node1&#45;&gt;Node5</title>
<path fill="none" stroke="midnightblue" d="M1001.49,-459.44C937.74,-449.44 832.74,-432.95 768.25,-422.83"/>
<polygon fill="midnightblue" stroke="midnightblue" points="768.68,-419.36 758.26,-421.26 767.6,-426.27 768.68,-419.36"/>
</g>
<!-- Node8 -->
<g id="node8" class="node">
<title>Node8</title>
<g id="a_node8"><a xlink:href="../../d9/d41/CommandLine_8h.html" target="_top" xlink:title="This file contains the definition of the CommandLine class and the HeaderInfo struct.">
<polygon fill="white" stroke="black" points="895,-347.5 895,-366.5 991,-366.5 991,-347.5 895,-347.5"/>
<text text-anchor="middle" x="943" y="-354.5" font-family="Helvetica,sans-Serif" font-size="10.00">CommandLine.h</text>
</a>
</g>
</g>
<!-- Node1&#45;&gt;Node8 -->
<g id="edge58" class="edge">
<title>Node1&#45;&gt;Node8</title>
<path fill="none" stroke="midnightblue" d="M1047.13,-459.37C1028.15,-440.89 983.36,-397.29 959.17,-373.74"/>
<polygon fill="midnightblue" stroke="midnightblue" points="961.43,-371.06 951.83,-366.59 956.55,-376.07 961.43,-371.06"/>
</g>
<!-- Node11 -->
<g id="node11" class="node">
<title>Node11</title>
<g id="a_node11"><a xlink:href="../../db/df1/Helpers_8h.html" target="_top" xlink:title="This file contains helper functions and structures used throughout the program.">
<polygon fill="white" stroke="black" points="1081.5,-291.5 1081.5,-310.5 1144.5,-310.5 1144.5,-291.5 1081.5,-291.5"/>
<text text-anchor="middle" x="1113" y="-298.5" font-family="Helvetica,sans-Serif" font-size="10.00">Helpers.h</text>
</a>
</g>
</g>
<!-- Node1&#45;&gt;Node11 -->
<g id="edge71" class="edge">
<title>Node1&#45;&gt;Node11</title>
<path fill="none" stroke="midnightblue" d="M1059.06,-459.08C1068.08,-432.83 1094.61,-355.55 1106.78,-320.12"/>
<polygon fill="midnightblue" stroke="midnightblue" points="1110.12,-321.16 1110.06,-310.57 1103.5,-318.89 1110.12,-321.16"/>
</g>
<!-- Node31 -->
<g id="node31" class="node">
<title>Node31</title>
<g id="a_node31"><a xlink:href="../../d7/de4/FileParser_8h.html" target="_top" xlink:title="This file contains the definitions for functions that handle file parsing operations.">
<polygon fill="white" stroke="black" points="1516,-291.5 1516,-310.5 1588,-310.5 1588,-291.5 1516,-291.5"/>
<text text-anchor="middle" x="1552" y="-298.5" font-family="Helvetica,sans-Serif" font-size="10.00">FileParser.h</text>
</a>
</g>
</g>
<!-- Node1&#45;&gt;Node31 -->
<g id="edge59" class="edge">
<title>Node1&#45;&gt;Node31</title>
<path fill="none" stroke="midnightblue" d="M1123.85,-463.01C1207.63,-456.15 1344.85,-442.4 1392,-423 1452.42,-398.14 1510.21,-344.74 1536.77,-317.98"/>
<polygon fill="midnightblue" stroke="midnightblue" points="1539.51,-320.19 1543.99,-310.59 1534.5,-315.3 1539.51,-320.19"/>
</g>
<!-- Node37 -->
<g id="node37" class="node">
<title>Node37</title>
<g id="a_node37"><a xlink:href="../../dc/db2/outlab2_2extern_2function_8h.html" target="_top" xlink:title="This file contains the declaration of a user&#45;defined function and a function to fill a vector with th...">
<polygon fill="white" stroke="black" points="123,-56.5 123,-75.5 223,-75.5 223,-56.5 123,-56.5"/>
<text text-anchor="middle" x="173" y="-63.5" font-family="Helvetica,sans-Serif" font-size="10.00">extern/function.h</text>
</a>
</g>
</g>
<!-- Node1&#45;&gt;Node37 -->
<g id="edge72" class="edge">
<title>Node1&#45;&gt;Node37</title>
<path fill="none" stroke="midnightblue" d="M988.42,-467.81C761.05,-466.28 38,-453.88 38,-358 38,-358 38,-358 38,-238.5 38,-166.76 111.83,-107.33 150.3,-81.24"/>
<polygon fill="midnightblue" stroke="midnightblue" points="152.39,-84.05 158.81,-75.62 148.53,-78.21 152.39,-84.05"/>
</g>
<!-- Node5&#45;&gt;Node2 -->
<g id="edge7" class="edge">
<title>Node5&#45;&gt;Node2</title>
<path fill="none" stroke="midnightblue" d="M665.75,-408.89C519.39,-398.45 76,-361.88 76,-302 76,-302 76,-302 76,-238.5 76,-157.35 69.31,-136.16 82,-56 83.41,-47.06 86.06,-37.4 88.59,-29.32"/>
<polygon fill="midnightblue" stroke="midnightblue" points="91.91,-30.41 91.75,-19.82 85.27,-28.2 91.91,-30.41"/>
</g>
<!-- Node5&#45;&gt;Node3 -->
<g id="edge6" class="edge">
<title>Node5&#45;&gt;Node3</title>
<path fill="none" stroke="midnightblue" d="M696.47,-403.37C661.7,-383.01 578.31,-328.12 549,-255 543.87,-242.21 544.91,-237.16 549,-224 560.87,-185.86 630.79,-110.45 651,-76 660.04,-60.59 668.9,-42.27 674.99,-29.02"/>
<polygon fill="midnightblue" stroke="midnightblue" points="678.31,-30.18 679.24,-19.62 671.93,-27.29 678.31,-30.18"/>
</g>
<!-- Node6 -->
<g id="node6" class="node">
<title>Node6</title>
<g id="a_node6"><a xlink:title=" ">
<polygon fill="white" stroke="#bfbfbf" points="792,-230 792,-249 942,-249 942,-230 792,-230"/>
<text text-anchor="middle" x="867" y="-237" font-family="Helvetica,sans-Serif" font-size="10.00">boost/program_options.hpp</text>
</a>
</g>
</g>
<!-- Node5&#45;&gt;Node6 -->
<g id="edge5" class="edge">
<title>Node5&#45;&gt;Node6</title>
<path fill="none" stroke="midnightblue" d="M730.31,-403.3C759.48,-388.49 816.31,-355.62 847,-311 857.69,-295.46 862.7,-274.28 865.03,-259.2"/>
<polygon fill="midnightblue" stroke="midnightblue" points="868.53,-259.42 866.34,-249.06 861.59,-258.53 868.53,-259.42"/>
</g>
<!-- Node7 -->
<g id="node7" class="node">
<title>Node7</title>
<g id="a_node7"><a xlink:title=" ">
<polygon fill="white" stroke="#bfbfbf" points="730,-230 730,-249 774,-249 774,-230 730,-230"/>
<text text-anchor="middle" x="752" y="-237" font-family="Helvetica,sans-Serif" font-size="10.00">limits</text>
</a>
</g>
</g>
<!-- Node5&#45;&gt;Node7 -->
<g id="edge8" class="edge">
<title>Node5&#45;&gt;Node7</title>
<path fill="none" stroke="midnightblue" d="M708.12,-403.35C699.54,-382.87 680.99,-330.19 698,-291 704.46,-276.12 717.69,-263.63 729.44,-254.79"/>
<polygon fill="midnightblue" stroke="midnightblue" points="731.47,-257.65 737.62,-249.02 727.43,-251.93 731.47,-257.65"/>
</g>
<!-- Node5&#45;&gt;Node8 -->
<g id="edge9" class="edge">
<title>Node5&#45;&gt;Node8</title>
<path fill="none" stroke="midnightblue" d="M748.6,-403.44C788.73,-394.06 853.2,-378.99 896.78,-368.8"/>
<polygon fill="midnightblue" stroke="midnightblue" points="897.63,-372.2 906.57,-366.52 896.03,-365.38 897.63,-372.2"/>
</g>
<!-- Node10 -->
<g id="node10" class="node">
<title>Node10</title>
<g id="a_node10"><a xlink:title=" ">
<polygon fill="white" stroke="#bfbfbf" points="654,-230 654,-249 712,-249 712,-230 654,-230"/>
<text text-anchor="middle" x="683" y="-237" font-family="Helvetica,sans-Serif" font-size="10.00">json.hpp</text>
</a>
</g>
</g>
<!-- Node5&#45;&gt;Node10 -->
<g id="edge57" class="edge">
<title>Node5&#45;&gt;Node10</title>
<path fill="none" stroke="midnightblue" d="M697.92,-403.26C686.65,-395.35 671.65,-382.58 665,-367 649.53,-330.76 664.19,-283.91 674.62,-258.62"/>
<polygon fill="midnightblue" stroke="midnightblue" points="677.94,-259.76 678.73,-249.2 671.53,-256.96 677.94,-259.76"/>
</g>
<!-- Node5&#45;&gt;Node11 -->
<g id="edge56" class="edge">
<title>Node5&#45;&gt;Node11</title>
<path fill="none" stroke="midnightblue" d="M758.16,-409.98C816.11,-406.28 917.9,-395.9 1000,-367 1034.93,-354.7 1071.37,-331.57 1093.12,-316.48"/>
<polygon fill="midnightblue" stroke="midnightblue" points="1095.35,-319.19 1101.5,-310.56 1091.31,-313.47 1095.35,-319.19"/>
</g>
<!-- Node8&#45;&gt;Node3 -->
<g id="edge54" class="edge">
<title>Node8&#45;&gt;Node3</title>
<path fill="none" stroke="midnightblue" d="M945.3,-347.23C951.83,-321.56 970,-244.28 970,-179 970,-179 970,-179 970,-121 970,-68.78 802.26,-32.11 723.25,-17.74"/>
<polygon fill="midnightblue" stroke="midnightblue" points="723.63,-14.25 713.17,-15.94 722.4,-21.14 723.63,-14.25"/>
</g>
<!-- Node8&#45;&gt;Node4 -->
<g id="edge55" class="edge">
<title>Node8&#45;&gt;Node4</title>
<path fill="none" stroke="midnightblue" d="M991.22,-349.08C1075.93,-336.11 1256.29,-304.88 1402,-255 1403.66,-254.43 1405.35,-253.8 1407.05,-253.13"/>
<polygon fill="midnightblue" stroke="midnightblue" points="1408.77,-256.2 1416.54,-249 1405.97,-249.78 1408.77,-256.2"/>
</g>
<!-- Node8&#45;&gt;Node6 -->
<g id="edge53" class="edge">
<title>Node8&#45;&gt;Node6</title>
<path fill="none" stroke="midnightblue" d="M937.29,-347.32C924.8,-328.34 894.87,-282.85 878.38,-257.79"/>
<polygon fill="midnightblue" stroke="midnightblue" points="881.2,-255.71 872.78,-249.28 875.35,-259.56 881.2,-255.71"/>
</g>
<!-- Node9 -->
<g id="node9" class="node">
<title>Node9</title>
<g id="a_node9"><a xlink:href="../../d2/d0e/CommandlineHelpers_8h.html" target="_top" xlink:title="This file contains helper functions for handling command line options and initializing the profiler.">
<polygon fill="white" stroke="black" points="707.5,-291.5 707.5,-310.5 838.5,-310.5 838.5,-291.5 707.5,-291.5"/>
<text text-anchor="middle" x="773" y="-298.5" font-family="Helvetica,sans-Serif" font-size="10.00">CommandlineHelpers.h</text>
</a>
</g>
</g>
<!-- Node8&#45;&gt;Node9 -->
<g id="edge10" class="edge">
<title>Node8&#45;&gt;Node9</title>
<path fill="none" stroke="midnightblue" d="M916.06,-347.44C887.34,-338.32 841.67,-323.81 809.68,-313.65"/>
<polygon fill="midnightblue" stroke="midnightblue" points="810.4,-310.21 799.81,-310.52 808.28,-316.88 810.4,-310.21"/>
</g>
<!-- Node8&#45;&gt;Node11 -->
<g id="edge14" class="edge">
<title>Node8&#45;&gt;Node11</title>
<path fill="none" stroke="midnightblue" d="M969.94,-347.44C998.66,-338.32 1044.33,-323.81 1076.32,-313.65"/>
<polygon fill="midnightblue" stroke="midnightblue" points="1077.72,-316.88 1086.19,-310.52 1075.6,-310.21 1077.72,-316.88"/>
</g>
<!-- Node14 -->
<g id="node14" class="node">
<title>Node14</title>
<g id="a_node14"><a xlink:href="../../df/d69/Profiler_8h.html" target="_top" xlink:title="This file contains the Profiler class which is used to profile the execution time of a function.">
<polygon fill="white" stroke="black" points="442.5,-291.5 442.5,-310.5 501.5,-310.5 501.5,-291.5 442.5,-291.5"/>
<text text-anchor="middle" x="472" y="-298.5" font-family="Helvetica,sans-Serif" font-size="10.00">Profiler.h</text>
</a>
</g>
</g>
<!-- Node8&#45;&gt;Node14 -->
<g id="edge22" class="edge">
<title>Node8&#45;&gt;Node14</title>
<path fill="none" stroke="midnightblue" d="M894.81,-350.47C801.52,-339.78 597.87,-316.43 511.73,-306.56"/>
<polygon fill="midnightblue" stroke="midnightblue" points="511.92,-303.05 501.59,-305.39 511.12,-310.01 511.92,-303.05"/>
</g>
<!-- Node30 -->
<g id="node30" class="node">
<title>Node30</title>
<g id="a_node30"><a xlink:title=" ">
<polygon fill="white" stroke="#bfbfbf" points="971,-291.5 971,-310.5 1063,-310.5 1063,-291.5 971,-291.5"/>
<text text-anchor="middle" x="1017" y="-298.5" font-family="Helvetica,sans-Serif" font-size="10.00">project&#45;config.h</text>
</a>
</g>
</g>
<!-- Node8&#45;&gt;Node30 -->
<g id="edge52" class="edge">
<title>Node8&#45;&gt;Node30</title>
<path fill="none" stroke="midnightblue" d="M954.89,-347.32C966.15,-339.11 983.29,-326.6 996.71,-316.81"/>
<polygon fill="midnightblue" stroke="midnightblue" points="998.88,-319.56 1004.89,-310.83 994.75,-313.9 998.88,-319.56"/>
</g>
<!-- Node9&#45;&gt;Node5 -->
<g id="edge11" class="edge">
<title>Node9&#45;&gt;Node5</title>
<path fill="none" stroke="midnightblue" d="M768.24,-310.59C758.28,-328.55 735.09,-370.37 721.8,-394.32"/>
<polygon fill="midnightblue" stroke="midnightblue" points="718.58,-392.93 716.79,-403.37 724.7,-396.32 718.58,-392.93"/>
</g>
<!-- Node9&#45;&gt;Node6 -->
<g id="edge13" class="edge">
<title>Node9&#45;&gt;Node6</title>
<path fill="none" stroke="midnightblue" d="M786.47,-291.48C801.68,-281.84 826.69,-266.02 844.8,-254.55"/>
<polygon fill="midnightblue" stroke="midnightblue" points="846.98,-257.31 853.56,-249.01 843.24,-251.4 846.98,-257.31"/>
</g>
<!-- Node9&#45;&gt;Node10 -->
<g id="edge12" class="edge">
<title>Node9&#45;&gt;Node10</title>
<path fill="none" stroke="midnightblue" d="M760.11,-291.48C745.54,-281.84 721.6,-266.02 704.25,-254.55"/>
<polygon fill="midnightblue" stroke="midnightblue" points="706.14,-251.6 695.87,-249.01 702.28,-257.44 706.14,-251.6"/>
</g>
<!-- Node11&#45;&gt;Node2 -->
<g id="edge15" class="edge">
<title>Node11&#45;&gt;Node2</title>
<path fill="none" stroke="midnightblue" d="M1094.8,-291.42C1077.1,-282.85 1049.65,-268.99 1027,-255 1006.96,-242.62 1004.2,-236.13 984,-224 935.6,-194.95 922.07,-189.81 870,-168 731.02,-109.79 697.13,-88.53 550,-56 398.25,-22.44 212.48,-13.89 133.48,-11.73"/>
<polygon fill="midnightblue" stroke="midnightblue" points="133.15,-8.22 123.06,-11.46 132.97,-15.22 133.15,-8.22"/>
</g>
<!-- Node11&#45;&gt;Node3 -->
<g id="edge16" class="edge">
<title>Node11&#45;&gt;Node3</title>
<path fill="none" stroke="midnightblue" d="M1125.01,-291.37C1135.53,-283.18 1150.44,-269.92 1159,-255 1176.32,-224.8 1178,-213.82 1178,-179 1178,-179 1178,-179 1178,-121 1178,-28.07 841.32,-13.6 723.29,-11.39"/>
<polygon fill="midnightblue" stroke="midnightblue" points="723.28,-7.89 713.22,-11.22 723.16,-14.89 723.28,-7.89"/>
</g>
<!-- Node11&#45;&gt;Node6 -->
<g id="edge19" class="edge">
<title>Node11&#45;&gt;Node6</title>
<path fill="none" stroke="midnightblue" d="M1081.34,-292.34C1038.37,-281.95 961.31,-263.31 912.24,-251.44"/>
<polygon fill="midnightblue" stroke="midnightblue" points="913.06,-248.04 902.51,-249.09 911.41,-254.84 913.06,-248.04"/>
</g>
<!-- Node11&#45;&gt;Node7 -->
<g id="edge17" class="edge">
<title>Node11&#45;&gt;Node7</title>
<path fill="none" stroke="midnightblue" d="M1081.27,-292.73C1078.15,-292.11 1075.02,-291.52 1072,-291 944.43,-269.1 907.37,-290.86 783,-255 781.07,-254.44 779.12,-253.78 777.17,-253.05"/>
<polygon fill="midnightblue" stroke="midnightblue" points="778.29,-249.73 767.72,-249.01 775.54,-256.16 778.29,-249.73"/>
</g>
<!-- Node11&#45;&gt;Node10 -->
<g id="edge18" class="edge">
<title>Node11&#45;&gt;Node10</title>
<path fill="none" stroke="midnightblue" d="M1081.28,-292.66C1078.16,-292.05 1075.02,-291.49 1072,-291 917.16,-266.15 873.57,-291.26 721,-255 718.01,-254.29 714.93,-253.4 711.88,-252.41"/>
<polygon fill="midnightblue" stroke="midnightblue" points="713.01,-249.1 702.41,-249.03 710.65,-255.69 713.01,-249.1"/>
</g>
<!-- Node12 -->
<g id="node12" class="node">
<title>Node12</title>
<g id="a_node12"><a xlink:title=" ">
<polygon fill="white" stroke="#bfbfbf" points="1279.5,-224.5 1279.5,-254.5 1392.5,-254.5 1392.5,-224.5 1279.5,-224.5"/>
<text text-anchor="start" x="1287.5" y="-242.5" font-family="Helvetica,sans-Serif" font-size="10.00">boost/accumulators</text>
<text text-anchor="middle" x="1336" y="-231.5" font-family="Helvetica,sans-Serif" font-size="10.00">/accumulators.hpp</text>
</a>
</g>
</g>
<!-- Node11&#45;&gt;Node12 -->
<g id="edge20" class="edge">
<title>Node11&#45;&gt;Node12</title>
<path fill="none" stroke="midnightblue" d="M1144.95,-291.48C1178.4,-282.55 1231.78,-268.31 1273.62,-257.14"/>
<polygon fill="midnightblue" stroke="midnightblue" points="1274.68,-260.48 1283.44,-254.52 1272.88,-253.72 1274.68,-260.48"/>
</g>
<!-- Node13 -->
<g id="node13" class="node">
<title>Node13</title>
<g id="a_node13"><a xlink:title=" ">
<polygon fill="white" stroke="#bfbfbf" points="1036.5,-224.5 1036.5,-254.5 1149.5,-254.5 1149.5,-224.5 1036.5,-224.5"/>
<text text-anchor="start" x="1044.5" y="-242.5" font-family="Helvetica,sans-Serif" font-size="10.00">boost/accumulators</text>
<text text-anchor="middle" x="1093" y="-231.5" font-family="Helvetica,sans-Serif" font-size="10.00">/statistics.hpp</text>
</a>
</g>
</g>
<!-- Node11&#45;&gt;Node13 -->
<g id="edge21" class="edge">
<title>Node11&#45;&gt;Node13</title>
<path fill="none" stroke="midnightblue" d="M1110.13,-291.48C1107.73,-284.32 1104.18,-273.75 1100.93,-264.08"/>
<polygon fill="midnightblue" stroke="midnightblue" points="1104.22,-262.89 1097.71,-254.52 1097.58,-265.12 1104.22,-262.89"/>
</g>
<!-- Node14&#45;&gt;Node2 -->
<g id="edge25" class="edge">
<title>Node14&#45;&gt;Node2</title>
<path fill="none" stroke="midnightblue" d="M442.45,-300.42C368.19,-300.82 176.57,-297.6 133,-255 70.55,-193.94 83.43,-75.53 91.3,-29.72"/>
<polygon fill="midnightblue" stroke="midnightblue" points="94.77,-30.19 93.14,-19.72 87.88,-28.92 94.77,-30.19"/>
</g>
<!-- Node14&#45;&gt;Node3 -->
<g id="edge26" class="edge">
<title>Node14&#45;&gt;Node3</title>
<path fill="none" stroke="midnightblue" d="M476.51,-291.33C484.08,-276.96 500.11,-247.49 516,-224 567.95,-147.22 639.01,-62.28 668.87,-27.36"/>
<polygon fill="midnightblue" stroke="midnightblue" points="671.68,-29.46 675.54,-19.59 666.37,-24.9 671.68,-29.46"/>
</g>
<!-- Node14&#45;&gt;Node5 -->
<g id="edge29" class="edge">
<title>Node14&#45;&gt;Node5</title>
<path fill="none" stroke="midnightblue" d="M475.38,-310.71C481.34,-324.85 495.09,-352.67 516,-367 557.37,-395.35 614.03,-406.05 655.79,-409.99"/>
<polygon fill="midnightblue" stroke="midnightblue" points="655.54,-413.48 665.8,-410.83 656.13,-406.5 655.54,-413.48"/>
</g>
<!-- Node14&#45;&gt;Node10 -->
<g id="edge32" class="edge">
<title>Node14&#45;&gt;Node10</title>
<path fill="none" stroke="midnightblue" d="M501.78,-293.17C536.28,-285.03 594.7,-270.57 644,-255 646.56,-254.19 649.2,-253.31 651.84,-252.4"/>
<polygon fill="midnightblue" stroke="midnightblue" points="653.04,-255.69 661.27,-249.02 650.67,-249.1 653.04,-255.69"/>
</g>
<!-- Node15 -->
<g id="node15" class="node">
<title>Node15</title>
<g id="a_node15"><a xlink:title=" ">
<polygon fill="white" stroke="#bfbfbf" points="1206.5,-230 1206.5,-249 1261.5,-249 1261.5,-230 1206.5,-230"/>
<text text-anchor="middle" x="1234" y="-237" font-family="Helvetica,sans-Serif" font-size="10.00">fstream</text>
</a>
</g>
</g>
<!-- Node14&#45;&gt;Node15 -->
<g id="edge23" class="edge">
<title>Node14&#45;&gt;Node15</title>
<path fill="none" stroke="midnightblue" d="M501.59,-298.56C615.9,-292.91 1028.75,-271.79 1159,-255 1171.21,-253.43 1184.42,-251.09 1196.31,-248.75"/>
<polygon fill="midnightblue" stroke="midnightblue" points="1197.25,-252.13 1206.35,-246.71 1195.86,-245.27 1197.25,-252.13"/>
</g>
<!-- Node16 -->
<g id="node16" class="node">
<title>Node16</title>
<g id="a_node16"><a xlink:title=" ">
<polygon fill="white" stroke="#bfbfbf" points="398.5,-230 398.5,-249 463.5,-249 463.5,-230 398.5,-230"/>
<text text-anchor="middle" x="431" y="-237" font-family="Helvetica,sans-Serif" font-size="10.00">functional</text>
</a>
</g>
</g>
<!-- Node14&#45;&gt;Node16 -->
<g id="edge24" class="edge">
<title>Node14&#45;&gt;Node16</title>
<path fill="none" stroke="midnightblue" d="M466.13,-291.48C460.04,-282.64 450.36,-268.59 442.7,-257.48"/>
<polygon fill="midnightblue" stroke="midnightblue" points="445.42,-255.26 436.86,-249.01 439.66,-259.23 445.42,-255.26"/>
</g>
<!-- Node17 -->
<g id="node17" class="node">
<title>Node17</title>
<g id="a_node17"><a xlink:title=" ">
<polygon fill="white" stroke="#bfbfbf" points="142,-230 142,-249 196,-249 196,-230 142,-230"/>
<text text-anchor="middle" x="169" y="-237" font-family="Helvetica,sans-Serif" font-size="10.00">random</text>
</a>
</g>
</g>
<!-- Node14&#45;&gt;Node17 -->
<g id="edge27" class="edge">
<title>Node14&#45;&gt;Node17</title>
<path fill="none" stroke="midnightblue" d="M442.31,-297.11C392.52,-291.81 289.38,-278.8 205,-255 202.56,-254.31 200.06,-253.51 197.57,-252.65"/>
<polygon fill="midnightblue" stroke="midnightblue" points="198.76,-249.36 188.16,-249.11 196.29,-255.91 198.76,-249.36"/>
</g>
<!-- Node18 -->
<g id="node18" class="node">
<title>Node18</title>
<g id="a_node18"><a xlink:title=" ">
<polygon fill="white" stroke="#bfbfbf" points="214.5,-230 214.5,-249 259.5,-249 259.5,-230 214.5,-230"/>
<text text-anchor="middle" x="237" y="-237" font-family="Helvetica,sans-Serif" font-size="10.00">utility</text>
</a>
</g>
</g>
<!-- Node14&#45;&gt;Node18 -->
<g id="edge28" class="edge">
<title>Node14&#45;&gt;Node18</title>
<path fill="none" stroke="midnightblue" d="M442.23,-295.39C402.2,-288.75 329.1,-275.04 269,-255 267.33,-254.44 265.63,-253.83 263.93,-253.17"/>
<polygon fill="midnightblue" stroke="midnightblue" points="264.92,-249.79 254.34,-249.15 262.21,-256.25 264.92,-249.79"/>
</g>
<!-- Node19 -->
<g id="node19" class="node">
<title>Node19</title>
<g id="a_node19"><a xlink:href="../../d4/d2e/Stopwatch_8h.html" target="_top" xlink:title="This file contains the Stopwatch class which is a utility for measuring time durations in various uni...">
<polygon fill="white" stroke="black" points="558.5,-230 558.5,-249 635.5,-249 635.5,-230 558.5,-230"/>
<text text-anchor="middle" x="597" y="-237" font-family="Helvetica,sans-Serif" font-size="10.00">Stopwatch.h</text>
</a>
</g>
</g>
<!-- Node14&#45;&gt;Node19 -->
<g id="edge30" class="edge">
<title>Node14&#45;&gt;Node19</title>
<path fill="none" stroke="midnightblue" d="M489.91,-291.48C510.89,-281.49 545.85,-264.85 570.09,-253.31"/>
<polygon fill="midnightblue" stroke="midnightblue" points="571.6,-256.47 579.12,-249.01 568.59,-250.15 571.6,-256.47"/>
</g>
<!-- Node21 -->
<g id="node21" class="node">
<title>Node21</title>
<g id="a_node21"><a xlink:href="../../dc/d09/Stats_8h.html" target="_top" xlink:title="This file contains the declaration of statistical functions and structures for vectors and matrices.">
<polygon fill="white" stroke="black" points="278,-230 278,-249 380,-249 380,-230 278,-230"/>
<text text-anchor="middle" x="329" y="-237" font-family="Helvetica,sans-Serif" font-size="10.00">math/blas/Stats.h</text>
</a>
</g>
</g>
<!-- Node14&#45;&gt;Node21 -->
<g id="edge33" class="edge">
<title>Node14&#45;&gt;Node21</title>
<path fill="none" stroke="midnightblue" d="M451.51,-291.48C427.19,-281.36 386.45,-264.4 358.68,-252.85"/>
<polygon fill="midnightblue" stroke="midnightblue" points="360.03,-249.62 349.45,-249.01 357.34,-256.08 360.03,-249.62"/>
</g>
<!-- Node20 -->
<g id="node20" class="node">
<title>Node20</title>
<g id="a_node20"><a xlink:title=" ">
<polygon fill="white" stroke="#bfbfbf" points="811,-168.5 811,-187.5 861,-187.5 861,-168.5 811,-168.5"/>
<text text-anchor="middle" x="836" y="-175.5" font-family="Helvetica,sans-Serif" font-size="10.00">chrono</text>
</a>
</g>
</g>
<!-- Node19&#45;&gt;Node20 -->
<g id="edge31" class="edge">
<title>Node19&#45;&gt;Node20</title>
<path fill="none" stroke="midnightblue" d="M624.33,-229.92C631.06,-227.9 638.27,-225.81 645,-224 698.98,-209.5 762.23,-195.1 800.69,-186.63"/>
<polygon fill="midnightblue" stroke="midnightblue" points="801.83,-189.96 810.85,-184.4 800.33,-183.13 801.83,-189.96"/>
</g>
<!-- Node22 -->
<g id="node22" class="node">
<title>Node22</title>
<g id="a_node22"><a xlink:title=" ">
<polygon fill="white" stroke="#bfbfbf" points="477,-56.5 477,-75.5 541,-75.5 541,-56.5 477,-56.5"/>
<text text-anchor="middle" x="509" y="-63.5" font-family="Helvetica,sans-Serif" font-size="10.00">algorithm</text>
</a>
</g>
</g>
<!-- Node21&#45;&gt;Node22 -->
<g id="edge34" class="edge">
<title>Node21&#45;&gt;Node22</title>
<path fill="none" stroke="midnightblue" d="M359.9,-229.93C402.59,-217.89 475.43,-196.47 485,-188 511.73,-164.34 511.79,-147.69 511,-112 510.81,-103.39 510.41,-93.86 510.02,-85.8"/>
<polygon fill="midnightblue" stroke="midnightblue" points="513.51,-85.43 509.5,-75.62 506.52,-85.79 513.51,-85.43"/>
</g>
<!-- Node23 -->
<g id="node23" class="node">
<title>Node23</title>
<g id="a_node23"><a xlink:title=" ">
<polygon fill="white" stroke="#bfbfbf" points="455.5,-112.5 455.5,-131.5 502.5,-131.5 502.5,-112.5 455.5,-112.5"/>
<text text-anchor="middle" x="479" y="-119.5" font-family="Helvetica,sans-Serif" font-size="10.00">cmath</text>
</a>
</g>
</g>
<!-- Node21&#45;&gt;Node23 -->
<g id="edge35" class="edge">
<title>Node21&#45;&gt;Node23</title>
<path fill="none" stroke="midnightblue" d="M363.47,-229.92C399.42,-220.28 452.41,-203.89 466,-188 476.86,-175.3 479.58,-156.1 479.91,-141.86"/>
<polygon fill="midnightblue" stroke="midnightblue" points="483.4,-141.66 479.76,-131.71 476.4,-141.76 483.4,-141.66"/>
</g>
<!-- Node24 -->
<g id="node24" class="node">
<title>Node24</title>
<g id="a_node24"><a xlink:title=" ">
<polygon fill="white" stroke="#bfbfbf" points="257,-168.5 257,-187.5 313,-187.5 313,-168.5 257,-168.5"/>
<text text-anchor="middle" x="285" y="-175.5" font-family="Helvetica,sans-Serif" font-size="10.00">numeric</text>
</a>
</g>
</g>
<!-- Node21&#45;&gt;Node24 -->
<g id="edge36" class="edge">
<title>Node21&#45;&gt;Node24</title>
<path fill="none" stroke="midnightblue" d="M322.7,-229.98C316.1,-221.05 305.56,-206.81 297.31,-195.64"/>
<polygon fill="midnightblue" stroke="midnightblue" points="300.05,-193.47 291.29,-187.51 294.42,-197.63 300.05,-193.47"/>
</g>
<!-- Node25 -->
<g id="node25" class="node">
<title>Node25</title>
<g id="a_node25"><a xlink:title=" ">
<polygon fill="white" stroke="#bfbfbf" points="331.5,-168.5 331.5,-187.5 388.5,-187.5 388.5,-168.5 331.5,-168.5"/>
<text text-anchor="middle" x="360" y="-175.5" font-family="Helvetica,sans-Serif" font-size="10.00">ostream</text>
</a>
</g>
</g>
<!-- Node21&#45;&gt;Node25 -->
<g id="edge37" class="edge">
<title>Node21&#45;&gt;Node25</title>
<path fill="none" stroke="midnightblue" d="M333.44,-229.98C337.95,-221.32 345.07,-207.65 350.81,-196.65"/>
<polygon fill="midnightblue" stroke="midnightblue" points="354.05,-197.99 355.57,-187.51 347.84,-194.76 354.05,-197.99"/>
</g>
<!-- Node26 -->
<g id="node26" class="node">
<title>Node26</title>
<g id="a_node26"><a xlink:title=" ">
<polygon fill="white" stroke="#bfbfbf" points="338.5,-0.5 338.5,-19.5 385.5,-19.5 385.5,-0.5 338.5,-0.5"/>
<text text-anchor="middle" x="362" y="-7.5" font-family="Helvetica,sans-Serif" font-size="10.00">vector</text>
</a>
</g>
</g>
<!-- Node21&#45;&gt;Node26 -->
<g id="edge38" class="edge">
<title>Node21&#45;&gt;Node26</title>
<path fill="none" stroke="midnightblue" d="M362.22,-229.96C412.45,-216.92 502.53,-193.03 508,-188 547.13,-152.02 540.51,-128.31 550,-76 551.59,-67.25 555.51,-62.98 550,-56 531.17,-32.13 444.8,-19.5 395.94,-14.17"/>
<polygon fill="midnightblue" stroke="midnightblue" points="396.15,-10.67 385.84,-13.11 395.42,-17.63 396.15,-10.67"/>
</g>
<!-- Node27 -->
<g id="node27" class="node">
<title>Node27</title>
<g id="a_node27"><a xlink:href="../../d1/d80/BLAS_8h.html" target="_top" xlink:title=" ">
<polygon fill="white" stroke="black" points="406.5,-168.5 406.5,-187.5 457.5,-187.5 457.5,-168.5 406.5,-168.5"/>
<text text-anchor="middle" x="432" y="-175.5" font-family="Helvetica,sans-Serif" font-size="10.00">BLAS.h</text>
</a>
</g>
</g>
<!-- Node21&#45;&gt;Node27 -->
<g id="edge39" class="edge">
<title>Node21&#45;&gt;Node27</title>
<path fill="none" stroke="midnightblue" d="M343.76,-229.98C360.66,-220.21 388.58,-204.08 408.49,-192.58"/>
<polygon fill="midnightblue" stroke="midnightblue" points="410.36,-195.54 417.27,-187.51 406.86,-189.48 410.36,-195.54"/>
</g>
<!-- Node28 -->
<g id="node28" class="node">
<title>Node28</title>
<g id="a_node28"><a xlink:href="../../d3/db1/Matrix_8h.html" target="_top" xlink:title="This file contains my BLAS::Matrix declarations.">
<polygon fill="white" stroke="black" points="293,-112.5 293,-131.5 437,-131.5 437,-112.5 293,-112.5"/>
<text text-anchor="middle" x="365" y="-119.5" font-family="Helvetica,sans-Serif" font-size="10.00">math/blas/matrix/Matrix.h</text>
</a>
</g>
</g>
<!-- Node21&#45;&gt;Node28 -->
<g id="edge50" class="edge">
<title>Node21&#45;&gt;Node28</title>
<path fill="none" stroke="midnightblue" d="M304.51,-229.97C274.42,-218.09 229.48,-194.97 248,-168 259.17,-151.73 277.11,-141.34 295.63,-134.71"/>
<polygon fill="midnightblue" stroke="midnightblue" points="296.89,-137.98 305.32,-131.57 294.73,-131.32 296.89,-137.98"/>
</g>
<!-- Node29 -->
<g id="node29" class="node">
<title>Node29</title>
<g id="a_node29"><a xlink:href="../../d6/dbe/Vector_8h.html" target="_top" xlink:title="This file contains my BLAS::Vector implementation.">
<polygon fill="white" stroke="black" points="241.5,-56.5 241.5,-75.5 382.5,-75.5 382.5,-56.5 241.5,-56.5"/>
<text text-anchor="middle" x="312" y="-63.5" font-family="Helvetica,sans-Serif" font-size="10.00">math/blas/vector/Vector.h</text>
</a>
</g>
</g>
<!-- Node21&#45;&gt;Node29 -->
<g id="edge51" class="edge">
<title>Node21&#45;&gt;Node29</title>
<path fill="none" stroke="midnightblue" d="M298.01,-229.87C277.6,-222.39 252.43,-209.34 240,-188 217.7,-149.71 263.07,-104.99 291.47,-82.13"/>
<polygon fill="midnightblue" stroke="midnightblue" points="293.9,-84.68 299.64,-75.77 289.6,-79.15 293.9,-84.68"/>
</g>
<!-- Node27&#45;&gt;Node23 -->
<g id="edge40" class="edge">
<title>Node27&#45;&gt;Node23</title>
<path fill="none" stroke="midnightblue" d="M439.76,-168.08C446.54,-160.3 456.54,-148.8 464.76,-139.37"/>
<polygon fill="midnightblue" stroke="midnightblue" points="467.46,-141.59 471.38,-131.75 462.18,-137 467.46,-141.59"/>
</g>
<!-- Node27&#45;&gt;Node28 -->
<g id="edge41" class="edge">
<title>Node27&#45;&gt;Node28</title>
<path fill="none" stroke="midnightblue" d="M421.24,-168.32C411.23,-160.26 396.11,-148.08 384.07,-138.37"/>
<polygon fill="midnightblue" stroke="midnightblue" points="385.94,-135.38 375.96,-131.83 381.55,-140.83 385.94,-135.38"/>
</g>
<!-- Node27&#45;&gt;Node29 -->
<g id="edge49" class="edge">
<title>Node27&#45;&gt;Node29</title>
<path fill="none" stroke="midnightblue" d="M406.36,-170.05C364.99,-158.73 287.74,-137.04 284,-132 272.97,-117.12 284.64,-97.23 296.09,-83.39"/>
<polygon fill="midnightblue" stroke="midnightblue" points="298.95,-85.44 303,-75.65 293.73,-80.78 298.95,-85.44"/>
</g>
<!-- Node28&#45;&gt;Node3 -->
<g id="edge43" class="edge">
<title>Node28&#45;&gt;Node3</title>
<path fill="none" stroke="midnightblue" d="M375.71,-112.39C393.69,-98.38 431.54,-70.76 468,-56 526.25,-32.42 598.6,-20.55 642.75,-15.09"/>
<polygon fill="midnightblue" stroke="midnightblue" points="643.29,-18.55 652.81,-13.89 642.47,-11.6 643.29,-18.55"/>
</g>
<!-- Node28&#45;&gt;Node22 -->
<g id="edge42" class="edge">
<title>Node28&#45;&gt;Node22</title>
<path fill="none" stroke="midnightblue" d="M387.82,-112.44C411.83,-103.44 449.83,-89.19 476.87,-79.05"/>
<polygon fill="midnightblue" stroke="midnightblue" points="478.16,-82.3 486.29,-75.52 475.7,-75.75 478.16,-82.3"/>
</g>
<!-- Node28&#45;&gt;Node26 -->
<g id="edge44" class="edge">
<title>Node28&#45;&gt;Node26</title>
<path fill="none" stroke="midnightblue" d="M372.47,-112.35C382.15,-100.07 397.11,-76.75 391,-56 387.99,-45.76 381.85,-35.66 375.99,-27.63"/>
<polygon fill="midnightblue" stroke="midnightblue" points="378.59,-25.27 369.67,-19.54 373.07,-29.58 378.59,-25.27"/>
</g>
<!-- Node28&#45;&gt;Node29 -->
<g id="edge45" class="edge">
<title>Node28&#45;&gt;Node29</title>
<path fill="none" stroke="midnightblue" d="M356.25,-112.08C348.53,-104.22 337.1,-92.57 327.78,-83.08"/>
<polygon fill="midnightblue" stroke="midnightblue" points="330.09,-80.44 320.59,-75.75 325.1,-85.34 330.09,-80.44"/>
</g>
<!-- Node29&#45;&gt;Node2 -->
<g id="edge46" class="edge">
<title>Node29&#45;&gt;Node2</title>
<path fill="none" stroke="midnightblue" d="M277.62,-56.44C238.17,-46.63 173.7,-30.59 132.86,-20.42"/>
<polygon fill="midnightblue" stroke="midnightblue" points="133.56,-16.99 123.01,-17.97 131.87,-23.78 133.56,-16.99"/>
</g>
<!-- Node29&#45;&gt;Node3 -->
<g id="edge47" class="edge">
<title>Node29&#45;&gt;Node3</title>
<path fill="none" stroke="midnightblue" d="M370.79,-56.44C446.81,-45.38 577.23,-26.39 642.83,-16.85"/>
<polygon fill="midnightblue" stroke="midnightblue" points="643.4,-20.3 652.79,-15.4 642.39,-13.37 643.4,-20.3"/>
</g>
<!-- Node29&#45;&gt;Node26 -->
<g id="edge48" class="edge">
<title>Node29&#45;&gt;Node26</title>
<path fill="none" stroke="midnightblue" d="M320.26,-56.08C327.46,-48.3 338.11,-36.8 346.85,-27.37"/>
<polygon fill="midnightblue" stroke="midnightblue" points="349.67,-29.47 353.9,-19.75 344.53,-24.71 349.67,-29.47"/>
</g>
<!-- Node31&#45;&gt;Node3 -->
<g id="edge63" class="edge">
<title>Node31&#45;&gt;Node3</title>
<path fill="none" stroke="midnightblue" d="M1588.08,-298.93C1622.15,-295.93 1672.34,-286.07 1702,-255 1726.04,-229.81 1721,-213.82 1721,-179 1721,-179 1721,-179 1721,-121 1721,-18.79 914.82,-11.3 723.41,-10.96"/>
<polygon fill="midnightblue" stroke="midnightblue" points="723.23,-7.46 713.22,-10.95 723.22,-14.46 723.23,-7.46"/>
</g>
<!-- Node31&#45;&gt;Node4 -->
<g id="edge64" class="edge">
<title>Node31&#45;&gt;Node4</title>
<path fill="none" stroke="midnightblue" d="M1534.95,-291.48C1515.16,-281.58 1482.28,-265.14 1459.23,-253.62"/>
<polygon fill="midnightblue" stroke="midnightblue" points="1460.53,-250.35 1450.02,-249.01 1457.4,-256.61 1460.53,-250.35"/>
</g>
<!-- Node31&#45;&gt;Node10 -->
<g id="edge70" class="edge">
<title>Node31&#45;&gt;Node10</title>
<path fill="none" stroke="midnightblue" d="M1515.6,-299.53C1376.16,-297.48 876.11,-287.95 721,-255 717.92,-254.35 714.76,-253.48 711.65,-252.5"/>
<polygon fill="midnightblue" stroke="midnightblue" points="712.58,-249.11 701.98,-249.07 710.23,-255.71 712.58,-249.11"/>
</g>
<!-- Node31&#45;&gt;Node15 -->
<g id="edge62" class="edge">
<title>Node31&#45;&gt;Node15</title>
<path fill="none" stroke="midnightblue" d="M1515.99,-296.73C1462.02,-291.28 1357.28,-278.52 1271,-255 1268.41,-254.29 1265.74,-253.47 1263.1,-252.57"/>
<polygon fill="midnightblue" stroke="midnightblue" points="1264.3,-249.28 1253.71,-249.13 1261.89,-255.85 1264.3,-249.28"/>
</g>
<!-- Node31&#45;&gt;Node20 -->
<g id="edge65" class="edge">
<title>Node31&#45;&gt;Node20</title>
<path fill="none" stroke="midnightblue" d="M1543.34,-291.24C1525.01,-272.92 1482.47,-231.63 1464,-224 1409.15,-201.33 995.42,-184.74 871.18,-180.23"/>
<polygon fill="midnightblue" stroke="midnightblue" points="871.18,-176.73 861.07,-179.86 870.93,-183.72 871.18,-176.73"/>
</g>
<!-- Node31&#45;&gt;Node28 -->
<g id="edge69" class="edge">
<title>Node31&#45;&gt;Node28</title>
<path fill="none" stroke="midnightblue" d="M1548.5,-291.02C1541.53,-274.47 1524.19,-239.45 1497,-224 1253.75,-85.78 1148.72,-192.28 870,-168 684.81,-151.87 635.88,-150.49 447.37,-132.11"/>
<polygon fill="midnightblue" stroke="midnightblue" points="447.71,-128.63 437.41,-131.14 447.03,-135.6 447.71,-128.63"/>
</g>
<!-- Node32 -->
<g id="node32" class="node">
<title>Node32</title>
<g id="a_node32"><a xlink:title=" ">
<polygon fill="white" stroke="#bfbfbf" points="1881,-230 1881,-249 1993,-249 1993,-230 1881,-230"/>
<text text-anchor="middle" x="1937" y="-237" font-family="Helvetica,sans-Serif" font-size="10.00">boost/tokenizer.hpp</text>
</a>
</g>
</g>
<!-- Node31&#45;&gt;Node32 -->
<g id="edge60" class="edge">
<title>Node31&#45;&gt;Node32</title>
<path fill="none" stroke="midnightblue" d="M1588.14,-295.87C1647.58,-288.87 1769.6,-273.59 1872,-255 1878.2,-253.88 1884.7,-252.57 1891.1,-251.22"/>
<polygon fill="midnightblue" stroke="midnightblue" points="1891.97,-254.61 1901,-249.07 1890.49,-247.77 1891.97,-254.61"/>
</g>
<!-- Node33 -->
<g id="node33" class="node">
<title>Node33</title>
<g id="a_node33"><a xlink:title=" ">
<polygon fill="white" stroke="#bfbfbf" points="1549,-230 1549,-249 1617,-249 1617,-230 1549,-230"/>
<text text-anchor="middle" x="1583" y="-237" font-family="Helvetica,sans-Serif" font-size="10.00">filesystem</text>
</a>
</g>
</g>
<!-- Node31&#45;&gt;Node33 -->
<g id="edge61" class="edge">
<title>Node31&#45;&gt;Node33</title>
<path fill="none" stroke="midnightblue" d="M1556.44,-291.48C1560.95,-282.82 1568.07,-269.15 1573.81,-258.15"/>
<polygon fill="midnightblue" stroke="midnightblue" points="1577.05,-259.49 1578.57,-249.01 1570.84,-256.26 1577.05,-259.49"/>
</g>
<!-- Node34 -->
<g id="node34" class="node">
<title>Node34</title>
<g id="a_node34"><a xlink:title=" ">
<polygon fill="white" stroke="#bfbfbf" points="1635,-230 1635,-249 1693,-249 1693,-230 1635,-230"/>
<text text-anchor="middle" x="1664" y="-237" font-family="Helvetica,sans-Serif" font-size="10.00">memory</text>
</a>
</g>
</g>
<!-- Node31&#45;&gt;Node34 -->
<g id="edge66" class="edge">
<title>Node31&#45;&gt;Node34</title>
<path fill="none" stroke="midnightblue" d="M1568.05,-291.48C1586.59,-281.62 1617.34,-265.29 1639.02,-253.77"/>
<polygon fill="midnightblue" stroke="midnightblue" points="1640.79,-256.79 1647.98,-249.01 1637.51,-250.61 1640.79,-256.79"/>
</g>
<!-- Node35 -->
<g id="node35" class="node">
<title>Node35</title>
<g id="a_node35"><a xlink:title=" ">
<polygon fill="white" stroke="#bfbfbf" points="1749,-230 1749,-249 1797,-249 1797,-230 1749,-230"/>
<text text-anchor="middle" x="1773" y="-237" font-family="Helvetica,sans-Serif" font-size="10.00">mutex</text>
</a>
</g>
</g>
<!-- Node31&#45;&gt;Node35 -->
<g id="edge67" class="edge">
<title>Node31&#45;&gt;Node35</title>
<path fill="none" stroke="midnightblue" d="M1588.13,-292.5C1625.3,-284.46 1684.72,-270.71 1735,-255 1737.42,-254.24 1739.9,-253.42 1742.39,-252.55"/>
<polygon fill="midnightblue" stroke="midnightblue" points="1743.66,-255.81 1751.86,-249.1 1741.26,-249.24 1743.66,-255.81"/>
</g>
<!-- Node36 -->
<g id="node36" class="node">
<title>Node36</title>
<g id="a_node36"><a xlink:title=" ">
<polygon fill="white" stroke="#bfbfbf" points="1815,-230 1815,-249 1863,-249 1863,-230 1815,-230"/>
<text text-anchor="middle" x="1839" y="-237" font-family="Helvetica,sans-Serif" font-size="10.00">thread</text>
</a>
</g>
</g>
<!-- Node31&#45;&gt;Node36 -->
<g id="edge68" class="edge">
<title>Node31&#45;&gt;Node36</title>
<path fill="none" stroke="midnightblue" d="M1588.39,-296.32C1638.28,-290.65 1730.36,-277.96 1806,-255 1807.93,-254.41 1809.9,-253.75 1811.86,-253.02"/>
<polygon fill="midnightblue" stroke="midnightblue" points="1813.53,-256.13 1821.48,-249.12 1810.9,-249.64 1813.53,-256.13"/>
</g>
<!-- Node37&#45;&gt;Node3 -->
<g id="edge73" class="edge">
<title>Node37&#45;&gt;Node3</title>
<path fill="none" stroke="midnightblue" d="M223.19,-57.16C226.17,-56.75 229.12,-56.36 232,-56 383.3,-36.93 563.99,-20.94 642.86,-14.3"/>
<polygon fill="midnightblue" stroke="midnightblue" points="643.18,-17.79 652.85,-13.46 642.6,-10.81 643.18,-17.79"/>
</g>
<!-- Node37&#45;&gt;Node26 -->
<g id="edge74" class="edge">
<title>Node37&#45;&gt;Node26</title>
<path fill="none" stroke="midnightblue" d="M202.95,-56.44C237.15,-46.67 292.95,-30.73 328.55,-20.56"/>
<polygon fill="midnightblue" stroke="midnightblue" points="329.81,-23.84 338.46,-17.73 327.89,-17.11 329.81,-23.84"/>
</g>
</g>
</svg>
        <g id="navigator" transform="translate(0 0)" fill="#404254">
                <rect fill="#f2f5e9" fill-opacity="0.5" stroke="#606060" stroke-width=".5" x="0" y="0" width="60" height="60"/>
                <use id="zoomplus" xlink:href="#zoomPlus" x="17" y="9" onmousedown="handleZoom(evt,'in')"/>
                <use id="zoomminus" xlink:href="#zoomMin" x="42" y="9" onmousedown="handleZoom(evt,'out')"/>
                <use id="reset" xlink:href="#resetDef" x="30" y="36" onmousedown="handleReset()"/>
                <g id="arrowUp" xlink:href="#dirArrow" transform="translate(30 24)" onmousedown="handlePan(0,-1)">
                  <use xlink:href="#rim" fill="#404040">
                        <set attributeName="fill" to="#808080" begin="arrowUp.mouseover" end="arrowUp.mouseout"/>
                  </use>
                  <path fill="none" stroke="white" stroke-width="1.5" d="M0,-3.0v7 M-2.5,-0.5L0,-3.0L2.5,-0.5"/>
                </g>
                <g id="arrowRight" xlink:href="#dirArrow" transform="rotate(90) translate(36 -43)" onmousedown="handlePan(1,0)">
                  <use xlink:href="#rim" fill="#404040">
                        <set attributeName="fill" to="#808080" begin="arrowRight.mouseover" end="arrowRight.mouseout"/>
                  </use>
                  <path fill="none" stroke="white" stroke-width="1.5" d="M0,-3.0v7 M-2.5,-0.5L0,-3.0L2.5,-0.5"/>
                </g>
                <g id="arrowDown" xlink:href="#dirArrow" transform="rotate(180) translate(-30 -48)" onmousedown="handlePan(0,1)">
                  <use xlink:href="#rim" fill="#404040">
                        <set attributeName="fill" to="#808080" begin="arrowDown.mouseover" end="arrowDown.mouseout"/>
                  </use>
                  <path fill="none" stroke="white" stroke-width="1.5" d="M0,-3.0v7 M-2.5,-0.5L0,-3.0L2.5,-0.5"/>
                </g>
                <g id="arrowLeft" xlink:href="#dirArrow" transform="rotate(270) translate(-36 17)" onmousedown="handlePan(-1,0)">
                  <use xlink:href="#rim" fill="#404040">
                        <set attributeName="fill" to="#808080" begin="arrowLeft.mouseover" end="arrowLeft.mouseout"/>
                  </use>
                  <path fill="none" stroke="white" stroke-width="1.5" d="M0,-3.0v7 M-2.5,-0.5L0,-3.0L2.5,-0.5"/>
                </g>
        </g>
        <svg viewBox="0 0 15 15" width="100%" height="30px" preserveAspectRatio="xMaxYMin meet">
         <g id="arrow_out" transform="scale(0.3 0.3)">
          <a xlink:href="labs_2outlab2_2Parser_8h__incl_org.svg" target="_base">
           <rect id="button" ry="5" rx="5" y="6" x="6" height="38" width="38"
                fill="#f2f5e9" fill-opacity="0.5" stroke="#606060" stroke-width="1.0"/>
           <path id="arrow"
             d="M 11.500037,31.436501 C 11.940474,20.09759 22.043105,11.32322 32.158766,21.979434 L 37.068811,17.246167 C 37.068811,17.246167 37.088388,32 37.088388,32 L 22.160133,31.978069 C 22.160133,31.978069 26.997745,27.140456 26.997745,27.140456 C 18.528582,18.264221 13.291696,25.230495 11.500037,31.436501 z"
             style="fill:#404040;"/>
          </a>
         </g>
        </svg>
</svg>
