<?xml version="1.0" encoding="UTF-8" standalone="no"?>
<!DOCTYPE svg PUBLIC "-//W3C//DTD SVG 1.1//EN"
 "http://www.w3.org/Graphics/SVG/1.1/DTD/svg11.dtd">
<!-- Generated by graphviz version 2.43.0 (0)
 -->
<!-- Title: Output Pages: 1 -->
<!--zoomable 674 -->
<svg id="main" version="1.1" xmlns="http://www.w3.org/2000/svg" xmlns:xlink="http://www.w3.org/1999/xlink" xml:space="preserve" onload="init(evt)">
<style type="text/css"><![CDATA[
.edge:hover path { stroke: red; }
.edge:hover polygon { stroke: red; fill: red; }
]]></style>
<script type="text/javascript"><![CDATA[
var edges = document.getElementsByTagName('g');
if (edges && edges.length) {
  for (var i=0;i<edges.length;i++) {
    if (edges[i].id.substr(0,4)=='edge') {
      edges[i].setAttribute('class','edge');
    }
  }
}
]]></script>
        <defs>
                <circle id="rim" cx="0" cy="0" r="7"/>
                <circle id="rim2" cx="0" cy="0" r="3.5"/>
                <g id="zoomPlus">
                        <use xlink:href="#rim" fill="#404040">
                                <set attributeName="fill" to="#808080" begin="zoomplus.mouseover" end="zoomplus.mouseout"/>
                        </use>
                        <path d="M-4,0h8M0,-4v8" fill="none" stroke="white" stroke-width="1.5" pointer-events="none"/>
                </g>
                <g id="zoomMin">
                        <use xlink:href="#rim" fill="#404040">
                                <set attributeName="fill" to="#808080" begin="zoomminus.mouseover" end="zoomminus.mouseout"/>
                        </use>
                        <path d="M-4,0h8" fill="none" stroke="white" stroke-width="1.5" pointer-events="none"/>
                </g>
                <g id="dirArrow">
                        <path fill="none" stroke="white" stroke-width="1.5" d="M0,-3.0v7 M-2.5,-0.5L0,-3.0L2.5,-0.5"/>
                </g>
               <g id="resetDef">
                       <use xlink:href="#rim2" fill="#404040">
                               <set attributeName="fill" to="#808080" begin="reset.mouseover" end="reset.mouseout"/>
                       </use>
               </g>
        </defs>

<script type="text/javascript">
var viewWidth = 2489;
var viewHeight = 674;
var sectionId = 'dynsection-0';
</script>
<script xlink:href="../../svgpan.js"/>
<svg id="graph" class="graph">
<g id="viewport">
<title>Output</title>
<polygon fill="white" stroke="transparent" points="-4,4 -4,-670 2485,-670 2485,4 -4,4"/>
<!-- Node1 -->
<g id="node1" class="node">
<title>Node1</title>
<g id="a_node1"><a xlink:title="Struct to hold variables for Taylor Series.">
<polygon fill="#bfbfbf" stroke="black" points="1768,-0.5 1768,-79.5 1859,-79.5 1859,-0.5 1768,-0.5"/>
<text text-anchor="middle" x="1813.5" y="-67.5" font-family="Helvetica,sans-Serif" font-size="10.00">Output</text>
<polyline fill="none" stroke="black" points="1768,-60.5 1859,-60.5 "/>
<text text-anchor="start" x="1776" y="-48.5" font-family="Helvetica,sans-Serif" font-size="10.00">+ running_sum</text>
<text text-anchor="start" x="1776" y="-37.5" font-family="Helvetica,sans-Serif" font-size="10.00">and 16 more...</text>
<polyline fill="none" stroke="black" points="1768,-30.5 1859,-30.5 "/>
<text text-anchor="start" x="1776" y="-18.5" font-family="Helvetica,sans-Serif" font-size="10.00">+ toJSON()</text>
<text text-anchor="start" x="1776" y="-7.5" font-family="Helvetica,sans-Serif" font-size="10.00">and 43 more...</text>
</a>
</g>
</g>
<!-- Node2 -->
<g id="node2" class="node">
<title>Node2</title>
<g id="a_node2"><a xlink:href="../../d0/d27/classMyBLAS_1_1Matrix.html" target="_top" xlink:title=" ">
<polygon fill="white" stroke="black" points="0,-287.5 0,-388.5 127,-388.5 127,-287.5 0,-287.5"/>
<text text-anchor="start" x="8" y="-376.5" font-family="Helvetica,sans-Serif" font-size="10.00">MyBLAS::Matrix&lt; long</text>
<text text-anchor="middle" x="63.5" y="-365.5" font-family="Helvetica,sans-Serif" font-size="10.00"> double &gt;</text>
<polyline fill="none" stroke="black" points="0,-358.5 127,-358.5 "/>
<text text-anchor="start" x="8" y="-346.5" font-family="Helvetica,sans-Serif" font-size="10.00"># data</text>
<polyline fill="none" stroke="black" points="0,-339.5 127,-339.5 "/>
<text text-anchor="start" x="8" y="-327.5" font-family="Helvetica,sans-Serif" font-size="10.00">+ getAllocatedBytes()</text>
<text text-anchor="start" x="8" y="-316.5" font-family="Helvetica,sans-Serif" font-size="10.00">and 38 more...</text>
<text text-anchor="start" x="8" y="-305.5" font-family="Helvetica,sans-Serif" font-size="10.00">+ eye()</text>
<text text-anchor="start" x="8" y="-294.5" font-family="Helvetica,sans-Serif" font-size="10.00">and 1 more...</text>
</a>
</g>
</g>
<!-- Node2&#45;&gt;Node1 -->
<g id="edge1" class="edge">
<title>Node2&#45;&gt;Node1</title>
<path fill="none" stroke="#404040" d="M58.93,-287.31C57.46,-239.53 63.49,-168.59 105.5,-127 154.69,-78.31 189.72,-105.73 258.5,-98 557,-64.43 1510.32,-46.17 1755.54,-41.95"/>
<polygon fill="none" stroke="#404040" points="1755.69,-41.95 1761.62,-37.85 1767.68,-41.75 1761.75,-45.85 1755.69,-41.95"/>
<text text-anchor="middle" x="125.5" y="-170" font-family="Helvetica,sans-Serif" font-size="10.00"> +fluxes</text>
</g>
<!-- Node7 -->
<g id="node7" class="node">
<title>Node7</title>
<g id="a_node7"><a xlink:href="../../d4/dae/structInput.html" target="_top" xlink:title="A structure to hold the input parameters for the relaxation method.">
<polygon fill="white" stroke="black" points="1144,-133 1144,-212 1231,-212 1231,-133 1144,-133"/>
<text text-anchor="middle" x="1187.5" y="-200" font-family="Helvetica,sans-Serif" font-size="10.00">Input</text>
<polyline fill="none" stroke="black" points="1144,-193 1231,-193 "/>
<text text-anchor="start" x="1152" y="-181" font-family="Helvetica,sans-Serif" font-size="10.00">+ x</text>
<text text-anchor="start" x="1152" y="-170" font-family="Helvetica,sans-Serif" font-size="10.00">and 19 more...</text>
<polyline fill="none" stroke="black" points="1144,-163 1231,-163 "/>
<text text-anchor="start" x="1152" y="-151" font-family="Helvetica,sans-Serif" font-size="10.00">+ Input()</text>
<text text-anchor="start" x="1152" y="-140" font-family="Helvetica,sans-Serif" font-size="10.00">and 31 more...</text>
</a>
</g>
</g>
<!-- Node2&#45;&gt;Node7 -->
<g id="edge11" class="edge">
<title>Node2&#45;&gt;Node7</title>
<path fill="none" stroke="#404040" d="M127,-292.1C130.17,-290.31 133.35,-288.59 136.5,-287 197.83,-255.98 215.17,-249.82 282.5,-236 365.44,-218.97 947.71,-186.45 1131.83,-176.48"/>
<polygon fill="none" stroke="#404040" points="1131.89,-176.47 1137.67,-172.16 1143.88,-175.83 1138.1,-180.14 1131.89,-176.47"/>
<text text-anchor="middle" x="315" y="-261" font-family="Helvetica,sans-Serif" font-size="10.00"> +LU</text>
<text text-anchor="middle" x="315" y="-250" font-family="Helvetica,sans-Serif" font-size="10.00">+coefficients</text>
<text text-anchor="middle" x="315" y="-239" font-family="Helvetica,sans-Serif" font-size="10.00">+sources</text>
</g>
<!-- Node3 -->
<g id="node3" class="node">
<title>Node3</title>
<g id="a_node3"><a xlink:href="../../d7/db7/structMyBLAS_1_1Solver_1_1Solution.html" target="_top" xlink:title=" ">
<polygon fill="white" stroke="black" points="155,-127.5 155,-217.5 304,-217.5 304,-127.5 155,-127.5"/>
<text text-anchor="start" x="163" y="-205.5" font-family="Helvetica,sans-Serif" font-size="10.00">MyBLAS::Solver::Solution</text>
<text text-anchor="middle" x="229.5" y="-194.5" font-family="Helvetica,sans-Serif" font-size="10.00">&lt; MyBLAS::NumericType &gt;</text>
<polyline fill="none" stroke="black" points="155,-187.5 304,-187.5 "/>
<text text-anchor="start" x="163" y="-175.5" font-family="Helvetica,sans-Serif" font-size="10.00">+ method</text>
<text text-anchor="start" x="163" y="-164.5" font-family="Helvetica,sans-Serif" font-size="10.00">and 5 more...</text>
<polyline fill="none" stroke="black" points="155,-157.5 304,-157.5 "/>
<text text-anchor="start" x="163" y="-145.5" font-family="Helvetica,sans-Serif" font-size="10.00">+ Solution()</text>
<text text-anchor="start" x="163" y="-134.5" font-family="Helvetica,sans-Serif" font-size="10.00">and 5 more...</text>
</a>
</g>
</g>
<!-- Node3&#45;&gt;Node1 -->
<g id="edge2" class="edge">
<title>Node3&#45;&gt;Node1</title>
<path fill="none" stroke="#404040" d="M247.06,-127.44C253.86,-115.9 262.88,-104.8 274.5,-98 339.53,-59.96 1483.34,-44.72 1755.66,-41.62"/>
<polygon fill="none" stroke="#404040" points="1755.96,-41.61 1761.91,-37.55 1767.96,-41.48 1762,-45.55 1755.96,-41.61"/>
<text text-anchor="middle" x="300" y="-101" font-family="Helvetica,sans-Serif" font-size="10.00"> +solution</text>
</g>
<!-- Node4 -->
<g id="node4" class="node">
<title>Node4</title>
<g id="a_node4"><a xlink:href="../../d4/d4d/classMyBLAS_1_1Vector.html" target="_top" xlink:title=" ">
<polygon fill="white" stroke="black" points="145.5,-287.5 145.5,-388.5 291.5,-388.5 291.5,-287.5 145.5,-287.5"/>
<text text-anchor="start" x="153.5" y="-376.5" font-family="Helvetica,sans-Serif" font-size="10.00">MyBLAS::Vector&lt; MyBLAS</text>
<text text-anchor="middle" x="218.5" y="-365.5" font-family="Helvetica,sans-Serif" font-size="10.00">::NumericType &gt;</text>
<polyline fill="none" stroke="black" points="145.5,-358.5 291.5,-358.5 "/>
<text text-anchor="start" x="153.5" y="-346.5" font-family="Helvetica,sans-Serif" font-size="10.00"># data</text>
<text text-anchor="start" x="153.5" y="-335.5" font-family="Helvetica,sans-Serif" font-size="10.00">and 1 more...</text>
<polyline fill="none" stroke="black" points="145.5,-328.5 291.5,-328.5 "/>
<text text-anchor="start" x="153.5" y="-316.5" font-family="Helvetica,sans-Serif" font-size="10.00">+ getAllocatedBytes()</text>
<text text-anchor="start" x="153.5" y="-305.5" font-family="Helvetica,sans-Serif" font-size="10.00">and 33 more...</text>
<text text-anchor="start" x="153.5" y="-294.5" font-family="Helvetica,sans-Serif" font-size="10.00">+ elementwiseProduct()</text>
</a>
</g>
</g>
<!-- Node4&#45;&gt;Node1 -->
<g id="edge3" class="edge">
<title>Node4&#45;&gt;Node1</title>
<path fill="none" stroke="#404040" d="M291.54,-292.8C306.08,-283.48 318.9,-274.75 325.5,-269 340,-256.37 336.72,-245.39 353.5,-236 600.95,-97.49 1515.43,-52.62 1755.48,-43.1"/>
<polygon fill="none" stroke="#404040" points="1755.72,-43.09 1761.56,-38.86 1767.71,-42.62 1761.87,-46.85 1755.72,-43.09"/>
<text text-anchor="middle" x="791.5" y="-181" font-family="Helvetica,sans-Serif" font-size="10.00"> +residual</text>
<text text-anchor="middle" x="791.5" y="-170" font-family="Helvetica,sans-Serif" font-size="10.00">+scaled_vector</text>
<text text-anchor="middle" x="791.5" y="-159" font-family="Helvetica,sans-Serif" font-size="10.00">+vector_sum</text>
</g>
<!-- Node4&#45;&gt;Node7 -->
<g id="edge12" class="edge">
<title>Node4&#45;&gt;Node7</title>
<path fill="none" stroke="#404040" d="M291.86,-291.28C294.75,-289.79 297.64,-288.36 300.5,-287 302.42,-286.09 442.43,-236.45 444.5,-236 696.84,-181.65 1006.86,-174.05 1131.61,-173.34"/>
<polygon fill="none" stroke="#404040" points="1131.8,-173.34 1137.78,-169.32 1143.8,-173.29 1137.81,-177.32 1131.8,-173.34"/>
<text text-anchor="middle" x="494.5" y="-255.5" font-family="Helvetica,sans-Serif" font-size="10.00"> +constants</text>
<text text-anchor="middle" x="494.5" y="-244.5" font-family="Helvetica,sans-Serif" font-size="10.00">+diffusionConstants</text>
</g>
<!-- Node5 -->
<g id="node5" class="node">
<title>Node5</title>
<g id="a_node5"><a xlink:href="../../d4/d4d/classMyBLAS_1_1Vector.html" target="_top" xlink:title=" ">
<polygon fill="white" stroke="black" points="1790,-287.5 1790,-388.5 1925,-388.5 1925,-287.5 1790,-287.5"/>
<text text-anchor="start" x="1798" y="-376.5" font-family="Helvetica,sans-Serif" font-size="10.00">MyBLAS::Vector&lt; long</text>
<text text-anchor="middle" x="1857.5" y="-365.5" font-family="Helvetica,sans-Serif" font-size="10.00"> double &gt;</text>
<polyline fill="none" stroke="black" points="1790,-358.5 1925,-358.5 "/>
<text text-anchor="start" x="1798" y="-346.5" font-family="Helvetica,sans-Serif" font-size="10.00"># data</text>
<text text-anchor="start" x="1798" y="-335.5" font-family="Helvetica,sans-Serif" font-size="10.00">and 1 more...</text>
<polyline fill="none" stroke="black" points="1790,-328.5 1925,-328.5 "/>
<text text-anchor="start" x="1798" y="-316.5" font-family="Helvetica,sans-Serif" font-size="10.00">+ getAllocatedBytes()</text>
<text text-anchor="start" x="1798" y="-305.5" font-family="Helvetica,sans-Serif" font-size="10.00">and 33 more...</text>
<text text-anchor="start" x="1798" y="-294.5" font-family="Helvetica,sans-Serif" font-size="10.00">+ elementwiseProduct()</text>
</a>
</g>
</g>
<!-- Node5&#45;&gt;Node1 -->
<g id="edge4" class="edge">
<title>Node5&#45;&gt;Node1</title>
<path fill="none" stroke="#404040" d="M1795.51,-287.45C1791.13,-281.68 1787.33,-275.51 1784.5,-269 1759.55,-211.66 1776.02,-139.08 1792.54,-91.4"/>
<polygon fill="none" stroke="#404040" points="1792.64,-91.13 1790.92,-84.13 1796.72,-79.85 1798.44,-86.85 1792.64,-91.13"/>
<text text-anchor="middle" x="1807" y="-175.5" font-family="Helvetica,sans-Serif" font-size="10.00"> +residual</text>
<text text-anchor="middle" x="1807" y="-164.5" font-family="Helvetica,sans-Serif" font-size="10.00">+solution</text>
</g>
<!-- Node5&#45;&gt;Node7 -->
<g id="edge13" class="edge">
<title>Node5&#45;&gt;Node7</title>
<path fill="none" stroke="#404040" d="M1789.86,-291.01C1786.75,-289.56 1783.62,-288.21 1780.5,-287 1734.72,-269.25 1713.03,-295.2 1671.5,-269 1656.38,-259.46 1663.76,-245.32 1648.5,-236 1581.54,-195.09 1350.65,-180.28 1243.25,-175.51"/>
<polygon fill="none" stroke="#404040" points="1243.08,-175.51 1236.91,-179.25 1231.09,-174.99 1237.26,-171.25 1243.08,-175.51"/>
<text text-anchor="middle" x="1714" y="-255.5" font-family="Helvetica,sans-Serif" font-size="10.00"> +constants</text>
<text text-anchor="middle" x="1714" y="-244.5" font-family="Helvetica,sans-Serif" font-size="10.00">+known_solution</text>
</g>
<!-- Node6 -->
<g id="node6" class="node">
<title>Node6</title>
<g id="a_node6"><a xlink:href="../../d0/d27/classMyBLAS_1_1Matrix.html" target="_top" xlink:title=" ">
<polygon fill="white" stroke="black" points="1943.5,-287.5 1943.5,-388.5 2089.5,-388.5 2089.5,-287.5 1943.5,-287.5"/>
<text text-anchor="start" x="1951.5" y="-376.5" font-family="Helvetica,sans-Serif" font-size="10.00">MyBLAS::Matrix&lt; MyBLAS</text>
<text text-anchor="middle" x="2016.5" y="-365.5" font-family="Helvetica,sans-Serif" font-size="10.00">::NumericType &gt;</text>
<polyline fill="none" stroke="black" points="1943.5,-358.5 2089.5,-358.5 "/>
<text text-anchor="start" x="1951.5" y="-346.5" font-family="Helvetica,sans-Serif" font-size="10.00"># data</text>
<polyline fill="none" stroke="black" points="1943.5,-339.5 2089.5,-339.5 "/>
<text text-anchor="start" x="1951.5" y="-327.5" font-family="Helvetica,sans-Serif" font-size="10.00">+ getAllocatedBytes()</text>
<text text-anchor="start" x="1951.5" y="-316.5" font-family="Helvetica,sans-Serif" font-size="10.00">and 38 more...</text>
<text text-anchor="start" x="1951.5" y="-305.5" font-family="Helvetica,sans-Serif" font-size="10.00">+ eye()</text>
<text text-anchor="start" x="1951.5" y="-294.5" font-family="Helvetica,sans-Serif" font-size="10.00">and 1 more...</text>
</a>
</g>
</g>
<!-- Node6&#45;&gt;Node1 -->
<g id="edge5" class="edge">
<title>Node6&#45;&gt;Node1</title>
<path fill="none" stroke="#404040" d="M1943.49,-292.91C1915.93,-273.07 1886.45,-247.45 1866.5,-218 1859.26,-207.32 1840.19,-140.17 1827.02,-91.74"/>
<polygon fill="none" stroke="#404040" points="1826.94,-91.46 1821.51,-86.71 1823.81,-79.87 1829.24,-84.62 1826.94,-91.46"/>
<text text-anchor="middle" x="1886.5" y="-170" font-family="Helvetica,sans-Serif" font-size="10.00"> +fluxes</text>
</g>
<!-- Node6&#45;&gt;Node7 -->
<g id="edge15" class="edge">
<title>Node6&#45;&gt;Node7</title>
<path fill="none" stroke="#404040" d="M1943.46,-290.52C1940.48,-289.25 1937.48,-288.06 1934.5,-287 1879.56,-267.41 1858.44,-291.21 1804.5,-269 1781.9,-259.69 1783.24,-244.98 1760.5,-236 1667.14,-199.14 1368.23,-181.67 1243.25,-175.83"/>
<polygon fill="none" stroke="#404040" points="1243,-175.82 1236.82,-179.54 1231.01,-175.27 1237.18,-171.55 1243,-175.82"/>
<text text-anchor="middle" x="1838.5" y="-255.5" font-family="Helvetica,sans-Serif" font-size="10.00"> +coefficients</text>
<text text-anchor="middle" x="1838.5" y="-244.5" font-family="Helvetica,sans-Serif" font-size="10.00">+sources</text>
</g>
<!-- Node7&#45;&gt;Node1 -->
<g id="edge6" class="edge">
<title>Node7&#45;&gt;Node1</title>
<path fill="none" stroke="#404040" d="M1231.02,-162.43C1341.31,-139.44 1631.78,-78.88 1755.91,-53.01"/>
<polygon fill="none" stroke="#404040" points="1756,-52.99 1761.06,-47.85 1767.75,-50.54 1762.69,-55.68 1756,-52.99"/>
<text text-anchor="middle" x="1559.5" y="-101" font-family="Helvetica,sans-Serif" font-size="10.00"> +inputs</text>
</g>
<!-- Node8 -->
<g id="node8" class="node">
<title>Node8</title>
<g id="a_node8"><a xlink:href="../../d6/d0c/structMyPhysics_1_1Diffusion_1_1Params.html" target="_top" xlink:title=" ">
<polygon fill="white" stroke="black" points="310,-287.5 310,-388.5 501,-388.5 501,-287.5 310,-287.5"/>
<text text-anchor="start" x="318" y="-376.5" font-family="Helvetica,sans-Serif" font-size="10.00">MyPhysics::Diffusion</text>
<text text-anchor="middle" x="405.5" y="-365.5" font-family="Helvetica,sans-Serif" font-size="10.00">::Params&lt; MyBLAS::NumericType &gt;</text>
<polyline fill="none" stroke="black" points="310,-358.5 501,-358.5 "/>
<text text-anchor="start" x="318" y="-346.5" font-family="Helvetica,sans-Serif" font-size="10.00">&#45; _a</text>
<text text-anchor="start" x="318" y="-335.5" font-family="Helvetica,sans-Serif" font-size="10.00">and 8 more...</text>
<polyline fill="none" stroke="black" points="310,-328.5 501,-328.5 "/>
<text text-anchor="start" x="318" y="-316.5" font-family="Helvetica,sans-Serif" font-size="10.00">+ Params()</text>
<text text-anchor="start" x="318" y="-305.5" font-family="Helvetica,sans-Serif" font-size="10.00">and 17 more...</text>
<text text-anchor="start" x="318" y="-294.5" font-family="Helvetica,sans-Serif" font-size="10.00">&#45; compute_mesh_spacing()</text>
</a>
</g>
</g>
<!-- Node8&#45;&gt;Node7 -->
<g id="edge7" class="edge">
<title>Node8&#45;&gt;Node7</title>
<path fill="none" stroke="#404040" d="M501.21,-287.61C543.17,-268.2 593.68,-247.77 641.5,-236 816.97,-192.81 1031.66,-179.32 1131.49,-175.22"/>
<polygon fill="none" stroke="#404040" points="1131.67,-175.21 1137.51,-170.98 1143.66,-174.74 1137.82,-178.98 1131.67,-175.21"/>
<text text-anchor="middle" x="686.5" y="-250" font-family="Helvetica,sans-Serif" font-size="10.00"> +diffusionParams</text>
</g>
<!-- Node9 -->
<g id="node9" class="node">
<title>Node9</title>
<g id="a_node9"><a xlink:href="../../d4/d9d/structMyBLAS_1_1Solver_1_1Parameters.html" target="_top" xlink:title=" ">
<polygon fill="white" stroke="black" points="1027,-304 1027,-372 1182,-372 1182,-304 1027,-304"/>
<text text-anchor="start" x="1035" y="-360" font-family="Helvetica,sans-Serif" font-size="10.00">MyBLAS::Solver::Parameters</text>
<text text-anchor="middle" x="1104.5" y="-349" font-family="Helvetica,sans-Serif" font-size="10.00">&lt; MyBLAS::NumericType &gt;</text>
<polyline fill="none" stroke="black" points="1027,-342 1182,-342 "/>
<text text-anchor="middle" x="1104.5" y="-330" font-family="Helvetica,sans-Serif" font-size="10.00"> </text>
<polyline fill="none" stroke="black" points="1027,-323 1182,-323 "/>
<text text-anchor="middle" x="1104.5" y="-311" font-family="Helvetica,sans-Serif" font-size="10.00"> </text>
</a>
</g>
</g>
<!-- Node9&#45;&gt;Node7 -->
<g id="edge8" class="edge">
<title>Node9&#45;&gt;Node7</title>
<path fill="none" stroke="#404040" d="M1121.3,-303.91C1133.07,-280.73 1149.01,-249.33 1162.3,-223.15"/>
<polygon fill="none" stroke="#404040" points="1162.38,-222.99 1161.53,-215.83 1167.81,-212.29 1168.66,-219.45 1162.38,-222.99"/>
<text text-anchor="middle" x="1192.5" y="-250" font-family="Helvetica,sans-Serif" font-size="10.00"> +solverParams</text>
</g>
<!-- Node10 -->
<g id="node10" class="node">
<title>Node10</title>
<g id="a_node10"><a xlink:href="../../d0/d81/structMyBLAS_1_1Solver_1_1TemplatedParameters.html" target="_top" xlink:title="Template struct to hold parameters for a solver with templated matrix and vector types.">
<polygon fill="white" stroke="black" points="715,-426.5 715,-527.5 866,-527.5 866,-426.5 715,-426.5"/>
<text text-anchor="start" x="723" y="-515.5" font-family="Helvetica,sans-Serif" font-size="10.00">MyBLAS::Solver::Templated</text>
<text text-anchor="start" x="723" y="-504.5" font-family="Helvetica,sans-Serif" font-size="10.00">Parameters&lt; MatrixType,</text>
<text text-anchor="middle" x="790.5" y="-493.5" font-family="Helvetica,sans-Serif" font-size="10.00"> VectorType, T &gt;</text>
<polyline fill="none" stroke="black" points="715,-486.5 866,-486.5 "/>
<text text-anchor="start" x="723" y="-474.5" font-family="Helvetica,sans-Serif" font-size="10.00">+ n</text>
<text text-anchor="start" x="723" y="-463.5" font-family="Helvetica,sans-Serif" font-size="10.00">and 4 more...</text>
<polyline fill="none" stroke="black" points="715,-456.5 866,-456.5 "/>
<text text-anchor="start" x="723" y="-444.5" font-family="Helvetica,sans-Serif" font-size="10.00">+ TemplatedParameters()</text>
<text text-anchor="start" x="723" y="-433.5" font-family="Helvetica,sans-Serif" font-size="10.00">and 13 more...</text>
</a>
</g>
</g>
<!-- Node10&#45;&gt;Node9 -->
<g id="edge9" class="edge">
<title>Node10&#45;&gt;Node9</title>
<path fill="none" stroke="midnightblue" d="M875.73,-446.9C918.88,-431.28 971.7,-410.78 1017.5,-389 1028.2,-383.91 1039.35,-378 1049.96,-372.06"/>
<polygon fill="none" stroke="midnightblue" points="874.33,-443.68 866.11,-450.36 876.7,-450.27 874.33,-443.68"/>
</g>
<!-- Node17 -->
<g id="node17" class="node">
<title>Node17</title>
<g id="a_node17"><a xlink:href="../../d4/d9d/structMyBLAS_1_1Solver_1_1Parameters.html" target="_top" xlink:title=" ">
<polygon fill="white" stroke="black" points="519,-304 519,-372 674,-372 674,-304 519,-304"/>
<text text-anchor="start" x="527" y="-360" font-family="Helvetica,sans-Serif" font-size="10.00">MyBLAS::Solver::Parameters</text>
<text text-anchor="middle" x="596.5" y="-349" font-family="Helvetica,sans-Serif" font-size="10.00">&lt; long double &gt;</text>
<polyline fill="none" stroke="black" points="519,-342 674,-342 "/>
<text text-anchor="middle" x="596.5" y="-330" font-family="Helvetica,sans-Serif" font-size="10.00"> </text>
<polyline fill="none" stroke="black" points="519,-323 674,-323 "/>
<text text-anchor="middle" x="596.5" y="-311" font-family="Helvetica,sans-Serif" font-size="10.00"> </text>
</a>
</g>
</g>
<!-- Node10&#45;&gt;Node17 -->
<g id="edge21" class="edge">
<title>Node10&#45;&gt;Node17</title>
<path fill="none" stroke="midnightblue" d="M712.01,-420.57C688.69,-404.1 663.89,-386.59 643.27,-372.03"/>
<polygon fill="none" stroke="midnightblue" points="710,-423.44 720.19,-426.35 714.04,-417.72 710,-423.44"/>
</g>
<!-- Node11 -->
<g id="node11" class="node">
<title>Node11</title>
<g id="a_node11"><a xlink:href="../../d0/d27/classMyBLAS_1_1Matrix.html" target="_top" xlink:title=" ">
<polygon fill="white" stroke="black" points="728,-575.5 728,-665.5 853,-665.5 853,-575.5 728,-575.5"/>
<text text-anchor="middle" x="790.5" y="-653.5" font-family="Helvetica,sans-Serif" font-size="10.00">MyBLAS::Matrix&lt; T &gt;</text>
<polyline fill="none" stroke="black" points="728,-646.5 853,-646.5 "/>
<text text-anchor="start" x="736" y="-634.5" font-family="Helvetica,sans-Serif" font-size="10.00"># data</text>
<polyline fill="none" stroke="black" points="728,-627.5 853,-627.5 "/>
<text text-anchor="start" x="736" y="-615.5" font-family="Helvetica,sans-Serif" font-size="10.00">+ getAllocatedBytes()</text>
<text text-anchor="start" x="736" y="-604.5" font-family="Helvetica,sans-Serif" font-size="10.00">and 38 more...</text>
<text text-anchor="start" x="736" y="-593.5" font-family="Helvetica,sans-Serif" font-size="10.00">+ eye()</text>
<text text-anchor="start" x="736" y="-582.5" font-family="Helvetica,sans-Serif" font-size="10.00">and 1 more...</text>
</a>
</g>
</g>
<!-- Node11&#45;&gt;Node10 -->
<g id="edge10" class="edge">
<title>Node11&#45;&gt;Node10</title>
<path fill="none" stroke="#404040" d="M790.5,-575.12C790.5,-563.93 790.5,-551.71 790.5,-539.84"/>
<polygon fill="none" stroke="#404040" points="790.5,-539.64 786.5,-533.64 790.5,-527.64 794.5,-533.64 790.5,-539.64"/>
<text text-anchor="middle" x="824.5" y="-549" font-family="Helvetica,sans-Serif" font-size="10.00"> +coefficients</text>
</g>
<!-- Node12 -->
<g id="node12" class="node">
<title>Node12</title>
<g id="a_node12"><a xlink:title=" ">
<polygon fill="white" stroke="#bfbfbf" points="692.5,-309.5 692.5,-366.5 842.5,-366.5 842.5,-309.5 692.5,-309.5"/>
<text text-anchor="middle" x="767.5" y="-354.5" font-family="Helvetica,sans-Serif" font-size="10.00">std::set&lt; IntegrationRule &gt;</text>
<polyline fill="none" stroke="#bfbfbf" points="692.5,-347.5 842.5,-347.5 "/>
<text text-anchor="start" x="700.5" y="-335.5" font-family="Helvetica,sans-Serif" font-size="10.00">+ keys</text>
<polyline fill="none" stroke="#bfbfbf" points="692.5,-328.5 842.5,-328.5 "/>
<text text-anchor="middle" x="767.5" y="-316.5" font-family="Helvetica,sans-Serif" font-size="10.00"> </text>
</a>
</g>
</g>
<!-- Node12&#45;&gt;Node7 -->
<g id="edge14" class="edge">
<title>Node12&#45;&gt;Node7</title>
<path fill="none" stroke="#404040" d="M811.93,-309.44C824.57,-301.9 838.45,-293.91 851.5,-287 898.76,-261.96 910.32,-254.5 960.5,-236 1017.71,-214.91 1085.32,-197.18 1131.79,-186.05"/>
<polygon fill="none" stroke="#404040" points="1132.04,-185.99 1136.96,-180.72 1143.72,-183.23 1138.8,-188.5 1132.04,-185.99"/>
<text text-anchor="middle" x="1001.5" y="-250" font-family="Helvetica,sans-Serif" font-size="10.00"> +integral_types</text>
</g>
<!-- Node13 -->
<g id="node13" class="node">
<title>Node13</title>
<g id="a_node13"><a xlink:title=" ">
<polygon fill="white" stroke="#bfbfbf" points="860.5,-309.5 860.5,-366.5 1008.5,-366.5 1008.5,-309.5 860.5,-309.5"/>
<text text-anchor="middle" x="934.5" y="-354.5" font-family="Helvetica,sans-Serif" font-size="10.00">std::vector&lt; long double &gt;</text>
<polyline fill="none" stroke="#bfbfbf" points="860.5,-347.5 1008.5,-347.5 "/>
<text text-anchor="start" x="868.5" y="-335.5" font-family="Helvetica,sans-Serif" font-size="10.00">+ elements</text>
<polyline fill="none" stroke="#bfbfbf" points="860.5,-328.5 1008.5,-328.5 "/>
<text text-anchor="middle" x="934.5" y="-316.5" font-family="Helvetica,sans-Serif" font-size="10.00"> </text>
</a>
</g>
</g>
<!-- Node13&#45;&gt;Node7 -->
<g id="edge16" class="edge">
<title>Node13&#45;&gt;Node7</title>
<path fill="none" stroke="#404040" d="M977.13,-309.45C1020.21,-281.61 1086.89,-238.52 1133.61,-208.33"/>
<polygon fill="none" stroke="#404040" points="1133.77,-208.23 1136.63,-201.61 1143.84,-201.71 1140.98,-208.33 1133.77,-208.23"/>
<text text-anchor="middle" x="1107" y="-255.5" font-family="Helvetica,sans-Serif" font-size="10.00"> +fxData</text>
<text text-anchor="middle" x="1107" y="-244.5" font-family="Helvetica,sans-Serif" font-size="10.00">+xData</text>
</g>
<!-- Node14 -->
<g id="node14" class="node">
<title>Node14</title>
<g id="a_node14"><a xlink:title=" ">
<polygon fill="white" stroke="#bfbfbf" points="1361,-309.5 1361,-366.5 1426,-366.5 1426,-309.5 1361,-309.5"/>
<text text-anchor="middle" x="1393.5" y="-354.5" font-family="Helvetica,sans-Serif" font-size="10.00">std::string</text>
<polyline fill="none" stroke="#bfbfbf" points="1361,-347.5 1426,-347.5 "/>
<text text-anchor="middle" x="1393.5" y="-335.5" font-family="Helvetica,sans-Serif" font-size="10.00"> </text>
<polyline fill="none" stroke="#bfbfbf" points="1361,-328.5 1426,-328.5 "/>
<text text-anchor="middle" x="1393.5" y="-316.5" font-family="Helvetica,sans-Serif" font-size="10.00"> </text>
</a>
</g>
</g>
<!-- Node14&#45;&gt;Node7 -->
<g id="edge17" class="edge">
<title>Node14&#45;&gt;Node7</title>
<path fill="none" stroke="#404040" d="M1386.12,-309.18C1378.88,-286.74 1365.77,-255.77 1344.5,-236 1316.27,-209.76 1275.67,-193.99 1242.83,-184.86"/>
<polygon fill="none" stroke="#404040" points="1242.73,-184.83 1235.91,-187.18 1231.12,-181.79 1237.94,-179.44 1242.73,-184.83"/>
<text text-anchor="middle" x="1422.5" y="-255.5" font-family="Helvetica,sans-Serif" font-size="10.00"> +fluxOutputDirectory</text>
<text text-anchor="middle" x="1422.5" y="-244.5" font-family="Helvetica,sans-Serif" font-size="10.00">+outputJSON</text>
</g>
<!-- Node15 -->
<g id="node15" class="node">
<title>Node15</title>
<g id="a_node15"><a xlink:title=" ">
<polygon fill="white" stroke="#bfbfbf" points="1341.5,-443 1341.5,-511 1445.5,-511 1445.5,-443 1341.5,-443"/>
<text text-anchor="start" x="1349.5" y="-499" font-family="Helvetica,sans-Serif" font-size="10.00">std::basic_string&lt;</text>
<text text-anchor="middle" x="1393.5" y="-488" font-family="Helvetica,sans-Serif" font-size="10.00"> Char &gt;</text>
<polyline fill="none" stroke="#bfbfbf" points="1341.5,-481 1445.5,-481 "/>
<text text-anchor="middle" x="1393.5" y="-469" font-family="Helvetica,sans-Serif" font-size="10.00"> </text>
<polyline fill="none" stroke="#bfbfbf" points="1341.5,-462 1445.5,-462 "/>
<text text-anchor="middle" x="1393.5" y="-450" font-family="Helvetica,sans-Serif" font-size="10.00"> </text>
</a>
</g>
</g>
<!-- Node15&#45;&gt;Node14 -->
<g id="edge18" class="edge">
<title>Node15&#45;&gt;Node14</title>
<path fill="none" stroke="midnightblue" d="M1393.5,-432.61C1393.5,-411.07 1393.5,-385.68 1393.5,-366.78"/>
<polygon fill="none" stroke="midnightblue" points="1390,-432.84 1393.5,-442.84 1397,-432.84 1390,-432.84"/>
</g>
<!-- Node16 -->
<g id="node16" class="node">
<title>Node16</title>
<g id="a_node16"><a xlink:title=" ">
<polygon fill="white" stroke="#bfbfbf" points="1200,-309.5 1200,-366.5 1343,-366.5 1343,-309.5 1200,-309.5"/>
<text text-anchor="middle" x="1271.5" y="-354.5" font-family="Helvetica,sans-Serif" font-size="10.00">std::set&lt; SolverMethod &gt;</text>
<polyline fill="none" stroke="#bfbfbf" points="1200,-347.5 1343,-347.5 "/>
<text text-anchor="start" x="1208" y="-335.5" font-family="Helvetica,sans-Serif" font-size="10.00">+ keys</text>
<polyline fill="none" stroke="#bfbfbf" points="1200,-328.5 1343,-328.5 "/>
<text text-anchor="middle" x="1271.5" y="-316.5" font-family="Helvetica,sans-Serif" font-size="10.00"> </text>
</a>
</g>
</g>
<!-- Node16&#45;&gt;Node7 -->
<g id="edge19" class="edge">
<title>Node16&#45;&gt;Node7</title>
<path fill="none" stroke="#404040" d="M1264.22,-309.44C1258.11,-288.56 1248.32,-259.54 1235.5,-236 1232.97,-231.35 1230.1,-226.67 1227.06,-222.08"/>
<polygon fill="none" stroke="#404040" points="1227.05,-222.08 1220.34,-219.44 1220.19,-212.23 1226.9,-214.87 1227.05,-222.08"/>
<text text-anchor="middle" x="1295.5" y="-250" font-family="Helvetica,sans-Serif" font-size="10.00"> +solver_methods</text>
</g>
<!-- Node17&#45;&gt;Node7 -->
<g id="edge20" class="edge">
<title>Node17&#45;&gt;Node7</title>
<path fill="none" stroke="#404040" d="M649.86,-303.93C660.77,-297.86 672.33,-291.9 683.5,-287 837.58,-219.43 1036.45,-189.94 1131.75,-179.01"/>
<polygon fill="none" stroke="#404040" points="1132.03,-178.98 1137.54,-174.34 1143.95,-177.65 1138.43,-182.29 1132.03,-178.98"/>
<text text-anchor="middle" x="836" y="-250" font-family="Helvetica,sans-Serif" font-size="10.00"> +input</text>
</g>
<!-- Node18 -->
<g id="node18" class="node">
<title>Node18</title>
<g id="a_node18"><a xlink:title=" ">
<polygon fill="white" stroke="#bfbfbf" points="1444,-304 1444,-372 1585,-372 1585,-304 1444,-304"/>
<text text-anchor="start" x="1452" y="-360" font-family="Helvetica,sans-Serif" font-size="10.00">std::set&lt; MyBLAS::Solver</text>
<text text-anchor="middle" x="1514.5" y="-349" font-family="Helvetica,sans-Serif" font-size="10.00">::Type &gt;</text>
<polyline fill="none" stroke="#bfbfbf" points="1444,-342 1585,-342 "/>
<text text-anchor="start" x="1452" y="-330" font-family="Helvetica,sans-Serif" font-size="10.00">+ keys</text>
<polyline fill="none" stroke="#bfbfbf" points="1444,-323 1585,-323 "/>
<text text-anchor="middle" x="1514.5" y="-311" font-family="Helvetica,sans-Serif" font-size="10.00"> </text>
</a>
</g>
</g>
<!-- Node18&#45;&gt;Node7 -->
<g id="edge22" class="edge">
<title>Node18&#45;&gt;Node7</title>
<path fill="none" stroke="#404040" d="M1511.71,-303.72C1508.07,-281.42 1499.7,-253.11 1480.5,-236 1445.98,-205.22 1318.01,-187.04 1243.09,-178.81"/>
<polygon fill="none" stroke="#404040" points="1243.03,-178.81 1236.64,-182.15 1231.1,-177.53 1237.49,-174.19 1243.03,-178.81"/>
<text text-anchor="middle" x="1529" y="-250" font-family="Helvetica,sans-Serif" font-size="10.00"> +methods</text>
</g>
<!-- Node19 -->
<g id="node19" class="node">
<title>Node19</title>
<g id="a_node19"><a xlink:title=" ">
<polygon fill="white" stroke="#bfbfbf" points="1603.5,-304 1603.5,-372 1771.5,-372 1771.5,-304 1603.5,-304"/>
<text text-anchor="start" x="1611.5" y="-360" font-family="Helvetica,sans-Serif" font-size="10.00">std::set&lt; MyRelaxationMethod</text>
<text text-anchor="middle" x="1687.5" y="-349" font-family="Helvetica,sans-Serif" font-size="10.00">::Type &gt;</text>
<polyline fill="none" stroke="#bfbfbf" points="1603.5,-342 1771.5,-342 "/>
<text text-anchor="start" x="1611.5" y="-330" font-family="Helvetica,sans-Serif" font-size="10.00">+ keys</text>
<polyline fill="none" stroke="#bfbfbf" points="1603.5,-323 1771.5,-323 "/>
<text text-anchor="middle" x="1687.5" y="-311" font-family="Helvetica,sans-Serif" font-size="10.00"> </text>
</a>
</g>
</g>
<!-- Node19&#45;&gt;Node7 -->
<g id="edge23" class="edge">
<title>Node19&#45;&gt;Node7</title>
<path fill="none" stroke="#404040" d="M1638.56,-303.83C1623.71,-293.18 1607.6,-281.02 1593.5,-269 1577.71,-255.55 1578.94,-245.5 1560.5,-236 1506.15,-208 1333.46,-187.66 1243.39,-178.66"/>
<polygon fill="none" stroke="#404040" points="1243.19,-178.64 1236.83,-182.03 1231.25,-177.46 1237.61,-174.07 1243.19,-178.64"/>
<text text-anchor="middle" x="1621" y="-250" font-family="Helvetica,sans-Serif" font-size="10.00"> +methods</text>
</g>
<!-- Node20 -->
<g id="node20" class="node">
<title>Node20</title>
<g id="a_node20"><a xlink:href="../../d7/db7/structMyBLAS_1_1Solver_1_1Solution.html" target="_top" xlink:title=" ">
<polygon fill="white" stroke="black" points="1915.5,-127.5 1915.5,-217.5 2055.5,-217.5 2055.5,-127.5 1915.5,-127.5"/>
<text text-anchor="start" x="1923.5" y="-205.5" font-family="Helvetica,sans-Serif" font-size="10.00">MyBLAS::Solver::Solution</text>
<text text-anchor="middle" x="1985.5" y="-194.5" font-family="Helvetica,sans-Serif" font-size="10.00">&lt; long double &gt;</text>
<polyline fill="none" stroke="black" points="1915.5,-187.5 2055.5,-187.5 "/>
<text text-anchor="start" x="1923.5" y="-175.5" font-family="Helvetica,sans-Serif" font-size="10.00">+ method</text>
<text text-anchor="start" x="1923.5" y="-164.5" font-family="Helvetica,sans-Serif" font-size="10.00">and 5 more...</text>
<polyline fill="none" stroke="black" points="1915.5,-157.5 2055.5,-157.5 "/>
<text text-anchor="start" x="1923.5" y="-145.5" font-family="Helvetica,sans-Serif" font-size="10.00">+ Solution()</text>
<text text-anchor="start" x="1923.5" y="-134.5" font-family="Helvetica,sans-Serif" font-size="10.00">and 5 more...</text>
</a>
</g>
</g>
<!-- Node20&#45;&gt;Node1 -->
<g id="edge24" class="edge">
<title>Node20&#45;&gt;Node1</title>
<path fill="none" stroke="#404040" d="M1927.27,-127.32C1908.43,-113.03 1887.61,-97.23 1868.98,-83.09"/>
<polygon fill="none" stroke="#404040" points="1868.73,-82.9 1861.53,-82.46 1859.17,-75.65 1866.37,-76.09 1868.73,-82.9"/>
<text text-anchor="middle" x="1925" y="-101" font-family="Helvetica,sans-Serif" font-size="10.00"> +solution</text>
</g>
<!-- Node21 -->
<g id="node21" class="node">
<title>Node21</title>
<g id="a_node21"><a xlink:href="../../d7/d64/labs_2inlab1_2Compute_8h.html#de/de5/structFactorial" target="_top" xlink:title="Struct to hold factorial data.">
<polygon fill="white" stroke="black" points="2074,-138.5 2074,-206.5 2155,-206.5 2155,-138.5 2074,-138.5"/>
<text text-anchor="middle" x="2114.5" y="-194.5" font-family="Helvetica,sans-Serif" font-size="10.00">Factorial</text>
<polyline fill="none" stroke="black" points="2074,-187.5 2155,-187.5 "/>
<text text-anchor="start" x="2082" y="-175.5" font-family="Helvetica,sans-Serif" font-size="10.00">+ n</text>
<text text-anchor="start" x="2082" y="-164.5" font-family="Helvetica,sans-Serif" font-size="10.00">and 1 more...</text>
<polyline fill="none" stroke="black" points="2074,-157.5 2155,-157.5 "/>
<text text-anchor="middle" x="2114.5" y="-145.5" font-family="Helvetica,sans-Serif" font-size="10.00"> </text>
</a>
</g>
</g>
<!-- Node21&#45;&gt;Node1 -->
<g id="edge25" class="edge">
<title>Node21&#45;&gt;Node1</title>
<path fill="none" stroke="#404040" d="M2080.92,-138.47C2075.67,-134.26 2070.12,-130.28 2064.5,-127 2002.88,-91 1923.91,-67.08 1871.16,-53.8"/>
<polygon fill="none" stroke="#404040" points="1870.99,-53.75 1864.2,-56.2 1859.33,-50.89 1866.11,-48.44 1870.99,-53.75"/>
<text text-anchor="middle" x="2078.5" y="-101" font-family="Helvetica,sans-Serif" font-size="10.00"> +computed_factorial</text>
</g>
<!-- Node22 -->
<g id="node22" class="node">
<title>Node22</title>
<g id="a_node22"><a xlink:href="../../dc/da4/structMyBLAS_1_1Stats_1_1Summary.html" target="_top" xlink:title=" ">
<polygon fill="white" stroke="black" points="2173,-133 2173,-212 2314,-212 2314,-133 2173,-133"/>
<text text-anchor="start" x="2181" y="-200" font-family="Helvetica,sans-Serif" font-size="10.00">MyBLAS::Stats::Summary</text>
<text text-anchor="middle" x="2243.5" y="-189" font-family="Helvetica,sans-Serif" font-size="10.00">&lt; long double &gt;</text>
<polyline fill="none" stroke="black" points="2173,-182 2314,-182 "/>
<text text-anchor="start" x="2181" y="-170" font-family="Helvetica,sans-Serif" font-size="10.00">+ min</text>
<text text-anchor="start" x="2181" y="-159" font-family="Helvetica,sans-Serif" font-size="10.00">and 10 more...</text>
<polyline fill="none" stroke="black" points="2173,-152 2314,-152 "/>
<text text-anchor="start" x="2181" y="-140" font-family="Helvetica,sans-Serif" font-size="10.00">+ toJSON()</text>
</a>
</g>
</g>
<!-- Node22&#45;&gt;Node1 -->
<g id="edge26" class="edge">
<title>Node22&#45;&gt;Node1</title>
<path fill="none" stroke="#404040" d="M2196.27,-132.98C2178.22,-120.03 2156.82,-106.67 2135.5,-98 2047.69,-62.27 1937.43,-48.9 1871.37,-43.92"/>
<polygon fill="none" stroke="#404040" points="1871.13,-43.91 1864.87,-47.48 1859.16,-43.06 1865.43,-39.49 1871.13,-43.91"/>
<text text-anchor="middle" x="2186.5" y="-101" font-family="Helvetica,sans-Serif" font-size="10.00"> +summary</text>
</g>
<!-- Node23 -->
<g id="node23" class="node">
<title>Node23</title>
<g id="a_node23"><a xlink:href="../../dc/da4/structMyBLAS_1_1Stats_1_1Summary.html" target="_top" xlink:title=" ">
<polygon fill="white" stroke="black" points="2332,-133 2332,-212 2481,-212 2481,-133 2332,-133"/>
<text text-anchor="start" x="2340" y="-200" font-family="Helvetica,sans-Serif" font-size="10.00">MyBLAS::Stats::Summary</text>
<text text-anchor="middle" x="2406.5" y="-189" font-family="Helvetica,sans-Serif" font-size="10.00">&lt; MyBLAS::NumericType &gt;</text>
<polyline fill="none" stroke="black" points="2332,-182 2481,-182 "/>
<text text-anchor="start" x="2340" y="-170" font-family="Helvetica,sans-Serif" font-size="10.00">+ min</text>
<text text-anchor="start" x="2340" y="-159" font-family="Helvetica,sans-Serif" font-size="10.00">and 10 more...</text>
<polyline fill="none" stroke="black" points="2332,-152 2481,-152 "/>
<text text-anchor="start" x="2340" y="-140" font-family="Helvetica,sans-Serif" font-size="10.00">+ toJSON()</text>
</a>
</g>
</g>
<!-- Node23&#45;&gt;Node1 -->
<g id="edge27" class="edge">
<title>Node23&#45;&gt;Node1</title>
<path fill="none" stroke="#404040" d="M2337.29,-132.97C2332.68,-130.84 2328.05,-128.83 2323.5,-127 2168.05,-64.54 1968.3,-47.44 1871.39,-42.76"/>
<polygon fill="none" stroke="#404040" points="1871.24,-42.76 1865.06,-46.48 1859.25,-42.22 1865.42,-38.49 1871.24,-42.76"/>
<text text-anchor="middle" x="2299.5" y="-101" font-family="Helvetica,sans-Serif" font-size="10.00"> +summary</text>
</g>
</g>
</svg>
        <g id="navigator" transform="translate(0 0)" fill="#404254">
                <rect fill="#f2f5e9" fill-opacity="0.5" stroke="#606060" stroke-width=".5" x="0" y="0" width="60" height="60"/>
                <use id="zoomplus" xlink:href="#zoomPlus" x="17" y="9" onmousedown="handleZoom(evt,'in')"/>
                <use id="zoomminus" xlink:href="#zoomMin" x="42" y="9" onmousedown="handleZoom(evt,'out')"/>
                <use id="reset" xlink:href="#resetDef" x="30" y="36" onmousedown="handleReset()"/>
                <g id="arrowUp" xlink:href="#dirArrow" transform="translate(30 24)" onmousedown="handlePan(0,-1)">
                  <use xlink:href="#rim" fill="#404040">
                        <set attributeName="fill" to="#808080" begin="arrowUp.mouseover" end="arrowUp.mouseout"/>
                  </use>
                  <path fill="none" stroke="white" stroke-width="1.5" d="M0,-3.0v7 M-2.5,-0.5L0,-3.0L2.5,-0.5"/>
                </g>
                <g id="arrowRight" xlink:href="#dirArrow" transform="rotate(90) translate(36 -43)" onmousedown="handlePan(1,0)">
                  <use xlink:href="#rim" fill="#404040">
                        <set attributeName="fill" to="#808080" begin="arrowRight.mouseover" end="arrowRight.mouseout"/>
                  </use>
                  <path fill="none" stroke="white" stroke-width="1.5" d="M0,-3.0v7 M-2.5,-0.5L0,-3.0L2.5,-0.5"/>
                </g>
                <g id="arrowDown" xlink:href="#dirArrow" transform="rotate(180) translate(-30 -48)" onmousedown="handlePan(0,1)">
                  <use xlink:href="#rim" fill="#404040">
                        <set attributeName="fill" to="#808080" begin="arrowDown.mouseover" end="arrowDown.mouseout"/>
                  </use>
                  <path fill="none" stroke="white" stroke-width="1.5" d="M0,-3.0v7 M-2.5,-0.5L0,-3.0L2.5,-0.5"/>
                </g>
                <g id="arrowLeft" xlink:href="#dirArrow" transform="rotate(270) translate(-36 17)" onmousedown="handlePan(-1,0)">
                  <use xlink:href="#rim" fill="#404040">
                        <set attributeName="fill" to="#808080" begin="arrowLeft.mouseover" end="arrowLeft.mouseout"/>
                  </use>
                  <path fill="none" stroke="white" stroke-width="1.5" d="M0,-3.0v7 M-2.5,-0.5L0,-3.0L2.5,-0.5"/>
                </g>
        </g>
        <svg viewBox="0 0 15 15" width="100%" height="30px" preserveAspectRatio="xMaxYMin meet">
         <g id="arrow_out" transform="scale(0.3 0.3)">
          <a xlink:href="structOutput__coll__graph_org.svg" target="_base">
           <rect id="button" ry="5" rx="5" y="6" x="6" height="38" width="38"
                fill="#f2f5e9" fill-opacity="0.5" stroke="#606060" stroke-width="1.0"/>
           <path id="arrow"
             d="M 11.500037,31.436501 C 11.940474,20.09759 22.043105,11.32322 32.158766,21.979434 L 37.068811,17.246167 C 37.068811,17.246167 37.088388,32 37.088388,32 L 22.160133,31.978069 C 22.160133,31.978069 26.997745,27.140456 26.997745,27.140456 C 18.528582,18.264221 13.291696,25.230495 11.500037,31.436501 z"
             style="fill:#404040;"/>
          </a>
         </g>
        </svg>
</svg>
