<?xml version="1.0" encoding="UTF-8" standalone="no"?>
<!DOCTYPE svg PUBLIC "-//W3C//DTD SVG 1.1//EN"
 "http://www.w3.org/Graphics/SVG/1.1/DTD/svg11.dtd">
<!-- Generated by graphviz version 2.43.0 (0)
 -->
<!-- Title: src/project/project1/project1.h Pages: 1 -->
<svg width="2298pt" height="565pt"
 viewBox="0.00 0.00 2298.00 565.00" xmlns="http://www.w3.org/2000/svg" xmlns:xlink="http://www.w3.org/1999/xlink">
<g id="graph0" class="graph" transform="scale(1 1) rotate(0) translate(4 561)">
<title>src/project/project1/project1.h</title>
<polygon fill="white" stroke="transparent" points="-4,4 -4,-561 2294,-561 2294,4 -4,4"/>
<!-- Node1 -->
<g id="node1" class="node">
<title>Node1</title>
<g id="a_node1"><a xlink:title=" ">
<polygon fill="#bfbfbf" stroke="black" points="1310,-526.5 1310,-556.5 1420,-556.5 1420,-526.5 1310,-526.5"/>
<text text-anchor="start" x="1318" y="-544.5" font-family="Helvetica,sans-Serif" font-size="10.00">src/project/project1</text>
<text text-anchor="middle" x="1365" y="-533.5" font-family="Helvetica,sans-Serif" font-size="10.00">/project1.h</text>
</a>
</g>
</g>
<!-- Node2 -->
<g id="node2" class="node">
<title>Node2</title>
<g id="a_node2"><a xlink:title=" ">
<polygon fill="white" stroke="#bfbfbf" points="738,-112.5 738,-131.5 888,-131.5 888,-112.5 738,-112.5"/>
<text text-anchor="middle" x="813" y="-119.5" font-family="Helvetica,sans-Serif" font-size="10.00">boost/program_options.hpp</text>
</a>
</g>
</g>
<!-- Node1&#45;&gt;Node2 -->
<g id="edge1" class="edge">
<title>Node1&#45;&gt;Node2</title>
<path fill="none" stroke="midnightblue" d="M1309.79,-541.26C1217.32,-541.12 1026.08,-534.79 872,-490 809.97,-471.97 742,-489.6 742,-425 742,-425 742,-425 742,-238.5 742,-197.8 774.39,-159.39 795.42,-138.74"/>
<polygon fill="midnightblue" stroke="midnightblue" points="797.97,-141.15 802.83,-131.73 793.16,-136.06 797.97,-141.15"/>
</g>
<!-- Node3 -->
<g id="node3" class="node">
<title>Node3</title>
<g id="a_node3"><a xlink:title=" ">
<polygon fill="white" stroke="#bfbfbf" points="1675,-0.5 1675,-19.5 1731,-19.5 1731,-0.5 1675,-0.5"/>
<text text-anchor="middle" x="1703" y="-7.5" font-family="Helvetica,sans-Serif" font-size="10.00">iomanip</text>
</a>
</g>
</g>
<!-- Node1&#45;&gt;Node3 -->
<g id="edge2" class="edge">
<title>Node1&#45;&gt;Node3</title>
<path fill="none" stroke="midnightblue" d="M1420.1,-540.04C1568.12,-538.26 1971.7,-529.8 2098,-490 2151.43,-473.16 2206,-481.02 2206,-425 2206,-425 2206,-425 2206,-121 2206,-25.97 1859.05,-12.92 1741.45,-11.22"/>
<polygon fill="midnightblue" stroke="midnightblue" points="1741.16,-7.72 1731.12,-11.09 1741.08,-14.72 1741.16,-7.72"/>
</g>
<!-- Node4 -->
<g id="node4" class="node">
<title>Node4</title>
<g id="a_node4"><a xlink:title=" ">
<polygon fill="white" stroke="#bfbfbf" points="1109,-0.5 1109,-19.5 1169,-19.5 1169,-0.5 1109,-0.5"/>
<text text-anchor="middle" x="1139" y="-7.5" font-family="Helvetica,sans-Serif" font-size="10.00">iostream</text>
</a>
</g>
</g>
<!-- Node1&#45;&gt;Node4 -->
<g id="edge3" class="edge">
<title>Node1&#45;&gt;Node4</title>
<path fill="none" stroke="midnightblue" d="M1309.8,-538.77C1054.43,-530.42 0,-491.89 0,-425 0,-425 0,-425 0,-121 0,-8.23 896.05,-8.97 1098.63,-10.58"/>
<polygon fill="midnightblue" stroke="midnightblue" points="1098.8,-14.08 1108.83,-10.66 1098.86,-7.08 1098.8,-14.08"/>
</g>
<!-- Node5 -->
<g id="node5" class="node">
<title>Node5</title>
<g id="a_node5"><a xlink:title=" ">
<polygon fill="white" stroke="#bfbfbf" points="2234,-470.5 2234,-489.5 2290,-489.5 2290,-470.5 2234,-470.5"/>
<text text-anchor="middle" x="2262" y="-477.5" font-family="Helvetica,sans-Serif" font-size="10.00">numeric</text>
</a>
</g>
</g>
<!-- Node1&#45;&gt;Node5 -->
<g id="edge4" class="edge">
<title>Node1&#45;&gt;Node5</title>
<path fill="none" stroke="midnightblue" d="M1420.05,-540.14C1556.3,-538.63 1919.97,-530.76 2220,-490 2221.25,-489.83 2222.51,-489.64 2223.79,-489.44"/>
<polygon fill="midnightblue" stroke="midnightblue" points="2224.41,-492.89 2233.64,-487.69 2223.18,-486 2224.41,-492.89"/>
</g>
<!-- Node6 -->
<g id="node6" class="node">
<title>Node6</title>
<g id="a_node6"><a xlink:title=" ">
<polygon fill="white" stroke="#bfbfbf" points="1824.5,-230 1824.5,-249 1875.5,-249 1875.5,-230 1824.5,-230"/>
<text text-anchor="middle" x="1850" y="-237" font-family="Helvetica,sans-Serif" font-size="10.00">variant</text>
</a>
</g>
</g>
<!-- Node1&#45;&gt;Node6 -->
<g id="edge5" class="edge">
<title>Node1&#45;&gt;Node6</title>
<path fill="none" stroke="midnightblue" d="M1420.34,-538.06C1541.6,-531.21 1820,-506.6 1820,-425 1820,-425 1820,-425 1820,-361.5 1820,-323.96 1833.77,-281.75 1842.65,-258.43"/>
<polygon fill="midnightblue" stroke="midnightblue" points="1845.91,-259.71 1846.32,-249.12 1839.4,-257.14 1845.91,-259.71"/>
</g>
<!-- Node7 -->
<g id="node7" class="node">
<title>Node7</title>
<g id="a_node7"><a xlink:href="../../da/d85/project_2project1_2InputsOutputs_8h.html" target="_top" xlink:title="This file contains the input and output definitions for this project.">
<polygon fill="white" stroke="black" points="1932,-230 1932,-249 2026,-249 2026,-230 1932,-230"/>
<text text-anchor="middle" x="1979" y="-237" font-family="Helvetica,sans-Serif" font-size="10.00">InputsOutputs.h</text>
</a>
</g>
</g>
<!-- Node1&#45;&gt;Node7 -->
<g id="edge6" class="edge">
<title>Node1&#45;&gt;Node7</title>
<path fill="none" stroke="midnightblue" d="M1420.02,-538C1595.42,-529.29 2130,-496.86 2130,-425 2130,-425 2130,-425 2130,-361.5 2130,-303.76 2061.93,-269.01 2017.19,-252.4"/>
<polygon fill="midnightblue" stroke="midnightblue" points="2018.35,-249.1 2007.76,-249.04 2016,-255.69 2018.35,-249.1"/>
</g>
<!-- Node9 -->
<g id="node9" class="node">
<title>Node9</title>
<g id="a_node9"><a xlink:title=" ">
<polygon fill="white" stroke="#bfbfbf" points="1106,-112.5 1106,-131.5 1164,-131.5 1164,-112.5 1106,-112.5"/>
<text text-anchor="middle" x="1135" y="-119.5" font-family="Helvetica,sans-Serif" font-size="10.00">json.hpp</text>
</a>
</g>
</g>
<!-- Node1&#45;&gt;Node9 -->
<g id="edge88" class="edge">
<title>Node1&#45;&gt;Node9</title>
<path fill="none" stroke="midnightblue" d="M1309.71,-538.1C1237.45,-531.65 1120,-508.35 1120,-425 1120,-425 1120,-425 1120,-361.5 1120,-300.23 1087.79,-281.1 1110,-224 1117.87,-203.77 1135.13,-208.23 1143,-188 1148.85,-172.95 1145.75,-154.59 1141.83,-141.23"/>
<polygon fill="midnightblue" stroke="midnightblue" points="1145.15,-140.12 1138.66,-131.74 1138.51,-142.34 1145.15,-140.12"/>
</g>
<!-- Node10 -->
<g id="node10" class="node">
<title>Node10</title>
<g id="a_node10"><a xlink:href="../../d3/db1/Matrix_8h.html" target="_top" xlink:title="This file contains my BLAS::Matrix declarations.">
<polygon fill="white" stroke="black" points="1924.5,-112.5 1924.5,-131.5 2033.5,-131.5 2033.5,-112.5 1924.5,-112.5"/>
<text text-anchor="middle" x="1979" y="-119.5" font-family="Helvetica,sans-Serif" font-size="10.00">math/blas/Matrix.h</text>
</a>
</g>
</g>
<!-- Node1&#45;&gt;Node10 -->
<g id="edge84" class="edge">
<title>Node1&#45;&gt;Node10</title>
<path fill="none" stroke="midnightblue" d="M1420.05,-538.68C1556.7,-533.79 1908.53,-518.71 2022,-490 2090.86,-472.58 2168,-496.03 2168,-425 2168,-425 2168,-425 2168,-238.5 2168,-177.37 2095.13,-147.63 2039.89,-133.86"/>
<polygon fill="midnightblue" stroke="midnightblue" points="2040.68,-130.45 2030.15,-131.55 2039.07,-137.26 2040.68,-130.45"/>
</g>
<!-- Node14 -->
<g id="node14" class="node">
<title>Node14</title>
<g id="a_node14"><a xlink:href="../../d9/d77/MyBLAS_8h.html" target="_top" xlink:title="My BLAS methods for NE591&#45;008.">
<polygon fill="white" stroke="black" points="1749,-168.5 1749,-187.5 1867,-187.5 1867,-168.5 1749,-168.5"/>
<text text-anchor="middle" x="1808" y="-175.5" font-family="Helvetica,sans-Serif" font-size="10.00">math/blas/MyBLAS.h</text>
</a>
</g>
</g>
<!-- Node1&#45;&gt;Node14 -->
<g id="edge85" class="edge">
<title>Node1&#45;&gt;Node14</title>
<path fill="none" stroke="midnightblue" d="M1420.15,-540.26C1557.52,-538.19 1904,-523.21 1904,-425 1904,-425 1904,-425 1904,-300 1904,-265.07 1905.05,-251.87 1884,-224 1873.31,-209.85 1856.77,-199.3 1841.84,-191.98"/>
<polygon fill="midnightblue" stroke="midnightblue" points="1842.89,-188.61 1832.34,-187.64 1839.98,-194.98 1842.89,-188.61"/>
</g>
<!-- Node16 -->
<g id="node16" class="node">
<title>Node16</title>
<g id="a_node16"><a xlink:href="../../d0/df9/project_2project1_2Parser_8h.html" target="_top" xlink:title="This file contains the Parser class which is responsible for parsing command line arguments and valid...">
<polygon fill="white" stroke="black" points="881.5,-470.5 881.5,-489.5 936.5,-489.5 936.5,-470.5 881.5,-470.5"/>
<text text-anchor="middle" x="909" y="-477.5" font-family="Helvetica,sans-Serif" font-size="10.00">Parser.h</text>
</a>
</g>
</g>
<!-- Node1&#45;&gt;Node16 -->
<g id="edge22" class="edge">
<title>Node1&#45;&gt;Node16</title>
<path fill="none" stroke="midnightblue" d="M1310,-533.32C1216.14,-521.08 1027.41,-496.45 946.85,-485.94"/>
<polygon fill="midnightblue" stroke="midnightblue" points="947.04,-482.43 936.67,-484.61 946.13,-489.38 947.04,-482.43"/>
</g>
<!-- Node18 -->
<g id="node18" class="node">
<title>Node18</title>
<g id="a_node18"><a xlink:href="../../d9/d41/CommandLine_8h.html" target="_top" xlink:title="This file contains the definition of the CommandLine class and the HeaderInfo struct.">
<polygon fill="white" stroke="black" points="928,-230 928,-249 1024,-249 1024,-230 928,-230"/>
<text text-anchor="middle" x="976" y="-237" font-family="Helvetica,sans-Serif" font-size="10.00">CommandLine.h</text>
</a>
</g>
</g>
<!-- Node1&#45;&gt;Node18 -->
<g id="edge79" class="edge">
<title>Node1&#45;&gt;Node18</title>
<path fill="none" stroke="midnightblue" d="M1309.92,-539.35C1255.13,-536.09 1170.2,-525.14 1106,-490 1070.98,-470.83 1044,-464.92 1044,-425 1044,-425 1044,-425 1044,-361.5 1044,-328.93 1040.13,-319.29 1024,-291 1016.34,-277.57 1004.36,-264.96 994.29,-255.7"/>
<polygon fill="midnightblue" stroke="midnightblue" points="996.55,-253.03 986.74,-249.04 991.92,-258.28 996.55,-253.03"/>
</g>
<!-- Node23 -->
<g id="node23" class="node">
<title>Node23</title>
<g id="a_node23"><a xlink:href="../../d7/da1/project_2project1_2Compute_8h.html" target="_top" xlink:title="Compute methods for project milestone 1 in NE591&#45;008.">
<polygon fill="white" stroke="black" points="1362,-414.5 1362,-433.5 1432,-433.5 1432,-414.5 1362,-414.5"/>
<text text-anchor="middle" x="1397" y="-421.5" font-family="Helvetica,sans-Serif" font-size="10.00">Compute.h</text>
</a>
</g>
</g>
<!-- Node1&#45;&gt;Node23 -->
<g id="edge87" class="edge">
<title>Node1&#45;&gt;Node23</title>
<path fill="none" stroke="midnightblue" d="M1368.92,-526.34C1374.69,-505.53 1385.46,-466.66 1391.85,-443.58"/>
<polygon fill="midnightblue" stroke="midnightblue" points="1395.3,-444.24 1394.6,-433.67 1388.56,-442.37 1395.3,-444.24"/>
</g>
<!-- Node24 -->
<g id="node24" class="node">
<title>Node24</title>
<g id="a_node24"><a xlink:href="../../d7/dff/LU_8h.html" target="_top" xlink:title="LU factorization and related methods for MyBLAS library.">
<polygon fill="white" stroke="black" points="1268.5,-291.5 1268.5,-310.5 1399.5,-310.5 1399.5,-291.5 1268.5,-291.5"/>
<text text-anchor="middle" x="1334" y="-298.5" font-family="Helvetica,sans-Serif" font-size="10.00">math/factorization/LU.h</text>
</a>
</g>
</g>
<!-- Node1&#45;&gt;Node24 -->
<g id="edge86" class="edge">
<title>Node1&#45;&gt;Node24</title>
<path fill="none" stroke="midnightblue" d="M1363.15,-526.29C1357.84,-485.43 1342.52,-367.55 1336.49,-321.12"/>
<polygon fill="midnightblue" stroke="midnightblue" points="1339.92,-320.41 1335.16,-310.95 1332.98,-321.31 1339.92,-320.41"/>
</g>
<!-- Node38 -->
<g id="node38" class="node">
<title>Node38</title>
<g id="a_node38"><a xlink:href="../../d2/dff/Project_8h.html" target="_top" xlink:title="This file contains the definition of the Project class template. The Project class is a generic class...">
<polygon fill="white" stroke="black" points="956.5,-291.5 956.5,-310.5 1015.5,-310.5 1015.5,-291.5 956.5,-291.5"/>
<text text-anchor="middle" x="986" y="-298.5" font-family="Helvetica,sans-Serif" font-size="10.00">Project.h</text>
</a>
</g>
</g>
<!-- Node1&#45;&gt;Node38 -->
<g id="edge80" class="edge">
<title>Node1&#45;&gt;Node38</title>
<path fill="none" stroke="midnightblue" d="M1309.85,-539.47C1225.43,-536.73 1069.77,-526.7 1030,-490 981.78,-445.5 981.58,-359.13 984.15,-320.94"/>
<polygon fill="midnightblue" stroke="midnightblue" points="987.66,-320.99 984.99,-310.74 980.68,-320.42 987.66,-320.99"/>
</g>
<!-- Node8 -->
<g id="node8" class="node">
<title>Node8</title>
<g id="a_node8"><a xlink:title=" ">
<polygon fill="white" stroke="#bfbfbf" points="1304.5,-168.5 1304.5,-187.5 1349.5,-187.5 1349.5,-168.5 1304.5,-168.5"/>
<text text-anchor="middle" x="1327" y="-175.5" font-family="Helvetica,sans-Serif" font-size="10.00">utility</text>
</a>
</g>
</g>
<!-- Node7&#45;&gt;Node8 -->
<g id="edge7" class="edge">
<title>Node7&#45;&gt;Node8</title>
<path fill="none" stroke="midnightblue" d="M1931.74,-230.55C1916.53,-228.19 1899.58,-225.77 1884,-224 1670.55,-199.78 1615.81,-208.8 1402,-188 1388.1,-186.65 1372.78,-184.86 1359.63,-183.24"/>
<polygon fill="midnightblue" stroke="midnightblue" points="1359.98,-179.75 1349.62,-181.98 1359.1,-186.7 1359.98,-179.75"/>
</g>
<!-- Node7&#45;&gt;Node9 -->
<g id="edge8" class="edge">
<title>Node7&#45;&gt;Node9</title>
<path fill="none" stroke="midnightblue" d="M1931.67,-231.11C1916.46,-228.78 1899.52,-226.23 1884,-224 1612.86,-185.03 1285.84,-142.45 1174.39,-128.07"/>
<polygon fill="midnightblue" stroke="midnightblue" points="1174.66,-124.57 1164.29,-126.76 1173.76,-131.51 1174.66,-124.57"/>
</g>
<!-- Node7&#45;&gt;Node10 -->
<g id="edge9" class="edge">
<title>Node7&#45;&gt;Node10</title>
<path fill="none" stroke="midnightblue" d="M1979,-229.82C1979,-211.26 1979,-167.34 1979,-141.97"/>
<polygon fill="midnightblue" stroke="midnightblue" points="1982.5,-141.78 1979,-131.78 1975.5,-141.78 1982.5,-141.78"/>
</g>
<!-- Node13 -->
<g id="node13" class="node">
<title>Node13</title>
<g id="a_node13"><a xlink:href="../../d6/dbe/Vector_8h.html" target="_top" xlink:title="This file contains my BLAS::Vector implementation.">
<polygon fill="white" stroke="black" points="1649.5,-56.5 1649.5,-75.5 1756.5,-75.5 1756.5,-56.5 1649.5,-56.5"/>
<text text-anchor="middle" x="1703" y="-63.5" font-family="Helvetica,sans-Serif" font-size="10.00">math/blas/Vector.h</text>
</a>
</g>
</g>
<!-- Node7&#45;&gt;Node13 -->
<g id="edge21" class="edge">
<title>Node7&#45;&gt;Node13</title>
<path fill="none" stroke="midnightblue" d="M1967.14,-229.97C1948.16,-216.42 1909.69,-189.33 1876,-168 1824.11,-135.16 1761.5,-99.57 1727.64,-80.65"/>
<polygon fill="midnightblue" stroke="midnightblue" points="1728.93,-77.36 1718.5,-75.55 1725.53,-83.48 1728.93,-77.36"/>
</g>
<!-- Node7&#45;&gt;Node14 -->
<g id="edge17" class="edge">
<title>Node7&#45;&gt;Node14</title>
<path fill="none" stroke="midnightblue" d="M1954.5,-229.98C1925.04,-219.72 1875.42,-202.46 1842.2,-190.9"/>
<polygon fill="midnightblue" stroke="midnightblue" points="1843.05,-187.49 1832.45,-187.51 1840.75,-194.1 1843.05,-187.49"/>
</g>
<!-- Node10&#45;&gt;Node4 -->
<g id="edge11" class="edge">
<title>Node10&#45;&gt;Node4</title>
<path fill="none" stroke="midnightblue" d="M1956.92,-112.49C1918.54,-98.12 1836.77,-69.31 1765,-56 1546.89,-15.56 1279.79,-10.98 1179.56,-10.8"/>
<polygon fill="midnightblue" stroke="midnightblue" points="1179.27,-7.3 1169.27,-10.8 1179.27,-14.3 1179.27,-7.3"/>
</g>
<!-- Node11 -->
<g id="node11" class="node">
<title>Node11</title>
<g id="a_node11"><a xlink:title=" ">
<polygon fill="white" stroke="#bfbfbf" points="1947,-56.5 1947,-75.5 2011,-75.5 2011,-56.5 1947,-56.5"/>
<text text-anchor="middle" x="1979" y="-63.5" font-family="Helvetica,sans-Serif" font-size="10.00">algorithm</text>
</a>
</g>
</g>
<!-- Node10&#45;&gt;Node11 -->
<g id="edge10" class="edge">
<title>Node10&#45;&gt;Node11</title>
<path fill="none" stroke="midnightblue" d="M1979,-112.08C1979,-105.01 1979,-94.86 1979,-85.99"/>
<polygon fill="midnightblue" stroke="midnightblue" points="1982.5,-85.75 1979,-75.75 1975.5,-85.75 1982.5,-85.75"/>
</g>
<!-- Node12 -->
<g id="node12" class="node">
<title>Node12</title>
<g id="a_node12"><a xlink:title=" ">
<polygon fill="white" stroke="#bfbfbf" points="1995.5,-0.5 1995.5,-19.5 2042.5,-19.5 2042.5,-0.5 1995.5,-0.5"/>
<text text-anchor="middle" x="2019" y="-7.5" font-family="Helvetica,sans-Serif" font-size="10.00">vector</text>
</a>
</g>
</g>
<!-- Node10&#45;&gt;Node12 -->
<g id="edge12" class="edge">
<title>Node10&#45;&gt;Node12</title>
<path fill="none" stroke="midnightblue" d="M1990.54,-112.49C2000.48,-104.38 2014.12,-91.18 2020,-76 2025.73,-61.2 2024.86,-43.05 2022.92,-29.69"/>
<polygon fill="midnightblue" stroke="midnightblue" points="2026.35,-29.01 2021.15,-19.78 2019.46,-30.23 2026.35,-29.01"/>
</g>
<!-- Node10&#45;&gt;Node13 -->
<g id="edge13" class="edge">
<title>Node10&#45;&gt;Node13</title>
<path fill="none" stroke="midnightblue" d="M1935.27,-112.44C1886.82,-102.96 1808.67,-87.67 1756.58,-77.48"/>
<polygon fill="midnightblue" stroke="midnightblue" points="1757.01,-74 1746.53,-75.52 1755.67,-80.87 1757.01,-74"/>
</g>
<!-- Node13&#45;&gt;Node3 -->
<g id="edge14" class="edge">
<title>Node13&#45;&gt;Node3</title>
<path fill="none" stroke="midnightblue" d="M1703,-56.08C1703,-49.01 1703,-38.86 1703,-29.99"/>
<polygon fill="midnightblue" stroke="midnightblue" points="1706.5,-29.75 1703,-19.75 1699.5,-29.75 1706.5,-29.75"/>
</g>
<!-- Node13&#45;&gt;Node4 -->
<g id="edge15" class="edge">
<title>Node13&#45;&gt;Node4</title>
<path fill="none" stroke="midnightblue" d="M1649.43,-59.87C1537.08,-49.11 1278.95,-24.4 1179.29,-14.86"/>
<polygon fill="midnightblue" stroke="midnightblue" points="1179.33,-11.35 1169.04,-13.88 1178.66,-18.31 1179.33,-11.35"/>
</g>
<!-- Node13&#45;&gt;Node12 -->
<g id="edge16" class="edge">
<title>Node13&#45;&gt;Node12</title>
<path fill="none" stroke="midnightblue" d="M1753.07,-56.44C1817.98,-45.35 1929.43,-26.31 1985.18,-16.78"/>
<polygon fill="midnightblue" stroke="midnightblue" points="1985.97,-20.2 1995.24,-15.06 1984.79,-13.3 1985.97,-20.2"/>
</g>
<!-- Node14&#45;&gt;Node10 -->
<g id="edge19" class="edge">
<title>Node14&#45;&gt;Node10</title>
<path fill="none" stroke="midnightblue" d="M1835.1,-168.44C1863.99,-159.32 1909.92,-144.81 1942.11,-134.65"/>
<polygon fill="midnightblue" stroke="midnightblue" points="1943.55,-137.87 1952.03,-131.52 1941.44,-131.19 1943.55,-137.87"/>
</g>
<!-- Node14&#45;&gt;Node13 -->
<g id="edge20" class="edge">
<title>Node14&#45;&gt;Node13</title>
<path fill="none" stroke="midnightblue" d="M1799.76,-168.37C1782.2,-149.97 1740.87,-106.67 1718.32,-83.05"/>
<polygon fill="midnightblue" stroke="midnightblue" points="1720.64,-80.41 1711.2,-75.59 1715.57,-85.24 1720.64,-80.41"/>
</g>
<!-- Node15 -->
<g id="node15" class="node">
<title>Node15</title>
<g id="a_node15"><a xlink:title=" ">
<polygon fill="white" stroke="#bfbfbf" points="1518.5,-112.5 1518.5,-131.5 1565.5,-131.5 1565.5,-112.5 1518.5,-112.5"/>
<text text-anchor="middle" x="1542" y="-119.5" font-family="Helvetica,sans-Serif" font-size="10.00">cmath</text>
</a>
</g>
</g>
<!-- Node14&#45;&gt;Node15 -->
<g id="edge18" class="edge">
<title>Node14&#45;&gt;Node15</title>
<path fill="none" stroke="midnightblue" d="M1765.85,-168.44C1713.17,-157.75 1624.06,-139.66 1575.68,-129.84"/>
<polygon fill="midnightblue" stroke="midnightblue" points="1576.22,-126.38 1565.72,-127.82 1574.83,-133.24 1576.22,-126.38"/>
</g>
<!-- Node17 -->
<g id="node17" class="node">
<title>Node17</title>
<g id="a_node17"><a xlink:href="../../d0/d7d/CheckBounds_8h.html" target="_top" xlink:title="This file contains the declaration of functions for checking the validity of input parameters.">
<polygon fill="white" stroke="black" points="770,-291.5 770,-310.5 862,-310.5 862,-291.5 770,-291.5"/>
<text text-anchor="middle" x="816" y="-298.5" font-family="Helvetica,sans-Serif" font-size="10.00">CheckBounds.h</text>
</a>
</g>
</g>
<!-- Node16&#45;&gt;Node17 -->
<g id="edge23" class="edge">
<title>Node16&#45;&gt;Node17</title>
<path fill="none" stroke="midnightblue" d="M901.86,-470.41C894.76,-461.61 883.83,-447.38 876,-434 853.3,-395.22 833.08,-346.35 822.93,-320.31"/>
<polygon fill="midnightblue" stroke="midnightblue" points="826.06,-318.72 819.21,-310.64 819.53,-321.23 826.06,-318.72"/>
</g>
<!-- Node16&#45;&gt;Node18 -->
<g id="edge37" class="edge">
<title>Node16&#45;&gt;Node18</title>
<path fill="none" stroke="midnightblue" d="M909.74,-470.49C912.29,-443.44 921.99,-357.37 947,-291 951.44,-279.22 958.42,-266.96 964.42,-257.46"/>
<polygon fill="midnightblue" stroke="midnightblue" points="967.4,-259.29 969.96,-249.01 961.55,-255.45 967.4,-259.29"/>
</g>
<!-- Node19 -->
<g id="node19" class="node">
<title>Node19</title>
<g id="a_node19"><a xlink:href="../../db/df1/Helpers_8h.html" target="_top" xlink:title="This file contains helper functions and structures used throughout the program.">
<polygon fill="white" stroke="black" points="884.5,-168.5 884.5,-187.5 947.5,-187.5 947.5,-168.5 884.5,-168.5"/>
<text text-anchor="middle" x="916" y="-175.5" font-family="Helvetica,sans-Serif" font-size="10.00">Helpers.h</text>
</a>
</g>
</g>
<!-- Node16&#45;&gt;Node19 -->
<g id="edge78" class="edge">
<title>Node16&#45;&gt;Node19</title>
<path fill="none" stroke="midnightblue" d="M906.59,-470.39C901.48,-451.3 890,-403.94 890,-363.5 890,-363.5 890,-363.5 890,-300 890,-262.9 901.83,-220.81 909.53,-197.33"/>
<polygon fill="midnightblue" stroke="midnightblue" points="912.91,-198.26 912.81,-187.67 906.28,-196.01 912.91,-198.26"/>
</g>
<!-- Node16&#45;&gt;Node23 -->
<g id="edge38" class="edge">
<title>Node16&#45;&gt;Node23</title>
<path fill="none" stroke="midnightblue" d="M936.64,-475.94C1017.16,-467.03 1252.16,-441.03 1351.66,-430.02"/>
<polygon fill="midnightblue" stroke="midnightblue" points="1352.14,-433.49 1361.7,-428.91 1351.37,-426.53 1352.14,-433.49"/>
</g>
<!-- Node31 -->
<g id="node31" class="node">
<title>Node31</title>
<g id="a_node31"><a xlink:href="../../d7/de4/FileParser_8h.html" target="_top" xlink:title="This file contains the definitions for functions that handle file parsing operations.">
<polygon fill="white" stroke="black" points="442,-230 442,-249 514,-249 514,-230 442,-230"/>
<text text-anchor="middle" x="478" y="-237" font-family="Helvetica,sans-Serif" font-size="10.00">FileParser.h</text>
</a>
</g>
</g>
<!-- Node16&#45;&gt;Node31 -->
<g id="edge66" class="edge">
<title>Node16&#45;&gt;Node31</title>
<path fill="none" stroke="midnightblue" d="M893.41,-470.37C828.73,-434.58 581.26,-297.64 502.34,-253.97"/>
<polygon fill="midnightblue" stroke="midnightblue" points="504.02,-250.9 493.57,-249.12 500.63,-257.02 504.02,-250.9"/>
</g>
<!-- Node17&#45;&gt;Node2 -->
<g id="edge24" class="edge">
<title>Node17&#45;&gt;Node2</title>
<path fill="none" stroke="midnightblue" d="M812.91,-291.17C809.95,-282.2 805.68,-267.83 804,-255 798.98,-216.66 800.19,-206.48 804,-168 804.87,-159.17 806.69,-149.51 808.47,-141.4"/>
<polygon fill="midnightblue" stroke="midnightblue" points="811.9,-142.08 810.77,-131.55 805.08,-140.49 811.9,-142.08"/>
</g>
<!-- Node17&#45;&gt;Node4 -->
<g id="edge25" class="edge">
<title>Node17&#45;&gt;Node4</title>
<path fill="none" stroke="midnightblue" d="M798.5,-291.4C767,-274.54 704,-233.96 704,-179 704,-179 704,-179 704,-121 704,-40.05 990.7,-18.04 1098.59,-12.62"/>
<polygon fill="midnightblue" stroke="midnightblue" points="1098.94,-16.11 1108.76,-12.13 1098.6,-9.12 1098.94,-16.11"/>
</g>
<!-- Node17&#45;&gt;Node18 -->
<g id="edge26" class="edge">
<title>Node17&#45;&gt;Node18</title>
<path fill="none" stroke="midnightblue" d="M838.92,-291.48C866.37,-281.27 912.52,-264.11 943.6,-252.55"/>
<polygon fill="midnightblue" stroke="midnightblue" points="944.97,-255.78 953.12,-249.01 942.53,-249.21 944.97,-255.78"/>
</g>
<!-- Node18&#45;&gt;Node2 -->
<g id="edge34" class="edge">
<title>Node18&#45;&gt;Node2</title>
<path fill="none" stroke="midnightblue" d="M953.47,-229.89C932.13,-221.14 899.75,-206.29 875,-188 856.1,-174.03 837.96,-153.98 826.24,-139.85"/>
<polygon fill="midnightblue" stroke="midnightblue" points="828.84,-137.5 819.82,-131.93 823.4,-141.9 828.84,-137.5"/>
</g>
<!-- Node18&#45;&gt;Node4 -->
<g id="edge35" class="edge">
<title>Node18&#45;&gt;Node4</title>
<path fill="none" stroke="midnightblue" d="M982.19,-229.86C1006.35,-196.15 1094.52,-73.08 1126.94,-27.84"/>
<polygon fill="midnightblue" stroke="midnightblue" points="1129.82,-29.82 1132.8,-19.65 1124.13,-25.74 1129.82,-29.82"/>
</g>
<!-- Node18&#45;&gt;Node19 -->
<g id="edge27" class="edge">
<title>Node18&#45;&gt;Node19</title>
<path fill="none" stroke="midnightblue" d="M967.4,-229.98C958.14,-220.78 943.18,-205.96 931.79,-194.66"/>
<polygon fill="midnightblue" stroke="midnightblue" points="934.15,-192.07 924.58,-187.51 929.22,-197.04 934.15,-192.07"/>
</g>
<!-- Node21 -->
<g id="node21" class="node">
<title>Node21</title>
<g id="a_node21"><a xlink:title=" ">
<polygon fill="white" stroke="#bfbfbf" points="1042,-168.5 1042,-187.5 1134,-187.5 1134,-168.5 1042,-168.5"/>
<text text-anchor="middle" x="1088" y="-175.5" font-family="Helvetica,sans-Serif" font-size="10.00">project&#45;config.h</text>
</a>
</g>
</g>
<!-- Node18&#45;&gt;Node21 -->
<g id="edge33" class="edge">
<title>Node18&#45;&gt;Node21</title>
<path fill="none" stroke="midnightblue" d="M992.05,-229.98C1010.59,-220.12 1041.34,-203.79 1063.02,-192.27"/>
<polygon fill="midnightblue" stroke="midnightblue" points="1064.79,-195.29 1071.98,-187.51 1061.51,-189.11 1064.79,-195.29"/>
</g>
<!-- Node22 -->
<g id="node22" class="node">
<title>Node22</title>
<g id="a_node22"><a xlink:title=" ">
<polygon fill="white" stroke="#bfbfbf" points="564,-168.5 564,-187.5 608,-187.5 608,-168.5 564,-168.5"/>
<text text-anchor="middle" x="586" y="-175.5" font-family="Helvetica,sans-Serif" font-size="10.00">string</text>
</a>
</g>
</g>
<!-- Node18&#45;&gt;Node22 -->
<g id="edge36" class="edge">
<title>Node18&#45;&gt;Node22</title>
<path fill="none" stroke="midnightblue" d="M927.71,-233.92C860.38,-227.05 734.4,-212.44 618.37,-188.03"/>
<polygon fill="midnightblue" stroke="midnightblue" points="618.76,-184.54 608.25,-185.87 617.3,-191.38 618.76,-184.54"/>
</g>
<!-- Node19&#45;&gt;Node2 -->
<g id="edge32" class="edge">
<title>Node19&#45;&gt;Node2</title>
<path fill="none" stroke="midnightblue" d="M899.45,-168.32C883.01,-159.7 857.57,-146.36 838.53,-136.39"/>
<polygon fill="midnightblue" stroke="midnightblue" points="839.99,-133.2 829.51,-131.65 836.74,-139.4 839.99,-133.2"/>
</g>
<!-- Node19&#45;&gt;Node3 -->
<g id="edge28" class="edge">
<title>Node19&#45;&gt;Node3</title>
<path fill="none" stroke="midnightblue" d="M935.98,-168.48C968.95,-154.73 1037.07,-127.62 1097,-112 1307.9,-57.03 1568.22,-25.47 1664.69,-14.96"/>
<polygon fill="midnightblue" stroke="midnightblue" points="1665.27,-18.42 1674.84,-13.87 1664.52,-11.46 1665.27,-18.42"/>
</g>
<!-- Node19&#45;&gt;Node4 -->
<g id="edge29" class="edge">
<title>Node19&#45;&gt;Node4</title>
<path fill="none" stroke="midnightblue" d="M924.97,-168.46C946.93,-147.77 1005.6,-93.88 1060,-56 1076.84,-44.27 1096.95,-32.85 1112.67,-24.45"/>
<polygon fill="midnightblue" stroke="midnightblue" points="1114.6,-27.39 1121.82,-19.63 1111.34,-21.19 1114.6,-27.39"/>
</g>
<!-- Node19&#45;&gt;Node9 -->
<g id="edge31" class="edge">
<title>Node19&#45;&gt;Node9</title>
<path fill="none" stroke="midnightblue" d="M947.84,-169.15C987.08,-159.47 1053.72,-143.04 1095.99,-132.62"/>
<polygon fill="midnightblue" stroke="midnightblue" points="1097.05,-135.96 1105.92,-130.17 1095.37,-129.17 1097.05,-135.96"/>
</g>
<!-- Node20 -->
<g id="node20" class="node">
<title>Node20</title>
<g id="a_node20"><a xlink:title=" ">
<polygon fill="white" stroke="#bfbfbf" points="906,-112.5 906,-131.5 950,-131.5 950,-112.5 906,-112.5"/>
<text text-anchor="middle" x="928" y="-119.5" font-family="Helvetica,sans-Serif" font-size="10.00">limits</text>
</a>
</g>
</g>
<!-- Node19&#45;&gt;Node20 -->
<g id="edge30" class="edge">
<title>Node19&#45;&gt;Node20</title>
<path fill="none" stroke="midnightblue" d="M917.98,-168.08C919.57,-160.93 921.86,-150.64 923.85,-141.69"/>
<polygon fill="midnightblue" stroke="midnightblue" points="927.3,-142.27 926.06,-131.75 920.47,-140.75 927.3,-142.27"/>
</g>
<!-- Node23&#45;&gt;Node4 -->
<g id="edge40" class="edge">
<title>Node23&#45;&gt;Node4</title>
<path fill="none" stroke="midnightblue" d="M1375.66,-414.43C1329.53,-394.57 1221.44,-340.45 1181,-255 1153.77,-197.46 1185.04,-174.51 1173,-112 1167.24,-82.12 1154.85,-48.95 1146.73,-29.05"/>
<polygon fill="midnightblue" stroke="midnightblue" points="1149.91,-27.58 1142.82,-19.7 1143.45,-30.28 1149.91,-27.58"/>
</g>
<!-- Node23&#45;&gt;Node10 -->
<g id="edge41" class="edge">
<title>Node23&#45;&gt;Node10</title>
<path fill="none" stroke="midnightblue" d="M1432.27,-420.83C1525.38,-414.13 1784.24,-389.29 1983,-311 2026.48,-293.87 2049.41,-295.91 2072,-255 2078.66,-242.94 2073.45,-237.7 2072,-224 2069.32,-198.69 2075.15,-188.46 2060,-168 2049.14,-153.33 2032,-142.83 2016.27,-135.68"/>
<polygon fill="midnightblue" stroke="midnightblue" points="2017.31,-132.31 2006.73,-131.65 2014.59,-138.76 2017.31,-132.31"/>
</g>
<!-- Node23&#45;&gt;Node15 -->
<g id="edge39" class="edge">
<title>Node23&#45;&gt;Node15</title>
<path fill="none" stroke="midnightblue" d="M1401.18,-414.35C1421.03,-373.28 1505.87,-197.76 1533.36,-140.87"/>
<polygon fill="midnightblue" stroke="midnightblue" points="1536.6,-142.22 1537.8,-131.69 1530.3,-139.17 1536.6,-142.22"/>
</g>
<!-- Node23&#45;&gt;Node24 -->
<g id="edge42" class="edge">
<title>Node23&#45;&gt;Node24</title>
<path fill="none" stroke="midnightblue" d="M1392.47,-414.3C1382.16,-394.5 1356.8,-345.78 1343.11,-319.49"/>
<polygon fill="midnightblue" stroke="midnightblue" points="1346.21,-317.88 1338.49,-310.62 1340,-321.11 1346.21,-317.88"/>
</g>
<!-- Node27 -->
<g id="node27" class="node">
<title>Node27</title>
<g id="a_node27"><a xlink:href="../../d4/dfb/LUP_8h.html" target="_top" xlink:title="LU factorization with pivoting.">
<polygon fill="white" stroke="black" points="1488.5,-347.5 1488.5,-377.5 1595.5,-377.5 1595.5,-347.5 1488.5,-347.5"/>
<text text-anchor="start" x="1496.5" y="-365.5" font-family="Helvetica,sans-Serif" font-size="10.00">math/factorization</text>
<text text-anchor="middle" x="1542" y="-354.5" font-family="Helvetica,sans-Serif" font-size="10.00">/LUP.h</text>
</a>
</g>
</g>
<!-- Node23&#45;&gt;Node27 -->
<g id="edge50" class="edge">
<title>Node23&#45;&gt;Node27</title>
<path fill="none" stroke="midnightblue" d="M1417.77,-414.48C1438.7,-405.89 1471.61,-392.38 1498.31,-381.43"/>
<polygon fill="midnightblue" stroke="midnightblue" points="1499.9,-384.56 1507.83,-377.52 1497.25,-378.08 1499.9,-384.56"/>
</g>
<!-- Node24&#45;&gt;Node4 -->
<g id="edge44" class="edge">
<title>Node24&#45;&gt;Node4</title>
<path fill="none" stroke="midnightblue" d="M1330.52,-291.34C1314.82,-252.54 1249.8,-94.91 1214,-56 1201.6,-42.52 1184.24,-31.76 1169.35,-24.14"/>
<polygon fill="midnightblue" stroke="midnightblue" points="1170.52,-20.82 1159.99,-19.59 1167.46,-27.11 1170.52,-20.82"/>
</g>
<!-- Node24&#45;&gt;Node10 -->
<g id="edge45" class="edge">
<title>Node24&#45;&gt;Node10</title>
<path fill="none" stroke="midnightblue" d="M1399.77,-298.19C1570.02,-293.18 2013.45,-277.97 2035,-255 2067.08,-220.79 2021.61,-165.44 1995.36,-138.59"/>
<polygon fill="midnightblue" stroke="midnightblue" points="1997.81,-136.09 1988.24,-131.53 1992.87,-141.06 1997.81,-136.09"/>
</g>
<!-- Node24&#45;&gt;Node13 -->
<g id="edge46" class="edge">
<title>Node24&#45;&gt;Node13</title>
<path fill="none" stroke="midnightblue" d="M1335.1,-291.12C1336.54,-276.47 1337.82,-246.57 1328,-224 1316.47,-197.51 1277.35,-190.87 1295,-168 1336.7,-113.99 1535.22,-84.99 1639.18,-73.28"/>
<polygon fill="midnightblue" stroke="midnightblue" points="1639.69,-76.75 1649.24,-72.17 1638.92,-69.79 1639.69,-76.75"/>
</g>
<!-- Node24&#45;&gt;Node15 -->
<g id="edge43" class="edge">
<title>Node24&#45;&gt;Node15</title>
<path fill="none" stroke="midnightblue" d="M1344.03,-291.46C1376.83,-263.55 1481.2,-174.74 1523.72,-138.56"/>
<polygon fill="midnightblue" stroke="midnightblue" points="1526.23,-141.01 1531.58,-131.87 1521.69,-135.68 1526.23,-141.01"/>
</g>
<!-- Node24&#45;&gt;Node18 -->
<g id="edge47" class="edge">
<title>Node24&#45;&gt;Node18</title>
<path fill="none" stroke="midnightblue" d="M1282.71,-291.48C1216.96,-280.55 1103.26,-261.65 1034.3,-250.19"/>
<polygon fill="midnightblue" stroke="midnightblue" points="1034.49,-246.67 1024.05,-248.49 1033.34,-253.58 1034.49,-246.67"/>
</g>
<!-- Node25 -->
<g id="node25" class="node">
<title>Node25</title>
<g id="a_node25"><a xlink:href="../../d4/d2e/Stopwatch_8h.html" target="_top" xlink:title="This file contains the Stopwatch class which is a utility for measuring time durations in various uni...">
<polygon fill="white" stroke="black" points="1190.5,-230 1190.5,-249 1285.5,-249 1285.5,-230 1190.5,-230"/>
<text text-anchor="middle" x="1238" y="-237" font-family="Helvetica,sans-Serif" font-size="10.00">../../Stopwatch.h</text>
</a>
</g>
</g>
<!-- Node24&#45;&gt;Node25 -->
<g id="edge48" class="edge">
<title>Node24&#45;&gt;Node25</title>
<path fill="none" stroke="midnightblue" d="M1320.25,-291.48C1304.63,-281.8 1278.94,-265.87 1260.42,-254.39"/>
<polygon fill="midnightblue" stroke="midnightblue" points="1262.07,-251.3 1251.73,-249.01 1258.38,-257.25 1262.07,-251.3"/>
</g>
<!-- Node26 -->
<g id="node26" class="node">
<title>Node26</title>
<g id="a_node26"><a xlink:title=" ">
<polygon fill="white" stroke="#bfbfbf" points="626,-168.5 626,-187.5 676,-187.5 676,-168.5 626,-168.5"/>
<text text-anchor="middle" x="651" y="-175.5" font-family="Helvetica,sans-Serif" font-size="10.00">chrono</text>
</a>
</g>
</g>
<!-- Node25&#45;&gt;Node26 -->
<g id="edge49" class="edge">
<title>Node25&#45;&gt;Node26</title>
<path fill="none" stroke="midnightblue" d="M1190.46,-233.68C1075.92,-222.07 786.74,-192.76 686.14,-182.56"/>
<polygon fill="midnightblue" stroke="midnightblue" points="686.49,-179.08 676.19,-181.55 685.78,-186.04 686.49,-179.08"/>
</g>
<!-- Node27&#45;&gt;Node4 -->
<g id="edge52" class="edge">
<title>Node27&#45;&gt;Node4</title>
<path fill="none" stroke="midnightblue" d="M1531.3,-347.4C1494.83,-300.18 1370.24,-145.6 1236,-56 1216.05,-42.69 1191.54,-31.35 1172.15,-23.39"/>
<polygon fill="midnightblue" stroke="midnightblue" points="1173.39,-20.11 1162.8,-19.65 1170.78,-26.61 1173.39,-20.11"/>
</g>
<!-- Node27&#45;&gt;Node10 -->
<g id="edge54" class="edge">
<title>Node27&#45;&gt;Node10</title>
<path fill="none" stroke="midnightblue" d="M1595.76,-358.63C1715.37,-351 1997.45,-325.73 2055,-255 2068.17,-238.82 2045.97,-173.94 2042,-168 2033.16,-154.78 2019.04,-144.17 2006.41,-136.58"/>
<polygon fill="midnightblue" stroke="midnightblue" points="2007.99,-133.46 1997.57,-131.59 2004.56,-139.56 2007.99,-133.46"/>
</g>
<!-- Node27&#45;&gt;Node13 -->
<g id="edge55" class="edge">
<title>Node27&#45;&gt;Node13</title>
<path fill="none" stroke="midnightblue" d="M1541.29,-347.48C1540.55,-321.72 1541.55,-265.72 1561,-224 1589.82,-162.19 1651.46,-107.5 1683.21,-82.08"/>
<polygon fill="midnightblue" stroke="midnightblue" points="1685.62,-84.64 1691.31,-75.71 1681.29,-79.14 1685.62,-84.64"/>
</g>
<!-- Node27&#45;&gt;Node15 -->
<g id="edge51" class="edge">
<title>Node27&#45;&gt;Node15</title>
<path fill="none" stroke="midnightblue" d="M1536.9,-347.13C1533.63,-337.14 1529.69,-323.44 1528,-311 1522.79,-272.69 1519.97,-261.82 1528,-224 1531.63,-206.87 1540.37,-205.13 1544,-188 1545.85,-179.3 1544.2,-176.89 1544,-168 1543.81,-159.39 1543.41,-149.86 1543.02,-141.8"/>
<polygon fill="midnightblue" stroke="midnightblue" points="1546.51,-141.43 1542.5,-131.62 1539.52,-141.79 1546.51,-141.43"/>
</g>
<!-- Node27&#45;&gt;Node18 -->
<g id="edge56" class="edge">
<title>Node27&#45;&gt;Node18</title>
<path fill="none" stroke="midnightblue" d="M1488.34,-353.99C1428.09,-345.21 1327.57,-329.5 1242,-311 1160.35,-293.35 1066.15,-266.92 1014.63,-251.94"/>
<polygon fill="midnightblue" stroke="midnightblue" points="1015.49,-248.55 1004.91,-249.1 1013.53,-255.27 1015.49,-248.55"/>
</g>
<!-- Node27&#45;&gt;Node24 -->
<g id="edge53" class="edge">
<title>Node27&#45;&gt;Node24</title>
<path fill="none" stroke="midnightblue" d="M1492.97,-347.47C1456.62,-337.08 1407.69,-323.08 1373.75,-313.37"/>
<polygon fill="midnightblue" stroke="midnightblue" points="1374.31,-309.89 1363.74,-310.51 1372.39,-316.62 1374.31,-309.89"/>
</g>
<!-- Node27&#45;&gt;Node25 -->
<g id="edge57" class="edge">
<title>Node27&#45;&gt;Node25</title>
<path fill="none" stroke="midnightblue" d="M1488.42,-358.53C1416.01,-353.44 1292.13,-340.59 1259,-311 1244.59,-298.13 1239.88,-275.85 1238.43,-259.78"/>
<polygon fill="midnightblue" stroke="midnightblue" points="1241.91,-259.19 1237.87,-249.4 1234.92,-259.57 1241.91,-259.19"/>
</g>
<!-- Node28 -->
<g id="node28" class="node">
<title>Node28</title>
<g id="a_node28"><a xlink:href="../../d1/d6a/Factorize_8h.html" target="_top" xlink:title="This file contains the declaration of the MyFactorizationMethod namespace, which includes methods and...">
<polygon fill="white" stroke="black" points="1570.5,-230 1570.5,-249 1639.5,-249 1639.5,-230 1570.5,-230"/>
<text text-anchor="middle" x="1605" y="-237" font-family="Helvetica,sans-Serif" font-size="10.00">Factorize.h</text>
</a>
</g>
</g>
<!-- Node27&#45;&gt;Node28 -->
<g id="edge58" class="edge">
<title>Node27&#45;&gt;Node28</title>
<path fill="none" stroke="midnightblue" d="M1549.47,-347.14C1561.05,-324.91 1583.3,-282.19 1595.83,-258.11"/>
<polygon fill="midnightblue" stroke="midnightblue" points="1599.03,-259.54 1600.55,-249.05 1592.82,-256.31 1599.03,-259.54"/>
</g>
<!-- Node29 -->
<g id="node29" class="node">
<title>Node29</title>
<g id="a_node29"><a xlink:href="../../df/dbd/LinearSolver_8h.html" target="_top" xlink:title="This file contains the definition of the LinearSolver class and its associated methods.">
<polygon fill="white" stroke="black" points="1648,-291.5 1648,-310.5 1762,-310.5 1762,-291.5 1648,-291.5"/>
<text text-anchor="middle" x="1705" y="-298.5" font-family="Helvetica,sans-Serif" font-size="10.00">math/LinearSolver.h</text>
</a>
</g>
</g>
<!-- Node27&#45;&gt;Node29 -->
<g id="edge62" class="edge">
<title>Node27&#45;&gt;Node29</title>
<path fill="none" stroke="midnightblue" d="M1580.63,-347.4C1608.34,-337.28 1645.31,-323.79 1671.72,-314.15"/>
<polygon fill="midnightblue" stroke="midnightblue" points="1673.09,-317.37 1681.28,-310.66 1670.69,-310.8 1673.09,-317.37"/>
</g>
<!-- Node28&#45;&gt;Node10 -->
<g id="edge60" class="edge">
<title>Node28&#45;&gt;Node10</title>
<path fill="none" stroke="midnightblue" d="M1618.2,-229.9C1641.7,-214.99 1692.78,-184.37 1740,-168 1797.17,-148.18 1865.23,-136.45 1914.07,-129.96"/>
<polygon fill="midnightblue" stroke="midnightblue" points="1914.72,-133.41 1924.19,-128.66 1913.82,-126.47 1914.72,-133.41"/>
</g>
<!-- Node28&#45;&gt;Node13 -->
<g id="edge61" class="edge">
<title>Node28&#45;&gt;Node13</title>
<path fill="none" stroke="midnightblue" d="M1609.99,-229.76C1625.4,-202.81 1672.36,-120.62 1693.04,-84.42"/>
<polygon fill="midnightblue" stroke="midnightblue" points="1696.21,-85.94 1698.13,-75.52 1690.13,-82.47 1696.21,-85.94"/>
</g>
<!-- Node28&#45;&gt;Node14 -->
<g id="edge59" class="edge">
<title>Node28&#45;&gt;Node14</title>
<path fill="none" stroke="midnightblue" d="M1629.94,-229.85C1635.84,-227.87 1642.13,-225.81 1648,-224 1687.68,-211.74 1733.31,-199.04 1765.67,-190.27"/>
<polygon fill="midnightblue" stroke="midnightblue" points="1766.94,-193.56 1775.68,-187.57 1765.11,-186.8 1766.94,-193.56"/>
</g>
<!-- Node29&#45;&gt;Node6 -->
<g id="edge65" class="edge">
<title>Node29&#45;&gt;Node6</title>
<path fill="none" stroke="midnightblue" d="M1726.33,-291.49C1748.71,-282.52 1784.9,-267.94 1816,-255 1817.41,-254.41 1818.85,-253.81 1820.3,-253.2"/>
<polygon fill="midnightblue" stroke="midnightblue" points="1822.04,-256.27 1829.89,-249.15 1819.32,-249.82 1822.04,-256.27"/>
</g>
<!-- Node29&#45;&gt;Node28 -->
<g id="edge63" class="edge">
<title>Node29&#45;&gt;Node28</title>
<path fill="none" stroke="midnightblue" d="M1690.67,-291.48C1674.34,-281.75 1647.4,-265.73 1628.09,-254.24"/>
<polygon fill="midnightblue" stroke="midnightblue" points="1629.68,-251.11 1619.3,-249.01 1626.11,-257.13 1629.68,-251.11"/>
</g>
<!-- Node30 -->
<g id="node30" class="node">
<title>Node30</title>
<g id="a_node30"><a xlink:href="../../d0/d24/RelaxationMethods_8h.html" target="_top" xlink:title="This file contains the declaration of the RelaxationMethods namespace, which includes the Type enumer...">
<polygon fill="white" stroke="black" points="1657,-224.5 1657,-254.5 1807,-254.5 1807,-224.5 1657,-224.5"/>
<text text-anchor="start" x="1665" y="-242.5" font-family="Helvetica,sans-Serif" font-size="10.00">math/relaxation/Relaxation</text>
<text text-anchor="middle" x="1732" y="-231.5" font-family="Helvetica,sans-Serif" font-size="10.00">Methods.h</text>
</a>
</g>
</g>
<!-- Node29&#45;&gt;Node30 -->
<g id="edge64" class="edge">
<title>Node29&#45;&gt;Node30</title>
<path fill="none" stroke="midnightblue" d="M1708.87,-291.48C1712.15,-284.25 1717.01,-273.53 1721.44,-263.78"/>
<polygon fill="midnightblue" stroke="midnightblue" points="1724.69,-265.08 1725.64,-254.52 1718.32,-262.18 1724.69,-265.08"/>
</g>
<!-- Node31&#45;&gt;Node4 -->
<g id="edge70" class="edge">
<title>Node31&#45;&gt;Node4</title>
<path fill="none" stroke="midnightblue" d="M441.67,-238.32C330.65,-237.1 6.35,-228.4 57,-168 125.68,-86.1 911.12,-26.78 1098.87,-13.71"/>
<polygon fill="midnightblue" stroke="midnightblue" points="1099.13,-17.2 1108.87,-13.02 1098.65,-10.21 1099.13,-17.2"/>
</g>
<!-- Node31&#45;&gt;Node9 -->
<g id="edge77" class="edge">
<title>Node31&#45;&gt;Node9</title>
<path fill="none" stroke="midnightblue" d="M514.17,-237.67C594.61,-235.17 793.99,-225.39 956,-188 1010.83,-175.35 1071.87,-150.79 1106.63,-135.75"/>
<polygon fill="midnightblue" stroke="midnightblue" points="1108.37,-138.81 1116.13,-131.59 1105.56,-132.39 1108.37,-138.81"/>
</g>
<!-- Node31&#45;&gt;Node10 -->
<g id="edge76" class="edge">
<title>Node31&#45;&gt;Node10</title>
<path fill="none" stroke="midnightblue" d="M514.09,-237.04C634.11,-232.04 1030.82,-214.5 1358,-188 1561.27,-171.54 1801.15,-144.17 1914.06,-130.81"/>
<polygon fill="midnightblue" stroke="midnightblue" points="1914.74,-134.26 1924.25,-129.6 1913.91,-127.31 1914.74,-134.26"/>
</g>
<!-- Node31&#45;&gt;Node22 -->
<g id="edge71" class="edge">
<title>Node31&#45;&gt;Node22</title>
<path fill="none" stroke="midnightblue" d="M493.47,-229.98C511.28,-220.17 540.74,-203.93 561.63,-192.42"/>
<polygon fill="midnightblue" stroke="midnightblue" points="563.49,-195.4 570.55,-187.51 560.11,-189.27 563.49,-195.4"/>
</g>
<!-- Node31&#45;&gt;Node26 -->
<g id="edge72" class="edge">
<title>Node31&#45;&gt;Node26</title>
<path fill="none" stroke="midnightblue" d="M502.79,-229.98C532.59,-219.72 582.79,-202.46 616.4,-190.9"/>
<polygon fill="midnightblue" stroke="midnightblue" points="617.94,-194.07 626.26,-187.51 615.66,-187.45 617.94,-194.07"/>
</g>
<!-- Node32 -->
<g id="node32" class="node">
<title>Node32</title>
<g id="a_node32"><a xlink:title=" ">
<polygon fill="white" stroke="#bfbfbf" points="274,-168.5 274,-187.5 386,-187.5 386,-168.5 274,-168.5"/>
<text text-anchor="middle" x="330" y="-175.5" font-family="Helvetica,sans-Serif" font-size="10.00">boost/tokenizer.hpp</text>
</a>
</g>
</g>
<!-- Node31&#45;&gt;Node32 -->
<g id="edge67" class="edge">
<title>Node31&#45;&gt;Node32</title>
<path fill="none" stroke="midnightblue" d="M456.8,-229.98C431.63,-219.86 389.46,-202.9 360.72,-191.35"/>
<polygon fill="midnightblue" stroke="midnightblue" points="361.75,-187.99 351.17,-187.51 359.14,-194.49 361.75,-187.99"/>
</g>
<!-- Node33 -->
<g id="node33" class="node">
<title>Node33</title>
<g id="a_node33"><a xlink:title=" ">
<polygon fill="white" stroke="#bfbfbf" points="404,-168.5 404,-187.5 472,-187.5 472,-168.5 404,-168.5"/>
<text text-anchor="middle" x="438" y="-175.5" font-family="Helvetica,sans-Serif" font-size="10.00">filesystem</text>
</a>
</g>
</g>
<!-- Node31&#45;&gt;Node33 -->
<g id="edge68" class="edge">
<title>Node31&#45;&gt;Node33</title>
<path fill="none" stroke="midnightblue" d="M472.27,-229.98C466.33,-221.14 456.88,-207.09 449.41,-195.98"/>
<polygon fill="midnightblue" stroke="midnightblue" points="452.2,-193.86 443.72,-187.51 446.39,-197.76 452.2,-193.86"/>
</g>
<!-- Node34 -->
<g id="node34" class="node">
<title>Node34</title>
<g id="a_node34"><a xlink:title=" ">
<polygon fill="white" stroke="#bfbfbf" points="490.5,-168.5 490.5,-187.5 545.5,-187.5 545.5,-168.5 490.5,-168.5"/>
<text text-anchor="middle" x="518" y="-175.5" font-family="Helvetica,sans-Serif" font-size="10.00">fstream</text>
</a>
</g>
</g>
<!-- Node31&#45;&gt;Node34 -->
<g id="edge69" class="edge">
<title>Node31&#45;&gt;Node34</title>
<path fill="none" stroke="midnightblue" d="M483.73,-229.98C489.67,-221.14 499.12,-207.09 506.59,-195.98"/>
<polygon fill="midnightblue" stroke="midnightblue" points="509.61,-197.76 512.28,-187.51 503.8,-193.86 509.61,-197.76"/>
</g>
<!-- Node35 -->
<g id="node35" class="node">
<title>Node35</title>
<g id="a_node35"><a xlink:title=" ">
<polygon fill="white" stroke="#bfbfbf" points="66,-168.5 66,-187.5 124,-187.5 124,-168.5 66,-168.5"/>
<text text-anchor="middle" x="95" y="-175.5" font-family="Helvetica,sans-Serif" font-size="10.00">memory</text>
</a>
</g>
</g>
<!-- Node31&#45;&gt;Node35 -->
<g id="edge73" class="edge">
<title>Node31&#45;&gt;Node35</title>
<path fill="none" stroke="midnightblue" d="M441.57,-234.23C380.17,-226.8 252.04,-210.31 134.31,-188.12"/>
<polygon fill="midnightblue" stroke="midnightblue" points="134.88,-184.66 124.4,-186.23 133.57,-191.54 134.88,-184.66"/>
</g>
<!-- Node36 -->
<g id="node36" class="node">
<title>Node36</title>
<g id="a_node36"><a xlink:title=" ">
<polygon fill="white" stroke="#bfbfbf" points="142,-168.5 142,-187.5 190,-187.5 190,-168.5 142,-168.5"/>
<text text-anchor="middle" x="166" y="-175.5" font-family="Helvetica,sans-Serif" font-size="10.00">mutex</text>
</a>
</g>
</g>
<!-- Node31&#45;&gt;Node36 -->
<g id="edge74" class="edge">
<title>Node31&#45;&gt;Node36</title>
<path fill="none" stroke="midnightblue" d="M441.68,-232.96C390.07,-224.87 292.39,-208.72 199.89,-188.04"/>
<polygon fill="midnightblue" stroke="midnightblue" points="200.61,-184.62 190.09,-185.83 199.07,-191.45 200.61,-184.62"/>
</g>
<!-- Node37 -->
<g id="node37" class="node">
<title>Node37</title>
<g id="a_node37"><a xlink:title=" ">
<polygon fill="white" stroke="#bfbfbf" points="208,-168.5 208,-187.5 256,-187.5 256,-168.5 208,-168.5"/>
<text text-anchor="middle" x="232" y="-175.5" font-family="Helvetica,sans-Serif" font-size="10.00">thread</text>
</a>
</g>
</g>
<!-- Node31&#45;&gt;Node37 -->
<g id="edge75" class="edge">
<title>Node31&#45;&gt;Node37</title>
<path fill="none" stroke="midnightblue" d="M441.73,-230.29C401.26,-221.04 333.59,-205.33 266.08,-188.21"/>
<polygon fill="midnightblue" stroke="midnightblue" points="266.68,-184.76 256.13,-185.68 264.95,-191.54 266.68,-184.76"/>
</g>
<!-- Node38&#45;&gt;Node2 -->
<g id="edge82" class="edge">
<title>Node38&#45;&gt;Node2</title>
<path fill="none" stroke="midnightblue" d="M971.34,-291.26C944.06,-274.36 885,-234.72 849,-188 837.71,-173.34 827.77,-154.71 821.21,-141.15"/>
<polygon fill="midnightblue" stroke="midnightblue" points="824.3,-139.49 816.89,-131.92 817.96,-142.46 824.3,-139.49"/>
</g>
<!-- Node38&#45;&gt;Node8 -->
<g id="edge83" class="edge">
<title>Node38&#45;&gt;Node8</title>
<path fill="none" stroke="midnightblue" d="M1006.59,-291.4C1041.97,-276.77 1116.67,-246.42 1181,-224 1219.54,-210.57 1264.49,-197.03 1294.22,-188.36"/>
<polygon fill="midnightblue" stroke="midnightblue" points="1295.44,-191.65 1304.07,-185.51 1293.49,-184.93 1295.44,-191.65"/>
</g>
<!-- Node38&#45;&gt;Node18 -->
<g id="edge81" class="edge">
<title>Node38&#45;&gt;Node18</title>
<path fill="none" stroke="midnightblue" d="M984.57,-291.48C983.16,-283.08 980.95,-269.98 979.14,-259.16"/>
<polygon fill="midnightblue" stroke="midnightblue" points="982.54,-258.29 977.43,-249.01 975.64,-259.45 982.54,-258.29"/>
</g>
</g>
</svg>
