<?xml version="1.0" encoding="UTF-8" standalone="no"?>
<!DOCTYPE svg PUBLIC "-//W3C//DTD SVG 1.1//EN"
 "http://www.w3.org/Graphics/SVG/1.1/DTD/svg11.dtd">
<!-- Generated by graphviz version 2.43.0 (0)
 -->
<!-- Title: Map Pages: 1 -->
<svg width="341pt" height="281pt"
 viewBox="0.00 0.00 340.50 281.00" xmlns="http://www.w3.org/2000/svg" xmlns:xlink="http://www.w3.org/1999/xlink">
<g id="graph0" class="graph" transform="scale(1 1) rotate(0) translate(4 277)">
<title>Map</title>
<polygon fill="white" stroke="transparent" points="-4,4 -4,-277 336.5,-277 336.5,4 -4,4"/>
<!-- Node1 -->
<g id="node1" class="node">
<title>Node1</title>
<g id="a_node1"><a xlink:title=" ">
<polygon fill="#bfbfbf" stroke="black" points="98,-0.5 98,-68.5 179,-68.5 179,-0.5 98,-0.5"/>
<text text-anchor="middle" x="138.5" y="-56.5" font-family="Helvetica,sans-Serif" font-size="10.00">Map</text>
<polyline fill="none" stroke="black" points="98,-49.5 179,-49.5 "/>
<text text-anchor="middle" x="138.5" y="-37.5" font-family="Helvetica,sans-Serif" font-size="10.00"> </text>
<polyline fill="none" stroke="black" points="98,-30.5 179,-30.5 "/>
<text text-anchor="start" x="106" y="-18.5" font-family="Helvetica,sans-Serif" font-size="10.00">+ Map()</text>
<text text-anchor="start" x="106" y="-7.5" font-family="Helvetica,sans-Serif" font-size="10.00">and 3 more...</text>
</a>
</g>
</g>
<!-- Node2 -->
<g id="node2" class="node">
<title>Node2</title>
<g id="a_node2"><a xlink:href="../../d0/d27/classMyBLAS_1_1Matrix.html" target="_top" xlink:title=" ">
<polygon fill="white" stroke="black" points="0,-177 0,-267 127,-267 127,-177 0,-177"/>
<text text-anchor="start" x="8" y="-255" font-family="Helvetica,sans-Serif" font-size="10.00">MyBLAS::Matrix&lt; long</text>
<text text-anchor="middle" x="63.5" y="-244" font-family="Helvetica,sans-Serif" font-size="10.00"> double &gt;</text>
<polyline fill="none" stroke="black" points="0,-237 127,-237 "/>
<text text-anchor="start" x="8" y="-225" font-family="Helvetica,sans-Serif" font-size="10.00"># data</text>
<polyline fill="none" stroke="black" points="0,-218 127,-218 "/>
<text text-anchor="start" x="8" y="-206" font-family="Helvetica,sans-Serif" font-size="10.00">+ getAllocatedBytes()</text>
<text text-anchor="start" x="8" y="-195" font-family="Helvetica,sans-Serif" font-size="10.00">and 38 more...</text>
<text text-anchor="start" x="8" y="-184" font-family="Helvetica,sans-Serif" font-size="10.00">+ eye()</text>
</a>
</g>
</g>
<!-- Node2&#45;&gt;Node1 -->
<g id="edge1" class="edge">
<title>Node2&#45;&gt;Node1</title>
<path fill="none" stroke="#404040" d="M81.46,-176.57C93.32,-147.23 108.8,-108.96 120.64,-79.67"/>
<polygon fill="none" stroke="#404040" points="120.65,-79.66 119.19,-72.59 125.14,-68.53 126.6,-75.59 120.65,-79.66"/>
<text text-anchor="middle" x="142" y="-145" font-family="Helvetica,sans-Serif" font-size="10.00"> +L</text>
<text text-anchor="middle" x="142" y="-134" font-family="Helvetica,sans-Serif" font-size="10.00">+P</text>
<text text-anchor="middle" x="142" y="-123" font-family="Helvetica,sans-Serif" font-size="10.00">+U</text>
<text text-anchor="start" x="116.5" y="-112" font-family="Helvetica,sans-Serif" font-size="10.00">+diffusion</text>
<text text-anchor="middle" x="142" y="-101" font-family="Helvetica,sans-Serif" font-size="10.00">_matrix_A</text>
<text text-anchor="middle" x="142" y="-90" font-family="Helvetica,sans-Serif" font-size="10.00">+x</text>
</g>
<!-- Node3 -->
<g id="node3" class="node">
<title>Node3</title>
<g id="a_node3"><a xlink:href="../../d4/d4d/classMyBLAS_1_1Vector.html" target="_top" xlink:title=" ">
<polygon fill="white" stroke="black" points="145.5,-171.5 145.5,-272.5 283.5,-272.5 283.5,-171.5 145.5,-171.5"/>
<text text-anchor="start" x="153.5" y="-260.5" font-family="Helvetica,sans-Serif" font-size="10.00">MyBLAS::Vector&lt; long</text>
<text text-anchor="middle" x="214.5" y="-249.5" font-family="Helvetica,sans-Serif" font-size="10.00"> double &gt;</text>
<polyline fill="none" stroke="black" points="145.5,-242.5 283.5,-242.5 "/>
<text text-anchor="start" x="153.5" y="-230.5" font-family="Helvetica,sans-Serif" font-size="10.00"># data</text>
<text text-anchor="start" x="153.5" y="-219.5" font-family="Helvetica,sans-Serif" font-size="10.00">and 1 more...</text>
<polyline fill="none" stroke="black" points="145.5,-212.5 283.5,-212.5 "/>
<text text-anchor="start" x="153.5" y="-200.5" font-family="Helvetica,sans-Serif" font-size="10.00">+ getAllocatedBytes()</text>
<text text-anchor="start" x="153.5" y="-189.5" font-family="Helvetica,sans-Serif" font-size="10.00">and 31 more...</text>
<text text-anchor="start" x="153.5" y="-178.5" font-family="Helvetica,sans-Serif" font-size="10.00">+ elementwiseMultiply()</text>
</a>
</g>
</g>
<!-- Node3&#45;&gt;Node1 -->
<g id="edge2" class="edge">
<title>Node3&#45;&gt;Node1</title>
<path fill="none" stroke="#404040" d="M201.93,-171.46C194.56,-145.66 184.2,-113.97 171.5,-87 170.28,-84.41 168.95,-81.79 167.54,-79.18"/>
<polygon fill="none" stroke="#404040" points="167.43,-78.98 160.98,-75.77 161.46,-68.58 167.91,-71.79 167.43,-78.98"/>
<text text-anchor="middle" x="264" y="-117.5" font-family="Helvetica,sans-Serif" font-size="10.00"> +right_hand_side_vector_B</text>
</g>
</g>
</svg>
