<?xml version="1.0" encoding="UTF-8" standalone="no"?>
<!DOCTYPE svg PUBLIC "-//W3C//DTD SVG 1.1//EN"
 "http://www.w3.org/Graphics/SVG/1.1/DTD/svg11.dtd">
<!-- Generated by graphviz version 2.43.0 (0)
 -->
<!-- Title: src/utils/math/blas/tests/lazy/LazyMatrixTests.cpp Pages: 1 -->
<svg width="634pt" height="274pt"
 viewBox="0.00 0.00 633.79 274.00" xmlns="http://www.w3.org/2000/svg" xmlns:xlink="http://www.w3.org/1999/xlink">
<g id="graph0" class="graph" transform="scale(1 1) rotate(0) translate(4 270)">
<title>src/utils/math/blas/tests/lazy/LazyMatrixTests.cpp</title>
<polygon fill="white" stroke="transparent" points="-4,4 -4,-270 629.79,-270 629.79,4 -4,4"/>
<!-- Node1 -->
<g id="node1" class="node">
<title>Node1</title>
<g id="a_node1"><a xlink:title="TODO::DOCUMENT.">
<polygon fill="#bfbfbf" stroke="black" points="317.29,-235.5 317.29,-265.5 486.29,-265.5 486.29,-235.5 317.29,-235.5"/>
<text text-anchor="start" x="325.29" y="-253.5" font-family="Helvetica,sans-Serif" font-size="10.00">src/utils/math/blas</text>
<text text-anchor="middle" x="401.79" y="-242.5" font-family="Helvetica,sans-Serif" font-size="10.00">/tests/lazy/LazyMatrixTests.cpp</text>
</a>
</g>
</g>
<!-- Node2 -->
<g id="node2" class="node">
<title>Node2</title>
<g id="a_node2"><a xlink:href="../../d8/d5a/LazyMatrix_8h.html" target="_top" xlink:title="TODO:: DOCUMENT.">
<polygon fill="white" stroke="black" points="193.29,-179.5 193.29,-198.5 360.29,-198.5 360.29,-179.5 193.29,-179.5"/>
<text text-anchor="middle" x="276.79" y="-186.5" font-family="Helvetica,sans-Serif" font-size="10.00">math/blas/matrix/LazyMatrix.h</text>
</a>
</g>
</g>
<!-- Node1&#45;&gt;Node2 -->
<g id="edge1" class="edge">
<title>Node1&#45;&gt;Node2</title>
<path fill="none" stroke="midnightblue" d="M372.17,-235.4C351.57,-225.59 324.31,-212.62 304.21,-203.05"/>
<polygon fill="midnightblue" stroke="midnightblue" points="305.51,-199.8 294.98,-198.66 302.5,-206.12 305.51,-199.8"/>
</g>
<!-- Node15 -->
<g id="node15" class="node">
<title>Node15</title>
<g id="a_node15"><a xlink:title=" ">
<polygon fill="white" stroke="#bfbfbf" points="378.29,-179.5 378.29,-198.5 425.29,-198.5 425.29,-179.5 378.29,-179.5"/>
<text text-anchor="middle" x="401.79" y="-186.5" font-family="Helvetica,sans-Serif" font-size="10.00">cmath</text>
</a>
</g>
</g>
<!-- Node1&#45;&gt;Node15 -->
<g id="edge21" class="edge">
<title>Node1&#45;&gt;Node15</title>
<path fill="none" stroke="midnightblue" d="M401.79,-235.4C401.79,-227.47 401.79,-217.46 401.79,-208.86"/>
<polygon fill="midnightblue" stroke="midnightblue" points="405.29,-208.66 401.79,-198.66 398.29,-208.66 405.29,-208.66"/>
</g>
<!-- Node16 -->
<g id="node16" class="node">
<title>Node16</title>
<g id="a_node16"><a xlink:title=" ">
<polygon fill="white" stroke="#bfbfbf" points="443.79,-179.5 443.79,-198.5 521.79,-198.5 521.79,-179.5 443.79,-179.5"/>
<text text-anchor="middle" x="482.79" y="-186.5" font-family="Helvetica,sans-Serif" font-size="10.00">gtest/gtest.h</text>
</a>
</g>
</g>
<!-- Node1&#45;&gt;Node16 -->
<g id="edge22" class="edge">
<title>Node1&#45;&gt;Node16</title>
<path fill="none" stroke="midnightblue" d="M420.98,-235.4C433.6,-226.13 450.08,-214.03 462.85,-204.65"/>
<polygon fill="midnightblue" stroke="midnightblue" points="465.02,-207.4 471,-198.66 460.87,-201.76 465.02,-207.4"/>
</g>
<!-- Node3 -->
<g id="node3" class="node">
<title>Node3</title>
<g id="a_node3"><a xlink:title=" ">
<polygon fill="white" stroke="#bfbfbf" points="12.79,-56.5 12.79,-75.5 76.79,-75.5 76.79,-56.5 12.79,-56.5"/>
<text text-anchor="middle" x="44.79" y="-63.5" font-family="Helvetica,sans-Serif" font-size="10.00">algorithm</text>
</a>
</g>
</g>
<!-- Node2&#45;&gt;Node3 -->
<g id="edge2" class="edge">
<title>Node2&#45;&gt;Node3</title>
<path fill="none" stroke="midnightblue" d="M260.48,-179.49C220.72,-158.76 118.58,-105.49 70.52,-80.42"/>
<polygon fill="midnightblue" stroke="midnightblue" points="71.88,-77.18 61.4,-75.66 68.64,-83.39 71.88,-77.18"/>
</g>
<!-- Node4 -->
<g id="node4" class="node">
<title>Node4</title>
<g id="a_node4"><a xlink:title=" ">
<polygon fill="white" stroke="#bfbfbf" points="513.29,-56.5 513.29,-75.5 566.29,-75.5 566.29,-56.5 513.29,-56.5"/>
<text text-anchor="middle" x="539.79" y="-63.5" font-family="Helvetica,sans-Serif" font-size="10.00">cstddef</text>
</a>
</g>
</g>
<!-- Node2&#45;&gt;Node4 -->
<g id="edge3" class="edge">
<title>Node2&#45;&gt;Node4</title>
<path fill="none" stroke="midnightblue" d="M279.67,-179.33C285.48,-163.29 300.18,-129.09 324.79,-112 353.2,-92.27 449.31,-77.91 502.9,-71.21"/>
<polygon fill="midnightblue" stroke="midnightblue" points="503.52,-74.66 513.02,-69.97 502.67,-67.71 503.52,-74.66"/>
</g>
<!-- Node5 -->
<g id="node5" class="node">
<title>Node5</title>
<g id="a_node5"><a xlink:title=" ">
<polygon fill="white" stroke="#bfbfbf" points="57.29,-0.5 57.29,-19.5 122.29,-19.5 122.29,-0.5 57.29,-0.5"/>
<text text-anchor="middle" x="89.79" y="-7.5" font-family="Helvetica,sans-Serif" font-size="10.00">functional</text>
</a>
</g>
</g>
<!-- Node2&#45;&gt;Node5 -->
<g id="edge4" class="edge">
<title>Node2&#45;&gt;Node5</title>
<path fill="none" stroke="midnightblue" d="M193.2,-179.78C128.27,-168.36 42.9,-141.1 3.79,-76 -10.59,-52.07 20.98,-33.96 49.83,-23.02"/>
<polygon fill="midnightblue" stroke="midnightblue" points="51.2,-26.24 59.44,-19.58 48.85,-19.65 51.2,-26.24"/>
</g>
<!-- Node6 -->
<g id="node6" class="node">
<title>Node6</title>
<g id="a_node6"><a xlink:href="../../d3/db1/Matrix_8h.html" target="_top" xlink:title="This file contains my BLAS::Matrix declarations.">
<polygon fill="white" stroke="black" points="220.29,-118 220.29,-137 277.29,-137 277.29,-118 220.29,-118"/>
<text text-anchor="middle" x="248.79" y="-125" font-family="Helvetica,sans-Serif" font-size="10.00">Matrix.h</text>
</a>
</g>
</g>
<!-- Node2&#45;&gt;Node6 -->
<g id="edge5" class="edge">
<title>Node2&#45;&gt;Node6</title>
<path fill="none" stroke="midnightblue" d="M272.78,-179.48C268.7,-170.82 262.27,-157.15 257.09,-146.15"/>
<polygon fill="midnightblue" stroke="midnightblue" points="260.22,-144.57 252.79,-137.01 253.88,-147.55 260.22,-144.57"/>
</g>
<!-- Node13 -->
<g id="node13" class="node">
<title>Node13</title>
<g id="a_node13"><a xlink:href="../../da/ddf/MatrixExpression_8h.html" target="_top" xlink:title="TODO:: DOCUMENT.">
<polygon fill="white" stroke="black" points="333.79,-118 333.79,-137 443.79,-137 443.79,-118 333.79,-118"/>
<text text-anchor="middle" x="388.79" y="-125" font-family="Helvetica,sans-Serif" font-size="10.00">MatrixExpression.h</text>
</a>
</g>
</g>
<!-- Node2&#45;&gt;Node13 -->
<g id="edge17" class="edge">
<title>Node2&#45;&gt;Node13</title>
<path fill="none" stroke="midnightblue" d="M292.84,-179.48C311.38,-169.62 342.13,-153.29 363.81,-141.77"/>
<polygon fill="midnightblue" stroke="midnightblue" points="365.58,-144.79 372.77,-137.01 362.3,-138.61 365.58,-144.79"/>
</g>
<!-- Node14 -->
<g id="node14" class="node">
<title>Node14</title>
<g id="a_node14"><a xlink:href="../../d2/dc6/MatrixVectorExpression_8h.html" target="_top" xlink:title=" ">
<polygon fill="white" stroke="black" points="461.79,-112.5 461.79,-142.5 625.79,-142.5 625.79,-112.5 461.79,-112.5"/>
<text text-anchor="start" x="469.79" y="-130.5" font-family="Helvetica,sans-Serif" font-size="10.00">math/blas/vector/MatrixVector</text>
<text text-anchor="middle" x="543.79" y="-119.5" font-family="Helvetica,sans-Serif" font-size="10.00">Expression.h</text>
</a>
</g>
</g>
<!-- Node2&#45;&gt;Node14 -->
<g id="edge19" class="edge">
<title>Node2&#45;&gt;Node14</title>
<path fill="none" stroke="midnightblue" d="M315.04,-179.48C355.6,-170.44 420.62,-155.95 470.99,-144.72"/>
<polygon fill="midnightblue" stroke="midnightblue" points="471.86,-148.11 480.86,-142.52 470.34,-141.28 471.86,-148.11"/>
</g>
<!-- Node6&#45;&gt;Node3 -->
<g id="edge6" class="edge">
<title>Node6&#45;&gt;Node3</title>
<path fill="none" stroke="midnightblue" d="M219.99,-118.1C184.35,-107.71 123.51,-89.96 83.73,-78.36"/>
<polygon fill="midnightblue" stroke="midnightblue" points="84.68,-74.99 74.1,-75.55 82.72,-81.71 84.68,-74.99"/>
</g>
<!-- Node7 -->
<g id="node7" class="node">
<title>Node7</title>
<g id="a_node7"><a xlink:title=" ">
<polygon fill="white" stroke="#bfbfbf" points="384.79,-0.5 384.79,-19.5 436.79,-19.5 436.79,-0.5 384.79,-0.5"/>
<text text-anchor="middle" x="410.79" y="-7.5" font-family="Helvetica,sans-Serif" font-size="10.00">cassert</text>
</a>
</g>
</g>
<!-- Node6&#45;&gt;Node7 -->
<g id="edge7" class="edge">
<title>Node6&#45;&gt;Node7</title>
<path fill="none" stroke="midnightblue" d="M273.26,-117.94C279.29,-115.91 285.75,-113.81 291.79,-112 351.67,-94 389.65,-125.55 427.79,-76 438.31,-62.33 431,-42.77 422.96,-28.68"/>
<polygon fill="midnightblue" stroke="midnightblue" points="425.75,-26.55 417.47,-19.94 419.82,-30.27 425.75,-26.55"/>
</g>
<!-- Node8 -->
<g id="node8" class="node">
<title>Node8</title>
<g id="a_node8"><a xlink:title=" ">
<polygon fill="white" stroke="#bfbfbf" points="454.79,-0.5 454.79,-19.5 514.79,-19.5 514.79,-0.5 454.79,-0.5"/>
<text text-anchor="middle" x="484.79" y="-7.5" font-family="Helvetica,sans-Serif" font-size="10.00">iostream</text>
</a>
</g>
</g>
<!-- Node6&#45;&gt;Node8 -->
<g id="edge8" class="edge">
<title>Node6&#45;&gt;Node8</title>
<path fill="none" stroke="midnightblue" d="M272.77,-117.97C278.93,-115.91 285.58,-113.78 291.79,-112 358.53,-92.89 387.3,-116.36 443.79,-76 460.04,-64.39 471.3,-44.14 477.85,-29.32"/>
<polygon fill="midnightblue" stroke="midnightblue" points="481.25,-30.27 481.8,-19.69 474.77,-27.61 481.25,-30.27"/>
</g>
<!-- Node9 -->
<g id="node9" class="node">
<title>Node9</title>
<g id="a_node9"><a xlink:title=" ">
<polygon fill="white" stroke="#bfbfbf" points="235.29,-0.5 235.29,-19.5 282.29,-19.5 282.29,-0.5 235.29,-0.5"/>
<text text-anchor="middle" x="258.79" y="-7.5" font-family="Helvetica,sans-Serif" font-size="10.00">vector</text>
</a>
</g>
</g>
<!-- Node6&#45;&gt;Node9 -->
<g id="edge9" class="edge">
<title>Node6&#45;&gt;Node9</title>
<path fill="none" stroke="midnightblue" d="M249.54,-117.82C251.15,-99.26 254.95,-55.34 257.15,-29.97"/>
<polygon fill="midnightblue" stroke="midnightblue" points="260.65,-30.05 258.03,-19.78 253.68,-29.44 260.65,-30.05"/>
</g>
<!-- Node10 -->
<g id="node10" class="node">
<title>Node10</title>
<g id="a_node10"><a xlink:href="../../d1/d45/Constants_8h.html" target="_top" xlink:title="MyBLAS Constants definition.">
<polygon fill="white" stroke="black" points="94.79,-56.5 94.79,-75.5 220.79,-75.5 220.79,-56.5 94.79,-56.5"/>
<text text-anchor="middle" x="157.79" y="-63.5" font-family="Helvetica,sans-Serif" font-size="10.00">math/blas/Constants.h</text>
</a>
</g>
</g>
<!-- Node6&#45;&gt;Node10 -->
<g id="edge10" class="edge">
<title>Node6&#45;&gt;Node10</title>
<path fill="none" stroke="midnightblue" d="M235.75,-117.98C221.02,-108.34 196.82,-92.52 179.28,-81.05"/>
<polygon fill="midnightblue" stroke="midnightblue" points="181.09,-78.05 170.8,-75.51 177.26,-83.91 181.09,-78.05"/>
</g>
<!-- Node11 -->
<g id="node11" class="node">
<title>Node11</title>
<g id="a_node11"><a xlink:href="../../d6/dbe/Vector_8h.html" target="_top" xlink:title="This file contains my BLAS::Vector implementation.">
<polygon fill="white" stroke="black" points="277.29,-56.5 277.29,-75.5 418.29,-75.5 418.29,-56.5 277.29,-56.5"/>
<text text-anchor="middle" x="347.79" y="-63.5" font-family="Helvetica,sans-Serif" font-size="10.00">math/blas/vector/Vector.h</text>
</a>
</g>
</g>
<!-- Node6&#45;&gt;Node11 -->
<g id="edge11" class="edge">
<title>Node6&#45;&gt;Node11</title>
<path fill="none" stroke="midnightblue" d="M262.97,-117.98C279.15,-108.25 305.82,-92.23 324.93,-80.74"/>
<polygon fill="midnightblue" stroke="midnightblue" points="326.86,-83.66 333.63,-75.51 323.26,-77.66 326.86,-83.66"/>
</g>
<!-- Node11&#45;&gt;Node5 -->
<g id="edge12" class="edge">
<title>Node11&#45;&gt;Node5</title>
<path fill="none" stroke="midnightblue" d="M306.91,-56.44C259.15,-46.45 180.54,-29.99 132.15,-19.87"/>
<polygon fill="midnightblue" stroke="midnightblue" points="132.81,-16.43 122.31,-17.81 131.38,-23.28 132.81,-16.43"/>
</g>
<!-- Node11&#45;&gt;Node7 -->
<g id="edge16" class="edge">
<title>Node11&#45;&gt;Node7</title>
<path fill="none" stroke="midnightblue" d="M357.91,-56.32C367.32,-48.26 381.53,-36.08 392.86,-26.37"/>
<polygon fill="midnightblue" stroke="midnightblue" points="395.17,-29 400.48,-19.83 390.61,-23.68 395.17,-29"/>
</g>
<!-- Node11&#45;&gt;Node8 -->
<g id="edge14" class="edge">
<title>Node11&#45;&gt;Node8</title>
<path fill="none" stroke="midnightblue" d="M369.5,-56.44C392.14,-47.52 427.86,-33.44 453.54,-23.32"/>
<polygon fill="midnightblue" stroke="midnightblue" points="455.16,-26.44 463.18,-19.52 452.6,-19.93 455.16,-26.44"/>
</g>
<!-- Node11&#45;&gt;Node9 -->
<g id="edge15" class="edge">
<title>Node11&#45;&gt;Node9</title>
<path fill="none" stroke="midnightblue" d="M333.49,-56.32C319.61,-47.9 298.3,-34.97 281.99,-25.07"/>
<polygon fill="midnightblue" stroke="midnightblue" points="283.42,-21.85 273.05,-19.65 279.79,-27.83 283.42,-21.85"/>
</g>
<!-- Node12 -->
<g id="node12" class="node">
<title>Node12</title>
<g id="a_node12"><a xlink:title=" ">
<polygon fill="white" stroke="#bfbfbf" points="310.79,-0.5 310.79,-19.5 366.79,-19.5 366.79,-0.5 310.79,-0.5"/>
<text text-anchor="middle" x="338.79" y="-7.5" font-family="Helvetica,sans-Serif" font-size="10.00">iomanip</text>
</a>
</g>
</g>
<!-- Node11&#45;&gt;Node12 -->
<g id="edge13" class="edge">
<title>Node11&#45;&gt;Node12</title>
<path fill="none" stroke="midnightblue" d="M346.3,-56.08C345.11,-48.93 343.39,-38.64 341.9,-29.69"/>
<polygon fill="midnightblue" stroke="midnightblue" points="345.34,-29.04 340.25,-19.75 338.44,-30.19 345.34,-29.04"/>
</g>
<!-- Node13&#45;&gt;Node4 -->
<g id="edge18" class="edge">
<title>Node13&#45;&gt;Node4</title>
<path fill="none" stroke="midnightblue" d="M410.42,-117.98C436.21,-107.81 479.5,-90.76 508.83,-79.2"/>
<polygon fill="midnightblue" stroke="midnightblue" points="510.17,-82.43 518.19,-75.51 507.61,-75.92 510.17,-82.43"/>
</g>
<!-- Node14&#45;&gt;Node4 -->
<g id="edge20" class="edge">
<title>Node14&#45;&gt;Node4</title>
<path fill="none" stroke="midnightblue" d="M542.84,-112.4C542.31,-104.47 541.63,-94.46 541.06,-85.86"/>
<polygon fill="midnightblue" stroke="midnightblue" points="544.53,-85.4 540.37,-75.66 537.55,-85.87 544.53,-85.4"/>
</g>
</g>
</svg>
