<?xml version="1.0" encoding="UTF-8" standalone="no"?>
<!DOCTYPE svg PUBLIC "-//W3C//DTD SVG 1.1//EN"
 "http://www.w3.org/Graphics/SVG/1.1/DTD/svg11.dtd">
<!-- Generated by graphviz version 2.43.0 (0)
 -->
<!-- Title: src/utils/math/blas/tests/lazy/LazyMatrixTests.cpp Pages: 1 -->
<!--zoomable 408 -->
<svg id="main" version="1.1" xmlns="http://www.w3.org/2000/svg" xmlns:xlink="http://www.w3.org/1999/xlink" xml:space="preserve" onload="init(evt)">
<style type="text/css"><![CDATA[
.edge:hover path { stroke: red; }
.edge:hover polygon { stroke: red; fill: red; }
]]></style>
<script type="text/javascript"><![CDATA[
var edges = document.getElementsByTagName('g');
if (edges && edges.length) {
  for (var i=0;i<edges.length;i++) {
    if (edges[i].id.substr(0,4)=='edge') {
      edges[i].setAttribute('class','edge');
    }
  }
}
]]></script>
        <defs>
                <circle id="rim" cx="0" cy="0" r="7"/>
                <circle id="rim2" cx="0" cy="0" r="3.5"/>
                <g id="zoomPlus">
                        <use xlink:href="#rim" fill="#404040">
                                <set attributeName="fill" to="#808080" begin="zoomplus.mouseover" end="zoomplus.mouseout"/>
                        </use>
                        <path d="M-4,0h8M0,-4v8" fill="none" stroke="white" stroke-width="1.5" pointer-events="none"/>
                </g>
                <g id="zoomMin">
                        <use xlink:href="#rim" fill="#404040">
                                <set attributeName="fill" to="#808080" begin="zoomminus.mouseover" end="zoomminus.mouseout"/>
                        </use>
                        <path d="M-4,0h8" fill="none" stroke="white" stroke-width="1.5" pointer-events="none"/>
                </g>
                <g id="dirArrow">
                        <path fill="none" stroke="white" stroke-width="1.5" d="M0,-3.0v7 M-2.5,-0.5L0,-3.0L2.5,-0.5"/>
                </g>
               <g id="resetDef">
                       <use xlink:href="#rim2" fill="#404040">
                               <set attributeName="fill" to="#808080" begin="reset.mouseover" end="reset.mouseout"/>
                       </use>
               </g>
        </defs>

<script type="text/javascript">
var viewWidth = 1030;
var viewHeight = 408;
var sectionId = 'dynsection-0';
</script>
<script xlink:href="../../svgpan.js"/>
<svg id="graph" class="graph">
<g id="viewport">
<title>src/utils/math/blas/tests/lazy/LazyMatrixTests.cpp</title>
<polygon fill="white" stroke="transparent" points="-4,4 -4,-404 1026,-404 1026,4 -4,4"/>
<!-- Node1 -->
<g id="node1" class="node">
<title>Node1</title>
<g id="a_node1"><a xlink:title=" ">
<polygon fill="#bfbfbf" stroke="black" points="693.5,-369.5 693.5,-399.5 862.5,-399.5 862.5,-369.5 693.5,-369.5"/>
<text text-anchor="start" x="701.5" y="-387.5" font-family="Helvetica,sans-Serif" font-size="10.00">src/utils/math/blas</text>
<text text-anchor="middle" x="778" y="-376.5" font-family="Helvetica,sans-Serif" font-size="10.00">/tests/lazy/LazyMatrixTests.cpp</text>
</a>
</g>
</g>
<!-- Node2 -->
<g id="node2" class="node">
<title>Node2</title>
<g id="a_node2"><a xlink:href="../../d8/d5a/LazyMatrix_8h.html" target="_top" xlink:title="Header file for the LazyMatrix class.">
<polygon fill="white" stroke="black" points="569.5,-313.5 569.5,-332.5 736.5,-332.5 736.5,-313.5 569.5,-313.5"/>
<text text-anchor="middle" x="653" y="-320.5" font-family="Helvetica,sans-Serif" font-size="10.00">math/blas/matrix/LazyMatrix.h</text>
</a>
</g>
</g>
<!-- Node1&#45;&gt;Node2 -->
<g id="edge1" class="edge">
<title>Node1&#45;&gt;Node2</title>
<path fill="none" stroke="midnightblue" d="M748.38,-369.4C727.78,-359.59 700.52,-346.62 680.42,-337.05"/>
<polygon fill="midnightblue" stroke="midnightblue" points="681.72,-333.8 671.19,-332.66 678.71,-340.12 681.72,-333.8"/>
</g>
<!-- Node19 -->
<g id="node19" class="node">
<title>Node19</title>
<g id="a_node19"><a xlink:title=" ">
<polygon fill="white" stroke="#bfbfbf" points="754.5,-313.5 754.5,-332.5 801.5,-332.5 801.5,-313.5 754.5,-313.5"/>
<text text-anchor="middle" x="778" y="-320.5" font-family="Helvetica,sans-Serif" font-size="10.00">cmath</text>
</a>
</g>
</g>
<!-- Node1&#45;&gt;Node19 -->
<g id="edge35" class="edge">
<title>Node1&#45;&gt;Node19</title>
<path fill="none" stroke="midnightblue" d="M778,-369.4C778,-361.47 778,-351.46 778,-342.86"/>
<polygon fill="midnightblue" stroke="midnightblue" points="781.5,-342.66 778,-332.66 774.5,-342.66 781.5,-342.66"/>
</g>
<!-- Node20 -->
<g id="node20" class="node">
<title>Node20</title>
<g id="a_node20"><a xlink:title=" ">
<polygon fill="white" stroke="#bfbfbf" points="820,-313.5 820,-332.5 898,-332.5 898,-313.5 820,-313.5"/>
<text text-anchor="middle" x="859" y="-320.5" font-family="Helvetica,sans-Serif" font-size="10.00">gtest/gtest.h</text>
</a>
</g>
</g>
<!-- Node1&#45;&gt;Node20 -->
<g id="edge36" class="edge">
<title>Node1&#45;&gt;Node20</title>
<path fill="none" stroke="midnightblue" d="M797.2,-369.4C809.82,-360.13 826.29,-348.03 839.06,-338.65"/>
<polygon fill="midnightblue" stroke="midnightblue" points="841.23,-341.4 847.21,-332.66 837.08,-335.76 841.23,-341.4"/>
</g>
<!-- Node3 -->
<g id="node3" class="node">
<title>Node3</title>
<g id="a_node3"><a xlink:title=" ">
<polygon fill="white" stroke="#bfbfbf" points="386,-62 386,-81 450,-81 450,-62 386,-62"/>
<text text-anchor="middle" x="418" y="-69" font-family="Helvetica,sans-Serif" font-size="10.00">algorithm</text>
</a>
</g>
</g>
<!-- Node2&#45;&gt;Node3 -->
<g id="edge2" class="edge">
<title>Node2&#45;&gt;Node3</title>
<path fill="none" stroke="midnightblue" d="M569.26,-314.21C451.97,-301.22 248.81,-270.39 211,-210 167.32,-140.24 303.7,-98.09 376.03,-81.14"/>
<polygon fill="midnightblue" stroke="midnightblue" points="376.81,-84.55 385.79,-78.92 375.26,-77.73 376.81,-84.55"/>
</g>
<!-- Node4 -->
<g id="node4" class="node">
<title>Node4</title>
<g id="a_node4"><a xlink:title=" ">
<polygon fill="white" stroke="#bfbfbf" points="591.5,-0.5 591.5,-19.5 644.5,-19.5 644.5,-0.5 591.5,-0.5"/>
<text text-anchor="middle" x="618" y="-7.5" font-family="Helvetica,sans-Serif" font-size="10.00">cstddef</text>
</a>
</g>
</g>
<!-- Node2&#45;&gt;Node4 -->
<g id="edge3" class="edge">
<title>Node2&#45;&gt;Node4</title>
<path fill="none" stroke="midnightblue" d="M717.27,-313.44C823,-297.54 1022,-259.16 1022,-195.5 1022,-195.5 1022,-195.5 1022,-132 1022,-93.83 1013.4,-77.7 982,-56 929.55,-19.75 736.41,-12.68 654.8,-11.32"/>
<polygon fill="midnightblue" stroke="midnightblue" points="654.55,-7.81 644.5,-11.16 654.45,-14.81 654.55,-7.81"/>
</g>
<!-- Node5 -->
<g id="node5" class="node">
<title>Node5</title>
<g id="a_node5"><a xlink:title=" ">
<polygon fill="white" stroke="#bfbfbf" points="807.5,-62 807.5,-81 872.5,-81 872.5,-62 807.5,-62"/>
<text text-anchor="middle" x="840" y="-69" font-family="Helvetica,sans-Serif" font-size="10.00">functional</text>
</a>
</g>
</g>
<!-- Node2&#45;&gt;Node5 -->
<g id="edge4" class="edge">
<title>Node2&#45;&gt;Node5</title>
<path fill="none" stroke="midnightblue" d="M717.12,-313.5C748.53,-307.1 785.77,-296.03 815,-277 879.57,-234.95 899.04,-215.55 925,-143 928,-134.63 929.4,-130.73 925,-123 914.83,-105.13 895.56,-92.92 877.94,-84.99"/>
<polygon fill="midnightblue" stroke="midnightblue" points="878.96,-81.63 868.38,-81.02 876.27,-88.09 878.96,-81.63"/>
</g>
<!-- Node6 -->
<g id="node6" class="node">
<title>Node6</title>
<g id="a_node6"><a xlink:title=" ">
<polygon fill="white" stroke="#bfbfbf" points="915,-62 915,-81 973,-81 973,-62 915,-62"/>
<text text-anchor="middle" x="944" y="-69" font-family="Helvetica,sans-Serif" font-size="10.00">memory</text>
</a>
</g>
</g>
<!-- Node2&#45;&gt;Node6 -->
<g id="edge5" class="edge">
<title>Node2&#45;&gt;Node6</title>
<path fill="none" stroke="midnightblue" d="M736.88,-313.68C773.39,-307.39 815.6,-296.36 850,-277 912.52,-241.82 925.26,-213.21 940,-143 943.62,-125.77 944.43,-105.69 944.46,-91.37"/>
<polygon fill="midnightblue" stroke="midnightblue" points="947.95,-91.25 944.34,-81.29 940.95,-91.33 947.95,-91.25"/>
</g>
<!-- Node7 -->
<g id="node7" class="node">
<title>Node7</title>
<g id="a_node7"><a xlink:href="../../d6/db1/ContainerExpression_8h.html" target="_top" xlink:title="Header file for the ContainerExpression class.">
<polygon fill="white" stroke="black" points="468.5,-56.5 468.5,-86.5 619.5,-86.5 619.5,-56.5 468.5,-56.5"/>
<text text-anchor="start" x="476.5" y="-74.5" font-family="Helvetica,sans-Serif" font-size="10.00">math/blas/matrix/Container</text>
<text text-anchor="middle" x="544" y="-63.5" font-family="Helvetica,sans-Serif" font-size="10.00">Expression.h</text>
</a>
</g>
</g>
<!-- Node2&#45;&gt;Node7 -->
<g id="edge6" class="edge">
<title>Node2&#45;&gt;Node7</title>
<path fill="none" stroke="midnightblue" d="M621.67,-313.46C578.45,-299.78 502.32,-268.35 471,-210 448.92,-168.86 489.89,-120.63 518.86,-93.61"/>
<polygon fill="midnightblue" stroke="midnightblue" points="521.58,-95.87 526.65,-86.58 516.88,-90.68 521.58,-95.87"/>
</g>
<!-- Node8 -->
<g id="node8" class="node">
<title>Node8</title>
<g id="a_node8"><a xlink:href="../../df/df0/ElementwiseExpression_8h.html" target="_top" xlink:title="This file defines a class for performing element&#45;wise operations on two containers.">
<polygon fill="white" stroke="black" points="219.5,-179.5 219.5,-209.5 386.5,-209.5 386.5,-179.5 219.5,-179.5"/>
<text text-anchor="start" x="227.5" y="-197.5" font-family="Helvetica,sans-Serif" font-size="10.00">math/blas/matrix/Elementwise</text>
<text text-anchor="middle" x="303" y="-186.5" font-family="Helvetica,sans-Serif" font-size="10.00">Expression.h</text>
</a>
</g>
</g>
<!-- Node2&#45;&gt;Node8 -->
<g id="edge8" class="edge">
<title>Node2&#45;&gt;Node8</title>
<path fill="none" stroke="midnightblue" d="M569.39,-318.06C518.45,-313.04 453.14,-301.85 400,-277 369.18,-262.59 340.19,-235.84 322.07,-216.92"/>
<polygon fill="midnightblue" stroke="midnightblue" points="324.61,-214.51 315.22,-209.6 319.5,-219.29 324.61,-214.51"/>
</g>
<!-- Node10 -->
<g id="node10" class="node">
<title>Node10</title>
<g id="a_node10"><a xlink:href="../../d3/db1/Matrix_8h.html" target="_top" xlink:title="Header file for the MyBLAS::Matrix class.">
<polygon fill="white" stroke="black" points="581,-252 581,-271 725,-271 725,-252 581,-252"/>
<text text-anchor="middle" x="653" y="-259" font-family="Helvetica,sans-Serif" font-size="10.00">math/blas/matrix/Matrix.h</text>
</a>
</g>
</g>
<!-- Node2&#45;&gt;Node10 -->
<g id="edge11" class="edge">
<title>Node2&#45;&gt;Node10</title>
<path fill="none" stroke="midnightblue" d="M653,-313.48C653,-305.08 653,-291.98 653,-281.16"/>
<polygon fill="midnightblue" stroke="midnightblue" points="656.5,-281.01 653,-271.01 649.5,-281.01 656.5,-281.01"/>
</g>
<!-- Node15 -->
<g id="node15" class="node">
<title>Node15</title>
<g id="a_node15"><a xlink:href="../../de/dcb/LazyVector_8h.html" target="_top" xlink:title="Header file for the LazyVector class.">
<polygon fill="white" stroke="black" points="734,-123.5 734,-142.5 812,-142.5 812,-123.5 734,-123.5"/>
<text text-anchor="middle" x="773" y="-130.5" font-family="Helvetica,sans-Serif" font-size="10.00">LazyVector.h</text>
</a>
</g>
</g>
<!-- Node2&#45;&gt;Node15 -->
<g id="edge32" class="edge">
<title>Node2&#45;&gt;Node15</title>
<path fill="none" stroke="midnightblue" d="M689.51,-313.42C736.54,-300.18 816.34,-269.79 851,-210 857.91,-198.08 857.89,-190.93 851,-179 842.32,-163.98 826.51,-153.52 811.38,-146.5"/>
<polygon fill="midnightblue" stroke="midnightblue" points="812.69,-143.25 802.12,-142.56 809.95,-149.69 812.69,-143.25"/>
</g>
<!-- Node18 -->
<g id="node18" class="node">
<title>Node18</title>
<g id="a_node18"><a xlink:href="../../d2/dc6/MatrixVectorExpression_8h.html" target="_top" xlink:title="Header file for the MatrixVectorExpression class.">
<polygon fill="white" stroke="black" points="0,-246.5 0,-276.5 164,-276.5 164,-246.5 0,-246.5"/>
<text text-anchor="start" x="8" y="-264.5" font-family="Helvetica,sans-Serif" font-size="10.00">math/blas/vector/MatrixVector</text>
<text text-anchor="middle" x="82" y="-253.5" font-family="Helvetica,sans-Serif" font-size="10.00">Expression.h</text>
</a>
</g>
</g>
<!-- Node2&#45;&gt;Node18 -->
<g id="edge33" class="edge">
<title>Node2&#45;&gt;Node18</title>
<path fill="none" stroke="midnightblue" d="M569.19,-315.47C474.17,-307.75 314.69,-293.78 178,-277 176.73,-276.84 175.45,-276.68 174.16,-276.52"/>
<polygon fill="midnightblue" stroke="midnightblue" points="174.55,-273.04 164.18,-275.22 173.64,-279.98 174.55,-273.04"/>
</g>
<!-- Node7&#45;&gt;Node4 -->
<g id="edge7" class="edge">
<title>Node7&#45;&gt;Node4</title>
<path fill="none" stroke="midnightblue" d="M561.54,-56.4C572.84,-47.31 587.54,-35.49 599.11,-26.19"/>
<polygon fill="midnightblue" stroke="midnightblue" points="601.63,-28.65 607.23,-19.66 597.25,-23.2 601.63,-28.65"/>
</g>
<!-- Node8&#45;&gt;Node4 -->
<g id="edge10" class="edge">
<title>Node8&#45;&gt;Node4</title>
<path fill="none" stroke="midnightblue" d="M306.33,-179.11C313.72,-150.64 334.31,-87.18 377,-56 409.02,-32.61 522.08,-19.43 581.27,-13.99"/>
<polygon fill="midnightblue" stroke="midnightblue" points="581.67,-17.47 591.31,-13.09 581.04,-10.5 581.67,-17.47"/>
</g>
<!-- Node9 -->
<g id="node9" class="node">
<title>Node9</title>
<g id="a_node9"><a xlink:title=" ">
<polygon fill="white" stroke="#bfbfbf" points="512,-123.5 512,-142.5 564,-142.5 564,-123.5 512,-123.5"/>
<text text-anchor="middle" x="538" y="-130.5" font-family="Helvetica,sans-Serif" font-size="10.00">cassert</text>
</a>
</g>
</g>
<!-- Node8&#45;&gt;Node9 -->
<g id="edge9" class="edge">
<title>Node8&#45;&gt;Node9</title>
<path fill="none" stroke="midnightblue" d="M358.39,-179.47C402.67,-168.26 463.47,-152.87 501.74,-143.18"/>
<polygon fill="midnightblue" stroke="midnightblue" points="503.07,-146.45 511.9,-140.61 501.35,-139.67 503.07,-146.45"/>
</g>
<!-- Node10&#45;&gt;Node3 -->
<g id="edge12" class="edge">
<title>Node10&#45;&gt;Node3</title>
<path fill="none" stroke="midnightblue" d="M580.86,-255.72C544.05,-249.82 500.87,-237.1 471,-210 436.04,-178.28 423.94,-120.86 419.91,-91.26"/>
<polygon fill="midnightblue" stroke="midnightblue" points="423.36,-90.59 418.7,-81.07 416.41,-91.41 423.36,-90.59"/>
</g>
<!-- Node10&#45;&gt;Node9 -->
<g id="edge13" class="edge">
<title>Node10&#45;&gt;Node9</title>
<path fill="none" stroke="midnightblue" d="M650.85,-251.92C646.47,-235.92 635.19,-201.15 615,-179 602.39,-165.16 584.52,-154.36 569.16,-146.81"/>
<polygon fill="midnightblue" stroke="midnightblue" points="570.54,-143.59 560,-142.53 567.58,-149.93 570.54,-143.59"/>
</g>
<!-- Node11 -->
<g id="node11" class="node">
<title>Node11</title>
<g id="a_node11"><a xlink:title=" ">
<polygon fill="white" stroke="#bfbfbf" points="582,-123.5 582,-142.5 642,-142.5 642,-123.5 582,-123.5"/>
<text text-anchor="middle" x="612" y="-130.5" font-family="Helvetica,sans-Serif" font-size="10.00">iostream</text>
</a>
</g>
</g>
<!-- Node10&#45;&gt;Node11 -->
<g id="edge14" class="edge">
<title>Node10&#45;&gt;Node11</title>
<path fill="none" stroke="midnightblue" d="M654.16,-251.57C655.79,-236.16 657.59,-203.87 648,-179 643.83,-168.19 636.07,-157.96 628.82,-149.98"/>
<polygon fill="midnightblue" stroke="midnightblue" points="631.1,-147.3 621.62,-142.57 626.07,-152.18 631.1,-147.3"/>
</g>
<!-- Node12 -->
<g id="node12" class="node">
<title>Node12</title>
<g id="a_node12"><a xlink:title=" ">
<polygon fill="white" stroke="#bfbfbf" points="868.5,-123.5 868.5,-142.5 915.5,-142.5 915.5,-123.5 868.5,-123.5"/>
<text text-anchor="middle" x="892" y="-130.5" font-family="Helvetica,sans-Serif" font-size="10.00">vector</text>
</a>
</g>
</g>
<!-- Node10&#45;&gt;Node12 -->
<g id="edge15" class="edge">
<title>Node10&#45;&gt;Node12</title>
<path fill="none" stroke="midnightblue" d="M725.16,-256.21C765.71,-250.57 815.21,-237.94 851,-210 869.79,-195.33 881.05,-169.57 886.89,-152.15"/>
<polygon fill="midnightblue" stroke="midnightblue" points="890.25,-153.14 889.85,-142.55 883.56,-151.08 890.25,-153.14"/>
</g>
<!-- Node13 -->
<g id="node13" class="node">
<title>Node13</title>
<g id="a_node13"><a xlink:href="../../d1/d45/Constants_8h.html" target="_top" xlink:title="MyBLAS Constants definition.">
<polygon fill="white" stroke="black" points="480,-185 480,-204 606,-204 606,-185 480,-185"/>
<text text-anchor="middle" x="543" y="-192" font-family="Helvetica,sans-Serif" font-size="10.00">math/blas/Constants.h</text>
</a>
</g>
</g>
<!-- Node10&#45;&gt;Node13 -->
<g id="edge16" class="edge">
<title>Node10&#45;&gt;Node13</title>
<path fill="none" stroke="midnightblue" d="M638.16,-251.73C619.69,-240.82 587.93,-222.05 566.22,-209.22"/>
<polygon fill="midnightblue" stroke="midnightblue" points="567.99,-206.2 557.6,-204.13 564.43,-212.23 567.99,-206.2"/>
</g>
<!-- Node14 -->
<g id="node14" class="node">
<title>Node14</title>
<g id="a_node14"><a xlink:href="../../d6/dbe/Vector_8h.html" target="_top" xlink:title="Header file for the MyBLAS::Vector class.">
<polygon fill="white" stroke="black" points="700.5,-185 700.5,-204 841.5,-204 841.5,-185 700.5,-185"/>
<text text-anchor="middle" x="771" y="-192" font-family="Helvetica,sans-Serif" font-size="10.00">math/blas/vector/Vector.h</text>
</a>
</g>
</g>
<!-- Node10&#45;&gt;Node14 -->
<g id="edge17" class="edge">
<title>Node10&#45;&gt;Node14</title>
<path fill="none" stroke="midnightblue" d="M668.91,-251.73C688.82,-240.77 723.11,-221.88 746.4,-209.05"/>
<polygon fill="midnightblue" stroke="midnightblue" points="748.27,-212.02 755.34,-204.13 744.89,-205.89 748.27,-212.02"/>
</g>
<!-- Node14&#45;&gt;Node5 -->
<g id="edge28" class="edge">
<title>Node14&#45;&gt;Node5</title>
<path fill="none" stroke="midnightblue" d="M782.67,-184.74C794.09,-175.56 811.16,-160.11 821,-143 830.26,-126.89 835.15,-106.1 837.63,-91.29"/>
<polygon fill="midnightblue" stroke="midnightblue" points="841.11,-91.7 839.1,-81.29 834.18,-90.68 841.11,-91.7"/>
</g>
<!-- Node14&#45;&gt;Node9 -->
<g id="edge27" class="edge">
<title>Node14&#45;&gt;Node9</title>
<path fill="none" stroke="midnightblue" d="M737.36,-184.94C699.89,-175.4 637.23,-159.44 574.1,-143.28"/>
<polygon fill="midnightblue" stroke="midnightblue" points="574.93,-139.88 564.37,-140.79 573.19,-146.66 574.93,-139.88"/>
</g>
<!-- Node14&#45;&gt;Node11 -->
<g id="edge30" class="edge">
<title>Node14&#45;&gt;Node11</title>
<path fill="none" stroke="midnightblue" d="M748.22,-184.98C720.95,-174.77 675.09,-157.61 644.2,-146.05"/>
<polygon fill="midnightblue" stroke="midnightblue" points="645.33,-142.74 634.74,-142.51 642.88,-149.29 645.33,-142.74"/>
</g>
<!-- Node14&#45;&gt;Node12 -->
<g id="edge31" class="edge">
<title>Node14&#45;&gt;Node12</title>
<path fill="none" stroke="midnightblue" d="M788.34,-184.98C808.55,-175.03 842.19,-158.49 865.64,-146.96"/>
<polygon fill="midnightblue" stroke="midnightblue" points="867.27,-150.06 874.7,-142.51 864.18,-143.78 867.27,-150.06"/>
</g>
<!-- Node14&#45;&gt;Node15 -->
<g id="edge18" class="edge">
<title>Node14&#45;&gt;Node15</title>
<path fill="none" stroke="midnightblue" d="M766.39,-184.98C764.84,-176.58 764.81,-163.48 766.06,-152.66"/>
<polygon fill="midnightblue" stroke="midnightblue" points="769.56,-152.96 767.82,-142.51 762.66,-151.76 769.56,-152.96"/>
</g>
<!-- Node17 -->
<g id="node17" class="node">
<title>Node17</title>
<g id="a_node17"><a xlink:title=" ">
<polygon fill="white" stroke="#bfbfbf" points="660,-123.5 660,-142.5 716,-142.5 716,-123.5 660,-123.5"/>
<text text-anchor="middle" x="688" y="-130.5" font-family="Helvetica,sans-Serif" font-size="10.00">iomanip</text>
</a>
</g>
</g>
<!-- Node14&#45;&gt;Node17 -->
<g id="edge29" class="edge">
<title>Node14&#45;&gt;Node17</title>
<path fill="none" stroke="midnightblue" d="M759.11,-184.98C745.8,-175.43 724,-159.81 708.04,-148.37"/>
<polygon fill="midnightblue" stroke="midnightblue" points="710.04,-145.49 699.87,-142.51 705.96,-151.18 710.04,-145.49"/>
</g>
<!-- Node15&#45;&gt;Node3 -->
<g id="edge19" class="edge">
<title>Node15&#45;&gt;Node3</title>
<path fill="none" stroke="midnightblue" d="M734,-124.52C730.96,-123.99 727.93,-123.47 725,-123 607.66,-104.04 575.63,-114.53 460,-87 456.59,-86.19 453.08,-85.21 449.59,-84.15"/>
<polygon fill="midnightblue" stroke="midnightblue" points="450.58,-80.79 439.99,-81.01 448.41,-87.44 450.58,-80.79"/>
</g>
<!-- Node15&#45;&gt;Node4 -->
<g id="edge20" class="edge">
<title>Node15&#45;&gt;Node4</title>
<path fill="none" stroke="midnightblue" d="M773.77,-123.25C774.65,-107.68 774.13,-75.05 757,-56 731.09,-27.2 686.62,-16.75 654.96,-13"/>
<polygon fill="midnightblue" stroke="midnightblue" points="655.06,-9.49 644.76,-11.97 654.35,-16.46 655.06,-9.49"/>
</g>
<!-- Node15&#45;&gt;Node5 -->
<g id="edge21" class="edge">
<title>Node15&#45;&gt;Node5</title>
<path fill="none" stroke="midnightblue" d="M782.6,-123.48C793.05,-114.2 809.97,-99.17 822.74,-87.83"/>
<polygon fill="midnightblue" stroke="midnightblue" points="825.27,-90.27 830.42,-81.01 820.62,-85.03 825.27,-90.27"/>
</g>
<!-- Node15&#45;&gt;Node6 -->
<g id="edge22" class="edge">
<title>Node15&#45;&gt;Node6</title>
<path fill="none" stroke="midnightblue" d="M797.5,-123.48C826.96,-113.22 876.58,-95.96 909.8,-84.4"/>
<polygon fill="midnightblue" stroke="midnightblue" points="911.25,-87.6 919.55,-81.01 908.95,-80.99 911.25,-87.6"/>
</g>
<!-- Node15&#45;&gt;Node7 -->
<g id="edge26" class="edge">
<title>Node15&#45;&gt;Node7</title>
<path fill="none" stroke="midnightblue" d="M740.19,-123.48C705.77,-114.53 650.8,-100.25 607.79,-89.07"/>
<polygon fill="midnightblue" stroke="midnightblue" points="608.53,-85.65 597.97,-86.52 606.77,-92.43 608.53,-85.65"/>
</g>
<!-- Node15&#45;&gt;Node14 -->
<g id="edge23" class="edge">
<title>Node15&#45;&gt;Node14</title>
<path fill="none" stroke="midnightblue" d="M777.61,-142.51C779.16,-150.9 779.19,-164 777.94,-174.82"/>
<polygon fill="midnightblue" stroke="midnightblue" points="774.44,-174.52 776.19,-184.98 781.34,-175.72 774.44,-174.52"/>
</g>
<!-- Node16 -->
<g id="node16" class="node">
<title>Node16</title>
<g id="a_node16"><a xlink:href="../../d6/d9f/VectorExpression_8h.html" target="_top" xlink:title="Header file for the MyBLAS::VectorExpression class.">
<polygon fill="white" stroke="black" points="638,-62 638,-81 748,-81 748,-62 638,-62"/>
<text text-anchor="middle" x="693" y="-69" font-family="Helvetica,sans-Serif" font-size="10.00">VectorExpression.h</text>
</a>
</g>
</g>
<!-- Node15&#45;&gt;Node16 -->
<g id="edge24" class="edge">
<title>Node15&#45;&gt;Node16</title>
<path fill="none" stroke="midnightblue" d="M761.54,-123.48C748.83,-114.02 728.09,-98.6 712.75,-87.19"/>
<polygon fill="midnightblue" stroke="midnightblue" points="714.55,-84.17 704.44,-81.01 710.38,-89.79 714.55,-84.17"/>
</g>
<!-- Node16&#45;&gt;Node4 -->
<g id="edge25" class="edge">
<title>Node16&#45;&gt;Node4</title>
<path fill="none" stroke="midnightblue" d="M682.25,-61.98C670.45,-52.61 651.26,-37.38 636.92,-26.01"/>
<polygon fill="midnightblue" stroke="midnightblue" points="638.74,-22.98 628.73,-19.51 634.38,-28.47 638.74,-22.98"/>
</g>
<!-- Node18&#45;&gt;Node4 -->
<g id="edge34" class="edge">
<title>Node18&#45;&gt;Node4</title>
<path fill="none" stroke="midnightblue" d="M94.17,-246.38C117.38,-219.97 170.38,-162.26 223,-123 271.96,-86.47 285.33,-76.12 343,-56 425.22,-27.31 527.77,-16.72 581.42,-12.96"/>
<polygon fill="midnightblue" stroke="midnightblue" points="581.73,-16.45 591.48,-12.29 581.27,-9.46 581.73,-16.45"/>
</g>
</g>
</svg>
        <g id="navigator" transform="translate(0 0)" fill="#404254">
                <rect fill="#f2f5e9" fill-opacity="0.5" stroke="#606060" stroke-width=".5" x="0" y="0" width="60" height="60"/>
                <use id="zoomplus" xlink:href="#zoomPlus" x="17" y="9" onmousedown="handleZoom(evt,'in')"/>
                <use id="zoomminus" xlink:href="#zoomMin" x="42" y="9" onmousedown="handleZoom(evt,'out')"/>
                <use id="reset" xlink:href="#resetDef" x="30" y="36" onmousedown="handleReset()"/>
                <g id="arrowUp" xlink:href="#dirArrow" transform="translate(30 24)" onmousedown="handlePan(0,-1)">
                  <use xlink:href="#rim" fill="#404040">
                        <set attributeName="fill" to="#808080" begin="arrowUp.mouseover" end="arrowUp.mouseout"/>
                  </use>
                  <path fill="none" stroke="white" stroke-width="1.5" d="M0,-3.0v7 M-2.5,-0.5L0,-3.0L2.5,-0.5"/>
                </g>
                <g id="arrowRight" xlink:href="#dirArrow" transform="rotate(90) translate(36 -43)" onmousedown="handlePan(1,0)">
                  <use xlink:href="#rim" fill="#404040">
                        <set attributeName="fill" to="#808080" begin="arrowRight.mouseover" end="arrowRight.mouseout"/>
                  </use>
                  <path fill="none" stroke="white" stroke-width="1.5" d="M0,-3.0v7 M-2.5,-0.5L0,-3.0L2.5,-0.5"/>
                </g>
                <g id="arrowDown" xlink:href="#dirArrow" transform="rotate(180) translate(-30 -48)" onmousedown="handlePan(0,1)">
                  <use xlink:href="#rim" fill="#404040">
                        <set attributeName="fill" to="#808080" begin="arrowDown.mouseover" end="arrowDown.mouseout"/>
                  </use>
                  <path fill="none" stroke="white" stroke-width="1.5" d="M0,-3.0v7 M-2.5,-0.5L0,-3.0L2.5,-0.5"/>
                </g>
                <g id="arrowLeft" xlink:href="#dirArrow" transform="rotate(270) translate(-36 17)" onmousedown="handlePan(-1,0)">
                  <use xlink:href="#rim" fill="#404040">
                        <set attributeName="fill" to="#808080" begin="arrowLeft.mouseover" end="arrowLeft.mouseout"/>
                  </use>
                  <path fill="none" stroke="white" stroke-width="1.5" d="M0,-3.0v7 M-2.5,-0.5L0,-3.0L2.5,-0.5"/>
                </g>
        </g>
        <svg viewBox="0 0 15 15" width="100%" height="30px" preserveAspectRatio="xMaxYMin meet">
         <g id="arrow_out" transform="scale(0.3 0.3)">
          <a xlink:href="LazyMatrixTests_8cpp__incl_org.svg" target="_base">
           <rect id="button" ry="5" rx="5" y="6" x="6" height="38" width="38"
                fill="#f2f5e9" fill-opacity="0.5" stroke="#606060" stroke-width="1.0"/>
           <path id="arrow"
             d="M 11.500037,31.436501 C 11.940474,20.09759 22.043105,11.32322 32.158766,21.979434 L 37.068811,17.246167 C 37.068811,17.246167 37.088388,32 37.088388,32 L 22.160133,31.978069 C 22.160133,31.978069 26.997745,27.140456 26.997745,27.140456 C 18.528582,18.264221 13.291696,25.230495 11.500037,31.436501 z"
             style="fill:#404040;"/>
          </a>
         </g>
        </svg>
</svg>
