<?xml version="1.0" encoding="UTF-8" standalone="no"?>
<!DOCTYPE svg PUBLIC "-//W3C//DTD SVG 1.1//EN"
 "http://www.w3.org/Graphics/SVG/1.1/DTD/svg11.dtd">
<!-- Generated by graphviz version 2.43.0 (0)
 -->
<!-- Title: L Pages: 1 -->
<svg width="737pt" height="790pt"
 viewBox="0.00 0.00 737.00 790.42" xmlns="http://www.w3.org/2000/svg" xmlns:xlink="http://www.w3.org/1999/xlink">
<g id="graph0" class="graph" transform="scale(1 1) rotate(0) translate(4 786.42)">
<title>L</title>
<polygon fill="white" stroke="transparent" points="-4,4 -4,-786.42 733,-786.42 733,4 -4,4"/>
<!-- Node1 -->
<g id="node1" class="node">
<title>Node1</title>
<g id="a_node1"><a xlink:title=" ">
<polygon fill="#bfbfbf" stroke="black" points="700,-397.5 700,-416.5 729,-416.5 729,-397.5 700,-397.5"/>
<text text-anchor="middle" x="714.5" y="-404.5" font-family="Helvetica,sans-Serif" font-size="10.00">L</text>
</a>
</g>
</g>
<!-- Node2 -->
<g id="node2" class="node">
<title>Node2</title>
<g id="a_node2"><a xlink:href="../../d0/d6c/namespaceInLab04.html#ab3a3cbc5744e288d945d91f6febfca15" target="_top" xlink:title="Perform forward substitution.">
<polygon fill="white" stroke="black" points="263,-701.5 263,-720.5 433,-720.5 433,-701.5 263,-701.5"/>
<text text-anchor="middle" x="348" y="-708.5" font-family="Helvetica,sans-Serif" font-size="10.00">InLab04::doForwardSubstitution</text>
</a>
</g>
</g>
<!-- Node1&#45;&gt;Node2 -->
<g id="edge1" class="edge">
<title>Node1&#45;&gt;Node2</title>
<path fill="none" stroke="midnightblue" d="M713.85,-427.18C714.53,-494.08 712.78,-706.77 664,-749 575.5,-825.61 416.88,-748.85 365.53,-720.55"/>
<polygon fill="midnightblue" stroke="midnightblue" points="717.34,-426.72 713.71,-416.77 710.34,-426.82 717.34,-426.72"/>
</g>
<!-- Node3 -->
<g id="node3" class="node">
<title>Node3</title>
<g id="a_node3"><a xlink:href="../../db/d2e/namespaceMyBLAS_1_1LU.html#a53e15f639ac089ddc18e9e9340489efc" target="_top" xlink:title="Factorizes a given matrix A into lower and upper triangular matrices L,U using Doolittle&#39;s method.">
<polygon fill="white" stroke="black" points="483.5,-720.5 483.5,-739.5 649.5,-739.5 649.5,-720.5 483.5,-720.5"/>
<text text-anchor="middle" x="566.5" y="-727.5" font-family="Helvetica,sans-Serif" font-size="10.00">MyBLAS::LU::doolittleFactorize</text>
</a>
</g>
</g>
<!-- Node1&#45;&gt;Node3 -->
<g id="edge2" class="edge">
<title>Node1&#45;&gt;Node3</title>
<path fill="none" stroke="midnightblue" d="M713.12,-426.97C711.52,-487.97 703.47,-670.2 664,-711 659.84,-715.3 655.02,-718.77 649.79,-721.57"/>
<polygon fill="midnightblue" stroke="midnightblue" points="716.62,-426.83 713.35,-416.76 709.62,-426.67 716.62,-426.83"/>
</g>
<!-- Node4 -->
<g id="node4" class="node">
<title>Node4</title>
<g id="a_node4"><a xlink:href="../../d2/d6e/namespaceMyBLAS.html#a278b70718fc6b42c7d239434849c2837" target="_top" xlink:title="Factorizes a given matrix A into lower and upper triangular matrices L,U using Doolittle&#39;s method.">
<polygon fill="white" stroke="black" points="486.5,-682.5 486.5,-701.5 646.5,-701.5 646.5,-682.5 486.5,-682.5"/>
<text text-anchor="middle" x="566.5" y="-689.5" font-family="Helvetica,sans-Serif" font-size="10.00">MyBLAS::doolittleFactorizeLU</text>
</a>
</g>
</g>
<!-- Node1&#45;&gt;Node4 -->
<g id="edge3" class="edge">
<title>Node1&#45;&gt;Node4</title>
<path fill="none" stroke="midnightblue" d="M712.6,-426.98C709.68,-482.71 698.55,-638.09 664,-673 659.08,-677.98 653.25,-681.85 646.95,-684.84"/>
<polygon fill="midnightblue" stroke="midnightblue" points="716.12,-426.84 713.11,-416.68 709.12,-426.49 716.12,-426.84"/>
</g>
<!-- Node5 -->
<g id="node5" class="node">
<title>Node5</title>
<g id="a_node5"><a xlink:href="../../d6/d82/labs_2outlab5_2Compute_8h.html#a42561c10d9c1157e9f1dcd9e940061a2" target="_top" xlink:title="Performs Doolittle&#39;s LU factorization with partial pivoting on a given matrix.">
<polygon fill="white" stroke="black" points="505.5,-606.5 505.5,-625.5 627.5,-625.5 627.5,-606.5 505.5,-606.5"/>
<text text-anchor="middle" x="566.5" y="-613.5" font-family="Helvetica,sans-Serif" font-size="10.00">dooLittleFactorizeLUP</text>
</a>
</g>
</g>
<!-- Node1&#45;&gt;Node5 -->
<g id="edge4" class="edge">
<title>Node1&#45;&gt;Node5</title>
<path fill="none" stroke="midnightblue" d="M714.3,-426.91C714.67,-464.69 709.78,-547.02 664,-592 654.15,-601.68 641.03,-607.65 627.65,-611.29"/>
<polygon fill="midnightblue" stroke="midnightblue" points="717.79,-426.62 714.06,-416.7 710.79,-426.78 717.79,-426.62"/>
</g>
<!-- Node6 -->
<g id="node6" class="node">
<title>Node6</title>
<g id="a_node6"><a xlink:href="../../d3/d1d/classOutLab5.html#aa1d5363426e0ce8f620d47c1b2aa2260" target="_top" xlink:title="This function runs the project.">
<polygon fill="white" stroke="black" points="308.5,-606.5 308.5,-625.5 387.5,-625.5 387.5,-606.5 308.5,-606.5"/>
<text text-anchor="middle" x="348" y="-613.5" font-family="Helvetica,sans-Serif" font-size="10.00">OutLab5::run</text>
</a>
</g>
</g>
<!-- Node1&#45;&gt;Node6 -->
<g id="edge43" class="edge">
<title>Node1&#45;&gt;Node6</title>
<path fill="none" stroke="midnightblue" d="M713.17,-426.76C711.49,-459.53 703.09,-524.89 664,-559 658.79,-563.55 470.87,-595.55 387.81,-609.51"/>
<polygon fill="midnightblue" stroke="midnightblue" points="716.67,-426.75 713.53,-416.63 709.68,-426.5 716.67,-426.75"/>
</g>
<!-- Node7 -->
<g id="node7" class="node">
<title>Node7</title>
<g id="a_node7"><a xlink:href="../../d5/db6/namespaceMyBLAS_1_1LUP.html#ab15d6938948c050657f9870aeec47097" target="_top" xlink:title="Performs Doolittle&#39;s LU factorization with partial pivoting on a given matrix.">
<polygon fill="white" stroke="black" points="470,-492.5 470,-511.5 663,-511.5 663,-492.5 470,-492.5"/>
<text text-anchor="middle" x="566.5" y="-499.5" font-family="Helvetica,sans-Serif" font-size="10.00">MyBLAS::LUP::dooLittleFactorizeLUP</text>
</a>
</g>
</g>
<!-- Node1&#45;&gt;Node7 -->
<g id="edge6" class="edge">
<title>Node1&#45;&gt;Node7</title>
<path fill="none" stroke="midnightblue" d="M705.01,-426.1C696.81,-442.34 682.86,-465.02 664,-478 654.76,-484.36 643.99,-489.04 633.06,-492.48"/>
<polygon fill="midnightblue" stroke="midnightblue" points="708.21,-427.5 709.36,-416.97 701.9,-424.49 708.21,-427.5"/>
</g>
<!-- Node12 -->
<g id="node12" class="node">
<title>Node12</title>
<g id="a_node12"><a xlink:href="../../d5/db6/namespaceMyBLAS_1_1LUP.html#aadc5106a411767f67e83cd6b62cabbce" target="_top" xlink:title="This function performs LU factorization on a given matrix A and stores the results in matrices L and ...">
<polygon fill="white" stroke="black" points="282.5,-454.5 282.5,-473.5 413.5,-473.5 413.5,-454.5 282.5,-454.5"/>
<text text-anchor="middle" x="348" y="-461.5" font-family="Helvetica,sans-Serif" font-size="10.00">MyBLAS::LUP::factorize</text>
</a>
</g>
</g>
<!-- Node1&#45;&gt;Node12 -->
<g id="edge14" class="edge">
<title>Node1&#45;&gt;Node12</title>
<path fill="none" stroke="midnightblue" d="M696.96,-423.74C688,-431.68 676.28,-440.41 664,-445 581.75,-475.72 479.04,-475.43 413.72,-470.91"/>
<polygon fill="midnightblue" stroke="midnightblue" points="699.44,-426.2 704.34,-416.81 694.65,-421.1 699.44,-426.2"/>
</g>
<!-- Node15 -->
<g id="node15" class="node">
<title>Node15</title>
<g id="a_node15"><a xlink:href="../../db/d2e/namespaceMyBLAS_1_1LU.html#a876ff0f2a17c8145a0e18eb54c37506b" target="_top" xlink:title="Factorizes a given matrix A into lower and upper triangular matrices L,U.">
<polygon fill="white" stroke="black" points="504,-378.5 504,-397.5 629,-397.5 629,-378.5 504,-378.5"/>
<text text-anchor="middle" x="566.5" y="-385.5" font-family="Helvetica,sans-Serif" font-size="10.00">MyBLAS::LU::factorize</text>
</a>
</g>
</g>
<!-- Node1&#45;&gt;Node15 -->
<g id="edge15" class="edge">
<title>Node1&#45;&gt;Node15</title>
<path fill="none" stroke="midnightblue" d="M689.46,-403.87C673.01,-401.73 650.43,-398.79 629.16,-396.02"/>
<polygon fill="midnightblue" stroke="midnightblue" points="689.4,-407.39 699.76,-405.21 690.3,-400.45 689.4,-407.39"/>
</g>
<!-- Node16 -->
<g id="node16" class="node">
<title>Node16</title>
<g id="a_node16"><a xlink:href="../../d8/d5b/classOutLab4.html#af3d8d1b60ac7a85a1aabf6a3d511ecce" target="_top" xlink:title="This function runs the project.">
<polygon fill="white" stroke="black" points="308.5,-337.5 308.5,-356.5 387.5,-356.5 387.5,-337.5 308.5,-337.5"/>
<text text-anchor="middle" x="348" y="-344.5" font-family="Helvetica,sans-Serif" font-size="10.00">OutLab4::run</text>
</a>
</g>
</g>
<!-- Node1&#45;&gt;Node16 -->
<g id="edge42" class="edge">
<title>Node1&#45;&gt;Node16</title>
<path fill="none" stroke="midnightblue" d="M708.7,-387.7C702.36,-366.8 688.94,-334.51 664,-320 589.08,-276.43 555.14,-310.43 469,-320 439.18,-323.31 405.95,-331.12 382.03,-337.49"/>
<polygon fill="midnightblue" stroke="midnightblue" points="705.35,-388.73 711.4,-397.44 712.1,-386.87 705.35,-388.73"/>
</g>
<!-- Node18 -->
<g id="node18" class="node">
<title>Node18</title>
<g id="a_node18"><a xlink:href="../../d2/d6e/namespaceMyBLAS.html#a4540b3f97122a1b21bdf0d84d79ca249" target="_top" xlink:title="Factorizes a given matrix A into lower and upper triangular matrices L,U.">
<polygon fill="white" stroke="black" points="507,-416.5 507,-435.5 626,-435.5 626,-416.5 507,-416.5"/>
<text text-anchor="middle" x="566.5" y="-423.5" font-family="Helvetica,sans-Serif" font-size="10.00">MyBLAS::factorizeLU</text>
</a>
</g>
</g>
<!-- Node1&#45;&gt;Node18 -->
<g id="edge19" class="edge">
<title>Node1&#45;&gt;Node18</title>
<path fill="none" stroke="midnightblue" d="M689.5,-410.12C672.26,-412.37 648.25,-415.49 626.08,-418.38"/>
<polygon fill="midnightblue" stroke="midnightblue" points="690.3,-413.55 699.76,-408.79 689.4,-406.61 690.3,-413.55"/>
</g>
<!-- Node19 -->
<g id="node19" class="node">
<title>Node19</title>
<g id="a_node19"><a xlink:href="../../d6/d82/labs_2outlab5_2Compute_8h.html#a06469338a0b66fbb6224d51ec170b8ad" target="_top" xlink:title="Performs LU factorization with partial pivoting on a given matrix.">
<polygon fill="white" stroke="black" points="484.5,-644.5 484.5,-663.5 648.5,-663.5 648.5,-644.5 484.5,-644.5"/>
<text text-anchor="middle" x="566.5" y="-651.5" font-family="Helvetica,sans-Serif" font-size="10.00">factorizeLUwithPartialPivoting</text>
</a>
</g>
</g>
<!-- Node1&#45;&gt;Node19 -->
<g id="edge20" class="edge">
<title>Node1&#45;&gt;Node19</title>
<path fill="none" stroke="midnightblue" d="M711.95,-426.72C707.62,-476.59 693.71,-605.86 664,-635 659.49,-639.42 654.27,-642.97 648.63,-645.79"/>
<polygon fill="midnightblue" stroke="midnightblue" points="715.45,-426.85 712.79,-416.6 708.47,-426.27 715.45,-426.85"/>
</g>
<!-- Node20 -->
<g id="node20" class="node">
<title>Node20</title>
<g id="a_node20"><a xlink:href="../../d5/db6/namespaceMyBLAS_1_1LUP.html#a9cf8ce4912ef5a8436e173e249b64286" target="_top" xlink:title="Performs LU factorization with partial pivoting on a given matrix.">
<polygon fill="white" stroke="black" points="484.5,-329 484.5,-359 648.5,-359 648.5,-329 484.5,-329"/>
<text text-anchor="start" x="492.5" y="-347" font-family="Helvetica,sans-Serif" font-size="10.00">MyBLAS::LUP::factorizeLUwith</text>
<text text-anchor="middle" x="566.5" y="-336" font-family="Helvetica,sans-Serif" font-size="10.00">PartialPivoting</text>
</a>
</g>
</g>
<!-- Node1&#45;&gt;Node20 -->
<g id="edge22" class="edge">
<title>Node1&#45;&gt;Node20</title>
<path fill="none" stroke="midnightblue" d="M695.57,-390.42C686.65,-382.93 675.36,-374.55 664,-369 656.15,-365.17 647.64,-361.87 639.03,-359.05"/>
<polygon fill="midnightblue" stroke="midnightblue" points="693.5,-393.25 703.33,-397.2 698.1,-387.98 693.5,-393.25"/>
</g>
<!-- Node21 -->
<g id="node21" class="node">
<title>Node21</title>
<g id="a_node21"><a xlink:href="../../d2/d6e/namespaceMyBLAS.html#aa3501265c4bb7f37e8e949d37244473a" target="_top" xlink:title="Perform forward substitution.">
<polygon fill="white" stroke="black" points="487,-530.5 487,-549.5 646,-549.5 646,-530.5 487,-530.5"/>
<text text-anchor="middle" x="566.5" y="-537.5" font-family="Helvetica,sans-Serif" font-size="10.00">MyBLAS::forwardSubstitution</text>
</a>
</g>
</g>
<!-- Node1&#45;&gt;Node21 -->
<g id="edge23" class="edge">
<title>Node1&#45;&gt;Node21</title>
<path fill="none" stroke="midnightblue" d="M710.61,-426.87C705.76,-452.7 693.43,-497.31 664,-521 658.68,-525.28 652.67,-528.69 646.31,-531.39"/>
<polygon fill="midnightblue" stroke="midnightblue" points="714.1,-427.2 712.31,-416.76 707.2,-426.04 714.1,-427.2"/>
</g>
<!-- Node23 -->
<g id="node23" class="node">
<title>Node23</title>
<g id="a_node23"><a xlink:href="../../d2/d6e/namespaceMyBLAS.html#ae371a7b6812d897b1395ef461745cea1" target="_top" xlink:title="Checks if the given matrix is a valid unit lower triangular matrix.">
<polygon fill="white" stroke="black" points="482,-241 482,-271 651,-271 651,-241 482,-241"/>
<text text-anchor="start" x="490" y="-259" font-family="Helvetica,sans-Serif" font-size="10.00">MyBLAS::isUnitLowerTriangular</text>
<text text-anchor="middle" x="566.5" y="-248" font-family="Helvetica,sans-Serif" font-size="10.00">Matrix</text>
</a>
</g>
</g>
<!-- Node1&#45;&gt;Node23 -->
<g id="edge30" class="edge">
<title>Node1&#45;&gt;Node23</title>
<path fill="none" stroke="midnightblue" d="M710.71,-387.19C705.91,-360.46 693.57,-313.11 664,-286 657.27,-279.84 649.3,-274.94 640.86,-271.05"/>
<polygon fill="midnightblue" stroke="midnightblue" points="707.28,-387.94 712.33,-397.26 714.19,-386.83 707.28,-387.94"/>
</g>
<!-- Node25 -->
<g id="node25" class="node">
<title>Node25</title>
<g id="a_node25"><a xlink:href="../../d1/d18/namespaceMyFactorizationMethod.html#af023ef80907979472242ab3db7dcd9ff" target="_top" xlink:title="Function to check if the factorized matrices pass the post&#45;checks for the factorization methods.">
<polygon fill="white" stroke="black" points="282.5,-203 282.5,-233 413.5,-233 413.5,-203 282.5,-203"/>
<text text-anchor="start" x="290.5" y="-221" font-family="Helvetica,sans-Serif" font-size="10.00">MyFactorizationMethod</text>
<text text-anchor="middle" x="348" y="-210" font-family="Helvetica,sans-Serif" font-size="10.00">::passesPostChecks</text>
</a>
</g>
</g>
<!-- Node1&#45;&gt;Node25 -->
<g id="edge38" class="edge">
<title>Node1&#45;&gt;Node25</title>
<path fill="none" stroke="midnightblue" d="M710.79,-387.02C704.69,-345.35 688.49,-251.39 664,-232 589.65,-173.12 471.66,-187.52 403.16,-202.99"/>
<polygon fill="midnightblue" stroke="midnightblue" points="707.34,-387.66 712.21,-397.07 714.28,-386.68 707.34,-387.66"/>
</g>
<!-- Node26 -->
<g id="node26" class="node">
<title>Node26</title>
<g id="a_node26"><a xlink:href="../../db/d13/labs_2inlab6_2tests_2LUMatrixTests_8cpp.html#a5669c38650f4e827fcd26a72acde0dbe" target="_top" xlink:title=" ">
<polygon fill="white" stroke="black" points="322,-164.5 322,-183.5 374,-183.5 374,-164.5 322,-164.5"/>
<text text-anchor="middle" x="348" y="-171.5" font-family="Helvetica,sans-Serif" font-size="10.00">TEST_P</text>
</a>
</g>
</g>
<!-- Node1&#45;&gt;Node26 -->
<g id="edge44" class="edge">
<title>Node1&#45;&gt;Node26</title>
<path fill="none" stroke="midnightblue" d="M712.01,-387.15C707.9,-338.16 694.59,-213.58 664,-188 620.54,-151.65 441.41,-164.93 374.43,-171.35"/>
<polygon fill="midnightblue" stroke="midnightblue" points="708.55,-387.7 712.83,-397.39 715.52,-387.14 708.55,-387.7"/>
</g>
<!-- Node27 -->
<g id="node27" class="node">
<title>Node27</title>
<g id="a_node27"><a xlink:href="../../d2/d6e/namespaceMyBLAS.html#a6f237b360d7d65a2b897fb259b9232c5" target="_top" xlink:title="Checks if the given matrix is a valid unit lower triangular matrix.">
<polygon fill="white" stroke="black" points="494,-115 494,-145 639,-145 639,-115 494,-115"/>
<text text-anchor="start" x="502" y="-133" font-family="Helvetica,sans-Serif" font-size="10.00">MyBLAS::isValidUnitLower</text>
<text text-anchor="middle" x="566.5" y="-122" font-family="Helvetica,sans-Serif" font-size="10.00">TriangularMatrix</text>
</a>
</g>
</g>
<!-- Node1&#45;&gt;Node27 -->
<g id="edge37" class="edge">
<title>Node1&#45;&gt;Node27</title>
<path fill="none" stroke="midnightblue" d="M712.1,-387.23C708,-334.76 694.35,-193.67 664,-160 657.19,-152.44 648.51,-146.77 639.16,-142.51"/>
<polygon fill="midnightblue" stroke="midnightblue" points="708.62,-387.56 712.85,-397.27 715.6,-387.04 708.62,-387.56"/>
</g>
<!-- Node28 -->
<g id="node28" class="node">
<title>Node28</title>
<g id="a_node28"><a xlink:href="../../d6/d82/labs_2outlab5_2Compute_8h.html#a4af95e0f3db41e42885c47e81a6aecd8" target="_top" xlink:title="Performs recursive LU factorization with partial pivoting on a given matrix.">
<polygon fill="white" stroke="black" points="504.5,-76.5 504.5,-95.5 628.5,-95.5 628.5,-76.5 504.5,-76.5"/>
<text text-anchor="middle" x="566.5" y="-83.5" font-family="Helvetica,sans-Serif" font-size="10.00">recursiveFactorizeLUP</text>
</a>
</g>
</g>
<!-- Node1&#45;&gt;Node28 -->
<g id="edge39" class="edge">
<title>Node1&#45;&gt;Node28</title>
<path fill="none" stroke="midnightblue" d="M713.1,-387.16C711.44,-326.55 703.24,-145.51 664,-105 654.62,-95.31 641.83,-89.79 628.64,-86.79"/>
<polygon fill="midnightblue" stroke="midnightblue" points="709.6,-387.39 713.34,-397.31 716.6,-387.23 709.6,-387.39"/>
</g>
<!-- Node29 -->
<g id="node29" class="node">
<title>Node29</title>
<g id="a_node29"><a xlink:href="../../d5/db6/namespaceMyBLAS_1_1LUP.html#a3aae3c4e098a271220214ee7b0f9a695" target="_top" xlink:title="Performs recursive LU factorization with partial pivoting on a given matrix.">
<polygon fill="white" stroke="black" points="469,-38.5 469,-57.5 664,-57.5 664,-38.5 469,-38.5"/>
<text text-anchor="middle" x="566.5" y="-45.5" font-family="Helvetica,sans-Serif" font-size="10.00">MyBLAS::LUP::recursiveFactorizeLUP</text>
</a>
</g>
</g>
<!-- Node1&#45;&gt;Node29 -->
<g id="edge40" class="edge">
<title>Node1&#45;&gt;Node29</title>
<path fill="none" stroke="midnightblue" d="M713.5,-387.28C713.08,-321.86 708.22,-113.48 664,-67 660.47,-63.29 656.44,-60.19 652.08,-57.6"/>
<polygon fill="midnightblue" stroke="midnightblue" points="710,-387.47 713.54,-397.46 717,-387.44 710,-387.47"/>
</g>
<!-- Node30 -->
<g id="node30" class="node">
<title>Node30</title>
<g id="a_node30"><a xlink:href="../../db/d2e/namespaceMyBLAS_1_1LU.html#a56aef4d1166cb1303cd968090fed78f8" target="_top" xlink:title="Performs recursive LU factorization on a given matrix.">
<polygon fill="white" stroke="black" points="475,-0.5 475,-19.5 658,-19.5 658,-0.5 475,-0.5"/>
<text text-anchor="middle" x="566.5" y="-7.5" font-family="Helvetica,sans-Serif" font-size="10.00">MyBLAS::LU::recursiveLUFactorize</text>
</a>
</g>
</g>
<!-- Node1&#45;&gt;Node30 -->
<g id="edge41" class="edge">
<title>Node1&#45;&gt;Node30</title>
<path fill="none" stroke="midnightblue" d="M713.82,-387.39C714.54,-317.42 713.21,-81.48 664,-29 660.5,-25.26 656.49,-22.14 652.14,-19.54"/>
<polygon fill="midnightblue" stroke="midnightblue" points="710.32,-387.42 713.69,-397.47 717.32,-387.51 710.32,-387.42"/>
</g>
<!-- Node5&#45;&gt;Node6 -->
<g id="edge5" class="edge">
<title>Node5&#45;&gt;Node6</title>
<path fill="none" stroke="midnightblue" d="M495.11,-616C459.4,-616 417.41,-616 387.63,-616"/>
<polygon fill="midnightblue" stroke="midnightblue" points="495.48,-619.5 505.48,-616 495.48,-612.5 495.48,-619.5"/>
</g>
<!-- Node8 -->
<g id="node8" class="node">
<title>Node8</title>
<g id="a_node8"><a xlink:href="../../d5/db6/namespaceMyBLAS_1_1LUP.html#a2f715f34052a24e79c500e89995fe5d3" target="_top" xlink:title="This function solves a system of linear equations Ax = b using LU factorization with partial pivoting...">
<polygon fill="white" stroke="black" points="281,-492.5 281,-511.5 415,-511.5 415,-492.5 281,-492.5"/>
<text text-anchor="middle" x="348" y="-499.5" font-family="Helvetica,sans-Serif" font-size="10.00">MyBLAS::LUP::applyLUP</text>
</a>
</g>
</g>
<!-- Node7&#45;&gt;Node8 -->
<g id="edge7" class="edge">
<title>Node7&#45;&gt;Node8</title>
<path fill="none" stroke="midnightblue" d="M459.49,-502C444.39,-502 429.25,-502 415.21,-502"/>
<polygon fill="midnightblue" stroke="midnightblue" points="459.91,-505.5 469.91,-502 459.91,-498.5 459.91,-505.5"/>
</g>
<!-- Node7&#45;&gt;Node12 -->
<g id="edge11" class="edge">
<title>Node7&#45;&gt;Node12</title>
<path fill="none" stroke="midnightblue" d="M501.26,-490.72C470.11,-485.26 433.1,-478.76 403.38,-473.54"/>
<polygon fill="midnightblue" stroke="midnightblue" points="500.69,-494.18 511.15,-492.46 501.9,-487.28 500.69,-494.18"/>
</g>
<!-- Node9 -->
<g id="node9" class="node">
<title>Node9</title>
<g id="a_node9"><a xlink:href="../../de/db3/namespaceCompute.html#a9aaa2e3c1db51432d5a62c1d4541fd90" target="_top" xlink:title="Solves a linear system using LUP decomposition.">
<polygon fill="white" stroke="black" points="115,-568.5 115,-587.5 227,-587.5 227,-568.5 115,-568.5"/>
<text text-anchor="middle" x="171" y="-575.5" font-family="Helvetica,sans-Serif" font-size="10.00">Compute::usingLUP</text>
</a>
</g>
</g>
<!-- Node8&#45;&gt;Node9 -->
<g id="edge8" class="edge">
<title>Node8&#45;&gt;Node9</title>
<path fill="none" stroke="midnightblue" d="M315.53,-515.67C280.46,-530.9 224.66,-555.13 193.98,-568.45"/>
<polygon fill="midnightblue" stroke="midnightblue" points="317.06,-518.82 324.84,-511.63 314.27,-512.4 317.06,-518.82"/>
</g>
<!-- Node10 -->
<g id="node10" class="node">
<title>Node10</title>
<g id="a_node10"><a xlink:href="../../d0/d4c/classOutLab6.html#a7f817fd9bedd2b88e683e2514d386c8c" target="_top" xlink:title="This function runs the computation.">
<polygon fill="white" stroke="black" points="0,-549.5 0,-568.5 79,-568.5 79,-549.5 0,-549.5"/>
<text text-anchor="middle" x="39.5" y="-556.5" font-family="Helvetica,sans-Serif" font-size="10.00">OutLab6::run</text>
</a>
</g>
</g>
<!-- Node9&#45;&gt;Node10 -->
<g id="edge9" class="edge">
<title>Node9&#45;&gt;Node10</title>
<path fill="none" stroke="midnightblue" d="M104.54,-568.4C95.87,-567.12 87.2,-565.85 79.18,-564.68"/>
<polygon fill="midnightblue" stroke="midnightblue" points="104.3,-571.9 114.7,-569.89 105.32,-564.97 104.3,-571.9"/>
</g>
<!-- Node11 -->
<g id="node11" class="node">
<title>Node11</title>
<g id="a_node11"><a xlink:href="../../dd/db5/classProject2.html#ae3fb99498f7859230efae48b2915a8cb" target="_top" xlink:title="This function runs the project.">
<polygon fill="white" stroke="black" points="0.5,-587.5 0.5,-606.5 78.5,-606.5 78.5,-587.5 0.5,-587.5"/>
<text text-anchor="middle" x="39.5" y="-594.5" font-family="Helvetica,sans-Serif" font-size="10.00">Project2::run</text>
</a>
</g>
</g>
<!-- Node9&#45;&gt;Node11 -->
<g id="edge10" class="edge">
<title>Node9&#45;&gt;Node11</title>
<path fill="none" stroke="midnightblue" d="M104.71,-587.58C95.84,-588.88 86.98,-590.18 78.8,-591.38"/>
<polygon fill="midnightblue" stroke="midnightblue" points="105.32,-591.03 114.7,-586.11 104.3,-584.1 105.32,-591.03"/>
</g>
<!-- Node13 -->
<g id="node13" class="node">
<title>Node13</title>
<g id="a_node13"><a xlink:href="../../d7/da1/project_2project1_2Compute_8h.html#acddcb7395a0d22a81020f268fd96918a" target="_top" xlink:title="Solves the linear system.">
<polygon fill="white" stroke="black" points="117,-449 117,-479 225,-479 225,-449 117,-449"/>
<text text-anchor="start" x="125" y="-467" font-family="Helvetica,sans-Serif" font-size="10.00">naive_solve_linear</text>
<text text-anchor="middle" x="171" y="-456" font-family="Helvetica,sans-Serif" font-size="10.00">_system</text>
</a>
</g>
</g>
<!-- Node12&#45;&gt;Node13 -->
<g id="edge12" class="edge">
<title>Node12&#45;&gt;Node13</title>
<path fill="none" stroke="midnightblue" d="M272.08,-464C256.32,-464 240,-464 225.24,-464"/>
<polygon fill="midnightblue" stroke="midnightblue" points="272.33,-467.5 282.33,-464 272.33,-460.5 272.33,-467.5"/>
</g>
<!-- Node14 -->
<g id="node14" class="node">
<title>Node14</title>
<g id="a_node14"><a xlink:href="../../d8/ddb/classProject1.html#ac7f0febb9852a9871ac5209b58506fb1" target="_top" xlink:title="This function runs the project.">
<polygon fill="white" stroke="black" points="0.5,-492.5 0.5,-511.5 78.5,-511.5 78.5,-492.5 0.5,-492.5"/>
<text text-anchor="middle" x="39.5" y="-499.5" font-family="Helvetica,sans-Serif" font-size="10.00">Project1::run</text>
</a>
</g>
</g>
<!-- Node13&#45;&gt;Node14 -->
<g id="edge13" class="edge">
<title>Node13&#45;&gt;Node14</title>
<path fill="none" stroke="midnightblue" d="M108.96,-481.91C96.57,-485.55 84,-489.24 73.07,-492.44"/>
<polygon fill="midnightblue" stroke="midnightblue" points="110.21,-485.19 118.82,-479.02 108.24,-478.48 110.21,-485.19"/>
</g>
<!-- Node15&#45;&gt;Node6 -->
<g id="edge17" class="edge">
<title>Node15&#45;&gt;Node6</title>
<path fill="none" stroke="midnightblue" d="M493.9,-391.98C484.6,-395.23 475.92,-400.03 469,-407 408.44,-467.99 492.69,-535.17 433,-597 421.37,-609.05 403.84,-614.19 387.79,-616.16"/>
<polygon fill="midnightblue" stroke="midnightblue" points="495.14,-395.27 503.78,-389.13 493.2,-388.55 495.14,-395.27"/>
</g>
<!-- Node15&#45;&gt;Node16 -->
<g id="edge16" class="edge">
<title>Node15&#45;&gt;Node16</title>
<path fill="none" stroke="midnightblue" d="M505.46,-376.63C467.86,-369.51 420.51,-360.54 387.8,-354.35"/>
<polygon fill="midnightblue" stroke="midnightblue" points="504.81,-380.07 515.29,-378.49 506.11,-373.19 504.81,-380.07"/>
</g>
<!-- Node17 -->
<g id="node17" class="node">
<title>Node17</title>
<g id="a_node17"><a xlink:href="../../d3/d3f/labs_2outlab5_2tests_2LUMatrixTests_8cpp.html#a5669c38650f4e827fcd26a72acde0dbe" target="_top" xlink:title=" ">
<polygon fill="white" stroke="black" points="322,-378.5 322,-397.5 374,-397.5 374,-378.5 322,-378.5"/>
<text text-anchor="middle" x="348" y="-385.5" font-family="Helvetica,sans-Serif" font-size="10.00">TEST_P</text>
</a>
</g>
</g>
<!-- Node15&#45;&gt;Node17 -->
<g id="edge18" class="edge">
<title>Node15&#45;&gt;Node17</title>
<path fill="none" stroke="midnightblue" d="M493.73,-388C452.5,-388 403.28,-388 374.16,-388"/>
<polygon fill="midnightblue" stroke="midnightblue" points="493.75,-391.5 503.75,-388 493.75,-384.5 493.75,-391.5"/>
</g>
<!-- Node19&#45;&gt;Node6 -->
<g id="edge21" class="edge">
<title>Node19&#45;&gt;Node6</title>
<path fill="none" stroke="midnightblue" d="M500.98,-642.68C464.11,-636.2 419.1,-628.3 387.67,-622.79"/>
<polygon fill="midnightblue" stroke="midnightblue" points="500.69,-646.18 511.15,-644.46 501.9,-639.28 500.69,-646.18"/>
</g>
<!-- Node21&#45;&gt;Node2 -->
<g id="edge25" class="edge">
<title>Node21&#45;&gt;Node2</title>
<path fill="none" stroke="midnightblue" d="M536.7,-554.27C516.78,-564.79 490.15,-580.14 469,-597 450.81,-611.5 449.64,-618.74 433,-635 407.68,-659.74 376.44,-687.26 360.12,-701.42"/>
<polygon fill="midnightblue" stroke="midnightblue" points="538.35,-557.36 545.62,-549.66 535.13,-551.15 538.35,-557.36"/>
</g>
<!-- Node21&#45;&gt;Node6 -->
<g id="edge28" class="edge">
<title>Node21&#45;&gt;Node6</title>
<path fill="none" stroke="midnightblue" d="M497.32,-552.4C487.51,-555.47 477.78,-559.28 469,-564 449.88,-574.27 452.23,-586.93 433,-597 419.09,-604.28 402.46,-608.78 387.68,-611.57"/>
<polygon fill="midnightblue" stroke="midnightblue" points="498.48,-555.71 507.12,-549.57 496.54,-548.98 498.48,-555.71"/>
</g>
<!-- Node21&#45;&gt;Node8 -->
<g id="edge24" class="edge">
<title>Node21&#45;&gt;Node8</title>
<path fill="none" stroke="midnightblue" d="M501.26,-528.72C470.11,-523.26 433.1,-516.76 403.38,-511.54"/>
<polygon fill="midnightblue" stroke="midnightblue" points="500.69,-532.18 511.15,-530.46 501.9,-525.28 500.69,-532.18"/>
</g>
<!-- Node21&#45;&gt;Node14 -->
<g id="edge29" class="edge">
<title>Node21&#45;&gt;Node14</title>
<path fill="none" stroke="midnightblue" d="M476.56,-534.94C416.27,-531.38 334.81,-526.32 263,-521 198.24,-516.2 122.97,-509.55 78.67,-505.52"/>
<polygon fill="midnightblue" stroke="midnightblue" points="476.62,-538.45 486.8,-535.54 477.03,-531.46 476.62,-538.45"/>
</g>
<!-- Node21&#45;&gt;Node16 -->
<g id="edge27" class="edge">
<title>Node21&#45;&gt;Node16</title>
<path fill="none" stroke="midnightblue" d="M477.93,-528.01C474.74,-525.97 471.74,-523.64 469,-521 418.98,-472.85 481.51,-418.67 433,-369 421.2,-356.92 403.65,-351.2 387.64,-348.59"/>
<polygon fill="midnightblue" stroke="midnightblue" points="476.31,-531.11 486.77,-532.79 479.64,-524.96 476.31,-531.11"/>
</g>
<!-- Node22 -->
<g id="node22" class="node">
<title>Node22</title>
<g id="a_node22"><a xlink:href="../../d8/deb/classInLab5.html#a627071ee1dc13ffb289e34d45ad63758" target="_top" xlink:title="This function runs the project.">
<polygon fill="white" stroke="black" points="312.5,-568.5 312.5,-587.5 383.5,-587.5 383.5,-568.5 312.5,-568.5"/>
<text text-anchor="middle" x="348" y="-575.5" font-family="Helvetica,sans-Serif" font-size="10.00">InLab5::run</text>
</a>
</g>
</g>
<!-- Node21&#45;&gt;Node22 -->
<g id="edge26" class="edge">
<title>Node21&#45;&gt;Node22</title>
<path fill="none" stroke="midnightblue" d="M501.07,-551.31C462.6,-558.06 415.26,-566.37 383.72,-571.91"/>
<polygon fill="midnightblue" stroke="midnightblue" points="501.9,-554.72 511.15,-549.54 500.69,-547.82 501.9,-554.72"/>
</g>
<!-- Node23&#45;&gt;Node6 -->
<g id="edge35" class="edge">
<title>Node23&#45;&gt;Node6</title>
<path fill="none" stroke="midnightblue" d="M519.41,-275.91C500.77,-286.33 480.88,-300.94 469,-320 403.35,-425.37 516.6,-505.22 433,-597 421.62,-609.49 403.92,-614.66 387.7,-616.53"/>
<polygon fill="midnightblue" stroke="midnightblue" points="521.23,-278.91 528.42,-271.13 517.95,-272.72 521.23,-278.91"/>
</g>
<!-- Node23&#45;&gt;Node13 -->
<g id="edge32" class="edge">
<title>Node23&#45;&gt;Node13</title>
<path fill="none" stroke="midnightblue" d="M479.86,-273.05C396.86,-290.11 280.92,-315.55 263,-328 218.21,-359.13 189.42,-420.07 177.82,-448.59"/>
<polygon fill="midnightblue" stroke="midnightblue" points="480.72,-276.45 489.81,-271.01 479.31,-269.59 480.72,-276.45"/>
</g>
<!-- Node23&#45;&gt;Node16 -->
<g id="edge34" class="edge">
<title>Node23&#45;&gt;Node16</title>
<path fill="none" stroke="midnightblue" d="M494.23,-274.48C485.5,-277.8 476.89,-281.63 469,-286 450.53,-296.24 451.25,-306.38 433,-317 418.01,-325.72 400.06,-332.55 384.6,-337.48"/>
<polygon fill="midnightblue" stroke="midnightblue" points="495.48,-277.75 503.71,-271.07 493.12,-271.16 495.48,-277.75"/>
</g>
<!-- Node24 -->
<g id="node24" class="node">
<title>Node24</title>
<g id="a_node24"><a xlink:href="../../d0/d40/classParser.html#a0b1cb3d47420a05306264ecc1e66e8c5" target="_top" xlink:title="Builds the input matrices for the MyBLAS library from a JSON file.">
<polygon fill="white" stroke="black" points="294.5,-252.5 294.5,-271.5 401.5,-271.5 401.5,-252.5 294.5,-252.5"/>
<text text-anchor="middle" x="348" y="-259.5" font-family="Helvetica,sans-Serif" font-size="10.00">Parser::buildInputs</text>
</a>
</g>
</g>
<!-- Node23&#45;&gt;Node24 -->
<g id="edge31" class="edge">
<title>Node23&#45;&gt;Node24</title>
<path fill="none" stroke="midnightblue" d="M471.58,-258.6C447.57,-259.27 422.61,-259.96 401.52,-260.54"/>
<polygon fill="midnightblue" stroke="midnightblue" points="471.9,-262.1 481.8,-258.32 471.7,-255.1 471.9,-262.1"/>
</g>
<!-- Node23&#45;&gt;Node25 -->
<g id="edge33" class="edge">
<title>Node23&#45;&gt;Node25</title>
<path fill="none" stroke="midnightblue" d="M471.91,-239.57C452.27,-236.13 431.98,-232.56 413.68,-229.35"/>
<polygon fill="midnightblue" stroke="midnightblue" points="471.34,-243.03 481.8,-241.31 472.55,-236.13 471.34,-243.03"/>
</g>
<!-- Node23&#45;&gt;Node26 -->
<g id="edge36" class="edge">
<title>Node23&#45;&gt;Node26</title>
<path fill="none" stroke="midnightblue" d="M529.2,-236.05C503.08,-222.37 466.66,-204.65 433,-193 413.64,-186.3 390.95,-181.33 374.03,-178.16"/>
<polygon fill="midnightblue" stroke="midnightblue" points="527.86,-239.3 538.33,-240.89 531.14,-233.11 527.86,-239.3"/>
</g>
</g>
</svg>
