<?xml version="1.0" encoding="UTF-8" standalone="no"?>
<!DOCTYPE svg PUBLIC "-//W3C//DTD SVG 1.1//EN"
 "http://www.w3.org/Graphics/SVG/1.1/DTD/svg11.dtd">
<!-- Generated by graphviz version 2.43.0 (0)
 -->
<!-- Title: src/utils/CheckBounds.h Pages: 1 -->
<svg width="1385pt" height="431pt"
 viewBox="0.00 0.00 1385.00 431.00" xmlns="http://www.w3.org/2000/svg" xmlns:xlink="http://www.w3.org/1999/xlink">
<g id="graph0" class="graph" transform="scale(1 1) rotate(0) translate(4 427)">
<title>src/utils/CheckBounds.h</title>
<polygon fill="white" stroke="transparent" points="-4,4 -4,-427 1381,-427 1381,4 -4,4"/>
<!-- Node1 -->
<g id="node1" class="node">
<title>Node1</title>
<g id="a_node1"><a xlink:title="This file contains the declaration of functions for checking the validity of input parameters.">
<polygon fill="#bfbfbf" stroke="black" points="624.5,-403.5 624.5,-422.5 757.5,-422.5 757.5,-403.5 624.5,-403.5"/>
<text text-anchor="middle" x="691" y="-410.5" font-family="Helvetica,sans-Serif" font-size="10.00">src/utils/CheckBounds.h</text>
</a>
</g>
</g>
<!-- Node2 -->
<g id="node2" class="node">
<title>Node2</title>
<g id="a_node2"><a xlink:title=" ">
<polygon fill="white" stroke="#bfbfbf" points="401,-230 401,-249 551,-249 551,-230 401,-230"/>
<text text-anchor="middle" x="476" y="-237" font-family="Helvetica,sans-Serif" font-size="10.00">boost/program_options.hpp</text>
</a>
</g>
</g>
<!-- Node1&#45;&gt;Node2 -->
<g id="edge1" class="edge">
<title>Node1&#45;&gt;Node2</title>
<path fill="none" stroke="midnightblue" d="M624.1,-403.93C582.81,-397.38 529.43,-386.01 485,-367 444.09,-349.49 422.89,-350.29 402,-311 389.09,-286.72 418.93,-266 444.49,-253.43"/>
<polygon fill="midnightblue" stroke="midnightblue" points="446.04,-256.57 453.63,-249.17 443.08,-250.22 446.04,-256.57"/>
</g>
<!-- Node3 -->
<g id="node3" class="node">
<title>Node3</title>
<g id="a_node3"><a xlink:title=" ">
<polygon fill="white" stroke="#bfbfbf" points="663,-0.5 663,-19.5 723,-19.5 723,-0.5 663,-0.5"/>
<text text-anchor="middle" x="693" y="-7.5" font-family="Helvetica,sans-Serif" font-size="10.00">iostream</text>
</a>
</g>
</g>
<!-- Node1&#45;&gt;Node3 -->
<g id="edge2" class="edge">
<title>Node1&#45;&gt;Node3</title>
<path fill="none" stroke="midnightblue" d="M714.88,-403.43C731.77,-396.2 753.7,-384.24 767,-367 782.81,-346.51 779.41,-336.63 783,-311 784.23,-302.2 787.23,-298.82 783,-291 769.11,-265.3 745.44,-278.44 728,-255 678.48,-188.43 686.9,-158.11 675,-76 673.73,-67.2 673.32,-64.73 675,-56 676.79,-46.7 680.48,-36.89 684.06,-28.8"/>
<polygon fill="midnightblue" stroke="midnightblue" points="687.27,-30.2 688.38,-19.66 680.94,-27.21 687.27,-30.2"/>
</g>
<!-- Node4 -->
<g id="node4" class="node">
<title>Node4</title>
<g id="a_node4"><a xlink:title=" ">
<polygon fill="white" stroke="#bfbfbf" points="1277,-0.5 1277,-19.5 1333,-19.5 1333,-0.5 1277,-0.5"/>
<text text-anchor="middle" x="1305" y="-7.5" font-family="Helvetica,sans-Serif" font-size="10.00">iomanip</text>
</a>
</g>
</g>
<!-- Node1&#45;&gt;Node4 -->
<g id="edge3" class="edge">
<title>Node1&#45;&gt;Node4</title>
<path fill="none" stroke="midnightblue" d="M757.71,-408.26C930.1,-397.69 1377,-364.31 1377,-302 1377,-302 1377,-302 1377,-121 1377,-81.94 1344.82,-45.94 1323.49,-26.37"/>
<polygon fill="midnightblue" stroke="midnightblue" points="1325.75,-23.7 1315.94,-19.7 1321.12,-28.94 1325.75,-23.7"/>
</g>
<!-- Node5 -->
<g id="node5" class="node">
<title>Node5</title>
<g id="a_node5"><a xlink:title=" ">
<polygon fill="white" stroke="#bfbfbf" points="0,-230 0,-249 44,-249 44,-230 0,-230"/>
<text text-anchor="middle" x="22" y="-237" font-family="Helvetica,sans-Serif" font-size="10.00">limits</text>
</a>
</g>
</g>
<!-- Node1&#45;&gt;Node5 -->
<g id="edge4" class="edge">
<title>Node1&#45;&gt;Node5</title>
<path fill="none" stroke="midnightblue" d="M624.48,-410.09C547.54,-406.52 417.65,-396.3 310,-367 207.46,-339.09 94.4,-280.52 46.06,-254.03"/>
<polygon fill="midnightblue" stroke="midnightblue" points="47.46,-250.8 37.02,-249.03 44.08,-256.93 47.46,-250.8"/>
</g>
<!-- Node6 -->
<g id="node6" class="node">
<title>Node6</title>
<g id="a_node6"><a xlink:href="../../d9/d41/CommandLine_8h.html" target="_top" xlink:title="This file contains the definition of the CommandLine class and the HeaderInfo struct.">
<polygon fill="white" stroke="black" points="494,-347.5 494,-366.5 590,-366.5 590,-347.5 494,-347.5"/>
<text text-anchor="middle" x="542" y="-354.5" font-family="Helvetica,sans-Serif" font-size="10.00">CommandLine.h</text>
</a>
</g>
</g>
<!-- Node1&#45;&gt;Node6 -->
<g id="edge5" class="edge">
<title>Node1&#45;&gt;Node6</title>
<path fill="none" stroke="midnightblue" d="M667.39,-403.44C642.54,-394.44 603.23,-380.19 575.25,-370.05"/>
<polygon fill="midnightblue" stroke="midnightblue" points="576.09,-366.63 565.5,-366.52 573.71,-373.21 576.09,-366.63"/>
</g>
<!-- Node8 -->
<g id="node8" class="node">
<title>Node8</title>
<g id="a_node8"><a xlink:title=" ">
<polygon fill="white" stroke="#bfbfbf" points="607,-230 607,-249 665,-249 665,-230 607,-230"/>
<text text-anchor="middle" x="636" y="-237" font-family="Helvetica,sans-Serif" font-size="10.00">json.hpp</text>
</a>
</g>
</g>
<!-- Node1&#45;&gt;Node8 -->
<g id="edge55" class="edge">
<title>Node1&#45;&gt;Node8</title>
<path fill="none" stroke="midnightblue" d="M703.78,-403.32C731.82,-383.21 794.06,-332 766,-291 763.11,-286.77 707.14,-266.03 669.59,-252.48"/>
<polygon fill="midnightblue" stroke="midnightblue" points="670.61,-249.13 660.02,-249.04 668.25,-255.72 670.61,-249.13"/>
</g>
<!-- Node9 -->
<g id="node9" class="node">
<title>Node9</title>
<g id="a_node9"><a xlink:href="../../db/df1/Helpers_8h.html" target="_top" xlink:title="This file contains helper functions and structures used throughout the program.">
<polygon fill="white" stroke="black" points="257.5,-291.5 257.5,-310.5 320.5,-310.5 320.5,-291.5 257.5,-291.5"/>
<text text-anchor="middle" x="289" y="-298.5" font-family="Helvetica,sans-Serif" font-size="10.00">Helpers.h</text>
</a>
</g>
</g>
<!-- Node1&#45;&gt;Node9 -->
<g id="edge54" class="edge">
<title>Node1&#45;&gt;Node9</title>
<path fill="none" stroke="midnightblue" d="M624.48,-409.92C535.22,-406.08 382.41,-395.44 335,-367 317.08,-356.25 304.29,-335.54 296.81,-320.38"/>
<polygon fill="midnightblue" stroke="midnightblue" points="299.84,-318.58 292.49,-310.95 293.48,-321.5 299.84,-318.58"/>
</g>
<!-- Node6&#45;&gt;Node2 -->
<g id="edge51" class="edge">
<title>Node6&#45;&gt;Node2</title>
<path fill="none" stroke="midnightblue" d="M493.86,-352.95C464.74,-348.33 429.72,-337.23 411,-311 395.56,-289.37 424.64,-267.31 448.73,-253.76"/>
<polygon fill="midnightblue" stroke="midnightblue" points="450.45,-256.81 457.61,-249 447.14,-250.64 450.45,-256.81"/>
</g>
<!-- Node6&#45;&gt;Node3 -->
<g id="edge52" class="edge">
<title>Node6&#45;&gt;Node3</title>
<path fill="none" stroke="midnightblue" d="M506.08,-347.48C470.51,-337.28 424.02,-318.12 444,-291 476.02,-247.54 522.91,-294.22 560,-255 583.92,-229.7 579,-213.82 579,-179 579,-179 579,-179 579,-121 579,-74.11 629.55,-40.89 663.33,-23.93"/>
<polygon fill="midnightblue" stroke="midnightblue" points="664.87,-27.07 672.36,-19.58 661.83,-20.77 664.87,-27.07"/>
</g>
<!-- Node7 -->
<g id="node7" class="node">
<title>Node7</title>
<g id="a_node7"><a xlink:href="../../d2/d0e/CommandlineHelpers_8h.html" target="_top" xlink:title="This file contains helper functions for handling command line options and initializing the profiler.">
<polygon fill="white" stroke="black" points="625.5,-291.5 625.5,-310.5 756.5,-310.5 756.5,-291.5 625.5,-291.5"/>
<text text-anchor="middle" x="691" y="-298.5" font-family="Helvetica,sans-Serif" font-size="10.00">CommandlineHelpers.h</text>
</a>
</g>
</g>
<!-- Node6&#45;&gt;Node7 -->
<g id="edge6" class="edge">
<title>Node6&#45;&gt;Node7</title>
<path fill="none" stroke="midnightblue" d="M565.61,-347.44C590.46,-338.44 629.77,-324.19 657.75,-314.05"/>
<polygon fill="midnightblue" stroke="midnightblue" points="659.29,-317.21 667.5,-310.52 656.91,-310.63 659.29,-317.21"/>
</g>
<!-- Node6&#45;&gt;Node9 -->
<g id="edge10" class="edge">
<title>Node6&#45;&gt;Node9</title>
<path fill="none" stroke="midnightblue" d="M501.91,-347.44C455.05,-337.44 377.88,-320.97 330.45,-310.85"/>
<polygon fill="midnightblue" stroke="midnightblue" points="331.02,-307.39 320.51,-308.73 329.56,-314.24 331.02,-307.39"/>
</g>
<!-- Node12 -->
<g id="node12" class="node">
<title>Node12</title>
<g id="a_node12"><a xlink:href="../../df/d69/Profiler_8h.html" target="_top" xlink:title="This file contains the Profiler class which is used to profile the execution time of a function.">
<polygon fill="white" stroke="black" points="852.5,-291.5 852.5,-310.5 911.5,-310.5 911.5,-291.5 852.5,-291.5"/>
<text text-anchor="middle" x="882" y="-298.5" font-family="Helvetica,sans-Serif" font-size="10.00">Profiler.h</text>
</a>
</g>
</g>
<!-- Node6&#45;&gt;Node12 -->
<g id="edge18" class="edge">
<title>Node6&#45;&gt;Node12</title>
<path fill="none" stroke="midnightblue" d="M590.35,-348.32C658.08,-337.56 779.91,-318.21 842.51,-308.27"/>
<polygon fill="midnightblue" stroke="midnightblue" points="843.07,-311.73 852.39,-306.7 841.97,-304.81 843.07,-311.73"/>
</g>
<!-- Node30 -->
<g id="node30" class="node">
<title>Node30</title>
<g id="a_node30"><a xlink:title=" ">
<polygon fill="white" stroke="#bfbfbf" points="453,-291.5 453,-310.5 545,-310.5 545,-291.5 453,-291.5"/>
<text text-anchor="middle" x="499" y="-298.5" font-family="Helvetica,sans-Serif" font-size="10.00">project&#45;config.h</text>
</a>
</g>
</g>
<!-- Node6&#45;&gt;Node30 -->
<g id="edge50" class="edge">
<title>Node6&#45;&gt;Node30</title>
<path fill="none" stroke="midnightblue" d="M534.9,-347.08C528.76,-339.38 519.73,-328.03 512.26,-318.65"/>
<polygon fill="midnightblue" stroke="midnightblue" points="514.94,-316.39 505.97,-310.75 509.46,-320.75 514.94,-316.39"/>
</g>
<!-- Node31 -->
<g id="node31" class="node">
<title>Node31</title>
<g id="a_node31"><a xlink:title=" ">
<polygon fill="white" stroke="#bfbfbf" points="563,-291.5 563,-310.5 607,-310.5 607,-291.5 563,-291.5"/>
<text text-anchor="middle" x="585" y="-298.5" font-family="Helvetica,sans-Serif" font-size="10.00">string</text>
</a>
</g>
</g>
<!-- Node6&#45;&gt;Node31 -->
<g id="edge53" class="edge">
<title>Node6&#45;&gt;Node31</title>
<path fill="none" stroke="midnightblue" d="M549.1,-347.08C555.24,-339.38 564.27,-328.03 571.74,-318.65"/>
<polygon fill="midnightblue" stroke="midnightblue" points="574.54,-320.75 578.03,-310.75 569.06,-316.39 574.54,-320.75"/>
</g>
<!-- Node7&#45;&gt;Node1 -->
<g id="edge7" class="edge">
<title>Node7&#45;&gt;Node1</title>
<path fill="none" stroke="midnightblue" d="M691,-310.59C691,-328.31 691,-369.25 691,-393.35"/>
<polygon fill="midnightblue" stroke="midnightblue" points="687.5,-393.37 691,-403.37 694.5,-393.37 687.5,-393.37"/>
</g>
<!-- Node7&#45;&gt;Node2 -->
<g id="edge9" class="edge">
<title>Node7&#45;&gt;Node2</title>
<path fill="none" stroke="midnightblue" d="M660.2,-291.48C622.44,-281.03 558.34,-263.29 516.59,-251.73"/>
<polygon fill="midnightblue" stroke="midnightblue" points="517.32,-248.3 506.75,-249.01 515.45,-255.05 517.32,-248.3"/>
</g>
<!-- Node7&#45;&gt;Node8 -->
<g id="edge8" class="edge">
<title>Node7&#45;&gt;Node8</title>
<path fill="none" stroke="midnightblue" d="M683.12,-291.48C674.71,-282.37 661.18,-267.74 650.77,-256.48"/>
<polygon fill="midnightblue" stroke="midnightblue" points="653.22,-253.98 643.87,-249.01 648.08,-258.73 653.22,-253.98"/>
</g>
<!-- Node9&#45;&gt;Node2 -->
<g id="edge15" class="edge">
<title>Node9&#45;&gt;Node2</title>
<path fill="none" stroke="midnightblue" d="M315.79,-291.48C348.29,-281.14 403.21,-263.66 439.54,-252.1"/>
<polygon fill="midnightblue" stroke="midnightblue" points="440.79,-255.38 449.26,-249.01 438.67,-248.71 440.79,-255.38"/>
</g>
<!-- Node9&#45;&gt;Node3 -->
<g id="edge12" class="edge">
<title>Node9&#45;&gt;Node3</title>
<path fill="none" stroke="midnightblue" d="M257.14,-296.8C207.33,-291.15 114.3,-277.81 91,-255 66.12,-230.65 72,-213.82 72,-179 72,-179 72,-179 72,-121 72,-61.84 514.59,-24.17 652.48,-13.87"/>
<polygon fill="midnightblue" stroke="midnightblue" points="652.91,-17.35 662.63,-13.12 652.4,-10.37 652.91,-17.35"/>
</g>
<!-- Node9&#45;&gt;Node4 -->
<g id="edge11" class="edge">
<title>Node9&#45;&gt;Node4</title>
<path fill="none" stroke="midnightblue" d="M302.16,-291.33C315.45,-282.48 336.45,-268.2 354,-255 371.42,-241.9 373.55,-235.61 392,-224 540.77,-130.41 579.99,-100.58 750,-56 959.08,-1.18 1019.95,-41.79 1235,-20 1245.33,-18.95 1256.49,-17.61 1266.81,-16.29"/>
<polygon fill="midnightblue" stroke="midnightblue" points="1267.31,-19.75 1276.77,-14.98 1266.4,-12.81 1267.31,-19.75"/>
</g>
<!-- Node9&#45;&gt;Node5 -->
<g id="edge13" class="edge">
<title>Node9&#45;&gt;Node5</title>
<path fill="none" stroke="midnightblue" d="M257.16,-295.76C212.18,-289.33 127.74,-275.63 58,-255 55.57,-254.28 53.07,-253.46 50.59,-252.58"/>
<polygon fill="midnightblue" stroke="midnightblue" points="51.78,-249.29 41.19,-249.02 49.3,-255.84 51.78,-249.29"/>
</g>
<!-- Node9&#45;&gt;Node8 -->
<g id="edge14" class="edge">
<title>Node9&#45;&gt;Node8</title>
<path fill="none" stroke="midnightblue" d="M320.75,-294.98C371.41,-286.92 473.61,-270.41 560,-255 571.97,-252.87 584.97,-250.43 596.78,-248.17"/>
<polygon fill="midnightblue" stroke="midnightblue" points="597.64,-251.57 606.8,-246.24 596.32,-244.69 597.64,-251.57"/>
</g>
<!-- Node10 -->
<g id="node10" class="node">
<title>Node10</title>
<g id="a_node10"><a xlink:title=" ">
<polygon fill="white" stroke="#bfbfbf" points="100.5,-224.5 100.5,-254.5 213.5,-254.5 213.5,-224.5 100.5,-224.5"/>
<text text-anchor="start" x="108.5" y="-242.5" font-family="Helvetica,sans-Serif" font-size="10.00">boost/accumulators</text>
<text text-anchor="middle" x="157" y="-231.5" font-family="Helvetica,sans-Serif" font-size="10.00">/accumulators.hpp</text>
</a>
</g>
</g>
<!-- Node9&#45;&gt;Node10 -->
<g id="edge16" class="edge">
<title>Node9&#45;&gt;Node10</title>
<path fill="none" stroke="midnightblue" d="M270.09,-291.48C251.21,-282.96 221.6,-269.62 197.42,-258.72"/>
<polygon fill="midnightblue" stroke="midnightblue" points="198.66,-255.44 188.11,-254.52 195.79,-261.82 198.66,-255.44"/>
</g>
<!-- Node11 -->
<g id="node11" class="node">
<title>Node11</title>
<g id="a_node11"><a xlink:title=" ">
<polygon fill="white" stroke="#bfbfbf" points="231.5,-224.5 231.5,-254.5 344.5,-254.5 344.5,-224.5 231.5,-224.5"/>
<text text-anchor="start" x="239.5" y="-242.5" font-family="Helvetica,sans-Serif" font-size="10.00">boost/accumulators</text>
<text text-anchor="middle" x="288" y="-231.5" font-family="Helvetica,sans-Serif" font-size="10.00">/statistics.hpp</text>
</a>
</g>
</g>
<!-- Node9&#45;&gt;Node11 -->
<g id="edge17" class="edge">
<title>Node9&#45;&gt;Node11</title>
<path fill="none" stroke="midnightblue" d="M288.86,-291.48C288.74,-284.47 288.57,-274.19 288.41,-264.7"/>
<polygon fill="midnightblue" stroke="midnightblue" points="291.9,-264.46 288.24,-254.52 284.9,-264.58 291.9,-264.46"/>
</g>
<!-- Node12&#45;&gt;Node1 -->
<g id="edge25" class="edge">
<title>Node12&#45;&gt;Node1</title>
<path fill="none" stroke="midnightblue" d="M878.37,-310.54C872.02,-324.44 857.6,-351.92 837,-367 814.04,-383.81 784.68,-394.44 758.32,-401.11"/>
<polygon fill="midnightblue" stroke="midnightblue" points="757.3,-397.75 748.38,-403.48 758.92,-404.56 757.3,-397.75"/>
</g>
<!-- Node12&#45;&gt;Node3 -->
<g id="edge22" class="edge">
<title>Node12&#45;&gt;Node3</title>
<path fill="none" stroke="midnightblue" d="M852.29,-293.25C818.12,-284.91 764.91,-269.98 751,-255 727.23,-229.41 731,-213.93 731,-179 731,-179 731,-179 731,-121 731,-86.81 714.4,-49.76 703.14,-28.57"/>
<polygon fill="midnightblue" stroke="midnightblue" points="706.18,-26.83 698.28,-19.77 700.05,-30.22 706.18,-26.83"/>
</g>
<!-- Node12&#45;&gt;Node4 -->
<g id="edge21" class="edge">
<title>Node12&#45;&gt;Node4</title>
<path fill="none" stroke="midnightblue" d="M911.56,-298.83C989.06,-295.4 1196.41,-283.72 1258,-255 1302.74,-234.14 1339,-228.37 1339,-179 1339,-179 1339,-179 1339,-121 1339,-87.16 1324.13,-49.97 1314.06,-28.66"/>
<polygon fill="midnightblue" stroke="midnightblue" points="1317.14,-26.99 1309.59,-19.56 1310.86,-30.08 1317.14,-26.99"/>
</g>
<!-- Node12&#45;&gt;Node8 -->
<g id="edge28" class="edge">
<title>Node12&#45;&gt;Node8</title>
<path fill="none" stroke="midnightblue" d="M852.33,-292.82C807.95,-282.09 724.24,-261.84 674.98,-249.93"/>
<polygon fill="midnightblue" stroke="midnightblue" points="675.56,-246.47 665.01,-247.52 673.91,-253.27 675.56,-246.47"/>
</g>
<!-- Node13 -->
<g id="node13" class="node">
<title>Node13</title>
<g id="a_node13"><a xlink:title=" ">
<polygon fill="white" stroke="#bfbfbf" points="854.5,-230 854.5,-249 909.5,-249 909.5,-230 854.5,-230"/>
<text text-anchor="middle" x="882" y="-237" font-family="Helvetica,sans-Serif" font-size="10.00">fstream</text>
</a>
</g>
</g>
<!-- Node12&#45;&gt;Node13 -->
<g id="edge19" class="edge">
<title>Node12&#45;&gt;Node13</title>
<path fill="none" stroke="midnightblue" d="M882,-291.48C882,-283.08 882,-269.98 882,-259.16"/>
<polygon fill="midnightblue" stroke="midnightblue" points="885.5,-259.01 882,-249.01 878.5,-259.01 885.5,-259.01"/>
</g>
<!-- Node14 -->
<g id="node14" class="node">
<title>Node14</title>
<g id="a_node14"><a xlink:title=" ">
<polygon fill="white" stroke="#bfbfbf" points="927.5,-230 927.5,-249 992.5,-249 992.5,-230 927.5,-230"/>
<text text-anchor="middle" x="960" y="-237" font-family="Helvetica,sans-Serif" font-size="10.00">functional</text>
</a>
</g>
</g>
<!-- Node12&#45;&gt;Node14 -->
<g id="edge20" class="edge">
<title>Node12&#45;&gt;Node14</title>
<path fill="none" stroke="midnightblue" d="M893.18,-291.48C905.57,-282.02 925.79,-266.6 940.75,-255.19"/>
<polygon fill="midnightblue" stroke="midnightblue" points="943.02,-257.86 948.85,-249.01 938.77,-252.29 943.02,-257.86"/>
</g>
<!-- Node15 -->
<g id="node15" class="node">
<title>Node15</title>
<g id="a_node15"><a xlink:title=" ">
<polygon fill="white" stroke="#bfbfbf" points="1011,-230 1011,-249 1065,-249 1065,-230 1011,-230"/>
<text text-anchor="middle" x="1038" y="-237" font-family="Helvetica,sans-Serif" font-size="10.00">random</text>
</a>
</g>
</g>
<!-- Node12&#45;&gt;Node15 -->
<g id="edge23" class="edge">
<title>Node12&#45;&gt;Node15</title>
<path fill="none" stroke="midnightblue" d="M905.52,-291.37C929.76,-282.43 968.61,-267.98 1002,-255 1003.84,-254.29 1005.72,-253.55 1007.63,-252.79"/>
<polygon fill="midnightblue" stroke="midnightblue" points="1009.1,-255.97 1017.09,-249.02 1006.51,-249.47 1009.1,-255.97"/>
</g>
<!-- Node16 -->
<g id="node16" class="node">
<title>Node16</title>
<g id="a_node16"><a xlink:title=" ">
<polygon fill="white" stroke="#bfbfbf" points="1083.5,-230 1083.5,-249 1128.5,-249 1128.5,-230 1083.5,-230"/>
<text text-anchor="middle" x="1106" y="-237" font-family="Helvetica,sans-Serif" font-size="10.00">utility</text>
</a>
</g>
</g>
<!-- Node12&#45;&gt;Node16 -->
<g id="edge24" class="edge">
<title>Node12&#45;&gt;Node16</title>
<path fill="none" stroke="midnightblue" d="M911.78,-294.89C949.96,-287.92 1017.93,-274.07 1074,-255 1075.67,-254.43 1077.37,-253.81 1079.07,-253.15"/>
<polygon fill="midnightblue" stroke="midnightblue" points="1080.79,-256.22 1088.64,-249.11 1078.07,-249.77 1080.79,-256.22"/>
</g>
<!-- Node17 -->
<g id="node17" class="node">
<title>Node17</title>
<g id="a_node17"><a xlink:href="../../d4/d2e/Stopwatch_8h.html" target="_top" xlink:title="This file contains the Stopwatch class which is a utility for measuring time durations in various uni...">
<polygon fill="white" stroke="black" points="759.5,-230 759.5,-249 836.5,-249 836.5,-230 759.5,-230"/>
<text text-anchor="middle" x="798" y="-237" font-family="Helvetica,sans-Serif" font-size="10.00">Stopwatch.h</text>
</a>
</g>
</g>
<!-- Node12&#45;&gt;Node17 -->
<g id="edge26" class="edge">
<title>Node12&#45;&gt;Node17</title>
<path fill="none" stroke="midnightblue" d="M869.96,-291.48C856.49,-281.93 834.43,-266.31 818.28,-254.87"/>
<polygon fill="midnightblue" stroke="midnightblue" points="820.2,-251.93 810.01,-249.01 816.15,-257.65 820.2,-251.93"/>
</g>
<!-- Node19 -->
<g id="node19" class="node">
<title>Node19</title>
<g id="a_node19"><a xlink:href="../../dc/d09/Stats_8h.html" target="_top" xlink:title="This file contains the declaration of statistical functions and structures for vectors and matrices.">
<polygon fill="white" stroke="black" points="1147,-230 1147,-249 1249,-249 1249,-230 1147,-230"/>
<text text-anchor="middle" x="1198" y="-237" font-family="Helvetica,sans-Serif" font-size="10.00">math/blas/Stats.h</text>
</a>
</g>
</g>
<!-- Node12&#45;&gt;Node19 -->
<g id="edge29" class="edge">
<title>Node12&#45;&gt;Node19</title>
<path fill="none" stroke="midnightblue" d="M911.68,-295.41C959.5,-287.87 1056.5,-271.99 1138,-255 1143.38,-253.88 1149.01,-252.63 1154.57,-251.34"/>
<polygon fill="midnightblue" stroke="midnightblue" points="1155.52,-254.71 1164.45,-249 1153.91,-247.9 1155.52,-254.71"/>
</g>
<!-- Node18 -->
<g id="node18" class="node">
<title>Node18</title>
<g id="a_node18"><a xlink:title=" ">
<polygon fill="white" stroke="#bfbfbf" points="766,-168.5 766,-187.5 816,-187.5 816,-168.5 766,-168.5"/>
<text text-anchor="middle" x="791" y="-175.5" font-family="Helvetica,sans-Serif" font-size="10.00">chrono</text>
</a>
</g>
</g>
<!-- Node17&#45;&gt;Node18 -->
<g id="edge27" class="edge">
<title>Node17&#45;&gt;Node18</title>
<path fill="none" stroke="midnightblue" d="M797,-229.98C796.01,-221.58 794.47,-208.48 793.2,-197.66"/>
<polygon fill="midnightblue" stroke="midnightblue" points="796.65,-197.03 792,-187.51 789.69,-197.85 796.65,-197.03"/>
</g>
<!-- Node20 -->
<g id="node20" class="node">
<title>Node20</title>
<g id="a_node20"><a xlink:title=" ">
<polygon fill="white" stroke="#bfbfbf" points="759,-56.5 759,-75.5 823,-75.5 823,-56.5 759,-56.5"/>
<text text-anchor="middle" x="791" y="-63.5" font-family="Helvetica,sans-Serif" font-size="10.00">algorithm</text>
</a>
</g>
</g>
<!-- Node19&#45;&gt;Node20 -->
<g id="edge30" class="edge">
<title>Node19&#45;&gt;Node20</title>
<path fill="none" stroke="midnightblue" d="M1163.46,-229.96C1155.13,-227.96 1146.26,-225.86 1138,-224 1061.81,-206.82 1039.31,-214.94 966,-188 917.09,-170.03 905.52,-162.11 863,-132 842.09,-117.19 820.6,-97.03 806.61,-83.1"/>
<polygon fill="midnightblue" stroke="midnightblue" points="808.82,-80.36 799.3,-75.71 803.85,-85.28 808.82,-80.36"/>
</g>
<!-- Node21 -->
<g id="node21" class="node">
<title>Node21</title>
<g id="a_node21"><a xlink:title=" ">
<polygon fill="white" stroke="#bfbfbf" points="1198.5,-112.5 1198.5,-131.5 1245.5,-131.5 1245.5,-112.5 1198.5,-112.5"/>
<text text-anchor="middle" x="1222" y="-119.5" font-family="Helvetica,sans-Serif" font-size="10.00">cmath</text>
</a>
</g>
</g>
<!-- Node19&#45;&gt;Node21 -->
<g id="edge31" class="edge">
<title>Node19&#45;&gt;Node21</title>
<path fill="none" stroke="midnightblue" d="M1209.66,-229.99C1220.89,-221 1237.15,-205.7 1244,-188 1250.16,-172.09 1242.54,-153.63 1234.63,-140.46"/>
<polygon fill="midnightblue" stroke="midnightblue" points="1237.43,-138.35 1229.01,-131.92 1231.58,-142.2 1237.43,-138.35"/>
</g>
<!-- Node22 -->
<g id="node22" class="node">
<title>Node22</title>
<g id="a_node22"><a xlink:title=" ">
<polygon fill="white" stroke="#bfbfbf" points="1103,-168.5 1103,-187.5 1159,-187.5 1159,-168.5 1103,-168.5"/>
<text text-anchor="middle" x="1131" y="-175.5" font-family="Helvetica,sans-Serif" font-size="10.00">numeric</text>
</a>
</g>
</g>
<!-- Node19&#45;&gt;Node22 -->
<g id="edge32" class="edge">
<title>Node19&#45;&gt;Node22</title>
<path fill="none" stroke="midnightblue" d="M1188.4,-229.98C1177.95,-220.7 1161.03,-205.67 1148.26,-194.33"/>
<polygon fill="midnightblue" stroke="midnightblue" points="1150.38,-191.53 1140.58,-187.51 1145.73,-196.77 1150.38,-191.53"/>
</g>
<!-- Node23 -->
<g id="node23" class="node">
<title>Node23</title>
<g id="a_node23"><a xlink:title=" ">
<polygon fill="white" stroke="#bfbfbf" points="1177.5,-168.5 1177.5,-187.5 1234.5,-187.5 1234.5,-168.5 1177.5,-168.5"/>
<text text-anchor="middle" x="1206" y="-175.5" font-family="Helvetica,sans-Serif" font-size="10.00">ostream</text>
</a>
</g>
</g>
<!-- Node19&#45;&gt;Node23 -->
<g id="edge33" class="edge">
<title>Node19&#45;&gt;Node23</title>
<path fill="none" stroke="midnightblue" d="M1199.15,-229.98C1200.27,-221.58 1202.04,-208.48 1203.49,-197.66"/>
<polygon fill="midnightblue" stroke="midnightblue" points="1206.99,-197.89 1204.86,-187.51 1200.05,-196.95 1206.99,-197.89"/>
</g>
<!-- Node24 -->
<g id="node24" class="node">
<title>Node24</title>
<g id="a_node24"><a xlink:title=" ">
<polygon fill="white" stroke="#bfbfbf" points="1178.5,-0.5 1178.5,-19.5 1225.5,-19.5 1225.5,-0.5 1178.5,-0.5"/>
<text text-anchor="middle" x="1202" y="-7.5" font-family="Helvetica,sans-Serif" font-size="10.00">vector</text>
</a>
</g>
</g>
<!-- Node19&#45;&gt;Node24 -->
<g id="edge34" class="edge">
<title>Node19&#45;&gt;Node24</title>
<path fill="none" stroke="midnightblue" d="M1213.33,-229.99C1227.46,-221.31 1247.89,-206.5 1259,-188 1285.17,-144.44 1276.86,-126.56 1282,-76 1282.9,-67.16 1286.49,-63.67 1282,-56 1271.91,-38.75 1252.51,-27.6 1235.35,-20.72"/>
<polygon fill="midnightblue" stroke="midnightblue" points="1236.18,-17.3 1225.58,-17.14 1233.77,-23.87 1236.18,-17.3"/>
</g>
<!-- Node25 -->
<g id="node25" class="node">
<title>Node25</title>
<g id="a_node25"><a xlink:href="../../d1/d80/BLAS_8h.html" target="_top" xlink:title=" ">
<polygon fill="white" stroke="black" points="1033.5,-168.5 1033.5,-187.5 1084.5,-187.5 1084.5,-168.5 1033.5,-168.5"/>
<text text-anchor="middle" x="1059" y="-175.5" font-family="Helvetica,sans-Serif" font-size="10.00">BLAS.h</text>
</a>
</g>
</g>
<!-- Node19&#45;&gt;Node25 -->
<g id="edge35" class="edge">
<title>Node19&#45;&gt;Node25</title>
<path fill="none" stroke="midnightblue" d="M1178.08,-229.98C1154.55,-219.9 1115.19,-203.05 1088.21,-191.5"/>
<polygon fill="midnightblue" stroke="midnightblue" points="1089.45,-188.23 1078.88,-187.51 1086.69,-194.66 1089.45,-188.23"/>
</g>
<!-- Node26 -->
<g id="node26" class="node">
<title>Node26</title>
<g id="a_node26"><a xlink:href="../../d3/db1/Matrix_8h.html" target="_top" xlink:title="This file contains my BLAS::Matrix declarations.">
<polygon fill="white" stroke="black" points="872,-112.5 872,-131.5 1016,-131.5 1016,-112.5 872,-112.5"/>
<text text-anchor="middle" x="944" y="-119.5" font-family="Helvetica,sans-Serif" font-size="10.00">math/blas/matrix/Matrix.h</text>
</a>
</g>
</g>
<!-- Node19&#45;&gt;Node26 -->
<g id="edge48" class="edge">
<title>Node19&#45;&gt;Node26</title>
<path fill="none" stroke="midnightblue" d="M1162.6,-229.95C1103.71,-215.7 991.9,-188.61 991,-188 973.54,-176.26 960.31,-155.73 952.41,-140.88"/>
<polygon fill="midnightblue" stroke="midnightblue" points="955.41,-139.05 947.8,-131.68 949.15,-142.19 955.41,-139.05"/>
</g>
<!-- Node28 -->
<g id="node28" class="node">
<title>Node28</title>
<g id="a_node28"><a xlink:href="../../d6/dbe/Vector_8h.html" target="_top" xlink:title="This file contains my BLAS::Vector implementation.">
<polygon fill="white" stroke="black" points="1131.5,-56.5 1131.5,-75.5 1272.5,-75.5 1272.5,-56.5 1131.5,-56.5"/>
<text text-anchor="middle" x="1202" y="-63.5" font-family="Helvetica,sans-Serif" font-size="10.00">math/blas/vector/Vector.h</text>
</a>
</g>
</g>
<!-- Node19&#45;&gt;Node28 -->
<g id="edge49" class="edge">
<title>Node19&#45;&gt;Node28</title>
<path fill="none" stroke="midnightblue" d="M1164.87,-229.92C1115.85,-217.07 1029.29,-193.73 1025,-188 984.54,-134.04 1090.03,-95.85 1155.13,-78.13"/>
<polygon fill="midnightblue" stroke="midnightblue" points="1156.04,-81.51 1164.81,-75.57 1154.25,-74.75 1156.04,-81.51"/>
</g>
<!-- Node25&#45;&gt;Node21 -->
<g id="edge36" class="edge">
<title>Node25&#45;&gt;Node21</title>
<path fill="none" stroke="midnightblue" d="M1084.83,-168.44C1112.89,-159.15 1157.83,-144.26 1188.57,-134.07"/>
<polygon fill="midnightblue" stroke="midnightblue" points="1190.02,-137.28 1198.41,-130.82 1187.82,-130.64 1190.02,-137.28"/>
</g>
<!-- Node25&#45;&gt;Node26 -->
<g id="edge37" class="edge">
<title>Node25&#45;&gt;Node26</title>
<path fill="none" stroke="midnightblue" d="M1040.78,-168.44C1022.1,-159.68 992.84,-145.94 971.38,-135.86"/>
<polygon fill="midnightblue" stroke="midnightblue" points="972.68,-132.6 962.14,-131.52 969.7,-138.93 972.68,-132.6"/>
</g>
<!-- Node25&#45;&gt;Node28 -->
<g id="edge47" class="edge">
<title>Node25&#45;&gt;Node28</title>
<path fill="none" stroke="midnightblue" d="M1070.22,-168.37C1094.55,-149.65 1152.4,-105.15 1182.72,-81.83"/>
<polygon fill="midnightblue" stroke="midnightblue" points="1185.04,-84.46 1190.83,-75.59 1180.77,-78.91 1185.04,-84.46"/>
</g>
<!-- Node26&#45;&gt;Node3 -->
<g id="edge40" class="edge">
<title>Node26&#45;&gt;Node3</title>
<path fill="none" stroke="midnightblue" d="M930.2,-112.49C904.86,-96.96 851.71,-64.79 832,-56 799.71,-41.6 761.38,-29.54 733.15,-21.54"/>
<polygon fill="midnightblue" stroke="midnightblue" points="733.81,-18.09 723.24,-18.78 731.94,-24.84 733.81,-18.09"/>
</g>
<!-- Node26&#45;&gt;Node20 -->
<g id="edge38" class="edge">
<title>Node26&#45;&gt;Node20</title>
<path fill="none" stroke="midnightblue" d="M919.76,-112.44C894.13,-103.4 853.51,-89.06 824.76,-78.92"/>
<polygon fill="midnightblue" stroke="midnightblue" points="825.72,-75.54 815.13,-75.52 823.39,-82.15 825.72,-75.54"/>
</g>
<!-- Node26&#45;&gt;Node24 -->
<g id="edge41" class="edge">
<title>Node26&#45;&gt;Node24</title>
<path fill="none" stroke="midnightblue" d="M976.62,-112.44C1005.41,-104.44 1048.25,-91.42 1084,-76 1102.43,-68.05 1149.17,-41.55 1177.99,-24.94"/>
<polygon fill="midnightblue" stroke="midnightblue" points="1180.1,-27.77 1187.01,-19.73 1176.6,-21.71 1180.1,-27.77"/>
</g>
<!-- Node27 -->
<g id="node27" class="node">
<title>Node27</title>
<g id="a_node27"><a xlink:title=" ">
<polygon fill="white" stroke="#bfbfbf" points="879,-56.5 879,-75.5 931,-75.5 931,-56.5 879,-56.5"/>
<text text-anchor="middle" x="905" y="-63.5" font-family="Helvetica,sans-Serif" font-size="10.00">cassert</text>
</a>
</g>
</g>
<!-- Node26&#45;&gt;Node27 -->
<g id="edge39" class="edge">
<title>Node26&#45;&gt;Node27</title>
<path fill="none" stroke="midnightblue" d="M937.56,-112.08C932.05,-104.46 923.97,-93.26 917.24,-83.94"/>
<polygon fill="midnightblue" stroke="midnightblue" points="920.01,-81.81 911.32,-75.75 914.34,-85.91 920.01,-81.81"/>
</g>
<!-- Node26&#45;&gt;Node28 -->
<g id="edge42" class="edge">
<title>Node26&#45;&gt;Node28</title>
<path fill="none" stroke="midnightblue" d="M984.88,-112.44C1029.98,-103 1102.61,-87.8 1151.3,-77.61"/>
<polygon fill="midnightblue" stroke="midnightblue" points="1152.24,-80.99 1161.31,-75.52 1150.81,-74.14 1152.24,-80.99"/>
</g>
<!-- Node29 -->
<g id="node29" class="node">
<title>Node29</title>
<g id="a_node29"><a xlink:href="../../d1/d45/Constants_8h.html" target="_top" xlink:title="MyBLAS Constants definition.">
<polygon fill="white" stroke="black" points="949,-56.5 949,-75.5 1075,-75.5 1075,-56.5 949,-56.5"/>
<text text-anchor="middle" x="1012" y="-63.5" font-family="Helvetica,sans-Serif" font-size="10.00">math/blas/Constants.h</text>
</a>
</g>
</g>
<!-- Node26&#45;&gt;Node29 -->
<g id="edge46" class="edge">
<title>Node26&#45;&gt;Node29</title>
<path fill="none" stroke="midnightblue" d="M954.93,-112.32C965.17,-104.18 980.72,-91.84 993,-82.09"/>
<polygon fill="midnightblue" stroke="midnightblue" points="995.22,-84.79 1000.88,-75.83 990.87,-79.31 995.22,-84.79"/>
</g>
<!-- Node28&#45;&gt;Node3 -->
<g id="edge44" class="edge">
<title>Node28&#45;&gt;Node3</title>
<path fill="none" stroke="midnightblue" d="M1131.49,-57.52C1023.28,-46.04 819.73,-24.45 733.38,-15.28"/>
<polygon fill="midnightblue" stroke="midnightblue" points="733.51,-11.78 723.2,-14.2 732.77,-18.74 733.51,-11.78"/>
</g>
<!-- Node28&#45;&gt;Node4 -->
<g id="edge43" class="edge">
<title>Node28&#45;&gt;Node4</title>
<path fill="none" stroke="midnightblue" d="M1218.55,-56.32C1234.99,-47.7 1260.43,-34.36 1279.47,-24.39"/>
<polygon fill="midnightblue" stroke="midnightblue" points="1281.26,-27.4 1288.49,-19.65 1278.01,-21.2 1281.26,-27.4"/>
</g>
<!-- Node28&#45;&gt;Node24 -->
<g id="edge45" class="edge">
<title>Node28&#45;&gt;Node24</title>
<path fill="none" stroke="midnightblue" d="M1202,-56.08C1202,-49.01 1202,-38.86 1202,-29.99"/>
<polygon fill="midnightblue" stroke="midnightblue" points="1205.5,-29.75 1202,-19.75 1198.5,-29.75 1205.5,-29.75"/>
</g>
</g>
</svg>
