<?xml version="1.0" encoding="UTF-8" standalone="no"?>
<!DOCTYPE svg PUBLIC "-//W3C//DTD SVG 1.1//EN"
 "http://www.w3.org/Graphics/SVG/1.1/DTD/svg11.dtd">
<!-- Generated by graphviz version 2.43.0 (0)
 -->
<!-- Title: src/utils/CheckBounds.h Pages: 1 -->
<svg width="1833pt" height="554pt"
 viewBox="0.00 0.00 1833.00 554.00" xmlns="http://www.w3.org/2000/svg" xmlns:xlink="http://www.w3.org/1999/xlink">
<g id="graph0" class="graph" transform="scale(1 1) rotate(0) translate(4 550)">
<title>src/utils/CheckBounds.h</title>
<polygon fill="white" stroke="transparent" points="-4,4 -4,-550 1829,-550 1829,4 -4,4"/>
<!-- Node1 -->
<g id="node1" class="node">
<title>Node1</title>
<g id="a_node1"><a xlink:title="This file contains the declaration of functions for checking the validity of input parameters.">
<polygon fill="#bfbfbf" stroke="black" points="702.5,-526.5 702.5,-545.5 835.5,-545.5 835.5,-526.5 702.5,-526.5"/>
<text text-anchor="middle" x="769" y="-533.5" font-family="Helvetica,sans-Serif" font-size="10.00">src/utils/CheckBounds.h</text>
</a>
</g>
</g>
<!-- Node2 -->
<g id="node2" class="node">
<title>Node2</title>
<g id="a_node2"><a xlink:title=" ">
<polygon fill="white" stroke="#bfbfbf" points="677,-353 677,-372 827,-372 827,-353 677,-353"/>
<text text-anchor="middle" x="752" y="-360" font-family="Helvetica,sans-Serif" font-size="10.00">boost/program_options.hpp</text>
</a>
</g>
</g>
<!-- Node1&#45;&gt;Node2 -->
<g id="edge1" class="edge">
<title>Node1&#45;&gt;Node2</title>
<path fill="none" stroke="midnightblue" d="M744.56,-526.46C710.13,-512.94 648.69,-483 623,-434 606.42,-402.36 646.52,-384.25 686.29,-374.32"/>
<polygon fill="midnightblue" stroke="midnightblue" points="687.15,-377.72 696.09,-372.03 685.56,-370.9 687.15,-377.72"/>
</g>
<!-- Node3 -->
<g id="node3" class="node">
<title>Node3</title>
<g id="a_node3"><a xlink:title=" ">
<polygon fill="white" stroke="#bfbfbf" points="1244,-123.5 1244,-142.5 1304,-142.5 1304,-123.5 1244,-123.5"/>
<text text-anchor="middle" x="1274" y="-130.5" font-family="Helvetica,sans-Serif" font-size="10.00">iostream</text>
</a>
</g>
</g>
<!-- Node1&#45;&gt;Node3 -->
<g id="edge2" class="edge">
<title>Node1&#45;&gt;Node3</title>
<path fill="none" stroke="midnightblue" d="M835.55,-528.34C978.98,-512.39 1309.24,-466.6 1370,-378 1397.03,-338.58 1315.12,-199.64 1284.8,-150.99"/>
<polygon fill="midnightblue" stroke="midnightblue" points="1287.76,-149.12 1279.48,-142.51 1281.84,-152.84 1287.76,-149.12"/>
</g>
<!-- Node4 -->
<g id="node4" class="node">
<title>Node4</title>
<g id="a_node4"><a xlink:title=" ">
<polygon fill="white" stroke="#bfbfbf" points="284,-123.5 284,-142.5 340,-142.5 340,-123.5 284,-123.5"/>
<text text-anchor="middle" x="312" y="-130.5" font-family="Helvetica,sans-Serif" font-size="10.00">iomanip</text>
</a>
</g>
</g>
<!-- Node1&#45;&gt;Node4 -->
<g id="edge3" class="edge">
<title>Node1&#45;&gt;Node4</title>
<path fill="none" stroke="midnightblue" d="M702.44,-532.44C515.62,-524.36 0,-495.68 0,-425 0,-425 0,-425 0,-244 0,-195.02 44.18,-198.75 89,-179 150.2,-152.04 227.99,-141.06 273.66,-136.71"/>
<polygon fill="midnightblue" stroke="midnightblue" points="274.07,-140.19 283.72,-135.81 273.45,-133.22 274.07,-140.19"/>
</g>
<!-- Node5 -->
<g id="node5" class="node">
<title>Node5</title>
<g id="a_node5"><a xlink:title=" ">
<polygon fill="white" stroke="#bfbfbf" points="224,-291.5 224,-310.5 268,-310.5 268,-291.5 224,-291.5"/>
<text text-anchor="middle" x="246" y="-298.5" font-family="Helvetica,sans-Serif" font-size="10.00">limits</text>
</a>
</g>
</g>
<!-- Node1&#45;&gt;Node5 -->
<g id="edge4" class="edge">
<title>Node1&#45;&gt;Node5</title>
<path fill="none" stroke="midnightblue" d="M702.46,-529.87C547.39,-516.39 169.43,-474.13 95,-378 60.97,-334.05 159.92,-313.54 213.73,-305.83"/>
<polygon fill="midnightblue" stroke="midnightblue" points="214.4,-309.28 223.83,-304.46 213.45,-302.34 214.4,-309.28"/>
</g>
<!-- Node6 -->
<g id="node6" class="node">
<title>Node6</title>
<g id="a_node6"><a xlink:href="../../d9/d41/CommandLine_8h.html" target="_top" xlink:title="This file contains the definition of the CommandLine class and the HeaderInfo struct.">
<polygon fill="white" stroke="black" points="721,-470.5 721,-489.5 817,-489.5 817,-470.5 721,-470.5"/>
<text text-anchor="middle" x="769" y="-477.5" font-family="Helvetica,sans-Serif" font-size="10.00">CommandLine.h</text>
</a>
</g>
</g>
<!-- Node1&#45;&gt;Node6 -->
<g id="edge5" class="edge">
<title>Node1&#45;&gt;Node6</title>
<path fill="none" stroke="midnightblue" d="M769,-526.08C769,-519.01 769,-508.86 769,-499.99"/>
<polygon fill="midnightblue" stroke="midnightblue" points="772.5,-499.75 769,-489.75 765.5,-499.75 772.5,-499.75"/>
</g>
<!-- Node7 -->
<g id="node7" class="node">
<title>Node7</title>
<g id="a_node7"><a xlink:href="../../db/df1/Helpers_8h.html" target="_top" xlink:title="This file contains helper functions and structures used throughout the program.">
<polygon fill="white" stroke="black" points="472.5,-414.5 472.5,-433.5 535.5,-433.5 535.5,-414.5 472.5,-414.5"/>
<text text-anchor="middle" x="504" y="-421.5" font-family="Helvetica,sans-Serif" font-size="10.00">Helpers.h</text>
</a>
</g>
</g>
<!-- Node1&#45;&gt;Node7 -->
<g id="edge73" class="edge">
<title>Node1&#45;&gt;Node7</title>
<path fill="none" stroke="midnightblue" d="M702.18,-533.42C656.71,-529.55 596.87,-518.74 552,-490 534.15,-478.57 520.64,-457.98 512.58,-443.03"/>
<polygon fill="midnightblue" stroke="midnightblue" points="515.52,-441.1 507.88,-433.77 509.28,-444.27 515.52,-441.1"/>
</g>
<!-- Node10 -->
<g id="node10" class="node">
<title>Node10</title>
<g id="a_node10"><a xlink:title=" ">
<polygon fill="white" stroke="#bfbfbf" points="883,-353 883,-372 941,-372 941,-353 883,-353"/>
<text text-anchor="middle" x="912" y="-360" font-family="Helvetica,sans-Serif" font-size="10.00">json.hpp</text>
</a>
</g>
</g>
<!-- Node1&#45;&gt;Node10 -->
<g id="edge74" class="edge">
<title>Node1&#45;&gt;Node10</title>
<path fill="none" stroke="midnightblue" d="M820.91,-526.42C871.61,-514.98 946.07,-489.33 981,-434 995.35,-411.27 966.17,-389.91 941.44,-376.79"/>
<polygon fill="midnightblue" stroke="midnightblue" points="942.79,-373.55 932.28,-372.17 939.64,-379.8 942.79,-373.55"/>
</g>
<!-- Node6&#45;&gt;Node2 -->
<g id="edge69" class="edge">
<title>Node6&#45;&gt;Node2</title>
<path fill="none" stroke="midnightblue" d="M767.72,-470.32C764.99,-451.76 758.53,-407.84 754.79,-382.47"/>
<polygon fill="midnightblue" stroke="midnightblue" points="758.21,-381.67 753.29,-372.28 751.29,-382.69 758.21,-381.67"/>
</g>
<!-- Node6&#45;&gt;Node3 -->
<g id="edge70" class="edge">
<title>Node6&#45;&gt;Node3</title>
<path fill="none" stroke="midnightblue" d="M774.14,-470.48C781.75,-457.95 796.56,-433.9 810,-414 821.05,-397.65 827.68,-395.9 836,-378 850.68,-346.43 855,-336.82 855,-302 855,-302 855,-302 855,-244 855,-166.2 1128.67,-142.31 1233.66,-136"/>
<polygon fill="midnightblue" stroke="midnightblue" points="1234.08,-139.48 1243.87,-135.41 1233.68,-132.49 1234.08,-139.48"/>
</g>
<!-- Node6&#45;&gt;Node7 -->
<g id="edge6" class="edge">
<title>Node6&#45;&gt;Node7</title>
<path fill="none" stroke="midnightblue" d="M727.01,-470.44C677.41,-460.34 595.41,-443.63 545.87,-433.53"/>
<polygon fill="midnightblue" stroke="midnightblue" points="546.31,-430.05 535.81,-431.48 544.91,-436.91 546.31,-430.05"/>
</g>
<!-- Node9 -->
<g id="node9" class="node">
<title>Node9</title>
<g id="a_node9"><a xlink:title=" ">
<polygon fill="white" stroke="#bfbfbf" points="615,-353 615,-372 659,-372 659,-353 615,-353"/>
<text text-anchor="middle" x="637" y="-360" font-family="Helvetica,sans-Serif" font-size="10.00">string</text>
</a>
</g>
</g>
<!-- Node6&#45;&gt;Node9 -->
<g id="edge71" class="edge">
<title>Node6&#45;&gt;Node9</title>
<path fill="none" stroke="midnightblue" d="M720.88,-478.17C687.54,-474.76 645.29,-464.2 623,-434 611.69,-418.68 618.84,-396.58 626.45,-381.22"/>
<polygon fill="midnightblue" stroke="midnightblue" points="629.64,-382.7 631.34,-372.24 623.49,-379.35 629.64,-382.7"/>
</g>
<!-- Node16 -->
<g id="node16" class="node">
<title>Node16</title>
<g id="a_node16"><a xlink:title=" ">
<polygon fill="white" stroke="#bfbfbf" points="632,-414.5 632,-433.5 724,-433.5 724,-414.5 632,-414.5"/>
<text text-anchor="middle" x="678" y="-421.5" font-family="Helvetica,sans-Serif" font-size="10.00">project&#45;config.h</text>
</a>
</g>
</g>
<!-- Node6&#45;&gt;Node16 -->
<g id="edge20" class="edge">
<title>Node6&#45;&gt;Node16</title>
<path fill="none" stroke="midnightblue" d="M754.38,-470.32C740.05,-461.82 717.99,-448.73 701.25,-438.8"/>
<polygon fill="midnightblue" stroke="midnightblue" points="702.97,-435.75 692.58,-433.65 699.4,-441.77 702.97,-435.75"/>
</g>
<!-- Node17 -->
<g id="node17" class="node">
<title>Node17</title>
<g id="a_node17"><a xlink:href="../../df/d69/Profiler_8h.html" target="_top" xlink:title="This file contains the Profiler class which is used to profile the execution time of a function.">
<polygon fill="white" stroke="black" points="1066.5,-414.5 1066.5,-433.5 1187.5,-433.5 1187.5,-414.5 1066.5,-414.5"/>
<text text-anchor="middle" x="1127" y="-421.5" font-family="Helvetica,sans-Serif" font-size="10.00">utils/profiler/Profiler.h</text>
</a>
</g>
</g>
<!-- Node6&#45;&gt;Node17 -->
<g id="edge21" class="edge">
<title>Node6&#45;&gt;Node17</title>
<path fill="none" stroke="midnightblue" d="M817.28,-471.72C879.95,-462.26 989.62,-445.72 1060.23,-435.07"/>
<polygon fill="midnightblue" stroke="midnightblue" points="1060.99,-438.5 1070.36,-433.54 1059.95,-431.57 1060.99,-438.5"/>
</g>
<!-- Node21 -->
<g id="node21" class="node">
<title>Node21</title>
<g id="a_node21"><a xlink:title=" ">
<polygon fill="white" stroke="#bfbfbf" points="959.5,-353 959.5,-372 1004.5,-372 1004.5,-353 959.5,-353"/>
<text text-anchor="middle" x="982" y="-360" font-family="Helvetica,sans-Serif" font-size="10.00">utility</text>
</a>
</g>
</g>
<!-- Node6&#45;&gt;Node21 -->
<g id="edge72" class="edge">
<title>Node6&#45;&gt;Node21</title>
<path fill="none" stroke="midnightblue" d="M817.33,-475.59C873.36,-470.51 960.63,-458.78 981,-434 992.76,-419.69 990.97,-397.68 987.54,-382.06"/>
<polygon fill="midnightblue" stroke="midnightblue" points="990.83,-380.81 984.92,-372.02 984.06,-382.58 990.83,-380.81"/>
</g>
<!-- Node39 -->
<g id="node39" class="node">
<title>Node39</title>
<g id="a_node39"><a xlink:href="../../de/df7/ProfilerHelper_8h.html" target="_top" xlink:title="This file contains helper functions for handling command line options and initializing the profiler.">
<polygon fill="white" stroke="black" points="818.5,-414.5 818.5,-433.5 971.5,-433.5 971.5,-414.5 818.5,-414.5"/>
<text text-anchor="middle" x="895" y="-421.5" font-family="Helvetica,sans-Serif" font-size="10.00">utils/profiler/ProfilerHelper.h</text>
</a>
</g>
</g>
<!-- Node6&#45;&gt;Node39 -->
<g id="edge65" class="edge">
<title>Node6&#45;&gt;Node39</title>
<path fill="none" stroke="midnightblue" d="M788.97,-470.44C809.61,-461.6 842.06,-447.69 865.63,-437.59"/>
<polygon fill="midnightblue" stroke="midnightblue" points="867.32,-440.67 875.13,-433.52 864.56,-434.24 867.32,-440.67"/>
</g>
<!-- Node7&#45;&gt;Node2 -->
<g id="edge17" class="edge">
<title>Node7&#45;&gt;Node2</title>
<path fill="none" stroke="midnightblue" d="M535.66,-415.4C579.03,-405 657.16,-386.25 706.71,-374.37"/>
<polygon fill="midnightblue" stroke="midnightblue" points="707.62,-377.75 716.53,-372.01 705.99,-370.94 707.62,-377.75"/>
</g>
<!-- Node7&#45;&gt;Node3 -->
<g id="edge8" class="edge">
<title>Node7&#45;&gt;Node3</title>
<path fill="none" stroke="midnightblue" d="M516.69,-414.22C529.51,-405.29 549.83,-390.95 567,-378 687.19,-287.4 700.25,-232.32 841,-179 912.37,-151.96 1140.63,-139.58 1233.81,-135.55"/>
<polygon fill="midnightblue" stroke="midnightblue" points="1234.12,-139.04 1243.97,-135.13 1233.83,-132.05 1234.12,-139.04"/>
</g>
<!-- Node7&#45;&gt;Node4 -->
<g id="edge7" class="edge">
<title>Node7&#45;&gt;Node4</title>
<path fill="none" stroke="midnightblue" d="M472.19,-421.57C380.99,-417.18 123.29,-402.69 95,-378 68.77,-355.1 76,-336.82 76,-302 76,-302 76,-302 76,-244 76,-157.97 206.43,-139.06 273.37,-135.02"/>
<polygon fill="midnightblue" stroke="midnightblue" points="273.73,-138.5 283.53,-134.49 273.36,-131.51 273.73,-138.5"/>
</g>
<!-- Node7&#45;&gt;Node5 -->
<g id="edge9" class="edge">
<title>Node7&#45;&gt;Node5</title>
<path fill="none" stroke="midnightblue" d="M472.19,-421.18C414.18,-417.22 294.49,-405.81 265,-378 249.41,-363.31 245.81,-337.93 245.35,-320.57"/>
<polygon fill="midnightblue" stroke="midnightblue" points="248.85,-320.54 245.41,-310.52 241.85,-320.5 248.85,-320.54"/>
</g>
<!-- Node8 -->
<g id="node8" class="node">
<title>Node8</title>
<g id="a_node8"><a xlink:title=" ">
<polygon fill="white" stroke="#bfbfbf" points="274,-353 274,-372 330,-372 330,-353 274,-353"/>
<text text-anchor="middle" x="302" y="-360" font-family="Helvetica,sans-Serif" font-size="10.00">sstream</text>
</a>
</g>
</g>
<!-- Node7&#45;&gt;Node8 -->
<g id="edge10" class="edge">
<title>Node7&#45;&gt;Node8</title>
<path fill="none" stroke="midnightblue" d="M472.38,-415.45C438.94,-407.21 384.8,-393.17 339,-378 336.73,-377.25 334.41,-376.44 332.07,-375.59"/>
<polygon fill="midnightblue" stroke="midnightblue" points="333.19,-372.28 322.6,-372.02 330.72,-378.83 333.19,-372.28"/>
</g>
<!-- Node7&#45;&gt;Node9 -->
<g id="edge11" class="edge">
<title>Node7&#45;&gt;Node9</title>
<path fill="none" stroke="midnightblue" d="M523.06,-414.48C545.47,-404.45 582.91,-387.7 608.71,-376.15"/>
<polygon fill="midnightblue" stroke="midnightblue" points="610.28,-379.29 617.98,-372.01 607.42,-372.9 610.28,-379.29"/>
</g>
<!-- Node7&#45;&gt;Node10 -->
<g id="edge12" class="edge">
<title>Node7&#45;&gt;Node10</title>
<path fill="none" stroke="midnightblue" d="M535.67,-419.28C594.82,-412.21 726.06,-395.92 836,-378 848,-376.04 861.01,-373.66 872.82,-371.39"/>
<polygon fill="midnightblue" stroke="midnightblue" points="873.68,-374.79 882.83,-369.45 872.35,-367.92 873.68,-374.79"/>
</g>
<!-- Node11 -->
<g id="node11" class="node">
<title>Node11</title>
<g id="a_node11"><a xlink:href="../../db/d8a/Math_8h.html" target="_top" xlink:title="This file contains the declaration of various mathematical functions.">
<polygon fill="white" stroke="black" points="348.5,-353 348.5,-372 427.5,-372 427.5,-353 348.5,-353"/>
<text text-anchor="middle" x="388" y="-360" font-family="Helvetica,sans-Serif" font-size="10.00">math/Math.h</text>
</a>
</g>
</g>
<!-- Node7&#45;&gt;Node11 -->
<g id="edge13" class="edge">
<title>Node7&#45;&gt;Node11</title>
<path fill="none" stroke="midnightblue" d="M487.38,-414.48C468.08,-404.58 436.04,-388.14 413.57,-376.62"/>
<polygon fill="midnightblue" stroke="midnightblue" points="415.08,-373.46 404.59,-372.01 411.89,-379.69 415.08,-373.46"/>
</g>
<!-- Node14 -->
<g id="node14" class="node">
<title>Node14</title>
<g id="a_node14"><a xlink:title=" ">
<polygon fill="white" stroke="#bfbfbf" points="445.5,-347.5 445.5,-377.5 558.5,-377.5 558.5,-347.5 445.5,-347.5"/>
<text text-anchor="start" x="453.5" y="-365.5" font-family="Helvetica,sans-Serif" font-size="10.00">boost/accumulators</text>
<text text-anchor="middle" x="502" y="-354.5" font-family="Helvetica,sans-Serif" font-size="10.00">/accumulators.hpp</text>
</a>
</g>
</g>
<!-- Node7&#45;&gt;Node14 -->
<g id="edge18" class="edge">
<title>Node7&#45;&gt;Node14</title>
<path fill="none" stroke="midnightblue" d="M503.71,-414.48C503.48,-407.47 503.13,-397.19 502.81,-387.7"/>
<polygon fill="midnightblue" stroke="midnightblue" points="506.31,-387.4 502.47,-377.52 499.31,-387.63 506.31,-387.4"/>
</g>
<!-- Node15 -->
<g id="node15" class="node">
<title>Node15</title>
<g id="a_node15"><a xlink:title=" ">
<polygon fill="white" stroke="#bfbfbf" points="104.5,-347.5 104.5,-377.5 217.5,-377.5 217.5,-347.5 104.5,-347.5"/>
<text text-anchor="start" x="112.5" y="-365.5" font-family="Helvetica,sans-Serif" font-size="10.00">boost/accumulators</text>
<text text-anchor="middle" x="161" y="-354.5" font-family="Helvetica,sans-Serif" font-size="10.00">/statistics.hpp</text>
</a>
</g>
</g>
<!-- Node7&#45;&gt;Node15 -->
<g id="edge19" class="edge">
<title>Node7&#45;&gt;Node15</title>
<path fill="none" stroke="midnightblue" d="M472.11,-418.12C421.23,-410.25 318.6,-394 232,-378 230.53,-377.73 229.05,-377.45 227.55,-377.17"/>
<polygon fill="midnightblue" stroke="midnightblue" points="228.02,-373.7 217.54,-375.25 226.7,-380.57 228.02,-373.7"/>
</g>
<!-- Node11&#45;&gt;Node5 -->
<g id="edge14" class="edge">
<title>Node11&#45;&gt;Node5</title>
<path fill="none" stroke="midnightblue" d="M367.65,-352.98C343.61,-342.9 303.4,-326.05 275.84,-314.5"/>
<polygon fill="midnightblue" stroke="midnightblue" points="276.88,-311.15 266.31,-310.51 274.18,-317.6 276.88,-311.15"/>
</g>
<!-- Node12 -->
<g id="node12" class="node">
<title>Node12</title>
<g id="a_node12"><a xlink:title=" ">
<polygon fill="white" stroke="#bfbfbf" points="1437.5,-235.5 1437.5,-254.5 1484.5,-254.5 1484.5,-235.5 1437.5,-235.5"/>
<text text-anchor="middle" x="1461" y="-242.5" font-family="Helvetica,sans-Serif" font-size="10.00">cmath</text>
</a>
</g>
</g>
<!-- Node11&#45;&gt;Node12 -->
<g id="edge15" class="edge">
<title>Node11&#45;&gt;Node12</title>
<path fill="none" stroke="midnightblue" d="M413.18,-352.89C420.47,-350.67 428.49,-348.49 436,-347 820.28,-270.78 1297.55,-251.05 1427.19,-246.94"/>
<polygon fill="midnightblue" stroke="midnightblue" points="1427.4,-250.44 1437.29,-246.63 1427.18,-243.44 1427.4,-250.44"/>
</g>
<!-- Node13 -->
<g id="node13" class="node">
<title>Node13</title>
<g id="a_node13"><a xlink:title=" ">
<polygon fill="white" stroke="#bfbfbf" points="350.5,-291.5 350.5,-310.5 425.5,-310.5 425.5,-291.5 350.5,-291.5"/>
<text text-anchor="middle" x="388" y="-298.5" font-family="Helvetica,sans-Serif" font-size="10.00">quadmath.h</text>
</a>
</g>
</g>
<!-- Node11&#45;&gt;Node13 -->
<g id="edge16" class="edge">
<title>Node11&#45;&gt;Node13</title>
<path fill="none" stroke="midnightblue" d="M388,-352.98C388,-344.58 388,-331.48 388,-320.66"/>
<polygon fill="midnightblue" stroke="midnightblue" points="391.5,-320.51 388,-310.51 384.5,-320.51 391.5,-320.51"/>
</g>
<!-- Node17&#45;&gt;Node1 -->
<g id="edge28" class="edge">
<title>Node17&#45;&gt;Node1</title>
<path fill="none" stroke="midnightblue" d="M1119.76,-433.89C1107.48,-448.29 1081.05,-476.47 1052,-490 986.8,-520.37 904.99,-530.79 846.12,-534.1"/>
<polygon fill="midnightblue" stroke="midnightblue" points="845.58,-530.63 835.77,-534.63 845.94,-537.62 845.58,-530.63"/>
</g>
<!-- Node17&#45;&gt;Node3 -->
<g id="edge25" class="edge">
<title>Node17&#45;&gt;Node3</title>
<path fill="none" stroke="midnightblue" d="M1171.91,-414.46C1194.16,-408.01 1219.68,-396.91 1236,-378 1258.75,-351.64 1255,-336.82 1255,-302 1255,-302 1255,-302 1255,-244 1255,-211.49 1263.16,-174.35 1268.78,-152.61"/>
<polygon fill="midnightblue" stroke="midnightblue" points="1272.22,-153.32 1271.44,-142.75 1265.46,-151.5 1272.22,-153.32"/>
</g>
<!-- Node17&#45;&gt;Node4 -->
<g id="edge24" class="edge">
<title>Node17&#45;&gt;Node4</title>
<path fill="none" stroke="midnightblue" d="M1113.18,-414.42C1098.95,-405.52 1076.22,-391.1 1057,-378 1037.53,-364.74 1035.11,-357.45 1014,-347 775.39,-228.9 458.39,-161.65 350.11,-140.95"/>
<polygon fill="midnightblue" stroke="midnightblue" points="350.48,-137.46 340,-139.04 349.18,-144.34 350.48,-137.46"/>
</g>
<!-- Node17&#45;&gt;Node10 -->
<g id="edge31" class="edge">
<title>Node17&#45;&gt;Node10</title>
<path fill="none" stroke="midnightblue" d="M1088.91,-414.49C1053.04,-406.18 997.96,-392.69 951,-378 948.44,-377.2 945.8,-376.32 943.16,-375.42"/>
<polygon fill="midnightblue" stroke="midnightblue" points="944.32,-372.11 933.72,-372.04 941.96,-378.7 944.32,-372.11"/>
</g>
<!-- Node18 -->
<g id="node18" class="node">
<title>Node18</title>
<g id="a_node18"><a xlink:title=" ">
<polygon fill="white" stroke="#bfbfbf" points="1099.5,-353 1099.5,-372 1154.5,-372 1154.5,-353 1099.5,-353"/>
<text text-anchor="middle" x="1127" y="-360" font-family="Helvetica,sans-Serif" font-size="10.00">fstream</text>
</a>
</g>
</g>
<!-- Node17&#45;&gt;Node18 -->
<g id="edge22" class="edge">
<title>Node17&#45;&gt;Node18</title>
<path fill="none" stroke="midnightblue" d="M1127,-414.48C1127,-406.08 1127,-392.98 1127,-382.16"/>
<polygon fill="midnightblue" stroke="midnightblue" points="1130.5,-382.01 1127,-372.01 1123.5,-382.01 1130.5,-382.01"/>
</g>
<!-- Node19 -->
<g id="node19" class="node">
<title>Node19</title>
<g id="a_node19"><a xlink:title=" ">
<polygon fill="white" stroke="#bfbfbf" points="1231.5,-62 1231.5,-81 1296.5,-81 1296.5,-62 1231.5,-62"/>
<text text-anchor="middle" x="1264" y="-69" font-family="Helvetica,sans-Serif" font-size="10.00">functional</text>
</a>
</g>
</g>
<!-- Node17&#45;&gt;Node19 -->
<g id="edge23" class="edge">
<title>Node17&#45;&gt;Node19</title>
<path fill="none" stroke="midnightblue" d="M1118.34,-414.47C1110.15,-405.95 1098.1,-392.12 1091,-378 1075.31,-346.8 1071,-336.93 1071,-302 1071,-302 1071,-302 1071,-188 1071,-118.52 1164.23,-89.83 1221.1,-78.79"/>
<polygon fill="midnightblue" stroke="midnightblue" points="1222.05,-82.17 1231.26,-76.93 1220.79,-75.29 1222.05,-82.17"/>
</g>
<!-- Node20 -->
<g id="node20" class="node">
<title>Node20</title>
<g id="a_node20"><a xlink:title=" ">
<polygon fill="white" stroke="#bfbfbf" points="1173,-353 1173,-372 1227,-372 1227,-353 1173,-353"/>
<text text-anchor="middle" x="1200" y="-360" font-family="Helvetica,sans-Serif" font-size="10.00">random</text>
</a>
</g>
</g>
<!-- Node17&#45;&gt;Node20 -->
<g id="edge26" class="edge">
<title>Node17&#45;&gt;Node20</title>
<path fill="none" stroke="midnightblue" d="M1137.46,-414.48C1148.95,-405.11 1167.63,-389.88 1181.59,-378.51"/>
<polygon fill="midnightblue" stroke="midnightblue" points="1184.02,-381.04 1189.56,-372.01 1179.6,-375.61 1184.02,-381.04"/>
</g>
<!-- Node17&#45;&gt;Node21 -->
<g id="edge27" class="edge">
<title>Node17&#45;&gt;Node21</title>
<path fill="none" stroke="midnightblue" d="M1106.23,-414.48C1081.57,-404.36 1040.25,-387.4 1012.1,-375.85"/>
<polygon fill="midnightblue" stroke="midnightblue" points="1013.32,-372.57 1002.74,-372.01 1010.66,-379.04 1013.32,-372.57"/>
</g>
<!-- Node22 -->
<g id="node22" class="node">
<title>Node22</title>
<g id="a_node22"><a xlink:href="../../d4/d2e/Stopwatch_8h.html" target="_top" xlink:title="This file contains the Stopwatch class which is a utility for measuring time durations in various uni...">
<polygon fill="white" stroke="black" points="1283.5,-353 1283.5,-372 1360.5,-372 1360.5,-353 1283.5,-353"/>
<text text-anchor="middle" x="1322" y="-360" font-family="Helvetica,sans-Serif" font-size="10.00">Stopwatch.h</text>
</a>
</g>
</g>
<!-- Node17&#45;&gt;Node22 -->
<g id="edge29" class="edge">
<title>Node17&#45;&gt;Node22</title>
<path fill="none" stroke="midnightblue" d="M1154.94,-414.48C1188.97,-404.09 1246.58,-386.51 1284.46,-374.95"/>
<polygon fill="midnightblue" stroke="midnightblue" points="1285.57,-378.28 1294.11,-372.01 1283.53,-371.58 1285.57,-378.28"/>
</g>
<!-- Node24 -->
<g id="node24" class="node">
<title>Node24</title>
<g id="a_node24"><a xlink:href="../../dc/d09/Stats_8h.html" target="_top" xlink:title="This file contains the declaration of statistical functions and structures for vectors and matrices.">
<polygon fill="white" stroke="black" points="1516,-353 1516,-372 1618,-372 1618,-353 1516,-353"/>
<text text-anchor="middle" x="1567" y="-360" font-family="Helvetica,sans-Serif" font-size="10.00">math/blas/Stats.h</text>
</a>
</g>
</g>
<!-- Node17&#45;&gt;Node24 -->
<g id="edge32" class="edge">
<title>Node17&#45;&gt;Node24</title>
<path fill="none" stroke="midnightblue" d="M1187.72,-414.79C1271.54,-403.45 1421.85,-383.13 1505.88,-371.77"/>
<polygon fill="midnightblue" stroke="midnightblue" points="1506.35,-375.23 1515.79,-370.43 1505.41,-368.3 1506.35,-375.23"/>
</g>
<!-- Node23 -->
<g id="node23" class="node">
<title>Node23</title>
<g id="a_node23"><a xlink:title=" ">
<polygon fill="white" stroke="#bfbfbf" points="1283,-291.5 1283,-310.5 1333,-310.5 1333,-291.5 1283,-291.5"/>
<text text-anchor="middle" x="1308" y="-298.5" font-family="Helvetica,sans-Serif" font-size="10.00">chrono</text>
</a>
</g>
</g>
<!-- Node22&#45;&gt;Node23 -->
<g id="edge30" class="edge">
<title>Node22&#45;&gt;Node23</title>
<path fill="none" stroke="midnightblue" d="M1319.99,-352.98C1318,-344.49 1314.87,-331.2 1312.31,-320.32"/>
<polygon fill="midnightblue" stroke="midnightblue" points="1315.7,-319.44 1310,-310.51 1308.89,-321.04 1315.7,-319.44"/>
</g>
<!-- Node24&#45;&gt;Node12 -->
<g id="edge34" class="edge">
<title>Node24&#45;&gt;Node12</title>
<path fill="none" stroke="midnightblue" d="M1552.11,-352.91C1537.34,-343.87 1514.7,-328.52 1499,-311 1486.35,-296.88 1475.84,-277.9 1469.1,-264.09"/>
<polygon fill="midnightblue" stroke="midnightblue" points="1472.12,-262.29 1464.71,-254.71 1465.78,-265.25 1472.12,-262.29"/>
</g>
<!-- Node25 -->
<g id="node25" class="node">
<title>Node25</title>
<g id="a_node25"><a xlink:title=" ">
<polygon fill="white" stroke="#bfbfbf" points="1727,-62 1727,-81 1791,-81 1791,-62 1727,-62"/>
<text text-anchor="middle" x="1759" y="-69" font-family="Helvetica,sans-Serif" font-size="10.00">algorithm</text>
</a>
</g>
</g>
<!-- Node24&#45;&gt;Node25 -->
<g id="edge33" class="edge">
<title>Node24&#45;&gt;Node25</title>
<path fill="none" stroke="midnightblue" d="M1618.28,-360.57C1693.52,-356.18 1825,-335.69 1825,-246 1825,-246 1825,-246 1825,-188 1825,-148.04 1794.85,-109.33 1775.3,-88.44"/>
<polygon fill="midnightblue" stroke="midnightblue" points="1777.65,-85.84 1768.18,-81.1 1772.63,-90.71 1777.65,-85.84"/>
</g>
<!-- Node26 -->
<g id="node26" class="node">
<title>Node26</title>
<g id="a_node26"><a xlink:title=" ">
<polygon fill="white" stroke="#bfbfbf" points="1649,-291.5 1649,-310.5 1705,-310.5 1705,-291.5 1649,-291.5"/>
<text text-anchor="middle" x="1677" y="-298.5" font-family="Helvetica,sans-Serif" font-size="10.00">numeric</text>
</a>
</g>
</g>
<!-- Node24&#45;&gt;Node26 -->
<g id="edge35" class="edge">
<title>Node24&#45;&gt;Node26</title>
<path fill="none" stroke="midnightblue" d="M1582.76,-352.98C1600.98,-343.12 1631.17,-326.79 1652.47,-315.27"/>
<polygon fill="midnightblue" stroke="midnightblue" points="1654.14,-318.35 1661.27,-310.51 1650.81,-312.19 1654.14,-318.35"/>
</g>
<!-- Node27 -->
<g id="node27" class="node">
<title>Node27</title>
<g id="a_node27"><a xlink:title=" ">
<polygon fill="white" stroke="#bfbfbf" points="1389.5,-291.5 1389.5,-310.5 1446.5,-310.5 1446.5,-291.5 1389.5,-291.5"/>
<text text-anchor="middle" x="1418" y="-298.5" font-family="Helvetica,sans-Serif" font-size="10.00">ostream</text>
</a>
</g>
</g>
<!-- Node24&#45;&gt;Node27 -->
<g id="edge36" class="edge">
<title>Node24&#45;&gt;Node27</title>
<path fill="none" stroke="midnightblue" d="M1545.65,-352.98C1520.31,-342.86 1477.86,-325.9 1448.93,-314.35"/>
<polygon fill="midnightblue" stroke="midnightblue" points="1449.89,-310.97 1439.31,-310.51 1447.3,-317.47 1449.89,-310.97"/>
</g>
<!-- Node28 -->
<g id="node28" class="node">
<title>Node28</title>
<g id="a_node28"><a xlink:title=" ">
<polygon fill="white" stroke="#bfbfbf" points="1739.5,-123.5 1739.5,-142.5 1786.5,-142.5 1786.5,-123.5 1739.5,-123.5"/>
<text text-anchor="middle" x="1763" y="-130.5" font-family="Helvetica,sans-Serif" font-size="10.00">vector</text>
</a>
</g>
</g>
<!-- Node24&#45;&gt;Node28 -->
<g id="edge37" class="edge">
<title>Node24&#45;&gt;Node28</title>
<path fill="none" stroke="midnightblue" d="M1618.09,-355.62C1649.6,-349.45 1688.69,-336.82 1714,-311 1757.1,-267.03 1763.06,-188.69 1763.39,-152.84"/>
<polygon fill="midnightblue" stroke="midnightblue" points="1766.89,-152.78 1763.33,-142.79 1759.89,-152.81 1766.89,-152.78"/>
</g>
<!-- Node29 -->
<g id="node29" class="node">
<title>Node29</title>
<g id="a_node29"><a xlink:href="../../d1/d80/BLAS_8h.html" target="_top" xlink:title=" ">
<polygon fill="white" stroke="black" points="1541.5,-291.5 1541.5,-310.5 1592.5,-310.5 1592.5,-291.5 1541.5,-291.5"/>
<text text-anchor="middle" x="1567" y="-298.5" font-family="Helvetica,sans-Serif" font-size="10.00">BLAS.h</text>
</a>
</g>
</g>
<!-- Node24&#45;&gt;Node29 -->
<g id="edge38" class="edge">
<title>Node24&#45;&gt;Node29</title>
<path fill="none" stroke="midnightblue" d="M1567,-352.98C1567,-344.58 1567,-331.48 1567,-320.66"/>
<polygon fill="midnightblue" stroke="midnightblue" points="1570.5,-320.51 1567,-310.51 1563.5,-320.51 1570.5,-320.51"/>
</g>
<!-- Node30 -->
<g id="node30" class="node">
<title>Node30</title>
<g id="a_node30"><a xlink:href="../../d3/db1/Matrix_8h.html" target="_top" xlink:title="Header file for the MyBLAS::Matrix class.">
<polygon fill="white" stroke="black" points="1579,-235.5 1579,-254.5 1723,-254.5 1723,-235.5 1579,-235.5"/>
<text text-anchor="middle" x="1651" y="-242.5" font-family="Helvetica,sans-Serif" font-size="10.00">math/blas/matrix/Matrix.h</text>
</a>
</g>
</g>
<!-- Node24&#45;&gt;Node30 -->
<g id="edge63" class="edge">
<title>Node24&#45;&gt;Node30</title>
<path fill="none" stroke="midnightblue" d="M1573.31,-352.82C1587.18,-333.76 1620.49,-287.95 1638.67,-262.96"/>
<polygon fill="midnightblue" stroke="midnightblue" points="1641.56,-264.93 1644.61,-254.78 1635.9,-260.81 1641.56,-264.93"/>
</g>
<!-- Node33 -->
<g id="node33" class="node">
<title>Node33</title>
<g id="a_node33"><a xlink:href="../../d6/dbe/Vector_8h.html" target="_top" xlink:title="Header file for the MyBLAS::Vector class.">
<polygon fill="white" stroke="black" points="1359.5,-179.5 1359.5,-198.5 1500.5,-198.5 1500.5,-179.5 1359.5,-179.5"/>
<text text-anchor="middle" x="1430" y="-186.5" font-family="Helvetica,sans-Serif" font-size="10.00">math/blas/vector/Vector.h</text>
</a>
</g>
</g>
<!-- Node24&#45;&gt;Node33 -->
<g id="edge64" class="edge">
<title>Node24&#45;&gt;Node33</title>
<path fill="none" stroke="midnightblue" d="M1560.66,-352.77C1553.57,-342.86 1541.92,-326.11 1533,-311 1513.7,-278.31 1518.92,-263.64 1494,-235 1483.09,-222.47 1468,-211.64 1455.21,-203.74"/>
<polygon fill="midnightblue" stroke="midnightblue" points="1456.79,-200.61 1446.4,-198.53 1453.22,-206.64 1456.79,-200.61"/>
</g>
<!-- Node29&#45;&gt;Node12 -->
<g id="edge39" class="edge">
<title>Node29&#45;&gt;Node12</title>
<path fill="none" stroke="midnightblue" d="M1549.97,-291.32C1532.97,-282.66 1506.62,-269.24 1487.01,-259.25"/>
<polygon fill="midnightblue" stroke="midnightblue" points="1488.49,-256.08 1477.99,-254.65 1485.31,-262.31 1488.49,-256.08"/>
</g>
<!-- Node29&#45;&gt;Node30 -->
<g id="edge40" class="edge">
<title>Node29&#45;&gt;Node30</title>
<path fill="none" stroke="midnightblue" d="M1580.5,-291.32C1593.6,-282.9 1613.71,-269.97 1629.11,-260.07"/>
<polygon fill="midnightblue" stroke="midnightblue" points="1631.02,-263.01 1637.54,-254.65 1627.23,-257.12 1631.02,-263.01"/>
</g>
<!-- Node29&#45;&gt;Node33 -->
<g id="edge62" class="edge">
<title>Node29&#45;&gt;Node33</title>
<path fill="none" stroke="midnightblue" d="M1563.61,-291.31C1557.91,-277.69 1545.22,-251.2 1527,-235 1510.34,-220.19 1487.97,-209.37 1468.91,-202.06"/>
<polygon fill="midnightblue" stroke="midnightblue" points="1469.89,-198.69 1459.29,-198.55 1467.49,-205.27 1469.89,-198.69"/>
</g>
<!-- Node30&#45;&gt;Node3 -->
<g id="edge43" class="edge">
<title>Node30&#45;&gt;Node3</title>
<path fill="none" stroke="midnightblue" d="M1578.89,-237.74C1503.43,-230.39 1390.52,-216.89 1351,-199 1325.99,-187.68 1302.7,-165.81 1288.43,-150.58"/>
<polygon fill="midnightblue" stroke="midnightblue" points="1290.78,-147.97 1281.47,-142.91 1285.6,-152.67 1290.78,-147.97"/>
</g>
<!-- Node30&#45;&gt;Node25 -->
<g id="edge41" class="edge">
<title>Node30&#45;&gt;Node25</title>
<path fill="none" stroke="midnightblue" d="M1656.5,-235.26C1673.48,-208.31 1725.24,-126.12 1748.03,-89.92"/>
<polygon fill="midnightblue" stroke="midnightblue" points="1751.27,-91.35 1753.64,-81.02 1745.34,-87.62 1751.27,-91.35"/>
</g>
<!-- Node30&#45;&gt;Node28 -->
<g id="edge44" class="edge">
<title>Node30&#45;&gt;Node28</title>
<path fill="none" stroke="midnightblue" d="M1670.75,-235.36C1686.8,-227.6 1709.3,-214.98 1725,-199 1738.29,-185.48 1748.72,-166.42 1755.26,-152.43"/>
<polygon fill="midnightblue" stroke="midnightblue" points="1758.63,-153.46 1759.49,-142.9 1752.23,-150.62 1758.63,-153.46"/>
</g>
<!-- Node31 -->
<g id="node31" class="node">
<title>Node31</title>
<g id="a_node31"><a xlink:title=" ">
<polygon fill="white" stroke="#bfbfbf" points="1559,-123.5 1559,-142.5 1611,-142.5 1611,-123.5 1559,-123.5"/>
<text text-anchor="middle" x="1585" y="-130.5" font-family="Helvetica,sans-Serif" font-size="10.00">cassert</text>
</a>
</g>
</g>
<!-- Node30&#45;&gt;Node31 -->
<g id="edge42" class="edge">
<title>Node30&#45;&gt;Node31</title>
<path fill="none" stroke="midnightblue" d="M1654.06,-235.38C1658.15,-222.3 1663.79,-197.08 1654,-179 1646.25,-164.7 1631.77,-154.22 1618.06,-146.99"/>
<polygon fill="midnightblue" stroke="midnightblue" points="1619.31,-143.71 1608.79,-142.5 1616.26,-150.01 1619.31,-143.71"/>
</g>
<!-- Node32 -->
<g id="node32" class="node">
<title>Node32</title>
<g id="a_node32"><a xlink:href="../../d1/d45/Constants_8h.html" target="_top" xlink:title="MyBLAS Constants definition.">
<polygon fill="white" stroke="black" points="1519,-179.5 1519,-198.5 1645,-198.5 1645,-179.5 1519,-179.5"/>
<text text-anchor="middle" x="1582" y="-186.5" font-family="Helvetica,sans-Serif" font-size="10.00">math/blas/Constants.h</text>
</a>
</g>
</g>
<!-- Node30&#45;&gt;Node32 -->
<g id="edge45" class="edge">
<title>Node30&#45;&gt;Node32</title>
<path fill="none" stroke="midnightblue" d="M1639.91,-235.32C1629.51,-227.18 1613.74,-214.84 1601.28,-205.09"/>
<polygon fill="midnightblue" stroke="midnightblue" points="1603.32,-202.24 1593.29,-198.83 1599.01,-207.75 1603.32,-202.24"/>
</g>
<!-- Node30&#45;&gt;Node33 -->
<g id="edge46" class="edge">
<title>Node30&#45;&gt;Node33</title>
<path fill="none" stroke="midnightblue" d="M1615.98,-235.44C1577.75,-226.1 1516.43,-211.12 1474.74,-200.93"/>
<polygon fill="midnightblue" stroke="midnightblue" points="1475.4,-197.49 1464.85,-198.52 1473.74,-204.29 1475.4,-197.49"/>
</g>
<!-- Node33&#45;&gt;Node3 -->
<g id="edge60" class="edge">
<title>Node33&#45;&gt;Node3</title>
<path fill="none" stroke="midnightblue" d="M1405.28,-179.44C1379.15,-170.4 1337.74,-156.06 1308.42,-145.92"/>
<polygon fill="midnightblue" stroke="midnightblue" points="1309.2,-142.48 1298.6,-142.52 1306.91,-149.1 1309.2,-142.48"/>
</g>
<!-- Node33&#45;&gt;Node4 -->
<g id="edge59" class="edge">
<title>Node33&#45;&gt;Node4</title>
<path fill="none" stroke="midnightblue" d="M1359.22,-184.58C1145.74,-174.27 512.99,-143.71 350.42,-135.86"/>
<polygon fill="midnightblue" stroke="midnightblue" points="350.56,-132.36 340.4,-135.37 350.22,-139.35 350.56,-132.36"/>
</g>
<!-- Node33&#45;&gt;Node19 -->
<g id="edge58" class="edge">
<title>Node33&#45;&gt;Node19</title>
<path fill="none" stroke="midnightblue" d="M1417.52,-179.32C1389.28,-159.67 1320.21,-111.61 1285.15,-87.22"/>
<polygon fill="midnightblue" stroke="midnightblue" points="1286.83,-84.12 1276.62,-81.28 1282.83,-89.87 1286.83,-84.12"/>
</g>
<!-- Node33&#45;&gt;Node28 -->
<g id="edge61" class="edge">
<title>Node33&#45;&gt;Node28</title>
<path fill="none" stroke="midnightblue" d="M1482.76,-179.44C1551.82,-168.24 1670.89,-148.94 1729.04,-139.51"/>
<polygon fill="midnightblue" stroke="midnightblue" points="1729.86,-142.92 1739.17,-137.86 1728.74,-136.01 1729.86,-142.92"/>
</g>
<!-- Node33&#45;&gt;Node31 -->
<g id="edge57" class="edge">
<title>Node33&#45;&gt;Node31</title>
<path fill="none" stroke="midnightblue" d="M1454.56,-179.44C1480.52,-170.4 1521.67,-156.06 1550.8,-145.92"/>
<polygon fill="midnightblue" stroke="midnightblue" points="1552.26,-149.11 1560.55,-142.52 1549.96,-142.5 1552.26,-149.11"/>
</g>
<!-- Node34 -->
<g id="node34" class="node">
<title>Node34</title>
<g id="a_node34"><a xlink:href="../../de/dcb/LazyVector_8h.html" target="_top" xlink:title="Header file for the LazyVector class.">
<polygon fill="white" stroke="black" points="1391,-123.5 1391,-142.5 1469,-142.5 1469,-123.5 1391,-123.5"/>
<text text-anchor="middle" x="1430" y="-130.5" font-family="Helvetica,sans-Serif" font-size="10.00">LazyVector.h</text>
</a>
</g>
</g>
<!-- Node33&#45;&gt;Node34 -->
<g id="edge47" class="edge">
<title>Node33&#45;&gt;Node34</title>
<path fill="none" stroke="midnightblue" d="M1424.83,-179.08C1423.32,-171.93 1422.89,-161.64 1423.54,-152.69"/>
<polygon fill="midnightblue" stroke="midnightblue" points="1427.02,-153.13 1424.87,-142.75 1420.08,-152.2 1427.02,-153.13"/>
</g>
<!-- Node34&#45;&gt;Node19 -->
<g id="edge50" class="edge">
<title>Node34&#45;&gt;Node19</title>
<path fill="none" stroke="midnightblue" d="M1406.22,-123.48C1377.62,-113.22 1329.45,-95.96 1297.2,-84.4"/>
<polygon fill="midnightblue" stroke="midnightblue" points="1298.33,-81.09 1287.74,-81.01 1295.97,-87.68 1298.33,-81.09"/>
</g>
<!-- Node34&#45;&gt;Node25 -->
<g id="edge48" class="edge">
<title>Node34&#45;&gt;Node25</title>
<path fill="none" stroke="midnightblue" d="M1469.12,-128.21C1524.95,-122.28 1630.42,-109.13 1718,-87 1721.05,-86.23 1724.19,-85.33 1727.32,-84.35"/>
<polygon fill="midnightblue" stroke="midnightblue" points="1728.72,-87.57 1737.1,-81.09 1726.51,-80.93 1728.72,-87.57"/>
</g>
<!-- Node34&#45;&gt;Node33 -->
<g id="edge52" class="edge">
<title>Node34&#45;&gt;Node33</title>
<path fill="none" stroke="midnightblue" d="M1435.13,-142.75C1436.66,-149.86 1437.1,-160.14 1436.47,-169.1"/>
<polygon fill="midnightblue" stroke="midnightblue" points="1432.99,-168.71 1435.17,-179.08 1439.93,-169.62 1432.99,-168.71"/>
</g>
<!-- Node35 -->
<g id="node35" class="node">
<title>Node35</title>
<g id="a_node35"><a xlink:title=" ">
<polygon fill="white" stroke="#bfbfbf" points="1457.5,-0.5 1457.5,-19.5 1510.5,-19.5 1510.5,-0.5 1457.5,-0.5"/>
<text text-anchor="middle" x="1484" y="-7.5" font-family="Helvetica,sans-Serif" font-size="10.00">cstddef</text>
</a>
</g>
</g>
<!-- Node34&#45;&gt;Node35 -->
<g id="edge49" class="edge">
<title>Node34&#45;&gt;Node35</title>
<path fill="none" stroke="midnightblue" d="M1395.82,-123.49C1377.01,-116.88 1355.26,-105.6 1344,-87 1336.86,-75.21 1335.88,-67.13 1344,-56 1367.41,-23.89 1414.11,-14.19 1447.12,-11.52"/>
<polygon fill="midnightblue" stroke="midnightblue" points="1447.55,-15 1457.31,-10.88 1447.11,-8.01 1447.55,-15"/>
</g>
<!-- Node36 -->
<g id="node36" class="node">
<title>Node36</title>
<g id="a_node36"><a xlink:title=" ">
<polygon fill="white" stroke="#bfbfbf" points="1353,-62 1353,-81 1411,-81 1411,-62 1353,-62"/>
<text text-anchor="middle" x="1382" y="-69" font-family="Helvetica,sans-Serif" font-size="10.00">memory</text>
</a>
</g>
</g>
<!-- Node34&#45;&gt;Node36 -->
<g id="edge51" class="edge">
<title>Node34&#45;&gt;Node36</title>
<path fill="none" stroke="midnightblue" d="M1423.12,-123.48C1415.85,-114.46 1404.2,-100.02 1395.16,-88.81"/>
<polygon fill="midnightblue" stroke="midnightblue" points="1397.87,-86.59 1388.86,-81.01 1392.42,-90.99 1397.87,-86.59"/>
</g>
<!-- Node37 -->
<g id="node37" class="node">
<title>Node37</title>
<g id="a_node37"><a xlink:href="../../d6/d9f/VectorExpression_8h.html" target="_top" xlink:title="Header file for the MyBLAS::VectorExpression class.">
<polygon fill="white" stroke="black" points="1429,-62 1429,-81 1539,-81 1539,-62 1429,-62"/>
<text text-anchor="middle" x="1484" y="-69" font-family="Helvetica,sans-Serif" font-size="10.00">VectorExpression.h</text>
</a>
</g>
</g>
<!-- Node34&#45;&gt;Node37 -->
<g id="edge53" class="edge">
<title>Node34&#45;&gt;Node37</title>
<path fill="none" stroke="midnightblue" d="M1437.74,-123.48C1446,-114.37 1459.28,-99.74 1469.49,-88.48"/>
<polygon fill="midnightblue" stroke="midnightblue" points="1472.15,-90.77 1476.28,-81.01 1466.97,-86.06 1472.15,-90.77"/>
</g>
<!-- Node38 -->
<g id="node38" class="node">
<title>Node38</title>
<g id="a_node38"><a xlink:href="../../d6/db1/ContainerExpression_8h.html" target="_top" xlink:title="Header file for the ContainerExpression class.">
<polygon fill="white" stroke="black" points="1557.5,-56.5 1557.5,-86.5 1708.5,-86.5 1708.5,-56.5 1557.5,-56.5"/>
<text text-anchor="start" x="1565.5" y="-74.5" font-family="Helvetica,sans-Serif" font-size="10.00">math/blas/matrix/Container</text>
<text text-anchor="middle" x="1633" y="-63.5" font-family="Helvetica,sans-Serif" font-size="10.00">Expression.h</text>
</a>
</g>
</g>
<!-- Node34&#45;&gt;Node38 -->
<g id="edge55" class="edge">
<title>Node34&#45;&gt;Node38</title>
<path fill="none" stroke="midnightblue" d="M1459.08,-123.48C1489.28,-114.63 1537.3,-100.55 1575.25,-89.43"/>
<polygon fill="midnightblue" stroke="midnightblue" points="1576.55,-92.69 1585.16,-86.52 1574.58,-85.98 1576.55,-92.69"/>
</g>
<!-- Node37&#45;&gt;Node35 -->
<g id="edge54" class="edge">
<title>Node37&#45;&gt;Node35</title>
<path fill="none" stroke="midnightblue" d="M1484,-61.98C1484,-53.58 1484,-40.48 1484,-29.66"/>
<polygon fill="midnightblue" stroke="midnightblue" points="1487.5,-29.51 1484,-19.51 1480.5,-29.51 1487.5,-29.51"/>
</g>
<!-- Node38&#45;&gt;Node35 -->
<g id="edge56" class="edge">
<title>Node38&#45;&gt;Node35</title>
<path fill="none" stroke="midnightblue" d="M1597.69,-56.4C1572.58,-46.37 1539.16,-33.03 1515.06,-23.4"/>
<polygon fill="midnightblue" stroke="midnightblue" points="1516.27,-20.12 1505.68,-19.66 1513.67,-26.62 1516.27,-20.12"/>
</g>
<!-- Node39&#45;&gt;Node1 -->
<g id="edge66" class="edge">
<title>Node39&#45;&gt;Node1</title>
<path fill="none" stroke="midnightblue" d="M886.3,-433.67C873.43,-446.37 848.43,-470.65 826,-490 813.95,-500.4 799.92,-511.49 788.8,-520.05"/>
<polygon fill="midnightblue" stroke="midnightblue" points="786.41,-517.47 780.59,-526.32 790.66,-523.03 786.41,-517.47"/>
</g>
<!-- Node39&#45;&gt;Node2 -->
<g id="edge68" class="edge">
<title>Node39&#45;&gt;Node2</title>
<path fill="none" stroke="midnightblue" d="M874.51,-414.48C850.19,-404.36 809.45,-387.4 781.68,-375.85"/>
<polygon fill="midnightblue" stroke="midnightblue" points="783.03,-372.62 772.45,-372.01 780.34,-379.08 783.03,-372.62"/>
</g>
<!-- Node39&#45;&gt;Node10 -->
<g id="edge67" class="edge">
<title>Node39&#45;&gt;Node10</title>
<path fill="none" stroke="midnightblue" d="M897.44,-414.48C899.86,-405.99 903.66,-392.7 906.77,-381.82"/>
<polygon fill="midnightblue" stroke="midnightblue" points="910.19,-382.59 909.57,-372.01 903.46,-380.66 910.19,-382.59"/>
</g>
</g>
</svg>
