<?xml version="1.0" encoding="UTF-8" standalone="no"?>
<!DOCTYPE svg PUBLIC "-//W3C//DTD SVG 1.1//EN"
 "http://www.w3.org/Graphics/SVG/1.1/DTD/svg11.dtd">
<!-- Generated by graphviz version 2.43.0 (0)
 -->
<!-- Title: src/utils/CheckBounds.h Pages: 1 -->
<!--zoomable 431 -->
<svg id="main" version="1.1" xmlns="http://www.w3.org/2000/svg" xmlns:xlink="http://www.w3.org/1999/xlink" xml:space="preserve" onload="init(evt)">
<style type="text/css"><![CDATA[
.edge:hover path { stroke: red; }
.edge:hover polygon { stroke: red; fill: red; }
]]></style>
<script type="text/javascript"><![CDATA[
var edges = document.getElementsByTagName('g');
if (edges && edges.length) {
  for (var i=0;i<edges.length;i++) {
    if (edges[i].id.substr(0,4)=='edge') {
      edges[i].setAttribute('class','edge');
    }
  }
}
]]></script>
        <defs>
                <circle id="rim" cx="0" cy="0" r="7"/>
                <circle id="rim2" cx="0" cy="0" r="3.5"/>
                <g id="zoomPlus">
                        <use xlink:href="#rim" fill="#404040">
                                <set attributeName="fill" to="#808080" begin="zoomplus.mouseover" end="zoomplus.mouseout"/>
                        </use>
                        <path d="M-4,0h8M0,-4v8" fill="none" stroke="white" stroke-width="1.5" pointer-events="none"/>
                </g>
                <g id="zoomMin">
                        <use xlink:href="#rim" fill="#404040">
                                <set attributeName="fill" to="#808080" begin="zoomminus.mouseover" end="zoomminus.mouseout"/>
                        </use>
                        <path d="M-4,0h8" fill="none" stroke="white" stroke-width="1.5" pointer-events="none"/>
                </g>
                <g id="dirArrow">
                        <path fill="none" stroke="white" stroke-width="1.5" d="M0,-3.0v7 M-2.5,-0.5L0,-3.0L2.5,-0.5"/>
                </g>
               <g id="resetDef">
                       <use xlink:href="#rim2" fill="#404040">
                               <set attributeName="fill" to="#808080" begin="reset.mouseover" end="reset.mouseout"/>
                       </use>
               </g>
        </defs>

<script type="text/javascript">
var viewWidth = 1475;
var viewHeight = 431;
var sectionId = 'dynsection-0';
</script>
<script xlink:href="../../svgpan.js"/>
<svg id="graph" class="graph">
<g id="viewport">
<title>src/utils/CheckBounds.h</title>
<polygon fill="white" stroke="transparent" points="-4,4 -4,-427 1470.54,-427 1470.54,4 -4,4"/>
<!-- Node1 -->
<g id="node1" class="node">
<title>Node1</title>
<g id="a_node1"><a xlink:title="This file contains the declaration of functions for checking the validity of input parameters.">
<polygon fill="#bfbfbf" stroke="black" points="528.5,-403.5 528.5,-422.5 661.5,-422.5 661.5,-403.5 528.5,-403.5"/>
<text text-anchor="middle" x="595" y="-410.5" font-family="Helvetica,sans-Serif" font-size="10.00">src/utils/CheckBounds.h</text>
</a>
</g>
</g>
<!-- Node2 -->
<g id="node2" class="node">
<title>Node2</title>
<g id="a_node2"><a xlink:title=" ">
<polygon fill="white" stroke="#bfbfbf" points="429,-230 429,-249 579,-249 579,-230 429,-230"/>
<text text-anchor="middle" x="504" y="-237" font-family="Helvetica,sans-Serif" font-size="10.00">boost/program_options.hpp</text>
</a>
</g>
</g>
<!-- Node1&#45;&gt;Node2 -->
<g id="edge1" class="edge">
<title>Node1&#45;&gt;Node2</title>
<path fill="none" stroke="midnightblue" d="M580.36,-403.47C556.36,-388.44 509.84,-354.69 495,-311 489.24,-294.06 492.9,-273.68 497.15,-259.2"/>
<polygon fill="midnightblue" stroke="midnightblue" points="500.56,-260.03 500.37,-249.44 493.91,-257.84 500.56,-260.03"/>
</g>
<!-- Node3 -->
<g id="node3" class="node">
<title>Node3</title>
<g id="a_node3"><a xlink:title=" ">
<polygon fill="white" stroke="#bfbfbf" points="634,-0.5 634,-19.5 694,-19.5 694,-0.5 634,-0.5"/>
<text text-anchor="middle" x="664" y="-7.5" font-family="Helvetica,sans-Serif" font-size="10.00">iostream</text>
</a>
</g>
</g>
<!-- Node1&#45;&gt;Node3 -->
<g id="edge2" class="edge">
<title>Node1&#45;&gt;Node3</title>
<path fill="none" stroke="midnightblue" d="M528.48,-406.61C373.21,-393.15 0,-355.25 0,-302 0,-302 0,-302 0,-121 0,-57.45 479.54,-22.47 623.57,-13.4"/>
<polygon fill="midnightblue" stroke="midnightblue" points="623.98,-16.88 633.74,-12.76 623.55,-9.89 623.98,-16.88"/>
</g>
<!-- Node4 -->
<g id="node4" class="node">
<title>Node4</title>
<g id="a_node4"><a xlink:title=" ">
<polygon fill="white" stroke="#bfbfbf" points="1054,-0.5 1054,-19.5 1110,-19.5 1110,-0.5 1054,-0.5"/>
<text text-anchor="middle" x="1082" y="-7.5" font-family="Helvetica,sans-Serif" font-size="10.00">iomanip</text>
</a>
</g>
</g>
<!-- Node1&#45;&gt;Node4 -->
<g id="edge3" class="edge">
<title>Node1&#45;&gt;Node4</title>
<path fill="none" stroke="midnightblue" d="M661.73,-408.28C727.86,-403.3 831.52,-391.99 918,-367 1034.19,-333.42 1100.4,-356.6 1166,-255 1173.47,-243.43 1168.57,-237.54 1166,-224 1151.54,-147.94 1110.46,-64.32 1091.64,-28.67"/>
<polygon fill="midnightblue" stroke="midnightblue" points="1094.57,-26.73 1086.76,-19.57 1088.4,-30.04 1094.57,-26.73"/>
</g>
<!-- Node5 -->
<g id="node5" class="node">
<title>Node5</title>
<g id="a_node5"><a xlink:title=" ">
<polygon fill="white" stroke="#bfbfbf" points="28,-230 28,-249 72,-249 72,-230 28,-230"/>
<text text-anchor="middle" x="50" y="-237" font-family="Helvetica,sans-Serif" font-size="10.00">limits</text>
</a>
</g>
</g>
<!-- Node1&#45;&gt;Node5 -->
<g id="edge4" class="edge">
<title>Node1&#45;&gt;Node5</title>
<path fill="none" stroke="midnightblue" d="M554.14,-403.49C515.66,-395.18 456.53,-381.68 406,-367 259.29,-324.37 222.61,-312.33 81,-255 79.62,-254.44 78.22,-253.86 76.81,-253.25"/>
<polygon fill="midnightblue" stroke="midnightblue" points="78.12,-250 67.56,-249.11 75.26,-256.39 78.12,-250"/>
</g>
<!-- Node6 -->
<g id="node6" class="node">
<title>Node6</title>
<g id="a_node6"><a xlink:href="../../d9/d41/CommandLine_8h.html" target="_top" xlink:title="This file contains the definition of the CommandLine class and the HeaderInfo struct.">
<polygon fill="white" stroke="black" points="547,-347.5 547,-366.5 643,-366.5 643,-347.5 547,-347.5"/>
<text text-anchor="middle" x="595" y="-354.5" font-family="Helvetica,sans-Serif" font-size="10.00">CommandLine.h</text>
</a>
</g>
</g>
<!-- Node1&#45;&gt;Node6 -->
<g id="edge5" class="edge">
<title>Node1&#45;&gt;Node6</title>
<path fill="none" stroke="midnightblue" d="M595,-403.08C595,-396.01 595,-385.86 595,-376.99"/>
<polygon fill="midnightblue" stroke="midnightblue" points="598.5,-376.75 595,-366.75 591.5,-376.75 598.5,-376.75"/>
</g>
<!-- Node8 -->
<g id="node8" class="node">
<title>Node8</title>
<g id="a_node8"><a xlink:title=" ">
<polygon fill="white" stroke="#bfbfbf" points="635,-230 635,-249 693,-249 693,-230 635,-230"/>
<text text-anchor="middle" x="664" y="-237" font-family="Helvetica,sans-Serif" font-size="10.00">json.hpp</text>
</a>
</g>
</g>
<!-- Node1&#45;&gt;Node8 -->
<g id="edge53" class="edge">
<title>Node1&#45;&gt;Node8</title>
<path fill="none" stroke="midnightblue" d="M661.66,-407.41C725.06,-399.09 817.21,-375.83 862,-311 919.06,-228.41 945.63,-322.77 707,-255 703.99,-254.15 700.88,-253.21 697.77,-252.23"/>
<polygon fill="midnightblue" stroke="midnightblue" points="698.57,-248.81 687.98,-249.04 696.4,-255.47 698.57,-248.81"/>
</g>
<!-- Node9 -->
<g id="node9" class="node">
<title>Node9</title>
<g id="a_node9"><a xlink:href="../../db/df1/Helpers_8h.html" target="_top" xlink:title="This file contains helper functions and structures used throughout the program.">
<polygon fill="white" stroke="black" points="353.5,-291.5 353.5,-310.5 416.5,-310.5 416.5,-291.5 353.5,-291.5"/>
<text text-anchor="middle" x="385" y="-298.5" font-family="Helvetica,sans-Serif" font-size="10.00">Helpers.h</text>
</a>
</g>
</g>
<!-- Node1&#45;&gt;Node9 -->
<g id="edge52" class="edge">
<title>Node1&#45;&gt;Node9</title>
<path fill="none" stroke="midnightblue" d="M528.28,-404.3C496.6,-398.12 459.53,-387 431,-367 413.89,-355.01 400.95,-334.52 393.22,-319.75"/>
<polygon fill="midnightblue" stroke="midnightblue" points="396.28,-318.03 388.71,-310.61 390,-321.13 396.28,-318.03"/>
</g>
<!-- Node6&#45;&gt;Node2 -->
<g id="edge49" class="edge">
<title>Node6&#45;&gt;Node2</title>
<path fill="none" stroke="midnightblue" d="M559.89,-347.37C540.86,-340.74 518.86,-329.49 507,-311 497.2,-295.72 497.74,-274.5 499.93,-259.34"/>
<polygon fill="midnightblue" stroke="midnightblue" points="503.45,-259.59 501.79,-249.13 496.56,-258.34 503.45,-259.59"/>
</g>
<!-- Node6&#45;&gt;Node3 -->
<g id="edge50" class="edge">
<title>Node6&#45;&gt;Node3</title>
<path fill="none" stroke="midnightblue" d="M578.15,-347.35C558.04,-335.77 528.5,-314.01 540,-291 551.93,-267.15 573.25,-277.22 588,-255 607.26,-225.99 607,-213.82 607,-179 607,-179 607,-179 607,-121 607,-84.3 632.32,-47.66 649.21,-27.3"/>
<polygon fill="midnightblue" stroke="midnightblue" points="651.95,-29.48 655.83,-19.62 646.65,-24.9 651.95,-29.48"/>
</g>
<!-- Node7 -->
<g id="node7" class="node">
<title>Node7</title>
<g id="a_node7"><a xlink:href="../../d2/d0e/CommandlineHelpers_8h.html" target="_top" xlink:title="This file contains helper functions for handling command line options and initializing the profiler.">
<polygon fill="white" stroke="black" points="721.5,-291.5 721.5,-310.5 852.5,-310.5 852.5,-291.5 721.5,-291.5"/>
<text text-anchor="middle" x="787" y="-298.5" font-family="Helvetica,sans-Serif" font-size="10.00">CommandlineHelpers.h</text>
</a>
</g>
</g>
<!-- Node6&#45;&gt;Node7 -->
<g id="edge6" class="edge">
<title>Node6&#45;&gt;Node7</title>
<path fill="none" stroke="midnightblue" d="M625.42,-347.44C658.28,-338.2 710.78,-323.44 746.97,-313.26"/>
<polygon fill="midnightblue" stroke="midnightblue" points="748.04,-316.59 756.72,-310.52 746.15,-309.85 748.04,-316.59"/>
</g>
<!-- Node6&#45;&gt;Node9 -->
<g id="edge10" class="edge">
<title>Node6&#45;&gt;Node9</title>
<path fill="none" stroke="midnightblue" d="M561.72,-347.44C525.13,-338.03 466.26,-322.89 426.63,-312.7"/>
<polygon fill="midnightblue" stroke="midnightblue" points="427.3,-309.26 416.74,-310.16 425.56,-316.04 427.3,-309.26"/>
</g>
<!-- Node12 -->
<g id="node12" class="node">
<title>Node12</title>
<g id="a_node12"><a xlink:href="../../df/d69/Profiler_8h.html" target="_top" xlink:title="This file contains the Profiler class which is used to profile the execution time of a function.">
<polygon fill="white" stroke="black" points="909.5,-291.5 909.5,-310.5 968.5,-310.5 968.5,-291.5 909.5,-291.5"/>
<text text-anchor="middle" x="939" y="-298.5" font-family="Helvetica,sans-Serif" font-size="10.00">Profiler.h</text>
</a>
</g>
</g>
<!-- Node6&#45;&gt;Node12 -->
<g id="edge18" class="edge">
<title>Node6&#45;&gt;Node12</title>
<path fill="none" stroke="midnightblue" d="M643.19,-348.43C711.68,-337.68 835.88,-318.19 899.34,-308.22"/>
<polygon fill="midnightblue" stroke="midnightblue" points="900.02,-311.66 909.36,-306.65 898.94,-304.75 900.02,-311.66"/>
</g>
<!-- Node28 -->
<g id="node28" class="node">
<title>Node28</title>
<g id="a_node28"><a xlink:title=" ">
<polygon fill="white" stroke="#bfbfbf" points="549,-291.5 549,-310.5 641,-310.5 641,-291.5 549,-291.5"/>
<text text-anchor="middle" x="595" y="-298.5" font-family="Helvetica,sans-Serif" font-size="10.00">project&#45;config.h</text>
</a>
</g>
</g>
<!-- Node6&#45;&gt;Node28 -->
<g id="edge48" class="edge">
<title>Node6&#45;&gt;Node28</title>
<path fill="none" stroke="midnightblue" d="M595,-347.08C595,-340.01 595,-329.86 595,-320.99"/>
<polygon fill="midnightblue" stroke="midnightblue" points="598.5,-320.75 595,-310.75 591.5,-320.75 598.5,-320.75"/>
</g>
<!-- Node29 -->
<g id="node29" class="node">
<title>Node29</title>
<g id="a_node29"><a xlink:title=" ">
<polygon fill="white" stroke="#bfbfbf" points="659,-291.5 659,-310.5 703,-310.5 703,-291.5 659,-291.5"/>
<text text-anchor="middle" x="681" y="-298.5" font-family="Helvetica,sans-Serif" font-size="10.00">string</text>
</a>
</g>
</g>
<!-- Node6&#45;&gt;Node29 -->
<g id="edge51" class="edge">
<title>Node6&#45;&gt;Node29</title>
<path fill="none" stroke="midnightblue" d="M608.82,-347.32C622.23,-338.9 642.82,-325.97 658.59,-316.07"/>
<polygon fill="midnightblue" stroke="midnightblue" points="660.61,-318.94 667.22,-310.65 656.89,-313.01 660.61,-318.94"/>
</g>
<!-- Node7&#45;&gt;Node1 -->
<g id="edge7" class="edge">
<title>Node7&#45;&gt;Node1</title>
<path fill="none" stroke="midnightblue" d="M772,-310.59C738.84,-329.59 659.05,-375.3 618.91,-398.3"/>
<polygon fill="midnightblue" stroke="midnightblue" points="617,-395.36 610.07,-403.37 620.48,-401.43 617,-395.36"/>
</g>
<!-- Node7&#45;&gt;Node2 -->
<g id="edge9" class="edge">
<title>Node7&#45;&gt;Node2</title>
<path fill="none" stroke="midnightblue" d="M746.45,-291.48C695.81,-280.83 609.16,-262.61 554.32,-251.08"/>
<polygon fill="midnightblue" stroke="midnightblue" points="554.98,-247.64 544.47,-249.01 553.54,-254.49 554.98,-247.64"/>
</g>
<!-- Node7&#45;&gt;Node8 -->
<g id="edge8" class="edge">
<title>Node7&#45;&gt;Node8</title>
<path fill="none" stroke="midnightblue" d="M769.38,-291.48C748.83,-281.53 714.64,-264.99 690.79,-253.46"/>
<polygon fill="midnightblue" stroke="midnightblue" points="692.12,-250.21 681.59,-249.01 689.07,-256.51 692.12,-250.21"/>
</g>
<!-- Node9&#45;&gt;Node2 -->
<g id="edge15" class="edge">
<title>Node9&#45;&gt;Node2</title>
<path fill="none" stroke="midnightblue" d="M402.05,-291.48C421.84,-281.58 454.72,-265.14 477.77,-253.62"/>
<polygon fill="midnightblue" stroke="midnightblue" points="479.6,-256.61 486.98,-249.01 476.47,-250.35 479.6,-256.61"/>
</g>
<!-- Node9&#45;&gt;Node3 -->
<g id="edge12" class="edge">
<title>Node9&#45;&gt;Node3</title>
<path fill="none" stroke="midnightblue" d="M382.3,-291.29C376.43,-271.53 363,-221.7 363,-179 363,-179 363,-179 363,-121 363,-66.11 541.81,-30.49 623.79,-17.04"/>
<polygon fill="midnightblue" stroke="midnightblue" points="624.44,-20.48 633.76,-15.43 623.33,-13.57 624.44,-20.48"/>
</g>
<!-- Node9&#45;&gt;Node4 -->
<g id="edge11" class="edge">
<title>Node9&#45;&gt;Node4</title>
<path fill="none" stroke="midnightblue" d="M386.61,-291.35C389.97,-275.65 399.24,-242.4 420,-224 609.71,-55.84 933.58,-20.24 1043.9,-12.87"/>
<polygon fill="midnightblue" stroke="midnightblue" points="1044.14,-16.36 1053.9,-12.24 1043.7,-9.38 1044.14,-16.36"/>
</g>
<!-- Node9&#45;&gt;Node5 -->
<g id="edge13" class="edge">
<title>Node9&#45;&gt;Node5</title>
<path fill="none" stroke="midnightblue" d="M353.27,-298.34C297.24,-294.73 177.56,-284.05 81,-255 79.12,-254.44 77.21,-253.77 75.31,-253.05"/>
<polygon fill="midnightblue" stroke="midnightblue" points="76.63,-249.81 66.06,-249.09 73.88,-256.25 76.63,-249.81"/>
</g>
<!-- Node9&#45;&gt;Node8 -->
<g id="edge14" class="edge">
<title>Node9&#45;&gt;Node8</title>
<path fill="none" stroke="midnightblue" d="M416.73,-293.23C468.1,-282.28 569.29,-260.7 624.98,-248.82"/>
<polygon fill="midnightblue" stroke="midnightblue" points="625.77,-252.23 634.82,-246.72 624.31,-245.38 625.77,-252.23"/>
</g>
<!-- Node10 -->
<g id="node10" class="node">
<title>Node10</title>
<g id="a_node10"><a xlink:title=" ">
<polygon fill="white" stroke="#bfbfbf" points="90.5,-224.5 90.5,-254.5 203.5,-254.5 203.5,-224.5 90.5,-224.5"/>
<text text-anchor="start" x="98.5" y="-242.5" font-family="Helvetica,sans-Serif" font-size="10.00">boost/accumulators</text>
<text text-anchor="middle" x="147" y="-231.5" font-family="Helvetica,sans-Serif" font-size="10.00">/accumulators.hpp</text>
</a>
</g>
</g>
<!-- Node9&#45;&gt;Node10 -->
<g id="edge16" class="edge">
<title>Node9&#45;&gt;Node10</title>
<path fill="none" stroke="midnightblue" d="M353.4,-292.1C317.82,-283.2 259.02,-268.5 213.26,-257.06"/>
<polygon fill="midnightblue" stroke="midnightblue" points="213.96,-253.63 203.41,-254.6 212.26,-260.42 213.96,-253.63"/>
</g>
<!-- Node11 -->
<g id="node11" class="node">
<title>Node11</title>
<g id="a_node11"><a xlink:title=" ">
<polygon fill="white" stroke="#bfbfbf" points="221.5,-224.5 221.5,-254.5 334.5,-254.5 334.5,-224.5 221.5,-224.5"/>
<text text-anchor="start" x="229.5" y="-242.5" font-family="Helvetica,sans-Serif" font-size="10.00">boost/accumulators</text>
<text text-anchor="middle" x="278" y="-231.5" font-family="Helvetica,sans-Serif" font-size="10.00">/statistics.hpp</text>
</a>
</g>
</g>
<!-- Node9&#45;&gt;Node11 -->
<g id="edge17" class="edge">
<title>Node9&#45;&gt;Node11</title>
<path fill="none" stroke="midnightblue" d="M369.67,-291.48C354.7,-283.15 331.42,-270.21 312.07,-259.45"/>
<polygon fill="midnightblue" stroke="midnightblue" points="313.66,-256.32 303.22,-254.52 310.26,-262.44 313.66,-256.32"/>
</g>
<!-- Node12&#45;&gt;Node1 -->
<g id="edge25" class="edge">
<title>Node12&#45;&gt;Node1</title>
<path fill="none" stroke="midnightblue" d="M935.74,-310.89C929.95,-325.3 916.44,-353.49 895,-367 858.86,-389.77 748.06,-401.75 671.74,-407.48"/>
<polygon fill="midnightblue" stroke="midnightblue" points="671.39,-403.99 661.67,-408.21 671.9,-410.97 671.39,-403.99"/>
</g>
<!-- Node12&#45;&gt;Node3 -->
<g id="edge22" class="edge">
<title>Node12&#45;&gt;Node3</title>
<path fill="none" stroke="midnightblue" d="M909.37,-295.06C856.92,-286.05 752.09,-266.82 740,-255 715.1,-230.66 721,-213.82 721,-179 721,-179 721,-179 721,-121 721,-84.3 695.68,-47.66 678.79,-27.3"/>
<polygon fill="midnightblue" stroke="midnightblue" points="681.35,-24.9 672.17,-19.62 676.05,-29.48 681.35,-24.9"/>
</g>
<!-- Node12&#45;&gt;Node4 -->
<g id="edge21" class="edge">
<title>Node12&#45;&gt;Node4</title>
<path fill="none" stroke="midnightblue" d="M968.65,-294.78C992.41,-289.05 1024.84,-277.5 1044,-255 1066.57,-228.49 1063,-213.82 1063,-179 1063,-179 1063,-179 1063,-121 1063,-88.49 1071.16,-51.35 1076.78,-29.61"/>
<polygon fill="midnightblue" stroke="midnightblue" points="1080.22,-30.32 1079.44,-19.75 1073.46,-28.5 1080.22,-30.32"/>
</g>
<!-- Node12&#45;&gt;Node8 -->
<g id="edge28" class="edge">
<title>Node12&#45;&gt;Node8</title>
<path fill="none" stroke="midnightblue" d="M909.19,-293.85C904.44,-292.89 899.59,-291.91 895,-291 811.55,-274.48 789.27,-276.64 707,-255 703.8,-254.16 700.49,-253.2 697.2,-252.19"/>
<polygon fill="midnightblue" stroke="midnightblue" points="698.07,-248.8 687.48,-249.06 695.93,-255.46 698.07,-248.8"/>
</g>
<!-- Node13 -->
<g id="node13" class="node">
<title>Node13</title>
<g id="a_node13"><a xlink:title=" ">
<polygon fill="white" stroke="#bfbfbf" points="979.5,-230 979.5,-249 1034.5,-249 1034.5,-230 979.5,-230"/>
<text text-anchor="middle" x="1007" y="-237" font-family="Helvetica,sans-Serif" font-size="10.00">fstream</text>
</a>
</g>
</g>
<!-- Node12&#45;&gt;Node13 -->
<g id="edge19" class="edge">
<title>Node12&#45;&gt;Node13</title>
<path fill="none" stroke="midnightblue" d="M948.74,-291.48C959.35,-282.2 976.52,-267.17 989.48,-255.83"/>
<polygon fill="midnightblue" stroke="midnightblue" points="992.05,-258.23 997.28,-249.01 987.44,-252.96 992.05,-258.23"/>
</g>
<!-- Node14 -->
<g id="node14" class="node">
<title>Node14</title>
<g id="a_node14"><a xlink:title=" ">
<polygon fill="white" stroke="#bfbfbf" points="1091.5,-230 1091.5,-249 1156.5,-249 1156.5,-230 1091.5,-230"/>
<text text-anchor="middle" x="1124" y="-237" font-family="Helvetica,sans-Serif" font-size="10.00">functional</text>
</a>
</g>
</g>
<!-- Node12&#45;&gt;Node14 -->
<g id="edge20" class="edge">
<title>Node12&#45;&gt;Node14</title>
<path fill="none" stroke="midnightblue" d="M965.51,-291.48C997.65,-281.14 1051.99,-263.66 1087.93,-252.1"/>
<polygon fill="midnightblue" stroke="midnightblue" points="1089.1,-255.4 1097.54,-249.01 1086.95,-248.74 1089.1,-255.4"/>
</g>
<!-- Node15 -->
<g id="node15" class="node">
<title>Node15</title>
<g id="a_node15"><a xlink:title=" ">
<polygon fill="white" stroke="#bfbfbf" points="749,-230 749,-249 803,-249 803,-230 749,-230"/>
<text text-anchor="middle" x="776" y="-237" font-family="Helvetica,sans-Serif" font-size="10.00">random</text>
</a>
</g>
</g>
<!-- Node12&#45;&gt;Node15 -->
<g id="edge23" class="edge">
<title>Node12&#45;&gt;Node15</title>
<path fill="none" stroke="midnightblue" d="M914.29,-291.43C888.83,-282.53 848.02,-268.11 813,-255 811.11,-254.29 809.17,-253.56 807.21,-252.81"/>
<polygon fill="midnightblue" stroke="midnightblue" points="808.07,-249.39 797.48,-249.05 805.54,-255.92 808.07,-249.39"/>
</g>
<!-- Node16 -->
<g id="node16" class="node">
<title>Node16</title>
<g id="a_node16"><a xlink:title=" ">
<polygon fill="white" stroke="#bfbfbf" points="821.5,-230 821.5,-249 866.5,-249 866.5,-230 821.5,-230"/>
<text text-anchor="middle" x="844" y="-237" font-family="Helvetica,sans-Serif" font-size="10.00">utility</text>
</a>
</g>
</g>
<!-- Node12&#45;&gt;Node16 -->
<g id="edge24" class="edge">
<title>Node12&#45;&gt;Node16</title>
<path fill="none" stroke="midnightblue" d="M925.39,-291.48C909.94,-281.8 884.51,-265.87 866.18,-254.39"/>
<polygon fill="midnightblue" stroke="midnightblue" points="867.92,-251.35 857.59,-249.01 864.2,-257.28 867.92,-251.35"/>
</g>
<!-- Node17 -->
<g id="node17" class="node">
<title>Node17</title>
<g id="a_node17"><a xlink:href="../../d4/d2e/Stopwatch_8h.html" target="_top" xlink:title="This file contains the Stopwatch class which is a utility for measuring time durations in various uni...">
<polygon fill="white" stroke="black" points="884.5,-230 884.5,-249 961.5,-249 961.5,-230 884.5,-230"/>
<text text-anchor="middle" x="923" y="-237" font-family="Helvetica,sans-Serif" font-size="10.00">Stopwatch.h</text>
</a>
</g>
</g>
<!-- Node12&#45;&gt;Node17 -->
<g id="edge26" class="edge">
<title>Node12&#45;&gt;Node17</title>
<path fill="none" stroke="midnightblue" d="M936.71,-291.48C934.43,-282.99 930.85,-269.7 927.93,-258.82"/>
<polygon fill="midnightblue" stroke="midnightblue" points="931.26,-257.76 925.29,-249.01 924.51,-259.57 931.26,-257.76"/>
</g>
<!-- Node19 -->
<g id="node19" class="node">
<title>Node19</title>
<g id="a_node19"><a xlink:href="../../dc/d09/Stats_8h.html" target="_top" xlink:title="This file contains the declaration of statistical functions and structures for vectors and matrices.">
<polygon fill="white" stroke="black" points="1252,-230 1252,-249 1354,-249 1354,-230 1252,-230"/>
<text text-anchor="middle" x="1303" y="-237" font-family="Helvetica,sans-Serif" font-size="10.00">math/blas/Stats.h</text>
</a>
</g>
</g>
<!-- Node12&#45;&gt;Node19 -->
<g id="edge29" class="edge">
<title>Node12&#45;&gt;Node19</title>
<path fill="none" stroke="midnightblue" d="M968.79,-295.13C1028.18,-285.42 1162.41,-263.48 1241.51,-250.55"/>
<polygon fill="midnightblue" stroke="midnightblue" points="1242.51,-253.93 1251.81,-248.87 1241.38,-247.03 1242.51,-253.93"/>
</g>
<!-- Node18 -->
<g id="node18" class="node">
<title>Node18</title>
<g id="a_node18"><a xlink:title=" ">
<polygon fill="white" stroke="#bfbfbf" points="898,-168.5 898,-187.5 948,-187.5 948,-168.5 898,-168.5"/>
<text text-anchor="middle" x="923" y="-175.5" font-family="Helvetica,sans-Serif" font-size="10.00">chrono</text>
</a>
</g>
</g>
<!-- Node17&#45;&gt;Node18 -->
<g id="edge27" class="edge">
<title>Node17&#45;&gt;Node18</title>
<path fill="none" stroke="midnightblue" d="M923,-229.98C923,-221.58 923,-208.48 923,-197.66"/>
<polygon fill="midnightblue" stroke="midnightblue" points="926.5,-197.51 923,-187.51 919.5,-197.51 926.5,-197.51"/>
</g>
<!-- Node20 -->
<g id="node20" class="node">
<title>Node20</title>
<g id="a_node20"><a xlink:title=" ">
<polygon fill="white" stroke="#bfbfbf" points="1387,-56.5 1387,-75.5 1451,-75.5 1451,-56.5 1387,-56.5"/>
<text text-anchor="middle" x="1419" y="-63.5" font-family="Helvetica,sans-Serif" font-size="10.00">algorithm</text>
</a>
</g>
</g>
<!-- Node19&#45;&gt;Node20 -->
<g id="edge30" class="edge">
<title>Node19&#45;&gt;Node20</title>
<path fill="none" stroke="midnightblue" d="M1354.16,-232.39C1382.15,-226.15 1414.58,-213.53 1432,-188 1453.35,-156.71 1438.42,-109.9 1427.55,-84.65"/>
<polygon fill="midnightblue" stroke="midnightblue" points="1430.73,-83.19 1423.4,-75.54 1424.36,-86.09 1430.73,-83.19"/>
</g>
<!-- Node21 -->
<g id="node21" class="node">
<title>Node21</title>
<g id="a_node21"><a xlink:title=" ">
<polygon fill="white" stroke="#bfbfbf" points="1167.5,-112.5 1167.5,-131.5 1214.5,-131.5 1214.5,-112.5 1167.5,-112.5"/>
<text text-anchor="middle" x="1191" y="-119.5" font-family="Helvetica,sans-Serif" font-size="10.00">cmath</text>
</a>
</g>
</g>
<!-- Node19&#45;&gt;Node21 -->
<g id="edge31" class="edge">
<title>Node19&#45;&gt;Node21</title>
<path fill="none" stroke="midnightblue" d="M1263.32,-229.97C1240.1,-222.81 1212.4,-210.07 1197,-188 1187.69,-174.65 1186.94,-155.82 1188.07,-141.87"/>
<polygon fill="midnightblue" stroke="midnightblue" points="1191.55,-142.26 1189.26,-131.91 1184.6,-141.43 1191.55,-142.26"/>
</g>
<!-- Node22 -->
<g id="node22" class="node">
<title>Node22</title>
<g id="a_node22"><a xlink:title=" ">
<polygon fill="white" stroke="#bfbfbf" points="1275,-168.5 1275,-187.5 1331,-187.5 1331,-168.5 1275,-168.5"/>
<text text-anchor="middle" x="1303" y="-175.5" font-family="Helvetica,sans-Serif" font-size="10.00">numeric</text>
</a>
</g>
</g>
<!-- Node19&#45;&gt;Node22 -->
<g id="edge32" class="edge">
<title>Node19&#45;&gt;Node22</title>
<path fill="none" stroke="midnightblue" d="M1303,-229.98C1303,-221.58 1303,-208.48 1303,-197.66"/>
<polygon fill="midnightblue" stroke="midnightblue" points="1306.5,-197.51 1303,-187.51 1299.5,-197.51 1306.5,-197.51"/>
</g>
<!-- Node23 -->
<g id="node23" class="node">
<title>Node23</title>
<g id="a_node23"><a xlink:title=" ">
<polygon fill="white" stroke="#bfbfbf" points="1349.5,-168.5 1349.5,-187.5 1406.5,-187.5 1406.5,-168.5 1349.5,-168.5"/>
<text text-anchor="middle" x="1378" y="-175.5" font-family="Helvetica,sans-Serif" font-size="10.00">ostream</text>
</a>
</g>
</g>
<!-- Node19&#45;&gt;Node23 -->
<g id="edge33" class="edge">
<title>Node19&#45;&gt;Node23</title>
<path fill="none" stroke="midnightblue" d="M1313.75,-229.98C1325.55,-220.61 1344.74,-205.38 1359.08,-194.01"/>
<polygon fill="midnightblue" stroke="midnightblue" points="1361.62,-196.47 1367.27,-187.51 1357.26,-190.98 1361.62,-196.47"/>
</g>
<!-- Node24 -->
<g id="node24" class="node">
<title>Node24</title>
<g id="a_node24"><a xlink:title=" ">
<polygon fill="white" stroke="#bfbfbf" points="1302.5,-0.5 1302.5,-19.5 1349.5,-19.5 1349.5,-0.5 1302.5,-0.5"/>
<text text-anchor="middle" x="1326" y="-7.5" font-family="Helvetica,sans-Serif" font-size="10.00">vector</text>
</a>
</g>
</g>
<!-- Node19&#45;&gt;Node24 -->
<g id="edge34" class="edge">
<title>Node19&#45;&gt;Node24</title>
<path fill="none" stroke="midnightblue" d="M1354.34,-234.72C1387,-229.43 1427.29,-217 1450,-188 1480.82,-148.66 1457.78,-125.93 1460,-76 1460.4,-67.12 1465.19,-63.22 1460,-56 1437.35,-24.49 1391.55,-14.74 1359.85,-11.89"/>
<polygon fill="midnightblue" stroke="midnightblue" points="1359.92,-8.38 1349.69,-11.16 1359.42,-15.37 1359.92,-8.38"/>
</g>
<!-- Node25 -->
<g id="node25" class="node">
<title>Node25</title>
<g id="a_node25"><a xlink:href="../../d1/d80/BLAS_8h.html" target="_top" xlink:title=" ">
<polygon fill="white" stroke="black" points="1205.5,-168.5 1205.5,-187.5 1256.5,-187.5 1256.5,-168.5 1205.5,-168.5"/>
<text text-anchor="middle" x="1231" y="-175.5" font-family="Helvetica,sans-Serif" font-size="10.00">BLAS.h</text>
</a>
</g>
</g>
<!-- Node19&#45;&gt;Node25 -->
<g id="edge35" class="edge">
<title>Node19&#45;&gt;Node25</title>
<path fill="none" stroke="midnightblue" d="M1292.68,-229.98C1281.35,-220.61 1262.93,-205.38 1249.16,-194.01"/>
<polygon fill="midnightblue" stroke="midnightblue" points="1251.23,-191.18 1241.3,-187.51 1246.78,-196.58 1251.23,-191.18"/>
</g>
<!-- Node26 -->
<g id="node26" class="node">
<title>Node26</title>
<g id="a_node26"><a xlink:href="../../d3/db1/Matrix_8h.html" target="_top" xlink:title="This file contains my BLAS::Matrix declarations.">
<polygon fill="white" stroke="black" points="1271.5,-112.5 1271.5,-131.5 1380.5,-131.5 1380.5,-112.5 1271.5,-112.5"/>
<text text-anchor="middle" x="1326" y="-119.5" font-family="Helvetica,sans-Serif" font-size="10.00">math/blas/Matrix.h</text>
</a>
</g>
</g>
<!-- Node19&#45;&gt;Node26 -->
<g id="edge46" class="edge">
<title>Node19&#45;&gt;Node26</title>
<path fill="none" stroke="midnightblue" d="M1350.3,-229.98C1374.32,-223 1401.45,-210.45 1416,-188 1431.66,-163.85 1398.42,-145.76 1368.01,-134.87"/>
<polygon fill="midnightblue" stroke="midnightblue" points="1368.89,-131.48 1358.3,-131.59 1366.65,-138.11 1368.89,-131.48"/>
</g>
<!-- Node27 -->
<g id="node27" class="node">
<title>Node27</title>
<g id="a_node27"><a xlink:href="../../d6/dbe/Vector_8h.html" target="_top" xlink:title="This file contains my BLAS::Vector implementation.">
<polygon fill="white" stroke="black" points="1135.5,-56.5 1135.5,-75.5 1242.5,-75.5 1242.5,-56.5 1135.5,-56.5"/>
<text text-anchor="middle" x="1189" y="-63.5" font-family="Helvetica,sans-Serif" font-size="10.00">math/blas/Vector.h</text>
</a>
</g>
</g>
<!-- Node19&#45;&gt;Node27 -->
<g id="edge47" class="edge">
<title>Node19&#45;&gt;Node27</title>
<path fill="none" stroke="midnightblue" d="M1265.24,-229.93C1239.87,-222.51 1207.15,-209.49 1185,-188 1159.38,-163.14 1148.65,-146.17 1159,-112 1162.12,-101.7 1168.45,-91.61 1174.5,-83.6"/>
<polygon fill="midnightblue" stroke="midnightblue" points="1177.23,-85.8 1180.79,-75.82 1171.78,-81.4 1177.23,-85.8"/>
</g>
<!-- Node25&#45;&gt;Node21 -->
<g id="edge36" class="edge">
<title>Node25&#45;&gt;Node21</title>
<path fill="none" stroke="midnightblue" d="M1224.39,-168.08C1218.74,-160.46 1210.46,-149.26 1203.55,-139.94"/>
<polygon fill="midnightblue" stroke="midnightblue" points="1206.25,-137.7 1197.48,-131.75 1200.62,-141.87 1206.25,-137.7"/>
</g>
<!-- Node25&#45;&gt;Node26 -->
<g id="edge37" class="edge">
<title>Node25&#45;&gt;Node26</title>
<path fill="none" stroke="midnightblue" d="M1246.26,-168.32C1261.22,-159.82 1284.25,-146.73 1301.73,-136.8"/>
<polygon fill="midnightblue" stroke="midnightblue" points="1303.81,-139.64 1310.77,-131.65 1300.35,-133.55 1303.81,-139.64"/>
</g>
<!-- Node25&#45;&gt;Node27 -->
<g id="edge45" class="edge">
<title>Node25&#45;&gt;Node27</title>
<path fill="none" stroke="midnightblue" d="M1231.54,-168.22C1232.01,-155.38 1231.66,-130.94 1224,-112 1219.71,-101.38 1212.14,-91.16 1205.13,-83.15"/>
<polygon fill="midnightblue" stroke="midnightblue" points="1207.57,-80.63 1198.2,-75.68 1202.44,-85.39 1207.57,-80.63"/>
</g>
<!-- Node26&#45;&gt;Node3 -->
<g id="edge39" class="edge">
<title>Node26&#45;&gt;Node3</title>
<path fill="none" stroke="midnightblue" d="M1319.38,-112.32C1307.65,-97.68 1281.63,-68.48 1252,-56 1152.84,-14.24 820.13,-10.72 704.22,-10.8"/>
<polygon fill="midnightblue" stroke="midnightblue" points="704.01,-7.3 694.02,-10.81 704.02,-14.3 704.01,-7.3"/>
</g>
<!-- Node26&#45;&gt;Node20 -->
<g id="edge38" class="edge">
<title>Node26&#45;&gt;Node20</title>
<path fill="none" stroke="midnightblue" d="M1340.94,-112.32C1355.59,-103.82 1378.13,-90.73 1395.24,-80.8"/>
<polygon fill="midnightblue" stroke="midnightblue" points="1397.2,-83.7 1404.1,-75.65 1393.69,-77.65 1397.2,-83.7"/>
</g>
<!-- Node26&#45;&gt;Node24 -->
<g id="edge40" class="edge">
<title>Node26&#45;&gt;Node24</title>
<path fill="none" stroke="midnightblue" d="M1326,-112.37C1326,-94.62 1326,-53.67 1326,-29.6"/>
<polygon fill="midnightblue" stroke="midnightblue" points="1329.5,-29.59 1326,-19.59 1322.5,-29.59 1329.5,-29.59"/>
</g>
<!-- Node26&#45;&gt;Node27 -->
<g id="edge41" class="edge">
<title>Node26&#45;&gt;Node27</title>
<path fill="none" stroke="midnightblue" d="M1304.29,-112.44C1281.65,-103.52 1245.93,-89.44 1220.25,-79.32"/>
<polygon fill="midnightblue" stroke="midnightblue" points="1221.19,-75.93 1210.61,-75.52 1218.63,-82.44 1221.19,-75.93"/>
</g>
<!-- Node27&#45;&gt;Node3 -->
<g id="edge43" class="edge">
<title>Node27&#45;&gt;Node3</title>
<path fill="none" stroke="midnightblue" d="M1135.28,-59.47C1029.85,-48.63 797.94,-24.78 704.35,-15.15"/>
<polygon fill="midnightblue" stroke="midnightblue" points="704.47,-11.64 694.16,-14.1 703.75,-18.61 704.47,-11.64"/>
</g>
<!-- Node27&#45;&gt;Node4 -->
<g id="edge42" class="edge">
<title>Node27&#45;&gt;Node4</title>
<path fill="none" stroke="midnightblue" d="M1171.81,-56.32C1154.65,-47.66 1128.05,-34.24 1108.25,-24.25"/>
<polygon fill="midnightblue" stroke="midnightblue" points="1109.65,-21.04 1099.15,-19.65 1106.5,-27.28 1109.65,-21.04"/>
</g>
<!-- Node27&#45;&gt;Node24 -->
<g id="edge44" class="edge">
<title>Node27&#45;&gt;Node24</title>
<path fill="none" stroke="midnightblue" d="M1210.71,-56.44C1233.35,-47.52 1269.07,-33.44 1294.75,-23.32"/>
<polygon fill="midnightblue" stroke="midnightblue" points="1296.37,-26.44 1304.39,-19.52 1293.81,-19.93 1296.37,-26.44"/>
</g>
</g>
</svg>
        <g id="navigator" transform="translate(0 0)" fill="#404254">
                <rect fill="#f2f5e9" fill-opacity="0.5" stroke="#606060" stroke-width=".5" x="0" y="0" width="60" height="60"/>
                <use id="zoomplus" xlink:href="#zoomPlus" x="17" y="9" onmousedown="handleZoom(evt,'in')"/>
                <use id="zoomminus" xlink:href="#zoomMin" x="42" y="9" onmousedown="handleZoom(evt,'out')"/>
                <use id="reset" xlink:href="#resetDef" x="30" y="36" onmousedown="handleReset()"/>
                <g id="arrowUp" xlink:href="#dirArrow" transform="translate(30 24)" onmousedown="handlePan(0,-1)">
                  <use xlink:href="#rim" fill="#404040">
                        <set attributeName="fill" to="#808080" begin="arrowUp.mouseover" end="arrowUp.mouseout"/>
                  </use>
                  <path fill="none" stroke="white" stroke-width="1.5" d="M0,-3.0v7 M-2.5,-0.5L0,-3.0L2.5,-0.5"/>
                </g>
                <g id="arrowRight" xlink:href="#dirArrow" transform="rotate(90) translate(36 -43)" onmousedown="handlePan(1,0)">
                  <use xlink:href="#rim" fill="#404040">
                        <set attributeName="fill" to="#808080" begin="arrowRight.mouseover" end="arrowRight.mouseout"/>
                  </use>
                  <path fill="none" stroke="white" stroke-width="1.5" d="M0,-3.0v7 M-2.5,-0.5L0,-3.0L2.5,-0.5"/>
                </g>
                <g id="arrowDown" xlink:href="#dirArrow" transform="rotate(180) translate(-30 -48)" onmousedown="handlePan(0,1)">
                  <use xlink:href="#rim" fill="#404040">
                        <set attributeName="fill" to="#808080" begin="arrowDown.mouseover" end="arrowDown.mouseout"/>
                  </use>
                  <path fill="none" stroke="white" stroke-width="1.5" d="M0,-3.0v7 M-2.5,-0.5L0,-3.0L2.5,-0.5"/>
                </g>
                <g id="arrowLeft" xlink:href="#dirArrow" transform="rotate(270) translate(-36 17)" onmousedown="handlePan(-1,0)">
                  <use xlink:href="#rim" fill="#404040">
                        <set attributeName="fill" to="#808080" begin="arrowLeft.mouseover" end="arrowLeft.mouseout"/>
                  </use>
                  <path fill="none" stroke="white" stroke-width="1.5" d="M0,-3.0v7 M-2.5,-0.5L0,-3.0L2.5,-0.5"/>
                </g>
        </g>
        <svg viewBox="0 0 15 15" width="100%" height="30px" preserveAspectRatio="xMaxYMin meet">
         <g id="arrow_out" transform="scale(0.3 0.3)">
          <a xlink:href="CheckBounds_8h__incl_org.svg" target="_base">
           <rect id="button" ry="5" rx="5" y="6" x="6" height="38" width="38"
                fill="#f2f5e9" fill-opacity="0.5" stroke="#606060" stroke-width="1.0"/>
           <path id="arrow"
             d="M 11.500037,31.436501 C 11.940474,20.09759 22.043105,11.32322 32.158766,21.979434 L 37.068811,17.246167 C 37.068811,17.246167 37.088388,32 37.088388,32 L 22.160133,31.978069 C 22.160133,31.978069 26.997745,27.140456 26.997745,27.140456 C 18.528582,18.264221 13.291696,25.230495 11.500037,31.436501 z"
             style="fill:#404040;"/>
          </a>
         </g>
        </svg>
</svg>
