<?xml version="1.0" encoding="UTF-8" standalone="no"?>
<!DOCTYPE svg PUBLIC "-//W3C//DTD SVG 1.1//EN"
 "http://www.w3.org/Graphics/SVG/1.1/DTD/svg11.dtd">
<!-- Generated by graphviz version 2.43.0 (0)
 -->
<!-- Title: MyPhysics::Diffusion::Matrix&lt; MyBLAS::Matrix&lt; T &gt; &gt;::Matrix Pages: 1 -->
<svg width="305pt" height="235pt"
 viewBox="0.00 0.00 305.00 235.00" xmlns="http://www.w3.org/2000/svg" xmlns:xlink="http://www.w3.org/1999/xlink">
<g id="graph0" class="graph" transform="scale(1 1) rotate(0) translate(4 231)">
<title>MyPhysics::Diffusion::Matrix&lt; MyBLAS::Matrix&lt; T &gt; &gt;::Matrix</title>
<polygon fill="white" stroke="transparent" points="-4,4 -4,-231 301,-231 301,4 -4,4"/>
<!-- Node1 -->
<g id="node1" class="node">
<title>Node1</title>
<g id="a_node1"><a xlink:title=" ">
<polygon fill="#bfbfbf" stroke="black" points="0,-93 0,-134 143,-134 143,-93 0,-93"/>
<text text-anchor="start" x="8" y="-122" font-family="Helvetica,sans-Serif" font-size="10.00">MyPhysics::Diffusion</text>
<text text-anchor="start" x="8" y="-111" font-family="Helvetica,sans-Serif" font-size="10.00">::Matrix&lt; MyBLAS::Matrix</text>
<text text-anchor="middle" x="71.5" y="-100" font-family="Helvetica,sans-Serif" font-size="10.00">&lt; T &gt; &gt;::Matrix</text>
</a>
</g>
</g>
<!-- Node2 -->
<g id="node2" class="node">
<title>Node2</title>
<g id="a_node2"><a xlink:href="../../d6/d0c/structMyPhysics_1_1Diffusion_1_1Params.html#a4baf3f31fe7d8290e9b83a5d50832293" target="_top" xlink:title="Get the number of mesh points in the x&#45;direction.">
<polygon fill="white" stroke="black" points="179,-196.5 179,-226.5 297,-226.5 297,-196.5 179,-196.5"/>
<text text-anchor="start" x="187" y="-214.5" font-family="Helvetica,sans-Serif" font-size="10.00">MyPhysics::Diffusion</text>
<text text-anchor="middle" x="238" y="-203.5" font-family="Helvetica,sans-Serif" font-size="10.00">::Params::getM</text>
</a>
</g>
</g>
<!-- Node1&#45;&gt;Node2 -->
<g id="edge1" class="edge">
<title>Node1&#45;&gt;Node2</title>
<path fill="none" stroke="midnightblue" d="M98.61,-134.02C119.57,-149.89 150.15,-171.75 179,-187.5 182.01,-189.14 185.15,-190.74 188.36,-192.29"/>
<polygon fill="midnightblue" stroke="midnightblue" points="186.92,-195.48 197.47,-196.48 189.85,-189.12 186.92,-195.48"/>
</g>
<!-- Node3 -->
<g id="node3" class="node">
<title>Node3</title>
<g id="a_node3"><a xlink:href="../../d6/d0c/structMyPhysics_1_1Diffusion_1_1Params.html#af03d96d9d471d6953b819b548bb633d9" target="_top" xlink:title="Get the number of mesh points in the y&#45;direction.">
<polygon fill="white" stroke="black" points="179,-147.5 179,-177.5 297,-177.5 297,-147.5 179,-147.5"/>
<text text-anchor="start" x="187" y="-165.5" font-family="Helvetica,sans-Serif" font-size="10.00">MyPhysics::Diffusion</text>
<text text-anchor="middle" x="238" y="-154.5" font-family="Helvetica,sans-Serif" font-size="10.00">::Params::getN</text>
</a>
</g>
</g>
<!-- Node1&#45;&gt;Node3 -->
<g id="edge2" class="edge">
<title>Node1&#45;&gt;Node3</title>
<path fill="none" stroke="midnightblue" d="M141.79,-134.14C153.33,-137.58 165.23,-141.12 176.53,-144.49"/>
<polygon fill="midnightblue" stroke="midnightblue" points="175.7,-147.89 186.29,-147.39 177.7,-141.18 175.7,-147.89"/>
</g>
<!-- Node4 -->
<g id="node4" class="node">
<title>Node4</title>
<g id="a_node4"><a xlink:href="../../d0/d28/classMyBLAS_1_1LazyMatrix.html#a03ded3b6b923777cb3b1dbd0eacc2469" target="_top" xlink:title=" ">
<polygon fill="white" stroke="black" points="179.5,-98.5 179.5,-128.5 296.5,-128.5 296.5,-98.5 179.5,-98.5"/>
<text text-anchor="start" x="187.5" y="-116.5" font-family="Helvetica,sans-Serif" font-size="10.00">MyBLAS::LazyMatrix</text>
<text text-anchor="middle" x="238" y="-105.5" font-family="Helvetica,sans-Serif" font-size="10.00">&lt; T &gt;::setCols</text>
</a>
</g>
</g>
<!-- Node1&#45;&gt;Node4 -->
<g id="edge3" class="edge">
<title>Node1&#45;&gt;Node4</title>
<path fill="none" stroke="midnightblue" d="M143.22,-113.5C151.92,-113.5 160.79,-113.5 169.44,-113.5"/>
<polygon fill="midnightblue" stroke="midnightblue" points="169.47,-117 179.47,-113.5 169.47,-110 169.47,-117"/>
</g>
<!-- Node5 -->
<g id="node5" class="node">
<title>Node5</title>
<g id="a_node5"><a xlink:href="../../d0/d28/classMyBLAS_1_1LazyMatrix.html#a221cf0cda155cf5fc252f42c319ab1df" target="_top" xlink:title=" ">
<polygon fill="white" stroke="black" points="179.5,-49.5 179.5,-79.5 296.5,-79.5 296.5,-49.5 179.5,-49.5"/>
<text text-anchor="start" x="187.5" y="-67.5" font-family="Helvetica,sans-Serif" font-size="10.00">MyBLAS::LazyMatrix</text>
<text text-anchor="middle" x="238" y="-56.5" font-family="Helvetica,sans-Serif" font-size="10.00">&lt; T &gt;::setGenerator</text>
</a>
</g>
</g>
<!-- Node1&#45;&gt;Node5 -->
<g id="edge4" class="edge">
<title>Node1&#45;&gt;Node5</title>
<path fill="none" stroke="midnightblue" d="M141.79,-92.86C153.33,-89.42 165.23,-85.88 176.53,-82.51"/>
<polygon fill="midnightblue" stroke="midnightblue" points="177.7,-85.82 186.29,-79.61 175.7,-79.11 177.7,-85.82"/>
</g>
<!-- Node6 -->
<g id="node6" class="node">
<title>Node6</title>
<g id="a_node6"><a xlink:href="../../d0/d28/classMyBLAS_1_1LazyMatrix.html#a5950f1f4d71a26d7df7c447578f97aa2" target="_top" xlink:title=" ">
<polygon fill="white" stroke="black" points="179.5,-0.5 179.5,-30.5 296.5,-30.5 296.5,-0.5 179.5,-0.5"/>
<text text-anchor="start" x="187.5" y="-18.5" font-family="Helvetica,sans-Serif" font-size="10.00">MyBLAS::LazyMatrix</text>
<text text-anchor="middle" x="238" y="-7.5" font-family="Helvetica,sans-Serif" font-size="10.00">&lt; T &gt;::setRows</text>
</a>
</g>
</g>
<!-- Node1&#45;&gt;Node6 -->
<g id="edge5" class="edge">
<title>Node1&#45;&gt;Node6</title>
<path fill="none" stroke="midnightblue" d="M99.59,-92.76C120.57,-77.24 150.73,-56.09 179,-40.5 182.47,-38.59 186.11,-36.72 189.81,-34.92"/>
<polygon fill="midnightblue" stroke="midnightblue" points="191.47,-38 199.05,-30.6 188.51,-31.66 191.47,-38"/>
</g>
</g>
</svg>
