<?xml version="1.0" encoding="UTF-8" standalone="no"?>
<!DOCTYPE svg PUBLIC "-//W3C//DTD SVG 1.1//EN"
 "http://www.w3.org/Graphics/SVG/1.1/DTD/svg11.dtd">
<!-- Generated by graphviz version 2.43.0 (0)
 -->
<!-- Title: src/project/project1/InputsOutputs.h Pages: 1 -->
<svg width="952pt" height="509pt"
 viewBox="0.00 0.00 951.50 509.00" xmlns="http://www.w3.org/2000/svg" xmlns:xlink="http://www.w3.org/1999/xlink">
<g id="graph0" class="graph" transform="scale(1 1) rotate(0) translate(4 505)">
<title>src/project/project1/InputsOutputs.h</title>
<polygon fill="white" stroke="transparent" points="-4,4 -4,-505 947.5,-505 947.5,4 -4,4"/>
<!-- Node1 -->
<g id="node1" class="node">
<title>Node1</title>
<g id="a_node1"><a xlink:title="This file contains the input and output definitions for this project.">
<polygon fill="#bfbfbf" stroke="black" points="151.5,-470.5 151.5,-500.5 261.5,-500.5 261.5,-470.5 151.5,-470.5"/>
<text text-anchor="start" x="159.5" y="-488.5" font-family="Helvetica,sans-Serif" font-size="10.00">src/project/project1</text>
<text text-anchor="middle" x="206.5" y="-477.5" font-family="Helvetica,sans-Serif" font-size="10.00">/InputsOutputs.h</text>
</a>
</g>
</g>
<!-- Node2 -->
<g id="node2" class="node">
<title>Node2</title>
<g id="a_node2"><a xlink:title=" ">
<polygon fill="white" stroke="#bfbfbf" points="0,-414.5 0,-433.5 45,-433.5 45,-414.5 0,-414.5"/>
<text text-anchor="middle" x="22.5" y="-421.5" font-family="Helvetica,sans-Serif" font-size="10.00">utility</text>
</a>
</g>
</g>
<!-- Node1&#45;&gt;Node2 -->
<g id="edge1" class="edge">
<title>Node1&#45;&gt;Node2</title>
<path fill="none" stroke="midnightblue" d="M162.89,-470.4C129.67,-459.65 84.67,-445.1 54.66,-435.4"/>
<polygon fill="midnightblue" stroke="midnightblue" points="55.69,-432.06 45.1,-432.31 53.54,-438.72 55.69,-432.06"/>
</g>
<!-- Node3 -->
<g id="node3" class="node">
<title>Node3</title>
<g id="a_node3"><a xlink:title=" ">
<polygon fill="white" stroke="#bfbfbf" points="63.5,-414.5 63.5,-433.5 121.5,-433.5 121.5,-414.5 63.5,-414.5"/>
<text text-anchor="middle" x="92.5" y="-421.5" font-family="Helvetica,sans-Serif" font-size="10.00">json.hpp</text>
</a>
</g>
</g>
<!-- Node1&#45;&gt;Node3 -->
<g id="edge2" class="edge">
<title>Node1&#45;&gt;Node3</title>
<path fill="none" stroke="midnightblue" d="M179.48,-470.4C160.87,-460.68 136.29,-447.86 118.01,-438.31"/>
<polygon fill="midnightblue" stroke="midnightblue" points="119.57,-435.18 109.09,-433.66 116.33,-441.39 119.57,-435.18"/>
</g>
<!-- Node4 -->
<g id="node4" class="node">
<title>Node4</title>
<g id="a_node4"><a xlink:href="../../d1/d80/BLAS_8h.html" target="_top" xlink:title=" ">
<polygon fill="white" stroke="black" points="438,-358.5 438,-377.5 541,-377.5 541,-358.5 438,-358.5"/>
<text text-anchor="middle" x="489.5" y="-365.5" font-family="Helvetica,sans-Serif" font-size="10.00">math/blas/BLAS.h</text>
</a>
</g>
</g>
<!-- Node1&#45;&gt;Node4 -->
<g id="edge3" class="edge">
<title>Node1&#45;&gt;Node4</title>
<path fill="none" stroke="midnightblue" d="M240.92,-470.45C296.69,-447.69 405.9,-403.12 459.03,-381.44"/>
<polygon fill="midnightblue" stroke="midnightblue" points="460.63,-384.56 468.57,-377.54 457.99,-378.08 460.63,-384.56"/>
</g>
<!-- Node8 -->
<g id="node8" class="node">
<title>Node8</title>
<g id="a_node8"><a xlink:href="../../d3/db1/Matrix_8h.html" target="_top" xlink:title="Header file for the MyBLAS::Matrix class.">
<polygon fill="white" stroke="black" points="91.5,-241 91.5,-260 235.5,-260 235.5,-241 91.5,-241"/>
<text text-anchor="middle" x="163.5" y="-248" font-family="Helvetica,sans-Serif" font-size="10.00">math/blas/matrix/Matrix.h</text>
</a>
</g>
</g>
<!-- Node1&#45;&gt;Node8 -->
<g id="edge42" class="edge">
<title>Node1&#45;&gt;Node8</title>
<path fill="none" stroke="midnightblue" d="M203.87,-470.28C196.45,-430.02 175.27,-315.27 166.93,-270.1"/>
<polygon fill="midnightblue" stroke="midnightblue" points="170.36,-269.4 165.11,-260.2 163.48,-270.67 170.36,-269.4"/>
</g>
<!-- Node15 -->
<g id="node15" class="node">
<title>Node15</title>
<g id="a_node15"><a xlink:href="../../d6/dbe/Vector_8h.html" target="_top" xlink:title="Header file for the MyBLAS::Vector class.">
<polygon fill="white" stroke="black" points="614,-179.5 614,-198.5 755,-198.5 755,-179.5 614,-179.5"/>
<text text-anchor="middle" x="684.5" y="-186.5" font-family="Helvetica,sans-Serif" font-size="10.00">math/blas/vector/Vector.h</text>
</a>
</g>
</g>
<!-- Node1&#45;&gt;Node15 -->
<g id="edge43" class="edge">
<title>Node1&#45;&gt;Node15</title>
<path fill="none" stroke="midnightblue" d="M218.87,-470.3C235.63,-449.55 263.5,-409.03 263.5,-369 263.5,-369 263.5,-369 263.5,-311 263.5,-276.18 256.29,-257.92 282.5,-235 288.5,-229.75 488.11,-209.32 603.74,-197.88"/>
<polygon fill="midnightblue" stroke="midnightblue" points="604.37,-201.33 613.98,-196.87 603.68,-194.37 604.37,-201.33"/>
</g>
<!-- Node28 -->
<g id="node28" class="node">
<title>Node28</title>
<g id="a_node28"><a xlink:href="../../dc/d09/Stats_8h.html" target="_top" xlink:title="This file contains the declaration of statistical functions and structures for vectors and matrices.">
<polygon fill="white" stroke="black" points="619,-414.5 619,-433.5 722,-433.5 722,-414.5 619,-414.5"/>
<text text-anchor="middle" x="670.5" y="-421.5" font-family="Helvetica,sans-Serif" font-size="10.00">utils/math/Stats.h</text>
</a>
</g>
</g>
<!-- Node1&#45;&gt;Node28 -->
<g id="edge44" class="edge">
<title>Node1&#45;&gt;Node28</title>
<path fill="none" stroke="midnightblue" d="M261.55,-477.44C348.58,-466.28 517.39,-444.63 608.54,-432.95"/>
<polygon fill="midnightblue" stroke="midnightblue" points="609.25,-436.38 618.72,-431.64 608.36,-429.44 609.25,-436.38"/>
</g>
<!-- Node5 -->
<g id="node5" class="node">
<title>Node5</title>
<g id="a_node5"><a xlink:title=" ">
<polygon fill="white" stroke="#bfbfbf" points="708,-302.5 708,-321.5 755,-321.5 755,-302.5 708,-302.5"/>
<text text-anchor="middle" x="731.5" y="-309.5" font-family="Helvetica,sans-Serif" font-size="10.00">cmath</text>
</a>
</g>
</g>
<!-- Node4&#45;&gt;Node5 -->
<g id="edge4" class="edge">
<title>Node4&#45;&gt;Node5</title>
<path fill="none" stroke="midnightblue" d="M529.03,-358.47C570.16,-349.55 636.4,-335.06 693.5,-322 694.95,-321.67 696.42,-321.33 697.91,-320.98"/>
<polygon fill="midnightblue" stroke="midnightblue" points="698.86,-324.36 707.8,-318.67 697.26,-317.54 698.86,-324.36"/>
</g>
<!-- Node6 -->
<g id="node6" class="node">
<title>Node6</title>
<g id="a_node6"><a xlink:href="../../d4/d8a/Ops_8h.html" target="_top" xlink:title="This file contains the definition of the L2Norm function, which calculates the L2 norm (Euclidean dis...">
<polygon fill="white" stroke="black" points="441.5,-302.5 441.5,-321.5 537.5,-321.5 537.5,-302.5 441.5,-302.5"/>
<text text-anchor="middle" x="489.5" y="-309.5" font-family="Helvetica,sans-Serif" font-size="10.00">math/blas/Ops.h</text>
</a>
</g>
</g>
<!-- Node4&#45;&gt;Node6 -->
<g id="edge5" class="edge">
<title>Node4&#45;&gt;Node6</title>
<path fill="none" stroke="midnightblue" d="M489.5,-358.08C489.5,-351.01 489.5,-340.86 489.5,-331.99"/>
<polygon fill="midnightblue" stroke="midnightblue" points="493,-331.75 489.5,-321.75 486,-331.75 493,-331.75"/>
</g>
<!-- Node4&#45;&gt;Node8 -->
<g id="edge40" class="edge">
<title>Node4&#45;&gt;Node8</title>
<path fill="none" stroke="midnightblue" d="M465.26,-358.41C407.86,-338.07 263.47,-286.92 197.43,-263.52"/>
<polygon fill="midnightblue" stroke="midnightblue" points="198.49,-260.18 187.9,-260.14 196.15,-266.78 198.49,-260.18"/>
</g>
<!-- Node4&#45;&gt;Node15 -->
<g id="edge41" class="edge">
<title>Node4&#45;&gt;Node15</title>
<path fill="none" stroke="midnightblue" d="M541.15,-359.11C593.02,-348.13 670.31,-322.76 706.5,-266 718.11,-247.8 707.17,-223.3 697,-207.1"/>
<polygon fill="midnightblue" stroke="midnightblue" points="699.77,-204.95 691.27,-198.63 693.97,-208.87 699.77,-204.95"/>
</g>
<!-- Node7 -->
<g id="node7" class="node">
<title>Node7</title>
<g id="a_node7"><a xlink:title=" ">
<polygon fill="white" stroke="#bfbfbf" points="632,-241 632,-260 679,-260 679,-241 632,-241"/>
<text text-anchor="middle" x="655.5" y="-248" font-family="Helvetica,sans-Serif" font-size="10.00">omp.h</text>
</a>
</g>
</g>
<!-- Node6&#45;&gt;Node7 -->
<g id="edge6" class="edge">
<title>Node6&#45;&gt;Node7</title>
<path fill="none" stroke="midnightblue" d="M517.01,-302.47C544.08,-293.9 586.48,-279.98 622.5,-266 624.1,-265.38 625.74,-264.72 627.4,-264.05"/>
<polygon fill="midnightblue" stroke="midnightblue" points="628.93,-267.2 636.77,-260.07 626.2,-260.75 628.93,-267.2"/>
</g>
<!-- Node6&#45;&gt;Node8 -->
<g id="edge7" class="edge">
<title>Node6&#45;&gt;Node8</title>
<path fill="none" stroke="midnightblue" d="M442.79,-302.48C384.09,-291.76 283.39,-273.38 220.3,-261.87"/>
<polygon fill="midnightblue" stroke="midnightblue" points="220.59,-258.36 210.12,-260.01 219.33,-265.25 220.59,-258.36"/>
</g>
<!-- Node6&#45;&gt;Node15 -->
<g id="edge36" class="edge">
<title>Node6&#45;&gt;Node15</title>
<path fill="none" stroke="midnightblue" d="M537.76,-306.89C590.5,-301.29 669.98,-289.17 688.5,-266 701.36,-249.91 697.08,-225.24 691.76,-208.4"/>
<polygon fill="midnightblue" stroke="midnightblue" points="694.93,-206.89 688.29,-198.64 688.34,-209.23 694.93,-206.89"/>
</g>
<!-- Node25 -->
<g id="node25" class="node">
<title>Node25</title>
<g id="a_node25"><a xlink:title=" ">
<polygon fill="white" stroke="#bfbfbf" points="291.5,-235.5 291.5,-265.5 407.5,-265.5 407.5,-235.5 291.5,-235.5"/>
<text text-anchor="start" x="299.5" y="-253.5" font-family="Helvetica,sans-Serif" font-size="10.00">boost/numeric/ublas</text>
<text text-anchor="middle" x="349.5" y="-242.5" font-family="Helvetica,sans-Serif" font-size="10.00">/io.hpp</text>
</a>
</g>
</g>
<!-- Node6&#45;&gt;Node25 -->
<g id="edge37" class="edge">
<title>Node6&#45;&gt;Node25</title>
<path fill="none" stroke="midnightblue" d="M469.44,-302.48C449.33,-293.93 417.74,-280.5 392.03,-269.57"/>
<polygon fill="midnightblue" stroke="midnightblue" points="393.07,-266.21 382.5,-265.52 390.33,-272.66 393.07,-266.21"/>
</g>
<!-- Node26 -->
<g id="node26" class="node">
<title>Node26</title>
<g id="a_node26"><a xlink:title=" ">
<polygon fill="white" stroke="#bfbfbf" points="425.5,-235.5 425.5,-265.5 541.5,-265.5 541.5,-235.5 425.5,-235.5"/>
<text text-anchor="start" x="433.5" y="-253.5" font-family="Helvetica,sans-Serif" font-size="10.00">boost/numeric/ublas</text>
<text text-anchor="middle" x="483.5" y="-242.5" font-family="Helvetica,sans-Serif" font-size="10.00">/matrix.hpp</text>
</a>
</g>
</g>
<!-- Node6&#45;&gt;Node26 -->
<g id="edge38" class="edge">
<title>Node6&#45;&gt;Node26</title>
<path fill="none" stroke="midnightblue" d="M488.64,-302.48C487.93,-295.47 486.9,-285.19 485.94,-275.7"/>
<polygon fill="midnightblue" stroke="midnightblue" points="489.4,-275.12 484.91,-265.52 482.44,-275.82 489.4,-275.12"/>
</g>
<!-- Node27 -->
<g id="node27" class="node">
<title>Node27</title>
<g id="a_node27"><a xlink:title=" ">
<polygon fill="white" stroke="#bfbfbf" points="559.5,-241 559.5,-260 613.5,-260 613.5,-241 559.5,-241"/>
<text text-anchor="middle" x="586.5" y="-248" font-family="Helvetica,sans-Serif" font-size="10.00">random</text>
</a>
</g>
</g>
<!-- Node6&#45;&gt;Node27 -->
<g id="edge39" class="edge">
<title>Node6&#45;&gt;Node27</title>
<path fill="none" stroke="midnightblue" d="M503.4,-302.48C519.17,-292.8 545.14,-276.87 563.85,-265.39"/>
<polygon fill="midnightblue" stroke="midnightblue" points="565.93,-268.22 572.63,-260.01 562.27,-262.25 565.93,-268.22"/>
</g>
<!-- Node9 -->
<g id="node9" class="node">
<title>Node9</title>
<g id="a_node9"><a xlink:title=" ">
<polygon fill="white" stroke="#bfbfbf" points="340.5,-62 340.5,-81 404.5,-81 404.5,-62 340.5,-62"/>
<text text-anchor="middle" x="372.5" y="-69" font-family="Helvetica,sans-Serif" font-size="10.00">algorithm</text>
</a>
</g>
</g>
<!-- Node8&#45;&gt;Node9 -->
<g id="edge8" class="edge">
<title>Node8&#45;&gt;Node9</title>
<path fill="none" stroke="midnightblue" d="M198.96,-240.89C244.44,-227.88 322.14,-198.59 361.5,-143 372.11,-128.01 374.12,-106.75 373.93,-91.5"/>
<polygon fill="midnightblue" stroke="midnightblue" points="377.42,-91.04 373.47,-81.21 370.42,-91.36 377.42,-91.04"/>
</g>
<!-- Node10 -->
<g id="node10" class="node">
<title>Node10</title>
<g id="a_node10"><a xlink:title=" ">
<polygon fill="white" stroke="#bfbfbf" points="137.5,-123.5 137.5,-142.5 189.5,-142.5 189.5,-123.5 137.5,-123.5"/>
<text text-anchor="middle" x="163.5" y="-130.5" font-family="Helvetica,sans-Serif" font-size="10.00">cassert</text>
</a>
</g>
</g>
<!-- Node8&#45;&gt;Node10 -->
<g id="edge9" class="edge">
<title>Node8&#45;&gt;Node10</title>
<path fill="none" stroke="midnightblue" d="M163.5,-240.82C163.5,-222.26 163.5,-178.34 163.5,-152.97"/>
<polygon fill="midnightblue" stroke="midnightblue" points="167,-152.78 163.5,-142.78 160,-152.78 167,-152.78"/>
</g>
<!-- Node11 -->
<g id="node11" class="node">
<title>Node11</title>
<g id="a_node11"><a xlink:title=" ">
<polygon fill="white" stroke="#bfbfbf" points="460.5,-123.5 460.5,-142.5 520.5,-142.5 520.5,-123.5 460.5,-123.5"/>
<text text-anchor="middle" x="490.5" y="-130.5" font-family="Helvetica,sans-Serif" font-size="10.00">iostream</text>
</a>
</g>
</g>
<!-- Node8&#45;&gt;Node11 -->
<g id="edge10" class="edge">
<title>Node8&#45;&gt;Node11</title>
<path fill="none" stroke="midnightblue" d="M213.31,-240.98C271.31,-230.64 363.28,-212.9 395.5,-199 424.83,-186.35 454.57,-164.16 472.77,-149.27"/>
<polygon fill="midnightblue" stroke="midnightblue" points="475.3,-151.72 480.73,-142.62 470.81,-146.35 475.3,-151.72"/>
</g>
<!-- Node12 -->
<g id="node12" class="node">
<title>Node12</title>
<g id="a_node12"><a xlink:title=" ">
<polygon fill="white" stroke="#bfbfbf" points="836,-123.5 836,-142.5 883,-142.5 883,-123.5 836,-123.5"/>
<text text-anchor="middle" x="859.5" y="-130.5" font-family="Helvetica,sans-Serif" font-size="10.00">vector</text>
</a>
</g>
</g>
<!-- Node8&#45;&gt;Node12 -->
<g id="edge11" class="edge">
<title>Node8&#45;&gt;Node12</title>
<path fill="none" stroke="midnightblue" d="M228.91,-240.97C246.31,-238.86 265.1,-236.71 282.5,-235 389.4,-224.5 663.14,-234.55 764.5,-199 794.97,-188.31 824.82,-165.23 842.69,-149.65"/>
<polygon fill="midnightblue" stroke="midnightblue" points="845.35,-151.97 850.46,-142.69 840.67,-146.76 845.35,-151.97"/>
</g>
<!-- Node13 -->
<g id="node13" class="node">
<title>Node13</title>
<g id="a_node13"><a xlink:title=" ">
<polygon fill="white" stroke="#bfbfbf" points="81.5,-62 81.5,-81 167.5,-81 167.5,-62 81.5,-62"/>
<text text-anchor="middle" x="124.5" y="-69" font-family="Helvetica,sans-Serif" font-size="10.00">unordered_set</text>
</a>
</g>
</g>
<!-- Node8&#45;&gt;Node13 -->
<g id="edge12" class="edge">
<title>Node8&#45;&gt;Node13</title>
<path fill="none" stroke="midnightblue" d="M159.8,-240.87C152.34,-223 135.6,-180.48 128.5,-143 125.23,-125.7 124.37,-105.63 124.24,-91.33"/>
<polygon fill="midnightblue" stroke="midnightblue" points="127.74,-91.28 124.27,-81.27 120.74,-91.26 127.74,-91.28"/>
</g>
<!-- Node14 -->
<g id="node14" class="node">
<title>Node14</title>
<g id="a_node14"><a xlink:href="../../d1/d45/Constants_8h.html" target="_top" xlink:title="MyBLAS Constants definition.">
<polygon fill="white" stroke="black" points="447.5,-179.5 447.5,-198.5 573.5,-198.5 573.5,-179.5 447.5,-179.5"/>
<text text-anchor="middle" x="510.5" y="-186.5" font-family="Helvetica,sans-Serif" font-size="10.00">math/blas/Constants.h</text>
</a>
</g>
</g>
<!-- Node8&#45;&gt;Node14 -->
<g id="edge13" class="edge">
<title>Node8&#45;&gt;Node14</title>
<path fill="none" stroke="midnightblue" d="M213.22,-240.98C275.96,-230.22 383.77,-211.73 450.87,-200.22"/>
<polygon fill="midnightblue" stroke="midnightblue" points="451.61,-203.65 460.88,-198.51 450.43,-196.75 451.61,-203.65"/>
</g>
<!-- Node8&#45;&gt;Node15 -->
<g id="edge14" class="edge">
<title>Node8&#45;&gt;Node15</title>
<path fill="none" stroke="midnightblue" d="M210.73,-240.98C223.31,-238.86 236.9,-236.71 249.5,-235 315.82,-225.99 497.13,-208.04 603.57,-197.75"/>
<polygon fill="midnightblue" stroke="midnightblue" points="604.02,-201.22 613.63,-196.77 603.34,-194.25 604.02,-201.22"/>
</g>
<!-- Node23 -->
<g id="node23" class="node">
<title>Node23</title>
<g id="a_node23"><a xlink:href="../../dc/dc5/ResourceMonitor_8h.html" target="_top" xlink:title="Header file for the ResourceMonitor class.">
<polygon fill="white" stroke="black" points="208,-123.5 208,-142.5 353,-142.5 353,-123.5 208,-123.5"/>
<text text-anchor="middle" x="280.5" y="-130.5" font-family="Helvetica,sans-Serif" font-size="10.00">profiler/ResourceMonitor.h</text>
</a>
</g>
</g>
<!-- Node8&#45;&gt;Node23 -->
<g id="edge35" class="edge">
<title>Node8&#45;&gt;Node23</title>
<path fill="none" stroke="midnightblue" d="M172.29,-240.82C191.86,-221.5 239.23,-174.74 264.31,-149.98"/>
<polygon fill="midnightblue" stroke="midnightblue" points="266.95,-152.3 271.6,-142.78 262.03,-147.32 266.95,-152.3"/>
</g>
<!-- Node15&#45;&gt;Node10 -->
<g id="edge15" class="edge">
<title>Node15&#45;&gt;Node10</title>
<path fill="none" stroke="midnightblue" d="M613.84,-181.76C493.59,-171.09 257.26,-149.95 199.95,-142.7"/>
<polygon fill="midnightblue" stroke="midnightblue" points="200.17,-139.19 189.78,-141.24 199.18,-146.12 200.17,-139.19"/>
</g>
<!-- Node15&#45;&gt;Node11 -->
<g id="edge18" class="edge">
<title>Node15&#45;&gt;Node11</title>
<path fill="none" stroke="midnightblue" d="M653.76,-179.44C620.46,-170.17 567.2,-155.35 530.62,-145.17"/>
<polygon fill="midnightblue" stroke="midnightblue" points="531.35,-141.74 520.78,-142.43 529.47,-148.48 531.35,-141.74"/>
</g>
<!-- Node15&#45;&gt;Node12 -->
<g id="edge19" class="edge">
<title>Node15&#45;&gt;Node12</title>
<path fill="none" stroke="midnightblue" d="M712.23,-179.44C743.15,-169.9 793.14,-154.48 826.16,-144.29"/>
<polygon fill="midnightblue" stroke="midnightblue" points="827.31,-147.6 835.83,-141.3 825.24,-140.91 827.31,-147.6"/>
</g>
<!-- Node16 -->
<g id="node16" class="node">
<title>Node16</title>
<g id="a_node16"><a xlink:title=" ">
<polygon fill="white" stroke="#bfbfbf" points="835,-62 835,-81 900,-81 900,-62 835,-62"/>
<text text-anchor="middle" x="867.5" y="-69" font-family="Helvetica,sans-Serif" font-size="10.00">functional</text>
</a>
</g>
</g>
<!-- Node15&#45;&gt;Node16 -->
<g id="edge16" class="edge">
<title>Node15&#45;&gt;Node16</title>
<path fill="none" stroke="midnightblue" d="M710.43,-179.41C732.2,-171.61 763.63,-158.89 788.5,-143 813.04,-127.33 837.45,-104.06 852.5,-88.6"/>
<polygon fill="midnightblue" stroke="midnightblue" points="855.1,-90.95 859.47,-81.3 850.03,-86.11 855.1,-90.95"/>
</g>
<!-- Node17 -->
<g id="node17" class="node">
<title>Node17</title>
<g id="a_node17"><a xlink:title=" ">
<polygon fill="white" stroke="#bfbfbf" points="589.5,-123.5 589.5,-142.5 645.5,-142.5 645.5,-123.5 589.5,-123.5"/>
<text text-anchor="middle" x="617.5" y="-130.5" font-family="Helvetica,sans-Serif" font-size="10.00">iomanip</text>
</a>
</g>
</g>
<!-- Node15&#45;&gt;Node17 -->
<g id="edge17" class="edge">
<title>Node15&#45;&gt;Node17</title>
<path fill="none" stroke="midnightblue" d="M673.74,-179.32C663.73,-171.26 648.61,-159.08 636.57,-149.37"/>
<polygon fill="midnightblue" stroke="midnightblue" points="638.44,-146.38 628.46,-142.83 634.05,-151.83 638.44,-146.38"/>
</g>
<!-- Node18 -->
<g id="node18" class="node">
<title>Node18</title>
<g id="a_node18"><a xlink:href="../../de/dcb/LazyVector_8h.html" target="_top" xlink:title="Header file for the LazyVector class.">
<polygon fill="white" stroke="black" points="701.5,-123.5 701.5,-142.5 779.5,-142.5 779.5,-123.5 701.5,-123.5"/>
<text text-anchor="middle" x="740.5" y="-130.5" font-family="Helvetica,sans-Serif" font-size="10.00">LazyVector.h</text>
</a>
</g>
</g>
<!-- Node15&#45;&gt;Node18 -->
<g id="edge20" class="edge">
<title>Node15&#45;&gt;Node18</title>
<path fill="none" stroke="midnightblue" d="M688.58,-179.08C695.27,-170.98 707.51,-158.87 718.56,-149.23"/>
<polygon fill="midnightblue" stroke="midnightblue" points="720.88,-151.86 726.29,-142.75 716.38,-146.49 720.88,-151.86"/>
</g>
<!-- Node15&#45;&gt;Node23 -->
<g id="edge30" class="edge">
<title>Node15&#45;&gt;Node23</title>
<path fill="none" stroke="midnightblue" d="M620.48,-179.44C548.09,-169.77 430.39,-154.04 354.22,-143.85"/>
<polygon fill="midnightblue" stroke="midnightblue" points="354.59,-140.37 344.22,-142.52 353.66,-147.31 354.59,-140.37"/>
</g>
<!-- Node18&#45;&gt;Node9 -->
<g id="edge21" class="edge">
<title>Node18&#45;&gt;Node9</title>
<path fill="none" stroke="midnightblue" d="M701.45,-125.2C696.76,-124.43 692.02,-123.68 687.5,-123 566.04,-104.72 532.94,-115.63 413.5,-87 410.27,-86.23 406.94,-85.29 403.64,-84.27"/>
<polygon fill="midnightblue" stroke="midnightblue" points="404.54,-80.88 393.95,-81.04 402.33,-87.52 404.54,-80.88"/>
</g>
<!-- Node18&#45;&gt;Node15 -->
<g id="edge25" class="edge">
<title>Node18&#45;&gt;Node15</title>
<path fill="none" stroke="midnightblue" d="M736.49,-142.83C729.8,-150.95 717.48,-163.15 706.38,-172.82"/>
<polygon fill="midnightblue" stroke="midnightblue" points="704.03,-170.22 698.61,-179.32 708.53,-175.59 704.03,-170.22"/>
</g>
<!-- Node18&#45;&gt;Node16 -->
<g id="edge23" class="edge">
<title>Node18&#45;&gt;Node16</title>
<path fill="none" stroke="midnightblue" d="M758.7,-123.48C780.01,-113.49 815.53,-96.85 840.16,-85.31"/>
<polygon fill="midnightblue" stroke="midnightblue" points="841.77,-88.42 849.34,-81.01 838.8,-82.08 841.77,-88.42"/>
</g>
<!-- Node19 -->
<g id="node19" class="node">
<title>Node19</title>
<g id="a_node19"><a xlink:title=" ">
<polygon fill="white" stroke="#bfbfbf" points="525,-0.5 525,-19.5 578,-19.5 578,-0.5 525,-0.5"/>
<text text-anchor="middle" x="551.5" y="-7.5" font-family="Helvetica,sans-Serif" font-size="10.00">cstddef</text>
</a>
</g>
</g>
<!-- Node18&#45;&gt;Node19 -->
<g id="edge22" class="edge">
<title>Node18&#45;&gt;Node19</title>
<path fill="none" stroke="midnightblue" d="M752.93,-123.28C772.39,-108.6 805.99,-78.35 787.5,-56 762.67,-25.99 648.44,-15.81 588.48,-12.51"/>
<polygon fill="midnightblue" stroke="midnightblue" points="588.47,-9 578.3,-11.98 588.11,-15.99 588.47,-9"/>
</g>
<!-- Node20 -->
<g id="node20" class="node">
<title>Node20</title>
<g id="a_node20"><a xlink:title=" ">
<polygon fill="white" stroke="#bfbfbf" points="720.5,-62 720.5,-81 778.5,-81 778.5,-62 720.5,-62"/>
<text text-anchor="middle" x="749.5" y="-69" font-family="Helvetica,sans-Serif" font-size="10.00">memory</text>
</a>
</g>
</g>
<!-- Node18&#45;&gt;Node20 -->
<g id="edge24" class="edge">
<title>Node18&#45;&gt;Node20</title>
<path fill="none" stroke="midnightblue" d="M741.79,-123.48C743.06,-115.08 745.04,-101.98 746.68,-91.16"/>
<polygon fill="midnightblue" stroke="midnightblue" points="750.18,-91.42 748.21,-81.01 743.26,-90.37 750.18,-91.42"/>
</g>
<!-- Node21 -->
<g id="node21" class="node">
<title>Node21</title>
<g id="a_node21"><a xlink:href="../../d6/d9f/VectorExpression_8h.html" target="_top" xlink:title="Header file for the MyBLAS::VectorExpression class.">
<polygon fill="white" stroke="black" points="422.5,-62 422.5,-81 532.5,-81 532.5,-62 422.5,-62"/>
<text text-anchor="middle" x="477.5" y="-69" font-family="Helvetica,sans-Serif" font-size="10.00">VectorExpression.h</text>
</a>
</g>
</g>
<!-- Node18&#45;&gt;Node21 -->
<g id="edge26" class="edge">
<title>Node18&#45;&gt;Node21</title>
<path fill="none" stroke="midnightblue" d="M702.72,-123.46C662.69,-114.41 597.64,-99.71 541.5,-87 536.15,-85.79 530.55,-84.52 524.99,-83.26"/>
<polygon fill="midnightblue" stroke="midnightblue" points="525.59,-79.81 515.06,-81.01 524.04,-86.64 525.59,-79.81"/>
</g>
<!-- Node22 -->
<g id="node22" class="node">
<title>Node22</title>
<g id="a_node22"><a xlink:href="../../d6/db1/ContainerExpression_8h.html" target="_top" xlink:title="Header file for the ContainerExpression class.">
<polygon fill="white" stroke="black" points="551,-56.5 551,-86.5 702,-86.5 702,-56.5 551,-56.5"/>
<text text-anchor="start" x="559" y="-74.5" font-family="Helvetica,sans-Serif" font-size="10.00">math/blas/matrix/Container</text>
<text text-anchor="middle" x="626.5" y="-63.5" font-family="Helvetica,sans-Serif" font-size="10.00">Expression.h</text>
</a>
</g>
</g>
<!-- Node18&#45;&gt;Node22 -->
<g id="edge28" class="edge">
<title>Node18&#45;&gt;Node22</title>
<path fill="none" stroke="midnightblue" d="M724.17,-123.48C708.08,-115.08 682.97,-101.97 662.24,-91.15"/>
<polygon fill="midnightblue" stroke="midnightblue" points="663.85,-88.05 653.37,-86.52 660.61,-94.25 663.85,-88.05"/>
</g>
<!-- Node21&#45;&gt;Node19 -->
<g id="edge27" class="edge">
<title>Node21&#45;&gt;Node19</title>
<path fill="none" stroke="midnightblue" d="M488.1,-61.98C499.75,-52.61 518.69,-37.38 532.83,-26.01"/>
<polygon fill="midnightblue" stroke="midnightblue" points="535.32,-28.5 540.92,-19.51 530.93,-23.05 535.32,-28.5"/>
</g>
<!-- Node22&#45;&gt;Node19 -->
<g id="edge29" class="edge">
<title>Node22&#45;&gt;Node19</title>
<path fill="none" stroke="midnightblue" d="M608.73,-56.4C597.15,-47.22 582.08,-35.26 570.3,-25.92"/>
<polygon fill="midnightblue" stroke="midnightblue" points="572.42,-23.13 562.41,-19.66 568.07,-28.61 572.42,-23.13"/>
</g>
<!-- Node23&#45;&gt;Node9 -->
<g id="edge31" class="edge">
<title>Node23&#45;&gt;Node9</title>
<path fill="none" stroke="midnightblue" d="M293.68,-123.48C308.57,-113.84 333.04,-98.02 350.77,-86.55"/>
<polygon fill="midnightblue" stroke="midnightblue" points="352.85,-89.38 359.34,-81.01 349.05,-83.5 352.85,-89.38"/>
</g>
<!-- Node23&#45;&gt;Node13 -->
<g id="edge33" class="edge">
<title>Node23&#45;&gt;Node13</title>
<path fill="none" stroke="midnightblue" d="M258.15,-123.48C231.51,-113.31 186.79,-96.26 156.49,-84.7"/>
<polygon fill="midnightblue" stroke="midnightblue" points="157.4,-81.3 146.81,-81.01 154.91,-87.84 157.4,-81.3"/>
</g>
<!-- Node23&#45;&gt;Node19 -->
<g id="edge32" class="edge">
<title>Node23&#45;&gt;Node19</title>
<path fill="none" stroke="midnightblue" d="M283.72,-123.31C290.14,-107.25 306.16,-72.99 331.5,-56 387.37,-18.53 467.88,-11.13 514.43,-10.28"/>
<polygon fill="midnightblue" stroke="midnightblue" points="514.69,-13.78 524.66,-10.19 514.63,-6.78 514.69,-13.78"/>
</g>
<!-- Node24 -->
<g id="node24" class="node">
<title>Node24</title>
<g id="a_node24"><a xlink:title=" ">
<polygon fill="white" stroke="#bfbfbf" points="191,-62 191,-81 284,-81 284,-62 191,-62"/>
<text text-anchor="middle" x="237.5" y="-69" font-family="Helvetica,sans-Serif" font-size="10.00">unordered_map</text>
</a>
</g>
</g>
<!-- Node23&#45;&gt;Node24 -->
<g id="edge34" class="edge">
<title>Node23&#45;&gt;Node24</title>
<path fill="none" stroke="midnightblue" d="M274.34,-123.48C267.89,-114.55 257.6,-100.31 249.53,-89.14"/>
<polygon fill="midnightblue" stroke="midnightblue" points="252.34,-87.06 243.65,-81.01 246.67,-91.16 252.34,-87.06"/>
</g>
<!-- Node28&#45;&gt;Node4 -->
<g id="edge51" class="edge">
<title>Node28&#45;&gt;Node4</title>
<path fill="none" stroke="midnightblue" d="M641.82,-414.44C610.97,-405.24 561.77,-390.56 527.67,-380.39"/>
<polygon fill="midnightblue" stroke="midnightblue" points="528.63,-377.02 518.05,-377.52 526.63,-383.73 528.63,-377.02"/>
</g>
<!-- Node28&#45;&gt;Node5 -->
<g id="edge46" class="edge">
<title>Node28&#45;&gt;Node5</title>
<path fill="none" stroke="midnightblue" d="M643.62,-414.49C613.55,-403.52 571.29,-382.88 589.5,-358 596.09,-349 658.26,-331.7 698.13,-321.37"/>
<polygon fill="midnightblue" stroke="midnightblue" points="699.16,-324.72 707.98,-318.84 697.42,-317.94 699.16,-324.72"/>
</g>
<!-- Node28&#45;&gt;Node8 -->
<g id="edge52" class="edge">
<title>Node28&#45;&gt;Node8</title>
<path fill="none" stroke="midnightblue" d="M618.65,-416.98C569.05,-410.39 492.55,-397.99 428.5,-378 370.39,-359.86 358.48,-348.14 303.5,-322 263.27,-302.87 217.24,-279.38 189.28,-264.93"/>
<polygon fill="midnightblue" stroke="midnightblue" points="190.68,-261.7 180.19,-260.21 187.46,-267.92 190.68,-261.7"/>
</g>
<!-- Node28&#45;&gt;Node9 -->
<g id="edge45" class="edge">
<title>Node28&#45;&gt;Node9</title>
<path fill="none" stroke="midnightblue" d="M722.11,-415.11C744.43,-408.9 768.59,-397.81 782.5,-378 809.34,-339.78 773.38,-191.07 764.5,-179 743.3,-150.18 724.33,-159.33 692.5,-143 675.52,-134.29 672.64,-128.94 654.5,-123 551.58,-89.3 518.59,-113.17 413.5,-87 410.45,-86.24 407.3,-85.34 404.18,-84.37"/>
<polygon fill="midnightblue" stroke="midnightblue" points="404.99,-80.95 394.39,-81.11 402.77,-87.6 404.99,-80.95"/>
</g>
<!-- Node28&#45;&gt;Node12 -->
<g id="edge49" class="edge">
<title>Node28&#45;&gt;Node12</title>
<path fill="none" stroke="midnightblue" d="M722.17,-420.99C758.04,-416.98 804.74,-406.18 835.5,-378 858.21,-357.2 859.5,-343.8 859.5,-313 859.5,-313 859.5,-313 859.5,-249.5 859.5,-215.36 859.5,-175.55 859.5,-152.71"/>
<polygon fill="midnightblue" stroke="midnightblue" points="863,-152.69 859.5,-142.69 856,-152.69 863,-152.69"/>
</g>
<!-- Node28&#45;&gt;Node15 -->
<g id="edge53" class="edge">
<title>Node28&#45;&gt;Node15</title>
<path fill="none" stroke="midnightblue" d="M710.65,-414.43C730.47,-407.95 752.64,-396.83 764.5,-378 801.78,-318.82 734.16,-239.26 701.13,-205.84"/>
<polygon fill="midnightblue" stroke="midnightblue" points="703.5,-203.26 693.92,-198.72 698.58,-208.24 703.5,-203.26"/>
</g>
<!-- Node29 -->
<g id="node29" class="node">
<title>Node29</title>
<g id="a_node29"><a xlink:title=" ">
<polygon fill="white" stroke="#bfbfbf" points="887.5,-358.5 887.5,-377.5 943.5,-377.5 943.5,-358.5 887.5,-358.5"/>
<text text-anchor="middle" x="915.5" y="-365.5" font-family="Helvetica,sans-Serif" font-size="10.00">numeric</text>
</a>
</g>
</g>
<!-- Node28&#45;&gt;Node29 -->
<g id="edge47" class="edge">
<title>Node28&#45;&gt;Node29</title>
<path fill="none" stroke="midnightblue" d="M709.32,-414.44C755.36,-404.3 831.6,-387.49 877.34,-377.41"/>
<polygon fill="midnightblue" stroke="midnightblue" points="878.16,-380.81 887.17,-375.24 876.65,-373.98 878.16,-380.81"/>
</g>
<!-- Node30 -->
<g id="node30" class="node">
<title>Node30</title>
<g id="a_node30"><a xlink:title=" ">
<polygon fill="white" stroke="#bfbfbf" points="598,-358.5 598,-377.5 655,-377.5 655,-358.5 598,-358.5"/>
<text text-anchor="middle" x="626.5" y="-365.5" font-family="Helvetica,sans-Serif" font-size="10.00">ostream</text>
</a>
</g>
</g>
<!-- Node28&#45;&gt;Node30 -->
<g id="edge48" class="edge">
<title>Node28&#45;&gt;Node30</title>
<path fill="none" stroke="midnightblue" d="M663.23,-414.08C656.96,-406.38 647.71,-395.03 640.07,-385.65"/>
<polygon fill="midnightblue" stroke="midnightblue" points="642.66,-383.29 633.63,-377.75 637.23,-387.71 642.66,-383.29"/>
</g>
<!-- Node31 -->
<g id="node31" class="node">
<title>Node31</title>
<g id="a_node31"><a xlink:title=" ">
<polygon fill="white" stroke="#bfbfbf" points="673.5,-358.5 673.5,-377.5 755.5,-377.5 755.5,-358.5 673.5,-358.5"/>
<text text-anchor="middle" x="714.5" y="-365.5" font-family="Helvetica,sans-Serif" font-size="10.00">utils/json.hpp</text>
</a>
</g>
</g>
<!-- Node28&#45;&gt;Node31 -->
<g id="edge50" class="edge">
<title>Node28&#45;&gt;Node31</title>
<path fill="none" stroke="midnightblue" d="M677.77,-414.08C684.04,-406.38 693.29,-395.03 700.93,-385.65"/>
<polygon fill="midnightblue" stroke="midnightblue" points="703.77,-387.71 707.37,-377.75 698.34,-383.29 703.77,-387.71"/>
</g>
</g>
</svg>
