<?xml version="1.0" encoding="UTF-8" standalone="no"?>
<!DOCTYPE svg PUBLIC "-//W3C//DTD SVG 1.1//EN"
 "http://www.w3.org/Graphics/SVG/1.1/DTD/svg11.dtd">
<!-- Generated by graphviz version 2.43.0 (0)
 -->
<!-- Title: src/utils/math/blas/Stats.h Pages: 1 -->
<!--zoomable 263 -->
<svg id="main" version="1.1" xmlns="http://www.w3.org/2000/svg" xmlns:xlink="http://www.w3.org/1999/xlink" xml:space="preserve" onload="init(evt)">
<style type="text/css"><![CDATA[
.edge:hover path { stroke: red; }
.edge:hover polygon { stroke: red; fill: red; }
]]></style>
<script type="text/javascript"><![CDATA[
var edges = document.getElementsByTagName('g');
if (edges && edges.length) {
  for (var i=0;i<edges.length;i++) {
    if (edges[i].id.substr(0,4)=='edge') {
      edges[i].setAttribute('class','edge');
    }
  }
}
]]></script>
        <defs>
                <circle id="rim" cx="0" cy="0" r="7"/>
                <circle id="rim2" cx="0" cy="0" r="3.5"/>
                <g id="zoomPlus">
                        <use xlink:href="#rim" fill="#404040">
                                <set attributeName="fill" to="#808080" begin="zoomplus.mouseover" end="zoomplus.mouseout"/>
                        </use>
                        <path d="M-4,0h8M0,-4v8" fill="none" stroke="white" stroke-width="1.5" pointer-events="none"/>
                </g>
                <g id="zoomMin">
                        <use xlink:href="#rim" fill="#404040">
                                <set attributeName="fill" to="#808080" begin="zoomminus.mouseover" end="zoomminus.mouseout"/>
                        </use>
                        <path d="M-4,0h8" fill="none" stroke="white" stroke-width="1.5" pointer-events="none"/>
                </g>
                <g id="dirArrow">
                        <path fill="none" stroke="white" stroke-width="1.5" d="M0,-3.0v7 M-2.5,-0.5L0,-3.0L2.5,-0.5"/>
                </g>
               <g id="resetDef">
                       <use xlink:href="#rim2" fill="#404040">
                               <set attributeName="fill" to="#808080" begin="reset.mouseover" end="reset.mouseout"/>
                       </use>
               </g>
        </defs>

<script type="text/javascript">
var viewWidth = 559;
var viewHeight = 263;
var sectionId = 'dynsection-0';
</script>
<script xlink:href="../../svgpan.js"/>
<svg id="graph" class="graph">
<g id="viewport">
<title>src/utils/math/blas/Stats.h</title>
<polygon fill="white" stroke="transparent" points="-4,4 -4,-259 554.61,-259 554.61,4 -4,4"/>
<!-- Node1 -->
<g id="node1" class="node">
<title>Node1</title>
<g id="a_node1"><a xlink:title="This file contains the declaration of statistical functions and structures for vectors and matrices.">
<polygon fill="#bfbfbf" stroke="black" points="256.61,-224.5 256.61,-254.5 363.61,-254.5 363.61,-224.5 256.61,-224.5"/>
<text text-anchor="start" x="264.61" y="-242.5" font-family="Helvetica,sans-Serif" font-size="10.00">src/utils/math/blas</text>
<text text-anchor="middle" x="310.11" y="-231.5" font-family="Helvetica,sans-Serif" font-size="10.00">/Stats.h</text>
</a>
</g>
</g>
<!-- Node2 -->
<g id="node2" class="node">
<title>Node2</title>
<g id="a_node2"><a xlink:title=" ">
<polygon fill="white" stroke="#bfbfbf" points="12.11,-56.5 12.11,-75.5 76.11,-75.5 76.11,-56.5 12.11,-56.5"/>
<text text-anchor="middle" x="44.11" y="-63.5" font-family="Helvetica,sans-Serif" font-size="10.00">algorithm</text>
</a>
</g>
</g>
<!-- Node1&#45;&gt;Node2 -->
<g id="edge1" class="edge">
<title>Node1&#45;&gt;Node2</title>
<path fill="none" stroke="midnightblue" d="M273.17,-224.48C229.63,-206.9 156.37,-173.91 102.11,-132 84.24,-118.2 67.48,-98.39 56.62,-84.27"/>
<polygon fill="midnightblue" stroke="midnightblue" points="59.18,-81.84 50.38,-75.94 53.58,-86.04 59.18,-81.84"/>
</g>
<!-- Node3 -->
<g id="node3" class="node">
<title>Node3</title>
<g id="a_node3"><a xlink:title=" ">
<polygon fill="white" stroke="#bfbfbf" points="367.61,-112.5 367.61,-131.5 414.61,-131.5 414.61,-112.5 367.61,-112.5"/>
<text text-anchor="middle" x="391.11" y="-119.5" font-family="Helvetica,sans-Serif" font-size="10.00">cmath</text>
</a>
</g>
</g>
<!-- Node1&#45;&gt;Node3 -->
<g id="edge2" class="edge">
<title>Node1&#45;&gt;Node3</title>
<path fill="none" stroke="midnightblue" d="M333.74,-224.36C346.78,-215.43 362.28,-202.81 372.11,-188 381.35,-174.07 386.19,-155.56 388.66,-141.86"/>
<polygon fill="midnightblue" stroke="midnightblue" points="392.17,-142.1 390.23,-131.68 385.25,-141.03 392.17,-142.1"/>
</g>
<!-- Node4 -->
<g id="node4" class="node">
<title>Node4</title>
<g id="a_node4"><a xlink:title=" ">
<polygon fill="white" stroke="#bfbfbf" points="419.11,-168.5 419.11,-187.5 475.11,-187.5 475.11,-168.5 419.11,-168.5"/>
<text text-anchor="middle" x="447.11" y="-175.5" font-family="Helvetica,sans-Serif" font-size="10.00">numeric</text>
</a>
</g>
</g>
<!-- Node1&#45;&gt;Node4 -->
<g id="edge3" class="edge">
<title>Node1&#45;&gt;Node4</title>
<path fill="none" stroke="midnightblue" d="M342.57,-224.4C365.46,-214.46 395.84,-201.26 417.95,-191.66"/>
<polygon fill="midnightblue" stroke="midnightblue" points="419.39,-194.85 427.17,-187.66 416.61,-188.43 419.39,-194.85"/>
</g>
<!-- Node5 -->
<g id="node5" class="node">
<title>Node5</title>
<g id="a_node5"><a xlink:title=" ">
<polygon fill="white" stroke="#bfbfbf" points="493.61,-168.5 493.61,-187.5 550.61,-187.5 550.61,-168.5 493.61,-168.5"/>
<text text-anchor="middle" x="522.11" y="-175.5" font-family="Helvetica,sans-Serif" font-size="10.00">ostream</text>
</a>
</g>
</g>
<!-- Node1&#45;&gt;Node5 -->
<g id="edge4" class="edge">
<title>Node1&#45;&gt;Node5</title>
<path fill="none" stroke="midnightblue" d="M360.08,-224.47C397.85,-213.87 448.94,-199.54 483.58,-189.81"/>
<polygon fill="midnightblue" stroke="midnightblue" points="484.64,-193.15 493.33,-187.08 482.75,-186.41 484.64,-193.15"/>
</g>
<!-- Node6 -->
<g id="node6" class="node">
<title>Node6</title>
<g id="a_node6"><a xlink:title=" ">
<polygon fill="white" stroke="#bfbfbf" points="80.61,-0.5 80.61,-19.5 127.61,-19.5 127.61,-0.5 80.61,-0.5"/>
<text text-anchor="middle" x="104.11" y="-7.5" font-family="Helvetica,sans-Serif" font-size="10.00">vector</text>
</a>
</g>
</g>
<!-- Node1&#45;&gt;Node6 -->
<g id="edge5" class="edge">
<title>Node1&#45;&gt;Node6</title>
<path fill="none" stroke="midnightblue" d="M256.54,-229.47C182.12,-213.59 51.17,-172.65 3.11,-76 -12.44,-44.73 35.58,-26.56 70.65,-17.73"/>
<polygon fill="midnightblue" stroke="midnightblue" points="71.65,-21.08 80.58,-15.38 70.04,-14.27 71.65,-21.08"/>
</g>
<!-- Node7 -->
<g id="node7" class="node">
<title>Node7</title>
<g id="a_node7"><a xlink:href="../../d1/d80/BLAS_8h.html" target="_top" xlink:title=" ">
<polygon fill="white" stroke="black" points="311.61,-168.5 311.61,-187.5 362.61,-187.5 362.61,-168.5 311.61,-168.5"/>
<text text-anchor="middle" x="337.11" y="-175.5" font-family="Helvetica,sans-Serif" font-size="10.00">BLAS.h</text>
</a>
</g>
</g>
<!-- Node1&#45;&gt;Node7 -->
<g id="edge6" class="edge">
<title>Node1&#45;&gt;Node7</title>
<path fill="none" stroke="midnightblue" d="M316.51,-224.4C320.23,-216.2 324.95,-205.78 328.94,-196.99"/>
<polygon fill="midnightblue" stroke="midnightblue" points="332.23,-198.21 333.18,-187.66 325.86,-195.32 332.23,-198.21"/>
</g>
<!-- Node8 -->
<g id="node8" class="node">
<title>Node8</title>
<g id="a_node8"><a xlink:href="../../d3/db1/Matrix_8h.html" target="_top" xlink:title="This file contains my BLAS::Matrix declarations.">
<polygon fill="white" stroke="black" points="111.11,-112.5 111.11,-131.5 255.11,-131.5 255.11,-112.5 111.11,-112.5"/>
<text text-anchor="middle" x="183.11" y="-119.5" font-family="Helvetica,sans-Serif" font-size="10.00">math/blas/matrix/Matrix.h</text>
</a>
</g>
</g>
<!-- Node1&#45;&gt;Node8 -->
<g id="edge19" class="edge">
<title>Node1&#45;&gt;Node8</title>
<path fill="none" stroke="midnightblue" d="M294.53,-224.34C270.61,-202.58 224.99,-161.09 200.19,-138.54"/>
<polygon fill="midnightblue" stroke="midnightblue" points="202.39,-135.81 192.64,-131.67 197.68,-140.99 202.39,-135.81"/>
</g>
<!-- Node11 -->
<g id="node11" class="node">
<title>Node11</title>
<g id="a_node11"><a xlink:href="../../d6/dbe/Vector_8h.html" target="_top" xlink:title="This file contains my BLAS::Vector implementation.">
<polygon fill="white" stroke="black" points="384.61,-56.5 384.61,-75.5 525.61,-75.5 525.61,-56.5 384.61,-56.5"/>
<text text-anchor="middle" x="455.11" y="-63.5" font-family="Helvetica,sans-Serif" font-size="10.00">math/blas/vector/Vector.h</text>
</a>
</g>
</g>
<!-- Node1&#45;&gt;Node11 -->
<g id="edge20" class="edge">
<title>Node1&#45;&gt;Node11</title>
<path fill="none" stroke="midnightblue" d="M305.43,-224.37C301.39,-209.88 297.06,-186.86 303.11,-168 312.44,-138.87 319.06,-130.9 343.11,-112 362.75,-96.56 388.39,-85.74 410.18,-78.58"/>
<polygon fill="midnightblue" stroke="midnightblue" points="411.39,-81.87 419.89,-75.55 409.3,-75.19 411.39,-81.87"/>
</g>
<!-- Node7&#45;&gt;Node3 -->
<g id="edge7" class="edge">
<title>Node7&#45;&gt;Node3</title>
<path fill="none" stroke="midnightblue" d="M346.02,-168.08C353.89,-160.22 365.54,-148.57 375.03,-139.08"/>
<polygon fill="midnightblue" stroke="midnightblue" points="377.76,-141.3 382.36,-131.75 372.81,-136.35 377.76,-141.3"/>
</g>
<!-- Node7&#45;&gt;Node8 -->
<g id="edge8" class="edge">
<title>Node7&#45;&gt;Node8</title>
<path fill="none" stroke="midnightblue" d="M312.71,-168.44C286.91,-159.4 246.03,-145.06 217.09,-134.92"/>
<polygon fill="midnightblue" stroke="midnightblue" points="217.99,-131.52 207.4,-131.52 215.67,-138.13 217.99,-131.52"/>
</g>
<!-- Node7&#45;&gt;Node11 -->
<g id="edge18" class="edge">
<title>Node7&#45;&gt;Node11</title>
<path fill="none" stroke="midnightblue" d="M337.88,-168.35C339.52,-154.77 344.5,-128.34 359.11,-112 372.94,-96.53 393.2,-85.96 411.56,-78.97"/>
<polygon fill="midnightblue" stroke="midnightblue" points="412.96,-82.18 421.22,-75.54 410.62,-75.59 412.96,-82.18"/>
</g>
<!-- Node8&#45;&gt;Node2 -->
<g id="edge9" class="edge">
<title>Node8&#45;&gt;Node2</title>
<path fill="none" stroke="midnightblue" d="M161.08,-112.44C138,-103.48 101.55,-89.31 75.47,-79.18"/>
<polygon fill="midnightblue" stroke="midnightblue" points="76.62,-75.88 66.03,-75.52 74.08,-82.4 76.62,-75.88"/>
</g>
<!-- Node8&#45;&gt;Node6 -->
<g id="edge12" class="edge">
<title>Node8&#45;&gt;Node6</title>
<path fill="none" stroke="midnightblue" d="M168.64,-112.31C156.34,-104.27 138.99,-91.27 128.11,-76 118.08,-61.93 111.75,-43.19 108.12,-29.45"/>
<polygon fill="midnightblue" stroke="midnightblue" points="111.52,-28.59 105.78,-19.69 104.71,-30.23 111.52,-28.59"/>
</g>
<!-- Node9 -->
<g id="node9" class="node">
<title>Node9</title>
<g id="a_node9"><a xlink:title=" ">
<polygon fill="white" stroke="#bfbfbf" points="170.11,-56.5 170.11,-75.5 222.11,-75.5 222.11,-56.5 170.11,-56.5"/>
<text text-anchor="middle" x="196.11" y="-63.5" font-family="Helvetica,sans-Serif" font-size="10.00">cassert</text>
</a>
</g>
</g>
<!-- Node8&#45;&gt;Node9 -->
<g id="edge10" class="edge">
<title>Node8&#45;&gt;Node9</title>
<path fill="none" stroke="midnightblue" d="M185.25,-112.08C186.98,-104.93 189.45,-94.64 191.61,-85.69"/>
<polygon fill="midnightblue" stroke="midnightblue" points="195.06,-86.29 194,-75.75 188.26,-84.65 195.06,-86.29"/>
</g>
<!-- Node10 -->
<g id="node10" class="node">
<title>Node10</title>
<g id="a_node10"><a xlink:title=" ">
<polygon fill="white" stroke="#bfbfbf" points="248.11,-0.5 248.11,-19.5 308.11,-19.5 308.11,-0.5 248.11,-0.5"/>
<text text-anchor="middle" x="278.11" y="-7.5" font-family="Helvetica,sans-Serif" font-size="10.00">iostream</text>
</a>
</g>
</g>
<!-- Node8&#45;&gt;Node10 -->
<g id="edge11" class="edge">
<title>Node8&#45;&gt;Node10</title>
<path fill="none" stroke="midnightblue" d="M175.58,-112.33C165.13,-99.19 148.83,-73.87 161.11,-56 178.24,-31.06 211.28,-19.93 237.89,-14.98"/>
<polygon fill="midnightblue" stroke="midnightblue" points="238.79,-18.38 248.09,-13.31 237.66,-11.47 238.79,-18.38"/>
</g>
<!-- Node8&#45;&gt;Node11 -->
<g id="edge13" class="edge">
<title>Node8&#45;&gt;Node11</title>
<path fill="none" stroke="midnightblue" d="M226.21,-112.44C273.95,-102.96 350.97,-87.67 402.3,-77.48"/>
<polygon fill="midnightblue" stroke="midnightblue" points="403.08,-80.9 412.21,-75.52 401.72,-74.03 403.08,-80.9"/>
</g>
<!-- Node13 -->
<g id="node13" class="node">
<title>Node13</title>
<g id="a_node13"><a xlink:href="../../d1/d45/Constants_8h.html" target="_top" xlink:title="MyBLAS Constants definition.">
<polygon fill="white" stroke="black" points="240.11,-56.5 240.11,-75.5 366.11,-75.5 366.11,-56.5 240.11,-56.5"/>
<text text-anchor="middle" x="303.11" y="-63.5" font-family="Helvetica,sans-Serif" font-size="10.00">math/blas/Constants.h</text>
</a>
</g>
</g>
<!-- Node8&#45;&gt;Node13 -->
<g id="edge17" class="edge">
<title>Node8&#45;&gt;Node13</title>
<path fill="none" stroke="midnightblue" d="M202.12,-112.44C221.7,-103.64 252.42,-89.81 274.84,-79.72"/>
<polygon fill="midnightblue" stroke="midnightblue" points="276.5,-82.81 284.18,-75.52 273.63,-76.43 276.5,-82.81"/>
</g>
<!-- Node11&#45;&gt;Node6 -->
<g id="edge16" class="edge">
<title>Node11&#45;&gt;Node6</title>
<path fill="none" stroke="midnightblue" d="M399.49,-56.44C326,-45.14 198.79,-25.57 138.15,-16.24"/>
<polygon fill="midnightblue" stroke="midnightblue" points="138.39,-12.73 127.98,-14.67 137.33,-19.65 138.39,-12.73"/>
</g>
<!-- Node11&#45;&gt;Node10 -->
<g id="edge15" class="edge">
<title>Node11&#45;&gt;Node10</title>
<path fill="none" stroke="midnightblue" d="M427.06,-56.44C397.03,-47.28 349.19,-32.69 315.86,-22.52"/>
<polygon fill="midnightblue" stroke="midnightblue" points="316.61,-19.09 306.02,-19.52 314.57,-25.78 316.61,-19.09"/>
</g>
<!-- Node12 -->
<g id="node12" class="node">
<title>Node12</title>
<g id="a_node12"><a xlink:title=" ">
<polygon fill="white" stroke="#bfbfbf" points="427.11,-0.5 427.11,-19.5 483.11,-19.5 483.11,-0.5 427.11,-0.5"/>
<text text-anchor="middle" x="455.11" y="-7.5" font-family="Helvetica,sans-Serif" font-size="10.00">iomanip</text>
</a>
</g>
</g>
<!-- Node11&#45;&gt;Node12 -->
<g id="edge14" class="edge">
<title>Node11&#45;&gt;Node12</title>
<path fill="none" stroke="midnightblue" d="M455.11,-56.08C455.11,-49.01 455.11,-38.86 455.11,-29.99"/>
<polygon fill="midnightblue" stroke="midnightblue" points="458.61,-29.75 455.11,-19.75 451.61,-29.75 458.61,-29.75"/>
</g>
</g>
</svg>
        <g id="navigator" transform="translate(0 0)" fill="#404254">
                <rect fill="#f2f5e9" fill-opacity="0.5" stroke="#606060" stroke-width=".5" x="0" y="0" width="60" height="60"/>
                <use id="zoomplus" xlink:href="#zoomPlus" x="17" y="9" onmousedown="handleZoom(evt,'in')"/>
                <use id="zoomminus" xlink:href="#zoomMin" x="42" y="9" onmousedown="handleZoom(evt,'out')"/>
                <use id="reset" xlink:href="#resetDef" x="30" y="36" onmousedown="handleReset()"/>
                <g id="arrowUp" xlink:href="#dirArrow" transform="translate(30 24)" onmousedown="handlePan(0,-1)">
                  <use xlink:href="#rim" fill="#404040">
                        <set attributeName="fill" to="#808080" begin="arrowUp.mouseover" end="arrowUp.mouseout"/>
                  </use>
                  <path fill="none" stroke="white" stroke-width="1.5" d="M0,-3.0v7 M-2.5,-0.5L0,-3.0L2.5,-0.5"/>
                </g>
                <g id="arrowRight" xlink:href="#dirArrow" transform="rotate(90) translate(36 -43)" onmousedown="handlePan(1,0)">
                  <use xlink:href="#rim" fill="#404040">
                        <set attributeName="fill" to="#808080" begin="arrowRight.mouseover" end="arrowRight.mouseout"/>
                  </use>
                  <path fill="none" stroke="white" stroke-width="1.5" d="M0,-3.0v7 M-2.5,-0.5L0,-3.0L2.5,-0.5"/>
                </g>
                <g id="arrowDown" xlink:href="#dirArrow" transform="rotate(180) translate(-30 -48)" onmousedown="handlePan(0,1)">
                  <use xlink:href="#rim" fill="#404040">
                        <set attributeName="fill" to="#808080" begin="arrowDown.mouseover" end="arrowDown.mouseout"/>
                  </use>
                  <path fill="none" stroke="white" stroke-width="1.5" d="M0,-3.0v7 M-2.5,-0.5L0,-3.0L2.5,-0.5"/>
                </g>
                <g id="arrowLeft" xlink:href="#dirArrow" transform="rotate(270) translate(-36 17)" onmousedown="handlePan(-1,0)">
                  <use xlink:href="#rim" fill="#404040">
                        <set attributeName="fill" to="#808080" begin="arrowLeft.mouseover" end="arrowLeft.mouseout"/>
                  </use>
                  <path fill="none" stroke="white" stroke-width="1.5" d="M0,-3.0v7 M-2.5,-0.5L0,-3.0L2.5,-0.5"/>
                </g>
        </g>
        <svg viewBox="0 0 15 15" width="100%" height="30px" preserveAspectRatio="xMaxYMin meet">
         <g id="arrow_out" transform="scale(0.3 0.3)">
          <a xlink:href="Stats_8h__incl_org.svg" target="_base">
           <rect id="button" ry="5" rx="5" y="6" x="6" height="38" width="38"
                fill="#f2f5e9" fill-opacity="0.5" stroke="#606060" stroke-width="1.0"/>
           <path id="arrow"
             d="M 11.500037,31.436501 C 11.940474,20.09759 22.043105,11.32322 32.158766,21.979434 L 37.068811,17.246167 C 37.068811,17.246167 37.088388,32 37.088388,32 L 22.160133,31.978069 C 22.160133,31.978069 26.997745,27.140456 26.997745,27.140456 C 18.528582,18.264221 13.291696,25.230495 11.500037,31.436501 z"
             style="fill:#404040;"/>
          </a>
         </g>
        </svg>
</svg>
