<?xml version="1.0" encoding="UTF-8" standalone="no"?>
<!DOCTYPE svg PUBLIC "-//W3C//DTD SVG 1.1//EN"
 "http://www.w3.org/Graphics/SVG/1.1/DTD/svg11.dtd">
<!-- Generated by graphviz version 2.43.0 (0)
 -->
<!-- Title: src/utils/math/blas/Stats.h Pages: 1 -->
<svg width="458pt" height="263pt"
 viewBox="0.00 0.00 458.46 263.00" xmlns="http://www.w3.org/2000/svg" xmlns:xlink="http://www.w3.org/1999/xlink">
<g id="graph0" class="graph" transform="scale(1 1) rotate(0) translate(4 259)">
<title>src/utils/math/blas/Stats.h</title>
<polygon fill="white" stroke="transparent" points="-4,4 -4,-259 454.46,-259 454.46,4 -4,4"/>
<!-- Node1 -->
<g id="node1" class="node">
<title>Node1</title>
<g id="a_node1"><a xlink:title="This file contains the declaration of statistical functions and structures for vectors and matrices.">
<polygon fill="#bfbfbf" stroke="black" points="156.46,-224.5 156.46,-254.5 263.46,-254.5 263.46,-224.5 156.46,-224.5"/>
<text text-anchor="start" x="164.46" y="-242.5" font-family="Helvetica,sans-Serif" font-size="10.00">src/utils/math/blas</text>
<text text-anchor="middle" x="209.96" y="-231.5" font-family="Helvetica,sans-Serif" font-size="10.00">/Stats.h</text>
</a>
</g>
</g>
<!-- Node2 -->
<g id="node2" class="node">
<title>Node2</title>
<g id="a_node2"><a xlink:title=" ">
<polygon fill="white" stroke="#bfbfbf" points="11.96,-56.5 11.96,-75.5 75.96,-75.5 75.96,-56.5 11.96,-56.5"/>
<text text-anchor="middle" x="43.96" y="-63.5" font-family="Helvetica,sans-Serif" font-size="10.00">algorithm</text>
</a>
</g>
</g>
<!-- Node1&#45;&gt;Node2 -->
<g id="edge1" class="edge">
<title>Node1&#45;&gt;Node2</title>
<path fill="none" stroke="midnightblue" d="M173.03,-224.45C135.81,-208.2 79.98,-177.68 51.96,-132 43.51,-118.22 41.98,-99.69 42.29,-85.95"/>
<polygon fill="midnightblue" stroke="midnightblue" points="45.8,-85.91 42.87,-75.73 38.81,-85.52 45.8,-85.91"/>
</g>
<!-- Node3 -->
<g id="node3" class="node">
<title>Node3</title>
<g id="a_node3"><a xlink:title=" ">
<polygon fill="white" stroke="#bfbfbf" points="266.46,-112.5 266.46,-131.5 313.46,-131.5 313.46,-112.5 266.46,-112.5"/>
<text text-anchor="middle" x="289.96" y="-119.5" font-family="Helvetica,sans-Serif" font-size="10.00">cmath</text>
</a>
</g>
</g>
<!-- Node1&#45;&gt;Node3 -->
<g id="edge2" class="edge">
<title>Node1&#45;&gt;Node3</title>
<path fill="none" stroke="midnightblue" d="M232.91,-224.49C245.8,-215.52 261.22,-202.82 270.96,-188 280.15,-174.03 284.99,-155.53 287.48,-141.84"/>
<polygon fill="midnightblue" stroke="midnightblue" points="290.99,-142.09 289.07,-131.67 284.07,-141.02 290.99,-142.09"/>
</g>
<!-- Node4 -->
<g id="node4" class="node">
<title>Node4</title>
<g id="a_node4"><a xlink:title=" ">
<polygon fill="white" stroke="#bfbfbf" points="318.96,-168.5 318.96,-187.5 374.96,-187.5 374.96,-168.5 318.96,-168.5"/>
<text text-anchor="middle" x="346.96" y="-175.5" font-family="Helvetica,sans-Serif" font-size="10.00">numeric</text>
</a>
</g>
</g>
<!-- Node1&#45;&gt;Node4 -->
<g id="edge3" class="edge">
<title>Node1&#45;&gt;Node4</title>
<path fill="none" stroke="midnightblue" d="M242.43,-224.4C265.31,-214.46 295.7,-201.26 317.81,-191.66"/>
<polygon fill="midnightblue" stroke="midnightblue" points="319.25,-194.85 327.03,-187.66 316.46,-188.43 319.25,-194.85"/>
</g>
<!-- Node5 -->
<g id="node5" class="node">
<title>Node5</title>
<g id="a_node5"><a xlink:title=" ">
<polygon fill="white" stroke="#bfbfbf" points="393.46,-168.5 393.46,-187.5 450.46,-187.5 450.46,-168.5 393.46,-168.5"/>
<text text-anchor="middle" x="421.96" y="-175.5" font-family="Helvetica,sans-Serif" font-size="10.00">ostream</text>
</a>
</g>
</g>
<!-- Node1&#45;&gt;Node5 -->
<g id="edge4" class="edge">
<title>Node1&#45;&gt;Node5</title>
<path fill="none" stroke="midnightblue" d="M259.94,-224.47C297.71,-213.87 348.79,-199.54 383.43,-189.81"/>
<polygon fill="midnightblue" stroke="midnightblue" points="384.5,-193.15 393.18,-187.08 382.61,-186.41 384.5,-193.15"/>
</g>
<!-- Node6 -->
<g id="node6" class="node">
<title>Node6</title>
<g id="a_node6"><a xlink:title=" ">
<polygon fill="white" stroke="#bfbfbf" points="66.46,-0.5 66.46,-19.5 113.46,-19.5 113.46,-0.5 66.46,-0.5"/>
<text text-anchor="middle" x="89.96" y="-7.5" font-family="Helvetica,sans-Serif" font-size="10.00">vector</text>
</a>
</g>
</g>
<!-- Node1&#45;&gt;Node6 -->
<g id="edge5" class="edge">
<title>Node1&#45;&gt;Node6</title>
<path fill="none" stroke="midnightblue" d="M156.44,-225.89C131.08,-218.02 101.48,-205.89 78.96,-188 31.86,-150.58 20.63,-133.5 2.96,-76 0.35,-67.5 -1.66,-63.59 2.96,-56 14.63,-36.83 37.4,-25.46 56.71,-18.95"/>
<polygon fill="midnightblue" stroke="midnightblue" points="57.89,-22.25 66.42,-15.97 55.84,-15.56 57.89,-22.25"/>
</g>
<!-- Node7 -->
<g id="node7" class="node">
<title>Node7</title>
<g id="a_node7"><a xlink:href="../../d1/d80/BLAS_8h.html" target="_top" xlink:title=" ">
<polygon fill="white" stroke="black" points="211.46,-168.5 211.46,-187.5 262.46,-187.5 262.46,-168.5 211.46,-168.5"/>
<text text-anchor="middle" x="236.96" y="-175.5" font-family="Helvetica,sans-Serif" font-size="10.00">BLAS.h</text>
</a>
</g>
</g>
<!-- Node1&#45;&gt;Node7 -->
<g id="edge6" class="edge">
<title>Node1&#45;&gt;Node7</title>
<path fill="none" stroke="midnightblue" d="M216.36,-224.4C220.08,-216.2 224.81,-205.78 228.8,-196.99"/>
<polygon fill="midnightblue" stroke="midnightblue" points="232.09,-198.21 233.03,-187.66 225.72,-195.32 232.09,-198.21"/>
</g>
<!-- Node8 -->
<g id="node8" class="node">
<title>Node8</title>
<g id="a_node8"><a xlink:href="../../d3/db1/Matrix_8h.html" target="_top" xlink:title="This file contains my BLAS::Matrix declarations.">
<polygon fill="white" stroke="black" points="61.46,-112.5 61.46,-131.5 170.46,-131.5 170.46,-112.5 61.46,-112.5"/>
<text text-anchor="middle" x="115.96" y="-119.5" font-family="Helvetica,sans-Serif" font-size="10.00">math/blas/Matrix.h</text>
</a>
</g>
</g>
<!-- Node1&#45;&gt;Node8 -->
<g id="edge17" class="edge">
<title>Node1&#45;&gt;Node8</title>
<path fill="none" stroke="midnightblue" d="M198.44,-224.34C180.96,-202.86 147.84,-162.17 129.33,-139.43"/>
<polygon fill="midnightblue" stroke="midnightblue" points="132.05,-137.22 123.02,-131.67 126.62,-141.63 132.05,-137.22"/>
</g>
<!-- Node10 -->
<g id="node10" class="node">
<title>Node10</title>
<g id="a_node10"><a xlink:href="../../d6/dbe/Vector_8h.html" target="_top" xlink:title="This file contains my BLAS::Vector implementation.">
<polygon fill="white" stroke="black" points="170.46,-56.5 170.46,-75.5 277.46,-75.5 277.46,-56.5 170.46,-56.5"/>
<text text-anchor="middle" x="223.96" y="-63.5" font-family="Helvetica,sans-Serif" font-size="10.00">math/blas/Vector.h</text>
</a>
</g>
</g>
<!-- Node1&#45;&gt;Node10 -->
<g id="edge18" class="edge">
<title>Node1&#45;&gt;Node10</title>
<path fill="none" stroke="midnightblue" d="M207.12,-224.42C205.24,-214.33 202.94,-200.39 201.96,-188 199.07,-151.25 210.09,-109.03 217.57,-85.44"/>
<polygon fill="midnightblue" stroke="midnightblue" points="220.96,-86.32 220.78,-75.73 214.32,-84.12 220.96,-86.32"/>
</g>
<!-- Node7&#45;&gt;Node3 -->
<g id="edge7" class="edge">
<title>Node7&#45;&gt;Node3</title>
<path fill="none" stroke="midnightblue" d="M245.72,-168.08C253.43,-160.22 264.87,-148.57 274.18,-139.08"/>
<polygon fill="midnightblue" stroke="midnightblue" points="276.87,-141.34 281.37,-131.75 271.87,-136.44 276.87,-141.34"/>
</g>
<!-- Node7&#45;&gt;Node8 -->
<g id="edge8" class="edge">
<title>Node7&#45;&gt;Node8</title>
<path fill="none" stroke="midnightblue" d="M217.79,-168.44C198.05,-159.64 167.08,-145.81 144.47,-135.72"/>
<polygon fill="midnightblue" stroke="midnightblue" points="145.6,-132.4 135.05,-131.52 142.75,-138.79 145.6,-132.4"/>
</g>
<!-- Node7&#45;&gt;Node10 -->
<g id="edge16" class="edge">
<title>Node7&#45;&gt;Node10</title>
<path fill="none" stroke="midnightblue" d="M235.94,-168.37C233.85,-150.62 229.01,-109.67 226.16,-85.6"/>
<polygon fill="midnightblue" stroke="midnightblue" points="229.63,-85.11 224.98,-75.59 222.68,-85.93 229.63,-85.11"/>
</g>
<!-- Node8&#45;&gt;Node2 -->
<g id="edge9" class="edge">
<title>Node8&#45;&gt;Node2</title>
<path fill="none" stroke="midnightblue" d="M104.4,-112.32C93.54,-104.18 77.08,-91.84 64.08,-82.09"/>
<polygon fill="midnightblue" stroke="midnightblue" points="65.84,-79.03 55.74,-75.83 61.64,-84.63 65.84,-79.03"/>
</g>
<!-- Node8&#45;&gt;Node6 -->
<g id="edge11" class="edge">
<title>Node8&#45;&gt;Node6</title>
<path fill="none" stroke="midnightblue" d="M113.92,-112.37C109.73,-94.62 100.05,-53.67 94.36,-29.6"/>
<polygon fill="midnightblue" stroke="midnightblue" points="97.7,-28.52 91.99,-19.59 90.89,-30.13 97.7,-28.52"/>
</g>
<!-- Node9 -->
<g id="node9" class="node">
<title>Node9</title>
<g id="a_node9"><a xlink:title=" ">
<polygon fill="white" stroke="#bfbfbf" points="131.96,-0.5 131.96,-19.5 191.96,-19.5 191.96,-0.5 131.96,-0.5"/>
<text text-anchor="middle" x="161.96" y="-7.5" font-family="Helvetica,sans-Serif" font-size="10.00">iostream</text>
</a>
</g>
</g>
<!-- Node8&#45;&gt;Node9 -->
<g id="edge10" class="edge">
<title>Node8&#45;&gt;Node9</title>
<path fill="none" stroke="midnightblue" d="M119.57,-112.37C127.06,-94.46 144.43,-52.92 154.46,-28.95"/>
<polygon fill="midnightblue" stroke="midnightblue" points="157.74,-30.17 158.37,-19.59 151.28,-27.47 157.74,-30.17"/>
</g>
<!-- Node8&#45;&gt;Node10 -->
<g id="edge12" class="edge">
<title>Node8&#45;&gt;Node10</title>
<path fill="none" stroke="midnightblue" d="M133.32,-112.32C150.64,-103.66 177.48,-90.24 197.47,-80.25"/>
<polygon fill="midnightblue" stroke="midnightblue" points="199.28,-83.26 206.65,-75.65 196.14,-77 199.28,-83.26"/>
</g>
<!-- Node10&#45;&gt;Node6 -->
<g id="edge15" class="edge">
<title>Node10&#45;&gt;Node6</title>
<path fill="none" stroke="midnightblue" d="M202.73,-56.44C180.58,-47.52 145.64,-33.44 120.53,-23.32"/>
<polygon fill="midnightblue" stroke="midnightblue" points="121.68,-20.01 111.1,-19.52 119.06,-26.5 121.68,-20.01"/>
</g>
<!-- Node10&#45;&gt;Node9 -->
<g id="edge14" class="edge">
<title>Node10&#45;&gt;Node9</title>
<path fill="none" stroke="midnightblue" d="M214,-56.32C204.84,-48.34 191.03,-36.31 179.94,-26.65"/>
<polygon fill="midnightblue" stroke="midnightblue" points="181.95,-23.76 172.11,-19.83 177.35,-29.04 181.95,-23.76"/>
</g>
<!-- Node11 -->
<g id="node11" class="node">
<title>Node11</title>
<g id="a_node11"><a xlink:title=" ">
<polygon fill="white" stroke="#bfbfbf" points="209.96,-0.5 209.96,-19.5 265.96,-19.5 265.96,-0.5 209.96,-0.5"/>
<text text-anchor="middle" x="237.96" y="-7.5" font-family="Helvetica,sans-Serif" font-size="10.00">iomanip</text>
</a>
</g>
</g>
<!-- Node10&#45;&gt;Node11 -->
<g id="edge13" class="edge">
<title>Node10&#45;&gt;Node11</title>
<path fill="none" stroke="midnightblue" d="M226.28,-56.08C228.13,-48.93 230.8,-38.64 233.12,-29.69"/>
<polygon fill="midnightblue" stroke="midnightblue" points="236.57,-30.31 235.69,-19.75 229.8,-28.55 236.57,-30.31"/>
</g>
</g>
</svg>
