<?xml version="1.0" encoding="UTF-8" standalone="no"?>
<!DOCTYPE svg PUBLIC "-//W3C//DTD SVG 1.1//EN"
 "http://www.w3.org/Graphics/SVG/1.1/DTD/svg11.dtd">
<!-- Generated by graphviz version 2.43.0 (0)
 -->
<!-- Title: Project::execute Pages: 1 -->
<svg width="413pt" height="142pt"
 viewBox="0.00 0.00 413.00 142.00" xmlns="http://www.w3.org/2000/svg" xmlns:xlink="http://www.w3.org/1999/xlink">
<g id="graph0" class="graph" transform="scale(1 1) rotate(0) translate(4 138)">
<title>Project::execute</title>
<polygon fill="white" stroke="transparent" points="-4,4 -4,-138 409,-138 409,4 -4,4"/>
<!-- Node1 -->
<g id="node1" class="node">
<title>Node1</title>
<g id="a_node1"><a xlink:title="Executes the project.">
<polygon fill="#bfbfbf" stroke="black" points="0,-76.5 0,-95.5 95,-95.5 95,-76.5 0,-76.5"/>
<text text-anchor="middle" x="47.5" y="-83.5" font-family="Helvetica,sans-Serif" font-size="10.00">Project::execute</text>
</a>
</g>
</g>
<!-- Node2 -->
<g id="node2" class="node">
<title>Node2</title>
<g id="a_node2"><a xlink:href="../../db/d91/classProject.html#acbe73feefb53a07d8e760324b104acc9" target="_top" xlink:title="Initializes the project.">
<polygon fill="white" stroke="black" points="134,-104.5 134,-123.5 232,-123.5 232,-104.5 134,-104.5"/>
<text text-anchor="middle" x="183" y="-111.5" font-family="Helvetica,sans-Serif" font-size="10.00">Project::initialize</text>
</a>
</g>
</g>
<!-- Node1&#45;&gt;Node2 -->
<g id="edge1" class="edge">
<title>Node1&#45;&gt;Node2</title>
<path fill="none" stroke="midnightblue" d="M94.07,-95.56C104.6,-97.77 115.9,-100.14 126.79,-102.42"/>
<polygon fill="midnightblue" stroke="midnightblue" points="126.13,-105.86 136.64,-104.49 127.57,-99.01 126.13,-105.86"/>
</g>
<!-- Node4 -->
<g id="node4" class="node">
<title>Node4</title>
<g id="a_node4"><a xlink:href="../../db/d91/classProject.html#a524174b93fd777a689b64e49cc6ff1db" target="_top" xlink:title="Executes the project in a timed manner. This method calls preRun, run, and postRun methods in sequenc...">
<polygon fill="white" stroke="black" points="131,-57.5 131,-76.5 235,-76.5 235,-57.5 131,-57.5"/>
<text text-anchor="middle" x="183" y="-64.5" font-family="Helvetica,sans-Serif" font-size="10.00">Project::timedRun</text>
</a>
</g>
</g>
<!-- Node1&#45;&gt;Node4 -->
<g id="edge3" class="edge">
<title>Node1&#45;&gt;Node4</title>
<path fill="none" stroke="midnightblue" d="M95.19,-79.35C103.41,-78.19 112.07,-76.95 120.61,-75.74"/>
<polygon fill="midnightblue" stroke="midnightblue" points="121.15,-79.2 130.55,-74.32 120.16,-72.27 121.15,-79.2"/>
</g>
<!-- Node3 -->
<g id="node3" class="node">
<title>Node3</title>
<g id="a_node3"><a xlink:href="../../db/d91/classProject.html#a253538a3f4435358c94fd6e682b154dd" target="_top" xlink:title="Builds the header information.">
<polygon fill="white" stroke="black" points="271,-114.5 271,-133.5 405,-133.5 405,-114.5 271,-114.5"/>
<text text-anchor="middle" x="338" y="-121.5" font-family="Helvetica,sans-Serif" font-size="10.00">Project::buildHeaderInfo</text>
</a>
</g>
</g>
<!-- Node2&#45;&gt;Node3 -->
<g id="edge2" class="edge">
<title>Node2&#45;&gt;Node3</title>
<path fill="none" stroke="midnightblue" d="M232.41,-117.16C241.44,-117.75 251.08,-118.38 260.71,-119.01"/>
<polygon fill="midnightblue" stroke="midnightblue" points="260.52,-122.51 270.73,-119.67 260.98,-115.52 260.52,-122.51"/>
</g>
<!-- Node5 -->
<g id="node5" class="node">
<title>Node5</title>
<g id="a_node5"><a xlink:href="../../db/d91/classProject.html#a2873dd0aa78848433775442dda988e79" target="_top" xlink:title="A hook for performing actions after the run.">
<polygon fill="white" stroke="black" points="290,-76.5 290,-95.5 386,-95.5 386,-76.5 290,-76.5"/>
<text text-anchor="middle" x="338" y="-83.5" font-family="Helvetica,sans-Serif" font-size="10.00">Project::postRun</text>
</a>
</g>
</g>
<!-- Node4&#45;&gt;Node5 -->
<g id="edge4" class="edge">
<title>Node4&#45;&gt;Node5</title>
<path fill="none" stroke="midnightblue" d="M235.37,-73.38C249.69,-75.16 265.33,-77.1 279.95,-78.92"/>
<polygon fill="midnightblue" stroke="midnightblue" points="279.53,-82.39 289.89,-80.15 280.4,-75.44 279.53,-82.39"/>
</g>
<!-- Node6 -->
<g id="node6" class="node">
<title>Node6</title>
<g id="a_node6"><a xlink:href="../../db/d91/classProject.html#ab323cfcafd876a24b9321d58355b7662" target="_top" xlink:title="A hook for performing actions before the run.">
<polygon fill="white" stroke="black" points="292.5,-38.5 292.5,-57.5 383.5,-57.5 383.5,-38.5 292.5,-38.5"/>
<text text-anchor="middle" x="338" y="-45.5" font-family="Helvetica,sans-Serif" font-size="10.00">Project::preRun</text>
</a>
</g>
</g>
<!-- Node4&#45;&gt;Node6 -->
<g id="edge5" class="edge">
<title>Node4&#45;&gt;Node6</title>
<path fill="none" stroke="midnightblue" d="M235.37,-60.62C250.4,-58.75 266.88,-56.71 282.11,-54.82"/>
<polygon fill="midnightblue" stroke="midnightblue" points="282.93,-58.24 292.42,-53.54 282.07,-51.29 282.93,-58.24"/>
</g>
<!-- Node7 -->
<g id="node7" class="node">
<title>Node7</title>
<g id="a_node7"><a xlink:href="../../db/d91/classProject.html#a02f8b0f24035e49482aaf78a020a7b8c" target="_top" xlink:title="Executes the project.">
<polygon fill="white" stroke="black" points="302,-0.5 302,-19.5 374,-19.5 374,-0.5 302,-0.5"/>
<text text-anchor="middle" x="338" y="-7.5" font-family="Helvetica,sans-Serif" font-size="10.00">Project::run</text>
</a>
</g>
</g>
<!-- Node4&#45;&gt;Node7 -->
<g id="edge6" class="edge">
<title>Node4&#45;&gt;Node7</title>
<path fill="none" stroke="midnightblue" d="M203.74,-57.49C221.18,-49.3 247.43,-37.5 271,-29 277.79,-26.55 285.05,-24.2 292.19,-22.04"/>
<polygon fill="midnightblue" stroke="midnightblue" points="293.18,-25.39 301.79,-19.21 291.21,-18.68 293.18,-25.39"/>
</g>
</g>
</svg>
