<?xml version="1.0" encoding="UTF-8" standalone="no"?>
<!DOCTYPE svg PUBLIC "-//W3C//DTD SVG 1.1//EN"
 "http://www.w3.org/Graphics/SVG/1.1/DTD/svg11.dtd">
<!-- Generated by graphviz version 2.43.0 (0)
 -->
<!-- Title: Project::getProfiler Pages: 1 -->
<svg width="291pt" height="66pt"
 viewBox="0.00 0.00 291.00 66.00" xmlns="http://www.w3.org/2000/svg" xmlns:xlink="http://www.w3.org/1999/xlink">
<g id="graph0" class="graph" transform="scale(1 1) rotate(0) translate(4 62)">
<title>Project::getProfiler</title>
<polygon fill="white" stroke="transparent" points="-4,4 -4,-62 287,-62 287,4 -4,4"/>
<!-- Node1 -->
<g id="node1" class="node">
<title>Node1</title>
<g id="a_node1"><a xlink:title="Creates a Profiler object with the given function and description.">
<polygon fill="#bfbfbf" stroke="black" points="0,-19.5 0,-38.5 107,-38.5 107,-19.5 0,-19.5"/>
<text text-anchor="middle" x="53.5" y="-26.5" font-family="Helvetica,sans-Serif" font-size="10.00">Project::getProfiler</text>
</a>
</g>
</g>
<!-- Node2 -->
<g id="node2" class="node">
<title>Node2</title>
<g id="a_node2"><a xlink:href="../../db/d91/classProject.html#a748bf752c84f1333d905f6d30fcd2e45" target="_top" xlink:title="Returns the terminal.">
<polygon fill="white" stroke="black" points="156,-38.5 156,-57.5 270,-57.5 270,-38.5 156,-38.5"/>
<text text-anchor="middle" x="213" y="-45.5" font-family="Helvetica,sans-Serif" font-size="10.00">Project::getTerminal</text>
</a>
</g>
</g>
<!-- Node1&#45;&gt;Node2 -->
<g id="edge1" class="edge">
<title>Node1&#45;&gt;Node2</title>
<path fill="none" stroke="midnightblue" d="M107.38,-35.38C119.65,-36.86 132.87,-38.45 145.63,-39.99"/>
<polygon fill="midnightblue" stroke="midnightblue" points="145.4,-43.49 155.75,-41.21 146.24,-36.54 145.4,-43.49"/>
</g>
<!-- Node3 -->
<g id="node3" class="node">
<title>Node3</title>
<g id="a_node3"><a xlink:href="../../d1/d09/namespaceProfilerHelper.html#abe11cd437b44ab44edb928fd207cd1ed" target="_top" xlink:title="This function initializes the profiler with the given function, command line options,...">
<polygon fill="white" stroke="black" points="143,-0.5 143,-19.5 283,-19.5 283,-0.5 143,-0.5"/>
<text text-anchor="middle" x="213" y="-7.5" font-family="Helvetica,sans-Serif" font-size="10.00">ProfilerHelper::InitProfiler</text>
</a>
</g>
</g>
<!-- Node1&#45;&gt;Node3 -->
<g id="edge2" class="edge">
<title>Node1&#45;&gt;Node3</title>
<path fill="none" stroke="midnightblue" d="M107.38,-22.62C115.54,-21.64 124.11,-20.6 132.7,-19.57"/>
<polygon fill="midnightblue" stroke="midnightblue" points="133.24,-23.03 142.75,-18.35 132.41,-16.08 133.24,-23.03"/>
</g>
</g>
</svg>
