<?xml version="1.0" encoding="UTF-8" standalone="no"?>
<!DOCTYPE svg PUBLIC "-//W3C//DTD SVG 1.1//EN"
 "http://www.w3.org/Graphics/SVG/1.1/DTD/svg11.dtd">
<!-- Generated by graphviz version 2.43.0 (0)
 -->
<!-- Title: Project::execute Pages: 1 -->
<svg width="413pt" height="170pt"
 viewBox="0.00 0.00 413.00 170.00" xmlns="http://www.w3.org/2000/svg" xmlns:xlink="http://www.w3.org/1999/xlink">
<g id="graph0" class="graph" transform="scale(1 1) rotate(0) translate(4 166)">
<title>Project::execute</title>
<polygon fill="white" stroke="transparent" points="-4,4 -4,-166 409,-166 409,4 -4,4"/>
<!-- Node1 -->
<g id="node1" class="node">
<title>Node1</title>
<g id="a_node1"><a xlink:title="Executes the project.">
<polygon fill="#bfbfbf" stroke="black" points="0,-104.5 0,-123.5 95,-123.5 95,-104.5 0,-104.5"/>
<text text-anchor="middle" x="47.5" y="-111.5" font-family="Helvetica,sans-Serif" font-size="10.00">Project::execute</text>
</a>
</g>
</g>
<!-- Node2 -->
<g id="node2" class="node">
<title>Node2</title>
<g id="a_node2"><a xlink:href="../../db/d91/classProject.html#a3c1d452f2dbab887ce82a17d14f02331" target="_top" xlink:title=" ">
<polygon fill="white" stroke="black" points="137,-142.5 137,-161.5 229,-161.5 229,-142.5 137,-142.5"/>
<text text-anchor="middle" x="183" y="-149.5" font-family="Helvetica,sans-Serif" font-size="10.00">Project::finalize</text>
</a>
</g>
</g>
<!-- Node1&#45;&gt;Node2 -->
<g id="edge1" class="edge">
<title>Node1&#45;&gt;Node2</title>
<path fill="none" stroke="midnightblue" d="M82.19,-123.59C99.26,-128.45 120.2,-134.41 138.48,-139.61"/>
<polygon fill="midnightblue" stroke="midnightblue" points="137.75,-143.04 148.32,-142.41 139.66,-136.31 137.75,-143.04"/>
</g>
<!-- Node3 -->
<g id="node3" class="node">
<title>Node3</title>
<g id="a_node3"><a xlink:href="../../db/d91/classProject.html#a3dba336803f373c6c0423b1a94ac7e68" target="_top" xlink:title="Initializes the project.">
<polygon fill="white" stroke="black" points="134,-104.5 134,-123.5 232,-123.5 232,-104.5 134,-104.5"/>
<text text-anchor="middle" x="183" y="-111.5" font-family="Helvetica,sans-Serif" font-size="10.00">Project::initialize</text>
</a>
</g>
</g>
<!-- Node1&#45;&gt;Node3 -->
<g id="edge2" class="edge">
<title>Node1&#45;&gt;Node3</title>
<path fill="none" stroke="midnightblue" d="M95.19,-114C104.36,-114 114.08,-114 123.57,-114"/>
<polygon fill="midnightblue" stroke="midnightblue" points="123.75,-117.5 133.75,-114 123.75,-110.5 123.75,-117.5"/>
</g>
<!-- Node5 -->
<g id="node5" class="node">
<title>Node5</title>
<g id="a_node5"><a xlink:href="../../db/d91/classProject.html#aa176f763c07de3d80ecf50ef88b4ded2" target="_top" xlink:title="Executes the project in a timed manner. This method calls preRun, run, and postRun methods in sequenc...">
<polygon fill="white" stroke="black" points="131,-57.5 131,-76.5 235,-76.5 235,-57.5 131,-57.5"/>
<text text-anchor="middle" x="183" y="-64.5" font-family="Helvetica,sans-Serif" font-size="10.00">Project::timedRun</text>
</a>
</g>
</g>
<!-- Node1&#45;&gt;Node5 -->
<g id="edge4" class="edge">
<title>Node1&#45;&gt;Node5</title>
<path fill="none" stroke="midnightblue" d="M75.52,-104.49C95.47,-97.46 122.87,-87.82 144.88,-80.07"/>
<polygon fill="midnightblue" stroke="midnightblue" points="146.3,-83.28 154.57,-76.66 143.97,-76.68 146.3,-83.28"/>
</g>
<!-- Node4 -->
<g id="node4" class="node">
<title>Node4</title>
<g id="a_node4"><a xlink:href="../../db/d91/classProject.html#a253538a3f4435358c94fd6e682b154dd" target="_top" xlink:title="Builds the header information.">
<polygon fill="white" stroke="black" points="271,-114.5 271,-133.5 405,-133.5 405,-114.5 271,-114.5"/>
<text text-anchor="middle" x="338" y="-121.5" font-family="Helvetica,sans-Serif" font-size="10.00">Project::buildHeaderInfo</text>
</a>
</g>
</g>
<!-- Node3&#45;&gt;Node4 -->
<g id="edge3" class="edge">
<title>Node3&#45;&gt;Node4</title>
<path fill="none" stroke="midnightblue" d="M232.41,-117.16C241.44,-117.75 251.08,-118.38 260.71,-119.01"/>
<polygon fill="midnightblue" stroke="midnightblue" points="260.52,-122.51 270.73,-119.67 260.98,-115.52 260.52,-122.51"/>
</g>
<!-- Node6 -->
<g id="node6" class="node">
<title>Node6</title>
<g id="a_node6"><a xlink:href="../../db/d91/classProject.html#a2873dd0aa78848433775442dda988e79" target="_top" xlink:title="A hook for performing actions after the run.">
<polygon fill="white" stroke="black" points="290,-76.5 290,-95.5 386,-95.5 386,-76.5 290,-76.5"/>
<text text-anchor="middle" x="338" y="-83.5" font-family="Helvetica,sans-Serif" font-size="10.00">Project::postRun</text>
</a>
</g>
</g>
<!-- Node5&#45;&gt;Node6 -->
<g id="edge5" class="edge">
<title>Node5&#45;&gt;Node6</title>
<path fill="none" stroke="midnightblue" d="M235.37,-73.38C249.69,-75.16 265.33,-77.1 279.95,-78.92"/>
<polygon fill="midnightblue" stroke="midnightblue" points="279.53,-82.39 289.89,-80.15 280.4,-75.44 279.53,-82.39"/>
</g>
<!-- Node7 -->
<g id="node7" class="node">
<title>Node7</title>
<g id="a_node7"><a xlink:href="../../db/d91/classProject.html#ab323cfcafd876a24b9321d58355b7662" target="_top" xlink:title="A hook for performing actions before the run.">
<polygon fill="white" stroke="black" points="292.5,-38.5 292.5,-57.5 383.5,-57.5 383.5,-38.5 292.5,-38.5"/>
<text text-anchor="middle" x="338" y="-45.5" font-family="Helvetica,sans-Serif" font-size="10.00">Project::preRun</text>
</a>
</g>
</g>
<!-- Node5&#45;&gt;Node7 -->
<g id="edge6" class="edge">
<title>Node5&#45;&gt;Node7</title>
<path fill="none" stroke="midnightblue" d="M235.37,-60.62C250.4,-58.75 266.88,-56.71 282.11,-54.82"/>
<polygon fill="midnightblue" stroke="midnightblue" points="282.93,-58.24 292.42,-53.54 282.07,-51.29 282.93,-58.24"/>
</g>
<!-- Node8 -->
<g id="node8" class="node">
<title>Node8</title>
<g id="a_node8"><a xlink:href="../../db/d91/classProject.html#a4640723b4d363a0987576b8de578ede7" target="_top" xlink:title="Executes the project.">
<polygon fill="white" stroke="black" points="302,-0.5 302,-19.5 374,-19.5 374,-0.5 302,-0.5"/>
<text text-anchor="middle" x="338" y="-7.5" font-family="Helvetica,sans-Serif" font-size="10.00">Project::run</text>
</a>
</g>
</g>
<!-- Node5&#45;&gt;Node8 -->
<g id="edge7" class="edge">
<title>Node5&#45;&gt;Node8</title>
<path fill="none" stroke="midnightblue" d="M203.74,-57.49C221.18,-49.3 247.43,-37.5 271,-29 277.79,-26.55 285.05,-24.2 292.19,-22.04"/>
<polygon fill="midnightblue" stroke="midnightblue" points="293.18,-25.39 301.79,-19.21 291.21,-18.68 293.18,-25.39"/>
</g>
</g>
</svg>
