<?xml version="1.0" encoding="UTF-8" standalone="no"?>
<!DOCTYPE svg PUBLIC "-//W3C//DTD SVG 1.1//EN"
 "http://www.w3.org/Graphics/SVG/1.1/DTD/svg11.dtd">
<!-- Generated by graphviz version 2.43.0 (0)
 -->
<!-- Title: Project2::run Pages: 1 -->
<!--zoomable 626 -->
<svg id="main" version="1.1" xmlns="http://www.w3.org/2000/svg" xmlns:xlink="http://www.w3.org/1999/xlink" xml:space="preserve" onload="init(evt)">
<style type="text/css"><![CDATA[
.edge:hover path { stroke: red; }
.edge:hover polygon { stroke: red; fill: red; }
]]></style>
<script type="text/javascript"><![CDATA[
var edges = document.getElementsByTagName('g');
if (edges && edges.length) {
  for (var i=0;i<edges.length;i++) {
    if (edges[i].id.substr(0,4)=='edge') {
      edges[i].setAttribute('class','edge');
    }
  }
}
]]></script>
        <defs>
                <circle id="rim" cx="0" cy="0" r="7"/>
                <circle id="rim2" cx="0" cy="0" r="3.5"/>
                <g id="zoomPlus">
                        <use xlink:href="#rim" fill="#404040">
                                <set attributeName="fill" to="#808080" begin="zoomplus.mouseover" end="zoomplus.mouseout"/>
                        </use>
                        <path d="M-4,0h8M0,-4v8" fill="none" stroke="white" stroke-width="1.5" pointer-events="none"/>
                </g>
                <g id="zoomMin">
                        <use xlink:href="#rim" fill="#404040">
                                <set attributeName="fill" to="#808080" begin="zoomminus.mouseover" end="zoomminus.mouseout"/>
                        </use>
                        <path d="M-4,0h8" fill="none" stroke="white" stroke-width="1.5" pointer-events="none"/>
                </g>
                <g id="dirArrow">
                        <path fill="none" stroke="white" stroke-width="1.5" d="M0,-3.0v7 M-2.5,-0.5L0,-3.0L2.5,-0.5"/>
                </g>
               <g id="resetDef">
                       <use xlink:href="#rim2" fill="#404040">
                               <set attributeName="fill" to="#808080" begin="reset.mouseover" end="reset.mouseout"/>
                       </use>
               </g>
        </defs>

<script type="text/javascript">
var viewWidth = 1435;
var viewHeight = 626;
var sectionId = 'dynsection-4';
</script>
<script xlink:href="../../svgpan.js"/>
<svg id="graph" class="graph">
<g id="viewport">
<title>Project2::run</title>
<polygon fill="white" stroke="transparent" points="-4,4 -4,-621.84 1431,-621.84 1431,4 -4,4"/>
<!-- Node1 -->
<g id="node1" class="node">
<title>Node1</title>
<g id="a_node1"><a xlink:title="This function runs the project.">
<polygon fill="#bfbfbf" stroke="black" points="0,-213.5 0,-232.5 78,-232.5 78,-213.5 0,-213.5"/>
<text text-anchor="middle" x="39" y="-220.5" font-family="Helvetica,sans-Serif" font-size="10.00">Project2::run</text>
</a>
</g>
</g>
<!-- Node2 -->
<g id="node2" class="node">
<title>Node2</title>
<g id="a_node2"><a xlink:href="../../dd/d02/classCommandLine.html#a7001590923e6bfdf380448136b8e65bd" target="_top" xlink:title="Method to print a line to the console. This method prints a line of dashes to the console.">
<polygon fill="white" stroke="black" points="117,-404 117,-434 278,-434 278,-404 117,-404"/>
<text text-anchor="start" x="125" y="-422" font-family="Helvetica,sans-Serif" font-size="10.00">CommandLine&lt; InLab6Inputs</text>
<text text-anchor="middle" x="197.5" y="-411" font-family="Helvetica,sans-Serif" font-size="10.00"> &gt;::printLine</text>
</a>
</g>
</g>
<!-- Node1&#45;&gt;Node2 -->
<g id="edge1" class="edge">
<title>Node1&#45;&gt;Node2</title>
<path fill="none" stroke="midnightblue" d="M41.33,-232.78C45.82,-261.86 63.06,-348.57 114,-394 115.77,-395.58 117.64,-397.06 119.58,-398.44"/>
<polygon fill="midnightblue" stroke="midnightblue" points="118.2,-401.7 128.55,-403.94 121.85,-395.73 118.2,-401.7"/>
</g>
<!-- Node3 -->
<g id="node3" class="node">
<title>Node3</title>
<g id="a_node3"><a xlink:href="../../dd/db5/classProject2.html#a10d2ed4784bbc4bda12fe6acc38b2acb" target="_top" xlink:title="This function prints the results of the computation.">
<polygon fill="white" stroke="black" points="137,-365.5 137,-384.5 258,-384.5 258,-365.5 137,-365.5"/>
<text text-anchor="middle" x="197.5" y="-372.5" font-family="Helvetica,sans-Serif" font-size="10.00">Project2::printResults</text>
</a>
</g>
</g>
<!-- Node1&#45;&gt;Node3 -->
<g id="edge2" class="edge">
<title>Node1&#45;&gt;Node3</title>
<path fill="none" stroke="midnightblue" d="M42.49,-232.86C49.3,-257.74 70.7,-323.45 114,-356 118.08,-359.07 122.57,-361.65 127.29,-363.83"/>
<polygon fill="midnightblue" stroke="midnightblue" points="126,-367.09 136.59,-367.53 128.59,-360.58 126,-367.09"/>
</g>
<!-- Node10 -->
<g id="node10" class="node">
<title>Node10</title>
<g id="a_node10"><a xlink:href="../../df/df1/structOutput.html#a68a9005feebbeac90af517514767eda0" target="_top" xlink:title=" ">
<polygon fill="white" stroke="black" points="153,-213.5 153,-232.5 242,-232.5 242,-213.5 153,-213.5"/>
<text text-anchor="middle" x="197.5" y="-220.5" font-family="Helvetica,sans-Serif" font-size="10.00">Output::toJSON</text>
</a>
</g>
</g>
<!-- Node1&#45;&gt;Node10 -->
<g id="edge12" class="edge">
<title>Node1&#45;&gt;Node10</title>
<path fill="none" stroke="midnightblue" d="M78.28,-223C97.65,-223 121.48,-223 142.65,-223"/>
<polygon fill="midnightblue" stroke="midnightblue" points="142.8,-226.5 152.8,-223 142.8,-219.5 142.8,-226.5"/>
</g>
<!-- Node11 -->
<g id="node11" class="node">
<title>Node11</title>
<g id="a_node11"><a xlink:href="../../d1/d18/namespaceMyFactorizationMethod.html#a30add92d8b3f98e6a0c72289515ec91e" target="_top" xlink:title="Function to get the string representation of the factorization method type.">
<polygon fill="white" stroke="black" points="132,-164 132,-194 263,-194 263,-164 132,-164"/>
<text text-anchor="start" x="140" y="-182" font-family="Helvetica,sans-Serif" font-size="10.00">MyFactorizationMethod</text>
<text text-anchor="middle" x="197.5" y="-171" font-family="Helvetica,sans-Serif" font-size="10.00">::TypeKey</text>
</a>
</g>
</g>
<!-- Node1&#45;&gt;Node11 -->
<g id="edge13" class="edge">
<title>Node1&#45;&gt;Node11</title>
<path fill="none" stroke="midnightblue" d="M73.96,-213.45C91.26,-208.59 112.88,-202.51 133.12,-196.82"/>
<polygon fill="midnightblue" stroke="midnightblue" points="134.24,-200.14 142.92,-194.07 132.34,-193.4 134.24,-200.14"/>
</g>
<!-- Node12 -->
<g id="node12" class="node">
<title>Node12</title>
<g id="a_node12"><a xlink:href="../../d7/d9a/namespaceMyRelaxationMethod.html#a0af60a901ffd01d1bb403ecee40ba6c3" target="_top" xlink:title="Function to get the key of a relaxation method type.">
<polygon fill="white" stroke="black" points="137,-115 137,-145 258,-145 258,-115 137,-115"/>
<text text-anchor="start" x="145" y="-133" font-family="Helvetica,sans-Serif" font-size="10.00">MyRelaxationMethod</text>
<text text-anchor="middle" x="197.5" y="-122" font-family="Helvetica,sans-Serif" font-size="10.00">::TypeKey</text>
</a>
</g>
</g>
<!-- Node1&#45;&gt;Node12 -->
<g id="edge14" class="edge">
<title>Node1&#45;&gt;Node12</title>
<path fill="none" stroke="midnightblue" d="M47.6,-213.49C59.97,-198.63 85.9,-169.97 114,-154 118.24,-151.59 122.73,-149.41 127.36,-147.43"/>
<polygon fill="midnightblue" stroke="midnightblue" points="128.95,-150.57 136.98,-143.66 126.39,-144.05 128.95,-150.57"/>
</g>
<!-- Node13 -->
<g id="node13" class="node">
<title>Node13</title>
<g id="a_node13"><a xlink:href="../../de/db3/namespaceCompute.html#a242d211ce9bbd59a9619238689816210" target="_top" xlink:title="This method is a placeholder for the Gauss&#45;Seidel relaxation method.">
<polygon fill="white" stroke="black" points="121,-76.5 121,-95.5 274,-95.5 274,-76.5 121,-76.5"/>
<text text-anchor="middle" x="197.5" y="-83.5" font-family="Helvetica,sans-Serif" font-size="10.00">Compute::usingGaussSeidel</text>
</a>
</g>
</g>
<!-- Node1&#45;&gt;Node13 -->
<g id="edge15" class="edge">
<title>Node1&#45;&gt;Node13</title>
<path fill="none" stroke="midnightblue" d="M43.18,-213.24C51.14,-190.42 74.2,-133.32 114,-105 116.69,-103.08 119.55,-101.36 122.52,-99.8"/>
<polygon fill="midnightblue" stroke="midnightblue" points="124.07,-102.94 131.73,-95.63 121.18,-96.57 124.07,-102.94"/>
</g>
<!-- Node14 -->
<g id="node14" class="node">
<title>Node14</title>
<g id="a_node14"><a xlink:href="../../de/db3/namespaceCompute.html#a3b30a49d004f8370d19cd13f6492ddba" target="_top" xlink:title="Solves a linear system using the Jacobi SOR method.">
<polygon fill="white" stroke="black" points="126,-289.5 126,-308.5 269,-308.5 269,-289.5 126,-289.5"/>
<text text-anchor="middle" x="197.5" y="-296.5" font-family="Helvetica,sans-Serif" font-size="10.00">Compute::usingJacobiSOR</text>
</a>
</g>
</g>
<!-- Node1&#45;&gt;Node14 -->
<g id="edge16" class="edge">
<title>Node1&#45;&gt;Node14</title>
<path fill="none" stroke="midnightblue" d="M49.6,-232.65C62.89,-245.44 88.19,-267.81 114,-280 119.07,-282.39 124.45,-284.5 129.95,-286.34"/>
<polygon fill="midnightblue" stroke="midnightblue" points="129.34,-289.81 139.93,-289.39 131.39,-283.12 129.34,-289.81"/>
</g>
<!-- Node26 -->
<g id="node26" class="node">
<title>Node26</title>
<g id="a_node26"><a xlink:href="../../de/db3/namespaceCompute.html#a9aaa2e3c1db51432d5a62c1d4541fd90" target="_top" xlink:title="Solves a linear system using LUP decomposition.">
<polygon fill="white" stroke="black" points="141.5,-327.5 141.5,-346.5 253.5,-346.5 253.5,-327.5 141.5,-327.5"/>
<text text-anchor="middle" x="197.5" y="-334.5" font-family="Helvetica,sans-Serif" font-size="10.00">Compute::usingLUP</text>
</a>
</g>
</g>
<!-- Node1&#45;&gt;Node26 -->
<g id="edge31" class="edge">
<title>Node1&#45;&gt;Node26</title>
<path fill="none" stroke="midnightblue" d="M44.6,-232.58C54.43,-251.99 79.45,-295.97 114,-318 119.37,-321.42 125.28,-324.23 131.4,-326.54"/>
<polygon fill="midnightblue" stroke="midnightblue" points="130.55,-329.94 141.14,-329.76 132.74,-323.29 130.55,-329.94"/>
</g>
<!-- Node38 -->
<g id="node38" class="node">
<title>Node38</title>
<g id="a_node38"><a xlink:href="../../de/db3/namespaceCompute.html#a0aa73a107ee5ea0767e15b7caddeecc7" target="_top" xlink:title="This method applies the Point Jacobi relaxation method to the given input matrices.">
<polygon fill="white" stroke="black" points="124,-251.5 124,-270.5 271,-270.5 271,-251.5 124,-251.5"/>
<text text-anchor="middle" x="197.5" y="-258.5" font-family="Helvetica,sans-Serif" font-size="10.00">Compute::usingPointJacobi</text>
</a>
</g>
</g>
<!-- Node1&#45;&gt;Node38 -->
<g id="edge53" class="edge">
<title>Node1&#45;&gt;Node38</title>
<path fill="none" stroke="midnightblue" d="M76.46,-232.56C88.41,-235.63 101.76,-239.02 114,-242 123.75,-244.37 134.16,-246.83 144.19,-249.16"/>
<polygon fill="midnightblue" stroke="midnightblue" points="143.53,-252.6 154.06,-251.44 145.1,-245.78 143.53,-252.6"/>
</g>
<!-- Node39 -->
<g id="node39" class="node">
<title>Node39</title>
<g id="a_node39"><a xlink:href="../../de/db3/namespaceCompute.html#a9536e66c070e83d32645dc9e34f4169b" target="_top" xlink:title="This method is a placeholder for the Successive Over&#45;Relaxation (SOR) method.">
<polygon fill="white" stroke="black" points="141,-38.5 141,-57.5 254,-57.5 254,-38.5 141,-38.5"/>
<text text-anchor="middle" x="197.5" y="-45.5" font-family="Helvetica,sans-Serif" font-size="10.00">Compute::usingSOR</text>
</a>
</g>
</g>
<!-- Node1&#45;&gt;Node39 -->
<g id="edge57" class="edge">
<title>Node1&#45;&gt;Node39</title>
<path fill="none" stroke="midnightblue" d="M41.63,-213.13C46.75,-185.39 65.17,-106.25 114,-67 119.11,-62.89 124.95,-59.64 131.1,-57.06"/>
<polygon fill="midnightblue" stroke="midnightblue" points="132.72,-60.2 140.97,-53.56 130.38,-53.61 132.72,-60.2"/>
</g>
<!-- Node40 -->
<g id="node40" class="node">
<title>Node40</title>
<g id="a_node40"><a xlink:href="../../de/db3/namespaceCompute.html#a8e44d7f0aba871333c4358567a913117" target="_top" xlink:title="This method is a placeholder for the Symmetric Successive Over&#45;Relaxation (SSOR) method.">
<polygon fill="white" stroke="black" points="114,-0.5 114,-19.5 281,-19.5 281,-0.5 114,-0.5"/>
<text text-anchor="middle" x="197.5" y="-7.5" font-family="Helvetica,sans-Serif" font-size="10.00">Compute::usingSymmetricSOR</text>
</a>
</g>
</g>
<!-- Node1&#45;&gt;Node40 -->
<g id="edge58" class="edge">
<title>Node1&#45;&gt;Node40</title>
<path fill="none" stroke="midnightblue" d="M40.62,-213.14C43.2,-181.19 55.82,-79.66 114,-29 115.8,-27.43 117.71,-25.99 119.69,-24.65"/>
<polygon fill="midnightblue" stroke="midnightblue" points="121.87,-27.45 128.88,-19.51 118.45,-21.34 121.87,-27.45"/>
</g>
<!-- Node4 -->
<g id="node4" class="node">
<title>Node4</title>
<g id="a_node4"><a xlink:href="../../db/df1/Helpers_8h.html#a97f5ae737c1d7ece540e2b07c8e8b3d4" target="_top" xlink:title=" ">
<polygon fill="white" stroke="black" points="336.5,-501.5 336.5,-520.5 428.5,-520.5 428.5,-501.5 336.5,-501.5"/>
<text text-anchor="middle" x="382.5" y="-508.5" font-family="Helvetica,sans-Serif" font-size="10.00">formatMeanStd</text>
</a>
</g>
</g>
<!-- Node3&#45;&gt;Node4 -->
<g id="edge3" class="edge">
<title>Node3&#45;&gt;Node4</title>
<path fill="none" stroke="midnightblue" d="M258.09,-384.5C266.14,-387.18 274.01,-390.61 281,-395 302.39,-408.45 300.57,-419.81 317,-439 333.24,-457.97 352.39,-479.21 365.59,-493.68"/>
<polygon fill="midnightblue" stroke="midnightblue" points="363.26,-496.32 372.6,-501.34 368.43,-491.6 363.26,-496.32"/>
</g>
<!-- Node5 -->
<g id="node5" class="node">
<title>Node5</title>
<g id="a_node5"><a xlink:href="../../dd/df5/namespaceMyBLAS_1_1Stats.html#a40e2fbe322f90c6e21d2a7727ab36076" target="_top" xlink:title="Function to find the standard deviation of a vector.">
<polygon fill="white" stroke="black" points="515.5,-525.5 515.5,-544.5 624.5,-544.5 624.5,-525.5 515.5,-525.5"/>
<text text-anchor="middle" x="570" y="-532.5" font-family="Helvetica,sans-Serif" font-size="10.00">MyBLAS::Stats::std</text>
</a>
</g>
</g>
<!-- Node4&#45;&gt;Node5 -->
<g id="edge4" class="edge">
<title>Node4&#45;&gt;Node5</title>
<path fill="none" stroke="midnightblue" d="M428.88,-516.87C451.79,-519.83 479.96,-523.48 505.03,-526.72"/>
<polygon fill="midnightblue" stroke="midnightblue" points="504.82,-530.23 515.19,-528.04 505.72,-523.28 504.82,-530.23"/>
</g>
<!-- Node6 -->
<g id="node6" class="node">
<title>Node6</title>
<g id="a_node6"><a xlink:href="../../dd/df5/namespaceMyBLAS_1_1Stats.html#a92ae9af47614e45733834f28aeb48cce" target="_top" xlink:title="Function to find the variance of a vector.">
<polygon fill="white" stroke="black" points="720.5,-548.5 720.5,-567.5 856.5,-567.5 856.5,-548.5 720.5,-548.5"/>
<text text-anchor="middle" x="788.5" y="-555.5" font-family="Helvetica,sans-Serif" font-size="10.00">MyBLAS::Stats::variance</text>
</a>
</g>
</g>
<!-- Node5&#45;&gt;Node6 -->
<g id="edge5" class="edge">
<title>Node5&#45;&gt;Node6</title>
<path fill="none" stroke="midnightblue" d="M624.52,-540.69C650.28,-543.42 681.65,-546.76 709.97,-549.76"/>
<polygon fill="midnightblue" stroke="midnightblue" points="709.93,-553.28 720.25,-550.86 710.67,-546.32 709.93,-553.28"/>
</g>
<!-- Node7 -->
<g id="node7" class="node">
<title>Node7</title>
<g id="a_node7"><a xlink:href="../../d4/d4d/classMyBLAS_1_1Vector.html#a6188d71192e096e25ae1c1a46150a0ab" target="_top" xlink:title="Getter for the vector data.">
<polygon fill="white" stroke="black" points="1288,-577.5 1288,-596.5 1427,-596.5 1427,-577.5 1288,-577.5"/>
<text text-anchor="middle" x="1357.5" y="-584.5" font-family="Helvetica,sans-Serif" font-size="10.00">MyBLAS::Vector::getData</text>
</a>
</g>
</g>
<!-- Node6&#45;&gt;Node7 -->
<g id="edge6" class="edge">
<title>Node6&#45;&gt;Node7</title>
<path fill="none" stroke="midnightblue" d="M808.95,-567.56C834.1,-579.33 879.6,-598.68 921,-606 1052.41,-629.23 1209.41,-611.45 1294.4,-598.13"/>
<polygon fill="midnightblue" stroke="midnightblue" points="1295.08,-601.56 1304.4,-596.53 1293.97,-594.65 1295.08,-601.56"/>
</g>
<!-- Node8 -->
<g id="node8" class="node">
<title>Node8</title>
<g id="a_node8"><a xlink:href="../../dd/df5/namespaceMyBLAS_1_1Stats.html#a2d013f32ad1d6111d5d3e155758efa20" target="_top" xlink:title="Function to find the mean value of a vector.">
<polygon fill="white" stroke="black" points="936,-577.5 936,-596.5 1058,-596.5 1058,-577.5 936,-577.5"/>
<text text-anchor="middle" x="997" y="-584.5" font-family="Helvetica,sans-Serif" font-size="10.00">MyBLAS::Stats::mean</text>
</a>
</g>
</g>
<!-- Node6&#45;&gt;Node8 -->
<g id="edge7" class="edge">
<title>Node6&#45;&gt;Node8</title>
<path fill="none" stroke="midnightblue" d="M856.54,-567.42C878.71,-570.53 903.42,-574 925.81,-577.14"/>
<polygon fill="midnightblue" stroke="midnightblue" points="925.52,-580.64 935.91,-578.56 926.5,-573.7 925.52,-580.64"/>
</g>
<!-- Node9 -->
<g id="node9" class="node">
<title>Node9</title>
<g id="a_node9"><a xlink:href="../../dd/df5/namespaceMyBLAS_1_1Stats.html#aaa0d2e3d22af2b7894169b7c90ba6146" target="_top" xlink:title="Function to find the sum of all elements in a vector.">
<polygon fill="white" stroke="black" points="1123,-520.5 1123,-539.5 1238,-539.5 1238,-520.5 1123,-520.5"/>
<text text-anchor="middle" x="1180.5" y="-527.5" font-family="Helvetica,sans-Serif" font-size="10.00">MyBLAS::Stats::sum</text>
</a>
</g>
</g>
<!-- Node6&#45;&gt;Node9 -->
<g id="edge11" class="edge">
<title>Node6&#45;&gt;Node9</title>
<path fill="none" stroke="midnightblue" d="M856.54,-553.19C928.16,-548.05 1041,-539.94 1112.57,-534.81"/>
<polygon fill="midnightblue" stroke="midnightblue" points="1113.09,-538.28 1122.82,-534.07 1112.59,-531.29 1113.09,-538.28"/>
</g>
<!-- Node8&#45;&gt;Node7 -->
<g id="edge8" class="edge">
<title>Node8&#45;&gt;Node7</title>
<path fill="none" stroke="midnightblue" d="M1058,-587C1118.17,-587 1211.15,-587 1277.33,-587"/>
<polygon fill="midnightblue" stroke="midnightblue" points="1277.71,-590.5 1287.71,-587 1277.71,-583.5 1277.71,-590.5"/>
</g>
<!-- Node8&#45;&gt;Node9 -->
<g id="edge9" class="edge">
<title>Node8&#45;&gt;Node9</title>
<path fill="none" stroke="midnightblue" d="M1028.38,-577.46C1058.74,-567.92 1105.61,-553.21 1139.09,-542.69"/>
<polygon fill="midnightblue" stroke="midnightblue" points="1140.53,-545.91 1149.02,-539.57 1138.43,-539.23 1140.53,-545.91"/>
</g>
<!-- Node9&#45;&gt;Node7 -->
<g id="edge10" class="edge">
<title>Node9&#45;&gt;Node7</title>
<path fill="none" stroke="midnightblue" d="M1210.79,-539.54C1240.07,-549.08 1285.25,-563.79 1317.54,-574.31"/>
<polygon fill="midnightblue" stroke="midnightblue" points="1316.52,-577.66 1327.11,-577.43 1318.69,-571 1316.52,-577.66"/>
</g>
<!-- Node15 -->
<g id="node15" class="node">
<title>Node15</title>
<g id="a_node15"><a xlink:href="../../de/def/classStopwatch.html#a3c8a6cb60a31a8cafd1d2dad1b6c851d" target="_top" xlink:title="Save the current time as the clicked time point.">
<polygon fill="white" stroke="black" points="334.5,-251.5 334.5,-270.5 430.5,-270.5 430.5,-251.5 334.5,-251.5"/>
<text text-anchor="middle" x="382.5" y="-258.5" font-family="Helvetica,sans-Serif" font-size="10.00">Stopwatch::click</text>
</a>
</g>
</g>
<!-- Node14&#45;&gt;Node15 -->
<g id="edge17" class="edge">
<title>Node14&#45;&gt;Node15</title>
<path fill="none" stroke="midnightblue" d="M244.68,-289.41C269.26,-284.31 299.69,-277.99 325.6,-272.61"/>
<polygon fill="midnightblue" stroke="midnightblue" points="326.57,-275.98 335.65,-270.52 325.15,-269.13 326.57,-275.98"/>
</g>
<!-- Node16 -->
<g id="node16" class="node">
<title>Node16</title>
<g id="a_node16"><a xlink:href="../../db/df1/Helpers_8h.html#a47bde9d4fb76f7eee1cfe4a98be0f8db" target="_top" xlink:title="Computes the mean and variance of a numeric vector using Boost Accumulators.">
<polygon fill="white" stroke="black" points="331.5,-327.5 331.5,-346.5 433.5,-346.5 433.5,-327.5 331.5,-327.5"/>
<text text-anchor="middle" x="382.5" y="-334.5" font-family="Helvetica,sans-Serif" font-size="10.00">computeMeanStd</text>
</a>
</g>
</g>
<!-- Node14&#45;&gt;Node16 -->
<g id="edge18" class="edge">
<title>Node14&#45;&gt;Node16</title>
<path fill="none" stroke="midnightblue" d="M244.68,-308.59C269.26,-313.69 299.69,-320.01 325.6,-325.39"/>
<polygon fill="midnightblue" stroke="midnightblue" points="325.15,-328.87 335.65,-327.48 326.57,-322.02 325.15,-328.87"/>
</g>
<!-- Node17 -->
<g id="node17" class="node">
<title>Node17</title>
<g id="a_node17"><a xlink:href="../../de/def/classStopwatch.html#ac5fd84825ff7ae966d1963a20e9cf47b" target="_top" xlink:title="Static method to calculate the duration between two time points.">
<polygon fill="white" stroke="black" points="325.5,-163.5 325.5,-182.5 439.5,-182.5 439.5,-163.5 325.5,-163.5"/>
<text text-anchor="middle" x="382.5" y="-170.5" font-family="Helvetica,sans-Serif" font-size="10.00">Stopwatch::duration</text>
</a>
</g>
</g>
<!-- Node14&#45;&gt;Node17 -->
<g id="edge19" class="edge">
<title>Node14&#45;&gt;Node17</title>
<path fill="none" stroke="midnightblue" d="M266.02,-289.38C271.43,-286.89 276.52,-283.81 281,-280 313.2,-252.63 285.64,-220.32 317,-192 318.76,-190.41 320.65,-188.95 322.63,-187.62"/>
<polygon fill="midnightblue" stroke="midnightblue" points="324.79,-190.42 331.84,-182.51 321.39,-184.3 324.79,-190.42"/>
</g>
<!-- Node18 -->
<g id="node18" class="node">
<title>Node18</title>
<g id="a_node18"><a xlink:href="../../d7/d9a/namespaceMyRelaxationMethod.html#ab5820b2108969271e8bf7d61170c4288" target="_top" xlink:title="Function to perform pre&#45;checks on the coefficient matrix and the right&#45;hand side vector.">
<polygon fill="white" stroke="black" points="322,-202 322,-232 443,-232 443,-202 322,-202"/>
<text text-anchor="start" x="330" y="-220" font-family="Helvetica,sans-Serif" font-size="10.00">MyRelaxationMethod</text>
<text text-anchor="middle" x="382.5" y="-209" font-family="Helvetica,sans-Serif" font-size="10.00">::passesPreChecks</text>
</a>
</g>
</g>
<!-- Node14&#45;&gt;Node18 -->
<g id="edge20" class="edge">
<title>Node14&#45;&gt;Node18</title>
<path fill="none" stroke="midnightblue" d="M259.1,-289.4C266.74,-286.95 274.24,-283.87 281,-280 301.2,-268.45 297.68,-254.96 317,-242 319.88,-240.07 322.93,-238.25 326.08,-236.55"/>
<polygon fill="midnightblue" stroke="midnightblue" points="327.72,-239.64 335.13,-232.07 324.62,-233.37 327.72,-239.64"/>
</g>
<!-- Node25 -->
<g id="node25" class="node">
<title>Node25</title>
<g id="a_node25"><a xlink:href="../../de/def/classStopwatch.html#a2cc3c2b39972ca34f3ff9622471b1bbb" target="_top" xlink:title="Restart the stopwatch by setting the initial and clicked time points to the current time.">
<polygon fill="white" stroke="black" points="329.5,-289.5 329.5,-308.5 435.5,-308.5 435.5,-289.5 329.5,-289.5"/>
<text text-anchor="middle" x="382.5" y="-296.5" font-family="Helvetica,sans-Serif" font-size="10.00">Stopwatch::restart</text>
</a>
</g>
</g>
<!-- Node14&#45;&gt;Node25 -->
<g id="edge30" class="edge">
<title>Node14&#45;&gt;Node25</title>
<path fill="none" stroke="midnightblue" d="M269.25,-299C285.67,-299 303.03,-299 319.06,-299"/>
<polygon fill="midnightblue" stroke="midnightblue" points="319.38,-302.5 329.38,-299 319.38,-295.5 319.38,-302.5"/>
</g>
<!-- Node19 -->
<g id="node19" class="node">
<title>Node19</title>
<g id="a_node19"><a xlink:href="../../d2/d6e/namespaceMyBLAS.html#a4ae8cb61e3457065790607979b939564" target="_top" xlink:title="Checks if the given matrix is diagonally dominant.">
<polygon fill="white" stroke="black" points="484,-207.5 484,-226.5 656,-226.5 656,-207.5 484,-207.5"/>
<text text-anchor="middle" x="570" y="-214.5" font-family="Helvetica,sans-Serif" font-size="10.00">MyBLAS::isDiagonallyDominant</text>
</a>
</g>
</g>
<!-- Node18&#45;&gt;Node19 -->
<g id="edge21" class="edge">
<title>Node18&#45;&gt;Node19</title>
<path fill="none" stroke="midnightblue" d="M443.21,-217C452.91,-217 463.15,-217 473.44,-217"/>
<polygon fill="midnightblue" stroke="midnightblue" points="473.73,-220.5 483.73,-217 473.73,-213.5 473.73,-220.5"/>
</g>
<!-- Node22 -->
<g id="node22" class="node">
<title>Node22</title>
<g id="a_node22"><a xlink:href="../../d2/d6e/namespaceMyBLAS.html#acb722fb92340b5ec3354411f34a051f0" target="_top" xlink:title="Checks if the given matrix is a square matrix.">
<polygon fill="white" stroke="black" points="720,-245.5 720,-264.5 857,-264.5 857,-245.5 720,-245.5"/>
<text text-anchor="middle" x="788.5" y="-252.5" font-family="Helvetica,sans-Serif" font-size="10.00">MyBLAS::isSquareMatrix</text>
</a>
</g>
</g>
<!-- Node18&#45;&gt;Node22 -->
<g id="edge26" class="edge">
<title>Node18&#45;&gt;Node22</title>
<path fill="none" stroke="midnightblue" d="M443.09,-229.53C456.5,-232 470.7,-234.33 484,-236 560.42,-245.58 648.3,-250.41 709.76,-252.79"/>
<polygon fill="midnightblue" stroke="midnightblue" points="709.65,-256.29 719.77,-253.17 709.91,-249.3 709.65,-256.29"/>
</g>
<!-- Node23 -->
<g id="node23" class="node">
<title>Node23</title>
<g id="a_node23"><a xlink:href="../../d2/d6e/namespaceMyBLAS.html#a56e77d4aef50489830f5ce0ef7bcf7a4" target="_top" xlink:title="Checks if there are no zeros in the diagonal of a matrix.">
<polygon fill="white" stroke="black" points="492.5,-147.5 492.5,-166.5 647.5,-166.5 647.5,-147.5 492.5,-147.5"/>
<text text-anchor="middle" x="570" y="-154.5" font-family="Helvetica,sans-Serif" font-size="10.00">MyBLAS::noZerosInDiagonal</text>
</a>
</g>
</g>
<!-- Node18&#45;&gt;Node23 -->
<g id="edge27" class="edge">
<title>Node18&#45;&gt;Node23</title>
<path fill="none" stroke="midnightblue" d="M430.31,-201.86C461.03,-191.92 500.75,-179.07 529.81,-169.68"/>
<polygon fill="midnightblue" stroke="midnightblue" points="531.17,-172.91 539.61,-166.51 529.02,-166.25 531.17,-172.91"/>
</g>
<!-- Node19&#45;&gt;Node9 -->
<g id="edge25" class="edge">
<title>Node19&#45;&gt;Node9</title>
<path fill="none" stroke="midnightblue" d="M656.11,-215.82C719.75,-216.45 808.58,-220.59 885,-236 971.81,-253.51 1007.35,-242.57 1073,-302 1137.66,-360.53 1166.23,-466.42 1175.69,-510.21"/>
<polygon fill="midnightblue" stroke="midnightblue" points="1172.29,-511.08 1177.73,-520.17 1179.15,-509.67 1172.29,-511.08"/>
</g>
<!-- Node20 -->
<g id="node20" class="node">
<title>Node20</title>
<g id="a_node20"><a xlink:href="../../dd/df5/namespaceMyBLAS_1_1Stats.html#afeaf3b7bba0ff1b952b35d0effc0bca9" target="_top" xlink:title="Function to find the absolute value of each element in a vector.">
<polygon fill="white" stroke="black" points="941.5,-169.5 941.5,-188.5 1052.5,-188.5 1052.5,-169.5 941.5,-169.5"/>
<text text-anchor="middle" x="997" y="-176.5" font-family="Helvetica,sans-Serif" font-size="10.00">MyBLAS::Stats::abs</text>
</a>
</g>
</g>
<!-- Node19&#45;&gt;Node20 -->
<g id="edge22" class="edge">
<title>Node19&#45;&gt;Node20</title>
<path fill="none" stroke="midnightblue" d="M649.71,-207.47C663.78,-205.89 678.32,-204.33 692,-203 774.31,-194.99 869.37,-187.82 930.96,-183.45"/>
<polygon fill="midnightblue" stroke="midnightblue" points="931.58,-186.91 941.31,-182.72 931.08,-179.93 931.58,-186.91"/>
</g>
<!-- Node19&#45;&gt;Node22 -->
<g id="edge24" class="edge">
<title>Node19&#45;&gt;Node22</title>
<path fill="none" stroke="midnightblue" d="M625.35,-226.54C655.08,-231.76 692.08,-238.25 723.23,-243.72"/>
<polygon fill="midnightblue" stroke="midnightblue" points="722.67,-247.17 733.12,-245.46 723.88,-240.28 722.67,-247.17"/>
</g>
<!-- Node21 -->
<g id="node21" class="node">
<title>Node21</title>
<g id="a_node21"><a xlink:href="../../d4/d4d/classMyBLAS_1_1Vector.html#aae30f8178e4a34d332317c61e77c147a" target="_top" xlink:title="Getter for the size of the vector.">
<polygon fill="white" stroke="black" points="1121,-169.5 1121,-188.5 1240,-188.5 1240,-169.5 1121,-169.5"/>
<text text-anchor="middle" x="1180.5" y="-176.5" font-family="Helvetica,sans-Serif" font-size="10.00">MyBLAS::Vector::size</text>
</a>
</g>
</g>
<!-- Node20&#45;&gt;Node21 -->
<g id="edge23" class="edge">
<title>Node20&#45;&gt;Node21</title>
<path fill="none" stroke="midnightblue" d="M1052.95,-179C1071.17,-179 1091.68,-179 1110.8,-179"/>
<polygon fill="midnightblue" stroke="midnightblue" points="1110.95,-182.5 1120.95,-179 1110.95,-175.5 1110.95,-182.5"/>
</g>
<!-- Node24 -->
<g id="node24" class="node">
<title>Node24</title>
<g id="a_node24"><a xlink:href="../../d2/d6e/namespaceMyBLAS.html#a6b103aca5e5fab29f3d0954b77946dc0" target="_top" xlink:title="Checks if all diagonal elements of a matrix are below a certain threshold.">
<polygon fill="white" stroke="black" points="706.5,-120 706.5,-150 870.5,-150 870.5,-120 706.5,-120"/>
<text text-anchor="start" x="714.5" y="-138" font-family="Helvetica,sans-Serif" font-size="10.00">MyBLAS::allDiagonalElements</text>
<text text-anchor="middle" x="788.5" y="-127" font-family="Helvetica,sans-Serif" font-size="10.00">BelowThreshold</text>
</a>
</g>
</g>
<!-- Node23&#45;&gt;Node24 -->
<g id="edge28" class="edge">
<title>Node23&#45;&gt;Node24</title>
<path fill="none" stroke="midnightblue" d="M647.63,-149.21C663.35,-147.62 680.04,-145.92 696.21,-144.28"/>
<polygon fill="midnightblue" stroke="midnightblue" points="696.6,-147.75 706.2,-143.26 695.89,-140.79 696.6,-147.75"/>
</g>
<!-- Node24&#45;&gt;Node20 -->
<g id="edge29" class="edge">
<title>Node24&#45;&gt;Node20</title>
<path fill="none" stroke="midnightblue" d="M859.99,-150.02C886.58,-155.69 916.42,-162.04 941.35,-167.36"/>
<polygon fill="midnightblue" stroke="midnightblue" points="940.85,-170.83 951.36,-169.49 942.31,-163.98 940.85,-170.83"/>
</g>
<!-- Node26&#45;&gt;Node15 -->
<g id="edge46" class="edge">
<title>Node26&#45;&gt;Node15</title>
<path fill="none" stroke="midnightblue" d="M253.89,-328.97C263.31,-326.3 272.71,-322.74 281,-318 301.2,-306.45 297.16,-292.15 317,-280 320.43,-277.9 324.1,-276.02 327.9,-274.34"/>
<polygon fill="midnightblue" stroke="midnightblue" points="329.47,-277.48 337.49,-270.57 326.9,-270.97 329.47,-277.48"/>
</g>
<!-- Node26&#45;&gt;Node16 -->
<g id="edge47" class="edge">
<title>Node26&#45;&gt;Node16</title>
<path fill="none" stroke="midnightblue" d="M253.9,-337C275.15,-337 299.5,-337 321.19,-337"/>
<polygon fill="midnightblue" stroke="midnightblue" points="321.27,-340.5 331.27,-337 321.27,-333.5 321.27,-340.5"/>
</g>
<!-- Node26&#45;&gt;Node17 -->
<g id="edge48" class="edge">
<title>Node26&#45;&gt;Node17</title>
<path fill="none" stroke="midnightblue" d="M253.63,-332.83C263.72,-329.85 273.43,-325.18 281,-318 323.24,-277.9 275.99,-233.35 317,-192 318.45,-190.54 320,-189.19 321.64,-187.94"/>
<polygon fill="midnightblue" stroke="midnightblue" points="323.77,-190.75 330.45,-182.52 320.1,-184.78 323.77,-190.75"/>
</g>
<!-- Node26&#45;&gt;Node25 -->
<g id="edge52" class="edge">
<title>Node26&#45;&gt;Node25</title>
<path fill="none" stroke="midnightblue" d="M244.68,-327.41C269.26,-322.31 299.69,-315.99 325.6,-310.61"/>
<polygon fill="midnightblue" stroke="midnightblue" points="326.57,-313.98 335.65,-308.52 325.15,-307.13 326.57,-313.98"/>
</g>
<!-- Node27 -->
<g id="node27" class="node">
<title>Node27</title>
<g id="a_node27"><a xlink:href="../../d5/db6/namespaceMyBLAS_1_1LUP.html#a2f715f34052a24e79c500e89995fe5d3" target="_top" xlink:title="This function solves a system of linear equations Ax = b using LU factorization with partial pivoting...">
<polygon fill="white" stroke="black" points="503,-415.5 503,-434.5 637,-434.5 637,-415.5 503,-415.5"/>
<text text-anchor="middle" x="570" y="-422.5" font-family="Helvetica,sans-Serif" font-size="10.00">MyBLAS::LUP::applyLUP</text>
</a>
</g>
</g>
<!-- Node26&#45;&gt;Node27 -->
<g id="edge32" class="edge">
<title>Node26&#45;&gt;Node27</title>
<path fill="none" stroke="midnightblue" d="M253.59,-343.86C263.24,-346.65 272.8,-350.55 281,-356 303.81,-371.16 293.12,-392.61 317,-406 370.84,-436.19 441.61,-438.93 494.44,-435.28"/>
<polygon fill="midnightblue" stroke="midnightblue" points="494.72,-438.77 504.42,-434.5 494.18,-431.79 494.72,-438.77"/>
</g>
<!-- Node36 -->
<g id="node36" class="node">
<title>Node36</title>
<g id="a_node36"><a xlink:href="../../d1/d18/namespaceMyFactorizationMethod.html#a008870884c4fdedb666a2811c6401d2a" target="_top" xlink:title="Function to check if the input matrices pass the pre&#45;checks for the factorization methods.">
<polygon fill="white" stroke="black" points="317,-366 317,-396 448,-396 448,-366 317,-366"/>
<text text-anchor="start" x="325" y="-384" font-family="Helvetica,sans-Serif" font-size="10.00">MyFactorizationMethod</text>
<text text-anchor="middle" x="382.5" y="-373" font-family="Helvetica,sans-Serif" font-size="10.00">::passesPreChecks</text>
</a>
</g>
</g>
<!-- Node26&#45;&gt;Node36 -->
<g id="edge49" class="edge">
<title>Node26&#45;&gt;Node36</title>
<path fill="none" stroke="midnightblue" d="M240.5,-346.52C253.5,-349.51 267.85,-352.85 281,-356 291,-358.4 301.56,-360.97 311.91,-363.52"/>
<polygon fill="midnightblue" stroke="midnightblue" points="311.21,-366.95 321.76,-365.96 312.89,-360.16 311.21,-366.95"/>
</g>
<!-- Node28 -->
<g id="node28" class="node">
<title>Node28</title>
<g id="a_node28"><a xlink:href="../../d2/d6e/namespaceMyBLAS.html#af710039e87de86c8b4ac8a9e139efbcb" target="_top" xlink:title="Perform backward substitution.">
<polygon fill="white" stroke="black" points="704,-491.5 704,-510.5 873,-510.5 873,-491.5 704,-491.5"/>
<text text-anchor="middle" x="788.5" y="-498.5" font-family="Helvetica,sans-Serif" font-size="10.00">MyBLAS::backwardSubstitution</text>
</a>
</g>
</g>
<!-- Node27&#45;&gt;Node28 -->
<g id="edge33" class="edge">
<title>Node27&#45;&gt;Node28</title>
<path fill="none" stroke="midnightblue" d="M598.42,-434.63C637.06,-448.19 707.61,-472.95 750.75,-488.1"/>
<polygon fill="midnightblue" stroke="midnightblue" points="749.71,-491.44 760.3,-491.45 752.03,-484.84 749.71,-491.44"/>
</g>
<!-- Node29 -->
<g id="node29" class="node">
<title>Node29</title>
<g id="a_node29"><a xlink:href="../../d5/db6/namespaceMyBLAS_1_1LUP.html#ab15d6938948c050657f9870aeec47097" target="_top" xlink:title="Performs Doolittle&#39;s LU factorization with partial pivoting on a given matrix.">
<polygon fill="white" stroke="black" points="692,-368.5 692,-387.5 885,-387.5 885,-368.5 692,-368.5"/>
<text text-anchor="middle" x="788.5" y="-375.5" font-family="Helvetica,sans-Serif" font-size="10.00">MyBLAS::LUP::dooLittleFactorizeLUP</text>
</a>
</g>
</g>
<!-- Node27&#45;&gt;Node29 -->
<g id="edge35" class="edge">
<title>Node27&#45;&gt;Node29</title>
<path fill="none" stroke="midnightblue" d="M614.81,-415.49C649.03,-408.06 696.76,-397.7 733.37,-389.75"/>
<polygon fill="midnightblue" stroke="midnightblue" points="734.35,-393.12 743.38,-387.58 732.87,-386.28 734.35,-393.12"/>
</g>
<!-- Node34 -->
<g id="node34" class="node">
<title>Node34</title>
<g id="a_node34"><a xlink:href="../../d0/d27/classMyBLAS_1_1Matrix.html#a4c948c86a16af3375ab7384394be02e2" target="_top" xlink:title="Getter for the number of rows in the matrix.">
<polygon fill="white" stroke="black" points="1109,-311.5 1109,-330.5 1252,-330.5 1252,-311.5 1109,-311.5"/>
<text text-anchor="middle" x="1180.5" y="-318.5" font-family="Helvetica,sans-Serif" font-size="10.00">MyBLAS::Matrix::getRows</text>
</a>
</g>
</g>
<!-- Node27&#45;&gt;Node34 -->
<g id="edge45" class="edge">
<title>Node27&#45;&gt;Node34</title>
<path fill="none" stroke="midnightblue" d="M620.69,-415.46C632.83,-411.79 645.37,-406.79 656,-400 676.44,-386.95 671.29,-371.61 692,-359 781.57,-304.44 816.9,-314.76 921,-302 988.05,-293.78 1005.71,-296.04 1073,-302 1090.35,-303.54 1109.11,-306.45 1125.98,-309.55"/>
<polygon fill="midnightblue" stroke="midnightblue" points="1125.73,-313.06 1136.21,-311.49 1127.03,-306.19 1125.73,-313.06"/>
</g>
<!-- Node35 -->
<g id="node35" class="node">
<title>Node35</title>
<g id="a_node35"><a xlink:href="../../d2/d6e/namespaceMyBLAS.html#aa3501265c4bb7f37e8e949d37244473a" target="_top" xlink:title="Perform forward substitution.">
<polygon fill="white" stroke="black" points="709,-425.5 709,-444.5 868,-444.5 868,-425.5 709,-425.5"/>
<text text-anchor="middle" x="788.5" y="-432.5" font-family="Helvetica,sans-Serif" font-size="10.00">MyBLAS::forwardSubstitution</text>
</a>
</g>
</g>
<!-- Node27&#45;&gt;Node35 -->
<g id="edge42" class="edge">
<title>Node27&#45;&gt;Node35</title>
<path fill="none" stroke="midnightblue" d="M637.13,-428.05C656.58,-428.95 678.18,-429.95 698.8,-430.9"/>
<polygon fill="midnightblue" stroke="midnightblue" points="698.68,-434.4 708.83,-431.37 699,-427.41 698.68,-434.4"/>
</g>
<!-- Node28&#45;&gt;Node9 -->
<g id="edge34" class="edge">
<title>Node28&#45;&gt;Node9</title>
<path fill="none" stroke="midnightblue" d="M873.16,-507.22C944.65,-512.54 1046.17,-520.09 1112.42,-525.01"/>
<polygon fill="midnightblue" stroke="midnightblue" points="1112.51,-528.53 1122.74,-525.78 1113.03,-521.55 1112.51,-528.53"/>
</g>
<!-- Node29&#45;&gt;Node20 -->
<g id="edge36" class="edge">
<title>Node29&#45;&gt;Node20</title>
<path fill="none" stroke="midnightblue" d="M799.46,-368.4C832.24,-336.81 937.04,-235.82 978.69,-195.68"/>
<polygon fill="midnightblue" stroke="midnightblue" points="981.37,-197.96 986.14,-188.5 976.51,-192.92 981.37,-197.96"/>
</g>
<!-- Node30 -->
<g id="node30" class="node">
<title>Node30</title>
<g id="a_node30"><a xlink:href="../../d0/d27/classMyBLAS_1_1Matrix.html#af038a1ce616639b7e9f9e3955bb6bd02" target="_top" xlink:title="Static function to get the identity matrix of a given size.">
<polygon fill="white" stroke="black" points="937.5,-387.5 937.5,-406.5 1056.5,-406.5 1056.5,-387.5 937.5,-387.5"/>
<text text-anchor="middle" x="997" y="-394.5" font-family="Helvetica,sans-Serif" font-size="10.00">MyBLAS::Matrix::eye</text>
</a>
</g>
</g>
<!-- Node29&#45;&gt;Node30 -->
<g id="edge37" class="edge">
<title>Node29&#45;&gt;Node30</title>
<path fill="none" stroke="midnightblue" d="M885.19,-386.8C899.4,-388.11 913.8,-389.44 927.31,-390.68"/>
<polygon fill="midnightblue" stroke="midnightblue" points="927.17,-394.18 937.45,-391.61 927.81,-387.21 927.17,-394.18"/>
</g>
<!-- Node31 -->
<g id="node31" class="node">
<title>Node31</title>
<g id="a_node31"><a xlink:href="../../d0/d27/classMyBLAS_1_1Matrix.html#ab3241d24818f1c540afe3a8d1007780d" target="_top" xlink:title="Getter for the number of columns in the matrix.">
<polygon fill="white" stroke="black" points="928.5,-311.5 928.5,-330.5 1065.5,-330.5 1065.5,-311.5 928.5,-311.5"/>
<text text-anchor="middle" x="997" y="-318.5" font-family="Helvetica,sans-Serif" font-size="10.00">MyBLAS::Matrix::getCols</text>
</a>
</g>
</g>
<!-- Node29&#45;&gt;Node31 -->
<g id="edge38" class="edge">
<title>Node29&#45;&gt;Node31</title>
<path fill="none" stroke="midnightblue" d="M821.3,-368.49C847.88,-360.62 886.83,-349.26 921,-340 929.57,-337.68 938.72,-335.29 947.57,-333.02"/>
<polygon fill="midnightblue" stroke="midnightblue" points="948.57,-336.38 957.4,-330.52 946.84,-329.59 948.57,-336.38"/>
</g>
<!-- Node32 -->
<g id="node32" class="node">
<title>Node32</title>
<g id="a_node32"><a xlink:href="../../dd/dd7/plot__points_8m.html#a07ca9f04874775e798496347c3e80b84" target="_top" xlink:title=" ">
<polygon fill="white" stroke="black" points="982.5,-425.5 982.5,-444.5 1011.5,-444.5 1011.5,-425.5 982.5,-425.5"/>
<text text-anchor="middle" x="997" y="-432.5" font-family="Helvetica,sans-Serif" font-size="10.00">L</text>
</a>
</g>
</g>
<!-- Node29&#45;&gt;Node32 -->
<g id="edge39" class="edge">
<title>Node29&#45;&gt;Node32</title>
<path fill="none" stroke="midnightblue" d="M821.3,-387.51C847.88,-395.38 886.83,-406.74 921,-416 938.21,-420.67 957.75,-425.6 972.56,-429.27"/>
<polygon fill="midnightblue" stroke="midnightblue" points="971.87,-432.71 982.42,-431.7 973.54,-425.91 971.87,-432.71"/>
</g>
<!-- Node33 -->
<g id="node33" class="node">
<title>Node33</title>
<g id="a_node33"><a xlink:href="../../d0/d27/classMyBLAS_1_1Matrix.html#a95f15a700d1ac3c9639ee831da4c903c" target="_top" xlink:title="Swaps two rows in the matrix.">
<polygon fill="white" stroke="black" points="921,-349.5 921,-368.5 1073,-368.5 1073,-349.5 921,-349.5"/>
<text text-anchor="middle" x="997" y="-356.5" font-family="Helvetica,sans-Serif" font-size="10.00">MyBLAS::Matrix::swapRows</text>
</a>
</g>
</g>
<!-- Node29&#45;&gt;Node33 -->
<g id="edge40" class="edge">
<title>Node29&#45;&gt;Node33</title>
<path fill="none" stroke="midnightblue" d="M885.19,-369.2C893.67,-368.42 902.21,-367.63 910.6,-366.86"/>
<polygon fill="midnightblue" stroke="midnightblue" points="911.09,-370.33 920.72,-365.93 910.44,-363.36 911.09,-370.33"/>
</g>
<!-- Node33&#45;&gt;Node34 -->
<g id="edge41" class="edge">
<title>Node33&#45;&gt;Node34</title>
<path fill="none" stroke="midnightblue" d="M1043.8,-349.41C1068.18,-344.31 1098.36,-337.99 1124.06,-332.61"/>
<polygon fill="midnightblue" stroke="midnightblue" points="1124.96,-336 1134.03,-330.52 1123.52,-329.14 1124.96,-336"/>
</g>
<!-- Node35&#45;&gt;Node9 -->
<g id="edge44" class="edge">
<title>Node35&#45;&gt;Node9</title>
<path fill="none" stroke="midnightblue" d="M828.68,-444.54C900.22,-461.97 1051.84,-498.9 1130.24,-518"/>
<polygon fill="midnightblue" stroke="midnightblue" points="1129.8,-521.5 1140.35,-520.46 1131.46,-514.7 1129.8,-521.5"/>
</g>
<!-- Node35&#45;&gt;Node32 -->
<g id="edge43" class="edge">
<title>Node35&#45;&gt;Node32</title>
<path fill="none" stroke="midnightblue" d="M868.16,-435C905.29,-435 946.93,-435 972.31,-435"/>
<polygon fill="midnightblue" stroke="midnightblue" points="972.43,-438.5 982.43,-435 972.43,-431.5 972.43,-438.5"/>
</g>
<!-- Node36&#45;&gt;Node22 -->
<g id="edge51" class="edge">
<title>Node36&#45;&gt;Node22</title>
<path fill="none" stroke="midnightblue" d="M425.61,-365.99C484.72,-345.17 595.85,-306.94 692,-279 706.54,-274.78 722.45,-270.6 737.04,-266.95"/>
<polygon fill="midnightblue" stroke="midnightblue" points="738.03,-270.31 746.9,-264.51 736.35,-263.51 738.03,-270.31"/>
</g>
<!-- Node37 -->
<g id="node37" class="node">
<title>Node37</title>
<g id="a_node37"><a xlink:href="../../d2/d6e/namespaceMyBLAS.html#a35e2ae0e5c1e945b6bd5ef9e12081132" target="_top" xlink:title="Checks if two matrices have the same rank.">
<polygon fill="white" stroke="black" points="500.5,-371.5 500.5,-390.5 639.5,-390.5 639.5,-371.5 500.5,-371.5"/>
<text text-anchor="middle" x="570" y="-378.5" font-family="Helvetica,sans-Serif" font-size="10.00">MyBLAS::haveEqualRank</text>
</a>
</g>
</g>
<!-- Node36&#45;&gt;Node37 -->
<g id="edge50" class="edge">
<title>Node36&#45;&gt;Node37</title>
<path fill="none" stroke="midnightblue" d="M448.12,-381C461.66,-381 476.1,-381 490.1,-381"/>
<polygon fill="midnightblue" stroke="midnightblue" points="490.19,-384.5 500.19,-381 490.19,-377.5 490.19,-384.5"/>
</g>
<!-- Node38&#45;&gt;Node15 -->
<g id="edge54" class="edge">
<title>Node38&#45;&gt;Node15</title>
<path fill="none" stroke="midnightblue" d="M271.09,-261C288.69,-261 307.27,-261 324.06,-261"/>
<polygon fill="midnightblue" stroke="midnightblue" points="324.26,-264.5 334.26,-261 324.26,-257.5 324.26,-264.5"/>
</g>
<!-- Node38&#45;&gt;Node17 -->
<g id="edge55" class="edge">
<title>Node38&#45;&gt;Node17</title>
<path fill="none" stroke="midnightblue" d="M261.75,-251.49C268.55,-249.01 275.12,-245.9 281,-242 303.81,-226.84 294.66,-207.84 317,-192 319.71,-190.08 322.62,-188.35 325.65,-186.79"/>
<polygon fill="midnightblue" stroke="midnightblue" points="327.3,-189.88 335.01,-182.62 324.45,-183.49 327.3,-189.88"/>
</g>
<!-- Node38&#45;&gt;Node25 -->
<g id="edge56" class="edge">
<title>Node38&#45;&gt;Node25</title>
<path fill="none" stroke="midnightblue" d="M244.68,-270.59C269.26,-275.69 299.69,-282.01 325.6,-287.39"/>
<polygon fill="midnightblue" stroke="midnightblue" points="325.15,-290.87 335.65,-289.48 326.57,-284.02 325.15,-290.87"/>
</g>
</g>
</svg>
        <g id="navigator" transform="translate(0 0)" fill="#404254">
                <rect fill="#f2f5e9" fill-opacity="0.5" stroke="#606060" stroke-width=".5" x="0" y="0" width="60" height="60"/>
                <use id="zoomplus" xlink:href="#zoomPlus" x="17" y="9" onmousedown="handleZoom(evt,'in')"/>
                <use id="zoomminus" xlink:href="#zoomMin" x="42" y="9" onmousedown="handleZoom(evt,'out')"/>
                <use id="reset" xlink:href="#resetDef" x="30" y="36" onmousedown="handleReset()"/>
                <g id="arrowUp" xlink:href="#dirArrow" transform="translate(30 24)" onmousedown="handlePan(0,-1)">
                  <use xlink:href="#rim" fill="#404040">
                        <set attributeName="fill" to="#808080" begin="arrowUp.mouseover" end="arrowUp.mouseout"/>
                  </use>
                  <path fill="none" stroke="white" stroke-width="1.5" d="M0,-3.0v7 M-2.5,-0.5L0,-3.0L2.5,-0.5"/>
                </g>
                <g id="arrowRight" xlink:href="#dirArrow" transform="rotate(90) translate(36 -43)" onmousedown="handlePan(1,0)">
                  <use xlink:href="#rim" fill="#404040">
                        <set attributeName="fill" to="#808080" begin="arrowRight.mouseover" end="arrowRight.mouseout"/>
                  </use>
                  <path fill="none" stroke="white" stroke-width="1.5" d="M0,-3.0v7 M-2.5,-0.5L0,-3.0L2.5,-0.5"/>
                </g>
                <g id="arrowDown" xlink:href="#dirArrow" transform="rotate(180) translate(-30 -48)" onmousedown="handlePan(0,1)">
                  <use xlink:href="#rim" fill="#404040">
                        <set attributeName="fill" to="#808080" begin="arrowDown.mouseover" end="arrowDown.mouseout"/>
                  </use>
                  <path fill="none" stroke="white" stroke-width="1.5" d="M0,-3.0v7 M-2.5,-0.5L0,-3.0L2.5,-0.5"/>
                </g>
                <g id="arrowLeft" xlink:href="#dirArrow" transform="rotate(270) translate(-36 17)" onmousedown="handlePan(-1,0)">
                  <use xlink:href="#rim" fill="#404040">
                        <set attributeName="fill" to="#808080" begin="arrowLeft.mouseover" end="arrowLeft.mouseout"/>
                  </use>
                  <path fill="none" stroke="white" stroke-width="1.5" d="M0,-3.0v7 M-2.5,-0.5L0,-3.0L2.5,-0.5"/>
                </g>
        </g>
        <svg viewBox="0 0 15 15" width="100%" height="30px" preserveAspectRatio="xMaxYMin meet">
         <g id="arrow_out" transform="scale(0.3 0.3)">
          <a xlink:href="classProject2_ae3fb99498f7859230efae48b2915a8cb_cgraph_org.svg" target="_base">
           <rect id="button" ry="5" rx="5" y="6" x="6" height="38" width="38"
                fill="#f2f5e9" fill-opacity="0.5" stroke="#606060" stroke-width="1.0"/>
           <path id="arrow"
             d="M 11.500037,31.436501 C 11.940474,20.09759 22.043105,11.32322 32.158766,21.979434 L 37.068811,17.246167 C 37.068811,17.246167 37.088388,32 37.088388,32 L 22.160133,31.978069 C 22.160133,31.978069 26.997745,27.140456 26.997745,27.140456 C 18.528582,18.264221 13.291696,25.230495 11.500037,31.436501 z"
             style="fill:#404040;"/>
          </a>
         </g>
        </svg>
</svg>
