<?xml version="1.0" encoding="UTF-8" standalone="no"?>
<!DOCTYPE svg PUBLIC "-//W3C//DTD SVG 1.1//EN"
 "http://www.w3.org/Graphics/SVG/1.1/DTD/svg11.dtd">
<!-- Generated by graphviz version 2.43.0 (0)
 -->
<!-- Title: Project2::run Pages: 1 -->
<svg width="1230pt" height="537pt"
 viewBox="0.00 0.00 1230.00 536.50" xmlns="http://www.w3.org/2000/svg" xmlns:xlink="http://www.w3.org/1999/xlink">
<g id="graph0" class="graph" transform="scale(1 1) rotate(0) translate(4 532.5)">
<title>Project2::run</title>
<polygon fill="white" stroke="transparent" points="-4,4 -4,-532.5 1226,-532.5 1226,4 -4,4"/>
<!-- Node1 -->
<g id="node1" class="node">
<title>Node1</title>
<g id="a_node1"><a xlink:title="This function runs the project.">
<polygon fill="#bfbfbf" stroke="black" points="0,-265.5 0,-284.5 78,-284.5 78,-265.5 0,-265.5"/>
<text text-anchor="middle" x="39" y="-272.5" font-family="Helvetica,sans-Serif" font-size="10.00">Project2::run</text>
</a>
</g>
</g>
<!-- Node2 -->
<g id="node2" class="node">
<title>Node2</title>
<g id="a_node2"><a xlink:href="../../dd/d02/classCommandLine.html#a7001590923e6bfdf380448136b8e65bd" target="_top" xlink:title="Method to print a line to the console. This method prints a line of dashes to the console.">
<polygon fill="white" stroke="black" points="117,-498 117,-528 278,-528 278,-498 117,-498"/>
<text text-anchor="start" x="125" y="-516" font-family="Helvetica,sans-Serif" font-size="10.00">CommandLine&lt; InLab6Inputs</text>
<text text-anchor="middle" x="197.5" y="-505" font-family="Helvetica,sans-Serif" font-size="10.00"> &gt;::printLine</text>
</a>
</g>
</g>
<!-- Node1&#45;&gt;Node2 -->
<g id="edge1" class="edge">
<title>Node1&#45;&gt;Node2</title>
<path fill="none" stroke="midnightblue" d="M40.39,-284.69C42.26,-318.06 53.02,-429.42 114,-488 115.5,-489.44 117.08,-490.79 118.72,-492.07"/>
<polygon fill="midnightblue" stroke="midnightblue" points="117.17,-495.24 127.44,-497.84 121.03,-489.4 117.17,-495.24"/>
</g>
<!-- Node3 -->
<g id="node3" class="node">
<title>Node3</title>
<g id="a_node3"><a xlink:href="../../dd/db5/classProject2.html#a10d2ed4784bbc4bda12fe6acc38b2acb" target="_top" xlink:title="This function prints the results of the computation.">
<polygon fill="white" stroke="black" points="137,-459.5 137,-478.5 258,-478.5 258,-459.5 137,-459.5"/>
<text text-anchor="middle" x="197.5" y="-466.5" font-family="Helvetica,sans-Serif" font-size="10.00">Project2::printResults</text>
</a>
</g>
</g>
<!-- Node1&#45;&gt;Node3 -->
<g id="edge2" class="edge">
<title>Node1&#45;&gt;Node3</title>
<path fill="none" stroke="midnightblue" d="M41.06,-284.75C44.84,-314.53 60.45,-405.03 114,-450 118.05,-453.4 122.58,-456.22 127.39,-458.55"/>
<polygon fill="midnightblue" stroke="midnightblue" points="126.34,-461.9 136.92,-462.47 129.01,-455.43 126.34,-461.9"/>
</g>
<!-- Node4 -->
<g id="node4" class="node">
<title>Node4</title>
<g id="a_node4"><a xlink:href="../../df/df1/structOutput.html#a0412b8fd27d6e91551671da11cd8fe93" target="_top" xlink:title="Converts the output parameters to a JSON object.">
<polygon fill="white" stroke="black" points="153,-421.5 153,-440.5 242,-440.5 242,-421.5 153,-421.5"/>
<text text-anchor="middle" x="197.5" y="-428.5" font-family="Helvetica,sans-Serif" font-size="10.00">Output::toJSON</text>
</a>
</g>
</g>
<!-- Node1&#45;&gt;Node4 -->
<g id="edge3" class="edge">
<title>Node1&#45;&gt;Node4</title>
<path fill="none" stroke="midnightblue" d="M42.3,-284.78C48.78,-310.11 69.7,-378.26 114,-412 122.42,-418.41 132.63,-422.72 142.95,-425.6"/>
<polygon fill="midnightblue" stroke="midnightblue" points="142.29,-429.04 152.83,-427.95 143.91,-422.23 142.29,-429.04"/>
</g>
<!-- Node6 -->
<g id="node6" class="node">
<title>Node6</title>
<g id="a_node6"><a xlink:href="../../d1/d18/namespaceMyFactorizationMethod.html#a30add92d8b3f98e6a0c72289515ec91e" target="_top" xlink:title="Function to get the string representation of the factorization method type.">
<polygon fill="white" stroke="black" points="132,-372 132,-402 263,-402 263,-372 132,-372"/>
<text text-anchor="start" x="140" y="-390" font-family="Helvetica,sans-Serif" font-size="10.00">MyFactorizationMethod</text>
<text text-anchor="middle" x="197.5" y="-379" font-family="Helvetica,sans-Serif" font-size="10.00">::TypeKey</text>
</a>
</g>
</g>
<!-- Node1&#45;&gt;Node6 -->
<g id="edge5" class="edge">
<title>Node1&#45;&gt;Node6</title>
<path fill="none" stroke="midnightblue" d="M45.37,-284.54C56.05,-302.63 81.72,-341.97 114,-363 116.75,-364.79 119.64,-366.45 122.62,-367.99"/>
<polygon fill="midnightblue" stroke="midnightblue" points="121.24,-371.21 131.79,-372.25 124.19,-364.87 121.24,-371.21"/>
</g>
<!-- Node7 -->
<g id="node7" class="node">
<title>Node7</title>
<g id="a_node7"><a xlink:href="../../d7/d9a/namespaceMyRelaxationMethod.html#a0af60a901ffd01d1bb403ecee40ba6c3" target="_top" xlink:title="Function to get the key of a relaxation method type.">
<polygon fill="white" stroke="black" points="137,-323 137,-353 258,-353 258,-323 137,-323"/>
<text text-anchor="start" x="145" y="-341" font-family="Helvetica,sans-Serif" font-size="10.00">MyRelaxationMethod</text>
<text text-anchor="middle" x="197.5" y="-330" font-family="Helvetica,sans-Serif" font-size="10.00">::TypeKey</text>
</a>
</g>
</g>
<!-- Node1&#45;&gt;Node7 -->
<g id="edge6" class="edge">
<title>Node1&#45;&gt;Node7</title>
<path fill="none" stroke="midnightblue" d="M56.64,-284.64C71.38,-292.92 93.65,-304.77 114,-313 119.83,-315.36 125.96,-317.61 132.15,-319.74"/>
<polygon fill="midnightblue" stroke="midnightblue" points="131.28,-323.14 141.87,-322.97 133.49,-316.49 131.28,-323.14"/>
</g>
<!-- Node8 -->
<g id="node8" class="node">
<title>Node8</title>
<g id="a_node8"><a xlink:href="../../de/db3/namespaceCompute.html#a242d211ce9bbd59a9619238689816210" target="_top" xlink:title="This method is a placeholder for the Gauss&#45;Seidel relaxation method.">
<polygon fill="white" stroke="black" points="121,-284.5 121,-303.5 274,-303.5 274,-284.5 121,-284.5"/>
<text text-anchor="middle" x="197.5" y="-291.5" font-family="Helvetica,sans-Serif" font-size="10.00">Compute::usingGaussSeidel</text>
</a>
</g>
</g>
<!-- Node1&#45;&gt;Node8 -->
<g id="edge7" class="edge">
<title>Node1&#45;&gt;Node8</title>
<path fill="none" stroke="midnightblue" d="M78.28,-279.65C88.29,-280.86 99.49,-282.22 110.9,-283.61"/>
<polygon fill="midnightblue" stroke="midnightblue" points="110.61,-287.1 120.96,-284.83 111.46,-280.15 110.61,-287.1"/>
</g>
<!-- Node9 -->
<g id="node9" class="node">
<title>Node9</title>
<g id="a_node9"><a xlink:href="../../de/db3/namespaceCompute.html#a3b30a49d004f8370d19cd13f6492ddba" target="_top" xlink:title="Solves a linear system using the Jacobi SOR method.">
<polygon fill="white" stroke="black" points="126,-208.5 126,-227.5 269,-227.5 269,-208.5 126,-208.5"/>
<text text-anchor="middle" x="197.5" y="-215.5" font-family="Helvetica,sans-Serif" font-size="10.00">Compute::usingJacobiSOR</text>
</a>
</g>
</g>
<!-- Node1&#45;&gt;Node9 -->
<g id="edge8" class="edge">
<title>Node1&#45;&gt;Node9</title>
<path fill="none" stroke="midnightblue" d="M55.93,-265.35C70.57,-256.83 93.11,-244.63 114,-237 121.01,-234.44 128.48,-232.15 135.96,-230.12"/>
<polygon fill="midnightblue" stroke="midnightblue" points="136.93,-233.48 145.75,-227.6 135.19,-226.7 136.93,-233.48"/>
</g>
<!-- Node30 -->
<g id="node30" class="node">
<title>Node30</title>
<g id="a_node30"><a xlink:href="../../de/db3/namespaceCompute.html#a9aaa2e3c1db51432d5a62c1d4541fd90" target="_top" xlink:title="Solves a linear system using LUP decomposition.">
<polygon fill="white" stroke="black" points="141.5,-170.5 141.5,-189.5 253.5,-189.5 253.5,-170.5 141.5,-170.5"/>
<text text-anchor="middle" x="197.5" y="-177.5" font-family="Helvetica,sans-Serif" font-size="10.00">Compute::usingLUP</text>
</a>
</g>
</g>
<!-- Node1&#45;&gt;Node30 -->
<g id="edge37" class="edge">
<title>Node1&#45;&gt;Node30</title>
<path fill="none" stroke="midnightblue" d="M46.5,-265.36C58.06,-249.01 83.83,-215.98 114,-199 119.46,-195.93 125.4,-193.35 131.49,-191.19"/>
<polygon fill="midnightblue" stroke="midnightblue" points="132.68,-194.48 141.16,-188.12 130.57,-187.81 132.68,-194.48"/>
</g>
<!-- Node38 -->
<g id="node38" class="node">
<title>Node38</title>
<g id="a_node38"><a xlink:href="../../de/db3/namespaceCompute.html#a0aa73a107ee5ea0767e15b7caddeecc7" target="_top" xlink:title="This method applies the Point Jacobi relaxation method to the given input matrices.">
<polygon fill="white" stroke="black" points="124,-246.5 124,-265.5 271,-265.5 271,-246.5 124,-246.5"/>
<text text-anchor="middle" x="197.5" y="-253.5" font-family="Helvetica,sans-Serif" font-size="10.00">Compute::usingPointJacobi</text>
</a>
</g>
</g>
<!-- Node1&#45;&gt;Node38 -->
<g id="edge55" class="edge">
<title>Node1&#45;&gt;Node38</title>
<path fill="none" stroke="midnightblue" d="M78.28,-270.35C89.14,-269.03 101.39,-267.55 113.8,-266.04"/>
<polygon fill="midnightblue" stroke="midnightblue" points="114.25,-269.51 123.76,-264.83 113.41,-262.56 114.25,-269.51"/>
</g>
<!-- Node39 -->
<g id="node39" class="node">
<title>Node39</title>
<g id="a_node39"><a xlink:href="../../de/db3/namespaceCompute.html#a9536e66c070e83d32645dc9e34f4169b" target="_top" xlink:title="This method is a placeholder for the Successive Over&#45;Relaxation (SOR) method.">
<polygon fill="white" stroke="black" points="141,-132.5 141,-151.5 254,-151.5 254,-132.5 141,-132.5"/>
<text text-anchor="middle" x="197.5" y="-139.5" font-family="Helvetica,sans-Serif" font-size="10.00">Compute::usingSOR</text>
</a>
</g>
</g>
<!-- Node1&#45;&gt;Node39 -->
<g id="edge60" class="edge">
<title>Node1&#45;&gt;Node39</title>
<path fill="none" stroke="midnightblue" d="M43.4,-265.24C51.69,-242.96 75.15,-188.2 114,-161 119.22,-157.35 125.03,-154.39 131.09,-151.99"/>
<polygon fill="midnightblue" stroke="midnightblue" points="132.44,-155.23 140.76,-148.67 130.16,-148.61 132.44,-155.23"/>
</g>
<!-- Node40 -->
<g id="node40" class="node">
<title>Node40</title>
<g id="a_node40"><a xlink:href="../../de/db3/namespaceCompute.html#a8e44d7f0aba871333c4358567a913117" target="_top" xlink:title="This method is a placeholder for the Symmetric Successive Over&#45;Relaxation (SSOR) method.">
<polygon fill="white" stroke="black" points="114,-94.5 114,-113.5 281,-113.5 281,-94.5 114,-94.5"/>
<text text-anchor="middle" x="197.5" y="-101.5" font-family="Helvetica,sans-Serif" font-size="10.00">Compute::usingSymmetricSOR</text>
</a>
</g>
</g>
<!-- Node1&#45;&gt;Node40 -->
<g id="edge61" class="edge">
<title>Node1&#45;&gt;Node40</title>
<path fill="none" stroke="midnightblue" d="M41.71,-265.37C47.05,-238.33 66,-161.19 114,-123 116.19,-121.26 118.51,-119.67 120.93,-118.22"/>
<polygon fill="midnightblue" stroke="midnightblue" points="122.73,-121.23 130.06,-113.58 119.56,-114.99 122.73,-121.23"/>
</g>
<!-- Node41 -->
<g id="node41" class="node">
<title>Node41</title>
<g id="a_node41"><a xlink:href="../../d7/de4/FileParser_8h.html#abb1a95d027a077ecf097a06ef4a968b6" target="_top" xlink:title="Writes the given JSON data to a file at the specified file path.">
<polygon fill="white" stroke="black" points="165,-28.5 165,-47.5 230,-47.5 230,-28.5 165,-28.5"/>
<text text-anchor="middle" x="197.5" y="-35.5" font-family="Helvetica,sans-Serif" font-size="10.00">writeJSON</text>
</a>
</g>
</g>
<!-- Node1&#45;&gt;Node41 -->
<g id="edge62" class="edge">
<title>Node1&#45;&gt;Node41</title>
<path fill="none" stroke="midnightblue" d="M41.46,-265.13C46.39,-234.83 64.96,-141.81 114,-85 126.52,-70.5 144.67,-59.48 160.76,-51.77"/>
<polygon fill="midnightblue" stroke="midnightblue" points="162.27,-54.93 169.94,-47.61 159.38,-48.55 162.27,-54.93"/>
</g>
<!-- Node5 -->
<g id="node5" class="node">
<title>Node5</title>
<g id="a_node5"><a xlink:href="../../dc/da4/structMyBLAS_1_1Stats_1_1Summary.html#a96a66f2ddbad3de15b434c6582bd2011" target="_top" xlink:title=" ">
<polygon fill="white" stroke="black" points="317,-416 317,-446 458,-446 458,-416 317,-416"/>
<text text-anchor="start" x="325" y="-434" font-family="Helvetica,sans-Serif" font-size="10.00">MyBLAS::Stats::Summary</text>
<text text-anchor="middle" x="387.5" y="-423" font-family="Helvetica,sans-Serif" font-size="10.00">::toJSON</text>
</a>
</g>
</g>
<!-- Node4&#45;&gt;Node5 -->
<g id="edge4" class="edge">
<title>Node4&#45;&gt;Node5</title>
<path fill="none" stroke="midnightblue" d="M242.1,-431C261.39,-431 284.69,-431 306.89,-431"/>
<polygon fill="midnightblue" stroke="midnightblue" points="307,-434.5 317,-431 307,-427.5 307,-434.5"/>
</g>
<!-- Node10 -->
<g id="node10" class="node">
<title>Node10</title>
<g id="a_node10"><a xlink:href="../../d7/d9a/namespaceMyRelaxationMethod.html#a1ad90cacb42ba2b27223feb0d56320b9" target="_top" xlink:title="This function applies the Point Jacobi method to solve a system of linear equations.">
<polygon fill="white" stroke="black" points="327,-329 327,-359 448,-359 448,-329 327,-329"/>
<text text-anchor="start" x="335" y="-347" font-family="Helvetica,sans-Serif" font-size="10.00">MyRelaxationMethod</text>
<text text-anchor="middle" x="387.5" y="-336" font-family="Helvetica,sans-Serif" font-size="10.00">::applyPointJacobi</text>
</a>
</g>
</g>
<!-- Node9&#45;&gt;Node10 -->
<g id="edge9" class="edge">
<title>Node9&#45;&gt;Node10</title>
<path fill="none" stroke="midnightblue" d="M265.51,-227.56C271.09,-230.06 276.36,-233.16 281,-237 311.65,-262.39 287.91,-291.83 317,-319 318.68,-320.56 320.46,-322.03 322.32,-323.41"/>
<polygon fill="midnightblue" stroke="midnightblue" points="320.62,-326.48 330.94,-328.88 324.37,-320.57 320.62,-326.48"/>
</g>
<!-- Node19 -->
<g id="node19" class="node">
<title>Node19</title>
<g id="a_node19"><a xlink:href="../../de/def/classStopwatch.html#a3c8a6cb60a31a8cafd1d2dad1b6c851d" target="_top" xlink:title="Save the current time as the clicked time point.">
<polygon fill="white" stroke="black" points="339.5,-252.5 339.5,-271.5 435.5,-271.5 435.5,-252.5 339.5,-252.5"/>
<text text-anchor="middle" x="387.5" y="-259.5" font-family="Helvetica,sans-Serif" font-size="10.00">Stopwatch::click</text>
</a>
</g>
</g>
<!-- Node9&#45;&gt;Node19 -->
<g id="edge22" class="edge">
<title>Node9&#45;&gt;Node19</title>
<path fill="none" stroke="midnightblue" d="M240.06,-227.52C253.16,-230.53 267.69,-233.89 281,-237 299.08,-241.22 318.89,-245.9 336.41,-250.06"/>
<polygon fill="midnightblue" stroke="midnightblue" points="335.9,-253.54 346.44,-252.44 337.52,-246.73 335.9,-253.54"/>
</g>
<!-- Node20 -->
<g id="node20" class="node">
<title>Node20</title>
<g id="a_node20"><a xlink:href="../../db/df1/Helpers_8h.html#a47bde9d4fb76f7eee1cfe4a98be0f8db" target="_top" xlink:title="Computes the mean and variance of a numeric vector using Boost Accumulators.">
<polygon fill="white" stroke="black" points="336.5,-126.5 336.5,-145.5 438.5,-145.5 438.5,-126.5 336.5,-126.5"/>
<text text-anchor="middle" x="387.5" y="-133.5" font-family="Helvetica,sans-Serif" font-size="10.00">computeMeanStd</text>
</a>
</g>
</g>
<!-- Node9&#45;&gt;Node20 -->
<g id="edge23" class="edge">
<title>Node9&#45;&gt;Node20</title>
<path fill="none" stroke="midnightblue" d="M260.66,-208.42C267.81,-205.96 274.76,-202.88 281,-199 302.46,-185.67 295.81,-168.76 317,-155 320.18,-152.94 323.57,-151.1 327.1,-149.45"/>
<polygon fill="midnightblue" stroke="midnightblue" points="328.71,-152.58 336.64,-145.55 326.06,-146.1 328.71,-152.58"/>
</g>
<!-- Node21 -->
<g id="node21" class="node">
<title>Node21</title>
<g id="a_node21"><a xlink:href="../../de/def/classStopwatch.html#ac5fd84825ff7ae966d1963a20e9cf47b" target="_top" xlink:title="Static method to calculate the duration between two time points.">
<polygon fill="white" stroke="black" points="330.5,-164.5 330.5,-183.5 444.5,-183.5 444.5,-164.5 330.5,-164.5"/>
<text text-anchor="middle" x="387.5" y="-171.5" font-family="Helvetica,sans-Serif" font-size="10.00">Stopwatch::duration</text>
</a>
</g>
</g>
<!-- Node9&#45;&gt;Node21 -->
<g id="edge24" class="edge">
<title>Node9&#45;&gt;Node21</title>
<path fill="none" stroke="midnightblue" d="M240.06,-208.48C253.16,-205.47 267.69,-202.11 281,-199 299.08,-194.78 318.89,-190.1 336.41,-185.94"/>
<polygon fill="midnightblue" stroke="midnightblue" points="337.52,-189.27 346.44,-183.56 335.9,-182.46 337.52,-189.27"/>
</g>
<!-- Node22 -->
<g id="node22" class="node">
<title>Node22</title>
<g id="a_node22"><a xlink:href="../../d7/d9a/namespaceMyRelaxationMethod.html#a985bd80ba02c84e9d1ca2e434a32bd3f" target="_top" xlink:title="Function to perform pre&#45;checks on the coefficient matrix and the right&#45;hand side vector.">
<polygon fill="white" stroke="black" points="327,-203 327,-233 448,-233 448,-203 327,-203"/>
<text text-anchor="start" x="335" y="-221" font-family="Helvetica,sans-Serif" font-size="10.00">MyRelaxationMethod</text>
<text text-anchor="middle" x="387.5" y="-210" font-family="Helvetica,sans-Serif" font-size="10.00">::passesPreChecks</text>
</a>
</g>
</g>
<!-- Node9&#45;&gt;Node22 -->
<g id="edge25" class="edge">
<title>Node9&#45;&gt;Node22</title>
<path fill="none" stroke="midnightblue" d="M269.04,-218C284.68,-218 301.25,-218 316.85,-218"/>
<polygon fill="midnightblue" stroke="midnightblue" points="316.95,-221.5 326.95,-218 316.95,-214.5 316.95,-221.5"/>
</g>
<!-- Node29 -->
<g id="node29" class="node">
<title>Node29</title>
<g id="a_node29"><a xlink:href="../../de/def/classStopwatch.html#a2cc3c2b39972ca34f3ff9622471b1bbb" target="_top" xlink:title="Restart the stopwatch by setting the initial and clicked time points to the current time.">
<polygon fill="white" stroke="black" points="334.5,-290.5 334.5,-309.5 440.5,-309.5 440.5,-290.5 334.5,-290.5"/>
<text text-anchor="middle" x="387.5" y="-297.5" font-family="Helvetica,sans-Serif" font-size="10.00">Stopwatch::restart</text>
</a>
</g>
</g>
<!-- Node9&#45;&gt;Node29 -->
<g id="edge36" class="edge">
<title>Node9&#45;&gt;Node29</title>
<path fill="none" stroke="midnightblue" d="M260.66,-227.58C267.81,-230.04 274.76,-233.12 281,-237 302.46,-250.33 295.81,-267.24 317,-281 320.18,-283.06 323.57,-284.9 327.1,-286.55"/>
<polygon fill="midnightblue" stroke="midnightblue" points="326.06,-289.9 336.64,-290.45 328.71,-283.42 326.06,-289.9"/>
</g>
<!-- Node11 -->
<g id="node11" class="node">
<title>Node11</title>
<g id="a_node11"><a xlink:href="../../d2/d6e/namespaceMyBLAS.html#ac6dacb7fc104126e5fa62e02f0ec1446" target="_top" xlink:title="Calculates the L2 norm (Euclidean distance) between two containers.">
<polygon fill="white" stroke="black" points="543,-334.5 543,-353.5 617,-353.5 617,-334.5 543,-334.5"/>
<text text-anchor="middle" x="580" y="-341.5" font-family="Helvetica,sans-Serif" font-size="10.00">MyBLAS::L2</text>
</a>
</g>
</g>
<!-- Node10&#45;&gt;Node11 -->
<g id="edge10" class="edge">
<title>Node10&#45;&gt;Node11</title>
<path fill="none" stroke="midnightblue" d="M448.25,-344C475.49,-344 507.24,-344 532.64,-344"/>
<polygon fill="midnightblue" stroke="midnightblue" points="532.74,-347.5 542.74,-344 532.74,-340.5 532.74,-347.5"/>
</g>
<!-- Node13 -->
<g id="node13" class="node">
<title>Node13</title>
<g id="a_node13"><a xlink:href="../../de/d4d/namespaceMyMath.html#af3e9a9de7b922fdfb6e3d2988b1212ff" target="_top" xlink:title="A template function to calculate the power of a base number.">
<polygon fill="white" stroke="black" points="947.5,-366.5 947.5,-385.5 1030.5,-385.5 1030.5,-366.5 947.5,-366.5"/>
<text text-anchor="middle" x="989" y="-373.5" font-family="Helvetica,sans-Serif" font-size="10.00">MyMath::pow</text>
</a>
</g>
</g>
<!-- Node10&#45;&gt;Node13 -->
<g id="edge20" class="edge">
<title>Node10&#45;&gt;Node13</title>
<path fill="none" stroke="midnightblue" d="M448.02,-355.91C462.98,-358.58 479.04,-361.16 494,-363 654.94,-382.85 847.53,-380.47 937.29,-377.87"/>
<polygon fill="midnightblue" stroke="midnightblue" points="937.57,-381.37 947.46,-377.56 937.36,-374.37 937.57,-381.37"/>
</g>
<!-- Node16 -->
<g id="node16" class="node">
<title>Node16</title>
<g id="a_node16"><a xlink:href="../../dd/df5/namespaceMyBLAS_1_1Stats.html#aaa0d2e3d22af2b7894169b7c90ba6146" target="_top" xlink:title="Function to find the sum of all elements in a vector.">
<polygon fill="white" stroke="black" points="931.5,-261.5 931.5,-280.5 1046.5,-280.5 1046.5,-261.5 931.5,-261.5"/>
<text text-anchor="middle" x="989" y="-268.5" font-family="Helvetica,sans-Serif" font-size="10.00">MyBLAS::Stats::sum</text>
</a>
</g>
</g>
<!-- Node10&#45;&gt;Node16 -->
<g id="edge21" class="edge">
<title>Node10&#45;&gt;Node16</title>
<path fill="none" stroke="midnightblue" d="M448.08,-332.53C463.04,-329.85 479.08,-327.16 494,-325 646.21,-303 825.96,-285.46 921.1,-276.83"/>
<polygon fill="midnightblue" stroke="midnightblue" points="921.52,-280.31 931.16,-275.92 920.89,-273.33 921.52,-280.31"/>
</g>
<!-- Node18 -->
<g id="node18" class="node">
<title>Node18</title>
<g id="a_node18"><a xlink:href="../../dd/df5/namespaceMyBLAS_1_1Stats.html#a403bf760cf802cddf8dd73e5d3e46a05" target="_top" xlink:title="Function to find the maximum value in a vector.">
<polygon fill="white" stroke="black" points="931,-432.5 931,-451.5 1047,-451.5 1047,-432.5 931,-432.5"/>
<text text-anchor="middle" x="989" y="-439.5" font-family="Helvetica,sans-Serif" font-size="10.00">MyBLAS::Stats::max</text>
</a>
</g>
</g>
<!-- Node10&#45;&gt;Node18 -->
<g id="edge18" class="edge">
<title>Node10&#45;&gt;Node18</title>
<path fill="none" stroke="midnightblue" d="M423.03,-359.11C443.33,-367.39 469.7,-377.14 494,-383 643.88,-419.12 824.92,-433.55 920.79,-438.98"/>
<polygon fill="midnightblue" stroke="midnightblue" points="920.75,-442.49 930.93,-439.54 921.14,-435.5 920.75,-442.49"/>
</g>
<!-- Node12 -->
<g id="node12" class="node">
<title>Node12</title>
<g id="a_node12"><a xlink:href="../../d2/d6e/namespaceMyBLAS.html#ac12a3b113ae6b7edd2fcb21280c0f804" target="_top" xlink:title="A template function to calculate the norm of a vector.">
<polygon fill="white" stroke="black" points="754,-328.5 754,-347.5 843,-347.5 843,-328.5 754,-328.5"/>
<text text-anchor="middle" x="798.5" y="-335.5" font-family="Helvetica,sans-Serif" font-size="10.00">MyBLAS::norm</text>
</a>
</g>
</g>
<!-- Node11&#45;&gt;Node12 -->
<g id="edge11" class="edge">
<title>Node11&#45;&gt;Node12</title>
<path fill="none" stroke="midnightblue" d="M617.24,-343C651.71,-342.04 704.03,-340.59 743.43,-339.5"/>
<polygon fill="midnightblue" stroke="midnightblue" points="743.76,-342.99 753.66,-339.21 743.57,-335.99 743.76,-342.99"/>
</g>
<!-- Node11&#45;&gt;Node13 -->
<g id="edge17" class="edge">
<title>Node11&#45;&gt;Node13</title>
<path fill="none" stroke="midnightblue" d="M617.23,-348.28C641.25,-351.02 673.48,-354.52 702,-357 784.14,-364.14 879.76,-370 937,-373.24"/>
<polygon fill="midnightblue" stroke="midnightblue" points="937.05,-376.75 947.23,-373.81 937.44,-369.76 937.05,-376.75"/>
</g>
<!-- Node12&#45;&gt;Node13 -->
<g id="edge12" class="edge">
<title>Node12&#45;&gt;Node13</title>
<path fill="none" stroke="midnightblue" d="M843.22,-346.81C871.34,-352.48 907.97,-359.87 937.35,-365.79"/>
<polygon fill="midnightblue" stroke="midnightblue" points="936.92,-369.27 947.42,-367.82 938.31,-362.41 936.92,-369.27"/>
</g>
<!-- Node15 -->
<g id="node15" class="node">
<title>Node15</title>
<g id="a_node15"><a xlink:href="../../d4/d4d/classMyBLAS_1_1Vector.html#aae30f8178e4a34d332317c61e77c147a" target="_top" xlink:title="Getter for the size of the vector.">
<polygon fill="white" stroke="black" points="1093,-262.5 1093,-281.5 1212,-281.5 1212,-262.5 1093,-262.5"/>
<text text-anchor="middle" x="1152.5" y="-269.5" font-family="Helvetica,sans-Serif" font-size="10.00">MyBLAS::Vector::size</text>
</a>
</g>
</g>
<!-- Node12&#45;&gt;Node15 -->
<g id="edge14" class="edge">
<title>Node12&#45;&gt;Node15</title>
<path fill="none" stroke="midnightblue" d="M843.02,-329.84C905.25,-318.17 1019.96,-296.66 1090.6,-283.42"/>
<polygon fill="midnightblue" stroke="midnightblue" points="1091.51,-286.81 1100.69,-281.53 1090.22,-279.93 1091.51,-286.81"/>
</g>
<!-- Node12&#45;&gt;Node16 -->
<g id="edge15" class="edge">
<title>Node12&#45;&gt;Node16</title>
<path fill="none" stroke="midnightblue" d="M843.27,-328.82C859.7,-324.9 878.4,-319.87 895,-314 917.75,-305.96 942.49,-294.37 960.74,-285.25"/>
<polygon fill="midnightblue" stroke="midnightblue" points="962.56,-288.25 969.9,-280.61 959.39,-282.01 962.56,-288.25"/>
</g>
<!-- Node14 -->
<g id="node14" class="node">
<title>Node14</title>
<g id="a_node14"><a xlink:href="../../de/d4d/namespaceMyMath.html#a5f2b6e445ba885637efd0db1a7708919" target="_top" xlink:title="A template specialization function to calculate the power of a __float128 base number.">
<polygon fill="white" stroke="black" points="1111,-366.5 1111,-385.5 1194,-385.5 1194,-366.5 1111,-366.5"/>
<text text-anchor="middle" x="1152.5" y="-373.5" font-family="Helvetica,sans-Serif" font-size="10.00">MyMath::pow</text>
</a>
</g>
</g>
<!-- Node13&#45;&gt;Node14 -->
<g id="edge13" class="edge">
<title>Node13&#45;&gt;Node14</title>
<path fill="none" stroke="midnightblue" d="M1030.75,-376C1051.98,-376 1078.15,-376 1100.69,-376"/>
<polygon fill="midnightblue" stroke="midnightblue" points="1100.76,-379.5 1110.76,-376 1100.76,-372.5 1100.76,-379.5"/>
</g>
<!-- Node17 -->
<g id="node17" class="node">
<title>Node17</title>
<g id="a_node17"><a xlink:href="../../d4/d4d/classMyBLAS_1_1Vector.html#a6188d71192e096e25ae1c1a46150a0ab" target="_top" xlink:title="Getter for the vector data.">
<polygon fill="white" stroke="black" points="1083,-413.5 1083,-432.5 1222,-432.5 1222,-413.5 1083,-413.5"/>
<text text-anchor="middle" x="1152.5" y="-420.5" font-family="Helvetica,sans-Serif" font-size="10.00">MyBLAS::Vector::getData</text>
</a>
</g>
</g>
<!-- Node16&#45;&gt;Node17 -->
<g id="edge16" class="edge">
<title>Node16&#45;&gt;Node17</title>
<path fill="none" stroke="midnightblue" d="M996.25,-280.64C1013.3,-306.73 1060.85,-377.89 1083,-395 1090.7,-400.95 1099.83,-405.82 1108.88,-409.74"/>
<polygon fill="midnightblue" stroke="midnightblue" points="1107.63,-413.01 1118.22,-413.49 1110.24,-406.52 1107.63,-413.01"/>
</g>
<!-- Node18&#45;&gt;Node17 -->
<g id="edge19" class="edge">
<title>Node18&#45;&gt;Node17</title>
<path fill="none" stroke="midnightblue" d="M1047.39,-435.25C1055.67,-434.27 1064.3,-433.26 1072.9,-432.25"/>
<polygon fill="midnightblue" stroke="midnightblue" points="1073.44,-435.71 1082.96,-431.06 1072.62,-428.76 1073.44,-435.71"/>
</g>
<!-- Node23 -->
<g id="node23" class="node">
<title>Node23</title>
<g id="a_node23"><a xlink:href="../../d2/d6e/namespaceMyBLAS.html#a4ae8cb61e3457065790607979b939564" target="_top" xlink:title="Checks if the given matrix is diagonally dominant.">
<polygon fill="white" stroke="black" points="494,-246.5 494,-265.5 666,-265.5 666,-246.5 494,-246.5"/>
<text text-anchor="middle" x="580" y="-253.5" font-family="Helvetica,sans-Serif" font-size="10.00">MyBLAS::isDiagonallyDominant</text>
</a>
</g>
</g>
<!-- Node22&#45;&gt;Node23 -->
<g id="edge26" class="edge">
<title>Node22&#45;&gt;Node23</title>
<path fill="none" stroke="midnightblue" d="M448.25,-229.92C471.54,-234.56 498.13,-239.87 521.22,-244.48"/>
<polygon fill="midnightblue" stroke="midnightblue" points="520.73,-247.95 531.23,-246.47 522.1,-241.08 520.73,-247.95"/>
</g>
<!-- Node25 -->
<g id="node25" class="node">
<title>Node25</title>
<g id="a_node25"><a xlink:href="../../d2/d6e/namespaceMyBLAS.html#a0b887e323f8337bd87ef20dff8af5c1f" target="_top" xlink:title="Checks if the given matrix is a square matrix.">
<polygon fill="white" stroke="black" points="730,-176.5 730,-195.5 867,-195.5 867,-176.5 730,-176.5"/>
<text text-anchor="middle" x="798.5" y="-183.5" font-family="Helvetica,sans-Serif" font-size="10.00">MyBLAS::isSquareMatrix</text>
</a>
</g>
</g>
<!-- Node22&#45;&gt;Node25 -->
<g id="edge32" class="edge">
<title>Node22&#45;&gt;Node25</title>
<path fill="none" stroke="midnightblue" d="M448.08,-214.44C504.31,-210.96 590.93,-205.28 666,-199 683.39,-197.55 702.06,-195.81 719.71,-194.08"/>
<polygon fill="midnightblue" stroke="midnightblue" points="720.35,-197.54 729.96,-193.07 719.67,-190.57 720.35,-197.54"/>
</g>
<!-- Node26 -->
<g id="node26" class="node">
<title>Node26</title>
<g id="a_node26"><a xlink:href="../../d2/d6e/namespaceMyBLAS.html#a1f0325293f4b4969ac4a450ba3db1f87" target="_top" xlink:title="Checks if the given matrix is empty.">
<polygon fill="white" stroke="black" points="513,-132.5 513,-151.5 647,-151.5 647,-132.5 513,-132.5"/>
<text text-anchor="middle" x="580" y="-139.5" font-family="Helvetica,sans-Serif" font-size="10.00">MyBLAS::isEmptyMatrix</text>
</a>
</g>
</g>
<!-- Node22&#45;&gt;Node26 -->
<g id="edge31" class="edge">
<title>Node22&#45;&gt;Node26</title>
<path fill="none" stroke="midnightblue" d="M437.81,-202.93C444.78,-200.04 451.72,-196.73 458,-193 476.41,-182.07 474.95,-170.76 494,-161 498.59,-158.65 503.47,-156.59 508.48,-154.78"/>
<polygon fill="midnightblue" stroke="midnightblue" points="509.8,-158.03 518.22,-151.6 507.63,-151.37 509.8,-158.03"/>
</g>
<!-- Node27 -->
<g id="node27" class="node">
<title>Node27</title>
<g id="a_node27"><a xlink:href="../../d2/d6e/namespaceMyBLAS.html#a56e77d4aef50489830f5ce0ef7bcf7a4" target="_top" xlink:title="Checks if there are no zeros in the diagonal of a matrix.">
<polygon fill="white" stroke="black" points="502.5,-170.5 502.5,-189.5 657.5,-189.5 657.5,-170.5 502.5,-170.5"/>
<text text-anchor="middle" x="580" y="-177.5" font-family="Helvetica,sans-Serif" font-size="10.00">MyBLAS::noZerosInDiagonal</text>
</a>
</g>
</g>
<!-- Node22&#45;&gt;Node27 -->
<g id="edge33" class="edge">
<title>Node22&#45;&gt;Node27</title>
<path fill="none" stroke="midnightblue" d="M448.25,-206.08C471.54,-201.44 498.13,-196.13 521.22,-191.52"/>
<polygon fill="midnightblue" stroke="midnightblue" points="522.1,-194.92 531.23,-189.53 520.73,-188.05 522.1,-194.92"/>
</g>
<!-- Node23&#45;&gt;Node16 -->
<g id="edge30" class="edge">
<title>Node23&#45;&gt;Node16</title>
<path fill="none" stroke="midnightblue" d="M666.32,-259.14C742.04,-261.93 851.15,-265.96 920.82,-268.52"/>
<polygon fill="midnightblue" stroke="midnightblue" points="921.1,-272.04 931.22,-268.91 921.36,-265.04 921.1,-272.04"/>
</g>
<!-- Node24 -->
<g id="node24" class="node">
<title>Node24</title>
<g id="a_node24"><a xlink:href="../../dd/df5/namespaceMyBLAS_1_1Stats.html#afeaf3b7bba0ff1b952b35d0effc0bca9" target="_top" xlink:title="Function to find the absolute value of each element in a vector.">
<polygon fill="white" stroke="black" points="933.5,-154.5 933.5,-173.5 1044.5,-173.5 1044.5,-154.5 933.5,-154.5"/>
<text text-anchor="middle" x="989" y="-161.5" font-family="Helvetica,sans-Serif" font-size="10.00">MyBLAS::Stats::abs</text>
</a>
</g>
</g>
<!-- Node23&#45;&gt;Node24 -->
<g id="edge27" class="edge">
<title>Node23&#45;&gt;Node24</title>
<path fill="none" stroke="midnightblue" d="M666.27,-248.08C730.18,-240.72 819.28,-227.44 895,-205 917.84,-198.23 942.45,-187.2 960.62,-178.28"/>
<polygon fill="midnightblue" stroke="midnightblue" points="962.62,-181.2 969.99,-173.59 959.49,-174.94 962.62,-181.2"/>
</g>
<!-- Node23&#45;&gt;Node25 -->
<g id="edge29" class="edge">
<title>Node23&#45;&gt;Node25</title>
<path fill="none" stroke="midnightblue" d="M623.3,-246.5C637.18,-242.74 652.51,-237.89 666,-232 683.18,-224.49 684.71,-217.26 702,-210 713.21,-205.3 725.55,-201.35 737.54,-198.11"/>
<polygon fill="midnightblue" stroke="midnightblue" points="738.69,-201.43 747.5,-195.56 736.94,-194.65 738.69,-201.43"/>
</g>
<!-- Node24&#45;&gt;Node15 -->
<g id="edge28" class="edge">
<title>Node24&#45;&gt;Node15</title>
<path fill="none" stroke="midnightblue" d="M1004.33,-173.58C1032.39,-192.35 1094.79,-234.08 1128.63,-256.7"/>
<polygon fill="midnightblue" stroke="midnightblue" points="1126.71,-259.63 1136.97,-262.28 1130.6,-253.81 1126.71,-259.63"/>
</g>
<!-- Node28 -->
<g id="node28" class="node">
<title>Node28</title>
<g id="a_node28"><a xlink:href="../../d2/d6e/namespaceMyBLAS.html#a6b103aca5e5fab29f3d0954b77946dc0" target="_top" xlink:title="Checks if all diagonal elements of a matrix are below a certain threshold.">
<polygon fill="white" stroke="black" points="716.5,-89 716.5,-119 880.5,-119 880.5,-89 716.5,-89"/>
<text text-anchor="start" x="724.5" y="-107" font-family="Helvetica,sans-Serif" font-size="10.00">MyBLAS::allDiagonalElements</text>
<text text-anchor="middle" x="798.5" y="-96" font-family="Helvetica,sans-Serif" font-size="10.00">BelowThreshold</text>
</a>
</g>
</g>
<!-- Node27&#45;&gt;Node28 -->
<g id="edge34" class="edge">
<title>Node27&#45;&gt;Node28</title>
<path fill="none" stroke="midnightblue" d="M641.78,-170.4C650.16,-167.94 658.46,-164.86 666,-161 685.05,-151.24 683.13,-139.1 702,-129 706.31,-126.7 710.84,-124.59 715.49,-122.68"/>
<polygon fill="midnightblue" stroke="midnightblue" points="717.07,-125.82 725.18,-119.01 714.59,-119.28 717.07,-125.82"/>
</g>
<!-- Node28&#45;&gt;Node24 -->
<g id="edge35" class="edge">
<title>Node28&#45;&gt;Node24</title>
<path fill="none" stroke="midnightblue" d="M860.91,-119.07C872.3,-122.15 884.06,-125.52 895,-129 915.25,-135.44 937.55,-143.79 955.23,-150.72"/>
<polygon fill="midnightblue" stroke="midnightblue" points="953.95,-153.97 964.54,-154.4 956.53,-147.46 953.95,-153.97"/>
</g>
<!-- Node30&#45;&gt;Node19 -->
<g id="edge47" class="edge">
<title>Node30&#45;&gt;Node19</title>
<path fill="none" stroke="midnightblue" d="M253.76,-187.41C263.28,-190.14 272.76,-193.88 281,-199 302.46,-212.33 295.81,-229.24 317,-243 320.99,-245.59 325.32,-247.83 329.81,-249.76"/>
<polygon fill="midnightblue" stroke="midnightblue" points="328.6,-253.05 339.19,-253.33 331.08,-246.5 328.6,-253.05"/>
</g>
<!-- Node30&#45;&gt;Node20 -->
<g id="edge48" class="edge">
<title>Node30&#45;&gt;Node20</title>
<path fill="none" stroke="midnightblue" d="M240.06,-170.48C253.16,-167.47 267.69,-164.11 281,-161 299.08,-156.78 318.89,-152.1 336.41,-147.94"/>
<polygon fill="midnightblue" stroke="midnightblue" points="337.52,-151.27 346.44,-145.56 335.9,-144.46 337.52,-151.27"/>
</g>
<!-- Node30&#45;&gt;Node21 -->
<g id="edge49" class="edge">
<title>Node30&#45;&gt;Node21</title>
<path fill="none" stroke="midnightblue" d="M253.64,-178.24C274.49,-177.57 298.45,-176.81 320.23,-176.12"/>
<polygon fill="midnightblue" stroke="midnightblue" points="320.5,-179.61 330.39,-175.79 320.28,-172.61 320.5,-179.61"/>
</g>
<!-- Node30&#45;&gt;Node29 -->
<g id="edge54" class="edge">
<title>Node30&#45;&gt;Node29</title>
<path fill="none" stroke="midnightblue" d="M253.75,-185.25C263.6,-188.17 273.19,-192.53 281,-199 311.65,-224.39 286.87,-255 317,-281 319.51,-283.17 322.24,-285.09 325.13,-286.79"/>
<polygon fill="midnightblue" stroke="midnightblue" points="323.66,-289.97 334.17,-291.28 326.77,-283.7 323.66,-289.97"/>
</g>
<!-- Node31 -->
<g id="node31" class="node">
<title>Node31</title>
<g id="a_node31"><a xlink:href="../../d5/db6/namespaceMyBLAS_1_1LUP.html#acbc3001786a9bc09a661660f1ccd2e0d" target="_top" xlink:title="This function solves a system of linear equations Ax = b using LU factorization with partial pivoting...">
<polygon fill="white" stroke="black" points="513,-18.5 513,-37.5 647,-37.5 647,-18.5 513,-18.5"/>
<text text-anchor="middle" x="580" y="-25.5" font-family="Helvetica,sans-Serif" font-size="10.00">MyBLAS::LUP::applyLUP</text>
</a>
</g>
</g>
<!-- Node30&#45;&gt;Node31 -->
<g id="edge38" class="edge">
<title>Node30&#45;&gt;Node31</title>
<path fill="none" stroke="midnightblue" d="M253.57,-175.18C263.55,-172.23 273.24,-167.75 281,-161 314.76,-131.65 282.11,-95.01 317,-67 344.93,-44.58 435.86,-35.01 502.79,-30.94"/>
<polygon fill="midnightblue" stroke="midnightblue" points="503.11,-34.43 512.89,-30.36 502.71,-27.44 503.11,-34.43"/>
</g>
<!-- Node36 -->
<g id="node36" class="node">
<title>Node36</title>
<g id="a_node36"><a xlink:href="../../d1/d18/namespaceMyFactorizationMethod.html#a3edc078b9a5c660f07e2216ec4df7c37" target="_top" xlink:title="Checks if a matrix and a vector pass certain pre&#45;checks.">
<polygon fill="white" stroke="black" points="322,-77 322,-107 453,-107 453,-77 322,-77"/>
<text text-anchor="start" x="330" y="-95" font-family="Helvetica,sans-Serif" font-size="10.00">MyFactorizationMethod</text>
<text text-anchor="middle" x="387.5" y="-84" font-family="Helvetica,sans-Serif" font-size="10.00">::passesPreChecks</text>
</a>
</g>
</g>
<!-- Node30&#45;&gt;Node36 -->
<g id="edge50" class="edge">
<title>Node30&#45;&gt;Node36</title>
<path fill="none" stroke="midnightblue" d="M253.76,-172.59C263.28,-169.86 272.76,-166.12 281,-161 302.46,-147.67 296.37,-131.58 317,-117 319.67,-115.11 322.5,-113.35 325.43,-111.72"/>
<polygon fill="midnightblue" stroke="midnightblue" points="327.1,-114.79 334.45,-107.16 323.95,-108.54 327.1,-114.79"/>
</g>
<!-- Node32 -->
<g id="node32" class="node">
<title>Node32</title>
<g id="a_node32"><a xlink:href="../../d2/d6e/namespaceMyBLAS.html#af710039e87de86c8b4ac8a9e139efbcb" target="_top" xlink:title="Perform backward substitution.">
<polygon fill="white" stroke="black" points="714,-138.5 714,-157.5 883,-157.5 883,-138.5 714,-138.5"/>
<text text-anchor="middle" x="798.5" y="-145.5" font-family="Helvetica,sans-Serif" font-size="10.00">MyBLAS::backwardSubstitution</text>
</a>
</g>
</g>
<!-- Node31&#45;&gt;Node32 -->
<g id="edge39" class="edge">
<title>Node31&#45;&gt;Node32</title>
<path fill="none" stroke="midnightblue" d="M647.06,-36.11C653.9,-38.84 660.4,-42.39 666,-47 696.73,-72.29 670.97,-104.07 702,-129 704.08,-130.67 706.26,-132.2 708.52,-133.61"/>
<polygon fill="midnightblue" stroke="midnightblue" points="707.17,-136.86 717.65,-138.47 710.46,-130.68 707.17,-136.86"/>
</g>
<!-- Node33 -->
<g id="node33" class="node">
<title>Node33</title>
<g id="a_node33"><a xlink:href="../../d5/db6/namespaceMyBLAS_1_1LUP.html#a8944cf7f291594494e1140ff6b0b0fc6" target="_top" xlink:title="Performs Doolittle&#39;s LU factorization with partial pivoting on a given matrix.">
<polygon fill="white" stroke="black" points="702,-12.5 702,-31.5 895,-31.5 895,-12.5 702,-12.5"/>
<text text-anchor="middle" x="798.5" y="-19.5" font-family="Helvetica,sans-Serif" font-size="10.00">MyBLAS::LUP::dooLittleFactorizeLUP</text>
</a>
</g>
</g>
<!-- Node31&#45;&gt;Node33 -->
<g id="edge41" class="edge">
<title>Node31&#45;&gt;Node33</title>
<path fill="none" stroke="midnightblue" d="M647.13,-26.17C661.31,-25.77 676.63,-25.35 691.89,-24.93"/>
<polygon fill="midnightblue" stroke="midnightblue" points="691.99,-28.43 701.89,-24.65 691.79,-21.43 691.99,-28.43"/>
</g>
<!-- Node35 -->
<g id="node35" class="node">
<title>Node35</title>
<g id="a_node35"><a xlink:href="../../d2/d6e/namespaceMyBLAS.html#aa3501265c4bb7f37e8e949d37244473a" target="_top" xlink:title="Perform forward substitution.">
<polygon fill="white" stroke="black" points="719,-50.5 719,-69.5 878,-69.5 878,-50.5 719,-50.5"/>
<text text-anchor="middle" x="798.5" y="-57.5" font-family="Helvetica,sans-Serif" font-size="10.00">MyBLAS::forwardSubstitution</text>
</a>
</g>
</g>
<!-- Node31&#45;&gt;Node35 -->
<g id="edge44" class="edge">
<title>Node31&#45;&gt;Node35</title>
<path fill="none" stroke="midnightblue" d="M645.37,-37.51C669.8,-41.13 697.82,-45.27 723.1,-49"/>
<polygon fill="midnightblue" stroke="midnightblue" points="722.6,-52.47 733,-50.47 723.62,-45.54 722.6,-52.47"/>
</g>
<!-- Node32&#45;&gt;Node16 -->
<g id="edge40" class="edge">
<title>Node32&#45;&gt;Node16</title>
<path fill="none" stroke="midnightblue" d="M873.23,-157.6C880.84,-160.06 888.25,-163.14 895,-167 931.79,-188.01 961.72,-228.85 976.99,-252.63"/>
<polygon fill="midnightblue" stroke="midnightblue" points="974.19,-254.75 982.45,-261.38 980.13,-251.04 974.19,-254.75"/>
</g>
<!-- Node33&#45;&gt;Node24 -->
<g id="edge42" class="edge">
<title>Node33&#45;&gt;Node24</title>
<path fill="none" stroke="midnightblue" d="M875.03,-31.55C882.06,-34.04 888.84,-37.14 895,-41 936.03,-66.72 965.51,-117.5 979.28,-145.09"/>
<polygon fill="midnightblue" stroke="midnightblue" points="976.28,-146.94 983.78,-154.43 982.59,-143.9 976.28,-146.94"/>
</g>
<!-- Node34 -->
<g id="node34" class="node">
<title>Node34</title>
<g id="a_node34"><a xlink:href="../../dd/dd7/plot__points_8m.html#a07ca9f04874775e798496347c3e80b84" target="_top" xlink:title=" ">
<polygon fill="white" stroke="black" points="974.5,-31.5 974.5,-50.5 1003.5,-50.5 1003.5,-31.5 974.5,-31.5"/>
<text text-anchor="middle" x="989" y="-38.5" font-family="Helvetica,sans-Serif" font-size="10.00">L</text>
</a>
</g>
</g>
<!-- Node33&#45;&gt;Node34 -->
<g id="edge43" class="edge">
<title>Node33&#45;&gt;Node34</title>
<path fill="none" stroke="midnightblue" d="M894.03,-31.53C920.19,-34.17 946.34,-36.8 964.38,-38.62"/>
<polygon fill="midnightblue" stroke="midnightblue" points="964.19,-42.12 974.49,-39.64 964.89,-35.15 964.19,-42.12"/>
</g>
<!-- Node35&#45;&gt;Node16 -->
<g id="edge46" class="edge">
<title>Node35&#45;&gt;Node16</title>
<path fill="none" stroke="midnightblue" d="M878.32,-69.35C884.37,-72.15 890.04,-75.64 895,-80 931.44,-111.99 909.67,-139.45 931,-183 943.55,-208.61 962.09,-235.84 974.59,-253.11"/>
<polygon fill="midnightblue" stroke="midnightblue" points="971.77,-255.18 980.51,-261.17 977.41,-251.04 971.77,-255.18"/>
</g>
<!-- Node35&#45;&gt;Node34 -->
<g id="edge45" class="edge">
<title>Node35&#45;&gt;Node34</title>
<path fill="none" stroke="midnightblue" d="M878.08,-52.08C909.04,-48.96 942.34,-45.6 964.07,-43.41"/>
<polygon fill="midnightblue" stroke="midnightblue" points="964.71,-46.87 974.3,-42.38 964,-39.9 964.71,-46.87"/>
</g>
<!-- Node36&#45;&gt;Node25 -->
<g id="edge53" class="edge">
<title>Node36&#45;&gt;Node25</title>
<path fill="none" stroke="midnightblue" d="M453.18,-85.9C512.19,-83.31 599.99,-87.1 666,-123 688.2,-135.07 680.34,-153.99 702,-167 707.56,-170.34 713.61,-173.11 719.86,-175.4"/>
<polygon fill="midnightblue" stroke="midnightblue" points="719.23,-178.87 729.82,-178.61 721.38,-172.21 719.23,-178.87"/>
</g>
<!-- Node36&#45;&gt;Node26 -->
<g id="edge52" class="edge">
<title>Node36&#45;&gt;Node26</title>
<path fill="none" stroke="midnightblue" d="M445.66,-107C473.55,-114.32 506.66,-123.01 532.9,-129.9"/>
<polygon fill="midnightblue" stroke="midnightblue" points="532.04,-133.29 542.6,-132.45 533.82,-126.52 532.04,-133.29"/>
</g>
<!-- Node37 -->
<g id="node37" class="node">
<title>Node37</title>
<g id="a_node37"><a xlink:href="../../d2/d6e/namespaceMyBLAS.html#aa9866b1cc2044ed6a85756f487bfbf73" target="_top" xlink:title="Checks if two matrices have the same rank.">
<polygon fill="white" stroke="black" points="510.5,-56.5 510.5,-75.5 649.5,-75.5 649.5,-56.5 510.5,-56.5"/>
<text text-anchor="middle" x="580" y="-63.5" font-family="Helvetica,sans-Serif" font-size="10.00">MyBLAS::haveEqualRank</text>
</a>
</g>
</g>
<!-- Node36&#45;&gt;Node37 -->
<g id="edge51" class="edge">
<title>Node36&#45;&gt;Node37</title>
<path fill="none" stroke="midnightblue" d="M453.26,-83.16C468.3,-81.11 484.48,-78.9 500.05,-76.77"/>
<polygon fill="midnightblue" stroke="midnightblue" points="500.75,-80.21 510.19,-75.39 499.8,-73.28 500.75,-80.21"/>
</g>
<!-- Node38&#45;&gt;Node10 -->
<g id="edge56" class="edge">
<title>Node38&#45;&gt;Node10</title>
<path fill="none" stroke="midnightblue" d="M260.66,-265.58C267.81,-268.04 274.76,-271.12 281,-275 302.46,-288.33 296.37,-304.42 317,-319 319.67,-320.89 322.5,-322.65 325.43,-324.28"/>
<polygon fill="midnightblue" stroke="midnightblue" points="323.95,-327.46 334.45,-328.84 327.1,-321.21 323.95,-327.46"/>
</g>
<!-- Node38&#45;&gt;Node19 -->
<g id="edge57" class="edge">
<title>Node38&#45;&gt;Node19</title>
<path fill="none" stroke="midnightblue" d="M271.19,-258.32C290.36,-258.93 310.79,-259.58 329.04,-260.17"/>
<polygon fill="midnightblue" stroke="midnightblue" points="329.12,-263.67 339.22,-260.49 329.34,-256.67 329.12,-263.67"/>
</g>
<!-- Node38&#45;&gt;Node21 -->
<g id="edge58" class="edge">
<title>Node38&#45;&gt;Node21</title>
<path fill="none" stroke="midnightblue" d="M260.19,-246.5C267.49,-244.03 274.61,-240.92 281,-237 302.25,-223.97 296.11,-207.6 317,-194 320.83,-191.51 324.98,-189.32 329.28,-187.39"/>
<polygon fill="midnightblue" stroke="midnightblue" points="330.85,-190.54 338.86,-183.6 328.27,-184.03 330.85,-190.54"/>
</g>
<!-- Node38&#45;&gt;Node29 -->
<g id="edge59" class="edge">
<title>Node38&#45;&gt;Node29</title>
<path fill="none" stroke="midnightblue" d="M240.06,-265.52C253.16,-268.53 267.69,-271.89 281,-275 299.08,-279.22 318.89,-283.9 336.41,-288.06"/>
<polygon fill="midnightblue" stroke="midnightblue" points="335.9,-291.54 346.44,-290.44 337.52,-284.73 335.9,-291.54"/>
</g>
<!-- Node42 -->
<g id="node42" class="node">
<title>Node42</title>
<g id="a_node42"><a xlink:href="../../d7/de4/FileParser_8h.html#a784eb9bb658a54b0577db5cc2d73acae" target="_top" xlink:title="Checks if a file is writable.">
<polygon fill="white" stroke="black" points="346,-0.5 346,-19.5 429,-19.5 429,-0.5 346,-0.5"/>
<text text-anchor="middle" x="387.5" y="-7.5" font-family="Helvetica,sans-Serif" font-size="10.00">isFileWritable</text>
</a>
</g>
</g>
<!-- Node41&#45;&gt;Node42 -->
<g id="edge63" class="edge">
<title>Node41&#45;&gt;Node42</title>
<path fill="none" stroke="midnightblue" d="M230.39,-33.25C259.25,-28.95 302.25,-22.55 335.82,-17.55"/>
<polygon fill="midnightblue" stroke="midnightblue" points="336.53,-20.98 345.91,-16.05 335.5,-14.06 336.53,-20.98"/>
</g>
</g>
</svg>
