<?xml version="1.0" encoding="UTF-8" standalone="no"?>
<!DOCTYPE svg PUBLIC "-//W3C//DTD SVG 1.1//EN"
 "http://www.w3.org/Graphics/SVG/1.1/DTD/svg11.dtd">
<!-- Generated by graphviz version 2.43.0 (0)
 -->
<!-- Title: MyPhysics::Diffusion::Params::getM Pages: 1 -->
<svg width="395pt" height="280pt"
 viewBox="0.00 0.00 395.00 280.00" xmlns="http://www.w3.org/2000/svg" xmlns:xlink="http://www.w3.org/1999/xlink">
<g id="graph0" class="graph" transform="scale(1 1) rotate(0) translate(4 276)">
<title>MyPhysics::Diffusion::Params::getM</title>
<polygon fill="white" stroke="transparent" points="-4,4 -4,-276 391,-276 391,4 -4,4"/>
<!-- Node1 -->
<g id="node1" class="node">
<title>Node1</title>
<g id="a_node1"><a xlink:title="Get the number of mesh points in the x&#45;direction.">
<polygon fill="#bfbfbf" stroke="black" points="269,-115 269,-145 387,-145 387,-115 269,-115"/>
<text text-anchor="start" x="277" y="-133" font-family="Helvetica,sans-Serif" font-size="10.00">MyPhysics::Diffusion</text>
<text text-anchor="middle" x="328" y="-122" font-family="Helvetica,sans-Serif" font-size="10.00">::Params::getM</text>
</a>
</g>
</g>
<!-- Node2 -->
<g id="node2" class="node">
<title>Node2</title>
<g id="a_node2"><a xlink:href="../../d0/d40/classParser.html#a6ca8ca563d34a761bdf52e4953761181" target="_top" xlink:title="Builds the input matrices for the MyBLAS library from a JSON file.">
<polygon fill="white" stroke="black" points="119.5,-252.5 119.5,-271.5 226.5,-271.5 226.5,-252.5 119.5,-252.5"/>
<text text-anchor="middle" x="173" y="-259.5" font-family="Helvetica,sans-Serif" font-size="10.00">Parser::buildInputs</text>
</a>
</g>
</g>
<!-- Node1&#45;&gt;Node2 -->
<g id="edge1" class="edge">
<title>Node1&#45;&gt;Node2</title>
<path fill="none" stroke="midnightblue" d="M312.97,-153.86C296.77,-179.41 267.84,-219.46 233,-243 227.29,-246.86 220.75,-249.97 214.15,-252.48"/>
<polygon fill="midnightblue" stroke="midnightblue" points="316.07,-155.5 318.35,-145.16 310.11,-151.82 316.07,-155.5"/>
</g>
<!-- Node3 -->
<g id="node3" class="node">
<title>Node3</title>
<g id="a_node3"><a xlink:href="../../da/dff/structMyPhysics_1_1Diffusion_1_1Constants.html#aa4b27b31e865576eb1b6280ef04e3fd2" target="_top" xlink:title=" ">
<polygon fill="white" stroke="black" points="113,-203 113,-233 233,-233 233,-203 113,-203"/>
<text text-anchor="start" x="121" y="-221" font-family="Helvetica,sans-Serif" font-size="10.00">MyPhysics::Diffusion</text>
<text text-anchor="middle" x="173" y="-210" font-family="Helvetica,sans-Serif" font-size="10.00">::Constants::compute</text>
</a>
</g>
</g>
<!-- Node1&#45;&gt;Node3 -->
<g id="edge2" class="edge">
<title>Node1&#45;&gt;Node3</title>
<path fill="none" stroke="midnightblue" d="M298.4,-151.24C280.22,-164.22 255.87,-180.63 233,-193 226.54,-196.49 219.49,-199.84 212.58,-202.9"/>
<polygon fill="midnightblue" stroke="midnightblue" points="300.74,-153.87 306.8,-145.18 296.64,-148.2 300.74,-153.87"/>
</g>
<!-- Node5 -->
<g id="node5" class="node">
<title>Node5</title>
<g id="a_node5"><a xlink:href="../../de/db3/namespaceCompute.html#ae51427902ecf37b67388291493318fa3" target="_top" xlink:title="Fills the fluxes.">
<polygon fill="white" stroke="black" points="116.5,-164.5 116.5,-183.5 229.5,-183.5 229.5,-164.5 116.5,-164.5"/>
<text text-anchor="middle" x="173" y="-171.5" font-family="Helvetica,sans-Serif" font-size="10.00">Compute::fill_fluxes</text>
</a>
</g>
</g>
<!-- Node1&#45;&gt;Node5 -->
<g id="edge4" class="edge">
<title>Node1&#45;&gt;Node5</title>
<path fill="none" stroke="midnightblue" d="M264.92,-147.85C245.21,-153.52 224.18,-159.57 207.31,-164.42"/>
<polygon fill="midnightblue" stroke="midnightblue" points="266.13,-151.15 274.77,-145.02 264.2,-144.42 266.13,-151.15"/>
</g>
<!-- Node6 -->
<g id="node6" class="node">
<title>Node6</title>
<g id="a_node6"><a xlink:href="../../d0/d87/classMyPhysics_1_1Diffusion_1_1Matrix.html#af5145d5be9fc1a44756b6c47c29a3585" target="_top" xlink:title=" ">
<polygon fill="white" stroke="black" points="114,-115 114,-145 232,-145 232,-115 114,-115"/>
<text text-anchor="start" x="122" y="-133" font-family="Helvetica,sans-Serif" font-size="10.00">MyPhysics::Diffusion</text>
<text text-anchor="middle" x="173" y="-122" font-family="Helvetica,sans-Serif" font-size="10.00">::Matrix::Matrix</text>
</a>
</g>
</g>
<!-- Node1&#45;&gt;Node6 -->
<g id="edge5" class="edge">
<title>Node1&#45;&gt;Node6</title>
<path fill="none" stroke="midnightblue" d="M258.48,-130C249.68,-130 240.73,-130 232.12,-130"/>
<polygon fill="midnightblue" stroke="midnightblue" points="258.72,-133.5 268.72,-130 258.72,-126.5 258.72,-133.5"/>
</g>
<!-- Node7 -->
<g id="node7" class="node">
<title>Node7</title>
<g id="a_node7"><a xlink:href="../../da/d4c/DiffusionParamsTests_8cpp.html#abad684dab61e19170f0cf3ab370cdcb3" target="_top" xlink:title="Test for the parameterized constructor of DiffusionParams.">
<polygon fill="white" stroke="black" points="147,-76.5 147,-95.5 199,-95.5 199,-76.5 147,-76.5"/>
<text text-anchor="middle" x="173" y="-83.5" font-family="Helvetica,sans-Serif" font-size="10.00">TEST_F</text>
</a>
</g>
</g>
<!-- Node1&#45;&gt;Node7 -->
<g id="edge6" class="edge">
<title>Node1&#45;&gt;Node7</title>
<path fill="none" stroke="midnightblue" d="M265.07,-112.19C242.1,-105.58 217.31,-98.46 199.41,-93.31"/>
<polygon fill="midnightblue" stroke="midnightblue" points="264.2,-115.58 274.77,-114.98 266.13,-108.85 264.2,-115.58"/>
</g>
<!-- Node8 -->
<g id="node8" class="node">
<title>Node8</title>
<g id="a_node8"><a xlink:href="../../d4/dae/structInput.html#aec2f325fbad8e7ef5fab61624f5e2f5c" target="_top" xlink:title="Converts the input parameters to a JSON object.">
<polygon fill="white" stroke="black" points="132.5,-38.5 132.5,-57.5 213.5,-57.5 213.5,-38.5 132.5,-38.5"/>
<text text-anchor="middle" x="173" y="-45.5" font-family="Helvetica,sans-Serif" font-size="10.00">Input::toJSON</text>
</a>
</g>
</g>
<!-- Node1&#45;&gt;Node8 -->
<g id="edge7" class="edge">
<title>Node1&#45;&gt;Node8</title>
<path fill="none" stroke="midnightblue" d="M299.47,-108.55C281.36,-95.21 256.7,-78.48 233,-67 225.54,-63.39 217.23,-60.23 209.26,-57.58"/>
<polygon fill="midnightblue" stroke="midnightblue" points="297.7,-111.6 307.8,-114.79 301.89,-105.99 297.7,-111.6"/>
</g>
<!-- Node9 -->
<g id="node9" class="node">
<title>Node9</title>
<g id="a_node9"><a xlink:href="../../d6/d18/DiffusionMatrixTests_8cpp.html#a23a4433db54f1fe785875a1b450edbf6" target="_top" xlink:title=" ">
<polygon fill="white" stroke="black" points="134.5,-0.5 134.5,-19.5 211.5,-19.5 211.5,-0.5 134.5,-0.5"/>
<text text-anchor="middle" x="173" y="-7.5" font-family="Helvetica,sans-Serif" font-size="10.00">TYPED_TEST</text>
</a>
</g>
</g>
<!-- Node1&#45;&gt;Node9 -->
<g id="edge8" class="edge">
<title>Node1&#45;&gt;Node9</title>
<path fill="none" stroke="midnightblue" d="M310.78,-106.55C293.83,-83.71 265.26,-49.52 233,-29 226.55,-24.9 219.14,-21.61 211.8,-19"/>
<polygon fill="midnightblue" stroke="midnightblue" points="307.98,-108.66 316.68,-114.7 313.65,-104.55 307.98,-108.66"/>
</g>
<!-- Node4 -->
<g id="node4" class="node">
<title>Node4</title>
<g id="a_node4"><a xlink:href="../../d6/d18/DiffusionMatrixTests_8cpp.html#a0dd2397629ca84f6316f115c5ae38628" target="_top" xlink:title=" ">
<polygon fill="white" stroke="black" points="0,-208.5 0,-227.5 77,-227.5 77,-208.5 0,-208.5"/>
<text text-anchor="middle" x="38.5" y="-215.5" font-family="Helvetica,sans-Serif" font-size="10.00">TYPED_TEST</text>
</a>
</g>
</g>
<!-- Node3&#45;&gt;Node4 -->
<g id="edge3" class="edge">
<title>Node3&#45;&gt;Node4</title>
<path fill="none" stroke="midnightblue" d="M102.46,-218C93.71,-218 85.03,-218 77.05,-218"/>
<polygon fill="midnightblue" stroke="midnightblue" points="102.73,-221.5 112.73,-218 102.73,-214.5 102.73,-221.5"/>
</g>
</g>
</svg>
