<?xml version="1.0" encoding="UTF-8" standalone="no"?>
<!DOCTYPE svg PUBLIC "-//W3C//DTD SVG 1.1//EN"
 "http://www.w3.org/Graphics/SVG/1.1/DTD/svg11.dtd">
<!-- Generated by graphviz version 2.43.0 (0)
 -->
<!-- Title: MyPhysics::Diffusion::Params::getGamma Pages: 1 -->
<svg width="396pt" height="154pt"
 viewBox="0.00 0.00 396.00 154.00" xmlns="http://www.w3.org/2000/svg" xmlns:xlink="http://www.w3.org/1999/xlink">
<g id="graph0" class="graph" transform="scale(1 1) rotate(0) translate(4 150)">
<title>MyPhysics::Diffusion::Params::getGamma</title>
<polygon fill="white" stroke="transparent" points="-4,4 -4,-150 392,-150 392,4 -4,4"/>
<!-- Node1 -->
<g id="node1" class="node">
<title>Node1</title>
<g id="a_node1"><a xlink:title="Get the mesh spacing in the y&#45;direction.">
<polygon fill="#bfbfbf" stroke="black" points="269,-55 269,-85 388,-85 388,-55 269,-55"/>
<text text-anchor="start" x="277" y="-73" font-family="Helvetica,sans-Serif" font-size="10.00">MyPhysics::Diffusion</text>
<text text-anchor="middle" x="328.5" y="-62" font-family="Helvetica,sans-Serif" font-size="10.00">::Params::getGamma</text>
</a>
</g>
</g>
<!-- Node2 -->
<g id="node2" class="node">
<title>Node2</title>
<g id="a_node2"><a xlink:href="../../d0/d40/classParser.html#a6ca8ca563d34a761bdf52e4953761181" target="_top" xlink:title="Builds the input matrices for the MyBLAS library from a JSON file.">
<polygon fill="white" stroke="black" points="119.5,-126.5 119.5,-145.5 226.5,-145.5 226.5,-126.5 119.5,-126.5"/>
<text text-anchor="middle" x="173" y="-133.5" font-family="Helvetica,sans-Serif" font-size="10.00">Parser::buildInputs</text>
</a>
</g>
</g>
<!-- Node1&#45;&gt;Node2 -->
<g id="edge1" class="edge">
<title>Node1&#45;&gt;Node2</title>
<path fill="none" stroke="midnightblue" d="M290.73,-89.9C273.48,-98.81 252.47,-109.07 233,-117 224.63,-120.41 215.4,-123.62 206.77,-126.41"/>
<polygon fill="midnightblue" stroke="midnightblue" points="292.65,-92.84 299.89,-85.11 289.4,-86.64 292.65,-92.84"/>
</g>
<!-- Node3 -->
<g id="node3" class="node">
<title>Node3</title>
<g id="a_node3"><a xlink:href="../../da/dff/structMyPhysics_1_1Diffusion_1_1Constants.html#aa4b27b31e865576eb1b6280ef04e3fd2" target="_top" xlink:title=" ">
<polygon fill="white" stroke="black" points="113,-77 113,-107 233,-107 233,-77 113,-77"/>
<text text-anchor="start" x="121" y="-95" font-family="Helvetica,sans-Serif" font-size="10.00">MyPhysics::Diffusion</text>
<text text-anchor="middle" x="173" y="-84" font-family="Helvetica,sans-Serif" font-size="10.00">::Constants::compute</text>
</a>
</g>
</g>
<!-- Node1&#45;&gt;Node3 -->
<g id="edge2" class="edge">
<title>Node1&#45;&gt;Node3</title>
<path fill="none" stroke="midnightblue" d="M258.64,-79.87C250.08,-81.1 241.39,-82.34 233,-83.54"/>
<polygon fill="midnightblue" stroke="midnightblue" points="259.19,-83.33 268.59,-78.44 258.2,-76.4 259.19,-83.33"/>
</g>
<!-- Node5 -->
<g id="node5" class="node">
<title>Node5</title>
<g id="a_node5"><a xlink:href="../../da/d4c/DiffusionParamsTests_8cpp.html#abad684dab61e19170f0cf3ab370cdcb3" target="_top" xlink:title="Test for the parameterized constructor of DiffusionParams.">
<polygon fill="white" stroke="black" points="147,-38.5 147,-57.5 199,-57.5 199,-38.5 147,-38.5"/>
<text text-anchor="middle" x="173" y="-45.5" font-family="Helvetica,sans-Serif" font-size="10.00">TEST_F</text>
</a>
</g>
</g>
<!-- Node1&#45;&gt;Node5 -->
<g id="edge4" class="edge">
<title>Node1&#45;&gt;Node5</title>
<path fill="none" stroke="midnightblue" d="M258.63,-60.13C237.48,-57.1 215.53,-53.95 199.28,-51.62"/>
<polygon fill="midnightblue" stroke="midnightblue" points="258.2,-63.6 268.59,-61.56 259.19,-56.67 258.2,-63.6"/>
</g>
<!-- Node6 -->
<g id="node6" class="node">
<title>Node6</title>
<g id="a_node6"><a xlink:href="../../d4/dae/structInput.html#aec2f325fbad8e7ef5fab61624f5e2f5c" target="_top" xlink:title="Converts the input parameters to a JSON object.">
<polygon fill="white" stroke="black" points="132.5,-0.5 132.5,-19.5 213.5,-19.5 213.5,-0.5 132.5,-0.5"/>
<text text-anchor="middle" x="173" y="-7.5" font-family="Helvetica,sans-Serif" font-size="10.00">Input::toJSON</text>
</a>
</g>
</g>
<!-- Node1&#45;&gt;Node6 -->
<g id="edge5" class="edge">
<title>Node1&#45;&gt;Node6</title>
<path fill="none" stroke="midnightblue" d="M285.75,-50.84C269.44,-43.63 250.49,-35.59 233,-29 224.24,-25.7 214.62,-22.45 205.74,-19.59"/>
<polygon fill="midnightblue" stroke="midnightblue" points="284.46,-54.1 295.02,-54.97 287.31,-47.7 284.46,-54.1"/>
</g>
<!-- Node4 -->
<g id="node4" class="node">
<title>Node4</title>
<g id="a_node4"><a xlink:href="../../d6/d18/DiffusionMatrixTests_8cpp.html#a0dd2397629ca84f6316f115c5ae38628" target="_top" xlink:title=" ">
<polygon fill="white" stroke="black" points="0,-82.5 0,-101.5 77,-101.5 77,-82.5 0,-82.5"/>
<text text-anchor="middle" x="38.5" y="-89.5" font-family="Helvetica,sans-Serif" font-size="10.00">TYPED_TEST</text>
</a>
</g>
</g>
<!-- Node3&#45;&gt;Node4 -->
<g id="edge3" class="edge">
<title>Node3&#45;&gt;Node4</title>
<path fill="none" stroke="midnightblue" d="M102.46,-92C93.71,-92 85.03,-92 77.05,-92"/>
<polygon fill="midnightblue" stroke="midnightblue" points="102.73,-95.5 112.73,-92 102.73,-88.5 102.73,-95.5"/>
</g>
</g>
</svg>
