<?xml version="1.0" encoding="UTF-8" standalone="no"?>
<!DOCTYPE svg PUBLIC "-//W3C//DTD SVG 1.1//EN"
 "http://www.w3.org/Graphics/SVG/1.1/DTD/svg11.dtd">
<!-- Generated by graphviz version 2.43.0 (0)
 -->
<!-- Title: MyPhysics::Diffusion::Params::setA Pages: 1 -->
<svg width="433pt" height="88pt"
 viewBox="0.00 0.00 433.00 88.00" xmlns="http://www.w3.org/2000/svg" xmlns:xlink="http://www.w3.org/1999/xlink">
<g id="graph0" class="graph" transform="scale(1 1) rotate(0) translate(4 84)">
<title>MyPhysics::Diffusion::Params::setA</title>
<polygon fill="white" stroke="transparent" points="-4,4 -4,-84 429,-84 429,4 -4,4"/>
<!-- Node1 -->
<g id="node1" class="node">
<title>Node1</title>
<g id="a_node1"><a xlink:title="Set the length of the rectangular region in the x&#45;direction.">
<polygon fill="#bfbfbf" stroke="black" points="0,-19 0,-49 118,-49 118,-19 0,-19"/>
<text text-anchor="start" x="8" y="-37" font-family="Helvetica,sans-Serif" font-size="10.00">MyPhysics::Diffusion</text>
<text text-anchor="middle" x="59" y="-26" font-family="Helvetica,sans-Serif" font-size="10.00">::Params::setA</text>
</a>
</g>
</g>
<!-- Node2 -->
<g id="node2" class="node">
<title>Node2</title>
<g id="a_node2"><a xlink:href="../../d6/d0c/structMyPhysics_1_1Diffusion_1_1Params.html#ada030f689d2f12e9f23a1a186d830070" target="_top" xlink:title="Calculates the mesh spacings in the given direction.">
<polygon fill="white" stroke="black" points="154,-38.5 154,-79.5 294,-79.5 294,-38.5 154,-38.5"/>
<text text-anchor="start" x="162" y="-67.5" font-family="Helvetica,sans-Serif" font-size="10.00">MyPhysics::Diffusion</text>
<text text-anchor="start" x="162" y="-56.5" font-family="Helvetica,sans-Serif" font-size="10.00">::Params::compute_mesh</text>
<text text-anchor="middle" x="224" y="-45.5" font-family="Helvetica,sans-Serif" font-size="10.00">_spacing</text>
</a>
</g>
</g>
<!-- Node1&#45;&gt;Node2 -->
<g id="edge1" class="edge">
<title>Node1&#45;&gt;Node2</title>
<path fill="none" stroke="midnightblue" d="M118.39,-42.95C126.66,-44.22 135.28,-45.55 143.86,-46.86"/>
<polygon fill="midnightblue" stroke="midnightblue" points="143.49,-50.35 153.9,-48.4 144.55,-43.43 143.49,-50.35"/>
</g>
<!-- Node3 -->
<g id="node3" class="node">
<title>Node3</title>
<g id="a_node3"><a xlink:href="../../de/d4d/namespaceMyMath.html#a308f33828e533b4824ad79e67faee59b" target="_top" xlink:title="Check if a numeric value is finite.">
<polygon fill="white" stroke="black" points="176.5,-0.5 176.5,-19.5 271.5,-19.5 271.5,-0.5 176.5,-0.5"/>
<text text-anchor="middle" x="224" y="-7.5" font-family="Helvetica,sans-Serif" font-size="10.00">MyMath::isfinite</text>
</a>
</g>
</g>
<!-- Node1&#45;&gt;Node3 -->
<g id="edge2" class="edge">
<title>Node1&#45;&gt;Node3</title>
<path fill="none" stroke="midnightblue" d="M118.39,-25.4C133.97,-23.11 150.79,-20.63 166.28,-18.35"/>
<polygon fill="midnightblue" stroke="midnightblue" points="166.87,-21.8 176.25,-16.88 165.85,-14.88 166.87,-21.8"/>
</g>
<!-- Node4 -->
<g id="node4" class="node">
<title>Node4</title>
<g id="a_node4"><a xlink:href="../../de/d4d/namespaceMyMath.html#a52ed3b9bbd57490ed3dac1c78fe4832b" target="_top" xlink:title="Specialization for the __float128 type.">
<polygon fill="white" stroke="black" points="330,-0.5 330,-19.5 425,-19.5 425,-0.5 330,-0.5"/>
<text text-anchor="middle" x="377.5" y="-7.5" font-family="Helvetica,sans-Serif" font-size="10.00">MyMath::isfinite</text>
</a>
</g>
</g>
<!-- Node3&#45;&gt;Node4 -->
<g id="edge3" class="edge">
<title>Node3&#45;&gt;Node4</title>
<path fill="none" stroke="midnightblue" d="M271.69,-10C286.88,-10 303.91,-10 319.75,-10"/>
<polygon fill="midnightblue" stroke="midnightblue" points="319.96,-13.5 329.96,-10 319.96,-6.5 319.96,-13.5"/>
</g>
</g>
</svg>
