<?xml version="1.0" encoding="UTF-8" standalone="no"?>
<!DOCTYPE svg PUBLIC "-//W3C//DTD SVG 1.1//EN"
 "http://www.w3.org/Graphics/SVG/1.1/DTD/svg11.dtd">
<!-- Generated by graphviz version 2.43.0 (0)
 -->
<!-- Title: MyPhysics::Diffusion::Params::getB Pages: 1 -->
<svg width="243pt" height="104pt"
 viewBox="0.00 0.00 243.00 104.00" xmlns="http://www.w3.org/2000/svg" xmlns:xlink="http://www.w3.org/1999/xlink">
<g id="graph0" class="graph" transform="scale(1 1) rotate(0) translate(4 100)">
<title>MyPhysics::Diffusion::Params::getB</title>
<polygon fill="white" stroke="transparent" points="-4,4 -4,-100 239,-100 239,4 -4,4"/>
<!-- Node1 -->
<g id="node1" class="node">
<title>Node1</title>
<g id="a_node1"><a xlink:title="Get the length of the rectangular region in the y&#45;direction.">
<polygon fill="#bfbfbf" stroke="black" points="117,-33 117,-63 235,-63 235,-33 117,-33"/>
<text text-anchor="start" x="125" y="-51" font-family="Helvetica,sans-Serif" font-size="10.00">MyPhysics::Diffusion</text>
<text text-anchor="middle" x="176" y="-40" font-family="Helvetica,sans-Serif" font-size="10.00">::Params::getB</text>
</a>
</g>
</g>
<!-- Node2 -->
<g id="node2" class="node">
<title>Node2</title>
<g id="a_node2"><a xlink:href="../../da/d4c/DiffusionParamsTests_8cpp.html#abad684dab61e19170f0cf3ab370cdcb3" target="_top" xlink:title="Test for the parameterized constructor of DiffusionParams.">
<polygon fill="white" stroke="black" points="14.5,-76.5 14.5,-95.5 66.5,-95.5 66.5,-76.5 14.5,-76.5"/>
<text text-anchor="middle" x="40.5" y="-83.5" font-family="Helvetica,sans-Serif" font-size="10.00">TEST_F</text>
</a>
</g>
</g>
<!-- Node1&#45;&gt;Node2 -->
<g id="edge1" class="edge">
<title>Node1&#45;&gt;Node2</title>
<path fill="none" stroke="midnightblue" d="M112.28,-65.85C96.18,-70.44 79.76,-75.11 66.79,-78.8"/>
<polygon fill="midnightblue" stroke="midnightblue" points="113.58,-69.12 122.24,-63.02 111.66,-62.39 113.58,-69.12"/>
</g>
<!-- Node3 -->
<g id="node3" class="node">
<title>Node3</title>
<g id="a_node3"><a xlink:href="../../d4/dae/structInput.html#aec2f325fbad8e7ef5fab61624f5e2f5c" target="_top" xlink:title="Converts the input parameters to a JSON object.">
<polygon fill="white" stroke="black" points="0,-38.5 0,-57.5 81,-57.5 81,-38.5 0,-38.5"/>
<text text-anchor="middle" x="40.5" y="-45.5" font-family="Helvetica,sans-Serif" font-size="10.00">Input::toJSON</text>
</a>
</g>
</g>
<!-- Node1&#45;&gt;Node3 -->
<g id="edge2" class="edge">
<title>Node1&#45;&gt;Node3</title>
<path fill="none" stroke="midnightblue" d="M106.58,-48C97.83,-48 89.12,-48 81.05,-48"/>
<polygon fill="midnightblue" stroke="midnightblue" points="106.83,-51.5 116.83,-48 106.83,-44.5 106.83,-51.5"/>
</g>
<!-- Node4 -->
<g id="node4" class="node">
<title>Node4</title>
<g id="a_node4"><a xlink:href="../../d6/d18/DiffusionMatrixTests_8cpp.html#a23a4433db54f1fe785875a1b450edbf6" target="_top" xlink:title=" ">
<polygon fill="white" stroke="black" points="2,-0.5 2,-19.5 79,-19.5 79,-0.5 2,-0.5"/>
<text text-anchor="middle" x="40.5" y="-7.5" font-family="Helvetica,sans-Serif" font-size="10.00">TYPED_TEST</text>
</a>
</g>
</g>
<!-- Node1&#45;&gt;Node4 -->
<g id="edge3" class="edge">
<title>Node1&#45;&gt;Node4</title>
<path fill="none" stroke="midnightblue" d="M112.45,-30.2C99.56,-26.53 86.45,-22.8 75.07,-19.56"/>
<polygon fill="midnightblue" stroke="midnightblue" points="111.66,-33.61 122.24,-32.98 113.58,-26.88 111.66,-33.61"/>
</g>
</g>
</svg>
