<?xml version="1.0" encoding="UTF-8" standalone="no"?>
<!DOCTYPE svg PUBLIC "-//W3C//DTD SVG 1.1//EN"
 "http://www.w3.org/Graphics/SVG/1.1/DTD/svg11.dtd">
<!-- Generated by graphviz version 2.43.0 (0)
 -->
<!-- Title: MyPhysics::Diffusion::Params::compute_mesh_spacing Pages: 1 -->
<svg width="456pt" height="186pt"
 viewBox="0.00 0.00 456.00 186.00" xmlns="http://www.w3.org/2000/svg" xmlns:xlink="http://www.w3.org/1999/xlink">
<g id="graph0" class="graph" transform="scale(1 1) rotate(0) translate(4 182)">
<title>MyPhysics::Diffusion::Params::compute_mesh_spacing</title>
<polygon fill="white" stroke="transparent" points="-4,4 -4,-182 452,-182 452,4 -4,4"/>
<!-- Node1 -->
<g id="node1" class="node">
<title>Node1</title>
<g id="a_node1"><a xlink:title="Calculates the mesh spacings in the given direction.">
<polygon fill="#bfbfbf" stroke="black" points="308,-68 308,-109 448,-109 448,-68 308,-68"/>
<text text-anchor="start" x="316" y="-97" font-family="Helvetica,sans-Serif" font-size="10.00">MyPhysics::Diffusion</text>
<text text-anchor="start" x="316" y="-86" font-family="Helvetica,sans-Serif" font-size="10.00">::Params::compute_mesh</text>
<text text-anchor="middle" x="378" y="-75" font-family="Helvetica,sans-Serif" font-size="10.00">_spacing</text>
</a>
</g>
</g>
<!-- Node2 -->
<g id="node2" class="node">
<title>Node2</title>
<g id="a_node2"><a xlink:href="../../d6/d0c/structMyPhysics_1_1Diffusion_1_1Params.html#a30309309eca48155dfd1542c8bbfd28d" target="_top" xlink:title="Set the length of the rectangular region in the x&#45;direction.">
<polygon fill="white" stroke="black" points="154,-49.5 154,-79.5 272,-79.5 272,-49.5 154,-49.5"/>
<text text-anchor="start" x="162" y="-67.5" font-family="Helvetica,sans-Serif" font-size="10.00">MyPhysics::Diffusion</text>
<text text-anchor="middle" x="213" y="-56.5" font-family="Helvetica,sans-Serif" font-size="10.00">::Params::setA</text>
</a>
</g>
</g>
<!-- Node1&#45;&gt;Node2 -->
<g id="edge1" class="edge">
<title>Node1&#45;&gt;Node2</title>
<path fill="none" stroke="midnightblue" d="M297.78,-76.84C289.15,-75.57 280.49,-74.29 272.18,-73.07"/>
<polygon fill="midnightblue" stroke="midnightblue" points="297.47,-80.33 307.87,-78.32 298.49,-73.4 297.47,-80.33"/>
</g>
<!-- Node5 -->
<g id="node5" class="node">
<title>Node5</title>
<g id="a_node5"><a xlink:href="../../d6/d0c/structMyPhysics_1_1Diffusion_1_1Params.html#a428a7ef7a3983226d32e4510331f2a3e" target="_top" xlink:title="Set the length of the rectangular region in the y&#45;direction.">
<polygon fill="white" stroke="black" points="154,-0.5 154,-30.5 272,-30.5 272,-0.5 154,-0.5"/>
<text text-anchor="start" x="162" y="-18.5" font-family="Helvetica,sans-Serif" font-size="10.00">MyPhysics::Diffusion</text>
<text text-anchor="middle" x="213" y="-7.5" font-family="Helvetica,sans-Serif" font-size="10.00">::Params::setB</text>
</a>
</g>
</g>
<!-- Node1&#45;&gt;Node5 -->
<g id="edge4" class="edge">
<title>Node1&#45;&gt;Node5</title>
<path fill="none" stroke="midnightblue" d="M324.91,-63.64C308.09,-55.76 289.32,-47.12 272,-39.5 265.32,-36.56 258.16,-33.51 251.23,-30.62"/>
<polygon fill="midnightblue" stroke="midnightblue" points="323.49,-66.84 334.03,-67.92 326.47,-60.5 323.49,-66.84"/>
</g>
<!-- Node6 -->
<g id="node6" class="node">
<title>Node6</title>
<g id="a_node6"><a xlink:href="../../d6/d0c/structMyPhysics_1_1Diffusion_1_1Params.html#a7a49cd13f86fab98f174cc93b1ecf346" target="_top" xlink:title="Set the number of mesh points in the x&#45;direction.">
<polygon fill="white" stroke="black" points="154,-147.5 154,-177.5 272,-177.5 272,-147.5 154,-147.5"/>
<text text-anchor="start" x="162" y="-165.5" font-family="Helvetica,sans-Serif" font-size="10.00">MyPhysics::Diffusion</text>
<text text-anchor="middle" x="213" y="-154.5" font-family="Helvetica,sans-Serif" font-size="10.00">::Params::setM</text>
</a>
</g>
</g>
<!-- Node1&#45;&gt;Node6 -->
<g id="edge7" class="edge">
<title>Node1&#45;&gt;Node6</title>
<path fill="none" stroke="midnightblue" d="M325.85,-113.51C308.81,-121.67 289.67,-130.64 272,-138.5 265.33,-141.47 258.18,-144.52 251.25,-147.42"/>
<polygon fill="midnightblue" stroke="midnightblue" points="327.58,-116.56 335.08,-109.08 324.55,-110.25 327.58,-116.56"/>
</g>
<!-- Node7 -->
<g id="node7" class="node">
<title>Node7</title>
<g id="a_node7"><a xlink:href="../../d6/d0c/structMyPhysics_1_1Diffusion_1_1Params.html#adf8c9555cf2ef3de20302fda532ea5dd" target="_top" xlink:title="Set the number of mesh points in the y&#45;direction.">
<polygon fill="white" stroke="black" points="154,-98.5 154,-128.5 272,-128.5 272,-98.5 154,-98.5"/>
<text text-anchor="start" x="162" y="-116.5" font-family="Helvetica,sans-Serif" font-size="10.00">MyPhysics::Diffusion</text>
<text text-anchor="middle" x="213" y="-105.5" font-family="Helvetica,sans-Serif" font-size="10.00">::Params::setN</text>
</a>
</g>
</g>
<!-- Node1&#45;&gt;Node7 -->
<g id="edge10" class="edge">
<title>Node1&#45;&gt;Node7</title>
<path fill="none" stroke="midnightblue" d="M297.78,-100.65C289.15,-101.97 280.49,-103.3 272.18,-104.58"/>
<polygon fill="midnightblue" stroke="midnightblue" points="298.52,-104.08 307.87,-99.1 297.46,-97.16 298.52,-104.08"/>
</g>
<!-- Node3 -->
<g id="node3" class="node">
<title>Node3</title>
<g id="a_node3"><a xlink:href="../../d6/d0c/structMyPhysics_1_1Diffusion_1_1Params.html#ae42eef29388398a4c48371304b230636" target="_top" xlink:title="Constructor with initialization of parameters.">
<polygon fill="white" stroke="black" points="0,-96.5 0,-126.5 118,-126.5 118,-96.5 0,-96.5"/>
<text text-anchor="start" x="8" y="-114.5" font-family="Helvetica,sans-Serif" font-size="10.00">MyPhysics::Diffusion</text>
<text text-anchor="middle" x="59" y="-103.5" font-family="Helvetica,sans-Serif" font-size="10.00">::Params::Params</text>
</a>
</g>
</g>
<!-- Node2&#45;&gt;Node3 -->
<g id="edge2" class="edge">
<title>Node2&#45;&gt;Node3</title>
<path fill="none" stroke="midnightblue" d="M153.83,-82.49C138.89,-87.11 122.97,-92.03 108.57,-96.48"/>
<polygon fill="midnightblue" stroke="midnightblue" points="154.97,-85.8 163.49,-79.5 152.9,-79.11 154.97,-85.8"/>
</g>
<!-- Node4 -->
<g id="node4" class="node">
<title>Node4</title>
<g id="a_node4"><a xlink:href="../../d6/d18/DiffusionMatrixTests_8cpp.html#a23a4433db54f1fe785875a1b450edbf6" target="_top" xlink:title="Test case for testing the constructor of the DiffusionMatrix class. It verifies if the constructor pr...">
<polygon fill="white" stroke="black" points="20.5,-57 20.5,-76 97.5,-76 97.5,-57 20.5,-57"/>
<text text-anchor="middle" x="59" y="-64" font-family="Helvetica,sans-Serif" font-size="10.00">TYPED_TEST</text>
</a>
</g>
</g>
<!-- Node2&#45;&gt;Node4 -->
<g id="edge3" class="edge">
<title>Node2&#45;&gt;Node4</title>
<path fill="none" stroke="midnightblue" d="M143.44,-65.4C127.74,-65.61 111.61,-65.82 97.77,-66"/>
<polygon fill="midnightblue" stroke="midnightblue" points="143.71,-68.9 153.67,-65.27 143.62,-61.9 143.71,-68.9"/>
</g>
<!-- Node5&#45;&gt;Node3 -->
<g id="edge5" class="edge">
<title>Node5&#45;&gt;Node3</title>
<path fill="none" stroke="midnightblue" d="M159.63,-35.59C157.68,-36.83 155.8,-38.13 154,-39.5 133.33,-55.2 138.44,-69.5 118,-85.5 112.7,-89.65 106.63,-93.3 100.46,-96.45"/>
<polygon fill="midnightblue" stroke="midnightblue" points="161.54,-38.54 168.5,-30.56 158.08,-32.45 161.54,-38.54"/>
</g>
<!-- Node5&#45;&gt;Node4 -->
<g id="edge6" class="edge">
<title>Node5&#45;&gt;Node4</title>
<path fill="none" stroke="midnightblue" d="M157.46,-33.8C134.2,-41.6 108.03,-50.38 88.67,-56.88"/>
<polygon fill="midnightblue" stroke="midnightblue" points="158.85,-37.03 167.22,-30.53 156.62,-30.39 158.85,-37.03"/>
</g>
<!-- Node6&#45;&gt;Node3 -->
<g id="edge8" class="edge">
<title>Node6&#45;&gt;Node3</title>
<path fill="none" stroke="midnightblue" d="M157.28,-144.14C140.03,-138.35 121.19,-132.03 104.73,-126.51"/>
<polygon fill="midnightblue" stroke="midnightblue" points="156.62,-147.61 167.22,-147.47 158.85,-140.97 156.62,-147.61"/>
</g>
<!-- Node6&#45;&gt;Node4 -->
<g id="edge9" class="edge">
<title>Node6&#45;&gt;Node4</title>
<path fill="none" stroke="midnightblue" d="M158.88,-142.1C157.19,-140.96 155.56,-139.76 154,-138.5 132.12,-120.85 140.4,-103.48 118,-86.5 111.97,-81.93 104.83,-78.36 97.65,-75.58"/>
<polygon fill="midnightblue" stroke="midnightblue" points="157.33,-145.25 167.71,-147.38 160.92,-139.24 157.33,-145.25"/>
</g>
<!-- Node7&#45;&gt;Node3 -->
<g id="edge11" class="edge">
<title>Node7&#45;&gt;Node3</title>
<path fill="none" stroke="midnightblue" d="M143.46,-112.6C135.01,-112.49 126.45,-112.37 118.18,-112.27"/>
<polygon fill="midnightblue" stroke="midnightblue" points="143.62,-116.1 153.67,-112.73 143.71,-109.1 143.62,-116.1"/>
</g>
<!-- Node7&#45;&gt;Node4 -->
<g id="edge12" class="edge">
<title>Node7&#45;&gt;Node4</title>
<path fill="none" stroke="midnightblue" d="M153.81,-95.51C132.38,-88.88 108.95,-81.64 90.86,-76.04"/>
<polygon fill="midnightblue" stroke="midnightblue" points="152.9,-98.89 163.49,-98.5 154.97,-92.2 152.9,-98.89"/>
</g>
</g>
</svg>
