<?xml version="1.0" encoding="UTF-8" standalone="no"?>
<!DOCTYPE svg PUBLIC "-//W3C//DTD SVG 1.1//EN"
 "http://www.w3.org/Graphics/SVG/1.1/DTD/svg11.dtd">
<!-- Generated by graphviz version 2.43.0 (0)
 -->
<!-- Title: src/utils/math/blas/vector/MatrixVectorExpression.h Pages: 1 -->
<svg width="478pt" height="374pt"
 viewBox="0.00 0.00 477.50 374.00" xmlns="http://www.w3.org/2000/svg" xmlns:xlink="http://www.w3.org/1999/xlink">
<g id="graph0" class="graph" transform="scale(1 1) rotate(0) translate(4 370)">
<title>src/utils/math/blas/vector/MatrixVectorExpression.h</title>
<polygon fill="white" stroke="transparent" points="-4,4 -4,-370 473.5,-370 473.5,4 -4,4"/>
<!-- Node1 -->
<g id="node1" class="node">
<title>Node1</title>
<g id="a_node1"><a xlink:title="Header file for the MatrixVectorExpression class.">
<polygon fill="#bfbfbf" stroke="black" points="45,-335.5 45,-365.5 223,-365.5 223,-335.5 45,-335.5"/>
<text text-anchor="start" x="53" y="-353.5" font-family="Helvetica,sans-Serif" font-size="10.00">src/utils/math/blas</text>
<text text-anchor="middle" x="134" y="-342.5" font-family="Helvetica,sans-Serif" font-size="10.00">/vector/MatrixVectorExpression.h</text>
</a>
</g>
</g>
<!-- Node2 -->
<g id="node2" class="node">
<title>Node2</title>
<g id="a_node2"><a xlink:href="../../db/d6e/project_2project2_2Compute_8h.html" target="_top" xlink:title="Compute methods for project milestone 1 in NE591&#45;008.">
<polygon fill="white" stroke="black" points="0,-201.5 0,-231.5 110,-231.5 110,-201.5 0,-201.5"/>
<text text-anchor="start" x="8" y="-219.5" font-family="Helvetica,sans-Serif" font-size="10.00">src/project/project2</text>
<text text-anchor="middle" x="55" y="-208.5" font-family="Helvetica,sans-Serif" font-size="10.00">/Compute.h</text>
</a>
</g>
</g>
<!-- Node1&#45;&gt;Node2 -->
<g id="edge1" class="edge">
<title>Node1&#45;&gt;Node2</title>
<path fill="none" stroke="midnightblue" d="M120.22,-326.48C103.82,-299.07 76.96,-254.19 63.39,-231.52"/>
<polygon fill="midnightblue" stroke="midnightblue" points="117.41,-328.59 125.55,-335.37 123.41,-325 117.41,-328.59"/>
</g>
<!-- Node6 -->
<g id="node6" class="node">
<title>Node6</title>
<g id="a_node6"><a xlink:href="../../d8/d5a/LazyMatrix_8h.html" target="_top" xlink:title="Header file for the LazyMatrix class.">
<polygon fill="white" stroke="black" points="154,-268.5 154,-298.5 272,-298.5 272,-268.5 154,-268.5"/>
<text text-anchor="start" x="162" y="-286.5" font-family="Helvetica,sans-Serif" font-size="10.00">src/utils/math/blas</text>
<text text-anchor="middle" x="213" y="-275.5" font-family="Helvetica,sans-Serif" font-size="10.00">/matrix/LazyMatrix.h</text>
</a>
</g>
</g>
<!-- Node1&#45;&gt;Node6 -->
<g id="edge6" class="edge">
<title>Node1&#45;&gt;Node6</title>
<path fill="none" stroke="midnightblue" d="M159.06,-328.88C171.06,-319.01 185.13,-307.43 195.89,-298.58"/>
<polygon fill="midnightblue" stroke="midnightblue" points="156.64,-326.34 151.14,-335.4 161.09,-331.75 156.64,-326.34"/>
</g>
<!-- Node3 -->
<g id="node3" class="node">
<title>Node3</title>
<g id="a_node3"><a xlink:href="../../d6/da7/project_2project2_2Parser_8h.html" target="_top" xlink:title="This file contains the Parser class which is responsible for parsing command line arguments and valid...">
<polygon fill="white" stroke="black" points="0,-134.5 0,-164.5 110,-164.5 110,-134.5 0,-134.5"/>
<text text-anchor="start" x="8" y="-152.5" font-family="Helvetica,sans-Serif" font-size="10.00">src/project/project2</text>
<text text-anchor="middle" x="55" y="-141.5" font-family="Helvetica,sans-Serif" font-size="10.00">/Parser.h</text>
</a>
</g>
</g>
<!-- Node2&#45;&gt;Node3 -->
<g id="edge2" class="edge">
<title>Node2&#45;&gt;Node3</title>
<path fill="none" stroke="midnightblue" d="M55,-191.11C55,-182.15 55,-172.32 55,-164.58"/>
<polygon fill="midnightblue" stroke="midnightblue" points="51.5,-191.4 55,-201.4 58.5,-191.4 51.5,-191.4"/>
</g>
<!-- Node4 -->
<g id="node4" class="node">
<title>Node4</title>
<g id="a_node4"><a xlink:href="../../dc/d79/project2_8h.html" target="_top" xlink:title=" ">
<polygon fill="white" stroke="black" points="83,-67.5 83,-97.5 193,-97.5 193,-67.5 83,-67.5"/>
<text text-anchor="start" x="91" y="-85.5" font-family="Helvetica,sans-Serif" font-size="10.00">src/project/project2</text>
<text text-anchor="middle" x="138" y="-74.5" font-family="Helvetica,sans-Serif" font-size="10.00">/project2.h</text>
</a>
</g>
</g>
<!-- Node2&#45;&gt;Node4 -->
<g id="edge5" class="edge">
<title>Node2&#45;&gt;Node4</title>
<path fill="none" stroke="midnightblue" d="M88.74,-195.51C99.89,-187.35 111.38,-177 119,-165 132.32,-144.03 136.32,-114.71 137.51,-97.55"/>
<polygon fill="midnightblue" stroke="midnightblue" points="86.59,-192.74 80.35,-201.3 90.57,-198.5 86.59,-192.74"/>
</g>
<!-- Node3&#45;&gt;Node4 -->
<g id="edge3" class="edge">
<title>Node3&#45;&gt;Node4</title>
<path fill="none" stroke="midnightblue" d="M80.96,-128.17C93.65,-118.23 108.61,-106.51 120.03,-97.58"/>
<polygon fill="midnightblue" stroke="midnightblue" points="78.72,-125.47 73.01,-134.4 83.04,-130.99 78.72,-125.47"/>
</g>
<!-- Node5 -->
<g id="node5" class="node">
<title>Node5</title>
<g id="a_node5"><a xlink:href="../../dd/d48/project_2project2_2main_8cpp.html" target="_top" xlink:title=" ">
<polygon fill="white" stroke="black" points="83,-0.5 83,-30.5 193,-30.5 193,-0.5 83,-0.5"/>
<text text-anchor="start" x="91" y="-18.5" font-family="Helvetica,sans-Serif" font-size="10.00">src/project/project2</text>
<text text-anchor="middle" x="138" y="-7.5" font-family="Helvetica,sans-Serif" font-size="10.00">/main.cpp</text>
</a>
</g>
</g>
<!-- Node4&#45;&gt;Node5 -->
<g id="edge4" class="edge">
<title>Node4&#45;&gt;Node5</title>
<path fill="none" stroke="midnightblue" d="M138,-57.11C138,-48.15 138,-38.32 138,-30.58"/>
<polygon fill="midnightblue" stroke="midnightblue" points="134.5,-57.4 138,-67.4 141.5,-57.4 134.5,-57.4"/>
</g>
<!-- Node7 -->
<g id="node7" class="node">
<title>Node7</title>
<g id="a_node7"><a xlink:href="../../d6/dc6/LazyMatrixTests_8cpp.html" target="_top" xlink:title=" ">
<polygon fill="white" stroke="black" points="128.5,-201.5 128.5,-231.5 297.5,-231.5 297.5,-201.5 128.5,-201.5"/>
<text text-anchor="start" x="136.5" y="-219.5" font-family="Helvetica,sans-Serif" font-size="10.00">src/utils/math/blas</text>
<text text-anchor="middle" x="213" y="-208.5" font-family="Helvetica,sans-Serif" font-size="10.00">/tests/lazy/LazyMatrixTests.cpp</text>
</a>
</g>
</g>
<!-- Node6&#45;&gt;Node7 -->
<g id="edge7" class="edge">
<title>Node6&#45;&gt;Node7</title>
<path fill="none" stroke="midnightblue" d="M213,-258.11C213,-249.15 213,-239.32 213,-231.58"/>
<polygon fill="midnightblue" stroke="midnightblue" points="209.5,-258.4 213,-268.4 216.5,-258.4 209.5,-258.4"/>
</g>
<!-- Node8 -->
<g id="node8" class="node">
<title>Node8</title>
<g id="a_node8"><a xlink:href="../../dd/dfb/DiffusionMatrix_8h.html" target="_top" xlink:title="This file defines the Matrix class within the MyPhysics::Diffusion namespace. The Matrix class is a t...">
<polygon fill="white" stroke="black" points="316,-201.5 316,-231.5 456,-231.5 456,-201.5 316,-201.5"/>
<text text-anchor="start" x="324" y="-219.5" font-family="Helvetica,sans-Serif" font-size="10.00">src/utils/physics/diffusion</text>
<text text-anchor="middle" x="386" y="-208.5" font-family="Helvetica,sans-Serif" font-size="10.00">/DiffusionMatrix.h</text>
</a>
</g>
</g>
<!-- Node6&#45;&gt;Node8 -->
<g id="edge8" class="edge">
<title>Node6&#45;&gt;Node8</title>
<path fill="none" stroke="midnightblue" d="M260.06,-264.82C287.87,-254.37 322.59,-241.32 348.53,-231.58"/>
<polygon fill="midnightblue" stroke="midnightblue" points="258.67,-261.6 250.54,-268.4 261.13,-268.16 258.67,-261.6"/>
</g>
<!-- Node9 -->
<g id="node9" class="node">
<title>Node9</title>
<g id="a_node9"><a xlink:href="../../dd/df8/project_2project2_2InputsOutputs_8h.html" target="_top" xlink:title="This file contains the input and output definitions for this project.">
<polygon fill="white" stroke="black" points="170,-134.5 170,-164.5 280,-164.5 280,-134.5 170,-134.5"/>
<text text-anchor="start" x="178" y="-152.5" font-family="Helvetica,sans-Serif" font-size="10.00">src/project/project2</text>
<text text-anchor="middle" x="225" y="-141.5" font-family="Helvetica,sans-Serif" font-size="10.00">/InputsOutputs.h</text>
</a>
</g>
</g>
<!-- Node8&#45;&gt;Node9 -->
<g id="edge9" class="edge">
<title>Node8&#45;&gt;Node9</title>
<path fill="none" stroke="midnightblue" d="M341.52,-197.54C315.76,-187.14 283.8,-174.24 259.87,-164.58"/>
<polygon fill="midnightblue" stroke="midnightblue" points="340.48,-200.9 351.07,-201.4 343.1,-194.41 340.48,-200.9"/>
</g>
<!-- Node10 -->
<g id="node10" class="node">
<title>Node10</title>
<g id="a_node10"><a xlink:href="../../d6/d18/DiffusionMatrixTests_8cpp.html" target="_top" xlink:title="This file contains test cases for the DiffusionMatrix class and related functions.">
<polygon fill="white" stroke="black" points="302.5,-134.5 302.5,-164.5 469.5,-164.5 469.5,-134.5 302.5,-134.5"/>
<text text-anchor="start" x="310.5" y="-152.5" font-family="Helvetica,sans-Serif" font-size="10.00">src/utils/physics/diffusion</text>
<text text-anchor="middle" x="386" y="-141.5" font-family="Helvetica,sans-Serif" font-size="10.00">/tests/DiffusionMatrixTests.cpp</text>
</a>
</g>
</g>
<!-- Node8&#45;&gt;Node10 -->
<g id="edge11" class="edge">
<title>Node8&#45;&gt;Node10</title>
<path fill="none" stroke="midnightblue" d="M386,-191.11C386,-182.15 386,-172.32 386,-164.58"/>
<polygon fill="midnightblue" stroke="midnightblue" points="382.5,-191.4 386,-201.4 389.5,-191.4 382.5,-191.4"/>
</g>
<!-- Node9&#45;&gt;Node4 -->
<g id="edge10" class="edge">
<title>Node9&#45;&gt;Node4</title>
<path fill="none" stroke="midnightblue" d="M197.79,-128.17C184.48,-118.23 168.8,-106.51 156.84,-97.58"/>
<polygon fill="midnightblue" stroke="midnightblue" points="196.02,-131.21 206.12,-134.4 200.21,-125.61 196.02,-131.21"/>
</g>
</g>
</svg>
