<?xml version="1.0" encoding="UTF-8" standalone="no"?>
<!DOCTYPE svg PUBLIC "-//W3C//DTD SVG 1.1//EN"
 "http://www.w3.org/Graphics/SVG/1.1/DTD/svg11.dtd">
<!-- Generated by graphviz version 2.43.0 (0)
 -->
<!-- Title: MyBLAS::Matrix::getCols Pages: 1 -->
<!--zoomable 926 -->
<svg id="main" version="1.1" xmlns="http://www.w3.org/2000/svg" xmlns:xlink="http://www.w3.org/1999/xlink" xml:space="preserve" onload="init(evt)">
<style type="text/css"><![CDATA[
.edge:hover path { stroke: red; }
.edge:hover polygon { stroke: red; fill: red; }
]]></style>
<script type="text/javascript"><![CDATA[
var edges = document.getElementsByTagName('g');
if (edges && edges.length) {
  for (var i=0;i<edges.length;i++) {
    if (edges[i].id.substr(0,4)=='edge') {
      edges[i].setAttribute('class','edge');
    }
  }
}
]]></script>
        <defs>
                <circle id="rim" cx="0" cy="0" r="7"/>
                <circle id="rim2" cx="0" cy="0" r="3.5"/>
                <g id="zoomPlus">
                        <use xlink:href="#rim" fill="#404040">
                                <set attributeName="fill" to="#808080" begin="zoomplus.mouseover" end="zoomplus.mouseout"/>
                        </use>
                        <path d="M-4,0h8M0,-4v8" fill="none" stroke="white" stroke-width="1.5" pointer-events="none"/>
                </g>
                <g id="zoomMin">
                        <use xlink:href="#rim" fill="#404040">
                                <set attributeName="fill" to="#808080" begin="zoomminus.mouseover" end="zoomminus.mouseout"/>
                        </use>
                        <path d="M-4,0h8" fill="none" stroke="white" stroke-width="1.5" pointer-events="none"/>
                </g>
                <g id="dirArrow">
                        <path fill="none" stroke="white" stroke-width="1.5" d="M0,-3.0v7 M-2.5,-0.5L0,-3.0L2.5,-0.5"/>
                </g>
               <g id="resetDef">
                       <use xlink:href="#rim2" fill="#404040">
                               <set attributeName="fill" to="#808080" begin="reset.mouseover" end="reset.mouseout"/>
                       </use>
               </g>
        </defs>

<script type="text/javascript">
var viewWidth = 921;
var viewHeight = 926;
var sectionId = 'dynsection-2';
</script>
<script xlink:href="../../svgpan.js"/>
<svg id="graph" class="graph">
<g id="viewport">
<title>MyBLAS::Matrix::getCols</title>
<polygon fill="white" stroke="transparent" points="-4,4 -4,-922 917,-922 917,4 -4,4"/>
<!-- Node1 -->
<g id="node1" class="node">
<title>Node1</title>
<g id="a_node1"><a xlink:title="Getter for the number of columns in the matrix.">
<polygon fill="#bfbfbf" stroke="black" points="776,-487.5 776,-506.5 913,-506.5 913,-487.5 776,-487.5"/>
<text text-anchor="middle" x="844.5" y="-494.5" font-family="Helvetica,sans-Serif" font-size="10.00">MyBLAS::Matrix::getCols</text>
</a>
</g>
</g>
<!-- Node2 -->
<g id="node2" class="node">
<title>Node2</title>
<g id="a_node2"><a xlink:href="../../dd/df5/namespaceMyBLAS_1_1Stats.html#a76ff25554e971fa2a717ae781efe5b92" target="_top" xlink:title="Function to find the absolute value of each element in a matrix.">
<polygon fill="white" stroke="black" points="588,-898.5 588,-917.5 699,-917.5 699,-898.5 588,-898.5"/>
<text text-anchor="middle" x="643.5" y="-905.5" font-family="Helvetica,sans-Serif" font-size="10.00">MyBLAS::Stats::abs</text>
</a>
</g>
</g>
<!-- Node1&#45;&gt;Node2 -->
<g id="edge1" class="edge">
<title>Node1&#45;&gt;Node2</title>
<path fill="none" stroke="midnightblue" d="M841.07,-516.56C831.75,-588.41 795.98,-836.37 740,-889 729.04,-899.31 714.16,-904.74 699.4,-907.45"/>
<polygon fill="midnightblue" stroke="midnightblue" points="844.55,-516.96 842.34,-506.59 837.61,-516.07 844.55,-516.96"/>
</g>
<!-- Node3 -->
<g id="node3" class="node">
<title>Node3</title>
<g id="a_node3"><a xlink:href="../../d0/d40/classParser.html#a6ca8ca563d34a761bdf52e4953761181" target="_top" xlink:title="Builds the input matrices for the MyBLAS library from a JSON file.">
<polygon fill="white" stroke="black" points="590,-860.5 590,-879.5 697,-879.5 697,-860.5 590,-860.5"/>
<text text-anchor="middle" x="643.5" y="-867.5" font-family="Helvetica,sans-Serif" font-size="10.00">Parser::buildInputs</text>
</a>
</g>
</g>
<!-- Node1&#45;&gt;Node3 -->
<g id="edge2" class="edge">
<title>Node1&#45;&gt;Node3</title>
<path fill="none" stroke="midnightblue" d="M844.25,-516.78C845.39,-576.98 840.05,-759.4 740,-851 728.4,-861.62 712.63,-867.03 697.24,-869.61"/>
<polygon fill="midnightblue" stroke="midnightblue" points="847.75,-516.63 843.98,-506.73 840.75,-516.82 847.75,-516.63"/>
</g>
<!-- Node4 -->
<g id="node4" class="node">
<title>Node4</title>
<g id="a_node4"><a xlink:href="../../d2/d6e/namespaceMyBLAS.html#a14eb86abe3a826572fe3c1a2bd8e8221" target="_top" xlink:title="Casts the elements of a given matrix to a specified type.">
<polygon fill="white" stroke="black" points="602,-822.5 602,-841.5 685,-841.5 685,-822.5 602,-822.5"/>
<text text-anchor="middle" x="643.5" y="-829.5" font-family="Helvetica,sans-Serif" font-size="10.00">MyBLAS::cast</text>
</a>
</g>
</g>
<!-- Node1&#45;&gt;Node4 -->
<g id="edge3" class="edge">
<title>Node1&#45;&gt;Node4</title>
<path fill="none" stroke="midnightblue" d="M843.45,-516.85C842.15,-572.8 830.34,-732.91 740,-813 725.2,-826.12 703.98,-831.22 685.3,-832.88"/>
<polygon fill="midnightblue" stroke="midnightblue" points="846.95,-516.6 843.59,-506.56 839.95,-516.51 846.95,-516.6"/>
</g>
<!-- Node5 -->
<g id="node5" class="node">
<title>Node5</title>
<g id="a_node5"><a xlink:href="../../db/d2e/namespaceMyBLAS_1_1LU.html#a53e15f639ac089ddc18e9e9340489efc" target="_top" xlink:title="Factorizes a given matrix A into lower and upper triangular matrices L,U using Doolittle&#39;s method.">
<polygon fill="white" stroke="black" points="560.5,-784.5 560.5,-803.5 726.5,-803.5 726.5,-784.5 560.5,-784.5"/>
<text text-anchor="middle" x="643.5" y="-791.5" font-family="Helvetica,sans-Serif" font-size="10.00">MyBLAS::LU::doolittleFactorize</text>
</a>
</g>
</g>
<!-- Node1&#45;&gt;Node5 -->
<g id="edge4" class="edge">
<title>Node1&#45;&gt;Node5</title>
<path fill="none" stroke="midnightblue" d="M842.44,-516.86C838.56,-568.22 820.74,-706.24 740,-775 735.62,-778.73 730.73,-781.8 725.52,-784.32"/>
<polygon fill="midnightblue" stroke="midnightblue" points="845.94,-516.96 843.1,-506.76 838.95,-516.51 845.94,-516.96"/>
</g>
<!-- Node6 -->
<g id="node6" class="node">
<title>Node6</title>
<g id="a_node6"><a xlink:href="../../d2/d6e/namespaceMyBLAS.html#a278b70718fc6b42c7d239434849c2837" target="_top" xlink:title="Factorizes a given matrix A into lower and upper triangular matrices L,U using Doolittle&#39;s method.">
<polygon fill="white" stroke="black" points="563.5,-746.5 563.5,-765.5 723.5,-765.5 723.5,-746.5 563.5,-746.5"/>
<text text-anchor="middle" x="643.5" y="-753.5" font-family="Helvetica,sans-Serif" font-size="10.00">MyBLAS::doolittleFactorizeLU</text>
</a>
</g>
</g>
<!-- Node1&#45;&gt;Node6 -->
<g id="edge5" class="edge">
<title>Node1&#45;&gt;Node6</title>
<path fill="none" stroke="midnightblue" d="M841.17,-516.62C834.58,-562.89 811.38,-679.27 740,-737 735.14,-740.93 729.68,-744.13 723.91,-746.71"/>
<polygon fill="midnightblue" stroke="midnightblue" points="844.65,-517.05 842.48,-506.68 837.71,-516.13 844.65,-517.05"/>
</g>
<!-- Node7 -->
<g id="node7" class="node">
<title>Node7</title>
<g id="a_node7"><a xlink:href="../../d6/d82/labs_2outlab5_2Compute_8h.html#a42561c10d9c1157e9f1dcd9e940061a2" target="_top" xlink:title="Performs Doolittle&#39;s LU factorization with partial pivoting on a given matrix.">
<polygon fill="white" stroke="black" points="582.5,-708.5 582.5,-727.5 704.5,-727.5 704.5,-708.5 582.5,-708.5"/>
<text text-anchor="middle" x="643.5" y="-715.5" font-family="Helvetica,sans-Serif" font-size="10.00">dooLittleFactorizeLUP</text>
</a>
</g>
</g>
<!-- Node1&#45;&gt;Node7 -->
<g id="edge6" class="edge">
<title>Node1&#45;&gt;Node7</title>
<path fill="none" stroke="midnightblue" d="M839.4,-516.82C829.83,-557.87 801.93,-652.23 740,-699 729.75,-706.74 717.17,-711.56 704.54,-714.51"/>
<polygon fill="midnightblue" stroke="midnightblue" points="842.84,-517.48 841.59,-506.96 836.01,-515.96 842.84,-517.48"/>
</g>
<!-- Node9 -->
<g id="node9" class="node">
<title>Node9</title>
<g id="a_node9"><a xlink:href="../../d5/db6/namespaceMyBLAS_1_1LUP.html#ab15d6938948c050657f9870aeec47097" target="_top" xlink:title="Performs Doolittle&#39;s LU factorization with partial pivoting on a given matrix.">
<polygon fill="white" stroke="black" points="547,-670.5 547,-689.5 740,-689.5 740,-670.5 547,-670.5"/>
<text text-anchor="middle" x="643.5" y="-677.5" font-family="Helvetica,sans-Serif" font-size="10.00">MyBLAS::LUP::dooLittleFactorizeLUP</text>
</a>
</g>
</g>
<!-- Node1&#45;&gt;Node9 -->
<g id="edge8" class="edge">
<title>Node1&#45;&gt;Node9</title>
<path fill="none" stroke="midnightblue" d="M836.46,-516.28C823.1,-550.04 790.8,-619.74 740,-656 731.1,-662.36 720.67,-667.04 710.05,-670.48"/>
<polygon fill="midnightblue" stroke="midnightblue" points="839.83,-517.25 840.13,-506.66 833.29,-514.76 839.83,-517.25"/>
</g>
<!-- Node15 -->
<g id="node15" class="node">
<title>Node15</title>
<g id="a_node15"><a xlink:href="../../d7/da1/project_2project1_2Compute_8h.html#acddcb7395a0d22a81020f268fd96918a" target="_top" xlink:title="Solves the linear system.">
<polygon fill="white" stroke="black" points="158.5,-636 158.5,-666 266.5,-666 266.5,-636 158.5,-636"/>
<text text-anchor="start" x="166.5" y="-654" font-family="Helvetica,sans-Serif" font-size="10.00">naive_solve_linear</text>
<text text-anchor="middle" x="212.5" y="-643" font-family="Helvetica,sans-Serif" font-size="10.00">_system</text>
</a>
</g>
</g>
<!-- Node1&#45;&gt;Node15 -->
<g id="edge17" class="edge">
<title>Node1&#45;&gt;Node15</title>
<path fill="none" stroke="midnightblue" d="M834.64,-515.59C819.71,-544.52 786.55,-599.46 740,-623 658.41,-664.25 383.6,-658.17 266.77,-653.51"/>
<polygon fill="midnightblue" stroke="midnightblue" points="837.83,-517.04 839.15,-506.53 831.56,-513.92 837.83,-517.04"/>
</g>
<!-- Node17 -->
<g id="node17" class="node">
<title>Node17</title>
<g id="a_node17"><a xlink:href="../../d2/d6e/namespaceMyBLAS.html#a5291106c1cd2b16faa80fad3630a7803" target="_top" xlink:title="Checks if the given matrix is a valid upper triangular matrix.">
<polygon fill="white" stroke="black" points="557,-583 557,-613 730,-613 730,-583 557,-583"/>
<text text-anchor="start" x="565" y="-601" font-family="Helvetica,sans-Serif" font-size="10.00">MyBLAS::isValidUpperTriangular</text>
<text text-anchor="middle" x="643.5" y="-590" font-family="Helvetica,sans-Serif" font-size="10.00">Matrix</text>
</a>
</g>
</g>
<!-- Node1&#45;&gt;Node17 -->
<g id="edge16" class="edge">
<title>Node1&#45;&gt;Node17</title>
<path fill="none" stroke="midnightblue" d="M825.66,-513.42C806.05,-530.63 772.93,-557.31 740,-573 731.95,-576.83 723.24,-580.14 714.45,-582.98"/>
<polygon fill="midnightblue" stroke="midnightblue" points="828.07,-515.95 833.2,-506.68 823.41,-510.73 828.07,-515.95"/>
</g>
<!-- Node18 -->
<g id="node18" class="node">
<title>Node18</title>
<g id="a_node18"><a xlink:href="../../d0/d27/classMyBLAS_1_1Matrix.html#a0bf69964f51bcc8d749e17567103919d" target="_top" xlink:title="Overloaded operator* to multiply two matrices.">
<polygon fill="white" stroke="black" points="570,-544.5 570,-563.5 717,-563.5 717,-544.5 570,-544.5"/>
<text text-anchor="middle" x="643.5" y="-551.5" font-family="Helvetica,sans-Serif" font-size="10.00">MyBLAS::Matrix::operator*</text>
</a>
</g>
</g>
<!-- Node1&#45;&gt;Node18 -->
<g id="edge18" class="edge">
<title>Node1&#45;&gt;Node18</title>
<path fill="none" stroke="midnightblue" d="M811.06,-510.39C790.87,-518.35 764.23,-528.19 740,-535 727.14,-538.62 713.13,-541.81 699.89,-544.5"/>
<polygon fill="midnightblue" stroke="midnightblue" points="812.42,-513.61 820.41,-506.65 809.83,-507.11 812.42,-513.61"/>
</g>
<!-- Node19 -->
<g id="node19" class="node">
<title>Node19</title>
<g id="a_node19"><a xlink:href="../../d0/d27/classMyBLAS_1_1Matrix.html#a1eabd5defef6958c586b6be1809629d7" target="_top" xlink:title="Overloaded operator+ to add two matrices.">
<polygon fill="white" stroke="black" points="568.5,-506.5 568.5,-525.5 718.5,-525.5 718.5,-506.5 568.5,-506.5"/>
<text text-anchor="middle" x="643.5" y="-513.5" font-family="Helvetica,sans-Serif" font-size="10.00">MyBLAS::Matrix::operator+</text>
</a>
</g>
</g>
<!-- Node1&#45;&gt;Node19 -->
<g id="edge19" class="edge">
<title>Node1&#45;&gt;Node19</title>
<path fill="none" stroke="midnightblue" d="M765.81,-504.42C750.34,-505.89 734.14,-507.44 718.79,-508.91"/>
<polygon fill="midnightblue" stroke="midnightblue" points="766.23,-507.89 775.85,-503.46 765.56,-500.93 766.23,-507.89"/>
</g>
<!-- Node20 -->
<g id="node20" class="node">
<title>Node20</title>
<g id="a_node20"><a xlink:href="../../d0/d27/classMyBLAS_1_1Matrix.html#ac3f6dad49d6dec0e1afc58046e9355a3" target="_top" xlink:title="Overloaded operator&#45; to subtract two matrices.">
<polygon fill="white" stroke="black" points="570.5,-468.5 570.5,-487.5 716.5,-487.5 716.5,-468.5 570.5,-468.5"/>
<text text-anchor="middle" x="643.5" y="-475.5" font-family="Helvetica,sans-Serif" font-size="10.00">MyBLAS::Matrix::operator&#45;</text>
</a>
</g>
</g>
<!-- Node1&#45;&gt;Node20 -->
<g id="edge20" class="edge">
<title>Node1&#45;&gt;Node20</title>
<path fill="none" stroke="midnightblue" d="M765.89,-489.59C749.71,-488.04 732.71,-486.42 716.73,-484.9"/>
<polygon fill="midnightblue" stroke="midnightblue" points="765.56,-493.07 775.85,-490.54 766.23,-486.11 765.56,-493.07"/>
</g>
<!-- Node21 -->
<g id="node21" class="node">
<title>Node21</title>
<g id="a_node21"><a xlink:href="../../d0/d27/classMyBLAS_1_1Matrix.html#a38b62351a0f43804e9d32efa4cfc8957" target="_top" xlink:title="Overloaded operator/ to divide the matrix by a scalar.">
<polygon fill="white" stroke="black" points="571,-430.5 571,-449.5 716,-449.5 716,-430.5 571,-430.5"/>
<text text-anchor="middle" x="643.5" y="-437.5" font-family="Helvetica,sans-Serif" font-size="10.00">MyBLAS::Matrix::operator/</text>
</a>
</g>
</g>
<!-- Node1&#45;&gt;Node21 -->
<g id="edge21" class="edge">
<title>Node1&#45;&gt;Node21</title>
<path fill="none" stroke="midnightblue" d="M811.06,-483.61C790.87,-475.65 764.23,-465.81 740,-459 727.14,-455.38 713.13,-452.19 699.89,-449.5"/>
<polygon fill="midnightblue" stroke="midnightblue" points="809.83,-486.89 820.41,-487.35 812.42,-480.39 809.83,-486.89"/>
</g>
<!-- Node22 -->
<g id="node22" class="node">
<title>Node22</title>
<g id="a_node22"><a xlink:href="../../d0/d27/classMyBLAS_1_1Matrix.html#a2a93d2e6bfbebee6c9afe1b191873019" target="_top" xlink:title="Overloaded operator== to check for equality between two matrices.">
<polygon fill="white" stroke="black" points="564.5,-392.5 564.5,-411.5 722.5,-411.5 722.5,-392.5 564.5,-392.5"/>
<text text-anchor="middle" x="643.5" y="-399.5" font-family="Helvetica,sans-Serif" font-size="10.00">MyBLAS::Matrix::operator==</text>
</a>
</g>
</g>
<!-- Node1&#45;&gt;Node22 -->
<g id="edge22" class="edge">
<title>Node1&#45;&gt;Node22</title>
<path fill="none" stroke="midnightblue" d="M826.15,-480.48C806.73,-462.95 773.56,-435.78 740,-421 731.18,-417.12 721.56,-414.02 711.92,-411.55"/>
<polygon fill="midnightblue" stroke="midnightblue" points="823.86,-483.13 833.59,-487.34 828.61,-477.99 823.86,-483.13"/>
</g>
<!-- Node23 -->
<g id="node23" class="node">
<title>Node23</title>
<g id="a_node23"><a xlink:href="../../d6/d82/labs_2outlab5_2Compute_8h.html#a4af95e0f3db41e42885c47e81a6aecd8" target="_top" xlink:title="Performs recursive LU factorization with partial pivoting on a given matrix.">
<polygon fill="white" stroke="black" points="150.5,-354.5 150.5,-373.5 274.5,-373.5 274.5,-354.5 150.5,-354.5"/>
<text text-anchor="middle" x="212.5" y="-361.5" font-family="Helvetica,sans-Serif" font-size="10.00">recursiveFactorizeLUP</text>
</a>
</g>
</g>
<!-- Node1&#45;&gt;Node23 -->
<g id="edge23" class="edge">
<title>Node1&#45;&gt;Node23</title>
<path fill="none" stroke="midnightblue" d="M833.3,-478.53C817.38,-451.82 783.84,-403.35 740,-383 700.27,-364.56 389.78,-370.6 346,-369 322.65,-368.14 296.99,-367.18 274.52,-366.33"/>
<polygon fill="midnightblue" stroke="midnightblue" points="830.33,-480.39 838.36,-487.3 836.39,-476.89 830.33,-480.39"/>
</g>
<!-- Node24 -->
<g id="node24" class="node">
<title>Node24</title>
<g id="a_node24"><a xlink:href="../../d5/db6/namespaceMyBLAS_1_1LUP.html#a3aae3c4e098a271220214ee7b0f9a695" target="_top" xlink:title="Performs recursive LU factorization with partial pivoting on a given matrix.">
<polygon fill="white" stroke="black" points="115,-202.5 115,-221.5 310,-221.5 310,-202.5 115,-202.5"/>
<text text-anchor="middle" x="212.5" y="-209.5" font-family="Helvetica,sans-Serif" font-size="10.00">MyBLAS::LUP::recursiveFactorizeLUP</text>
</a>
</g>
</g>
<!-- Node1&#45;&gt;Node24 -->
<g id="edge24" class="edge">
<title>Node1&#45;&gt;Node24</title>
<path fill="none" stroke="midnightblue" d="M842.72,-477.24C839.51,-426.24 823.17,-290.12 740,-231 584.18,-120.25 331.86,-177.67 244.47,-202.49"/>
<polygon fill="midnightblue" stroke="midnightblue" points="839.22,-477.47 843.24,-487.27 846.21,-477.1 839.22,-477.47"/>
</g>
<!-- Node25 -->
<g id="node25" class="node">
<title>Node25</title>
<g id="a_node25"><a xlink:href="../../db/d2e/namespaceMyBLAS_1_1LU.html#a56aef4d1166cb1303cd968090fed78f8" target="_top" xlink:title="Performs recursive LU factorization on a given matrix.">
<polygon fill="white" stroke="black" points="121,-240.5 121,-259.5 304,-259.5 304,-240.5 121,-240.5"/>
<text text-anchor="middle" x="212.5" y="-247.5" font-family="Helvetica,sans-Serif" font-size="10.00">MyBLAS::LU::recursiveLUFactorize</text>
</a>
</g>
</g>
<!-- Node1&#45;&gt;Node25 -->
<g id="edge25" class="edge">
<title>Node1&#45;&gt;Node25</title>
<path fill="none" stroke="midnightblue" d="M841.14,-476.85C834.58,-431.01 811.64,-319 740,-269 671.94,-221.49 435.73,-231.8 304.02,-241.82"/>
<polygon fill="midnightblue" stroke="midnightblue" points="837.7,-477.55 842.47,-487.01 844.64,-476.64 837.7,-477.55"/>
</g>
<!-- Node26 -->
<g id="node26" class="node">
<title>Node26</title>
<g id="a_node26"><a xlink:href="../../d6/d0c/structMyPhysics_1_1Diffusion_1_1Params.html#ac2bfda254798024c60d25cc50b4c8c1e" target="_top" xlink:title="Set the matrix of sources for the diffusion problem.">
<polygon fill="white" stroke="black" points="584.5,-77 584.5,-107 702.5,-107 702.5,-77 584.5,-77"/>
<text text-anchor="start" x="592.5" y="-95" font-family="Helvetica,sans-Serif" font-size="10.00">MyPhysics::Diffusion</text>
<text text-anchor="middle" x="643.5" y="-84" font-family="Helvetica,sans-Serif" font-size="10.00">::Params::setSources</text>
</a>
</g>
</g>
<!-- Node1&#45;&gt;Node26 -->
<g id="edge26" class="edge">
<title>Node1&#45;&gt;Node26</title>
<path fill="none" stroke="midnightblue" d="M844.19,-476.98C845.18,-415.15 839.6,-225.16 740,-122 729.98,-111.62 716.42,-104.82 702.67,-100.37"/>
<polygon fill="midnightblue" stroke="midnightblue" points="840.68,-477.2 843.94,-487.28 847.68,-477.37 840.68,-477.2"/>
</g>
<!-- Node28 -->
<g id="node28" class="node">
<title>Node28</title>
<g id="a_node28"><a xlink:href="../../d0/d27/classMyBLAS_1_1Matrix.html#a420b27d81659c030bfbbd5b89a304734" target="_top" xlink:title="Sets a submatrix within the current matrix.">
<polygon fill="white" stroke="black" points="346,-316.5 346,-335.5 511,-335.5 511,-316.5 346,-316.5"/>
<text text-anchor="middle" x="428.5" y="-323.5" font-family="Helvetica,sans-Serif" font-size="10.00">MyBLAS::Matrix::setSubMatrix</text>
</a>
</g>
</g>
<!-- Node1&#45;&gt;Node28 -->
<g id="edge28" class="edge">
<title>Node1&#45;&gt;Node28</title>
<path fill="none" stroke="midnightblue" d="M836.39,-477.84C823.11,-445.11 791.16,-379.11 740,-350 661.52,-305.35 553.3,-308.74 487.53,-316.5"/>
<polygon fill="midnightblue" stroke="midnightblue" points="833.15,-479.17 840.05,-487.22 839.67,-476.63 833.15,-479.17"/>
</g>
<!-- Node30 -->
<g id="node30" class="node">
<title>Node30</title>
<g id="a_node30"><a xlink:href="../../d0/d27/classMyBLAS_1_1Matrix.html#ad19043186fc1ff51ca83d91ffec9e2e5" target="_top" xlink:title="Extracts a submatrix from the current matrix.">
<polygon fill="white" stroke="black" points="569,-278.5 569,-297.5 718,-297.5 718,-278.5 569,-278.5"/>
<text text-anchor="middle" x="643.5" y="-285.5" font-family="Helvetica,sans-Serif" font-size="10.00">MyBLAS::Matrix::subMatrix</text>
</a>
</g>
</g>
<!-- Node1&#45;&gt;Node30 -->
<g id="edge33" class="edge">
<title>Node1&#45;&gt;Node30</title>
<path fill="none" stroke="midnightblue" d="M838.18,-477.26C826.85,-439.15 796.65,-355.37 740,-312 731.72,-305.66 721.96,-300.98 711.9,-297.53"/>
<polygon fill="midnightblue" stroke="midnightblue" points="834.88,-478.47 840.99,-487.13 841.62,-476.55 834.88,-478.47"/>
</g>
<!-- Node32 -->
<g id="node32" class="node">
<title>Node32</title>
<g id="a_node32"><a xlink:href="../../db/d13/labs_2inlab6_2tests_2LUMatrixTests_8cpp.html#a5669c38650f4e827fcd26a72acde0dbe" target="_top" xlink:title=" ">
<polygon fill="white" stroke="black" points="617.5,-38.5 617.5,-57.5 669.5,-57.5 669.5,-38.5 617.5,-38.5"/>
<text text-anchor="middle" x="643.5" y="-45.5" font-family="Helvetica,sans-Serif" font-size="10.00">TEST_P</text>
</a>
</g>
</g>
<!-- Node1&#45;&gt;Node32 -->
<g id="edge39" class="edge">
<title>Node1&#45;&gt;Node32</title>
<path fill="none" stroke="midnightblue" d="M841.52,-477.06C833.48,-400.33 800.82,-125.45 740,-67 721.47,-49.2 691.28,-45.84 669.8,-46.04"/>
<polygon fill="midnightblue" stroke="midnightblue" points="838.06,-477.66 842.56,-487.26 845.02,-476.95 838.06,-477.66"/>
</g>
<!-- Node33 -->
<g id="node33" class="node">
<title>Node33</title>
<g id="a_node33"><a xlink:href="../../d2/d6e/namespaceMyBLAS.html#aac4ff539db942c70ee356594045d8669" target="_top" xlink:title=" ">
<polygon fill="white" stroke="black" points="581.5,-0.5 581.5,-19.5 705.5,-19.5 705.5,-0.5 581.5,-0.5"/>
<text text-anchor="middle" x="643.5" y="-7.5" font-family="Helvetica,sans-Serif" font-size="10.00">MyBLAS::TYPED_TEST</text>
</a>
</g>
</g>
<!-- Node1&#45;&gt;Node33 -->
<g id="edge40" class="edge">
<title>Node1&#45;&gt;Node33</title>
<path fill="none" stroke="midnightblue" d="M841.92,-476.89C835.13,-395.71 805.74,-93.36 740,-29 730.7,-19.89 718.35,-14.55 705.64,-11.52"/>
<polygon fill="midnightblue" stroke="midnightblue" points="838.46,-477.53 842.76,-487.21 845.44,-476.96 838.46,-477.53"/>
</g>
<!-- Node8 -->
<g id="node8" class="node">
<title>Node8</title>
<g id="a_node8"><a xlink:href="../../d3/d1d/classOutLab5.html#aa1d5363426e0ce8f620d47c1b2aa2260" target="_top" xlink:title="This function runs the project.">
<polygon fill="white" stroke="black" points="389,-746.5 389,-765.5 468,-765.5 468,-746.5 389,-746.5"/>
<text text-anchor="middle" x="428.5" y="-753.5" font-family="Helvetica,sans-Serif" font-size="10.00">OutLab5::run</text>
</a>
</g>
</g>
<!-- Node7&#45;&gt;Node8 -->
<g id="edge7" class="edge">
<title>Node7&#45;&gt;Node8</title>
<path fill="none" stroke="midnightblue" d="M579.09,-729.31C543.06,-735.74 499.12,-743.58 468.21,-749.09"/>
<polygon fill="midnightblue" stroke="midnightblue" points="579.8,-732.74 589.03,-727.54 578.57,-725.85 579.8,-732.74"/>
</g>
<!-- Node10 -->
<g id="node10" class="node">
<title>Node10</title>
<g id="a_node10"><a xlink:href="../../d5/db6/namespaceMyBLAS_1_1LUP.html#a2f715f34052a24e79c500e89995fe5d3" target="_top" xlink:title="This function solves a system of linear equations Ax = b using LU factorization with partial pivoting...">
<polygon fill="white" stroke="black" points="361.5,-708.5 361.5,-727.5 495.5,-727.5 495.5,-708.5 361.5,-708.5"/>
<text text-anchor="middle" x="428.5" y="-715.5" font-family="Helvetica,sans-Serif" font-size="10.00">MyBLAS::LUP::applyLUP</text>
</a>
</g>
</g>
<!-- Node9&#45;&gt;Node10 -->
<g id="edge9" class="edge">
<title>Node9&#45;&gt;Node10</title>
<path fill="none" stroke="midnightblue" d="M578.9,-691.35C548.34,-696.8 512.12,-703.26 483,-708.46"/>
<polygon fill="midnightblue" stroke="midnightblue" points="579.8,-694.74 589.03,-689.54 578.57,-687.85 579.8,-694.74"/>
</g>
<!-- Node14 -->
<g id="node14" class="node">
<title>Node14</title>
<g id="a_node14"><a xlink:href="../../d5/db6/namespaceMyBLAS_1_1LUP.html#aadc5106a411767f67e83cd6b62cabbce" target="_top" xlink:title="This function performs LU factorization on a given matrix A and stores the results in matrices L and ...">
<polygon fill="white" stroke="black" points="363,-670.5 363,-689.5 494,-689.5 494,-670.5 363,-670.5"/>
<text text-anchor="middle" x="428.5" y="-677.5" font-family="Helvetica,sans-Serif" font-size="10.00">MyBLAS::LUP::factorize</text>
</a>
</g>
</g>
<!-- Node9&#45;&gt;Node14 -->
<g id="edge13" class="edge">
<title>Node9&#45;&gt;Node14</title>
<path fill="none" stroke="midnightblue" d="M536.86,-680C522.32,-680 507.77,-680 494.27,-680"/>
<polygon fill="midnightblue" stroke="midnightblue" points="536.9,-683.5 546.9,-680 536.9,-676.5 536.9,-683.5"/>
</g>
<!-- Node11 -->
<g id="node11" class="node">
<title>Node11</title>
<g id="a_node11"><a xlink:href="../../de/db3/namespaceCompute.html#a9aaa2e3c1db51432d5a62c1d4541fd90" target="_top" xlink:title="Solves a linear system using LUP decomposition.">
<polygon fill="white" stroke="black" points="156.5,-708.5 156.5,-727.5 268.5,-727.5 268.5,-708.5 156.5,-708.5"/>
<text text-anchor="middle" x="212.5" y="-715.5" font-family="Helvetica,sans-Serif" font-size="10.00">Compute::usingLUP</text>
</a>
</g>
</g>
<!-- Node10&#45;&gt;Node11 -->
<g id="edge10" class="edge">
<title>Node10&#45;&gt;Node11</title>
<path fill="none" stroke="midnightblue" d="M350.99,-718C323.78,-718 293.71,-718 268.65,-718"/>
<polygon fill="midnightblue" stroke="midnightblue" points="351.25,-721.5 361.25,-718 351.25,-714.5 351.25,-721.5"/>
</g>
<!-- Node12 -->
<g id="node12" class="node">
<title>Node12</title>
<g id="a_node12"><a xlink:href="../../d0/d4c/classOutLab6.html#a7f817fd9bedd2b88e683e2514d386c8c" target="_top" xlink:title="This function runs the computation.">
<polygon fill="white" stroke="black" points="0,-698.5 0,-717.5 79,-717.5 79,-698.5 0,-698.5"/>
<text text-anchor="middle" x="39.5" y="-705.5" font-family="Helvetica,sans-Serif" font-size="10.00">OutLab6::run</text>
</a>
</g>
</g>
<!-- Node11&#45;&gt;Node12 -->
<g id="edge11" class="edge">
<title>Node11&#45;&gt;Node12</title>
<path fill="none" stroke="midnightblue" d="M146.23,-714.18C123.61,-712.86 98.99,-711.42 79.2,-710.26"/>
<polygon fill="midnightblue" stroke="midnightblue" points="146.27,-717.69 156.45,-714.78 146.67,-710.7 146.27,-717.69"/>
</g>
<!-- Node13 -->
<g id="node13" class="node">
<title>Node13</title>
<g id="a_node13"><a xlink:href="../../dd/db5/classProject2.html#ae3fb99498f7859230efae48b2915a8cb" target="_top" xlink:title="This function runs the project.">
<polygon fill="white" stroke="black" points="0.5,-736.5 0.5,-755.5 78.5,-755.5 78.5,-736.5 0.5,-736.5"/>
<text text-anchor="middle" x="39.5" y="-743.5" font-family="Helvetica,sans-Serif" font-size="10.00">Project2::run</text>
</a>
</g>
</g>
<!-- Node11&#45;&gt;Node13 -->
<g id="edge12" class="edge">
<title>Node11&#45;&gt;Node13</title>
<path fill="none" stroke="midnightblue" d="M146.45,-728.65C123.57,-732.4 98.61,-736.48 78.67,-739.75"/>
<polygon fill="midnightblue" stroke="midnightblue" points="147.15,-732.08 156.45,-727.01 146.02,-725.18 147.15,-732.08"/>
</g>
<!-- Node14&#45;&gt;Node15 -->
<g id="edge14" class="edge">
<title>Node14&#45;&gt;Node15</title>
<path fill="none" stroke="midnightblue" d="M352.44,-669.83C324.1,-665.99 292.48,-661.7 266.57,-658.19"/>
<polygon fill="midnightblue" stroke="midnightblue" points="352.33,-673.35 362.71,-671.22 353.27,-666.41 352.33,-673.35"/>
</g>
<!-- Node16 -->
<g id="node16" class="node">
<title>Node16</title>
<g id="a_node16"><a xlink:href="../../d8/ddb/classProject1.html#ac7f0febb9852a9871ac5209b58506fb1" target="_top" xlink:title="This function runs the project.">
<polygon fill="white" stroke="black" points="0.5,-641.5 0.5,-660.5 78.5,-660.5 78.5,-641.5 0.5,-641.5"/>
<text text-anchor="middle" x="39.5" y="-648.5" font-family="Helvetica,sans-Serif" font-size="10.00">Project1::run</text>
</a>
</g>
</g>
<!-- Node15&#45;&gt;Node16 -->
<g id="edge15" class="edge">
<title>Node15&#45;&gt;Node16</title>
<path fill="none" stroke="midnightblue" d="M148.16,-651C124.83,-651 99.14,-651 78.7,-651"/>
<polygon fill="midnightblue" stroke="midnightblue" points="148.33,-654.5 158.33,-651 148.33,-647.5 148.33,-654.5"/>
</g>
<!-- Node27 -->
<g id="node27" class="node">
<title>Node27</title>
<g id="a_node27"><a xlink:href="../../d6/d0c/structMyPhysics_1_1Diffusion_1_1Params.html#ae42eef29388398a4c48371304b230636" target="_top" xlink:title="Constructor with initialization of parameters.">
<polygon fill="white" stroke="black" points="369.5,-77 369.5,-107 487.5,-107 487.5,-77 369.5,-77"/>
<text text-anchor="start" x="377.5" y="-95" font-family="Helvetica,sans-Serif" font-size="10.00">MyPhysics::Diffusion</text>
<text text-anchor="middle" x="428.5" y="-84" font-family="Helvetica,sans-Serif" font-size="10.00">::Params::Params</text>
</a>
</g>
</g>
<!-- Node26&#45;&gt;Node27 -->
<g id="edge27" class="edge">
<title>Node26&#45;&gt;Node27</title>
<path fill="none" stroke="midnightblue" d="M574.22,-92C546.32,-92 514.39,-92 487.63,-92"/>
<polygon fill="midnightblue" stroke="midnightblue" points="574.3,-95.5 584.3,-92 574.3,-88.5 574.3,-95.5"/>
</g>
<!-- Node28&#45;&gt;Node23 -->
<g id="edge29" class="edge">
<title>Node28&#45;&gt;Node23</title>
<path fill="none" stroke="midnightblue" d="M363.6,-337.35C332.89,-342.8 296.51,-349.26 267.25,-354.46"/>
<polygon fill="midnightblue" stroke="midnightblue" points="364.54,-340.73 373.77,-335.54 363.32,-333.84 364.54,-340.73"/>
</g>
<!-- Node28&#45;&gt;Node24 -->
<g id="edge30" class="edge">
<title>Node28&#45;&gt;Node24</title>
<path fill="none" stroke="midnightblue" d="M352.57,-311.61C350.28,-310.21 348.08,-308.68 346,-307 316.91,-283.54 339.49,-253.96 310,-231 305.15,-227.22 299.75,-224.13 294.06,-221.61"/>
<polygon fill="midnightblue" stroke="midnightblue" points="351.33,-314.91 361.82,-316.4 354.55,-308.69 351.33,-314.91"/>
</g>
<!-- Node28&#45;&gt;Node25 -->
<g id="edge31" class="edge">
<title>Node28&#45;&gt;Node25</title>
<path fill="none" stroke="midnightblue" d="M370.22,-314C362.02,-311.89 353.75,-309.55 346,-307 304.61,-293.39 258.27,-271.95 232.83,-259.61"/>
<polygon fill="midnightblue" stroke="midnightblue" points="369.58,-317.45 380.13,-316.45 371.26,-310.65 369.58,-317.45"/>
</g>
<!-- Node29 -->
<g id="node29" class="node">
<title>Node29</title>
<g id="a_node29"><a xlink:href="../../d2/d6e/namespaceMyBLAS.html#add3f02f0908bbb2f212b61f156b9481e" target="_top" xlink:title=" ">
<polygon fill="white" stroke="black" points="150.5,-316.5 150.5,-335.5 274.5,-335.5 274.5,-316.5 150.5,-316.5"/>
<text text-anchor="middle" x="212.5" y="-323.5" font-family="Helvetica,sans-Serif" font-size="10.00">MyBLAS::TYPED_TEST</text>
</a>
</g>
</g>
<!-- Node28&#45;&gt;Node29 -->
<g id="edge32" class="edge">
<title>Node28&#45;&gt;Node29</title>
<path fill="none" stroke="midnightblue" d="M335.93,-326C315.29,-326 293.86,-326 274.81,-326"/>
<polygon fill="midnightblue" stroke="midnightblue" points="335.99,-329.5 345.99,-326 335.99,-322.5 335.99,-329.5"/>
</g>
<!-- Node30&#45;&gt;Node23 -->
<g id="edge34" class="edge">
<title>Node30&#45;&gt;Node23</title>
<path fill="none" stroke="midnightblue" d="M616.6,-302.43C590.73,-316.06 549.4,-335.75 511,-345 430.87,-364.3 335.31,-366.94 274.52,-366.18"/>
<polygon fill="midnightblue" stroke="midnightblue" points="618.56,-305.35 625.72,-297.54 615.25,-299.18 618.56,-305.35"/>
</g>
<!-- Node30&#45;&gt;Node24 -->
<g id="edge35" class="edge">
<title>Node30&#45;&gt;Node24</title>
<path fill="none" stroke="midnightblue" d="M602.4,-275.52C576.52,-267.85 542.02,-258.3 511,-252 443.97,-238.38 367.47,-228.21 308.83,-221.54"/>
<polygon fill="midnightblue" stroke="midnightblue" points="601.64,-278.95 612.22,-278.47 603.65,-272.24 601.64,-278.95"/>
</g>
<!-- Node30&#45;&gt;Node25 -->
<g id="edge36" class="edge">
<title>Node30&#45;&gt;Node25</title>
<path fill="none" stroke="midnightblue" d="M573.68,-277C553.52,-274.07 531.41,-271.12 511,-269 441.76,-261.8 363.16,-256.92 304.14,-253.91"/>
<polygon fill="midnightblue" stroke="midnightblue" points="573.31,-280.48 583.71,-278.48 574.33,-273.56 573.31,-280.48"/>
</g>
<!-- Node30&#45;&gt;Node28 -->
<g id="edge37" class="edge">
<title>Node30&#45;&gt;Node28</title>
<path fill="none" stroke="midnightblue" d="M578.9,-299.35C548.34,-304.8 512.12,-311.26 483,-316.46"/>
<polygon fill="midnightblue" stroke="midnightblue" points="579.8,-302.74 589.03,-297.54 578.57,-295.85 579.8,-302.74"/>
</g>
<!-- Node31 -->
<g id="node31" class="node">
<title>Node31</title>
<g id="a_node31"><a xlink:href="../../d2/d6e/namespaceMyBLAS.html#a0ea4db14f9fc762b24e5fc18e6f02d7b" target="_top" xlink:title=" ">
<polygon fill="white" stroke="black" points="366.5,-278.5 366.5,-297.5 490.5,-297.5 490.5,-278.5 366.5,-278.5"/>
<text text-anchor="middle" x="428.5" y="-285.5" font-family="Helvetica,sans-Serif" font-size="10.00">MyBLAS::TYPED_TEST</text>
</a>
</g>
</g>
<!-- Node30&#45;&gt;Node31 -->
<g id="edge38" class="edge">
<title>Node30&#45;&gt;Node31</title>
<path fill="none" stroke="midnightblue" d="M558.61,-288C535.96,-288 511.89,-288 490.74,-288"/>
<polygon fill="midnightblue" stroke="midnightblue" points="558.9,-291.5 568.9,-288 558.9,-284.5 558.9,-291.5"/>
</g>
</g>
</svg>
        <g id="navigator" transform="translate(0 0)" fill="#404254">
                <rect fill="#f2f5e9" fill-opacity="0.5" stroke="#606060" stroke-width=".5" x="0" y="0" width="60" height="60"/>
                <use id="zoomplus" xlink:href="#zoomPlus" x="17" y="9" onmousedown="handleZoom(evt,'in')"/>
                <use id="zoomminus" xlink:href="#zoomMin" x="42" y="9" onmousedown="handleZoom(evt,'out')"/>
                <use id="reset" xlink:href="#resetDef" x="30" y="36" onmousedown="handleReset()"/>
                <g id="arrowUp" xlink:href="#dirArrow" transform="translate(30 24)" onmousedown="handlePan(0,-1)">
                  <use xlink:href="#rim" fill="#404040">
                        <set attributeName="fill" to="#808080" begin="arrowUp.mouseover" end="arrowUp.mouseout"/>
                  </use>
                  <path fill="none" stroke="white" stroke-width="1.5" d="M0,-3.0v7 M-2.5,-0.5L0,-3.0L2.5,-0.5"/>
                </g>
                <g id="arrowRight" xlink:href="#dirArrow" transform="rotate(90) translate(36 -43)" onmousedown="handlePan(1,0)">
                  <use xlink:href="#rim" fill="#404040">
                        <set attributeName="fill" to="#808080" begin="arrowRight.mouseover" end="arrowRight.mouseout"/>
                  </use>
                  <path fill="none" stroke="white" stroke-width="1.5" d="M0,-3.0v7 M-2.5,-0.5L0,-3.0L2.5,-0.5"/>
                </g>
                <g id="arrowDown" xlink:href="#dirArrow" transform="rotate(180) translate(-30 -48)" onmousedown="handlePan(0,1)">
                  <use xlink:href="#rim" fill="#404040">
                        <set attributeName="fill" to="#808080" begin="arrowDown.mouseover" end="arrowDown.mouseout"/>
                  </use>
                  <path fill="none" stroke="white" stroke-width="1.5" d="M0,-3.0v7 M-2.5,-0.5L0,-3.0L2.5,-0.5"/>
                </g>
                <g id="arrowLeft" xlink:href="#dirArrow" transform="rotate(270) translate(-36 17)" onmousedown="handlePan(-1,0)">
                  <use xlink:href="#rim" fill="#404040">
                        <set attributeName="fill" to="#808080" begin="arrowLeft.mouseover" end="arrowLeft.mouseout"/>
                  </use>
                  <path fill="none" stroke="white" stroke-width="1.5" d="M0,-3.0v7 M-2.5,-0.5L0,-3.0L2.5,-0.5"/>
                </g>
        </g>
        <svg viewBox="0 0 15 15" width="100%" height="30px" preserveAspectRatio="xMaxYMin meet">
         <g id="arrow_out" transform="scale(0.3 0.3)">
          <a xlink:href="classMyBLAS_1_1Matrix_ab3241d24818f1c540afe3a8d1007780d_icgraph_org.svg" target="_base">
           <rect id="button" ry="5" rx="5" y="6" x="6" height="38" width="38"
                fill="#f2f5e9" fill-opacity="0.5" stroke="#606060" stroke-width="1.0"/>
           <path id="arrow"
             d="M 11.500037,31.436501 C 11.940474,20.09759 22.043105,11.32322 32.158766,21.979434 L 37.068811,17.246167 C 37.068811,17.246167 37.088388,32 37.088388,32 L 22.160133,31.978069 C 22.160133,31.978069 26.997745,27.140456 26.997745,27.140456 C 18.528582,18.264221 13.291696,25.230495 11.500037,31.436501 z"
             style="fill:#404040;"/>
          </a>
         </g>
        </svg>
</svg>
