<?xml version="1.0" encoding="UTF-8" standalone="no"?>
<!DOCTYPE svg PUBLIC "-//W3C//DTD SVG 1.1//EN"
 "http://www.w3.org/Graphics/SVG/1.1/DTD/svg11.dtd">
<!-- Generated by graphviz version 2.43.0 (0)
 -->
<!-- Title: MyBLAS::Matrix::eye Pages: 1 -->
<svg width="442pt" height="180pt"
 viewBox="0.00 0.00 442.00 180.00" xmlns="http://www.w3.org/2000/svg" xmlns:xlink="http://www.w3.org/1999/xlink">
<g id="graph0" class="graph" transform="scale(1 1) rotate(0) translate(4 176)">
<title>MyBLAS::Matrix::eye</title>
<polygon fill="white" stroke="transparent" points="-4,4 -4,-176 438,-176 438,4 -4,4"/>
<!-- Node1 -->
<g id="node1" class="node">
<title>Node1</title>
<g id="a_node1"><a xlink:title="Static function to get the identity matrix of a given size.">
<polygon fill="#bfbfbf" stroke="black" points="315,-76.5 315,-95.5 434,-95.5 434,-76.5 315,-76.5"/>
<text text-anchor="middle" x="374.5" y="-83.5" font-family="Helvetica,sans-Serif" font-size="10.00">MyBLAS::Matrix::eye</text>
</a>
</g>
</g>
<!-- Node2 -->
<g id="node2" class="node">
<title>Node2</title>
<g id="a_node2"><a xlink:href="../../d0/d40/classParser.html#a98f1583d59c0f75e73eff6dc18365cf7" target="_top" xlink:title="Builds the output object with the provided values from the command line.">
<polygon fill="white" stroke="black" points="143.5,-152.5 143.5,-171.5 250.5,-171.5 250.5,-152.5 143.5,-152.5"/>
<text text-anchor="middle" x="197" y="-159.5" font-family="Helvetica,sans-Serif" font-size="10.00">Parser::buildInputs</text>
</a>
</g>
</g>
<!-- Node1&#45;&gt;Node2 -->
<g id="edge1" class="edge">
<title>Node1&#45;&gt;Node2</title>
<path fill="none" stroke="midnightblue" d="M352.15,-101.55C333.63,-114.37 305.69,-132.14 279,-143 269.77,-146.76 259.63,-149.87 249.74,-152.41"/>
<polygon fill="midnightblue" stroke="midnightblue" points="354.28,-104.33 360.43,-95.71 350.24,-98.61 354.28,-104.33"/>
</g>
<!-- Node3 -->
<g id="node3" class="node">
<title>Node3</title>
<g id="a_node3"><a xlink:href="../../d6/d82/labs_2outlab5_2Compute_8h.html#a42561c10d9c1157e9f1dcd9e940061a2" target="_top" xlink:title="Performs Doolittle&#39;s LU factorization with partial pivoting on a given matrix.">
<polygon fill="white" stroke="black" points="136,-114.5 136,-133.5 258,-133.5 258,-114.5 136,-114.5"/>
<text text-anchor="middle" x="197" y="-121.5" font-family="Helvetica,sans-Serif" font-size="10.00">dooLittleFactorizeLUP</text>
</a>
</g>
</g>
<!-- Node1&#45;&gt;Node3 -->
<g id="edge2" class="edge">
<title>Node1&#45;&gt;Node3</title>
<path fill="none" stroke="midnightblue" d="M319.22,-97.75C294.41,-103.13 265.39,-109.41 241.97,-114.48"/>
<polygon fill="midnightblue" stroke="midnightblue" points="320.18,-101.13 329.21,-95.59 318.7,-94.28 320.18,-101.13"/>
</g>
<!-- Node5 -->
<g id="node5" class="node">
<title>Node5</title>
<g id="a_node5"><a xlink:href="../../d6/d82/labs_2outlab5_2Compute_8h.html#a06469338a0b66fbb6224d51ec170b8ad" target="_top" xlink:title="Performs LU factorization with partial pivoting on a given matrix.">
<polygon fill="white" stroke="black" points="115,-76.5 115,-95.5 279,-95.5 279,-76.5 115,-76.5"/>
<text text-anchor="middle" x="197" y="-83.5" font-family="Helvetica,sans-Serif" font-size="10.00">factorizeLUwithPartialPivoting</text>
</a>
</g>
</g>
<!-- Node1&#45;&gt;Node5 -->
<g id="edge4" class="edge">
<title>Node1&#45;&gt;Node5</title>
<path fill="none" stroke="midnightblue" d="M304.57,-86C296.25,-86 287.7,-86 279.23,-86"/>
<polygon fill="midnightblue" stroke="midnightblue" points="304.57,-89.5 314.57,-86 304.57,-82.5 304.57,-89.5"/>
</g>
<!-- Node6 -->
<g id="node6" class="node">
<title>Node6</title>
<g id="a_node6"><a xlink:href="../../d6/d82/labs_2outlab5_2Compute_8h.html#a4af95e0f3db41e42885c47e81a6aecd8" target="_top" xlink:title="Performs recursive LU factorization with partial pivoting on a given matrix.">
<polygon fill="white" stroke="black" points="135,-38.5 135,-57.5 259,-57.5 259,-38.5 135,-38.5"/>
<text text-anchor="middle" x="197" y="-45.5" font-family="Helvetica,sans-Serif" font-size="10.00">recursiveFactorizeLUP</text>
</a>
</g>
</g>
<!-- Node1&#45;&gt;Node6 -->
<g id="edge6" class="edge">
<title>Node1&#45;&gt;Node6</title>
<path fill="none" stroke="midnightblue" d="M319.22,-74.25C294.41,-68.87 265.39,-62.59 241.97,-57.52"/>
<polygon fill="midnightblue" stroke="midnightblue" points="318.7,-77.72 329.21,-76.41 320.18,-70.87 318.7,-77.72"/>
</g>
<!-- Node7 -->
<g id="node7" class="node">
<title>Node7</title>
<g id="a_node7"><a xlink:href="../../d2/d6e/namespaceMyBLAS.html#a0154b711c9d3d594038cb5bdf739c52b" target="_top" xlink:title=" ">
<polygon fill="white" stroke="black" points="135,-0.5 135,-19.5 259,-19.5 259,-0.5 135,-0.5"/>
<text text-anchor="middle" x="197" y="-7.5" font-family="Helvetica,sans-Serif" font-size="10.00">MyBLAS::TYPED_TEST</text>
</a>
</g>
</g>
<!-- Node1&#45;&gt;Node7 -->
<g id="edge7" class="edge">
<title>Node1&#45;&gt;Node7</title>
<path fill="none" stroke="midnightblue" d="M352.15,-70.45C333.63,-57.63 305.69,-39.86 279,-29 269.77,-25.24 259.63,-22.13 249.74,-19.59"/>
<polygon fill="midnightblue" stroke="midnightblue" points="350.24,-73.39 360.43,-76.29 354.28,-67.67 350.24,-73.39"/>
</g>
<!-- Node4 -->
<g id="node4" class="node">
<title>Node4</title>
<g id="a_node4"><a xlink:href="../../d3/d1d/classOutLab5.html#aa1d5363426e0ce8f620d47c1b2aa2260" target="_top" xlink:title="This function runs the project.">
<polygon fill="white" stroke="black" points="0,-95.5 0,-114.5 79,-114.5 79,-95.5 0,-95.5"/>
<text text-anchor="middle" x="39.5" y="-102.5" font-family="Helvetica,sans-Serif" font-size="10.00">OutLab5::run</text>
</a>
</g>
</g>
<!-- Node3&#45;&gt;Node4 -->
<g id="edge3" class="edge">
<title>Node3&#45;&gt;Node4</title>
<path fill="none" stroke="midnightblue" d="M125.54,-115.39C109.67,-113.45 93.39,-111.46 79.37,-109.75"/>
<polygon fill="midnightblue" stroke="midnightblue" points="125.53,-118.92 135.88,-116.65 126.38,-111.97 125.53,-118.92"/>
</g>
<!-- Node5&#45;&gt;Node4 -->
<g id="edge5" class="edge">
<title>Node5&#45;&gt;Node4</title>
<path fill="none" stroke="midnightblue" d="M107.73,-96.79C97.71,-98.01 87.94,-99.2 79.08,-100.29"/>
<polygon fill="midnightblue" stroke="midnightblue" points="108.29,-100.24 117.79,-95.56 107.44,-93.29 108.29,-100.24"/>
</g>
</g>
</svg>
