<?xml version="1.0" encoding="UTF-8" standalone="no"?>
<!DOCTYPE svg PUBLIC "-//W3C//DTD SVG 1.1//EN"
 "http://www.w3.org/Graphics/SVG/1.1/DTD/svg11.dtd">
<!-- Generated by graphviz version 2.43.0 (0)
 -->
<!-- Title: MyBLAS::Matrix::operator&#45; Pages: 1 -->
<svg width="333pt" height="66pt"
 viewBox="0.00 0.00 333.00 66.00" xmlns="http://www.w3.org/2000/svg" xmlns:xlink="http://www.w3.org/1999/xlink">
<g id="graph0" class="graph" transform="scale(1 1) rotate(0) translate(4 62)">
<title>MyBLAS::Matrix::operator&#45;</title>
<polygon fill="white" stroke="transparent" points="-4,4 -4,-62 329,-62 329,4 -4,4"/>
<!-- Node1 -->
<g id="node1" class="node">
<title>Node1</title>
<g id="a_node1"><a xlink:title="Overloaded operator&#45; to subtract two matrices.">
<polygon fill="#bfbfbf" stroke="black" points="0,-19.5 0,-38.5 146,-38.5 146,-19.5 0,-19.5"/>
<text text-anchor="middle" x="73" y="-26.5" font-family="Helvetica,sans-Serif" font-size="10.00">MyBLAS::Matrix::operator&#45;</text>
</a>
</g>
</g>
<!-- Node2 -->
<g id="node2" class="node">
<title>Node2</title>
<g id="a_node2"><a xlink:href="../../d0/d27/classMyBLAS_1_1Matrix.html#a720cd9095d330d43de367bfbffffb864" target="_top" xlink:title="Getter for the number of columns in the matrix.">
<polygon fill="white" stroke="black" points="185,-38.5 185,-57.5 322,-57.5 322,-38.5 185,-38.5"/>
<text text-anchor="middle" x="253.5" y="-45.5" font-family="Helvetica,sans-Serif" font-size="10.00">MyBLAS::Matrix::getCols</text>
</a>
</g>
</g>
<!-- Node1&#45;&gt;Node2 -->
<g id="edge1" class="edge">
<title>Node1&#45;&gt;Node2</title>
<path fill="none" stroke="midnightblue" d="M146.09,-36.67C155.47,-37.67 165.11,-38.7 174.58,-39.71"/>
<polygon fill="midnightblue" stroke="midnightblue" points="174.45,-43.21 184.77,-40.79 175.19,-36.25 174.45,-43.21"/>
</g>
<!-- Node3 -->
<g id="node3" class="node">
<title>Node3</title>
<g id="a_node3"><a xlink:href="../../d0/d27/classMyBLAS_1_1Matrix.html#a0772df3e76eadc9035e847316de0d249" target="_top" xlink:title="Getter for the number of rows in the matrix.">
<polygon fill="white" stroke="black" points="182,-0.5 182,-19.5 325,-19.5 325,-0.5 182,-0.5"/>
<text text-anchor="middle" x="253.5" y="-7.5" font-family="Helvetica,sans-Serif" font-size="10.00">MyBLAS::Matrix::getRows</text>
</a>
</g>
</g>
<!-- Node1&#45;&gt;Node3 -->
<g id="edge2" class="edge">
<title>Node1&#45;&gt;Node3</title>
<path fill="none" stroke="midnightblue" d="M146.09,-21.33C154.57,-20.42 163.27,-19.5 171.86,-18.58"/>
<polygon fill="midnightblue" stroke="midnightblue" points="172.31,-22.06 181.88,-17.52 171.57,-15.09 172.31,-22.06"/>
</g>
</g>
</svg>
