<?xml version="1.0" encoding="UTF-8" standalone="no"?>
<!DOCTYPE svg PUBLIC "-//W3C//DTD SVG 1.1//EN"
 "http://www.w3.org/Graphics/SVG/1.1/DTD/svg11.dtd">
<!-- Generated by graphviz version 2.43.0 (0)
 -->
<!-- Title: MyBLAS::Matrix::swapRows Pages: 1 -->
<svg width="475pt" height="142pt"
 viewBox="0.00 0.00 475.00 142.00" xmlns="http://www.w3.org/2000/svg" xmlns:xlink="http://www.w3.org/1999/xlink">
<g id="graph0" class="graph" transform="scale(1 1) rotate(0) translate(4 138)">
<title>MyBLAS::Matrix::swapRows</title>
<polygon fill="white" stroke="transparent" points="-4,4 -4,-138 471,-138 471,4 -4,4"/>
<!-- Node1 -->
<g id="node1" class="node">
<title>Node1</title>
<g id="a_node1"><a xlink:title="Swaps two rows in the matrix.">
<polygon fill="#bfbfbf" stroke="black" points="315,-57.5 315,-76.5 467,-76.5 467,-57.5 315,-57.5"/>
<text text-anchor="middle" x="391" y="-64.5" font-family="Helvetica,sans-Serif" font-size="10.00">MyBLAS::Matrix::swapRows</text>
</a>
</g>
</g>
<!-- Node2 -->
<g id="node2" class="node">
<title>Node2</title>
<g id="a_node2"><a xlink:href="../../d6/d82/labs_2outlab5_2Compute_8h.html#a42561c10d9c1157e9f1dcd9e940061a2" target="_top" xlink:title="Performs Doolittle&#39;s LU factorization with partial pivoting on a given matrix.">
<polygon fill="white" stroke="black" points="136,-114.5 136,-133.5 258,-133.5 258,-114.5 136,-114.5"/>
<text text-anchor="middle" x="197" y="-121.5" font-family="Helvetica,sans-Serif" font-size="10.00">dooLittleFactorizeLUP</text>
</a>
</g>
</g>
<!-- Node1&#45;&gt;Node2 -->
<g id="edge1" class="edge">
<title>Node1&#45;&gt;Node2</title>
<path fill="none" stroke="midnightblue" d="M354.77,-80.07C333.08,-87.85 304.63,-97.63 279,-105 267.2,-108.39 254.31,-111.63 242.35,-114.44"/>
<polygon fill="midnightblue" stroke="midnightblue" points="356.01,-83.34 364.22,-76.64 353.62,-76.76 356.01,-83.34"/>
</g>
<!-- Node4 -->
<g id="node4" class="node">
<title>Node4</title>
<g id="a_node4"><a xlink:href="../../d6/d82/labs_2outlab5_2Compute_8h.html#a06469338a0b66fbb6224d51ec170b8ad" target="_top" xlink:title="Performs LU factorization with partial pivoting on a given matrix.">
<polygon fill="white" stroke="black" points="115,-76.5 115,-95.5 279,-95.5 279,-76.5 115,-76.5"/>
<text text-anchor="middle" x="197" y="-83.5" font-family="Helvetica,sans-Serif" font-size="10.00">factorizeLUwithPartialPivoting</text>
</a>
</g>
</g>
<!-- Node1&#45;&gt;Node4 -->
<g id="edge3" class="edge">
<title>Node1&#45;&gt;Node4</title>
<path fill="none" stroke="midnightblue" d="M304.92,-75.42C296.31,-76.27 287.59,-77.13 279.03,-77.98"/>
<polygon fill="midnightblue" stroke="midnightblue" points="305.34,-78.9 314.94,-74.43 304.65,-71.93 305.34,-78.9"/>
</g>
<!-- Node5 -->
<g id="node5" class="node">
<title>Node5</title>
<g id="a_node5"><a xlink:href="../../d6/d82/labs_2outlab5_2Compute_8h.html#a4af95e0f3db41e42885c47e81a6aecd8" target="_top" xlink:title="Performs recursive LU factorization with partial pivoting on a given matrix.">
<polygon fill="white" stroke="black" points="135,-38.5 135,-57.5 259,-57.5 259,-38.5 135,-38.5"/>
<text text-anchor="middle" x="197" y="-45.5" font-family="Helvetica,sans-Serif" font-size="10.00">recursiveFactorizeLUP</text>
</a>
</g>
</g>
<!-- Node1&#45;&gt;Node5 -->
<g id="edge5" class="edge">
<title>Node1&#45;&gt;Node5</title>
<path fill="none" stroke="midnightblue" d="M304.88,-58.58C289.45,-57.05 273.64,-55.49 259.07,-54.04"/>
<polygon fill="midnightblue" stroke="midnightblue" points="304.65,-62.07 314.94,-59.57 305.34,-55.1 304.65,-62.07"/>
</g>
<!-- Node6 -->
<g id="node6" class="node">
<title>Node6</title>
<g id="a_node6"><a xlink:href="../../d2/d6e/namespaceMyBLAS.html#a52f08abceee687dd868844d780177aa0" target="_top" xlink:title=" ">
<polygon fill="white" stroke="black" points="135,-0.5 135,-19.5 259,-19.5 259,-0.5 135,-0.5"/>
<text text-anchor="middle" x="197" y="-7.5" font-family="Helvetica,sans-Serif" font-size="10.00">MyBLAS::TYPED_TEST</text>
</a>
</g>
</g>
<!-- Node1&#45;&gt;Node6 -->
<g id="edge6" class="edge">
<title>Node1&#45;&gt;Node6</title>
<path fill="none" stroke="midnightblue" d="M354.77,-53.93C333.08,-46.15 304.63,-36.37 279,-29 267.2,-25.61 254.31,-22.37 242.35,-19.56"/>
<polygon fill="midnightblue" stroke="midnightblue" points="353.62,-57.24 364.22,-57.36 356.01,-50.66 353.62,-57.24"/>
</g>
<!-- Node3 -->
<g id="node3" class="node">
<title>Node3</title>
<g id="a_node3"><a xlink:href="../../d3/d1d/classOutLab5.html#aa1d5363426e0ce8f620d47c1b2aa2260" target="_top" xlink:title="This function runs the project.">
<polygon fill="white" stroke="black" points="0,-95.5 0,-114.5 79,-114.5 79,-95.5 0,-95.5"/>
<text text-anchor="middle" x="39.5" y="-102.5" font-family="Helvetica,sans-Serif" font-size="10.00">OutLab5::run</text>
</a>
</g>
</g>
<!-- Node2&#45;&gt;Node3 -->
<g id="edge2" class="edge">
<title>Node2&#45;&gt;Node3</title>
<path fill="none" stroke="midnightblue" d="M125.54,-115.39C109.67,-113.45 93.39,-111.46 79.37,-109.75"/>
<polygon fill="midnightblue" stroke="midnightblue" points="125.53,-118.92 135.88,-116.65 126.38,-111.97 125.53,-118.92"/>
</g>
<!-- Node4&#45;&gt;Node3 -->
<g id="edge4" class="edge">
<title>Node4&#45;&gt;Node3</title>
<path fill="none" stroke="midnightblue" d="M107.73,-96.79C97.71,-98.01 87.94,-99.2 79.08,-100.29"/>
<polygon fill="midnightblue" stroke="midnightblue" points="108.29,-100.24 117.79,-95.56 107.44,-93.29 108.29,-100.24"/>
</g>
</g>
</svg>
