<?xml version="1.0" encoding="UTF-8" standalone="no"?>
<!DOCTYPE svg PUBLIC "-//W3C//DTD SVG 1.1//EN"
 "http://www.w3.org/Graphics/SVG/1.1/DTD/svg11.dtd">
<!-- Generated by graphviz version 2.43.0 (0)
 -->
<!-- Title: MyMath::isfinite Pages: 1 -->
<svg width="477pt" height="296pt"
 viewBox="0.00 0.00 477.00 296.00" xmlns="http://www.w3.org/2000/svg" xmlns:xlink="http://www.w3.org/1999/xlink">
<g id="graph0" class="graph" transform="scale(1 1) rotate(0) translate(4 292)">
<title>MyMath::isfinite</title>
<polygon fill="white" stroke="transparent" points="-4,4 -4,-292 473,-292 473,4 -4,4"/>
<!-- Node1 -->
<g id="node1" class="node">
<title>Node1</title>
<g id="a_node1"><a xlink:title="Check if a numeric value is finite.">
<polygon fill="#bfbfbf" stroke="black" points="374,-137 374,-156 469,-156 469,-137 374,-137"/>
<text text-anchor="middle" x="421.5" y="-144" font-family="Helvetica,sans-Serif" font-size="10.00">MyMath::isfinite</text>
</a>
</g>
</g>
<!-- Node2 -->
<g id="node2" class="node">
<title>Node2</title>
<g id="a_node2"><a xlink:href="../../d6/d0c/structMyPhysics_1_1Diffusion_1_1Params.html#a30309309eca48155dfd1542c8bbfd28d" target="_top" xlink:title="Set the length of the rectangular region in the x&#45;direction.">
<polygon fill="white" stroke="black" points="187,-257.5 187,-287.5 305,-287.5 305,-257.5 187,-257.5"/>
<text text-anchor="start" x="195" y="-275.5" font-family="Helvetica,sans-Serif" font-size="10.00">MyPhysics::Diffusion</text>
<text text-anchor="middle" x="246" y="-264.5" font-family="Helvetica,sans-Serif" font-size="10.00">::Params::setA</text>
</a>
</g>
</g>
<!-- Node1&#45;&gt;Node2 -->
<g id="edge1" class="edge">
<title>Node1&#45;&gt;Node2</title>
<path fill="none" stroke="midnightblue" d="M410.6,-164.86C397.2,-187.93 371.13,-227.06 338,-248.5 328.12,-254.89 316.6,-259.58 305.15,-263.03"/>
<polygon fill="midnightblue" stroke="midnightblue" points="413.7,-166.49 415.54,-156.06 407.59,-163.06 413.7,-166.49"/>
</g>
<!-- Node5 -->
<g id="node5" class="node">
<title>Node5</title>
<g id="a_node5"><a xlink:href="../../d6/d0c/structMyPhysics_1_1Diffusion_1_1Params.html#a428a7ef7a3983226d32e4510331f2a3e" target="_top" xlink:title="Set the length of the rectangular region in the y&#45;direction.">
<polygon fill="white" stroke="black" points="187,-208.5 187,-238.5 305,-238.5 305,-208.5 187,-208.5"/>
<text text-anchor="start" x="195" y="-226.5" font-family="Helvetica,sans-Serif" font-size="10.00">MyPhysics::Diffusion</text>
<text text-anchor="middle" x="246" y="-215.5" font-family="Helvetica,sans-Serif" font-size="10.00">::Params::setB</text>
</a>
</g>
</g>
<!-- Node1&#45;&gt;Node5 -->
<g id="edge4" class="edge">
<title>Node1&#45;&gt;Node5</title>
<path fill="none" stroke="midnightblue" d="M400.2,-162.12C384.1,-173.85 360.61,-189.55 338,-199.5 327.68,-204.04 316.31,-207.88 305.21,-211.06"/>
<polygon fill="midnightblue" stroke="midnightblue" points="402.4,-164.84 408.34,-156.07 398.23,-159.22 402.4,-164.84"/>
</g>
<!-- Node6 -->
<g id="node6" class="node">
<title>Node6</title>
<g id="a_node6"><a xlink:href="../../d6/d0c/structMyPhysics_1_1Diffusion_1_1Params.html#a20ac492c484cf2eab9cb4a274efdf581" target="_top" xlink:title="Set the diffusion coefficient for the diffusion equation.">
<polygon fill="white" stroke="black" points="158,-159.5 158,-189.5 334,-189.5 334,-159.5 158,-159.5"/>
<text text-anchor="start" x="166" y="-177.5" font-family="Helvetica,sans-Serif" font-size="10.00">MyPhysics::Diffusion</text>
<text text-anchor="middle" x="246" y="-166.5" font-family="Helvetica,sans-Serif" font-size="10.00">::Params::setDiffusionCoefficient</text>
</a>
</g>
</g>
<!-- Node1&#45;&gt;Node6 -->
<g id="edge7" class="edge">
<title>Node1&#45;&gt;Node6</title>
<path fill="none" stroke="midnightblue" d="M363.53,-155.69C354.08,-157.22 344.1,-158.83 334.11,-160.44"/>
<polygon fill="midnightblue" stroke="midnightblue" points="364.23,-159.13 373.55,-154.08 363.12,-152.22 364.23,-159.13"/>
</g>
<!-- Node7 -->
<g id="node7" class="node">
<title>Node7</title>
<g id="a_node7"><a xlink:href="../../d6/d0c/structMyPhysics_1_1Diffusion_1_1Params.html#abf0ee17b6369ab3c005ffe2e5c065bb6" target="_top" xlink:title="Set the macroscopic removal cross&#45;section.">
<polygon fill="white" stroke="black" points="154,-99 154,-140 338,-140 338,-99 154,-99"/>
<text text-anchor="start" x="162" y="-128" font-family="Helvetica,sans-Serif" font-size="10.00">MyPhysics::Diffusion</text>
<text text-anchor="start" x="162" y="-117" font-family="Helvetica,sans-Serif" font-size="10.00">::Params::setMacroscopicRemoval</text>
<text text-anchor="middle" x="246" y="-106" font-family="Helvetica,sans-Serif" font-size="10.00">CrossSection</text>
</a>
</g>
</g>
<!-- Node1&#45;&gt;Node7 -->
<g id="edge10" class="edge">
<title>Node1&#45;&gt;Node7</title>
<path fill="none" stroke="midnightblue" d="M363.45,-137.62C355.29,-136.35 346.73,-135.02 338.12,-133.68"/>
<polygon fill="midnightblue" stroke="midnightblue" points="363.13,-141.11 373.55,-139.19 364.21,-134.2 363.13,-141.11"/>
</g>
<!-- Node8 -->
<g id="node8" class="node">
<title>Node8</title>
<g id="a_node8"><a xlink:href="../../d0/d81/structMyBLAS_1_1Solver_1_1TemplatedParameters.html#a8e7a6c6d6ec9ae0612068e844e306ca3" target="_top" xlink:title="Set the relaxation factor.">
<polygon fill="white" stroke="black" points="158.5,-49.5 158.5,-79.5 333.5,-79.5 333.5,-49.5 158.5,-49.5"/>
<text text-anchor="start" x="166.5" y="-67.5" font-family="Helvetica,sans-Serif" font-size="10.00">MyBLAS::Solver::Templated</text>
<text text-anchor="middle" x="246" y="-56.5" font-family="Helvetica,sans-Serif" font-size="10.00">Parameters::setRelaxationFactor</text>
</a>
</g>
</g>
<!-- Node1&#45;&gt;Node8 -->
<g id="edge13" class="edge">
<title>Node1&#45;&gt;Node8</title>
<path fill="none" stroke="midnightblue" d="M401.2,-130.35C385.17,-117.66 361.3,-100.36 338,-89.5 329.98,-85.76 321.3,-82.49 312.58,-79.65"/>
<polygon fill="midnightblue" stroke="midnightblue" points="399.27,-133.29 409.24,-136.86 403.67,-127.85 399.27,-133.29"/>
</g>
<!-- Node9 -->
<g id="node9" class="node">
<title>Node9</title>
<g id="a_node9"><a xlink:href="../../d0/d81/structMyBLAS_1_1Solver_1_1TemplatedParameters.html#afa9c8788d8c4b328569e352f6e7c3ae9" target="_top" xlink:title="Set the convergence threshold.">
<polygon fill="white" stroke="black" points="170.5,-0.5 170.5,-30.5 321.5,-30.5 321.5,-0.5 170.5,-0.5"/>
<text text-anchor="start" x="178.5" y="-18.5" font-family="Helvetica,sans-Serif" font-size="10.00">MyBLAS::Solver::Templated</text>
<text text-anchor="middle" x="246" y="-7.5" font-family="Helvetica,sans-Serif" font-size="10.00">Parameters::setThreshold</text>
</a>
</g>
</g>
<!-- Node1&#45;&gt;Node9 -->
<g id="edge14" class="edge">
<title>Node1&#45;&gt;Node9</title>
<path fill="none" stroke="midnightblue" d="M411.2,-127.92C398.17,-103.82 372.18,-62.19 338,-39.5 332.83,-36.07 327.18,-33.12 321.33,-30.6"/>
<polygon fill="midnightblue" stroke="midnightblue" points="408.1,-129.55 415.84,-136.79 414.3,-126.3 408.1,-129.55"/>
</g>
<!-- Node3 -->
<g id="node3" class="node">
<title>Node3</title>
<g id="a_node3"><a xlink:href="../../d6/d0c/structMyPhysics_1_1Diffusion_1_1Params.html#ae42eef29388398a4c48371304b230636" target="_top" xlink:title="Constructor with initialization of parameters.">
<polygon fill="white" stroke="black" points="0,-160.5 0,-190.5 118,-190.5 118,-160.5 0,-160.5"/>
<text text-anchor="start" x="8" y="-178.5" font-family="Helvetica,sans-Serif" font-size="10.00">MyPhysics::Diffusion</text>
<text text-anchor="middle" x="59" y="-167.5" font-family="Helvetica,sans-Serif" font-size="10.00">::Params::Params</text>
</a>
</g>
</g>
<!-- Node2&#45;&gt;Node3 -->
<g id="edge2" class="edge">
<title>Node2&#45;&gt;Node3</title>
<path fill="none" stroke="midnightblue" d="M177.14,-259.93C168.99,-256.9 161.06,-253.15 154,-248.5 132.32,-234.22 138.33,-218.65 118,-202.5 112.26,-197.94 105.62,-193.94 98.94,-190.51"/>
<polygon fill="midnightblue" stroke="midnightblue" points="176.18,-263.3 186.77,-263.15 178.4,-256.66 176.18,-263.3"/>
</g>
<!-- Node4 -->
<g id="node4" class="node">
<title>Node4</title>
<g id="a_node4"><a xlink:href="../../d6/d18/DiffusionMatrixTests_8cpp.html#a23a4433db54f1fe785875a1b450edbf6" target="_top" xlink:title="Test case for testing the constructor of the DiffusionMatrix class. It verifies if the constructor pr...">
<polygon fill="white" stroke="black" points="20.5,-212 20.5,-231 97.5,-231 97.5,-212 20.5,-212"/>
<text text-anchor="middle" x="59" y="-219" font-family="Helvetica,sans-Serif" font-size="10.00">TYPED_TEST</text>
</a>
</g>
</g>
<!-- Node2&#45;&gt;Node4 -->
<g id="edge3" class="edge">
<title>Node2&#45;&gt;Node4</title>
<path fill="none" stroke="midnightblue" d="M177.28,-254.81C169.42,-252.71 161.53,-250.57 154,-248.5 133.54,-242.86 110.65,-236.29 92.58,-231.05"/>
<polygon fill="midnightblue" stroke="midnightblue" points="176.62,-258.26 187.18,-257.45 178.42,-251.5 176.62,-258.26"/>
</g>
<!-- Node5&#45;&gt;Node3 -->
<g id="edge5" class="edge">
<title>Node5&#45;&gt;Node3</title>
<path fill="none" stroke="midnightblue" d="M177.24,-205.92C157.74,-200.86 136.66,-195.39 117.82,-190.5"/>
<polygon fill="midnightblue" stroke="midnightblue" points="176.41,-209.32 186.97,-208.44 178.17,-202.54 176.41,-209.32"/>
</g>
<!-- Node5&#45;&gt;Node4 -->
<g id="edge6" class="edge">
<title>Node5&#45;&gt;Node4</title>
<path fill="none" stroke="midnightblue" d="M176.88,-222.76C150.14,-222.47 120.46,-222.15 97.7,-221.91"/>
<polygon fill="midnightblue" stroke="midnightblue" points="176.94,-226.26 186.97,-222.87 177.01,-219.26 176.94,-226.26"/>
</g>
<!-- Node6&#45;&gt;Node3 -->
<g id="edge8" class="edge">
<title>Node6&#45;&gt;Node3</title>
<path fill="none" stroke="midnightblue" d="M147.78,-175.03C137.66,-175.08 127.61,-175.13 118.12,-175.19"/>
<polygon fill="midnightblue" stroke="midnightblue" points="147.94,-178.52 157.92,-174.97 147.9,-171.52 147.94,-178.52"/>
</g>
<!-- Node6&#45;&gt;Node4 -->
<g id="edge9" class="edge">
<title>Node6&#45;&gt;Node4</title>
<path fill="none" stroke="midnightblue" d="M175.93,-192.05C149.38,-198.79 120.07,-206.24 97.56,-211.96"/>
<polygon fill="midnightblue" stroke="midnightblue" points="177.13,-195.35 185.96,-189.5 175.4,-188.57 177.13,-195.35"/>
</g>
<!-- Node7&#45;&gt;Node3 -->
<g id="edge11" class="edge">
<title>Node7&#45;&gt;Node3</title>
<path fill="none" stroke="midnightblue" d="M167.35,-143.01C147.79,-148.92 127.33,-155.12 109.58,-160.49"/>
<polygon fill="midnightblue" stroke="midnightblue" points="168.61,-146.28 177.16,-140.03 166.58,-139.58 168.61,-146.28"/>
</g>
<!-- Node7&#45;&gt;Node4 -->
<g id="edge12" class="edge">
<title>Node7&#45;&gt;Node4</title>
<path fill="none" stroke="midnightblue" d="M162.2,-145.03C159.36,-146.74 156.62,-148.56 154,-150.5 132,-166.8 139.85,-183.99 118,-200.5 111.68,-205.28 104.16,-209.05 96.68,-211.99"/>
<polygon fill="midnightblue" stroke="midnightblue" points="163.89,-148.09 170.97,-140.21 160.52,-141.96 163.89,-148.09"/>
</g>
<!-- Node10 -->
<g id="node10" class="node">
<title>Node10</title>
<g id="a_node10"><a xlink:href="../../d6/d2c/FluxCalculationTests_8cpp.html#a89e29327feb6ad5dcbe6308b08782e54" target="_top" xlink:title=" ">
<polygon fill="white" stroke="black" points="20.5,-6 20.5,-25 97.5,-25 97.5,-6 20.5,-6"/>
<text text-anchor="middle" x="59" y="-13" font-family="Helvetica,sans-Serif" font-size="10.00">TYPED_TEST</text>
</a>
</g>
</g>
<!-- Node9&#45;&gt;Node10 -->
<g id="edge15" class="edge">
<title>Node9&#45;&gt;Node10</title>
<path fill="none" stroke="midnightblue" d="M160.26,-15.5C138.31,-15.5 115.77,-15.5 97.64,-15.5"/>
<polygon fill="midnightblue" stroke="midnightblue" points="160.29,-19 170.29,-15.5 160.29,-12 160.29,-19"/>
</g>
</g>
</svg>
