<?xml version="1.0" encoding="UTF-8" standalone="no"?>
<!DOCTYPE svg PUBLIC "-//W3C//DTD SVG 1.1//EN"
 "http://www.w3.org/Graphics/SVG/1.1/DTD/svg11.dtd">
<!-- Generated by graphviz version 2.43.0 (0)
 -->
<!-- Title: MyMath::isfinite Pages: 1 -->
<svg width="477pt" height="198pt"
 viewBox="0.00 0.00 477.00 198.00" xmlns="http://www.w3.org/2000/svg" xmlns:xlink="http://www.w3.org/1999/xlink">
<g id="graph0" class="graph" transform="scale(1 1) rotate(0) translate(4 194)">
<title>MyMath::isfinite</title>
<polygon fill="white" stroke="transparent" points="-4,4 -4,-194 473,-194 473,4 -4,4"/>
<!-- Node1 -->
<g id="node1" class="node">
<title>Node1</title>
<g id="a_node1"><a xlink:title="Check if a numeric value is finite.">
<polygon fill="#bfbfbf" stroke="black" points="374,-82 374,-101 469,-101 469,-82 374,-82"/>
<text text-anchor="middle" x="421.5" y="-89" font-family="Helvetica,sans-Serif" font-size="10.00">MyMath::isfinite</text>
</a>
</g>
</g>
<!-- Node2 -->
<g id="node2" class="node">
<title>Node2</title>
<g id="a_node2"><a xlink:href="../../d6/d0c/structMyPhysics_1_1Diffusion_1_1Params.html#a30309309eca48155dfd1542c8bbfd28d" target="_top" xlink:title="Set the length of the rectangular region in the x&#45;direction.">
<polygon fill="white" stroke="black" points="187,-49.5 187,-79.5 305,-79.5 305,-49.5 187,-49.5"/>
<text text-anchor="start" x="195" y="-67.5" font-family="Helvetica,sans-Serif" font-size="10.00">MyPhysics::Diffusion</text>
<text text-anchor="middle" x="246" y="-56.5" font-family="Helvetica,sans-Serif" font-size="10.00">::Params::setA</text>
</a>
</g>
</g>
<!-- Node1&#45;&gt;Node2 -->
<g id="edge1" class="edge">
<title>Node1&#45;&gt;Node2</title>
<path fill="none" stroke="midnightblue" d="M363.66,-82.65C344.9,-79.73 324.01,-76.48 305.15,-73.55"/>
<polygon fill="midnightblue" stroke="midnightblue" points="363.13,-86.11 373.55,-84.19 364.21,-79.2 363.13,-86.11"/>
</g>
<!-- Node6 -->
<g id="node6" class="node">
<title>Node6</title>
<g id="a_node6"><a xlink:href="../../d6/d0c/structMyPhysics_1_1Diffusion_1_1Params.html#a428a7ef7a3983226d32e4510331f2a3e" target="_top" xlink:title="Set the length of the rectangular region in the y&#45;direction.">
<polygon fill="white" stroke="black" points="187,-0.5 187,-30.5 305,-30.5 305,-0.5 187,-0.5"/>
<text text-anchor="start" x="195" y="-18.5" font-family="Helvetica,sans-Serif" font-size="10.00">MyPhysics::Diffusion</text>
<text text-anchor="middle" x="246" y="-7.5" font-family="Helvetica,sans-Serif" font-size="10.00">::Params::setB</text>
</a>
</g>
</g>
<!-- Node1&#45;&gt;Node6 -->
<g id="edge5" class="edge">
<title>Node1&#45;&gt;Node6</title>
<path fill="none" stroke="midnightblue" d="M399.88,-76C383.76,-64.52 360.4,-49.24 338,-39.5 327.66,-35 316.28,-31.19 305.18,-28.01"/>
<polygon fill="midnightblue" stroke="midnightblue" points="397.89,-78.88 408.04,-81.93 402,-73.22 397.89,-78.88"/>
</g>
<!-- Node7 -->
<g id="node7" class="node">
<title>Node7</title>
<g id="a_node7"><a xlink:href="../../d6/d0c/structMyPhysics_1_1Diffusion_1_1Params.html#a20ac492c484cf2eab9cb4a274efdf581" target="_top" xlink:title="Set the diffusion coefficient for the diffusion equation.">
<polygon fill="white" stroke="black" points="158,-159.5 158,-189.5 334,-189.5 334,-159.5 158,-159.5"/>
<text text-anchor="start" x="166" y="-177.5" font-family="Helvetica,sans-Serif" font-size="10.00">MyPhysics::Diffusion</text>
<text text-anchor="middle" x="246" y="-166.5" font-family="Helvetica,sans-Serif" font-size="10.00">::Params::setDiffusionCoefficient</text>
</a>
</g>
</g>
<!-- Node1&#45;&gt;Node7 -->
<g id="edge9" class="edge">
<title>Node1&#45;&gt;Node7</title>
<path fill="none" stroke="midnightblue" d="M401.52,-107.73C385.51,-120.67 361.52,-138.42 338,-149.5 330,-153.27 321.32,-156.56 312.61,-159.41"/>
<polygon fill="midnightblue" stroke="midnightblue" points="404.05,-110.17 409.53,-101.1 399.59,-104.78 404.05,-110.17"/>
</g>
<!-- Node8 -->
<g id="node8" class="node">
<title>Node8</title>
<g id="a_node8"><a xlink:href="../../d6/d0c/structMyPhysics_1_1Diffusion_1_1Params.html#abf0ee17b6369ab3c005ffe2e5c065bb6" target="_top" xlink:title="Set the macroscopic removal cross&#45;section.">
<polygon fill="white" stroke="black" points="154,-99 154,-140 338,-140 338,-99 154,-99"/>
<text text-anchor="start" x="162" y="-128" font-family="Helvetica,sans-Serif" font-size="10.00">MyPhysics::Diffusion</text>
<text text-anchor="start" x="162" y="-117" font-family="Helvetica,sans-Serif" font-size="10.00">::Params::setMacroscopicRemoval</text>
<text text-anchor="middle" x="246" y="-106" font-family="Helvetica,sans-Serif" font-size="10.00">CrossSection</text>
</a>
</g>
</g>
<!-- Node1&#45;&gt;Node8 -->
<g id="edge13" class="edge">
<title>Node1&#45;&gt;Node8</title>
<path fill="none" stroke="midnightblue" d="M363.45,-100.71C355.29,-102.02 346.73,-103.4 338.12,-104.79"/>
<polygon fill="midnightblue" stroke="midnightblue" points="364.23,-104.13 373.55,-99.08 363.12,-97.22 364.23,-104.13"/>
</g>
<!-- Node3 -->
<g id="node3" class="node">
<title>Node3</title>
<g id="a_node3"><a xlink:href="../../d0/d40/classParser.html#a6ca8ca563d34a761bdf52e4953761181" target="_top" xlink:title="Builds the input matrices for the MyBLAS library from a JSON file.">
<polygon fill="white" stroke="black" points="5.5,-126 5.5,-145 112.5,-145 112.5,-126 5.5,-126"/>
<text text-anchor="middle" x="59" y="-133" font-family="Helvetica,sans-Serif" font-size="10.00">Parser::buildInputs</text>
</a>
</g>
</g>
<!-- Node2&#45;&gt;Node3 -->
<g id="edge2" class="edge">
<title>Node2&#45;&gt;Node3</title>
<path fill="none" stroke="midnightblue" d="M177.23,-80.05C169.23,-82.77 161.32,-85.91 154,-89.5 136.04,-98.3 135.74,-107.26 118,-116.5 110.95,-120.17 103.05,-123.32 95.41,-125.94"/>
<polygon fill="midnightblue" stroke="midnightblue" points="178.54,-83.3 187,-76.92 176.41,-76.63 178.54,-83.3"/>
</g>
<!-- Node4 -->
<g id="node4" class="node">
<title>Node4</title>
<g id="a_node4"><a xlink:href="../../d6/d0c/structMyPhysics_1_1Diffusion_1_1Params.html#ae42eef29388398a4c48371304b230636" target="_top" xlink:title="Constructor with initialization of parameters.">
<polygon fill="white" stroke="black" points="0,-76.5 0,-106.5 118,-106.5 118,-76.5 0,-76.5"/>
<text text-anchor="start" x="8" y="-94.5" font-family="Helvetica,sans-Serif" font-size="10.00">MyPhysics::Diffusion</text>
<text text-anchor="middle" x="59" y="-83.5" font-family="Helvetica,sans-Serif" font-size="10.00">::Params::Params</text>
</a>
</g>
</g>
<!-- Node2&#45;&gt;Node4 -->
<g id="edge3" class="edge">
<title>Node2&#45;&gt;Node4</title>
<path fill="none" stroke="midnightblue" d="M177.02,-74.42C157.7,-77.24 136.83,-80.29 118.14,-83.01"/>
<polygon fill="midnightblue" stroke="midnightblue" points="177.58,-77.88 186.97,-72.97 176.57,-70.95 177.58,-77.88"/>
</g>
<!-- Node5 -->
<g id="node5" class="node">
<title>Node5</title>
<g id="a_node5"><a xlink:href="../../d6/d18/DiffusionMatrixTests_8cpp.html#a23a4433db54f1fe785875a1b450edbf6" target="_top" xlink:title="Test case for testing the constructor of the DiffusionMatrix class. It verifies if the constructor pr...">
<polygon fill="white" stroke="black" points="20.5,-38 20.5,-57 97.5,-57 97.5,-38 20.5,-38"/>
<text text-anchor="middle" x="59" y="-45" font-family="Helvetica,sans-Serif" font-size="10.00">TYPED_TEST</text>
</a>
</g>
</g>
<!-- Node2&#45;&gt;Node5 -->
<g id="edge4" class="edge">
<title>Node2&#45;&gt;Node5</title>
<path fill="none" stroke="midnightblue" d="M176.88,-58.24C150.14,-55.78 120.46,-53.06 97.7,-50.96"/>
<polygon fill="midnightblue" stroke="midnightblue" points="176.69,-61.74 186.97,-59.17 177.33,-54.77 176.69,-61.74"/>
</g>
<!-- Node6&#45;&gt;Node3 -->
<g id="edge6" class="edge">
<title>Node6&#45;&gt;Node3</title>
<path fill="none" stroke="midnightblue" d="M177.32,-26.09C168.88,-29.43 160.83,-33.79 154,-39.5 125,-63.71 146.28,-91.45 118,-116.5 113.64,-120.36 108.47,-123.45 103.05,-125.9"/>
<polygon fill="midnightblue" stroke="midnightblue" points="178.66,-29.33 186.96,-22.75 176.37,-22.72 178.66,-29.33"/>
</g>
<!-- Node6&#45;&gt;Node4 -->
<g id="edge7" class="edge">
<title>Node6&#45;&gt;Node4</title>
<path fill="none" stroke="midnightblue" d="M177.23,-30.24C169.23,-32.89 161.32,-35.96 154,-39.5 136,-48.21 135.3,-56.47 118,-66.5 111.83,-70.07 105.06,-73.44 98.38,-76.48"/>
<polygon fill="midnightblue" stroke="midnightblue" points="178.48,-33.51 187,-27.21 176.41,-26.83 178.48,-33.51"/>
</g>
<!-- Node6&#45;&gt;Node5 -->
<g id="edge8" class="edge">
<title>Node6&#45;&gt;Node5</title>
<path fill="none" stroke="midnightblue" d="M176.88,-27.28C150.14,-31.91 120.46,-37.04 97.7,-40.98"/>
<polygon fill="midnightblue" stroke="midnightblue" points="177.72,-30.69 186.97,-25.54 176.52,-23.79 177.72,-30.69"/>
</g>
<!-- Node7&#45;&gt;Node3 -->
<g id="edge10" class="edge">
<title>Node7&#45;&gt;Node3</title>
<path fill="none" stroke="midnightblue" d="M163.94,-157.41C143.83,-153.17 122.98,-148.78 105.29,-145.05"/>
<polygon fill="midnightblue" stroke="midnightblue" points="163.23,-160.84 173.74,-159.48 164.68,-153.99 163.23,-160.84"/>
</g>
<!-- Node7&#45;&gt;Node4 -->
<g id="edge11" class="edge">
<title>Node7&#45;&gt;Node4</title>
<path fill="none" stroke="midnightblue" d="M166.47,-155.56C162.16,-153.72 157.98,-151.7 154,-149.5 135,-139 136.22,-128.29 118,-116.5 112.38,-112.87 106.15,-109.54 99.92,-106.59"/>
<polygon fill="midnightblue" stroke="midnightblue" points="165.44,-158.92 176.03,-159.34 168.01,-152.41 165.44,-158.92"/>
</g>
<!-- Node7&#45;&gt;Node5 -->
<g id="edge12" class="edge">
<title>Node7&#45;&gt;Node5</title>
<path fill="none" stroke="midnightblue" d="M160.14,-154.24C158,-152.77 155.95,-151.19 154,-149.5 123.63,-123.14 147.72,-93.58 118,-66.5 112.28,-61.29 105.11,-57.51 97.78,-54.76"/>
<polygon fill="midnightblue" stroke="midnightblue" points="158.39,-157.27 168.76,-159.41 161.98,-151.27 158.39,-157.27"/>
</g>
<!-- Node8&#45;&gt;Node3 -->
<g id="edge14" class="edge">
<title>Node8&#45;&gt;Node3</title>
<path fill="none" stroke="midnightblue" d="M143.66,-128.26C133.06,-129.18 122.61,-130.08 112.89,-130.93"/>
<polygon fill="midnightblue" stroke="midnightblue" points="144.19,-131.73 153.85,-127.38 143.59,-124.76 144.19,-131.73"/>
</g>
<!-- Node8&#45;&gt;Node4 -->
<g id="edge15" class="edge">
<title>Node8&#45;&gt;Node4</title>
<path fill="none" stroke="midnightblue" d="M143.91,-104.2C135.13,-102.87 126.46,-101.56 118.21,-100.31"/>
<polygon fill="midnightblue" stroke="midnightblue" points="143.44,-107.67 153.85,-105.71 144.49,-100.75 143.44,-107.67"/>
</g>
<!-- Node8&#45;&gt;Node5 -->
<g id="edge16" class="edge">
<title>Node8&#45;&gt;Node5</title>
<path fill="none" stroke="midnightblue" d="M169.26,-95.14C164.04,-93.02 158.91,-90.8 154,-88.5 137.02,-80.54 135.02,-74.36 118,-66.5 110.3,-62.95 101.75,-59.76 93.64,-57.05"/>
<polygon fill="midnightblue" stroke="midnightblue" points="168.12,-98.45 178.71,-98.84 170.67,-91.93 168.12,-98.45"/>
</g>
</g>
</svg>
