<?xml version="1.0" encoding="UTF-8" standalone="no"?>
<!DOCTYPE svg PUBLIC "-//W3C//DTD SVG 1.1//EN"
 "http://www.w3.org/Graphics/SVG/1.1/DTD/svg11.dtd">
<!-- Generated by graphviz version 2.43.0 (0)
 -->
<!-- Title: MyMath::abs Pages: 1 -->
<svg width="1045pt" height="859pt"
 viewBox="0.00 0.00 1045.00 859.00" xmlns="http://www.w3.org/2000/svg" xmlns:xlink="http://www.w3.org/1999/xlink">
<g id="graph0" class="graph" transform="scale(1 1) rotate(0) translate(4 855)">
<title>MyMath::abs</title>
<polygon fill="white" stroke="transparent" points="-4,4 -4,-855 1041,-855 1041,4 -4,4"/>
<!-- Node1 -->
<g id="node1" class="node">
<title>Node1</title>
<g id="a_node1"><a xlink:title="A template function to calculate the absolute value of a number.">
<polygon fill="#bfbfbf" stroke="black" points="957,-386.5 957,-405.5 1037,-405.5 1037,-386.5 957,-386.5"/>
<text text-anchor="middle" x="997" y="-393.5" font-family="Helvetica,sans-Serif" font-size="10.00">MyMath::abs</text>
</a>
</g>
</g>
<!-- Node2 -->
<g id="node2" class="node">
<title>Node2</title>
<g id="a_node2"><a xlink:href="../../d2/d6e/namespaceMyBLAS.html#ad38fb7c86134c4334e6bf29c2c734afd" target="_top" xlink:title="Calculates the absolute maximum residual between two containers.">
<polygon fill="white" stroke="black" points="739,-831.5 739,-850.5 908,-850.5 908,-831.5 739,-831.5"/>
<text text-anchor="middle" x="823.5" y="-838.5" font-family="Helvetica,sans-Serif" font-size="10.00">MyBLAS::AbsoluteMaxResidual</text>
</a>
</g>
</g>
<!-- Node1&#45;&gt;Node2 -->
<g id="edge1" class="edge">
<title>Node1&#45;&gt;Node2</title>
<path fill="none" stroke="midnightblue" d="M995.39,-415.69C992.62,-491.49 978.75,-763.08 921,-822 917.18,-825.9 912.8,-829.13 908.07,-831.78"/>
<polygon fill="midnightblue" stroke="midnightblue" points="998.89,-415.74 995.73,-405.62 991.89,-415.5 998.89,-415.74"/>
</g>
<!-- Node3 -->
<g id="node3" class="node">
<title>Node3</title>
<g id="a_node3"><a xlink:href="../../d0/d7d/CheckBounds_8h.html#abce8de40b5bce1a6097233d800370ffd" target="_top" xlink:title="Checks if the absolute value of the input is greater than or equal to 1.">
<polygon fill="white" stroke="black" points="751.5,-782 751.5,-812 895.5,-812 895.5,-782 751.5,-782"/>
<text text-anchor="start" x="759.5" y="-800" font-family="Helvetica,sans-Serif" font-size="10.00">absoluteValueFailsGreater</text>
<text text-anchor="middle" x="823.5" y="-789" font-family="Helvetica,sans-Serif" font-size="10.00">Than1Check</text>
</a>
</g>
</g>
<!-- Node1&#45;&gt;Node3 -->
<g id="edge2" class="edge">
<title>Node1&#45;&gt;Node3</title>
<path fill="none" stroke="midnightblue" d="M994.6,-416.02C989.35,-485.41 968.67,-714.21 921,-767 914.06,-774.68 905.2,-780.42 895.66,-784.69"/>
<polygon fill="midnightblue" stroke="midnightblue" points="998.12,-415.88 995.36,-405.65 991.14,-415.36 998.12,-415.88"/>
</g>
<!-- Node5 -->
<g id="node5" class="node">
<title>Node5</title>
<g id="a_node5"><a xlink:href="../../d2/d6e/namespaceMyBLAS.html#a6b103aca5e5fab29f3d0954b77946dc0" target="_top" xlink:title="Checks if all diagonal elements of a matrix are below a certain threshold.">
<polygon fill="white" stroke="black" points="741.5,-694 741.5,-724 905.5,-724 905.5,-694 741.5,-694"/>
<text text-anchor="start" x="749.5" y="-712" font-family="Helvetica,sans-Serif" font-size="10.00">MyBLAS::allDiagonalElements</text>
<text text-anchor="middle" x="823.5" y="-701" font-family="Helvetica,sans-Serif" font-size="10.00">BelowThreshold</text>
</a>
</g>
</g>
<!-- Node1&#45;&gt;Node5 -->
<g id="edge4" class="edge">
<title>Node1&#45;&gt;Node5</title>
<path fill="none" stroke="midnightblue" d="M993.48,-415.66C985.61,-474.15 959.64,-645.41 921,-684 916.47,-688.53 911.23,-692.26 905.59,-695.35"/>
<polygon fill="midnightblue" stroke="midnightblue" points="996.98,-415.91 994.82,-405.54 990.04,-414.99 996.98,-415.91"/>
</g>
<!-- Node20 -->
<g id="node19" class="node">
<title>Node20</title>
<g id="a_node19"><a xlink:href="../../d5/db6/namespaceMyBLAS_1_1LUP.html#a8944cf7f291594494e1140ff6b0b0fc6" target="_top" xlink:title="Performs Doolittle&#39;s LU factorization with partial pivoting on a given matrix.">
<polygon fill="white" stroke="black" points="497,-743.5 497,-762.5 690,-762.5 690,-743.5 497,-743.5"/>
<text text-anchor="middle" x="593.5" y="-750.5" font-family="Helvetica,sans-Serif" font-size="10.00">MyBLAS::LUP::dooLittleFactorizeLUP</text>
</a>
</g>
</g>
<!-- Node1&#45;&gt;Node20 -->
<g id="edge19" class="edge">
<title>Node1&#45;&gt;Node20</title>
<path fill="none" stroke="midnightblue" d="M994.64,-415.93C989.68,-482.01 970.22,-692.1 921,-734 887.33,-762.66 773.78,-763.48 690,-759.73"/>
<polygon fill="midnightblue" stroke="midnightblue" points="998.15,-415.88 995.38,-405.65 991.17,-415.37 998.15,-415.88"/>
</g>
<!-- Node25 -->
<g id="node24" class="node">
<title>Node25</title>
<g id="a_node24"><a xlink:href="../../d6/d82/labs_2outlab5_2Compute_8h.html#a42561c10d9c1157e9f1dcd9e940061a2" target="_top" xlink:title="Performs Doolittle&#39;s LU factorization with partial pivoting on a given matrix.">
<polygon fill="white" stroke="black" points="762.5,-567.5 762.5,-586.5 884.5,-586.5 884.5,-567.5 762.5,-567.5"/>
<text text-anchor="middle" x="823.5" y="-574.5" font-family="Helvetica,sans-Serif" font-size="10.00">dooLittleFactorizeLUP</text>
</a>
</g>
</g>
<!-- Node1&#45;&gt;Node25 -->
<g id="edge27" class="edge">
<title>Node1&#45;&gt;Node25</title>
<path fill="none" stroke="midnightblue" d="M992.8,-415.73C986.11,-450.33 967.2,-521.71 921,-558 910.59,-566.17 897.64,-571.14 884.64,-574.09"/>
<polygon fill="midnightblue" stroke="midnightblue" points="996.32,-415.97 994.63,-405.51 989.43,-414.74 996.32,-415.97"/>
</g>
<!-- Node27 -->
<g id="node26" class="node">
<title>Node27</title>
<g id="a_node26"><a xlink:href="../../d5/db6/namespaceMyBLAS_1_1LUP.html#aa19e5cc823ea14b1a77e48797363376d" target="_top" xlink:title="Performs LU factorization with partial pivoting on a given matrix.">
<polygon fill="white" stroke="black" points="741.5,-606 741.5,-636 905.5,-636 905.5,-606 741.5,-606"/>
<text text-anchor="start" x="749.5" y="-624" font-family="Helvetica,sans-Serif" font-size="10.00">MyBLAS::LUP::factorizeLUwith</text>
<text text-anchor="middle" x="823.5" y="-613" font-family="Helvetica,sans-Serif" font-size="10.00">PartialPivoting</text>
</a>
</g>
</g>
<!-- Node1&#45;&gt;Node27 -->
<g id="edge29" class="edge">
<title>Node1&#45;&gt;Node27</title>
<path fill="none" stroke="midnightblue" d="M994.48,-415.73C990.31,-455.88 975.06,-547.35 921,-596 916.37,-600.17 911.13,-603.66 905.55,-606.58"/>
<polygon fill="midnightblue" stroke="midnightblue" points="997.98,-415.92 995.41,-405.64 991.01,-415.28 997.98,-415.92"/>
</g>
<!-- Node28 -->
<g id="node27" class="node">
<title>Node28</title>
<g id="a_node27"><a xlink:href="../../d6/d82/labs_2outlab5_2Compute_8h.html#a06469338a0b66fbb6224d51ec170b8ad" target="_top" xlink:title="Performs LU factorization with partial pivoting on a given matrix.">
<polygon fill="white" stroke="black" points="741.5,-655.5 741.5,-674.5 905.5,-674.5 905.5,-655.5 741.5,-655.5"/>
<text text-anchor="middle" x="823.5" y="-662.5" font-family="Helvetica,sans-Serif" font-size="10.00">factorizeLUwithPartialPivoting</text>
</a>
</g>
</g>
<!-- Node1&#45;&gt;Node28 -->
<g id="edge30" class="edge">
<title>Node1&#45;&gt;Node28</title>
<path fill="none" stroke="midnightblue" d="M996.45,-415.92C996.35,-463.47 989.05,-584.25 921,-646 916.45,-650.13 911.27,-653.48 905.73,-656.17"/>
<polygon fill="midnightblue" stroke="midnightblue" points="999.94,-415.69 996.35,-405.72 992.94,-415.75 999.94,-415.69"/>
</g>
<!-- Node29 -->
<g id="node28" class="node">
<title>Node29</title>
<g id="a_node28"><a xlink:href="../../dd/d30/classMyBLAS_1_1LazyVectorTests.html#a7f45a727b4ef74e7ef161ddcb50ff270" target="_top" xlink:title=" ">
<polygon fill="white" stroke="black" points="753,-518 753,-548 894,-548 894,-518 753,-518"/>
<text text-anchor="start" x="761" y="-536" font-family="Helvetica,sans-Serif" font-size="10.00">MyBLAS::LazyVectorTests</text>
<text text-anchor="middle" x="823.5" y="-525" font-family="Helvetica,sans-Serif" font-size="10.00">::IsClose</text>
</a>
</g>
</g>
<!-- Node1&#45;&gt;Node29 -->
<g id="edge32" class="edge">
<title>Node1&#45;&gt;Node29</title>
<path fill="none" stroke="midnightblue" d="M988.42,-415.05C977.41,-440.23 954.57,-484.18 921,-508 912.95,-513.71 903.71,-518.11 894.19,-521.51"/>
<polygon fill="midnightblue" stroke="midnightblue" points="991.78,-416.09 992.41,-405.52 985.32,-413.39 991.78,-416.09"/>
</g>
<!-- Node30 -->
<g id="node29" class="node">
<title>Node30</title>
<g id="a_node29"><a xlink:href="../../da/d4c/DiffusionParamsTests_8cpp.html#a7d0201841e9193ae741085d5024f2e89" target="_top" xlink:title=" ">
<polygon fill="white" stroke="black" points="797.5,-479.5 797.5,-498.5 849.5,-498.5 849.5,-479.5 797.5,-479.5"/>
<text text-anchor="middle" x="823.5" y="-486.5" font-family="Helvetica,sans-Serif" font-size="10.00">isClose</text>
</a>
</g>
</g>
<!-- Node1&#45;&gt;Node30 -->
<g id="edge33" class="edge">
<title>Node1&#45;&gt;Node30</title>
<path fill="none" stroke="midnightblue" d="M982.99,-413.89C969.48,-431.07 946.75,-456.38 921,-470 898.66,-481.82 869.9,-486.32 849.61,-488.02"/>
<polygon fill="midnightblue" stroke="midnightblue" points="985.92,-415.82 989.18,-405.74 980.34,-411.59 985.92,-415.82"/>
</g>
<!-- Node33 -->
<g id="node32" class="node">
<title>Node33</title>
<g id="a_node32"><a xlink:href="../../d4/db5/classInLab10MatrixTests.html#ae7c513d50753815c410eb0f165485174" target="_top" xlink:title=" ">
<polygon fill="white" stroke="black" points="768,-430 768,-460 879,-460 879,-430 768,-430"/>
<text text-anchor="start" x="776" y="-448" font-family="Helvetica,sans-Serif" font-size="10.00">InLab10MatrixTests</text>
<text text-anchor="middle" x="823.5" y="-437" font-family="Helvetica,sans-Serif" font-size="10.00">::IsClose</text>
</a>
</g>
</g>
<!-- Node1&#45;&gt;Node33 -->
<g id="edge36" class="edge">
<title>Node1&#45;&gt;Node33</title>
<path fill="none" stroke="midnightblue" d="M959.3,-408.87C947.17,-412.95 933.56,-417.35 921,-421 907.49,-424.93 892.8,-428.78 879.05,-432.22"/>
<polygon fill="midnightblue" stroke="midnightblue" points="960.74,-412.07 969.08,-405.54 958.49,-405.45 960.74,-412.07"/>
</g>
<!-- Node34 -->
<g id="node33" class="node">
<title>Node34</title>
<g id="a_node33"><a xlink:href="../../d6/d09/classMyBLAS_1_1LazyMatrixTests.html#abe1a1fec7fadc6132ca6e80cb86670d5" target="_top" xlink:title=" ">
<polygon fill="white" stroke="black" points="752.5,-381 752.5,-411 894.5,-411 894.5,-381 752.5,-381"/>
<text text-anchor="start" x="760.5" y="-399" font-family="Helvetica,sans-Serif" font-size="10.00">MyBLAS::LazyMatrixTests</text>
<text text-anchor="middle" x="823.5" y="-388" font-family="Helvetica,sans-Serif" font-size="10.00">::IsClose</text>
</a>
</g>
</g>
<!-- Node1&#45;&gt;Node34 -->
<g id="edge37" class="edge">
<title>Node1&#45;&gt;Node34</title>
<path fill="none" stroke="midnightblue" d="M946.38,-396C930.23,-396 911.99,-396 894.63,-396"/>
<polygon fill="midnightblue" stroke="midnightblue" points="946.65,-399.5 956.65,-396 946.65,-392.5 946.65,-399.5"/>
</g>
<!-- Node35 -->
<g id="node34" class="node">
<title>Node35</title>
<g id="a_node34"><a xlink:href="../../d2/d6e/namespaceMyBLAS.html#a4ae8cb61e3457065790607979b939564" target="_top" xlink:title="Checks if the given matrix is diagonally dominant.">
<polygon fill="white" stroke="black" points="737.5,-342.5 737.5,-361.5 909.5,-361.5 909.5,-342.5 737.5,-342.5"/>
<text text-anchor="middle" x="823.5" y="-349.5" font-family="Helvetica,sans-Serif" font-size="10.00">MyBLAS::isDiagonallyDominant</text>
</a>
</g>
</g>
<!-- Node1&#45;&gt;Node35 -->
<g id="edge38" class="edge">
<title>Node1&#45;&gt;Node35</title>
<path fill="none" stroke="midnightblue" d="M958.75,-383.22C946.77,-379.35 933.4,-375.26 921,-372 906.44,-368.17 890.48,-364.61 875.82,-361.59"/>
<polygon fill="midnightblue" stroke="midnightblue" points="957.83,-386.61 968.42,-386.41 960.02,-379.96 957.83,-386.61"/>
</g>
<!-- Node39 -->
<g id="node38" class="node">
<title>Node39</title>
<g id="a_node38"><a xlink:href="../../d2/d6e/namespaceMyBLAS.html#af293c95e705171bdd15268039d337135" target="_top" xlink:title="Checks if the given matrix is symmetric.">
<polygon fill="white" stroke="black" points="745.5,-266.5 745.5,-285.5 901.5,-285.5 901.5,-266.5 745.5,-266.5"/>
<text text-anchor="middle" x="823.5" y="-273.5" font-family="Helvetica,sans-Serif" font-size="10.00">MyBLAS::isSymmetricMatrix</text>
</a>
</g>
</g>
<!-- Node1&#45;&gt;Node39 -->
<g id="edge43" class="edge">
<title>Node1&#45;&gt;Node39</title>
<path fill="none" stroke="midnightblue" d="M987.43,-377.18C975.83,-353.97 952.85,-315.11 921,-295 914.94,-291.17 908.26,-288.09 901.35,-285.61"/>
<polygon fill="midnightblue" stroke="midnightblue" points="984.35,-378.85 991.83,-386.35 990.66,-375.82 984.35,-378.85"/>
</g>
<!-- Node42 -->
<g id="node41" class="node">
<title>Node42</title>
<g id="a_node41"><a xlink:href="../../d2/d6e/namespaceMyBLAS.html#a95a31a537601936a645cd405411f3732" target="_top" xlink:title="Makes the given matrix diagonally dominant.">
<polygon fill="white" stroke="black" points="728,-304.5 728,-323.5 919,-323.5 919,-304.5 728,-304.5"/>
<text text-anchor="middle" x="823.5" y="-311.5" font-family="Helvetica,sans-Serif" font-size="10.00">MyBLAS::makeDiagonallyDominant</text>
</a>
</g>
</g>
<!-- Node1&#45;&gt;Node42 -->
<g id="edge46" class="edge">
<title>Node1&#45;&gt;Node42</title>
<path fill="none" stroke="midnightblue" d="M980.43,-378.75C966.35,-364.25 944.29,-344.15 921,-333 912.84,-329.09 903.92,-325.99 894.91,-323.52"/>
<polygon fill="midnightblue" stroke="midnightblue" points="977.99,-381.26 987.39,-386.13 983.08,-376.46 977.99,-381.26"/>
</g>
<!-- Node43 -->
<g id="node42" class="node">
<title>Node43</title>
<g id="a_node42"><a xlink:href="../../d7/d64/labs_2inlab1_2Compute_8h.html#a36cda562827f6a51f45b57740f8ea850" target="_top" xlink:title="Function to compute sine using a recursive, iterative taylor series discretization approach.">
<polygon fill="white" stroke="black" points="785,-190.5 785,-209.5 862,-209.5 862,-190.5 785,-190.5"/>
<text text-anchor="middle" x="823.5" y="-197.5" font-family="Helvetica,sans-Serif" font-size="10.00">my_sisd_sin</text>
</a>
</g>
</g>
<!-- Node1&#45;&gt;Node43 -->
<g id="edge48" class="edge">
<title>Node1&#45;&gt;Node43</title>
<path fill="none" stroke="midnightblue" d="M993.17,-376.3C986.94,-340.38 968.6,-264.23 921,-224 904.78,-210.29 881.87,-204.22 862.44,-201.6"/>
<polygon fill="midnightblue" stroke="midnightblue" points="989.76,-377.13 994.79,-386.45 996.67,-376.03 989.76,-377.13"/>
</g>
<!-- Node45 -->
<g id="node44" class="node">
<title>Node45</title>
<g id="a_node44"><a xlink:href="../../dd/d40/classInLab1.html#a4e079d8eddd4a202eb5a0373d8fb8ab7" target="_top" xlink:title="Executes the project.">
<polygon fill="white" stroke="black" points="358.5,-209.5 358.5,-228.5 429.5,-228.5 429.5,-209.5 358.5,-209.5"/>
<text text-anchor="middle" x="394" y="-216.5" font-family="Helvetica,sans-Serif" font-size="10.00">InLab1::run</text>
</a>
</g>
</g>
<!-- Node1&#45;&gt;Node45 -->
<g id="edge54" class="edge">
<title>Node1&#45;&gt;Node45</title>
<path fill="none" stroke="midnightblue" d="M991.75,-376.34C983.85,-345.03 963.65,-284.58 921,-257 879.87,-230.4 539.94,-221.72 429.51,-219.58"/>
<polygon fill="midnightblue" stroke="midnightblue" points="988.43,-377.51 994.13,-386.44 995.25,-375.9 988.43,-377.51"/>
</g>
<!-- Node46 -->
<g id="node45" class="node">
<title>Node46</title>
<g id="a_node45"><a xlink:href="../../db/df1/Helpers_8h.html#ae8d5abc9a487df9eaa8058819e252d0f" target="_top" xlink:title="Prints the Julia set to the console using the specified canvas properties.">
<polygon fill="white" stroke="black" points="785.5,-152.5 785.5,-171.5 861.5,-171.5 861.5,-152.5 785.5,-152.5"/>
<text text-anchor="middle" x="823.5" y="-159.5" font-family="Helvetica,sans-Serif" font-size="10.00">printJuliaSet</text>
</a>
</g>
</g>
<!-- Node1&#45;&gt;Node46 -->
<g id="edge51" class="edge">
<title>Node1&#45;&gt;Node46</title>
<path fill="none" stroke="midnightblue" d="M995.33,-376.29C992.75,-333.65 980.35,-232.51 921,-181 904.88,-167.01 881.5,-162.15 861.78,-160.84"/>
<polygon fill="midnightblue" stroke="midnightblue" points="991.84,-376.65 995.82,-386.47 998.83,-376.31 991.84,-376.65"/>
</g>
<!-- Node47 -->
<g id="node46" class="node">
<title>Node47</title>
<g id="a_node46"><a xlink:href="../../d5/db6/namespaceMyBLAS_1_1LUP.html#a48eb37045c402e55ca4e086164f2911e" target="_top" xlink:title="Performs recursive LU factorization with partial pivoting on a given matrix.">
<polygon fill="white" stroke="black" points="726,-114.5 726,-133.5 921,-133.5 921,-114.5 726,-114.5"/>
<text text-anchor="middle" x="823.5" y="-121.5" font-family="Helvetica,sans-Serif" font-size="10.00">MyBLAS::LUP::recursiveFactorizeLUP</text>
</a>
</g>
</g>
<!-- Node1&#45;&gt;Node47 -->
<g id="edge52" class="edge">
<title>Node1&#45;&gt;Node47</title>
<path fill="none" stroke="midnightblue" d="M996.53,-376.18C996.65,-328.3 989.85,-205.68 921,-143 916.96,-139.32 912.42,-136.27 907.57,-133.73"/>
<polygon fill="midnightblue" stroke="midnightblue" points="993.03,-376.38 996.39,-386.42 1000.03,-376.47 993.03,-376.38"/>
</g>
<!-- Node48 -->
<g id="node47" class="node">
<title>Node48</title>
<g id="a_node47"><a xlink:href="../../d6/d82/labs_2outlab5_2Compute_8h.html#a4af95e0f3db41e42885c47e81a6aecd8" target="_top" xlink:title="Performs recursive LU factorization with partial pivoting on a given matrix.">
<polygon fill="white" stroke="black" points="761.5,-76.5 761.5,-95.5 885.5,-95.5 885.5,-76.5 761.5,-76.5"/>
<text text-anchor="middle" x="823.5" y="-83.5" font-family="Helvetica,sans-Serif" font-size="10.00">recursiveFactorizeLUP</text>
</a>
</g>
</g>
<!-- Node1&#45;&gt;Node48 -->
<g id="edge53" class="edge">
<title>Node1&#45;&gt;Node48</title>
<path fill="none" stroke="midnightblue" d="M993.62,-376.03C986.12,-316.64 961.11,-142.85 921,-105 911.31,-95.86 898.57,-90.52 885.54,-87.52"/>
<polygon fill="midnightblue" stroke="midnightblue" points="990.19,-376.81 994.88,-386.31 997.13,-375.96 990.19,-376.81"/>
</g>
<!-- Node49 -->
<g id="node48" class="node">
<title>Node49</title>
<g id="a_node48"><a xlink:href="../../d6/d18/DiffusionMatrixTests_8cpp.html#a12654648a1f9af09c57421728946d046" target="_top" xlink:title="Test case for checking the zero elements of the diffusion matrix.">
<polygon fill="white" stroke="black" points="785,-38.5 785,-57.5 862,-57.5 862,-38.5 785,-38.5"/>
<text text-anchor="middle" x="823.5" y="-45.5" font-family="Helvetica,sans-Serif" font-size="10.00">TYPED_TEST</text>
</a>
</g>
</g>
<!-- Node1&#45;&gt;Node49 -->
<g id="edge55" class="edge">
<title>Node1&#45;&gt;Node49</title>
<path fill="none" stroke="midnightblue" d="M994.29,-376.42C988.3,-312.38 966.11,-110.79 921,-67 905.68,-52.13 882.32,-47.26 862.41,-46.16"/>
<polygon fill="midnightblue" stroke="midnightblue" points="990.81,-376.76 995.2,-386.4 997.78,-376.13 990.81,-376.76"/>
</g>
<!-- Node50 -->
<g id="node49" class="node">
<title>Node50</title>
<g id="a_node49"><a xlink:href="../../da/db0/namespaceRootFinder.html#ab4debb5ce3425fb3d5983d2b63688d87" target="_top" xlink:title="Finds the root of a given function using the Newton&#45;Raphson method.">
<polygon fill="white" stroke="black" points="733,-0.5 733,-19.5 914,-19.5 914,-0.5 733,-0.5"/>
<text text-anchor="middle" x="823.5" y="-7.5" font-family="Helvetica,sans-Serif" font-size="10.00">RootFinder::usingNewtonRaphson</text>
</a>
</g>
</g>
<!-- Node1&#45;&gt;Node50 -->
<g id="edge56" class="edge">
<title>Node1&#45;&gt;Node50</title>
<path fill="none" stroke="midnightblue" d="M994.76,-376C990.05,-306.74 970.95,-78.59 921,-29 917.24,-25.27 912.98,-22.17 908.39,-19.59"/>
<polygon fill="midnightblue" stroke="midnightblue" points="991.29,-376.61 995.44,-386.36 998.28,-376.16 991.29,-376.61"/>
</g>
<!-- Node4 -->
<g id="node4" class="node">
<title>Node4</title>
<g id="a_node4"><a xlink:href="../../d0/d40/classParser.html#ab198abe8fec39f369ea744358666859c" target="_top" xlink:title="Performs input checks on the input variables.">
<polygon fill="white" stroke="black" points="508.5,-782 508.5,-812 678.5,-812 678.5,-782 508.5,-782"/>
<text text-anchor="start" x="516.5" y="-800" font-family="Helvetica,sans-Serif" font-size="10.00">Parser::performInputArguments</text>
<text text-anchor="middle" x="593.5" y="-789" font-family="Helvetica,sans-Serif" font-size="10.00">Check</text>
</a>
</g>
</g>
<!-- Node3&#45;&gt;Node4 -->
<g id="edge3" class="edge">
<title>Node3&#45;&gt;Node4</title>
<path fill="none" stroke="midnightblue" d="M741.17,-797C720.91,-797 699.14,-797 678.74,-797"/>
<polygon fill="midnightblue" stroke="midnightblue" points="741.3,-800.5 751.3,-797 741.3,-793.5 741.3,-800.5"/>
</g>
<!-- Node6 -->
<g id="node6" class="node">
<title>Node6</title>
<g id="a_node6"><a xlink:href="../../d2/d6e/namespaceMyBLAS.html#a56e77d4aef50489830f5ce0ef7bcf7a4" target="_top" xlink:title="Checks if there are no zeros in the diagonal of a matrix.">
<polygon fill="white" stroke="black" points="516,-630.5 516,-649.5 671,-649.5 671,-630.5 516,-630.5"/>
<text text-anchor="middle" x="593.5" y="-637.5" font-family="Helvetica,sans-Serif" font-size="10.00">MyBLAS::noZerosInDiagonal</text>
</a>
</g>
</g>
<!-- Node5&#45;&gt;Node6 -->
<g id="edge5" class="edge">
<title>Node5&#45;&gt;Node6</title>
<path fill="none" stroke="midnightblue" d="M751.98,-691.34C743.21,-688.96 734.38,-686.48 726,-684 689.42,-673.15 647.73,-658.87 621.27,-649.57"/>
<polygon fill="midnightblue" stroke="midnightblue" points="751.27,-694.77 761.84,-693.97 753.08,-688.01 751.27,-694.77"/>
</g>
<!-- Node19 -->
<g id="node18" class="node">
<title>Node19</title>
<g id="a_node18"><a xlink:href="../../d1/d18/namespaceMyFactorizationMethod.html#af023ef80907979472242ab3db7dcd9ff" target="_top" xlink:title="Function to check if the factorized matrices pass the post&#45;checks for the factorization methods.">
<polygon fill="white" stroke="black" points="528,-694 528,-724 659,-724 659,-694 528,-694"/>
<text text-anchor="start" x="536" y="-712" font-family="Helvetica,sans-Serif" font-size="10.00">MyFactorizationMethod</text>
<text text-anchor="middle" x="593.5" y="-701" font-family="Helvetica,sans-Serif" font-size="10.00">::passesPostChecks</text>
</a>
</g>
</g>
<!-- Node5&#45;&gt;Node19 -->
<g id="edge18" class="edge">
<title>Node5&#45;&gt;Node19</title>
<path fill="none" stroke="midnightblue" d="M731.23,-709C707.1,-709 681.56,-709 659.16,-709"/>
<polygon fill="midnightblue" stroke="midnightblue" points="731.47,-712.5 741.47,-709 731.47,-705.5 731.47,-712.5"/>
</g>
<!-- Node7 -->
<g id="node7" class="node">
<title>Node7</title>
<g id="a_node7"><a xlink:href="../../d7/d9a/namespaceMyRelaxationMethod.html#a985bd80ba02c84e9d1ca2e434a32bd3f" target="_top" xlink:title="Function to perform pre&#45;checks on the coefficient matrix and the right&#45;hand side vector.">
<polygon fill="white" stroke="black" points="333.5,-569 333.5,-599 454.5,-599 454.5,-569 333.5,-569"/>
<text text-anchor="start" x="341.5" y="-587" font-family="Helvetica,sans-Serif" font-size="10.00">MyRelaxationMethod</text>
<text text-anchor="middle" x="394" y="-576" font-family="Helvetica,sans-Serif" font-size="10.00">::passesPreChecks</text>
</a>
</g>
</g>
<!-- Node6&#45;&gt;Node7 -->
<g id="edge6" class="edge">
<title>Node6&#45;&gt;Node7</title>
<path fill="none" stroke="midnightblue" d="M548.88,-627.63C519.19,-619.21 479.72,-608.02 448.19,-599.08"/>
<polygon fill="midnightblue" stroke="midnightblue" points="547.97,-631.01 558.55,-630.37 549.88,-624.28 547.97,-631.01"/>
</g>
<!-- Node18 -->
<g id="node17" class="node">
<title>Node18</title>
<g id="a_node17"><a xlink:href="../../d2/d6e/namespaceMyBLAS.html#a54e4656d322c843fb239547df942f8ae" target="_top" xlink:title=" ">
<polygon fill="white" stroke="black" points="332,-630.5 332,-649.5 456,-649.5 456,-630.5 332,-630.5"/>
<text text-anchor="middle" x="394" y="-637.5" font-family="Helvetica,sans-Serif" font-size="10.00">MyBLAS::TYPED_TEST</text>
</a>
</g>
</g>
<!-- Node6&#45;&gt;Node18 -->
<g id="edge17" class="edge">
<title>Node6&#45;&gt;Node18</title>
<path fill="none" stroke="midnightblue" d="M505.59,-640C488.98,-640 471.91,-640 456.31,-640"/>
<polygon fill="midnightblue" stroke="midnightblue" points="505.86,-643.5 515.86,-640 505.86,-636.5 505.86,-643.5"/>
</g>
<!-- Node8 -->
<g id="node8" class="node">
<title>Node8</title>
<g id="a_node8"><a xlink:href="../../de/db3/namespaceCompute.html#a017b511b9ab24d2388a864d6cb14c1cc" target="_top" xlink:title="Solves a linear system using the Gauss&#45;Seidel method.">
<polygon fill="white" stroke="black" points="126.5,-669.5 126.5,-688.5 279.5,-688.5 279.5,-669.5 126.5,-669.5"/>
<text text-anchor="middle" x="203" y="-676.5" font-family="Helvetica,sans-Serif" font-size="10.00">Compute::usingGaussSeidel</text>
</a>
</g>
</g>
<!-- Node7&#45;&gt;Node8 -->
<g id="edge7" class="edge">
<title>Node7&#45;&gt;Node8</title>
<path fill="none" stroke="midnightblue" d="M352.52,-604.04C343.77,-609.09 334.81,-614.84 327,-621 308.48,-635.61 311.47,-648.28 291,-660 284.29,-663.84 276.89,-666.91 269.31,-669.36"/>
<polygon fill="midnightblue" stroke="midnightblue" points="354.46,-606.96 361.5,-599.05 351.06,-600.84 354.46,-606.96"/>
</g>
<!-- Node9 -->
<g id="node9" class="node">
<title>Node9</title>
<g id="a_node9"><a xlink:href="../../de/db3/namespaceCompute.html#a3b30a49d004f8370d19cd13f6492ddba" target="_top" xlink:title="Solves a linear system using the Jacobi SOR method.">
<polygon fill="white" stroke="red" points="131.5,-631.5 131.5,-650.5 274.5,-650.5 274.5,-631.5 131.5,-631.5"/>
<text text-anchor="middle" x="203" y="-638.5" font-family="Helvetica,sans-Serif" font-size="10.00">Compute::usingJacobiSOR</text>
</a>
</g>
</g>
<!-- Node7&#45;&gt;Node9 -->
<g id="edge8" class="edge">
<title>Node7&#45;&gt;Node9</title>
<path fill="none" stroke="midnightblue" d="M346.32,-602.98C329.11,-609.55 309.34,-616.61 291,-622 278.99,-625.53 265.86,-628.73 253.54,-631.45"/>
<polygon fill="midnightblue" stroke="midnightblue" points="348.06,-606.05 356.12,-599.18 345.53,-599.53 348.06,-606.05"/>
</g>
<!-- Node14 -->
<g id="node13" class="node">
<title>Node14</title>
<g id="a_node13"><a xlink:href="../../de/db3/namespaceCompute.html#a0741aa46b479eae78cfad76bdf7cb091" target="_top" xlink:title="Solves a linear system using the Point Jacobi method.">
<polygon fill="white" stroke="black" points="129.5,-593.5 129.5,-612.5 276.5,-612.5 276.5,-593.5 129.5,-593.5"/>
<text text-anchor="middle" x="203" y="-600.5" font-family="Helvetica,sans-Serif" font-size="10.00">Compute::usingPointJacobi</text>
</a>
</g>
</g>
<!-- Node7&#45;&gt;Node14 -->
<g id="edge12" class="edge">
<title>Node7&#45;&gt;Node14</title>
<path fill="none" stroke="midnightblue" d="M323.11,-591.03C307.91,-592.55 291.8,-594.17 276.51,-595.71"/>
<polygon fill="midnightblue" stroke="midnightblue" points="323.86,-594.47 333.46,-589.99 323.16,-587.5 323.86,-594.47"/>
</g>
<!-- Node15 -->
<g id="node14" class="node">
<title>Node15</title>
<g id="a_node14"><a xlink:href="../../de/db3/namespaceCompute.html#acfa0341940d2764e69d254afdc2cbb23" target="_top" xlink:title="Solves a linear system using the Successive Over&#45;Relaxation (SOR) method.">
<polygon fill="white" stroke="black" points="146.5,-555.5 146.5,-574.5 259.5,-574.5 259.5,-555.5 146.5,-555.5"/>
<text text-anchor="middle" x="203" y="-562.5" font-family="Helvetica,sans-Serif" font-size="10.00">Compute::usingSOR</text>
</a>
</g>
</g>
<!-- Node7&#45;&gt;Node15 -->
<g id="edge13" class="edge">
<title>Node7&#45;&gt;Node15</title>
<path fill="none" stroke="midnightblue" d="M323.33,-577C302.36,-574.89 279.64,-572.6 259.7,-570.6"/>
<polygon fill="midnightblue" stroke="midnightblue" points="323.16,-580.5 333.46,-578.01 323.86,-573.53 323.16,-580.5"/>
</g>
<!-- Node16 -->
<g id="node15" class="node">
<title>Node16</title>
<g id="a_node15"><a xlink:href="../../de/db3/namespaceCompute.html#af9b2fed99d9965f94cb5cfab410419a0" target="_top" xlink:title="Solves a linear system using the Symmetric Gauss&#45;Seidel method.">
<polygon fill="white" stroke="black" points="115,-506 115,-536 291,-536 291,-506 115,-506"/>
<text text-anchor="start" x="123" y="-524" font-family="Helvetica,sans-Serif" font-size="10.00">Compute::usingSymmetricGauss</text>
<text text-anchor="middle" x="203" y="-513" font-family="Helvetica,sans-Serif" font-size="10.00">Seidel</text>
</a>
</g>
</g>
<!-- Node7&#45;&gt;Node16 -->
<g id="edge14" class="edge">
<title>Node7&#45;&gt;Node16</title>
<path fill="none" stroke="midnightblue" d="M344.83,-565.19C327.91,-558.81 308.7,-551.83 291,-546 280.7,-542.61 269.63,-539.23 258.96,-536.1"/>
<polygon fill="midnightblue" stroke="midnightblue" points="343.91,-568.58 354.5,-568.86 346.39,-562.04 343.91,-568.58"/>
</g>
<!-- Node17 -->
<g id="node16" class="node">
<title>Node17</title>
<g id="a_node16"><a xlink:href="../../de/db3/namespaceCompute.html#ab38c6016d5c4907c1f4f468600278560" target="_top" xlink:title="Solves a linear system using the Symmetric SOR method.">
<polygon fill="white" stroke="black" points="119.5,-467.5 119.5,-486.5 286.5,-486.5 286.5,-467.5 119.5,-467.5"/>
<text text-anchor="middle" x="203" y="-474.5" font-family="Helvetica,sans-Serif" font-size="10.00">Compute::usingSymmetricSOR</text>
</a>
</g>
</g>
<!-- Node7&#45;&gt;Node17 -->
<g id="edge16" class="edge">
<title>Node7&#45;&gt;Node17</title>
<path fill="none" stroke="midnightblue" d="M372.76,-561.43C353.62,-541.5 323.12,-513.16 291,-497 282.42,-492.68 272.89,-489.28 263.37,-486.61"/>
<polygon fill="midnightblue" stroke="midnightblue" points="370.36,-563.99 379.76,-568.88 375.46,-559.2 370.36,-563.99"/>
</g>
<!-- Node10 -->
<g id="node10" class="node">
<title>Node10</title>
<g id="a_node10"><a xlink:href="../../d0/d4c/classOutLab6.html#a901a1283fd029c9174f8469ac5cb3ad8" target="_top" xlink:title="This function runs the computation.">
<polygon fill="white" stroke="black" points="0,-694.5 0,-713.5 79,-713.5 79,-694.5 0,-694.5"/>
<text text-anchor="middle" x="39.5" y="-701.5" font-family="Helvetica,sans-Serif" font-size="10.00">OutLab6::run</text>
</a>
</g>
</g>
<!-- Node9&#45;&gt;Node10 -->
<g id="edge9" class="edge">
<title>Node9&#45;&gt;Node10</title>
<path fill="none" stroke="midnightblue" d="M135.81,-653.12C128.69,-655.11 121.63,-657.4 115,-660 92.21,-668.95 68.24,-684.34 53.83,-694.34"/>
<polygon fill="midnightblue" stroke="midnightblue" points="136.73,-656.5 145.52,-650.58 134.96,-649.73 136.73,-656.5"/>
</g>
<!-- Node11 -->
<g id="node11" class="node">
<title>Node11</title>
<g id="a_node11"><a xlink:href="../../dd/db5/classProject2.html#a0990db917f6a27a4e1cb9ac885698524" target="_top" xlink:title="This function runs the project.">
<polygon fill="white" stroke="black" points="0.5,-744.5 0.5,-763.5 78.5,-763.5 78.5,-744.5 0.5,-744.5"/>
<text text-anchor="middle" x="39.5" y="-751.5" font-family="Helvetica,sans-Serif" font-size="10.00">Project2::run</text>
</a>
</g>
</g>
<!-- Node9&#45;&gt;Node11 -->
<g id="edge10" class="edge">
<title>Node9&#45;&gt;Node11</title>
<path fill="none" stroke="midnightblue" d="M123.01,-654.93C120.22,-656.45 117.54,-658.14 115,-660 89.01,-679.09 99.92,-698.46 79,-723 72.1,-731.1 62.85,-738.62 55.15,-744.23"/>
<polygon fill="midnightblue" stroke="midnightblue" points="124.68,-658.01 132.23,-650.58 121.69,-651.68 124.68,-658.01"/>
</g>
<!-- Node12 -->
<g id="node12" class="node">
<title>Node12</title>
<g id="a_node12"><a xlink:href="../../dd/dfb/classProject3.html#a8bcff99aaba60e7d5e5be3cb7552d163" target="_top" xlink:title="This function runs the project.">
<polygon fill="white" stroke="black" points="0.5,-631.5 0.5,-650.5 78.5,-650.5 78.5,-631.5 0.5,-631.5"/>
<text text-anchor="middle" x="39.5" y="-638.5" font-family="Helvetica,sans-Serif" font-size="10.00">Project3::run</text>
</a>
</g>
</g>
<!-- Node9&#45;&gt;Node12 -->
<g id="edge11" class="edge">
<title>Node9&#45;&gt;Node12</title>
<path fill="none" stroke="midnightblue" d="M121.01,-641C106.31,-641 91.63,-641 78.9,-641"/>
<polygon fill="midnightblue" stroke="midnightblue" points="121.16,-644.5 131.16,-641 121.16,-637.5 121.16,-644.5"/>
</g>
<!-- Node16&#45;&gt;Node12 -->
<g id="edge15" class="edge">
<title>Node16&#45;&gt;Node12</title>
<path fill="none" stroke="midnightblue" d="M124.3,-540.48C121.07,-542.17 117.96,-544.01 115,-546 81.1,-568.83 55.62,-612 45.4,-631.28"/>
<polygon fill="midnightblue" stroke="midnightblue" points="126.07,-543.52 133.63,-536.09 123.09,-537.18 126.07,-543.52"/>
</g>
<!-- Node21 -->
<g id="node20" class="node">
<title>Node21</title>
<g id="a_node20"><a xlink:href="../../d5/db6/namespaceMyBLAS_1_1LUP.html#ac803dfb6b419afbd84ade6475e608e1f" target="_top" xlink:title="This function solves a system of linear equations Ax = b using LU factorization with partial pivoting...">
<polygon fill="white" stroke="black" points="327,-756.5 327,-775.5 461,-775.5 461,-756.5 327,-756.5"/>
<text text-anchor="middle" x="394" y="-763.5" font-family="Helvetica,sans-Serif" font-size="10.00">MyBLAS::LUP::applyLUP</text>
</a>
</g>
</g>
<!-- Node20&#45;&gt;Node21 -->
<g id="edge20" class="edge">
<title>Node20&#45;&gt;Node21</title>
<path fill="none" stroke="midnightblue" d="M486.71,-759.96C478.03,-760.54 469.41,-761.1 461.14,-761.65"/>
<polygon fill="midnightblue" stroke="midnightblue" points="487.18,-763.44 496.93,-759.29 486.72,-756.46 487.18,-763.44"/>
</g>
<!-- Node23 -->
<g id="node22" class="node">
<title>Node23</title>
<g id="a_node22"><a xlink:href="../../d5/db6/namespaceMyBLAS_1_1LUP.html#adb672b0ddbe668b9469123427767624d" target="_top" xlink:title="This function performs LU factorization on a given matrix A and stores the results in matrices L and ...">
<polygon fill="white" stroke="black" points="328.5,-715.5 328.5,-734.5 459.5,-734.5 459.5,-715.5 328.5,-715.5"/>
<text text-anchor="middle" x="394" y="-722.5" font-family="Helvetica,sans-Serif" font-size="10.00">MyBLAS::LUP::factorize</text>
</a>
</g>
</g>
<!-- Node20&#45;&gt;Node23 -->
<g id="edge25" class="edge">
<title>Node20&#45;&gt;Node23</title>
<path fill="none" stroke="midnightblue" d="M515.26,-742.05C496.85,-739.44 477.39,-736.68 459.62,-734.16"/>
<polygon fill="midnightblue" stroke="midnightblue" points="514.97,-745.54 525.36,-743.48 515.95,-738.61 514.97,-745.54"/>
</g>
<!-- Node22 -->
<g id="node21" class="node">
<title>Node22</title>
<g id="a_node21"><a xlink:href="../../de/db3/namespaceCompute.html#a9aaa2e3c1db51432d5a62c1d4541fd90" target="_top" xlink:title="Solves a linear system using LUP decomposition.">
<polygon fill="white" stroke="red" points="147,-757.5 147,-776.5 259,-776.5 259,-757.5 147,-757.5"/>
<text text-anchor="middle" x="203" y="-764.5" font-family="Helvetica,sans-Serif" font-size="10.00">Compute::usingLUP</text>
</a>
</g>
</g>
<!-- Node21&#45;&gt;Node22 -->
<g id="edge21" class="edge">
<title>Node21&#45;&gt;Node22</title>
<path fill="none" stroke="midnightblue" d="M316.64,-766.4C297.39,-766.51 277.09,-766.61 259.11,-766.71"/>
<polygon fill="midnightblue" stroke="midnightblue" points="316.92,-769.9 326.9,-766.35 316.88,-762.9 316.92,-769.9"/>
</g>
<!-- Node22&#45;&gt;Node10 -->
<g id="edge22" class="edge">
<title>Node22&#45;&gt;Node10</title>
<path fill="none" stroke="midnightblue" d="M137.02,-755.21C129.49,-753.14 122,-750.75 115,-748 92.21,-739.05 68.24,-723.66 53.83,-713.66"/>
<polygon fill="midnightblue" stroke="midnightblue" points="136.35,-758.65 146.91,-757.75 138.09,-751.87 136.35,-758.65"/>
</g>
<!-- Node22&#45;&gt;Node11 -->
<g id="edge23" class="edge">
<title>Node22&#45;&gt;Node11</title>
<path fill="none" stroke="midnightblue" d="M136.69,-761.74C116.95,-760.15 95.94,-758.46 78.6,-757.07"/>
<polygon fill="midnightblue" stroke="midnightblue" points="136.62,-765.25 146.87,-762.56 137.19,-758.27 136.62,-765.25"/>
</g>
<!-- Node22&#45;&gt;Node12 -->
<g id="edge24" class="edge">
<title>Node22&#45;&gt;Node12</title>
<path fill="none" stroke="midnightblue" d="M136.93,-759.19C129.09,-756.45 121.56,-752.81 115,-748 89.01,-728.91 97.71,-711.27 79,-685 70.05,-672.43 58.15,-659.28 49.97,-650.66"/>
<polygon fill="midnightblue" stroke="midnightblue" points="136,-762.57 146.59,-762.11 138.03,-755.87 136,-762.57"/>
</g>
<!-- Node24 -->
<g id="node23" class="node">
<title>Node24</title>
<g id="a_node23"><a xlink:href="../../d7/da1/project_2project1_2Compute_8h.html#acddcb7395a0d22a81020f268fd96918a" target="_top" xlink:title="Solves the linear system.">
<polygon fill="white" stroke="black" points="149,-708 149,-738 257,-738 257,-708 149,-708"/>
<text text-anchor="start" x="157" y="-726" font-family="Helvetica,sans-Serif" font-size="10.00">naive_solve_linear</text>
<text text-anchor="middle" x="203" y="-715" font-family="Helvetica,sans-Serif" font-size="10.00">_system</text>
</a>
</g>
</g>
<!-- Node23&#45;&gt;Node24 -->
<g id="edge26" class="edge">
<title>Node23&#45;&gt;Node24</title>
<path fill="none" stroke="midnightblue" d="M318.27,-724.21C297.87,-723.99 276.18,-723.76 257.25,-723.56"/>
<polygon fill="midnightblue" stroke="midnightblue" points="318.45,-727.71 328.49,-724.32 318.52,-720.71 318.45,-727.71"/>
</g>
<!-- Node26 -->
<g id="node25" class="node">
<title>Node26</title>
<g id="a_node25"><a xlink:href="../../d3/d1d/classOutLab5.html#aa1d5363426e0ce8f620d47c1b2aa2260" target="_top" xlink:title="This function runs the project.">
<polygon fill="white" stroke="black" points="554,-579.5 554,-598.5 633,-598.5 633,-579.5 554,-579.5"/>
<text text-anchor="middle" x="593.5" y="-586.5" font-family="Helvetica,sans-Serif" font-size="10.00">OutLab5::run</text>
</a>
</g>
</g>
<!-- Node25&#45;&gt;Node26 -->
<g id="edge28" class="edge">
<title>Node25&#45;&gt;Node26</title>
<path fill="none" stroke="midnightblue" d="M752.26,-580.7C713.04,-582.76 665.68,-585.25 633.15,-586.97"/>
<polygon fill="midnightblue" stroke="midnightblue" points="752.5,-584.19 762.3,-580.17 752.13,-577.2 752.5,-584.19"/>
</g>
<!-- Node28&#45;&gt;Node26 -->
<g id="edge31" class="edge">
<title>Node28&#45;&gt;Node26</title>
<path fill="none" stroke="midnightblue" d="M745.41,-652.83C738.74,-650.88 732.18,-648.62 726,-646 708.06,-638.4 707.41,-629.74 690,-621 671.25,-611.59 649.09,-603.97 630.84,-598.53"/>
<polygon fill="midnightblue" stroke="midnightblue" points="744.67,-656.26 755.24,-655.48 746.49,-649.5 744.67,-656.26"/>
</g>
<!-- Node31 -->
<g id="node30" class="node">
<title>Node31</title>
<g id="a_node30"><a xlink:href="../../da/d4c/DiffusionParamsTests_8cpp.html#abad684dab61e19170f0cf3ab370cdcb3" target="_top" xlink:title="Test for the parameterized constructor of DiffusionParams.">
<polygon fill="white" stroke="black" points="567.5,-468.5 567.5,-487.5 619.5,-487.5 619.5,-468.5 567.5,-468.5"/>
<text text-anchor="middle" x="593.5" y="-475.5" font-family="Helvetica,sans-Serif" font-size="10.00">TEST_F</text>
</a>
</g>
</g>
<!-- Node30&#45;&gt;Node31 -->
<g id="edge34" class="edge">
<title>Node30&#45;&gt;Node31</title>
<path fill="none" stroke="midnightblue" d="M787.02,-487.29C740.52,-485.05 660.15,-481.17 619.54,-479.21"/>
<polygon fill="midnightblue" stroke="midnightblue" points="787.07,-490.79 797.23,-487.78 787.41,-483.8 787.07,-490.79"/>
</g>
<!-- Node32 -->
<g id="node31" class="node">
<title>Node32</title>
<g id="a_node31"><a xlink:href="../../da/d4c/DiffusionParamsTests_8cpp.html#afa8278dfc128eb21fc9cb7f3356dda9c" target="_top" xlink:title="Test for the setters and getters of DiffusionParams.">
<polygon fill="white" stroke="black" points="567.5,-506.5 567.5,-525.5 619.5,-525.5 619.5,-506.5 567.5,-506.5"/>
<text text-anchor="middle" x="593.5" y="-513.5" font-family="Helvetica,sans-Serif" font-size="10.00">TEST_P</text>
</a>
</g>
</g>
<!-- Node30&#45;&gt;Node32 -->
<g id="edge35" class="edge">
<title>Node30&#45;&gt;Node32</title>
<path fill="none" stroke="midnightblue" d="M787.02,-493.2C740.52,-498.71 660.15,-508.23 619.54,-513.04"/>
<polygon fill="midnightblue" stroke="midnightblue" points="787.71,-496.64 797.23,-491.99 786.89,-489.69 787.71,-496.64"/>
</g>
<!-- Node35&#45;&gt;Node7 -->
<g id="edge41" class="edge">
<title>Node35&#45;&gt;Node7</title>
<path fill="none" stroke="midnightblue" d="M750.17,-363.09C657.47,-377.53 507.36,-401.78 497,-409 438.99,-449.39 409.19,-534.24 399.07,-568.83"/>
<polygon fill="midnightblue" stroke="midnightblue" points="750.72,-366.54 760.07,-361.55 749.65,-359.63 750.72,-366.54"/>
</g>
<!-- Node36 -->
<g id="node35" class="node">
<title>Node36</title>
<g id="a_node35"><a xlink:href="../../d5/d7a/namespaceMyBLAS_1_1System.html#a487070ac751d33afa7f9fceaef312ea0" target="_top" xlink:title="This function generates a circuit with random resistances and currents, and computes the correspondin...">
<polygon fill="white" stroke="black" points="525,-342.5 525,-361.5 662,-361.5 662,-342.5 525,-342.5"/>
<text text-anchor="middle" x="593.5" y="-349.5" font-family="Helvetica,sans-Serif" font-size="10.00">MyBLAS::System::Circuit</text>
</a>
</g>
</g>
<!-- Node35&#45;&gt;Node36 -->
<g id="edge39" class="edge">
<title>Node35&#45;&gt;Node36</title>
<path fill="none" stroke="midnightblue" d="M727.01,-352C705.24,-352 682.53,-352 662.2,-352"/>
<polygon fill="midnightblue" stroke="midnightblue" points="727.28,-355.5 737.28,-352 727.28,-348.5 727.28,-355.5"/>
</g>
<!-- Node38 -->
<g id="node37" class="node">
<title>Node38</title>
<g id="a_node37"><a xlink:href="../../d2/d6e/namespaceMyBLAS.html#afc64a1cc2e3756fccfc41bc258f84787" target="_top" xlink:title=" ">
<polygon fill="white" stroke="black" points="531.5,-418.5 531.5,-437.5 655.5,-437.5 655.5,-418.5 531.5,-418.5"/>
<text text-anchor="middle" x="593.5" y="-425.5" font-family="Helvetica,sans-Serif" font-size="10.00">MyBLAS::TYPED_TEST</text>
</a>
</g>
</g>
<!-- Node35&#45;&gt;Node38 -->
<g id="edge42" class="edge">
<title>Node35&#45;&gt;Node38</title>
<path fill="none" stroke="midnightblue" d="M744.09,-364.56C737.83,-366.67 731.72,-369.13 726,-372 706.87,-381.61 708.92,-393.99 690,-404 678.14,-410.27 664.57,-414.96 651.46,-418.43"/>
<polygon fill="midnightblue" stroke="midnightblue" points="745.48,-367.8 754.02,-361.53 743.43,-361.1 745.48,-367.8"/>
</g>
<!-- Node37 -->
<g id="node36" class="node">
<title>Node37</title>
<g id="a_node36"><a xlink:href="../../d0/d40/classParser.html#ab783bbc55d63563ece4a83a4a1c8f683" target="_top" xlink:title="Builds the input matrices for the MyBLAS library from a JSON file.">
<polygon fill="white" stroke="black" points="340.5,-342.5 340.5,-361.5 447.5,-361.5 447.5,-342.5 340.5,-342.5"/>
<text text-anchor="middle" x="394" y="-349.5" font-family="Helvetica,sans-Serif" font-size="10.00">Parser::buildInputs</text>
</a>
</g>
</g>
<!-- Node36&#45;&gt;Node37 -->
<g id="edge40" class="edge">
<title>Node36&#45;&gt;Node37</title>
<path fill="none" stroke="midnightblue" d="M514.61,-352C492.15,-352 468.18,-352 447.64,-352"/>
<polygon fill="midnightblue" stroke="midnightblue" points="514.81,-355.5 524.81,-352 514.81,-348.5 514.81,-355.5"/>
</g>
<!-- Node40 -->
<g id="node39" class="node">
<title>Node40</title>
<g id="a_node39"><a xlink:href="../../d0/d40/classParser.html#adc1e5a3b57b2c25485ef09ea6521d0a7" target="_top" xlink:title="Builds the inputs.">
<polygon fill="white" stroke="black" points="540,-266.5 540,-285.5 647,-285.5 647,-266.5 540,-266.5"/>
<text text-anchor="middle" x="593.5" y="-273.5" font-family="Helvetica,sans-Serif" font-size="10.00">Parser::buildInputs</text>
</a>
</g>
</g>
<!-- Node39&#45;&gt;Node40 -->
<g id="edge44" class="edge">
<title>Node39&#45;&gt;Node40</title>
<path fill="none" stroke="midnightblue" d="M734.96,-276C705.35,-276 673.23,-276 647.18,-276"/>
<polygon fill="midnightblue" stroke="midnightblue" points="735.31,-279.5 745.31,-276 735.31,-272.5 735.31,-279.5"/>
</g>
<!-- Node41 -->
<g id="node40" class="node">
<title>Node41</title>
<g id="a_node40"><a xlink:href="../../d2/d6e/namespaceMyBLAS.html#a53f98ce7d1a4a8ef64f41d4ba714eb86" target="_top" xlink:title=" ">
<polygon fill="white" stroke="black" points="531.5,-304.5 531.5,-323.5 655.5,-323.5 655.5,-304.5 531.5,-304.5"/>
<text text-anchor="middle" x="593.5" y="-311.5" font-family="Helvetica,sans-Serif" font-size="10.00">MyBLAS::TYPED_TEST</text>
</a>
</g>
</g>
<!-- Node39&#45;&gt;Node41 -->
<g id="edge45" class="edge">
<title>Node39&#45;&gt;Node41</title>
<path fill="none" stroke="midnightblue" d="M755.27,-287.2C722.38,-292.69 683.21,-299.22 651.76,-304.46"/>
<polygon fill="midnightblue" stroke="midnightblue" points="755.97,-290.64 765.26,-285.54 754.82,-283.73 755.97,-290.64"/>
</g>
<!-- Node42&#45;&gt;Node36 -->
<g id="edge47" class="edge">
<title>Node42&#45;&gt;Node36</title>
<path fill="none" stroke="midnightblue" d="M755.27,-325.2C722.38,-330.69 683.21,-337.22 651.76,-342.46"/>
<polygon fill="midnightblue" stroke="midnightblue" points="755.97,-328.64 765.26,-323.54 754.82,-321.73 755.97,-328.64"/>
</g>
<!-- Node44 -->
<g id="node43" class="node">
<title>Node44</title>
<g id="a_node43"><a xlink:href="../../d7/d64/labs_2inlab1_2Compute_8h.html#a7c627810ec1100f6ba69af278a1c5460" target="_top" xlink:title="Function to compute sine.">
<polygon fill="white" stroke="black" points="567.5,-190.5 567.5,-209.5 619.5,-209.5 619.5,-190.5 567.5,-190.5"/>
<text text-anchor="middle" x="593.5" y="-197.5" font-family="Helvetica,sans-Serif" font-size="10.00">my_sin</text>
</a>
</g>
</g>
<!-- Node43&#45;&gt;Node44 -->
<g id="edge49" class="edge">
<title>Node43&#45;&gt;Node44</title>
<path fill="none" stroke="midnightblue" d="M774.83,-200C727.49,-200 656.75,-200 619.5,-200"/>
<polygon fill="midnightblue" stroke="midnightblue" points="774.85,-203.5 784.85,-200 774.85,-196.5 774.85,-203.5"/>
</g>
<!-- Node44&#45;&gt;Node45 -->
<g id="edge50" class="edge">
<title>Node44&#45;&gt;Node45</title>
<path fill="none" stroke="midnightblue" d="M557.43,-203.37C521.41,-206.84 465.68,-212.2 429.77,-215.66"/>
<polygon fill="midnightblue" stroke="midnightblue" points="557.87,-206.85 567.49,-202.41 557.2,-199.88 557.87,-206.85"/>
</g>
<!-- Node51 -->
<g id="node50" class="node">
<title>Node51</title>
<g id="a_node50"><a xlink:href="../../da/d31/labs_2outlab3_2Compute_8h.html#a12082de2c26039464e769e3151eb4d36" target="_top" xlink:title="Computes the Gauss&#45;Legendre node for a given index and polynomial degree.">
<polygon fill="white" stroke="black" points="527,-0.5 527,-19.5 660,-19.5 660,-0.5 527,-0.5"/>
<text text-anchor="middle" x="593.5" y="-7.5" font-family="Helvetica,sans-Serif" font-size="10.00">getGaussLegendreNode</text>
</a>
</g>
</g>
<!-- Node50&#45;&gt;Node51 -->
<g id="edge57" class="edge">
<title>Node50&#45;&gt;Node51</title>
<path fill="none" stroke="midnightblue" d="M722.44,-10C701.37,-10 679.66,-10 660.25,-10"/>
<polygon fill="midnightblue" stroke="midnightblue" points="722.72,-13.5 732.72,-10 722.72,-6.5 722.72,-13.5"/>
</g>
</g>
</svg>
