<?xml version="1.0" encoding="UTF-8" standalone="no"?>
<!DOCTYPE svg PUBLIC "-//W3C//DTD SVG 1.1//EN"
 "http://www.w3.org/Graphics/SVG/1.1/DTD/svg11.dtd">
<!-- Generated by graphviz version 2.43.0 (0)
 -->
<!-- Title: MyMath::pow Pages: 1 -->
<!--zoomable 594 -->
<svg id="main" version="1.1" xmlns="http://www.w3.org/2000/svg" xmlns:xlink="http://www.w3.org/1999/xlink" xml:space="preserve" onload="init(evt)">
<style type="text/css"><![CDATA[
.edge:hover path { stroke: red; }
.edge:hover polygon { stroke: red; fill: red; }
]]></style>
<script type="text/javascript"><![CDATA[
var edges = document.getElementsByTagName('g');
if (edges && edges.length) {
  for (var i=0;i<edges.length;i++) {
    if (edges[i].id.substr(0,4)=='edge') {
      edges[i].setAttribute('class','edge');
    }
  }
}
]]></script>
        <defs>
                <circle id="rim" cx="0" cy="0" r="7"/>
                <circle id="rim2" cx="0" cy="0" r="3.5"/>
                <g id="zoomPlus">
                        <use xlink:href="#rim" fill="#404040">
                                <set attributeName="fill" to="#808080" begin="zoomplus.mouseover" end="zoomplus.mouseout"/>
                        </use>
                        <path d="M-4,0h8M0,-4v8" fill="none" stroke="white" stroke-width="1.5" pointer-events="none"/>
                </g>
                <g id="zoomMin">
                        <use xlink:href="#rim" fill="#404040">
                                <set attributeName="fill" to="#808080" begin="zoomminus.mouseover" end="zoomminus.mouseout"/>
                        </use>
                        <path d="M-4,0h8" fill="none" stroke="white" stroke-width="1.5" pointer-events="none"/>
                </g>
                <g id="dirArrow">
                        <path fill="none" stroke="white" stroke-width="1.5" d="M0,-3.0v7 M-2.5,-0.5L0,-3.0L2.5,-0.5"/>
                </g>
               <g id="resetDef">
                       <use xlink:href="#rim2" fill="#404040">
                               <set attributeName="fill" to="#808080" begin="reset.mouseover" end="reset.mouseout"/>
                       </use>
               </g>
        </defs>

<script type="text/javascript">
var viewWidth = 1044;
var viewHeight = 594;
var sectionId = 'dynsection-5';
</script>
<script xlink:href="../../svgpan.js"/>
<svg id="graph" class="graph">
<g id="viewport">
<title>MyMath::pow</title>
<polygon fill="white" stroke="transparent" points="-4,4 -4,-590 1040,-590 1040,4 -4,4"/>
<!-- Node1 -->
<g id="node1" class="node">
<title>Node1</title>
<g id="a_node1"><a xlink:title=" ">
<polygon fill="#bfbfbf" stroke="black" points="953,-250.5 953,-269.5 1036,-269.5 1036,-250.5 953,-250.5"/>
<text text-anchor="middle" x="994.5" y="-257.5" font-family="Helvetica,sans-Serif" font-size="10.00">MyMath::pow</text>
</a>
</g>
</g>
<!-- Node2 -->
<g id="node2" class="node">
<title>Node2</title>
<g id="a_node2"><a xlink:href="../../d7/d9a/namespaceMyRelaxationMethod.html#a1ad90cacb42ba2b27223feb0d56320b9" target="_top" xlink:title="This function applies the Point Jacobi method to solve a system of linear equations.">
<polygon fill="white" stroke="black" points="392,-523 392,-553 513,-553 513,-523 392,-523"/>
<text text-anchor="start" x="400" y="-541" font-family="Helvetica,sans-Serif" font-size="10.00">MyRelaxationMethod</text>
<text text-anchor="middle" x="452.5" y="-530" font-family="Helvetica,sans-Serif" font-size="10.00">::applyPointJacobi</text>
</a>
</g>
</g>
<!-- Node1&#45;&gt;Node2 -->
<g id="edge1" class="edge">
<title>Node1&#45;&gt;Node2</title>
<path fill="none" stroke="midnightblue" d="M993.95,-279.65C993.85,-326.46 986.4,-444.79 917,-500 799.95,-593.12 609.59,-571.37 513.32,-552.23"/>
<polygon fill="midnightblue" stroke="midnightblue" points="997.45,-279.57 993.86,-269.6 990.45,-279.63 997.45,-279.57"/>
</g>
<!-- Node5 -->
<g id="node5" class="node">
<title>Node5</title>
<g id="a_node5"><a xlink:href="../../d7/d9a/namespaceMyRelaxationMethod.html#a52bbc804a62498444281f3b3ac5c2c74" target="_top" xlink:title="This function applies the Successive Over&#45;Relaxation (SOR) method to solve a system of linear equatio...">
<polygon fill="white" stroke="black" points="392,-466 392,-496 513,-496 513,-466 392,-466"/>
<text text-anchor="start" x="400" y="-484" font-family="Helvetica,sans-Serif" font-size="10.00">MyRelaxationMethod</text>
<text text-anchor="middle" x="452.5" y="-473" font-family="Helvetica,sans-Serif" font-size="10.00">::applySOR</text>
</a>
</g>
</g>
<!-- Node1&#45;&gt;Node5 -->
<g id="edge4" class="edge">
<title>Node1&#45;&gt;Node5</title>
<path fill="none" stroke="midnightblue" d="M993.16,-279.87C991.21,-323.18 979.85,-425.9 917,-472 854.53,-517.81 623.93,-499.82 513.38,-488.07"/>
<polygon fill="midnightblue" stroke="midnightblue" points="996.66,-279.87 993.48,-269.77 989.66,-279.65 996.66,-279.87"/>
</g>
<!-- Node9 -->
<g id="node9" class="node">
<title>Node9</title>
<g id="a_node9"><a xlink:href="../../d7/d9a/namespaceMyRelaxationMethod.html#a6ce139c8c66799c77605e84daa52c54c" target="_top" xlink:title="Applies the Symmetric Successive Over&#45;Relaxation (SSOR) method to solve a system of linear equations.">
<polygon fill="white" stroke="black" points="392,-409 392,-439 513,-439 513,-409 392,-409"/>
<text text-anchor="start" x="400" y="-427" font-family="Helvetica,sans-Serif" font-size="10.00">MyRelaxationMethod</text>
<text text-anchor="middle" x="452.5" y="-416" font-family="Helvetica,sans-Serif" font-size="10.00">::applySSOR</text>
</a>
</g>
</g>
<!-- Node1&#45;&gt;Node9 -->
<g id="edge8" class="edge">
<title>Node1&#45;&gt;Node9</title>
<path fill="none" stroke="midnightblue" d="M989.63,-279.75C982.07,-312.34 962,-376.59 917,-405 851.54,-446.33 623,-436.3 513.24,-428.74"/>
<polygon fill="midnightblue" stroke="midnightblue" points="993.12,-280.17 991.8,-269.66 986.27,-278.7 993.12,-280.17"/>
</g>
<!-- Node11 -->
<g id="node11" class="node">
<title>Node11</title>
<g id="a_node11"><a xlink:href="../../d7/d9a/namespaceMyRelaxationMethod.html#abde81298190b57f3cce6fe5ca0d18dce" target="_top" xlink:title="Function to approximate the optimal relaxation factor for a given mesh size.">
<polygon fill="white" stroke="black" points="737.5,-316.5 737.5,-357.5 913.5,-357.5 913.5,-316.5 737.5,-316.5"/>
<text text-anchor="start" x="745.5" y="-345.5" font-family="Helvetica,sans-Serif" font-size="10.00">MyRelaxationMethod</text>
<text text-anchor="start" x="745.5" y="-334.5" font-family="Helvetica,sans-Serif" font-size="10.00">::approximateOptimalRelaxation</text>
<text text-anchor="middle" x="825.5" y="-323.5" font-family="Helvetica,sans-Serif" font-size="10.00">Factor</text>
</a>
</g>
</g>
<!-- Node1&#45;&gt;Node11 -->
<g id="edge10" class="edge">
<title>Node1&#45;&gt;Node11</title>
<path fill="none" stroke="midnightblue" d="M971.44,-275.45C956.55,-285.39 936.19,-298.07 917,-307 909.8,-310.35 902.11,-313.5 894.38,-316.41"/>
<polygon fill="midnightblue" stroke="midnightblue" points="973.64,-278.18 979.94,-269.67 969.7,-272.39 973.64,-278.18"/>
</g>
<!-- Node12 -->
<g id="node12" class="node">
<title>Node12</title>
<g id="a_node12"><a xlink:href="../../da/dff/structMyPhysics_1_1Diffusion_1_1Constants.html#aa4b27b31e865576eb1b6280ef04e3fd2" target="_top" xlink:title="Computes the constants based on the provided diffusion parameters.">
<polygon fill="white" stroke="black" points="765.5,-267 765.5,-297 885.5,-297 885.5,-267 765.5,-267"/>
<text text-anchor="start" x="773.5" y="-285" font-family="Helvetica,sans-Serif" font-size="10.00">MyPhysics::Diffusion</text>
<text text-anchor="middle" x="825.5" y="-274" font-family="Helvetica,sans-Serif" font-size="10.00">::Constants::compute</text>
</a>
</g>
</g>
<!-- Node1&#45;&gt;Node12 -->
<g id="edge11" class="edge">
<title>Node1&#45;&gt;Node12</title>
<path fill="none" stroke="midnightblue" d="M942.63,-266.7C924.61,-269.08 904.19,-271.77 885.54,-274.22"/>
<polygon fill="midnightblue" stroke="midnightblue" points="943.19,-270.16 952.65,-265.38 942.28,-263.22 943.19,-270.16"/>
</g>
<!-- Node14 -->
<g id="node14" class="node">
<title>Node14</title>
<g id="a_node14"><a xlink:href="../../da/d31/labs_2outlab3_2Compute_8h.html#aa1957ec57305c615482cfad76e8e0779" target="_top" xlink:title="Calculates the Gauss&#45;Legendre weight for a given node and polynomial degree.">
<polygon fill="white" stroke="black" points="553,-228.5 553,-247.5 694,-247.5 694,-228.5 553,-228.5"/>
<text text-anchor="middle" x="623.5" y="-235.5" font-family="Helvetica,sans-Serif" font-size="10.00">getGaussLegendreWeight</text>
</a>
</g>
</g>
<!-- Node1&#45;&gt;Node14 -->
<g id="edge13" class="edge">
<title>Node1&#45;&gt;Node14</title>
<path fill="none" stroke="midnightblue" d="M942.62,-256.97C878.06,-253.12 766.39,-246.46 694.01,-242.14"/>
<polygon fill="midnightblue" stroke="midnightblue" points="942.76,-260.48 952.96,-257.58 943.18,-253.49 942.76,-260.48"/>
</g>
<!-- Node15 -->
<g id="node15" class="node">
<title>Node15</title>
<g id="a_node15"><a xlink:href="../../da/d31/labs_2outlab3_2Compute_8h.html#a57573c0b983a2e768ab17b6872062285" target="_top" xlink:title="Computes the derivative of the Legendre polynomial of degree n at a given point.">
<polygon fill="white" stroke="black" points="734,-190.5 734,-209.5 917,-209.5 917,-190.5 734,-190.5"/>
<text text-anchor="middle" x="825.5" y="-197.5" font-family="Helvetica,sans-Serif" font-size="10.00">getLegendrePolynomialDerivative</text>
</a>
</g>
</g>
<!-- Node1&#45;&gt;Node15 -->
<g id="edge14" class="edge">
<title>Node1&#45;&gt;Node15</title>
<path fill="none" stroke="midnightblue" d="M966.35,-245.75C951.95,-238.58 933.81,-230.13 917,-224 901.58,-218.38 884.23,-213.46 868.89,-209.56"/>
<polygon fill="midnightblue" stroke="midnightblue" points="965.15,-249.07 975.65,-250.47 968.32,-242.83 965.15,-249.07"/>
</g>
<!-- Node17 -->
<g id="node17" class="node">
<title>Node17</title>
<g id="a_node17"><a xlink:href="../../d2/d6e/namespaceMyBLAS.html#ac6dacb7fc104126e5fa62e02f0ec1446" target="_top" xlink:title=" ">
<polygon fill="white" stroke="black" points="586.5,-452.5 586.5,-471.5 660.5,-471.5 660.5,-452.5 586.5,-452.5"/>
<text text-anchor="middle" x="623.5" y="-459.5" font-family="Helvetica,sans-Serif" font-size="10.00">MyBLAS::L2</text>
</a>
</g>
</g>
<!-- Node1&#45;&gt;Node17 -->
<g id="edge17" class="edge">
<title>Node1&#45;&gt;Node17</title>
<path fill="none" stroke="midnightblue" d="M991.46,-280.13C986.43,-318.15 969.72,-400.1 917,-438 840.05,-493.33 720.51,-480.93 660.89,-470.01"/>
<polygon fill="midnightblue" stroke="midnightblue" points="994.98,-280.18 992.67,-269.84 988.03,-279.36 994.98,-280.18"/>
</g>
<!-- Node18 -->
<g id="node18" class="node">
<title>Node18</title>
<g id="a_node18"><a xlink:href="../../d7/d64/labs_2inlab1_2Compute_8h.html#a751e7780cd69969cb7218b13676bec6a" target="_top" xlink:title="Function to compute sine in a naive way.">
<polygon fill="white" stroke="black" points="783.5,-152.5 783.5,-171.5 867.5,-171.5 867.5,-152.5 783.5,-152.5"/>
<text text-anchor="middle" x="825.5" y="-159.5" font-family="Helvetica,sans-Serif" font-size="10.00">my_naive_sin</text>
</a>
</g>
</g>
<!-- Node1&#45;&gt;Node18 -->
<g id="edge21" class="edge">
<title>Node1&#45;&gt;Node18</title>
<path fill="none" stroke="midnightblue" d="M981.22,-242.09C967.68,-223.79 944.17,-195.99 917,-181 901.96,-172.7 883.68,-168.02 867.5,-165.38"/>
<polygon fill="midnightblue" stroke="midnightblue" points="978.53,-244.35 987.2,-250.45 984.23,-240.28 978.53,-244.35"/>
</g>
<!-- Node19 -->
<g id="node19" class="node">
<title>Node19</title>
<g id="a_node19"><a xlink:href="../../d7/d64/labs_2inlab1_2Compute_8h.html#a36cda562827f6a51f45b57740f8ea850" target="_top" xlink:title="Function to compute sine using a recursive, iterative taylor series discretization approach.">
<polygon fill="white" stroke="black" points="787,-114.5 787,-133.5 864,-133.5 864,-114.5 787,-114.5"/>
<text text-anchor="middle" x="825.5" y="-121.5" font-family="Helvetica,sans-Serif" font-size="10.00">my_sisd_sin</text>
</a>
</g>
</g>
<!-- Node1&#45;&gt;Node19 -->
<g id="edge22" class="edge">
<title>Node1&#45;&gt;Node19</title>
<path fill="none" stroke="midnightblue" d="M986.37,-240.61C975.6,-214.17 952.58,-167.31 917,-143 901.62,-132.49 881.6,-127.61 864.3,-125.41"/>
<polygon fill="midnightblue" stroke="midnightblue" points="983.24,-242.22 990.13,-250.27 989.76,-239.68 983.24,-242.22"/>
</g>
<!-- Node22 -->
<g id="node22" class="node">
<title>Node22</title>
<g id="a_node22"><a xlink:href="../../d2/d6e/namespaceMyBLAS.html#ac12a3b113ae6b7edd2fcb21280c0f804" target="_top" xlink:title=" ">
<polygon fill="white" stroke="black" points="781,-376.5 781,-395.5 870,-395.5 870,-376.5 781,-376.5"/>
<text text-anchor="middle" x="825.5" y="-383.5" font-family="Helvetica,sans-Serif" font-size="10.00">MyBLAS::norm</text>
</a>
</g>
</g>
<!-- Node1&#45;&gt;Node22 -->
<g id="edge25" class="edge">
<title>Node1&#45;&gt;Node22</title>
<path fill="none" stroke="midnightblue" d="M985.42,-278.79C973.92,-303.17 950.46,-345.15 917,-367 903.15,-376.04 885.8,-380.88 870,-383.44"/>
<polygon fill="midnightblue" stroke="midnightblue" points="988.68,-280.09 989.61,-269.54 982.3,-277.2 988.68,-280.09"/>
</g>
<!-- Node28 -->
<g id="node28" class="node">
<title>Node28</title>
<g id="a_node28"><a xlink:href="../../de/db3/namespaceCompute.html#a89e0e08fa4ab3cc310cb9a7b8cd816c9" target="_top" xlink:title="Computes the sum of a series from a start to a stop index.">
<polygon fill="white" stroke="black" points="766.5,-76.5 766.5,-95.5 884.5,-95.5 884.5,-76.5 766.5,-76.5"/>
<text text-anchor="middle" x="825.5" y="-83.5" font-family="Helvetica,sans-Serif" font-size="10.00">Compute::seriesSum</text>
</a>
</g>
</g>
<!-- Node1&#45;&gt;Node28 -->
<g id="edge32" class="edge">
<title>Node1&#45;&gt;Node28</title>
<path fill="none" stroke="midnightblue" d="M989.58,-240.2C981.89,-206.8 961.53,-139.53 917,-105 907.74,-97.82 896.4,-93.19 884.92,-90.24"/>
<polygon fill="midnightblue" stroke="midnightblue" points="986.2,-241.09 991.72,-250.13 993.04,-239.62 986.2,-241.09"/>
</g>
<!-- Node30 -->
<g id="node30" class="node">
<title>Node30</title>
<g id="a_node30"><a xlink:href="../../d2/d6e/namespaceMyBLAS.html#a36d6aee568c12947c902b3dca906c8aa" target="_top" xlink:title=" ">
<polygon fill="white" stroke="black" points="776.5,-38.5 776.5,-57.5 874.5,-57.5 874.5,-38.5 776.5,-38.5"/>
<text text-anchor="middle" x="825.5" y="-45.5" font-family="Helvetica,sans-Serif" font-size="10.00">MyBLAS::TEST_F</text>
</a>
</g>
</g>
<!-- Node1&#45;&gt;Node30 -->
<g id="edge34" class="edge">
<title>Node1&#45;&gt;Node30</title>
<path fill="none" stroke="midnightblue" d="M991.71,-240.18C987.03,-200.74 970.8,-112.33 917,-67 905.21,-57.07 889.54,-51.91 874.55,-49.35"/>
<polygon fill="midnightblue" stroke="midnightblue" points="988.23,-240.56 992.76,-250.13 995.19,-239.82 988.23,-240.56"/>
</g>
<!-- Node31 -->
<g id="node31" class="node">
<title>Node31</title>
<g id="a_node31"><a xlink:href="../../d2/d6e/namespaceMyBLAS.html#afcfc582cfa678d5dfc6ba8bed8a8859a" target="_top" xlink:title=" ">
<polygon fill="white" stroke="black" points="763.5,-0.5 763.5,-19.5 887.5,-19.5 887.5,-0.5 763.5,-0.5"/>
<text text-anchor="middle" x="825.5" y="-7.5" font-family="Helvetica,sans-Serif" font-size="10.00">MyBLAS::TYPED_TEST</text>
</a>
</g>
</g>
<!-- Node1&#45;&gt;Node31 -->
<g id="edge35" class="edge">
<title>Node1&#45;&gt;Node31</title>
<path fill="none" stroke="midnightblue" d="M993.18,-240.12C991.32,-195.21 980.19,-85.43 917,-29 908.74,-21.62 898.35,-16.84 887.59,-13.79"/>
<polygon fill="midnightblue" stroke="midnightblue" points="989.69,-240.41 993.48,-250.3 996.69,-240.2 989.69,-240.41"/>
</g>
<!-- Node3 -->
<g id="node3" class="node">
<title>Node3</title>
<g id="a_node3"><a xlink:href="../../de/db3/namespaceCompute.html#a7349dde18d551b9ad66d05e6f32fc196" target="_top" xlink:title="Solves a linear system using the Jacobi SOR method.">
<polygon fill="white" stroke="black" points="201,-566.5 201,-585.5 344,-585.5 344,-566.5 201,-566.5"/>
<text text-anchor="middle" x="272.5" y="-573.5" font-family="Helvetica,sans-Serif" font-size="10.00">Compute::usingJacobiSOR</text>
</a>
</g>
</g>
<!-- Node2&#45;&gt;Node3 -->
<g id="edge2" class="edge">
<title>Node2&#45;&gt;Node3</title>
<path fill="none" stroke="midnightblue" d="M381.72,-552.9C360.34,-557.46 337.41,-562.36 318.19,-566.46"/>
<polygon fill="midnightblue" stroke="midnightblue" points="382.68,-556.27 391.73,-550.76 381.22,-549.42 382.68,-556.27"/>
</g>
<!-- Node4 -->
<g id="node4" class="node">
<title>Node4</title>
<g id="a_node4"><a xlink:href="../../de/db3/namespaceCompute.html#a0741aa46b479eae78cfad76bdf7cb091" target="_top" xlink:title="Solves a linear system using the Point Jacobi method.">
<polygon fill="white" stroke="black" points="199,-528.5 199,-547.5 346,-547.5 346,-528.5 199,-528.5"/>
<text text-anchor="middle" x="272.5" y="-535.5" font-family="Helvetica,sans-Serif" font-size="10.00">Compute::usingPointJacobi</text>
</a>
</g>
</g>
<!-- Node2&#45;&gt;Node4 -->
<g id="edge3" class="edge">
<title>Node2&#45;&gt;Node4</title>
<path fill="none" stroke="midnightblue" d="M381.62,-538C369.95,-538 357.82,-538 346.08,-538"/>
<polygon fill="midnightblue" stroke="midnightblue" points="381.73,-541.5 391.73,-538 381.73,-534.5 381.73,-541.5"/>
</g>
<!-- Node6 -->
<g id="node6" class="node">
<title>Node6</title>
<g id="a_node6"><a xlink:href="../../d7/d9a/namespaceMyRelaxationMethod.html#a1b6a833ea067f34c45415750d85b51fa" target="_top" xlink:title="This function applies the Gauss&#45;Seidel method to solve a system of linear equations.">
<polygon fill="white" stroke="black" points="212,-479 212,-509 333,-509 333,-479 212,-479"/>
<text text-anchor="start" x="220" y="-497" font-family="Helvetica,sans-Serif" font-size="10.00">MyRelaxationMethod</text>
<text text-anchor="middle" x="272.5" y="-486" font-family="Helvetica,sans-Serif" font-size="10.00">::applyGaussSeidel</text>
</a>
</g>
</g>
<!-- Node5&#45;&gt;Node6 -->
<g id="edge5" class="edge">
<title>Node5&#45;&gt;Node6</title>
<path fill="none" stroke="midnightblue" d="M381.38,-486.12C365.41,-487.29 348.59,-488.52 333.11,-489.65"/>
<polygon fill="midnightblue" stroke="midnightblue" points="382.01,-489.58 391.73,-485.36 381.5,-482.6 382.01,-489.58"/>
</g>
<!-- Node8 -->
<g id="node8" class="node">
<title>Node8</title>
<g id="a_node8"><a xlink:href="../../de/db3/namespaceCompute.html#a26fcd23146e3ca00ed9eefc59c89c07a" target="_top" xlink:title="Solves a linear system using the Successive Over&#45;Relaxation (SOR) method.">
<polygon fill="white" stroke="black" points="216,-440.5 216,-459.5 329,-459.5 329,-440.5 216,-440.5"/>
<text text-anchor="middle" x="272.5" y="-447.5" font-family="Helvetica,sans-Serif" font-size="10.00">Compute::usingSOR</text>
</a>
</g>
</g>
<!-- Node5&#45;&gt;Node8 -->
<g id="edge7" class="edge">
<title>Node5&#45;&gt;Node8</title>
<path fill="none" stroke="midnightblue" d="M381.48,-468.8C363.81,-465.73 345.1,-462.47 328.31,-459.55"/>
<polygon fill="midnightblue" stroke="midnightblue" points="381.28,-472.32 391.73,-470.59 382.48,-465.43 381.28,-472.32"/>
</g>
<!-- Node7 -->
<g id="node7" class="node">
<title>Node7</title>
<g id="a_node7"><a xlink:href="../../de/db3/namespaceCompute.html#a0b405b6556f147fd5af6a277cccb5e65" target="_top" xlink:title="Solves a linear system using the Gauss&#45;Seidel method.">
<polygon fill="white" stroke="black" points="0,-484.5 0,-503.5 153,-503.5 153,-484.5 0,-484.5"/>
<text text-anchor="middle" x="76.5" y="-491.5" font-family="Helvetica,sans-Serif" font-size="10.00">Compute::usingGaussSeidel</text>
</a>
</g>
</g>
<!-- Node6&#45;&gt;Node7 -->
<g id="edge6" class="edge">
<title>Node6&#45;&gt;Node7</title>
<path fill="none" stroke="midnightblue" d="M201.76,-494C185.95,-494 169.09,-494 153.05,-494"/>
<polygon fill="midnightblue" stroke="midnightblue" points="201.98,-497.5 211.98,-494 201.98,-490.5 201.98,-497.5"/>
</g>
<!-- Node10 -->
<g id="node10" class="node">
<title>Node10</title>
<g id="a_node10"><a xlink:href="../../de/db3/namespaceCompute.html#a5a35addbdcdba218c82923bdc3ef7d93" target="_top" xlink:title="Solves a linear system using the Symmetric SOR method.">
<polygon fill="white" stroke="black" points="189,-402.5 189,-421.5 356,-421.5 356,-402.5 189,-402.5"/>
<text text-anchor="middle" x="272.5" y="-409.5" font-family="Helvetica,sans-Serif" font-size="10.00">Compute::usingSymmetricSOR</text>
</a>
</g>
</g>
<!-- Node9&#45;&gt;Node10 -->
<g id="edge9" class="edge">
<title>Node9&#45;&gt;Node10</title>
<path fill="none" stroke="midnightblue" d="M381.68,-419.29C373.32,-418.73 364.72,-418.15 356.21,-417.58"/>
<polygon fill="midnightblue" stroke="midnightblue" points="381.52,-422.79 391.73,-419.97 381.99,-415.81 381.52,-422.79"/>
</g>
<!-- Node13 -->
<g id="node13" class="node">
<title>Node13</title>
<g id="a_node13"><a xlink:href="../../d6/d18/DiffusionMatrixTests_8cpp.html#a0dd2397629ca84f6316f115c5ae38628" target="_top" xlink:title="Test case for checking the diagonal elements of the diffusion matrix.">
<polygon fill="white" stroke="black" points="585,-272.5 585,-291.5 662,-291.5 662,-272.5 585,-272.5"/>
<text text-anchor="middle" x="623.5" y="-279.5" font-family="Helvetica,sans-Serif" font-size="10.00">TYPED_TEST</text>
</a>
</g>
</g>
<!-- Node12&#45;&gt;Node13 -->
<g id="edge12" class="edge">
<title>Node12&#45;&gt;Node13</title>
<path fill="none" stroke="midnightblue" d="M754.92,-282C723.75,-282 688.22,-282 662.12,-282"/>
<polygon fill="midnightblue" stroke="midnightblue" points="755.31,-285.5 765.31,-282 755.31,-278.5 755.31,-285.5"/>
</g>
<!-- Node15&#45;&gt;Node14 -->
<g id="edge16" class="edge">
<title>Node15&#45;&gt;Node14</title>
<path fill="none" stroke="midnightblue" d="M764.4,-211.42C735.79,-216.86 701.96,-223.28 674.73,-228.46"/>
<polygon fill="midnightblue" stroke="midnightblue" points="765.12,-214.85 774.29,-209.54 763.81,-207.97 765.12,-214.85"/>
</g>
<!-- Node16 -->
<g id="node16" class="node">
<title>Node16</title>
<g id="a_node16"><a xlink:href="../../da/d31/labs_2outlab3_2Compute_8h.html#a12082de2c26039464e769e3151eb4d36" target="_top" xlink:title="Computes the Gauss&#45;Legendre node for a given index and polynomial degree.">
<polygon fill="white" stroke="black" points="557,-190.5 557,-209.5 690,-209.5 690,-190.5 557,-190.5"/>
<text text-anchor="middle" x="623.5" y="-197.5" font-family="Helvetica,sans-Serif" font-size="10.00">getGaussLegendreNode</text>
</a>
</g>
</g>
<!-- Node15&#45;&gt;Node16 -->
<g id="edge15" class="edge">
<title>Node15&#45;&gt;Node16</title>
<path fill="none" stroke="midnightblue" d="M723.79,-200C712.31,-200 700.85,-200 690,-200"/>
<polygon fill="midnightblue" stroke="midnightblue" points="723.86,-203.5 733.86,-200 723.86,-196.5 723.86,-203.5"/>
</g>
<!-- Node17&#45;&gt;Node2 -->
<g id="edge18" class="edge">
<title>Node17&#45;&gt;Node2</title>
<path fill="none" stroke="midnightblue" d="M591.67,-475.87C562.05,-489.19 517.41,-509.26 486.95,-522.96"/>
<polygon fill="midnightblue" stroke="midnightblue" points="593.41,-478.92 601.1,-471.63 590.54,-472.53 593.41,-478.92"/>
</g>
<!-- Node17&#45;&gt;Node5 -->
<g id="edge19" class="edge">
<title>Node17&#45;&gt;Node5</title>
<path fill="none" stroke="midnightblue" d="M576.14,-467.21C556.74,-469.39 533.94,-471.96 513.29,-474.28"/>
<polygon fill="midnightblue" stroke="midnightblue" points="576.7,-470.67 586.25,-466.08 575.92,-463.72 576.7,-470.67"/>
</g>
<!-- Node17&#45;&gt;Node9 -->
<g id="edge20" class="edge">
<title>Node17&#45;&gt;Node9</title>
<path fill="none" stroke="midnightblue" d="M576.41,-451.64C556.95,-447.26 534.03,-442.11 513.29,-437.44"/>
<polygon fill="midnightblue" stroke="midnightblue" points="575.72,-455.07 586.25,-453.85 577.26,-448.24 575.72,-455.07"/>
</g>
<!-- Node20 -->
<g id="node20" class="node">
<title>Node20</title>
<g id="a_node20"><a xlink:href="../../d7/d64/labs_2inlab1_2Compute_8h.html#a7c627810ec1100f6ba69af278a1c5460" target="_top" xlink:title="Function to compute sine.">
<polygon fill="white" stroke="black" points="597.5,-114.5 597.5,-133.5 649.5,-133.5 649.5,-114.5 597.5,-114.5"/>
<text text-anchor="middle" x="623.5" y="-121.5" font-family="Helvetica,sans-Serif" font-size="10.00">my_sin</text>
</a>
</g>
</g>
<!-- Node19&#45;&gt;Node20 -->
<g id="edge23" class="edge">
<title>Node19&#45;&gt;Node20</title>
<path fill="none" stroke="midnightblue" d="M776.83,-124C736.88,-124 681.41,-124 649.61,-124"/>
<polygon fill="midnightblue" stroke="midnightblue" points="776.88,-127.5 786.88,-124 776.88,-120.5 776.88,-127.5"/>
</g>
<!-- Node21 -->
<g id="node21" class="node">
<title>Node21</title>
<g id="a_node21"><a xlink:href="../../dd/d40/classInLab1.html#a4e079d8eddd4a202eb5a0373d8fb8ab7" target="_top" xlink:title="Executes the project.">
<polygon fill="white" stroke="black" points="417,-114.5 417,-133.5 488,-133.5 488,-114.5 417,-114.5"/>
<text text-anchor="middle" x="452.5" y="-121.5" font-family="Helvetica,sans-Serif" font-size="10.00">InLab1::run</text>
</a>
</g>
</g>
<!-- Node20&#45;&gt;Node21 -->
<g id="edge24" class="edge">
<title>Node20&#45;&gt;Node21</title>
<path fill="none" stroke="midnightblue" d="M587.05,-124C557.94,-124 516.94,-124 488.07,-124"/>
<polygon fill="midnightblue" stroke="midnightblue" points="587.2,-127.5 597.2,-124 587.2,-120.5 587.2,-127.5"/>
</g>
<!-- Node22&#45;&gt;Node17 -->
<g id="edge30" class="edge">
<title>Node22&#45;&gt;Node17</title>
<path fill="none" stroke="midnightblue" d="M789.81,-399.18C749.82,-414.38 685.05,-438.99 649.62,-452.45"/>
<polygon fill="midnightblue" stroke="midnightblue" points="791.07,-402.45 799.17,-395.63 788.58,-395.91 791.07,-402.45"/>
</g>
<!-- Node23 -->
<g id="node23" class="node">
<title>Node23</title>
<g id="a_node23"><a xlink:href="../../db/df1/Helpers_8h.html#a059322c7104ae7ad1ee091c6e7ca17c1" target="_top" xlink:title="Calculates the number of iterations for a given point in the Julia set.">
<polygon fill="white" stroke="black" points="573.5,-338.5 573.5,-357.5 673.5,-357.5 673.5,-338.5 573.5,-338.5"/>
<text text-anchor="middle" x="623.5" y="-345.5" font-family="Helvetica,sans-Serif" font-size="10.00">juliaSetIterations</text>
</a>
</g>
</g>
<!-- Node22&#45;&gt;Node23 -->
<g id="edge26" class="edge">
<title>Node22&#45;&gt;Node23</title>
<path fill="none" stroke="midnightblue" d="M770.65,-375.77C740.42,-370.02 702.97,-362.91 673.55,-357.32"/>
<polygon fill="midnightblue" stroke="midnightblue" points="770.13,-379.23 780.61,-377.66 771.44,-372.36 770.13,-379.23"/>
</g>
<!-- Node27 -->
<g id="node27" class="node">
<title>Node27</title>
<g id="a_node27"><a xlink:href="../../dc/d9f/classInLab4.html#a95f32ac7f4ed5eb5d1093d22a291a6cb" target="_top" xlink:title="This function prints the Mandelbrot set.">
<polygon fill="white" stroke="black" points="549,-376.5 549,-395.5 698,-395.5 698,-376.5 549,-376.5"/>
<text text-anchor="middle" x="623.5" y="-383.5" font-family="Helvetica,sans-Serif" font-size="10.00">InLab4::printMandelbrotSet</text>
</a>
</g>
</g>
<!-- Node22&#45;&gt;Node27 -->
<g id="edge31" class="edge">
<title>Node22&#45;&gt;Node27</title>
<path fill="none" stroke="midnightblue" d="M770.37,-386C748.15,-386 722.07,-386 698.16,-386"/>
<polygon fill="midnightblue" stroke="midnightblue" points="770.61,-389.5 780.61,-386 770.61,-382.5 770.61,-389.5"/>
</g>
<!-- Node24 -->
<g id="node24" class="node">
<title>Node24</title>
<g id="a_node24"><a xlink:href="../../db/df1/Helpers_8h.html#ae8d5abc9a487df9eaa8058819e252d0f" target="_top" xlink:title="Prints the Julia set to the console using the specified canvas properties.">
<polygon fill="white" stroke="black" points="414.5,-338.5 414.5,-357.5 490.5,-357.5 490.5,-338.5 414.5,-338.5"/>
<text text-anchor="middle" x="452.5" y="-345.5" font-family="Helvetica,sans-Serif" font-size="10.00">printJuliaSet</text>
</a>
</g>
</g>
<!-- Node23&#45;&gt;Node24 -->
<g id="edge27" class="edge">
<title>Node23&#45;&gt;Node24</title>
<path fill="none" stroke="midnightblue" d="M563.03,-348C538.89,-348 511.75,-348 490.53,-348"/>
<polygon fill="midnightblue" stroke="midnightblue" points="563.16,-351.5 573.16,-348 563.16,-344.5 563.16,-351.5"/>
</g>
<!-- Node25 -->
<g id="node25" class="node">
<title>Node25</title>
<g id="a_node25"><a xlink:href="../../db/df1/Helpers_8h.html#a0bd7444ed4f75d9a9b3a9c3c711b4dca" target="_top" xlink:title="Draws the Julia set to a string buffer using the specified canvas properties.">
<polygon fill="white" stroke="black" points="234,-338.5 234,-357.5 311,-357.5 311,-338.5 234,-338.5"/>
<text text-anchor="middle" x="272.5" y="-345.5" font-family="Helvetica,sans-Serif" font-size="10.00">drawJuliaSet</text>
</a>
</g>
</g>
<!-- Node24&#45;&gt;Node25 -->
<g id="edge28" class="edge">
<title>Node24&#45;&gt;Node25</title>
<path fill="none" stroke="midnightblue" d="M403.84,-348C374.76,-348 338.1,-348 311.07,-348"/>
<polygon fill="midnightblue" stroke="midnightblue" points="404.19,-351.5 414.19,-348 404.19,-344.5 404.19,-351.5"/>
</g>
<!-- Node26 -->
<g id="node26" class="node">
<title>Node26</title>
<g id="a_node26"><a xlink:href="../../d3/d49/classOutLab7.html#a79137678d1379c0b3d58b6f62368d765" target="_top" xlink:title="This function builds the header information for the project.">
<polygon fill="white" stroke="black" points="6,-338.5 6,-357.5 147,-357.5 147,-338.5 6,-338.5"/>
<text text-anchor="middle" x="76.5" y="-345.5" font-family="Helvetica,sans-Serif" font-size="10.00">OutLab7::buildHeaderInfo</text>
</a>
</g>
</g>
<!-- Node25&#45;&gt;Node26 -->
<g id="edge29" class="edge">
<title>Node25&#45;&gt;Node26</title>
<path fill="none" stroke="midnightblue" d="M223.43,-348C200.4,-348 172.38,-348 147.07,-348"/>
<polygon fill="midnightblue" stroke="midnightblue" points="223.63,-351.5 233.63,-348 223.63,-344.5 223.63,-351.5"/>
</g>
<!-- Node29 -->
<g id="node29" class="node">
<title>Node29</title>
<g id="a_node29"><a xlink:href="../../d3/d49/classOutLab7.html#a67f71920b39fda9e520c16923c4958bc" target="_top" xlink:title="This function is used to perform the main computation.">
<polygon fill="white" stroke="black" points="584,-76.5 584,-95.5 663,-95.5 663,-76.5 584,-76.5"/>
<text text-anchor="middle" x="623.5" y="-83.5" font-family="Helvetica,sans-Serif" font-size="10.00">OutLab7::run</text>
</a>
</g>
</g>
<!-- Node28&#45;&gt;Node29 -->
<g id="edge33" class="edge">
<title>Node28&#45;&gt;Node29</title>
<path fill="none" stroke="midnightblue" d="M756.05,-86C725.01,-86 689.45,-86 663.14,-86"/>
<polygon fill="midnightblue" stroke="midnightblue" points="756.38,-89.5 766.38,-86 756.38,-82.5 756.38,-89.5"/>
</g>
</g>
</svg>
        <g id="navigator" transform="translate(0 0)" fill="#404254">
                <rect fill="#f2f5e9" fill-opacity="0.5" stroke="#606060" stroke-width=".5" x="0" y="0" width="60" height="60"/>
                <use id="zoomplus" xlink:href="#zoomPlus" x="17" y="9" onmousedown="handleZoom(evt,'in')"/>
                <use id="zoomminus" xlink:href="#zoomMin" x="42" y="9" onmousedown="handleZoom(evt,'out')"/>
                <use id="reset" xlink:href="#resetDef" x="30" y="36" onmousedown="handleReset()"/>
                <g id="arrowUp" xlink:href="#dirArrow" transform="translate(30 24)" onmousedown="handlePan(0,-1)">
                  <use xlink:href="#rim" fill="#404040">
                        <set attributeName="fill" to="#808080" begin="arrowUp.mouseover" end="arrowUp.mouseout"/>
                  </use>
                  <path fill="none" stroke="white" stroke-width="1.5" d="M0,-3.0v7 M-2.5,-0.5L0,-3.0L2.5,-0.5"/>
                </g>
                <g id="arrowRight" xlink:href="#dirArrow" transform="rotate(90) translate(36 -43)" onmousedown="handlePan(1,0)">
                  <use xlink:href="#rim" fill="#404040">
                        <set attributeName="fill" to="#808080" begin="arrowRight.mouseover" end="arrowRight.mouseout"/>
                  </use>
                  <path fill="none" stroke="white" stroke-width="1.5" d="M0,-3.0v7 M-2.5,-0.5L0,-3.0L2.5,-0.5"/>
                </g>
                <g id="arrowDown" xlink:href="#dirArrow" transform="rotate(180) translate(-30 -48)" onmousedown="handlePan(0,1)">
                  <use xlink:href="#rim" fill="#404040">
                        <set attributeName="fill" to="#808080" begin="arrowDown.mouseover" end="arrowDown.mouseout"/>
                  </use>
                  <path fill="none" stroke="white" stroke-width="1.5" d="M0,-3.0v7 M-2.5,-0.5L0,-3.0L2.5,-0.5"/>
                </g>
                <g id="arrowLeft" xlink:href="#dirArrow" transform="rotate(270) translate(-36 17)" onmousedown="handlePan(-1,0)">
                  <use xlink:href="#rim" fill="#404040">
                        <set attributeName="fill" to="#808080" begin="arrowLeft.mouseover" end="arrowLeft.mouseout"/>
                  </use>
                  <path fill="none" stroke="white" stroke-width="1.5" d="M0,-3.0v7 M-2.5,-0.5L0,-3.0L2.5,-0.5"/>
                </g>
        </g>
        <svg viewBox="0 0 15 15" width="100%" height="30px" preserveAspectRatio="xMaxYMin meet">
         <g id="arrow_out" transform="scale(0.3 0.3)">
          <a xlink:href="namespaceMyMath_af3e9a9de7b922fdfb6e3d2988b1212ff_icgraph_org.svg" target="_base">
           <rect id="button" ry="5" rx="5" y="6" x="6" height="38" width="38"
                fill="#f2f5e9" fill-opacity="0.5" stroke="#606060" stroke-width="1.0"/>
           <path id="arrow"
             d="M 11.500037,31.436501 C 11.940474,20.09759 22.043105,11.32322 32.158766,21.979434 L 37.068811,17.246167 C 37.068811,17.246167 37.088388,32 37.088388,32 L 22.160133,31.978069 C 22.160133,31.978069 26.997745,27.140456 26.997745,27.140456 C 18.528582,18.264221 13.291696,25.230495 11.500037,31.436501 z"
             style="fill:#404040;"/>
          </a>
         </g>
        </svg>
</svg>
