<?xml version="1.0" encoding="UTF-8" standalone="no"?>
<!DOCTYPE svg PUBLIC "-//W3C//DTD SVG 1.1//EN"
 "http://www.w3.org/Graphics/SVG/1.1/DTD/svg11.dtd">
<!-- Generated by graphviz version 2.43.0 (0)
 -->
<!-- Title: src/utils/physics/diffusion/tests/DiffusionMatrixTests.cpp Pages: 1 -->
<!--zoomable 397 -->
<svg id="main" version="1.1" xmlns="http://www.w3.org/2000/svg" xmlns:xlink="http://www.w3.org/1999/xlink" xml:space="preserve" onload="init(evt)">
<style type="text/css"><![CDATA[
.edge:hover path { stroke: red; }
.edge:hover polygon { stroke: red; fill: red; }
]]></style>
<script type="text/javascript"><![CDATA[
var edges = document.getElementsByTagName('g');
if (edges && edges.length) {
  for (var i=0;i<edges.length;i++) {
    if (edges[i].id.substr(0,4)=='edge') {
      edges[i].setAttribute('class','edge');
    }
  }
}
]]></script>
        <defs>
                <circle id="rim" cx="0" cy="0" r="7"/>
                <circle id="rim2" cx="0" cy="0" r="3.5"/>
                <g id="zoomPlus">
                        <use xlink:href="#rim" fill="#404040">
                                <set attributeName="fill" to="#808080" begin="zoomplus.mouseover" end="zoomplus.mouseout"/>
                        </use>
                        <path d="M-4,0h8M0,-4v8" fill="none" stroke="white" stroke-width="1.5" pointer-events="none"/>
                </g>
                <g id="zoomMin">
                        <use xlink:href="#rim" fill="#404040">
                                <set attributeName="fill" to="#808080" begin="zoomminus.mouseover" end="zoomminus.mouseout"/>
                        </use>
                        <path d="M-4,0h8" fill="none" stroke="white" stroke-width="1.5" pointer-events="none"/>
                </g>
                <g id="dirArrow">
                        <path fill="none" stroke="white" stroke-width="1.5" d="M0,-3.0v7 M-2.5,-0.5L0,-3.0L2.5,-0.5"/>
                </g>
               <g id="resetDef">
                       <use xlink:href="#rim2" fill="#404040">
                               <set attributeName="fill" to="#808080" begin="reset.mouseover" end="reset.mouseout"/>
                       </use>
               </g>
        </defs>

<script type="text/javascript">
var viewWidth = 755;
var viewHeight = 397;
var sectionId = 'dynsection-0';
</script>
<script xlink:href="../../svgpan.js"/>
<svg id="graph" class="graph">
<g id="viewport">
<title>src/utils/physics/diffusion/tests/DiffusionMatrixTests.cpp</title>
<polygon fill="white" stroke="transparent" points="-4,4 -4,-393 751.34,-393 751.34,4 -4,4"/>
<!-- Node1 -->
<g id="node1" class="node">
<title>Node1</title>
<g id="a_node1"><a xlink:title="TODO::DOCUMENT.">
<polygon fill="#bfbfbf" stroke="black" points="52,-358.5 52,-388.5 219,-388.5 219,-358.5 52,-358.5"/>
<text text-anchor="start" x="60" y="-376.5" font-family="Helvetica,sans-Serif" font-size="10.00">src/utils/physics/diffusion</text>
<text text-anchor="middle" x="135.5" y="-365.5" font-family="Helvetica,sans-Serif" font-size="10.00">/tests/DiffusionMatrixTests.cpp</text>
</a>
</g>
</g>
<!-- Node2 -->
<g id="node2" class="node">
<title>Node2</title>
<g id="a_node2"><a xlink:href="../../dd/dfb/DiffusionMatrix_8h.html" target="_top" xlink:title="TODO:: DOCUMENT.">
<polygon fill="white" stroke="black" points="63,-291.5 63,-321.5 208,-321.5 208,-291.5 63,-291.5"/>
<text text-anchor="start" x="71" y="-309.5" font-family="Helvetica,sans-Serif" font-size="10.00">physics/diffusion/Diffusion</text>
<text text-anchor="middle" x="135.5" y="-298.5" font-family="Helvetica,sans-Serif" font-size="10.00">Matrix.h</text>
</a>
</g>
</g>
<!-- Node1&#45;&gt;Node2 -->
<g id="edge1" class="edge">
<title>Node1&#45;&gt;Node2</title>
<path fill="none" stroke="midnightblue" d="M135.5,-358.4C135.5,-350.64 135.5,-340.81 135.5,-331.86"/>
<polygon fill="midnightblue" stroke="midnightblue" points="139,-331.58 135.5,-321.58 132,-331.58 139,-331.58"/>
</g>
<!-- Node6 -->
<g id="node6" class="node">
<title>Node6</title>
<g id="a_node6"><a xlink:href="../../da/db6/DiffusionParams_8h.html" target="_top" xlink:title="This file contains the definition of the Params struct which encapsulates the parameters required for...">
<polygon fill="white" stroke="black" points="115,-174 115,-193 220,-193 220,-174 115,-174"/>
<text text-anchor="middle" x="167.5" y="-181" font-family="Helvetica,sans-Serif" font-size="10.00">DiffusionParams.h</text>
</a>
</g>
</g>
<!-- Node1&#45;&gt;Node6 -->
<g id="edge32" class="edge">
<title>Node1&#45;&gt;Node6</title>
<path fill="none" stroke="midnightblue" d="M96.38,-358.48C80.07,-350.47 62.79,-338.64 53.5,-322 46.78,-309.97 51.82,-304.67 53.5,-291 56.63,-265.54 51.49,-255.04 67.5,-235 82.11,-216.72 105.07,-204.47 125.31,-196.61"/>
<polygon fill="midnightblue" stroke="midnightblue" points="126.77,-199.81 134.98,-193.11 124.39,-193.23 126.77,-199.81"/>
</g>
<!-- Node22 -->
<g id="node22" class="node">
<title>Node22</title>
<g id="a_node22"><a xlink:title=" ">
<polygon fill="white" stroke="#bfbfbf" points="226.5,-297 226.5,-316 304.5,-316 304.5,-297 226.5,-297"/>
<text text-anchor="middle" x="265.5" y="-304" font-family="Helvetica,sans-Serif" font-size="10.00">gtest/gtest.h</text>
</a>
</g>
</g>
<!-- Node1&#45;&gt;Node22 -->
<g id="edge33" class="edge">
<title>Node1&#45;&gt;Node22</title>
<path fill="none" stroke="midnightblue" d="M163.71,-358.4C186.22,-347.14 217.5,-331.5 239.42,-320.54"/>
<polygon fill="midnightblue" stroke="midnightblue" points="241.11,-323.61 248.49,-316.01 237.98,-317.35 241.11,-323.61"/>
</g>
<!-- Node3 -->
<g id="node3" class="node">
<title>Node3</title>
<g id="a_node3"><a xlink:href="../../d8/d5c/DiffusionConstants_8h.html" target="_top" xlink:title=" ">
<polygon fill="white" stroke="black" points="76.5,-235.5 76.5,-254.5 194.5,-254.5 194.5,-235.5 76.5,-235.5"/>
<text text-anchor="middle" x="135.5" y="-242.5" font-family="Helvetica,sans-Serif" font-size="10.00">DiffusionConstants.h</text>
</a>
</g>
</g>
<!-- Node2&#45;&gt;Node3 -->
<g id="edge2" class="edge">
<title>Node2&#45;&gt;Node3</title>
<path fill="none" stroke="midnightblue" d="M135.5,-291.4C135.5,-283.47 135.5,-273.46 135.5,-264.86"/>
<polygon fill="midnightblue" stroke="midnightblue" points="139,-264.66 135.5,-254.66 132,-264.66 139,-264.66"/>
</g>
<!-- Node5 -->
<g id="node5" class="node">
<title>Node5</title>
<g id="a_node5"><a xlink:title=" ">
<polygon fill="white" stroke="#bfbfbf" points="0,-112.5 0,-131.5 57,-131.5 57,-112.5 0,-112.5"/>
<text text-anchor="middle" x="28.5" y="-119.5" font-family="Helvetica,sans-Serif" font-size="10.00">ostream</text>
</a>
</g>
</g>
<!-- Node2&#45;&gt;Node5 -->
<g id="edge31" class="edge">
<title>Node2&#45;&gt;Node5</title>
<path fill="none" stroke="midnightblue" d="M108.91,-291.41C94.75,-282.66 78.11,-270.19 67.5,-255 42.84,-219.69 33.57,-168.66 30.25,-141.56"/>
<polygon fill="midnightblue" stroke="midnightblue" points="33.71,-141.08 29.16,-131.52 26.76,-141.84 33.71,-141.08"/>
</g>
<!-- Node2&#45;&gt;Node6 -->
<g id="edge21" class="edge">
<title>Node2&#45;&gt;Node6</title>
<path fill="none" stroke="midnightblue" d="M165.62,-291.44C179.88,-283.05 195.51,-270.9 203.5,-255 212.98,-236.15 198.14,-214.54 184.73,-200.27"/>
<polygon fill="midnightblue" stroke="midnightblue" points="187.16,-197.75 177.6,-193.17 182.21,-202.7 187.16,-197.75"/>
</g>
<!-- Node18 -->
<g id="node18" class="node">
<title>Node18</title>
<g id="a_node18"><a xlink:href="../../d8/d5a/LazyMatrix_8h.html" target="_top" xlink:title="TODO:: DOCUMENT.">
<polygon fill="white" stroke="black" points="423,-235.5 423,-254.5 590,-254.5 590,-235.5 423,-235.5"/>
<text text-anchor="middle" x="506.5" y="-242.5" font-family="Helvetica,sans-Serif" font-size="10.00">math/blas/matrix/LazyMatrix.h</text>
</a>
</g>
</g>
<!-- Node2&#45;&gt;Node18 -->
<g id="edge22" class="edge">
<title>Node2&#45;&gt;Node18</title>
<path fill="none" stroke="midnightblue" d="M208.36,-292.54C211.45,-292.01 214.51,-291.5 217.5,-291 293.34,-278.39 380.56,-264.96 439.18,-256.08"/>
<polygon fill="midnightblue" stroke="midnightblue" points="440.05,-259.49 449.42,-254.53 439.01,-252.57 440.05,-259.49"/>
</g>
<!-- Node4 -->
<g id="node4" class="node">
<title>Node4</title>
<g id="a_node4"><a xlink:title=" ">
<polygon fill="white" stroke="#bfbfbf" points="463,-112.5 463,-131.5 516,-131.5 516,-112.5 463,-112.5"/>
<text text-anchor="middle" x="489.5" y="-119.5" font-family="Helvetica,sans-Serif" font-size="10.00">cstddef</text>
</a>
</g>
</g>
<!-- Node3&#45;&gt;Node4 -->
<g id="edge3" class="edge">
<title>Node3&#45;&gt;Node4</title>
<path fill="none" stroke="midnightblue" d="M153.63,-235.39C190.94,-217.76 275.37,-178.3 305.5,-168 366.68,-147.08 386.04,-148.07 453,-132.08"/>
<polygon fill="midnightblue" stroke="midnightblue" points="453.88,-135.46 462.77,-129.7 452.22,-128.66 453.88,-135.46"/>
</g>
<!-- Node3&#45;&gt;Node5 -->
<g id="edge4" class="edge">
<title>Node3&#45;&gt;Node5</title>
<path fill="none" stroke="midnightblue" d="M127.8,-235.3C109.99,-215.15 65.69,-165.06 42.76,-139.12"/>
<polygon fill="midnightblue" stroke="midnightblue" points="45.37,-136.8 36.13,-131.62 40.13,-141.43 45.37,-136.8"/>
</g>
<!-- Node3&#45;&gt;Node6 -->
<g id="edge5" class="edge">
<title>Node3&#45;&gt;Node6</title>
<path fill="none" stroke="midnightblue" d="M140.08,-235.48C144.74,-226.82 152.09,-213.15 158.01,-202.15"/>
<polygon fill="midnightblue" stroke="midnightblue" points="161.27,-203.47 162.92,-193.01 155.1,-200.16 161.27,-203.47"/>
</g>
<!-- Node6&#45;&gt;Node4 -->
<g id="edge7" class="edge">
<title>Node6&#45;&gt;Node4</title>
<path fill="none" stroke="midnightblue" d="M205.35,-173.96C214.85,-171.92 225.03,-169.8 234.5,-168 328.28,-150.16 355.19,-151.84 452.83,-131.99"/>
<polygon fill="midnightblue" stroke="midnightblue" points="453.73,-135.37 462.82,-129.93 452.32,-128.52 453.73,-135.37"/>
</g>
<!-- Node6&#45;&gt;Node5 -->
<g id="edge9" class="edge">
<title>Node6&#45;&gt;Node5</title>
<path fill="none" stroke="midnightblue" d="M147.58,-173.98C124.05,-163.9 84.69,-147.05 57.71,-135.5"/>
<polygon fill="midnightblue" stroke="midnightblue" points="58.95,-132.23 48.38,-131.51 56.19,-138.66 58.95,-132.23"/>
</g>
<!-- Node7 -->
<g id="node7" class="node">
<title>Node7</title>
<g id="a_node7"><a xlink:title=" ">
<polygon fill="white" stroke="#bfbfbf" points="235,-112.5 235,-131.5 282,-131.5 282,-112.5 235,-112.5"/>
<text text-anchor="middle" x="258.5" y="-119.5" font-family="Helvetica,sans-Serif" font-size="10.00">cmath</text>
</a>
</g>
</g>
<!-- Node6&#45;&gt;Node7 -->
<g id="edge6" class="edge">
<title>Node6&#45;&gt;Node7</title>
<path fill="none" stroke="midnightblue" d="M180.54,-173.98C195.27,-164.34 219.47,-148.52 237.01,-137.05"/>
<polygon fill="midnightblue" stroke="midnightblue" points="239.03,-139.91 245.49,-131.51 235.2,-134.05 239.03,-139.91"/>
</g>
<!-- Node8 -->
<g id="node8" class="node">
<title>Node8</title>
<g id="a_node8"><a xlink:title=" ">
<polygon fill="white" stroke="#bfbfbf" points="75.5,-112.5 75.5,-131.5 133.5,-131.5 133.5,-112.5 75.5,-112.5"/>
<text text-anchor="middle" x="104.5" y="-119.5" font-family="Helvetica,sans-Serif" font-size="10.00">memory</text>
</a>
</g>
</g>
<!-- Node6&#45;&gt;Node8 -->
<g id="edge8" class="edge">
<title>Node6&#45;&gt;Node8</title>
<path fill="none" stroke="midnightblue" d="M158.47,-173.98C148.74,-164.78 133.04,-149.96 121.08,-138.66"/>
<polygon fill="midnightblue" stroke="midnightblue" points="123.18,-135.83 113.51,-131.51 118.38,-140.92 123.18,-135.83"/>
</g>
<!-- Node9 -->
<g id="node9" class="node">
<title>Node9</title>
<g id="a_node9"><a xlink:title=" ">
<polygon fill="white" stroke="#bfbfbf" points="152,-112.5 152,-131.5 217,-131.5 217,-112.5 152,-112.5"/>
<text text-anchor="middle" x="184.5" y="-119.5" font-family="Helvetica,sans-Serif" font-size="10.00">stdexcept</text>
</a>
</g>
</g>
<!-- Node6&#45;&gt;Node9 -->
<g id="edge10" class="edge">
<title>Node6&#45;&gt;Node9</title>
<path fill="none" stroke="midnightblue" d="M169.94,-173.98C172.36,-165.49 176.16,-152.2 179.27,-141.32"/>
<polygon fill="midnightblue" stroke="midnightblue" points="182.69,-142.09 182.07,-131.51 175.96,-140.16 182.69,-142.09"/>
</g>
<!-- Node10 -->
<g id="node10" class="node">
<title>Node10</title>
<g id="a_node10"><a xlink:href="../../d3/db1/Matrix_8h.html" target="_top" xlink:title="This file contains my BLAS::Matrix declarations.">
<polygon fill="white" stroke="black" points="300.5,-112.5 300.5,-131.5 444.5,-131.5 444.5,-112.5 300.5,-112.5"/>
<text text-anchor="middle" x="372.5" y="-119.5" font-family="Helvetica,sans-Serif" font-size="10.00">math/blas/matrix/Matrix.h</text>
</a>
</g>
</g>
<!-- Node6&#45;&gt;Node10 -->
<g id="edge11" class="edge">
<title>Node6&#45;&gt;Node10</title>
<path fill="none" stroke="midnightblue" d="M196.87,-173.98C232.8,-163.55 293.73,-145.86 333.54,-134.31"/>
<polygon fill="midnightblue" stroke="midnightblue" points="334.55,-137.66 343.18,-131.51 332.6,-130.94 334.55,-137.66"/>
</g>
<!-- Node11 -->
<g id="node11" class="node">
<title>Node11</title>
<g id="a_node11"><a xlink:title=" ">
<polygon fill="white" stroke="#bfbfbf" points="638.5,-56.5 638.5,-75.5 702.5,-75.5 702.5,-56.5 638.5,-56.5"/>
<text text-anchor="middle" x="670.5" y="-63.5" font-family="Helvetica,sans-Serif" font-size="10.00">algorithm</text>
</a>
</g>
</g>
<!-- Node10&#45;&gt;Node11 -->
<g id="edge12" class="edge">
<title>Node10&#45;&gt;Node11</title>
<path fill="none" stroke="midnightblue" d="M419.72,-112.44C477.07,-102.05 572.97,-84.67 628.07,-74.69"/>
<polygon fill="midnightblue" stroke="midnightblue" points="628.98,-78.08 638.2,-72.85 627.73,-71.19 628.98,-78.08"/>
</g>
<!-- Node12 -->
<g id="node12" class="node">
<title>Node12</title>
<g id="a_node12"><a xlink:title=" ">
<polygon fill="white" stroke="#bfbfbf" points="461.5,-56.5 461.5,-75.5 513.5,-75.5 513.5,-56.5 461.5,-56.5"/>
<text text-anchor="middle" x="487.5" y="-63.5" font-family="Helvetica,sans-Serif" font-size="10.00">cassert</text>
</a>
</g>
</g>
<!-- Node10&#45;&gt;Node12 -->
<g id="edge13" class="edge">
<title>Node10&#45;&gt;Node12</title>
<path fill="none" stroke="midnightblue" d="M390.72,-112.44C409.4,-103.68 438.66,-89.94 460.12,-79.86"/>
<polygon fill="midnightblue" stroke="midnightblue" points="461.8,-82.93 469.36,-75.52 458.82,-76.6 461.8,-82.93"/>
</g>
<!-- Node13 -->
<g id="node13" class="node">
<title>Node13</title>
<g id="a_node13"><a xlink:title=" ">
<polygon fill="white" stroke="#bfbfbf" points="464.5,-0.5 464.5,-19.5 524.5,-19.5 524.5,-0.5 464.5,-0.5"/>
<text text-anchor="middle" x="494.5" y="-7.5" font-family="Helvetica,sans-Serif" font-size="10.00">iostream</text>
</a>
</g>
</g>
<!-- Node10&#45;&gt;Node13 -->
<g id="edge14" class="edge">
<title>Node10&#45;&gt;Node13</title>
<path fill="none" stroke="midnightblue" d="M423.26,-112.43C461.91,-104.74 510.45,-92.2 522.5,-76 533.55,-61.14 521.89,-41.25 510.42,-27.4"/>
<polygon fill="midnightblue" stroke="midnightblue" points="512.78,-24.79 503.51,-19.66 507.56,-29.45 512.78,-24.79"/>
</g>
<!-- Node14 -->
<g id="node14" class="node">
<title>Node14</title>
<g id="a_node14"><a xlink:title=" ">
<polygon fill="white" stroke="#bfbfbf" points="193,-0.5 193,-19.5 240,-19.5 240,-0.5 193,-0.5"/>
<text text-anchor="middle" x="216.5" y="-7.5" font-family="Helvetica,sans-Serif" font-size="10.00">vector</text>
</a>
</g>
</g>
<!-- Node10&#45;&gt;Node14 -->
<g id="edge15" class="edge">
<title>Node10&#45;&gt;Node14</title>
<path fill="none" stroke="midnightblue" d="M309.64,-112.49C247.02,-103.37 158.76,-88.52 148.5,-76 132.35,-56.28 161.16,-36.45 186.12,-23.97"/>
<polygon fill="midnightblue" stroke="midnightblue" points="187.86,-27.01 195.39,-19.56 184.86,-20.69 187.86,-27.01"/>
</g>
<!-- Node15 -->
<g id="node15" class="node">
<title>Node15</title>
<g id="a_node15"><a xlink:href="../../d1/d45/Constants_8h.html" target="_top" xlink:title="MyBLAS Constants definition.">
<polygon fill="white" stroke="black" points="157.5,-56.5 157.5,-75.5 283.5,-75.5 283.5,-56.5 157.5,-56.5"/>
<text text-anchor="middle" x="220.5" y="-63.5" font-family="Helvetica,sans-Serif" font-size="10.00">math/blas/Constants.h</text>
</a>
</g>
</g>
<!-- Node10&#45;&gt;Node15 -->
<g id="edge16" class="edge">
<title>Node10&#45;&gt;Node15</title>
<path fill="none" stroke="midnightblue" d="M348.42,-112.44C322.96,-103.4 282.61,-89.06 254.04,-78.92"/>
<polygon fill="midnightblue" stroke="midnightblue" points="255.07,-75.57 244.47,-75.52 252.72,-82.16 255.07,-75.57"/>
</g>
<!-- Node16 -->
<g id="node16" class="node">
<title>Node16</title>
<g id="a_node16"><a xlink:href="../../d6/dbe/Vector_8h.html" target="_top" xlink:title="This file contains my BLAS::Vector implementation.">
<polygon fill="white" stroke="black" points="302,-56.5 302,-75.5 443,-75.5 443,-56.5 302,-56.5"/>
<text text-anchor="middle" x="372.5" y="-63.5" font-family="Helvetica,sans-Serif" font-size="10.00">math/blas/vector/Vector.h</text>
</a>
</g>
</g>
<!-- Node10&#45;&gt;Node16 -->
<g id="edge17" class="edge">
<title>Node10&#45;&gt;Node16</title>
<path fill="none" stroke="midnightblue" d="M372.5,-112.08C372.5,-105.01 372.5,-94.86 372.5,-85.99"/>
<polygon fill="midnightblue" stroke="midnightblue" points="376,-85.75 372.5,-75.75 369,-85.75 376,-85.75"/>
</g>
<!-- Node16&#45;&gt;Node13 -->
<g id="edge19" class="edge">
<title>Node16&#45;&gt;Node13</title>
<path fill="none" stroke="midnightblue" d="M391.83,-56.44C411.82,-47.6 443.24,-33.69 466.06,-23.59"/>
<polygon fill="midnightblue" stroke="midnightblue" points="467.53,-26.76 475.26,-19.52 464.7,-20.36 467.53,-26.76"/>
</g>
<!-- Node16&#45;&gt;Node14 -->
<g id="edge20" class="edge">
<title>Node16&#45;&gt;Node14</title>
<path fill="none" stroke="midnightblue" d="M347.78,-56.44C321.34,-47.29 279.26,-32.73 249.89,-22.56"/>
<polygon fill="midnightblue" stroke="midnightblue" points="250.68,-19.13 240.08,-19.16 248.39,-25.74 250.68,-19.13"/>
</g>
<!-- Node17 -->
<g id="node17" class="node">
<title>Node17</title>
<g id="a_node17"><a xlink:title=" ">
<polygon fill="white" stroke="#bfbfbf" points="344.5,-0.5 344.5,-19.5 400.5,-19.5 400.5,-0.5 344.5,-0.5"/>
<text text-anchor="middle" x="372.5" y="-7.5" font-family="Helvetica,sans-Serif" font-size="10.00">iomanip</text>
</a>
</g>
</g>
<!-- Node16&#45;&gt;Node17 -->
<g id="edge18" class="edge">
<title>Node16&#45;&gt;Node17</title>
<path fill="none" stroke="midnightblue" d="M372.5,-56.08C372.5,-49.01 372.5,-38.86 372.5,-29.99"/>
<polygon fill="midnightblue" stroke="midnightblue" points="376,-29.75 372.5,-19.75 369,-29.75 376,-29.75"/>
</g>
<!-- Node18&#45;&gt;Node4 -->
<g id="edge24" class="edge">
<title>Node18&#45;&gt;Node4</title>
<path fill="none" stroke="midnightblue" d="M505.28,-235.3C502.53,-215.76 495.83,-168.06 492.11,-141.55"/>
<polygon fill="midnightblue" stroke="midnightblue" points="495.57,-141.04 490.71,-131.62 488.64,-142.01 495.57,-141.04"/>
</g>
<!-- Node18&#45;&gt;Node10 -->
<g id="edge26" class="edge">
<title>Node18&#45;&gt;Node10</title>
<path fill="none" stroke="midnightblue" d="M422.99,-235.79C374.64,-229.11 320.45,-217.67 305.5,-199 296.89,-188.25 299.02,-180.16 305.5,-168 313.05,-153.83 327.26,-143.33 340.66,-136.06"/>
<polygon fill="midnightblue" stroke="midnightblue" points="342.33,-139.13 349.71,-131.53 339.2,-132.87 342.33,-139.13"/>
</g>
<!-- Node18&#45;&gt;Node11 -->
<g id="edge23" class="edge">
<title>Node18&#45;&gt;Node11</title>
<path fill="none" stroke="midnightblue" d="M590.02,-238.7C648.29,-233.06 718.83,-221.66 737.5,-199 768.12,-161.83 718.02,-108.35 688.96,-82.36"/>
<polygon fill="midnightblue" stroke="midnightblue" points="691.25,-79.71 681.41,-75.79 686.66,-84.99 691.25,-79.71"/>
</g>
<!-- Node19 -->
<g id="node19" class="node">
<title>Node19</title>
<g id="a_node19"><a xlink:title=" ">
<polygon fill="white" stroke="#bfbfbf" points="663,-174 663,-193 728,-193 728,-174 663,-174"/>
<text text-anchor="middle" x="695.5" y="-181" font-family="Helvetica,sans-Serif" font-size="10.00">functional</text>
</a>
</g>
</g>
<!-- Node18&#45;&gt;Node19 -->
<g id="edge25" class="edge">
<title>Node18&#45;&gt;Node19</title>
<path fill="none" stroke="midnightblue" d="M535.6,-235.42C565.33,-226.58 612.77,-212.26 653.5,-199 656.09,-198.16 658.77,-197.27 661.46,-196.37"/>
<polygon fill="midnightblue" stroke="midnightblue" points="662.78,-199.61 671.12,-193.08 660.52,-192.99 662.78,-199.61"/>
</g>
<!-- Node20 -->
<g id="node20" class="node">
<title>Node20</title>
<g id="a_node20"><a xlink:href="../../da/ddf/MatrixExpression_8h.html" target="_top" xlink:title="TODO:: DOCUMENT.">
<polygon fill="white" stroke="black" points="534.5,-174 534.5,-193 644.5,-193 644.5,-174 534.5,-174"/>
<text text-anchor="middle" x="589.5" y="-181" font-family="Helvetica,sans-Serif" font-size="10.00">MatrixExpression.h</text>
</a>
</g>
</g>
<!-- Node18&#45;&gt;Node20 -->
<g id="edge27" class="edge">
<title>Node18&#45;&gt;Node20</title>
<path fill="none" stroke="midnightblue" d="M518.39,-235.48C531.7,-225.93 553.5,-210.31 569.46,-198.87"/>
<polygon fill="midnightblue" stroke="midnightblue" points="571.54,-201.68 577.63,-193.01 567.46,-195.99 571.54,-201.68"/>
</g>
<!-- Node21 -->
<g id="node21" class="node">
<title>Node21</title>
<g id="a_node21"><a xlink:href="../../d2/dc6/MatrixVectorExpression_8h.html" target="_top" xlink:title=" ">
<polygon fill="white" stroke="black" points="314.5,-168.5 314.5,-198.5 478.5,-198.5 478.5,-168.5 314.5,-168.5"/>
<text text-anchor="start" x="322.5" y="-186.5" font-family="Helvetica,sans-Serif" font-size="10.00">math/blas/vector/MatrixVector</text>
<text text-anchor="middle" x="396.5" y="-175.5" font-family="Helvetica,sans-Serif" font-size="10.00">Expression.h</text>
</a>
</g>
</g>
<!-- Node18&#45;&gt;Node21 -->
<g id="edge29" class="edge">
<title>Node18&#45;&gt;Node21</title>
<path fill="none" stroke="midnightblue" d="M490.74,-235.48C475.28,-227.12 451.2,-214.09 431.25,-203.3"/>
<polygon fill="midnightblue" stroke="midnightblue" points="432.89,-200.2 422.42,-198.52 429.56,-206.36 432.89,-200.2"/>
</g>
<!-- Node20&#45;&gt;Node4 -->
<g id="edge28" class="edge">
<title>Node20&#45;&gt;Node4</title>
<path fill="none" stroke="midnightblue" d="M575.17,-173.98C558.84,-164.25 531.9,-148.23 512.59,-136.74"/>
<polygon fill="midnightblue" stroke="midnightblue" points="514.18,-133.61 503.8,-131.51 510.61,-139.63 514.18,-133.61"/>
</g>
<!-- Node21&#45;&gt;Node4 -->
<g id="edge30" class="edge">
<title>Node21&#45;&gt;Node4</title>
<path fill="none" stroke="midnightblue" d="M418.54,-168.4C433.31,-158.95 452.68,-146.56 467.45,-137.11"/>
<polygon fill="midnightblue" stroke="midnightblue" points="469.43,-140 475.97,-131.66 465.66,-134.1 469.43,-140"/>
</g>
</g>
</svg>
        <g id="navigator" transform="translate(0 0)" fill="#404254">
                <rect fill="#f2f5e9" fill-opacity="0.5" stroke="#606060" stroke-width=".5" x="0" y="0" width="60" height="60"/>
                <use id="zoomplus" xlink:href="#zoomPlus" x="17" y="9" onmousedown="handleZoom(evt,'in')"/>
                <use id="zoomminus" xlink:href="#zoomMin" x="42" y="9" onmousedown="handleZoom(evt,'out')"/>
                <use id="reset" xlink:href="#resetDef" x="30" y="36" onmousedown="handleReset()"/>
                <g id="arrowUp" xlink:href="#dirArrow" transform="translate(30 24)" onmousedown="handlePan(0,-1)">
                  <use xlink:href="#rim" fill="#404040">
                        <set attributeName="fill" to="#808080" begin="arrowUp.mouseover" end="arrowUp.mouseout"/>
                  </use>
                  <path fill="none" stroke="white" stroke-width="1.5" d="M0,-3.0v7 M-2.5,-0.5L0,-3.0L2.5,-0.5"/>
                </g>
                <g id="arrowRight" xlink:href="#dirArrow" transform="rotate(90) translate(36 -43)" onmousedown="handlePan(1,0)">
                  <use xlink:href="#rim" fill="#404040">
                        <set attributeName="fill" to="#808080" begin="arrowRight.mouseover" end="arrowRight.mouseout"/>
                  </use>
                  <path fill="none" stroke="white" stroke-width="1.5" d="M0,-3.0v7 M-2.5,-0.5L0,-3.0L2.5,-0.5"/>
                </g>
                <g id="arrowDown" xlink:href="#dirArrow" transform="rotate(180) translate(-30 -48)" onmousedown="handlePan(0,1)">
                  <use xlink:href="#rim" fill="#404040">
                        <set attributeName="fill" to="#808080" begin="arrowDown.mouseover" end="arrowDown.mouseout"/>
                  </use>
                  <path fill="none" stroke="white" stroke-width="1.5" d="M0,-3.0v7 M-2.5,-0.5L0,-3.0L2.5,-0.5"/>
                </g>
                <g id="arrowLeft" xlink:href="#dirArrow" transform="rotate(270) translate(-36 17)" onmousedown="handlePan(-1,0)">
                  <use xlink:href="#rim" fill="#404040">
                        <set attributeName="fill" to="#808080" begin="arrowLeft.mouseover" end="arrowLeft.mouseout"/>
                  </use>
                  <path fill="none" stroke="white" stroke-width="1.5" d="M0,-3.0v7 M-2.5,-0.5L0,-3.0L2.5,-0.5"/>
                </g>
        </g>
        <svg viewBox="0 0 15 15" width="100%" height="30px" preserveAspectRatio="xMaxYMin meet">
         <g id="arrow_out" transform="scale(0.3 0.3)">
          <a xlink:href="DiffusionMatrixTests_8cpp__incl_org.svg" target="_base">
           <rect id="button" ry="5" rx="5" y="6" x="6" height="38" width="38"
                fill="#f2f5e9" fill-opacity="0.5" stroke="#606060" stroke-width="1.0"/>
           <path id="arrow"
             d="M 11.500037,31.436501 C 11.940474,20.09759 22.043105,11.32322 32.158766,21.979434 L 37.068811,17.246167 C 37.068811,17.246167 37.088388,32 37.088388,32 L 22.160133,31.978069 C 22.160133,31.978069 26.997745,27.140456 26.997745,27.140456 C 18.528582,18.264221 13.291696,25.230495 11.500037,31.436501 z"
             style="fill:#404040;"/>
          </a>
         </g>
        </svg>
</svg>
