<?xml version="1.0" encoding="UTF-8" standalone="no"?>
<!DOCTYPE svg PUBLIC "-//W3C//DTD SVG 1.1//EN"
 "http://www.w3.org/Graphics/SVG/1.1/DTD/svg11.dtd">
<!-- Generated by graphviz version 2.43.0 (0)
 -->
<!-- Title: src/utils/physics/diffusion/tests/DiffusionMatrixTests.cpp Pages: 1 -->
<svg width="1293pt" height="520pt"
 viewBox="0.00 0.00 1292.50 520.00" xmlns="http://www.w3.org/2000/svg" xmlns:xlink="http://www.w3.org/1999/xlink">
<g id="graph0" class="graph" transform="scale(1 1) rotate(0) translate(4 516)">
<title>src/utils/physics/diffusion/tests/DiffusionMatrixTests.cpp</title>
<polygon fill="white" stroke="transparent" points="-4,4 -4,-516 1288.5,-516 1288.5,4 -4,4"/>
<!-- Node1 -->
<g id="node1" class="node">
<title>Node1</title>
<g id="a_node1"><a xlink:title="This file contains test cases for the DiffusionMatrix class and related functions.">
<polygon fill="#bfbfbf" stroke="black" points="186,-481.5 186,-511.5 353,-511.5 353,-481.5 186,-481.5"/>
<text text-anchor="start" x="194" y="-499.5" font-family="Helvetica,sans-Serif" font-size="10.00">src/utils/physics/diffusion</text>
<text text-anchor="middle" x="269.5" y="-488.5" font-family="Helvetica,sans-Serif" font-size="10.00">/tests/DiffusionMatrixTests.cpp</text>
</a>
</g>
</g>
<!-- Node2 -->
<g id="node2" class="node">
<title>Node2</title>
<g id="a_node2"><a xlink:href="../../dd/dfb/DiffusionMatrix_8h.html" target="_top" xlink:title="This file defines the Matrix class within the MyPhysics::Diffusion namespace. The Matrix class is a t...">
<polygon fill="white" stroke="black" points="197,-414.5 197,-444.5 342,-444.5 342,-414.5 197,-414.5"/>
<text text-anchor="start" x="205" y="-432.5" font-family="Helvetica,sans-Serif" font-size="10.00">physics/diffusion/Diffusion</text>
<text text-anchor="middle" x="269.5" y="-421.5" font-family="Helvetica,sans-Serif" font-size="10.00">Matrix.h</text>
</a>
</g>
</g>
<!-- Node1&#45;&gt;Node2 -->
<g id="edge1" class="edge">
<title>Node1&#45;&gt;Node2</title>
<path fill="none" stroke="midnightblue" d="M269.5,-481.4C269.5,-473.64 269.5,-463.81 269.5,-454.86"/>
<polygon fill="midnightblue" stroke="midnightblue" points="273,-454.58 269.5,-444.58 266,-454.58 273,-454.58"/>
</g>
<!-- Node6 -->
<g id="node6" class="node">
<title>Node6</title>
<g id="a_node6"><a xlink:href="../../da/db6/DiffusionParams_8h.html" target="_top" xlink:title="This file contains the definition of the Params struct which encapsulates the parameters required for...">
<polygon fill="white" stroke="black" points="130,-302.5 130,-321.5 235,-321.5 235,-302.5 130,-302.5"/>
<text text-anchor="middle" x="182.5" y="-309.5" font-family="Helvetica,sans-Serif" font-size="10.00">DiffusionParams.h</text>
</a>
</g>
</g>
<!-- Node1&#45;&gt;Node6 -->
<g id="edge48" class="edge">
<title>Node1&#45;&gt;Node6</title>
<path fill="none" stroke="midnightblue" d="M230.67,-481.32C214.42,-473.28 197.11,-461.46 187.5,-445 166.76,-409.47 172.63,-358.93 178,-331.85"/>
<polygon fill="midnightblue" stroke="midnightblue" points="181.48,-332.31 180.19,-321.79 174.64,-330.82 181.48,-332.31"/>
</g>
<!-- Node25 -->
<g id="node25" class="node">
<title>Node25</title>
<g id="a_node25"><a xlink:title=" ">
<polygon fill="white" stroke="#bfbfbf" points="360.5,-420 360.5,-439 438.5,-439 438.5,-420 360.5,-420"/>
<text text-anchor="middle" x="399.5" y="-427" font-family="Helvetica,sans-Serif" font-size="10.00">gtest/gtest.h</text>
</a>
</g>
</g>
<!-- Node1&#45;&gt;Node25 -->
<g id="edge49" class="edge">
<title>Node1&#45;&gt;Node25</title>
<path fill="none" stroke="midnightblue" d="M297.71,-481.4C320.22,-470.14 351.5,-454.5 373.42,-443.54"/>
<polygon fill="midnightblue" stroke="midnightblue" points="375.11,-446.61 382.49,-439.01 371.98,-440.35 375.11,-446.61"/>
</g>
<!-- Node3 -->
<g id="node3" class="node">
<title>Node3</title>
<g id="a_node3"><a xlink:href="../../d8/d5c/DiffusionConstants_8h.html" target="_top" xlink:title="This file contains the Constants struct which is used to store and compute various constants related ...">
<polygon fill="white" stroke="black" points="210.5,-358.5 210.5,-377.5 328.5,-377.5 328.5,-358.5 210.5,-358.5"/>
<text text-anchor="middle" x="269.5" y="-365.5" font-family="Helvetica,sans-Serif" font-size="10.00">DiffusionConstants.h</text>
</a>
</g>
</g>
<!-- Node2&#45;&gt;Node3 -->
<g id="edge2" class="edge">
<title>Node2&#45;&gt;Node3</title>
<path fill="none" stroke="midnightblue" d="M269.5,-414.4C269.5,-406.47 269.5,-396.46 269.5,-387.86"/>
<polygon fill="midnightblue" stroke="midnightblue" points="273,-387.66 269.5,-377.66 266,-387.66 273,-387.66"/>
</g>
<!-- Node5 -->
<g id="node5" class="node">
<title>Node5</title>
<g id="a_node5"><a xlink:title=" ">
<polygon fill="white" stroke="#bfbfbf" points="225,-246.5 225,-265.5 282,-265.5 282,-246.5 225,-246.5"/>
<text text-anchor="middle" x="253.5" y="-253.5" font-family="Helvetica,sans-Serif" font-size="10.00">ostream</text>
</a>
</g>
</g>
<!-- Node2&#45;&gt;Node5 -->
<g id="edge47" class="edge">
<title>Node2&#45;&gt;Node5</title>
<path fill="none" stroke="midnightblue" d="M299.62,-414.44C313.88,-406.05 329.51,-393.9 337.5,-378 341.49,-370.06 340.52,-366.36 337.5,-358 324.55,-322.18 292.75,-290.12 272.21,-272.15"/>
<polygon fill="midnightblue" stroke="midnightblue" points="274.32,-269.35 264.43,-265.55 269.79,-274.69 274.32,-269.35"/>
</g>
<!-- Node2&#45;&gt;Node6 -->
<g id="edge33" class="edge">
<title>Node2&#45;&gt;Node6</title>
<path fill="none" stroke="midnightblue" d="M242.89,-414.42C228.73,-405.68 212.09,-393.21 201.5,-378 191.95,-364.28 187.15,-345.75 184.76,-331.98"/>
<polygon fill="midnightblue" stroke="midnightblue" points="188.18,-331.15 183.28,-321.75 181.25,-332.15 188.18,-331.15"/>
</g>
<!-- Node22 -->
<g id="node22" class="node">
<title>Node22</title>
<g id="a_node22"><a xlink:href="../../d8/d5a/LazyMatrix_8h.html" target="_top" xlink:title="Header file for the LazyMatrix class.">
<polygon fill="white" stroke="black" points="720,-302.5 720,-321.5 887,-321.5 887,-302.5 720,-302.5"/>
<text text-anchor="middle" x="803.5" y="-309.5" font-family="Helvetica,sans-Serif" font-size="10.00">math/blas/matrix/LazyMatrix.h</text>
</a>
</g>
</g>
<!-- Node2&#45;&gt;Node22 -->
<g id="edge34" class="edge">
<title>Node2&#45;&gt;Node22</title>
<path fill="none" stroke="midnightblue" d="M334.45,-414.45C442.63,-391.05 657.4,-344.6 754.18,-323.67"/>
<polygon fill="midnightblue" stroke="midnightblue" points="754.97,-327.08 764.01,-321.54 753.49,-320.24 754.97,-327.08"/>
</g>
<!-- Node4 -->
<g id="node4" class="node">
<title>Node4</title>
<g id="a_node4"><a xlink:title=" ">
<polygon fill="white" stroke="#bfbfbf" points="948,-0.5 948,-19.5 1001,-19.5 1001,-0.5 948,-0.5"/>
<text text-anchor="middle" x="974.5" y="-7.5" font-family="Helvetica,sans-Serif" font-size="10.00">cstddef</text>
</a>
</g>
</g>
<!-- Node3&#45;&gt;Node4 -->
<g id="edge3" class="edge">
<title>Node3&#45;&gt;Node4</title>
<path fill="none" stroke="midnightblue" d="M328.83,-366.84C545.93,-365.49 1284.5,-353.77 1284.5,-257 1284.5,-257 1284.5,-257 1284.5,-132 1284.5,-73.89 1093.11,-32.4 1011.1,-17.28"/>
<polygon fill="midnightblue" stroke="midnightblue" points="1011.66,-13.83 1001.2,-15.49 1010.41,-20.72 1011.66,-13.83"/>
</g>
<!-- Node3&#45;&gt;Node5 -->
<g id="edge4" class="edge">
<title>Node3&#45;&gt;Node5</title>
<path fill="none" stroke="midnightblue" d="M268.24,-358.37C265.66,-340.62 259.71,-299.67 256.21,-275.6"/>
<polygon fill="midnightblue" stroke="midnightblue" points="259.65,-274.98 254.75,-265.59 252.73,-275.99 259.65,-274.98"/>
</g>
<!-- Node3&#45;&gt;Node6 -->
<g id="edge5" class="edge">
<title>Node3&#45;&gt;Node6</title>
<path fill="none" stroke="midnightblue" d="M255.52,-358.32C241.95,-349.9 221.12,-336.97 205.18,-327.07"/>
<polygon fill="midnightblue" stroke="midnightblue" points="206.79,-323.95 196.44,-321.65 203.09,-329.9 206.79,-323.95"/>
</g>
<!-- Node6&#45;&gt;Node4 -->
<g id="edge7" class="edge">
<title>Node6&#45;&gt;Node4</title>
<path fill="none" stroke="midnightblue" d="M179.46,-302.43C173,-283.44 158.5,-236.26 158.5,-195.5 158.5,-195.5 158.5,-195.5 158.5,-132 158.5,-94.24 164.96,-76.77 196.5,-56 258.78,-14.98 790.88,-11.24 937.32,-10.99"/>
<polygon fill="midnightblue" stroke="midnightblue" points="937.59,-14.49 947.58,-10.98 937.58,-7.49 937.59,-14.49"/>
</g>
<!-- Node6&#45;&gt;Node5 -->
<g id="edge9" class="edge">
<title>Node6&#45;&gt;Node5</title>
<path fill="none" stroke="midnightblue" d="M193.91,-302.32C204.61,-294.18 220.84,-281.84 233.66,-272.09"/>
<polygon fill="midnightblue" stroke="midnightblue" points="236.04,-274.67 241.89,-265.83 231.81,-269.1 236.04,-274.67"/>
</g>
<!-- Node7 -->
<g id="node7" class="node">
<title>Node7</title>
<g id="a_node7"><a xlink:title=" ">
<polygon fill="white" stroke="#bfbfbf" points="0,-246.5 0,-265.5 47,-265.5 47,-246.5 0,-246.5"/>
<text text-anchor="middle" x="23.5" y="-253.5" font-family="Helvetica,sans-Serif" font-size="10.00">cmath</text>
</a>
</g>
</g>
<!-- Node6&#45;&gt;Node7 -->
<g id="edge6" class="edge">
<title>Node6&#45;&gt;Node7</title>
<path fill="none" stroke="midnightblue" d="M157.31,-302.44C130.09,-293.2 86.59,-278.43 56.62,-268.25"/>
<polygon fill="midnightblue" stroke="midnightblue" points="57.62,-264.89 47.02,-264.99 55.36,-271.52 57.62,-264.89"/>
</g>
<!-- Node8 -->
<g id="node8" class="node">
<title>Node8</title>
<g id="a_node8"><a xlink:title=" ">
<polygon fill="white" stroke="#bfbfbf" points="205.5,-62 205.5,-81 263.5,-81 263.5,-62 205.5,-62"/>
<text text-anchor="middle" x="234.5" y="-69" font-family="Helvetica,sans-Serif" font-size="10.00">memory</text>
</a>
</g>
</g>
<!-- Node6&#45;&gt;Node8 -->
<g id="edge8" class="edge">
<title>Node6&#45;&gt;Node8</title>
<path fill="none" stroke="midnightblue" d="M184.03,-302.33C188.79,-275.53 204.07,-191.65 220.5,-123 223.09,-112.2 226.39,-100.22 229.14,-90.64"/>
<polygon fill="midnightblue" stroke="midnightblue" points="232.5,-91.61 231.94,-81.03 225.78,-89.65 232.5,-91.61"/>
</g>
<!-- Node9 -->
<g id="node9" class="node">
<title>Node9</title>
<g id="a_node9"><a xlink:title=" ">
<polygon fill="white" stroke="#bfbfbf" points="65,-246.5 65,-265.5 130,-265.5 130,-246.5 65,-246.5"/>
<text text-anchor="middle" x="97.5" y="-253.5" font-family="Helvetica,sans-Serif" font-size="10.00">stdexcept</text>
</a>
</g>
</g>
<!-- Node6&#45;&gt;Node9 -->
<g id="edge10" class="edge">
<title>Node6&#45;&gt;Node9</title>
<path fill="none" stroke="midnightblue" d="M168.84,-302.32C155.58,-293.9 135.23,-280.97 119.65,-271.07"/>
<polygon fill="midnightblue" stroke="midnightblue" points="121.44,-268.06 111.12,-265.65 117.69,-273.97 121.44,-268.06"/>
</g>
<!-- Node10 -->
<g id="node10" class="node">
<title>Node10</title>
<g id="a_node10"><a xlink:href="../../d3/db1/Matrix_8h.html" target="_top" xlink:title="Header file for the MyBLAS::Matrix class.">
<polygon fill="white" stroke="black" points="389.5,-246.5 389.5,-265.5 533.5,-265.5 533.5,-246.5 389.5,-246.5"/>
<text text-anchor="middle" x="461.5" y="-253.5" font-family="Helvetica,sans-Serif" font-size="10.00">math/blas/matrix/Matrix.h</text>
</a>
</g>
</g>
<!-- Node6&#45;&gt;Node10 -->
<g id="edge11" class="edge">
<title>Node6&#45;&gt;Node10</title>
<path fill="none" stroke="midnightblue" d="M226.71,-302.44C275.79,-292.94 355.01,-277.61 407.66,-267.42"/>
<polygon fill="midnightblue" stroke="midnightblue" points="408.35,-270.85 417.5,-265.52 407.02,-263.98 408.35,-270.85"/>
</g>
<!-- Node11 -->
<g id="node11" class="node">
<title>Node11</title>
<g id="a_node11"><a xlink:title=" ">
<polygon fill="white" stroke="#bfbfbf" points="460.5,-62 460.5,-81 524.5,-81 524.5,-62 460.5,-62"/>
<text text-anchor="middle" x="492.5" y="-69" font-family="Helvetica,sans-Serif" font-size="10.00">algorithm</text>
</a>
</g>
</g>
<!-- Node10&#45;&gt;Node11 -->
<g id="edge12" class="edge">
<title>Node10&#45;&gt;Node11</title>
<path fill="none" stroke="midnightblue" d="M462.19,-246.28C463.97,-225.04 469.22,-168.98 478.5,-123 480.65,-112.36 483.84,-100.67 486.63,-91.22"/>
<polygon fill="midnightblue" stroke="midnightblue" points="490.07,-91.93 489.63,-81.35 483.37,-89.89 490.07,-91.93"/>
</g>
<!-- Node12 -->
<g id="node12" class="node">
<title>Node12</title>
<g id="a_node12"><a xlink:title=" ">
<polygon fill="white" stroke="#bfbfbf" points="672.5,-123.5 672.5,-142.5 724.5,-142.5 724.5,-123.5 672.5,-123.5"/>
<text text-anchor="middle" x="698.5" y="-130.5" font-family="Helvetica,sans-Serif" font-size="10.00">cassert</text>
</a>
</g>
</g>
<!-- Node10&#45;&gt;Node12 -->
<g id="edge13" class="edge">
<title>Node10&#45;&gt;Node12</title>
<path fill="none" stroke="midnightblue" d="M474.48,-246.34C497.06,-231.47 545.3,-200.61 588.5,-179 613.46,-166.51 642.76,-154.66 664.84,-146.25"/>
<polygon fill="midnightblue" stroke="midnightblue" points="666.31,-149.44 674.44,-142.64 663.85,-142.89 666.31,-149.44"/>
</g>
<!-- Node13 -->
<g id="node13" class="node">
<title>Node13</title>
<g id="a_node13"><a xlink:title=" ">
<polygon fill="white" stroke="#bfbfbf" points="520.5,-123.5 520.5,-142.5 580.5,-142.5 580.5,-123.5 520.5,-123.5"/>
<text text-anchor="middle" x="550.5" y="-130.5" font-family="Helvetica,sans-Serif" font-size="10.00">iostream</text>
</a>
</g>
</g>
<!-- Node10&#45;&gt;Node13 -->
<g id="edge14" class="edge">
<title>Node10&#45;&gt;Node13</title>
<path fill="none" stroke="midnightblue" d="M467.88,-246.06C478.06,-231.82 498.68,-203.1 516.5,-179 523.5,-169.53 531.42,-159.03 537.86,-150.56"/>
<polygon fill="midnightblue" stroke="midnightblue" points="540.66,-152.66 543.93,-142.59 535.09,-148.42 540.66,-152.66"/>
</g>
<!-- Node14 -->
<g id="node14" class="node">
<title>Node14</title>
<g id="a_node14"><a xlink:title=" ">
<polygon fill="white" stroke="#bfbfbf" points="379,-123.5 379,-142.5 426,-142.5 426,-123.5 379,-123.5"/>
<text text-anchor="middle" x="402.5" y="-130.5" font-family="Helvetica,sans-Serif" font-size="10.00">vector</text>
</a>
</g>
</g>
<!-- Node10&#45;&gt;Node14 -->
<g id="edge15" class="edge">
<title>Node10&#45;&gt;Node14</title>
<path fill="none" stroke="midnightblue" d="M457.26,-246.3C447.65,-226.59 424.06,-178.21 411.2,-151.84"/>
<polygon fill="midnightblue" stroke="midnightblue" points="414.23,-150.08 406.7,-142.62 407.94,-153.15 414.23,-150.08"/>
</g>
<!-- Node15 -->
<g id="node15" class="node">
<title>Node15</title>
<g id="a_node15"><a xlink:href="../../d1/d45/Constants_8h.html" target="_top" xlink:title="MyBLAS Constants definition.">
<polygon fill="white" stroke="black" points="262.5,-185 262.5,-204 388.5,-204 388.5,-185 262.5,-185"/>
<text text-anchor="middle" x="325.5" y="-192" font-family="Helvetica,sans-Serif" font-size="10.00">math/blas/Constants.h</text>
</a>
</g>
</g>
<!-- Node10&#45;&gt;Node15 -->
<g id="edge16" class="edge">
<title>Node10&#45;&gt;Node15</title>
<path fill="none" stroke="midnightblue" d="M442.01,-246.48C419.09,-236.45 380.81,-219.7 354.42,-208.15"/>
<polygon fill="midnightblue" stroke="midnightblue" points="355.51,-204.81 344.95,-204.01 352.71,-211.22 355.51,-204.81"/>
</g>
<!-- Node16 -->
<g id="node16" class="node">
<title>Node16</title>
<g id="a_node16"><a xlink:href="../../d6/dbe/Vector_8h.html" target="_top" xlink:title="Header file for the MyBLAS::Vector class.">
<polygon fill="white" stroke="black" points="597,-185 597,-204 738,-204 738,-185 597,-185"/>
<text text-anchor="middle" x="667.5" y="-192" font-family="Helvetica,sans-Serif" font-size="10.00">math/blas/vector/Vector.h</text>
</a>
</g>
</g>
<!-- Node10&#45;&gt;Node16 -->
<g id="edge17" class="edge">
<title>Node10&#45;&gt;Node16</title>
<path fill="none" stroke="midnightblue" d="M491.01,-246.48C527.12,-236.05 588.35,-218.36 628.35,-206.81"/>
<polygon fill="midnightblue" stroke="midnightblue" points="629.4,-210.15 638.04,-204.01 627.46,-203.42 629.4,-210.15"/>
</g>
<!-- Node16&#45;&gt;Node12 -->
<g id="edge28" class="edge">
<title>Node16&#45;&gt;Node12</title>
<path fill="none" stroke="midnightblue" d="M671.94,-184.98C676.45,-176.32 683.57,-162.65 689.31,-151.65"/>
<polygon fill="midnightblue" stroke="midnightblue" points="692.55,-152.99 694.07,-142.51 686.34,-149.76 692.55,-152.99"/>
</g>
<!-- Node16&#45;&gt;Node13 -->
<g id="edge31" class="edge">
<title>Node16&#45;&gt;Node13</title>
<path fill="none" stroke="midnightblue" d="M650.74,-184.98C631.28,-175.08 598.95,-158.64 576.29,-147.12"/>
<polygon fill="midnightblue" stroke="midnightblue" points="577.73,-143.92 567.23,-142.51 574.56,-150.16 577.73,-143.92"/>
</g>
<!-- Node16&#45;&gt;Node14 -->
<g id="edge32" class="edge">
<title>Node16&#45;&gt;Node14</title>
<path fill="none" stroke="midnightblue" d="M629.53,-184.98C577.69,-173.34 485.57,-152.65 436.11,-141.55"/>
<polygon fill="midnightblue" stroke="midnightblue" points="436.75,-138.1 426.23,-139.33 435.22,-144.93 436.75,-138.1"/>
</g>
<!-- Node17 -->
<g id="node17" class="node">
<title>Node17</title>
<g id="a_node17"><a xlink:href="../../de/dcb/LazyVector_8h.html" target="_top" xlink:title="Header file for the LazyVector class.">
<polygon fill="white" stroke="black" points="742.5,-123.5 742.5,-142.5 820.5,-142.5 820.5,-123.5 742.5,-123.5"/>
<text text-anchor="middle" x="781.5" y="-130.5" font-family="Helvetica,sans-Serif" font-size="10.00">LazyVector.h</text>
</a>
</g>
</g>
<!-- Node16&#45;&gt;Node17 -->
<g id="edge18" class="edge">
<title>Node16&#45;&gt;Node17</title>
<path fill="none" stroke="midnightblue" d="M678.93,-184.98C695.81,-175.03 727.24,-158.49 750.98,-146.96"/>
<polygon fill="midnightblue" stroke="midnightblue" points="752.79,-149.98 760.3,-142.51 749.77,-143.66 752.79,-149.98"/>
</g>
<!-- Node18 -->
<g id="node18" class="node">
<title>Node18</title>
<g id="a_node18"><a xlink:title=" ">
<polygon fill="white" stroke="#bfbfbf" points="764,-62 764,-81 829,-81 829,-62 764,-62"/>
<text text-anchor="middle" x="796.5" y="-69" font-family="Helvetica,sans-Serif" font-size="10.00">functional</text>
</a>
</g>
</g>
<!-- Node16&#45;&gt;Node18 -->
<g id="edge29" class="edge">
<title>Node16&#45;&gt;Node18</title>
<path fill="none" stroke="midnightblue" d="M738.35,-190C771.64,-184.35 808.55,-171.48 829.5,-143 841.93,-126.1 827.15,-103.77 813.59,-88.81"/>
<polygon fill="midnightblue" stroke="midnightblue" points="815.83,-86.09 806.36,-81.34 810.8,-90.96 815.83,-86.09"/>
</g>
<!-- Node21 -->
<g id="node21" class="node">
<title>Node21</title>
<g id="a_node21"><a xlink:title=" ">
<polygon fill="white" stroke="#bfbfbf" points="598.5,-123.5 598.5,-142.5 654.5,-142.5 654.5,-123.5 598.5,-123.5"/>
<text text-anchor="middle" x="626.5" y="-130.5" font-family="Helvetica,sans-Serif" font-size="10.00">iomanip</text>
</a>
</g>
</g>
<!-- Node16&#45;&gt;Node21 -->
<g id="edge30" class="edge">
<title>Node16&#45;&gt;Node21</title>
<path fill="none" stroke="midnightblue" d="M661.63,-184.98C655.54,-176.14 645.86,-162.09 638.2,-150.98"/>
<polygon fill="midnightblue" stroke="midnightblue" points="640.92,-148.76 632.36,-142.51 635.16,-152.73 640.92,-148.76"/>
</g>
<!-- Node17&#45;&gt;Node4 -->
<g id="edge20" class="edge">
<title>Node17&#45;&gt;Node4</title>
<path fill="none" stroke="midnightblue" d="M773.46,-123.06C760.72,-107.78 738.93,-76.32 755.5,-56 778.03,-28.38 880.95,-17.23 937.32,-13.13"/>
<polygon fill="midnightblue" stroke="midnightblue" points="937.87,-16.6 947.6,-12.43 937.39,-9.62 937.87,-16.6"/>
</g>
<!-- Node17&#45;&gt;Node8 -->
<g id="edge22" class="edge">
<title>Node17&#45;&gt;Node8</title>
<path fill="none" stroke="midnightblue" d="M742.25,-124.36C739.3,-123.87 736.35,-123.41 733.5,-123 563.04,-98.44 358.11,-81.68 273.73,-75.34"/>
<polygon fill="midnightblue" stroke="midnightblue" points="273.8,-71.83 263.57,-74.58 273.28,-78.81 273.8,-71.83"/>
</g>
<!-- Node17&#45;&gt;Node11 -->
<g id="edge19" class="edge">
<title>Node17&#45;&gt;Node11</title>
<path fill="none" stroke="midnightblue" d="M742.22,-123.91C687.89,-112.73 590.19,-92.61 534.46,-81.14"/>
<polygon fill="midnightblue" stroke="midnightblue" points="535.07,-77.69 524.57,-79.1 533.65,-84.55 535.07,-77.69"/>
</g>
<!-- Node17&#45;&gt;Node16 -->
<g id="edge23" class="edge">
<title>Node17&#45;&gt;Node16</title>
<path fill="none" stroke="midnightblue" d="M770.09,-142.51C753.23,-152.44 721.81,-168.98 698.06,-180.52"/>
<polygon fill="midnightblue" stroke="midnightblue" points="696.25,-177.51 688.73,-184.98 699.27,-183.82 696.25,-177.51"/>
</g>
<!-- Node17&#45;&gt;Node18 -->
<g id="edge21" class="edge">
<title>Node17&#45;&gt;Node18</title>
<path fill="none" stroke="midnightblue" d="M783.65,-123.48C785.79,-114.99 789.14,-101.7 791.88,-90.82"/>
<polygon fill="midnightblue" stroke="midnightblue" points="795.3,-91.56 794.35,-81.01 788.52,-89.85 795.3,-91.56"/>
</g>
<!-- Node19 -->
<g id="node19" class="node">
<title>Node19</title>
<g id="a_node19"><a xlink:href="../../d6/d9f/VectorExpression_8h.html" target="_top" xlink:title="Header file for the MyBLAS::VectorExpression class.">
<polygon fill="white" stroke="black" points="597.5,-62 597.5,-81 707.5,-81 707.5,-62 597.5,-62"/>
<text text-anchor="middle" x="652.5" y="-69" font-family="Helvetica,sans-Serif" font-size="10.00">VectorExpression.h</text>
</a>
</g>
</g>
<!-- Node17&#45;&gt;Node19 -->
<g id="edge24" class="edge">
<title>Node17&#45;&gt;Node19</title>
<path fill="none" stroke="midnightblue" d="M763.02,-123.48C741.37,-113.49 705.29,-96.85 680.27,-85.31"/>
<polygon fill="midnightblue" stroke="midnightblue" points="681.49,-82.02 670.95,-81.01 678.56,-88.38 681.49,-82.02"/>
</g>
<!-- Node20 -->
<g id="node20" class="node">
<title>Node20</title>
<g id="a_node20"><a xlink:href="../../d6/db1/ContainerExpression_8h.html" target="_top" xlink:title="Header file for the ContainerExpression class.">
<polygon fill="white" stroke="black" points="847,-56.5 847,-86.5 998,-86.5 998,-56.5 847,-56.5"/>
<text text-anchor="start" x="855" y="-74.5" font-family="Helvetica,sans-Serif" font-size="10.00">math/blas/matrix/Container</text>
<text text-anchor="middle" x="922.5" y="-63.5" font-family="Helvetica,sans-Serif" font-size="10.00">Expression.h</text>
</a>
</g>
</g>
<!-- Node17&#45;&gt;Node20 -->
<g id="edge26" class="edge">
<title>Node17&#45;&gt;Node20</title>
<path fill="none" stroke="midnightblue" d="M801.7,-123.48C822.05,-114.89 854.06,-101.38 880.01,-90.43"/>
<polygon fill="midnightblue" stroke="midnightblue" points="881.42,-93.64 889.27,-86.52 878.7,-87.19 881.42,-93.64"/>
</g>
<!-- Node19&#45;&gt;Node4 -->
<g id="edge25" class="edge">
<title>Node19&#45;&gt;Node4</title>
<path fill="none" stroke="midnightblue" d="M692.23,-61.93C701.8,-59.93 712.01,-57.84 721.5,-56 798.37,-41.09 888.76,-25.47 938,-17.13"/>
<polygon fill="midnightblue" stroke="midnightblue" points="938.58,-20.58 947.86,-15.46 937.42,-13.67 938.58,-20.58"/>
</g>
<!-- Node20&#45;&gt;Node4 -->
<g id="edge27" class="edge">
<title>Node20&#45;&gt;Node4</title>
<path fill="none" stroke="midnightblue" d="M934.82,-56.4C942.46,-47.66 952.29,-36.41 960.26,-27.3"/>
<polygon fill="midnightblue" stroke="midnightblue" points="962.99,-29.49 966.93,-19.66 957.72,-24.88 962.99,-29.49"/>
</g>
<!-- Node22&#45;&gt;Node4 -->
<g id="edge36" class="edge">
<title>Node22&#45;&gt;Node4</title>
<path fill="none" stroke="midnightblue" d="M887.16,-307.79C963.5,-299.84 1064.5,-274.41 1064.5,-195.5 1064.5,-195.5 1064.5,-195.5 1064.5,-132 1064.5,-86.13 1022.35,-46.37 995.74,-25.85"/>
<polygon fill="midnightblue" stroke="midnightblue" points="997.51,-22.8 987.39,-19.64 993.33,-28.42 997.51,-22.8"/>
</g>
<!-- Node22&#45;&gt;Node8 -->
<g id="edge38" class="edge">
<title>Node22&#45;&gt;Node8</title>
<path fill="none" stroke="midnightblue" d="M719.84,-309.68C633.5,-306.57 495.56,-296.69 380.5,-266 320.9,-250.1 290.66,-259.24 253.5,-210 227.09,-175 228.62,-120.3 231.72,-91.58"/>
<polygon fill="midnightblue" stroke="midnightblue" points="235.24,-91.67 233.02,-81.31 228.29,-90.79 235.24,-91.67"/>
</g>
<!-- Node22&#45;&gt;Node10 -->
<g id="edge43" class="edge">
<title>Node22&#45;&gt;Node10</title>
<path fill="none" stroke="midnightblue" d="M749.31,-302.44C688.52,-292.85 590.01,-277.29 525.49,-267.1"/>
<polygon fill="midnightblue" stroke="midnightblue" points="525.86,-263.62 515.44,-265.52 524.77,-270.53 525.86,-263.62"/>
</g>
<!-- Node22&#45;&gt;Node11 -->
<g id="edge35" class="edge">
<title>Node22&#45;&gt;Node11</title>
<path fill="none" stroke="midnightblue" d="M780.12,-302.49C739.41,-287.14 653.63,-252.45 588.5,-210 550.5,-185.23 535.56,-181.46 511.5,-143 501.64,-127.24 496.84,-106.41 494.54,-91.48"/>
<polygon fill="midnightblue" stroke="midnightblue" points="497.99,-90.86 493.23,-81.4 491.05,-91.77 497.99,-90.86"/>
</g>
<!-- Node22&#45;&gt;Node17 -->
<g id="edge44" class="edge">
<title>Node22&#45;&gt;Node17</title>
<path fill="none" stroke="midnightblue" d="M801.6,-302.41C797.83,-285.05 789.47,-244.5 785.5,-210 783.29,-190.75 782.3,-168.62 781.85,-153.22"/>
<polygon fill="midnightblue" stroke="midnightblue" points="785.35,-152.84 781.61,-142.92 778.35,-153 785.35,-152.84"/>
</g>
<!-- Node22&#45;&gt;Node18 -->
<g id="edge37" class="edge">
<title>Node22&#45;&gt;Node18</title>
<path fill="none" stroke="midnightblue" d="M834.75,-302.39C892.16,-284.88 1005.46,-241.38 970.5,-179 954.37,-150.21 869.54,-106.91 824.56,-85.48"/>
<polygon fill="midnightblue" stroke="midnightblue" points="825.89,-82.23 815.35,-81.12 822.9,-88.56 825.89,-82.23"/>
</g>
<!-- Node22&#45;&gt;Node20 -->
<g id="edge39" class="edge">
<title>Node22&#45;&gt;Node20</title>
<path fill="none" stroke="midnightblue" d="M864.48,-302.45C893.08,-296.07 926.33,-285.03 951.5,-266 975.1,-248.16 979.16,-238.39 987.5,-210 1000.11,-167.07 967.54,-120.72 944.08,-94.29"/>
<polygon fill="midnightblue" stroke="midnightblue" points="946.5,-91.75 937.15,-86.76 941.34,-96.49 946.5,-91.75"/>
</g>
<!-- Node23 -->
<g id="node23" class="node">
<title>Node23</title>
<g id="a_node23"><a xlink:href="../../df/df0/ElementwiseExpression_8h.html" target="_top" xlink:title="This file defines a class for performing element&#45;wise operations on two containers.">
<polygon fill="white" stroke="black" points="794,-179.5 794,-209.5 961,-209.5 961,-179.5 794,-179.5"/>
<text text-anchor="start" x="802" y="-197.5" font-family="Helvetica,sans-Serif" font-size="10.00">math/blas/matrix/Elementwise</text>
<text text-anchor="middle" x="877.5" y="-186.5" font-family="Helvetica,sans-Serif" font-size="10.00">Expression.h</text>
</a>
</g>
</g>
<!-- Node22&#45;&gt;Node23 -->
<g id="edge40" class="edge">
<title>Node22&#45;&gt;Node23</title>
<path fill="none" stroke="midnightblue" d="M809.06,-302.32C820.38,-284.66 846.4,-244.04 862.9,-218.29"/>
<polygon fill="midnightblue" stroke="midnightblue" points="866.05,-219.85 868.5,-209.55 860.16,-216.08 866.05,-219.85"/>
</g>
<!-- Node24 -->
<g id="node24" class="node">
<title>Node24</title>
<g id="a_node24"><a xlink:href="../../d2/dc6/MatrixVectorExpression_8h.html" target="_top" xlink:title="Header file for the MatrixVectorExpression class.">
<polygon fill="white" stroke="black" points="1092.5,-179.5 1092.5,-209.5 1256.5,-209.5 1256.5,-179.5 1092.5,-179.5"/>
<text text-anchor="start" x="1100.5" y="-197.5" font-family="Helvetica,sans-Serif" font-size="10.00">math/blas/vector/MatrixVector</text>
<text text-anchor="middle" x="1174.5" y="-186.5" font-family="Helvetica,sans-Serif" font-size="10.00">Expression.h</text>
</a>
</g>
</g>
<!-- Node22&#45;&gt;Node24 -->
<g id="edge45" class="edge">
<title>Node22&#45;&gt;Node24</title>
<path fill="none" stroke="midnightblue" d="M887.22,-307.49C943.21,-302.72 1017.51,-291.63 1078.5,-266 1106.44,-254.26 1133.85,-232.86 1152.18,-216.7"/>
<polygon fill="midnightblue" stroke="midnightblue" points="1154.86,-219 1159.94,-209.7 1150.17,-213.81 1154.86,-219"/>
</g>
<!-- Node23&#45;&gt;Node4 -->
<g id="edge42" class="edge">
<title>Node23&#45;&gt;Node4</title>
<path fill="none" stroke="midnightblue" d="M906.72,-179.5C938.27,-162.56 986.77,-130.77 1007.5,-87 1013.4,-74.55 1011.79,-69.09 1007.5,-56 1004.01,-45.34 996.93,-35.12 990.21,-27.12"/>
<polygon fill="midnightblue" stroke="midnightblue" points="992.8,-24.76 983.52,-19.66 987.6,-29.44 992.8,-24.76"/>
</g>
<!-- Node23&#45;&gt;Node12 -->
<g id="edge41" class="edge">
<title>Node23&#45;&gt;Node12</title>
<path fill="none" stroke="midnightblue" d="M835.08,-179.4C804.28,-169.16 763.09,-155.47 734.02,-145.81"/>
<polygon fill="midnightblue" stroke="midnightblue" points="734.88,-142.4 724.28,-142.57 732.67,-149.05 734.88,-142.4"/>
</g>
<!-- Node24&#45;&gt;Node4 -->
<g id="edge46" class="edge">
<title>Node24&#45;&gt;Node4</title>
<path fill="none" stroke="midnightblue" d="M1168.03,-179.5C1154.82,-152.27 1122.25,-91.73 1078.5,-56 1058.64,-39.78 1032.04,-28.41 1010.71,-21.16"/>
<polygon fill="midnightblue" stroke="midnightblue" points="1011.62,-17.77 1001.02,-18.02 1009.46,-24.43 1011.62,-17.77"/>
</g>
</g>
</svg>
