<?xml version="1.0" encoding="UTF-8" standalone="no"?>
<!DOCTYPE svg PUBLIC "-//W3C//DTD SVG 1.1//EN"
 "http://www.w3.org/Graphics/SVG/1.1/DTD/svg11.dtd">
<!-- Generated by graphviz version 2.43.0 (0)
 -->
<!-- Title: RootFinder::usingNewtonRaphson Pages: 1 -->
<svg width="460pt" height="28pt"
 viewBox="0.00 0.00 460.00 28.00" xmlns="http://www.w3.org/2000/svg" xmlns:xlink="http://www.w3.org/1999/xlink">
<g id="graph0" class="graph" transform="scale(1 1) rotate(0) translate(4 24)">
<title>RootFinder::usingNewtonRaphson</title>
<polygon fill="white" stroke="transparent" points="-4,4 -4,-24 456,-24 456,4 -4,4"/>
<!-- Node1 -->
<g id="node1" class="node">
<title>Node1</title>
<g id="a_node1"><a xlink:title="Finds the root of a given function using the Newton&#45;Raphson method.">
<polygon fill="#bfbfbf" stroke="black" points="0,-0.5 0,-19.5 181,-19.5 181,-0.5 0,-0.5"/>
<text text-anchor="middle" x="90.5" y="-7.5" font-family="Helvetica,sans-Serif" font-size="10.00">RootFinder::usingNewtonRaphson</text>
</a>
</g>
</g>
<!-- Node2 -->
<g id="node2" class="node">
<title>Node2</title>
<g id="a_node2"><a xlink:href="../../d2/d6e/namespaceMyBLAS.html#a9db3b5457815887bf65b24bb4fe2937b" target="_top" xlink:title="Calculates the absolute value of the vector.">
<polygon fill="white" stroke="black" points="217,-0.5 217,-19.5 297,-19.5 297,-0.5 217,-0.5"/>
<text text-anchor="middle" x="257" y="-7.5" font-family="Helvetica,sans-Serif" font-size="10.00">MyBLAS::abs</text>
</a>
</g>
</g>
<!-- Node1&#45;&gt;Node2 -->
<g id="edge1" class="edge">
<title>Node1&#45;&gt;Node2</title>
<path fill="none" stroke="midnightblue" d="M181.45,-10C190.11,-10 198.65,-10 206.69,-10"/>
<polygon fill="midnightblue" stroke="midnightblue" points="206.94,-13.5 216.94,-10 206.94,-6.5 206.94,-13.5"/>
</g>
<!-- Node3 -->
<g id="node3" class="node">
<title>Node3</title>
<g id="a_node3"><a xlink:href="../../d4/d4d/classMyBLAS_1_1Vector.html#aae30f8178e4a34d332317c61e77c147a" target="_top" xlink:title="Getter for the size of the vector.">
<polygon fill="white" stroke="black" points="333,-0.5 333,-19.5 452,-19.5 452,-0.5 333,-0.5"/>
<text text-anchor="middle" x="392.5" y="-7.5" font-family="Helvetica,sans-Serif" font-size="10.00">MyBLAS::Vector::size</text>
</a>
</g>
</g>
<!-- Node2&#45;&gt;Node3 -->
<g id="edge2" class="edge">
<title>Node2&#45;&gt;Node3</title>
<path fill="none" stroke="midnightblue" d="M297.33,-10C305.29,-10 313.88,-10 322.52,-10"/>
<polygon fill="midnightblue" stroke="midnightblue" points="322.65,-13.5 332.65,-10 322.65,-6.5 322.65,-13.5"/>
</g>
</g>
</svg>
