<?xml version="1.0" encoding="UTF-8" standalone="no"?>
<!DOCTYPE svg PUBLIC "-//W3C//DTD SVG 1.1//EN"
 "http://www.w3.org/Graphics/SVG/1.1/DTD/svg11.dtd">
<!-- Generated by graphviz version 2.43.0 (0)
 -->
<!-- Title: src/labs/inlab1/Compute.h Pages: 1 -->
<svg width="711pt" height="207pt"
 viewBox="0.00 0.00 711.00 207.00" xmlns="http://www.w3.org/2000/svg" xmlns:xlink="http://www.w3.org/1999/xlink">
<g id="graph0" class="graph" transform="scale(1 1) rotate(0) translate(4 203)">
<title>src/labs/inlab1/Compute.h</title>
<polygon fill="white" stroke="transparent" points="-4,4 -4,-203 707,-203 707,4 -4,4"/>
<!-- Node1 -->
<g id="node1" class="node">
<title>Node1</title>
<g id="a_node1"><a xlink:title="Compute methods for inlab1 in NE591&#45;008.">
<polygon fill="#bfbfbf" stroke="black" points="4.5,-179.5 4.5,-198.5 147.5,-198.5 147.5,-179.5 4.5,-179.5"/>
<text text-anchor="middle" x="76" y="-186.5" font-family="Helvetica,sans-Serif" font-size="10.00">src/labs/inlab1/Compute.h</text>
</a>
</g>
</g>
<!-- Node2 -->
<g id="node2" class="node">
<title>Node2</title>
<g id="a_node2"><a xlink:title=" ">
<polygon fill="white" stroke="#bfbfbf" points="0.5,-123.5 0.5,-142.5 47.5,-142.5 47.5,-123.5 0.5,-123.5"/>
<text text-anchor="middle" x="24" y="-130.5" font-family="Helvetica,sans-Serif" font-size="10.00">cmath</text>
</a>
</g>
</g>
<!-- Node1&#45;&gt;Node2 -->
<g id="edge1" class="edge">
<title>Node1&#45;&gt;Node2</title>
<path fill="none" stroke="midnightblue" d="M67.41,-179.08C59.84,-171.22 48.62,-159.57 39.49,-150.08"/>
<polygon fill="midnightblue" stroke="midnightblue" points="41.88,-147.53 32.43,-142.75 36.84,-152.38 41.88,-147.53"/>
</g>
<!-- Node3 -->
<g id="node3" class="node">
<title>Node3</title>
<g id="a_node3"><a xlink:title=" ">
<polygon fill="white" stroke="#bfbfbf" points="0,-6 0,-25 60,-25 60,-6 0,-6"/>
<text text-anchor="middle" x="30" y="-13" font-family="Helvetica,sans-Serif" font-size="10.00">iostream</text>
</a>
</g>
</g>
<!-- Node1&#45;&gt;Node3 -->
<g id="edge2" class="edge">
<title>Node1&#45;&gt;Node3</title>
<path fill="none" stroke="midnightblue" d="M73.66,-179.26C66.49,-152.54 44.76,-71.52 34.93,-34.86"/>
<polygon fill="midnightblue" stroke="midnightblue" points="38.26,-33.77 32.29,-25.02 31.5,-35.58 38.26,-33.77"/>
</g>
<!-- Node4 -->
<g id="node4" class="node">
<title>Node4</title>
<g id="a_node4"><a xlink:href="../../d9/d41/CommandLine_8h.html" target="_top" xlink:title="This file contains the definition of the CommandLine class and the HeaderInfo struct.">
<polygon fill="white" stroke="black" points="190,-123.5 190,-142.5 286,-142.5 286,-123.5 190,-123.5"/>
<text text-anchor="middle" x="238" y="-130.5" font-family="Helvetica,sans-Serif" font-size="10.00">CommandLine.h</text>
</a>
</g>
</g>
<!-- Node1&#45;&gt;Node4 -->
<g id="edge3" class="edge">
<title>Node1&#45;&gt;Node4</title>
<path fill="none" stroke="midnightblue" d="M101.67,-179.44C128.92,-170.36 172.18,-155.94 202.65,-145.78"/>
<polygon fill="midnightblue" stroke="midnightblue" points="204.07,-149 212.45,-142.52 201.86,-142.36 204.07,-149"/>
</g>
<!-- Node4&#45;&gt;Node3 -->
<g id="edge14" class="edge">
<title>Node4&#45;&gt;Node3</title>
<path fill="none" stroke="midnightblue" d="M222.37,-123.32C186.44,-103.37 97.78,-54.14 54.52,-30.12"/>
<polygon fill="midnightblue" stroke="midnightblue" points="55.97,-26.92 45.53,-25.12 52.57,-33.04 55.97,-26.92"/>
</g>
<!-- Node5 -->
<g id="node5" class="node">
<title>Node5</title>
<g id="a_node5"><a xlink:href="../../db/df1/Helpers_8h.html" target="_top" xlink:title="This file contains helper functions and structures used throughout the program.">
<polygon fill="white" stroke="black" points="176.5,-67.5 176.5,-86.5 239.5,-86.5 239.5,-67.5 176.5,-67.5"/>
<text text-anchor="middle" x="208" y="-74.5" font-family="Helvetica,sans-Serif" font-size="10.00">Helpers.h</text>
</a>
</g>
</g>
<!-- Node4&#45;&gt;Node5 -->
<g id="edge4" class="edge">
<title>Node4&#45;&gt;Node5</title>
<path fill="none" stroke="midnightblue" d="M233.05,-123.08C228.9,-115.61 222.85,-104.72 217.73,-95.52"/>
<polygon fill="midnightblue" stroke="midnightblue" points="220.78,-93.79 212.86,-86.75 214.66,-97.19 220.78,-93.79"/>
</g>
<!-- Node9 -->
<g id="node9" class="node">
<title>Node9</title>
<g id="a_node9"><a xlink:title=" ">
<polygon fill="white" stroke="#bfbfbf" points="553,-6 553,-25 703,-25 703,-6 553,-6"/>
<text text-anchor="middle" x="628" y="-13" font-family="Helvetica,sans-Serif" font-size="10.00">boost/program_options.hpp</text>
</a>
</g>
</g>
<!-- Node4&#45;&gt;Node9 -->
<g id="edge13" class="edge">
<title>Node4&#45;&gt;Node9</title>
<path fill="none" stroke="midnightblue" d="M241.91,-123.07C248.75,-108.6 264.35,-80.33 287,-67 386.4,-8.49 430.05,-48.81 544,-31 552.41,-29.69 561.28,-28.23 569.97,-26.76"/>
<polygon fill="midnightblue" stroke="midnightblue" points="570.8,-30.17 580.07,-25.04 569.62,-23.27 570.8,-30.17"/>
</g>
<!-- Node12 -->
<g id="node12" class="node">
<title>Node12</title>
<g id="a_node12"><a xlink:title=" ">
<polygon fill="white" stroke="#bfbfbf" points="296,-67.5 296,-86.5 388,-86.5 388,-67.5 296,-67.5"/>
<text text-anchor="middle" x="342" y="-74.5" font-family="Helvetica,sans-Serif" font-size="10.00">project&#45;config.h</text>
</a>
</g>
</g>
<!-- Node4&#45;&gt;Node12 -->
<g id="edge12" class="edge">
<title>Node4&#45;&gt;Node12</title>
<path fill="none" stroke="midnightblue" d="M254.71,-123.32C271.31,-114.7 297,-101.36 316.22,-91.39"/>
<polygon fill="midnightblue" stroke="midnightblue" points="318.07,-94.37 325.33,-86.65 314.84,-88.16 318.07,-94.37"/>
</g>
<!-- Node13 -->
<g id="node13" class="node">
<title>Node13</title>
<g id="a_node13"><a xlink:title=" ">
<polygon fill="white" stroke="#bfbfbf" points="406,-67.5 406,-86.5 450,-86.5 450,-67.5 406,-67.5"/>
<text text-anchor="middle" x="428" y="-74.5" font-family="Helvetica,sans-Serif" font-size="10.00">string</text>
</a>
</g>
</g>
<!-- Node4&#45;&gt;Node13 -->
<g id="edge15" class="edge">
<title>Node4&#45;&gt;Node13</title>
<path fill="none" stroke="midnightblue" d="M268.5,-123.43C298.58,-114.97 346.12,-101.56 396.27,-87.2"/>
<polygon fill="midnightblue" stroke="midnightblue" points="397.34,-90.53 405.99,-84.41 395.41,-83.8 397.34,-90.53"/>
</g>
<!-- Node5&#45;&gt;Node3 -->
<g id="edge6" class="edge">
<title>Node5&#45;&gt;Node3</title>
<path fill="none" stroke="midnightblue" d="M180.46,-67.47C152.33,-58.66 107.45,-44.37 69,-31 66.75,-30.22 64.44,-29.4 62.12,-28.56"/>
<polygon fill="midnightblue" stroke="midnightblue" points="63.22,-25.24 52.63,-25.1 60.82,-31.82 63.22,-25.24"/>
</g>
<!-- Node6 -->
<g id="node6" class="node">
<title>Node6</title>
<g id="a_node6"><a xlink:title=" ">
<polygon fill="white" stroke="#bfbfbf" points="78,-6 78,-25 134,-25 134,-6 78,-6"/>
<text text-anchor="middle" x="106" y="-13" font-family="Helvetica,sans-Serif" font-size="10.00">iomanip</text>
</a>
</g>
</g>
<!-- Node5&#45;&gt;Node6 -->
<g id="edge5" class="edge">
<title>Node5&#45;&gt;Node6</title>
<path fill="none" stroke="midnightblue" d="M193.39,-67.48C176.65,-57.71 149,-41.58 129.28,-30.08"/>
<polygon fill="midnightblue" stroke="midnightblue" points="130.99,-27.02 120.59,-25.01 127.46,-33.07 130.99,-27.02"/>
</g>
<!-- Node7 -->
<g id="node7" class="node">
<title>Node7</title>
<g id="a_node7"><a xlink:title=" ">
<polygon fill="white" stroke="#bfbfbf" points="152,-6 152,-25 196,-25 196,-6 152,-6"/>
<text text-anchor="middle" x="174" y="-13" font-family="Helvetica,sans-Serif" font-size="10.00">limits</text>
</a>
</g>
</g>
<!-- Node5&#45;&gt;Node7 -->
<g id="edge7" class="edge">
<title>Node5&#45;&gt;Node7</title>
<path fill="none" stroke="midnightblue" d="M203.13,-67.48C198.13,-58.73 190.21,-44.87 183.89,-33.81"/>
<polygon fill="midnightblue" stroke="midnightblue" points="186.86,-31.96 178.86,-25.01 180.78,-35.43 186.86,-31.96"/>
</g>
<!-- Node8 -->
<g id="node8" class="node">
<title>Node8</title>
<g id="a_node8"><a xlink:title=" ">
<polygon fill="white" stroke="#bfbfbf" points="214,-6 214,-25 272,-25 272,-6 214,-6"/>
<text text-anchor="middle" x="243" y="-13" font-family="Helvetica,sans-Serif" font-size="10.00">json.hpp</text>
</a>
</g>
</g>
<!-- Node5&#45;&gt;Node8 -->
<g id="edge8" class="edge">
<title>Node5&#45;&gt;Node8</title>
<path fill="none" stroke="midnightblue" d="M213.01,-67.48C218.16,-58.73 226.31,-44.87 232.82,-33.81"/>
<polygon fill="midnightblue" stroke="midnightblue" points="235.94,-35.4 237.99,-25.01 229.91,-31.85 235.94,-35.4"/>
</g>
<!-- Node5&#45;&gt;Node9 -->
<g id="edge9" class="edge">
<title>Node5&#45;&gt;Node9</title>
<path fill="none" stroke="midnightblue" d="M239.62,-69.51C244.43,-68.61 249.34,-67.74 254,-67 382.25,-46.52 415.53,-50.05 544,-31 552.72,-29.71 561.93,-28.23 570.93,-26.73"/>
<polygon fill="midnightblue" stroke="midnightblue" points="571.7,-30.15 580.97,-25.02 570.53,-23.24 571.7,-30.15"/>
</g>
<!-- Node10 -->
<g id="node10" class="node">
<title>Node10</title>
<g id="a_node10"><a xlink:title=" ">
<polygon fill="white" stroke="#bfbfbf" points="290.5,-0.5 290.5,-30.5 403.5,-30.5 403.5,-0.5 290.5,-0.5"/>
<text text-anchor="start" x="298.5" y="-18.5" font-family="Helvetica,sans-Serif" font-size="10.00">boost/accumulators</text>
<text text-anchor="middle" x="347" y="-7.5" font-family="Helvetica,sans-Serif" font-size="10.00">/accumulators.hpp</text>
</a>
</g>
</g>
<!-- Node5&#45;&gt;Node10 -->
<g id="edge10" class="edge">
<title>Node5&#45;&gt;Node10</title>
<path fill="none" stroke="midnightblue" d="M227.92,-67.48C247.88,-58.93 279.25,-45.5 304.78,-34.57"/>
<polygon fill="midnightblue" stroke="midnightblue" points="306.42,-37.68 314.24,-30.52 303.67,-31.24 306.42,-37.68"/>
</g>
<!-- Node11 -->
<g id="node11" class="node">
<title>Node11</title>
<g id="a_node11"><a xlink:title=" ">
<polygon fill="white" stroke="#bfbfbf" points="421.5,-0.5 421.5,-30.5 534.5,-30.5 534.5,-0.5 421.5,-0.5"/>
<text text-anchor="start" x="429.5" y="-18.5" font-family="Helvetica,sans-Serif" font-size="10.00">boost/accumulators</text>
<text text-anchor="middle" x="478" y="-7.5" font-family="Helvetica,sans-Serif" font-size="10.00">/statistics.hpp</text>
</a>
</g>
</g>
<!-- Node5&#45;&gt;Node11 -->
<g id="edge11" class="edge">
<title>Node5&#45;&gt;Node11</title>
<path fill="none" stroke="midnightblue" d="M239.61,-69.1C278,-60.7 344.97,-46.04 411.48,-31.33"/>
<polygon fill="midnightblue" stroke="midnightblue" points="412.27,-34.74 421.28,-29.16 410.76,-27.91 412.27,-34.74"/>
</g>
</g>
</svg>
