<?xml version="1.0" encoding="UTF-8" standalone="no"?>
<!DOCTYPE svg PUBLIC "-//W3C//DTD SVG 1.1//EN"
 "http://www.w3.org/Graphics/SVG/1.1/DTD/svg11.dtd">
<!-- Generated by graphviz version 2.43.0 (0)
 -->
<!-- Title: src/labs/outlab5/Parser.h Pages: 1 -->
<svg width="1343pt" height="252pt"
 viewBox="0.00 0.00 1342.56 252.00" xmlns="http://www.w3.org/2000/svg" xmlns:xlink="http://www.w3.org/1999/xlink">
<g id="graph0" class="graph" transform="scale(1 1) rotate(0) translate(4 248)">
<title>src/labs/outlab5/Parser.h</title>
<polygon fill="white" stroke="transparent" points="-4,4 -4,-248 1338.56,-248 1338.56,4 -4,4"/>
<!-- Node1 -->
<g id="node1" class="node">
<title>Node1</title>
<g id="a_node1"><a xlink:title="This file contains the Parser class which is responsible for parsing command line arguments and valid...">
<polygon fill="#bfbfbf" stroke="black" points="227.06,-224.5 227.06,-243.5 362.06,-243.5 362.06,-224.5 227.06,-224.5"/>
<text text-anchor="middle" x="294.56" y="-231.5" font-family="Helvetica,sans-Serif" font-size="10.00">src/labs/outlab5/Parser.h</text>
</a>
</g>
</g>
<!-- Node2 -->
<g id="node2" class="node">
<title>Node2</title>
<g id="a_node2"><a xlink:href="../../d9/d41/CommandLine_8h.html" target="_top" xlink:title="This file contains the definition of the CommandLine class and the HeaderInfo struct.">
<polygon fill="white" stroke="black" points="246.56,-168.5 246.56,-187.5 342.56,-187.5 342.56,-168.5 246.56,-168.5"/>
<text text-anchor="middle" x="294.56" y="-175.5" font-family="Helvetica,sans-Serif" font-size="10.00">CommandLine.h</text>
</a>
</g>
</g>
<!-- Node1&#45;&gt;Node2 -->
<g id="edge1" class="edge">
<title>Node1&#45;&gt;Node2</title>
<path fill="none" stroke="midnightblue" d="M294.56,-224.08C294.56,-217.01 294.56,-206.86 294.56,-197.99"/>
<polygon fill="midnightblue" stroke="midnightblue" points="298.06,-197.75 294.56,-187.75 291.06,-197.75 298.06,-197.75"/>
</g>
<!-- Node3 -->
<g id="node3" class="node">
<title>Node3</title>
<g id="a_node3"><a xlink:href="../../db/df1/Helpers_8h.html" target="_top" xlink:title="This file contains helper functions and structures used throughout the program.">
<polygon fill="white" stroke="black" points="92.06,-112.5 92.06,-131.5 155.06,-131.5 155.06,-112.5 92.06,-112.5"/>
<text text-anchor="middle" x="123.56" y="-119.5" font-family="Helvetica,sans-Serif" font-size="10.00">Helpers.h</text>
</a>
</g>
</g>
<!-- Node1&#45;&gt;Node3 -->
<g id="edge40" class="edge">
<title>Node1&#45;&gt;Node3</title>
<path fill="none" stroke="midnightblue" d="M281.15,-224.37C251.8,-205.49 181.68,-160.38 145.7,-137.24"/>
<polygon fill="midnightblue" stroke="midnightblue" points="147.22,-134.06 136.92,-131.59 143.44,-139.95 147.22,-134.06"/>
</g>
<!-- Node18 -->
<g id="node18" class="node">
<title>Node18</title>
<g id="a_node18"><a xlink:href="../../d7/de4/FileParser_8h.html" target="_top" xlink:title="This file contains the definitions for functions that handle file parsing operations.">
<polygon fill="white" stroke="black" points="720.56,-168.5 720.56,-187.5 792.56,-187.5 792.56,-168.5 720.56,-168.5"/>
<text text-anchor="middle" x="756.56" y="-175.5" font-family="Helvetica,sans-Serif" font-size="10.00">FileParser.h</text>
</a>
</g>
</g>
<!-- Node1&#45;&gt;Node18 -->
<g id="edge21" class="edge">
<title>Node1&#45;&gt;Node18</title>
<path fill="none" stroke="midnightblue" d="M362.24,-225.09C457.42,-213.97 628.34,-193.99 710.28,-184.41"/>
<polygon fill="midnightblue" stroke="midnightblue" points="710.77,-187.88 720.3,-183.24 709.96,-180.92 710.77,-187.88"/>
</g>
<!-- Node2&#45;&gt;Node3 -->
<g id="edge2" class="edge">
<title>Node2&#45;&gt;Node3</title>
<path fill="none" stroke="midnightblue" d="M267.47,-168.44C238.58,-159.32 192.64,-144.81 160.46,-134.65"/>
<polygon fill="midnightblue" stroke="midnightblue" points="161.12,-131.19 150.53,-131.52 159.01,-137.87 161.12,-131.19"/>
</g>
<!-- Node5 -->
<g id="node5" class="node">
<title>Node5</title>
<g id="a_node5"><a xlink:title=" ">
<polygon fill="white" stroke="#bfbfbf" points="613.56,-0.5 613.56,-19.5 673.56,-19.5 673.56,-0.5 613.56,-0.5"/>
<text text-anchor="middle" x="643.56" y="-7.5" font-family="Helvetica,sans-Serif" font-size="10.00">iostream</text>
</a>
</g>
</g>
<!-- Node2&#45;&gt;Node5 -->
<g id="edge19" class="edge">
<title>Node2&#45;&gt;Node5</title>
<path fill="none" stroke="midnightblue" d="M298.09,-168.16C308.79,-141.52 340.76,-63.37 350.56,-56 389.68,-26.58 532.46,-16.03 603.23,-12.56"/>
<polygon fill="midnightblue" stroke="midnightblue" points="603.71,-16.04 613.54,-12.08 603.39,-9.05 603.71,-16.04"/>
</g>
<!-- Node8 -->
<g id="node8" class="node">
<title>Node8</title>
<g id="a_node8"><a xlink:title=" ">
<polygon fill="white" stroke="#bfbfbf" points="115.56,-56.5 115.56,-75.5 265.56,-75.5 265.56,-56.5 115.56,-56.5"/>
<text text-anchor="middle" x="190.56" y="-63.5" font-family="Helvetica,sans-Serif" font-size="10.00">boost/program_options.hpp</text>
</a>
</g>
</g>
<!-- Node2&#45;&gt;Node8 -->
<g id="edge18" class="edge">
<title>Node2&#45;&gt;Node8</title>
<path fill="none" stroke="midnightblue" d="M259.8,-168.41C240.04,-161.73 216.54,-150.41 202.56,-132 192.59,-118.86 190.03,-99.98 189.71,-85.95"/>
<polygon fill="midnightblue" stroke="midnightblue" points="193.21,-85.59 189.85,-75.54 186.22,-85.49 193.21,-85.59"/>
</g>
<!-- Node9 -->
<g id="node9" class="node">
<title>Node9</title>
<g id="a_node9"><a xlink:href="../../df/d69/Profiler_8h.html" target="_top" xlink:title="This file contains helper classes and functions for profiling.">
<polygon fill="white" stroke="black" points="360.06,-112.5 360.06,-131.5 419.06,-131.5 419.06,-112.5 360.06,-112.5"/>
<text text-anchor="middle" x="389.56" y="-119.5" font-family="Helvetica,sans-Serif" font-size="10.00">Profiler.h</text>
</a>
</g>
</g>
<!-- Node2&#45;&gt;Node9 -->
<g id="edge8" class="edge">
<title>Node2&#45;&gt;Node9</title>
<path fill="none" stroke="midnightblue" d="M309.83,-168.32C324.78,-159.82 347.82,-146.73 365.29,-136.8"/>
<polygon fill="midnightblue" stroke="midnightblue" points="367.37,-139.64 374.34,-131.65 363.91,-133.55 367.37,-139.64"/>
</g>
<!-- Node16 -->
<g id="node16" class="node">
<title>Node16</title>
<g id="a_node16"><a xlink:title=" ">
<polygon fill="white" stroke="#bfbfbf" points="211.56,-112.5 211.56,-131.5 303.56,-131.5 303.56,-112.5 211.56,-112.5"/>
<text text-anchor="middle" x="257.56" y="-119.5" font-family="Helvetica,sans-Serif" font-size="10.00">project&#45;config.h</text>
</a>
</g>
</g>
<!-- Node2&#45;&gt;Node16 -->
<g id="edge17" class="edge">
<title>Node2&#45;&gt;Node16</title>
<path fill="none" stroke="midnightblue" d="M288.45,-168.08C283.28,-160.53 275.72,-149.49 269.37,-140.23"/>
<polygon fill="midnightblue" stroke="midnightblue" points="272.1,-138.02 263.56,-131.75 266.32,-141.98 272.1,-138.02"/>
</g>
<!-- Node17 -->
<g id="node17" class="node">
<title>Node17</title>
<g id="a_node17"><a xlink:title=" ">
<polygon fill="white" stroke="#bfbfbf" points="437.56,-112.5 437.56,-131.5 481.56,-131.5 481.56,-112.5 437.56,-112.5"/>
<text text-anchor="middle" x="459.56" y="-119.5" font-family="Helvetica,sans-Serif" font-size="10.00">string</text>
</a>
</g>
</g>
<!-- Node2&#45;&gt;Node17 -->
<g id="edge20" class="edge">
<title>Node2&#45;&gt;Node17</title>
<path fill="none" stroke="midnightblue" d="M320.71,-168.44C349.82,-158.92 396.85,-143.52 427.99,-133.33"/>
<polygon fill="midnightblue" stroke="midnightblue" points="429.09,-136.66 437.5,-130.22 426.91,-130 429.09,-136.66"/>
</g>
<!-- Node4 -->
<g id="node4" class="node">
<title>Node4</title>
<g id="a_node4"><a xlink:title=" ">
<polygon fill="white" stroke="#bfbfbf" points="265.56,-0.5 265.56,-19.5 321.56,-19.5 321.56,-0.5 265.56,-0.5"/>
<text text-anchor="middle" x="293.56" y="-7.5" font-family="Helvetica,sans-Serif" font-size="10.00">iomanip</text>
</a>
</g>
</g>
<!-- Node3&#45;&gt;Node4 -->
<g id="edge3" class="edge">
<title>Node3&#45;&gt;Node4</title>
<path fill="none" stroke="midnightblue" d="M91.92,-115.69C48.65,-107.11 -20.7,-87.87 6.56,-56 38.14,-19.09 184.67,-12.25 255.3,-11.12"/>
<polygon fill="midnightblue" stroke="midnightblue" points="255.59,-14.62 265.55,-10.99 255.5,-7.62 255.59,-14.62"/>
</g>
<!-- Node3&#45;&gt;Node5 -->
<g id="edge4" class="edge">
<title>Node3&#45;&gt;Node5</title>
<path fill="none" stroke="midnightblue" d="M116.84,-112.22C107.17,-98.46 92.03,-71.8 106.56,-56 140.03,-19.61 484.32,-12.64 603.34,-11.31"/>
<polygon fill="midnightblue" stroke="midnightblue" points="603.53,-14.81 613.49,-11.2 603.45,-7.81 603.53,-14.81"/>
</g>
<!-- Node6 -->
<g id="node6" class="node">
<title>Node6</title>
<g id="a_node6"><a xlink:title=" ">
<polygon fill="white" stroke="#bfbfbf" points="15.56,-56.5 15.56,-75.5 59.56,-75.5 59.56,-56.5 15.56,-56.5"/>
<text text-anchor="middle" x="37.56" y="-63.5" font-family="Helvetica,sans-Serif" font-size="10.00">limits</text>
</a>
</g>
</g>
<!-- Node3&#45;&gt;Node6 -->
<g id="edge5" class="edge">
<title>Node3&#45;&gt;Node6</title>
<path fill="none" stroke="midnightblue" d="M109.75,-112.32C96.33,-103.9 75.74,-90.97 59.98,-81.07"/>
<polygon fill="midnightblue" stroke="midnightblue" points="61.68,-78.01 51.35,-75.65 57.95,-83.94 61.68,-78.01"/>
</g>
<!-- Node7 -->
<g id="node7" class="node">
<title>Node7</title>
<g id="a_node7"><a xlink:title=" ">
<polygon fill="white" stroke="#bfbfbf" points="359.56,-56.5 359.56,-75.5 417.56,-75.5 417.56,-56.5 359.56,-56.5"/>
<text text-anchor="middle" x="388.56" y="-63.5" font-family="Helvetica,sans-Serif" font-size="10.00">json.hpp</text>
</a>
</g>
</g>
<!-- Node3&#45;&gt;Node7 -->
<g id="edge6" class="edge">
<title>Node3&#45;&gt;Node7</title>
<path fill="none" stroke="midnightblue" d="M155.27,-114.54C203.82,-104.65 296.51,-85.76 349.27,-75.01"/>
<polygon fill="midnightblue" stroke="midnightblue" points="350.16,-78.4 359.26,-72.97 348.76,-71.54 350.16,-78.4"/>
</g>
<!-- Node3&#45;&gt;Node8 -->
<g id="edge7" class="edge">
<title>Node3&#45;&gt;Node8</title>
<path fill="none" stroke="midnightblue" d="M134.33,-112.32C144.33,-104.26 159.45,-92.08 171.49,-82.37"/>
<polygon fill="midnightblue" stroke="midnightblue" points="174.01,-84.83 179.6,-75.83 169.62,-79.38 174.01,-84.83"/>
</g>
<!-- Node9&#45;&gt;Node4 -->
<g id="edge11" class="edge">
<title>Node9&#45;&gt;Node4</title>
<path fill="none" stroke="midnightblue" d="M382.03,-112.37C366.05,-94.05 328.52,-51.05 307.84,-27.36"/>
<polygon fill="midnightblue" stroke="midnightblue" points="310.27,-24.82 301.06,-19.59 305,-29.43 310.27,-24.82"/>
</g>
<!-- Node9&#45;&gt;Node5 -->
<g id="edge12" class="edge">
<title>Node9&#45;&gt;Node5</title>
<path fill="none" stroke="midnightblue" d="M409.83,-112.36C430.33,-103.53 462.86,-89.26 490.56,-76 508.13,-67.59 511.82,-64.03 529.56,-56 556.24,-43.93 587.19,-31.83 610.1,-23.22"/>
<polygon fill="midnightblue" stroke="midnightblue" points="611.55,-26.41 619.7,-19.64 609.11,-19.86 611.55,-26.41"/>
</g>
<!-- Node10 -->
<g id="node10" class="node">
<title>Node10</title>
<g id="a_node10"><a xlink:title=" ">
<polygon fill="white" stroke="#bfbfbf" points="694.06,-56.5 694.06,-75.5 749.06,-75.5 749.06,-56.5 694.06,-56.5"/>
<text text-anchor="middle" x="721.56" y="-63.5" font-family="Helvetica,sans-Serif" font-size="10.00">fstream</text>
</a>
</g>
</g>
<!-- Node9&#45;&gt;Node10 -->
<g id="edge9" class="edge">
<title>Node9&#45;&gt;Node10</title>
<path fill="none" stroke="midnightblue" d="M419.32,-113.85C422.43,-113.19 425.56,-112.56 428.56,-112 538.34,-91.66 569.94,-97.26 683.6,-76.01"/>
<polygon fill="midnightblue" stroke="midnightblue" points="684.58,-79.38 693.75,-74.08 683.27,-72.51 684.58,-79.38"/>
</g>
<!-- Node11 -->
<g id="node11" class="node">
<title>Node11</title>
<g id="a_node11"><a xlink:title=" ">
<polygon fill="white" stroke="#bfbfbf" points="538.06,-56.5 538.06,-75.5 603.06,-75.5 603.06,-56.5 538.06,-56.5"/>
<text text-anchor="middle" x="570.56" y="-63.5" font-family="Helvetica,sans-Serif" font-size="10.00">functional</text>
</a>
</g>
</g>
<!-- Node9&#45;&gt;Node11 -->
<g id="edge10" class="edge">
<title>Node9&#45;&gt;Node11</title>
<path fill="none" stroke="midnightblue" d="M418.24,-112.44C449.09,-103.24 498.29,-88.56 532.39,-78.39"/>
<polygon fill="midnightblue" stroke="midnightblue" points="533.44,-81.73 542.02,-75.52 531.43,-75.02 533.44,-81.73"/>
</g>
<!-- Node12 -->
<g id="node12" class="node">
<title>Node12</title>
<g id="a_node12"><a xlink:title=" ">
<polygon fill="white" stroke="#bfbfbf" points="621.56,-56.5 621.56,-75.5 675.56,-75.5 675.56,-56.5 621.56,-56.5"/>
<text text-anchor="middle" x="648.56" y="-63.5" font-family="Helvetica,sans-Serif" font-size="10.00">random</text>
</a>
</g>
</g>
<!-- Node9&#45;&gt;Node12 -->
<g id="edge13" class="edge">
<title>Node9&#45;&gt;Node12</title>
<path fill="none" stroke="midnightblue" d="M419.35,-114.02C422.46,-113.32 425.57,-112.64 428.56,-112 507.04,-95.27 529.57,-94.17 611.7,-76.1"/>
<polygon fill="midnightblue" stroke="midnightblue" points="612.47,-79.52 621.47,-73.93 610.95,-72.68 612.47,-79.52"/>
</g>
<!-- Node13 -->
<g id="node13" class="node">
<title>Node13</title>
<g id="a_node13"><a xlink:title=" ">
<polygon fill="white" stroke="#bfbfbf" points="436.06,-56.5 436.06,-75.5 481.06,-75.5 481.06,-56.5 436.06,-56.5"/>
<text text-anchor="middle" x="458.56" y="-63.5" font-family="Helvetica,sans-Serif" font-size="10.00">utility</text>
</a>
</g>
</g>
<!-- Node9&#45;&gt;Node13 -->
<g id="edge14" class="edge">
<title>Node9&#45;&gt;Node13</title>
<path fill="none" stroke="midnightblue" d="M400.65,-112.32C411.05,-104.18 426.82,-91.84 439.29,-82.09"/>
<polygon fill="midnightblue" stroke="midnightblue" points="441.56,-84.75 447.28,-75.83 437.24,-79.24 441.56,-84.75"/>
</g>
<!-- Node14 -->
<g id="node14" class="node">
<title>Node14</title>
<g id="a_node14"><a xlink:href="../../d4/d2e/Stopwatch_8h.html" target="_top" xlink:title="This file contains the Stopwatch class which is a utility for measuring time durations in various uni...">
<polygon fill="white" stroke="black" points="931.06,-56.5 931.06,-75.5 1008.06,-75.5 1008.06,-56.5 931.06,-56.5"/>
<text text-anchor="middle" x="969.56" y="-63.5" font-family="Helvetica,sans-Serif" font-size="10.00">Stopwatch.h</text>
</a>
</g>
</g>
<!-- Node9&#45;&gt;Node14 -->
<g id="edge15" class="edge">
<title>Node9&#45;&gt;Node14</title>
<path fill="none" stroke="midnightblue" d="M419.28,-113.64C422.4,-113.02 425.54,-112.46 428.56,-112 642.94,-79.65 702.52,-103.99 920.72,-76.1"/>
<polygon fill="midnightblue" stroke="midnightblue" points="921.43,-79.54 930.89,-74.77 920.52,-72.59 921.43,-79.54"/>
</g>
<!-- Node15 -->
<g id="node15" class="node">
<title>Node15</title>
<g id="a_node15"><a xlink:title=" ">
<polygon fill="white" stroke="#bfbfbf" points="1056.56,-0.5 1056.56,-19.5 1106.56,-19.5 1106.56,-0.5 1056.56,-0.5"/>
<text text-anchor="middle" x="1081.56" y="-7.5" font-family="Helvetica,sans-Serif" font-size="10.00">chrono</text>
</a>
</g>
</g>
<!-- Node14&#45;&gt;Node15 -->
<g id="edge16" class="edge">
<title>Node14&#45;&gt;Node15</title>
<path fill="none" stroke="midnightblue" d="M987.56,-56.32C1005.6,-47.62 1033.61,-34.12 1054.37,-24.11"/>
<polygon fill="midnightblue" stroke="midnightblue" points="1056.13,-27.15 1063.61,-19.65 1053.09,-20.84 1056.13,-27.15"/>
</g>
<!-- Node18&#45;&gt;Node5 -->
<g id="edge25" class="edge">
<title>Node18&#45;&gt;Node5</title>
<path fill="none" stroke="midnightblue" d="M784.4,-168.5C812.94,-158.14 851.35,-138.67 837.56,-112 827.68,-92.88 777.5,-66.22 758.56,-56 733.58,-42.52 703.68,-30.95 680.63,-22.91"/>
<polygon fill="midnightblue" stroke="midnightblue" points="681.48,-19.5 670.88,-19.58 679.21,-26.13 681.48,-19.5"/>
</g>
<!-- Node18&#45;&gt;Node7 -->
<g id="edge39" class="edge">
<title>Node18&#45;&gt;Node7</title>
<path fill="none" stroke="midnightblue" d="M720.56,-173.16C674.89,-167.56 594.19,-155.19 528.56,-132 510.57,-125.64 507.75,-120.3 490.56,-112 466.6,-100.42 438.95,-88.3 418.49,-79.56"/>
<polygon fill="midnightblue" stroke="midnightblue" points="419.65,-76.25 409.07,-75.56 416.91,-82.69 419.65,-76.25"/>
</g>
<!-- Node18&#45;&gt;Node10 -->
<g id="edge24" class="edge">
<title>Node18&#45;&gt;Node10</title>
<path fill="none" stroke="midnightblue" d="M777.23,-168.49C801.83,-157.06 837.8,-135.47 822.56,-112 815.1,-100.51 784.55,-87.84 758.99,-78.88"/>
<polygon fill="midnightblue" stroke="midnightblue" points="760.09,-75.56 749.49,-75.64 757.82,-82.18 760.09,-75.56"/>
</g>
<!-- Node18&#45;&gt;Node15 -->
<g id="edge27" class="edge">
<title>Node18&#45;&gt;Node15</title>
<path fill="none" stroke="midnightblue" d="M792.77,-175.32C869.82,-171.25 1047.31,-159.15 1100.56,-132 1137.25,-113.3 1173.53,-92.02 1153.56,-56 1145.42,-41.3 1130.24,-30.77 1115.92,-23.61"/>
<polygon fill="midnightblue" stroke="midnightblue" points="1117.26,-20.37 1106.71,-19.38 1114.34,-26.73 1117.26,-20.37"/>
</g>
<!-- Node18&#45;&gt;Node17 -->
<g id="edge26" class="edge">
<title>Node18&#45;&gt;Node17</title>
<path fill="none" stroke="midnightblue" d="M720.52,-171.65C670.01,-163.96 575.42,-148.84 495.56,-132 494.29,-131.73 492.99,-131.45 491.68,-131.16"/>
<polygon fill="midnightblue" stroke="midnightblue" points="492.12,-127.67 481.59,-128.78 490.52,-134.48 492.12,-127.67"/>
</g>
<!-- Node19 -->
<g id="node19" class="node">
<title>Node19</title>
<g id="a_node19"><a xlink:title=" ">
<polygon fill="white" stroke="#bfbfbf" points="1222.56,-112.5 1222.56,-131.5 1334.56,-131.5 1334.56,-112.5 1222.56,-112.5"/>
<text text-anchor="middle" x="1278.56" y="-119.5" font-family="Helvetica,sans-Serif" font-size="10.00">boost/tokenizer.hpp</text>
</a>
</g>
</g>
<!-- Node18&#45;&gt;Node19 -->
<g id="edge22" class="edge">
<title>Node18&#45;&gt;Node19</title>
<path fill="none" stroke="midnightblue" d="M792.63,-173.76C869.28,-166.81 1054.01,-149.62 1208.56,-132 1209.83,-131.86 1211.11,-131.71 1212.4,-131.56"/>
<polygon fill="midnightblue" stroke="midnightblue" points="1212.9,-135.02 1222.42,-130.36 1212.07,-128.07 1212.9,-135.02"/>
</g>
<!-- Node20 -->
<g id="node20" class="node">
<title>Node20</title>
<g id="a_node20"><a xlink:title=" ">
<polygon fill="white" stroke="#bfbfbf" points="537.56,-112.5 537.56,-131.5 605.56,-131.5 605.56,-112.5 537.56,-112.5"/>
<text text-anchor="middle" x="571.56" y="-119.5" font-family="Helvetica,sans-Serif" font-size="10.00">filesystem</text>
</a>
</g>
</g>
<!-- Node18&#45;&gt;Node20 -->
<g id="edge23" class="edge">
<title>Node18&#45;&gt;Node20</title>
<path fill="none" stroke="midnightblue" d="M727.25,-168.44C695.72,-159.24 645.43,-144.56 610.58,-134.39"/>
<polygon fill="midnightblue" stroke="midnightblue" points="611.32,-130.96 600.74,-131.52 609.36,-137.68 611.32,-130.96"/>
</g>
<!-- Node21 -->
<g id="node21" class="node">
<title>Node21</title>
<g id="a_node21"><a xlink:title=" ">
<polygon fill="white" stroke="#bfbfbf" points="623.56,-112.5 623.56,-131.5 681.56,-131.5 681.56,-112.5 623.56,-112.5"/>
<text text-anchor="middle" x="652.56" y="-119.5" font-family="Helvetica,sans-Serif" font-size="10.00">memory</text>
</a>
</g>
</g>
<!-- Node18&#45;&gt;Node21 -->
<g id="edge28" class="edge">
<title>Node18&#45;&gt;Node21</title>
<path fill="none" stroke="midnightblue" d="M739.85,-168.32C723.25,-159.7 697.56,-146.36 678.34,-136.39"/>
<polygon fill="midnightblue" stroke="midnightblue" points="679.72,-133.16 669.23,-131.65 676.49,-139.37 679.72,-133.16"/>
</g>
<!-- Node22 -->
<g id="node22" class="node">
<title>Node22</title>
<g id="a_node22"><a xlink:title=" ">
<polygon fill="white" stroke="#bfbfbf" points="699.56,-112.5 699.56,-131.5 747.56,-131.5 747.56,-112.5 699.56,-112.5"/>
<text text-anchor="middle" x="723.56" y="-119.5" font-family="Helvetica,sans-Serif" font-size="10.00">mutex</text>
</a>
</g>
</g>
<!-- Node18&#45;&gt;Node22 -->
<g id="edge29" class="edge">
<title>Node18&#45;&gt;Node22</title>
<path fill="none" stroke="midnightblue" d="M751.11,-168.08C746.55,-160.61 739.9,-149.72 734.27,-140.52"/>
<polygon fill="midnightblue" stroke="midnightblue" points="737.11,-138.46 728.91,-131.75 731.14,-142.11 737.11,-138.46"/>
</g>
<!-- Node23 -->
<g id="node23" class="node">
<title>Node23</title>
<g id="a_node23"><a xlink:title=" ">
<polygon fill="white" stroke="#bfbfbf" points="765.56,-112.5 765.56,-131.5 813.56,-131.5 813.56,-112.5 765.56,-112.5"/>
<text text-anchor="middle" x="789.56" y="-119.5" font-family="Helvetica,sans-Serif" font-size="10.00">thread</text>
</a>
</g>
</g>
<!-- Node18&#45;&gt;Node23 -->
<g id="edge30" class="edge">
<title>Node18&#45;&gt;Node23</title>
<path fill="none" stroke="midnightblue" d="M762.01,-168.08C766.58,-160.61 773.23,-149.72 778.86,-140.52"/>
<polygon fill="midnightblue" stroke="midnightblue" points="781.99,-142.11 784.22,-131.75 776.01,-138.46 781.99,-142.11"/>
</g>
<!-- Node24 -->
<g id="node24" class="node">
<title>Node24</title>
<g id="a_node24"><a xlink:href="../../d3/db1/Matrix_8h.html" target="_top" xlink:title="This file contains my BLAS::Matrix declarations.">
<polygon fill="white" stroke="black" points="982.06,-112.5 982.06,-131.5 1091.06,-131.5 1091.06,-112.5 982.06,-112.5"/>
<text text-anchor="middle" x="1036.56" y="-119.5" font-family="Helvetica,sans-Serif" font-size="10.00">math/blas/Matrix.h</text>
</a>
</g>
</g>
<!-- Node18&#45;&gt;Node24 -->
<g id="edge31" class="edge">
<title>Node18&#45;&gt;Node24</title>
<path fill="none" stroke="midnightblue" d="M792.6,-170.05C840.71,-160.77 926.34,-144.26 982.29,-133.47"/>
<polygon fill="midnightblue" stroke="midnightblue" points="983.22,-136.85 992.37,-131.52 981.89,-129.98 983.22,-136.85"/>
</g>
<!-- Node24&#45;&gt;Node5 -->
<g id="edge33" class="edge">
<title>Node24&#45;&gt;Node5</title>
<path fill="none" stroke="midnightblue" d="M1036.82,-112.25C1036.72,-98.05 1034.25,-70.14 1017.56,-56 967.99,-13.99 770.04,-10.08 683.92,-10.44"/>
<polygon fill="midnightblue" stroke="midnightblue" points="683.73,-6.94 673.75,-10.5 683.77,-13.94 683.73,-6.94"/>
</g>
<!-- Node25 -->
<g id="node25" class="node">
<title>Node25</title>
<g id="a_node25"><a xlink:title=" ">
<polygon fill="white" stroke="#bfbfbf" points="1064.56,-56.5 1064.56,-75.5 1128.56,-75.5 1128.56,-56.5 1064.56,-56.5"/>
<text text-anchor="middle" x="1096.56" y="-63.5" font-family="Helvetica,sans-Serif" font-size="10.00">algorithm</text>
</a>
</g>
</g>
<!-- Node24&#45;&gt;Node25 -->
<g id="edge32" class="edge">
<title>Node24&#45;&gt;Node25</title>
<path fill="none" stroke="midnightblue" d="M1046.2,-112.32C1055.07,-104.34 1068.44,-92.31 1079.17,-82.65"/>
<polygon fill="midnightblue" stroke="midnightblue" points="1081.66,-85.13 1086.75,-75.83 1076.97,-79.92 1081.66,-85.13"/>
</g>
<!-- Node26 -->
<g id="node26" class="node">
<title>Node26</title>
<g id="a_node26"><a xlink:title=" ">
<polygon fill="white" stroke="#bfbfbf" points="913.06,-0.5 913.06,-19.5 960.06,-19.5 960.06,-0.5 913.06,-0.5"/>
<text text-anchor="middle" x="936.56" y="-7.5" font-family="Helvetica,sans-Serif" font-size="10.00">vector</text>
</a>
</g>
</g>
<!-- Node24&#45;&gt;Node26 -->
<g id="edge34" class="edge">
<title>Node24&#45;&gt;Node26</title>
<path fill="none" stroke="midnightblue" d="M1073.59,-112.47C1110.6,-102.21 1159.14,-82.94 1137.56,-56 1116.96,-30.28 1021.85,-18.27 970.18,-13.56"/>
<polygon fill="midnightblue" stroke="midnightblue" points="970.43,-10.07 960.16,-12.69 969.82,-17.04 970.43,-10.07"/>
</g>
<!-- Node27 -->
<g id="node27" class="node">
<title>Node27</title>
<g id="a_node27"><a xlink:href="../../d6/dbe/Vector_8h.html" target="_top" xlink:title="This file contains my BLAS::Vector implementation.">
<polygon fill="white" stroke="black" points="806.06,-56.5 806.06,-75.5 913.06,-75.5 913.06,-56.5 806.06,-56.5"/>
<text text-anchor="middle" x="859.56" y="-63.5" font-family="Helvetica,sans-Serif" font-size="10.00">math/blas/Vector.h</text>
</a>
</g>
</g>
<!-- Node24&#45;&gt;Node27 -->
<g id="edge35" class="edge">
<title>Node24&#45;&gt;Node27</title>
<path fill="none" stroke="midnightblue" d="M1008.52,-112.44C978.48,-103.28 930.65,-88.69 897.32,-78.52"/>
<polygon fill="midnightblue" stroke="midnightblue" points="898.06,-75.09 887.48,-75.52 896.02,-81.78 898.06,-75.09"/>
</g>
<!-- Node27&#45;&gt;Node4 -->
<g id="edge36" class="edge">
<title>Node27&#45;&gt;Node4</title>
<path fill="none" stroke="midnightblue" d="M806.06,-59.9C692.66,-49.08 430.49,-24.06 331.94,-14.66"/>
<polygon fill="midnightblue" stroke="midnightblue" points="332.12,-11.16 321.83,-13.7 331.46,-18.13 332.12,-11.16"/>
</g>
<!-- Node27&#45;&gt;Node5 -->
<g id="edge37" class="edge">
<title>Node27&#45;&gt;Node5</title>
<path fill="none" stroke="midnightblue" d="M825.34,-56.44C786.85,-46.82 724.4,-31.21 683.66,-21.02"/>
<polygon fill="midnightblue" stroke="midnightblue" points="684.35,-17.59 673.8,-18.56 682.65,-24.38 684.35,-17.59"/>
</g>
<!-- Node27&#45;&gt;Node26 -->
<g id="edge38" class="edge">
<title>Node27&#45;&gt;Node26</title>
<path fill="none" stroke="midnightblue" d="M871.93,-56.32C883.72,-48.06 901.7,-35.45 915.7,-25.63"/>
<polygon fill="midnightblue" stroke="midnightblue" points="918.05,-28.26 924.22,-19.65 914.03,-22.53 918.05,-28.26"/>
</g>
</g>
</svg>
