<?xml version="1.0" encoding="UTF-8" standalone="no"?>
<!DOCTYPE svg PUBLIC "-//W3C//DTD SVG 1.1//EN"
 "http://www.w3.org/Graphics/SVG/1.1/DTD/svg11.dtd">
<!-- Generated by graphviz version 2.43.0 (0)
 -->
<!-- Title: OutLab5::run Pages: 1 -->
<!--zoomable 661 -->
<svg id="main" version="1.1" xmlns="http://www.w3.org/2000/svg" xmlns:xlink="http://www.w3.org/1999/xlink" xml:space="preserve" onload="init(evt)">
<style type="text/css"><![CDATA[
.edge:hover path { stroke: red; }
.edge:hover polygon { stroke: red; fill: red; }
]]></style>
<script type="text/javascript"><![CDATA[
var edges = document.getElementsByTagName('g');
if (edges && edges.length) {
  for (var i=0;i<edges.length;i++) {
    if (edges[i].id.substr(0,4)=='edge') {
      edges[i].setAttribute('class','edge');
    }
  }
}
]]></script>
        <defs>
                <circle id="rim" cx="0" cy="0" r="7"/>
                <circle id="rim2" cx="0" cy="0" r="3.5"/>
                <g id="zoomPlus">
                        <use xlink:href="#rim" fill="#404040">
                                <set attributeName="fill" to="#808080" begin="zoomplus.mouseover" end="zoomplus.mouseout"/>
                        </use>
                        <path d="M-4,0h8M0,-4v8" fill="none" stroke="white" stroke-width="1.5" pointer-events="none"/>
                </g>
                <g id="zoomMin">
                        <use xlink:href="#rim" fill="#404040">
                                <set attributeName="fill" to="#808080" begin="zoomminus.mouseover" end="zoomminus.mouseout"/>
                        </use>
                        <path d="M-4,0h8" fill="none" stroke="white" stroke-width="1.5" pointer-events="none"/>
                </g>
                <g id="dirArrow">
                        <path fill="none" stroke="white" stroke-width="1.5" d="M0,-3.0v7 M-2.5,-0.5L0,-3.0L2.5,-0.5"/>
                </g>
               <g id="resetDef">
                       <use xlink:href="#rim2" fill="#404040">
                               <set attributeName="fill" to="#808080" begin="reset.mouseover" end="reset.mouseout"/>
                       </use>
               </g>
        </defs>

<script type="text/javascript">
var viewWidth = 679;
var viewHeight = 661;
var sectionId = 'dynsection-2';
</script>
<script xlink:href="../../svgpan.js"/>
<svg id="graph" class="graph">
<g id="viewport">
<title>OutLab5::run</title>
<polygon fill="white" stroke="transparent" points="-4,4 -4,-657 675,-657 675,4 -4,4"/>
<!-- Node1 -->
<g id="node1" class="node">
<title>Node1</title>
<g id="a_node1"><a xlink:title="This function runs the project.">
<polygon fill="#bfbfbf" stroke="black" points="0,-295.5 0,-314.5 79,-314.5 79,-295.5 0,-295.5"/>
<text text-anchor="middle" x="39.5" y="-302.5" font-family="Helvetica,sans-Serif" font-size="10.00">OutLab5::run</text>
</a>
</g>
</g>
<!-- Node2 -->
<g id="node2" class="node">
<title>Node2</title>
<g id="a_node2"><a xlink:href="../../dd/df5/namespaceMyBLAS_1_1Stats.html#afeaf3b7bba0ff1b952b35d0effc0bca9" target="_top" xlink:title="Function to find the absolute value of each element in a vector.">
<polygon fill="white" stroke="black" points="360.5,-633.5 360.5,-652.5 471.5,-652.5 471.5,-633.5 360.5,-633.5"/>
<text text-anchor="middle" x="416" y="-640.5" font-family="Helvetica,sans-Serif" font-size="10.00">MyBLAS::Stats::abs</text>
</a>
</g>
</g>
<!-- Node1&#45;&gt;Node2 -->
<g id="edge1" class="edge">
<title>Node1&#45;&gt;Node2</title>
<path fill="none" stroke="midnightblue" d="M40.03,-314.65C38.7,-353.1 39.18,-496.82 115,-570 178.01,-630.82 282.76,-643.74 350.33,-645.13"/>
<polygon fill="midnightblue" stroke="midnightblue" points="350.39,-648.63 360.43,-645.26 350.48,-641.63 350.39,-648.63"/>
</g>
<!-- Node4 -->
<g id="node4" class="node">
<title>Node4</title>
<g id="a_node4"><a xlink:href="../../d2/d6e/namespaceMyBLAS.html#af710039e87de86c8b4ac8a9e139efbcb" target="_top" xlink:title="Perform backward substitution.">
<polygon fill="white" stroke="black" points="125,-213.5 125,-232.5 294,-232.5 294,-213.5 125,-213.5"/>
<text text-anchor="middle" x="209.5" y="-220.5" font-family="Helvetica,sans-Serif" font-size="10.00">MyBLAS::backwardSubstitution</text>
</a>
</g>
</g>
<!-- Node1&#45;&gt;Node4 -->
<g id="edge3" class="edge">
<title>Node1&#45;&gt;Node4</title>
<path fill="none" stroke="midnightblue" d="M49.04,-295.15C61.88,-281.04 87.56,-255.3 115,-242 120.03,-239.56 125.36,-237.44 130.82,-235.58"/>
<polygon fill="midnightblue" stroke="midnightblue" points="132.23,-238.81 140.76,-232.53 130.17,-232.12 132.23,-238.81"/>
</g>
<!-- Node7 -->
<g id="node7" class="node">
<title>Node7</title>
<g id="a_node7"><a xlink:href="../../d6/d82/labs_2outlab5_2Compute_8h.html#a42561c10d9c1157e9f1dcd9e940061a2" target="_top" xlink:title="Performs Doolittle&#39;s LU factorization with partial pivoting on a given matrix.">
<polygon fill="white" stroke="black" points="148.5,-541.5 148.5,-560.5 270.5,-560.5 270.5,-541.5 148.5,-541.5"/>
<text text-anchor="middle" x="209.5" y="-548.5" font-family="Helvetica,sans-Serif" font-size="10.00">dooLittleFactorizeLUP</text>
</a>
</g>
</g>
<!-- Node1&#45;&gt;Node7 -->
<g id="edge6" class="edge">
<title>Node1&#45;&gt;Node7</title>
<path fill="none" stroke="midnightblue" d="M40.47,-314.55C40.92,-349.55 47.44,-471.9 115,-532 121.74,-538 129.85,-542.31 138.44,-545.37"/>
<polygon fill="midnightblue" stroke="midnightblue" points="137.71,-548.8 148.29,-548.32 139.72,-542.1 137.71,-548.8"/>
</g>
<!-- Node11 -->
<g id="node11" class="node">
<title>Node11</title>
<g id="a_node11"><a xlink:href="../../dd/dd7/plot__points_8m.html#a07ca9f04874775e798496347c3e80b84" target="_top" xlink:title=" ">
<polygon fill="white" stroke="black" points="401.5,-405.5 401.5,-424.5 430.5,-424.5 430.5,-405.5 401.5,-405.5"/>
<text text-anchor="middle" x="416" y="-412.5" font-family="Helvetica,sans-Serif" font-size="10.00">L</text>
</a>
</g>
</g>
<!-- Node1&#45;&gt;Node11 -->
<g id="edge37" class="edge">
<title>Node1&#45;&gt;Node11</title>
<path fill="none" stroke="midnightblue" d="M41.8,-314.73C46.13,-342.74 62.87,-423.59 115,-456 186.34,-500.35 221.31,-470.78 304,-456 335.74,-450.33 370.29,-436.2 392.27,-426.11"/>
<polygon fill="midnightblue" stroke="midnightblue" points="393.86,-429.23 401.43,-421.81 390.89,-422.89 393.86,-429.23"/>
</g>
<!-- Node14 -->
<g id="node14" class="node">
<title>Node14</title>
<g id="a_node14"><a xlink:href="../../db/d2e/namespaceMyBLAS_1_1LU.html#a876ff0f2a17c8145a0e18eb54c37506b" target="_top" xlink:title="Factorizes a given matrix A into lower and upper triangular matrices L,U.">
<polygon fill="white" stroke="black" points="147,-427.5 147,-446.5 272,-446.5 272,-427.5 147,-427.5"/>
<text text-anchor="middle" x="209.5" y="-434.5" font-family="Helvetica,sans-Serif" font-size="10.00">MyBLAS::LU::factorize</text>
</a>
</g>
</g>
<!-- Node1&#45;&gt;Node14 -->
<g id="edge14" class="edge">
<title>Node1&#45;&gt;Node14</title>
<path fill="none" stroke="midnightblue" d="M43.92,-314.74C52.26,-336.98 75.86,-391.56 115,-418 121.73,-422.55 129.32,-426.05 137.18,-428.74"/>
<polygon fill="midnightblue" stroke="midnightblue" points="136.29,-432.13 146.88,-431.64 138.3,-425.42 136.29,-432.13"/>
</g>
<!-- Node15 -->
<g id="node15" class="node">
<title>Node15</title>
<g id="a_node15"><a xlink:href="../../d6/d82/labs_2outlab5_2Compute_8h.html#a06469338a0b66fbb6224d51ec170b8ad" target="_top" xlink:title="Performs LU factorization with partial pivoting on a given matrix.">
<polygon fill="white" stroke="black" points="127.5,-503.5 127.5,-522.5 291.5,-522.5 291.5,-503.5 127.5,-503.5"/>
<text text-anchor="middle" x="209.5" y="-510.5" font-family="Helvetica,sans-Serif" font-size="10.00">factorizeLUwithPartialPivoting</text>
</a>
</g>
</g>
<!-- Node1&#45;&gt;Node15 -->
<g id="edge16" class="edge">
<title>Node1&#45;&gt;Node15</title>
<path fill="none" stroke="midnightblue" d="M41.42,-314.74C44.86,-345.39 59.75,-440.67 115,-489 119.61,-493.03 124.8,-496.4 130.32,-499.21"/>
<polygon fill="midnightblue" stroke="midnightblue" points="129.32,-502.59 139.88,-503.44 132.15,-496.19 129.32,-502.59"/>
</g>
<!-- Node16 -->
<g id="node16" class="node">
<title>Node16</title>
<g id="a_node16"><a xlink:href="../../d2/d6e/namespaceMyBLAS.html#aa3501265c4bb7f37e8e949d37244473a" target="_top" xlink:title="Perform forward substitution.">
<polygon fill="white" stroke="black" points="130,-339.5 130,-358.5 289,-358.5 289,-339.5 130,-339.5"/>
<text text-anchor="middle" x="209.5" y="-346.5" font-family="Helvetica,sans-Serif" font-size="10.00">MyBLAS::forwardSubstitution</text>
</a>
</g>
</g>
<!-- Node1&#45;&gt;Node16 -->
<g id="edge22" class="edge">
<title>Node1&#45;&gt;Node16</title>
<path fill="none" stroke="midnightblue" d="M66.46,-314.59C80.67,-319.61 98.66,-325.62 115,-330 124.94,-332.67 135.57,-335.16 145.96,-337.4"/>
<polygon fill="midnightblue" stroke="midnightblue" points="145.31,-340.84 155.82,-339.48 146.75,-333.99 145.31,-340.84"/>
</g>
<!-- Node17 -->
<g id="node17" class="node">
<title>Node17</title>
<g id="a_node17"><a xlink:href="../../dd/d02/classCommandLine.html#a6a94f5e16b2081e769567d3790b6d8ec" target="_top" xlink:title="Method to get the current precision.">
<polygon fill="white" stroke="black" points="115,-175.5 115,-194.5 304,-194.5 304,-175.5 115,-175.5"/>
<text text-anchor="middle" x="209.5" y="-182.5" font-family="Helvetica,sans-Serif" font-size="10.00">CommandLine::getCurrentPrecision</text>
</a>
</g>
</g>
<!-- Node1&#45;&gt;Node17 -->
<g id="edge25" class="edge">
<title>Node1&#45;&gt;Node17</title>
<path fill="none" stroke="midnightblue" d="M44.64,-295.37C53.95,-274.93 78.63,-227.2 115,-204 118.19,-201.96 121.56,-200.14 125.04,-198.51"/>
<polygon fill="midnightblue" stroke="midnightblue" points="126.58,-201.66 134.5,-194.62 123.92,-195.18 126.58,-201.66"/>
</g>
<!-- Node18 -->
<g id="node18" class="node">
<title>Node18</title>
<g id="a_node18"><a xlink:href="../../db/d91/classProject.html#a748bf752c84f1333d905f6d30fcd2e45" target="_top" xlink:title="Returns the terminal.">
<polygon fill="white" stroke="black" points="126,-126 126,-156 293,-156 293,-126 126,-126"/>
<text text-anchor="start" x="134" y="-144" font-family="Helvetica,sans-Serif" font-size="10.00">Project&lt; InputMatrices,</text>
<text text-anchor="middle" x="209.5" y="-133" font-family="Helvetica,sans-Serif" font-size="10.00"> Parser, Results &gt;::getTerminal</text>
</a>
</g>
</g>
<!-- Node1&#45;&gt;Node18 -->
<g id="edge26" class="edge">
<title>Node1&#45;&gt;Node18</title>
<path fill="none" stroke="midnightblue" d="M42.86,-295.17C49.49,-269.69 70.79,-201.03 115,-166 117.28,-164.19 119.69,-162.51 122.18,-160.95"/>
<polygon fill="midnightblue" stroke="midnightblue" points="123.92,-163.99 130.99,-156.11 120.54,-157.86 123.92,-163.99"/>
</g>
<!-- Node19 -->
<g id="node19" class="node">
<title>Node19</title>
<g id="a_node19"><a xlink:href="../../d2/d6e/namespaceMyBLAS.html#a670e376572710e06706a94b3e8c75d02" target="_top" xlink:title="Checks if the given matrix is a valid permutation matrix.">
<polygon fill="white" stroke="black" points="128,-251.5 128,-270.5 291,-270.5 291,-251.5 128,-251.5"/>
<text text-anchor="middle" x="209.5" y="-258.5" font-family="Helvetica,sans-Serif" font-size="10.00">MyBLAS::isPermutationMatrix</text>
</a>
</g>
</g>
<!-- Node1&#45;&gt;Node19 -->
<g id="edge27" class="edge">
<title>Node1&#45;&gt;Node19</title>
<path fill="none" stroke="midnightblue" d="M67.9,-295.44C81.89,-290.75 99.25,-285.21 115,-281 126.04,-278.05 137.9,-275.24 149.35,-272.71"/>
<polygon fill="midnightblue" stroke="midnightblue" points="150.23,-276.1 159.27,-270.56 148.75,-269.26 150.23,-276.1"/>
</g>
<!-- Node22 -->
<g id="node22" class="node">
<title>Node22</title>
<g id="a_node22"><a xlink:href="../../d2/d6e/namespaceMyBLAS.html#ae371a7b6812d897b1395ef461745cea1" target="_top" xlink:title="Checks if the given matrix is a valid unit lower triangular matrix.">
<polygon fill="white" stroke="black" points="125,-378 125,-408 294,-408 294,-378 125,-378"/>
<text text-anchor="start" x="133" y="-396" font-family="Helvetica,sans-Serif" font-size="10.00">MyBLAS::isUnitLowerTriangular</text>
<text text-anchor="middle" x="209.5" y="-385" font-family="Helvetica,sans-Serif" font-size="10.00">Matrix</text>
</a>
</g>
</g>
<!-- Node1&#45;&gt;Node22 -->
<g id="edge32" class="edge">
<title>Node1&#45;&gt;Node22</title>
<path fill="none" stroke="midnightblue" d="M49.15,-314.63C62.12,-328.47 87.98,-353.88 115,-368 119.33,-370.26 123.89,-372.34 128.56,-374.23"/>
<polygon fill="midnightblue" stroke="midnightblue" points="127.69,-377.64 138.28,-377.88 130.14,-371.09 127.69,-377.64"/>
</g>
<!-- Node23 -->
<g id="node23" class="node">
<title>Node23</title>
<g id="a_node23"><a xlink:href="../../d2/d6e/namespaceMyBLAS.html#ada02d6a37edcab7294168e9b005871a1" target="_top" xlink:title="Checks if the given matrix is a valid upper triangular matrix.">
<polygon fill="white" stroke="black" points="135,-290 135,-320 284,-320 284,-290 135,-290"/>
<text text-anchor="start" x="143" y="-308" font-family="Helvetica,sans-Serif" font-size="10.00">MyBLAS::isUpperTriangular</text>
<text text-anchor="middle" x="209.5" y="-297" font-family="Helvetica,sans-Serif" font-size="10.00">Matrix</text>
</a>
</g>
</g>
<!-- Node1&#45;&gt;Node23 -->
<g id="edge35" class="edge">
<title>Node1&#45;&gt;Node23</title>
<path fill="none" stroke="midnightblue" d="M79.04,-305C92.63,-305 108.49,-305 124.36,-305"/>
<polygon fill="midnightblue" stroke="midnightblue" points="124.76,-308.5 134.76,-305 124.76,-301.5 124.76,-308.5"/>
</g>
<!-- Node24 -->
<g id="node24" class="node">
<title>Node24</title>
<g id="a_node24"><a xlink:href="../../dd/d02/classCommandLine.html#a7001590923e6bfdf380448136b8e65bd" target="_top" xlink:title="Method to print a line to the console. This method prints a line of dashes to the console.">
<polygon fill="white" stroke="black" points="122,-77 122,-107 297,-107 297,-77 122,-77"/>
<text text-anchor="start" x="130" y="-95" font-family="Helvetica,sans-Serif" font-size="10.00">CommandLine&lt; OutLab12Inputs</text>
<text text-anchor="middle" x="209.5" y="-84" font-family="Helvetica,sans-Serif" font-size="10.00"> &gt;::printLine</text>
</a>
</g>
</g>
<!-- Node1&#45;&gt;Node24 -->
<g id="edge38" class="edge">
<title>Node1&#45;&gt;Node24</title>
<path fill="none" stroke="midnightblue" d="M41.37,-295.08C44.66,-263.85 59.15,-166.72 115,-117 116.73,-115.46 118.55,-114.01 120.44,-112.65"/>
<polygon fill="midnightblue" stroke="midnightblue" points="122.5,-115.49 129.14,-107.22 118.8,-109.55 122.5,-115.49"/>
</g>
<!-- Node25 -->
<g id="node25" class="node">
<title>Node25</title>
<g id="a_node25"><a xlink:href="../../da/ddc/structMap.html#a347bd13df937b740161a9febe766ae29" target="_top" xlink:title="Converts the input parameters to a JSON object.">
<polygon fill="white" stroke="black" points="171,-38.5 171,-57.5 248,-57.5 248,-38.5 171,-38.5"/>
<text text-anchor="middle" x="209.5" y="-45.5" font-family="Helvetica,sans-Serif" font-size="10.00">Map::toJSON</text>
</a>
</g>
</g>
<!-- Node1&#45;&gt;Node25 -->
<g id="edge39" class="edge">
<title>Node1&#45;&gt;Node25</title>
<path fill="none" stroke="midnightblue" d="M40.34,-295.07C40.33,-258.65 45.47,-131.29 115,-68 127.4,-56.71 144.58,-51.22 160.83,-48.7"/>
<polygon fill="midnightblue" stroke="midnightblue" points="161.27,-52.17 170.78,-47.5 160.43,-45.23 161.27,-52.17"/>
</g>
<!-- Node27 -->
<g id="node27" class="node">
<title>Node27</title>
<g id="a_node27"><a xlink:href="../../d7/de4/FileParser_8h.html#abb1a95d027a077ecf097a06ef4a968b6" target="_top" xlink:title="Writes the given JSON data to a file at the specified file path.">
<polygon fill="white" stroke="black" points="177,-0.5 177,-19.5 242,-19.5 242,-0.5 177,-0.5"/>
<text text-anchor="middle" x="209.5" y="-7.5" font-family="Helvetica,sans-Serif" font-size="10.00">writeJSON</text>
</a>
</g>
</g>
<!-- Node1&#45;&gt;Node27 -->
<g id="edge41" class="edge">
<title>Node1&#45;&gt;Node27</title>
<path fill="none" stroke="midnightblue" d="M41.76,-295.22C47.71,-250.64 74.38,-67.13 115,-29 128.79,-16.05 148.89,-10.87 166.92,-9.11"/>
<polygon fill="midnightblue" stroke="midnightblue" points="167.21,-12.6 176.95,-8.45 166.74,-5.62 167.21,-12.6"/>
</g>
<!-- Node3 -->
<g id="node3" class="node">
<title>Node3</title>
<g id="a_node3"><a xlink:href="../../d4/d4d/classMyBLAS_1_1Vector.html#aae30f8178e4a34d332317c61e77c147a" target="_top" xlink:title="Getter for the size of the vector.">
<polygon fill="white" stroke="black" points="540,-614.5 540,-633.5 659,-633.5 659,-614.5 540,-614.5"/>
<text text-anchor="middle" x="599.5" y="-621.5" font-family="Helvetica,sans-Serif" font-size="10.00">MyBLAS::Vector::size</text>
</a>
</g>
</g>
<!-- Node2&#45;&gt;Node3 -->
<g id="edge2" class="edge">
<title>Node2&#45;&gt;Node3</title>
<path fill="none" stroke="midnightblue" d="M471.95,-637.25C490.17,-635.34 510.68,-633.19 529.8,-631.19"/>
<polygon fill="midnightblue" stroke="midnightblue" points="530.37,-634.65 539.95,-630.13 529.64,-627.69 530.37,-634.65"/>
</g>
<!-- Node5 -->
<g id="node5" class="node">
<title>Node5</title>
<g id="a_node5"><a xlink:href="../../dd/df5/namespaceMyBLAS_1_1Stats.html#aaa0d2e3d22af2b7894169b7c90ba6146" target="_top" xlink:title="Function to find the sum of all elements in a vector.">
<polygon fill="white" stroke="black" points="358.5,-317.5 358.5,-336.5 473.5,-336.5 473.5,-317.5 358.5,-317.5"/>
<text text-anchor="middle" x="416" y="-324.5" font-family="Helvetica,sans-Serif" font-size="10.00">MyBLAS::Stats::sum</text>
</a>
</g>
</g>
<!-- Node4&#45;&gt;Node5 -->
<g id="edge4" class="edge">
<title>Node4&#45;&gt;Node5</title>
<path fill="none" stroke="midnightblue" d="M281.6,-232.61C289.41,-235.06 297.05,-238.14 304,-242 324.34,-253.28 322,-265.26 340,-280 354.97,-292.25 373.35,-303.82 388.17,-312.41"/>
<polygon fill="midnightblue" stroke="midnightblue" points="386.45,-315.46 396.87,-317.36 389.9,-309.38 386.45,-315.46"/>
</g>
<!-- Node6 -->
<g id="node6" class="node">
<title>Node6</title>
<g id="a_node6"><a xlink:href="../../d4/d4d/classMyBLAS_1_1Vector.html#a6188d71192e096e25ae1c1a46150a0ab" target="_top" xlink:title="Getter for the vector data.">
<polygon fill="white" stroke="black" points="530,-317.5 530,-336.5 669,-336.5 669,-317.5 530,-317.5"/>
<text text-anchor="middle" x="599.5" y="-324.5" font-family="Helvetica,sans-Serif" font-size="10.00">MyBLAS::Vector::getData</text>
</a>
</g>
</g>
<!-- Node5&#45;&gt;Node6 -->
<g id="edge5" class="edge">
<title>Node5&#45;&gt;Node6</title>
<path fill="none" stroke="midnightblue" d="M473.93,-327C488.51,-327 504.46,-327 519.92,-327"/>
<polygon fill="midnightblue" stroke="midnightblue" points="519.99,-330.5 529.99,-327 519.99,-323.5 519.99,-330.5"/>
</g>
<!-- Node8 -->
<g id="node8" class="node">
<title>Node8</title>
<g id="a_node8"><a xlink:href="../../d2/d6e/namespaceMyBLAS.html#ab04220788b1a4758fe6b7f4fedc39a19" target="_top" xlink:title=" ">
<polygon fill="white" stroke="black" points="376,-595.5 376,-614.5 456,-614.5 456,-595.5 376,-595.5"/>
<text text-anchor="middle" x="416" y="-602.5" font-family="Helvetica,sans-Serif" font-size="10.00">MyBLAS::abs</text>
</a>
</g>
</g>
<!-- Node7&#45;&gt;Node8 -->
<g id="edge7" class="edge">
<title>Node7&#45;&gt;Node8</title>
<path fill="none" stroke="midnightblue" d="M246.59,-560.53C280.65,-569.52 331.88,-583.05 368.89,-592.82"/>
<polygon fill="midnightblue" stroke="midnightblue" points="368.37,-596.31 378.93,-595.47 370.15,-589.54 368.37,-596.31"/>
</g>
<!-- Node9 -->
<g id="node9" class="node">
<title>Node9</title>
<g id="a_node9"><a xlink:href="../../d0/d27/classMyBLAS_1_1Matrix.html#a1568aac00359b2c4e265b7e028adb0c1" target="_top" xlink:title="Static function to get the identity matrix of a given size.">
<polygon fill="white" stroke="black" points="356.5,-481.5 356.5,-500.5 475.5,-500.5 475.5,-481.5 356.5,-481.5"/>
<text text-anchor="middle" x="416" y="-488.5" font-family="Helvetica,sans-Serif" font-size="10.00">MyBLAS::Matrix::eye</text>
</a>
</g>
</g>
<!-- Node7&#45;&gt;Node9 -->
<g id="edge9" class="edge">
<title>Node7&#45;&gt;Node9</title>
<path fill="none" stroke="midnightblue" d="M270.75,-541.98C282.01,-539.39 293.52,-536.12 304,-532 321.45,-525.14 322.72,-517.27 340,-510 345.85,-507.54 352.1,-505.34 358.39,-503.39"/>
<polygon fill="midnightblue" stroke="midnightblue" points="359.64,-506.67 368.28,-500.52 357.7,-499.94 359.64,-506.67"/>
</g>
<!-- Node10 -->
<g id="node10" class="node">
<title>Node10</title>
<g id="a_node10"><a xlink:href="../../d0/d27/classMyBLAS_1_1Matrix.html#a720cd9095d330d43de367bfbffffb864" target="_top" xlink:title="Getter for the number of columns in the matrix.">
<polygon fill="white" stroke="black" points="531,-538.5 531,-557.5 668,-557.5 668,-538.5 531,-538.5"/>
<text text-anchor="middle" x="599.5" y="-545.5" font-family="Helvetica,sans-Serif" font-size="10.00">MyBLAS::Matrix::getCols</text>
</a>
</g>
</g>
<!-- Node7&#45;&gt;Node10 -->
<g id="edge10" class="edge">
<title>Node7&#45;&gt;Node10</title>
<path fill="none" stroke="midnightblue" d="M270.7,-550.53C337.99,-550.01 447.15,-549.17 520.83,-548.6"/>
<polygon fill="midnightblue" stroke="midnightblue" points="521.01,-552.1 530.98,-548.52 520.95,-545.1 521.01,-552.1"/>
</g>
<!-- Node7&#45;&gt;Node11 -->
<g id="edge11" class="edge">
<title>Node7&#45;&gt;Node11</title>
<path fill="none" stroke="midnightblue" d="M270.88,-546.33C282.61,-543.4 294.26,-538.89 304,-532 329.39,-514.05 319.25,-495.16 340,-472 355.42,-454.79 376.66,-439.22 392.6,-428.72"/>
<polygon fill="midnightblue" stroke="midnightblue" points="394.76,-431.49 401.29,-423.14 390.99,-425.59 394.76,-431.49"/>
</g>
<!-- Node12 -->
<g id="node12" class="node">
<title>Node12</title>
<g id="a_node12"><a xlink:href="../../d0/d27/classMyBLAS_1_1Matrix.html#a95f15a700d1ac3c9639ee831da4c903c" target="_top" xlink:title="Swaps two rows in the matrix.">
<polygon fill="white" stroke="black" points="340,-519.5 340,-538.5 492,-538.5 492,-519.5 340,-519.5"/>
<text text-anchor="middle" x="416" y="-526.5" font-family="Helvetica,sans-Serif" font-size="10.00">MyBLAS::Matrix::swapRows</text>
</a>
</g>
</g>
<!-- Node7&#45;&gt;Node12 -->
<g id="edge12" class="edge">
<title>Node7&#45;&gt;Node12</title>
<path fill="none" stroke="midnightblue" d="M270.75,-544.52C289.3,-542.52 310.07,-540.29 329.95,-538.15"/>
<polygon fill="midnightblue" stroke="midnightblue" points="330.37,-541.62 339.94,-537.07 329.62,-534.66 330.37,-541.62"/>
</g>
<!-- Node8&#45;&gt;Node3 -->
<g id="edge8" class="edge">
<title>Node8&#45;&gt;Node3</title>
<path fill="none" stroke="midnightblue" d="M456.38,-609.12C477.83,-611.37 504.97,-614.21 529.78,-616.81"/>
<polygon fill="midnightblue" stroke="midnightblue" points="529.57,-620.3 539.88,-617.86 530.3,-613.34 529.57,-620.3"/>
</g>
<!-- Node13 -->
<g id="node13" class="node">
<title>Node13</title>
<g id="a_node13"><a xlink:href="../../d0/d27/classMyBLAS_1_1Matrix.html#a0772df3e76eadc9035e847316de0d249" target="_top" xlink:title="Getter for the number of rows in the matrix.">
<polygon fill="white" stroke="black" points="528,-443.5 528,-462.5 671,-462.5 671,-443.5 528,-443.5"/>
<text text-anchor="middle" x="599.5" y="-450.5" font-family="Helvetica,sans-Serif" font-size="10.00">MyBLAS::Matrix::getRows</text>
</a>
</g>
</g>
<!-- Node12&#45;&gt;Node13 -->
<g id="edge13" class="edge">
<title>Node12&#45;&gt;Node13</title>
<path fill="none" stroke="midnightblue" d="M462.37,-519.4C472.28,-516.78 482.61,-513.64 492,-510 521.81,-498.45 553.88,-480.44 574.95,-467.76"/>
<polygon fill="midnightblue" stroke="midnightblue" points="576.82,-470.72 583.54,-462.52 573.18,-464.75 576.82,-470.72"/>
</g>
<!-- Node14&#45;&gt;Node11 -->
<g id="edge15" class="edge">
<title>Node14&#45;&gt;Node11</title>
<path fill="none" stroke="midnightblue" d="M272.13,-430.37C312.18,-426.06 362.15,-420.69 391.13,-417.57"/>
<polygon fill="midnightblue" stroke="midnightblue" points="391.58,-421.04 401.14,-416.49 390.83,-414.08 391.58,-421.04"/>
</g>
<!-- Node15&#45;&gt;Node8 -->
<g id="edge17" class="edge">
<title>Node15&#45;&gt;Node8</title>
<path fill="none" stroke="midnightblue" d="M274.34,-522.57C284.46,-525.05 294.66,-528.15 304,-532 338.86,-546.37 374.46,-572.16 395.64,-588.92"/>
<polygon fill="midnightblue" stroke="midnightblue" points="393.55,-591.73 403.54,-595.28 397.95,-586.28 393.55,-591.73"/>
</g>
<!-- Node15&#45;&gt;Node9 -->
<g id="edge18" class="edge">
<title>Node15&#45;&gt;Node9</title>
<path fill="none" stroke="midnightblue" d="M291.62,-504.27C309.7,-502.33 328.71,-500.28 346.24,-498.4"/>
<polygon fill="midnightblue" stroke="midnightblue" points="346.8,-501.86 356.37,-497.31 346.05,-494.9 346.8,-501.86"/>
</g>
<!-- Node15&#45;&gt;Node11 -->
<g id="edge20" class="edge">
<title>Node15&#45;&gt;Node11</title>
<path fill="none" stroke="midnightblue" d="M272.98,-503.42C283.9,-499.99 294.73,-495.33 304,-489 326.62,-473.56 317.85,-455.09 340,-439 355.19,-427.97 375.66,-421.86 391.38,-418.58"/>
<polygon fill="midnightblue" stroke="midnightblue" points="392.18,-421.99 401.38,-416.73 390.91,-415.11 392.18,-421.99"/>
</g>
<!-- Node15&#45;&gt;Node12 -->
<g id="edge21" class="edge">
<title>Node15&#45;&gt;Node12</title>
<path fill="none" stroke="midnightblue" d="M291.62,-519.35C304.2,-520.33 317.23,-521.35 329.9,-522.34"/>
<polygon fill="midnightblue" stroke="midnightblue" points="329.72,-525.84 339.96,-523.13 330.27,-518.86 329.72,-525.84"/>
</g>
<!-- Node15&#45;&gt;Node13 -->
<g id="edge19" class="edge">
<title>Node15&#45;&gt;Node13</title>
<path fill="none" stroke="midnightblue" d="M254.78,-503.46C270.52,-499.59 288.24,-494.69 304,-489 320.64,-483 322.89,-476.5 340,-472 398.24,-456.68 466.23,-452.18 517.86,-451.38"/>
<polygon fill="midnightblue" stroke="midnightblue" points="518,-454.88 527.96,-451.27 517.93,-447.88 518,-454.88"/>
</g>
<!-- Node16&#45;&gt;Node5 -->
<g id="edge24" class="edge">
<title>Node16&#45;&gt;Node5</title>
<path fill="none" stroke="midnightblue" d="M289.27,-340.53C308.82,-338.42 329.59,-336.19 348.49,-334.16"/>
<polygon fill="midnightblue" stroke="midnightblue" points="348.91,-337.63 358.48,-333.08 348.16,-330.67 348.91,-337.63"/>
</g>
<!-- Node16&#45;&gt;Node11 -->
<g id="edge23" class="edge">
<title>Node16&#45;&gt;Node11</title>
<path fill="none" stroke="midnightblue" d="M273.57,-358.58C283.99,-361.26 294.48,-364.67 304,-369 322.2,-377.28 321.95,-387.38 340,-396 356.29,-403.78 376.14,-408.63 391.33,-411.48"/>
<polygon fill="midnightblue" stroke="midnightblue" points="391,-414.97 401.45,-413.21 392.18,-408.07 391,-414.97"/>
</g>
<!-- Node20 -->
<g id="node20" class="node">
<title>Node20</title>
<g id="a_node20"><a xlink:href="../../d2/d6e/namespaceMyBLAS.html#afbdd307de10f4c17b700b5dde0fadc77" target="_top" xlink:title="Checks if the given matrix is a binary matrix.">
<polygon fill="white" stroke="black" points="349,-251.5 349,-270.5 483,-270.5 483,-251.5 349,-251.5"/>
<text text-anchor="middle" x="416" y="-258.5" font-family="Helvetica,sans-Serif" font-size="10.00">MyBLAS::isBinaryMatrix</text>
</a>
</g>
</g>
<!-- Node19&#45;&gt;Node20 -->
<g id="edge28" class="edge">
<title>Node19&#45;&gt;Node20</title>
<path fill="none" stroke="midnightblue" d="M291.03,-261C306.71,-261 323.1,-261 338.64,-261"/>
<polygon fill="midnightblue" stroke="midnightblue" points="338.71,-264.5 348.71,-261 338.71,-257.5 338.71,-264.5"/>
</g>
<!-- Node21 -->
<g id="node21" class="node">
<title>Node21</title>
<g id="a_node21"><a xlink:href="../../d2/d6e/namespaceMyBLAS.html#a0b887e323f8337bd87ef20dff8af5c1f" target="_top" xlink:title="Checks if the given matrix is a square matrix.">
<polygon fill="white" stroke="black" points="347.5,-367.5 347.5,-386.5 484.5,-386.5 484.5,-367.5 347.5,-367.5"/>
<text text-anchor="middle" x="416" y="-374.5" font-family="Helvetica,sans-Serif" font-size="10.00">MyBLAS::isSquareMatrix</text>
</a>
</g>
</g>
<!-- Node19&#45;&gt;Node21 -->
<g id="edge29" class="edge">
<title>Node19&#45;&gt;Node21</title>
<path fill="none" stroke="midnightblue" d="M285.06,-270.67C291.82,-273.36 298.27,-276.75 304,-281 330.53,-300.67 315.36,-324.01 340,-346 348.29,-353.4 358.59,-359.18 368.87,-363.64"/>
<polygon fill="midnightblue" stroke="midnightblue" points="367.67,-366.93 378.26,-367.37 370.26,-360.42 367.67,-366.93"/>
</g>
<!-- Node21&#45;&gt;Node10 -->
<g id="edge30" class="edge">
<title>Node21&#45;&gt;Node10</title>
<path fill="none" stroke="midnightblue" d="M476.35,-386.62C481.99,-389.08 487.33,-392.16 492,-396 520.87,-419.74 507.05,-441.05 528,-472 543.12,-494.34 564.7,-516.57 579.99,-531.16"/>
<polygon fill="midnightblue" stroke="midnightblue" points="577.66,-533.77 587.35,-538.06 582.45,-528.67 577.66,-533.77"/>
</g>
<!-- Node21&#45;&gt;Node13 -->
<g id="edge31" class="edge">
<title>Node21&#45;&gt;Node13</title>
<path fill="none" stroke="midnightblue" d="M462.37,-386.6C472.28,-389.22 482.61,-392.36 492,-396 521.81,-407.55 553.88,-425.56 574.95,-438.24"/>
<polygon fill="midnightblue" stroke="midnightblue" points="573.18,-441.25 583.54,-443.48 576.82,-435.28 573.18,-441.25"/>
</g>
<!-- Node22&#45;&gt;Node11 -->
<g id="edge34" class="edge">
<title>Node22&#45;&gt;Node11</title>
<path fill="none" stroke="midnightblue" d="M294.27,-402.01C329.31,-405.78 367.35,-409.87 391.17,-412.44"/>
<polygon fill="midnightblue" stroke="midnightblue" points="391.04,-415.94 401.35,-413.53 391.79,-408.98 391.04,-415.94"/>
</g>
<!-- Node22&#45;&gt;Node21 -->
<g id="edge33" class="edge">
<title>Node22&#45;&gt;Node21</title>
<path fill="none" stroke="midnightblue" d="M294.27,-386.45C308.47,-385.33 323.16,-384.19 337.2,-383.09"/>
<polygon fill="midnightblue" stroke="midnightblue" points="337.6,-386.57 347.29,-382.3 337.05,-379.59 337.6,-386.57"/>
</g>
<!-- Node23&#45;&gt;Node21 -->
<g id="edge36" class="edge">
<title>Node23&#45;&gt;Node21</title>
<path fill="none" stroke="midnightblue" d="M272.28,-320.05C282.95,-323.06 293.86,-326.42 304,-330 320.51,-335.83 323.91,-339.1 340,-346 353.62,-351.84 368.71,-358.12 381.76,-363.48"/>
<polygon fill="midnightblue" stroke="midnightblue" points="380.71,-366.83 391.29,-367.39 383.36,-360.35 380.71,-366.83"/>
</g>
<!-- Node26 -->
<g id="node26" class="node">
<title>Node26</title>
<g id="a_node26"><a xlink:href="../../d0/d27/classMyBLAS_1_1Matrix.html#a23654643cd581a49d01f7575d4eabbbd" target="_top" xlink:title="Getter for the matrix data.">
<polygon fill="white" stroke="black" points="346,-38.5 346,-57.5 486,-57.5 486,-38.5 346,-38.5"/>
<text text-anchor="middle" x="416" y="-45.5" font-family="Helvetica,sans-Serif" font-size="10.00">MyBLAS::Matrix::getData</text>
</a>
</g>
</g>
<!-- Node25&#45;&gt;Node26 -->
<g id="edge40" class="edge">
<title>Node25&#45;&gt;Node26</title>
<path fill="none" stroke="midnightblue" d="M248.01,-48C272.56,-48 305.57,-48 335.76,-48"/>
<polygon fill="midnightblue" stroke="midnightblue" points="335.88,-51.5 345.88,-48 335.88,-44.5 335.88,-51.5"/>
</g>
<!-- Node28 -->
<g id="node28" class="node">
<title>Node28</title>
<g id="a_node28"><a xlink:href="../../d7/de4/FileParser_8h.html#a784eb9bb658a54b0577db5cc2d73acae" target="_top" xlink:title="Checks if a file is writable.">
<polygon fill="white" stroke="black" points="374.5,-0.5 374.5,-19.5 457.5,-19.5 457.5,-0.5 374.5,-0.5"/>
<text text-anchor="middle" x="416" y="-7.5" font-family="Helvetica,sans-Serif" font-size="10.00">isFileWritable</text>
</a>
</g>
</g>
<!-- Node27&#45;&gt;Node28 -->
<g id="edge42" class="edge">
<title>Node27&#45;&gt;Node28</title>
<path fill="none" stroke="midnightblue" d="M242,-10C274.47,-10 325.6,-10 363.86,-10"/>
<polygon fill="midnightblue" stroke="midnightblue" points="364.29,-13.5 374.29,-10 364.29,-6.5 364.29,-13.5"/>
</g>
</g>
</svg>
        <g id="navigator" transform="translate(0 0)" fill="#404254">
                <rect fill="#f2f5e9" fill-opacity="0.5" stroke="#606060" stroke-width=".5" x="0" y="0" width="60" height="60"/>
                <use id="zoomplus" xlink:href="#zoomPlus" x="17" y="9" onmousedown="handleZoom(evt,'in')"/>
                <use id="zoomminus" xlink:href="#zoomMin" x="42" y="9" onmousedown="handleZoom(evt,'out')"/>
                <use id="reset" xlink:href="#resetDef" x="30" y="36" onmousedown="handleReset()"/>
                <g id="arrowUp" xlink:href="#dirArrow" transform="translate(30 24)" onmousedown="handlePan(0,-1)">
                  <use xlink:href="#rim" fill="#404040">
                        <set attributeName="fill" to="#808080" begin="arrowUp.mouseover" end="arrowUp.mouseout"/>
                  </use>
                  <path fill="none" stroke="white" stroke-width="1.5" d="M0,-3.0v7 M-2.5,-0.5L0,-3.0L2.5,-0.5"/>
                </g>
                <g id="arrowRight" xlink:href="#dirArrow" transform="rotate(90) translate(36 -43)" onmousedown="handlePan(1,0)">
                  <use xlink:href="#rim" fill="#404040">
                        <set attributeName="fill" to="#808080" begin="arrowRight.mouseover" end="arrowRight.mouseout"/>
                  </use>
                  <path fill="none" stroke="white" stroke-width="1.5" d="M0,-3.0v7 M-2.5,-0.5L0,-3.0L2.5,-0.5"/>
                </g>
                <g id="arrowDown" xlink:href="#dirArrow" transform="rotate(180) translate(-30 -48)" onmousedown="handlePan(0,1)">
                  <use xlink:href="#rim" fill="#404040">
                        <set attributeName="fill" to="#808080" begin="arrowDown.mouseover" end="arrowDown.mouseout"/>
                  </use>
                  <path fill="none" stroke="white" stroke-width="1.5" d="M0,-3.0v7 M-2.5,-0.5L0,-3.0L2.5,-0.5"/>
                </g>
                <g id="arrowLeft" xlink:href="#dirArrow" transform="rotate(270) translate(-36 17)" onmousedown="handlePan(-1,0)">
                  <use xlink:href="#rim" fill="#404040">
                        <set attributeName="fill" to="#808080" begin="arrowLeft.mouseover" end="arrowLeft.mouseout"/>
                  </use>
                  <path fill="none" stroke="white" stroke-width="1.5" d="M0,-3.0v7 M-2.5,-0.5L0,-3.0L2.5,-0.5"/>
                </g>
        </g>
        <svg viewBox="0 0 15 15" width="100%" height="30px" preserveAspectRatio="xMaxYMin meet">
         <g id="arrow_out" transform="scale(0.3 0.3)">
          <a xlink:href="classOutLab5_aa1d5363426e0ce8f620d47c1b2aa2260_cgraph_org.svg" target="_base">
           <rect id="button" ry="5" rx="5" y="6" x="6" height="38" width="38"
                fill="#f2f5e9" fill-opacity="0.5" stroke="#606060" stroke-width="1.0"/>
           <path id="arrow"
             d="M 11.500037,31.436501 C 11.940474,20.09759 22.043105,11.32322 32.158766,21.979434 L 37.068811,17.246167 C 37.068811,17.246167 37.088388,32 37.088388,32 L 22.160133,31.978069 C 22.160133,31.978069 26.997745,27.140456 26.997745,27.140456 C 18.528582,18.264221 13.291696,25.230495 11.500037,31.436501 z"
             style="fill:#404040;"/>
          </a>
         </g>
        </svg>
</svg>
