<?xml version="1.0" encoding="UTF-8" standalone="no"?>
<!DOCTYPE svg PUBLIC "-//W3C//DTD SVG 1.1//EN"
 "http://www.w3.org/Graphics/SVG/1.1/DTD/svg11.dtd">
<!-- Generated by graphviz version 2.43.0 (0)
 -->
<!-- Title: src/labs/inlab3/Compute.h Pages: 1 -->
<!--zoomable 543 -->
<svg id="main" version="1.1" xmlns="http://www.w3.org/2000/svg" xmlns:xlink="http://www.w3.org/1999/xlink" xml:space="preserve" onload="init(evt)">
<style type="text/css"><![CDATA[
.edge:hover path { stroke: red; }
.edge:hover polygon { stroke: red; fill: red; }
]]></style>
<script type="text/javascript"><![CDATA[
var edges = document.getElementsByTagName('g');
if (edges && edges.length) {
  for (var i=0;i<edges.length;i++) {
    if (edges[i].id.substr(0,4)=='edge') {
      edges[i].setAttribute('class','edge');
    }
  }
}
]]></script>
        <defs>
                <circle id="rim" cx="0" cy="0" r="7"/>
                <circle id="rim2" cx="0" cy="0" r="3.5"/>
                <g id="zoomPlus">
                        <use xlink:href="#rim" fill="#404040">
                                <set attributeName="fill" to="#808080" begin="zoomplus.mouseover" end="zoomplus.mouseout"/>
                        </use>
                        <path d="M-4,0h8M0,-4v8" fill="none" stroke="white" stroke-width="1.5" pointer-events="none"/>
                </g>
                <g id="zoomMin">
                        <use xlink:href="#rim" fill="#404040">
                                <set attributeName="fill" to="#808080" begin="zoomminus.mouseover" end="zoomminus.mouseout"/>
                        </use>
                        <path d="M-4,0h8" fill="none" stroke="white" stroke-width="1.5" pointer-events="none"/>
                </g>
                <g id="dirArrow">
                        <path fill="none" stroke="white" stroke-width="1.5" d="M0,-3.0v7 M-2.5,-0.5L0,-3.0L2.5,-0.5"/>
                </g>
               <g id="resetDef">
                       <use xlink:href="#rim2" fill="#404040">
                               <set attributeName="fill" to="#808080" begin="reset.mouseover" end="reset.mouseout"/>
                       </use>
               </g>
        </defs>

<script type="text/javascript">
var viewWidth = 1761;
var viewHeight = 543;
var sectionId = 'dynsection-0';
</script>
<script xlink:href="../../svgpan.js"/>
<svg id="graph" class="graph">
<g id="viewport">
<title>src/labs/inlab3/Compute.h</title>
<polygon fill="white" stroke="transparent" points="-4,4 -4,-539 1756.71,-539 1756.71,4 -4,4"/>
<!-- Node1 -->
<g id="node1" class="node">
<title>Node1</title>
<g id="a_node1"><a xlink:title="Compute methods for inlab3 in NE591&#45;008.">
<polygon fill="#bfbfbf" stroke="black" points="1422.21,-515.5 1422.21,-534.5 1565.21,-534.5 1565.21,-515.5 1422.21,-515.5"/>
<text text-anchor="middle" x="1493.71" y="-522.5" font-family="Helvetica,sans-Serif" font-size="10.00">src/labs/inlab3/Compute.h</text>
</a>
</g>
</g>
<!-- Node2 -->
<g id="node2" class="node">
<title>Node2</title>
<g id="a_node2"><a xlink:title=" ">
<polygon fill="white" stroke="#bfbfbf" points="1335.21,-230 1335.21,-249 1382.21,-249 1382.21,-230 1335.21,-230"/>
<text text-anchor="middle" x="1358.71" y="-237" font-family="Helvetica,sans-Serif" font-size="10.00">cmath</text>
</a>
</g>
</g>
<!-- Node1&#45;&gt;Node2 -->
<g id="edge1" class="edge">
<title>Node1&#45;&gt;Node2</title>
<path fill="none" stroke="midnightblue" d="M1522.1,-515.42C1562.23,-501.34 1630.71,-469.21 1630.71,-414 1630.71,-414 1630.71,-414 1630.71,-356 1630.71,-325.9 1633.91,-311.33 1611.71,-291 1580.09,-262.03 1454.21,-248.14 1392.78,-242.98"/>
<polygon fill="midnightblue" stroke="midnightblue" points="1392.7,-239.47 1382.45,-242.15 1392.13,-246.44 1392.7,-239.47"/>
</g>
<!-- Node3 -->
<g id="node3" class="node">
<title>Node3</title>
<g id="a_node3"><a xlink:title=" ">
<polygon fill="white" stroke="#bfbfbf" points="886.71,-112.5 886.71,-131.5 946.71,-131.5 946.71,-112.5 886.71,-112.5"/>
<text text-anchor="middle" x="916.71" y="-119.5" font-family="Helvetica,sans-Serif" font-size="10.00">iostream</text>
</a>
</g>
</g>
<!-- Node1&#45;&gt;Node3 -->
<g id="edge2" class="edge">
<title>Node1&#45;&gt;Node3</title>
<path fill="none" stroke="midnightblue" d="M1421.72,-522.43C1126.19,-515.54 21.71,-485.03 21.71,-414 21.71,-414 21.71,-414 21.71,-238.5 21.71,-211.24 -142.76,-236.76 445.71,-168 466.98,-165.51 766.1,-137.22 876.32,-126.81"/>
<polygon fill="midnightblue" stroke="midnightblue" points="876.75,-130.29 886.38,-125.86 876.09,-123.32 876.75,-130.29"/>
</g>
<!-- Node4 -->
<g id="node4" class="node">
<title>Node4</title>
<g id="a_node4"><a xlink:href="../../d9/d41/CommandLine_8h.html" target="_top" xlink:title="This file contains the definition of the CommandLine class and the HeaderInfo struct.">
<polygon fill="white" stroke="black" points="675.71,-459.5 675.71,-478.5 771.71,-478.5 771.71,-459.5 675.71,-459.5"/>
<text text-anchor="middle" x="723.71" y="-466.5" font-family="Helvetica,sans-Serif" font-size="10.00">CommandLine.h</text>
</a>
</g>
</g>
<!-- Node1&#45;&gt;Node4 -->
<g id="edge3" class="edge">
<title>Node1&#45;&gt;Node4</title>
<path fill="none" stroke="midnightblue" d="M1421.97,-518.97C1270.45,-508.34 920.41,-483.79 781.78,-474.07"/>
<polygon fill="midnightblue" stroke="midnightblue" points="781.99,-470.58 771.77,-473.37 781.5,-477.56 781.99,-470.58"/>
</g>
<!-- Node21 -->
<g id="node21" class="node">
<title>Node21</title>
<g id="a_node21"><a xlink:href="../../d4/d2e/Stopwatch_8h.html" target="_top" xlink:title="This file contains the Stopwatch class which is a utility for measuring time durations in various uni...">
<polygon fill="white" stroke="black" points="1455.21,-347.5 1455.21,-366.5 1532.21,-366.5 1532.21,-347.5 1455.21,-347.5"/>
<text text-anchor="middle" x="1493.71" y="-354.5" font-family="Helvetica,sans-Serif" font-size="10.00">Stopwatch.h</text>
</a>
</g>
</g>
<!-- Node1&#45;&gt;Node21 -->
<g id="edge71" class="edge">
<title>Node1&#45;&gt;Node21</title>
<path fill="none" stroke="midnightblue" d="M1493.71,-515.08C1493.71,-488.95 1493.71,-412.21 1493.71,-376.58"/>
<polygon fill="midnightblue" stroke="midnightblue" points="1497.21,-376.57 1493.71,-366.57 1490.21,-376.57 1497.21,-376.57"/>
</g>
<!-- Node37 -->
<g id="node37" class="node">
<title>Node37</title>
<g id="a_node37"><a xlink:href="../../db/def/labs_2inlab3_2InputsOutputs_8h.html" target="_top" xlink:title="This file contains the input and output definitions for this project. user inputs.">
<polygon fill="white" stroke="black" points="1658.71,-459.5 1658.71,-478.5 1752.71,-478.5 1752.71,-459.5 1658.71,-459.5"/>
<text text-anchor="middle" x="1705.71" y="-466.5" font-family="Helvetica,sans-Serif" font-size="10.00">InputsOutputs.h</text>
</a>
</g>
</g>
<!-- Node1&#45;&gt;Node37 -->
<g id="edge70" class="edge">
<title>Node1&#45;&gt;Node37</title>
<path fill="none" stroke="midnightblue" d="M1527.31,-515.44C1563.9,-506.12 1622.55,-491.18 1662.54,-481"/>
<polygon fill="midnightblue" stroke="midnightblue" points="1663.45,-484.38 1672.28,-478.52 1661.72,-477.59 1663.45,-484.38"/>
</g>
<!-- Node4&#45;&gt;Node3 -->
<g id="edge67" class="edge">
<title>Node4&#45;&gt;Node3</title>
<path fill="none" stroke="midnightblue" d="M724.59,-459.2C727.08,-437.94 735.88,-382.88 762.71,-347 806.2,-288.86 859.28,-316.6 897.71,-255 919.8,-219.59 920.21,-168.61 918.51,-141.53"/>
<polygon fill="midnightblue" stroke="midnightblue" points="921.99,-141.2 917.71,-131.51 915.02,-141.75 921.99,-141.2"/>
</g>
<!-- Node5 -->
<g id="node5" class="node">
<title>Node5</title>
<g id="a_node5"><a xlink:href="../../d2/d0e/CommandlineHelpers_8h.html" target="_top" xlink:title="This file contains helper functions for handling command line options and initializing the profiler.">
<polygon fill="white" stroke="black" points="276.21,-403.5 276.21,-422.5 407.21,-422.5 407.21,-403.5 276.21,-403.5"/>
<text text-anchor="middle" x="341.71" y="-410.5" font-family="Helvetica,sans-Serif" font-size="10.00">CommandlineHelpers.h</text>
</a>
</g>
</g>
<!-- Node4&#45;&gt;Node5 -->
<g id="edge4" class="edge">
<title>Node4&#45;&gt;Node5</title>
<path fill="none" stroke="midnightblue" d="M675.33,-461.16C608.76,-451.75 488.47,-434.75 411.98,-423.93"/>
<polygon fill="midnightblue" stroke="midnightblue" points="412.34,-420.45 401.95,-422.51 411.36,-427.38 412.34,-420.45"/>
</g>
<!-- Node7 -->
<g id="node7" class="node">
<title>Node7</title>
<g id="a_node7"><a xlink:title=" ">
<polygon fill="white" stroke="#bfbfbf" points="49.71,-230 49.71,-249 199.71,-249 199.71,-230 49.71,-230"/>
<text text-anchor="middle" x="124.71" y="-237" font-family="Helvetica,sans-Serif" font-size="10.00">boost/program_options.hpp</text>
</a>
</g>
</g>
<!-- Node4&#45;&gt;Node7 -->
<g id="edge66" class="edge">
<title>Node4&#45;&gt;Node7</title>
<path fill="none" stroke="midnightblue" d="M675.39,-467.99C572.6,-467.22 336.01,-461.2 266.71,-423 197.3,-384.73 150.49,-296.94 132.71,-258.77"/>
<polygon fill="midnightblue" stroke="midnightblue" points="135.78,-257.07 128.47,-249.41 129.41,-259.96 135.78,-257.07"/>
</g>
<!-- Node10 -->
<g id="node10" class="node">
<title>Node10</title>
<g id="a_node10"><a xlink:href="../../db/df1/Helpers_8h.html" target="_top" xlink:title="This file contains helper functions and structures used throughout the program.">
<polygon fill="white" stroke="black" points="613.21,-291.5 613.21,-310.5 676.21,-310.5 676.21,-291.5 613.21,-291.5"/>
<text text-anchor="middle" x="644.71" y="-298.5" font-family="Helvetica,sans-Serif" font-size="10.00">Helpers.h</text>
</a>
</g>
</g>
<!-- Node4&#45;&gt;Node10 -->
<g id="edge24" class="edge">
<title>Node4&#45;&gt;Node10</title>
<path fill="none" stroke="midnightblue" d="M716.12,-459.18C708.88,-450.44 698.03,-436.45 690.71,-423 671.91,-388.41 657.3,-344.51 649.95,-320.23"/>
<polygon fill="midnightblue" stroke="midnightblue" points="653.28,-319.16 647.1,-310.56 646.57,-321.14 653.28,-319.16"/>
</g>
<!-- Node12 -->
<g id="node12" class="node">
<title>Node12</title>
<g id="a_node12"><a xlink:title=" ">
<polygon fill="white" stroke="#bfbfbf" points="844.71,-230 844.71,-249 888.71,-249 888.71,-230 844.71,-230"/>
<text text-anchor="middle" x="866.71" y="-237" font-family="Helvetica,sans-Serif" font-size="10.00">string</text>
</a>
</g>
</g>
<!-- Node4&#45;&gt;Node12 -->
<g id="edge68" class="edge">
<title>Node4&#45;&gt;Node12</title>
<path fill="none" stroke="midnightblue" d="M721.81,-459.49C717.64,-438.88 709.57,-385.15 728.71,-347 751.51,-301.58 803.78,-269.92 837.04,-253.52"/>
<polygon fill="midnightblue" stroke="midnightblue" points="838.77,-256.57 846.29,-249.1 835.76,-250.25 838.77,-256.57"/>
</g>
<!-- Node16 -->
<g id="node16" class="node">
<title>Node16</title>
<g id="a_node16"><a xlink:href="../../df/d69/Profiler_8h.html" target="_top" xlink:title="This file contains the Profiler class which is used to profile the execution time of a function.">
<polygon fill="white" stroke="black" points="880.21,-403.5 880.21,-422.5 939.21,-422.5 939.21,-403.5 880.21,-403.5"/>
<text text-anchor="middle" x="909.71" y="-410.5" font-family="Helvetica,sans-Serif" font-size="10.00">Profiler.h</text>
</a>
</g>
</g>
<!-- Node4&#45;&gt;Node16 -->
<g id="edge25" class="edge">
<title>Node4&#45;&gt;Node16</title>
<path fill="none" stroke="midnightblue" d="M753.19,-459.44C784.89,-450.24 835.45,-435.56 870.49,-425.39"/>
<polygon fill="midnightblue" stroke="midnightblue" points="871.75,-428.67 880.38,-422.52 869.8,-421.94 871.75,-428.67"/>
</g>
<!-- Node20 -->
<g id="node20" class="node">
<title>Node20</title>
<g id="a_node20"><a xlink:title=" ">
<polygon fill="white" stroke="#bfbfbf" points="771.21,-347.5 771.21,-366.5 816.21,-366.5 816.21,-347.5 771.21,-347.5"/>
<text text-anchor="middle" x="793.71" y="-354.5" font-family="Helvetica,sans-Serif" font-size="10.00">utility</text>
</a>
</g>
</g>
<!-- Node4&#45;&gt;Node20 -->
<g id="edge69" class="edge">
<title>Node4&#45;&gt;Node20</title>
<path fill="none" stroke="midnightblue" d="M730.6,-459.25C737.5,-450.33 748.28,-436.01 756.71,-423 766.84,-407.37 777.24,-388.85 784.42,-375.58"/>
<polygon fill="midnightblue" stroke="midnightblue" points="787.6,-377.07 789.23,-366.6 781.42,-373.76 787.6,-377.07"/>
</g>
<!-- Node36 -->
<g id="node36" class="node">
<title>Node36</title>
<g id="a_node36"><a xlink:title=" ">
<polygon fill="white" stroke="#bfbfbf" points="957.71,-403.5 957.71,-422.5 1049.71,-422.5 1049.71,-403.5 957.71,-403.5"/>
<text text-anchor="middle" x="1003.71" y="-410.5" font-family="Helvetica,sans-Serif" font-size="10.00">project&#45;config.h</text>
</a>
</g>
</g>
<!-- Node4&#45;&gt;Node36 -->
<g id="edge65" class="edge">
<title>Node4&#45;&gt;Node36</title>
<path fill="none" stroke="midnightblue" d="M768.08,-459.44C817.34,-449.94 896.84,-434.61 949.68,-424.42"/>
<polygon fill="midnightblue" stroke="midnightblue" points="950.4,-427.85 959.55,-422.52 949.07,-420.97 950.4,-427.85"/>
</g>
<!-- Node6 -->
<g id="node6" class="node">
<title>Node6</title>
<g id="a_node6"><a xlink:href="../../d0/d7d/CheckBounds_8h.html" target="_top" xlink:title="This file contains the declaration of functions for checking the validity of input parameters.">
<polygon fill="white" stroke="black" points="333.71,-347.5 333.71,-366.5 425.71,-366.5 425.71,-347.5 333.71,-347.5"/>
<text text-anchor="middle" x="379.71" y="-354.5" font-family="Helvetica,sans-Serif" font-size="10.00">CheckBounds.h</text>
</a>
</g>
</g>
<!-- Node5&#45;&gt;Node6 -->
<g id="edge5" class="edge">
<title>Node5&#45;&gt;Node6</title>
<path fill="none" stroke="midnightblue" d="M347.99,-403.08C353.36,-395.46 361.23,-384.26 367.79,-374.94"/>
<polygon fill="midnightblue" stroke="midnightblue" points="370.66,-376.94 373.56,-366.75 364.94,-372.91 370.66,-376.94"/>
</g>
<!-- Node5&#45;&gt;Node7 -->
<g id="edge23" class="edge">
<title>Node5&#45;&gt;Node7</title>
<path fill="none" stroke="midnightblue" d="M329.82,-403.27C306.38,-386 252.67,-346.1 208.71,-311 185.53,-292.49 159.44,-270.39 142.58,-255.93"/>
<polygon fill="midnightblue" stroke="midnightblue" points="144.53,-252.99 134.67,-249.12 139.97,-258.3 144.53,-252.99"/>
</g>
<!-- Node13 -->
<g id="node13" class="node">
<title>Node13</title>
<g id="a_node13"><a xlink:title=" ">
<polygon fill="white" stroke="#bfbfbf" points="293.71,-230 293.71,-249 351.71,-249 351.71,-230 293.71,-230"/>
<text text-anchor="middle" x="322.71" y="-237" font-family="Helvetica,sans-Serif" font-size="10.00">json.hpp</text>
</a>
</g>
</g>
<!-- Node5&#45;&gt;Node13 -->
<g id="edge22" class="edge">
<title>Node5&#45;&gt;Node13</title>
<path fill="none" stroke="midnightblue" d="M337.39,-403.3C333.23,-394.42 327.22,-380.13 324.71,-367 317.54,-329.38 319.21,-284.31 321.01,-259.4"/>
<polygon fill="midnightblue" stroke="midnightblue" points="324.51,-259.44 321.83,-249.19 317.54,-258.88 324.51,-259.44"/>
</g>
<!-- Node6&#45;&gt;Node3 -->
<g id="edge7" class="edge">
<title>Node6&#45;&gt;Node3</title>
<path fill="none" stroke="midnightblue" d="M365.18,-347.46C330.26,-325.91 247.25,-267.93 284.71,-224 304.17,-201.19 740.23,-145.03 876.44,-127.98"/>
<polygon fill="midnightblue" stroke="midnightblue" points="876.97,-131.45 886.46,-126.73 876.1,-124.5 876.97,-131.45"/>
</g>
<!-- Node6&#45;&gt;Node4 -->
<g id="edge10" class="edge">
<title>Node6&#45;&gt;Node4</title>
<path fill="none" stroke="midnightblue" d="M406.64,-366.61C467.94,-386.21 617.95,-434.18 687.37,-456.38"/>
<polygon fill="midnightblue" stroke="midnightblue" points="686.42,-459.75 697.01,-459.46 688.55,-453.08 686.42,-459.75"/>
</g>
<!-- Node6&#45;&gt;Node7 -->
<g id="edge6" class="edge">
<title>Node6&#45;&gt;Node7</title>
<path fill="none" stroke="midnightblue" d="M350.96,-347.42C324.66,-339.22 284.91,-325.92 251.71,-311 213.78,-293.95 172.01,-269.61 147.09,-254.44"/>
<polygon fill="midnightblue" stroke="midnightblue" points="148.77,-251.36 138.41,-249.12 145.1,-257.33 148.77,-251.36"/>
</g>
<!-- Node8 -->
<g id="node8" class="node">
<title>Node8</title>
<g id="a_node8"><a xlink:title=" ">
<polygon fill="white" stroke="#bfbfbf" points="755.71,-112.5 755.71,-131.5 811.71,-131.5 811.71,-112.5 755.71,-112.5"/>
<text text-anchor="middle" x="783.71" y="-119.5" font-family="Helvetica,sans-Serif" font-size="10.00">iomanip</text>
</a>
</g>
</g>
<!-- Node6&#45;&gt;Node8 -->
<g id="edge8" class="edge">
<title>Node6&#45;&gt;Node8</title>
<path fill="none" stroke="midnightblue" d="M365.03,-347.39C330.23,-325.93 248.25,-268.59 284.71,-224 343.2,-152.49 638.89,-130.42 745.4,-124.73"/>
<polygon fill="midnightblue" stroke="midnightblue" points="745.59,-128.22 755.4,-124.21 745.23,-121.23 745.59,-128.22"/>
</g>
<!-- Node9 -->
<g id="node9" class="node">
<title>Node9</title>
<g id="a_node9"><a xlink:title=" ">
<polygon fill="white" stroke="#bfbfbf" points="369.71,-230 369.71,-249 413.71,-249 413.71,-230 369.71,-230"/>
<text text-anchor="middle" x="391.71" y="-237" font-family="Helvetica,sans-Serif" font-size="10.00">limits</text>
</a>
</g>
</g>
<!-- Node6&#45;&gt;Node9 -->
<g id="edge9" class="edge">
<title>Node6&#45;&gt;Node9</title>
<path fill="none" stroke="midnightblue" d="M383.31,-347.22C386.77,-338.28 391.75,-323.94 393.71,-311 396.36,-293.62 395.4,-273.55 394.06,-259.28"/>
<polygon fill="midnightblue" stroke="midnightblue" points="397.53,-258.8 392.96,-249.24 390.57,-259.57 397.53,-258.8"/>
</g>
<!-- Node6&#45;&gt;Node10 -->
<g id="edge11" class="edge">
<title>Node6&#45;&gt;Node10</title>
<path fill="none" stroke="midnightblue" d="M421.7,-347.44C471.3,-337.34 553.3,-320.63 602.85,-310.53"/>
<polygon fill="midnightblue" stroke="midnightblue" points="603.8,-313.91 612.9,-308.48 602.4,-307.05 603.8,-313.91"/>
</g>
<!-- Node6&#45;&gt;Node13 -->
<g id="edge21" class="edge">
<title>Node6&#45;&gt;Node13</title>
<path fill="none" stroke="midnightblue" d="M377.2,-347.33C373.36,-334.62 365.45,-310.34 355.71,-291 349.79,-279.23 341.72,-266.83 335.04,-257.27"/>
<polygon fill="midnightblue" stroke="midnightblue" points="337.85,-255.17 329.18,-249.08 332.16,-259.25 337.85,-255.17"/>
</g>
<!-- Node10&#45;&gt;Node3 -->
<g id="edge13" class="edge">
<title>Node10&#45;&gt;Node3</title>
<path fill="none" stroke="midnightblue" d="M612.85,-293.27C561.45,-282.27 465.46,-261.05 460.71,-255 452.21,-244.16 451.43,-234.18 460.71,-224 519.99,-159.06 775.55,-226.25 854.71,-188 876.58,-177.44 894.78,-155.68 905.69,-140.25"/>
<polygon fill="midnightblue" stroke="midnightblue" points="908.82,-141.87 911.5,-131.62 903.01,-137.96 908.82,-141.87"/>
</g>
<!-- Node10&#45;&gt;Node7 -->
<g id="edge18" class="edge">
<title>Node10&#45;&gt;Node7</title>
<path fill="none" stroke="midnightblue" d="M612.97,-296.37C534.01,-287.33 326.69,-263.61 209.17,-250.16"/>
<polygon fill="midnightblue" stroke="midnightblue" points="209.46,-246.67 199.13,-249.01 208.66,-253.63 209.46,-246.67"/>
</g>
<!-- Node10&#45;&gt;Node8 -->
<g id="edge12" class="edge">
<title>Node10&#45;&gt;Node8</title>
<path fill="none" stroke="midnightblue" d="M676.26,-292.84C718.85,-282.87 790.31,-264.89 797.71,-255 805.97,-243.97 799.4,-237.67 797.71,-224 795.7,-207.63 791.36,-204.28 788.71,-188 786.22,-172.62 784.96,-154.98 784.33,-141.97"/>
<polygon fill="midnightblue" stroke="midnightblue" points="787.83,-141.74 783.92,-131.89 780.83,-142.02 787.83,-141.74"/>
</g>
<!-- Node10&#45;&gt;Node9 -->
<g id="edge14" class="edge">
<title>Node10&#45;&gt;Node9</title>
<path fill="none" stroke="midnightblue" d="M612.81,-293.71C556.85,-282.63 445.25,-260.3 427.71,-255 425.43,-254.31 423.09,-253.53 420.75,-252.7"/>
<polygon fill="midnightblue" stroke="midnightblue" points="421.88,-249.39 411.29,-249.12 419.4,-255.94 421.88,-249.39"/>
</g>
<!-- Node11 -->
<g id="node11" class="node">
<title>Node11</title>
<g id="a_node11"><a xlink:title=" ">
<polygon fill="white" stroke="#bfbfbf" points="732.71,-230 732.71,-249 788.71,-249 788.71,-230 732.71,-230"/>
<text text-anchor="middle" x="760.71" y="-237" font-family="Helvetica,sans-Serif" font-size="10.00">sstream</text>
</a>
</g>
</g>
<!-- Node10&#45;&gt;Node11 -->
<g id="edge15" class="edge">
<title>Node10&#45;&gt;Node11</title>
<path fill="none" stroke="midnightblue" d="M661.33,-291.48C680.63,-281.58 712.67,-265.14 735.14,-253.62"/>
<polygon fill="midnightblue" stroke="midnightblue" points="736.82,-256.69 744.12,-249.01 733.63,-250.46 736.82,-256.69"/>
</g>
<!-- Node10&#45;&gt;Node12 -->
<g id="edge16" class="edge">
<title>Node10&#45;&gt;Node12</title>
<path fill="none" stroke="midnightblue" d="M676.36,-293.81C713.69,-286.17 777.4,-272.08 830.71,-255 832.99,-254.27 835.32,-253.47 837.66,-252.62"/>
<polygon fill="midnightblue" stroke="midnightblue" points="839.01,-255.85 847.1,-249 836.51,-249.31 839.01,-255.85"/>
</g>
<!-- Node10&#45;&gt;Node13 -->
<g id="edge17" class="edge">
<title>Node10&#45;&gt;Node13</title>
<path fill="none" stroke="midnightblue" d="M613.07,-293.62C608.27,-292.71 603.36,-291.81 598.71,-291 493.31,-272.72 464.17,-282.23 360.71,-255 358.05,-254.3 355.32,-253.48 352.6,-252.58"/>
<polygon fill="midnightblue" stroke="midnightblue" points="353.56,-249.21 342.96,-249.15 351.2,-255.8 353.56,-249.21"/>
</g>
<!-- Node14 -->
<g id="node14" class="node">
<title>Node14</title>
<g id="a_node14"><a xlink:title=" ">
<polygon fill="white" stroke="#bfbfbf" points="470.21,-224.5 470.21,-254.5 583.21,-254.5 583.21,-224.5 470.21,-224.5"/>
<text text-anchor="start" x="478.21" y="-242.5" font-family="Helvetica,sans-Serif" font-size="10.00">boost/accumulators</text>
<text text-anchor="middle" x="526.71" y="-231.5" font-family="Helvetica,sans-Serif" font-size="10.00">/accumulators.hpp</text>
</a>
</g>
</g>
<!-- Node10&#45;&gt;Node14 -->
<g id="edge19" class="edge">
<title>Node10&#45;&gt;Node14</title>
<path fill="none" stroke="midnightblue" d="M627.81,-291.48C611.15,-283.08 585.16,-269.97 563.71,-259.15"/>
<polygon fill="midnightblue" stroke="midnightblue" points="565.03,-255.9 554.52,-254.52 561.88,-262.15 565.03,-255.9"/>
</g>
<!-- Node15 -->
<g id="node15" class="node">
<title>Node15</title>
<g id="a_node15"><a xlink:title=" ">
<polygon fill="white" stroke="#bfbfbf" points="601.21,-224.5 601.21,-254.5 714.21,-254.5 714.21,-224.5 601.21,-224.5"/>
<text text-anchor="start" x="609.21" y="-242.5" font-family="Helvetica,sans-Serif" font-size="10.00">boost/accumulators</text>
<text text-anchor="middle" x="657.71" y="-231.5" font-family="Helvetica,sans-Serif" font-size="10.00">/statistics.hpp</text>
</a>
</g>
</g>
<!-- Node10&#45;&gt;Node15 -->
<g id="edge20" class="edge">
<title>Node10&#45;&gt;Node15</title>
<path fill="none" stroke="midnightblue" d="M646.58,-291.48C648.12,-284.4 650.4,-273.97 652.49,-264.39"/>
<polygon fill="midnightblue" stroke="midnightblue" points="655.93,-265.04 654.65,-254.52 649.1,-263.55 655.93,-265.04"/>
</g>
<!-- Node16&#45;&gt;Node3 -->
<g id="edge29" class="edge">
<title>Node16&#45;&gt;Node3</title>
<path fill="none" stroke="midnightblue" d="M907.08,-403.15C903.71,-390.61 898.64,-367 901.71,-347 908.23,-304.63 924.19,-297.37 930.71,-255 936.59,-216.78 936.52,-206.23 930.71,-168 929.35,-159 926.52,-149.33 923.77,-141.26"/>
<polygon fill="midnightblue" stroke="midnightblue" points="927.03,-139.98 920.31,-131.78 920.45,-142.37 927.03,-139.98"/>
</g>
<!-- Node16&#45;&gt;Node6 -->
<g id="edge32" class="edge">
<title>Node16&#45;&gt;Node6</title>
<path fill="none" stroke="midnightblue" d="M880.08,-408.98C794.78,-400.29 547.62,-375.11 435.82,-363.72"/>
<polygon fill="midnightblue" stroke="midnightblue" points="436.05,-360.22 425.75,-362.69 435.34,-367.19 436.05,-360.22"/>
</g>
<!-- Node16&#45;&gt;Node8 -->
<g id="edge28" class="edge">
<title>Node16&#45;&gt;Node8</title>
<path fill="none" stroke="midnightblue" d="M931.2,-403.36C946.11,-396.09 964.82,-384.12 973.71,-367 977.81,-359.11 976.14,-355.55 973.71,-347 946.15,-249.94 847.69,-169.1 804.39,-137.39"/>
<polygon fill="midnightblue" stroke="midnightblue" points="806.43,-134.55 796.27,-131.55 802.34,-140.23 806.43,-134.55"/>
</g>
<!-- Node16&#45;&gt;Node13 -->
<g id="edge35" class="edge">
<title>Node16&#45;&gt;Node13</title>
<path fill="none" stroke="midnightblue" d="M901.36,-403.14C887.26,-388.78 857.17,-360.66 825.71,-347 734.03,-307.19 701.8,-330.23 603.71,-311 494.95,-289.67 466.74,-287.28 360.71,-255 358.14,-254.22 355.5,-253.35 352.85,-252.43"/>
<polygon fill="midnightblue" stroke="midnightblue" points="354.03,-249.14 343.44,-249 351.64,-255.71 354.03,-249.14"/>
</g>
<!-- Node17 -->
<g id="node17" class="node">
<title>Node17</title>
<g id="a_node17"><a xlink:title=" ">
<polygon fill="white" stroke="#bfbfbf" points="1059.21,-347.5 1059.21,-366.5 1114.21,-366.5 1114.21,-347.5 1059.21,-347.5"/>
<text text-anchor="middle" x="1086.71" y="-354.5" font-family="Helvetica,sans-Serif" font-size="10.00">fstream</text>
</a>
</g>
</g>
<!-- Node16&#45;&gt;Node17 -->
<g id="edge26" class="edge">
<title>Node16&#45;&gt;Node17</title>
<path fill="none" stroke="midnightblue" d="M937.76,-403.44C967.88,-394.25 1015.91,-379.6 1049.25,-369.43"/>
<polygon fill="midnightblue" stroke="midnightblue" points="1050.55,-372.69 1059.09,-366.43 1048.5,-366 1050.55,-372.69"/>
</g>
<!-- Node18 -->
<g id="node18" class="node">
<title>Node18</title>
<g id="a_node18"><a xlink:title=" ">
<polygon fill="white" stroke="#bfbfbf" points="1219.21,-56.5 1219.21,-75.5 1284.21,-75.5 1284.21,-56.5 1219.21,-56.5"/>
<text text-anchor="middle" x="1251.71" y="-63.5" font-family="Helvetica,sans-Serif" font-size="10.00">functional</text>
</a>
</g>
</g>
<!-- Node16&#45;&gt;Node18 -->
<g id="edge27" class="edge">
<title>Node16&#45;&gt;Node18</title>
<path fill="none" stroke="midnightblue" d="M932.47,-403.43C967.52,-388.58 1030.71,-354.52 1030.71,-302 1030.71,-302 1030.71,-302 1030.71,-177 1030.71,-98.24 1144.6,-75.87 1208.86,-69.52"/>
<polygon fill="midnightblue" stroke="midnightblue" points="1209.46,-72.98 1219.1,-68.6 1208.83,-66.01 1209.46,-72.98"/>
</g>
<!-- Node19 -->
<g id="node19" class="node">
<title>Node19</title>
<g id="a_node19"><a xlink:title=" ">
<polygon fill="white" stroke="#bfbfbf" points="910.71,-347.5 910.71,-366.5 964.71,-366.5 964.71,-347.5 910.71,-347.5"/>
<text text-anchor="middle" x="937.71" y="-354.5" font-family="Helvetica,sans-Serif" font-size="10.00">random</text>
</a>
</g>
</g>
<!-- Node16&#45;&gt;Node19 -->
<g id="edge30" class="edge">
<title>Node16&#45;&gt;Node19</title>
<path fill="none" stroke="midnightblue" d="M914.34,-403.08C918.17,-395.69 923.74,-384.95 928.48,-375.81"/>
<polygon fill="midnightblue" stroke="midnightblue" points="931.68,-377.24 933.18,-366.75 925.47,-374.02 931.68,-377.24"/>
</g>
<!-- Node16&#45;&gt;Node20 -->
<g id="edge31" class="edge">
<title>Node16&#45;&gt;Node20</title>
<path fill="none" stroke="midnightblue" d="M891.33,-403.44C872.5,-394.68 842.98,-380.94 821.33,-370.86"/>
<polygon fill="midnightblue" stroke="midnightblue" points="822.55,-367.56 812.01,-366.52 819.6,-373.91 822.55,-367.56"/>
</g>
<!-- Node16&#45;&gt;Node21 -->
<g id="edge33" class="edge">
<title>Node16&#45;&gt;Node21</title>
<path fill="none" stroke="midnightblue" d="M939.44,-404.67C942.56,-404.05 945.69,-403.47 948.71,-403 973.03,-399.21 1315.61,-372.03 1444.84,-361.84"/>
<polygon fill="midnightblue" stroke="midnightblue" points="1445.17,-365.33 1454.86,-361.05 1444.62,-358.35 1445.17,-365.33"/>
</g>
<!-- Node23 -->
<g id="node23" class="node">
<title>Node23</title>
<g id="a_node23"><a xlink:href="../../dc/d09/Stats_8h.html" target="_top" xlink:title="This file contains the declaration of statistical functions and structures for vectors and matrices.">
<polygon fill="white" stroke="black" points="1265.71,-347.5 1265.71,-366.5 1367.71,-366.5 1367.71,-347.5 1265.71,-347.5"/>
<text text-anchor="middle" x="1316.71" y="-354.5" font-family="Helvetica,sans-Serif" font-size="10.00">math/blas/Stats.h</text>
</a>
</g>
</g>
<!-- Node16&#45;&gt;Node23 -->
<g id="edge36" class="edge">
<title>Node16&#45;&gt;Node23</title>
<path fill="none" stroke="midnightblue" d="M939.46,-404.8C942.57,-404.14 945.7,-403.53 948.71,-403 1056.03,-384.11 1182.33,-370.53 1255.59,-363.49"/>
<polygon fill="midnightblue" stroke="midnightblue" points="1255.94,-366.97 1265.57,-362.54 1255.28,-360 1255.94,-366.97"/>
</g>
<!-- Node22 -->
<g id="node22" class="node">
<title>Node22</title>
<g id="a_node22"><a xlink:title=" ">
<polygon fill="white" stroke="#bfbfbf" points="1552.71,-291.5 1552.71,-310.5 1602.71,-310.5 1602.71,-291.5 1552.71,-291.5"/>
<text text-anchor="middle" x="1577.71" y="-298.5" font-family="Helvetica,sans-Serif" font-size="10.00">chrono</text>
</a>
</g>
</g>
<!-- Node21&#45;&gt;Node22 -->
<g id="edge34" class="edge">
<title>Node21&#45;&gt;Node22</title>
<path fill="none" stroke="midnightblue" d="M1507.21,-347.32C1520.31,-338.9 1540.43,-325.97 1555.82,-316.07"/>
<polygon fill="midnightblue" stroke="midnightblue" points="1557.73,-319.01 1564.25,-310.65 1553.95,-313.12 1557.73,-319.01"/>
</g>
<!-- Node23&#45;&gt;Node2 -->
<g id="edge38" class="edge">
<title>Node23&#45;&gt;Node2</title>
<path fill="none" stroke="midnightblue" d="M1305.41,-347.22C1290.84,-334.78 1268.61,-311.27 1279.71,-291 1289.54,-273.05 1308.77,-260.55 1325.8,-252.48"/>
<polygon fill="midnightblue" stroke="midnightblue" points="1327.21,-255.68 1334.95,-248.44 1324.39,-249.27 1327.21,-255.68"/>
</g>
<!-- Node24 -->
<g id="node24" class="node">
<title>Node24</title>
<g id="a_node24"><a xlink:title=" ">
<polygon fill="white" stroke="#bfbfbf" points="1302.71,-56.5 1302.71,-75.5 1366.71,-75.5 1366.71,-56.5 1302.71,-56.5"/>
<text text-anchor="middle" x="1334.71" y="-63.5" font-family="Helvetica,sans-Serif" font-size="10.00">algorithm</text>
</a>
</g>
</g>
<!-- Node23&#45;&gt;Node24 -->
<g id="edge37" class="edge">
<title>Node23&#45;&gt;Node24</title>
<path fill="none" stroke="midnightblue" d="M1367.86,-350.03C1429.45,-339.66 1524.71,-312.06 1524.71,-240.5 1524.71,-240.5 1524.71,-240.5 1524.71,-177 1524.71,-146.36 1524.2,-132.82 1501.71,-112 1497.02,-107.66 1424.6,-89.16 1376.68,-77.28"/>
<polygon fill="midnightblue" stroke="midnightblue" points="1377.41,-73.85 1366.86,-74.85 1375.73,-80.65 1377.41,-73.85"/>
</g>
<!-- Node25 -->
<g id="node25" class="node">
<title>Node25</title>
<g id="a_node25"><a xlink:title=" ">
<polygon fill="white" stroke="#bfbfbf" points="1288.71,-291.5 1288.71,-310.5 1344.71,-310.5 1344.71,-291.5 1288.71,-291.5"/>
<text text-anchor="middle" x="1316.71" y="-298.5" font-family="Helvetica,sans-Serif" font-size="10.00">numeric</text>
</a>
</g>
</g>
<!-- Node23&#45;&gt;Node25 -->
<g id="edge39" class="edge">
<title>Node23&#45;&gt;Node25</title>
<path fill="none" stroke="midnightblue" d="M1316.71,-347.08C1316.71,-340.01 1316.71,-329.86 1316.71,-320.99"/>
<polygon fill="midnightblue" stroke="midnightblue" points="1320.21,-320.75 1316.71,-310.75 1313.21,-320.75 1320.21,-320.75"/>
</g>
<!-- Node26 -->
<g id="node26" class="node">
<title>Node26</title>
<g id="a_node26"><a xlink:title=" ">
<polygon fill="white" stroke="#bfbfbf" points="1363.21,-291.5 1363.21,-310.5 1420.21,-310.5 1420.21,-291.5 1363.21,-291.5"/>
<text text-anchor="middle" x="1391.71" y="-298.5" font-family="Helvetica,sans-Serif" font-size="10.00">ostream</text>
</a>
</g>
</g>
<!-- Node23&#45;&gt;Node26 -->
<g id="edge40" class="edge">
<title>Node23&#45;&gt;Node26</title>
<path fill="none" stroke="midnightblue" d="M1328.76,-347.32C1340.18,-339.11 1357.54,-326.6 1371.15,-316.81"/>
<polygon fill="midnightblue" stroke="midnightblue" points="1373.37,-319.52 1379.44,-310.83 1369.28,-313.84 1373.37,-319.52"/>
</g>
<!-- Node27 -->
<g id="node27" class="node">
<title>Node27</title>
<g id="a_node27"><a xlink:title=" ">
<polygon fill="white" stroke="#bfbfbf" points="1445.21,-112.5 1445.21,-131.5 1492.21,-131.5 1492.21,-112.5 1445.21,-112.5"/>
<text text-anchor="middle" x="1468.71" y="-119.5" font-family="Helvetica,sans-Serif" font-size="10.00">vector</text>
</a>
</g>
</g>
<!-- Node23&#45;&gt;Node27 -->
<g id="edge41" class="edge">
<title>Node23&#45;&gt;Node27</title>
<path fill="none" stroke="midnightblue" d="M1368,-351.25C1395.57,-345.9 1427.71,-334.64 1446.71,-311 1486.65,-261.31 1478.69,-178.96 1472.5,-141.99"/>
<polygon fill="midnightblue" stroke="midnightblue" points="1475.85,-140.89 1470.61,-131.68 1468.97,-142.15 1475.85,-140.89"/>
</g>
<!-- Node28 -->
<g id="node28" class="node">
<title>Node28</title>
<g id="a_node28"><a xlink:href="../../d1/d80/BLAS_8h.html" target="_top" xlink:title=" ">
<polygon fill="white" stroke="black" points="1181.21,-291.5 1181.21,-310.5 1232.21,-310.5 1232.21,-291.5 1181.21,-291.5"/>
<text text-anchor="middle" x="1206.71" y="-298.5" font-family="Helvetica,sans-Serif" font-size="10.00">BLAS.h</text>
</a>
</g>
</g>
<!-- Node23&#45;&gt;Node28 -->
<g id="edge42" class="edge">
<title>Node23&#45;&gt;Node28</title>
<path fill="none" stroke="midnightblue" d="M1299.04,-347.32C1281.32,-338.62 1253.81,-325.12 1233.43,-315.11"/>
<polygon fill="midnightblue" stroke="midnightblue" points="1234.86,-311.92 1224.34,-310.65 1231.78,-318.2 1234.86,-311.92"/>
</g>
<!-- Node29 -->
<g id="node29" class="node">
<title>Node29</title>
<g id="a_node29"><a xlink:href="../../d3/db1/Matrix_8h.html" target="_top" xlink:title="This file contains my BLAS::Matrix declarations.">
<polygon fill="white" stroke="black" points="1134.71,-230 1134.71,-249 1278.71,-249 1278.71,-230 1134.71,-230"/>
<text text-anchor="middle" x="1206.71" y="-237" font-family="Helvetica,sans-Serif" font-size="10.00">math/blas/matrix/Matrix.h</text>
</a>
</g>
</g>
<!-- Node23&#45;&gt;Node29 -->
<g id="edge63" class="edge">
<title>Node23&#45;&gt;Node29</title>
<path fill="none" stroke="midnightblue" d="M1265.36,-354.53C1233.14,-350.61 1193.81,-339.7 1172.71,-311 1160.22,-294 1175.38,-271.69 1189.25,-256.77"/>
<polygon fill="midnightblue" stroke="midnightblue" points="1192.09,-258.88 1196.64,-249.31 1187.12,-253.95 1192.09,-258.88"/>
</g>
<!-- Node32 -->
<g id="node32" class="node">
<title>Node32</title>
<g id="a_node32"><a xlink:href="../../d6/dbe/Vector_8h.html" target="_top" xlink:title="This file contains my BLAS::Vector implementation.">
<polygon fill="white" stroke="black" points="1279.21,-168.5 1279.21,-187.5 1420.21,-187.5 1420.21,-168.5 1279.21,-168.5"/>
<text text-anchor="middle" x="1349.71" y="-175.5" font-family="Helvetica,sans-Serif" font-size="10.00">math/blas/vector/Vector.h</text>
</a>
</g>
</g>
<!-- Node23&#45;&gt;Node32 -->
<g id="edge64" class="edge">
<title>Node23&#45;&gt;Node32</title>
<path fill="none" stroke="midnightblue" d="M1367.92,-348.77C1390.84,-342.7 1415.79,-331.54 1429.71,-311 1457.76,-269.64 1402.5,-218.5 1370.42,-193.77"/>
<polygon fill="midnightblue" stroke="midnightblue" points="1372.18,-190.71 1362.07,-187.53 1367.98,-196.32 1372.18,-190.71"/>
</g>
<!-- Node28&#45;&gt;Node2 -->
<g id="edge43" class="edge">
<title>Node28&#45;&gt;Node2</title>
<path fill="none" stroke="midnightblue" d="M1228.49,-291.48C1254.45,-281.31 1298.03,-264.26 1327.55,-252.7"/>
<polygon fill="midnightblue" stroke="midnightblue" points="1328.94,-255.91 1336.98,-249.01 1326.39,-249.4 1328.94,-255.91"/>
</g>
<!-- Node28&#45;&gt;Node29 -->
<g id="edge44" class="edge">
<title>Node28&#45;&gt;Node29</title>
<path fill="none" stroke="midnightblue" d="M1206.71,-291.48C1206.71,-283.08 1206.71,-269.98 1206.71,-259.16"/>
<polygon fill="midnightblue" stroke="midnightblue" points="1210.21,-259.01 1206.71,-249.01 1203.21,-259.01 1210.21,-259.01"/>
</g>
<!-- Node28&#45;&gt;Node32 -->
<g id="edge62" class="edge">
<title>Node28&#45;&gt;Node32</title>
<path fill="none" stroke="midnightblue" d="M1227.01,-291.37C1244.25,-283.44 1269.08,-270.59 1287.71,-255 1308.24,-237.83 1326.93,-213.1 1338.3,-196.56"/>
<polygon fill="midnightblue" stroke="midnightblue" points="1341.45,-198.15 1344.11,-187.89 1335.64,-194.25 1341.45,-198.15"/>
</g>
<!-- Node29&#45;&gt;Node3 -->
<g id="edge47" class="edge">
<title>Node29&#45;&gt;Node3</title>
<path fill="none" stroke="midnightblue" d="M1175.86,-230C1143.86,-220.85 1092.61,-205.28 1049.71,-188 1010.86,-172.35 967.57,-150.28 941.24,-136.31"/>
<polygon fill="midnightblue" stroke="midnightblue" points="942.82,-133.18 932.35,-131.56 939.52,-139.36 942.82,-133.18"/>
</g>
<!-- Node29&#45;&gt;Node24 -->
<g id="edge45" class="edge">
<title>Node29&#45;&gt;Node24</title>
<path fill="none" stroke="midnightblue" d="M1205.87,-229.7C1204.23,-207.37 1202.96,-147.77 1231.71,-112 1240.55,-101.01 1272.24,-88.08 1298.16,-78.91"/>
<polygon fill="midnightblue" stroke="midnightblue" points="1299.45,-82.17 1307.76,-75.59 1297.16,-75.56 1299.45,-82.17"/>
</g>
<!-- Node29&#45;&gt;Node27 -->
<g id="edge48" class="edge">
<title>Node29&#45;&gt;Node27</title>
<path fill="none" stroke="midnightblue" d="M1269.1,-229.97C1325.82,-221.22 1404.39,-206.33 1429.71,-188 1445.67,-176.45 1456.3,-156.19 1462.38,-141.35"/>
<polygon fill="midnightblue" stroke="midnightblue" points="1465.76,-142.29 1466.01,-131.7 1459.21,-139.83 1465.76,-142.29"/>
</g>
<!-- Node30 -->
<g id="node30" class="node">
<title>Node30</title>
<g id="a_node30"><a xlink:title=" ">
<polygon fill="white" stroke="#bfbfbf" points="1240.71,-112.5 1240.71,-131.5 1292.71,-131.5 1292.71,-112.5 1240.71,-112.5"/>
<text text-anchor="middle" x="1266.71" y="-119.5" font-family="Helvetica,sans-Serif" font-size="10.00">cassert</text>
</a>
</g>
</g>
<!-- Node29&#45;&gt;Node30 -->
<g id="edge46" class="edge">
<title>Node29&#45;&gt;Node30</title>
<path fill="none" stroke="midnightblue" d="M1211.22,-229.82C1221,-211.01 1244.3,-166.15 1257.39,-140.96"/>
<polygon fill="midnightblue" stroke="midnightblue" points="1260.65,-142.27 1262.15,-131.78 1254.44,-139.04 1260.65,-142.27"/>
</g>
<!-- Node31 -->
<g id="node31" class="node">
<title>Node31</title>
<g id="a_node31"><a xlink:href="../../d1/d45/Constants_8h.html" target="_top" xlink:title="MyBLAS Constants definition.">
<polygon fill="white" stroke="black" points="1058.71,-168.5 1058.71,-187.5 1184.71,-187.5 1184.71,-168.5 1058.71,-168.5"/>
<text text-anchor="middle" x="1121.71" y="-175.5" font-family="Helvetica,sans-Serif" font-size="10.00">math/blas/Constants.h</text>
</a>
</g>
</g>
<!-- Node29&#45;&gt;Node31 -->
<g id="edge49" class="edge">
<title>Node29&#45;&gt;Node31</title>
<path fill="none" stroke="midnightblue" d="M1194.54,-229.98C1180.9,-220.43 1158.58,-204.81 1142.24,-193.37"/>
<polygon fill="midnightblue" stroke="midnightblue" points="1144.07,-190.38 1133.87,-187.51 1140.05,-196.11 1144.07,-190.38"/>
</g>
<!-- Node29&#45;&gt;Node32 -->
<g id="edge50" class="edge">
<title>Node29&#45;&gt;Node32</title>
<path fill="none" stroke="midnightblue" d="M1227.2,-229.98C1251.52,-219.86 1292.26,-202.9 1320.03,-191.35"/>
<polygon fill="midnightblue" stroke="midnightblue" points="1321.38,-194.58 1329.26,-187.51 1318.69,-188.12 1321.38,-194.58"/>
</g>
<!-- Node32&#45;&gt;Node3 -->
<g id="edge60" class="edge">
<title>Node32&#45;&gt;Node3</title>
<path fill="none" stroke="midnightblue" d="M1281.1,-168.44C1189.85,-157.06 1031.44,-137.31 957.25,-128.05"/>
<polygon fill="midnightblue" stroke="midnightblue" points="957.28,-124.53 946.93,-126.77 956.42,-131.48 957.28,-124.53"/>
</g>
<!-- Node32&#45;&gt;Node8 -->
<g id="edge59" class="edge">
<title>Node32&#45;&gt;Node8</title>
<path fill="none" stroke="midnightblue" d="M1278.94,-170.26C1186.63,-161.47 1020.09,-145.6 877.71,-132 859.47,-130.26 839.23,-128.32 822.22,-126.69"/>
<polygon fill="midnightblue" stroke="midnightblue" points="822.38,-123.19 812.1,-125.72 821.72,-130.16 822.38,-123.19"/>
</g>
<!-- Node32&#45;&gt;Node18 -->
<g id="edge58" class="edge">
<title>Node32&#45;&gt;Node18</title>
<path fill="none" stroke="midnightblue" d="M1344.02,-168.16C1335.52,-155.24 1318.68,-130.7 1301.71,-112 1292.12,-101.43 1280.29,-90.7 1270.55,-82.37"/>
<polygon fill="midnightblue" stroke="midnightblue" points="1272.54,-79.47 1262.63,-75.73 1268.05,-84.84 1272.54,-79.47"/>
</g>
<!-- Node32&#45;&gt;Node27 -->
<g id="edge61" class="edge">
<title>Node32&#45;&gt;Node27</title>
<path fill="none" stroke="midnightblue" d="M1368.57,-168.44C1387.98,-159.64 1418.44,-145.81 1440.68,-135.72"/>
<polygon fill="midnightblue" stroke="midnightblue" points="1442.29,-138.84 1449.95,-131.52 1439.39,-132.46 1442.29,-138.84"/>
</g>
<!-- Node32&#45;&gt;Node30 -->
<g id="edge57" class="edge">
<title>Node32&#45;&gt;Node30</title>
<path fill="none" stroke="midnightblue" d="M1336.38,-168.32C1323.55,-159.98 1303.93,-147.21 1288.77,-137.35"/>
<polygon fill="midnightblue" stroke="midnightblue" points="1290.31,-134.17 1280.02,-131.65 1286.49,-140.04 1290.31,-134.17"/>
</g>
<!-- Node33 -->
<g id="node33" class="node">
<title>Node33</title>
<g id="a_node33"><a xlink:href="../../de/dcb/LazyVector_8h.html" target="_top" xlink:title="TODO:: DOCUMENT.">
<polygon fill="white" stroke="black" points="1348.71,-112.5 1348.71,-131.5 1426.71,-131.5 1426.71,-112.5 1348.71,-112.5"/>
<text text-anchor="middle" x="1387.71" y="-119.5" font-family="Helvetica,sans-Serif" font-size="10.00">LazyVector.h</text>
</a>
</g>
</g>
<!-- Node32&#45;&gt;Node33 -->
<g id="edge51" class="edge">
<title>Node32&#45;&gt;Node33</title>
<path fill="none" stroke="midnightblue" d="M1355.99,-168.08C1361.36,-160.46 1369.23,-149.26 1375.79,-139.94"/>
<polygon fill="midnightblue" stroke="midnightblue" points="1378.66,-141.94 1381.56,-131.75 1372.94,-137.91 1378.66,-141.94"/>
</g>
<!-- Node33&#45;&gt;Node18 -->
<g id="edge54" class="edge">
<title>Node33&#45;&gt;Node18</title>
<path fill="none" stroke="midnightblue" d="M1366.16,-112.44C1343.68,-103.52 1308.23,-89.44 1282.73,-79.32"/>
<polygon fill="midnightblue" stroke="midnightblue" points="1283.75,-75.95 1273.16,-75.52 1281.17,-82.46 1283.75,-75.95"/>
</g>
<!-- Node33&#45;&gt;Node24 -->
<g id="edge52" class="edge">
<title>Node33&#45;&gt;Node24</title>
<path fill="none" stroke="midnightblue" d="M1378.96,-112.08C1371.24,-104.22 1359.81,-92.57 1350.5,-83.08"/>
<polygon fill="midnightblue" stroke="midnightblue" points="1352.81,-80.44 1343.3,-75.75 1347.81,-85.34 1352.81,-80.44"/>
</g>
<!-- Node34 -->
<g id="node34" class="node">
<title>Node34</title>
<g id="a_node34"><a xlink:title=" ">
<polygon fill="white" stroke="#bfbfbf" points="1454.21,-0.5 1454.21,-19.5 1507.21,-19.5 1507.21,-0.5 1454.21,-0.5"/>
<text text-anchor="middle" x="1480.71" y="-7.5" font-family="Helvetica,sans-Serif" font-size="10.00">cstddef</text>
</a>
</g>
</g>
<!-- Node33&#45;&gt;Node34 -->
<g id="edge53" class="edge">
<title>Node33&#45;&gt;Node34</title>
<path fill="none" stroke="midnightblue" d="M1421.46,-112.46C1452.15,-103.92 1494.07,-90.08 1503.71,-76 1513.81,-61.25 1504.31,-41.6 1494.63,-27.78"/>
<polygon fill="midnightblue" stroke="midnightblue" points="1497.29,-25.49 1488.45,-19.65 1491.72,-29.73 1497.29,-25.49"/>
</g>
<!-- Node35 -->
<g id="node35" class="node">
<title>Node35</title>
<g id="a_node35"><a xlink:href="../../d6/d9f/VectorExpression_8h.html" target="_top" xlink:title="TODO:: DOCUMENT.">
<polygon fill="white" stroke="black" points="1384.71,-56.5 1384.71,-75.5 1494.71,-75.5 1494.71,-56.5 1384.71,-56.5"/>
<text text-anchor="middle" x="1439.71" y="-63.5" font-family="Helvetica,sans-Serif" font-size="10.00">VectorExpression.h</text>
</a>
</g>
</g>
<!-- Node33&#45;&gt;Node35 -->
<g id="edge55" class="edge">
<title>Node33&#45;&gt;Node35</title>
<path fill="none" stroke="midnightblue" d="M1396.3,-112.08C1403.87,-104.22 1415.09,-92.57 1424.23,-83.08"/>
<polygon fill="midnightblue" stroke="midnightblue" points="1426.87,-85.38 1431.29,-75.75 1421.83,-80.53 1426.87,-85.38"/>
</g>
<!-- Node35&#45;&gt;Node34 -->
<g id="edge56" class="edge">
<title>Node35&#45;&gt;Node34</title>
<path fill="none" stroke="midnightblue" d="M1446.48,-56.08C1452.28,-48.46 1460.77,-37.26 1467.85,-27.94"/>
<polygon fill="midnightblue" stroke="midnightblue" points="1470.81,-29.83 1474.07,-19.75 1465.23,-25.6 1470.81,-29.83"/>
</g>
</g>
</svg>
        <g id="navigator" transform="translate(0 0)" fill="#404254">
                <rect fill="#f2f5e9" fill-opacity="0.5" stroke="#606060" stroke-width=".5" x="0" y="0" width="60" height="60"/>
                <use id="zoomplus" xlink:href="#zoomPlus" x="17" y="9" onmousedown="handleZoom(evt,'in')"/>
                <use id="zoomminus" xlink:href="#zoomMin" x="42" y="9" onmousedown="handleZoom(evt,'out')"/>
                <use id="reset" xlink:href="#resetDef" x="30" y="36" onmousedown="handleReset()"/>
                <g id="arrowUp" xlink:href="#dirArrow" transform="translate(30 24)" onmousedown="handlePan(0,-1)">
                  <use xlink:href="#rim" fill="#404040">
                        <set attributeName="fill" to="#808080" begin="arrowUp.mouseover" end="arrowUp.mouseout"/>
                  </use>
                  <path fill="none" stroke="white" stroke-width="1.5" d="M0,-3.0v7 M-2.5,-0.5L0,-3.0L2.5,-0.5"/>
                </g>
                <g id="arrowRight" xlink:href="#dirArrow" transform="rotate(90) translate(36 -43)" onmousedown="handlePan(1,0)">
                  <use xlink:href="#rim" fill="#404040">
                        <set attributeName="fill" to="#808080" begin="arrowRight.mouseover" end="arrowRight.mouseout"/>
                  </use>
                  <path fill="none" stroke="white" stroke-width="1.5" d="M0,-3.0v7 M-2.5,-0.5L0,-3.0L2.5,-0.5"/>
                </g>
                <g id="arrowDown" xlink:href="#dirArrow" transform="rotate(180) translate(-30 -48)" onmousedown="handlePan(0,1)">
                  <use xlink:href="#rim" fill="#404040">
                        <set attributeName="fill" to="#808080" begin="arrowDown.mouseover" end="arrowDown.mouseout"/>
                  </use>
                  <path fill="none" stroke="white" stroke-width="1.5" d="M0,-3.0v7 M-2.5,-0.5L0,-3.0L2.5,-0.5"/>
                </g>
                <g id="arrowLeft" xlink:href="#dirArrow" transform="rotate(270) translate(-36 17)" onmousedown="handlePan(-1,0)">
                  <use xlink:href="#rim" fill="#404040">
                        <set attributeName="fill" to="#808080" begin="arrowLeft.mouseover" end="arrowLeft.mouseout"/>
                  </use>
                  <path fill="none" stroke="white" stroke-width="1.5" d="M0,-3.0v7 M-2.5,-0.5L0,-3.0L2.5,-0.5"/>
                </g>
        </g>
        <svg viewBox="0 0 15 15" width="100%" height="30px" preserveAspectRatio="xMaxYMin meet">
         <g id="arrow_out" transform="scale(0.3 0.3)">
          <a xlink:href="labs_2inlab3_2Compute_8h__incl_org.svg" target="_base">
           <rect id="button" ry="5" rx="5" y="6" x="6" height="38" width="38"
                fill="#f2f5e9" fill-opacity="0.5" stroke="#606060" stroke-width="1.0"/>
           <path id="arrow"
             d="M 11.500037,31.436501 C 11.940474,20.09759 22.043105,11.32322 32.158766,21.979434 L 37.068811,17.246167 C 37.068811,17.246167 37.088388,32 37.088388,32 L 22.160133,31.978069 C 22.160133,31.978069 26.997745,27.140456 26.997745,27.140456 C 18.528582,18.264221 13.291696,25.230495 11.500037,31.436501 z"
             style="fill:#404040;"/>
          </a>
         </g>
        </svg>
</svg>
