<?xml version="1.0" encoding="UTF-8" standalone="no"?>
<!DOCTYPE svg PUBLIC "-//W3C//DTD SVG 1.1//EN"
 "http://www.w3.org/Graphics/SVG/1.1/DTD/svg11.dtd">
<!-- Generated by graphviz version 2.43.0 (0)
 -->
<!-- Title: Output::toJSON Pages: 1 -->
<!--zoomable 560 -->
<svg id="main" version="1.1" xmlns="http://www.w3.org/2000/svg" xmlns:xlink="http://www.w3.org/1999/xlink" xml:space="preserve" onload="init(evt)">
<style type="text/css"><![CDATA[
.edge:hover path { stroke: red; }
.edge:hover polygon { stroke: red; fill: red; }
]]></style>
<script type="text/javascript"><![CDATA[
var edges = document.getElementsByTagName('g');
if (edges && edges.length) {
  for (var i=0;i<edges.length;i++) {
    if (edges[i].id.substr(0,4)=='edge') {
      edges[i].setAttribute('class','edge');
    }
  }
}
]]></script>
        <defs>
                <circle id="rim" cx="0" cy="0" r="7"/>
                <circle id="rim2" cx="0" cy="0" r="3.5"/>
                <g id="zoomPlus">
                        <use xlink:href="#rim" fill="#404040">
                                <set attributeName="fill" to="#808080" begin="zoomplus.mouseover" end="zoomplus.mouseout"/>
                        </use>
                        <path d="M-4,0h8M0,-4v8" fill="none" stroke="white" stroke-width="1.5" pointer-events="none"/>
                </g>
                <g id="zoomMin">
                        <use xlink:href="#rim" fill="#404040">
                                <set attributeName="fill" to="#808080" begin="zoomminus.mouseover" end="zoomminus.mouseout"/>
                        </use>
                        <path d="M-4,0h8" fill="none" stroke="white" stroke-width="1.5" pointer-events="none"/>
                </g>
                <g id="dirArrow">
                        <path fill="none" stroke="white" stroke-width="1.5" d="M0,-3.0v7 M-2.5,-0.5L0,-3.0L2.5,-0.5"/>
                </g>
               <g id="resetDef">
                       <use xlink:href="#rim2" fill="#404040">
                               <set attributeName="fill" to="#808080" begin="reset.mouseover" end="reset.mouseout"/>
                       </use>
               </g>
        </defs>

<script type="text/javascript">
var viewWidth = 218;
var viewHeight = 560;
var sectionId = 'dynsection-12';
</script>
<script xlink:href="../../svgpan.js"/>
<svg id="graph" class="graph">
<g id="viewport">
<title>Output::toJSON</title>
<polygon fill="white" stroke="transparent" points="-4,4 -4,-556 214,-556 214,4 -4,4"/>
<!-- Node1 -->
<g id="node1" class="node">
<title>Node1</title>
<g id="a_node1"><a xlink:title="Converts the output parameters to a JSON object.">
<polygon fill="#bfbfbf" stroke="black" points="121,-266.5 121,-285.5 210,-285.5 210,-266.5 121,-266.5"/>
<text text-anchor="middle" x="165.5" y="-273.5" font-family="Helvetica,sans-Serif" font-size="10.00">Output::toJSON</text>
</a>
</g>
</g>
<!-- Node2 -->
<g id="node2" class="node">
<title>Node2</title>
<g id="a_node2"><a xlink:href="../../d1/d1f/classInLab3.html#a95bc0719c1cc54ac936e3c7a5b20043d" target="_top" xlink:title="Runs the numerical integration using Composite Newton&#45;Cotes Formulas.">
<polygon fill="white" stroke="black" points="7,-532.5 7,-551.5 78,-551.5 78,-532.5 7,-532.5"/>
<text text-anchor="middle" x="42.5" y="-539.5" font-family="Helvetica,sans-Serif" font-size="10.00">InLab3::run</text>
</a>
</g>
</g>
<!-- Node1&#45;&gt;Node2 -->
<g id="edge1" class="edge">
<title>Node1&#45;&gt;Node2</title>
<path fill="none" stroke="midnightblue" d="M163.39,-295.95C159.85,-341.68 145.13,-455.32 85,-523 81.63,-526.79 77.35,-529.87 72.83,-532.37"/>
<polygon fill="midnightblue" stroke="midnightblue" points="166.89,-296.07 164.08,-285.86 159.91,-295.6 166.89,-296.07"/>
</g>
<!-- Node3 -->
<g id="node3" class="node">
<title>Node3</title>
<g id="a_node3"><a xlink:href="../../da/df0/classOutLab3.html#a19a79946e1512bbd5d67fab314399b2b" target="_top" xlink:title="Runs the numerical integration using Composite Newton&#45;Cotes Formulas.">
<polygon fill="white" stroke="black" points="3,-494.5 3,-513.5 82,-513.5 82,-494.5 3,-494.5"/>
<text text-anchor="middle" x="42.5" y="-501.5" font-family="Helvetica,sans-Serif" font-size="10.00">OutLab3::run</text>
</a>
</g>
</g>
<!-- Node1&#45;&gt;Node3 -->
<g id="edge2" class="edge">
<title>Node1&#45;&gt;Node3</title>
<path fill="none" stroke="midnightblue" d="M162.03,-295.84C156,-336.35 137.03,-429.42 85,-485 81.43,-488.82 76.94,-491.93 72.24,-494.45"/>
<polygon fill="midnightblue" stroke="midnightblue" points="165.53,-296.06 163.43,-285.68 158.59,-295.11 165.53,-296.06"/>
</g>
<!-- Node4 -->
<g id="node4" class="node">
<title>Node4</title>
<g id="a_node4"><a xlink:href="../../d9/d24/classInLab11.html#a30776f8ccefd65f2a3c76c129927cca1" target="_top" xlink:title="This function is used to perform the main computation.">
<polygon fill="white" stroke="black" points="4,-456.5 4,-475.5 81,-475.5 81,-456.5 4,-456.5"/>
<text text-anchor="middle" x="42.5" y="-463.5" font-family="Helvetica,sans-Serif" font-size="10.00">InLab11::run</text>
</a>
</g>
</g>
<!-- Node1&#45;&gt;Node4 -->
<g id="edge3" class="edge">
<title>Node1&#45;&gt;Node4</title>
<path fill="none" stroke="midnightblue" d="M160.1,-295.77C151.42,-330.58 129,-403.26 85,-447 81.18,-450.8 76.46,-453.92 71.59,-456.46"/>
<polygon fill="midnightblue" stroke="midnightblue" points="163.54,-296.42 162.44,-285.88 156.73,-294.81 163.54,-296.42"/>
</g>
<!-- Node5 -->
<g id="node5" class="node">
<title>Node5</title>
<g id="a_node5"><a xlink:href="../../db/def/classInLab12.html#aed788ac2ce504264a63cd2f9e9e826c7" target="_top" xlink:title="This function is used to perform the main computation.">
<polygon fill="white" stroke="black" points="4,-418.5 4,-437.5 81,-437.5 81,-418.5 4,-418.5"/>
<text text-anchor="middle" x="42.5" y="-425.5" font-family="Helvetica,sans-Serif" font-size="10.00">InLab12::run</text>
</a>
</g>
</g>
<!-- Node1&#45;&gt;Node5 -->
<g id="edge4" class="edge">
<title>Node1&#45;&gt;Node5</title>
<path fill="none" stroke="midnightblue" d="M157.34,-295.24C145.96,-323.54 121.24,-376.52 85,-409 80.87,-412.7 75.89,-415.8 70.85,-418.35"/>
<polygon fill="midnightblue" stroke="midnightblue" points="160.69,-296.29 161.05,-285.7 154.17,-293.75 160.69,-296.29"/>
</g>
<!-- Node6 -->
<g id="node6" class="node">
<title>Node6</title>
<g id="a_node6"><a xlink:href="../../d1/d8c/classInLab6.html#a55667f27b7ba522dd4288f18d16c9f8d" target="_top" xlink:title="This function runs the project.">
<polygon fill="white" stroke="black" points="7,-380.5 7,-399.5 78,-399.5 78,-380.5 7,-380.5"/>
<text text-anchor="middle" x="42.5" y="-387.5" font-family="Helvetica,sans-Serif" font-size="10.00">InLab6::run</text>
</a>
</g>
</g>
<!-- Node1&#45;&gt;Node6 -->
<g id="edge5" class="edge">
<title>Node1&#45;&gt;Node6</title>
<path fill="none" stroke="midnightblue" d="M153.02,-294.1C139.06,-314.93 113.77,-349.06 85,-371 80.21,-374.65 74.61,-377.81 69.1,-380.45"/>
<polygon fill="midnightblue" stroke="midnightblue" points="156.06,-295.85 158.61,-285.56 150.2,-292.02 156.06,-295.85"/>
</g>
<!-- Node7 -->
<g id="node7" class="node">
<title>Node7</title>
<g id="a_node7"><a xlink:href="../../d7/d1f/classOutLab10.html#a7b70a96347bc6131b594841c796a0329" target="_top" xlink:title="This function is used to perform the main computation.">
<polygon fill="white" stroke="black" points="0,-342.5 0,-361.5 85,-361.5 85,-342.5 0,-342.5"/>
<text text-anchor="middle" x="42.5" y="-349.5" font-family="Helvetica,sans-Serif" font-size="10.00">OutLab10::run</text>
</a>
</g>
</g>
<!-- Node1&#45;&gt;Node7 -->
<g id="edge6" class="edge">
<title>Node1&#45;&gt;Node7</title>
<path fill="none" stroke="midnightblue" d="M144.68,-291.85C129.02,-303.97 106.32,-320.63 85,-333 79.24,-336.34 72.8,-339.53 66.73,-342.32"/>
<polygon fill="midnightblue" stroke="midnightblue" points="146.89,-294.57 152.6,-285.65 142.57,-289.06 146.89,-294.57"/>
</g>
<!-- Node8 -->
<g id="node8" class="node">
<title>Node8</title>
<g id="a_node8"><a xlink:href="../../d0/d52/classOutLab11.html#ac688d5d46eb4608c974d46ee16cc15c4" target="_top" xlink:title="This function is used to perform the main computation.">
<polygon fill="white" stroke="black" points="0,-304.5 0,-323.5 85,-323.5 85,-304.5 0,-304.5"/>
<text text-anchor="middle" x="42.5" y="-311.5" font-family="Helvetica,sans-Serif" font-size="10.00">OutLab11::run</text>
</a>
</g>
</g>
<!-- Node1&#45;&gt;Node8 -->
<g id="edge7" class="edge">
<title>Node1&#45;&gt;Node8</title>
<path fill="none" stroke="midnightblue" d="M124.12,-288.68C107.77,-293.81 89.21,-299.64 74.02,-304.41"/>
<polygon fill="midnightblue" stroke="midnightblue" points="125.47,-291.92 133.97,-285.59 123.38,-285.25 125.47,-291.92"/>
</g>
<!-- Node9 -->
<g id="node9" class="node">
<title>Node9</title>
<g id="a_node9"><a xlink:href="../../d3/dce/classOutLab12.html#a3bf66cf1695867db5a340be9af359ffe" target="_top" xlink:title="This function is used to perform the main computation.">
<polygon fill="white" stroke="black" points="0,-266.5 0,-285.5 85,-285.5 85,-266.5 0,-266.5"/>
<text text-anchor="middle" x="42.5" y="-273.5" font-family="Helvetica,sans-Serif" font-size="10.00">OutLab12::run</text>
</a>
</g>
</g>
<!-- Node1&#45;&gt;Node9 -->
<g id="edge8" class="edge">
<title>Node1&#45;&gt;Node9</title>
<path fill="none" stroke="midnightblue" d="M110.54,-276C102,-276 93.29,-276 85.1,-276"/>
<polygon fill="midnightblue" stroke="midnightblue" points="110.82,-279.5 120.82,-276 110.82,-272.5 110.82,-279.5"/>
</g>
<!-- Node10 -->
<g id="node10" class="node">
<title>Node10</title>
<g id="a_node10"><a xlink:href="../../d0/d4c/classOutLab6.html#a901a1283fd029c9174f8469ac5cb3ad8" target="_top" xlink:title="This function runs the computation.">
<polygon fill="white" stroke="black" points="3,-228.5 3,-247.5 82,-247.5 82,-228.5 3,-228.5"/>
<text text-anchor="middle" x="42.5" y="-235.5" font-family="Helvetica,sans-Serif" font-size="10.00">OutLab6::run</text>
</a>
</g>
</g>
<!-- Node1&#45;&gt;Node10 -->
<g id="edge9" class="edge">
<title>Node1&#45;&gt;Node10</title>
<path fill="none" stroke="midnightblue" d="M124.12,-263.32C107.77,-258.19 89.21,-252.36 74.02,-247.59"/>
<polygon fill="midnightblue" stroke="midnightblue" points="123.38,-266.75 133.97,-266.41 125.47,-260.08 123.38,-266.75"/>
</g>
<!-- Node11 -->
<g id="node11" class="node">
<title>Node11</title>
<g id="a_node11"><a xlink:href="../../d7/db7/classInLab13.html#a88d288cb8fd0a37bfcea78d26f014dce" target="_top" xlink:title="This function runs the project.">
<polygon fill="white" stroke="black" points="4,-190.5 4,-209.5 81,-209.5 81,-190.5 4,-190.5"/>
<text text-anchor="middle" x="42.5" y="-197.5" font-family="Helvetica,sans-Serif" font-size="10.00">InLab13::run</text>
</a>
</g>
</g>
<!-- Node1&#45;&gt;Node11 -->
<g id="edge10" class="edge">
<title>Node1&#45;&gt;Node11</title>
<path fill="none" stroke="midnightblue" d="M144.68,-260.15C129.02,-248.03 106.32,-231.37 85,-219 79.24,-215.66 72.8,-212.47 66.73,-209.68"/>
<polygon fill="midnightblue" stroke="midnightblue" points="142.57,-262.94 152.6,-266.35 146.89,-257.43 142.57,-262.94"/>
</g>
<!-- Node12 -->
<g id="node12" class="node">
<title>Node12</title>
<g id="a_node12"><a xlink:href="../../d8/ddb/classProject1.html#a41a4716fc32985fae5d32da6434b5516" target="_top" xlink:title="This function runs the project.">
<polygon fill="white" stroke="black" points="3.5,-152.5 3.5,-171.5 81.5,-171.5 81.5,-152.5 3.5,-152.5"/>
<text text-anchor="middle" x="42.5" y="-159.5" font-family="Helvetica,sans-Serif" font-size="10.00">Project1::run</text>
</a>
</g>
</g>
<!-- Node1&#45;&gt;Node12 -->
<g id="edge11" class="edge">
<title>Node1&#45;&gt;Node12</title>
<path fill="none" stroke="midnightblue" d="M153.02,-257.9C139.06,-237.07 113.77,-202.94 85,-181 80.21,-177.35 74.61,-174.19 69.1,-171.55"/>
<polygon fill="midnightblue" stroke="midnightblue" points="150.2,-259.98 158.61,-266.44 156.06,-256.15 150.2,-259.98"/>
</g>
<!-- Node13 -->
<g id="node13" class="node">
<title>Node13</title>
<g id="a_node13"><a xlink:href="../../dd/db5/classProject2.html#a0990db917f6a27a4e1cb9ac885698524" target="_top" xlink:title="This function runs the project.">
<polygon fill="white" stroke="black" points="3.5,-114.5 3.5,-133.5 81.5,-133.5 81.5,-114.5 3.5,-114.5"/>
<text text-anchor="middle" x="42.5" y="-121.5" font-family="Helvetica,sans-Serif" font-size="10.00">Project2::run</text>
</a>
</g>
</g>
<!-- Node1&#45;&gt;Node13 -->
<g id="edge12" class="edge">
<title>Node1&#45;&gt;Node13</title>
<path fill="none" stroke="midnightblue" d="M157.34,-256.76C145.96,-228.46 121.24,-175.48 85,-143 80.87,-139.3 75.89,-136.2 70.85,-133.65"/>
<polygon fill="midnightblue" stroke="midnightblue" points="154.17,-258.25 161.05,-266.3 160.69,-255.71 154.17,-258.25"/>
</g>
<!-- Node14 -->
<g id="node14" class="node">
<title>Node14</title>
<g id="a_node14"><a xlink:href="../../dd/dfb/classProject3.html#a8bcff99aaba60e7d5e5be3cb7552d163" target="_top" xlink:title="This function runs the project.">
<polygon fill="white" stroke="black" points="3.5,-76.5 3.5,-95.5 81.5,-95.5 81.5,-76.5 3.5,-76.5"/>
<text text-anchor="middle" x="42.5" y="-83.5" font-family="Helvetica,sans-Serif" font-size="10.00">Project3::run</text>
</a>
</g>
</g>
<!-- Node1&#45;&gt;Node14 -->
<g id="edge13" class="edge">
<title>Node1&#45;&gt;Node14</title>
<path fill="none" stroke="midnightblue" d="M160.1,-256.23C151.42,-221.42 129,-148.74 85,-105 81.18,-101.2 76.46,-98.08 71.59,-95.54"/>
<polygon fill="midnightblue" stroke="midnightblue" points="156.73,-257.19 162.44,-266.12 163.54,-255.58 156.73,-257.19"/>
</g>
<!-- Node15 -->
<g id="node15" class="node">
<title>Node15</title>
<g id="a_node15"><a xlink:href="../../d2/dfd/classProject4.html#a3779e87d22c7d4949f3c01bae1d08ab9" target="_top" xlink:title="This function runs the project.">
<polygon fill="white" stroke="black" points="3.5,-38.5 3.5,-57.5 81.5,-57.5 81.5,-38.5 3.5,-38.5"/>
<text text-anchor="middle" x="42.5" y="-45.5" font-family="Helvetica,sans-Serif" font-size="10.00">Project4::run</text>
</a>
</g>
</g>
<!-- Node1&#45;&gt;Node15 -->
<g id="edge14" class="edge">
<title>Node1&#45;&gt;Node15</title>
<path fill="none" stroke="midnightblue" d="M162.03,-256.16C156,-215.65 137.03,-122.58 85,-67 81.43,-63.18 76.94,-60.07 72.24,-57.55"/>
<polygon fill="midnightblue" stroke="midnightblue" points="158.59,-256.89 163.43,-266.32 165.53,-255.94 158.59,-256.89"/>
</g>
<!-- Node16 -->
<g id="node16" class="node">
<title>Node16</title>
<g id="a_node16"><a xlink:href="../../d5/dd8/classProject5.html#ad0d283fb148505600a22fbfef054c177" target="_top" xlink:title="This function runs the project.">
<polygon fill="white" stroke="black" points="3.5,-0.5 3.5,-19.5 81.5,-19.5 81.5,-0.5 3.5,-0.5"/>
<text text-anchor="middle" x="42.5" y="-7.5" font-family="Helvetica,sans-Serif" font-size="10.00">Project5::run</text>
</a>
</g>
</g>
<!-- Node1&#45;&gt;Node16 -->
<g id="edge15" class="edge">
<title>Node1&#45;&gt;Node16</title>
<path fill="none" stroke="midnightblue" d="M163.39,-256.05C159.85,-210.32 145.13,-96.68 85,-29 81.63,-25.21 77.35,-22.13 72.83,-19.63"/>
<polygon fill="midnightblue" stroke="midnightblue" points="159.91,-256.4 164.08,-266.14 166.89,-255.93 159.91,-256.4"/>
</g>
</g>
</svg>
        <g id="navigator" transform="translate(0 0)" fill="#404254">
                <rect fill="#f2f5e9" fill-opacity="0.5" stroke="#606060" stroke-width=".5" x="0" y="0" width="60" height="60"/>
                <use id="zoomplus" xlink:href="#zoomPlus" x="17" y="9" onmousedown="handleZoom(evt,'in')"/>
                <use id="zoomminus" xlink:href="#zoomMin" x="42" y="9" onmousedown="handleZoom(evt,'out')"/>
                <use id="reset" xlink:href="#resetDef" x="30" y="36" onmousedown="handleReset()"/>
                <g id="arrowUp" xlink:href="#dirArrow" transform="translate(30 24)" onmousedown="handlePan(0,-1)">
                  <use xlink:href="#rim" fill="#404040">
                        <set attributeName="fill" to="#808080" begin="arrowUp.mouseover" end="arrowUp.mouseout"/>
                  </use>
                  <path fill="none" stroke="white" stroke-width="1.5" d="M0,-3.0v7 M-2.5,-0.5L0,-3.0L2.5,-0.5"/>
                </g>
                <g id="arrowRight" xlink:href="#dirArrow" transform="rotate(90) translate(36 -43)" onmousedown="handlePan(1,0)">
                  <use xlink:href="#rim" fill="#404040">
                        <set attributeName="fill" to="#808080" begin="arrowRight.mouseover" end="arrowRight.mouseout"/>
                  </use>
                  <path fill="none" stroke="white" stroke-width="1.5" d="M0,-3.0v7 M-2.5,-0.5L0,-3.0L2.5,-0.5"/>
                </g>
                <g id="arrowDown" xlink:href="#dirArrow" transform="rotate(180) translate(-30 -48)" onmousedown="handlePan(0,1)">
                  <use xlink:href="#rim" fill="#404040">
                        <set attributeName="fill" to="#808080" begin="arrowDown.mouseover" end="arrowDown.mouseout"/>
                  </use>
                  <path fill="none" stroke="white" stroke-width="1.5" d="M0,-3.0v7 M-2.5,-0.5L0,-3.0L2.5,-0.5"/>
                </g>
                <g id="arrowLeft" xlink:href="#dirArrow" transform="rotate(270) translate(-36 17)" onmousedown="handlePan(-1,0)">
                  <use xlink:href="#rim" fill="#404040">
                        <set attributeName="fill" to="#808080" begin="arrowLeft.mouseover" end="arrowLeft.mouseout"/>
                  </use>
                  <path fill="none" stroke="white" stroke-width="1.5" d="M0,-3.0v7 M-2.5,-0.5L0,-3.0L2.5,-0.5"/>
                </g>
        </g>
        <svg viewBox="0 0 15 15" width="100%" height="30px" preserveAspectRatio="xMaxYMin meet">
         <g id="arrow_out" transform="scale(0.3 0.3)">
          <a xlink:href="structOutput_a0412b8fd27d6e91551671da11cd8fe93_icgraph_org.svg" target="_base">
           <rect id="button" ry="5" rx="5" y="6" x="6" height="38" width="38"
                fill="#f2f5e9" fill-opacity="0.5" stroke="#606060" stroke-width="1.0"/>
           <path id="arrow"
             d="M 11.500037,31.436501 C 11.940474,20.09759 22.043105,11.32322 32.158766,21.979434 L 37.068811,17.246167 C 37.068811,17.246167 37.088388,32 37.088388,32 L 22.160133,31.978069 C 22.160133,31.978069 26.997745,27.140456 26.997745,27.140456 C 18.528582,18.264221 13.291696,25.230495 11.500037,31.436501 z"
             style="fill:#404040;"/>
          </a>
         </g>
        </svg>
</svg>
