<?xml version="1.0" encoding="UTF-8" standalone="no"?>
<!DOCTYPE svg PUBLIC "-//W3C//DTD SVG 1.1//EN"
 "http://www.w3.org/Graphics/SVG/1.1/DTD/svg11.dtd">
<!-- Generated by graphviz version 2.43.0 (0)
 -->
<!-- Title: src/utils/math/LinearSolver.h Pages: 1 -->
<!--zoomable 430 -->
<svg id="main" version="1.1" xmlns="http://www.w3.org/2000/svg" xmlns:xlink="http://www.w3.org/1999/xlink" xml:space="preserve" onload="init(evt)">
<style type="text/css"><![CDATA[
.edge:hover path { stroke: red; }
.edge:hover polygon { stroke: red; fill: red; }
]]></style>
<script type="text/javascript"><![CDATA[
var edges = document.getElementsByTagName('g');
if (edges && edges.length) {
  for (var i=0;i<edges.length;i++) {
    if (edges[i].id.substr(0,4)=='edge') {
      edges[i].setAttribute('class','edge');
    }
  }
}
]]></script>
        <defs>
                <circle id="rim" cx="0" cy="0" r="7"/>
                <circle id="rim2" cx="0" cy="0" r="3.5"/>
                <g id="zoomPlus">
                        <use xlink:href="#rim" fill="#404040">
                                <set attributeName="fill" to="#808080" begin="zoomplus.mouseover" end="zoomplus.mouseout"/>
                        </use>
                        <path d="M-4,0h8M0,-4v8" fill="none" stroke="white" stroke-width="1.5" pointer-events="none"/>
                </g>
                <g id="zoomMin">
                        <use xlink:href="#rim" fill="#404040">
                                <set attributeName="fill" to="#808080" begin="zoomminus.mouseover" end="zoomminus.mouseout"/>
                        </use>
                        <path d="M-4,0h8" fill="none" stroke="white" stroke-width="1.5" pointer-events="none"/>
                </g>
                <g id="dirArrow">
                        <path fill="none" stroke="white" stroke-width="1.5" d="M0,-3.0v7 M-2.5,-0.5L0,-3.0L2.5,-0.5"/>
                </g>
               <g id="resetDef">
                       <use xlink:href="#rim2" fill="#404040">
                               <set attributeName="fill" to="#808080" begin="reset.mouseover" end="reset.mouseout"/>
                       </use>
               </g>
        </defs>

<script type="text/javascript">
var viewWidth = 1132;
var viewHeight = 430;
var sectionId = 'dynsection-1';
</script>
<script xlink:href="../../svgpan.js"/>
<svg id="graph" class="graph">
<g id="viewport">
<title>src/utils/math/LinearSolver.h</title>
<polygon fill="white" stroke="transparent" points="-4,4 -4,-426 1127.5,-426 1127.5,4 -4,4"/>
<!-- Node1 -->
<g id="node1" class="node">
<title>Node1</title>
<g id="a_node1"><a xlink:title="This file contains the definition of the LinearSolver class and its associated methods.">
<polygon fill="#bfbfbf" stroke="black" points="499,-402.5 499,-421.5 654,-421.5 654,-402.5 499,-402.5"/>
<text text-anchor="middle" x="576.5" y="-409.5" font-family="Helvetica,sans-Serif" font-size="10.00">src/utils/math/LinearSolver.h</text>
</a>
</g>
</g>
<!-- Node2 -->
<g id="node2" class="node">
<title>Node2</title>
<g id="a_node2"><a xlink:href="../../d2/dde/labs_2inlab6_2InputsOutputs_8h.html" target="_top" xlink:title="This file contains the input and output definitions for this project.">
<polygon fill="white" stroke="black" points="0,-274 0,-293 167,-293 167,-274 0,-274"/>
<text text-anchor="middle" x="83.5" y="-281" font-family="Helvetica,sans-Serif" font-size="10.00">src/labs/inlab6/InputsOutputs.h</text>
</a>
</g>
</g>
<!-- Node1&#45;&gt;Node2 -->
<g id="edge1" class="edge">
<title>Node1&#45;&gt;Node2</title>
<path fill="none" stroke="midnightblue" d="M488.59,-408.32C384.72,-403.96 219,-392.92 163.5,-366 128.54,-349.04 100.22,-310.28 88.86,-293.04"/>
<polygon fill="midnightblue" stroke="midnightblue" points="488.62,-411.82 498.76,-408.73 488.91,-404.83 488.62,-411.82"/>
</g>
<!-- Node5 -->
<g id="node5" class="node">
<title>Node5</title>
<g id="a_node5"><a xlink:href="../../d5/d67/labs_2outlab6_2InputsOutputs_8h.html" target="_top" xlink:title="This file contains the input and output definitions for this project.">
<polygon fill="white" stroke="black" points="172.5,-341 172.5,-360 346.5,-360 346.5,-341 172.5,-341"/>
<text text-anchor="middle" x="259.5" y="-348" font-family="Helvetica,sans-Serif" font-size="10.00">src/labs/outlab6/InputsOutputs.h</text>
</a>
</g>
</g>
<!-- Node1&#45;&gt;Node5 -->
<g id="edge4" class="edge">
<title>Node1&#45;&gt;Node5</title>
<path fill="none" stroke="midnightblue" d="M521.18,-400.62C459.79,-389.09 361.88,-370.72 304.83,-360.01"/>
<polygon fill="midnightblue" stroke="midnightblue" points="520.61,-404.07 531.08,-402.48 521.9,-397.19 520.61,-404.07"/>
</g>
<!-- Node8 -->
<g id="node8" class="node">
<title>Node8</title>
<g id="a_node8"><a xlink:href="../../dd/df8/project_2project2_2InputsOutputs_8h.html" target="_top" xlink:title="This file contains the input and output definitions for this project.">
<polygon fill="white" stroke="black" points="858.5,-335.5 858.5,-365.5 968.5,-365.5 968.5,-335.5 858.5,-335.5"/>
<text text-anchor="start" x="866.5" y="-353.5" font-family="Helvetica,sans-Serif" font-size="10.00">src/project/project2</text>
<text text-anchor="middle" x="913.5" y="-342.5" font-family="Helvetica,sans-Serif" font-size="10.00">/InputsOutputs.h</text>
</a>
</g>
</g>
<!-- Node1&#45;&gt;Node8 -->
<g id="edge7" class="edge">
<title>Node1&#45;&gt;Node8</title>
<path fill="none" stroke="midnightblue" d="M634.92,-400.69C697.72,-389.6 796.79,-372.11 858.31,-361.24"/>
<polygon fill="midnightblue" stroke="midnightblue" points="634.02,-397.29 624.78,-402.48 635.24,-404.18 634.02,-397.29"/>
</g>
<!-- Node11 -->
<g id="node11" class="node">
<title>Node11</title>
<g id="a_node11"><a xlink:href="../../d6/db9/GaussSeidel_8h.html" target="_top" xlink:title="This file contains the implementation of the Gauss&#45;Seidel method for solving systems of linear equati...">
<polygon fill="white" stroke="black" points="614.5,-268.5 614.5,-298.5 750.5,-298.5 750.5,-268.5 614.5,-268.5"/>
<text text-anchor="start" x="622.5" y="-286.5" font-family="Helvetica,sans-Serif" font-size="10.00">src/utils/math/relaxation</text>
<text text-anchor="middle" x="682.5" y="-275.5" font-family="Helvetica,sans-Serif" font-size="10.00">/GaussSeidel.h</text>
</a>
</g>
</g>
<!-- Node1&#45;&gt;Node11 -->
<g id="edge10" class="edge">
<title>Node1&#45;&gt;Node11</title>
<path fill="none" stroke="midnightblue" d="M653.31,-399.39C672.08,-392.73 690.04,-382.3 701.5,-366 715.79,-345.67 702.51,-316.14 692.12,-298.77"/>
<polygon fill="midnightblue" stroke="midnightblue" points="652.21,-396.06 643.75,-402.45 654.34,-402.73 652.21,-396.06"/>
</g>
<!-- Node15 -->
<g id="node15" class="node">
<title>Node15</title>
<g id="a_node15"><a xlink:href="../../dd/d7b/PointJacobi_8h.html" target="_top" xlink:title="This file contains the implementation of the Point Jacobi method for solving systems of linear equati...">
<polygon fill="white" stroke="black" points="364.5,-335.5 364.5,-365.5 500.5,-365.5 500.5,-335.5 364.5,-335.5"/>
<text text-anchor="start" x="372.5" y="-353.5" font-family="Helvetica,sans-Serif" font-size="10.00">src/utils/math/relaxation</text>
<text text-anchor="middle" x="432.5" y="-342.5" font-family="Helvetica,sans-Serif" font-size="10.00">/PointJacobi.h</text>
</a>
</g>
</g>
<!-- Node1&#45;&gt;Node15 -->
<g id="edge17" class="edge">
<title>Node1&#45;&gt;Node15</title>
<path fill="none" stroke="midnightblue" d="M546.47,-398.59C523.12,-388.94 490.72,-375.56 466.44,-365.52"/>
<polygon fill="midnightblue" stroke="midnightblue" points="545.29,-401.89 555.87,-402.48 547.96,-395.42 545.29,-401.89"/>
</g>
<!-- Node17 -->
<g id="node17" class="node">
<title>Node17</title>
<g id="a_node17"><a xlink:href="../../d4/dfb/LUP_8h.html" target="_top" xlink:title="LU factorization with pivoting.">
<polygon fill="white" stroke="black" points="768.5,-268.5 768.5,-298.5 916.5,-298.5 916.5,-268.5 768.5,-268.5"/>
<text text-anchor="start" x="776.5" y="-286.5" font-family="Helvetica,sans-Serif" font-size="10.00">src/utils/math/factorization</text>
<text text-anchor="middle" x="842.5" y="-275.5" font-family="Helvetica,sans-Serif" font-size="10.00">/LUP.h</text>
</a>
</g>
</g>
<!-- Node1&#45;&gt;Node17 -->
<g id="edge22" class="edge">
<title>Node1&#45;&gt;Node17</title>
<path fill="none" stroke="midnightblue" d="M623.15,-399.88C651.72,-392.2 688.61,-380.73 719.5,-366 759.5,-346.92 801.61,-316.41 824.71,-298.63"/>
<polygon fill="midnightblue" stroke="midnightblue" points="622.2,-396.51 613.42,-402.43 623.98,-403.28 622.2,-396.51"/>
</g>
<!-- Node22 -->
<g id="node22" class="node">
<title>Node22</title>
<g id="a_node22"><a xlink:href="../../d3/d3e/SOR_8h.html" target="_top" xlink:title="This file contains the implementation of the Successive Over&#45;Relaxation (SOR) method for solving syst...">
<polygon fill="white" stroke="black" points="556.5,-335.5 556.5,-365.5 692.5,-365.5 692.5,-335.5 556.5,-335.5"/>
<text text-anchor="start" x="564.5" y="-353.5" font-family="Helvetica,sans-Serif" font-size="10.00">src/utils/math/relaxation</text>
<text text-anchor="middle" x="624.5" y="-342.5" font-family="Helvetica,sans-Serif" font-size="10.00">/SOR.h</text>
</a>
</g>
</g>
<!-- Node1&#45;&gt;Node22 -->
<g id="edge30" class="edge">
<title>Node1&#45;&gt;Node22</title>
<path fill="none" stroke="midnightblue" d="M589.79,-394.53C597.14,-385.42 606.18,-374.21 613.19,-365.52"/>
<polygon fill="midnightblue" stroke="midnightblue" points="586.93,-392.49 583.38,-402.48 592.38,-396.89 586.93,-392.49"/>
</g>
<!-- Node23 -->
<g id="node23" class="node">
<title>Node23</title>
<g id="a_node23"><a xlink:href="../../d0/de6/SSOR_8h.html" target="_top" xlink:title="This file contains the implementation of the Symmetric Successive Over&#45;Relaxation (SSOR) method for s...">
<polygon fill="white" stroke="black" points="460.5,-268.5 460.5,-298.5 596.5,-298.5 596.5,-268.5 460.5,-268.5"/>
<text text-anchor="start" x="468.5" y="-286.5" font-family="Helvetica,sans-Serif" font-size="10.00">src/utils/math/relaxation</text>
<text text-anchor="middle" x="528.5" y="-275.5" font-family="Helvetica,sans-Serif" font-size="10.00">/SSOR.h</text>
</a>
</g>
</g>
<!-- Node1&#45;&gt;Node23 -->
<g id="edge32" class="edge">
<title>Node1&#45;&gt;Node23</title>
<path fill="none" stroke="midnightblue" d="M563.56,-394C557.92,-385.89 551.66,-375.82 547.5,-366 537.92,-343.39 532.71,-315.12 530.27,-298.51"/>
<polygon fill="midnightblue" stroke="midnightblue" points="560.82,-396.17 569.52,-402.21 566.48,-392.06 560.82,-396.17"/>
</g>
<!-- Node3 -->
<g id="node3" class="node">
<title>Node3</title>
<g id="a_node3"><a xlink:href="../../d8/d48/inlab6_8h.html" target="_top" xlink:title=" ">
<polygon fill="white" stroke="black" points="106,-207 106,-226 235,-226 235,-207 106,-207"/>
<text text-anchor="middle" x="170.5" y="-214" font-family="Helvetica,sans-Serif" font-size="10.00">src/labs/inlab6/inlab6.h</text>
</a>
</g>
</g>
<!-- Node2&#45;&gt;Node3 -->
<g id="edge2" class="edge">
<title>Node2&#45;&gt;Node3</title>
<path fill="none" stroke="midnightblue" d="M103.49,-267.57C120.66,-254.74 144.82,-236.69 158.95,-226.13"/>
<polygon fill="midnightblue" stroke="midnightblue" points="101.15,-264.94 95.23,-273.73 105.34,-270.55 101.15,-264.94"/>
</g>
<!-- Node4 -->
<g id="node4" class="node">
<title>Node4</title>
<g id="a_node4"><a xlink:href="../../d2/d34/labs_2inlab6_2main_8cpp.html" target="_top" xlink:title=" ">
<polygon fill="white" stroke="black" points="103,-140 103,-159 238,-159 238,-140 103,-140"/>
<text text-anchor="middle" x="170.5" y="-147" font-family="Helvetica,sans-Serif" font-size="10.00">src/labs/inlab6/main.cpp</text>
</a>
</g>
</g>
<!-- Node3&#45;&gt;Node4 -->
<g id="edge3" class="edge">
<title>Node3&#45;&gt;Node4</title>
<path fill="none" stroke="midnightblue" d="M170.5,-196.54C170.5,-184.17 170.5,-168.62 170.5,-159.13"/>
<polygon fill="midnightblue" stroke="midnightblue" points="167,-196.73 170.5,-206.73 174,-196.73 167,-196.73"/>
</g>
<!-- Node6 -->
<g id="node6" class="node">
<title>Node6</title>
<g id="a_node6"><a xlink:href="../../df/df9/outlab6_8h.html" target="_top" xlink:title=" ">
<polygon fill="white" stroke="black" points="400,-140 400,-159 543,-159 543,-140 400,-140"/>
<text text-anchor="middle" x="471.5" y="-147" font-family="Helvetica,sans-Serif" font-size="10.00">src/labs/outlab6/outlab6.h</text>
</a>
</g>
</g>
<!-- Node5&#45;&gt;Node6 -->
<g id="edge5" class="edge">
<title>Node5&#45;&gt;Node6</title>
<path fill="none" stroke="midnightblue" d="M283.7,-335.8C299.44,-326.37 320.04,-313.06 336.5,-299 391.61,-251.94 446.29,-183.32 464.85,-159.24"/>
<polygon fill="midnightblue" stroke="midnightblue" points="281.9,-332.79 275.05,-340.88 285.45,-338.83 281.9,-332.79"/>
</g>
<!-- Node7 -->
<g id="node7" class="node">
<title>Node7</title>
<g id="a_node7"><a xlink:href="../../d4/d5d/labs_2outlab6_2main_8cpp.html" target="_top" xlink:title=" ">
<polygon fill="white" stroke="black" points="400.5,-73 400.5,-92 542.5,-92 542.5,-73 400.5,-73"/>
<text text-anchor="middle" x="471.5" y="-80" font-family="Helvetica,sans-Serif" font-size="10.00">src/labs/outlab6/main.cpp</text>
</a>
</g>
</g>
<!-- Node6&#45;&gt;Node7 -->
<g id="edge6" class="edge">
<title>Node6&#45;&gt;Node7</title>
<path fill="none" stroke="midnightblue" d="M471.5,-129.54C471.5,-117.17 471.5,-101.62 471.5,-92.13"/>
<polygon fill="midnightblue" stroke="midnightblue" points="468,-129.73 471.5,-139.73 475,-129.73 468,-129.73"/>
</g>
<!-- Node9 -->
<g id="node9" class="node">
<title>Node9</title>
<g id="a_node9"><a xlink:href="../../dc/d79/project2_8h.html" target="_top" xlink:title=" ">
<polygon fill="white" stroke="black" points="710.5,-67.5 710.5,-97.5 820.5,-97.5 820.5,-67.5 710.5,-67.5"/>
<text text-anchor="start" x="718.5" y="-85.5" font-family="Helvetica,sans-Serif" font-size="10.00">src/project/project2</text>
<text text-anchor="middle" x="765.5" y="-74.5" font-family="Helvetica,sans-Serif" font-size="10.00">/project2.h</text>
</a>
</g>
</g>
<!-- Node8&#45;&gt;Node9 -->
<g id="edge8" class="edge">
<title>Node8&#45;&gt;Node9</title>
<path fill="none" stroke="midnightblue" d="M923.07,-325.71C928.31,-309.09 932.46,-286.64 925.5,-268 896.89,-191.34 820.48,-125.4 784.6,-97.59"/>
<polygon fill="midnightblue" stroke="midnightblue" points="919.74,-324.61 919.76,-335.21 926.35,-326.92 919.74,-324.61"/>
</g>
<!-- Node10 -->
<g id="node10" class="node">
<title>Node10</title>
<g id="a_node10"><a xlink:href="../../dd/d48/project_2project2_2main_8cpp.html" target="_top" xlink:title=" ">
<polygon fill="white" stroke="black" points="710.5,-0.5 710.5,-30.5 820.5,-30.5 820.5,-0.5 710.5,-0.5"/>
<text text-anchor="start" x="718.5" y="-18.5" font-family="Helvetica,sans-Serif" font-size="10.00">src/project/project2</text>
<text text-anchor="middle" x="765.5" y="-7.5" font-family="Helvetica,sans-Serif" font-size="10.00">/main.cpp</text>
</a>
</g>
</g>
<!-- Node9&#45;&gt;Node10 -->
<g id="edge9" class="edge">
<title>Node9&#45;&gt;Node10</title>
<path fill="none" stroke="midnightblue" d="M765.5,-57.11C765.5,-48.15 765.5,-38.32 765.5,-30.58"/>
<polygon fill="midnightblue" stroke="midnightblue" points="762,-57.4 765.5,-67.4 769,-57.4 762,-57.4"/>
</g>
<!-- Node12 -->
<g id="node12" class="node">
<title>Node12</title>
<g id="a_node12"><a xlink:href="../../dc/d21/labs_2outlab6_2Compute_8h.html" target="_top" xlink:title="This file contains the Compute namespace which includes methods for solving linear systems using vari...">
<polygon fill="white" stroke="black" points="453.5,-207 453.5,-226 603.5,-226 603.5,-207 453.5,-207"/>
<text text-anchor="middle" x="528.5" y="-214" font-family="Helvetica,sans-Serif" font-size="10.00">src/labs/outlab6/Compute.h</text>
</a>
</g>
</g>
<!-- Node11&#45;&gt;Node12 -->
<g id="edge11" class="edge">
<title>Node11&#45;&gt;Node12</title>
<path fill="none" stroke="midnightblue" d="M639.76,-264.46C610,-251.9 571.68,-235.72 548.66,-226.01"/>
<polygon fill="midnightblue" stroke="midnightblue" points="638.51,-267.73 649.08,-268.4 641.23,-261.28 638.51,-267.73"/>
</g>
<!-- Node13 -->
<g id="node13" class="node">
<title>Node13</title>
<g id="a_node13"><a xlink:href="../../db/d6e/project_2project2_2Compute_8h.html" target="_top" xlink:title="Compute methods for project milestone 1 in NE591&#45;008.">
<polygon fill="white" stroke="black" points="627.5,-201.5 627.5,-231.5 737.5,-231.5 737.5,-201.5 627.5,-201.5"/>
<text text-anchor="start" x="635.5" y="-219.5" font-family="Helvetica,sans-Serif" font-size="10.00">src/project/project2</text>
<text text-anchor="middle" x="682.5" y="-208.5" font-family="Helvetica,sans-Serif" font-size="10.00">/Compute.h</text>
</a>
</g>
</g>
<!-- Node11&#45;&gt;Node13 -->
<g id="edge13" class="edge">
<title>Node11&#45;&gt;Node13</title>
<path fill="none" stroke="midnightblue" d="M682.5,-258.11C682.5,-249.15 682.5,-239.32 682.5,-231.58"/>
<polygon fill="midnightblue" stroke="midnightblue" points="679,-258.4 682.5,-268.4 686,-258.4 679,-258.4"/>
</g>
<!-- Node12&#45;&gt;Node6 -->
<g id="edge12" class="edge">
<title>Node12&#45;&gt;Node6</title>
<path fill="none" stroke="midnightblue" d="M514.15,-199.13C503,-186.42 487.98,-169.3 479.07,-159.13"/>
<polygon fill="midnightblue" stroke="midnightblue" points="511.59,-201.52 520.81,-206.73 516.85,-196.91 511.59,-201.52"/>
</g>
<!-- Node13&#45;&gt;Node9 -->
<g id="edge16" class="edge">
<title>Node13&#45;&gt;Node9</title>
<path fill="none" stroke="midnightblue" d="M716.24,-195.51C727.39,-187.35 738.88,-177 746.5,-165 759.82,-144.03 763.82,-114.71 765.01,-97.55"/>
<polygon fill="midnightblue" stroke="midnightblue" points="714.09,-192.74 707.85,-201.3 718.07,-198.5 714.09,-192.74"/>
</g>
<!-- Node14 -->
<g id="node14" class="node">
<title>Node14</title>
<g id="a_node14"><a xlink:href="../../d6/da7/project_2project2_2Parser_8h.html" target="_top" xlink:title="This file contains the Parser class which is responsible for parsing command line arguments and valid...">
<polygon fill="white" stroke="black" points="627.5,-134.5 627.5,-164.5 737.5,-164.5 737.5,-134.5 627.5,-134.5"/>
<text text-anchor="start" x="635.5" y="-152.5" font-family="Helvetica,sans-Serif" font-size="10.00">src/project/project2</text>
<text text-anchor="middle" x="682.5" y="-141.5" font-family="Helvetica,sans-Serif" font-size="10.00">/Parser.h</text>
</a>
</g>
</g>
<!-- Node13&#45;&gt;Node14 -->
<g id="edge14" class="edge">
<title>Node13&#45;&gt;Node14</title>
<path fill="none" stroke="midnightblue" d="M682.5,-191.11C682.5,-182.15 682.5,-172.32 682.5,-164.58"/>
<polygon fill="midnightblue" stroke="midnightblue" points="679,-191.4 682.5,-201.4 686,-191.4 679,-191.4"/>
</g>
<!-- Node14&#45;&gt;Node9 -->
<g id="edge15" class="edge">
<title>Node14&#45;&gt;Node9</title>
<path fill="none" stroke="midnightblue" d="M708.46,-128.17C721.15,-118.23 736.11,-106.51 747.53,-97.58"/>
<polygon fill="midnightblue" stroke="midnightblue" points="706.22,-125.47 700.51,-134.4 710.54,-130.99 706.22,-125.47"/>
</g>
<!-- Node15&#45;&gt;Node12 -->
<g id="edge20" class="edge">
<title>Node15&#45;&gt;Node12</title>
<path fill="none" stroke="midnightblue" d="M420.24,-325.96C413.08,-308.67 407.42,-285.28 418.5,-268 432.85,-245.62 459.88,-233.03 483.55,-226.02"/>
<polygon fill="midnightblue" stroke="midnightblue" points="417.18,-327.7 424.51,-335.35 423.55,-324.8 417.18,-327.7"/>
</g>
<!-- Node15&#45;&gt;Node13 -->
<g id="edge21" class="edge">
<title>Node15&#45;&gt;Node13</title>
<path fill="none" stroke="midnightblue" d="M431.66,-325.08C432.41,-306.9 436.52,-282.77 451.5,-268 453.09,-266.43 559.54,-243.6 627.36,-229.18"/>
<polygon fill="midnightblue" stroke="midnightblue" points="428.16,-325.2 431.56,-335.24 435.16,-325.27 428.16,-325.2"/>
</g>
<!-- Node16 -->
<g id="node16" class="node">
<title>Node16</title>
<g id="a_node16"><a xlink:href="../../dd/d66/labs_2inlab6_2Compute_8h.html" target="_top" xlink:title="This file contains the Compute namespace which includes methods for inlab6 in NE591&#45;008.">
<polygon fill="white" stroke="black" points="185,-274 185,-293 328,-293 328,-274 185,-274"/>
<text text-anchor="middle" x="256.5" y="-281" font-family="Helvetica,sans-Serif" font-size="10.00">src/labs/inlab6/Compute.h</text>
</a>
</g>
</g>
<!-- Node15&#45;&gt;Node16 -->
<g id="edge18" class="edge">
<title>Node15&#45;&gt;Node16</title>
<path fill="none" stroke="midnightblue" d="M384.53,-331.78C350.4,-319.18 306.07,-302.81 279.53,-293.01"/>
<polygon fill="midnightblue" stroke="midnightblue" points="383.72,-335.21 394.31,-335.4 386.14,-328.65 383.72,-335.21"/>
</g>
<!-- Node16&#45;&gt;Node3 -->
<g id="edge19" class="edge">
<title>Node16&#45;&gt;Node3</title>
<path fill="none" stroke="midnightblue" d="M236.74,-267.57C219.77,-254.74 195.88,-236.69 181.91,-226.13"/>
<polygon fill="midnightblue" stroke="midnightblue" points="234.81,-270.5 244.9,-273.73 239.03,-264.91 234.81,-270.5"/>
</g>
<!-- Node17&#45;&gt;Node12 -->
<g id="edge23" class="edge">
<title>Node17&#45;&gt;Node12</title>
<path fill="none" stroke="midnightblue" d="M764.66,-266.39C702.93,-253.61 619.1,-236.25 569.7,-226.03"/>
<polygon fill="midnightblue" stroke="midnightblue" points="764.25,-269.88 774.75,-268.48 765.67,-263.02 764.25,-269.88"/>
</g>
<!-- Node17&#45;&gt;Node13 -->
<g id="edge29" class="edge">
<title>Node17&#45;&gt;Node13</title>
<path fill="none" stroke="midnightblue" d="M798.3,-264.54C772.7,-254.14 740.93,-241.24 717.15,-231.58"/>
<polygon fill="midnightblue" stroke="midnightblue" points="797.2,-267.87 807.78,-268.4 799.84,-261.39 797.2,-267.87"/>
</g>
<!-- Node18 -->
<g id="node18" class="node">
<title>Node18</title>
<g id="a_node18"><a xlink:href="../../d7/da1/project_2project1_2Compute_8h.html" target="_top" xlink:title="Compute methods for project milestone 1 in NE591&#45;008.">
<polygon fill="white" stroke="black" points="972.5,-201.5 972.5,-231.5 1082.5,-231.5 1082.5,-201.5 972.5,-201.5"/>
<text text-anchor="start" x="980.5" y="-219.5" font-family="Helvetica,sans-Serif" font-size="10.00">src/project/project1</text>
<text text-anchor="middle" x="1027.5" y="-208.5" font-family="Helvetica,sans-Serif" font-size="10.00">/Compute.h</text>
</a>
</g>
</g>
<!-- Node17&#45;&gt;Node18 -->
<g id="edge24" class="edge">
<title>Node17&#45;&gt;Node18</title>
<path fill="none" stroke="midnightblue" d="M892.44,-264.96C922.24,-254.48 959.57,-241.37 987.44,-231.58"/>
<polygon fill="midnightblue" stroke="midnightblue" points="890.92,-261.78 882.64,-268.4 893.24,-268.38 890.92,-261.78"/>
</g>
<!-- Node19 -->
<g id="node19" class="node">
<title>Node19</title>
<g id="a_node19"><a xlink:href="../../d0/df9/project_2project1_2Parser_8h.html" target="_top" xlink:title="This file contains the Parser class which is responsible for parsing command line arguments and valid...">
<polygon fill="white" stroke="black" points="972.5,-134.5 972.5,-164.5 1082.5,-164.5 1082.5,-134.5 972.5,-134.5"/>
<text text-anchor="start" x="980.5" y="-152.5" font-family="Helvetica,sans-Serif" font-size="10.00">src/project/project1</text>
<text text-anchor="middle" x="1027.5" y="-141.5" font-family="Helvetica,sans-Serif" font-size="10.00">/Parser.h</text>
</a>
</g>
</g>
<!-- Node18&#45;&gt;Node19 -->
<g id="edge25" class="edge">
<title>Node18&#45;&gt;Node19</title>
<path fill="none" stroke="midnightblue" d="M1027.5,-191.11C1027.5,-182.15 1027.5,-172.32 1027.5,-164.58"/>
<polygon fill="midnightblue" stroke="midnightblue" points="1024,-191.4 1027.5,-201.4 1031,-191.4 1024,-191.4"/>
</g>
<!-- Node20 -->
<g id="node20" class="node">
<title>Node20</title>
<g id="a_node20"><a xlink:href="../../d3/df7/project1_8h.html" target="_top" xlink:title=" ">
<polygon fill="white" stroke="black" points="1013.5,-67.5 1013.5,-97.5 1123.5,-97.5 1123.5,-67.5 1013.5,-67.5"/>
<text text-anchor="start" x="1021.5" y="-85.5" font-family="Helvetica,sans-Serif" font-size="10.00">src/project/project1</text>
<text text-anchor="middle" x="1068.5" y="-74.5" font-family="Helvetica,sans-Serif" font-size="10.00">/project1.h</text>
</a>
</g>
</g>
<!-- Node18&#45;&gt;Node20 -->
<g id="edge28" class="edge">
<title>Node18&#45;&gt;Node20</title>
<path fill="none" stroke="midnightblue" d="M1063.62,-195.8C1074.65,-187.81 1085.45,-177.48 1091.5,-165 1102.34,-142.64 1088.84,-114.29 1078.42,-97.59"/>
<polygon fill="midnightblue" stroke="midnightblue" points="1061.57,-192.97 1055.22,-201.46 1065.48,-198.78 1061.57,-192.97"/>
</g>
<!-- Node19&#45;&gt;Node20 -->
<g id="edge26" class="edge">
<title>Node19&#45;&gt;Node20</title>
<path fill="none" stroke="midnightblue" d="M1041.78,-125.87C1047.71,-116.46 1054.41,-105.83 1059.62,-97.58"/>
<polygon fill="midnightblue" stroke="midnightblue" points="1038.77,-124.07 1036.4,-134.4 1044.69,-127.81 1038.77,-124.07"/>
</g>
<!-- Node21 -->
<g id="node21" class="node">
<title>Node21</title>
<g id="a_node21"><a xlink:href="../../d2/d85/project_2project1_2main_8cpp.html" target="_top" xlink:title=" ">
<polygon fill="white" stroke="black" points="1013.5,-0.5 1013.5,-30.5 1123.5,-30.5 1123.5,-0.5 1013.5,-0.5"/>
<text text-anchor="start" x="1021.5" y="-18.5" font-family="Helvetica,sans-Serif" font-size="10.00">src/project/project1</text>
<text text-anchor="middle" x="1068.5" y="-7.5" font-family="Helvetica,sans-Serif" font-size="10.00">/main.cpp</text>
</a>
</g>
</g>
<!-- Node20&#45;&gt;Node21 -->
<g id="edge27" class="edge">
<title>Node20&#45;&gt;Node21</title>
<path fill="none" stroke="midnightblue" d="M1068.5,-57.11C1068.5,-48.15 1068.5,-38.32 1068.5,-30.58"/>
<polygon fill="midnightblue" stroke="midnightblue" points="1065,-57.4 1068.5,-67.4 1072,-57.4 1065,-57.4"/>
</g>
<!-- Node22&#45;&gt;Node11 -->
<g id="edge31" class="edge">
<title>Node22&#45;&gt;Node11</title>
<path fill="none" stroke="midnightblue" d="M643.92,-327.74C652.5,-318.12 662.34,-307.09 669.94,-298.58"/>
<polygon fill="midnightblue" stroke="midnightblue" points="641.13,-325.6 637.09,-335.4 646.35,-330.26 641.13,-325.6"/>
</g>
<!-- Node23&#45;&gt;Node12 -->
<g id="edge33" class="edge">
<title>Node23&#45;&gt;Node12</title>
<path fill="none" stroke="midnightblue" d="M528.5,-258.25C528.5,-247.02 528.5,-234.38 528.5,-226.19"/>
<polygon fill="midnightblue" stroke="midnightblue" points="525,-258.4 528.5,-268.4 532,-258.4 525,-258.4"/>
</g>
<!-- Node23&#45;&gt;Node13 -->
<g id="edge34" class="edge">
<title>Node23&#45;&gt;Node13</title>
<path fill="none" stroke="midnightblue" d="M571.37,-264.41C595.95,-254.03 626.36,-241.2 649.15,-231.58"/>
<polygon fill="midnightblue" stroke="midnightblue" points="569.77,-261.28 561.92,-268.4 572.49,-267.73 569.77,-261.28"/>
</g>
</g>
</svg>
        <g id="navigator" transform="translate(0 0)" fill="#404254">
                <rect fill="#f2f5e9" fill-opacity="0.5" stroke="#606060" stroke-width=".5" x="0" y="0" width="60" height="60"/>
                <use id="zoomplus" xlink:href="#zoomPlus" x="17" y="9" onmousedown="handleZoom(evt,'in')"/>
                <use id="zoomminus" xlink:href="#zoomMin" x="42" y="9" onmousedown="handleZoom(evt,'out')"/>
                <use id="reset" xlink:href="#resetDef" x="30" y="36" onmousedown="handleReset()"/>
                <g id="arrowUp" xlink:href="#dirArrow" transform="translate(30 24)" onmousedown="handlePan(0,-1)">
                  <use xlink:href="#rim" fill="#404040">
                        <set attributeName="fill" to="#808080" begin="arrowUp.mouseover" end="arrowUp.mouseout"/>
                  </use>
                  <path fill="none" stroke="white" stroke-width="1.5" d="M0,-3.0v7 M-2.5,-0.5L0,-3.0L2.5,-0.5"/>
                </g>
                <g id="arrowRight" xlink:href="#dirArrow" transform="rotate(90) translate(36 -43)" onmousedown="handlePan(1,0)">
                  <use xlink:href="#rim" fill="#404040">
                        <set attributeName="fill" to="#808080" begin="arrowRight.mouseover" end="arrowRight.mouseout"/>
                  </use>
                  <path fill="none" stroke="white" stroke-width="1.5" d="M0,-3.0v7 M-2.5,-0.5L0,-3.0L2.5,-0.5"/>
                </g>
                <g id="arrowDown" xlink:href="#dirArrow" transform="rotate(180) translate(-30 -48)" onmousedown="handlePan(0,1)">
                  <use xlink:href="#rim" fill="#404040">
                        <set attributeName="fill" to="#808080" begin="arrowDown.mouseover" end="arrowDown.mouseout"/>
                  </use>
                  <path fill="none" stroke="white" stroke-width="1.5" d="M0,-3.0v7 M-2.5,-0.5L0,-3.0L2.5,-0.5"/>
                </g>
                <g id="arrowLeft" xlink:href="#dirArrow" transform="rotate(270) translate(-36 17)" onmousedown="handlePan(-1,0)">
                  <use xlink:href="#rim" fill="#404040">
                        <set attributeName="fill" to="#808080" begin="arrowLeft.mouseover" end="arrowLeft.mouseout"/>
                  </use>
                  <path fill="none" stroke="white" stroke-width="1.5" d="M0,-3.0v7 M-2.5,-0.5L0,-3.0L2.5,-0.5"/>
                </g>
        </g>
        <svg viewBox="0 0 15 15" width="100%" height="30px" preserveAspectRatio="xMaxYMin meet">
         <g id="arrow_out" transform="scale(0.3 0.3)">
          <a xlink:href="LinearSolver_8h__dep__incl_org.svg" target="_base">
           <rect id="button" ry="5" rx="5" y="6" x="6" height="38" width="38"
                fill="#f2f5e9" fill-opacity="0.5" stroke="#606060" stroke-width="1.0"/>
           <path id="arrow"
             d="M 11.500037,31.436501 C 11.940474,20.09759 22.043105,11.32322 32.158766,21.979434 L 37.068811,17.246167 C 37.068811,17.246167 37.088388,32 37.088388,32 L 22.160133,31.978069 C 22.160133,31.978069 26.997745,27.140456 26.997745,27.140456 C 18.528582,18.264221 13.291696,25.230495 11.500037,31.436501 z"
             style="fill:#404040;"/>
          </a>
         </g>
        </svg>
</svg>
