<?xml version="1.0" encoding="UTF-8" standalone="no"?>
<!DOCTYPE svg PUBLIC "-//W3C//DTD SVG 1.1//EN"
 "http://www.w3.org/Graphics/SVG/1.1/DTD/svg11.dtd">
<!-- Generated by graphviz version 2.43.0 (0)
 -->
<!-- Title: src/utils/math/LinearSolver.h Pages: 1 -->
<svg width="1065pt" height="363pt"
 viewBox="0.00 0.00 1064.50 363.00" xmlns="http://www.w3.org/2000/svg" xmlns:xlink="http://www.w3.org/1999/xlink">
<g id="graph0" class="graph" transform="scale(1 1) rotate(0) translate(4 359)">
<title>src/utils/math/LinearSolver.h</title>
<polygon fill="white" stroke="transparent" points="-4,4 -4,-359 1060.5,-359 1060.5,4 -4,4"/>
<!-- Node1 -->
<g id="node1" class="node">
<title>Node1</title>
<g id="a_node1"><a xlink:title="This file contains the definition of the LinearSolver class and its associated methods.">
<polygon fill="#bfbfbf" stroke="black" points="461,-335.5 461,-354.5 616,-354.5 616,-335.5 461,-335.5"/>
<text text-anchor="middle" x="538.5" y="-342.5" font-family="Helvetica,sans-Serif" font-size="10.00">src/utils/math/LinearSolver.h</text>
</a>
</g>
</g>
<!-- Node2 -->
<g id="node2" class="node">
<title>Node2</title>
<g id="a_node2"><a xlink:href="../../d2/dde/labs_2inlab6_2InputsOutputs_8h.html" target="_top" xlink:title="This file contains the input and output definitions for this project.">
<polygon fill="white" stroke="black" points="0,-207 0,-226 167,-226 167,-207 0,-207"/>
<text text-anchor="middle" x="83.5" y="-214" font-family="Helvetica,sans-Serif" font-size="10.00">src/labs/inlab6/InputsOutputs.h</text>
</a>
</g>
</g>
<!-- Node1&#45;&gt;Node2 -->
<g id="edge1" class="edge">
<title>Node1&#45;&gt;Node2</title>
<path fill="none" stroke="midnightblue" d="M450.74,-340.75C385.86,-336.17 296.19,-325.19 221.5,-299 170.3,-281.05 117.03,-243.16 94.55,-226.12"/>
<polygon fill="midnightblue" stroke="midnightblue" points="450.72,-344.26 460.93,-341.43 451.19,-337.27 450.72,-344.26"/>
</g>
<!-- Node5 -->
<g id="node5" class="node">
<title>Node5</title>
<g id="a_node5"><a xlink:href="../../d5/d67/labs_2outlab6_2InputsOutputs_8h.html" target="_top" xlink:title="This file contains the input and output definitions for this project.">
<polygon fill="white" stroke="black" points="307.5,-140 307.5,-159 481.5,-159 481.5,-140 307.5,-140"/>
<text text-anchor="middle" x="394.5" y="-147" font-family="Helvetica,sans-Serif" font-size="10.00">src/labs/outlab6/InputsOutputs.h</text>
</a>
</g>
</g>
<!-- Node1&#45;&gt;Node5 -->
<g id="edge4" class="edge">
<title>Node1&#45;&gt;Node5</title>
<path fill="none" stroke="midnightblue" d="M466.37,-332.53C446.45,-325.91 426.71,-315.46 413.5,-299 379.34,-256.43 388.44,-183.77 392.81,-159.04"/>
<polygon fill="midnightblue" stroke="midnightblue" points="465.55,-335.94 476.13,-335.49 467.57,-329.24 465.55,-335.94"/>
</g>
<!-- Node8 -->
<g id="node8" class="node">
<title>Node8</title>
<g id="a_node8"><a xlink:href="../../dd/df8/project_2project2_2InputsOutputs_8h.html" target="_top" xlink:title="This file contains the input and output definitions for this project.">
<polygon fill="white" stroke="black" points="946.5,-268.5 946.5,-298.5 1056.5,-298.5 1056.5,-268.5 946.5,-268.5"/>
<text text-anchor="start" x="954.5" y="-286.5" font-family="Helvetica,sans-Serif" font-size="10.00">src/project/project2</text>
<text text-anchor="middle" x="1001.5" y="-275.5" font-family="Helvetica,sans-Serif" font-size="10.00">/InputsOutputs.h</text>
</a>
</g>
</g>
<!-- Node1&#45;&gt;Node8 -->
<g id="edge7" class="edge">
<title>Node1&#45;&gt;Node8</title>
<path fill="none" stroke="midnightblue" d="M626.53,-335.61C705.13,-327.68 823.28,-314.67 925.5,-299 932.27,-297.96 939.36,-296.76 946.37,-295.51"/>
<polygon fill="midnightblue" stroke="midnightblue" points="625.79,-332.16 616.19,-336.64 626.49,-339.13 625.79,-332.16"/>
</g>
<!-- Node11 -->
<g id="node11" class="node">
<title>Node11</title>
<g id="a_node11"><a xlink:href="../../d4/dfb/LUP_8h.html" target="_top" xlink:title="LU factorization with pivoting.">
<polygon fill="white" stroke="black" points="768.5,-268.5 768.5,-298.5 916.5,-298.5 916.5,-268.5 768.5,-268.5"/>
<text text-anchor="start" x="776.5" y="-286.5" font-family="Helvetica,sans-Serif" font-size="10.00">src/utils/math/factorization</text>
<text text-anchor="middle" x="842.5" y="-275.5" font-family="Helvetica,sans-Serif" font-size="10.00">/LUP.h</text>
</a>
</g>
</g>
<!-- Node1&#45;&gt;Node11 -->
<g id="edge10" class="edge">
<title>Node1&#45;&gt;Node11</title>
<path fill="none" stroke="midnightblue" d="M591.96,-333.54C641.65,-323.81 716.04,-309.25 770.85,-298.52"/>
<polygon fill="midnightblue" stroke="midnightblue" points="591.2,-330.12 582.06,-335.48 592.54,-336.99 591.2,-330.12"/>
</g>
<!-- Node19 -->
<g id="node19" class="node">
<title>Node19</title>
<g id="a_node19"><a xlink:href="../../dd/d7b/PointJacobi_8h.html" target="_top" xlink:title="This file contains the implementation of the Point Jacobi method for solving systems of linear equati...">
<polygon fill="white" stroke="black" points="230.5,-268.5 230.5,-298.5 366.5,-298.5 366.5,-268.5 230.5,-268.5"/>
<text text-anchor="start" x="238.5" y="-286.5" font-family="Helvetica,sans-Serif" font-size="10.00">src/utils/math/relaxation</text>
<text text-anchor="middle" x="298.5" y="-275.5" font-family="Helvetica,sans-Serif" font-size="10.00">/PointJacobi.h</text>
</a>
</g>
</g>
<!-- Node1&#45;&gt;Node19 -->
<g id="edge22" class="edge">
<title>Node1&#45;&gt;Node19</title>
<path fill="none" stroke="midnightblue" d="M494.31,-333.05C455.11,-323.33 397.62,-309.07 355.06,-298.52"/>
<polygon fill="midnightblue" stroke="midnightblue" points="493.57,-336.47 504.11,-335.48 495.25,-329.67 493.57,-336.47"/>
</g>
<!-- Node21 -->
<g id="node21" class="node">
<title>Node21</title>
<g id="a_node21"><a xlink:href="../../d6/db9/GaussSeidel_8h.html" target="_top" xlink:title="This file contains the implementation of the Gauss&#45;Seidel method for solving systems of linear equati...">
<polygon fill="white" stroke="black" points="518.5,-201.5 518.5,-231.5 654.5,-231.5 654.5,-201.5 518.5,-201.5"/>
<text text-anchor="start" x="526.5" y="-219.5" font-family="Helvetica,sans-Serif" font-size="10.00">src/utils/math/relaxation</text>
<text text-anchor="middle" x="586.5" y="-208.5" font-family="Helvetica,sans-Serif" font-size="10.00">/GaussSeidel.h</text>
</a>
</g>
</g>
<!-- Node1&#45;&gt;Node21 -->
<g id="edge26" class="edge">
<title>Node1&#45;&gt;Node21</title>
<path fill="none" stroke="midnightblue" d="M551.44,-327C557.08,-318.89 563.34,-308.82 567.5,-299 577.08,-276.39 582.29,-248.12 584.73,-231.51"/>
<polygon fill="midnightblue" stroke="midnightblue" points="548.52,-325.06 545.48,-335.21 554.18,-329.17 548.52,-325.06"/>
</g>
<!-- Node22 -->
<g id="node22" class="node">
<title>Node22</title>
<g id="a_node22"><a xlink:href="../../d3/d3e/SOR_8h.html" target="_top" xlink:title="This file contains the implementation of the Successive Over&#45;Relaxation (SOR) method for solving syst...">
<polygon fill="white" stroke="black" points="614.5,-268.5 614.5,-298.5 750.5,-298.5 750.5,-268.5 614.5,-268.5"/>
<text text-anchor="start" x="622.5" y="-286.5" font-family="Helvetica,sans-Serif" font-size="10.00">src/utils/math/relaxation</text>
<text text-anchor="middle" x="682.5" y="-275.5" font-family="Helvetica,sans-Serif" font-size="10.00">/SOR.h</text>
</a>
</g>
</g>
<!-- Node1&#45;&gt;Node22 -->
<g id="edge28" class="edge">
<title>Node1&#45;&gt;Node22</title>
<path fill="none" stroke="midnightblue" d="M568.53,-331.59C591.88,-321.94 624.28,-308.56 648.56,-298.52"/>
<polygon fill="midnightblue" stroke="midnightblue" points="567.04,-328.42 559.13,-335.48 569.71,-334.89 567.04,-328.42"/>
</g>
<!-- Node23 -->
<g id="node23" class="node">
<title>Node23</title>
<g id="a_node23"><a xlink:href="../../d0/de6/SSOR_8h.html" target="_top" xlink:title="This file contains the implementation of the Symmetric Successive Over&#45;Relaxation (SSOR) method for s...">
<polygon fill="white" stroke="black" points="422.5,-268.5 422.5,-298.5 558.5,-298.5 558.5,-268.5 422.5,-268.5"/>
<text text-anchor="start" x="430.5" y="-286.5" font-family="Helvetica,sans-Serif" font-size="10.00">src/utils/math/relaxation</text>
<text text-anchor="middle" x="490.5" y="-275.5" font-family="Helvetica,sans-Serif" font-size="10.00">/SSOR.h</text>
</a>
</g>
</g>
<!-- Node1&#45;&gt;Node23 -->
<g id="edge30" class="edge">
<title>Node1&#45;&gt;Node23</title>
<path fill="none" stroke="midnightblue" d="M525.21,-327.53C517.86,-318.42 508.82,-307.21 501.81,-298.52"/>
<polygon fill="midnightblue" stroke="midnightblue" points="522.62,-329.89 531.62,-335.48 528.07,-325.49 522.62,-329.89"/>
</g>
<!-- Node3 -->
<g id="node3" class="node">
<title>Node3</title>
<g id="a_node3"><a xlink:href="../../d8/d48/inlab6_8h.html" target="_top" xlink:title=" ">
<polygon fill="white" stroke="black" points="90,-140 90,-159 219,-159 219,-140 90,-140"/>
<text text-anchor="middle" x="154.5" y="-147" font-family="Helvetica,sans-Serif" font-size="10.00">src/labs/inlab6/inlab6.h</text>
</a>
</g>
</g>
<!-- Node2&#45;&gt;Node3 -->
<g id="edge2" class="edge">
<title>Node2&#45;&gt;Node3</title>
<path fill="none" stroke="midnightblue" d="M100.59,-199.86C114.55,-187.08 133.76,-169.49 145.08,-159.13"/>
<polygon fill="midnightblue" stroke="midnightblue" points="98.09,-197.4 93.08,-206.73 102.81,-202.56 98.09,-197.4"/>
</g>
<!-- Node4 -->
<g id="node4" class="node">
<title>Node4</title>
<g id="a_node4"><a xlink:href="../../d2/d34/labs_2inlab6_2main_8cpp.html" target="_top" xlink:title=" ">
<polygon fill="white" stroke="black" points="87,-73 87,-92 222,-92 222,-73 87,-73"/>
<text text-anchor="middle" x="154.5" y="-80" font-family="Helvetica,sans-Serif" font-size="10.00">src/labs/inlab6/main.cpp</text>
</a>
</g>
</g>
<!-- Node3&#45;&gt;Node4 -->
<g id="edge3" class="edge">
<title>Node3&#45;&gt;Node4</title>
<path fill="none" stroke="midnightblue" d="M154.5,-129.54C154.5,-117.17 154.5,-101.62 154.5,-92.13"/>
<polygon fill="midnightblue" stroke="midnightblue" points="151,-129.73 154.5,-139.73 158,-129.73 151,-129.73"/>
</g>
<!-- Node6 -->
<g id="node6" class="node">
<title>Node6</title>
<g id="a_node6"><a xlink:href="../../df/df9/outlab6_8h.html" target="_top" xlink:title=" ">
<polygon fill="white" stroke="black" points="473,-73 473,-92 616,-92 616,-73 473,-73"/>
<text text-anchor="middle" x="544.5" y="-80" font-family="Helvetica,sans-Serif" font-size="10.00">src/labs/outlab6/outlab6.h</text>
</a>
</g>
</g>
<!-- Node5&#45;&gt;Node6 -->
<g id="edge5" class="edge">
<title>Node5&#45;&gt;Node6</title>
<path fill="none" stroke="midnightblue" d="M423.85,-135.78C453.56,-122.91 498.68,-103.35 524.5,-92.17"/>
<polygon fill="midnightblue" stroke="midnightblue" points="422.2,-132.68 414.42,-139.87 424.99,-139.1 422.2,-132.68"/>
</g>
<!-- Node7 -->
<g id="node7" class="node">
<title>Node7</title>
<g id="a_node7"><a xlink:href="../../d4/d5d/labs_2outlab6_2main_8cpp.html" target="_top" xlink:title=" ">
<polygon fill="white" stroke="black" points="473.5,-6 473.5,-25 615.5,-25 615.5,-6 473.5,-6"/>
<text text-anchor="middle" x="544.5" y="-13" font-family="Helvetica,sans-Serif" font-size="10.00">src/labs/outlab6/main.cpp</text>
</a>
</g>
</g>
<!-- Node6&#45;&gt;Node7 -->
<g id="edge6" class="edge">
<title>Node6&#45;&gt;Node7</title>
<path fill="none" stroke="midnightblue" d="M544.5,-62.54C544.5,-50.17 544.5,-34.62 544.5,-25.13"/>
<polygon fill="midnightblue" stroke="midnightblue" points="541,-62.73 544.5,-72.73 548,-62.73 541,-62.73"/>
</g>
<!-- Node9 -->
<g id="node9" class="node">
<title>Node9</title>
<g id="a_node9"><a xlink:href="../../dc/d79/project2_8h.html" target="_top" xlink:title=" ">
<polygon fill="white" stroke="black" points="921.5,-67.5 921.5,-97.5 1031.5,-97.5 1031.5,-67.5 921.5,-67.5"/>
<text text-anchor="start" x="929.5" y="-85.5" font-family="Helvetica,sans-Serif" font-size="10.00">src/project/project2</text>
<text text-anchor="middle" x="976.5" y="-74.5" font-family="Helvetica,sans-Serif" font-size="10.00">/project2.h</text>
</a>
</g>
</g>
<!-- Node8&#45;&gt;Node9 -->
<g id="edge8" class="edge">
<title>Node8&#45;&gt;Node9</title>
<path fill="none" stroke="midnightblue" d="M998.46,-258.27C993.18,-216.29 982.51,-131.33 978.28,-97.68"/>
<polygon fill="midnightblue" stroke="midnightblue" points="994.98,-258.7 999.7,-268.19 1001.93,-257.83 994.98,-258.7"/>
</g>
<!-- Node10 -->
<g id="node10" class="node">
<title>Node10</title>
<g id="a_node10"><a xlink:href="../../dd/d48/project_2project2_2main_8cpp.html" target="_top" xlink:title=" ">
<polygon fill="white" stroke="black" points="921.5,-0.5 921.5,-30.5 1031.5,-30.5 1031.5,-0.5 921.5,-0.5"/>
<text text-anchor="start" x="929.5" y="-18.5" font-family="Helvetica,sans-Serif" font-size="10.00">src/project/project2</text>
<text text-anchor="middle" x="976.5" y="-7.5" font-family="Helvetica,sans-Serif" font-size="10.00">/main.cpp</text>
</a>
</g>
</g>
<!-- Node9&#45;&gt;Node10 -->
<g id="edge9" class="edge">
<title>Node9&#45;&gt;Node10</title>
<path fill="none" stroke="midnightblue" d="M976.5,-57.11C976.5,-48.15 976.5,-38.32 976.5,-30.58"/>
<polygon fill="midnightblue" stroke="midnightblue" points="973,-57.4 976.5,-67.4 980,-57.4 973,-57.4"/>
</g>
<!-- Node12 -->
<g id="node12" class="node">
<title>Node12</title>
<g id="a_node12"><a xlink:href="../../dc/d21/labs_2outlab6_2Compute_8h.html" target="_top" xlink:title="This file contains the Compute namespace which includes methods for solving linear systems using vari...">
<polygon fill="white" stroke="black" points="499.5,-140 499.5,-159 649.5,-159 649.5,-140 499.5,-140"/>
<text text-anchor="middle" x="574.5" y="-147" font-family="Helvetica,sans-Serif" font-size="10.00">src/labs/outlab6/Compute.h</text>
</a>
</g>
</g>
<!-- Node11&#45;&gt;Node12 -->
<g id="edge11" class="edge">
<title>Node11&#45;&gt;Node12</title>
<path fill="none" stroke="midnightblue" d="M780.23,-265.26C754.94,-256.99 725.98,-245.83 701.5,-232 682.52,-221.28 681.49,-213.31 663.5,-201 639.46,-184.54 609.69,-168.45 591.41,-159"/>
<polygon fill="midnightblue" stroke="midnightblue" points="779.5,-268.7 790.09,-268.4 781.62,-262.03 779.5,-268.7"/>
</g>
<!-- Node13 -->
<g id="node13" class="node">
<title>Node13</title>
<g id="a_node13"><a xlink:href="../../d7/da1/project_2project1_2Compute_8h.html" target="_top" xlink:title="Compute methods for project milestone 1 in NE591&#45;008.">
<polygon fill="white" stroke="black" points="710.5,-201.5 710.5,-231.5 820.5,-231.5 820.5,-201.5 710.5,-201.5"/>
<text text-anchor="start" x="718.5" y="-219.5" font-family="Helvetica,sans-Serif" font-size="10.00">src/project/project1</text>
<text text-anchor="middle" x="765.5" y="-208.5" font-family="Helvetica,sans-Serif" font-size="10.00">/Compute.h</text>
</a>
</g>
</g>
<!-- Node11&#45;&gt;Node13 -->
<g id="edge13" class="edge">
<title>Node11&#45;&gt;Node13</title>
<path fill="none" stroke="midnightblue" d="M818.08,-261.88C806.38,-252.01 792.66,-240.43 782.18,-231.58"/>
<polygon fill="midnightblue" stroke="midnightblue" points="815.89,-264.62 825.79,-268.4 820.41,-259.27 815.89,-264.62"/>
</g>
<!-- Node17 -->
<g id="node17" class="node">
<title>Node17</title>
<g id="a_node17"><a xlink:href="../../db/d6e/project_2project2_2Compute_8h.html" target="_top" xlink:title="Compute methods for project milestone 1 in NE591&#45;008.">
<polygon fill="white" stroke="black" points="838.5,-201.5 838.5,-231.5 948.5,-231.5 948.5,-201.5 838.5,-201.5"/>
<text text-anchor="start" x="846.5" y="-219.5" font-family="Helvetica,sans-Serif" font-size="10.00">src/project/project2</text>
<text text-anchor="middle" x="893.5" y="-208.5" font-family="Helvetica,sans-Serif" font-size="10.00">/Compute.h</text>
</a>
</g>
</g>
<!-- Node11&#45;&gt;Node17 -->
<g id="edge18" class="edge">
<title>Node11&#45;&gt;Node17</title>
<path fill="none" stroke="midnightblue" d="M859.8,-260.45C867.29,-250.9 875.84,-240 882.46,-231.58"/>
<polygon fill="midnightblue" stroke="midnightblue" points="856.99,-258.37 853.57,-268.4 862.49,-262.69 856.99,-258.37"/>
</g>
<!-- Node12&#45;&gt;Node6 -->
<g id="edge12" class="edge">
<title>Node12&#45;&gt;Node6</title>
<path fill="none" stroke="midnightblue" d="M566.1,-130.29C560.33,-117.81 552.95,-101.81 548.48,-92.13"/>
<polygon fill="midnightblue" stroke="midnightblue" points="563.09,-132.12 570.45,-139.73 569.44,-129.19 563.09,-132.12"/>
</g>
<!-- Node14 -->
<g id="node14" class="node">
<title>Node14</title>
<g id="a_node14"><a xlink:href="../../d0/df9/project_2project1_2Parser_8h.html" target="_top" xlink:title="This file contains the Parser class which is responsible for parsing command line arguments and valid...">
<polygon fill="white" stroke="black" points="710.5,-134.5 710.5,-164.5 820.5,-164.5 820.5,-134.5 710.5,-134.5"/>
<text text-anchor="start" x="718.5" y="-152.5" font-family="Helvetica,sans-Serif" font-size="10.00">src/project/project1</text>
<text text-anchor="middle" x="765.5" y="-141.5" font-family="Helvetica,sans-Serif" font-size="10.00">/Parser.h</text>
</a>
</g>
</g>
<!-- Node13&#45;&gt;Node14 -->
<g id="edge14" class="edge">
<title>Node13&#45;&gt;Node14</title>
<path fill="none" stroke="midnightblue" d="M765.5,-191.11C765.5,-182.15 765.5,-172.32 765.5,-164.58"/>
<polygon fill="midnightblue" stroke="midnightblue" points="762,-191.4 765.5,-201.4 769,-191.4 762,-191.4"/>
</g>
<!-- Node15 -->
<g id="node15" class="node">
<title>Node15</title>
<g id="a_node15"><a xlink:href="../../d3/df7/project1_8h.html" target="_top" xlink:title=" ">
<polygon fill="white" stroke="black" points="657.5,-67.5 657.5,-97.5 767.5,-97.5 767.5,-67.5 657.5,-67.5"/>
<text text-anchor="start" x="665.5" y="-85.5" font-family="Helvetica,sans-Serif" font-size="10.00">src/project/project1</text>
<text text-anchor="middle" x="712.5" y="-74.5" font-family="Helvetica,sans-Serif" font-size="10.00">/project1.h</text>
</a>
</g>
</g>
<!-- Node13&#45;&gt;Node15 -->
<g id="edge17" class="edge">
<title>Node13&#45;&gt;Node15</title>
<path fill="none" stroke="midnightblue" d="M729.38,-195.8C718.35,-187.81 707.55,-177.48 701.5,-165 690.91,-143.16 699.24,-114.39 706.03,-97.52"/>
<polygon fill="midnightblue" stroke="midnightblue" points="727.52,-198.78 737.78,-201.46 731.43,-192.97 727.52,-198.78"/>
</g>
<!-- Node14&#45;&gt;Node15 -->
<g id="edge15" class="edge">
<title>Node14&#45;&gt;Node15</title>
<path fill="none" stroke="midnightblue" d="M747.52,-126.45C739.73,-116.9 730.85,-106 723.98,-97.58"/>
<polygon fill="midnightblue" stroke="midnightblue" points="744.97,-128.86 754,-134.4 750.39,-124.43 744.97,-128.86"/>
</g>
<!-- Node16 -->
<g id="node16" class="node">
<title>Node16</title>
<g id="a_node16"><a xlink:href="../../d2/d85/project_2project1_2main_8cpp.html" target="_top" xlink:title=" ">
<polygon fill="white" stroke="black" points="657.5,-0.5 657.5,-30.5 767.5,-30.5 767.5,-0.5 657.5,-0.5"/>
<text text-anchor="start" x="665.5" y="-18.5" font-family="Helvetica,sans-Serif" font-size="10.00">src/project/project1</text>
<text text-anchor="middle" x="712.5" y="-7.5" font-family="Helvetica,sans-Serif" font-size="10.00">/main.cpp</text>
</a>
</g>
</g>
<!-- Node15&#45;&gt;Node16 -->
<g id="edge16" class="edge">
<title>Node15&#45;&gt;Node16</title>
<path fill="none" stroke="midnightblue" d="M712.5,-57.11C712.5,-48.15 712.5,-38.32 712.5,-30.58"/>
<polygon fill="midnightblue" stroke="midnightblue" points="709,-57.4 712.5,-67.4 716,-57.4 709,-57.4"/>
</g>
<!-- Node17&#45;&gt;Node9 -->
<g id="edge21" class="edge">
<title>Node17&#45;&gt;Node9</title>
<path fill="none" stroke="midnightblue" d="M927.24,-195.51C938.39,-187.35 949.88,-177 957.5,-165 970.82,-144.03 974.82,-114.71 976.01,-97.55"/>
<polygon fill="midnightblue" stroke="midnightblue" points="925.09,-192.74 918.85,-201.3 929.07,-198.5 925.09,-192.74"/>
</g>
<!-- Node18 -->
<g id="node18" class="node">
<title>Node18</title>
<g id="a_node18"><a xlink:href="../../d6/da7/project_2project2_2Parser_8h.html" target="_top" xlink:title="This file contains the Parser class which is responsible for parsing command line arguments and valid...">
<polygon fill="white" stroke="black" points="838.5,-134.5 838.5,-164.5 948.5,-164.5 948.5,-134.5 838.5,-134.5"/>
<text text-anchor="start" x="846.5" y="-152.5" font-family="Helvetica,sans-Serif" font-size="10.00">src/project/project2</text>
<text text-anchor="middle" x="893.5" y="-141.5" font-family="Helvetica,sans-Serif" font-size="10.00">/Parser.h</text>
</a>
</g>
</g>
<!-- Node17&#45;&gt;Node18 -->
<g id="edge19" class="edge">
<title>Node17&#45;&gt;Node18</title>
<path fill="none" stroke="midnightblue" d="M893.5,-191.11C893.5,-182.15 893.5,-172.32 893.5,-164.58"/>
<polygon fill="midnightblue" stroke="midnightblue" points="890,-191.4 893.5,-201.4 897,-191.4 890,-191.4"/>
</g>
<!-- Node18&#45;&gt;Node9 -->
<g id="edge20" class="edge">
<title>Node18&#45;&gt;Node9</title>
<path fill="none" stroke="midnightblue" d="M919.46,-128.17C932.15,-118.23 947.11,-106.51 958.53,-97.58"/>
<polygon fill="midnightblue" stroke="midnightblue" points="917.22,-125.47 911.51,-134.4 921.54,-130.99 917.22,-125.47"/>
</g>
<!-- Node19&#45;&gt;Node12 -->
<g id="edge25" class="edge">
<title>Node19&#45;&gt;Node12</title>
<path fill="none" stroke="midnightblue" d="M336.99,-264.09C397.42,-235.19 512.23,-180.28 556.48,-159.12"/>
<polygon fill="midnightblue" stroke="midnightblue" points="335.29,-261.03 327.78,-268.5 338.31,-267.34 335.29,-261.03"/>
</g>
<!-- Node20 -->
<g id="node20" class="node">
<title>Node20</title>
<g id="a_node20"><a xlink:href="../../dd/d66/labs_2inlab6_2Compute_8h.html" target="_top" xlink:title="This file contains the Compute namespace which includes methods for inlab6 in NE591&#45;008.">
<polygon fill="white" stroke="black" points="185,-207 185,-226 328,-226 328,-207 185,-207"/>
<text text-anchor="middle" x="256.5" y="-214" font-family="Helvetica,sans-Serif" font-size="10.00">src/labs/inlab6/Compute.h</text>
</a>
</g>
</g>
<!-- Node19&#45;&gt;Node20 -->
<g id="edge23" class="edge">
<title>Node19&#45;&gt;Node20</title>
<path fill="none" stroke="midnightblue" d="M283.95,-259.97C276.42,-248.33 267.68,-234.8 262.12,-226.19"/>
<polygon fill="midnightblue" stroke="midnightblue" points="281.02,-261.9 289.39,-268.4 286.9,-258.1 281.02,-261.9"/>
</g>
<!-- Node20&#45;&gt;Node3 -->
<g id="edge24" class="edge">
<title>Node20&#45;&gt;Node3</title>
<path fill="none" stroke="midnightblue" d="M234.17,-201.27C213.98,-188.4 184.91,-169.88 168.04,-159.13"/>
<polygon fill="midnightblue" stroke="midnightblue" points="232.43,-204.31 242.74,-206.73 236.19,-198.41 232.43,-204.31"/>
</g>
<!-- Node21&#45;&gt;Node12 -->
<g id="edge27" class="edge">
<title>Node21&#45;&gt;Node12</title>
<path fill="none" stroke="midnightblue" d="M582.02,-191.25C579.95,-180.02 577.62,-167.38 576.11,-159.19"/>
<polygon fill="midnightblue" stroke="midnightblue" points="578.64,-192.2 583.9,-201.4 585.52,-190.93 578.64,-192.2"/>
</g>
<!-- Node22&#45;&gt;Node21 -->
<g id="edge29" class="edge">
<title>Node22&#45;&gt;Node21</title>
<path fill="none" stroke="midnightblue" d="M653.31,-262.73C638.45,-252.68 620.74,-240.68 607.29,-231.58"/>
<polygon fill="midnightblue" stroke="midnightblue" points="651.43,-265.69 661.67,-268.4 655.35,-259.89 651.43,-265.69"/>
</g>
<!-- Node23&#45;&gt;Node12 -->
<g id="edge31" class="edge">
<title>Node23&#45;&gt;Node12</title>
<path fill="none" stroke="midnightblue" d="M491.9,-258.11C493.86,-240.99 498.51,-218.16 509.5,-201 521.52,-182.23 543.03,-167.58 558,-159"/>
<polygon fill="midnightblue" stroke="midnightblue" points="488.38,-258.16 490.96,-268.43 495.35,-258.79 488.38,-258.16"/>
</g>
</g>
</svg>
