<?xml version="1.0" encoding="UTF-8" standalone="no"?>
<!DOCTYPE svg PUBLIC "-//W3C//DTD SVG 1.1//EN"
 "http://www.w3.org/Graphics/SVG/1.1/DTD/svg11.dtd">
<!-- Generated by graphviz version 2.43.0 (0)
 -->
<!-- Title: printJuliaSet Pages: 1 -->
<!--zoomable 332 -->
<svg id="main" version="1.1" xmlns="http://www.w3.org/2000/svg" xmlns:xlink="http://www.w3.org/1999/xlink" xml:space="preserve" onload="init(evt)">
<style type="text/css"><![CDATA[
.edge:hover path { stroke: red; }
.edge:hover polygon { stroke: red; fill: red; }
]]></style>
<script type="text/javascript"><![CDATA[
var edges = document.getElementsByTagName('g');
if (edges && edges.length) {
  for (var i=0;i<edges.length;i++) {
    if (edges[i].id.substr(0,4)=='edge') {
      edges[i].setAttribute('class','edge');
    }
  }
}
]]></script>
        <defs>
                <circle id="rim" cx="0" cy="0" r="7"/>
                <circle id="rim2" cx="0" cy="0" r="3.5"/>
                <g id="zoomPlus">
                        <use xlink:href="#rim" fill="#404040">
                                <set attributeName="fill" to="#808080" begin="zoomplus.mouseover" end="zoomplus.mouseout"/>
                        </use>
                        <path d="M-4,0h8M0,-4v8" fill="none" stroke="white" stroke-width="1.5" pointer-events="none"/>
                </g>
                <g id="zoomMin">
                        <use xlink:href="#rim" fill="#404040">
                                <set attributeName="fill" to="#808080" begin="zoomminus.mouseover" end="zoomminus.mouseout"/>
                        </use>
                        <path d="M-4,0h8" fill="none" stroke="white" stroke-width="1.5" pointer-events="none"/>
                </g>
                <g id="dirArrow">
                        <path fill="none" stroke="white" stroke-width="1.5" d="M0,-3.0v7 M-2.5,-0.5L0,-3.0L2.5,-0.5"/>
                </g>
               <g id="resetDef">
                       <use xlink:href="#rim2" fill="#404040">
                               <set attributeName="fill" to="#808080" begin="reset.mouseover" end="reset.mouseout"/>
                       </use>
               </g>
        </defs>

<script type="text/javascript">
var viewWidth = 842;
var viewHeight = 332;
var sectionId = 'dynsection-14';
</script>
<script xlink:href="../../svgpan.js"/>
<svg id="graph" class="graph">
<g id="viewport">
<title>printJuliaSet</title>
<polygon fill="white" stroke="transparent" points="-4,4 -4,-328 838,-328 838,4 -4,4"/>
<!-- Node1 -->
<g id="node1" class="node">
<title>Node1</title>
<g id="a_node1"><a xlink:title="Prints the Julia set to the console using the specified canvas properties.">
<polygon fill="#bfbfbf" stroke="black" points="0,-190.5 0,-209.5 76,-209.5 76,-190.5 0,-190.5"/>
<text text-anchor="middle" x="38" y="-197.5" font-family="Helvetica,sans-Serif" font-size="10.00">printJuliaSet</text>
</a>
</g>
</g>
<!-- Node2 -->
<g id="node2" class="node">
<title>Node2</title>
<g id="a_node2"><a xlink:href="../../de/d4d/namespaceMyMath.html#a65264d3fe16d8278498a14fc821b438a" target="_top" xlink:title="A template function to calculate the absolute value of a number.">
<polygon fill="white" stroke="black" points="129.5,-304.5 129.5,-323.5 209.5,-323.5 209.5,-304.5 129.5,-304.5"/>
<text text-anchor="middle" x="169.5" y="-311.5" font-family="Helvetica,sans-Serif" font-size="10.00">MyMath::abs</text>
</a>
</g>
</g>
<!-- Node1&#45;&gt;Node2 -->
<g id="edge1" class="edge">
<title>Node1&#45;&gt;Node2</title>
<path fill="none" stroke="midnightblue" d="M44.62,-209.71C55.51,-227.76 81.14,-266.76 112,-290 117.2,-293.91 123.13,-297.32 129.14,-300.25"/>
<polygon fill="midnightblue" stroke="midnightblue" points="128.02,-303.58 138.58,-304.45 130.87,-297.19 128.02,-303.58"/>
</g>
<!-- Node3 -->
<g id="node3" class="node">
<title>Node3</title>
<g id="a_node3"><a xlink:href="../../db/df1/Helpers_8h.html#af7d8b88f59520866f00472b1f134adad" target="_top" xlink:title="Generates a vector of 256&#45;bit ANSI gray shades.">
<polygon fill="white" stroke="black" points="112,-190.5 112,-209.5 227,-209.5 227,-190.5 112,-190.5"/>
<text text-anchor="middle" x="169.5" y="-197.5" font-family="Helvetica,sans-Serif" font-size="10.00">getGrays256bitANSI</text>
</a>
</g>
</g>
<!-- Node1&#45;&gt;Node3 -->
<g id="edge2" class="edge">
<title>Node1&#45;&gt;Node3</title>
<path fill="none" stroke="midnightblue" d="M76.11,-200C84.06,-200 92.69,-200 101.39,-200"/>
<polygon fill="midnightblue" stroke="midnightblue" points="101.58,-203.5 111.58,-200 101.58,-196.5 101.58,-203.5"/>
</g>
<!-- Node6 -->
<g id="node6" class="node">
<title>Node6</title>
<g id="a_node6"><a xlink:href="../../dd/df5/namespaceMyBLAS_1_1Stats.html#a403bf760cf802cddf8dd73e5d3e46a05" target="_top" xlink:title="Function to find the maximum value in a vector.">
<polygon fill="white" stroke="black" points="543,-209.5 543,-228.5 659,-228.5 659,-209.5 543,-209.5"/>
<text text-anchor="middle" x="601" y="-216.5" font-family="Helvetica,sans-Serif" font-size="10.00">MyBLAS::Stats::max</text>
</a>
</g>
</g>
<!-- Node1&#45;&gt;Node6 -->
<g id="edge18" class="edge">
<title>Node1&#45;&gt;Node6</title>
<path fill="none" stroke="midnightblue" d="M71.47,-209.56C84.04,-212.97 98.6,-216.56 112,-219 284.92,-250.48 332.13,-255.68 507,-238 521.78,-236.51 537.68,-233.71 552.07,-230.71"/>
<polygon fill="midnightblue" stroke="midnightblue" points="553.22,-234.04 562.26,-228.51 551.74,-227.2 553.22,-234.04"/>
</g>
<!-- Node8 -->
<g id="node8" class="node">
<title>Node8</title>
<g id="a_node8"><a xlink:href="../../dd/df5/namespaceMyBLAS_1_1Stats.html#ac06efe71c44675ea021ddeb404d730dc" target="_top" xlink:title="Function to find the minimum value in a vector.">
<polygon fill="white" stroke="black" points="544.5,-152.5 544.5,-171.5 657.5,-171.5 657.5,-152.5 544.5,-152.5"/>
<text text-anchor="middle" x="601" y="-159.5" font-family="Helvetica,sans-Serif" font-size="10.00">MyBLAS::Stats::min</text>
</a>
</g>
</g>
<!-- Node1&#45;&gt;Node8 -->
<g id="edge19" class="edge">
<title>Node1&#45;&gt;Node8</title>
<path fill="none" stroke="midnightblue" d="M70.73,-190.5C83.45,-187.01 98.32,-183.35 112,-181 285.29,-151.21 331.2,-156.17 507,-159 515.8,-159.14 525.07,-159.36 534.21,-159.61"/>
<polygon fill="midnightblue" stroke="midnightblue" points="534.34,-163.12 544.44,-159.91 534.54,-156.12 534.34,-163.12"/>
</g>
<!-- Node9 -->
<g id="node9" class="node">
<title>Node9</title>
<g id="a_node9"><a xlink:href="../../db/df1/Helpers_8h.html#a059322c7104ae7ad1ee091c6e7ca17c1" target="_top" xlink:title="Calculates the number of iterations for a given point in the Julia set.">
<polygon fill="white" stroke="black" points="119.5,-67.5 119.5,-86.5 219.5,-86.5 219.5,-67.5 119.5,-67.5"/>
<text text-anchor="middle" x="169.5" y="-74.5" font-family="Helvetica,sans-Serif" font-size="10.00">juliaSetIterations</text>
</a>
</g>
</g>
<!-- Node1&#45;&gt;Node9 -->
<g id="edge11" class="edge">
<title>Node1&#45;&gt;Node9</title>
<path fill="none" stroke="midnightblue" d="M45.09,-190.38C56.55,-172.8 82.83,-135.02 112,-110 120.21,-102.96 130.14,-96.58 139.36,-91.36"/>
<polygon fill="midnightblue" stroke="midnightblue" points="141.14,-94.38 148.26,-86.54 137.8,-88.23 141.14,-94.38"/>
</g>
<!-- Node4 -->
<g id="node4" class="node">
<title>Node4</title>
<g id="a_node4"><a xlink:href="../../db/df1/Helpers_8h.html#adbb387f590a9aee9c19ca2752ec93a12" target="_top" xlink:title="This function fills a vector with evenly spaced values between a start and end value.">
<polygon fill="white" stroke="black" points="270.5,-190.5 270.5,-209.5 344.5,-209.5 344.5,-190.5 270.5,-190.5"/>
<text text-anchor="middle" x="307.5" y="-197.5" font-family="Helvetica,sans-Serif" font-size="10.00">fill_linspace</text>
</a>
</g>
</g>
<!-- Node3&#45;&gt;Node4 -->
<g id="edge3" class="edge">
<title>Node3&#45;&gt;Node4</title>
<path fill="none" stroke="midnightblue" d="M227.39,-200C238.31,-200 249.62,-200 260.15,-200"/>
<polygon fill="midnightblue" stroke="midnightblue" points="260.39,-203.5 270.39,-200 260.39,-196.5 260.39,-203.5"/>
</g>
<!-- Node3&#45;&gt;Node6 -->
<g id="edge9" class="edge">
<title>Node3&#45;&gt;Node6</title>
<path fill="none" stroke="midnightblue" d="M208.04,-209.51C224.74,-213.27 244.73,-217.14 263,-219 356.15,-228.47 464.54,-226.1 532.71,-222.99"/>
<polygon fill="midnightblue" stroke="midnightblue" points="533.06,-226.48 542.88,-222.51 532.72,-219.49 533.06,-226.48"/>
</g>
<!-- Node3&#45;&gt;Node8 -->
<g id="edge10" class="edge">
<title>Node3&#45;&gt;Node8</title>
<path fill="none" stroke="midnightblue" d="M210.35,-190.48C226.59,-186.96 245.6,-183.26 263,-181 356.69,-168.8 466.03,-164.43 534.15,-162.87"/>
<polygon fill="midnightblue" stroke="midnightblue" points="534.39,-166.37 544.31,-162.65 534.24,-159.37 534.39,-166.37"/>
</g>
<!-- Node5 -->
<g id="node5" class="node">
<title>Node5</title>
<g id="a_node5"><a xlink:href="../../d6/d03/namespaceRandom.html#a0a28065abe9fb360714369ba4956aca7" target="_top" xlink:title="Generates a vector of random numbers.">
<polygon fill="white" stroke="black" points="394,-190.5 394,-209.5 501,-209.5 501,-190.5 394,-190.5"/>
<text text-anchor="middle" x="447.5" y="-197.5" font-family="Helvetica,sans-Serif" font-size="10.00">Random::generate</text>
</a>
</g>
</g>
<!-- Node4&#45;&gt;Node5 -->
<g id="edge4" class="edge">
<title>Node4&#45;&gt;Node5</title>
<path fill="none" stroke="midnightblue" d="M344.76,-200C356.72,-200 370.39,-200 383.75,-200"/>
<polygon fill="midnightblue" stroke="midnightblue" points="383.87,-203.5 393.87,-200 383.87,-196.5 383.87,-203.5"/>
</g>
<!-- Node5&#45;&gt;Node6 -->
<g id="edge5" class="edge">
<title>Node5&#45;&gt;Node6</title>
<path fill="none" stroke="midnightblue" d="M501.06,-206.59C511.29,-207.88 522.15,-209.24 532.78,-210.57"/>
<polygon fill="midnightblue" stroke="midnightblue" points="532.52,-214.06 542.88,-211.84 533.39,-207.12 532.52,-214.06"/>
</g>
<!-- Node5&#45;&gt;Node8 -->
<g id="edge7" class="edge">
<title>Node5&#45;&gt;Node8</title>
<path fill="none" stroke="midnightblue" d="M486.73,-190.41C506.63,-185.42 531.16,-179.27 552.29,-173.97"/>
<polygon fill="midnightblue" stroke="midnightblue" points="553.2,-177.35 562.05,-171.52 551.49,-170.56 553.2,-177.35"/>
</g>
<!-- Node7 -->
<g id="node7" class="node">
<title>Node7</title>
<g id="a_node7"><a xlink:href="../../d4/d4d/classMyBLAS_1_1Vector.html#a6188d71192e096e25ae1c1a46150a0ab" target="_top" xlink:title="Getter for the vector data.">
<polygon fill="white" stroke="black" points="695,-152.5 695,-171.5 834,-171.5 834,-152.5 695,-152.5"/>
<text text-anchor="middle" x="764.5" y="-159.5" font-family="Helvetica,sans-Serif" font-size="10.00">MyBLAS::Vector::getData</text>
</a>
</g>
</g>
<!-- Node6&#45;&gt;Node7 -->
<g id="edge6" class="edge">
<title>Node6&#45;&gt;Node7</title>
<path fill="none" stroke="midnightblue" d="M629.03,-209.46C655.82,-200.01 697.03,-185.46 726.77,-174.96"/>
<polygon fill="midnightblue" stroke="midnightblue" points="728.12,-178.2 736.38,-171.57 725.79,-171.6 728.12,-178.2"/>
</g>
<!-- Node8&#45;&gt;Node7 -->
<g id="edge8" class="edge">
<title>Node8&#45;&gt;Node7</title>
<path fill="none" stroke="midnightblue" d="M657.58,-162C666.42,-162 675.72,-162 684.97,-162"/>
<polygon fill="midnightblue" stroke="midnightblue" points="684.97,-165.5 694.97,-162 684.97,-158.5 684.97,-165.5"/>
</g>
<!-- Node10 -->
<g id="node10" class="node">
<title>Node10</title>
<g id="a_node10"><a xlink:href="../../d2/d6e/namespaceMyBLAS.html#ac12a3b113ae6b7edd2fcb21280c0f804" target="_top" xlink:title="A template function to calculate the norm of a vector.">
<polygon fill="white" stroke="black" points="263,-57.5 263,-76.5 352,-76.5 352,-57.5 263,-57.5"/>
<text text-anchor="middle" x="307.5" y="-64.5" font-family="Helvetica,sans-Serif" font-size="10.00">MyBLAS::norm</text>
</a>
</g>
</g>
<!-- Node9&#45;&gt;Node10 -->
<g id="edge12" class="edge">
<title>Node9&#45;&gt;Node10</title>
<path fill="none" stroke="midnightblue" d="M219.6,-73.39C230.32,-72.6 241.73,-71.76 252.63,-70.96"/>
<polygon fill="midnightblue" stroke="midnightblue" points="253.17,-74.43 262.88,-70.21 252.65,-67.45 253.17,-74.43"/>
</g>
<!-- Node11 -->
<g id="node11" class="node">
<title>Node11</title>
<g id="a_node11"><a xlink:href="../../de/d4d/namespaceMyMath.html#af3e9a9de7b922fdfb6e3d2988b1212ff" target="_top" xlink:title="A template function to calculate the power of a base number.">
<polygon fill="white" stroke="black" points="406,-0.5 406,-19.5 489,-19.5 489,-0.5 406,-0.5"/>
<text text-anchor="middle" x="447.5" y="-7.5" font-family="Helvetica,sans-Serif" font-size="10.00">MyMath::pow</text>
</a>
</g>
</g>
<!-- Node10&#45;&gt;Node11 -->
<g id="edge13" class="edge">
<title>Node10&#45;&gt;Node11</title>
<path fill="none" stroke="midnightblue" d="M331.45,-57.44C347.32,-50.84 368.94,-41.87 388,-34 396.31,-30.57 405.3,-26.88 413.67,-23.44"/>
<polygon fill="midnightblue" stroke="midnightblue" points="415.22,-26.59 423.15,-19.55 412.57,-20.11 415.22,-26.59"/>
</g>
<!-- Node13 -->
<g id="node13" class="node">
<title>Node13</title>
<g id="a_node13"><a xlink:href="../../d4/d4d/classMyBLAS_1_1Vector.html#aae30f8178e4a34d332317c61e77c147a" target="_top" xlink:title="Getter for the size of the vector.">
<polygon fill="white" stroke="black" points="388,-76.5 388,-95.5 507,-95.5 507,-76.5 388,-76.5"/>
<text text-anchor="middle" x="447.5" y="-83.5" font-family="Helvetica,sans-Serif" font-size="10.00">MyBLAS::Vector::size</text>
</a>
</g>
</g>
<!-- Node10&#45;&gt;Node13 -->
<g id="edge15" class="edge">
<title>Node10&#45;&gt;Node13</title>
<path fill="none" stroke="midnightblue" d="M352.16,-73.01C360.43,-74.15 369.25,-75.36 378.06,-76.58"/>
<polygon fill="midnightblue" stroke="midnightblue" points="377.59,-80.05 387.98,-77.94 378.55,-73.11 377.59,-80.05"/>
</g>
<!-- Node14 -->
<g id="node14" class="node">
<title>Node14</title>
<g id="a_node14"><a xlink:href="../../dd/df5/namespaceMyBLAS_1_1Stats.html#aaa0d2e3d22af2b7894169b7c90ba6146" target="_top" xlink:title="Function to find the sum of all elements in a vector.">
<polygon fill="white" stroke="black" points="543.5,-76.5 543.5,-95.5 658.5,-95.5 658.5,-76.5 543.5,-76.5"/>
<text text-anchor="middle" x="601" y="-83.5" font-family="Helvetica,sans-Serif" font-size="10.00">MyBLAS::Stats::sum</text>
</a>
</g>
</g>
<!-- Node10&#45;&gt;Node14 -->
<g id="edge16" class="edge">
<title>Node10&#45;&gt;Node14</title>
<path fill="none" stroke="midnightblue" d="M352.39,-64.47C392.69,-62.75 454.03,-61.64 507,-67 521.78,-68.49 537.68,-71.29 552.07,-74.29"/>
<polygon fill="midnightblue" stroke="midnightblue" points="551.74,-77.8 562.26,-76.49 553.22,-70.96 551.74,-77.8"/>
</g>
<!-- Node12 -->
<g id="node12" class="node">
<title>Node12</title>
<g id="a_node12"><a xlink:href="../../de/d4d/namespaceMyMath.html#a5f2b6e445ba885637efd0db1a7708919" target="_top" xlink:title="A template specialization function to calculate the power of a __float128 base number.">
<polygon fill="white" stroke="black" points="559.5,-0.5 559.5,-19.5 642.5,-19.5 642.5,-0.5 559.5,-0.5"/>
<text text-anchor="middle" x="601" y="-7.5" font-family="Helvetica,sans-Serif" font-size="10.00">MyMath::pow</text>
</a>
</g>
</g>
<!-- Node11&#45;&gt;Node12 -->
<g id="edge14" class="edge">
<title>Node11&#45;&gt;Node12</title>
<path fill="none" stroke="midnightblue" d="M489.1,-10C507.52,-10 529.52,-10 549.04,-10"/>
<polygon fill="midnightblue" stroke="midnightblue" points="549.29,-13.5 559.29,-10 549.29,-6.5 549.29,-13.5"/>
</g>
<!-- Node14&#45;&gt;Node7 -->
<g id="edge17" class="edge">
<title>Node14&#45;&gt;Node7</title>
<path fill="none" stroke="midnightblue" d="M622.45,-95.63C650.61,-108.87 701.48,-132.81 733.82,-148.03"/>
<polygon fill="midnightblue" stroke="midnightblue" points="732.67,-151.36 743.21,-152.45 735.65,-145.03 732.67,-151.36"/>
</g>
</g>
</svg>
        <g id="navigator" transform="translate(0 0)" fill="#404254">
                <rect fill="#f2f5e9" fill-opacity="0.5" stroke="#606060" stroke-width=".5" x="0" y="0" width="60" height="60"/>
                <use id="zoomplus" xlink:href="#zoomPlus" x="17" y="9" onmousedown="handleZoom(evt,'in')"/>
                <use id="zoomminus" xlink:href="#zoomMin" x="42" y="9" onmousedown="handleZoom(evt,'out')"/>
                <use id="reset" xlink:href="#resetDef" x="30" y="36" onmousedown="handleReset()"/>
                <g id="arrowUp" xlink:href="#dirArrow" transform="translate(30 24)" onmousedown="handlePan(0,-1)">
                  <use xlink:href="#rim" fill="#404040">
                        <set attributeName="fill" to="#808080" begin="arrowUp.mouseover" end="arrowUp.mouseout"/>
                  </use>
                  <path fill="none" stroke="white" stroke-width="1.5" d="M0,-3.0v7 M-2.5,-0.5L0,-3.0L2.5,-0.5"/>
                </g>
                <g id="arrowRight" xlink:href="#dirArrow" transform="rotate(90) translate(36 -43)" onmousedown="handlePan(1,0)">
                  <use xlink:href="#rim" fill="#404040">
                        <set attributeName="fill" to="#808080" begin="arrowRight.mouseover" end="arrowRight.mouseout"/>
                  </use>
                  <path fill="none" stroke="white" stroke-width="1.5" d="M0,-3.0v7 M-2.5,-0.5L0,-3.0L2.5,-0.5"/>
                </g>
                <g id="arrowDown" xlink:href="#dirArrow" transform="rotate(180) translate(-30 -48)" onmousedown="handlePan(0,1)">
                  <use xlink:href="#rim" fill="#404040">
                        <set attributeName="fill" to="#808080" begin="arrowDown.mouseover" end="arrowDown.mouseout"/>
                  </use>
                  <path fill="none" stroke="white" stroke-width="1.5" d="M0,-3.0v7 M-2.5,-0.5L0,-3.0L2.5,-0.5"/>
                </g>
                <g id="arrowLeft" xlink:href="#dirArrow" transform="rotate(270) translate(-36 17)" onmousedown="handlePan(-1,0)">
                  <use xlink:href="#rim" fill="#404040">
                        <set attributeName="fill" to="#808080" begin="arrowLeft.mouseover" end="arrowLeft.mouseout"/>
                  </use>
                  <path fill="none" stroke="white" stroke-width="1.5" d="M0,-3.0v7 M-2.5,-0.5L0,-3.0L2.5,-0.5"/>
                </g>
        </g>
        <svg viewBox="0 0 15 15" width="100%" height="30px" preserveAspectRatio="xMaxYMin meet">
         <g id="arrow_out" transform="scale(0.3 0.3)">
          <a xlink:href="Helpers_8h_ae8d5abc9a487df9eaa8058819e252d0f_cgraph_org.svg" target="_base">
           <rect id="button" ry="5" rx="5" y="6" x="6" height="38" width="38"
                fill="#f2f5e9" fill-opacity="0.5" stroke="#606060" stroke-width="1.0"/>
           <path id="arrow"
             d="M 11.500037,31.436501 C 11.940474,20.09759 22.043105,11.32322 32.158766,21.979434 L 37.068811,17.246167 C 37.068811,17.246167 37.088388,32 37.088388,32 L 22.160133,31.978069 C 22.160133,31.978069 26.997745,27.140456 26.997745,27.140456 C 18.528582,18.264221 13.291696,25.230495 11.500037,31.436501 z"
             style="fill:#404040;"/>
          </a>
         </g>
        </svg>
</svg>
