<?xml version="1.0" encoding="UTF-8" standalone="no"?>
<!DOCTYPE svg PUBLIC "-//W3C//DTD SVG 1.1//EN"
 "http://www.w3.org/Graphics/SVG/1.1/DTD/svg11.dtd">
<!-- Generated by graphviz version 2.43.0 (0)
 -->
<!-- Title: getGrays256bitANSI Pages: 1 -->
<svg width="672pt" height="66pt"
 viewBox="0.00 0.00 672.00 66.00" xmlns="http://www.w3.org/2000/svg" xmlns:xlink="http://www.w3.org/1999/xlink">
<g id="graph0" class="graph" transform="scale(1 1) rotate(0) translate(4 62)">
<title>getGrays256bitANSI</title>
<polygon fill="white" stroke="transparent" points="-4,4 -4,-62 668,-62 668,4 -4,4"/>
<!-- Node1 -->
<g id="node1" class="node">
<title>Node1</title>
<g id="a_node1"><a xlink:title="Generates a vector of 256&#45;bit ANSI gray shades.">
<polygon fill="#bfbfbf" stroke="black" points="0,-19.5 0,-38.5 115,-38.5 115,-19.5 0,-19.5"/>
<text text-anchor="middle" x="57.5" y="-26.5" font-family="Helvetica,sans-Serif" font-size="10.00">getGrays256bitANSI</text>
</a>
</g>
</g>
<!-- Node2 -->
<g id="node2" class="node">
<title>Node2</title>
<g id="a_node2"><a xlink:href="../../db/df1/Helpers_8h.html#adbb387f590a9aee9c19ca2752ec93a12" target="_top" xlink:title="This function fills a vector with evenly spaced values between a start and end value.">
<polygon fill="white" stroke="black" points="151,-19.5 151,-38.5 225,-38.5 225,-19.5 151,-19.5"/>
<text text-anchor="middle" x="188" y="-26.5" font-family="Helvetica,sans-Serif" font-size="10.00">fill_linspace</text>
</a>
</g>
</g>
<!-- Node1&#45;&gt;Node2 -->
<g id="edge1" class="edge">
<title>Node1&#45;&gt;Node2</title>
<path fill="none" stroke="midnightblue" d="M115.24,-29C123.75,-29 132.43,-29 140.69,-29"/>
<polygon fill="midnightblue" stroke="midnightblue" points="140.87,-32.5 150.87,-29 140.87,-25.5 140.87,-32.5"/>
</g>
<!-- Node4 -->
<g id="node4" class="node">
<title>Node4</title>
<g id="a_node4"><a xlink:href="../../d2/d6e/namespaceMyBLAS.html#a990467e8430064e652754897d099b7bf" target="_top" xlink:title="Calculates the maximum value of the vector.">
<polygon fill="white" stroke="black" points="404,-38.5 404,-57.5 489,-57.5 489,-38.5 404,-38.5"/>
<text text-anchor="middle" x="446.5" y="-45.5" font-family="Helvetica,sans-Serif" font-size="10.00">MyBLAS::max</text>
</a>
</g>
</g>
<!-- Node1&#45;&gt;Node4 -->
<g id="edge9" class="edge">
<title>Node1&#45;&gt;Node4</title>
<path fill="none" stroke="midnightblue" d="M96.04,-38.51C112.74,-42.27 132.73,-46.14 151,-48 235.69,-56.61 334.8,-54.02 393.74,-51.16"/>
<polygon fill="midnightblue" stroke="midnightblue" points="394.1,-54.64 403.91,-50.64 393.75,-47.65 394.1,-54.64"/>
</g>
<!-- Node7 -->
<g id="node7" class="node">
<title>Node7</title>
<g id="a_node7"><a xlink:href="../../d2/d6e/namespaceMyBLAS.html#a50834683eb1a4cb5adbe71091be113c7" target="_top" xlink:title="Calculates the minimum value of the vector.">
<polygon fill="white" stroke="black" points="405.5,-0.5 405.5,-19.5 487.5,-19.5 487.5,-0.5 405.5,-0.5"/>
<text text-anchor="middle" x="446.5" y="-7.5" font-family="Helvetica,sans-Serif" font-size="10.00">MyBLAS::min</text>
</a>
</g>
</g>
<!-- Node1&#45;&gt;Node7 -->
<g id="edge10" class="edge">
<title>Node1&#45;&gt;Node7</title>
<path fill="none" stroke="midnightblue" d="M96.04,-19.49C112.74,-15.73 132.73,-11.86 151,-10 236.41,-1.32 336.48,-4.03 395.23,-6.92"/>
<polygon fill="midnightblue" stroke="midnightblue" points="395.19,-10.42 405.36,-7.44 395.55,-3.43 395.19,-10.42"/>
</g>
<!-- Node3 -->
<g id="node3" class="node">
<title>Node3</title>
<g id="a_node3"><a xlink:href="../../d6/d03/namespaceRandom.html#a26c3caf157a29ac9d9227ec40248c845" target="_top" xlink:title="Generates a vector of random numbers.">
<polygon fill="white" stroke="black" points="261,-19.5 261,-38.5 368,-38.5 368,-19.5 261,-19.5"/>
<text text-anchor="middle" x="314.5" y="-26.5" font-family="Helvetica,sans-Serif" font-size="10.00">Random::generate</text>
</a>
</g>
</g>
<!-- Node2&#45;&gt;Node3 -->
<g id="edge2" class="edge">
<title>Node2&#45;&gt;Node3</title>
<path fill="none" stroke="midnightblue" d="M225.01,-29C233.06,-29 241.83,-29 250.62,-29"/>
<polygon fill="midnightblue" stroke="midnightblue" points="250.9,-32.5 260.9,-29 250.9,-25.5 250.9,-32.5"/>
</g>
<!-- Node3&#45;&gt;Node4 -->
<g id="edge3" class="edge">
<title>Node3&#45;&gt;Node4</title>
<path fill="none" stroke="midnightblue" d="M368,-36.67C376.52,-37.92 385.33,-39.21 393.83,-40.45"/>
<polygon fill="midnightblue" stroke="midnightblue" points="393.59,-43.95 403.99,-41.93 394.61,-37.02 393.59,-43.95"/>
</g>
<!-- Node3&#45;&gt;Node7 -->
<g id="edge6" class="edge">
<title>Node3&#45;&gt;Node7</title>
<path fill="none" stroke="midnightblue" d="M368,-21.33C377.01,-20.01 386.36,-18.64 395.31,-17.34"/>
<polygon fill="midnightblue" stroke="midnightblue" points="395.81,-20.8 405.2,-15.89 394.8,-13.87 395.81,-20.8"/>
</g>
<!-- Node5 -->
<g id="node5" class="node">
<title>Node5</title>
<g id="a_node5"><a xlink:href="../../d4/d4d/classMyBLAS_1_1Vector.html#a6188d71192e096e25ae1c1a46150a0ab" target="_top" xlink:title="Getter for the vector data.">
<polygon fill="white" stroke="black" points="525,-38.5 525,-57.5 664,-57.5 664,-38.5 525,-38.5"/>
<text text-anchor="middle" x="594.5" y="-45.5" font-family="Helvetica,sans-Serif" font-size="10.00">MyBLAS::Vector::getData</text>
</a>
</g>
</g>
<!-- Node4&#45;&gt;Node5 -->
<g id="edge4" class="edge">
<title>Node4&#45;&gt;Node5</title>
<path fill="none" stroke="midnightblue" d="M489.34,-48C497.33,-48 505.94,-48 514.66,-48"/>
<polygon fill="midnightblue" stroke="midnightblue" points="514.92,-51.5 524.92,-48 514.92,-44.5 514.92,-51.5"/>
</g>
<!-- Node6 -->
<g id="node6" class="node">
<title>Node6</title>
<g id="a_node6"><a xlink:href="../../d4/d4d/classMyBLAS_1_1Vector.html#aae30f8178e4a34d332317c61e77c147a" target="_top" xlink:title="Getter for the size of the vector.">
<polygon fill="white" stroke="black" points="535,-0.5 535,-19.5 654,-19.5 654,-0.5 535,-0.5"/>
<text text-anchor="middle" x="594.5" y="-7.5" font-family="Helvetica,sans-Serif" font-size="10.00">MyBLAS::Vector::size</text>
</a>
</g>
</g>
<!-- Node4&#45;&gt;Node6 -->
<g id="edge5" class="edge">
<title>Node4&#45;&gt;Node6</title>
<path fill="none" stroke="midnightblue" d="M484.34,-38.41C503.35,-33.46 526.73,-27.38 546.97,-22.11"/>
<polygon fill="midnightblue" stroke="midnightblue" points="548.13,-25.43 556.92,-19.52 546.36,-18.65 548.13,-25.43"/>
</g>
<!-- Node7&#45;&gt;Node5 -->
<g id="edge7" class="edge">
<title>Node7&#45;&gt;Node5</title>
<path fill="none" stroke="midnightblue" d="M484.34,-19.59C503.35,-24.54 526.73,-30.62 546.97,-35.89"/>
<polygon fill="midnightblue" stroke="midnightblue" points="546.36,-39.35 556.92,-38.48 548.13,-32.57 546.36,-39.35"/>
</g>
<!-- Node7&#45;&gt;Node6 -->
<g id="edge8" class="edge">
<title>Node7&#45;&gt;Node6</title>
<path fill="none" stroke="midnightblue" d="M487.78,-10C499.24,-10 512.05,-10 524.69,-10"/>
<polygon fill="midnightblue" stroke="midnightblue" points="524.76,-13.5 534.76,-10 524.76,-6.5 524.76,-13.5"/>
</g>
</g>
</svg>
