<?xml version="1.0" encoding="UTF-8" standalone="no"?>
<!DOCTYPE svg PUBLIC "-//W3C//DTD SVG 1.1//EN"
 "http://www.w3.org/Graphics/SVG/1.1/DTD/svg11.dtd">
<!-- Generated by graphviz version 2.43.0 (0)
 -->
<!-- Title: computeMeanStd Pages: 1 -->
<svg width="428pt" height="180pt"
 viewBox="0.00 0.00 428.00 180.00" xmlns="http://www.w3.org/2000/svg" xmlns:xlink="http://www.w3.org/1999/xlink">
<g id="graph0" class="graph" transform="scale(1 1) rotate(0) translate(4 176)">
<title>computeMeanStd</title>
<polygon fill="white" stroke="transparent" points="-4,4 -4,-176 424,-176 424,4 -4,4"/>
<!-- Node1 -->
<g id="node1" class="node">
<title>Node1</title>
<g id="a_node1"><a xlink:title="Computes the mean and variance of a numeric vector using Boost Accumulators.">
<polygon fill="#bfbfbf" stroke="black" points="318,-76.5 318,-95.5 420,-95.5 420,-76.5 318,-76.5"/>
<text text-anchor="middle" x="369" y="-83.5" font-family="Helvetica,sans-Serif" font-size="10.00">computeMeanStd</text>
</a>
</g>
</g>
<!-- Node2 -->
<g id="node2" class="node">
<title>Node2</title>
<g id="a_node2"><a xlink:href="../../de/db3/namespaceCompute.html#a017b511b9ab24d2388a864d6cb14c1cc" target="_top" xlink:title="Solves a linear system using the Gauss&#45;Seidel method.">
<polygon fill="white" stroke="black" points="122,-152.5 122,-171.5 275,-171.5 275,-152.5 122,-152.5"/>
<text text-anchor="middle" x="198.5" y="-159.5" font-family="Helvetica,sans-Serif" font-size="10.00">Compute::usingGaussSeidel</text>
</a>
</g>
</g>
<!-- Node1&#45;&gt;Node2 -->
<g id="edge1" class="edge">
<title>Node1&#45;&gt;Node2</title>
<path fill="none" stroke="midnightblue" d="M348.63,-101.8C331.93,-114.68 306.67,-132.4 282,-143 273.09,-146.83 263.29,-149.95 253.65,-152.47"/>
<polygon fill="midnightblue" stroke="midnightblue" points="350.85,-104.51 356.54,-95.57 346.52,-99.01 350.85,-104.51"/>
</g>
<!-- Node3 -->
<g id="node3" class="node">
<title>Node3</title>
<g id="a_node3"><a xlink:href="../../de/db3/namespaceCompute.html#a3b30a49d004f8370d19cd13f6492ddba" target="_top" xlink:title="Solves a linear system using the Jacobi SOR method.">
<polygon fill="white" stroke="black" points="127,-76.5 127,-95.5 270,-95.5 270,-76.5 127,-76.5"/>
<text text-anchor="middle" x="198.5" y="-83.5" font-family="Helvetica,sans-Serif" font-size="10.00">Compute::usingJacobiSOR</text>
</a>
</g>
</g>
<!-- Node1&#45;&gt;Node3 -->
<g id="edge2" class="edge">
<title>Node1&#45;&gt;Node3</title>
<path fill="none" stroke="midnightblue" d="M307.87,-86C295.7,-86 282.8,-86 270.3,-86"/>
<polygon fill="midnightblue" stroke="midnightblue" points="307.9,-89.5 317.9,-86 307.9,-82.5 307.9,-89.5"/>
</g>
<!-- Node6 -->
<g id="node6" class="node">
<title>Node6</title>
<g id="a_node6"><a xlink:href="../../de/db3/namespaceCompute.html#a9aaa2e3c1db51432d5a62c1d4541fd90" target="_top" xlink:title="Solves a linear system using LUP decomposition.">
<polygon fill="white" stroke="black" points="142.5,-114.5 142.5,-133.5 254.5,-133.5 254.5,-114.5 142.5,-114.5"/>
<text text-anchor="middle" x="198.5" y="-121.5" font-family="Helvetica,sans-Serif" font-size="10.00">Compute::usingLUP</text>
</a>
</g>
</g>
<!-- Node1&#45;&gt;Node6 -->
<g id="edge5" class="edge">
<title>Node1&#45;&gt;Node6</title>
<path fill="none" stroke="midnightblue" d="M315.57,-97.82C291.81,-103.18 264.1,-109.43 241.71,-114.48"/>
<polygon fill="midnightblue" stroke="midnightblue" points="316.5,-101.2 325.48,-95.59 314.96,-94.37 316.5,-101.2"/>
</g>
<!-- Node7 -->
<g id="node7" class="node">
<title>Node7</title>
<g id="a_node7"><a xlink:href="../../de/db3/namespaceCompute.html#acfa0341940d2764e69d254afdc2cbb23" target="_top" xlink:title="Solves a linear system using the Successive Over&#45;Relaxation (SOR) method.">
<polygon fill="white" stroke="black" points="142,-38.5 142,-57.5 255,-57.5 255,-38.5 142,-38.5"/>
<text text-anchor="middle" x="198.5" y="-45.5" font-family="Helvetica,sans-Serif" font-size="10.00">Compute::usingSOR</text>
</a>
</g>
</g>
<!-- Node1&#45;&gt;Node7 -->
<g id="edge8" class="edge">
<title>Node1&#45;&gt;Node7</title>
<path fill="none" stroke="midnightblue" d="M315.57,-74.18C291.81,-68.82 264.1,-62.57 241.71,-57.52"/>
<polygon fill="midnightblue" stroke="midnightblue" points="314.96,-77.63 325.48,-76.41 316.5,-70.8 314.96,-77.63"/>
</g>
<!-- Node8 -->
<g id="node8" class="node">
<title>Node8</title>
<g id="a_node8"><a xlink:href="../../de/db3/namespaceCompute.html#ab38c6016d5c4907c1f4f468600278560" target="_top" xlink:title="Solves a linear system using the Symmetric SOR method.">
<polygon fill="white" stroke="black" points="115,-0.5 115,-19.5 282,-19.5 282,-0.5 115,-0.5"/>
<text text-anchor="middle" x="198.5" y="-7.5" font-family="Helvetica,sans-Serif" font-size="10.00">Compute::usingSymmetricSOR</text>
</a>
</g>
</g>
<!-- Node1&#45;&gt;Node8 -->
<g id="edge9" class="edge">
<title>Node1&#45;&gt;Node8</title>
<path fill="none" stroke="midnightblue" d="M348.63,-70.2C331.93,-57.32 306.67,-39.6 282,-29 273.09,-25.17 263.29,-22.05 253.65,-19.53"/>
<polygon fill="midnightblue" stroke="midnightblue" points="346.52,-72.99 356.54,-76.43 350.85,-67.49 346.52,-72.99"/>
</g>
<!-- Node4 -->
<g id="node4" class="node">
<title>Node4</title>
<g id="a_node4"><a xlink:href="../../d0/d4c/classOutLab6.html#a901a1283fd029c9174f8469ac5cb3ad8" target="_top" xlink:title="This function runs the computation.">
<polygon fill="white" stroke="black" points="0,-114.5 0,-133.5 79,-133.5 79,-114.5 0,-114.5"/>
<text text-anchor="middle" x="39.5" y="-121.5" font-family="Helvetica,sans-Serif" font-size="10.00">OutLab6::run</text>
</a>
</g>
</g>
<!-- Node3&#45;&gt;Node4 -->
<g id="edge3" class="edge">
<title>Node3&#45;&gt;Node4</title>
<path fill="none" stroke="midnightblue" d="M145.2,-97.85C135.16,-100.18 124.75,-102.63 115,-105 102.68,-107.99 89.24,-111.38 77.21,-114.46"/>
<polygon fill="midnightblue" stroke="midnightblue" points="146.1,-101.23 155.06,-95.57 144.53,-94.41 146.1,-101.23"/>
</g>
<!-- Node5 -->
<g id="node5" class="node">
<title>Node5</title>
<g id="a_node5"><a xlink:href="../../dd/db5/classProject2.html#a0990db917f6a27a4e1cb9ac885698524" target="_top" xlink:title="This function runs the project.">
<polygon fill="white" stroke="black" points="0.5,-76.5 0.5,-95.5 78.5,-95.5 78.5,-76.5 0.5,-76.5"/>
<text text-anchor="middle" x="39.5" y="-83.5" font-family="Helvetica,sans-Serif" font-size="10.00">Project2::run</text>
</a>
</g>
</g>
<!-- Node3&#45;&gt;Node5 -->
<g id="edge4" class="edge">
<title>Node3&#45;&gt;Node5</title>
<path fill="none" stroke="midnightblue" d="M116.66,-86C103.37,-86 90.18,-86 78.6,-86"/>
<polygon fill="midnightblue" stroke="midnightblue" points="116.81,-89.5 126.81,-86 116.81,-82.5 116.81,-89.5"/>
</g>
<!-- Node6&#45;&gt;Node4 -->
<g id="edge6" class="edge">
<title>Node6&#45;&gt;Node4</title>
<path fill="none" stroke="midnightblue" d="M131.98,-124C113.98,-124 95.05,-124 79.1,-124"/>
<polygon fill="midnightblue" stroke="midnightblue" points="132.15,-127.5 142.15,-124 132.15,-120.5 132.15,-127.5"/>
</g>
<!-- Node6&#45;&gt;Node5 -->
<g id="edge7" class="edge">
<title>Node6&#45;&gt;Node5</title>
<path fill="none" stroke="midnightblue" d="M145.2,-112.15C135.16,-109.82 124.75,-107.37 115,-105 102.68,-102.01 89.24,-98.62 77.21,-95.54"/>
<polygon fill="midnightblue" stroke="midnightblue" points="144.53,-115.59 155.06,-114.43 146.1,-108.77 144.53,-115.59"/>
</g>
</g>
</svg>
