<?xml version="1.0" encoding="UTF-8" standalone="no"?>
<!DOCTYPE svg PUBLIC "-//W3C//DTD SVG 1.1//EN"
 "http://www.w3.org/Graphics/SVG/1.1/DTD/svg11.dtd">
<!-- Generated by graphviz version 2.43.0 (0)
 -->
<!-- Title: failsExclusiveRangeCheck Pages: 1 -->
<svg width="480pt" height="66pt"
 viewBox="0.00 0.00 480.00 66.00" xmlns="http://www.w3.org/2000/svg" xmlns:xlink="http://www.w3.org/1999/xlink">
<g id="graph0" class="graph" transform="scale(1 1) rotate(0) translate(4 62)">
<title>failsExclusiveRangeCheck</title>
<polygon fill="white" stroke="transparent" points="-4,4 -4,-62 476,-62 476,4 -4,4"/>
<!-- Node1 -->
<g id="node1" class="node">
<title>Node1</title>
<g id="a_node1"><a xlink:title="Checks if the input value is within the specified range (exclusive).">
<polygon fill="#bfbfbf" stroke="black" points="0,-19.5 0,-38.5 145,-38.5 145,-19.5 0,-19.5"/>
<text text-anchor="middle" x="72.5" y="-26.5" font-family="Helvetica,sans-Serif" font-size="10.00">failsExclusiveRangeCheck</text>
</a>
</g>
</g>
<!-- Node2 -->
<g id="node2" class="node">
<title>Node2</title>
<g id="a_node2"><a xlink:href="../../dd/df5/namespaceMyBLAS_1_1Stats.html#a403bf760cf802cddf8dd73e5d3e46a05" target="_top" xlink:title="Function to find the maximum value in a vector.">
<polygon fill="white" stroke="black" points="181,-38.5 181,-57.5 297,-57.5 297,-38.5 181,-38.5"/>
<text text-anchor="middle" x="239" y="-45.5" font-family="Helvetica,sans-Serif" font-size="10.00">MyBLAS::Stats::max</text>
</a>
</g>
</g>
<!-- Node1&#45;&gt;Node2 -->
<g id="edge1" class="edge">
<title>Node1&#45;&gt;Node2</title>
<path fill="none" stroke="midnightblue" d="M145.17,-37.28C153.67,-38.26 162.32,-39.26 170.75,-40.23"/>
<polygon fill="midnightblue" stroke="midnightblue" points="170.56,-43.73 180.9,-41.4 171.36,-36.78 170.56,-43.73"/>
</g>
<!-- Node4 -->
<g id="node4" class="node">
<title>Node4</title>
<g id="a_node4"><a xlink:href="../../dd/df5/namespaceMyBLAS_1_1Stats.html#ac06efe71c44675ea021ddeb404d730dc" target="_top" xlink:title="Function to find the minimum value in a vector.">
<polygon fill="white" stroke="black" points="182.5,-0.5 182.5,-19.5 295.5,-19.5 295.5,-0.5 182.5,-0.5"/>
<text text-anchor="middle" x="239" y="-7.5" font-family="Helvetica,sans-Serif" font-size="10.00">MyBLAS::Stats::min</text>
</a>
</g>
</g>
<!-- Node1&#45;&gt;Node4 -->
<g id="edge3" class="edge">
<title>Node1&#45;&gt;Node4</title>
<path fill="none" stroke="midnightblue" d="M145.17,-20.72C154.23,-19.68 163.46,-18.61 172.42,-17.57"/>
<polygon fill="midnightblue" stroke="midnightblue" points="172.86,-21.05 182.39,-16.42 172.06,-14.09 172.86,-21.05"/>
</g>
<!-- Node3 -->
<g id="node3" class="node">
<title>Node3</title>
<g id="a_node3"><a xlink:href="../../d4/d4d/classMyBLAS_1_1Vector.html#a6188d71192e096e25ae1c1a46150a0ab" target="_top" xlink:title="Getter for the vector data.">
<polygon fill="white" stroke="black" points="333,-19.5 333,-38.5 472,-38.5 472,-19.5 333,-19.5"/>
<text text-anchor="middle" x="402.5" y="-26.5" font-family="Helvetica,sans-Serif" font-size="10.00">MyBLAS::Vector::getData</text>
</a>
</g>
</g>
<!-- Node2&#45;&gt;Node3 -->
<g id="edge2" class="edge">
<title>Node2&#45;&gt;Node3</title>
<path fill="none" stroke="midnightblue" d="M297.39,-41.25C305.67,-40.27 314.3,-39.26 322.9,-38.25"/>
<polygon fill="midnightblue" stroke="midnightblue" points="323.44,-41.71 332.96,-37.06 322.62,-34.76 323.44,-41.71"/>
</g>
<!-- Node4&#45;&gt;Node3 -->
<g id="edge4" class="edge">
<title>Node4&#45;&gt;Node3</title>
<path fill="none" stroke="midnightblue" d="M295.58,-16.54C304.42,-17.58 313.72,-18.67 322.97,-19.76"/>
<polygon fill="midnightblue" stroke="midnightblue" points="322.63,-23.25 332.97,-20.94 323.45,-16.29 322.63,-23.25"/>
</g>
</g>
</svg>
