<?xml version="1.0" encoding="UTF-8" standalone="no"?>
<!DOCTYPE svg PUBLIC "-//W3C//DTD SVG 1.1//EN"
 "http://www.w3.org/Graphics/SVG/1.1/DTD/svg11.dtd">
<!-- Generated by graphviz version 2.43.0 (0)
 -->
<!-- Title: src/utils/math/factorization/LUP.h Pages: 1 -->
<!--zoomable 307 -->
<svg id="main" version="1.1" xmlns="http://www.w3.org/2000/svg" xmlns:xlink="http://www.w3.org/1999/xlink" xml:space="preserve" onload="init(evt)">
<style type="text/css"><![CDATA[
.edge:hover path { stroke: red; }
.edge:hover polygon { stroke: red; fill: red; }
]]></style>
<script type="text/javascript"><![CDATA[
var edges = document.getElementsByTagName('g');
if (edges && edges.length) {
  for (var i=0;i<edges.length;i++) {
    if (edges[i].id.substr(0,4)=='edge') {
      edges[i].setAttribute('class','edge');
    }
  }
}
]]></script>
        <defs>
                <circle id="rim" cx="0" cy="0" r="7"/>
                <circle id="rim2" cx="0" cy="0" r="3.5"/>
                <g id="zoomPlus">
                        <use xlink:href="#rim" fill="#404040">
                                <set attributeName="fill" to="#808080" begin="zoomplus.mouseover" end="zoomplus.mouseout"/>
                        </use>
                        <path d="M-4,0h8M0,-4v8" fill="none" stroke="white" stroke-width="1.5" pointer-events="none"/>
                </g>
                <g id="zoomMin">
                        <use xlink:href="#rim" fill="#404040">
                                <set attributeName="fill" to="#808080" begin="zoomminus.mouseover" end="zoomminus.mouseout"/>
                        </use>
                        <path d="M-4,0h8" fill="none" stroke="white" stroke-width="1.5" pointer-events="none"/>
                </g>
                <g id="dirArrow">
                        <path fill="none" stroke="white" stroke-width="1.5" d="M0,-3.0v7 M-2.5,-0.5L0,-3.0L2.5,-0.5"/>
                </g>
               <g id="resetDef">
                       <use xlink:href="#rim2" fill="#404040">
                               <set attributeName="fill" to="#808080" begin="reset.mouseover" end="reset.mouseout"/>
                       </use>
               </g>
        </defs>

<script type="text/javascript">
var viewWidth = 1897;
var viewHeight = 307;
var sectionId = 'dynsection-1';
</script>
<script xlink:href="../../svgpan.js"/>
<svg id="graph" class="graph">
<g id="viewport">
<title>src/utils/math/factorization/LUP.h</title>
<polygon fill="white" stroke="transparent" points="-4,4 -4,-303 1892.5,-303 1892.5,4 -4,4"/>
<!-- Node1 -->
<g id="node1" class="node">
<title>Node1</title>
<g id="a_node1"><a xlink:title="LU factorization with pivoting.">
<polygon fill="#bfbfbf" stroke="black" points="749.5,-268.5 749.5,-298.5 897.5,-298.5 897.5,-268.5 749.5,-268.5"/>
<text text-anchor="start" x="757.5" y="-286.5" font-family="Helvetica,sans-Serif" font-size="10.00">src/utils/math/factorization</text>
<text text-anchor="middle" x="823.5" y="-275.5" font-family="Helvetica,sans-Serif" font-size="10.00">/LUP.h</text>
</a>
</g>
</g>
<!-- Node2 -->
<g id="node2" class="node">
<title>Node2</title>
<g id="a_node2"><a xlink:href="../../d9/d4c/labs_2inlab13_2Compute_8h.html" target="_top" xlink:title="Compute methods for inlab13 in NE591&#45;008.">
<polygon fill="white" stroke="black" points="43,-207 43,-226 192,-226 192,-207 43,-207"/>
<text text-anchor="middle" x="117.5" y="-214" font-family="Helvetica,sans-Serif" font-size="10.00">src/labs/inlab13/Compute.h</text>
</a>
</g>
</g>
<!-- Node1&#45;&gt;Node2 -->
<g id="edge1" class="edge">
<title>Node1&#45;&gt;Node2</title>
<path fill="none" stroke="midnightblue" d="M738.9,-276.72C622.77,-268.48 407.52,-252.1 224.5,-232 208.85,-230.28 191.95,-228.13 176.3,-226.01"/>
<polygon fill="midnightblue" stroke="midnightblue" points="738.92,-280.23 749.14,-277.45 739.42,-273.25 738.92,-280.23"/>
</g>
<!-- Node6 -->
<g id="node6" class="node">
<title>Node6</title>
<g id="a_node6"><a xlink:href="../../dc/da1/labs_2outlab13_2Compute_8h.html" target="_top" xlink:title="Compute methods for outlab13 in NE591&#45;008.">
<polygon fill="white" stroke="black" points="233.5,-207 233.5,-226 389.5,-226 389.5,-207 233.5,-207"/>
<text text-anchor="middle" x="311.5" y="-214" font-family="Helvetica,sans-Serif" font-size="10.00">src/labs/outlab13/Compute.h</text>
</a>
</g>
</g>
<!-- Node1&#45;&gt;Node6 -->
<g id="edge6" class="edge">
<title>Node1&#45;&gt;Node6</title>
<path fill="none" stroke="midnightblue" d="M739.17,-271.79C638.28,-258.99 471.43,-237.8 378.77,-226.04"/>
<polygon fill="midnightblue" stroke="midnightblue" points="738.96,-275.3 749.32,-273.08 739.84,-268.35 738.96,-275.3"/>
</g>
<!-- Node10 -->
<g id="node10" class="node">
<title>Node10</title>
<g id="a_node10"><a xlink:href="../../dc/d21/labs_2outlab6_2Compute_8h.html" target="_top" xlink:title="This file contains the Compute namespace which includes methods for solving linear systems using vari...">
<polygon fill="white" stroke="black" points="441.5,-207 441.5,-226 591.5,-226 591.5,-207 441.5,-207"/>
<text text-anchor="middle" x="516.5" y="-214" font-family="Helvetica,sans-Serif" font-size="10.00">src/labs/outlab6/Compute.h</text>
</a>
</g>
</g>
<!-- Node1&#45;&gt;Node10 -->
<g id="edge11" class="edge">
<title>Node1&#45;&gt;Node10</title>
<path fill="none" stroke="midnightblue" d="M747.39,-266.39C687.04,-253.61 605.08,-236.25 556.78,-226.03"/>
<polygon fill="midnightblue" stroke="midnightblue" points="746.76,-269.83 757.26,-268.48 748.21,-262.98 746.76,-269.83"/>
</g>
<!-- Node13 -->
<g id="node13" class="node">
<title>Node13</title>
<g id="a_node13"><a xlink:href="../../d7/da1/project_2project1_2Compute_8h.html" target="_top" xlink:title="Compute methods for project milestone 1 in NE591&#45;008.">
<polygon fill="white" stroke="black" points="640.5,-201.5 640.5,-231.5 750.5,-231.5 750.5,-201.5 640.5,-201.5"/>
<text text-anchor="start" x="648.5" y="-219.5" font-family="Helvetica,sans-Serif" font-size="10.00">src/project/project1</text>
<text text-anchor="middle" x="695.5" y="-208.5" font-family="Helvetica,sans-Serif" font-size="10.00">/Compute.h</text>
</a>
</g>
</g>
<!-- Node1&#45;&gt;Node13 -->
<g id="edge14" class="edge">
<title>Node1&#45;&gt;Node13</title>
<path fill="none" stroke="midnightblue" d="M786.78,-263.85C766.54,-253.58 741.83,-241.03 723.22,-231.58"/>
<polygon fill="midnightblue" stroke="midnightblue" points="785.22,-266.99 795.73,-268.4 788.39,-260.75 785.22,-266.99"/>
</g>
<!-- Node17 -->
<g id="node17" class="node">
<title>Node17</title>
<g id="a_node17"><a xlink:href="../../db/d6e/project_2project2_2Compute_8h.html" target="_top" xlink:title="Compute methods for project milestone 1 in NE591&#45;008.">
<polygon fill="white" stroke="black" points="768.5,-201.5 768.5,-231.5 878.5,-231.5 878.5,-201.5 768.5,-201.5"/>
<text text-anchor="start" x="776.5" y="-219.5" font-family="Helvetica,sans-Serif" font-size="10.00">src/project/project2</text>
<text text-anchor="middle" x="823.5" y="-208.5" font-family="Helvetica,sans-Serif" font-size="10.00">/Compute.h</text>
</a>
</g>
</g>
<!-- Node1&#45;&gt;Node17 -->
<g id="edge19" class="edge">
<title>Node1&#45;&gt;Node17</title>
<path fill="none" stroke="midnightblue" d="M823.5,-258.11C823.5,-249.15 823.5,-239.32 823.5,-231.58"/>
<polygon fill="midnightblue" stroke="midnightblue" points="820,-258.4 823.5,-268.4 827,-258.4 820,-258.4"/>
</g>
<!-- Node21 -->
<g id="node21" class="node">
<title>Node21</title>
<g id="a_node21"><a xlink:href="../../d8/d8f/project_2project3_2Compute_8h.html" target="_top" xlink:title="Compute methods for project milestone 3 in NE591&#45;008.">
<polygon fill="white" stroke="black" points="896.5,-201.5 896.5,-231.5 1006.5,-231.5 1006.5,-201.5 896.5,-201.5"/>
<text text-anchor="start" x="904.5" y="-219.5" font-family="Helvetica,sans-Serif" font-size="10.00">src/project/project3</text>
<text text-anchor="middle" x="951.5" y="-208.5" font-family="Helvetica,sans-Serif" font-size="10.00">/Compute.h</text>
</a>
</g>
</g>
<!-- Node1&#45;&gt;Node21 -->
<g id="edge24" class="edge">
<title>Node1&#45;&gt;Node21</title>
<path fill="none" stroke="midnightblue" d="M860.22,-263.85C880.46,-253.58 905.17,-241.03 923.78,-231.58"/>
<polygon fill="midnightblue" stroke="midnightblue" points="858.61,-260.75 851.27,-268.4 861.78,-266.99 858.61,-260.75"/>
</g>
<!-- Node25 -->
<g id="node25" class="node">
<title>Node25</title>
<g id="a_node25"><a xlink:href="../../df/def/project_2project4_2Compute_8h.html" target="_top" xlink:title="Compute methods for project milestone 4 in NE591&#45;008.">
<polygon fill="white" stroke="black" points="1059.5,-201.5 1059.5,-231.5 1169.5,-231.5 1169.5,-201.5 1059.5,-201.5"/>
<text text-anchor="start" x="1067.5" y="-219.5" font-family="Helvetica,sans-Serif" font-size="10.00">src/project/project4</text>
<text text-anchor="middle" x="1114.5" y="-208.5" font-family="Helvetica,sans-Serif" font-size="10.00">/Compute.h</text>
</a>
</g>
</g>
<!-- Node1&#45;&gt;Node25 -->
<g id="edge29" class="edge">
<title>Node1&#45;&gt;Node25</title>
<path fill="none" stroke="midnightblue" d="M896.17,-266.27C946.67,-254.99 1012.96,-240.18 1059.19,-229.85"/>
<polygon fill="midnightblue" stroke="midnightblue" points="895.28,-262.88 886.28,-268.48 896.81,-269.71 895.28,-262.88"/>
</g>
<!-- Node29 -->
<g id="node29" class="node">
<title>Node29</title>
<g id="a_node29"><a xlink:href="../../da/da0/project_2project5_2Compute_8h.html" target="_top" xlink:title="Compute methods for project milestone 5 in NE591&#45;008.">
<polygon fill="white" stroke="black" points="1225.5,-201.5 1225.5,-231.5 1335.5,-231.5 1335.5,-201.5 1225.5,-201.5"/>
<text text-anchor="start" x="1233.5" y="-219.5" font-family="Helvetica,sans-Serif" font-size="10.00">src/project/project5</text>
<text text-anchor="middle" x="1280.5" y="-208.5" font-family="Helvetica,sans-Serif" font-size="10.00">/Compute.h</text>
</a>
</g>
</g>
<!-- Node1&#45;&gt;Node29 -->
<g id="edge34" class="edge">
<title>Node1&#45;&gt;Node29</title>
<path fill="none" stroke="midnightblue" d="M907.59,-270.54C1000.19,-257.37 1146.4,-236.57 1225.42,-225.33"/>
<polygon fill="midnightblue" stroke="midnightblue" points="907.09,-267.07 897.69,-271.95 908.08,-274.01 907.09,-267.07"/>
</g>
<!-- Node33 -->
<g id="node33" class="node">
<title>Node33</title>
<g id="a_node33"><a xlink:href="../../da/dbd/PowerIteration_8h.html" target="_top" xlink:title="This file contains the implementation of the power iterations for solving systems of linear equations...">
<polygon fill="white" stroke="black" points="1482.5,-201.5 1482.5,-231.5 1618.5,-231.5 1618.5,-201.5 1482.5,-201.5"/>
<text text-anchor="start" x="1490.5" y="-219.5" font-family="Helvetica,sans-Serif" font-size="10.00">src/utils/math/relaxation</text>
<text text-anchor="middle" x="1550.5" y="-208.5" font-family="Helvetica,sans-Serif" font-size="10.00">/PowerIteration.h</text>
</a>
</g>
</g>
<!-- Node1&#45;&gt;Node33 -->
<g id="edge39" class="edge">
<title>Node1&#45;&gt;Node33</title>
<path fill="none" stroke="midnightblue" d="M907.76,-274.97C1053.24,-261.96 1348.74,-235.54 1482.27,-223.6"/>
<polygon fill="midnightblue" stroke="midnightblue" points="907.2,-271.5 897.55,-275.88 907.82,-278.48 907.2,-271.5"/>
</g>
<!-- Node3 -->
<g id="node3" class="node">
<title>Node3</title>
<g id="a_node3"><a xlink:href="../../d7/d99/inlab13_8h.html" target="_top" xlink:title=" ">
<polygon fill="white" stroke="black" points="0,-73 0,-92 141,-92 141,-73 0,-73"/>
<text text-anchor="middle" x="70.5" y="-80" font-family="Helvetica,sans-Serif" font-size="10.00">src/labs/inlab13/inlab13.h</text>
</a>
</g>
</g>
<!-- Node2&#45;&gt;Node3 -->
<g id="edge2" class="edge">
<title>Node2&#45;&gt;Node3</title>
<path fill="none" stroke="midnightblue" d="M84.68,-202.65C68.58,-194.48 50.7,-182.16 41.5,-165 28.16,-140.12 50.05,-107.83 62.62,-92.43"/>
<polygon fill="midnightblue" stroke="midnightblue" points="83.35,-205.89 93.88,-206.99 86.33,-199.56 83.35,-205.89"/>
</g>
<!-- Node5 -->
<g id="node5" class="node">
<title>Node5</title>
<g id="a_node5"><a xlink:href="../../d2/ddd/labs_2inlab13_2Parser_8h.html" target="_top" xlink:title="This file contains the Parser class which is responsible for parsing command line arguments and valid...">
<polygon fill="white" stroke="black" points="50.5,-140 50.5,-159 184.5,-159 184.5,-140 50.5,-140"/>
<text text-anchor="middle" x="117.5" y="-147" font-family="Helvetica,sans-Serif" font-size="10.00">src/labs/inlab13/Parser.h</text>
</a>
</g>
</g>
<!-- Node2&#45;&gt;Node5 -->
<g id="edge4" class="edge">
<title>Node2&#45;&gt;Node5</title>
<path fill="none" stroke="midnightblue" d="M117.5,-196.54C117.5,-184.17 117.5,-168.62 117.5,-159.13"/>
<polygon fill="midnightblue" stroke="midnightblue" points="114,-196.73 117.5,-206.73 121,-196.73 114,-196.73"/>
</g>
<!-- Node4 -->
<g id="node4" class="node">
<title>Node4</title>
<g id="a_node4"><a xlink:href="../../d1/d0e/labs_2inlab13_2main_8cpp.html" target="_top" xlink:title=" ">
<polygon fill="white" stroke="black" points="0,-6 0,-25 141,-25 141,-6 0,-6"/>
<text text-anchor="middle" x="70.5" y="-13" font-family="Helvetica,sans-Serif" font-size="10.00">src/labs/inlab13/main.cpp</text>
</a>
</g>
</g>
<!-- Node3&#45;&gt;Node4 -->
<g id="edge3" class="edge">
<title>Node3&#45;&gt;Node4</title>
<path fill="none" stroke="midnightblue" d="M70.5,-62.54C70.5,-50.17 70.5,-34.62 70.5,-25.13"/>
<polygon fill="midnightblue" stroke="midnightblue" points="67,-62.73 70.5,-72.73 74,-62.73 67,-62.73"/>
</g>
<!-- Node5&#45;&gt;Node3 -->
<g id="edge5" class="edge">
<title>Node5&#45;&gt;Node3</title>
<path fill="none" stroke="midnightblue" d="M105.14,-131.4C96.01,-118.77 83.95,-102.1 76.74,-92.13"/>
<polygon fill="midnightblue" stroke="midnightblue" points="102.47,-133.68 111.16,-139.73 108.14,-129.58 102.47,-133.68"/>
</g>
<!-- Node7 -->
<g id="node7" class="node">
<title>Node7</title>
<g id="a_node7"><a xlink:href="../../df/de1/outlab13_8h.html" target="_top" xlink:title=" ">
<polygon fill="white" stroke="black" points="217,-73 217,-92 372,-92 372,-73 217,-73"/>
<text text-anchor="middle" x="294.5" y="-80" font-family="Helvetica,sans-Serif" font-size="10.00">src/labs/outlab13/outlab13.h</text>
</a>
</g>
</g>
<!-- Node6&#45;&gt;Node7 -->
<g id="edge7" class="edge">
<title>Node6&#45;&gt;Node7</title>
<path fill="none" stroke="midnightblue" d="M275.97,-202.58C259.3,-194.51 241.05,-182.31 231.5,-165 224.85,-152.93 225.54,-146.42 231.5,-134 240.78,-114.67 261.47,-100.4 276.62,-92.06"/>
<polygon fill="midnightblue" stroke="midnightblue" points="274.96,-205.96 285.52,-206.85 277.82,-199.57 274.96,-205.96"/>
</g>
<!-- Node9 -->
<g id="node9" class="node">
<title>Node9</title>
<g id="a_node9"><a xlink:href="../../db/d7a/labs_2outlab13_2Parser_8h.html" target="_top" xlink:title="This file contains the Parser class which is responsible for parsing command line arguments and valid...">
<polygon fill="white" stroke="black" points="241,-140 241,-159 382,-159 382,-140 241,-140"/>
<text text-anchor="middle" x="311.5" y="-147" font-family="Helvetica,sans-Serif" font-size="10.00">src/labs/outlab13/Parser.h</text>
</a>
</g>
</g>
<!-- Node6&#45;&gt;Node9 -->
<g id="edge9" class="edge">
<title>Node6&#45;&gt;Node9</title>
<path fill="none" stroke="midnightblue" d="M311.5,-196.54C311.5,-184.17 311.5,-168.62 311.5,-159.13"/>
<polygon fill="midnightblue" stroke="midnightblue" points="308,-196.73 311.5,-206.73 315,-196.73 308,-196.73"/>
</g>
<!-- Node8 -->
<g id="node8" class="node">
<title>Node8</title>
<g id="a_node8"><a xlink:href="../../db/d47/labs_2outlab13_2main_8cpp.html" target="_top" xlink:title=" ">
<polygon fill="white" stroke="black" points="220.5,-6 220.5,-25 368.5,-25 368.5,-6 220.5,-6"/>
<text text-anchor="middle" x="294.5" y="-13" font-family="Helvetica,sans-Serif" font-size="10.00">src/labs/outlab13/main.cpp</text>
</a>
</g>
</g>
<!-- Node7&#45;&gt;Node8 -->
<g id="edge8" class="edge">
<title>Node7&#45;&gt;Node8</title>
<path fill="none" stroke="midnightblue" d="M294.5,-62.54C294.5,-50.17 294.5,-34.62 294.5,-25.13"/>
<polygon fill="midnightblue" stroke="midnightblue" points="291,-62.73 294.5,-72.73 298,-62.73 291,-62.73"/>
</g>
<!-- Node9&#45;&gt;Node7 -->
<g id="edge10" class="edge">
<title>Node9&#45;&gt;Node7</title>
<path fill="none" stroke="midnightblue" d="M306.64,-129.91C303.39,-117.49 299.26,-101.72 296.76,-92.13"/>
<polygon fill="midnightblue" stroke="midnightblue" points="303.29,-130.94 309.21,-139.73 310.06,-129.17 303.29,-130.94"/>
</g>
<!-- Node11 -->
<g id="node11" class="node">
<title>Node11</title>
<g id="a_node11"><a xlink:href="../../df/df9/outlab6_8h.html" target="_top" xlink:title=" ">
<polygon fill="white" stroke="black" points="400,-140 400,-159 543,-159 543,-140 400,-140"/>
<text text-anchor="middle" x="471.5" y="-147" font-family="Helvetica,sans-Serif" font-size="10.00">src/labs/outlab6/outlab6.h</text>
</a>
</g>
</g>
<!-- Node10&#45;&gt;Node11 -->
<g id="edge12" class="edge">
<title>Node10&#45;&gt;Node11</title>
<path fill="none" stroke="midnightblue" d="M504.66,-198.4C495.92,-185.77 484.38,-169.1 477.47,-159.13"/>
<polygon fill="midnightblue" stroke="midnightblue" points="501.86,-200.5 510.43,-206.73 507.62,-196.52 501.86,-200.5"/>
</g>
<!-- Node12 -->
<g id="node12" class="node">
<title>Node12</title>
<g id="a_node12"><a xlink:href="../../d4/d5d/labs_2outlab6_2main_8cpp.html" target="_top" xlink:title=" ">
<polygon fill="white" stroke="black" points="400.5,-73 400.5,-92 542.5,-92 542.5,-73 400.5,-73"/>
<text text-anchor="middle" x="471.5" y="-80" font-family="Helvetica,sans-Serif" font-size="10.00">src/labs/outlab6/main.cpp</text>
</a>
</g>
</g>
<!-- Node11&#45;&gt;Node12 -->
<g id="edge13" class="edge">
<title>Node11&#45;&gt;Node12</title>
<path fill="none" stroke="midnightblue" d="M471.5,-129.54C471.5,-117.17 471.5,-101.62 471.5,-92.13"/>
<polygon fill="midnightblue" stroke="midnightblue" points="468,-129.73 471.5,-139.73 475,-129.73 468,-129.73"/>
</g>
<!-- Node14 -->
<g id="node14" class="node">
<title>Node14</title>
<g id="a_node14"><a xlink:href="../../d0/df9/project_2project1_2Parser_8h.html" target="_top" xlink:title="This file contains the Parser class which is responsible for parsing command line arguments and valid...">
<polygon fill="white" stroke="black" points="561.5,-134.5 561.5,-164.5 671.5,-164.5 671.5,-134.5 561.5,-134.5"/>
<text text-anchor="start" x="569.5" y="-152.5" font-family="Helvetica,sans-Serif" font-size="10.00">src/project/project1</text>
<text text-anchor="middle" x="616.5" y="-141.5" font-family="Helvetica,sans-Serif" font-size="10.00">/Parser.h</text>
</a>
</g>
</g>
<!-- Node13&#45;&gt;Node14 -->
<g id="edge15" class="edge">
<title>Node13&#45;&gt;Node14</title>
<path fill="none" stroke="midnightblue" d="M670.44,-194.88C658.44,-185.01 644.37,-173.43 633.61,-164.58"/>
<polygon fill="midnightblue" stroke="midnightblue" points="668.41,-197.75 678.36,-201.4 672.86,-192.34 668.41,-197.75"/>
</g>
<!-- Node15 -->
<g id="node15" class="node">
<title>Node15</title>
<g id="a_node15"><a xlink:href="../../d3/df7/project1_8h.html" target="_top" xlink:title=" ">
<polygon fill="white" stroke="black" points="603.5,-67.5 603.5,-97.5 713.5,-97.5 713.5,-67.5 603.5,-67.5"/>
<text text-anchor="start" x="611.5" y="-85.5" font-family="Helvetica,sans-Serif" font-size="10.00">src/project/project1</text>
<text text-anchor="middle" x="658.5" y="-74.5" font-family="Helvetica,sans-Serif" font-size="10.00">/project1.h</text>
</a>
</g>
</g>
<!-- Node13&#45;&gt;Node15 -->
<g id="edge18" class="edge">
<title>Node13&#45;&gt;Node15</title>
<path fill="none" stroke="midnightblue" d="M692.5,-191.08C690.12,-174.71 686.24,-152.78 680.5,-134 676.64,-121.38 670.55,-107.69 665.76,-97.75"/>
<polygon fill="midnightblue" stroke="midnightblue" points="689.09,-191.99 693.9,-201.42 696.02,-191.04 689.09,-191.99"/>
</g>
<!-- Node14&#45;&gt;Node15 -->
<g id="edge16" class="edge">
<title>Node14&#45;&gt;Node15</title>
<path fill="none" stroke="midnightblue" d="M631.12,-125.87C637.2,-116.46 644.07,-105.83 649.4,-97.58"/>
<polygon fill="midnightblue" stroke="midnightblue" points="628.1,-124.1 625.61,-134.4 633.98,-127.9 628.1,-124.1"/>
</g>
<!-- Node16 -->
<g id="node16" class="node">
<title>Node16</title>
<g id="a_node16"><a xlink:href="../../d2/d85/project_2project1_2main_8cpp.html" target="_top" xlink:title=" ">
<polygon fill="white" stroke="black" points="603.5,-0.5 603.5,-30.5 713.5,-30.5 713.5,-0.5 603.5,-0.5"/>
<text text-anchor="start" x="611.5" y="-18.5" font-family="Helvetica,sans-Serif" font-size="10.00">src/project/project1</text>
<text text-anchor="middle" x="658.5" y="-7.5" font-family="Helvetica,sans-Serif" font-size="10.00">/main.cpp</text>
</a>
</g>
</g>
<!-- Node15&#45;&gt;Node16 -->
<g id="edge17" class="edge">
<title>Node15&#45;&gt;Node16</title>
<path fill="none" stroke="midnightblue" d="M658.5,-57.11C658.5,-48.15 658.5,-38.32 658.5,-30.58"/>
<polygon fill="midnightblue" stroke="midnightblue" points="655,-57.4 658.5,-67.4 662,-57.4 655,-57.4"/>
</g>
<!-- Node18 -->
<g id="node18" class="node">
<title>Node18</title>
<g id="a_node18"><a xlink:href="../../d6/da7/project_2project2_2Parser_8h.html" target="_top" xlink:title="This file contains the Parser class which is responsible for parsing command line arguments and valid...">
<polygon fill="white" stroke="black" points="727.5,-134.5 727.5,-164.5 837.5,-164.5 837.5,-134.5 727.5,-134.5"/>
<text text-anchor="start" x="735.5" y="-152.5" font-family="Helvetica,sans-Serif" font-size="10.00">src/project/project2</text>
<text text-anchor="middle" x="782.5" y="-141.5" font-family="Helvetica,sans-Serif" font-size="10.00">/Parser.h</text>
</a>
</g>
</g>
<!-- Node17&#45;&gt;Node18 -->
<g id="edge20" class="edge">
<title>Node17&#45;&gt;Node18</title>
<path fill="none" stroke="midnightblue" d="M809.22,-192.87C803.29,-183.46 796.59,-172.83 791.38,-164.58"/>
<polygon fill="midnightblue" stroke="midnightblue" points="806.31,-194.81 814.6,-201.4 812.23,-191.07 806.31,-194.81"/>
</g>
<!-- Node19 -->
<g id="node19" class="node">
<title>Node19</title>
<g id="a_node19"><a xlink:href="../../dc/d79/project2_8h.html" target="_top" xlink:title=" ">
<polygon fill="white" stroke="black" points="771.5,-67.5 771.5,-97.5 881.5,-97.5 881.5,-67.5 771.5,-67.5"/>
<text text-anchor="start" x="779.5" y="-85.5" font-family="Helvetica,sans-Serif" font-size="10.00">src/project/project2</text>
<text text-anchor="middle" x="826.5" y="-74.5" font-family="Helvetica,sans-Serif" font-size="10.00">/project2.h</text>
</a>
</g>
</g>
<!-- Node17&#45;&gt;Node19 -->
<g id="edge23" class="edge">
<title>Node17&#45;&gt;Node19</title>
<path fill="none" stroke="midnightblue" d="M836.54,-192.38C840.56,-184.02 844.47,-174.34 846.5,-165 849.42,-151.54 849.08,-147.53 846.5,-134 844.06,-121.22 838.44,-107.54 833.78,-97.65"/>
<polygon fill="midnightblue" stroke="midnightblue" points="833.32,-190.99 831.86,-201.48 839.54,-194.19 833.32,-190.99"/>
</g>
<!-- Node18&#45;&gt;Node19 -->
<g id="edge21" class="edge">
<title>Node18&#45;&gt;Node19</title>
<path fill="none" stroke="midnightblue" d="M797.82,-125.87C804.19,-116.46 811.38,-105.83 816.97,-97.58"/>
<polygon fill="midnightblue" stroke="midnightblue" points="794.75,-124.15 792.05,-134.4 800.55,-128.08 794.75,-124.15"/>
</g>
<!-- Node20 -->
<g id="node20" class="node">
<title>Node20</title>
<g id="a_node20"><a xlink:href="../../dd/d48/project_2project2_2main_8cpp.html" target="_top" xlink:title=" ">
<polygon fill="white" stroke="black" points="771.5,-0.5 771.5,-30.5 881.5,-30.5 881.5,-0.5 771.5,-0.5"/>
<text text-anchor="start" x="779.5" y="-18.5" font-family="Helvetica,sans-Serif" font-size="10.00">src/project/project2</text>
<text text-anchor="middle" x="826.5" y="-7.5" font-family="Helvetica,sans-Serif" font-size="10.00">/main.cpp</text>
</a>
</g>
</g>
<!-- Node19&#45;&gt;Node20 -->
<g id="edge22" class="edge">
<title>Node19&#45;&gt;Node20</title>
<path fill="none" stroke="midnightblue" d="M826.5,-57.11C826.5,-48.15 826.5,-38.32 826.5,-30.58"/>
<polygon fill="midnightblue" stroke="midnightblue" points="823,-57.4 826.5,-67.4 830,-57.4 823,-57.4"/>
</g>
<!-- Node22 -->
<g id="node22" class="node">
<title>Node22</title>
<g id="a_node22"><a xlink:href="../../d7/d5d/project_2project3_2Parser_8h.html" target="_top" xlink:title="This file contains the Parser class which is responsible for parsing command line arguments and valid...">
<polygon fill="white" stroke="black" points="893.5,-134.5 893.5,-164.5 1003.5,-164.5 1003.5,-134.5 893.5,-134.5"/>
<text text-anchor="start" x="901.5" y="-152.5" font-family="Helvetica,sans-Serif" font-size="10.00">src/project/project3</text>
<text text-anchor="middle" x="948.5" y="-141.5" font-family="Helvetica,sans-Serif" font-size="10.00">/Parser.h</text>
</a>
</g>
</g>
<!-- Node21&#45;&gt;Node22 -->
<g id="edge25" class="edge">
<title>Node21&#45;&gt;Node22</title>
<path fill="none" stroke="midnightblue" d="M950.39,-191.4C949.97,-182.37 949.51,-172.41 949.15,-164.58"/>
<polygon fill="midnightblue" stroke="midnightblue" points="946.89,-191.57 950.85,-201.4 953.88,-191.25 946.89,-191.57"/>
</g>
<!-- Node23 -->
<g id="node23" class="node">
<title>Node23</title>
<g id="a_node23"><a xlink:href="../../da/d0a/project3_8h.html" target="_top" xlink:title=" ">
<polygon fill="white" stroke="black" points="961.5,-67.5 961.5,-97.5 1071.5,-97.5 1071.5,-67.5 961.5,-67.5"/>
<text text-anchor="start" x="969.5" y="-85.5" font-family="Helvetica,sans-Serif" font-size="10.00">src/project/project3</text>
<text text-anchor="middle" x="1016.5" y="-74.5" font-family="Helvetica,sans-Serif" font-size="10.00">/project3.h</text>
</a>
</g>
</g>
<!-- Node21&#45;&gt;Node23 -->
<g id="edge28" class="edge">
<title>Node21&#45;&gt;Node23</title>
<path fill="none" stroke="midnightblue" d="M985.43,-195.46C995.98,-187.4 1006.43,-177.13 1012.5,-165 1023.28,-143.47 1021.51,-114.59 1019.1,-97.62"/>
<polygon fill="midnightblue" stroke="midnightblue" points="983.15,-192.79 977.03,-201.43 987.21,-198.49 983.15,-192.79"/>
</g>
<!-- Node22&#45;&gt;Node23 -->
<g id="edge26" class="edge">
<title>Node22&#45;&gt;Node23</title>
<path fill="none" stroke="midnightblue" d="M970.67,-127.31C980.87,-117.56 992.69,-106.26 1001.77,-97.58"/>
<polygon fill="midnightblue" stroke="midnightblue" points="968.07,-124.96 963.25,-134.4 972.9,-130.02 968.07,-124.96"/>
</g>
<!-- Node24 -->
<g id="node24" class="node">
<title>Node24</title>
<g id="a_node24"><a xlink:href="../../de/ddf/project_2project3_2main_8cpp.html" target="_top" xlink:title=" ">
<polygon fill="white" stroke="black" points="961.5,-0.5 961.5,-30.5 1071.5,-30.5 1071.5,-0.5 961.5,-0.5"/>
<text text-anchor="start" x="969.5" y="-18.5" font-family="Helvetica,sans-Serif" font-size="10.00">src/project/project3</text>
<text text-anchor="middle" x="1016.5" y="-7.5" font-family="Helvetica,sans-Serif" font-size="10.00">/main.cpp</text>
</a>
</g>
</g>
<!-- Node23&#45;&gt;Node24 -->
<g id="edge27" class="edge">
<title>Node23&#45;&gt;Node24</title>
<path fill="none" stroke="midnightblue" d="M1016.5,-57.11C1016.5,-48.15 1016.5,-38.32 1016.5,-30.58"/>
<polygon fill="midnightblue" stroke="midnightblue" points="1013,-57.4 1016.5,-67.4 1020,-57.4 1013,-57.4"/>
</g>
<!-- Node26 -->
<g id="node26" class="node">
<title>Node26</title>
<g id="a_node26"><a xlink:href="../../db/d50/project_2project4_2Parser_8h.html" target="_top" xlink:title="This file contains the Parser class which is responsible for parsing command line arguments and valid...">
<polygon fill="white" stroke="black" points="1059.5,-134.5 1059.5,-164.5 1169.5,-164.5 1169.5,-134.5 1059.5,-134.5"/>
<text text-anchor="start" x="1067.5" y="-152.5" font-family="Helvetica,sans-Serif" font-size="10.00">src/project/project4</text>
<text text-anchor="middle" x="1114.5" y="-141.5" font-family="Helvetica,sans-Serif" font-size="10.00">/Parser.h</text>
</a>
</g>
</g>
<!-- Node25&#45;&gt;Node26 -->
<g id="edge30" class="edge">
<title>Node25&#45;&gt;Node26</title>
<path fill="none" stroke="midnightblue" d="M1114.5,-191.11C1114.5,-182.15 1114.5,-172.32 1114.5,-164.58"/>
<polygon fill="midnightblue" stroke="midnightblue" points="1111,-191.4 1114.5,-201.4 1118,-191.4 1111,-191.4"/>
</g>
<!-- Node27 -->
<g id="node27" class="node">
<title>Node27</title>
<g id="a_node27"><a xlink:href="../../d9/d80/project4_8h.html" target="_top" xlink:title=" ">
<polygon fill="white" stroke="black" points="1104.5,-67.5 1104.5,-97.5 1214.5,-97.5 1214.5,-67.5 1104.5,-67.5"/>
<text text-anchor="start" x="1112.5" y="-85.5" font-family="Helvetica,sans-Serif" font-size="10.00">src/project/project4</text>
<text text-anchor="middle" x="1159.5" y="-74.5" font-family="Helvetica,sans-Serif" font-size="10.00">/project4.h</text>
</a>
</g>
</g>
<!-- Node25&#45;&gt;Node27 -->
<g id="edge33" class="edge">
<title>Node25&#45;&gt;Node27</title>
<path fill="none" stroke="midnightblue" d="M1150.62,-195.8C1161.65,-187.81 1172.45,-177.48 1178.5,-165 1189.21,-142.91 1177.5,-114.46 1168.3,-97.69"/>
<polygon fill="midnightblue" stroke="midnightblue" points="1148.57,-192.97 1142.22,-201.46 1152.48,-198.78 1148.57,-192.97"/>
</g>
<!-- Node26&#45;&gt;Node27 -->
<g id="edge31" class="edge">
<title>Node26&#45;&gt;Node27</title>
<path fill="none" stroke="midnightblue" d="M1129.97,-126.16C1136.53,-116.68 1143.98,-105.92 1149.75,-97.58"/>
<polygon fill="midnightblue" stroke="midnightblue" points="1127.08,-124.18 1124.26,-134.4 1132.83,-128.17 1127.08,-124.18"/>
</g>
<!-- Node28 -->
<g id="node28" class="node">
<title>Node28</title>
<g id="a_node28"><a xlink:href="../../d0/d86/project_2project4_2main_8cpp.html" target="_top" xlink:title=" ">
<polygon fill="white" stroke="black" points="1104.5,-0.5 1104.5,-30.5 1214.5,-30.5 1214.5,-0.5 1104.5,-0.5"/>
<text text-anchor="start" x="1112.5" y="-18.5" font-family="Helvetica,sans-Serif" font-size="10.00">src/project/project4</text>
<text text-anchor="middle" x="1159.5" y="-7.5" font-family="Helvetica,sans-Serif" font-size="10.00">/main.cpp</text>
</a>
</g>
</g>
<!-- Node27&#45;&gt;Node28 -->
<g id="edge32" class="edge">
<title>Node27&#45;&gt;Node28</title>
<path fill="none" stroke="midnightblue" d="M1159.5,-57.11C1159.5,-48.15 1159.5,-38.32 1159.5,-30.58"/>
<polygon fill="midnightblue" stroke="midnightblue" points="1156,-57.4 1159.5,-67.4 1163,-57.4 1156,-57.4"/>
</g>
<!-- Node30 -->
<g id="node30" class="node">
<title>Node30</title>
<g id="a_node30"><a xlink:href="../../de/db2/project_2project5_2Parser_8h.html" target="_top" xlink:title="This file contains the Parser class which is responsible for parsing command line arguments and valid...">
<polygon fill="white" stroke="black" points="1225.5,-134.5 1225.5,-164.5 1335.5,-164.5 1335.5,-134.5 1225.5,-134.5"/>
<text text-anchor="start" x="1233.5" y="-152.5" font-family="Helvetica,sans-Serif" font-size="10.00">src/project/project5</text>
<text text-anchor="middle" x="1280.5" y="-141.5" font-family="Helvetica,sans-Serif" font-size="10.00">/Parser.h</text>
</a>
</g>
</g>
<!-- Node29&#45;&gt;Node30 -->
<g id="edge35" class="edge">
<title>Node29&#45;&gt;Node30</title>
<path fill="none" stroke="midnightblue" d="M1280.5,-191.11C1280.5,-182.15 1280.5,-172.32 1280.5,-164.58"/>
<polygon fill="midnightblue" stroke="midnightblue" points="1277,-191.4 1280.5,-201.4 1284,-191.4 1277,-191.4"/>
</g>
<!-- Node31 -->
<g id="node31" class="node">
<title>Node31</title>
<g id="a_node31"><a xlink:href="../../d9/dde/project5_8h.html" target="_top" xlink:title=" ">
<polygon fill="white" stroke="black" points="1240.5,-67.5 1240.5,-97.5 1350.5,-97.5 1350.5,-67.5 1240.5,-67.5"/>
<text text-anchor="start" x="1248.5" y="-85.5" font-family="Helvetica,sans-Serif" font-size="10.00">src/project/project5</text>
<text text-anchor="middle" x="1295.5" y="-74.5" font-family="Helvetica,sans-Serif" font-size="10.00">/project5.h</text>
</a>
</g>
</g>
<!-- Node29&#45;&gt;Node31 -->
<g id="edge38" class="edge">
<title>Node29&#45;&gt;Node31</title>
<path fill="none" stroke="midnightblue" d="M1316.62,-195.8C1327.65,-187.81 1338.45,-177.48 1344.5,-165 1350.51,-152.6 1349.68,-146.77 1344.5,-134 1338.58,-119.4 1326.18,-106.69 1315.34,-97.67"/>
<polygon fill="midnightblue" stroke="midnightblue" points="1314.57,-192.97 1308.22,-201.46 1318.48,-198.78 1314.57,-192.97"/>
</g>
<!-- Node30&#45;&gt;Node31 -->
<g id="edge36" class="edge">
<title>Node30&#45;&gt;Node31</title>
<path fill="none" stroke="midnightblue" d="M1286.06,-124.4C1288.15,-115.37 1290.44,-105.41 1292.25,-97.58"/>
<polygon fill="midnightblue" stroke="midnightblue" points="1282.59,-123.87 1283.75,-134.4 1289.41,-125.44 1282.59,-123.87"/>
</g>
<!-- Node32 -->
<g id="node32" class="node">
<title>Node32</title>
<g id="a_node32"><a xlink:href="../../dc/dc7/project_2project5_2main_8cpp.html" target="_top" xlink:title=" ">
<polygon fill="white" stroke="black" points="1240.5,-0.5 1240.5,-30.5 1350.5,-30.5 1350.5,-0.5 1240.5,-0.5"/>
<text text-anchor="start" x="1248.5" y="-18.5" font-family="Helvetica,sans-Serif" font-size="10.00">src/project/project5</text>
<text text-anchor="middle" x="1295.5" y="-7.5" font-family="Helvetica,sans-Serif" font-size="10.00">/main.cpp</text>
</a>
</g>
</g>
<!-- Node31&#45;&gt;Node32 -->
<g id="edge37" class="edge">
<title>Node31&#45;&gt;Node32</title>
<path fill="none" stroke="midnightblue" d="M1295.5,-57.11C1295.5,-48.15 1295.5,-38.32 1295.5,-30.58"/>
<polygon fill="midnightblue" stroke="midnightblue" points="1292,-57.4 1295.5,-67.4 1299,-57.4 1292,-57.4"/>
</g>
<!-- Node34 -->
<g id="node34" class="node">
<title>Node34</title>
<g id="a_node34"><a xlink:href="../../d0/d26/labs_2inlab12_2Compute_8h.html" target="_top" xlink:title="This file contains the declaration and implementation of the Compute namespace.">
<polygon fill="white" stroke="black" points="1391,-140 1391,-159 1540,-159 1540,-140 1391,-140"/>
<text text-anchor="middle" x="1465.5" y="-147" font-family="Helvetica,sans-Serif" font-size="10.00">src/labs/inlab12/Compute.h</text>
</a>
</g>
</g>
<!-- Node33&#45;&gt;Node34 -->
<g id="edge40" class="edge">
<title>Node33&#45;&gt;Node34</title>
<path fill="none" stroke="midnightblue" d="M1523.7,-195.01C1507.92,-182.94 1488.78,-168.3 1476.87,-159.19"/>
<polygon fill="midnightblue" stroke="midnightblue" points="1521.99,-198.1 1532.06,-201.4 1526.24,-192.54 1521.99,-198.1"/>
</g>
<!-- Node37 -->
<g id="node37" class="node">
<title>Node37</title>
<g id="a_node37"><a xlink:href="../../d5/d6c/labs_2outlab11_2Compute_8h.html" target="_top" xlink:title="This file contains the declaration and implementation of the Compute namespace.">
<polygon fill="white" stroke="black" points="1558.5,-140 1558.5,-159 1714.5,-159 1714.5,-140 1558.5,-140"/>
<text text-anchor="middle" x="1636.5" y="-147" font-family="Helvetica,sans-Serif" font-size="10.00">src/labs/outlab11/Compute.h</text>
</a>
</g>
</g>
<!-- Node33&#45;&gt;Node37 -->
<g id="edge43" class="edge">
<title>Node33&#45;&gt;Node37</title>
<path fill="none" stroke="midnightblue" d="M1577.17,-195.34C1593.22,-183.21 1612.83,-168.39 1625,-159.19"/>
<polygon fill="midnightblue" stroke="midnightblue" points="1575.03,-192.57 1569.16,-201.4 1579.25,-198.16 1575.03,-192.57"/>
</g>
<!-- Node40 -->
<g id="node40" class="node">
<title>Node40</title>
<g id="a_node40"><a xlink:href="../../de/d3f/labs_2outlab12_2Compute_8h.html" target="_top" xlink:title="This file contains the declaration and implementation of the Compute namespace.">
<polygon fill="white" stroke="black" points="1732.5,-140 1732.5,-159 1888.5,-159 1888.5,-140 1732.5,-140"/>
<text text-anchor="middle" x="1810.5" y="-147" font-family="Helvetica,sans-Serif" font-size="10.00">src/labs/outlab12/Compute.h</text>
</a>
</g>
</g>
<!-- Node33&#45;&gt;Node40 -->
<g id="edge46" class="edge">
<title>Node33&#45;&gt;Node40</title>
<path fill="none" stroke="midnightblue" d="M1616.54,-198.99C1667.49,-186.25 1735.91,-169.15 1776.39,-159.03"/>
<polygon fill="midnightblue" stroke="midnightblue" points="1615.45,-195.66 1606.6,-201.48 1617.15,-202.45 1615.45,-195.66"/>
</g>
<!-- Node35 -->
<g id="node35" class="node">
<title>Node35</title>
<g id="a_node35"><a xlink:href="../../d2/de9/inlab12_8h.html" target="_top" xlink:title=" ">
<polygon fill="white" stroke="black" points="1395,-73 1395,-92 1536,-92 1536,-73 1395,-73"/>
<text text-anchor="middle" x="1465.5" y="-80" font-family="Helvetica,sans-Serif" font-size="10.00">src/labs/inlab12/inlab12.h</text>
</a>
</g>
</g>
<!-- Node34&#45;&gt;Node35 -->
<g id="edge41" class="edge">
<title>Node34&#45;&gt;Node35</title>
<path fill="none" stroke="midnightblue" d="M1465.5,-129.54C1465.5,-117.17 1465.5,-101.62 1465.5,-92.13"/>
<polygon fill="midnightblue" stroke="midnightblue" points="1462,-129.73 1465.5,-139.73 1469,-129.73 1462,-129.73"/>
</g>
<!-- Node36 -->
<g id="node36" class="node">
<title>Node36</title>
<g id="a_node36"><a xlink:href="../../db/d97/labs_2inlab12_2main_8cpp.html" target="_top" xlink:title=" ">
<polygon fill="white" stroke="black" points="1395,-6 1395,-25 1536,-25 1536,-6 1395,-6"/>
<text text-anchor="middle" x="1465.5" y="-13" font-family="Helvetica,sans-Serif" font-size="10.00">src/labs/inlab12/main.cpp</text>
</a>
</g>
</g>
<!-- Node35&#45;&gt;Node36 -->
<g id="edge42" class="edge">
<title>Node35&#45;&gt;Node36</title>
<path fill="none" stroke="midnightblue" d="M1465.5,-62.54C1465.5,-50.17 1465.5,-34.62 1465.5,-25.13"/>
<polygon fill="midnightblue" stroke="midnightblue" points="1462,-62.73 1465.5,-72.73 1469,-62.73 1462,-62.73"/>
</g>
<!-- Node38 -->
<g id="node38" class="node">
<title>Node38</title>
<g id="a_node38"><a xlink:href="../../d3/dbf/outlab11_8h.html" target="_top" xlink:title=" ">
<polygon fill="white" stroke="black" points="1559,-73 1559,-92 1714,-92 1714,-73 1559,-73"/>
<text text-anchor="middle" x="1636.5" y="-80" font-family="Helvetica,sans-Serif" font-size="10.00">src/labs/outlab11/outlab11.h</text>
</a>
</g>
</g>
<!-- Node37&#45;&gt;Node38 -->
<g id="edge44" class="edge">
<title>Node37&#45;&gt;Node38</title>
<path fill="none" stroke="midnightblue" d="M1636.5,-129.54C1636.5,-117.17 1636.5,-101.62 1636.5,-92.13"/>
<polygon fill="midnightblue" stroke="midnightblue" points="1633,-129.73 1636.5,-139.73 1640,-129.73 1633,-129.73"/>
</g>
<!-- Node39 -->
<g id="node39" class="node">
<title>Node39</title>
<g id="a_node39"><a xlink:href="../../d2/d48/labs_2outlab11_2main_8cpp.html" target="_top" xlink:title=" ">
<polygon fill="white" stroke="black" points="1562.5,-6 1562.5,-25 1710.5,-25 1710.5,-6 1562.5,-6"/>
<text text-anchor="middle" x="1636.5" y="-13" font-family="Helvetica,sans-Serif" font-size="10.00">src/labs/outlab11/main.cpp</text>
</a>
</g>
</g>
<!-- Node38&#45;&gt;Node39 -->
<g id="edge45" class="edge">
<title>Node38&#45;&gt;Node39</title>
<path fill="none" stroke="midnightblue" d="M1636.5,-62.54C1636.5,-50.17 1636.5,-34.62 1636.5,-25.13"/>
<polygon fill="midnightblue" stroke="midnightblue" points="1633,-62.73 1636.5,-72.73 1640,-62.73 1633,-62.73"/>
</g>
<!-- Node41 -->
<g id="node41" class="node">
<title>Node41</title>
<g id="a_node41"><a xlink:href="../../d6/dc3/outlab12_8h.html" target="_top" xlink:title=" ">
<polygon fill="white" stroke="black" points="1733,-73 1733,-92 1888,-92 1888,-73 1733,-73"/>
<text text-anchor="middle" x="1810.5" y="-80" font-family="Helvetica,sans-Serif" font-size="10.00">src/labs/outlab12/outlab12.h</text>
</a>
</g>
</g>
<!-- Node40&#45;&gt;Node41 -->
<g id="edge47" class="edge">
<title>Node40&#45;&gt;Node41</title>
<path fill="none" stroke="midnightblue" d="M1810.5,-129.54C1810.5,-117.17 1810.5,-101.62 1810.5,-92.13"/>
<polygon fill="midnightblue" stroke="midnightblue" points="1807,-129.73 1810.5,-139.73 1814,-129.73 1807,-129.73"/>
</g>
<!-- Node42 -->
<g id="node42" class="node">
<title>Node42</title>
<g id="a_node42"><a xlink:href="../../df/d73/labs_2outlab12_2main_8cpp.html" target="_top" xlink:title=" ">
<polygon fill="white" stroke="black" points="1736.5,-6 1736.5,-25 1884.5,-25 1884.5,-6 1736.5,-6"/>
<text text-anchor="middle" x="1810.5" y="-13" font-family="Helvetica,sans-Serif" font-size="10.00">src/labs/outlab12/main.cpp</text>
</a>
</g>
</g>
<!-- Node41&#45;&gt;Node42 -->
<g id="edge48" class="edge">
<title>Node41&#45;&gt;Node42</title>
<path fill="none" stroke="midnightblue" d="M1810.5,-62.54C1810.5,-50.17 1810.5,-34.62 1810.5,-25.13"/>
<polygon fill="midnightblue" stroke="midnightblue" points="1807,-62.73 1810.5,-72.73 1814,-62.73 1807,-62.73"/>
</g>
</g>
</svg>
        <g id="navigator" transform="translate(0 0)" fill="#404254">
                <rect fill="#f2f5e9" fill-opacity="0.5" stroke="#606060" stroke-width=".5" x="0" y="0" width="60" height="60"/>
                <use id="zoomplus" xlink:href="#zoomPlus" x="17" y="9" onmousedown="handleZoom(evt,'in')"/>
                <use id="zoomminus" xlink:href="#zoomMin" x="42" y="9" onmousedown="handleZoom(evt,'out')"/>
                <use id="reset" xlink:href="#resetDef" x="30" y="36" onmousedown="handleReset()"/>
                <g id="arrowUp" xlink:href="#dirArrow" transform="translate(30 24)" onmousedown="handlePan(0,-1)">
                  <use xlink:href="#rim" fill="#404040">
                        <set attributeName="fill" to="#808080" begin="arrowUp.mouseover" end="arrowUp.mouseout"/>
                  </use>
                  <path fill="none" stroke="white" stroke-width="1.5" d="M0,-3.0v7 M-2.5,-0.5L0,-3.0L2.5,-0.5"/>
                </g>
                <g id="arrowRight" xlink:href="#dirArrow" transform="rotate(90) translate(36 -43)" onmousedown="handlePan(1,0)">
                  <use xlink:href="#rim" fill="#404040">
                        <set attributeName="fill" to="#808080" begin="arrowRight.mouseover" end="arrowRight.mouseout"/>
                  </use>
                  <path fill="none" stroke="white" stroke-width="1.5" d="M0,-3.0v7 M-2.5,-0.5L0,-3.0L2.5,-0.5"/>
                </g>
                <g id="arrowDown" xlink:href="#dirArrow" transform="rotate(180) translate(-30 -48)" onmousedown="handlePan(0,1)">
                  <use xlink:href="#rim" fill="#404040">
                        <set attributeName="fill" to="#808080" begin="arrowDown.mouseover" end="arrowDown.mouseout"/>
                  </use>
                  <path fill="none" stroke="white" stroke-width="1.5" d="M0,-3.0v7 M-2.5,-0.5L0,-3.0L2.5,-0.5"/>
                </g>
                <g id="arrowLeft" xlink:href="#dirArrow" transform="rotate(270) translate(-36 17)" onmousedown="handlePan(-1,0)">
                  <use xlink:href="#rim" fill="#404040">
                        <set attributeName="fill" to="#808080" begin="arrowLeft.mouseover" end="arrowLeft.mouseout"/>
                  </use>
                  <path fill="none" stroke="white" stroke-width="1.5" d="M0,-3.0v7 M-2.5,-0.5L0,-3.0L2.5,-0.5"/>
                </g>
        </g>
        <svg viewBox="0 0 15 15" width="100%" height="30px" preserveAspectRatio="xMaxYMin meet">
         <g id="arrow_out" transform="scale(0.3 0.3)">
          <a xlink:href="LUP_8h__dep__incl_org.svg" target="_base">
           <rect id="button" ry="5" rx="5" y="6" x="6" height="38" width="38"
                fill="#f2f5e9" fill-opacity="0.5" stroke="#606060" stroke-width="1.0"/>
           <path id="arrow"
             d="M 11.500037,31.436501 C 11.940474,20.09759 22.043105,11.32322 32.158766,21.979434 L 37.068811,17.246167 C 37.068811,17.246167 37.088388,32 37.088388,32 L 22.160133,31.978069 C 22.160133,31.978069 26.997745,27.140456 26.997745,27.140456 C 18.528582,18.264221 13.291696,25.230495 11.500037,31.436501 z"
             style="fill:#404040;"/>
          </a>
         </g>
        </svg>
</svg>
