<?xml version="1.0" encoding="UTF-8" standalone="no"?>
<!DOCTYPE svg PUBLIC "-//W3C//DTD SVG 1.1//EN"
 "http://www.w3.org/Graphics/SVG/1.1/DTD/svg11.dtd">
<!-- Generated by graphviz version 2.43.0 (0)
 -->
<!-- Title: src/utils/math/factorization/LUP.h Pages: 1 -->
<!--zoomable 307 -->
<svg id="main" version="1.1" xmlns="http://www.w3.org/2000/svg" xmlns:xlink="http://www.w3.org/1999/xlink" xml:space="preserve" onload="init(evt)">
<style type="text/css"><![CDATA[
.edge:hover path { stroke: red; }
.edge:hover polygon { stroke: red; fill: red; }
]]></style>
<script type="text/javascript"><![CDATA[
var edges = document.getElementsByTagName('g');
if (edges && edges.length) {
  for (var i=0;i<edges.length;i++) {
    if (edges[i].id.substr(0,4)=='edge') {
      edges[i].setAttribute('class','edge');
    }
  }
}
]]></script>
        <defs>
                <circle id="rim" cx="0" cy="0" r="7"/>
                <circle id="rim2" cx="0" cy="0" r="3.5"/>
                <g id="zoomPlus">
                        <use xlink:href="#rim" fill="#404040">
                                <set attributeName="fill" to="#808080" begin="zoomplus.mouseover" end="zoomplus.mouseout"/>
                        </use>
                        <path d="M-4,0h8M0,-4v8" fill="none" stroke="white" stroke-width="1.5" pointer-events="none"/>
                </g>
                <g id="zoomMin">
                        <use xlink:href="#rim" fill="#404040">
                                <set attributeName="fill" to="#808080" begin="zoomminus.mouseover" end="zoomminus.mouseout"/>
                        </use>
                        <path d="M-4,0h8" fill="none" stroke="white" stroke-width="1.5" pointer-events="none"/>
                </g>
                <g id="dirArrow">
                        <path fill="none" stroke="white" stroke-width="1.5" d="M0,-3.0v7 M-2.5,-0.5L0,-3.0L2.5,-0.5"/>
                </g>
               <g id="resetDef">
                       <use xlink:href="#rim2" fill="#404040">
                               <set attributeName="fill" to="#808080" begin="reset.mouseover" end="reset.mouseout"/>
                       </use>
               </g>
        </defs>

<script type="text/javascript">
var viewWidth = 1885;
var viewHeight = 307;
var sectionId = 'dynsection-1';
</script>
<script xlink:href="../../svgpan.js"/>
<svg id="graph" class="graph">
<g id="viewport">
<title>src/utils/math/factorization/LUP.h</title>
<polygon fill="white" stroke="transparent" points="-4,4 -4,-303 1881,-303 1881,4 -4,4"/>
<!-- Node1 -->
<g id="node1" class="node">
<title>Node1</title>
<g id="a_node1"><a xlink:title="LU factorization with pivoting.">
<polygon fill="#bfbfbf" stroke="black" points="735,-268.5 735,-298.5 883,-298.5 883,-268.5 735,-268.5"/>
<text text-anchor="start" x="743" y="-286.5" font-family="Helvetica,sans-Serif" font-size="10.00">src/utils/math/factorization</text>
<text text-anchor="middle" x="809" y="-275.5" font-family="Helvetica,sans-Serif" font-size="10.00">/LUP.h</text>
</a>
</g>
</g>
<!-- Node2 -->
<g id="node2" class="node">
<title>Node2</title>
<g id="a_node2"><a xlink:href="../../d9/d4c/labs_2inlab13_2Compute_8h.html" target="_top" xlink:title="Compute methods for inlab13 in NE591&#45;008.">
<polygon fill="white" stroke="black" points="87.5,-207 87.5,-226 236.5,-226 236.5,-207 87.5,-207"/>
<text text-anchor="middle" x="162" y="-214" font-family="Helvetica,sans-Serif" font-size="10.00">src/labs/inlab13/Compute.h</text>
</a>
</g>
</g>
<!-- Node1&#45;&gt;Node2 -->
<g id="edge1" class="edge">
<title>Node1&#45;&gt;Node2</title>
<path fill="none" stroke="midnightblue" d="M724.81,-275.51C619.17,-266.52 432.49,-249.92 273,-232 257.16,-230.22 240.08,-228.09 224.18,-226.02"/>
<polygon fill="midnightblue" stroke="midnightblue" points="724.52,-279 734.78,-276.36 725.11,-272.02 724.52,-279"/>
</g>
<!-- Node6 -->
<g id="node6" class="node">
<title>Node6</title>
<g id="a_node6"><a xlink:href="../../dc/da1/labs_2outlab13_2Compute_8h.html" target="_top" xlink:title="Compute methods for outlab13 in NE591&#45;008.">
<polygon fill="white" stroke="black" points="282,-207 282,-226 438,-226 438,-207 282,-207"/>
<text text-anchor="middle" x="360" y="-214" font-family="Helvetica,sans-Serif" font-size="10.00">src/labs/outlab13/Compute.h</text>
</a>
</g>
</g>
<!-- Node1&#45;&gt;Node6 -->
<g id="edge6" class="edge">
<title>Node1&#45;&gt;Node6</title>
<path fill="none" stroke="midnightblue" d="M724.86,-271.32C651.64,-261.45 542.71,-246.42 448,-232 435.91,-230.16 422.9,-228.07 410.69,-226.07"/>
<polygon fill="midnightblue" stroke="midnightblue" points="724.57,-274.81 734.94,-272.68 725.5,-267.87 724.57,-274.81"/>
</g>
<!-- Node10 -->
<g id="node10" class="node">
<title>Node10</title>
<g id="a_node10"><a xlink:href="../../dc/d21/labs_2outlab6_2Compute_8h.html" target="_top" xlink:title="This file contains the Compute namespace which includes methods for solving linear systems using vari...">
<polygon fill="white" stroke="black" points="457,-207 457,-226 607,-226 607,-207 457,-207"/>
<text text-anchor="middle" x="532" y="-214" font-family="Helvetica,sans-Serif" font-size="10.00">src/labs/outlab6/Compute.h</text>
</a>
</g>
</g>
<!-- Node1&#45;&gt;Node10 -->
<g id="edge11" class="edge">
<title>Node1&#45;&gt;Node10</title>
<path fill="none" stroke="midnightblue" d="M739.32,-266.15C684.96,-253.39 611.65,-236.19 568.35,-226.03"/>
<polygon fill="midnightblue" stroke="midnightblue" points="738.7,-269.6 749.24,-268.48 740.3,-262.78 738.7,-269.6"/>
</g>
<!-- Node13 -->
<g id="node13" class="node">
<title>Node13</title>
<g id="a_node13"><a xlink:href="../../d7/da1/project_2project1_2Compute_8h.html" target="_top" xlink:title="Compute methods for project milestone 1 in NE591&#45;008.">
<polygon fill="white" stroke="black" points="626,-201.5 626,-231.5 736,-231.5 736,-201.5 626,-201.5"/>
<text text-anchor="start" x="634" y="-219.5" font-family="Helvetica,sans-Serif" font-size="10.00">src/project/project1</text>
<text text-anchor="middle" x="681" y="-208.5" font-family="Helvetica,sans-Serif" font-size="10.00">/Compute.h</text>
</a>
</g>
</g>
<!-- Node1&#45;&gt;Node13 -->
<g id="edge14" class="edge">
<title>Node1&#45;&gt;Node13</title>
<path fill="none" stroke="midnightblue" d="M772.28,-263.85C752.04,-253.58 727.33,-241.03 708.72,-231.58"/>
<polygon fill="midnightblue" stroke="midnightblue" points="770.72,-266.99 781.23,-268.4 773.89,-260.75 770.72,-266.99"/>
</g>
<!-- Node17 -->
<g id="node17" class="node">
<title>Node17</title>
<g id="a_node17"><a xlink:href="../../db/d6e/project_2project2_2Compute_8h.html" target="_top" xlink:title="Compute methods for project milestone 1 in NE591&#45;008.">
<polygon fill="white" stroke="black" points="754,-201.5 754,-231.5 864,-231.5 864,-201.5 754,-201.5"/>
<text text-anchor="start" x="762" y="-219.5" font-family="Helvetica,sans-Serif" font-size="10.00">src/project/project2</text>
<text text-anchor="middle" x="809" y="-208.5" font-family="Helvetica,sans-Serif" font-size="10.00">/Compute.h</text>
</a>
</g>
</g>
<!-- Node1&#45;&gt;Node17 -->
<g id="edge19" class="edge">
<title>Node1&#45;&gt;Node17</title>
<path fill="none" stroke="midnightblue" d="M809,-258.11C809,-249.15 809,-239.32 809,-231.58"/>
<polygon fill="midnightblue" stroke="midnightblue" points="805.5,-258.4 809,-268.4 812.5,-258.4 805.5,-258.4"/>
</g>
<!-- Node21 -->
<g id="node21" class="node">
<title>Node21</title>
<g id="a_node21"><a xlink:href="../../d8/d8f/project_2project3_2Compute_8h.html" target="_top" xlink:title="Compute methods for project milestone 3 in NE591&#45;008.">
<polygon fill="white" stroke="black" points="882,-201.5 882,-231.5 992,-231.5 992,-201.5 882,-201.5"/>
<text text-anchor="start" x="890" y="-219.5" font-family="Helvetica,sans-Serif" font-size="10.00">src/project/project3</text>
<text text-anchor="middle" x="937" y="-208.5" font-family="Helvetica,sans-Serif" font-size="10.00">/Compute.h</text>
</a>
</g>
</g>
<!-- Node1&#45;&gt;Node21 -->
<g id="edge24" class="edge">
<title>Node1&#45;&gt;Node21</title>
<path fill="none" stroke="midnightblue" d="M845.72,-263.85C865.96,-253.58 890.67,-241.03 909.28,-231.58"/>
<polygon fill="midnightblue" stroke="midnightblue" points="844.11,-260.75 836.77,-268.4 847.28,-266.99 844.11,-260.75"/>
</g>
<!-- Node25 -->
<g id="node25" class="node">
<title>Node25</title>
<g id="a_node25"><a xlink:href="../../df/def/project_2project4_2Compute_8h.html" target="_top" xlink:title="Compute methods for project milestone 4 in NE591&#45;008.">
<polygon fill="white" stroke="black" points="1048,-201.5 1048,-231.5 1158,-231.5 1158,-201.5 1048,-201.5"/>
<text text-anchor="start" x="1056" y="-219.5" font-family="Helvetica,sans-Serif" font-size="10.00">src/project/project4</text>
<text text-anchor="middle" x="1103" y="-208.5" font-family="Helvetica,sans-Serif" font-size="10.00">/Compute.h</text>
</a>
</g>
</g>
<!-- Node1&#45;&gt;Node25 -->
<g id="edge29" class="edge">
<title>Node1&#45;&gt;Node25</title>
<path fill="none" stroke="midnightblue" d="M882.45,-266.26C933.65,-254.94 1000.89,-240.08 1047.6,-229.75"/>
<polygon fill="midnightblue" stroke="midnightblue" points="881.44,-262.9 872.43,-268.48 882.95,-269.73 881.44,-262.9"/>
</g>
<!-- Node29 -->
<g id="node29" class="node">
<title>Node29</title>
<g id="a_node29"><a xlink:href="../../da/da0/project_2project5_2Compute_8h.html" target="_top" xlink:title="Compute methods for project milestone 5 in NE591&#45;008.">
<polygon fill="white" stroke="black" points="1214,-201.5 1214,-231.5 1324,-231.5 1324,-201.5 1214,-201.5"/>
<text text-anchor="start" x="1222" y="-219.5" font-family="Helvetica,sans-Serif" font-size="10.00">src/project/project5</text>
<text text-anchor="middle" x="1269" y="-208.5" font-family="Helvetica,sans-Serif" font-size="10.00">/Compute.h</text>
</a>
</g>
</g>
<!-- Node1&#45;&gt;Node29 -->
<g id="edge34" class="edge">
<title>Node1&#45;&gt;Node29</title>
<path fill="none" stroke="midnightblue" d="M893.05,-270.67C965.6,-260.45 1073.22,-245.28 1167,-232 1182.23,-229.84 1198.74,-227.5 1213.95,-225.34"/>
<polygon fill="midnightblue" stroke="midnightblue" points="892.47,-267.22 883.05,-272.08 893.44,-274.15 892.47,-267.22"/>
</g>
<!-- Node33 -->
<g id="node33" class="node">
<title>Node33</title>
<g id="a_node33"><a xlink:href="../../da/dbd/PowerIteration_8h.html" target="_top" xlink:title="This file contains the implementation of the power iterations for solving systems of linear equations...">
<polygon fill="white" stroke="black" points="1471,-201.5 1471,-231.5 1607,-231.5 1607,-201.5 1471,-201.5"/>
<text text-anchor="start" x="1479" y="-219.5" font-family="Helvetica,sans-Serif" font-size="10.00">src/utils/math/relaxation</text>
<text text-anchor="middle" x="1539" y="-208.5" font-family="Helvetica,sans-Serif" font-size="10.00">/PowerIteration.h</text>
</a>
</g>
</g>
<!-- Node1&#45;&gt;Node33 -->
<g id="edge39" class="edge">
<title>Node1&#45;&gt;Node33</title>
<path fill="none" stroke="midnightblue" d="M893.27,-275C1039.39,-261.99 1336.97,-235.49 1470.94,-223.56"/>
<polygon fill="midnightblue" stroke="midnightblue" points="892.66,-271.54 883.01,-275.91 893.28,-278.51 892.66,-271.54"/>
</g>
<!-- Node3 -->
<g id="node3" class="node">
<title>Node3</title>
<g id="a_node3"><a xlink:href="../../d2/ddd/labs_2inlab13_2Parser_8h.html" target="_top" xlink:title="This file contains the Parser class which is responsible for parsing command line arguments and valid...">
<polygon fill="white" stroke="black" points="0,-140 0,-159 134,-159 134,-140 0,-140"/>
<text text-anchor="middle" x="67" y="-147" font-family="Helvetica,sans-Serif" font-size="10.00">src/labs/inlab13/Parser.h</text>
</a>
</g>
</g>
<!-- Node2&#45;&gt;Node3 -->
<g id="edge2" class="edge">
<title>Node2&#45;&gt;Node3</title>
<path fill="none" stroke="midnightblue" d="M140.69,-200.92C121.91,-188.07 95.18,-169.78 79.61,-159.13"/>
<polygon fill="midnightblue" stroke="midnightblue" points="138.96,-203.98 149.19,-206.73 142.91,-198.2 138.96,-203.98"/>
</g>
<!-- Node4 -->
<g id="node4" class="node">
<title>Node4</title>
<g id="a_node4"><a xlink:href="../../d7/d99/inlab13_8h.html" target="_top" xlink:title=" ">
<polygon fill="white" stroke="black" points="11.5,-73 11.5,-92 152.5,-92 152.5,-73 11.5,-73"/>
<text text-anchor="middle" x="82" y="-80" font-family="Helvetica,sans-Serif" font-size="10.00">src/labs/inlab13/inlab13.h</text>
</a>
</g>
</g>
<!-- Node2&#45;&gt;Node4 -->
<g id="edge5" class="edge">
<title>Node2&#45;&gt;Node4</title>
<path fill="none" stroke="midnightblue" d="M161.05,-196.96C159.41,-179.55 154.98,-153.36 143,-134 131.64,-115.65 111.27,-100.81 97.22,-92.08"/>
<polygon fill="midnightblue" stroke="midnightblue" points="157.56,-197.25 161.77,-206.97 164.54,-196.74 157.56,-197.25"/>
</g>
<!-- Node3&#45;&gt;Node4 -->
<g id="edge3" class="edge">
<title>Node3&#45;&gt;Node4</title>
<path fill="none" stroke="midnightblue" d="M71.29,-129.91C74.16,-117.49 77.8,-101.72 80.01,-92.13"/>
<polygon fill="midnightblue" stroke="midnightblue" points="67.86,-129.2 69.02,-139.73 74.68,-130.78 67.86,-129.2"/>
</g>
<!-- Node5 -->
<g id="node5" class="node">
<title>Node5</title>
<g id="a_node5"><a xlink:href="../../d1/d0e/labs_2inlab13_2main_8cpp.html" target="_top" xlink:title=" ">
<polygon fill="white" stroke="black" points="11.5,-6 11.5,-25 152.5,-25 152.5,-6 11.5,-6"/>
<text text-anchor="middle" x="82" y="-13" font-family="Helvetica,sans-Serif" font-size="10.00">src/labs/inlab13/main.cpp</text>
</a>
</g>
</g>
<!-- Node4&#45;&gt;Node5 -->
<g id="edge4" class="edge">
<title>Node4&#45;&gt;Node5</title>
<path fill="none" stroke="midnightblue" d="M82,-62.54C82,-50.17 82,-34.62 82,-25.13"/>
<polygon fill="midnightblue" stroke="midnightblue" points="78.5,-62.73 82,-72.73 85.5,-62.73 78.5,-62.73"/>
</g>
<!-- Node7 -->
<g id="node7" class="node">
<title>Node7</title>
<g id="a_node7"><a xlink:href="../../db/d7a/labs_2outlab13_2Parser_8h.html" target="_top" xlink:title="This file contains the Parser class which is responsible for parsing command line arguments and valid...">
<polygon fill="white" stroke="black" points="190.5,-140 190.5,-159 331.5,-159 331.5,-140 190.5,-140"/>
<text text-anchor="middle" x="261" y="-147" font-family="Helvetica,sans-Serif" font-size="10.00">src/labs/outlab13/Parser.h</text>
</a>
</g>
</g>
<!-- Node6&#45;&gt;Node7 -->
<g id="edge7" class="edge">
<title>Node6&#45;&gt;Node7</title>
<path fill="none" stroke="midnightblue" d="M338.06,-201.09C318.47,-188.24 290.44,-169.83 274.14,-159.13"/>
<polygon fill="midnightblue" stroke="midnightblue" points="336.37,-204.17 346.65,-206.73 340.21,-198.32 336.37,-204.17"/>
</g>
<!-- Node8 -->
<g id="node8" class="node">
<title>Node8</title>
<g id="a_node8"><a xlink:href="../../df/de1/outlab13_8h.html" target="_top" xlink:title=" ">
<polygon fill="white" stroke="black" points="200.5,-73 200.5,-92 355.5,-92 355.5,-73 200.5,-73"/>
<text text-anchor="middle" x="278" y="-80" font-family="Helvetica,sans-Serif" font-size="10.00">src/labs/outlab13/outlab13.h</text>
</a>
</g>
</g>
<!-- Node6&#45;&gt;Node8 -->
<g id="edge10" class="edge">
<title>Node6&#45;&gt;Node8</title>
<path fill="none" stroke="midnightblue" d="M358.81,-196.93C356.96,-179.5 352.2,-153.29 340,-134 328.35,-115.58 307.67,-100.76 293.42,-92.05"/>
<polygon fill="midnightblue" stroke="midnightblue" points="355.33,-197.29 359.66,-206.95 362.31,-196.69 355.33,-197.29"/>
</g>
<!-- Node7&#45;&gt;Node8 -->
<g id="edge8" class="edge">
<title>Node7&#45;&gt;Node8</title>
<path fill="none" stroke="midnightblue" d="M265.86,-129.91C269.11,-117.49 273.24,-101.72 275.74,-92.13"/>
<polygon fill="midnightblue" stroke="midnightblue" points="262.44,-129.17 263.29,-139.73 269.21,-130.94 262.44,-129.17"/>
</g>
<!-- Node9 -->
<g id="node9" class="node">
<title>Node9</title>
<g id="a_node9"><a xlink:href="../../db/d47/labs_2outlab13_2main_8cpp.html" target="_top" xlink:title=" ">
<polygon fill="white" stroke="black" points="204,-6 204,-25 352,-25 352,-6 204,-6"/>
<text text-anchor="middle" x="278" y="-13" font-family="Helvetica,sans-Serif" font-size="10.00">src/labs/outlab13/main.cpp</text>
</a>
</g>
</g>
<!-- Node8&#45;&gt;Node9 -->
<g id="edge9" class="edge">
<title>Node8&#45;&gt;Node9</title>
<path fill="none" stroke="midnightblue" d="M278,-62.54C278,-50.17 278,-34.62 278,-25.13"/>
<polygon fill="midnightblue" stroke="midnightblue" points="274.5,-62.73 278,-72.73 281.5,-62.73 274.5,-62.73"/>
</g>
<!-- Node11 -->
<g id="node11" class="node">
<title>Node11</title>
<g id="a_node11"><a xlink:href="../../df/df9/outlab6_8h.html" target="_top" xlink:title=" ">
<polygon fill="white" stroke="black" points="388.5,-140 388.5,-159 531.5,-159 531.5,-140 388.5,-140"/>
<text text-anchor="middle" x="460" y="-147" font-family="Helvetica,sans-Serif" font-size="10.00">src/labs/outlab6/outlab6.h</text>
</a>
</g>
</g>
<!-- Node10&#45;&gt;Node11 -->
<g id="edge12" class="edge">
<title>Node10&#45;&gt;Node11</title>
<path fill="none" stroke="midnightblue" d="M514.67,-199.86C500.52,-187.08 481.04,-169.49 469.56,-159.13"/>
<polygon fill="midnightblue" stroke="midnightblue" points="512.52,-202.63 522.29,-206.73 517.21,-197.43 512.52,-202.63"/>
</g>
<!-- Node12 -->
<g id="node12" class="node">
<title>Node12</title>
<g id="a_node12"><a xlink:href="../../d4/d5d/labs_2outlab6_2main_8cpp.html" target="_top" xlink:title=" ">
<polygon fill="white" stroke="black" points="389,-73 389,-92 531,-92 531,-73 389,-73"/>
<text text-anchor="middle" x="460" y="-80" font-family="Helvetica,sans-Serif" font-size="10.00">src/labs/outlab6/main.cpp</text>
</a>
</g>
</g>
<!-- Node11&#45;&gt;Node12 -->
<g id="edge13" class="edge">
<title>Node11&#45;&gt;Node12</title>
<path fill="none" stroke="midnightblue" d="M460,-129.54C460,-117.17 460,-101.62 460,-92.13"/>
<polygon fill="midnightblue" stroke="midnightblue" points="456.5,-129.73 460,-139.73 463.5,-129.73 456.5,-129.73"/>
</g>
<!-- Node14 -->
<g id="node14" class="node">
<title>Node14</title>
<g id="a_node14"><a xlink:href="../../d0/df9/project_2project1_2Parser_8h.html" target="_top" xlink:title="This file contains the Parser class which is responsible for parsing command line arguments and valid...">
<polygon fill="white" stroke="black" points="550,-134.5 550,-164.5 660,-164.5 660,-134.5 550,-134.5"/>
<text text-anchor="start" x="558" y="-152.5" font-family="Helvetica,sans-Serif" font-size="10.00">src/project/project1</text>
<text text-anchor="middle" x="605" y="-141.5" font-family="Helvetica,sans-Serif" font-size="10.00">/Parser.h</text>
</a>
</g>
</g>
<!-- Node13&#45;&gt;Node14 -->
<g id="edge15" class="edge">
<title>Node13&#45;&gt;Node14</title>
<path fill="none" stroke="midnightblue" d="M656.89,-194.88C645.34,-185.01 631.81,-173.43 621.46,-164.58"/>
<polygon fill="midnightblue" stroke="midnightblue" points="654.63,-197.56 664.51,-201.4 659.18,-192.24 654.63,-197.56"/>
</g>
<!-- Node15 -->
<g id="node15" class="node">
<title>Node15</title>
<g id="a_node15"><a xlink:href="../../d3/df7/project1_8h.html" target="_top" xlink:title=" ">
<polygon fill="white" stroke="black" points="569,-67.5 569,-97.5 679,-97.5 679,-67.5 569,-67.5"/>
<text text-anchor="start" x="577" y="-85.5" font-family="Helvetica,sans-Serif" font-size="10.00">src/project/project1</text>
<text text-anchor="middle" x="624" y="-74.5" font-family="Helvetica,sans-Serif" font-size="10.00">/project1.h</text>
</a>
</g>
</g>
<!-- Node13&#45;&gt;Node15 -->
<g id="edge18" class="edge">
<title>Node13&#45;&gt;Node15</title>
<path fill="none" stroke="midnightblue" d="M681.04,-191.14C680.21,-174.37 677.39,-151.96 669,-134 662.44,-119.96 650.68,-106.97 640.83,-97.68"/>
<polygon fill="midnightblue" stroke="midnightblue" points="677.54,-191.35 681.33,-201.25 684.54,-191.15 677.54,-191.35"/>
</g>
<!-- Node14&#45;&gt;Node15 -->
<g id="edge16" class="edge">
<title>Node14&#45;&gt;Node15</title>
<path fill="none" stroke="midnightblue" d="M611.96,-124.7C614.62,-115.59 617.57,-105.49 619.89,-97.58"/>
<polygon fill="midnightblue" stroke="midnightblue" points="608.57,-123.82 609.12,-134.4 615.29,-125.78 608.57,-123.82"/>
</g>
<!-- Node16 -->
<g id="node16" class="node">
<title>Node16</title>
<g id="a_node16"><a xlink:href="../../d2/d85/project_2project1_2main_8cpp.html" target="_top" xlink:title=" ">
<polygon fill="white" stroke="black" points="569,-0.5 569,-30.5 679,-30.5 679,-0.5 569,-0.5"/>
<text text-anchor="start" x="577" y="-18.5" font-family="Helvetica,sans-Serif" font-size="10.00">src/project/project1</text>
<text text-anchor="middle" x="624" y="-7.5" font-family="Helvetica,sans-Serif" font-size="10.00">/main.cpp</text>
</a>
</g>
</g>
<!-- Node15&#45;&gt;Node16 -->
<g id="edge17" class="edge">
<title>Node15&#45;&gt;Node16</title>
<path fill="none" stroke="midnightblue" d="M624,-57.11C624,-48.15 624,-38.32 624,-30.58"/>
<polygon fill="midnightblue" stroke="midnightblue" points="620.5,-57.4 624,-67.4 627.5,-57.4 620.5,-57.4"/>
</g>
<!-- Node18 -->
<g id="node18" class="node">
<title>Node18</title>
<g id="a_node18"><a xlink:href="../../dc/d79/project2_8h.html" target="_top" xlink:title=" ">
<polygon fill="white" stroke="black" points="716,-67.5 716,-97.5 826,-97.5 826,-67.5 716,-67.5"/>
<text text-anchor="start" x="724" y="-85.5" font-family="Helvetica,sans-Serif" font-size="10.00">src/project/project2</text>
<text text-anchor="middle" x="771" y="-74.5" font-family="Helvetica,sans-Serif" font-size="10.00">/project2.h</text>
</a>
</g>
</g>
<!-- Node17&#45;&gt;Node18 -->
<g id="edge20" class="edge">
<title>Node17&#45;&gt;Node18</title>
<path fill="none" stroke="midnightblue" d="M772.88,-195.8C761.85,-187.81 751.05,-177.48 745,-165 734.05,-142.41 748.89,-114.13 760.24,-97.51"/>
<polygon fill="midnightblue" stroke="midnightblue" points="771.02,-198.78 781.28,-201.46 774.93,-192.97 771.02,-198.78"/>
</g>
<!-- Node20 -->
<g id="node20" class="node">
<title>Node20</title>
<g id="a_node20"><a xlink:href="../../d6/da7/project_2project2_2Parser_8h.html" target="_top" xlink:title="This file contains the Parser class which is responsible for parsing command line arguments and valid...">
<polygon fill="white" stroke="black" points="754,-134.5 754,-164.5 864,-164.5 864,-134.5 754,-134.5"/>
<text text-anchor="start" x="762" y="-152.5" font-family="Helvetica,sans-Serif" font-size="10.00">src/project/project2</text>
<text text-anchor="middle" x="809" y="-141.5" font-family="Helvetica,sans-Serif" font-size="10.00">/Parser.h</text>
</a>
</g>
</g>
<!-- Node17&#45;&gt;Node20 -->
<g id="edge22" class="edge">
<title>Node17&#45;&gt;Node20</title>
<path fill="none" stroke="midnightblue" d="M809,-191.11C809,-182.15 809,-172.32 809,-164.58"/>
<polygon fill="midnightblue" stroke="midnightblue" points="805.5,-191.4 809,-201.4 812.5,-191.4 805.5,-191.4"/>
</g>
<!-- Node19 -->
<g id="node19" class="node">
<title>Node19</title>
<g id="a_node19"><a xlink:href="../../dd/d48/project_2project2_2main_8cpp.html" target="_top" xlink:title=" ">
<polygon fill="white" stroke="black" points="716,-0.5 716,-30.5 826,-30.5 826,-0.5 716,-0.5"/>
<text text-anchor="start" x="724" y="-18.5" font-family="Helvetica,sans-Serif" font-size="10.00">src/project/project2</text>
<text text-anchor="middle" x="771" y="-7.5" font-family="Helvetica,sans-Serif" font-size="10.00">/main.cpp</text>
</a>
</g>
</g>
<!-- Node18&#45;&gt;Node19 -->
<g id="edge21" class="edge">
<title>Node18&#45;&gt;Node19</title>
<path fill="none" stroke="midnightblue" d="M771,-57.11C771,-48.15 771,-38.32 771,-30.58"/>
<polygon fill="midnightblue" stroke="midnightblue" points="767.5,-57.4 771,-67.4 774.5,-57.4 767.5,-57.4"/>
</g>
<!-- Node20&#45;&gt;Node18 -->
<g id="edge23" class="edge">
<title>Node20&#45;&gt;Node18</title>
<path fill="none" stroke="midnightblue" d="M795.6,-125.58C790.14,-116.24 784.01,-105.75 779.23,-97.58"/>
<polygon fill="midnightblue" stroke="midnightblue" points="792.69,-127.53 800.75,-134.4 798.73,-124 792.69,-127.53"/>
</g>
<!-- Node22 -->
<g id="node22" class="node">
<title>Node22</title>
<g id="a_node22"><a xlink:href="../../d7/d5d/project_2project3_2Parser_8h.html" target="_top" xlink:title="This file contains the Parser class which is responsible for parsing command line arguments and valid...">
<polygon fill="white" stroke="black" points="882,-134.5 882,-164.5 992,-164.5 992,-134.5 882,-134.5"/>
<text text-anchor="start" x="890" y="-152.5" font-family="Helvetica,sans-Serif" font-size="10.00">src/project/project3</text>
<text text-anchor="middle" x="937" y="-141.5" font-family="Helvetica,sans-Serif" font-size="10.00">/Parser.h</text>
</a>
</g>
</g>
<!-- Node21&#45;&gt;Node22 -->
<g id="edge25" class="edge">
<title>Node21&#45;&gt;Node22</title>
<path fill="none" stroke="midnightblue" d="M937,-191.11C937,-182.15 937,-172.32 937,-164.58"/>
<polygon fill="midnightblue" stroke="midnightblue" points="933.5,-191.4 937,-201.4 940.5,-191.4 933.5,-191.4"/>
</g>
<!-- Node23 -->
<g id="node23" class="node">
<title>Node23</title>
<g id="a_node23"><a xlink:href="../../da/d0a/project3_8h.html" target="_top" xlink:title=" ">
<polygon fill="white" stroke="black" points="910,-67.5 910,-97.5 1020,-97.5 1020,-67.5 910,-67.5"/>
<text text-anchor="start" x="918" y="-85.5" font-family="Helvetica,sans-Serif" font-size="10.00">src/project/project3</text>
<text text-anchor="middle" x="965" y="-74.5" font-family="Helvetica,sans-Serif" font-size="10.00">/project3.h</text>
</a>
</g>
</g>
<!-- Node21&#45;&gt;Node23 -->
<g id="edge28" class="edge">
<title>Node21&#45;&gt;Node23</title>
<path fill="none" stroke="midnightblue" d="M973.12,-195.8C984.15,-187.81 994.95,-177.48 1001,-165 1012.27,-141.76 993.51,-114.16 979.11,-97.77"/>
<polygon fill="midnightblue" stroke="midnightblue" points="971.07,-192.97 964.72,-201.46 974.98,-198.78 971.07,-192.97"/>
</g>
<!-- Node22&#45;&gt;Node23 -->
<g id="edge26" class="edge">
<title>Node22&#45;&gt;Node23</title>
<path fill="none" stroke="midnightblue" d="M947.13,-124.99C951.08,-115.8 955.49,-105.58 958.94,-97.58"/>
<polygon fill="midnightblue" stroke="midnightblue" points="943.82,-123.83 943.08,-134.4 950.25,-126.6 943.82,-123.83"/>
</g>
<!-- Node24 -->
<g id="node24" class="node">
<title>Node24</title>
<g id="a_node24"><a xlink:href="../../de/ddf/project_2project3_2main_8cpp.html" target="_top" xlink:title=" ">
<polygon fill="white" stroke="black" points="910,-0.5 910,-30.5 1020,-30.5 1020,-0.5 910,-0.5"/>
<text text-anchor="start" x="918" y="-18.5" font-family="Helvetica,sans-Serif" font-size="10.00">src/project/project3</text>
<text text-anchor="middle" x="965" y="-7.5" font-family="Helvetica,sans-Serif" font-size="10.00">/main.cpp</text>
</a>
</g>
</g>
<!-- Node23&#45;&gt;Node24 -->
<g id="edge27" class="edge">
<title>Node23&#45;&gt;Node24</title>
<path fill="none" stroke="midnightblue" d="M965,-57.11C965,-48.15 965,-38.32 965,-30.58"/>
<polygon fill="midnightblue" stroke="midnightblue" points="961.5,-57.4 965,-67.4 968.5,-57.4 961.5,-57.4"/>
</g>
<!-- Node26 -->
<g id="node26" class="node">
<title>Node26</title>
<g id="a_node26"><a xlink:href="../../db/d50/project_2project4_2Parser_8h.html" target="_top" xlink:title="This file contains the Parser class which is responsible for parsing command line arguments and valid...">
<polygon fill="white" stroke="black" points="1048,-134.5 1048,-164.5 1158,-164.5 1158,-134.5 1048,-134.5"/>
<text text-anchor="start" x="1056" y="-152.5" font-family="Helvetica,sans-Serif" font-size="10.00">src/project/project4</text>
<text text-anchor="middle" x="1103" y="-141.5" font-family="Helvetica,sans-Serif" font-size="10.00">/Parser.h</text>
</a>
</g>
</g>
<!-- Node25&#45;&gt;Node26 -->
<g id="edge30" class="edge">
<title>Node25&#45;&gt;Node26</title>
<path fill="none" stroke="midnightblue" d="M1103,-191.11C1103,-182.15 1103,-172.32 1103,-164.58"/>
<polygon fill="midnightblue" stroke="midnightblue" points="1099.5,-191.4 1103,-201.4 1106.5,-191.4 1099.5,-191.4"/>
</g>
<!-- Node27 -->
<g id="node27" class="node">
<title>Node27</title>
<g id="a_node27"><a xlink:href="../../d9/d80/project4_8h.html" target="_top" xlink:title=" ">
<polygon fill="white" stroke="black" points="1087,-67.5 1087,-97.5 1197,-97.5 1197,-67.5 1087,-67.5"/>
<text text-anchor="start" x="1095" y="-85.5" font-family="Helvetica,sans-Serif" font-size="10.00">src/project/project4</text>
<text text-anchor="middle" x="1142" y="-74.5" font-family="Helvetica,sans-Serif" font-size="10.00">/project4.h</text>
</a>
</g>
</g>
<!-- Node25&#45;&gt;Node27 -->
<g id="edge33" class="edge">
<title>Node25&#45;&gt;Node27</title>
<path fill="none" stroke="midnightblue" d="M1139.12,-195.8C1150.15,-187.81 1160.95,-177.48 1167,-165 1177.91,-142.49 1163.52,-114.18 1152.48,-97.54"/>
<polygon fill="midnightblue" stroke="midnightblue" points="1137.07,-192.97 1130.72,-201.46 1140.98,-198.78 1137.07,-192.97"/>
</g>
<!-- Node26&#45;&gt;Node27 -->
<g id="edge31" class="edge">
<title>Node26&#45;&gt;Node27</title>
<path fill="none" stroke="midnightblue" d="M1116.75,-125.58C1122.36,-116.24 1128.65,-105.75 1133.55,-97.58"/>
<polygon fill="midnightblue" stroke="midnightblue" points="1113.61,-124.02 1111.46,-134.4 1119.61,-127.62 1113.61,-124.02"/>
</g>
<!-- Node28 -->
<g id="node28" class="node">
<title>Node28</title>
<g id="a_node28"><a xlink:href="../../d0/d86/project_2project4_2main_8cpp.html" target="_top" xlink:title=" ">
<polygon fill="white" stroke="black" points="1087,-0.5 1087,-30.5 1197,-30.5 1197,-0.5 1087,-0.5"/>
<text text-anchor="start" x="1095" y="-18.5" font-family="Helvetica,sans-Serif" font-size="10.00">src/project/project4</text>
<text text-anchor="middle" x="1142" y="-7.5" font-family="Helvetica,sans-Serif" font-size="10.00">/main.cpp</text>
</a>
</g>
</g>
<!-- Node27&#45;&gt;Node28 -->
<g id="edge32" class="edge">
<title>Node27&#45;&gt;Node28</title>
<path fill="none" stroke="midnightblue" d="M1142,-57.11C1142,-48.15 1142,-38.32 1142,-30.58"/>
<polygon fill="midnightblue" stroke="midnightblue" points="1138.5,-57.4 1142,-67.4 1145.5,-57.4 1138.5,-57.4"/>
</g>
<!-- Node30 -->
<g id="node30" class="node">
<title>Node30</title>
<g id="a_node30"><a xlink:href="../../de/db2/project_2project5_2Parser_8h.html" target="_top" xlink:title="This file contains the Parser class which is responsible for parsing command line arguments and valid...">
<polygon fill="white" stroke="black" points="1214,-134.5 1214,-164.5 1324,-164.5 1324,-134.5 1214,-134.5"/>
<text text-anchor="start" x="1222" y="-152.5" font-family="Helvetica,sans-Serif" font-size="10.00">src/project/project5</text>
<text text-anchor="middle" x="1269" y="-141.5" font-family="Helvetica,sans-Serif" font-size="10.00">/Parser.h</text>
</a>
</g>
</g>
<!-- Node29&#45;&gt;Node30 -->
<g id="edge35" class="edge">
<title>Node29&#45;&gt;Node30</title>
<path fill="none" stroke="midnightblue" d="M1269,-191.11C1269,-182.15 1269,-172.32 1269,-164.58"/>
<polygon fill="midnightblue" stroke="midnightblue" points="1265.5,-191.4 1269,-201.4 1272.5,-191.4 1265.5,-191.4"/>
</g>
<!-- Node31 -->
<g id="node31" class="node">
<title>Node31</title>
<g id="a_node31"><a xlink:href="../../d9/dde/project5_8h.html" target="_top" xlink:title=" ">
<polygon fill="white" stroke="black" points="1234,-67.5 1234,-97.5 1344,-97.5 1344,-67.5 1234,-67.5"/>
<text text-anchor="start" x="1242" y="-85.5" font-family="Helvetica,sans-Serif" font-size="10.00">src/project/project5</text>
<text text-anchor="middle" x="1289" y="-74.5" font-family="Helvetica,sans-Serif" font-size="10.00">/project5.h</text>
</a>
</g>
</g>
<!-- Node29&#45;&gt;Node31 -->
<g id="edge38" class="edge">
<title>Node29&#45;&gt;Node31</title>
<path fill="none" stroke="midnightblue" d="M1305.12,-195.8C1316.15,-187.81 1326.95,-177.48 1333,-165 1339.01,-152.6 1337.83,-146.9 1333,-134 1327.7,-119.84 1316.43,-107.04 1306.63,-97.87"/>
<polygon fill="midnightblue" stroke="midnightblue" points="1303.07,-192.97 1296.72,-201.46 1306.98,-198.78 1303.07,-192.97"/>
</g>
<!-- Node30&#45;&gt;Node31 -->
<g id="edge36" class="edge">
<title>Node30&#45;&gt;Node31</title>
<path fill="none" stroke="midnightblue" d="M1276.32,-124.7C1279.13,-115.59 1282.23,-105.49 1284.67,-97.58"/>
<polygon fill="midnightblue" stroke="midnightblue" points="1272.94,-123.81 1273.34,-134.4 1279.63,-125.87 1272.94,-123.81"/>
</g>
<!-- Node32 -->
<g id="node32" class="node">
<title>Node32</title>
<g id="a_node32"><a xlink:href="../../dc/dc7/project_2project5_2main_8cpp.html" target="_top" xlink:title=" ">
<polygon fill="white" stroke="black" points="1234,-0.5 1234,-30.5 1344,-30.5 1344,-0.5 1234,-0.5"/>
<text text-anchor="start" x="1242" y="-18.5" font-family="Helvetica,sans-Serif" font-size="10.00">src/project/project5</text>
<text text-anchor="middle" x="1289" y="-7.5" font-family="Helvetica,sans-Serif" font-size="10.00">/main.cpp</text>
</a>
</g>
</g>
<!-- Node31&#45;&gt;Node32 -->
<g id="edge37" class="edge">
<title>Node31&#45;&gt;Node32</title>
<path fill="none" stroke="midnightblue" d="M1289,-57.11C1289,-48.15 1289,-38.32 1289,-30.58"/>
<polygon fill="midnightblue" stroke="midnightblue" points="1285.5,-57.4 1289,-67.4 1292.5,-57.4 1285.5,-57.4"/>
</g>
<!-- Node34 -->
<g id="node34" class="node">
<title>Node34</title>
<g id="a_node34"><a xlink:href="../../d0/d26/labs_2inlab12_2Compute_8h.html" target="_top" xlink:title="This file contains the declaration and implementation of the Compute namespace.">
<polygon fill="white" stroke="black" points="1379.5,-140 1379.5,-159 1528.5,-159 1528.5,-140 1379.5,-140"/>
<text text-anchor="middle" x="1454" y="-147" font-family="Helvetica,sans-Serif" font-size="10.00">src/labs/inlab12/Compute.h</text>
</a>
</g>
</g>
<!-- Node33&#45;&gt;Node34 -->
<g id="edge40" class="edge">
<title>Node33&#45;&gt;Node34</title>
<path fill="none" stroke="midnightblue" d="M1512.2,-195.01C1496.42,-182.94 1477.28,-168.3 1465.37,-159.19"/>
<polygon fill="midnightblue" stroke="midnightblue" points="1510.49,-198.1 1520.56,-201.4 1514.74,-192.54 1510.49,-198.1"/>
</g>
<!-- Node37 -->
<g id="node37" class="node">
<title>Node37</title>
<g id="a_node37"><a xlink:href="../../d5/d6c/labs_2outlab11_2Compute_8h.html" target="_top" xlink:title="This file contains the declaration and implementation of the Compute namespace.">
<polygon fill="white" stroke="black" points="1547,-140 1547,-159 1703,-159 1703,-140 1547,-140"/>
<text text-anchor="middle" x="1625" y="-147" font-family="Helvetica,sans-Serif" font-size="10.00">src/labs/outlab11/Compute.h</text>
</a>
</g>
</g>
<!-- Node33&#45;&gt;Node37 -->
<g id="edge43" class="edge">
<title>Node33&#45;&gt;Node37</title>
<path fill="none" stroke="midnightblue" d="M1565.67,-195.34C1581.72,-183.21 1601.33,-168.39 1613.5,-159.19"/>
<polygon fill="midnightblue" stroke="midnightblue" points="1563.53,-192.57 1557.66,-201.4 1567.75,-198.16 1563.53,-192.57"/>
</g>
<!-- Node40 -->
<g id="node40" class="node">
<title>Node40</title>
<g id="a_node40"><a xlink:href="../../de/d3f/labs_2outlab12_2Compute_8h.html" target="_top" xlink:title="This file contains the declaration and implementation of the Compute namespace.">
<polygon fill="white" stroke="black" points="1721,-140 1721,-159 1877,-159 1877,-140 1721,-140"/>
<text text-anchor="middle" x="1799" y="-147" font-family="Helvetica,sans-Serif" font-size="10.00">src/labs/outlab12/Compute.h</text>
</a>
</g>
</g>
<!-- Node33&#45;&gt;Node40 -->
<g id="edge46" class="edge">
<title>Node33&#45;&gt;Node40</title>
<path fill="none" stroke="midnightblue" d="M1605.04,-198.99C1655.99,-186.25 1724.41,-169.15 1764.89,-159.03"/>
<polygon fill="midnightblue" stroke="midnightblue" points="1603.95,-195.66 1595.1,-201.48 1605.65,-202.45 1603.95,-195.66"/>
</g>
<!-- Node35 -->
<g id="node35" class="node">
<title>Node35</title>
<g id="a_node35"><a xlink:href="../../d2/de9/inlab12_8h.html" target="_top" xlink:title=" ">
<polygon fill="white" stroke="black" points="1383.5,-73 1383.5,-92 1524.5,-92 1524.5,-73 1383.5,-73"/>
<text text-anchor="middle" x="1454" y="-80" font-family="Helvetica,sans-Serif" font-size="10.00">src/labs/inlab12/inlab12.h</text>
</a>
</g>
</g>
<!-- Node34&#45;&gt;Node35 -->
<g id="edge41" class="edge">
<title>Node34&#45;&gt;Node35</title>
<path fill="none" stroke="midnightblue" d="M1454,-129.54C1454,-117.17 1454,-101.62 1454,-92.13"/>
<polygon fill="midnightblue" stroke="midnightblue" points="1450.5,-129.73 1454,-139.73 1457.5,-129.73 1450.5,-129.73"/>
</g>
<!-- Node36 -->
<g id="node36" class="node">
<title>Node36</title>
<g id="a_node36"><a xlink:href="../../db/d97/labs_2inlab12_2main_8cpp.html" target="_top" xlink:title=" ">
<polygon fill="white" stroke="black" points="1383.5,-6 1383.5,-25 1524.5,-25 1524.5,-6 1383.5,-6"/>
<text text-anchor="middle" x="1454" y="-13" font-family="Helvetica,sans-Serif" font-size="10.00">src/labs/inlab12/main.cpp</text>
</a>
</g>
</g>
<!-- Node35&#45;&gt;Node36 -->
<g id="edge42" class="edge">
<title>Node35&#45;&gt;Node36</title>
<path fill="none" stroke="midnightblue" d="M1454,-62.54C1454,-50.17 1454,-34.62 1454,-25.13"/>
<polygon fill="midnightblue" stroke="midnightblue" points="1450.5,-62.73 1454,-72.73 1457.5,-62.73 1450.5,-62.73"/>
</g>
<!-- Node38 -->
<g id="node38" class="node">
<title>Node38</title>
<g id="a_node38"><a xlink:href="../../d3/dbf/outlab11_8h.html" target="_top" xlink:title=" ">
<polygon fill="white" stroke="black" points="1547.5,-73 1547.5,-92 1702.5,-92 1702.5,-73 1547.5,-73"/>
<text text-anchor="middle" x="1625" y="-80" font-family="Helvetica,sans-Serif" font-size="10.00">src/labs/outlab11/outlab11.h</text>
</a>
</g>
</g>
<!-- Node37&#45;&gt;Node38 -->
<g id="edge44" class="edge">
<title>Node37&#45;&gt;Node38</title>
<path fill="none" stroke="midnightblue" d="M1625,-129.54C1625,-117.17 1625,-101.62 1625,-92.13"/>
<polygon fill="midnightblue" stroke="midnightblue" points="1621.5,-129.73 1625,-139.73 1628.5,-129.73 1621.5,-129.73"/>
</g>
<!-- Node39 -->
<g id="node39" class="node">
<title>Node39</title>
<g id="a_node39"><a xlink:href="../../d2/d48/labs_2outlab11_2main_8cpp.html" target="_top" xlink:title=" ">
<polygon fill="white" stroke="black" points="1551,-6 1551,-25 1699,-25 1699,-6 1551,-6"/>
<text text-anchor="middle" x="1625" y="-13" font-family="Helvetica,sans-Serif" font-size="10.00">src/labs/outlab11/main.cpp</text>
</a>
</g>
</g>
<!-- Node38&#45;&gt;Node39 -->
<g id="edge45" class="edge">
<title>Node38&#45;&gt;Node39</title>
<path fill="none" stroke="midnightblue" d="M1625,-62.54C1625,-50.17 1625,-34.62 1625,-25.13"/>
<polygon fill="midnightblue" stroke="midnightblue" points="1621.5,-62.73 1625,-72.73 1628.5,-62.73 1621.5,-62.73"/>
</g>
<!-- Node41 -->
<g id="node41" class="node">
<title>Node41</title>
<g id="a_node41"><a xlink:href="../../d6/dc3/outlab12_8h.html" target="_top" xlink:title=" ">
<polygon fill="white" stroke="black" points="1721.5,-73 1721.5,-92 1876.5,-92 1876.5,-73 1721.5,-73"/>
<text text-anchor="middle" x="1799" y="-80" font-family="Helvetica,sans-Serif" font-size="10.00">src/labs/outlab12/outlab12.h</text>
</a>
</g>
</g>
<!-- Node40&#45;&gt;Node41 -->
<g id="edge47" class="edge">
<title>Node40&#45;&gt;Node41</title>
<path fill="none" stroke="midnightblue" d="M1799,-129.54C1799,-117.17 1799,-101.62 1799,-92.13"/>
<polygon fill="midnightblue" stroke="midnightblue" points="1795.5,-129.73 1799,-139.73 1802.5,-129.73 1795.5,-129.73"/>
</g>
<!-- Node42 -->
<g id="node42" class="node">
<title>Node42</title>
<g id="a_node42"><a xlink:href="../../df/d73/labs_2outlab12_2main_8cpp.html" target="_top" xlink:title=" ">
<polygon fill="white" stroke="black" points="1725,-6 1725,-25 1873,-25 1873,-6 1725,-6"/>
<text text-anchor="middle" x="1799" y="-13" font-family="Helvetica,sans-Serif" font-size="10.00">src/labs/outlab12/main.cpp</text>
</a>
</g>
</g>
<!-- Node41&#45;&gt;Node42 -->
<g id="edge48" class="edge">
<title>Node41&#45;&gt;Node42</title>
<path fill="none" stroke="midnightblue" d="M1799,-62.54C1799,-50.17 1799,-34.62 1799,-25.13"/>
<polygon fill="midnightblue" stroke="midnightblue" points="1795.5,-62.73 1799,-72.73 1802.5,-62.73 1795.5,-62.73"/>
</g>
</g>
</svg>
        <g id="navigator" transform="translate(0 0)" fill="#404254">
                <rect fill="#f2f5e9" fill-opacity="0.5" stroke="#606060" stroke-width=".5" x="0" y="0" width="60" height="60"/>
                <use id="zoomplus" xlink:href="#zoomPlus" x="17" y="9" onmousedown="handleZoom(evt,'in')"/>
                <use id="zoomminus" xlink:href="#zoomMin" x="42" y="9" onmousedown="handleZoom(evt,'out')"/>
                <use id="reset" xlink:href="#resetDef" x="30" y="36" onmousedown="handleReset()"/>
                <g id="arrowUp" xlink:href="#dirArrow" transform="translate(30 24)" onmousedown="handlePan(0,-1)">
                  <use xlink:href="#rim" fill="#404040">
                        <set attributeName="fill" to="#808080" begin="arrowUp.mouseover" end="arrowUp.mouseout"/>
                  </use>
                  <path fill="none" stroke="white" stroke-width="1.5" d="M0,-3.0v7 M-2.5,-0.5L0,-3.0L2.5,-0.5"/>
                </g>
                <g id="arrowRight" xlink:href="#dirArrow" transform="rotate(90) translate(36 -43)" onmousedown="handlePan(1,0)">
                  <use xlink:href="#rim" fill="#404040">
                        <set attributeName="fill" to="#808080" begin="arrowRight.mouseover" end="arrowRight.mouseout"/>
                  </use>
                  <path fill="none" stroke="white" stroke-width="1.5" d="M0,-3.0v7 M-2.5,-0.5L0,-3.0L2.5,-0.5"/>
                </g>
                <g id="arrowDown" xlink:href="#dirArrow" transform="rotate(180) translate(-30 -48)" onmousedown="handlePan(0,1)">
                  <use xlink:href="#rim" fill="#404040">
                        <set attributeName="fill" to="#808080" begin="arrowDown.mouseover" end="arrowDown.mouseout"/>
                  </use>
                  <path fill="none" stroke="white" stroke-width="1.5" d="M0,-3.0v7 M-2.5,-0.5L0,-3.0L2.5,-0.5"/>
                </g>
                <g id="arrowLeft" xlink:href="#dirArrow" transform="rotate(270) translate(-36 17)" onmousedown="handlePan(-1,0)">
                  <use xlink:href="#rim" fill="#404040">
                        <set attributeName="fill" to="#808080" begin="arrowLeft.mouseover" end="arrowLeft.mouseout"/>
                  </use>
                  <path fill="none" stroke="white" stroke-width="1.5" d="M0,-3.0v7 M-2.5,-0.5L0,-3.0L2.5,-0.5"/>
                </g>
        </g>
        <svg viewBox="0 0 15 15" width="100%" height="30px" preserveAspectRatio="xMaxYMin meet">
         <g id="arrow_out" transform="scale(0.3 0.3)">
          <a xlink:href="LUP_8h__dep__incl_org.svg" target="_base">
           <rect id="button" ry="5" rx="5" y="6" x="6" height="38" width="38"
                fill="#f2f5e9" fill-opacity="0.5" stroke="#606060" stroke-width="1.0"/>
           <path id="arrow"
             d="M 11.500037,31.436501 C 11.940474,20.09759 22.043105,11.32322 32.158766,21.979434 L 37.068811,17.246167 C 37.068811,17.246167 37.088388,32 37.088388,32 L 22.160133,31.978069 C 22.160133,31.978069 26.997745,27.140456 26.997745,27.140456 C 18.528582,18.264221 13.291696,25.230495 11.500037,31.436501 z"
             style="fill:#404040;"/>
          </a>
         </g>
        </svg>
</svg>
