<?xml version="1.0" encoding="UTF-8" standalone="no"?>
<!DOCTYPE svg PUBLIC "-//W3C//DTD SVG 1.1//EN"
 "http://www.w3.org/Graphics/SVG/1.1/DTD/svg11.dtd">
<!-- Generated by graphviz version 2.43.0 (0)
 -->
<!-- Title: src/labs/inlab5/Parser.h Pages: 1 -->
<!--zoomable 252 -->
<svg id="main" version="1.1" xmlns="http://www.w3.org/2000/svg" xmlns:xlink="http://www.w3.org/1999/xlink" xml:space="preserve" onload="init(evt)">
<style type="text/css"><![CDATA[
.edge:hover path { stroke: red; }
.edge:hover polygon { stroke: red; fill: red; }
]]></style>
<script type="text/javascript"><![CDATA[
var edges = document.getElementsByTagName('g');
if (edges && edges.length) {
  for (var i=0;i<edges.length;i++) {
    if (edges[i].id.substr(0,4)=='edge') {
      edges[i].setAttribute('class','edge');
    }
  }
}
]]></script>
        <defs>
                <circle id="rim" cx="0" cy="0" r="7"/>
                <circle id="rim2" cx="0" cy="0" r="3.5"/>
                <g id="zoomPlus">
                        <use xlink:href="#rim" fill="#404040">
                                <set attributeName="fill" to="#808080" begin="zoomplus.mouseover" end="zoomplus.mouseout"/>
                        </use>
                        <path d="M-4,0h8M0,-4v8" fill="none" stroke="white" stroke-width="1.5" pointer-events="none"/>
                </g>
                <g id="zoomMin">
                        <use xlink:href="#rim" fill="#404040">
                                <set attributeName="fill" to="#808080" begin="zoomminus.mouseover" end="zoomminus.mouseout"/>
                        </use>
                        <path d="M-4,0h8" fill="none" stroke="white" stroke-width="1.5" pointer-events="none"/>
                </g>
                <g id="dirArrow">
                        <path fill="none" stroke="white" stroke-width="1.5" d="M0,-3.0v7 M-2.5,-0.5L0,-3.0L2.5,-0.5"/>
                </g>
               <g id="resetDef">
                       <use xlink:href="#rim2" fill="#404040">
                               <set attributeName="fill" to="#808080" begin="reset.mouseover" end="reset.mouseout"/>
                       </use>
               </g>
        </defs>

<script type="text/javascript">
var viewWidth = 545;
var viewHeight = 252;
var sectionId = 'dynsection-0';
</script>
<script xlink:href="../../svgpan.js"/>
<svg id="graph" class="graph">
<g id="viewport">
<title>src/labs/inlab5/Parser.h</title>
<polygon fill="white" stroke="transparent" points="-4,4 -4,-248 541.17,-248 541.17,4 -4,4"/>
<!-- Node1 -->
<g id="node1" class="node">
<title>Node1</title>
<g id="a_node1"><a xlink:title="This file contains the Parser class which is responsible for parsing command line arguments and valid...">
<polygon fill="#bfbfbf" stroke="black" points="240.67,-224.5 240.67,-243.5 368.67,-243.5 368.67,-224.5 240.67,-224.5"/>
<text text-anchor="middle" x="304.67" y="-231.5" font-family="Helvetica,sans-Serif" font-size="10.00">src/labs/inlab5/Parser.h</text>
</a>
</g>
</g>
<!-- Node2 -->
<g id="node2" class="node">
<title>Node2</title>
<g id="a_node2"><a xlink:href="../../dc/d35/labs_2inlab5_2InputsOutputs_8h.html" target="_top" xlink:title="This file contains the input and output definitions for this project.">
<polygon fill="white" stroke="black" points="182.67,-168.5 182.67,-187.5 276.67,-187.5 276.67,-168.5 182.67,-168.5"/>
<text text-anchor="middle" x="229.67" y="-175.5" font-family="Helvetica,sans-Serif" font-size="10.00">InputsOutputs.h</text>
</a>
</g>
</g>
<!-- Node1&#45;&gt;Node2 -->
<g id="edge1" class="edge">
<title>Node1&#45;&gt;Node2</title>
<path fill="none" stroke="midnightblue" d="M292.62,-224.32C281.21,-216.11 263.84,-203.6 250.24,-193.81"/>
<polygon fill="midnightblue" stroke="midnightblue" points="252.1,-190.84 241.94,-187.83 248.01,-196.52 252.1,-190.84"/>
</g>
<!-- Node4 -->
<g id="node4" class="node">
<title>Node4</title>
<g id="a_node4"><a xlink:title=" ">
<polygon fill="white" stroke="#bfbfbf" points="55.67,-112.5 55.67,-131.5 113.67,-131.5 113.67,-112.5 55.67,-112.5"/>
<text text-anchor="middle" x="84.67" y="-119.5" font-family="Helvetica,sans-Serif" font-size="10.00">json.hpp</text>
</a>
</g>
</g>
<!-- Node1&#45;&gt;Node4 -->
<g id="edge15" class="edge">
<title>Node1&#45;&gt;Node4</title>
<path fill="none" stroke="midnightblue" d="M270.97,-224.44C243.82,-216.85 205.12,-204.41 173.67,-188 147.09,-174.13 119.71,-152.89 102.46,-138.5"/>
<polygon fill="midnightblue" stroke="midnightblue" points="104.31,-135.48 94.43,-131.67 99.78,-140.81 104.31,-135.48"/>
</g>
<!-- Node5 -->
<g id="node5" class="node">
<title>Node5</title>
<g id="a_node5"><a xlink:href="../../d3/db1/Matrix_8h.html" target="_top" xlink:title="This file contains my BLAS::Matrix declarations.">
<polygon fill="white" stroke="black" points="195.67,-112.5 195.67,-131.5 339.67,-131.5 339.67,-112.5 195.67,-112.5"/>
<text text-anchor="middle" x="267.67" y="-119.5" font-family="Helvetica,sans-Serif" font-size="10.00">math/blas/matrix/Matrix.h</text>
</a>
</g>
</g>
<!-- Node1&#45;&gt;Node5 -->
<g id="edge20" class="edge">
<title>Node1&#45;&gt;Node5</title>
<path fill="none" stroke="midnightblue" d="M302.36,-224.08C299.02,-211.48 292.5,-187.78 285.67,-168 282.55,-158.94 278.64,-149.03 275.26,-140.83"/>
<polygon fill="midnightblue" stroke="midnightblue" points="278.46,-139.41 271.37,-131.53 272.01,-142.11 278.46,-139.41"/>
</g>
<!-- Node11 -->
<g id="node11" class="node">
<title>Node11</title>
<g id="a_node11"><a xlink:href="../../d6/dbe/Vector_8h.html" target="_top" xlink:title="This file contains my BLAS::Vector implementation.">
<polygon fill="white" stroke="black" points="350.17,-56.5 350.17,-75.5 491.17,-75.5 491.17,-56.5 350.17,-56.5"/>
<text text-anchor="middle" x="420.67" y="-63.5" font-family="Helvetica,sans-Serif" font-size="10.00">math/blas/vector/Vector.h</text>
</a>
</g>
</g>
<!-- Node1&#45;&gt;Node11 -->
<g id="edge21" class="edge">
<title>Node1&#45;&gt;Node11</title>
<path fill="none" stroke="midnightblue" d="M310.77,-224.37C323.08,-206.94 351.76,-166.28 375.67,-132 386.92,-115.88 399.67,-97.45 408.72,-84.34"/>
<polygon fill="midnightblue" stroke="midnightblue" points="411.78,-86.06 414.58,-75.85 406.02,-82.09 411.78,-86.06"/>
</g>
<!-- Node13 -->
<g id="node13" class="node">
<title>Node13</title>
<g id="a_node13"><a xlink:href="../../d1/d80/BLAS_8h.html" target="_top" xlink:title=" ">
<polygon fill="white" stroke="black" points="434.17,-168.5 434.17,-187.5 537.17,-187.5 537.17,-168.5 434.17,-168.5"/>
<text text-anchor="middle" x="485.67" y="-175.5" font-family="Helvetica,sans-Serif" font-size="10.00">math/blas/BLAS.h</text>
</a>
</g>
</g>
<!-- Node1&#45;&gt;Node13 -->
<g id="edge16" class="edge">
<title>Node1&#45;&gt;Node13</title>
<path fill="none" stroke="midnightblue" d="M333.35,-224.44C364.2,-215.24 413.4,-200.56 447.5,-190.39"/>
<polygon fill="midnightblue" stroke="midnightblue" points="448.55,-193.73 457.13,-187.52 446.54,-187.02 448.55,-193.73"/>
</g>
<!-- Node3 -->
<g id="node3" class="node">
<title>Node3</title>
<g id="a_node3"><a xlink:title=" ">
<polygon fill="white" stroke="#bfbfbf" points="132.17,-112.5 132.17,-131.5 177.17,-131.5 177.17,-112.5 132.17,-112.5"/>
<text text-anchor="middle" x="154.67" y="-119.5" font-family="Helvetica,sans-Serif" font-size="10.00">utility</text>
</a>
</g>
</g>
<!-- Node2&#45;&gt;Node3 -->
<g id="edge2" class="edge">
<title>Node2&#45;&gt;Node3</title>
<path fill="none" stroke="midnightblue" d="M217.62,-168.32C206.21,-160.11 188.84,-147.6 175.24,-137.81"/>
<polygon fill="midnightblue" stroke="midnightblue" points="177.1,-134.84 166.94,-131.83 173.01,-140.52 177.1,-134.84"/>
</g>
<!-- Node2&#45;&gt;Node4 -->
<g id="edge3" class="edge">
<title>Node2&#45;&gt;Node4</title>
<path fill="none" stroke="midnightblue" d="M206.7,-168.44C182.52,-159.44 144.25,-145.19 117.03,-135.05"/>
<polygon fill="midnightblue" stroke="midnightblue" points="118.13,-131.73 107.54,-131.52 115.69,-138.29 118.13,-131.73"/>
</g>
<!-- Node2&#45;&gt;Node5 -->
<g id="edge4" class="edge">
<title>Node2&#45;&gt;Node5</title>
<path fill="none" stroke="midnightblue" d="M235.95,-168.08C241.32,-160.46 249.19,-149.26 255.75,-139.94"/>
<polygon fill="midnightblue" stroke="midnightblue" points="258.62,-141.94 261.51,-131.75 252.9,-137.91 258.62,-141.94"/>
</g>
<!-- Node2&#45;&gt;Node11 -->
<g id="edge14" class="edge">
<title>Node2&#45;&gt;Node11</title>
<path fill="none" stroke="midnightblue" d="M261.71,-168.44C286.55,-160.99 321.24,-148.74 348.67,-132 370.78,-118.51 392.32,-97.76 405.98,-83.35"/>
<polygon fill="midnightblue" stroke="midnightblue" points="408.84,-85.42 413.07,-75.7 403.71,-80.66 408.84,-85.42"/>
</g>
<!-- Node6 -->
<g id="node6" class="node">
<title>Node6</title>
<g id="a_node6"><a xlink:title=" ">
<polygon fill="white" stroke="#bfbfbf" points="159.67,-56.5 159.67,-75.5 223.67,-75.5 223.67,-56.5 159.67,-56.5"/>
<text text-anchor="middle" x="191.67" y="-63.5" font-family="Helvetica,sans-Serif" font-size="10.00">algorithm</text>
</a>
</g>
</g>
<!-- Node5&#45;&gt;Node6 -->
<g id="edge5" class="edge">
<title>Node5&#45;&gt;Node6</title>
<path fill="none" stroke="midnightblue" d="M255.46,-112.32C243.9,-104.11 226.3,-91.6 212.51,-81.81"/>
<polygon fill="midnightblue" stroke="midnightblue" points="214.28,-78.77 204.11,-75.83 210.23,-84.48 214.28,-78.77"/>
</g>
<!-- Node7 -->
<g id="node7" class="node">
<title>Node7</title>
<g id="a_node7"><a xlink:title=" ">
<polygon fill="white" stroke="#bfbfbf" points="241.67,-56.5 241.67,-75.5 293.67,-75.5 293.67,-56.5 241.67,-56.5"/>
<text text-anchor="middle" x="267.67" y="-63.5" font-family="Helvetica,sans-Serif" font-size="10.00">cassert</text>
</a>
</g>
</g>
<!-- Node5&#45;&gt;Node7 -->
<g id="edge6" class="edge">
<title>Node5&#45;&gt;Node7</title>
<path fill="none" stroke="midnightblue" d="M267.67,-112.08C267.67,-105.01 267.67,-94.86 267.67,-85.99"/>
<polygon fill="midnightblue" stroke="midnightblue" points="271.17,-85.75 267.67,-75.75 264.17,-85.75 271.17,-85.75"/>
</g>
<!-- Node8 -->
<g id="node8" class="node">
<title>Node8</title>
<g id="a_node8"><a xlink:title=" ">
<polygon fill="white" stroke="#bfbfbf" points="302.67,-0.5 302.67,-19.5 362.67,-19.5 362.67,-0.5 302.67,-0.5"/>
<text text-anchor="middle" x="332.67" y="-7.5" font-family="Helvetica,sans-Serif" font-size="10.00">iostream</text>
</a>
</g>
</g>
<!-- Node5&#45;&gt;Node8 -->
<g id="edge7" class="edge">
<title>Node5&#45;&gt;Node8</title>
<path fill="none" stroke="midnightblue" d="M275.27,-112.47C282.83,-103.72 294.44,-89.53 302.67,-76 311.85,-60.92 320.08,-42.57 325.59,-29.21"/>
<polygon fill="midnightblue" stroke="midnightblue" points="328.91,-30.32 329.39,-19.73 322.42,-27.71 328.91,-30.32"/>
</g>
<!-- Node9 -->
<g id="node9" class="node">
<title>Node9</title>
<g id="a_node9"><a xlink:title=" ">
<polygon fill="white" stroke="#bfbfbf" points="106.17,-0.5 106.17,-19.5 153.17,-19.5 153.17,-0.5 106.17,-0.5"/>
<text text-anchor="middle" x="129.67" y="-7.5" font-family="Helvetica,sans-Serif" font-size="10.00">vector</text>
</a>
</g>
</g>
<!-- Node5&#45;&gt;Node9 -->
<g id="edge8" class="edge">
<title>Node5&#45;&gt;Node9</title>
<path fill="none" stroke="midnightblue" d="M206.48,-112.46C131.38,-101.69 13.12,-83.65 6.67,-76 -21.26,-42.84 50.47,-24.22 95.82,-16.06"/>
<polygon fill="midnightblue" stroke="midnightblue" points="96.61,-19.47 105.87,-14.34 95.43,-12.57 96.61,-19.47"/>
</g>
<!-- Node10 -->
<g id="node10" class="node">
<title>Node10</title>
<g id="a_node10"><a xlink:href="../../d1/d45/Constants_8h.html" target="_top" xlink:title="MyBLAS Constants definition.">
<polygon fill="white" stroke="black" points="15.67,-56.5 15.67,-75.5 141.67,-75.5 141.67,-56.5 15.67,-56.5"/>
<text text-anchor="middle" x="78.67" y="-63.5" font-family="Helvetica,sans-Serif" font-size="10.00">math/blas/Constants.h</text>
</a>
</g>
</g>
<!-- Node5&#45;&gt;Node10 -->
<g id="edge9" class="edge">
<title>Node5&#45;&gt;Node10</title>
<path fill="none" stroke="midnightblue" d="M237.73,-112.44C205.52,-103.24 154.14,-88.56 118.53,-78.39"/>
<polygon fill="midnightblue" stroke="midnightblue" points="119.06,-74.9 108.48,-75.52 117.13,-81.63 119.06,-74.9"/>
</g>
<!-- Node5&#45;&gt;Node11 -->
<g id="edge10" class="edge">
<title>Node5&#45;&gt;Node11</title>
<path fill="none" stroke="midnightblue" d="M291.92,-112.44C317.54,-103.4 358.16,-89.06 386.91,-78.92"/>
<polygon fill="midnightblue" stroke="midnightblue" points="388.28,-82.15 396.54,-75.52 385.95,-75.54 388.28,-82.15"/>
</g>
<!-- Node11&#45;&gt;Node8 -->
<g id="edge12" class="edge">
<title>Node11&#45;&gt;Node8</title>
<path fill="none" stroke="midnightblue" d="M406.53,-56.32C392.81,-47.9 371.74,-34.97 355.61,-25.07"/>
<polygon fill="midnightblue" stroke="midnightblue" points="357.13,-21.9 346.78,-19.65 353.47,-27.87 357.13,-21.9"/>
</g>
<!-- Node11&#45;&gt;Node9 -->
<g id="edge13" class="edge">
<title>Node11&#45;&gt;Node9</title>
<path fill="none" stroke="midnightblue" d="M374.56,-56.44C315.79,-45.54 215.57,-26.94 163.43,-17.26"/>
<polygon fill="midnightblue" stroke="midnightblue" points="163.84,-13.78 153.37,-15.4 162.56,-20.66 163.84,-13.78"/>
</g>
<!-- Node12 -->
<g id="node12" class="node">
<title>Node12</title>
<g id="a_node12"><a xlink:title=" ">
<polygon fill="white" stroke="#bfbfbf" points="392.67,-0.5 392.67,-19.5 448.67,-19.5 448.67,-0.5 392.67,-0.5"/>
<text text-anchor="middle" x="420.67" y="-7.5" font-family="Helvetica,sans-Serif" font-size="10.00">iomanip</text>
</a>
</g>
</g>
<!-- Node11&#45;&gt;Node12 -->
<g id="edge11" class="edge">
<title>Node11&#45;&gt;Node12</title>
<path fill="none" stroke="midnightblue" d="M420.67,-56.08C420.67,-49.01 420.67,-38.86 420.67,-29.99"/>
<polygon fill="midnightblue" stroke="midnightblue" points="424.17,-29.75 420.67,-19.75 417.17,-29.75 424.17,-29.75"/>
</g>
<!-- Node13&#45;&gt;Node5 -->
<g id="edge18" class="edge">
<title>Node13&#45;&gt;Node5</title>
<path fill="none" stroke="midnightblue" d="M451.13,-168.44C413.42,-159.1 352.93,-144.12 311.81,-133.93"/>
<polygon fill="midnightblue" stroke="midnightblue" points="312.6,-130.52 302.05,-131.52 310.92,-137.32 312.6,-130.52"/>
</g>
<!-- Node13&#45;&gt;Node11 -->
<g id="edge19" class="edge">
<title>Node13&#45;&gt;Node11</title>
<path fill="none" stroke="midnightblue" d="M480.57,-168.37C469.89,-150.3 445,-108.18 430.9,-84.31"/>
<polygon fill="midnightblue" stroke="midnightblue" points="433.85,-82.42 425.75,-75.59 427.82,-85.98 433.85,-82.42"/>
</g>
<!-- Node14 -->
<g id="node14" class="node">
<title>Node14</title>
<g id="a_node14"><a xlink:title=" ">
<polygon fill="white" stroke="#bfbfbf" points="472.17,-112.5 472.17,-131.5 519.17,-131.5 519.17,-112.5 472.17,-112.5"/>
<text text-anchor="middle" x="495.67" y="-119.5" font-family="Helvetica,sans-Serif" font-size="10.00">cmath</text>
</a>
</g>
</g>
<!-- Node13&#45;&gt;Node14 -->
<g id="edge17" class="edge">
<title>Node13&#45;&gt;Node14</title>
<path fill="none" stroke="midnightblue" d="M487.32,-168.08C488.65,-160.93 490.56,-150.64 492.21,-141.69"/>
<polygon fill="midnightblue" stroke="midnightblue" points="495.67,-142.22 494.05,-131.75 488.79,-140.95 495.67,-142.22"/>
</g>
</g>
</svg>
        <g id="navigator" transform="translate(0 0)" fill="#404254">
                <rect fill="#f2f5e9" fill-opacity="0.5" stroke="#606060" stroke-width=".5" x="0" y="0" width="60" height="60"/>
                <use id="zoomplus" xlink:href="#zoomPlus" x="17" y="9" onmousedown="handleZoom(evt,'in')"/>
                <use id="zoomminus" xlink:href="#zoomMin" x="42" y="9" onmousedown="handleZoom(evt,'out')"/>
                <use id="reset" xlink:href="#resetDef" x="30" y="36" onmousedown="handleReset()"/>
                <g id="arrowUp" xlink:href="#dirArrow" transform="translate(30 24)" onmousedown="handlePan(0,-1)">
                  <use xlink:href="#rim" fill="#404040">
                        <set attributeName="fill" to="#808080" begin="arrowUp.mouseover" end="arrowUp.mouseout"/>
                  </use>
                  <path fill="none" stroke="white" stroke-width="1.5" d="M0,-3.0v7 M-2.5,-0.5L0,-3.0L2.5,-0.5"/>
                </g>
                <g id="arrowRight" xlink:href="#dirArrow" transform="rotate(90) translate(36 -43)" onmousedown="handlePan(1,0)">
                  <use xlink:href="#rim" fill="#404040">
                        <set attributeName="fill" to="#808080" begin="arrowRight.mouseover" end="arrowRight.mouseout"/>
                  </use>
                  <path fill="none" stroke="white" stroke-width="1.5" d="M0,-3.0v7 M-2.5,-0.5L0,-3.0L2.5,-0.5"/>
                </g>
                <g id="arrowDown" xlink:href="#dirArrow" transform="rotate(180) translate(-30 -48)" onmousedown="handlePan(0,1)">
                  <use xlink:href="#rim" fill="#404040">
                        <set attributeName="fill" to="#808080" begin="arrowDown.mouseover" end="arrowDown.mouseout"/>
                  </use>
                  <path fill="none" stroke="white" stroke-width="1.5" d="M0,-3.0v7 M-2.5,-0.5L0,-3.0L2.5,-0.5"/>
                </g>
                <g id="arrowLeft" xlink:href="#dirArrow" transform="rotate(270) translate(-36 17)" onmousedown="handlePan(-1,0)">
                  <use xlink:href="#rim" fill="#404040">
                        <set attributeName="fill" to="#808080" begin="arrowLeft.mouseover" end="arrowLeft.mouseout"/>
                  </use>
                  <path fill="none" stroke="white" stroke-width="1.5" d="M0,-3.0v7 M-2.5,-0.5L0,-3.0L2.5,-0.5"/>
                </g>
        </g>
        <svg viewBox="0 0 15 15" width="100%" height="30px" preserveAspectRatio="xMaxYMin meet">
         <g id="arrow_out" transform="scale(0.3 0.3)">
          <a xlink:href="labs_2inlab5_2Parser_8h__incl_org.svg" target="_base">
           <rect id="button" ry="5" rx="5" y="6" x="6" height="38" width="38"
                fill="#f2f5e9" fill-opacity="0.5" stroke="#606060" stroke-width="1.0"/>
           <path id="arrow"
             d="M 11.500037,31.436501 C 11.940474,20.09759 22.043105,11.32322 32.158766,21.979434 L 37.068811,17.246167 C 37.068811,17.246167 37.088388,32 37.088388,32 L 22.160133,31.978069 C 22.160133,31.978069 26.997745,27.140456 26.997745,27.140456 C 18.528582,18.264221 13.291696,25.230495 11.500037,31.436501 z"
             style="fill:#404040;"/>
          </a>
         </g>
        </svg>
</svg>
