<?xml version="1.0" encoding="UTF-8" standalone="no"?>
<!DOCTYPE svg PUBLIC "-//W3C//DTD SVG 1.1//EN"
 "http://www.w3.org/Graphics/SVG/1.1/DTD/svg11.dtd">
<!-- Generated by graphviz version 2.43.0 (0)
 -->
<!-- Title: src/labs/inlab5/Parser.h Pages: 1 -->
<svg width="469pt" height="252pt"
 viewBox="0.00 0.00 469.00 252.00" xmlns="http://www.w3.org/2000/svg" xmlns:xlink="http://www.w3.org/1999/xlink">
<g id="graph0" class="graph" transform="scale(1 1) rotate(0) translate(4 248)">
<title>src/labs/inlab5/Parser.h</title>
<polygon fill="white" stroke="transparent" points="-4,4 -4,-248 465,-248 465,4 -4,4"/>
<!-- Node1 -->
<g id="node1" class="node">
<title>Node1</title>
<g id="a_node1"><a xlink:title="This file contains the Parser class which is responsible for parsing command line arguments and valid...">
<polygon fill="#bfbfbf" stroke="black" points="167,-224.5 167,-243.5 295,-243.5 295,-224.5 167,-224.5"/>
<text text-anchor="middle" x="231" y="-231.5" font-family="Helvetica,sans-Serif" font-size="10.00">src/labs/inlab5/Parser.h</text>
</a>
</g>
</g>
<!-- Node2 -->
<g id="node2" class="node">
<title>Node2</title>
<g id="a_node2"><a xlink:href="../../dc/d35/labs_2inlab5_2InputsOutputs_8h.html" target="_top" xlink:title="This file contains the input and output definitions for this project.">
<polygon fill="white" stroke="black" points="109,-168.5 109,-187.5 203,-187.5 203,-168.5 109,-168.5"/>
<text text-anchor="middle" x="156" y="-175.5" font-family="Helvetica,sans-Serif" font-size="10.00">InputsOutputs.h</text>
</a>
</g>
</g>
<!-- Node1&#45;&gt;Node2 -->
<g id="edge1" class="edge">
<title>Node1&#45;&gt;Node2</title>
<path fill="none" stroke="midnightblue" d="M218.95,-224.32C207.54,-216.11 190.17,-203.6 176.57,-193.81"/>
<polygon fill="midnightblue" stroke="midnightblue" points="178.43,-190.84 168.27,-187.83 174.34,-196.52 178.43,-190.84"/>
</g>
<!-- Node4 -->
<g id="node4" class="node">
<title>Node4</title>
<g id="a_node4"><a xlink:title=" ">
<polygon fill="white" stroke="#bfbfbf" points="0,-112.5 0,-131.5 58,-131.5 58,-112.5 0,-112.5"/>
<text text-anchor="middle" x="29" y="-119.5" font-family="Helvetica,sans-Serif" font-size="10.00">json.hpp</text>
</a>
</g>
</g>
<!-- Node1&#45;&gt;Node4 -->
<g id="edge13" class="edge">
<title>Node1&#45;&gt;Node4</title>
<path fill="none" stroke="midnightblue" d="M193.38,-224.48C166.19,-217.3 129.25,-205.38 100,-188 77.9,-174.87 56.73,-154.05 43.34,-139.53"/>
<polygon fill="midnightblue" stroke="midnightblue" points="45.7,-136.91 36.42,-131.81 40.49,-141.59 45.7,-136.91"/>
</g>
<!-- Node5 -->
<g id="node5" class="node">
<title>Node5</title>
<g id="a_node5"><a xlink:href="../../d3/db1/Matrix_8h.html" target="_top" xlink:title="This file contains my BLAS::Matrix declarations.">
<polygon fill="white" stroke="black" points="139.5,-112.5 139.5,-131.5 248.5,-131.5 248.5,-112.5 139.5,-112.5"/>
<text text-anchor="middle" x="194" y="-119.5" font-family="Helvetica,sans-Serif" font-size="10.00">math/blas/Matrix.h</text>
</a>
</g>
</g>
<!-- Node1&#45;&gt;Node5 -->
<g id="edge14" class="edge">
<title>Node1&#45;&gt;Node5</title>
<path fill="none" stroke="midnightblue" d="M228.69,-224.08C225.35,-211.48 218.83,-187.78 212,-168 208.87,-158.94 204.96,-149.03 201.59,-140.83"/>
<polygon fill="midnightblue" stroke="midnightblue" points="204.79,-139.41 197.7,-131.53 198.33,-142.11 204.79,-139.41"/>
</g>
<!-- Node9 -->
<g id="node9" class="node">
<title>Node9</title>
<g id="a_node9"><a xlink:href="../../d6/dbe/Vector_8h.html" target="_top" xlink:title="This file contains my BLAS::Vector implementation.">
<polygon fill="white" stroke="black" points="260.5,-56.5 260.5,-75.5 367.5,-75.5 367.5,-56.5 260.5,-56.5"/>
<text text-anchor="middle" x="314" y="-63.5" font-family="Helvetica,sans-Serif" font-size="10.00">math/blas/Vector.h</text>
</a>
</g>
</g>
<!-- Node1&#45;&gt;Node9 -->
<g id="edge19" class="edge">
<title>Node1&#45;&gt;Node9</title>
<path fill="none" stroke="midnightblue" d="M235.4,-224.37C244.26,-206.94 264.91,-166.28 282,-132 289.88,-116.19 298.75,-98.16 305.15,-85.11"/>
<polygon fill="midnightblue" stroke="midnightblue" points="308.43,-86.37 309.68,-75.85 302.14,-83.29 308.43,-86.37"/>
</g>
<!-- Node11 -->
<g id="node11" class="node">
<title>Node11</title>
<g id="a_node11"><a xlink:href="../../d9/d77/MyBLAS_8h.html" target="_top" xlink:title="My BLAS methods for NE591&#45;008.">
<polygon fill="white" stroke="black" points="343,-168.5 343,-187.5 461,-187.5 461,-168.5 343,-168.5"/>
<text text-anchor="middle" x="402" y="-175.5" font-family="Helvetica,sans-Serif" font-size="10.00">math/blas/MyBLAS.h</text>
</a>
</g>
</g>
<!-- Node1&#45;&gt;Node11 -->
<g id="edge15" class="edge">
<title>Node1&#45;&gt;Node11</title>
<path fill="none" stroke="midnightblue" d="M258.1,-224.44C286.99,-215.32 332.92,-200.81 365.11,-190.65"/>
<polygon fill="midnightblue" stroke="midnightblue" points="366.55,-193.87 375.03,-187.52 364.44,-187.19 366.55,-193.87"/>
</g>
<!-- Node3 -->
<g id="node3" class="node">
<title>Node3</title>
<g id="a_node3"><a xlink:title=" ">
<polygon fill="white" stroke="#bfbfbf" points="76.5,-112.5 76.5,-131.5 121.5,-131.5 121.5,-112.5 76.5,-112.5"/>
<text text-anchor="middle" x="99" y="-119.5" font-family="Helvetica,sans-Serif" font-size="10.00">utility</text>
</a>
</g>
</g>
<!-- Node2&#45;&gt;Node3 -->
<g id="edge2" class="edge">
<title>Node2&#45;&gt;Node3</title>
<path fill="none" stroke="midnightblue" d="M146.84,-168.32C138.5,-160.42 125.97,-148.55 115.82,-138.94"/>
<polygon fill="midnightblue" stroke="midnightblue" points="117.99,-136.17 108.32,-131.83 113.18,-141.25 117.99,-136.17"/>
</g>
<!-- Node2&#45;&gt;Node4 -->
<g id="edge3" class="edge">
<title>Node2&#45;&gt;Node4</title>
<path fill="none" stroke="midnightblue" d="M135.88,-168.44C114.98,-159.56 82.07,-145.56 58.28,-135.45"/>
<polygon fill="midnightblue" stroke="midnightblue" points="59.6,-132.21 49.03,-131.52 56.86,-138.65 59.6,-132.21"/>
</g>
<!-- Node2&#45;&gt;Node5 -->
<g id="edge4" class="edge">
<title>Node2&#45;&gt;Node5</title>
<path fill="none" stroke="midnightblue" d="M162.27,-168.08C167.64,-160.46 175.52,-149.26 182.08,-139.94"/>
<polygon fill="midnightblue" stroke="midnightblue" points="184.95,-141.94 187.84,-131.75 179.22,-137.91 184.95,-141.94"/>
</g>
<!-- Node2&#45;&gt;Node9 -->
<g id="edge12" class="edge">
<title>Node2&#45;&gt;Node9</title>
<path fill="none" stroke="midnightblue" d="M183.42,-168.42C204.76,-160.92 234.44,-148.63 257,-132 275.24,-118.56 291.78,-98.37 302.29,-84.07"/>
<polygon fill="midnightblue" stroke="midnightblue" points="305.34,-85.82 308.29,-75.65 299.64,-81.76 305.34,-85.82"/>
</g>
<!-- Node6 -->
<g id="node6" class="node">
<title>Node6</title>
<g id="a_node6"><a xlink:title=" ">
<polygon fill="white" stroke="#bfbfbf" points="102,-56.5 102,-75.5 166,-75.5 166,-56.5 102,-56.5"/>
<text text-anchor="middle" x="134" y="-63.5" font-family="Helvetica,sans-Serif" font-size="10.00">algorithm</text>
</a>
</g>
</g>
<!-- Node5&#45;&gt;Node6 -->
<g id="edge5" class="edge">
<title>Node5&#45;&gt;Node6</title>
<path fill="none" stroke="midnightblue" d="M184.36,-112.32C175.49,-104.34 162.13,-92.31 151.39,-82.65"/>
<polygon fill="midnightblue" stroke="midnightblue" points="153.59,-79.92 143.82,-75.83 148.91,-85.13 153.59,-79.92"/>
</g>
<!-- Node7 -->
<g id="node7" class="node">
<title>Node7</title>
<g id="a_node7"><a xlink:title=" ">
<polygon fill="white" stroke="#bfbfbf" points="164,-0.5 164,-19.5 224,-19.5 224,-0.5 164,-0.5"/>
<text text-anchor="middle" x="194" y="-7.5" font-family="Helvetica,sans-Serif" font-size="10.00">iostream</text>
</a>
</g>
</g>
<!-- Node5&#45;&gt;Node7 -->
<g id="edge6" class="edge">
<title>Node5&#45;&gt;Node7</title>
<path fill="none" stroke="midnightblue" d="M194,-112.37C194,-94.62 194,-53.67 194,-29.6"/>
<polygon fill="midnightblue" stroke="midnightblue" points="197.5,-29.59 194,-19.59 190.5,-29.59 197.5,-29.59"/>
</g>
<!-- Node8 -->
<g id="node8" class="node">
<title>Node8</title>
<g id="a_node8"><a xlink:title=" ">
<polygon fill="white" stroke="#bfbfbf" points="242.5,-0.5 242.5,-19.5 289.5,-19.5 289.5,-0.5 242.5,-0.5"/>
<text text-anchor="middle" x="266" y="-7.5" font-family="Helvetica,sans-Serif" font-size="10.00">vector</text>
</a>
</g>
</g>
<!-- Node5&#45;&gt;Node8 -->
<g id="edge7" class="edge">
<title>Node5&#45;&gt;Node8</title>
<path fill="none" stroke="midnightblue" d="M199.65,-112.37C211.53,-94.22 239.29,-51.8 254.88,-27.99"/>
<polygon fill="midnightblue" stroke="midnightblue" points="257.83,-29.88 260.38,-19.59 251.97,-26.04 257.83,-29.88"/>
</g>
<!-- Node5&#45;&gt;Node9 -->
<g id="edge8" class="edge">
<title>Node5&#45;&gt;Node9</title>
<path fill="none" stroke="midnightblue" d="M213.01,-112.44C232.59,-103.64 263.31,-89.81 285.73,-79.72"/>
<polygon fill="midnightblue" stroke="midnightblue" points="287.39,-82.81 295.07,-75.52 284.52,-76.43 287.39,-82.81"/>
</g>
<!-- Node9&#45;&gt;Node7 -->
<g id="edge10" class="edge">
<title>Node9&#45;&gt;Node7</title>
<path fill="none" stroke="midnightblue" d="M294.99,-56.44C275.41,-47.64 244.69,-33.81 222.27,-23.72"/>
<polygon fill="midnightblue" stroke="midnightblue" points="223.48,-20.43 212.93,-19.52 220.61,-26.81 223.48,-20.43"/>
</g>
<!-- Node9&#45;&gt;Node8 -->
<g id="edge11" class="edge">
<title>Node9&#45;&gt;Node8</title>
<path fill="none" stroke="midnightblue" d="M306.07,-56.08C299.15,-48.3 288.93,-36.8 280.55,-27.37"/>
<polygon fill="midnightblue" stroke="midnightblue" points="283.04,-24.9 273.78,-19.75 277.81,-29.55 283.04,-24.9"/>
</g>
<!-- Node10 -->
<g id="node10" class="node">
<title>Node10</title>
<g id="a_node10"><a xlink:title=" ">
<polygon fill="white" stroke="#bfbfbf" points="308,-0.5 308,-19.5 364,-19.5 364,-0.5 308,-0.5"/>
<text text-anchor="middle" x="336" y="-7.5" font-family="Helvetica,sans-Serif" font-size="10.00">iomanip</text>
</a>
</g>
</g>
<!-- Node9&#45;&gt;Node10 -->
<g id="edge9" class="edge">
<title>Node9&#45;&gt;Node10</title>
<path fill="none" stroke="midnightblue" d="M317.63,-56.08C320.61,-48.77 324.93,-38.18 328.62,-29.1"/>
<polygon fill="midnightblue" stroke="midnightblue" points="331.9,-30.33 332.43,-19.75 325.42,-27.69 331.9,-30.33"/>
</g>
<!-- Node11&#45;&gt;Node5 -->
<g id="edge17" class="edge">
<title>Node11&#45;&gt;Node5</title>
<path fill="none" stroke="midnightblue" d="M369.04,-168.44C333.21,-159.14 275.84,-144.25 236.61,-134.06"/>
<polygon fill="midnightblue" stroke="midnightblue" points="237.36,-130.64 226.8,-131.52 235.6,-137.42 237.36,-130.64"/>
</g>
<!-- Node11&#45;&gt;Node9 -->
<g id="edge18" class="edge">
<title>Node11&#45;&gt;Node9</title>
<path fill="none" stroke="midnightblue" d="M395.09,-168.37C380.51,-150.14 346.34,-107.43 327.34,-83.68"/>
<polygon fill="midnightblue" stroke="midnightblue" points="329.85,-81.21 320.87,-75.59 324.39,-85.59 329.85,-81.21"/>
</g>
<!-- Node12 -->
<g id="node12" class="node">
<title>Node12</title>
<g id="a_node12"><a xlink:title=" ">
<polygon fill="white" stroke="#bfbfbf" points="381.5,-112.5 381.5,-131.5 428.5,-131.5 428.5,-112.5 381.5,-112.5"/>
<text text-anchor="middle" x="405" y="-119.5" font-family="Helvetica,sans-Serif" font-size="10.00">cmath</text>
</a>
</g>
</g>
<!-- Node11&#45;&gt;Node12 -->
<g id="edge16" class="edge">
<title>Node11&#45;&gt;Node12</title>
<path fill="none" stroke="midnightblue" d="M402.5,-168.08C402.89,-161.01 403.45,-150.86 403.95,-141.99"/>
<polygon fill="midnightblue" stroke="midnightblue" points="407.45,-141.93 404.51,-131.75 400.46,-141.54 407.45,-141.93"/>
</g>
</g>
</svg>
