<?xml version="1.0" encoding="UTF-8" standalone="no"?>
<!DOCTYPE svg PUBLIC "-//W3C//DTD SVG 1.1//EN"
 "http://www.w3.org/Graphics/SVG/1.1/DTD/svg11.dtd">
<!-- Generated by graphviz version 2.43.0 (0)
 -->
<!-- Title: Compute::usingPointJacobi Pages: 1 -->
<svg width="270pt" height="180pt"
 viewBox="0.00 0.00 270.00 180.00" xmlns="http://www.w3.org/2000/svg" xmlns:xlink="http://www.w3.org/1999/xlink">
<g id="graph0" class="graph" transform="scale(1 1) rotate(0) translate(4 176)">
<title>Compute::usingPointJacobi</title>
<polygon fill="white" stroke="transparent" points="-4,4 -4,-176 266,-176 266,4 -4,4"/>
<!-- Node1 -->
<g id="node1" class="node">
<title>Node1</title>
<g id="a_node1"><a xlink:title="This method applies the Point Jacobi relaxation method to the given input matrices.">
<polygon fill="#bfbfbf" stroke="black" points="115,-76.5 115,-95.5 262,-95.5 262,-76.5 115,-76.5"/>
<text text-anchor="middle" x="188.5" y="-83.5" font-family="Helvetica,sans-Serif" font-size="10.00">Compute::usingPointJacobi</text>
</a>
</g>
</g>
<!-- Node2 -->
<g id="node2" class="node">
<title>Node2</title>
<g id="a_node2"><a xlink:href="../../d1/d8c/classInLab6.html#a55667f27b7ba522dd4288f18d16c9f8d" target="_top" xlink:title="This function runs the project.">
<polygon fill="white" stroke="black" points="4,-152.5 4,-171.5 75,-171.5 75,-152.5 4,-152.5"/>
<text text-anchor="middle" x="39.5" y="-159.5" font-family="Helvetica,sans-Serif" font-size="10.00">InLab6::run</text>
</a>
</g>
</g>
<!-- Node1&#45;&gt;Node2 -->
<g id="edge1" class="edge">
<title>Node1&#45;&gt;Node2</title>
<path fill="none" stroke="midnightblue" d="M160.49,-100.43C138.6,-112.07 106.91,-128.78 79,-143 72.89,-146.11 66.2,-149.44 60.13,-152.43"/>
<polygon fill="midnightblue" stroke="midnightblue" points="162.34,-103.41 169.53,-95.62 159.05,-97.23 162.34,-103.41"/>
</g>
<!-- Node3 -->
<g id="node3" class="node">
<title>Node3</title>
<g id="a_node3"><a xlink:href="../../d0/d4c/classOutLab6.html#a901a1283fd029c9174f8469ac5cb3ad8" target="_top" xlink:title="This function runs the computation.">
<polygon fill="white" stroke="black" points="0,-114.5 0,-133.5 79,-133.5 79,-114.5 0,-114.5"/>
<text text-anchor="middle" x="39.5" y="-121.5" font-family="Helvetica,sans-Serif" font-size="10.00">OutLab6::run</text>
</a>
</g>
</g>
<!-- Node1&#45;&gt;Node3 -->
<g id="edge2" class="edge">
<title>Node1&#45;&gt;Node3</title>
<path fill="none" stroke="midnightblue" d="M140.65,-98.11C120.17,-103.4 96.51,-109.52 77.33,-114.48"/>
<polygon fill="midnightblue" stroke="midnightblue" points="141.6,-101.48 150.41,-95.59 139.85,-94.7 141.6,-101.48"/>
</g>
<!-- Node4 -->
<g id="node4" class="node">
<title>Node4</title>
<g id="a_node4"><a xlink:href="../../dd/db5/classProject2.html#a0990db917f6a27a4e1cb9ac885698524" target="_top" xlink:title="This function runs the project.">
<polygon fill="white" stroke="black" points="0.5,-76.5 0.5,-95.5 78.5,-95.5 78.5,-76.5 0.5,-76.5"/>
<text text-anchor="middle" x="39.5" y="-83.5" font-family="Helvetica,sans-Serif" font-size="10.00">Project2::run</text>
</a>
</g>
</g>
<!-- Node1&#45;&gt;Node4 -->
<g id="edge3" class="edge">
<title>Node1&#45;&gt;Node4</title>
<path fill="none" stroke="midnightblue" d="M104.68,-86C95.7,-86 86.92,-86 78.86,-86"/>
<polygon fill="midnightblue" stroke="midnightblue" points="104.86,-89.5 114.86,-86 104.86,-82.5 104.86,-89.5"/>
</g>
<!-- Node5 -->
<g id="node5" class="node">
<title>Node5</title>
<g id="a_node5"><a xlink:href="../../dd/dfb/classProject3.html#a8bcff99aaba60e7d5e5be3cb7552d163" target="_top" xlink:title="This function runs the project.">
<polygon fill="white" stroke="black" points="0.5,-38.5 0.5,-57.5 78.5,-57.5 78.5,-38.5 0.5,-38.5"/>
<text text-anchor="middle" x="39.5" y="-45.5" font-family="Helvetica,sans-Serif" font-size="10.00">Project3::run</text>
</a>
</g>
</g>
<!-- Node1&#45;&gt;Node5 -->
<g id="edge4" class="edge">
<title>Node1&#45;&gt;Node5</title>
<path fill="none" stroke="midnightblue" d="M140.65,-73.89C120.17,-68.6 96.51,-62.48 77.33,-57.52"/>
<polygon fill="midnightblue" stroke="midnightblue" points="139.85,-77.3 150.41,-76.41 141.6,-70.52 139.85,-77.3"/>
</g>
<!-- Node6 -->
<g id="node6" class="node">
<title>Node6</title>
<g id="a_node6"><a xlink:href="../../d2/dfd/classProject4.html#a3779e87d22c7d4949f3c01bae1d08ab9" target="_top" xlink:title="This function runs the project.">
<polygon fill="white" stroke="black" points="0.5,-0.5 0.5,-19.5 78.5,-19.5 78.5,-0.5 0.5,-0.5"/>
<text text-anchor="middle" x="39.5" y="-7.5" font-family="Helvetica,sans-Serif" font-size="10.00">Project4::run</text>
</a>
</g>
</g>
<!-- Node1&#45;&gt;Node6 -->
<g id="edge5" class="edge">
<title>Node1&#45;&gt;Node6</title>
<path fill="none" stroke="midnightblue" d="M160.49,-71.57C138.6,-59.93 106.91,-43.22 79,-29 72.89,-25.89 66.2,-22.56 60.13,-19.57"/>
<polygon fill="midnightblue" stroke="midnightblue" points="159.05,-74.77 169.53,-76.38 162.34,-68.59 159.05,-74.77"/>
</g>
</g>
</svg>
