<?xml version="1.0" encoding="UTF-8" standalone="no"?>
<!DOCTYPE svg PUBLIC "-//W3C//DTD SVG 1.1//EN"
 "http://www.w3.org/Graphics/SVG/1.1/DTD/svg11.dtd">
<!-- Generated by graphviz version 2.43.0 (0)
 -->
<!-- Title: Compute::fill_fluxes Pages: 1 -->
<svg width="275pt" height="88pt"
 viewBox="0.00 0.00 275.00 88.00" xmlns="http://www.w3.org/2000/svg" xmlns:xlink="http://www.w3.org/1999/xlink">
<g id="graph0" class="graph" transform="scale(1 1) rotate(0) translate(4 84)">
<title>Compute::fill_fluxes</title>
<polygon fill="white" stroke="transparent" points="-4,4 -4,-84 271,-84 271,4 -4,4"/>
<!-- Node1 -->
<g id="node1" class="node">
<title>Node1</title>
<g id="a_node1"><a xlink:title="Fills the fluxes.">
<polygon fill="#bfbfbf" stroke="black" points="0,-30 0,-49 113,-49 113,-30 0,-30"/>
<text text-anchor="middle" x="56.5" y="-37" font-family="Helvetica,sans-Serif" font-size="10.00">Compute::fill_fluxes</text>
</a>
</g>
</g>
<!-- Node2 -->
<g id="node2" class="node">
<title>Node2</title>
<g id="a_node2"><a xlink:href="../../d6/d0c/structMyPhysics_1_1Diffusion_1_1Params.html#a4baf3f31fe7d8290e9b83a5d50832293" target="_top" xlink:title="Get the number of mesh points in the x&#45;direction.">
<polygon fill="white" stroke="black" points="149,-49.5 149,-79.5 267,-79.5 267,-49.5 149,-49.5"/>
<text text-anchor="start" x="157" y="-67.5" font-family="Helvetica,sans-Serif" font-size="10.00">MyPhysics::Diffusion</text>
<text text-anchor="middle" x="208" y="-56.5" font-family="Helvetica,sans-Serif" font-size="10.00">::Params::getM</text>
</a>
</g>
</g>
<!-- Node1&#45;&gt;Node2 -->
<g id="edge1" class="edge">
<title>Node1&#45;&gt;Node2</title>
<path fill="none" stroke="midnightblue" d="M113.17,-48.81C121.52,-50.21 130.22,-51.66 138.79,-53.09"/>
<polygon fill="midnightblue" stroke="midnightblue" points="138.34,-56.57 148.78,-54.77 139.5,-49.66 138.34,-56.57"/>
</g>
<!-- Node3 -->
<g id="node3" class="node">
<title>Node3</title>
<g id="a_node3"><a xlink:href="../../d6/d0c/structMyPhysics_1_1Diffusion_1_1Params.html#af03d96d9d471d6953b819b548bb633d9" target="_top" xlink:title="Get the number of mesh points in the y&#45;direction.">
<polygon fill="white" stroke="black" points="149,-0.5 149,-30.5 267,-30.5 267,-0.5 149,-0.5"/>
<text text-anchor="start" x="157" y="-18.5" font-family="Helvetica,sans-Serif" font-size="10.00">MyPhysics::Diffusion</text>
<text text-anchor="middle" x="208" y="-7.5" font-family="Helvetica,sans-Serif" font-size="10.00">::Params::getN</text>
</a>
</g>
</g>
<!-- Node1&#45;&gt;Node3 -->
<g id="edge2" class="edge">
<title>Node1&#45;&gt;Node3</title>
<path fill="none" stroke="midnightblue" d="M113.17,-30.56C121.52,-29.22 130.22,-27.83 138.79,-26.45"/>
<polygon fill="midnightblue" stroke="midnightblue" points="139.47,-29.89 148.78,-24.85 138.36,-22.97 139.47,-29.89"/>
</g>
</g>
</svg>
