<?xml version="1.0" encoding="UTF-8" standalone="no"?>
<!DOCTYPE svg PUBLIC "-//W3C//DTD SVG 1.1//EN"
 "http://www.w3.org/Graphics/SVG/1.1/DTD/svg11.dtd">
<!-- Generated by graphviz version 2.43.0 (0)
 -->
<!-- Title: Compute::usingPointJacobi Pages: 1 -->
<svg width="270pt" height="218pt"
 viewBox="0.00 0.00 270.00 218.00" xmlns="http://www.w3.org/2000/svg" xmlns:xlink="http://www.w3.org/1999/xlink">
<g id="graph0" class="graph" transform="scale(1 1) rotate(0) translate(4 214)">
<title>Compute::usingPointJacobi</title>
<polygon fill="white" stroke="transparent" points="-4,4 -4,-214 266,-214 266,4 -4,4"/>
<!-- Node1 -->
<g id="node1" class="node">
<title>Node1</title>
<g id="a_node1"><a xlink:title="This method applies the Point Jacobi relaxation method to the given input matrices.">
<polygon fill="#bfbfbf" stroke="black" points="115,-95.5 115,-114.5 262,-114.5 262,-95.5 115,-95.5"/>
<text text-anchor="middle" x="188.5" y="-102.5" font-family="Helvetica,sans-Serif" font-size="10.00">Compute::usingPointJacobi</text>
</a>
</g>
</g>
<!-- Node2 -->
<g id="node2" class="node">
<title>Node2</title>
<g id="a_node2"><a xlink:href="../../d1/d8c/classInLab6.html#a55667f27b7ba522dd4288f18d16c9f8d" target="_top" xlink:title="This function runs the project.">
<polygon fill="white" stroke="black" points="4,-190.5 4,-209.5 75,-209.5 75,-190.5 4,-190.5"/>
<text text-anchor="middle" x="39.5" y="-197.5" font-family="Helvetica,sans-Serif" font-size="10.00">InLab6::run</text>
</a>
</g>
</g>
<!-- Node1&#45;&gt;Node2 -->
<g id="edge1" class="edge">
<title>Node1&#45;&gt;Node2</title>
<path fill="none" stroke="midnightblue" d="M167.21,-120.62C145.87,-136.71 111,-162.05 79,-181 73.48,-184.27 67.33,-187.48 61.59,-190.31"/>
<polygon fill="midnightblue" stroke="midnightblue" points="169.37,-123.37 175.22,-114.54 165.14,-117.8 169.37,-123.37"/>
</g>
<!-- Node3 -->
<g id="node3" class="node">
<title>Node3</title>
<g id="a_node3"><a xlink:href="../../d0/d4c/classOutLab6.html#a901a1283fd029c9174f8469ac5cb3ad8" target="_top" xlink:title="This function runs the computation.">
<polygon fill="white" stroke="black" points="0,-152.5 0,-171.5 79,-171.5 79,-152.5 0,-152.5"/>
<text text-anchor="middle" x="39.5" y="-159.5" font-family="Helvetica,sans-Serif" font-size="10.00">OutLab6::run</text>
</a>
</g>
</g>
<!-- Node1&#45;&gt;Node3 -->
<g id="edge2" class="edge">
<title>Node1&#45;&gt;Node3</title>
<path fill="none" stroke="midnightblue" d="M153.45,-118.2C126.46,-128.67 89.38,-143.05 65.18,-152.43"/>
<polygon fill="midnightblue" stroke="midnightblue" points="154.84,-121.42 162.9,-114.54 152.31,-114.89 154.84,-121.42"/>
</g>
<!-- Node4 -->
<g id="node4" class="node">
<title>Node4</title>
<g id="a_node4"><a xlink:href="../../dd/db5/classProject2.html#a0990db917f6a27a4e1cb9ac885698524" target="_top" xlink:title="This function runs the project.">
<polygon fill="white" stroke="black" points="0.5,-114.5 0.5,-133.5 78.5,-133.5 78.5,-114.5 0.5,-114.5"/>
<text text-anchor="middle" x="39.5" y="-121.5" font-family="Helvetica,sans-Serif" font-size="10.00">Project2::run</text>
</a>
</g>
</g>
<!-- Node1&#45;&gt;Node4 -->
<g id="edge3" class="edge">
<title>Node1&#45;&gt;Node4</title>
<path fill="none" stroke="midnightblue" d="M104.68,-115.7C95.7,-116.87 86.92,-118 78.86,-119.04"/>
<polygon fill="midnightblue" stroke="midnightblue" points="105.39,-119.14 114.86,-114.39 104.5,-112.2 105.39,-119.14"/>
</g>
<!-- Node5 -->
<g id="node5" class="node">
<title>Node5</title>
<g id="a_node5"><a xlink:href="../../dd/dfb/classProject3.html#a8bcff99aaba60e7d5e5be3cb7552d163" target="_top" xlink:title="This function runs the project.">
<polygon fill="white" stroke="black" points="0.5,-76.5 0.5,-95.5 78.5,-95.5 78.5,-76.5 0.5,-76.5"/>
<text text-anchor="middle" x="39.5" y="-83.5" font-family="Helvetica,sans-Serif" font-size="10.00">Project3::run</text>
</a>
</g>
</g>
<!-- Node1&#45;&gt;Node5 -->
<g id="edge4" class="edge">
<title>Node1&#45;&gt;Node5</title>
<path fill="none" stroke="midnightblue" d="M104.68,-94.3C95.7,-93.13 86.92,-92 78.86,-90.96"/>
<polygon fill="midnightblue" stroke="midnightblue" points="104.5,-97.8 114.86,-95.61 105.39,-90.86 104.5,-97.8"/>
</g>
<!-- Node6 -->
<g id="node6" class="node">
<title>Node6</title>
<g id="a_node6"><a xlink:href="../../d2/dfd/classProject4.html#a3779e87d22c7d4949f3c01bae1d08ab9" target="_top" xlink:title="This function runs the project.">
<polygon fill="white" stroke="black" points="0.5,-38.5 0.5,-57.5 78.5,-57.5 78.5,-38.5 0.5,-38.5"/>
<text text-anchor="middle" x="39.5" y="-45.5" font-family="Helvetica,sans-Serif" font-size="10.00">Project4::run</text>
</a>
</g>
</g>
<!-- Node1&#45;&gt;Node6 -->
<g id="edge5" class="edge">
<title>Node1&#45;&gt;Node6</title>
<path fill="none" stroke="midnightblue" d="M153.45,-91.8C126.46,-81.33 89.38,-66.95 65.18,-57.57"/>
<polygon fill="midnightblue" stroke="midnightblue" points="152.31,-95.11 162.9,-95.46 154.84,-88.58 152.31,-95.11"/>
</g>
<!-- Node7 -->
<g id="node7" class="node">
<title>Node7</title>
<g id="a_node7"><a xlink:href="../../d5/dd8/classProject5.html#ad0d283fb148505600a22fbfef054c177" target="_top" xlink:title="This function runs the project.">
<polygon fill="white" stroke="black" points="0.5,-0.5 0.5,-19.5 78.5,-19.5 78.5,-0.5 0.5,-0.5"/>
<text text-anchor="middle" x="39.5" y="-7.5" font-family="Helvetica,sans-Serif" font-size="10.00">Project5::run</text>
</a>
</g>
</g>
<!-- Node1&#45;&gt;Node7 -->
<g id="edge6" class="edge">
<title>Node1&#45;&gt;Node7</title>
<path fill="none" stroke="midnightblue" d="M167.21,-89.38C145.87,-73.29 111,-47.95 79,-29 73.48,-25.73 67.33,-22.52 61.59,-19.69"/>
<polygon fill="midnightblue" stroke="midnightblue" points="165.14,-92.2 175.22,-95.46 169.37,-86.63 165.14,-92.2"/>
</g>
</g>
</svg>
