<?xml version="1.0" encoding="UTF-8" standalone="no"?>
<!DOCTYPE svg PUBLIC "-//W3C//DTD SVG 1.1//EN"
 "http://www.w3.org/Graphics/SVG/1.1/DTD/svg11.dtd">
<!-- Generated by graphviz version 2.43.0 (0)
 -->
<!-- Title: Compute::usingSymmetricGaussSeidel Pages: 1 -->
<!--zoomable 472 -->
<svg id="main" version="1.1" xmlns="http://www.w3.org/2000/svg" xmlns:xlink="http://www.w3.org/1999/xlink" xml:space="preserve" onload="init(evt)">
<style type="text/css"><![CDATA[
.edge:hover path { stroke: red; }
.edge:hover polygon { stroke: red; fill: red; }
]]></style>
<script type="text/javascript"><![CDATA[
var edges = document.getElementsByTagName('g');
if (edges && edges.length) {
  for (var i=0;i<edges.length;i++) {
    if (edges[i].id.substr(0,4)=='edge') {
      edges[i].setAttribute('class','edge');
    }
  }
}
]]></script>
        <defs>
                <circle id="rim" cx="0" cy="0" r="7"/>
                <circle id="rim2" cx="0" cy="0" r="3.5"/>
                <g id="zoomPlus">
                        <use xlink:href="#rim" fill="#404040">
                                <set attributeName="fill" to="#808080" begin="zoomplus.mouseover" end="zoomplus.mouseout"/>
                        </use>
                        <path d="M-4,0h8M0,-4v8" fill="none" stroke="white" stroke-width="1.5" pointer-events="none"/>
                </g>
                <g id="zoomMin">
                        <use xlink:href="#rim" fill="#404040">
                                <set attributeName="fill" to="#808080" begin="zoomminus.mouseover" end="zoomminus.mouseout"/>
                        </use>
                        <path d="M-4,0h8" fill="none" stroke="white" stroke-width="1.5" pointer-events="none"/>
                </g>
                <g id="dirArrow">
                        <path fill="none" stroke="white" stroke-width="1.5" d="M0,-3.0v7 M-2.5,-0.5L0,-3.0L2.5,-0.5"/>
                </g>
               <g id="resetDef">
                       <use xlink:href="#rim2" fill="#404040">
                               <set attributeName="fill" to="#808080" begin="reset.mouseover" end="reset.mouseout"/>
                       </use>
               </g>
        </defs>

<script type="text/javascript">
var viewWidth = 1128;
var viewHeight = 472;
var sectionId = 'dynsection-26';
</script>
<script xlink:href="../../svgpan.js"/>
<svg id="graph" class="graph">
<g id="viewport">
<title>Compute::usingSymmetricGaussSeidel</title>
<polygon fill="white" stroke="transparent" points="-4,4 -4,-467.94 1124,-467.94 1124,4 -4,4"/>
<!-- Node1 -->
<g id="node1" class="node">
<title>Node1</title>
<g id="a_node1"><a xlink:title="Solves a linear system using the Symmetric Gauss&#45;Seidel method.">
<polygon fill="#bfbfbf" stroke="black" points="0,-248 0,-278 176,-278 176,-248 0,-248"/>
<text text-anchor="start" x="8" y="-266" font-family="Helvetica,sans-Serif" font-size="10.00">Compute::usingSymmetricGauss</text>
<text text-anchor="middle" x="88" y="-255" font-family="Helvetica,sans-Serif" font-size="10.00">Seidel</text>
</a>
</g>
</g>
<!-- Node2 -->
<g id="node2" class="node">
<title>Node2</title>
<g id="a_node2"><a xlink:href="../../d7/d9a/namespaceMyRelaxationMethod.html#ac37edae4aec371352810b2f552647be4" target="_top" xlink:title="Applies the Symmetric Successive Over&#45;Relaxation (SSOR) method to solve a system of linear equations.">
<polygon fill="white" stroke="black" points="224.5,-166 224.5,-196 345.5,-196 345.5,-166 224.5,-166"/>
<text text-anchor="start" x="232.5" y="-184" font-family="Helvetica,sans-Serif" font-size="10.00">MyRelaxationMethod</text>
<text text-anchor="middle" x="285" y="-173" font-family="Helvetica,sans-Serif" font-size="10.00">::applySSOR</text>
</a>
</g>
</g>
<!-- Node1&#45;&gt;Node2 -->
<g id="edge1" class="edge">
<title>Node1&#45;&gt;Node2</title>
<path fill="none" stroke="midnightblue" d="M124.77,-247.96C156.83,-234.48 204.01,-214.63 238.7,-200.05"/>
<polygon fill="midnightblue" stroke="midnightblue" points="240.27,-203.19 248.13,-196.08 237.56,-196.73 240.27,-203.19"/>
</g>
<!-- Node12 -->
<g id="node12" class="node">
<title>Node12</title>
<g id="a_node12"><a xlink:href="../../d4/d68/classMatrixVectorExpression.html#a287e889ca5383ed237f12c1dc12a9f93" target="_top" xlink:title="Performs element&#45;wise matrix&#45;vector multiplication.">
<polygon fill="white" stroke="black" points="219,-411 219,-441 351,-441 351,-411 219,-411"/>
<text text-anchor="start" x="227" y="-429" font-family="Helvetica,sans-Serif" font-size="10.00">MatrixVectorExpression</text>
<text text-anchor="middle" x="285" y="-418" font-family="Helvetica,sans-Serif" font-size="10.00">::multiplyMatrixVector</text>
</a>
</g>
</g>
<!-- Node1&#45;&gt;Node12 -->
<g id="edge15" class="edge">
<title>Node1&#45;&gt;Node12</title>
<path fill="none" stroke="midnightblue" d="M107,-278.04C141.75,-307.09 218.2,-371 258.3,-404.52"/>
<polygon fill="midnightblue" stroke="midnightblue" points="256.13,-407.27 266.05,-410.99 260.62,-401.9 256.13,-407.27"/>
</g>
<!-- Node13 -->
<g id="node13" class="node">
<title>Node13</title>
<g id="a_node13"><a xlink:href="../../d7/d9a/namespaceMyRelaxationMethod.html#a985bd80ba02c84e9d1ca2e434a32bd3f" target="_top" xlink:title="Function to perform pre&#45;checks on the coefficient matrix and the right&#45;hand side vector.">
<polygon fill="white" stroke="black" points="224.5,-311 224.5,-341 345.5,-341 345.5,-311 224.5,-311"/>
<text text-anchor="start" x="232.5" y="-329" font-family="Helvetica,sans-Serif" font-size="10.00">MyRelaxationMethod</text>
<text text-anchor="middle" x="285" y="-318" font-family="Helvetica,sans-Serif" font-size="10.00">::passesPreChecks</text>
</a>
</g>
</g>
<!-- Node1&#45;&gt;Node13 -->
<g id="edge17" class="edge">
<title>Node1&#45;&gt;Node13</title>
<path fill="none" stroke="midnightblue" d="M135.71,-278.09C163.34,-287.02 198.53,-298.39 227.7,-307.81"/>
<polygon fill="midnightblue" stroke="midnightblue" points="226.74,-311.18 237.34,-310.92 228.9,-304.52 226.74,-311.18"/>
</g>
<!-- Node21 -->
<g id="node21" class="node">
<title>Node21</title>
<g id="a_node21"><a xlink:href="../../d7/de4/FileParser_8h.html#a3dcefb9b5c6bf2d5e28ebe848b09cad5" target="_top" xlink:title="A template function to write a matrix to a CSV file without headers.">
<polygon fill="white" stroke="black" points="212,-73.5 212,-92.5 358,-92.5 358,-73.5 212,-73.5"/>
<text text-anchor="middle" x="285" y="-80.5" font-family="Helvetica,sans-Serif" font-size="10.00">writeCSVMatrixNoHeaders</text>
</a>
</g>
</g>
<!-- Node1&#45;&gt;Node21 -->
<g id="edge32" class="edge">
<title>Node1&#45;&gt;Node21</title>
<path fill="none" stroke="midnightblue" d="M105.29,-247.96C141.37,-214.66 227.82,-134.85 265.7,-99.89"/>
<polygon fill="midnightblue" stroke="midnightblue" points="268.44,-102.12 273.42,-92.77 263.69,-96.98 268.44,-102.12"/>
</g>
<!-- Node3 -->
<g id="node3" class="node">
<title>Node3</title>
<g id="a_node3"><a xlink:href="../../d0/d27/classMyBLAS_1_1Matrix.html#a0772df3e76eadc9035e847316de0d249" target="_top" xlink:title="Getter for the number of rows in the matrix.">
<polygon fill="white" stroke="black" points="802,-411.5 802,-430.5 945,-430.5 945,-411.5 802,-411.5"/>
<text text-anchor="middle" x="873.5" y="-418.5" font-family="Helvetica,sans-Serif" font-size="10.00">MyBLAS::Matrix::getRows</text>
</a>
</g>
</g>
<!-- Node2&#45;&gt;Node3 -->
<g id="edge2" class="edge">
<title>Node2&#45;&gt;Node3</title>
<path fill="none" stroke="midnightblue" d="M294.33,-196.15C314.6,-232.54 366.8,-323.48 394,-345 508.75,-435.79 688.49,-438.29 791.92,-430.56"/>
<polygon fill="midnightblue" stroke="midnightblue" points="792.3,-434.04 801.99,-429.76 791.75,-427.06 792.3,-434.04"/>
</g>
<!-- Node4 -->
<g id="node4" class="node">
<title>Node4</title>
<g id="a_node4"><a xlink:href="../../d2/d6e/namespaceMyBLAS.html#aba14acf3eb1a8387636b2054a79817cf" target="_top" xlink:title="Calculates the L2 norm of the distance (Euclidean distance) between two containers.">
<polygon fill="white" stroke="black" points="443,-152.5 443,-171.5 517,-171.5 517,-152.5 443,-152.5"/>
<text text-anchor="middle" x="480" y="-159.5" font-family="Helvetica,sans-Serif" font-size="10.00">MyBLAS::L2</text>
</a>
</g>
</g>
<!-- Node2&#45;&gt;Node4 -->
<g id="edge3" class="edge">
<title>Node2&#45;&gt;Node4</title>
<path fill="none" stroke="midnightblue" d="M345.74,-175.12C373.79,-172.36 406.71,-169.12 432.82,-166.55"/>
<polygon fill="midnightblue" stroke="midnightblue" points="433.21,-170.02 442.82,-165.56 432.53,-163.06 433.21,-170.02"/>
</g>
<!-- Node6 -->
<g id="node6" class="node">
<title>Node6</title>
<g id="a_node6"><a xlink:href="../../de/d4d/namespaceMyMath.html#af3e9a9de7b922fdfb6e3d2988b1212ff" target="_top" xlink:title="A template function to calculate the power of a base number.">
<polygon fill="white" stroke="black" points="832,-114.5 832,-133.5 915,-133.5 915,-114.5 832,-114.5"/>
<text text-anchor="middle" x="873.5" y="-121.5" font-family="Helvetica,sans-Serif" font-size="10.00">MyMath::pow</text>
</a>
</g>
</g>
<!-- Node2&#45;&gt;Node6 -->
<g id="edge13" class="edge">
<title>Node2&#45;&gt;Node6</title>
<path fill="none" stroke="midnightblue" d="M321.34,-165.98C342.12,-157.8 369.12,-148.3 394,-143 547.11,-110.38 733.85,-115.46 821.92,-120.44"/>
<polygon fill="midnightblue" stroke="midnightblue" points="821.72,-123.93 831.91,-121.03 822.14,-116.94 821.72,-123.93"/>
</g>
<!-- Node9 -->
<g id="node9" class="node">
<title>Node9</title>
<g id="a_node9"><a xlink:href="../../dd/df5/namespaceMyBLAS_1_1Stats.html#aaa0d2e3d22af2b7894169b7c90ba6146" target="_top" xlink:title="Function to find the sum of all elements in a vector.">
<polygon fill="white" stroke="black" points="816,-190.5 816,-209.5 931,-209.5 931,-190.5 816,-190.5"/>
<text text-anchor="middle" x="873.5" y="-197.5" font-family="Helvetica,sans-Serif" font-size="10.00">MyBLAS::Stats::sum</text>
</a>
</g>
</g>
<!-- Node2&#45;&gt;Node9 -->
<g id="edge14" class="edge">
<title>Node2&#45;&gt;Node9</title>
<path fill="none" stroke="midnightblue" d="M345.74,-182.94C455.98,-186.51 690.66,-194.11 805.87,-197.84"/>
<polygon fill="midnightblue" stroke="midnightblue" points="805.86,-201.34 815.97,-198.17 806.09,-194.35 805.86,-201.34"/>
</g>
<!-- Node11 -->
<g id="node11" class="node">
<title>Node11</title>
<g id="a_node11"><a xlink:href="../../dd/df5/namespaceMyBLAS_1_1Stats.html#a403bf760cf802cddf8dd73e5d3e46a05" target="_top" xlink:title="Function to find the maximum value in a vector.">
<polygon fill="white" stroke="black" points="626,-38.5 626,-57.5 742,-57.5 742,-38.5 626,-38.5"/>
<text text-anchor="middle" x="684" y="-45.5" font-family="Helvetica,sans-Serif" font-size="10.00">MyBLAS::Stats::max</text>
</a>
</g>
</g>
<!-- Node2&#45;&gt;Node11 -->
<g id="edge11" class="edge">
<title>Node2&#45;&gt;Node11</title>
<path fill="none" stroke="midnightblue" d="M299.88,-165.88C326.31,-137.24 382.29,-77.46 394,-72 464.31,-39.21 554.68,-37.2 615.49,-40.79"/>
<polygon fill="midnightblue" stroke="midnightblue" points="615.53,-44.3 625.74,-41.47 615.99,-37.32 615.53,-44.3"/>
</g>
<!-- Node5 -->
<g id="node5" class="node">
<title>Node5</title>
<g id="a_node5"><a xlink:href="../../d2/d6e/namespaceMyBLAS.html#ac12a3b113ae6b7edd2fcb21280c0f804" target="_top" xlink:title="A template function to calculate the norm of a vector.">
<polygon fill="white" stroke="black" points="639.5,-152.5 639.5,-171.5 728.5,-171.5 728.5,-152.5 639.5,-152.5"/>
<text text-anchor="middle" x="684" y="-159.5" font-family="Helvetica,sans-Serif" font-size="10.00">MyBLAS::norm</text>
</a>
</g>
</g>
<!-- Node4&#45;&gt;Node5 -->
<g id="edge4" class="edge">
<title>Node4&#45;&gt;Node5</title>
<path fill="none" stroke="midnightblue" d="M517.11,-162C548.31,-162 593.82,-162 629.28,-162"/>
<polygon fill="midnightblue" stroke="midnightblue" points="629.47,-165.5 639.47,-162 629.47,-158.5 629.47,-165.5"/>
</g>
<!-- Node4&#45;&gt;Node6 -->
<g id="edge10" class="edge">
<title>Node4&#45;&gt;Node6</title>
<path fill="none" stroke="midnightblue" d="M517.16,-155.49C541.15,-151.38 573.37,-146.25 602,-143 678.25,-134.35 767.06,-129.01 821.52,-126.28"/>
<polygon fill="midnightblue" stroke="midnightblue" points="821.8,-129.77 831.61,-125.78 821.45,-122.78 821.8,-129.77"/>
</g>
<!-- Node5&#45;&gt;Node6 -->
<g id="edge5" class="edge">
<title>Node5&#45;&gt;Node6</title>
<path fill="none" stroke="midnightblue" d="M728.96,-153.09C756.75,-147.46 792.76,-140.16 821.76,-134.28"/>
<polygon fill="midnightblue" stroke="midnightblue" points="822.6,-137.69 831.7,-132.27 821.2,-130.82 822.6,-137.69"/>
</g>
<!-- Node8 -->
<g id="node8" class="node">
<title>Node8</title>
<g id="a_node8"><a xlink:href="../../d4/d4d/classMyBLAS_1_1Vector.html#aae30f8178e4a34d332317c61e77c147a" target="_top" xlink:title="Getter for the size of the vector.">
<polygon fill="white" stroke="black" points="991,-221.5 991,-240.5 1110,-240.5 1110,-221.5 991,-221.5"/>
<text text-anchor="middle" x="1050.5" y="-228.5" font-family="Helvetica,sans-Serif" font-size="10.00">MyBLAS::Vector::size</text>
</a>
</g>
</g>
<!-- Node5&#45;&gt;Node8 -->
<g id="edge7" class="edge">
<title>Node5&#45;&gt;Node8</title>
<path fill="none" stroke="midnightblue" d="M728.74,-159.8C781.19,-158.38 871.26,-159.85 945,-181 962.39,-185.99 964.75,-192.04 981,-200 993,-205.87 1006.35,-212.01 1018.06,-217.25"/>
<polygon fill="midnightblue" stroke="midnightblue" points="1016.88,-220.56 1027.44,-221.42 1019.72,-214.16 1016.88,-220.56"/>
</g>
<!-- Node5&#45;&gt;Node9 -->
<g id="edge8" class="edge">
<title>Node5&#45;&gt;Node9</title>
<path fill="none" stroke="midnightblue" d="M728.96,-170.91C754.8,-176.15 787.74,-182.82 815.55,-188.46"/>
<polygon fill="midnightblue" stroke="midnightblue" points="815.04,-191.93 825.54,-190.48 816.43,-185.07 815.04,-191.93"/>
</g>
<!-- Node7 -->
<g id="node7" class="node">
<title>Node7</title>
<g id="a_node7"><a xlink:href="../../de/d4d/namespaceMyMath.html#a5f2b6e445ba885637efd0db1a7708919" target="_top" xlink:title="A template specialization function to calculate the power of a __float128 base number.">
<polygon fill="white" stroke="black" points="1009,-114.5 1009,-133.5 1092,-133.5 1092,-114.5 1009,-114.5"/>
<text text-anchor="middle" x="1050.5" y="-121.5" font-family="Helvetica,sans-Serif" font-size="10.00">MyMath::pow</text>
</a>
</g>
</g>
<!-- Node6&#45;&gt;Node7 -->
<g id="edge6" class="edge">
<title>Node6&#45;&gt;Node7</title>
<path fill="none" stroke="midnightblue" d="M915.09,-124C939.96,-124 972.01,-124 998.57,-124"/>
<polygon fill="midnightblue" stroke="midnightblue" points="998.83,-127.5 1008.83,-124 998.83,-120.5 998.83,-127.5"/>
</g>
<!-- Node10 -->
<g id="node10" class="node">
<title>Node10</title>
<g id="a_node10"><a xlink:href="../../d4/d4d/classMyBLAS_1_1Vector.html#a6188d71192e096e25ae1c1a46150a0ab" target="_top" xlink:title="Getter for the vector data.">
<polygon fill="white" stroke="black" points="981,-171.5 981,-190.5 1120,-190.5 1120,-171.5 981,-171.5"/>
<text text-anchor="middle" x="1050.5" y="-178.5" font-family="Helvetica,sans-Serif" font-size="10.00">MyBLAS::Vector::getData</text>
</a>
</g>
</g>
<!-- Node9&#45;&gt;Node10 -->
<g id="edge9" class="edge">
<title>Node9&#45;&gt;Node10</title>
<path fill="none" stroke="midnightblue" d="M931.32,-193.83C943.88,-192.47 957.42,-191 970.68,-189.56"/>
<polygon fill="midnightblue" stroke="midnightblue" points="971.19,-193.02 980.75,-188.46 970.43,-186.06 971.19,-193.02"/>
</g>
<!-- Node11&#45;&gt;Node10 -->
<g id="edge12" class="edge">
<title>Node11&#45;&gt;Node10</title>
<path fill="none" stroke="midnightblue" d="M742.18,-50.88C797.29,-55.8 881.43,-69.09 945,-105 965.26,-116.44 962.61,-128.75 981,-143 992.73,-152.1 1006.92,-160.35 1019.33,-166.82"/>
<polygon fill="midnightblue" stroke="midnightblue" points="1017.9,-170.01 1028.4,-171.4 1021.06,-163.77 1017.9,-170.01"/>
</g>
<!-- Node12&#45;&gt;Node3 -->
<g id="edge16" class="edge">
<title>Node12&#45;&gt;Node3</title>
<path fill="none" stroke="midnightblue" d="M351.22,-438.34C443.92,-453.95 618.88,-476.27 766,-454 791.16,-450.19 818.57,-441.59 839.28,-434.12"/>
<polygon fill="midnightblue" stroke="midnightblue" points="840.71,-437.33 848.87,-430.57 838.28,-430.76 840.71,-437.33"/>
</g>
<!-- Node14 -->
<g id="node14" class="node">
<title>Node14</title>
<g id="a_node14"><a xlink:href="../../d2/d6e/namespaceMyBLAS.html#a4ae8cb61e3457065790607979b939564" target="_top" xlink:title="Checks if the given matrix is diagonally dominant.">
<polygon fill="white" stroke="black" points="394,-316.5 394,-335.5 566,-335.5 566,-316.5 394,-316.5"/>
<text text-anchor="middle" x="480" y="-323.5" font-family="Helvetica,sans-Serif" font-size="10.00">MyBLAS::isDiagonallyDominant</text>
</a>
</g>
</g>
<!-- Node13&#45;&gt;Node14 -->
<g id="edge18" class="edge">
<title>Node13&#45;&gt;Node14</title>
<path fill="none" stroke="midnightblue" d="M345.74,-326C357.71,-326 370.57,-326 383.4,-326"/>
<polygon fill="midnightblue" stroke="midnightblue" points="383.67,-329.5 393.67,-326 383.67,-322.5 383.67,-329.5"/>
</g>
<!-- Node16 -->
<g id="node16" class="node">
<title>Node16</title>
<g id="a_node16"><a xlink:href="../../d2/d6e/namespaceMyBLAS.html#a0b887e323f8337bd87ef20dff8af5c1f" target="_top" xlink:title="Checks if the given matrix is a square matrix.">
<polygon fill="white" stroke="black" points="615.5,-354.5 615.5,-373.5 752.5,-373.5 752.5,-354.5 615.5,-354.5"/>
<text text-anchor="middle" x="684" y="-361.5" font-family="Helvetica,sans-Serif" font-size="10.00">MyBLAS::isSquareMatrix</text>
</a>
</g>
</g>
<!-- Node13&#45;&gt;Node16 -->
<g id="edge28" class="edge">
<title>Node13&#45;&gt;Node16</title>
<path fill="none" stroke="midnightblue" d="M345.53,-337.66C361.24,-340.42 378.22,-343.1 394,-345 465.23,-353.58 546.83,-358.5 605.12,-361.17"/>
<polygon fill="midnightblue" stroke="midnightblue" points="605.22,-364.68 615.36,-361.63 605.53,-357.69 605.22,-364.68"/>
</g>
<!-- Node18 -->
<g id="node18" class="node">
<title>Node18</title>
<g id="a_node18"><a xlink:href="../../d2/d6e/namespaceMyBLAS.html#a1f0325293f4b4969ac4a450ba3db1f87" target="_top" xlink:title="Checks if the given matrix is empty.">
<polygon fill="white" stroke="black" points="617,-392.5 617,-411.5 751,-411.5 751,-392.5 617,-392.5"/>
<text text-anchor="middle" x="684" y="-399.5" font-family="Helvetica,sans-Serif" font-size="10.00">MyBLAS::isEmptyMatrix</text>
</a>
</g>
</g>
<!-- Node13&#45;&gt;Node18 -->
<g id="edge25" class="edge">
<title>Node13&#45;&gt;Node18</title>
<path fill="none" stroke="midnightblue" d="M320.38,-341.05C341.29,-349.62 368.75,-359.84 394,-366 464.9,-383.3 547.72,-392.53 606.48,-397.3"/>
<polygon fill="midnightblue" stroke="midnightblue" points="606.55,-400.82 616.79,-398.11 607.1,-393.84 606.55,-400.82"/>
</g>
<!-- Node19 -->
<g id="node19" class="node">
<title>Node19</title>
<g id="a_node19"><a xlink:href="../../d2/d6e/namespaceMyBLAS.html#a56e77d4aef50489830f5ce0ef7bcf7a4" target="_top" xlink:title="Checks if there are no zeros in the diagonal of a matrix.">
<polygon fill="white" stroke="black" points="402.5,-256.5 402.5,-275.5 557.5,-275.5 557.5,-256.5 402.5,-256.5"/>
<text text-anchor="middle" x="480" y="-263.5" font-family="Helvetica,sans-Serif" font-size="10.00">MyBLAS::noZerosInDiagonal</text>
</a>
</g>
</g>
<!-- Node13&#45;&gt;Node19 -->
<g id="edge29" class="edge">
<title>Node13&#45;&gt;Node19</title>
<path fill="none" stroke="midnightblue" d="M334.7,-310.86C366.81,-300.88 408.35,-287.96 438.62,-278.55"/>
<polygon fill="midnightblue" stroke="midnightblue" points="439.91,-281.82 448.42,-275.51 437.83,-275.13 439.91,-281.82"/>
</g>
<!-- Node14&#45;&gt;Node9 -->
<g id="edge24" class="edge">
<title>Node14&#45;&gt;Node9</title>
<path fill="none" stroke="midnightblue" d="M528.82,-316.47C609.32,-300.41 763.44,-269.53 766,-268 787.41,-255.24 781.53,-239.22 802,-225 808.75,-220.31 816.47,-216.41 824.26,-213.2"/>
<polygon fill="midnightblue" stroke="midnightblue" points="825.64,-216.42 833.76,-209.62 823.16,-209.88 825.64,-216.42"/>
</g>
<!-- Node15 -->
<g id="node15" class="node">
<title>Node15</title>
<g id="a_node15"><a xlink:href="../../d2/d6e/namespaceMyBLAS.html#ab04220788b1a4758fe6b7f4fedc39a19" target="_top" xlink:title=" ">
<polygon fill="white" stroke="black" points="833.5,-234.5 833.5,-253.5 913.5,-253.5 913.5,-234.5 833.5,-234.5"/>
<text text-anchor="middle" x="873.5" y="-241.5" font-family="Helvetica,sans-Serif" font-size="10.00">MyBLAS::abs</text>
</a>
</g>
</g>
<!-- Node14&#45;&gt;Node15 -->
<g id="edge19" class="edge">
<title>Node14&#45;&gt;Node15</title>
<path fill="none" stroke="midnightblue" d="M566.26,-327.93C623.8,-327.04 700.84,-321.54 766,-302 797.44,-292.57 830.09,-273.11 850.82,-259.34"/>
<polygon fill="midnightblue" stroke="midnightblue" points="852.88,-262.16 859.19,-253.65 848.95,-256.37 852.88,-262.16"/>
</g>
<!-- Node14&#45;&gt;Node16 -->
<g id="edge21" class="edge">
<title>Node14&#45;&gt;Node16</title>
<path fill="none" stroke="midnightblue" d="M531.71,-335.54C559.21,-340.71 593.38,-347.14 622.28,-352.58"/>
<polygon fill="midnightblue" stroke="midnightblue" points="621.79,-356.05 632.27,-354.46 623.09,-349.17 621.79,-356.05"/>
</g>
<!-- Node15&#45;&gt;Node8 -->
<g id="edge20" class="edge">
<title>Node15&#45;&gt;Node8</title>
<path fill="none" stroke="midnightblue" d="M913.77,-241.08C933.44,-239.62 957.82,-237.81 980.48,-236.13"/>
<polygon fill="midnightblue" stroke="midnightblue" points="981.03,-239.6 990.74,-235.36 980.51,-232.62 981.03,-239.6"/>
</g>
<!-- Node16&#45;&gt;Node3 -->
<g id="edge23" class="edge">
<title>Node16&#45;&gt;Node3</title>
<path fill="none" stroke="midnightblue" d="M729.8,-373.56C741.64,-376.35 754.36,-379.57 766,-383 790.71,-390.28 818.07,-400.08 838.87,-407.91"/>
<polygon fill="midnightblue" stroke="midnightblue" points="837.63,-411.18 848.22,-411.46 840.12,-404.64 837.63,-411.18"/>
</g>
<!-- Node17 -->
<g id="node17" class="node">
<title>Node17</title>
<g id="a_node17"><a xlink:href="../../d0/d27/classMyBLAS_1_1Matrix.html#a720cd9095d330d43de367bfbffffb864" target="_top" xlink:title="Getter for the number of columns in the matrix.">
<polygon fill="white" stroke="black" points="805,-354.5 805,-373.5 942,-373.5 942,-354.5 805,-354.5"/>
<text text-anchor="middle" x="873.5" y="-361.5" font-family="Helvetica,sans-Serif" font-size="10.00">MyBLAS::Matrix::getCols</text>
</a>
</g>
</g>
<!-- Node16&#45;&gt;Node17 -->
<g id="edge22" class="edge">
<title>Node16&#45;&gt;Node17</title>
<path fill="none" stroke="midnightblue" d="M752.69,-364C766.37,-364 780.84,-364 794.83,-364"/>
<polygon fill="midnightblue" stroke="midnightblue" points="794.91,-367.5 804.91,-364 794.91,-360.5 794.91,-367.5"/>
</g>
<!-- Node18&#45;&gt;Node3 -->
<g id="edge27" class="edge">
<title>Node18&#45;&gt;Node3</title>
<path fill="none" stroke="midnightblue" d="M751.11,-408.7C764.21,-410.03 778.11,-411.44 791.64,-412.81"/>
<polygon fill="midnightblue" stroke="midnightblue" points="791.6,-416.32 801.9,-413.85 792.31,-409.36 791.6,-416.32"/>
</g>
<!-- Node18&#45;&gt;Node17 -->
<g id="edge26" class="edge">
<title>Node18&#45;&gt;Node17</title>
<path fill="none" stroke="midnightblue" d="M732.31,-392.41C757.61,-387.28 788.95,-380.93 815.57,-375.54"/>
<polygon fill="midnightblue" stroke="midnightblue" points="816.42,-378.94 825.53,-373.52 815.03,-372.08 816.42,-378.94"/>
</g>
<!-- Node20 -->
<g id="node20" class="node">
<title>Node20</title>
<g id="a_node20"><a xlink:href="../../d2/d6e/namespaceMyBLAS.html#a6b103aca5e5fab29f3d0954b77946dc0" target="_top" xlink:title="Checks if all diagonal elements of a matrix are below a certain threshold.">
<polygon fill="white" stroke="black" points="602,-229 602,-259 766,-259 766,-229 602,-229"/>
<text text-anchor="start" x="610" y="-247" font-family="Helvetica,sans-Serif" font-size="10.00">MyBLAS::allDiagonalElements</text>
<text text-anchor="middle" x="684" y="-236" font-family="Helvetica,sans-Serif" font-size="10.00">BelowThreshold</text>
</a>
</g>
</g>
<!-- Node19&#45;&gt;Node20 -->
<g id="edge30" class="edge">
<title>Node19&#45;&gt;Node20</title>
<path fill="none" stroke="midnightblue" d="M557.66,-257.65C568.79,-256.44 580.35,-255.18 591.74,-253.94"/>
<polygon fill="midnightblue" stroke="midnightblue" points="592.12,-257.42 601.69,-252.86 591.37,-250.46 592.12,-257.42"/>
</g>
<!-- Node20&#45;&gt;Node15 -->
<g id="edge31" class="edge">
<title>Node20&#45;&gt;Node15</title>
<path fill="none" stroke="midnightblue" d="M766.15,-244C785.49,-244 805.56,-244 822.99,-244"/>
<polygon fill="midnightblue" stroke="midnightblue" points="823.47,-247.5 833.47,-244 823.47,-240.5 823.47,-247.5"/>
</g>
<!-- Node22 -->
<g id="node22" class="node">
<title>Node22</title>
<g id="a_node22"><a xlink:href="../../d7/de4/FileParser_8h.html#a784eb9bb658a54b0577db5cc2d73acae" target="_top" xlink:title="Checks if a file is writable.">
<polygon fill="white" stroke="black" points="438.5,-0.5 438.5,-19.5 521.5,-19.5 521.5,-0.5 438.5,-0.5"/>
<text text-anchor="middle" x="480" y="-7.5" font-family="Helvetica,sans-Serif" font-size="10.00">isFileWritable</text>
</a>
</g>
</g>
<!-- Node21&#45;&gt;Node22 -->
<g id="edge33" class="edge">
<title>Node21&#45;&gt;Node22</title>
<path fill="none" stroke="midnightblue" d="M304.76,-73.44C326.02,-62.86 361.9,-45.74 394,-34 405.7,-29.72 418.54,-25.74 430.61,-22.3"/>
<polygon fill="midnightblue" stroke="midnightblue" points="431.83,-25.59 440.53,-19.54 429.96,-18.85 431.83,-25.59"/>
</g>
</g>
</svg>
        <g id="navigator" transform="translate(0 0)" fill="#404254">
                <rect fill="#f2f5e9" fill-opacity="0.5" stroke="#606060" stroke-width=".5" x="0" y="0" width="60" height="60"/>
                <use id="zoomplus" xlink:href="#zoomPlus" x="17" y="9" onmousedown="handleZoom(evt,'in')"/>
                <use id="zoomminus" xlink:href="#zoomMin" x="42" y="9" onmousedown="handleZoom(evt,'out')"/>
                <use id="reset" xlink:href="#resetDef" x="30" y="36" onmousedown="handleReset()"/>
                <g id="arrowUp" xlink:href="#dirArrow" transform="translate(30 24)" onmousedown="handlePan(0,-1)">
                  <use xlink:href="#rim" fill="#404040">
                        <set attributeName="fill" to="#808080" begin="arrowUp.mouseover" end="arrowUp.mouseout"/>
                  </use>
                  <path fill="none" stroke="white" stroke-width="1.5" d="M0,-3.0v7 M-2.5,-0.5L0,-3.0L2.5,-0.5"/>
                </g>
                <g id="arrowRight" xlink:href="#dirArrow" transform="rotate(90) translate(36 -43)" onmousedown="handlePan(1,0)">
                  <use xlink:href="#rim" fill="#404040">
                        <set attributeName="fill" to="#808080" begin="arrowRight.mouseover" end="arrowRight.mouseout"/>
                  </use>
                  <path fill="none" stroke="white" stroke-width="1.5" d="M0,-3.0v7 M-2.5,-0.5L0,-3.0L2.5,-0.5"/>
                </g>
                <g id="arrowDown" xlink:href="#dirArrow" transform="rotate(180) translate(-30 -48)" onmousedown="handlePan(0,1)">
                  <use xlink:href="#rim" fill="#404040">
                        <set attributeName="fill" to="#808080" begin="arrowDown.mouseover" end="arrowDown.mouseout"/>
                  </use>
                  <path fill="none" stroke="white" stroke-width="1.5" d="M0,-3.0v7 M-2.5,-0.5L0,-3.0L2.5,-0.5"/>
                </g>
                <g id="arrowLeft" xlink:href="#dirArrow" transform="rotate(270) translate(-36 17)" onmousedown="handlePan(-1,0)">
                  <use xlink:href="#rim" fill="#404040">
                        <set attributeName="fill" to="#808080" begin="arrowLeft.mouseover" end="arrowLeft.mouseout"/>
                  </use>
                  <path fill="none" stroke="white" stroke-width="1.5" d="M0,-3.0v7 M-2.5,-0.5L0,-3.0L2.5,-0.5"/>
                </g>
        </g>
        <svg viewBox="0 0 15 15" width="100%" height="30px" preserveAspectRatio="xMaxYMin meet">
         <g id="arrow_out" transform="scale(0.3 0.3)">
          <a xlink:href="namespaceCompute_af9b2fed99d9965f94cb5cfab410419a0_cgraph_org.svg" target="_base">
           <rect id="button" ry="5" rx="5" y="6" x="6" height="38" width="38"
                fill="#f2f5e9" fill-opacity="0.5" stroke="#606060" stroke-width="1.0"/>
           <path id="arrow"
             d="M 11.500037,31.436501 C 11.940474,20.09759 22.043105,11.32322 32.158766,21.979434 L 37.068811,17.246167 C 37.068811,17.246167 37.088388,32 37.088388,32 L 22.160133,31.978069 C 22.160133,31.978069 26.997745,27.140456 26.997745,27.140456 C 18.528582,18.264221 13.291696,25.230495 11.500037,31.436501 z"
             style="fill:#404040;"/>
          </a>
         </g>
        </svg>
</svg>
