<?xml version="1.0" encoding="UTF-8" standalone="no"?>
<!DOCTYPE svg PUBLIC "-//W3C//DTD SVG 1.1//EN"
 "http://www.w3.org/Graphics/SVG/1.1/DTD/svg11.dtd">
<!-- Generated by graphviz version 2.43.0 (0)
 -->
<!-- Title: Compute::usingConjugateGradient Pages: 1 -->
<!--zoomable 104 -->
<svg id="main" version="1.1" xmlns="http://www.w3.org/2000/svg" xmlns:xlink="http://www.w3.org/1999/xlink" xml:space="preserve" onload="init(evt)">
<style type="text/css"><![CDATA[
.edge:hover path { stroke: red; }
.edge:hover polygon { stroke: red; fill: red; }
]]></style>
<script type="text/javascript"><![CDATA[
var edges = document.getElementsByTagName('g');
if (edges && edges.length) {
  for (var i=0;i<edges.length;i++) {
    if (edges[i].id.substr(0,4)=='edge') {
      edges[i].setAttribute('class','edge');
    }
  }
}
]]></script>
        <defs>
                <circle id="rim" cx="0" cy="0" r="7"/>
                <circle id="rim2" cx="0" cy="0" r="3.5"/>
                <g id="zoomPlus">
                        <use xlink:href="#rim" fill="#404040">
                                <set attributeName="fill" to="#808080" begin="zoomplus.mouseover" end="zoomplus.mouseout"/>
                        </use>
                        <path d="M-4,0h8M0,-4v8" fill="none" stroke="white" stroke-width="1.5" pointer-events="none"/>
                </g>
                <g id="zoomMin">
                        <use xlink:href="#rim" fill="#404040">
                                <set attributeName="fill" to="#808080" begin="zoomminus.mouseover" end="zoomminus.mouseout"/>
                        </use>
                        <path d="M-4,0h8" fill="none" stroke="white" stroke-width="1.5" pointer-events="none"/>
                </g>
                <g id="dirArrow">
                        <path fill="none" stroke="white" stroke-width="1.5" d="M0,-3.0v7 M-2.5,-0.5L0,-3.0L2.5,-0.5"/>
                </g>
               <g id="resetDef">
                       <use xlink:href="#rim2" fill="#404040">
                               <set attributeName="fill" to="#808080" begin="reset.mouseover" end="reset.mouseout"/>
                       </use>
               </g>
        </defs>

<script type="text/javascript">
var viewWidth = 724;
var viewHeight = 104;
var sectionId = 'dynsection-10';
</script>
<script xlink:href="../../svgpan.js"/>
<svg id="graph" class="graph">
<g id="viewport">
<title>Compute::usingConjugateGradient</title>
<polygon fill="white" stroke="transparent" points="-4,4 -4,-100 720,-100 720,4 -4,4"/>
<!-- Node1 -->
<g id="node1" class="node">
<title>Node1</title>
<g id="a_node1"><a xlink:title=" ">
<polygon fill="#bfbfbf" stroke="black" points="0,-38.5 0,-57.5 185,-57.5 185,-38.5 0,-38.5"/>
<text text-anchor="middle" x="92.5" y="-45.5" font-family="Helvetica,sans-Serif" font-size="10.00">Compute::usingConjugateGradient</text>
</a>
</g>
</g>
<!-- Node2 -->
<g id="node2" class="node">
<title>Node2</title>
<g id="a_node2"><a xlink:href="../../d7/d9a/namespaceMyRelaxationMethod.html#afdf5008e9dbe2c5d17070d2dbfb89ebd" target="_top" xlink:title=" ">
<polygon fill="white" stroke="black" points="221,-33 221,-63 362,-63 362,-33 221,-33"/>
<text text-anchor="start" x="229" y="-51" font-family="Helvetica,sans-Serif" font-size="10.00">MyRelaxationMethod</text>
<text text-anchor="middle" x="291.5" y="-40" font-family="Helvetica,sans-Serif" font-size="10.00">::applyConjugateGradient</text>
</a>
</g>
</g>
<!-- Node1&#45;&gt;Node2 -->
<g id="edge1" class="edge">
<title>Node1&#45;&gt;Node2</title>
<path fill="none" stroke="midnightblue" d="M185.08,-48C193.65,-48 202.29,-48 210.74,-48"/>
<polygon fill="midnightblue" stroke="midnightblue" points="210.94,-51.5 220.94,-48 210.94,-44.5 210.94,-51.5"/>
</g>
<!-- Node3 -->
<g id="node3" class="node">
<title>Node3</title>
<g id="a_node3"><a xlink:href="../../d0/d27/classMyBLAS_1_1Matrix.html#a0772df3e76eadc9035e847316de0d249" target="_top" xlink:title="Getter for the number of rows in the matrix.">
<polygon fill="white" stroke="black" points="398,-76.5 398,-95.5 541,-95.5 541,-76.5 398,-76.5"/>
<text text-anchor="middle" x="469.5" y="-83.5" font-family="Helvetica,sans-Serif" font-size="10.00">MyBLAS::Matrix::getRows</text>
</a>
</g>
</g>
<!-- Node2&#45;&gt;Node3 -->
<g id="edge2" class="edge">
<title>Node2&#45;&gt;Node3</title>
<path fill="none" stroke="midnightblue" d="M362.06,-63.02C379.49,-66.78 397.92,-70.76 414.47,-74.33"/>
<polygon fill="midnightblue" stroke="midnightblue" points="413.98,-77.81 424.5,-76.5 415.46,-70.97 413.98,-77.81"/>
</g>
<!-- Node4 -->
<g id="node4" class="node">
<title>Node4</title>
<g id="a_node4"><a xlink:href="../../dd/df5/namespaceMyBLAS_1_1Stats.html#a403bf760cf802cddf8dd73e5d3e46a05" target="_top" xlink:title="Function to find the maximum value in a vector.">
<polygon fill="white" stroke="black" points="411.5,-38.5 411.5,-57.5 527.5,-57.5 527.5,-38.5 411.5,-38.5"/>
<text text-anchor="middle" x="469.5" y="-45.5" font-family="Helvetica,sans-Serif" font-size="10.00">MyBLAS::Stats::max</text>
</a>
</g>
</g>
<!-- Node2&#45;&gt;Node4 -->
<g id="edge3" class="edge">
<title>Node2&#45;&gt;Node4</title>
<path fill="none" stroke="midnightblue" d="M362.06,-48C374.95,-48 388.39,-48 401.21,-48"/>
<polygon fill="midnightblue" stroke="midnightblue" points="401.34,-51.5 411.34,-48 401.34,-44.5 401.34,-51.5"/>
</g>
<!-- Node6 -->
<g id="node6" class="node">
<title>Node6</title>
<g id="a_node6"><a xlink:href="../../de/d4d/namespaceMyMath.html#af3e9a9de7b922fdfb6e3d2988b1212ff" target="_top" xlink:title="A template function to calculate the power of a base number.">
<polygon fill="white" stroke="black" points="428,-0.5 428,-19.5 511,-19.5 511,-0.5 428,-0.5"/>
<text text-anchor="middle" x="469.5" y="-7.5" font-family="Helvetica,sans-Serif" font-size="10.00">MyMath::pow</text>
</a>
</g>
</g>
<!-- Node2&#45;&gt;Node6 -->
<g id="edge5" class="edge">
<title>Node2&#45;&gt;Node6</title>
<path fill="none" stroke="midnightblue" d="M362.06,-32.98C380.69,-28.96 400.48,-24.69 417.88,-20.93"/>
<polygon fill="midnightblue" stroke="midnightblue" points="418.78,-24.32 427.82,-18.78 417.3,-17.47 418.78,-24.32"/>
</g>
<!-- Node5 -->
<g id="node5" class="node">
<title>Node5</title>
<g id="a_node5"><a xlink:href="../../d4/d4d/classMyBLAS_1_1Vector.html#a6188d71192e096e25ae1c1a46150a0ab" target="_top" xlink:title="Getter for the vector data.">
<polygon fill="white" stroke="black" points="577,-38.5 577,-57.5 716,-57.5 716,-38.5 577,-38.5"/>
<text text-anchor="middle" x="646.5" y="-45.5" font-family="Helvetica,sans-Serif" font-size="10.00">MyBLAS::Vector::getData</text>
</a>
</g>
</g>
<!-- Node4&#45;&gt;Node5 -->
<g id="edge4" class="edge">
<title>Node4&#45;&gt;Node5</title>
<path fill="none" stroke="midnightblue" d="M527.8,-48C540.15,-48 553.41,-48 566.43,-48"/>
<polygon fill="midnightblue" stroke="midnightblue" points="566.79,-51.5 576.79,-48 566.79,-44.5 566.79,-51.5"/>
</g>
<!-- Node7 -->
<g id="node7" class="node">
<title>Node7</title>
<g id="a_node7"><a xlink:href="../../de/d4d/namespaceMyMath.html#a5f2b6e445ba885637efd0db1a7708919" target="_top" xlink:title="A template specialization function to calculate the power of a __float128 base number.">
<polygon fill="white" stroke="black" points="605,-0.5 605,-19.5 688,-19.5 688,-0.5 605,-0.5"/>
<text text-anchor="middle" x="646.5" y="-7.5" font-family="Helvetica,sans-Serif" font-size="10.00">MyMath::pow</text>
</a>
</g>
</g>
<!-- Node6&#45;&gt;Node7 -->
<g id="edge6" class="edge">
<title>Node6&#45;&gt;Node7</title>
<path fill="none" stroke="midnightblue" d="M511.09,-10C535.96,-10 568.01,-10 594.57,-10"/>
<polygon fill="midnightblue" stroke="midnightblue" points="594.83,-13.5 604.83,-10 594.83,-6.5 594.83,-13.5"/>
</g>
</g>
</svg>
        <g id="navigator" transform="translate(0 0)" fill="#404254">
                <rect fill="#f2f5e9" fill-opacity="0.5" stroke="#606060" stroke-width=".5" x="0" y="0" width="60" height="60"/>
                <use id="zoomplus" xlink:href="#zoomPlus" x="17" y="9" onmousedown="handleZoom(evt,'in')"/>
                <use id="zoomminus" xlink:href="#zoomMin" x="42" y="9" onmousedown="handleZoom(evt,'out')"/>
                <use id="reset" xlink:href="#resetDef" x="30" y="36" onmousedown="handleReset()"/>
                <g id="arrowUp" xlink:href="#dirArrow" transform="translate(30 24)" onmousedown="handlePan(0,-1)">
                  <use xlink:href="#rim" fill="#404040">
                        <set attributeName="fill" to="#808080" begin="arrowUp.mouseover" end="arrowUp.mouseout"/>
                  </use>
                  <path fill="none" stroke="white" stroke-width="1.5" d="M0,-3.0v7 M-2.5,-0.5L0,-3.0L2.5,-0.5"/>
                </g>
                <g id="arrowRight" xlink:href="#dirArrow" transform="rotate(90) translate(36 -43)" onmousedown="handlePan(1,0)">
                  <use xlink:href="#rim" fill="#404040">
                        <set attributeName="fill" to="#808080" begin="arrowRight.mouseover" end="arrowRight.mouseout"/>
                  </use>
                  <path fill="none" stroke="white" stroke-width="1.5" d="M0,-3.0v7 M-2.5,-0.5L0,-3.0L2.5,-0.5"/>
                </g>
                <g id="arrowDown" xlink:href="#dirArrow" transform="rotate(180) translate(-30 -48)" onmousedown="handlePan(0,1)">
                  <use xlink:href="#rim" fill="#404040">
                        <set attributeName="fill" to="#808080" begin="arrowDown.mouseover" end="arrowDown.mouseout"/>
                  </use>
                  <path fill="none" stroke="white" stroke-width="1.5" d="M0,-3.0v7 M-2.5,-0.5L0,-3.0L2.5,-0.5"/>
                </g>
                <g id="arrowLeft" xlink:href="#dirArrow" transform="rotate(270) translate(-36 17)" onmousedown="handlePan(-1,0)">
                  <use xlink:href="#rim" fill="#404040">
                        <set attributeName="fill" to="#808080" begin="arrowLeft.mouseover" end="arrowLeft.mouseout"/>
                  </use>
                  <path fill="none" stroke="white" stroke-width="1.5" d="M0,-3.0v7 M-2.5,-0.5L0,-3.0L2.5,-0.5"/>
                </g>
        </g>
        <svg viewBox="0 0 15 15" width="100%" height="30px" preserveAspectRatio="xMaxYMin meet">
         <g id="arrow_out" transform="scale(0.3 0.3)">
          <a xlink:href="namespaceCompute_a89c7abd89e30a9e6279b5e53081b2661_cgraph_org.svg" target="_base">
           <rect id="button" ry="5" rx="5" y="6" x="6" height="38" width="38"
                fill="#f2f5e9" fill-opacity="0.5" stroke="#606060" stroke-width="1.0"/>
           <path id="arrow"
             d="M 11.500037,31.436501 C 11.940474,20.09759 22.043105,11.32322 32.158766,21.979434 L 37.068811,17.246167 C 37.068811,17.246167 37.088388,32 37.088388,32 L 22.160133,31.978069 C 22.160133,31.978069 26.997745,27.140456 26.997745,27.140456 C 18.528582,18.264221 13.291696,25.230495 11.500037,31.436501 z"
             style="fill:#404040;"/>
          </a>
         </g>
        </svg>
</svg>
