<?xml version="1.0" encoding="UTF-8" standalone="no"?>
<!DOCTYPE svg PUBLIC "-//W3C//DTD SVG 1.1//EN"
 "http://www.w3.org/Graphics/SVG/1.1/DTD/svg11.dtd">
<!-- Generated by graphviz version 2.43.0 (0)
 -->
<!-- Title: Compute::usingSOR Pages: 1 -->
<svg width="1371pt" height="637pt"
 viewBox="0.00 0.00 1371.00 636.71" xmlns="http://www.w3.org/2000/svg" xmlns:xlink="http://www.w3.org/1999/xlink">
<g id="graph0" class="graph" transform="scale(1 1) rotate(0) translate(4 632.71)">
<title>Compute::usingSOR</title>
<polygon fill="white" stroke="transparent" points="-4,4 -4,-632.71 1367,-632.71 1367,4 -4,4"/>
<!-- Node1 -->
<g id="node1" class="node">
<title>Node1</title>
<g id="a_node1"><a xlink:title="Solves a linear system using the Successive Over&#45;Relaxation (SOR) method.">
<polygon fill="#bfbfbf" stroke="black" points="0,-429.21 0,-448.21 113,-448.21 113,-429.21 0,-429.21"/>
<text text-anchor="middle" x="56.5" y="-436.21" font-family="Helvetica,sans-Serif" font-size="10.00">Compute::usingSOR</text>
</a>
</g>
</g>
<!-- Node2 -->
<g id="node2" class="node">
<title>Node2</title>
<g id="a_node2"><a xlink:href="../../d7/d9a/namespaceMyRelaxationMethod.html#a52bbc804a62498444281f3b3ac5c2c74" target="_top" xlink:title="This function applies the Successive Over&#45;Relaxation (SOR) method to solve a system of linear equatio...">
<polygon fill="white" stroke="black" points="528.5,-562.71 528.5,-592.71 649.5,-592.71 649.5,-562.71 528.5,-562.71"/>
<text text-anchor="start" x="536.5" y="-580.71" font-family="Helvetica,sans-Serif" font-size="10.00">MyRelaxationMethod</text>
<text text-anchor="middle" x="589" y="-569.71" font-family="Helvetica,sans-Serif" font-size="10.00">::applySOR</text>
</a>
</g>
</g>
<!-- Node1&#45;&gt;Node2 -->
<g id="edge1" class="edge">
<title>Node1&#45;&gt;Node2</title>
<path fill="none" stroke="midnightblue" d="M64.5,-448.41C78.32,-466.71 111.06,-506.06 149,-523.71 269.84,-579.93 428.61,-584.74 518.34,-582.01"/>
<polygon fill="midnightblue" stroke="midnightblue" points="518.53,-585.5 528.4,-581.66 518.28,-578.51 518.53,-585.5"/>
</g>
<!-- Node11 -->
<g id="node11" class="node">
<title>Node11</title>
<g id="a_node11"><a xlink:href="../../dd/d0e/classProfiler.html#a836e34177ff72ff8098386168b3cd690" target="_top" xlink:title="Gets the summary of the profiling.">
<polygon fill="white" stroke="black" points="162,-495.21 162,-514.21 282,-514.21 282,-495.21 162,-495.21"/>
<text text-anchor="middle" x="222" y="-502.21" font-family="Helvetica,sans-Serif" font-size="10.00">Profiler::getSummary</text>
</a>
</g>
</g>
<!-- Node1&#45;&gt;Node11 -->
<g id="edge14" class="edge">
<title>Node1&#45;&gt;Node11</title>
<path fill="none" stroke="midnightblue" d="M73.54,-448.3C91.43,-458.68 121.49,-475.16 149,-485.71 155.33,-488.14 162.08,-490.37 168.82,-492.38"/>
<polygon fill="midnightblue" stroke="midnightblue" points="168.06,-495.8 178.63,-495.16 169.97,-489.07 168.06,-495.8"/>
</g>
<!-- Node12 -->
<g id="node12" class="node">
<title>Node12</title>
<g id="a_node12"><a xlink:href="../../d4/d68/classMatrixVectorExpression.html#a287e889ca5383ed237f12c1dc12a9f93" target="_top" xlink:title=" ">
<polygon fill="white" stroke="black" points="156,-445.71 156,-475.71 288,-475.71 288,-445.71 156,-445.71"/>
<text text-anchor="start" x="164" y="-463.71" font-family="Helvetica,sans-Serif" font-size="10.00">MatrixVectorExpression</text>
<text text-anchor="middle" x="222" y="-452.71" font-family="Helvetica,sans-Serif" font-size="10.00">::multiplyMatrixVector</text>
</a>
</g>
</g>
<!-- Node1&#45;&gt;Node12 -->
<g id="edge15" class="edge">
<title>Node1&#45;&gt;Node12</title>
<path fill="none" stroke="midnightblue" d="M113.31,-446.22C123.79,-447.63 134.91,-449.13 145.87,-450.6"/>
<polygon fill="midnightblue" stroke="midnightblue" points="145.49,-454.08 155.86,-451.95 146.42,-447.14 145.49,-454.08"/>
</g>
<!-- Node13 -->
<g id="node13" class="node">
<title>Node13</title>
<g id="a_node13"><a xlink:href="../../d7/d9a/namespaceMyRelaxationMethod.html#a985bd80ba02c84e9d1ca2e434a32bd3f" target="_top" xlink:title="Function to perform pre&#45;checks on the coefficient matrix and the right&#45;hand side vector.">
<polygon fill="white" stroke="black" points="338.5,-442.71 338.5,-472.71 459.5,-472.71 459.5,-442.71 338.5,-442.71"/>
<text text-anchor="start" x="346.5" y="-460.71" font-family="Helvetica,sans-Serif" font-size="10.00">MyRelaxationMethod</text>
<text text-anchor="middle" x="399" y="-449.71" font-family="Helvetica,sans-Serif" font-size="10.00">::passesPreChecks</text>
</a>
</g>
</g>
<!-- Node1&#45;&gt;Node13 -->
<g id="edge16" class="edge">
<title>Node1&#45;&gt;Node13</title>
<path fill="none" stroke="midnightblue" d="M113.14,-437.3C124.98,-437.05 137.4,-436.84 149,-436.71 213.89,-436 230.44,-430.2 295,-436.71 305.84,-437.8 317.23,-439.53 328.32,-441.53"/>
<polygon fill="midnightblue" stroke="midnightblue" points="327.92,-445.02 338.4,-443.44 329.23,-438.14 327.92,-445.02"/>
</g>
<!-- Node20 -->
<g id="node20" class="node">
<title>Node20</title>
<g id="a_node20"><a xlink:href="../../dd/d0e/classProfiler.html#a3079911f79afc765205a92c66c971b65" target="_top" xlink:title="Runs the function for profiling and summarizes the results.">
<polygon fill="white" stroke="black" points="185.5,-334.21 185.5,-353.21 258.5,-353.21 258.5,-334.21 185.5,-334.21"/>
<text text-anchor="middle" x="222" y="-341.21" font-family="Helvetica,sans-Serif" font-size="10.00">Profiler::run</text>
</a>
</g>
</g>
<!-- Node1&#45;&gt;Node20 -->
<g id="edge27" class="edge">
<title>Node1&#45;&gt;Node20</title>
<path fill="none" stroke="midnightblue" d="M74.08,-429.08C102.72,-412.43 161.66,-378.19 195.53,-358.51"/>
<polygon fill="midnightblue" stroke="midnightblue" points="197.49,-361.42 204.38,-353.37 193.97,-355.37 197.49,-361.42"/>
</g>
<!-- Node32 -->
<g id="node32" class="node">
<title>Node32</title>
<g id="a_node32"><a xlink:href="../../d7/de4/FileParser_8h.html#a3dcefb9b5c6bf2d5e28ebe848b09cad5" target="_top" xlink:title=" ">
<polygon fill="white" stroke="black" points="149,-239.21 149,-258.21 295,-258.21 295,-239.21 149,-239.21"/>
<text text-anchor="middle" x="222" y="-246.21" font-family="Helvetica,sans-Serif" font-size="10.00">writeCSVMatrixNoHeaders</text>
</a>
</g>
</g>
<!-- Node1&#45;&gt;Node32 -->
<g id="edge52" class="edge">
<title>Node1&#45;&gt;Node32</title>
<path fill="none" stroke="midnightblue" d="M64.83,-429.04C80.04,-409.1 116.3,-362.19 149,-324.71 167.31,-303.72 189.51,-280.62 204.37,-265.46"/>
<polygon fill="midnightblue" stroke="midnightblue" points="206.89,-267.89 211.42,-258.31 201.91,-262.98 206.89,-267.89"/>
</g>
<!-- Node3 -->
<g id="node3" class="node">
<title>Node3</title>
<g id="a_node3"><a xlink:href="../../d2/d6e/namespaceMyBLAS.html#ac6dacb7fc104126e5fa62e02f0ec1446" target="_top" xlink:title=" ">
<polygon fill="white" stroke="black" points="756,-574.21 756,-593.21 830,-593.21 830,-574.21 756,-574.21"/>
<text text-anchor="middle" x="793" y="-581.21" font-family="Helvetica,sans-Serif" font-size="10.00">MyBLAS::L2</text>
</a>
</g>
</g>
<!-- Node2&#45;&gt;Node3 -->
<g id="edge2" class="edge">
<title>Node2&#45;&gt;Node3</title>
<path fill="none" stroke="midnightblue" d="M649.51,-579.48C680.19,-580.39 717.06,-581.48 745.6,-582.33"/>
<polygon fill="midnightblue" stroke="midnightblue" points="745.61,-585.83 755.71,-582.63 745.82,-578.84 745.61,-585.83"/>
</g>
<!-- Node5 -->
<g id="node5" class="node">
<title>Node5</title>
<g id="a_node5"><a xlink:href="../../de/d4d/namespaceMyMath.html#af3e9a9de7b922fdfb6e3d2988b1212ff" target="_top" xlink:title=" ">
<polygon fill="white" stroke="black" points="1087,-609.21 1087,-628.21 1170,-628.21 1170,-609.21 1087,-609.21"/>
<text text-anchor="middle" x="1128.5" y="-616.21" font-family="Helvetica,sans-Serif" font-size="10.00">MyMath::pow</text>
</a>
</g>
</g>
<!-- Node2&#45;&gt;Node5 -->
<g id="edge12" class="edge">
<title>Node2&#45;&gt;Node5</title>
<path fill="none" stroke="midnightblue" d="M649.75,-591.59C669.19,-595.69 690.93,-599.85 711,-602.71 841.77,-621.38 997.83,-621.56 1076.62,-620.12"/>
<polygon fill="midnightblue" stroke="midnightblue" points="1076.82,-623.62 1086.75,-619.92 1076.68,-616.62 1076.82,-623.62"/>
</g>
<!-- Node8 -->
<g id="node8" class="node">
<title>Node8</title>
<g id="a_node8"><a xlink:href="../../dd/df5/namespaceMyBLAS_1_1Stats.html#aaa0d2e3d22af2b7894169b7c90ba6146" target="_top" xlink:title="Function to find the sum of all elements in a vector.">
<polygon fill="white" stroke="black" points="1071,-296.21 1071,-315.21 1186,-315.21 1186,-296.21 1071,-296.21"/>
<text text-anchor="middle" x="1128.5" y="-303.21" font-family="Helvetica,sans-Serif" font-size="10.00">MyBLAS::Stats::sum</text>
</a>
</g>
</g>
<!-- Node2&#45;&gt;Node8 -->
<g id="edge13" class="edge">
<title>Node2&#45;&gt;Node8</title>
<path fill="none" stroke="midnightblue" d="M649.89,-570.78C769.1,-556.87 1025.38,-526.41 1033,-520.71 1098.03,-472.06 1119.08,-368.94 1125.21,-325.58"/>
<polygon fill="midnightblue" stroke="midnightblue" points="1128.71,-325.84 1126.52,-315.47 1121.77,-324.94 1128.71,-325.84"/>
</g>
<!-- Node10 -->
<g id="node10" class="node">
<title>Node10</title>
<g id="a_node10"><a xlink:href="../../dd/df5/namespaceMyBLAS_1_1Stats.html#a403bf760cf802cddf8dd73e5d3e46a05" target="_top" xlink:title="Function to find the maximum value in a vector.">
<polygon fill="white" stroke="black" points="735,-372.21 735,-391.21 851,-391.21 851,-372.21 735,-372.21"/>
<text text-anchor="middle" x="793" y="-379.21" font-family="Helvetica,sans-Serif" font-size="10.00">MyBLAS::Stats::max</text>
</a>
</g>
</g>
<!-- Node2&#45;&gt;Node10 -->
<g id="edge10" class="edge">
<title>Node2&#45;&gt;Node10</title>
<path fill="none" stroke="midnightblue" d="M649.86,-568.25C659.14,-564.61 667.97,-559.6 675,-552.71 712.94,-515.51 679.62,-481.59 711,-438.71 724.28,-420.56 745.13,-406.08 762.35,-396.26"/>
<polygon fill="midnightblue" stroke="midnightblue" points="764.37,-399.14 771.47,-391.28 761.02,-393 764.37,-399.14"/>
</g>
<!-- Node4 -->
<g id="node4" class="node">
<title>Node4</title>
<g id="a_node4"><a xlink:href="../../d2/d6e/namespaceMyBLAS.html#ac12a3b113ae6b7edd2fcb21280c0f804" target="_top" xlink:title=" ">
<polygon fill="white" stroke="black" points="927.5,-571.21 927.5,-590.21 1016.5,-590.21 1016.5,-571.21 927.5,-571.21"/>
<text text-anchor="middle" x="972" y="-578.21" font-family="Helvetica,sans-Serif" font-size="10.00">MyBLAS::norm</text>
</a>
</g>
</g>
<!-- Node3&#45;&gt;Node4 -->
<g id="edge3" class="edge">
<title>Node3&#45;&gt;Node4</title>
<path fill="none" stroke="midnightblue" d="M830.25,-583.1C855.29,-582.67 889.03,-582.1 917.19,-581.62"/>
<polygon fill="midnightblue" stroke="midnightblue" points="917.35,-585.12 927.29,-581.45 917.23,-578.12 917.35,-585.12"/>
</g>
<!-- Node3&#45;&gt;Node5 -->
<g id="edge9" class="edge">
<title>Node3&#45;&gt;Node5</title>
<path fill="none" stroke="midnightblue" d="M830.05,-589.1C853.15,-592.44 883.8,-596.66 911,-599.71 967.58,-606.06 1032.68,-611.52 1076.6,-614.94"/>
<polygon fill="midnightblue" stroke="midnightblue" points="1076.5,-618.44 1086.74,-615.72 1077.04,-611.47 1076.5,-618.44"/>
</g>
<!-- Node4&#45;&gt;Node5 -->
<g id="edge4" class="edge">
<title>Node4&#45;&gt;Node5</title>
<path fill="none" stroke="midnightblue" d="M1011.99,-590.3C1032.28,-595.29 1057.29,-601.44 1078.85,-606.74"/>
<polygon fill="midnightblue" stroke="midnightblue" points="1078.25,-610.2 1088.79,-609.19 1079.92,-603.4 1078.25,-610.2"/>
</g>
<!-- Node7 -->
<g id="node7" class="node">
<title>Node7</title>
<g id="a_node7"><a xlink:href="../../d4/d4d/classMyBLAS_1_1Vector.html#aae30f8178e4a34d332317c61e77c147a" target="_top" xlink:title="Getter for the size of the vector.">
<polygon fill="white" stroke="black" points="1069,-531.21 1069,-550.21 1188,-550.21 1188,-531.21 1069,-531.21"/>
<text text-anchor="middle" x="1128.5" y="-538.21" font-family="Helvetica,sans-Serif" font-size="10.00">MyBLAS::Vector::size</text>
</a>
</g>
</g>
<!-- Node4&#45;&gt;Node7 -->
<g id="edge6" class="edge">
<title>Node4&#45;&gt;Node7</title>
<path fill="none" stroke="midnightblue" d="M1010.01,-571.13C1031.31,-565.61 1058.29,-558.63 1081.02,-552.74"/>
<polygon fill="midnightblue" stroke="midnightblue" points="1081.99,-556.11 1090.8,-550.21 1080.24,-549.33 1081.99,-556.11"/>
</g>
<!-- Node4&#45;&gt;Node8 -->
<g id="edge7" class="edge">
<title>Node4&#45;&gt;Node8</title>
<path fill="none" stroke="midnightblue" d="M1010.8,-571.1C1018.91,-567.63 1026.88,-562.96 1033,-556.71 1098.93,-489.42 1119.67,-371.72 1125.47,-325.32"/>
<polygon fill="midnightblue" stroke="midnightblue" points="1128.95,-325.69 1126.62,-315.36 1122,-324.89 1128.95,-325.69"/>
</g>
<!-- Node6 -->
<g id="node6" class="node">
<title>Node6</title>
<g id="a_node6"><a xlink:href="../../de/d4d/namespaceMyMath.html#a5f2b6e445ba885637efd0db1a7708919" target="_top" xlink:title=" ">
<polygon fill="white" stroke="black" points="1252,-609.21 1252,-628.21 1335,-628.21 1335,-609.21 1252,-609.21"/>
<text text-anchor="middle" x="1293.5" y="-616.21" font-family="Helvetica,sans-Serif" font-size="10.00">MyMath::pow</text>
</a>
</g>
</g>
<!-- Node5&#45;&gt;Node6 -->
<g id="edge5" class="edge">
<title>Node5&#45;&gt;Node6</title>
<path fill="none" stroke="midnightblue" d="M1170.21,-618.71C1191.8,-618.71 1218.53,-618.71 1241.49,-618.71"/>
<polygon fill="midnightblue" stroke="midnightblue" points="1241.74,-622.21 1251.74,-618.71 1241.74,-615.21 1241.74,-622.21"/>
</g>
<!-- Node9 -->
<g id="node9" class="node">
<title>Node9</title>
<g id="a_node9"><a xlink:href="../../d4/d4d/classMyBLAS_1_1Vector.html#a6188d71192e096e25ae1c1a46150a0ab" target="_top" xlink:title="Getter for the vector data.">
<polygon fill="white" stroke="black" points="1224,-182.21 1224,-201.21 1363,-201.21 1363,-182.21 1224,-182.21"/>
<text text-anchor="middle" x="1293.5" y="-189.21" font-family="Helvetica,sans-Serif" font-size="10.00">MyBLAS::Vector::getData</text>
</a>
</g>
</g>
<!-- Node8&#45;&gt;Node9 -->
<g id="edge8" class="edge">
<title>Node8&#45;&gt;Node9</title>
<path fill="none" stroke="midnightblue" d="M1143.12,-296.19C1171.21,-276.54 1235.84,-231.34 1270.15,-207.34"/>
<polygon fill="midnightblue" stroke="midnightblue" points="1272.39,-210.05 1278.58,-201.45 1268.38,-204.31 1272.39,-210.05"/>
</g>
<!-- Node10&#45;&gt;Node9 -->
<g id="edge11" class="edge">
<title>Node10&#45;&gt;Node9</title>
<path fill="none" stroke="midnightblue" d="M851.1,-386.18C931.78,-389.81 1081.2,-386.46 1188,-324.71 1234.84,-297.62 1268.4,-240.62 1283.52,-210.8"/>
<polygon fill="midnightblue" stroke="midnightblue" points="1286.83,-212 1288.09,-201.48 1280.54,-208.92 1286.83,-212"/>
</g>
<!-- Node14 -->
<g id="node14" class="node">
<title>Node14</title>
<g id="a_node14"><a xlink:href="../../d2/d6e/namespaceMyBLAS.html#a4ae8cb61e3457065790607979b939564" target="_top" xlink:title="Checks if the given matrix is diagonally dominant.">
<polygon fill="white" stroke="black" points="503,-410.21 503,-429.21 675,-429.21 675,-410.21 503,-410.21"/>
<text text-anchor="middle" x="589" y="-417.21" font-family="Helvetica,sans-Serif" font-size="10.00">MyBLAS::isDiagonallyDominant</text>
</a>
</g>
</g>
<!-- Node13&#45;&gt;Node14 -->
<g id="edge17" class="edge">
<title>Node13&#45;&gt;Node14</title>
<path fill="none" stroke="midnightblue" d="M459.74,-445.63C482.49,-441.04 508.34,-435.81 530.85,-431.26"/>
<polygon fill="midnightblue" stroke="midnightblue" points="531.82,-434.64 540.93,-429.22 530.43,-427.78 531.82,-434.64"/>
</g>
<!-- Node16 -->
<g id="node16" class="node">
<title>Node16</title>
<g id="a_node16"><a xlink:href="../../d2/d6e/namespaceMyBLAS.html#a0b887e323f8337bd87ef20dff8af5c1f" target="_top" xlink:title="Checks if the given matrix is a square matrix.">
<polygon fill="white" stroke="black" points="724.5,-448.21 724.5,-467.21 861.5,-467.21 861.5,-448.21 724.5,-448.21"/>
<text text-anchor="middle" x="793" y="-455.21" font-family="Helvetica,sans-Serif" font-size="10.00">MyBLAS::isSquareMatrix</text>
</a>
</g>
</g>
<!-- Node13&#45;&gt;Node16 -->
<g id="edge23" class="edge">
<title>Node13&#45;&gt;Node16</title>
<path fill="none" stroke="midnightblue" d="M459.54,-457.71C527.55,-457.71 639.09,-457.71 714,-457.71"/>
<polygon fill="midnightblue" stroke="midnightblue" points="714.32,-461.21 724.32,-457.71 714.32,-454.21 714.32,-461.21"/>
</g>
<!-- Node17 -->
<g id="node17" class="node">
<title>Node17</title>
<g id="a_node17"><a xlink:href="../../d2/d6e/namespaceMyBLAS.html#a1f0325293f4b4969ac4a450ba3db1f87" target="_top" xlink:title="Checks if the given matrix is empty.">
<polygon fill="white" stroke="black" points="522,-486.21 522,-505.21 656,-505.21 656,-486.21 522,-486.21"/>
<text text-anchor="middle" x="589" y="-493.21" font-family="Helvetica,sans-Serif" font-size="10.00">MyBLAS::isEmptyMatrix</text>
</a>
</g>
</g>
<!-- Node13&#45;&gt;Node17 -->
<g id="edge22" class="edge">
<title>Node13&#45;&gt;Node17</title>
<path fill="none" stroke="midnightblue" d="M459.74,-469.79C482.49,-474.38 508.34,-479.61 530.85,-484.16"/>
<polygon fill="midnightblue" stroke="midnightblue" points="530.43,-487.65 540.93,-486.2 531.82,-480.78 530.43,-487.65"/>
</g>
<!-- Node18 -->
<g id="node18" class="node">
<title>Node18</title>
<g id="a_node18"><a xlink:href="../../d2/d6e/namespaceMyBLAS.html#a56e77d4aef50489830f5ce0ef7bcf7a4" target="_top" xlink:title="Checks if there are no zeros in the diagonal of a matrix.">
<polygon fill="white" stroke="black" points="511.5,-524.21 511.5,-543.21 666.5,-543.21 666.5,-524.21 511.5,-524.21"/>
<text text-anchor="middle" x="589" y="-531.21" font-family="Helvetica,sans-Serif" font-size="10.00">MyBLAS::noZerosInDiagonal</text>
</a>
</g>
</g>
<!-- Node13&#45;&gt;Node18 -->
<g id="edge24" class="edge">
<title>Node13&#45;&gt;Node18</title>
<path fill="none" stroke="midnightblue" d="M422.81,-472.83C443.09,-485.66 473.96,-503.69 503,-514.71 509.8,-517.29 517.05,-519.57 524.34,-521.58"/>
<polygon fill="midnightblue" stroke="midnightblue" points="523.71,-525.03 534.26,-524.14 525.46,-518.25 523.71,-525.03"/>
</g>
<!-- Node14&#45;&gt;Node8 -->
<g id="edge21" class="edge">
<title>Node14&#45;&gt;Node8</title>
<path fill="none" stroke="midnightblue" d="M652.88,-410.14C660.59,-407.68 668.16,-404.59 675,-400.71 695.23,-389.23 690.29,-373.3 711,-362.71 839.56,-296.99 890.03,-339.85 1033,-319.71 1041.99,-318.44 1051.45,-317.08 1060.77,-315.72"/>
<polygon fill="midnightblue" stroke="midnightblue" points="1061.42,-319.16 1070.8,-314.24 1060.4,-312.23 1061.42,-319.16"/>
</g>
<!-- Node15 -->
<g id="node15" class="node">
<title>Node15</title>
<g id="a_node15"><a xlink:href="../../dd/df5/namespaceMyBLAS_1_1Stats.html#afeaf3b7bba0ff1b952b35d0effc0bca9" target="_top" xlink:title="Function to find the absolute value of each element in a vector.">
<polygon fill="white" stroke="black" points="916.5,-492.21 916.5,-511.21 1027.5,-511.21 1027.5,-492.21 916.5,-492.21"/>
<text text-anchor="middle" x="972" y="-499.21" font-family="Helvetica,sans-Serif" font-size="10.00">MyBLAS::Stats::abs</text>
</a>
</g>
</g>
<!-- Node14&#45;&gt;Node15 -->
<g id="edge18" class="edge">
<title>Node14&#45;&gt;Node15</title>
<path fill="none" stroke="midnightblue" d="M675.11,-414.21C732.93,-413.15 810.36,-417.02 875,-438.71 904.72,-448.68 934.16,-470.18 952.44,-485.27"/>
<polygon fill="midnightblue" stroke="midnightblue" points="950.58,-488.29 960.47,-492.09 955.11,-482.95 950.58,-488.29"/>
</g>
<!-- Node14&#45;&gt;Node16 -->
<g id="edge20" class="edge">
<title>Node14&#45;&gt;Node16</title>
<path fill="none" stroke="midnightblue" d="M640.71,-429.25C668.21,-434.42 702.38,-440.85 731.28,-446.29"/>
<polygon fill="midnightblue" stroke="midnightblue" points="730.79,-449.76 741.27,-448.17 732.09,-442.88 730.79,-449.76"/>
</g>
<!-- Node15&#45;&gt;Node7 -->
<g id="edge19" class="edge">
<title>Node15&#45;&gt;Node7</title>
<path fill="none" stroke="midnightblue" d="M1010.79,-511.25C1031.63,-516.51 1057.71,-523.09 1079.93,-528.7"/>
<polygon fill="midnightblue" stroke="midnightblue" points="1079.28,-532.15 1089.83,-531.2 1080.99,-525.36 1079.28,-532.15"/>
</g>
<!-- Node19 -->
<g id="node19" class="node">
<title>Node19</title>
<g id="a_node19"><a xlink:href="../../d2/d6e/namespaceMyBLAS.html#a6b103aca5e5fab29f3d0954b77946dc0" target="_top" xlink:title="Checks if all diagonal elements of a matrix are below a certain threshold.">
<polygon fill="white" stroke="black" points="711,-486.71 711,-516.71 875,-516.71 875,-486.71 711,-486.71"/>
<text text-anchor="start" x="719" y="-504.71" font-family="Helvetica,sans-Serif" font-size="10.00">MyBLAS::allDiagonalElements</text>
<text text-anchor="middle" x="793" y="-493.71" font-family="Helvetica,sans-Serif" font-size="10.00">BelowThreshold</text>
</a>
</g>
</g>
<!-- Node18&#45;&gt;Node19 -->
<g id="edge25" class="edge">
<title>Node18&#45;&gt;Node19</title>
<path fill="none" stroke="midnightblue" d="M650.06,-524.2C666,-521.67 683.59,-518.88 700.79,-516.16"/>
<polygon fill="midnightblue" stroke="midnightblue" points="701.52,-519.59 710.85,-514.57 700.43,-512.67 701.52,-519.59"/>
</g>
<!-- Node19&#45;&gt;Node15 -->
<g id="edge26" class="edge">
<title>Node19&#45;&gt;Node15</title>
<path fill="none" stroke="midnightblue" d="M875.25,-501.71C885.57,-501.71 896.02,-501.71 906.04,-501.71"/>
<polygon fill="midnightblue" stroke="midnightblue" points="906.3,-505.21 916.3,-501.71 906.3,-498.21 906.3,-505.21"/>
</g>
<!-- Node21 -->
<g id="node21" class="node">
<title>Node21</title>
<g id="a_node21"><a xlink:href="../../dd/d0e/classProfiler.html#a64306917107f0c655a74b908add86a4d" target="_top" xlink:title="Resets the runs for profiling.">
<polygon fill="white" stroke="black" points="346,-201.21 346,-220.21 452,-220.21 452,-201.21 346,-201.21"/>
<text text-anchor="middle" x="399" y="-208.21" font-family="Helvetica,sans-Serif" font-size="10.00">Profiler::resetRuns</text>
</a>
</g>
</g>
<!-- Node20&#45;&gt;Node21 -->
<g id="edge28" class="edge">
<title>Node20&#45;&gt;Node21</title>
<path fill="none" stroke="midnightblue" d="M232.2,-334C258.29,-306.44 330.9,-229.77 331,-229.71 334.61,-227.53 338.47,-225.58 342.47,-223.86"/>
<polygon fill="midnightblue" stroke="midnightblue" points="343.86,-227.08 351.93,-220.22 341.34,-220.54 343.86,-227.08"/>
</g>
<!-- Node22 -->
<g id="node22" class="node">
<title>Node22</title>
<g id="a_node22"><a xlink:href="../../dd/d0e/classProfiler.html#ae0e3d2665f540a740a52e200d0ad4f55" target="_top" xlink:title="Runs the function for profiling without a timeout.">
<polygon fill="white" stroke="black" points="335.5,-334.21 335.5,-353.21 462.5,-353.21 462.5,-334.21 335.5,-334.21"/>
<text text-anchor="middle" x="399" y="-341.21" font-family="Helvetica,sans-Serif" font-size="10.00">Profiler::runNoTimeout</text>
</a>
</g>
</g>
<!-- Node20&#45;&gt;Node22 -->
<g id="edge29" class="edge">
<title>Node20&#45;&gt;Node22</title>
<path fill="none" stroke="midnightblue" d="M258.84,-343.71C278,-343.71 302.31,-343.71 325.24,-343.71"/>
<polygon fill="midnightblue" stroke="midnightblue" points="325.3,-347.21 335.3,-343.71 325.3,-340.21 325.3,-347.21"/>
</g>
<!-- Node24 -->
<g id="node24" class="node">
<title>Node24</title>
<g id="a_node24"><a xlink:href="../../dd/d0e/classProfiler.html#ae09ec3b3f15ee1c9ae09630d8ca6dfd4" target="_top" xlink:title="Runs the function for profiling with a timeout.">
<polygon fill="white" stroke="black" points="331,-372.21 331,-391.21 467,-391.21 467,-372.21 331,-372.21"/>
<text text-anchor="middle" x="399" y="-379.21" font-family="Helvetica,sans-Serif" font-size="10.00">Profiler::runWithTimeout</text>
</a>
</g>
</g>
<!-- Node20&#45;&gt;Node24 -->
<g id="edge31" class="edge">
<title>Node20&#45;&gt;Node24</title>
<path fill="none" stroke="midnightblue" d="M258.84,-351.49C283.42,-356.83 316.47,-364.01 344.2,-370.03"/>
<polygon fill="midnightblue" stroke="midnightblue" points="343.63,-373.49 354.15,-372.19 345.12,-366.65 343.63,-373.49"/>
</g>
<!-- Node25 -->
<g id="node25" class="node">
<title>Node25</title>
<g id="a_node25"><a xlink:href="../../dd/d0e/classProfiler.html#a95b1ecdcfc06dedbd33127208aaceec6" target="_top" xlink:title="Summarizes the results of the profiling.">
<polygon fill="white" stroke="black" points="343,-239.21 343,-258.21 455,-258.21 455,-239.21 343,-239.21"/>
<text text-anchor="middle" x="399" y="-246.21" font-family="Helvetica,sans-Serif" font-size="10.00">Profiler::summarize</text>
</a>
</g>
</g>
<!-- Node20&#45;&gt;Node25 -->
<g id="edge33" class="edge">
<title>Node20&#45;&gt;Node25</title>
<path fill="none" stroke="midnightblue" d="M240.74,-334.08C271.61,-317.32 335.35,-282.72 371.49,-263.1"/>
<polygon fill="midnightblue" stroke="midnightblue" points="373.35,-266.07 380.47,-258.23 370.01,-259.92 373.35,-266.07"/>
</g>
<!-- Node23 -->
<g id="node23" class="node">
<title>Node23</title>
<g id="a_node23"><a xlink:href="../../de/def/classStopwatch.html#a2cc3c2b39972ca34f3ff9622471b1bbb" target="_top" xlink:title="Restart the stopwatch by setting the initial and clicked time points to the current time.">
<polygon fill="white" stroke="black" points="536,-372.21 536,-391.21 642,-391.21 642,-372.21 536,-372.21"/>
<text text-anchor="middle" x="589" y="-379.21" font-family="Helvetica,sans-Serif" font-size="10.00">Stopwatch::restart</text>
</a>
</g>
</g>
<!-- Node22&#45;&gt;Node23 -->
<g id="edge30" class="edge">
<title>Node22&#45;&gt;Node23</title>
<path fill="none" stroke="midnightblue" d="M447.44,-353.3C472.81,-358.43 504.23,-364.78 530.92,-370.17"/>
<polygon fill="midnightblue" stroke="midnightblue" points="530.41,-373.64 540.9,-372.19 531.79,-366.78 530.41,-373.64"/>
</g>
<!-- Node24&#45;&gt;Node23 -->
<g id="edge32" class="edge">
<title>Node24&#45;&gt;Node23</title>
<path fill="none" stroke="midnightblue" d="M467.08,-381.71C486.12,-381.71 506.77,-381.71 525.52,-381.71"/>
<polygon fill="midnightblue" stroke="midnightblue" points="525.73,-385.21 535.73,-381.71 525.73,-378.21 525.73,-385.21"/>
</g>
<!-- Node25&#45;&gt;Node8 -->
<g id="edge50" class="edge">
<title>Node25&#45;&gt;Node8</title>
<path fill="none" stroke="midnightblue" d="M423.68,-258.33C444.26,-266.2 475.08,-276.79 503,-281.71 703.71,-317.04 946.08,-313.45 1060.93,-309.03"/>
<polygon fill="midnightblue" stroke="midnightblue" points="1061.13,-312.52 1070.98,-308.62 1060.85,-305.53 1061.13,-312.52"/>
</g>
<!-- Node25&#45;&gt;Node9 -->
<g id="edge34" class="edge">
<title>Node25&#45;&gt;Node9</title>
<path fill="none" stroke="midnightblue" d="M455.06,-246.87C510.59,-244.93 598.77,-241.61 675,-237.71 903.14,-226.03 960.65,-228 1188,-205.71 1197.33,-204.8 1207.11,-203.69 1216.78,-202.5"/>
<polygon fill="midnightblue" stroke="midnightblue" points="1217.32,-205.96 1226.8,-201.23 1216.44,-199.01 1217.32,-205.96"/>
</g>
<!-- Node25&#45;&gt;Node10 -->
<g id="edge35" class="edge">
<title>Node25&#45;&gt;Node10</title>
<path fill="none" stroke="midnightblue" d="M410.86,-258.39C428.75,-273.8 466.11,-303.79 503,-319.71 542.2,-336.63 652.57,-357.75 725.01,-370.46"/>
<polygon fill="midnightblue" stroke="midnightblue" points="724.51,-373.93 734.97,-372.2 725.72,-367.03 724.51,-373.93"/>
</g>
<!-- Node26 -->
<g id="node26" class="node">
<title>Node26</title>
<g id="a_node26"><a xlink:href="../../dd/df5/namespaceMyBLAS_1_1Stats.html#a2d013f32ad1d6111d5d3e155758efa20" target="_top" xlink:title="Function to find the mean value of a vector.">
<polygon fill="white" stroke="black" points="911,-144.21 911,-163.21 1033,-163.21 1033,-144.21 911,-144.21"/>
<text text-anchor="middle" x="972" y="-151.21" font-family="Helvetica,sans-Serif" font-size="10.00">MyBLAS::Stats::mean</text>
</a>
</g>
</g>
<!-- Node25&#45;&gt;Node26 -->
<g id="edge36" class="edge">
<title>Node25&#45;&gt;Node26</title>
<path fill="none" stroke="midnightblue" d="M449.55,-239.19C455.77,-236.72 461.77,-233.62 467,-229.71 491,-211.77 477.06,-187.7 503,-172.71 568.69,-134.74 787.31,-142.03 900.98,-148.77"/>
<polygon fill="midnightblue" stroke="midnightblue" points="900.79,-152.27 910.98,-149.38 901.21,-145.28 900.79,-152.27"/>
</g>
<!-- Node27 -->
<g id="node27" class="node">
<title>Node27</title>
<g id="a_node27"><a xlink:href="../../dd/df5/namespaceMyBLAS_1_1Stats.html#a512692b79052b1a09c77917c9fb1e99c" target="_top" xlink:title="Function to find the median of a vector.">
<polygon fill="white" stroke="black" points="523.5,-68.21 523.5,-87.21 654.5,-87.21 654.5,-68.21 523.5,-68.21"/>
<text text-anchor="middle" x="589" y="-75.21" font-family="Helvetica,sans-Serif" font-size="10.00">MyBLAS::Stats::median</text>
</a>
</g>
</g>
<!-- Node25&#45;&gt;Node27 -->
<g id="edge39" class="edge">
<title>Node25&#45;&gt;Node27</title>
<path fill="none" stroke="midnightblue" d="M453.68,-239.11C458.59,-236.65 463.16,-233.56 467,-229.71 508.74,-187.88 461.23,-143.52 503,-101.71 506.93,-97.78 511.45,-94.48 516.31,-91.71"/>
<polygon fill="midnightblue" stroke="midnightblue" points="517.94,-94.81 525.39,-87.28 514.87,-88.52 517.94,-94.81"/>
</g>
<!-- Node28 -->
<g id="node28" class="node">
<title>Node28</title>
<g id="a_node28"><a xlink:href="../../dd/df5/namespaceMyBLAS_1_1Stats.html#a0d09c8d47fe666f1492b6a654c1281a0" target="_top" xlink:title="Function to find the p&#45;th percentile of a vector.">
<polygon fill="white" stroke="black" points="721.5,-106.21 721.5,-125.21 864.5,-125.21 864.5,-106.21 721.5,-106.21"/>
<text text-anchor="middle" x="793" y="-113.21" font-family="Helvetica,sans-Serif" font-size="10.00">MyBLAS::Stats::percentile</text>
</a>
</g>
</g>
<!-- Node25&#45;&gt;Node28 -->
<g id="edge44" class="edge">
<title>Node25&#45;&gt;Node28</title>
<path fill="none" stroke="midnightblue" d="M452.28,-239.16C457.64,-236.69 462.69,-233.59 467,-229.71 499.01,-200.87 468.36,-165.32 503,-139.71 571.26,-89.25 674.98,-94.85 737.83,-104.55"/>
<polygon fill="midnightblue" stroke="midnightblue" points="737.5,-108.04 747.93,-106.2 738.63,-101.13 737.5,-108.04"/>
</g>
<!-- Node29 -->
<g id="node29" class="node">
<title>Node29</title>
<g id="a_node29"><a xlink:href="../../dd/df5/namespaceMyBLAS_1_1Stats.html#ac06efe71c44675ea021ddeb404d730dc" target="_top" xlink:title="Function to find the minimum value in a vector.">
<polygon fill="white" stroke="black" points="915.5,-49.21 915.5,-68.21 1028.5,-68.21 1028.5,-49.21 915.5,-49.21"/>
<text text-anchor="middle" x="972" y="-56.21" font-family="Helvetica,sans-Serif" font-size="10.00">MyBLAS::Stats::min</text>
</a>
</g>
</g>
<!-- Node25&#45;&gt;Node29 -->
<g id="edge42" class="edge">
<title>Node25&#45;&gt;Node29</title>
<path fill="none" stroke="midnightblue" d="M454.27,-239.2C459.01,-236.71 463.37,-233.6 467,-229.71 520,-172.93 442.69,-107.65 503,-58.71 631.68,45.7 852.38,-16.26 936.8,-45.77"/>
<polygon fill="midnightblue" stroke="midnightblue" points="935.81,-49.13 946.4,-49.19 938.16,-42.53 935.81,-49.13"/>
</g>
<!-- Node30 -->
<g id="node30" class="node">
<title>Node30</title>
<g id="a_node30"><a xlink:href="../../dd/df5/namespaceMyBLAS_1_1Stats.html#a40e2fbe322f90c6e21d2a7727ab36076" target="_top" xlink:title="Function to find the standard deviation of a vector.">
<polygon fill="white" stroke="black" points="534.5,-182.21 534.5,-201.21 643.5,-201.21 643.5,-182.21 534.5,-182.21"/>
<text text-anchor="middle" x="589" y="-189.21" font-family="Helvetica,sans-Serif" font-size="10.00">MyBLAS::Stats::std</text>
</a>
</g>
</g>
<!-- Node25&#45;&gt;Node30 -->
<g id="edge45" class="edge">
<title>Node25&#45;&gt;Node30</title>
<path fill="none" stroke="midnightblue" d="M436.01,-239.17C446.09,-236.32 457.03,-233.05 467,-229.71 483.28,-224.25 486.72,-221.16 503,-215.71 515.39,-211.56 528.95,-207.52 541.53,-203.96"/>
<polygon fill="midnightblue" stroke="midnightblue" points="542.67,-207.28 551.37,-201.23 540.79,-200.54 542.67,-207.28"/>
</g>
<!-- Node31 -->
<g id="node31" class="node">
<title>Node31</title>
<g id="a_node31"><a xlink:href="../../dd/df5/namespaceMyBLAS_1_1Stats.html#a92ae9af47614e45733834f28aeb48cce" target="_top" xlink:title="Function to find the variance of a vector.">
<polygon fill="white" stroke="black" points="725,-182.21 725,-201.21 861,-201.21 861,-182.21 725,-182.21"/>
<text text-anchor="middle" x="793" y="-189.21" font-family="Helvetica,sans-Serif" font-size="10.00">MyBLAS::Stats::variance</text>
</a>
</g>
</g>
<!-- Node25&#45;&gt;Node31 -->
<g id="edge51" class="edge">
<title>Node25&#45;&gt;Node31</title>
<path fill="none" stroke="midnightblue" d="M455.1,-241.49C510.66,-234.11 598.86,-222.15 675,-210.71 691.18,-208.28 708.59,-205.53 724.91,-202.88"/>
<polygon fill="midnightblue" stroke="midnightblue" points="725.6,-206.32 734.91,-201.26 724.48,-199.41 725.6,-206.32"/>
</g>
<!-- Node26&#45;&gt;Node8 -->
<g id="edge38" class="edge">
<title>Node26&#45;&gt;Node8</title>
<path fill="none" stroke="midnightblue" d="M982.66,-163.22C1008.24,-188.38 1077.96,-256.98 1110.44,-288.92"/>
<polygon fill="midnightblue" stroke="midnightblue" points="1108.26,-291.69 1117.84,-296.21 1113.17,-286.7 1108.26,-291.69"/>
</g>
<!-- Node26&#45;&gt;Node9 -->
<g id="edge37" class="edge">
<title>Node26&#45;&gt;Node9</title>
<path fill="none" stroke="midnightblue" d="M1033.28,-160.08C1076.4,-164.72 1135.81,-171.3 1188,-177.71 1196.36,-178.74 1205.09,-179.85 1213.78,-180.98"/>
<polygon fill="midnightblue" stroke="midnightblue" points="1213.58,-184.48 1223.95,-182.31 1214.49,-177.54 1213.58,-184.48"/>
</g>
<!-- Node27&#45;&gt;Node28 -->
<g id="edge40" class="edge">
<title>Node27&#45;&gt;Node28</title>
<path fill="none" stroke="midnightblue" d="M640.71,-87.25C668.21,-92.42 702.38,-98.85 731.28,-104.29"/>
<polygon fill="midnightblue" stroke="midnightblue" points="730.79,-107.76 741.27,-106.17 732.09,-100.88 730.79,-107.76"/>
</g>
<!-- Node28&#45;&gt;Node9 -->
<g id="edge41" class="edge">
<title>Node28&#45;&gt;Node9</title>
<path fill="none" stroke="midnightblue" d="M864.56,-118.94C944.04,-123.68 1076.65,-134.96 1188,-160.71 1210.14,-165.83 1234.5,-172.97 1254.12,-179.1"/>
<polygon fill="midnightblue" stroke="midnightblue" points="1253.33,-182.52 1263.92,-182.2 1255.44,-175.85 1253.33,-182.52"/>
</g>
<!-- Node29&#45;&gt;Node9 -->
<g id="edge43" class="edge">
<title>Node29&#45;&gt;Node9</title>
<path fill="none" stroke="midnightblue" d="M1028.94,-62.06C1073.86,-66.55 1137.55,-77.08 1188,-101.71 1224.69,-119.62 1258.86,-153.6 1277.6,-174.29"/>
<polygon fill="midnightblue" stroke="midnightblue" points="1275.18,-176.85 1284.43,-182.02 1280.42,-172.21 1275.18,-176.85"/>
</g>
<!-- Node30&#45;&gt;Node31 -->
<g id="edge46" class="edge">
<title>Node30&#45;&gt;Node31</title>
<path fill="none" stroke="midnightblue" d="M643.6,-191.71C665.39,-191.71 690.97,-191.71 714.71,-191.71"/>
<polygon fill="midnightblue" stroke="midnightblue" points="714.75,-195.21 724.75,-191.71 714.75,-188.21 714.75,-195.21"/>
</g>
<!-- Node31&#45;&gt;Node8 -->
<g id="edge49" class="edge">
<title>Node31&#45;&gt;Node8</title>
<path fill="none" stroke="midnightblue" d="M821.86,-201.23C881.57,-221.64 1021.94,-269.63 1089.65,-292.77"/>
<polygon fill="midnightblue" stroke="midnightblue" points="1088.89,-296.21 1099.48,-296.13 1091.15,-289.59 1088.89,-296.21"/>
</g>
<!-- Node31&#45;&gt;Node9 -->
<g id="edge47" class="edge">
<title>Node31&#45;&gt;Node9</title>
<path fill="none" stroke="midnightblue" d="M861.23,-191.71C952.86,-191.71 1116.67,-191.71 1213.88,-191.71"/>
<polygon fill="midnightblue" stroke="midnightblue" points="1213.94,-195.21 1223.94,-191.71 1213.94,-188.21 1213.94,-195.21"/>
</g>
<!-- Node31&#45;&gt;Node26 -->
<g id="edge48" class="edge">
<title>Node31&#45;&gt;Node26</title>
<path fill="none" stroke="midnightblue" d="M838.66,-182.12C862.34,-177.04 891.61,-170.75 916.6,-165.39"/>
<polygon fill="midnightblue" stroke="midnightblue" points="917.61,-168.75 926.66,-163.23 916.14,-161.91 917.61,-168.75"/>
</g>
<!-- Node33 -->
<g id="node33" class="node">
<title>Node33</title>
<g id="a_node33"><a xlink:href="../../d7/de4/FileParser_8h.html#a784eb9bb658a54b0577db5cc2d73acae" target="_top" xlink:title="Checks if a file is writable.">
<polygon fill="white" stroke="black" points="357.5,-163.21 357.5,-182.21 440.5,-182.21 440.5,-163.21 357.5,-163.21"/>
<text text-anchor="middle" x="399" y="-170.21" font-family="Helvetica,sans-Serif" font-size="10.00">isFileWritable</text>
</a>
</g>
</g>
<!-- Node32&#45;&gt;Node33 -->
<g id="edge53" class="edge">
<title>Node32&#45;&gt;Node33</title>
<path fill="none" stroke="midnightblue" d="M238.6,-239.13C259.17,-226.83 296.75,-205.43 331,-191.71 336.82,-189.38 343.03,-187.21 349.23,-185.24"/>
<polygon fill="midnightblue" stroke="midnightblue" points="350.36,-188.56 358.92,-182.31 348.33,-181.86 350.36,-188.56"/>
</g>
</g>
</svg>
