<?xml version="1.0" encoding="UTF-8" standalone="no"?>
<!DOCTYPE svg PUBLIC "-//W3C//DTD SVG 1.1//EN"
 "http://www.w3.org/Graphics/SVG/1.1/DTD/svg11.dtd">
<!-- Generated by graphviz version 2.43.0 (0)
 -->
<!-- Title: Compute::usingGaussSeidel Pages: 1 -->
<svg width="1056pt" height="205pt"
 viewBox="0.00 0.00 1056.00 205.00" xmlns="http://www.w3.org/2000/svg" xmlns:xlink="http://www.w3.org/1999/xlink">
<g id="graph0" class="graph" transform="scale(1 1) rotate(0) translate(4 201)">
<title>Compute::usingGaussSeidel</title>
<polygon fill="white" stroke="transparent" points="-4,4 -4,-201 1052,-201 1052,4 -4,4"/>
<!-- Node1 -->
<g id="node1" class="node">
<title>Node1</title>
<g id="a_node1"><a xlink:title="Solves a linear system using the Gauss&#45;Seidel method.">
<polygon fill="#bfbfbf" stroke="black" points="0,-101.5 0,-120.5 153,-120.5 153,-101.5 0,-101.5"/>
<text text-anchor="middle" x="76.5" y="-108.5" font-family="Helvetica,sans-Serif" font-size="10.00">Compute::usingGaussSeidel</text>
</a>
</g>
</g>
<!-- Node2 -->
<g id="node2" class="node">
<title>Node2</title>
<g id="a_node2"><a xlink:href="../../de/def/classStopwatch.html#a3c8a6cb60a31a8cafd1d2dad1b6c851d" target="_top" xlink:title="Save the current time as the clicked time point.">
<polygon fill="white" stroke="black" points="201.5,-177.5 201.5,-196.5 297.5,-196.5 297.5,-177.5 201.5,-177.5"/>
<text text-anchor="middle" x="249.5" y="-184.5" font-family="Helvetica,sans-Serif" font-size="10.00">Stopwatch::click</text>
</a>
</g>
</g>
<!-- Node1&#45;&gt;Node2 -->
<g id="edge1" class="edge">
<title>Node1&#45;&gt;Node2</title>
<path fill="none" stroke="midnightblue" d="M94.1,-120.57C115.53,-132.68 154.23,-153.67 189,-168 194.4,-170.22 200.15,-172.35 205.88,-174.33"/>
<polygon fill="midnightblue" stroke="midnightblue" points="204.83,-177.66 215.42,-177.49 207.03,-171.02 204.83,-177.66"/>
</g>
<!-- Node3 -->
<g id="node3" class="node">
<title>Node3</title>
<g id="a_node3"><a xlink:href="../../db/df1/Helpers_8h.html#a47bde9d4fb76f7eee1cfe4a98be0f8db" target="_top" xlink:title="Computes the mean and variance of a numeric vector using Boost Accumulators.">
<polygon fill="white" stroke="black" points="198.5,-139.5 198.5,-158.5 300.5,-158.5 300.5,-139.5 198.5,-139.5"/>
<text text-anchor="middle" x="249.5" y="-146.5" font-family="Helvetica,sans-Serif" font-size="10.00">computeMeanStd</text>
</a>
</g>
</g>
<!-- Node1&#45;&gt;Node3 -->
<g id="edge2" class="edge">
<title>Node1&#45;&gt;Node3</title>
<path fill="none" stroke="midnightblue" d="M120.65,-120.59C143.42,-125.65 171.55,-131.9 195.62,-137.25"/>
<polygon fill="midnightblue" stroke="midnightblue" points="195.14,-140.73 205.66,-139.48 196.66,-133.89 195.14,-140.73"/>
</g>
<!-- Node4 -->
<g id="node4" class="node">
<title>Node4</title>
<g id="a_node4"><a xlink:href="../../de/def/classStopwatch.html#ac5fd84825ff7ae966d1963a20e9cf47b" target="_top" xlink:title="Static method to calculate the duration between two time points.">
<polygon fill="white" stroke="black" points="192.5,-101.5 192.5,-120.5 306.5,-120.5 306.5,-101.5 192.5,-101.5"/>
<text text-anchor="middle" x="249.5" y="-108.5" font-family="Helvetica,sans-Serif" font-size="10.00">Stopwatch::duration</text>
</a>
</g>
</g>
<!-- Node1&#45;&gt;Node4 -->
<g id="edge3" class="edge">
<title>Node1&#45;&gt;Node4</title>
<path fill="none" stroke="midnightblue" d="M153,-111C162.73,-111 172.62,-111 182.19,-111"/>
<polygon fill="midnightblue" stroke="midnightblue" points="182.4,-114.5 192.4,-111 182.4,-107.5 182.4,-114.5"/>
</g>
<!-- Node5 -->
<g id="node5" class="node">
<title>Node5</title>
<g id="a_node5"><a xlink:href="../../d7/d9a/namespaceMyRelaxationMethod.html#a985bd80ba02c84e9d1ca2e434a32bd3f" target="_top" xlink:title="Function to perform pre&#45;checks on the coefficient matrix and the right&#45;hand side vector.">
<polygon fill="white" stroke="black" points="189,-52 189,-82 310,-82 310,-52 189,-52"/>
<text text-anchor="start" x="197" y="-70" font-family="Helvetica,sans-Serif" font-size="10.00">MyRelaxationMethod</text>
<text text-anchor="middle" x="249.5" y="-59" font-family="Helvetica,sans-Serif" font-size="10.00">::passesPreChecks</text>
</a>
</g>
</g>
<!-- Node1&#45;&gt;Node5 -->
<g id="edge4" class="edge">
<title>Node1&#45;&gt;Node5</title>
<path fill="none" stroke="midnightblue" d="M114.6,-101.45C133.77,-96.52 157.78,-90.34 180.15,-84.59"/>
<polygon fill="midnightblue" stroke="midnightblue" points="181.14,-87.95 189.95,-82.07 179.39,-81.17 181.14,-87.95"/>
</g>
<!-- Node15 -->
<g id="node15" class="node">
<title>Node15</title>
<g id="a_node15"><a xlink:href="../../de/def/classStopwatch.html#a2cc3c2b39972ca34f3ff9622471b1bbb" target="_top" xlink:title="Restart the stopwatch by setting the initial and clicked time points to the current time.">
<polygon fill="white" stroke="black" points="196.5,-13.5 196.5,-32.5 302.5,-32.5 302.5,-13.5 196.5,-13.5"/>
<text text-anchor="middle" x="249.5" y="-20.5" font-family="Helvetica,sans-Serif" font-size="10.00">Stopwatch::restart</text>
</a>
</g>
</g>
<!-- Node1&#45;&gt;Node15 -->
<g id="edge16" class="edge">
<title>Node1&#45;&gt;Node15</title>
<path fill="none" stroke="midnightblue" d="M90.63,-101.38C110.89,-86.9 151.37,-59.33 189,-42 193.74,-39.82 198.8,-37.78 203.9,-35.92"/>
<polygon fill="midnightblue" stroke="midnightblue" points="205.35,-39.12 213.66,-32.55 203.07,-32.5 205.35,-39.12"/>
</g>
<!-- Node6 -->
<g id="node6" class="node">
<title>Node6</title>
<g id="a_node6"><a xlink:href="../../d2/d6e/namespaceMyBLAS.html#a4ae8cb61e3457065790607979b939564" target="_top" xlink:title="Checks if the given matrix is diagonally dominant.">
<polygon fill="white" stroke="black" points="346,-114.5 346,-133.5 518,-133.5 518,-114.5 346,-114.5"/>
<text text-anchor="middle" x="432" y="-121.5" font-family="Helvetica,sans-Serif" font-size="10.00">MyBLAS::isDiagonallyDominant</text>
</a>
</g>
</g>
<!-- Node5&#45;&gt;Node6 -->
<g id="edge5" class="edge">
<title>Node5&#45;&gt;Node6</title>
<path fill="none" stroke="midnightblue" d="M292.64,-82.15C309.2,-87.95 328.43,-94.49 346,-100 358.7,-103.98 372.56,-108.02 385.33,-111.63"/>
<polygon fill="midnightblue" stroke="midnightblue" points="384.73,-115.09 395.3,-114.41 386.61,-108.35 384.73,-115.09"/>
</g>
<!-- Node9 -->
<g id="node9" class="node">
<title>Node9</title>
<g id="a_node9"><a xlink:href="../../d2/d6e/namespaceMyBLAS.html#a0b887e323f8337bd87ef20dff8af5c1f" target="_top" xlink:title="Checks if the given matrix is a square matrix.">
<polygon fill="white" stroke="black" points="567.5,-76.5 567.5,-95.5 704.5,-95.5 704.5,-76.5 567.5,-76.5"/>
<text text-anchor="middle" x="636" y="-83.5" font-family="Helvetica,sans-Serif" font-size="10.00">MyBLAS::isSquareMatrix</text>
</a>
</g>
</g>
<!-- Node5&#45;&gt;Node9 -->
<g id="edge12" class="edge">
<title>Node5&#45;&gt;Node9</title>
<path fill="none" stroke="midnightblue" d="M310.16,-69.95C376.64,-73.23 484.37,-78.56 557.37,-82.16"/>
<polygon fill="midnightblue" stroke="midnightblue" points="557.27,-85.66 567.43,-82.66 557.61,-78.67 557.27,-85.66"/>
</g>
<!-- Node12 -->
<g id="node12" class="node">
<title>Node12</title>
<g id="a_node12"><a xlink:href="../../d2/d6e/namespaceMyBLAS.html#a1f0325293f4b4969ac4a450ba3db1f87" target="_top" xlink:title="Checks if the given matrix is empty.">
<polygon fill="white" stroke="black" points="365,-38.5 365,-57.5 499,-57.5 499,-38.5 365,-38.5"/>
<text text-anchor="middle" x="432" y="-45.5" font-family="Helvetica,sans-Serif" font-size="10.00">MyBLAS::isEmptyMatrix</text>
</a>
</g>
</g>
<!-- Node5&#45;&gt;Node12 -->
<g id="edge11" class="edge">
<title>Node5&#45;&gt;Node12</title>
<path fill="none" stroke="midnightblue" d="M310.1,-60.73C324.37,-59.22 339.8,-57.6 354.7,-56.03"/>
<polygon fill="midnightblue" stroke="midnightblue" points="355.34,-59.48 364.92,-54.96 354.61,-52.52 355.34,-59.48"/>
</g>
<!-- Node13 -->
<g id="node13" class="node">
<title>Node13</title>
<g id="a_node13"><a xlink:href="../../d2/d6e/namespaceMyBLAS.html#a56e77d4aef50489830f5ce0ef7bcf7a4" target="_top" xlink:title="Checks if there are no zeros in the diagonal of a matrix.">
<polygon fill="white" stroke="black" points="354.5,-0.5 354.5,-19.5 509.5,-19.5 509.5,-0.5 354.5,-0.5"/>
<text text-anchor="middle" x="432" y="-7.5" font-family="Helvetica,sans-Serif" font-size="10.00">MyBLAS::noZerosInDiagonal</text>
</a>
</g>
</g>
<!-- Node5&#45;&gt;Node13 -->
<g id="edge13" class="edge">
<title>Node5&#45;&gt;Node13</title>
<path fill="none" stroke="midnightblue" d="M286.62,-51.94C308.56,-42.92 334.49,-32.55 346,-29 354.4,-26.41 363.36,-24.01 372.21,-21.86"/>
<polygon fill="midnightblue" stroke="midnightblue" points="373.17,-25.23 382.1,-19.54 371.57,-18.42 373.17,-25.23"/>
</g>
<!-- Node7 -->
<g id="node7" class="node">
<title>Node7</title>
<g id="a_node7"><a xlink:href="../../dd/df5/namespaceMyBLAS_1_1Stats.html#afeaf3b7bba0ff1b952b35d0effc0bca9" target="_top" xlink:title="Function to find the absolute value of each element in a vector.">
<polygon fill="white" stroke="black" points="768,-73.5 768,-92.5 879,-92.5 879,-73.5 768,-73.5"/>
<text text-anchor="middle" x="823.5" y="-80.5" font-family="Helvetica,sans-Serif" font-size="10.00">MyBLAS::Stats::abs</text>
</a>
</g>
</g>
<!-- Node6&#45;&gt;Node7 -->
<g id="edge6" class="edge">
<title>Node6&#45;&gt;Node7</title>
<path fill="none" stroke="midnightblue" d="M518.12,-121.46C574.93,-119 651.19,-114.21 718,-105 736.27,-102.48 756.12,-98.6 773.56,-94.79"/>
<polygon fill="midnightblue" stroke="midnightblue" points="774.53,-98.16 783.53,-92.57 773,-91.33 774.53,-98.16"/>
</g>
<!-- Node6&#45;&gt;Node9 -->
<g id="edge8" class="edge">
<title>Node6&#45;&gt;Node9</title>
<path fill="none" stroke="midnightblue" d="M483.71,-114.46C511.21,-109.29 545.38,-102.86 574.28,-97.42"/>
<polygon fill="midnightblue" stroke="midnightblue" points="575.09,-100.83 584.27,-95.54 573.79,-93.95 575.09,-100.83"/>
</g>
<!-- Node10 -->
<g id="node10" class="node">
<title>Node10</title>
<g id="a_node10"><a xlink:href="../../dd/df5/namespaceMyBLAS_1_1Stats.html#aaa0d2e3d22af2b7894169b7c90ba6146" target="_top" xlink:title="Function to find the sum of all elements in a vector.">
<polygon fill="white" stroke="black" points="578.5,-152.5 578.5,-171.5 693.5,-171.5 693.5,-152.5 578.5,-152.5"/>
<text text-anchor="middle" x="636" y="-159.5" font-family="Helvetica,sans-Serif" font-size="10.00">MyBLAS::Stats::sum</text>
</a>
</g>
</g>
<!-- Node6&#45;&gt;Node10 -->
<g id="edge9" class="edge">
<title>Node6&#45;&gt;Node10</title>
<path fill="none" stroke="midnightblue" d="M483.71,-133.54C511.21,-138.71 545.38,-145.14 574.28,-150.58"/>
<polygon fill="midnightblue" stroke="midnightblue" points="573.79,-154.05 584.27,-152.46 575.09,-147.17 573.79,-154.05"/>
</g>
<!-- Node8 -->
<g id="node8" class="node">
<title>Node8</title>
<g id="a_node8"><a xlink:href="../../d4/d4d/classMyBLAS_1_1Vector.html#aae30f8178e4a34d332317c61e77c147a" target="_top" xlink:title="Getter for the size of the vector.">
<polygon fill="white" stroke="black" points="929,-73.5 929,-92.5 1048,-92.5 1048,-73.5 929,-73.5"/>
<text text-anchor="middle" x="988.5" y="-80.5" font-family="Helvetica,sans-Serif" font-size="10.00">MyBLAS::Vector::size</text>
</a>
</g>
</g>
<!-- Node7&#45;&gt;Node8 -->
<g id="edge7" class="edge">
<title>Node7&#45;&gt;Node8</title>
<path fill="none" stroke="midnightblue" d="M879.23,-83C891.78,-83 905.29,-83 918.36,-83"/>
<polygon fill="midnightblue" stroke="midnightblue" points="918.72,-86.5 928.72,-83 918.72,-79.5 918.72,-86.5"/>
</g>
<!-- Node11 -->
<g id="node11" class="node">
<title>Node11</title>
<g id="a_node11"><a xlink:href="../../d4/d4d/classMyBLAS_1_1Vector.html#a6188d71192e096e25ae1c1a46150a0ab" target="_top" xlink:title="Getter for the vector data.">
<polygon fill="white" stroke="black" points="754,-152.5 754,-171.5 893,-171.5 893,-152.5 754,-152.5"/>
<text text-anchor="middle" x="823.5" y="-159.5" font-family="Helvetica,sans-Serif" font-size="10.00">MyBLAS::Vector::getData</text>
</a>
</g>
</g>
<!-- Node10&#45;&gt;Node11 -->
<g id="edge10" class="edge">
<title>Node10&#45;&gt;Node11</title>
<path fill="none" stroke="midnightblue" d="M693.66,-162C709.37,-162 726.71,-162 743.44,-162"/>
<polygon fill="midnightblue" stroke="midnightblue" points="743.76,-165.5 753.76,-162 743.76,-158.5 743.76,-165.5"/>
</g>
<!-- Node14 -->
<g id="node14" class="node">
<title>Node14</title>
<g id="a_node14"><a xlink:href="../../d2/d6e/namespaceMyBLAS.html#a6b103aca5e5fab29f3d0954b77946dc0" target="_top" xlink:title="Checks if all diagonal elements of a matrix are below a certain threshold.">
<polygon fill="white" stroke="black" points="554,-11 554,-41 718,-41 718,-11 554,-11"/>
<text text-anchor="start" x="562" y="-29" font-family="Helvetica,sans-Serif" font-size="10.00">MyBLAS::allDiagonalElements</text>
<text text-anchor="middle" x="636" y="-18" font-family="Helvetica,sans-Serif" font-size="10.00">BelowThreshold</text>
</a>
</g>
</g>
<!-- Node13&#45;&gt;Node14 -->
<g id="edge14" class="edge">
<title>Node13&#45;&gt;Node14</title>
<path fill="none" stroke="midnightblue" d="M509.66,-16.07C520.68,-16.94 532.11,-17.85 543.39,-18.74"/>
<polygon fill="midnightblue" stroke="midnightblue" points="543.44,-22.26 553.69,-19.56 543.99,-15.28 543.44,-22.26"/>
</g>
<!-- Node14&#45;&gt;Node7 -->
<g id="edge15" class="edge">
<title>Node14&#45;&gt;Node7</title>
<path fill="none" stroke="midnightblue" d="M686.22,-41.13C715.95,-50.26 753.4,-61.77 781.51,-70.41"/>
<polygon fill="midnightblue" stroke="midnightblue" points="780.83,-73.86 791.42,-73.45 782.89,-67.17 780.83,-73.86"/>
</g>
</g>
</svg>
