<?xml version="1.0" encoding="UTF-8" standalone="no"?>
<!DOCTYPE svg PUBLIC "-//W3C//DTD SVG 1.1//EN"
 "http://www.w3.org/Graphics/SVG/1.1/DTD/svg11.dtd">
<!-- Generated by graphviz version 2.43.0 (0)
 -->
<!-- Title: Compute::usingPointJacobi Pages: 1 -->
<!--zoomable 205 -->
<svg id="main" version="1.1" xmlns="http://www.w3.org/2000/svg" xmlns:xlink="http://www.w3.org/1999/xlink" xml:space="preserve" onload="init(evt)">
<style type="text/css"><![CDATA[
.edge:hover path { stroke: red; }
.edge:hover polygon { stroke: red; fill: red; }
]]></style>
<script type="text/javascript"><![CDATA[
var edges = document.getElementsByTagName('g');
if (edges && edges.length) {
  for (var i=0;i<edges.length;i++) {
    if (edges[i].id.substr(0,4)=='edge') {
      edges[i].setAttribute('class','edge');
    }
  }
}
]]></script>
        <defs>
                <circle id="rim" cx="0" cy="0" r="7"/>
                <circle id="rim2" cx="0" cy="0" r="3.5"/>
                <g id="zoomPlus">
                        <use xlink:href="#rim" fill="#404040">
                                <set attributeName="fill" to="#808080" begin="zoomplus.mouseover" end="zoomplus.mouseout"/>
                        </use>
                        <path d="M-4,0h8M0,-4v8" fill="none" stroke="white" stroke-width="1.5" pointer-events="none"/>
                </g>
                <g id="zoomMin">
                        <use xlink:href="#rim" fill="#404040">
                                <set attributeName="fill" to="#808080" begin="zoomminus.mouseover" end="zoomminus.mouseout"/>
                        </use>
                        <path d="M-4,0h8" fill="none" stroke="white" stroke-width="1.5" pointer-events="none"/>
                </g>
                <g id="dirArrow">
                        <path fill="none" stroke="white" stroke-width="1.5" d="M0,-3.0v7 M-2.5,-0.5L0,-3.0L2.5,-0.5"/>
                </g>
               <g id="resetDef">
                       <use xlink:href="#rim2" fill="#404040">
                               <set attributeName="fill" to="#808080" begin="reset.mouseover" end="reset.mouseout"/>
                       </use>
               </g>
        </defs>

<script type="text/javascript">
var viewWidth = 904;
var viewHeight = 205;
var sectionId = 'dynsection-12';
</script>
<script xlink:href="../../svgpan.js"/>
<svg id="graph" class="graph">
<g id="viewport">
<title>Compute::usingPointJacobi</title>
<polygon fill="white" stroke="transparent" points="-4,4 -4,-201 900,-201 900,4 -4,4"/>
<!-- Node1 -->
<g id="node1" class="node">
<title>Node1</title>
<g id="a_node1"><a xlink:title="This method applies the Point Jacobi relaxation method to the given input matrices.">
<polygon fill="#bfbfbf" stroke="black" points="0,-57.5 0,-76.5 147,-76.5 147,-57.5 0,-57.5"/>
<text text-anchor="middle" x="73.5" y="-64.5" font-family="Helvetica,sans-Serif" font-size="10.00">Compute::usingPointJacobi</text>
</a>
</g>
</g>
<!-- Node2 -->
<g id="node2" class="node">
<title>Node2</title>
<g id="a_node2"><a xlink:href="../../d7/d9a/namespaceMyRelaxationMethod.html#a1ad90cacb42ba2b27223feb0d56320b9" target="_top" xlink:title="This function applies the Point Jacobi method to solve a system of linear equations.">
<polygon fill="white" stroke="black" points="183,-115 183,-145 304,-145 304,-115 183,-115"/>
<text text-anchor="start" x="191" y="-133" font-family="Helvetica,sans-Serif" font-size="10.00">MyRelaxationMethod</text>
<text text-anchor="middle" x="243.5" y="-122" font-family="Helvetica,sans-Serif" font-size="10.00">::applyPointJacobi</text>
</a>
</g>
</g>
<!-- Node1&#45;&gt;Node2 -->
<g id="edge1" class="edge">
<title>Node1&#45;&gt;Node2</title>
<path fill="none" stroke="midnightblue" d="M100.02,-76.57C124.53,-85.76 162.25,-99.9 192.71,-111.33"/>
<polygon fill="midnightblue" stroke="midnightblue" points="191.73,-114.7 202.33,-114.93 194.19,-108.15 191.73,-114.7"/>
</g>
<!-- Node11 -->
<g id="node11" class="node">
<title>Node11</title>
<g id="a_node11"><a xlink:href="../../de/def/classStopwatch.html#a3c8a6cb60a31a8cafd1d2dad1b6c851d" target="_top" xlink:title="Save the current time as the clicked time point.">
<polygon fill="white" stroke="black" points="195.5,-76.5 195.5,-95.5 291.5,-95.5 291.5,-76.5 195.5,-76.5"/>
<text text-anchor="middle" x="243.5" y="-83.5" font-family="Helvetica,sans-Serif" font-size="10.00">Stopwatch::click</text>
</a>
</g>
</g>
<!-- Node1&#45;&gt;Node11 -->
<g id="edge14" class="edge">
<title>Node1&#45;&gt;Node11</title>
<path fill="none" stroke="midnightblue" d="M147.21,-75.22C159.96,-76.66 173.06,-78.15 185.31,-79.53"/>
<polygon fill="midnightblue" stroke="midnightblue" points="185.04,-83.02 195.37,-80.67 185.83,-76.07 185.04,-83.02"/>
</g>
<!-- Node12 -->
<g id="node12" class="node">
<title>Node12</title>
<g id="a_node12"><a xlink:href="../../de/def/classStopwatch.html#ac5fd84825ff7ae966d1963a20e9cf47b" target="_top" xlink:title="Static method to calculate the duration between two time points.">
<polygon fill="white" stroke="black" points="186.5,-38.5 186.5,-57.5 300.5,-57.5 300.5,-38.5 186.5,-38.5"/>
<text text-anchor="middle" x="243.5" y="-45.5" font-family="Helvetica,sans-Serif" font-size="10.00">Stopwatch::duration</text>
</a>
</g>
</g>
<!-- Node1&#45;&gt;Node12 -->
<g id="edge15" class="edge">
<title>Node1&#45;&gt;Node12</title>
<path fill="none" stroke="midnightblue" d="M147.21,-58.78C156.85,-57.69 166.69,-56.57 176.21,-55.5"/>
<polygon fill="midnightblue" stroke="midnightblue" points="176.85,-58.95 186.39,-54.35 176.06,-51.99 176.85,-58.95"/>
</g>
<!-- Node13 -->
<g id="node13" class="node">
<title>Node13</title>
<g id="a_node13"><a xlink:href="../../de/def/classStopwatch.html#a2cc3c2b39972ca34f3ff9622471b1bbb" target="_top" xlink:title="Restart the stopwatch by setting the initial and clicked time points to the current time.">
<polygon fill="white" stroke="black" points="190.5,-0.5 190.5,-19.5 296.5,-19.5 296.5,-0.5 190.5,-0.5"/>
<text text-anchor="middle" x="243.5" y="-7.5" font-family="Helvetica,sans-Serif" font-size="10.00">Stopwatch::restart</text>
</a>
</g>
</g>
<!-- Node1&#45;&gt;Node13 -->
<g id="edge16" class="edge">
<title>Node1&#45;&gt;Node13</title>
<path fill="none" stroke="midnightblue" d="M101.18,-57.42C123.1,-49.61 154.99,-38.38 183,-29 189.21,-26.92 195.8,-24.77 202.24,-22.69"/>
<polygon fill="midnightblue" stroke="midnightblue" points="203.72,-25.89 212.18,-19.5 201.59,-19.22 203.72,-25.89"/>
</g>
<!-- Node3 -->
<g id="node3" class="node">
<title>Node3</title>
<g id="a_node3"><a xlink:href="../../d2/d6e/namespaceMyBLAS.html#ac6dacb7fc104126e5fa62e02f0ec1446" target="_top" xlink:title="Calculates the L2 norm (Euclidean distance) between two containers.">
<polygon fill="white" stroke="black" points="340,-139.5 340,-158.5 414,-158.5 414,-139.5 340,-139.5"/>
<text text-anchor="middle" x="377" y="-146.5" font-family="Helvetica,sans-Serif" font-size="10.00">MyBLAS::L2</text>
</a>
</g>
</g>
<!-- Node2&#45;&gt;Node3 -->
<g id="edge2" class="edge">
<title>Node2&#45;&gt;Node3</title>
<path fill="none" stroke="midnightblue" d="M304.09,-138.61C312.79,-139.87 321.63,-141.14 330,-142.35"/>
<polygon fill="midnightblue" stroke="midnightblue" points="329.54,-145.82 339.94,-143.79 330.54,-138.9 329.54,-145.82"/>
</g>
<!-- Node5 -->
<g id="node5" class="node">
<title>Node5</title>
<g id="a_node5"><a xlink:href="../../de/d4d/namespaceMyMath.html#af3e9a9de7b922fdfb6e3d2988b1212ff" target="_top" xlink:title="A template function to calculate the power of a base number.">
<polygon fill="white" stroke="black" points="620,-177.5 620,-196.5 703,-196.5 703,-177.5 620,-177.5"/>
<text text-anchor="middle" x="661.5" y="-184.5" font-family="Helvetica,sans-Serif" font-size="10.00">MyMath::pow</text>
</a>
</g>
</g>
<!-- Node2&#45;&gt;Node5 -->
<g id="edge12" class="edge">
<title>Node2&#45;&gt;Node5</title>
<path fill="none" stroke="midnightblue" d="M277.52,-145.03C295.66,-152.79 318.73,-161.9 340,-168 436.93,-195.8 465.16,-188.53 566,-188 580.13,-187.93 595.44,-187.79 609.55,-187.64"/>
<polygon fill="midnightblue" stroke="midnightblue" points="609.61,-191.14 619.57,-187.53 609.53,-184.14 609.61,-191.14"/>
</g>
<!-- Node8 -->
<g id="node8" class="node">
<title>Node8</title>
<g id="a_node8"><a xlink:href="../../dd/df5/namespaceMyBLAS_1_1Stats.html#aaa0d2e3d22af2b7894169b7c90ba6146" target="_top" xlink:title="Function to find the sum of all elements in a vector.">
<polygon fill="white" stroke="black" points="604,-101.5 604,-120.5 719,-120.5 719,-101.5 604,-101.5"/>
<text text-anchor="middle" x="661.5" y="-108.5" font-family="Helvetica,sans-Serif" font-size="10.00">MyBLAS::Stats::sum</text>
</a>
</g>
</g>
<!-- Node2&#45;&gt;Node8 -->
<g id="edge13" class="edge">
<title>Node2&#45;&gt;Node8</title>
<path fill="none" stroke="midnightblue" d="M304.1,-127.28C380.65,-123.78 513.13,-117.73 593.22,-114.07"/>
<polygon fill="midnightblue" stroke="midnightblue" points="593.85,-117.55 603.68,-113.6 593.53,-110.56 593.85,-117.55"/>
</g>
<!-- Node10 -->
<g id="node10" class="node">
<title>Node10</title>
<g id="a_node10"><a xlink:href="../../dd/df5/namespaceMyBLAS_1_1Stats.html#a403bf760cf802cddf8dd73e5d3e46a05" target="_top" xlink:title="Function to find the maximum value in a vector.">
<polygon fill="white" stroke="black" points="450,-63.5 450,-82.5 566,-82.5 566,-63.5 450,-63.5"/>
<text text-anchor="middle" x="508" y="-70.5" font-family="Helvetica,sans-Serif" font-size="10.00">MyBLAS::Stats::max</text>
</a>
</g>
</g>
<!-- Node2&#45;&gt;Node10 -->
<g id="edge10" class="edge">
<title>Node2&#45;&gt;Node10</title>
<path fill="none" stroke="midnightblue" d="M282.57,-114.98C299.87,-108.64 320.74,-101.67 340,-97 372.35,-89.16 408.9,-83.55 439.53,-79.74"/>
<polygon fill="midnightblue" stroke="midnightblue" points="440.17,-83.19 449.68,-78.51 439.33,-76.24 440.17,-83.19"/>
</g>
<!-- Node4 -->
<g id="node4" class="node">
<title>Node4</title>
<g id="a_node4"><a xlink:href="../../d2/d6e/namespaceMyBLAS.html#ac12a3b113ae6b7edd2fcb21280c0f804" target="_top" xlink:title="A template function to calculate the norm of a vector.">
<polygon fill="white" stroke="black" points="463.5,-139.5 463.5,-158.5 552.5,-158.5 552.5,-139.5 463.5,-139.5"/>
<text text-anchor="middle" x="508" y="-146.5" font-family="Helvetica,sans-Serif" font-size="10.00">MyBLAS::norm</text>
</a>
</g>
</g>
<!-- Node3&#45;&gt;Node4 -->
<g id="edge3" class="edge">
<title>Node3&#45;&gt;Node4</title>
<path fill="none" stroke="midnightblue" d="M414.28,-149C426.27,-149 439.89,-149 452.93,-149"/>
<polygon fill="midnightblue" stroke="midnightblue" points="453.21,-152.5 463.21,-149 453.21,-145.5 453.21,-152.5"/>
</g>
<!-- Node3&#45;&gt;Node5 -->
<g id="edge9" class="edge">
<title>Node3&#45;&gt;Node5</title>
<path fill="none" stroke="midnightblue" d="M409.64,-158.58C422.12,-162.03 436.63,-165.65 450,-168 504.09,-177.51 566.88,-182.39 609.71,-184.81"/>
<polygon fill="midnightblue" stroke="midnightblue" points="609.71,-188.31 619.88,-185.36 610.08,-181.33 609.71,-188.31"/>
</g>
<!-- Node4&#45;&gt;Node5 -->
<g id="edge4" class="edge">
<title>Node4&#45;&gt;Node5</title>
<path fill="none" stroke="midnightblue" d="M547.23,-158.59C567.13,-163.58 591.66,-169.73 612.79,-175.03"/>
<polygon fill="midnightblue" stroke="midnightblue" points="611.99,-178.44 622.55,-177.48 613.7,-171.65 611.99,-178.44"/>
</g>
<!-- Node7 -->
<g id="node7" class="node">
<title>Node7</title>
<g id="a_node7"><a xlink:href="../../d4/d4d/classMyBLAS_1_1Vector.html#aae30f8178e4a34d332317c61e77c147a" target="_top" xlink:title="Getter for the size of the vector.">
<polygon fill="white" stroke="black" points="602,-139.5 602,-158.5 721,-158.5 721,-139.5 602,-139.5"/>
<text text-anchor="middle" x="661.5" y="-146.5" font-family="Helvetica,sans-Serif" font-size="10.00">MyBLAS::Vector::size</text>
</a>
</g>
</g>
<!-- Node4&#45;&gt;Node7 -->
<g id="edge6" class="edge">
<title>Node4&#45;&gt;Node7</title>
<path fill="none" stroke="midnightblue" d="M552.82,-149C565.01,-149 578.54,-149 591.79,-149"/>
<polygon fill="midnightblue" stroke="midnightblue" points="591.84,-152.5 601.84,-149 591.84,-145.5 591.84,-152.5"/>
</g>
<!-- Node4&#45;&gt;Node8 -->
<g id="edge7" class="edge">
<title>Node4&#45;&gt;Node8</title>
<path fill="none" stroke="midnightblue" d="M547.23,-139.41C567.13,-134.42 591.66,-128.27 612.79,-122.97"/>
<polygon fill="midnightblue" stroke="midnightblue" points="613.7,-126.35 622.55,-120.52 611.99,-119.56 613.7,-126.35"/>
</g>
<!-- Node6 -->
<g id="node6" class="node">
<title>Node6</title>
<g id="a_node6"><a xlink:href="../../de/d4d/namespaceMyMath.html#a5f2b6e445ba885637efd0db1a7708919" target="_top" xlink:title="A template specialization function to calculate the power of a __float128 base number.">
<polygon fill="white" stroke="black" points="785,-177.5 785,-196.5 868,-196.5 868,-177.5 785,-177.5"/>
<text text-anchor="middle" x="826.5" y="-184.5" font-family="Helvetica,sans-Serif" font-size="10.00">MyMath::pow</text>
</a>
</g>
</g>
<!-- Node5&#45;&gt;Node6 -->
<g id="edge5" class="edge">
<title>Node5&#45;&gt;Node6</title>
<path fill="none" stroke="midnightblue" d="M703.21,-187C724.8,-187 751.53,-187 774.49,-187"/>
<polygon fill="midnightblue" stroke="midnightblue" points="774.74,-190.5 784.74,-187 774.74,-183.5 774.74,-190.5"/>
</g>
<!-- Node9 -->
<g id="node9" class="node">
<title>Node9</title>
<g id="a_node9"><a xlink:href="../../d4/d4d/classMyBLAS_1_1Vector.html#a6188d71192e096e25ae1c1a46150a0ab" target="_top" xlink:title="Getter for the vector data.">
<polygon fill="white" stroke="black" points="757,-82.5 757,-101.5 896,-101.5 896,-82.5 757,-82.5"/>
<text text-anchor="middle" x="826.5" y="-89.5" font-family="Helvetica,sans-Serif" font-size="10.00">MyBLAS::Vector::getData</text>
</a>
</g>
</g>
<!-- Node8&#45;&gt;Node9 -->
<g id="edge8" class="edge">
<title>Node8&#45;&gt;Node9</title>
<path fill="none" stroke="midnightblue" d="M719.05,-104.41C728.03,-103.36 737.46,-102.26 746.84,-101.17"/>
<polygon fill="midnightblue" stroke="midnightblue" points="747.44,-104.62 756.97,-99.99 746.63,-97.67 747.44,-104.62"/>
</g>
<!-- Node10&#45;&gt;Node9 -->
<g id="edge11" class="edge">
<title>Node10&#45;&gt;Node9</title>
<path fill="none" stroke="midnightblue" d="M566.32,-76.44C616.71,-79.47 690.54,-83.9 746.52,-87.26"/>
<polygon fill="midnightblue" stroke="midnightblue" points="746.57,-90.77 756.76,-87.87 746.99,-83.78 746.57,-90.77"/>
</g>
</g>
</svg>
        <g id="navigator" transform="translate(0 0)" fill="#404254">
                <rect fill="#f2f5e9" fill-opacity="0.5" stroke="#606060" stroke-width=".5" x="0" y="0" width="60" height="60"/>
                <use id="zoomplus" xlink:href="#zoomPlus" x="17" y="9" onmousedown="handleZoom(evt,'in')"/>
                <use id="zoomminus" xlink:href="#zoomMin" x="42" y="9" onmousedown="handleZoom(evt,'out')"/>
                <use id="reset" xlink:href="#resetDef" x="30" y="36" onmousedown="handleReset()"/>
                <g id="arrowUp" xlink:href="#dirArrow" transform="translate(30 24)" onmousedown="handlePan(0,-1)">
                  <use xlink:href="#rim" fill="#404040">
                        <set attributeName="fill" to="#808080" begin="arrowUp.mouseover" end="arrowUp.mouseout"/>
                  </use>
                  <path fill="none" stroke="white" stroke-width="1.5" d="M0,-3.0v7 M-2.5,-0.5L0,-3.0L2.5,-0.5"/>
                </g>
                <g id="arrowRight" xlink:href="#dirArrow" transform="rotate(90) translate(36 -43)" onmousedown="handlePan(1,0)">
                  <use xlink:href="#rim" fill="#404040">
                        <set attributeName="fill" to="#808080" begin="arrowRight.mouseover" end="arrowRight.mouseout"/>
                  </use>
                  <path fill="none" stroke="white" stroke-width="1.5" d="M0,-3.0v7 M-2.5,-0.5L0,-3.0L2.5,-0.5"/>
                </g>
                <g id="arrowDown" xlink:href="#dirArrow" transform="rotate(180) translate(-30 -48)" onmousedown="handlePan(0,1)">
                  <use xlink:href="#rim" fill="#404040">
                        <set attributeName="fill" to="#808080" begin="arrowDown.mouseover" end="arrowDown.mouseout"/>
                  </use>
                  <path fill="none" stroke="white" stroke-width="1.5" d="M0,-3.0v7 M-2.5,-0.5L0,-3.0L2.5,-0.5"/>
                </g>
                <g id="arrowLeft" xlink:href="#dirArrow" transform="rotate(270) translate(-36 17)" onmousedown="handlePan(-1,0)">
                  <use xlink:href="#rim" fill="#404040">
                        <set attributeName="fill" to="#808080" begin="arrowLeft.mouseover" end="arrowLeft.mouseout"/>
                  </use>
                  <path fill="none" stroke="white" stroke-width="1.5" d="M0,-3.0v7 M-2.5,-0.5L0,-3.0L2.5,-0.5"/>
                </g>
        </g>
        <svg viewBox="0 0 15 15" width="100%" height="30px" preserveAspectRatio="xMaxYMin meet">
         <g id="arrow_out" transform="scale(0.3 0.3)">
          <a xlink:href="namespaceCompute_a0aa73a107ee5ea0767e15b7caddeecc7_cgraph_org.svg" target="_base">
           <rect id="button" ry="5" rx="5" y="6" x="6" height="38" width="38"
                fill="#f2f5e9" fill-opacity="0.5" stroke="#606060" stroke-width="1.0"/>
           <path id="arrow"
             d="M 11.500037,31.436501 C 11.940474,20.09759 22.043105,11.32322 32.158766,21.979434 L 37.068811,17.246167 C 37.068811,17.246167 37.088388,32 37.088388,32 L 22.160133,31.978069 C 22.160133,31.978069 26.997745,27.140456 26.997745,27.140456 C 18.528582,18.264221 13.291696,25.230495 11.500037,31.436501 z"
             style="fill:#404040;"/>
          </a>
         </g>
        </svg>
</svg>
