<?xml version="1.0" encoding="UTF-8" standalone="no"?>
<!DOCTYPE svg PUBLIC "-//W3C//DTD SVG 1.1//EN"
 "http://www.w3.org/Graphics/SVG/1.1/DTD/svg11.dtd">
<!-- Generated by graphviz version 2.43.0 (0)
 -->
<!-- Title: src/utils/math/blas/tests/matrix/MatrixPerformanceTests.cpp Pages: 1 -->
<!--zoomable 341 -->
<svg id="main" version="1.1" xmlns="http://www.w3.org/2000/svg" xmlns:xlink="http://www.w3.org/1999/xlink" xml:space="preserve" onload="init(evt)">
<style type="text/css"><![CDATA[
.edge:hover path { stroke: red; }
.edge:hover polygon { stroke: red; fill: red; }
]]></style>
<script type="text/javascript"><![CDATA[
var edges = document.getElementsByTagName('g');
if (edges && edges.length) {
  for (var i=0;i<edges.length;i++) {
    if (edges[i].id.substr(0,4)=='edge') {
      edges[i].setAttribute('class','edge');
    }
  }
}
]]></script>
        <defs>
                <circle id="rim" cx="0" cy="0" r="7"/>
                <circle id="rim2" cx="0" cy="0" r="3.5"/>
                <g id="zoomPlus">
                        <use xlink:href="#rim" fill="#404040">
                                <set attributeName="fill" to="#808080" begin="zoomplus.mouseover" end="zoomplus.mouseout"/>
                        </use>
                        <path d="M-4,0h8M0,-4v8" fill="none" stroke="white" stroke-width="1.5" pointer-events="none"/>
                </g>
                <g id="zoomMin">
                        <use xlink:href="#rim" fill="#404040">
                                <set attributeName="fill" to="#808080" begin="zoomminus.mouseover" end="zoomminus.mouseout"/>
                        </use>
                        <path d="M-4,0h8" fill="none" stroke="white" stroke-width="1.5" pointer-events="none"/>
                </g>
                <g id="dirArrow">
                        <path fill="none" stroke="white" stroke-width="1.5" d="M0,-3.0v7 M-2.5,-0.5L0,-3.0L2.5,-0.5"/>
                </g>
               <g id="resetDef">
                       <use xlink:href="#rim2" fill="#404040">
                               <set attributeName="fill" to="#808080" begin="reset.mouseover" end="reset.mouseout"/>
                       </use>
               </g>
        </defs>

<script type="text/javascript">
var viewWidth = 821;
var viewHeight = 341;
var sectionId = 'dynsection-0';
</script>
<script xlink:href="../../svgpan.js"/>
<svg id="graph" class="graph">
<g id="viewport">
<title>src/utils/math/blas/tests/matrix/MatrixPerformanceTests.cpp</title>
<polygon fill="white" stroke="transparent" points="-4,4 -4,-337 817,-337 817,4 -4,4"/>
<!-- Node1 -->
<g id="node1" class="node">
<title>Node1</title>
<g id="a_node1"><a xlink:title="This file contains performance tests for the MyBLAS::Matrix class.">
<polygon fill="#bfbfbf" stroke="black" points="485.5,-291.5 485.5,-332.5 661.5,-332.5 661.5,-291.5 485.5,-291.5"/>
<text text-anchor="start" x="493.5" y="-320.5" font-family="Helvetica,sans-Serif" font-size="10.00">src/utils/math/blas</text>
<text text-anchor="start" x="493.5" y="-309.5" font-family="Helvetica,sans-Serif" font-size="10.00">/tests/matrix/MatrixPerformance</text>
<text text-anchor="middle" x="573.5" y="-298.5" font-family="Helvetica,sans-Serif" font-size="10.00">Tests.cpp</text>
</a>
</g>
</g>
<!-- Node2 -->
<g id="node2" class="node">
<title>Node2</title>
<g id="a_node2"><a xlink:href="../../d3/db1/Matrix_8h.html" target="_top" xlink:title="Header file for the MyBLAS::Matrix class.">
<polygon fill="white" stroke="black" points="353.5,-235.5 353.5,-254.5 497.5,-254.5 497.5,-235.5 353.5,-235.5"/>
<text text-anchor="middle" x="425.5" y="-242.5" font-family="Helvetica,sans-Serif" font-size="10.00">math/blas/matrix/Matrix.h</text>
</a>
</g>
</g>
<!-- Node1&#45;&gt;Node2 -->
<g id="edge1" class="edge">
<title>Node1&#45;&gt;Node2</title>
<path fill="none" stroke="midnightblue" d="M529.1,-291.5C504.99,-280.91 475.86,-268.12 454.64,-258.8"/>
<polygon fill="midnightblue" stroke="midnightblue" points="455.76,-255.47 445.2,-254.65 452.95,-261.88 455.76,-255.47"/>
</g>
<!-- Node19 -->
<g id="node19" class="node">
<title>Node19</title>
<g id="a_node19"><a xlink:title=" ">
<polygon fill="white" stroke="#bfbfbf" points="515.5,-235.5 515.5,-254.5 565.5,-254.5 565.5,-235.5 515.5,-235.5"/>
<text text-anchor="middle" x="540.5" y="-242.5" font-family="Helvetica,sans-Serif" font-size="10.00">chrono</text>
</a>
</g>
</g>
<!-- Node1&#45;&gt;Node19 -->
<g id="edge31" class="edge">
<title>Node1&#45;&gt;Node19</title>
<path fill="none" stroke="midnightblue" d="M563.6,-291.5C559.12,-282.68 553.87,-272.34 549.51,-263.74"/>
<polygon fill="midnightblue" stroke="midnightblue" points="552.54,-261.98 544.89,-254.65 546.3,-265.15 552.54,-261.98"/>
</g>
<!-- Node20 -->
<g id="node20" class="node">
<title>Node20</title>
<g id="a_node20"><a xlink:title=" ">
<polygon fill="white" stroke="#bfbfbf" points="584,-235.5 584,-254.5 631,-254.5 631,-235.5 584,-235.5"/>
<text text-anchor="middle" x="607.5" y="-242.5" font-family="Helvetica,sans-Serif" font-size="10.00">cmath</text>
</a>
</g>
</g>
<!-- Node1&#45;&gt;Node20 -->
<g id="edge32" class="edge">
<title>Node1&#45;&gt;Node20</title>
<path fill="none" stroke="midnightblue" d="M583.7,-291.5C588.31,-282.68 593.72,-272.34 598.22,-263.74"/>
<polygon fill="midnightblue" stroke="midnightblue" points="601.44,-265.14 602.97,-254.65 595.24,-261.89 601.44,-265.14"/>
</g>
<!-- Node21 -->
<g id="node21" class="node">
<title>Node21</title>
<g id="a_node21"><a xlink:title=" ">
<polygon fill="white" stroke="#bfbfbf" points="649.5,-235.5 649.5,-254.5 727.5,-254.5 727.5,-235.5 649.5,-235.5"/>
<text text-anchor="middle" x="688.5" y="-242.5" font-family="Helvetica,sans-Serif" font-size="10.00">gtest/gtest.h</text>
</a>
</g>
</g>
<!-- Node1&#45;&gt;Node21 -->
<g id="edge33" class="edge">
<title>Node1&#45;&gt;Node21</title>
<path fill="none" stroke="midnightblue" d="M608,-291.5C626.14,-281.24 647.94,-268.93 664.27,-259.69"/>
<polygon fill="midnightblue" stroke="midnightblue" points="666.21,-262.62 673.19,-254.65 662.76,-256.53 666.21,-262.62"/>
</g>
<!-- Node3 -->
<g id="node3" class="node">
<title>Node3</title>
<g id="a_node3"><a xlink:title=" ">
<polygon fill="white" stroke="#bfbfbf" points="495.5,-62 495.5,-81 559.5,-81 559.5,-62 495.5,-62"/>
<text text-anchor="middle" x="527.5" y="-69" font-family="Helvetica,sans-Serif" font-size="10.00">algorithm</text>
</a>
</g>
</g>
<!-- Node2&#45;&gt;Node3 -->
<g id="edge2" class="edge">
<title>Node2&#45;&gt;Node3</title>
<path fill="none" stroke="midnightblue" d="M484.02,-235.43C525.37,-228.04 575.65,-215.88 588.5,-199 593.88,-191.93 590.79,-187.59 588.5,-179 583.54,-160.38 555.14,-114.9 538.89,-89.81"/>
<polygon fill="midnightblue" stroke="midnightblue" points="541.73,-87.76 533.34,-81.3 535.87,-91.59 541.73,-87.76"/>
</g>
<!-- Node4 -->
<g id="node4" class="node">
<title>Node4</title>
<g id="a_node4"><a xlink:title=" ">
<polygon fill="white" stroke="#bfbfbf" points="72.5,-123.5 72.5,-142.5 124.5,-142.5 124.5,-123.5 72.5,-123.5"/>
<text text-anchor="middle" x="98.5" y="-130.5" font-family="Helvetica,sans-Serif" font-size="10.00">cassert</text>
</a>
</g>
</g>
<!-- Node2&#45;&gt;Node4 -->
<g id="edge3" class="edge">
<title>Node2&#45;&gt;Node4</title>
<path fill="none" stroke="midnightblue" d="M353.48,-235.48C309.89,-228.8 253.78,-217.46 206.5,-199 173.47,-186.1 138.99,-163.5 118.12,-148.63"/>
<polygon fill="midnightblue" stroke="midnightblue" points="119.95,-145.64 109.8,-142.6 115.85,-151.31 119.95,-145.64"/>
</g>
<!-- Node5 -->
<g id="node5" class="node">
<title>Node5</title>
<g id="a_node5"><a xlink:title=" ">
<polygon fill="white" stroke="#bfbfbf" points="142.5,-123.5 142.5,-142.5 202.5,-142.5 202.5,-123.5 142.5,-123.5"/>
<text text-anchor="middle" x="172.5" y="-130.5" font-family="Helvetica,sans-Serif" font-size="10.00">iostream</text>
</a>
</g>
</g>
<!-- Node2&#45;&gt;Node5 -->
<g id="edge4" class="edge">
<title>Node2&#45;&gt;Node5</title>
<path fill="none" stroke="midnightblue" d="M353.38,-236.71C316.29,-230.61 271.46,-219.43 235.5,-199 214.45,-187.04 195.93,-165.94 184.51,-151.03"/>
<polygon fill="midnightblue" stroke="midnightblue" points="187.1,-148.66 178.35,-142.68 181.47,-152.81 187.1,-148.66"/>
</g>
<!-- Node6 -->
<g id="node6" class="node">
<title>Node6</title>
<g id="a_node6"><a xlink:title=" ">
<polygon fill="white" stroke="#bfbfbf" points="221,-123.5 221,-142.5 268,-142.5 268,-123.5 221,-123.5"/>
<text text-anchor="middle" x="244.5" y="-130.5" font-family="Helvetica,sans-Serif" font-size="10.00">vector</text>
</a>
</g>
</g>
<!-- Node2&#45;&gt;Node6 -->
<g id="edge5" class="edge">
<title>Node2&#45;&gt;Node6</title>
<path fill="none" stroke="midnightblue" d="M357.69,-235.49C313.15,-228.38 260.61,-216.54 246.5,-199 236.22,-186.23 236.96,-167.04 239.52,-152.82"/>
<polygon fill="midnightblue" stroke="midnightblue" points="243.02,-153.22 241.79,-142.69 236.19,-151.68 243.02,-153.22"/>
</g>
<!-- Node7 -->
<g id="node7" class="node">
<title>Node7</title>
<g id="a_node7"><a xlink:title=" ">
<polygon fill="white" stroke="#bfbfbf" points="577.5,-62 577.5,-81 663.5,-81 663.5,-62 577.5,-62"/>
<text text-anchor="middle" x="620.5" y="-69" font-family="Helvetica,sans-Serif" font-size="10.00">unordered_set</text>
</a>
</g>
</g>
<!-- Node2&#45;&gt;Node7 -->
<g id="edge6" class="edge">
<title>Node2&#45;&gt;Node7</title>
<path fill="none" stroke="midnightblue" d="M426.08,-235.1C427.36,-221.66 431.46,-195.96 444.5,-179 464.93,-152.43 550.04,-107.56 593.98,-85.51"/>
<polygon fill="midnightblue" stroke="midnightblue" points="595.56,-88.64 602.95,-81.05 592.44,-82.37 595.56,-88.64"/>
</g>
<!-- Node8 -->
<g id="node8" class="node">
<title>Node8</title>
<g id="a_node8"><a xlink:href="../../d1/d45/Constants_8h.html" target="_top" xlink:title="MyBLAS Constants definition.">
<polygon fill="white" stroke="black" points="453.5,-179.5 453.5,-198.5 579.5,-198.5 579.5,-179.5 453.5,-179.5"/>
<text text-anchor="middle" x="516.5" y="-186.5" font-family="Helvetica,sans-Serif" font-size="10.00">math/blas/Constants.h</text>
</a>
</g>
</g>
<!-- Node2&#45;&gt;Node8 -->
<g id="edge7" class="edge">
<title>Node2&#45;&gt;Node8</title>
<path fill="none" stroke="midnightblue" d="M440.12,-235.32C454.45,-226.82 476.51,-213.73 493.25,-203.8"/>
<polygon fill="midnightblue" stroke="midnightblue" points="495.1,-206.77 501.92,-198.65 491.53,-200.75 495.1,-206.77"/>
</g>
<!-- Node9 -->
<g id="node9" class="node">
<title>Node9</title>
<g id="a_node9"><a xlink:href="../../d6/dbe/Vector_8h.html" target="_top" xlink:title="Header file for the MyBLAS::Vector class.">
<polygon fill="white" stroke="black" points="256,-179.5 256,-198.5 397,-198.5 397,-179.5 256,-179.5"/>
<text text-anchor="middle" x="326.5" y="-186.5" font-family="Helvetica,sans-Serif" font-size="10.00">math/blas/vector/Vector.h</text>
</a>
</g>
</g>
<!-- Node2&#45;&gt;Node9 -->
<g id="edge8" class="edge">
<title>Node2&#45;&gt;Node9</title>
<path fill="none" stroke="midnightblue" d="M409.59,-235.32C393.86,-226.74 369.56,-213.49 351.29,-203.52"/>
<polygon fill="midnightblue" stroke="midnightblue" points="352.82,-200.37 342.37,-198.65 349.47,-206.52 352.82,-200.37"/>
</g>
<!-- Node17 -->
<g id="node17" class="node">
<title>Node17</title>
<g id="a_node17"><a xlink:href="../../dc/dc5/ResourceMonitor_8h.html" target="_top" xlink:title="Header file for the ResourceMonitor class.">
<polygon fill="white" stroke="black" points="582,-123.5 582,-142.5 727,-142.5 727,-123.5 582,-123.5"/>
<text text-anchor="middle" x="654.5" y="-130.5" font-family="Helvetica,sans-Serif" font-size="10.00">profiler/ResourceMonitor.h</text>
</a>
</g>
</g>
<!-- Node2&#45;&gt;Node17 -->
<g id="edge30" class="edge">
<title>Node2&#45;&gt;Node17</title>
<path fill="none" stroke="midnightblue" d="M481.16,-235.46C528.55,-227.72 591.94,-215.07 612.5,-199 627.57,-187.22 636.35,-166.7 642.86,-151.86"/>
<polygon fill="midnightblue" stroke="midnightblue" points="646.09,-153.22 647.06,-142.67 639.72,-150.31 646.09,-153.22"/>
</g>
<!-- Node9&#45;&gt;Node4 -->
<g id="edge9" class="edge">
<title>Node9&#45;&gt;Node4</title>
<path fill="none" stroke="midnightblue" d="M288.72,-179.46C251.82,-171.05 193.82,-157.69 134.73,-143.26"/>
<polygon fill="midnightblue" stroke="midnightblue" points="135.4,-139.82 124.86,-140.85 133.74,-146.62 135.4,-139.82"/>
</g>
<!-- Node9&#45;&gt;Node5 -->
<g id="edge12" class="edge">
<title>Node9&#45;&gt;Node5</title>
<path fill="none" stroke="midnightblue" d="M302.1,-179.44C276.3,-170.4 235.42,-156.06 206.48,-145.92"/>
<polygon fill="midnightblue" stroke="midnightblue" points="207.38,-142.52 196.79,-142.52 205.07,-149.13 207.38,-142.52"/>
</g>
<!-- Node9&#45;&gt;Node6 -->
<g id="edge13" class="edge">
<title>Node9&#45;&gt;Node6</title>
<path fill="none" stroke="midnightblue" d="M313.33,-179.32C300.65,-170.98 281.27,-158.21 266.29,-148.35"/>
<polygon fill="midnightblue" stroke="midnightblue" points="267.92,-145.23 257.64,-142.65 264.07,-151.08 267.92,-145.23"/>
</g>
<!-- Node10 -->
<g id="node10" class="node">
<title>Node10</title>
<g id="a_node10"><a xlink:title=" ">
<polygon fill="white" stroke="#bfbfbf" points="0,-62 0,-81 65,-81 65,-62 0,-62"/>
<text text-anchor="middle" x="32.5" y="-69" font-family="Helvetica,sans-Serif" font-size="10.00">functional</text>
</a>
</g>
</g>
<!-- Node9&#45;&gt;Node10 -->
<g id="edge10" class="edge">
<title>Node9&#45;&gt;Node10</title>
<path fill="none" stroke="midnightblue" d="M322.41,-179.16C315.27,-164.83 299.13,-136.74 276.5,-123 198.55,-75.67 162.76,-109.95 74.5,-87 71.46,-86.21 68.33,-85.31 65.21,-84.34"/>
<polygon fill="midnightblue" stroke="midnightblue" points="66,-80.92 55.41,-81.13 63.82,-87.57 66,-80.92"/>
</g>
<!-- Node11 -->
<g id="node11" class="node">
<title>Node11</title>
<g id="a_node11"><a xlink:title=" ">
<polygon fill="white" stroke="#bfbfbf" points="420.5,-123.5 420.5,-142.5 476.5,-142.5 476.5,-123.5 420.5,-123.5"/>
<text text-anchor="middle" x="448.5" y="-130.5" font-family="Helvetica,sans-Serif" font-size="10.00">iomanip</text>
</a>
</g>
</g>
<!-- Node9&#45;&gt;Node11 -->
<g id="edge11" class="edge">
<title>Node9&#45;&gt;Node11</title>
<path fill="none" stroke="midnightblue" d="M345.83,-179.44C365.82,-170.6 397.24,-156.69 420.06,-146.59"/>
<polygon fill="midnightblue" stroke="midnightblue" points="421.53,-149.76 429.26,-142.52 418.7,-143.36 421.53,-149.76"/>
</g>
<!-- Node12 -->
<g id="node12" class="node">
<title>Node12</title>
<g id="a_node12"><a xlink:href="../../de/dcb/LazyVector_8h.html" target="_top" xlink:title="Header file for the LazyVector class.">
<polygon fill="white" stroke="black" points="324.5,-123.5 324.5,-142.5 402.5,-142.5 402.5,-123.5 324.5,-123.5"/>
<text text-anchor="middle" x="363.5" y="-130.5" font-family="Helvetica,sans-Serif" font-size="10.00">LazyVector.h</text>
</a>
</g>
</g>
<!-- Node9&#45;&gt;Node12 -->
<g id="edge14" class="edge">
<title>Node9&#45;&gt;Node12</title>
<path fill="none" stroke="midnightblue" d="M327.44,-179.08C331.1,-171.38 338.5,-160.03 345.8,-150.65"/>
<polygon fill="midnightblue" stroke="midnightblue" points="348.67,-152.68 352.37,-142.75 343.29,-148.2 348.67,-152.68"/>
</g>
<!-- Node9&#45;&gt;Node17 -->
<g id="edge24" class="edge">
<title>Node9&#45;&gt;Node17</title>
<path fill="none" stroke="midnightblue" d="M378.47,-179.44C436.65,-169.87 530.86,-154.36 592.75,-144.17"/>
<polygon fill="midnightblue" stroke="midnightblue" points="593.47,-147.59 602.77,-142.52 592.33,-140.69 593.47,-147.59"/>
</g>
<!-- Node12&#45;&gt;Node3 -->
<g id="edge15" class="edge">
<title>Node12&#45;&gt;Node3</title>
<path fill="none" stroke="midnightblue" d="M387,-123.48C415.13,-113.27 462.43,-96.11 494.29,-84.55"/>
<polygon fill="midnightblue" stroke="midnightblue" points="495.84,-87.71 504.05,-81.01 493.45,-81.13 495.84,-87.71"/>
</g>
<!-- Node12&#45;&gt;Node9 -->
<g id="edge19" class="edge">
<title>Node12&#45;&gt;Node9</title>
<path fill="none" stroke="midnightblue" d="M362.63,-142.75C359.03,-150.4 351.66,-161.74 344.36,-171.14"/>
<polygon fill="midnightblue" stroke="midnightblue" points="341.46,-169.15 337.78,-179.08 346.85,-173.62 341.46,-169.15"/>
</g>
<!-- Node12&#45;&gt;Node10 -->
<g id="edge17" class="edge">
<title>Node12&#45;&gt;Node10</title>
<path fill="none" stroke="midnightblue" d="M324.44,-125.29C319.74,-124.51 315.01,-123.73 310.5,-123 205.75,-106.12 177.51,-112.42 74.5,-87 71.28,-86.21 67.96,-85.27 64.65,-84.26"/>
<polygon fill="midnightblue" stroke="midnightblue" points="65.54,-80.87 54.94,-81.09 63.36,-87.52 65.54,-80.87"/>
</g>
<!-- Node13 -->
<g id="node13" class="node">
<title>Node13</title>
<g id="a_node13"><a xlink:title=" ">
<polygon fill="white" stroke="#bfbfbf" points="389,-0.5 389,-19.5 442,-19.5 442,-0.5 389,-0.5"/>
<text text-anchor="middle" x="415.5" y="-7.5" font-family="Helvetica,sans-Serif" font-size="10.00">cstddef</text>
</a>
</g>
</g>
<!-- Node12&#45;&gt;Node13 -->
<g id="edge16" class="edge">
<title>Node12&#45;&gt;Node13</title>
<path fill="none" stroke="midnightblue" d="M397.3,-123.39C415.89,-116.74 437.39,-105.45 448.5,-87 460.14,-67.66 445.11,-43.47 431.73,-27.65"/>
<polygon fill="midnightblue" stroke="midnightblue" points="433.95,-24.88 424.65,-19.8 428.75,-29.57 433.95,-24.88"/>
</g>
<!-- Node14 -->
<g id="node14" class="node">
<title>Node14</title>
<g id="a_node14"><a xlink:title=" ">
<polygon fill="white" stroke="#bfbfbf" points="211.5,-62 211.5,-81 269.5,-81 269.5,-62 211.5,-62"/>
<text text-anchor="middle" x="240.5" y="-69" font-family="Helvetica,sans-Serif" font-size="10.00">memory</text>
</a>
</g>
</g>
<!-- Node12&#45;&gt;Node14 -->
<g id="edge18" class="edge">
<title>Node12&#45;&gt;Node14</title>
<path fill="none" stroke="midnightblue" d="M345.88,-123.48C325.33,-113.53 291.14,-96.99 267.29,-85.46"/>
<polygon fill="midnightblue" stroke="midnightblue" points="268.62,-82.21 258.09,-81.01 265.57,-88.51 268.62,-82.21"/>
</g>
<!-- Node15 -->
<g id="node15" class="node">
<title>Node15</title>
<g id="a_node15"><a xlink:href="../../d6/d9f/VectorExpression_8h.html" target="_top" xlink:title="Header file for the MyBLAS::VectorExpression class.">
<polygon fill="white" stroke="black" points="83.5,-62 83.5,-81 193.5,-81 193.5,-62 83.5,-62"/>
<text text-anchor="middle" x="138.5" y="-69" font-family="Helvetica,sans-Serif" font-size="10.00">VectorExpression.h</text>
</a>
</g>
</g>
<!-- Node12&#45;&gt;Node15 -->
<g id="edge20" class="edge">
<title>Node12&#45;&gt;Node15</title>
<path fill="none" stroke="midnightblue" d="M331.26,-123.48C291.58,-112.98 224.1,-95.14 180.43,-83.59"/>
<polygon fill="midnightblue" stroke="midnightblue" points="181.24,-80.18 170.68,-81.01 179.45,-86.95 181.24,-80.18"/>
</g>
<!-- Node16 -->
<g id="node16" class="node">
<title>Node16</title>
<g id="a_node16"><a xlink:href="../../d6/db1/ContainerExpression_8h.html" target="_top" xlink:title="Header file for the ContainerExpression class.">
<polygon fill="white" stroke="black" points="288,-56.5 288,-86.5 439,-86.5 439,-56.5 288,-56.5"/>
<text text-anchor="start" x="296" y="-74.5" font-family="Helvetica,sans-Serif" font-size="10.00">math/blas/matrix/Container</text>
<text text-anchor="middle" x="363.5" y="-63.5" font-family="Helvetica,sans-Serif" font-size="10.00">Expression.h</text>
</a>
</g>
</g>
<!-- Node12&#45;&gt;Node16 -->
<g id="edge22" class="edge">
<title>Node12&#45;&gt;Node16</title>
<path fill="none" stroke="midnightblue" d="M363.5,-123.48C363.5,-116.47 363.5,-106.19 363.5,-96.7"/>
<polygon fill="midnightblue" stroke="midnightblue" points="367,-96.52 363.5,-86.52 360,-96.52 367,-96.52"/>
</g>
<!-- Node15&#45;&gt;Node13 -->
<g id="edge21" class="edge">
<title>Node15&#45;&gt;Node13</title>
<path fill="none" stroke="midnightblue" d="M175.71,-61.97C184.49,-59.99 193.82,-57.9 202.5,-56 264.41,-42.45 336.6,-27.34 379.04,-18.53"/>
<polygon fill="midnightblue" stroke="midnightblue" points="379.83,-21.95 388.91,-16.49 378.41,-15.09 379.83,-21.95"/>
</g>
<!-- Node16&#45;&gt;Node13 -->
<g id="edge23" class="edge">
<title>Node16&#45;&gt;Node13</title>
<path fill="none" stroke="midnightblue" d="M375.82,-56.4C383.46,-47.66 393.29,-36.41 401.26,-27.3"/>
<polygon fill="midnightblue" stroke="midnightblue" points="403.99,-29.49 407.93,-19.66 398.72,-24.88 403.99,-29.49"/>
</g>
<!-- Node17&#45;&gt;Node2 -->
<g id="edge25" class="edge">
<title>Node17&#45;&gt;Node2</title>
<path fill="none" stroke="midnightblue" d="M658.16,-142.67C658.06,-156.76 649.05,-184.51 630.5,-199 611.23,-214.06 554.35,-226.11 505.32,-233.94"/>
<polygon fill="midnightblue" stroke="midnightblue" points="504.66,-230.5 495.32,-235.5 505.74,-237.42 504.66,-230.5"/>
</g>
<!-- Node17&#45;&gt;Node3 -->
<g id="edge26" class="edge">
<title>Node17&#45;&gt;Node3</title>
<path fill="none" stroke="midnightblue" d="M636.3,-123.48C614.99,-113.49 579.47,-96.85 554.84,-85.31"/>
<polygon fill="midnightblue" stroke="midnightblue" points="556.2,-82.08 545.66,-81.01 553.23,-88.42 556.2,-82.08"/>
</g>
<!-- Node17&#45;&gt;Node7 -->
<g id="edge28" class="edge">
<title>Node17&#45;&gt;Node7</title>
<path fill="none" stroke="midnightblue" d="M649.63,-123.48C644.63,-114.73 636.71,-100.87 630.39,-89.81"/>
<polygon fill="midnightblue" stroke="midnightblue" points="633.36,-87.96 625.36,-81.01 627.28,-91.43 633.36,-87.96"/>
</g>
<!-- Node17&#45;&gt;Node13 -->
<g id="edge27" class="edge">
<title>Node17&#45;&gt;Node13</title>
<path fill="none" stroke="midnightblue" d="M660.78,-123.38C671.13,-108.04 689.07,-75.73 672.5,-56 644.83,-23.06 516.76,-14.23 452.49,-11.86"/>
<polygon fill="midnightblue" stroke="midnightblue" points="452.49,-8.36 442.38,-11.53 452.26,-15.36 452.49,-8.36"/>
</g>
<!-- Node18 -->
<g id="node18" class="node">
<title>Node18</title>
<g id="a_node18"><a xlink:title=" ">
<polygon fill="white" stroke="#bfbfbf" points="720,-62 720,-81 813,-81 813,-62 720,-62"/>
<text text-anchor="middle" x="766.5" y="-69" font-family="Helvetica,sans-Serif" font-size="10.00">unordered_map</text>
</a>
</g>
</g>
<!-- Node17&#45;&gt;Node18 -->
<g id="edge29" class="edge">
<title>Node17&#45;&gt;Node18</title>
<path fill="none" stroke="midnightblue" d="M670.55,-123.48C689.09,-113.62 719.84,-97.29 741.52,-85.77"/>
<polygon fill="midnightblue" stroke="midnightblue" points="743.29,-88.79 750.48,-81.01 740.01,-82.61 743.29,-88.79"/>
</g>
</g>
</svg>
        <g id="navigator" transform="translate(0 0)" fill="#404254">
                <rect fill="#f2f5e9" fill-opacity="0.5" stroke="#606060" stroke-width=".5" x="0" y="0" width="60" height="60"/>
                <use id="zoomplus" xlink:href="#zoomPlus" x="17" y="9" onmousedown="handleZoom(evt,'in')"/>
                <use id="zoomminus" xlink:href="#zoomMin" x="42" y="9" onmousedown="handleZoom(evt,'out')"/>
                <use id="reset" xlink:href="#resetDef" x="30" y="36" onmousedown="handleReset()"/>
                <g id="arrowUp" xlink:href="#dirArrow" transform="translate(30 24)" onmousedown="handlePan(0,-1)">
                  <use xlink:href="#rim" fill="#404040">
                        <set attributeName="fill" to="#808080" begin="arrowUp.mouseover" end="arrowUp.mouseout"/>
                  </use>
                  <path fill="none" stroke="white" stroke-width="1.5" d="M0,-3.0v7 M-2.5,-0.5L0,-3.0L2.5,-0.5"/>
                </g>
                <g id="arrowRight" xlink:href="#dirArrow" transform="rotate(90) translate(36 -43)" onmousedown="handlePan(1,0)">
                  <use xlink:href="#rim" fill="#404040">
                        <set attributeName="fill" to="#808080" begin="arrowRight.mouseover" end="arrowRight.mouseout"/>
                  </use>
                  <path fill="none" stroke="white" stroke-width="1.5" d="M0,-3.0v7 M-2.5,-0.5L0,-3.0L2.5,-0.5"/>
                </g>
                <g id="arrowDown" xlink:href="#dirArrow" transform="rotate(180) translate(-30 -48)" onmousedown="handlePan(0,1)">
                  <use xlink:href="#rim" fill="#404040">
                        <set attributeName="fill" to="#808080" begin="arrowDown.mouseover" end="arrowDown.mouseout"/>
                  </use>
                  <path fill="none" stroke="white" stroke-width="1.5" d="M0,-3.0v7 M-2.5,-0.5L0,-3.0L2.5,-0.5"/>
                </g>
                <g id="arrowLeft" xlink:href="#dirArrow" transform="rotate(270) translate(-36 17)" onmousedown="handlePan(-1,0)">
                  <use xlink:href="#rim" fill="#404040">
                        <set attributeName="fill" to="#808080" begin="arrowLeft.mouseover" end="arrowLeft.mouseout"/>
                  </use>
                  <path fill="none" stroke="white" stroke-width="1.5" d="M0,-3.0v7 M-2.5,-0.5L0,-3.0L2.5,-0.5"/>
                </g>
        </g>
        <svg viewBox="0 0 15 15" width="100%" height="30px" preserveAspectRatio="xMaxYMin meet">
         <g id="arrow_out" transform="scale(0.3 0.3)">
          <a xlink:href="MatrixPerformanceTests_8cpp__incl_org.svg" target="_base">
           <rect id="button" ry="5" rx="5" y="6" x="6" height="38" width="38"
                fill="#f2f5e9" fill-opacity="0.5" stroke="#606060" stroke-width="1.0"/>
           <path id="arrow"
             d="M 11.500037,31.436501 C 11.940474,20.09759 22.043105,11.32322 32.158766,21.979434 L 37.068811,17.246167 C 37.068811,17.246167 37.088388,32 37.088388,32 L 22.160133,31.978069 C 22.160133,31.978069 26.997745,27.140456 26.997745,27.140456 C 18.528582,18.264221 13.291696,25.230495 11.500037,31.436501 z"
             style="fill:#404040;"/>
          </a>
         </g>
        </svg>
</svg>
