<?xml version="1.0" encoding="UTF-8" standalone="no"?>
<!DOCTYPE svg PUBLIC "-//W3C//DTD SVG 1.1//EN"
 "http://www.w3.org/Graphics/SVG/1.1/DTD/svg11.dtd">
<!-- Generated by graphviz version 2.43.0 (0)
 -->
<!-- Title: MyPhysics::Diffusion::Matrix&lt; MyBLAS::Matrix&lt; T &gt; &gt; Pages: 1 -->
<svg width="151pt" height="237pt"
 viewBox="0.00 0.00 151.00 237.00" xmlns="http://www.w3.org/2000/svg" xmlns:xlink="http://www.w3.org/1999/xlink">
<g id="graph0" class="graph" transform="scale(1 1) rotate(0) translate(4 233)">
<title>MyPhysics::Diffusion::Matrix&lt; MyBLAS::Matrix&lt; T &gt; &gt;</title>
<polygon fill="white" stroke="transparent" points="-4,4 -4,-233 147,-233 147,4 -4,4"/>
<!-- Node1 -->
<g id="node1" class="node">
<title>Node1</title>
<g id="a_node1"><a xlink:title=" ">
<polygon fill="#bfbfbf" stroke="black" points="0,-0.5 0,-112.5 143,-112.5 143,-0.5 0,-0.5"/>
<text text-anchor="start" x="8" y="-100.5" font-family="Helvetica,sans-Serif" font-size="10.00">MyPhysics::Diffusion</text>
<text text-anchor="start" x="8" y="-89.5" font-family="Helvetica,sans-Serif" font-size="10.00">::Matrix&lt; MyBLAS::Matrix</text>
<text text-anchor="middle" x="71.5" y="-78.5" font-family="Helvetica,sans-Serif" font-size="10.00">&lt; T &gt; &gt;</text>
<polyline fill="none" stroke="black" points="0,-71.5 143,-71.5 "/>
<text text-anchor="start" x="8" y="-59.5" font-family="Helvetica,sans-Serif" font-size="10.00">&#45; _params</text>
<text text-anchor="start" x="8" y="-48.5" font-family="Helvetica,sans-Serif" font-size="10.00">and 2 more...</text>
<polyline fill="none" stroke="black" points="0,-41.5 143,-41.5 "/>
<text text-anchor="start" x="8" y="-29.5" font-family="Helvetica,sans-Serif" font-size="10.00">+ Matrix()</text>
<text text-anchor="start" x="8" y="-18.5" font-family="Helvetica,sans-Serif" font-size="10.00">and 8 more...</text>
<text text-anchor="start" x="8" y="-7.5" font-family="Helvetica,sans-Serif" font-size="10.00">+ generate()</text>
</a>
</g>
</g>
<!-- Node2 -->
<g id="node2" class="node">
<title>Node2</title>
<g id="a_node2"><a xlink:href="../../d0/d27/classMyBLAS_1_1Matrix.html" target="_top" xlink:title=" ">
<polygon fill="white" stroke="black" points="10,-149.5 10,-228.5 133,-228.5 133,-149.5 10,-149.5"/>
<text text-anchor="middle" x="71.5" y="-216.5" font-family="Helvetica,sans-Serif" font-size="10.00">MyBLAS::Matrix&lt; T &gt;</text>
<polyline fill="none" stroke="black" points="10,-209.5 133,-209.5 "/>
<text text-anchor="start" x="18" y="-197.5" font-family="Helvetica,sans-Serif" font-size="10.00"># data</text>
<polyline fill="none" stroke="black" points="10,-190.5 133,-190.5 "/>
<text text-anchor="start" x="18" y="-178.5" font-family="Helvetica,sans-Serif" font-size="10.00">+ Matrix()</text>
<text text-anchor="start" x="18" y="-167.5" font-family="Helvetica,sans-Serif" font-size="10.00">and 25 more...</text>
<text text-anchor="start" x="18" y="-156.5" font-family="Helvetica,sans-Serif" font-size="10.00">+ eye()</text>
</a>
</g>
</g>
<!-- Node2&#45;&gt;Node1 -->
<g id="edge1" class="edge">
<title>Node2&#45;&gt;Node1</title>
<path fill="none" stroke="midnightblue" d="M71.5,-139.01C71.5,-130.46 71.5,-121.52 71.5,-112.81"/>
<polygon fill="none" stroke="midnightblue" points="68,-139.2 71.5,-149.2 75,-139.2 68,-139.2"/>
</g>
</g>
</svg>
