<?xml version="1.0" encoding="UTF-8" standalone="no"?>
<!DOCTYPE svg PUBLIC "-//W3C//DTD SVG 1.1//EN"
 "http://www.w3.org/Graphics/SVG/1.1/DTD/svg11.dtd">
<!-- Generated by graphviz version 2.43.0 (0)
 -->
<!-- Title: src/utils/Project.h Pages: 1 -->
<svg width="3805pt" height="229pt"
 viewBox="0.00 0.00 3804.50 229.00" xmlns="http://www.w3.org/2000/svg" xmlns:xlink="http://www.w3.org/1999/xlink">
<g id="graph0" class="graph" transform="scale(1 1) rotate(0) translate(4 225)">
<title>src/utils/Project.h</title>
<polygon fill="white" stroke="transparent" points="-4,4 -4,-225 3800.5,-225 3800.5,4 -4,4"/>
<!-- Node1 -->
<g id="node1" class="node">
<title>Node1</title>
<g id="a_node1"><a xlink:title="This file contains the definition of the Project class template. The Project class is a generic class...">
<polygon fill="#bfbfbf" stroke="black" points="2160,-201.5 2160,-220.5 2261,-220.5 2261,-201.5 2160,-201.5"/>
<text text-anchor="middle" x="2210.5" y="-208.5" font-family="Helvetica,sans-Serif" font-size="10.00">src/utils/Project.h</text>
</a>
</g>
</g>
<!-- Node2 -->
<g id="node2" class="node">
<title>Node2</title>
<g id="a_node2"><a xlink:href="../../df/d53/inlab1_8h.html" target="_top" xlink:title=" ">
<polygon fill="white" stroke="black" points="5,-140 5,-159 134,-159 134,-140 5,-140"/>
<text text-anchor="middle" x="69.5" y="-147" font-family="Helvetica,sans-Serif" font-size="10.00">src/labs/inlab1/inlab1.h</text>
</a>
</g>
</g>
<!-- Node1&#45;&gt;Node2 -->
<g id="edge1" class="edge">
<title>Node1&#45;&gt;Node2</title>
<path fill="none" stroke="midnightblue" d="M2149.37,-210.09C1851.17,-210.29 547.1,-208.61 143.5,-165 131.4,-163.69 118.32,-161.42 106.58,-159.06"/>
<polygon fill="midnightblue" stroke="midnightblue" points="2149.56,-213.59 2159.55,-210.08 2149.55,-206.59 2149.56,-213.59"/>
</g>
<!-- Node4 -->
<g id="node4" class="node">
<title>Node4</title>
<g id="a_node4"><a xlink:href="../../d9/dc1/inlab10_8h.html" target="_top" xlink:title=" ">
<polygon fill="white" stroke="black" points="153,-140 153,-159 294,-159 294,-140 153,-140"/>
<text text-anchor="middle" x="223.5" y="-147" font-family="Helvetica,sans-Serif" font-size="10.00">src/labs/inlab10/inlab10.h</text>
</a>
</g>
</g>
<!-- Node1&#45;&gt;Node4 -->
<g id="edge3" class="edge">
<title>Node1&#45;&gt;Node4</title>
<path fill="none" stroke="midnightblue" d="M2149.57,-209.84C1866.06,-208.9 674.1,-202.73 303.5,-165 290.44,-163.67 276.31,-161.39 263.61,-159.03"/>
<polygon fill="midnightblue" stroke="midnightblue" points="2149.65,-213.34 2159.66,-209.87 2149.68,-206.34 2149.65,-213.34"/>
</g>
<!-- Node6 -->
<g id="node6" class="node">
<title>Node6</title>
<g id="a_node6"><a xlink:href="../../db/d2d/inlab11_8h.html" target="_top" xlink:title=" ">
<polygon fill="white" stroke="black" points="313,-140 313,-159 454,-159 454,-140 313,-140"/>
<text text-anchor="middle" x="383.5" y="-147" font-family="Helvetica,sans-Serif" font-size="10.00">src/labs/inlab11/inlab11.h</text>
</a>
</g>
</g>
<!-- Node1&#45;&gt;Node6 -->
<g id="edge5" class="edge">
<title>Node1&#45;&gt;Node6</title>
<path fill="none" stroke="midnightblue" d="M2149.65,-209.63C1881.44,-207.83 803.32,-198.58 466.5,-165 452.96,-163.65 438.31,-161.37 425.13,-159.01"/>
<polygon fill="midnightblue" stroke="midnightblue" points="2149.94,-213.13 2159.96,-209.7 2149.98,-206.13 2149.94,-213.13"/>
</g>
<!-- Node8 -->
<g id="node8" class="node">
<title>Node8</title>
<g id="a_node8"><a xlink:href="../../d2/de9/inlab12_8h.html" target="_top" xlink:title=" ">
<polygon fill="white" stroke="black" points="476,-140 476,-159 617,-159 617,-140 476,-140"/>
<text text-anchor="middle" x="546.5" y="-147" font-family="Helvetica,sans-Serif" font-size="10.00">src/labs/inlab12/inlab12.h</text>
</a>
</g>
</g>
<!-- Node1&#45;&gt;Node8 -->
<g id="edge7" class="edge">
<title>Node1&#45;&gt;Node8</title>
<path fill="none" stroke="midnightblue" d="M2149.91,-209.5C1897.7,-207.24 930.12,-196.65 626.5,-165 613.58,-163.65 599.62,-161.4 587.03,-159.07"/>
<polygon fill="midnightblue" stroke="midnightblue" points="2149.95,-213 2159.99,-209.59 2150.02,-206 2149.95,-213"/>
</g>
<!-- Node10 -->
<g id="node10" class="node">
<title>Node10</title>
<g id="a_node10"><a xlink:href="../../d6/d20/inlab2_8h.html" target="_top" xlink:title=" ">
<polygon fill="white" stroke="black" points="636,-140 636,-159 765,-159 765,-140 636,-140"/>
<text text-anchor="middle" x="700.5" y="-147" font-family="Helvetica,sans-Serif" font-size="10.00">src/labs/inlab2/inlab2.h</text>
</a>
</g>
</g>
<!-- Node1&#45;&gt;Node10 -->
<g id="edge9" class="edge">
<title>Node1&#45;&gt;Node10</title>
<path fill="none" stroke="midnightblue" d="M2149.58,-209.32C1912.42,-206.5 1050.5,-194.38 778.5,-165 765.9,-163.64 752.28,-161.38 740.01,-159.05"/>
<polygon fill="midnightblue" stroke="midnightblue" points="2149.7,-212.82 2159.74,-209.44 2149.78,-205.83 2149.7,-212.82"/>
</g>
<!-- Node12 -->
<g id="node12" class="node">
<title>Node12</title>
<g id="a_node12"><a xlink:href="../../d6/de0/inlab3_8h.html" target="_top" xlink:title=" ">
<polygon fill="white" stroke="black" points="788,-140 788,-159 917,-159 917,-140 788,-140"/>
<text text-anchor="middle" x="852.5" y="-147" font-family="Helvetica,sans-Serif" font-size="10.00">src/labs/inlab3/inlab3.h</text>
</a>
</g>
</g>
<!-- Node1&#45;&gt;Node12 -->
<g id="edge11" class="edge">
<title>Node1&#45;&gt;Node12</title>
<path fill="none" stroke="midnightblue" d="M2149.84,-209.11C1929.18,-205.66 1169.64,-192.07 928.5,-165 916.22,-163.62 902.95,-161.36 890.99,-159.03"/>
<polygon fill="midnightblue" stroke="midnightblue" points="2149.88,-212.61 2159.93,-209.26 2149.99,-205.61 2149.88,-212.61"/>
</g>
<!-- Node14 -->
<g id="node14" class="node">
<title>Node14</title>
<g id="a_node14"><a xlink:href="../../d3/d2e/inlab4_8h.html" target="_top" xlink:title=" ">
<polygon fill="white" stroke="black" points="938,-140 938,-159 1067,-159 1067,-140 938,-140"/>
<text text-anchor="middle" x="1002.5" y="-147" font-family="Helvetica,sans-Serif" font-size="10.00">src/labs/inlab4/inlab4.h</text>
</a>
</g>
</g>
<!-- Node1&#45;&gt;Node14 -->
<g id="edge13" class="edge">
<title>Node1&#45;&gt;Node14</title>
<path fill="none" stroke="midnightblue" d="M2149.77,-208.85C1945.82,-204.78 1286.4,-189.97 1075.5,-165 1063.69,-163.6 1050.95,-161.34 1039.46,-159.01"/>
<polygon fill="midnightblue" stroke="midnightblue" points="2149.92,-212.35 2159.99,-209.05 2150.06,-205.35 2149.92,-212.35"/>
</g>
<!-- Node16 -->
<g id="node16" class="node">
<title>Node16</title>
<g id="a_node16"><a xlink:href="../../dd/da5/inlab5_8h.html" target="_top" xlink:title=" ">
<polygon fill="white" stroke="black" points="1085,-140 1085,-159 1214,-159 1214,-140 1085,-140"/>
<text text-anchor="middle" x="1149.5" y="-147" font-family="Helvetica,sans-Serif" font-size="10.00">src/labs/inlab5/inlab5.h</text>
</a>
</g>
</g>
<!-- Node1&#45;&gt;Node16 -->
<g id="edge15" class="edge">
<title>Node1&#45;&gt;Node16</title>
<path fill="none" stroke="midnightblue" d="M2149.63,-210.41C1994.43,-210.75 1571.58,-207.37 1222.5,-165 1210.83,-163.58 1198.23,-161.34 1186.84,-159.04"/>
<polygon fill="midnightblue" stroke="midnightblue" points="2149.91,-213.9 2159.9,-210.38 2149.89,-206.9 2149.91,-213.9"/>
</g>
<!-- Node18 -->
<g id="node18" class="node">
<title>Node18</title>
<g id="a_node18"><a xlink:href="../../d3/deb/outlab1_8h.html" target="_top" xlink:title="Entrypoint for outlab1, contains the OutLab1 implementation of LabProject.">
<polygon fill="white" stroke="black" points="1232,-140 1232,-159 1375,-159 1375,-140 1232,-140"/>
<text text-anchor="middle" x="1303.5" y="-147" font-family="Helvetica,sans-Serif" font-size="10.00">src/labs/outlab1/outlab1.h</text>
</a>
</g>
</g>
<!-- Node1&#45;&gt;Node18 -->
<g id="edge17" class="edge">
<title>Node1&#45;&gt;Node18</title>
<path fill="none" stroke="midnightblue" d="M2149.67,-209.29C2012.51,-207.11 1668.82,-198.49 1383.5,-165 1370.88,-163.52 1357.25,-161.29 1344.87,-159.02"/>
<polygon fill="midnightblue" stroke="midnightblue" points="2149.92,-212.79 2159.97,-209.44 2150.02,-205.79 2149.92,-212.79"/>
</g>
<!-- Node20 -->
<g id="node20" class="node">
<title>Node20</title>
<g id="a_node20"><a xlink:href="../../d8/d48/inlab6_8h.html" target="_top" xlink:title=" ">
<polygon fill="white" stroke="black" points="1393,-140 1393,-159 1522,-159 1522,-140 1393,-140"/>
<text text-anchor="middle" x="1457.5" y="-147" font-family="Helvetica,sans-Serif" font-size="10.00">src/labs/inlab6/inlab6.h</text>
</a>
</g>
</g>
<!-- Node1&#45;&gt;Node20 -->
<g id="edge19" class="edge">
<title>Node1&#45;&gt;Node20</title>
<path fill="none" stroke="midnightblue" d="M2149.93,-208.63C2030.81,-205.36 1757.88,-194.98 1530.5,-165 1519.1,-163.5 1506.8,-161.29 1495.61,-159.04"/>
<polygon fill="midnightblue" stroke="midnightblue" points="2149.86,-212.13 2159.95,-208.9 2150.05,-205.13 2149.86,-212.13"/>
</g>
<!-- Node22 -->
<g id="node22" class="node">
<title>Node22</title>
<g id="a_node22"><a xlink:href="../../df/dcd/outlab10_8h.html" target="_top" xlink:title=" ">
<polygon fill="white" stroke="black" points="1540,-140 1540,-159 1695,-159 1695,-140 1540,-140"/>
<text text-anchor="middle" x="1617.5" y="-147" font-family="Helvetica,sans-Serif" font-size="10.00">src/labs/outlab10/outlab10.h</text>
</a>
</g>
</g>
<!-- Node1&#45;&gt;Node22 -->
<g id="edge21" class="edge">
<title>Node1&#45;&gt;Node22</title>
<path fill="none" stroke="midnightblue" d="M2149.96,-206.17C2054.72,-199.8 1864.17,-185.64 1703.5,-165 1690.73,-163.36 1676.97,-161.21 1664.27,-159.07"/>
<polygon fill="midnightblue" stroke="midnightblue" points="2149.78,-209.67 2159.99,-206.84 2150.24,-202.68 2149.78,-209.67"/>
</g>
<!-- Node24 -->
<g id="node24" class="node">
<title>Node24</title>
<g id="a_node24"><a xlink:href="../../d3/dbf/outlab11_8h.html" target="_top" xlink:title=" ">
<polygon fill="white" stroke="black" points="1713,-140 1713,-159 1868,-159 1868,-140 1713,-140"/>
<text text-anchor="middle" x="1790.5" y="-147" font-family="Helvetica,sans-Serif" font-size="10.00">src/labs/outlab11/outlab11.h</text>
</a>
</g>
</g>
<!-- Node1&#45;&gt;Node24 -->
<g id="edge23" class="edge">
<title>Node1&#45;&gt;Node24</title>
<path fill="none" stroke="midnightblue" d="M2149.82,-202.44C2082.83,-193.95 1971.83,-179.45 1876.5,-165 1864.52,-163.18 1851.63,-161.09 1839.57,-159.06"/>
<polygon fill="midnightblue" stroke="midnightblue" points="2149.42,-205.92 2159.78,-203.7 2150.3,-198.97 2149.42,-205.92"/>
</g>
<!-- Node26 -->
<g id="node26" class="node">
<title>Node26</title>
<g id="a_node26"><a xlink:href="../../d6/dc3/outlab12_8h.html" target="_top" xlink:title=" ">
<polygon fill="white" stroke="black" points="1886,-140 1886,-159 2041,-159 2041,-140 1886,-140"/>
<text text-anchor="middle" x="1963.5" y="-147" font-family="Helvetica,sans-Serif" font-size="10.00">src/labs/outlab12/outlab12.h</text>
</a>
</g>
</g>
<!-- Node1&#45;&gt;Node26 -->
<g id="edge25" class="edge">
<title>Node1&#45;&gt;Node26</title>
<path fill="none" stroke="midnightblue" d="M2165.31,-199.11C2117.37,-187.57 2042.63,-169.56 1998.82,-159.01"/>
<polygon fill="midnightblue" stroke="midnightblue" points="2164.57,-202.54 2175.11,-201.48 2166.21,-195.73 2164.57,-202.54"/>
</g>
<!-- Node28 -->
<g id="node28" class="node">
<title>Node28</title>
<g id="a_node28"><a xlink:href="../../d9/d34/outlab2_8h.html" target="_top" xlink:title=" ">
<polygon fill="white" stroke="black" points="2059,-140 2059,-159 2202,-159 2202,-140 2059,-140"/>
<text text-anchor="middle" x="2130.5" y="-147" font-family="Helvetica,sans-Serif" font-size="10.00">src/labs/outlab2/outlab2.h</text>
</a>
</g>
</g>
<!-- Node1&#45;&gt;Node28 -->
<g id="edge27" class="edge">
<title>Node1&#45;&gt;Node28</title>
<path fill="none" stroke="midnightblue" d="M2190.73,-195.29C2175.38,-183.88 2154.64,-168.46 2141.94,-159.01"/>
<polygon fill="midnightblue" stroke="midnightblue" points="2188.93,-198.32 2199.04,-201.48 2193.1,-192.7 2188.93,-198.32"/>
</g>
<!-- Node30 -->
<g id="node30" class="node">
<title>Node30</title>
<g id="a_node30"><a xlink:href="../../d6/de6/outlab3_8h.html" target="_top" xlink:title=" ">
<polygon fill="white" stroke="black" points="2220,-140 2220,-159 2363,-159 2363,-140 2220,-140"/>
<text text-anchor="middle" x="2291.5" y="-147" font-family="Helvetica,sans-Serif" font-size="10.00">src/labs/outlab3/outlab3.h</text>
</a>
</g>
</g>
<!-- Node1&#45;&gt;Node30 -->
<g id="edge29" class="edge">
<title>Node1&#45;&gt;Node30</title>
<path fill="none" stroke="midnightblue" d="M2230.52,-195.29C2246.06,-183.88 2267.05,-168.46 2279.92,-159.01"/>
<polygon fill="midnightblue" stroke="midnightblue" points="2228.09,-192.73 2222.11,-201.48 2232.24,-198.38 2228.09,-192.73"/>
</g>
<!-- Node32 -->
<g id="node32" class="node">
<title>Node32</title>
<g id="a_node32"><a xlink:href="../../da/dd1/outlab4_8h.html" target="_top" xlink:title=" ">
<polygon fill="white" stroke="black" points="2381,-140 2381,-159 2524,-159 2524,-140 2381,-140"/>
<text text-anchor="middle" x="2452.5" y="-147" font-family="Helvetica,sans-Serif" font-size="10.00">src/labs/outlab4/outlab4.h</text>
</a>
</g>
</g>
<!-- Node1&#45;&gt;Node32 -->
<g id="edge31" class="edge">
<title>Node1&#45;&gt;Node32</title>
<path fill="none" stroke="midnightblue" d="M2255.07,-199.04C2302.05,-187.49 2375.06,-169.54 2417.89,-159.01"/>
<polygon fill="midnightblue" stroke="midnightblue" points="2254.05,-195.69 2245.17,-201.48 2255.72,-202.49 2254.05,-195.69"/>
</g>
<!-- Node34 -->
<g id="node34" class="node">
<title>Node34</title>
<g id="a_node34"><a xlink:href="../../dc/d83/outlab5_8h.html" target="_top" xlink:title=" ">
<polygon fill="white" stroke="black" points="2542,-140 2542,-159 2685,-159 2685,-140 2542,-140"/>
<text text-anchor="middle" x="2613.5" y="-147" font-family="Helvetica,sans-Serif" font-size="10.00">src/labs/outlab5/outlab5.h</text>
</a>
</g>
</g>
<!-- Node1&#45;&gt;Node34 -->
<g id="edge33" class="edge">
<title>Node1&#45;&gt;Node34</title>
<path fill="none" stroke="midnightblue" d="M2271.1,-202.23C2335.9,-193.77 2441.62,-179.48 2532.5,-165 2543.93,-163.18 2556.23,-161.06 2567.72,-159.01"/>
<polygon fill="midnightblue" stroke="midnightblue" points="2270.53,-198.78 2261.06,-203.54 2271.43,-205.72 2270.53,-198.78"/>
</g>
<!-- Node36 -->
<g id="node36" class="node">
<title>Node36</title>
<g id="a_node36"><a xlink:href="../../df/df9/outlab6_8h.html" target="_top" xlink:title=" ">
<polygon fill="white" stroke="black" points="2703,-140 2703,-159 2846,-159 2846,-140 2703,-140"/>
<text text-anchor="middle" x="2774.5" y="-147" font-family="Helvetica,sans-Serif" font-size="10.00">src/labs/outlab6/outlab6.h</text>
</a>
</g>
</g>
<!-- Node1&#45;&gt;Node36 -->
<g id="edge35" class="edge">
<title>Node1&#45;&gt;Node36</title>
<path fill="none" stroke="midnightblue" d="M2271.28,-205.99C2363.03,-199.56 2542.23,-185.55 2693.5,-165 2705.67,-163.35 2718.81,-161.17 2730.89,-159"/>
<polygon fill="midnightblue" stroke="midnightblue" points="2270.81,-202.51 2261.07,-206.7 2271.29,-209.5 2270.81,-202.51"/>
</g>
<!-- Node38 -->
<g id="node38" class="node">
<title>Node38</title>
<g id="a_node38"><a xlink:href="../../d3/df7/project1_8h.html" target="_top" xlink:title=" ">
<polygon fill="white" stroke="black" points="2864.5,-134.5 2864.5,-164.5 2974.5,-164.5 2974.5,-134.5 2864.5,-134.5"/>
<text text-anchor="start" x="2872.5" y="-152.5" font-family="Helvetica,sans-Serif" font-size="10.00">src/project/project1</text>
<text text-anchor="middle" x="2919.5" y="-141.5" font-family="Helvetica,sans-Serif" font-size="10.00">/project1.h</text>
</a>
</g>
</g>
<!-- Node1&#45;&gt;Node38 -->
<g id="edge37" class="edge">
<title>Node1&#45;&gt;Node38</title>
<path fill="none" stroke="midnightblue" d="M2271.62,-208.77C2386.41,-205.79 2641.82,-195.97 2854.5,-165 2857.7,-164.53 2860.98,-164 2864.29,-163.41"/>
<polygon fill="midnightblue" stroke="midnightblue" points="2271.2,-205.28 2261.29,-209.03 2271.37,-212.28 2271.2,-205.28"/>
</g>
<!-- Node40 -->
<g id="node40" class="node">
<title>Node40</title>
<g id="a_node40"><a xlink:href="../../dd/df8/project_2project2_2InputsOutputs_8h.html" target="_top" xlink:title="This file contains the input and output definitions for this project.">
<polygon fill="white" stroke="black" points="2992.5,-134.5 2992.5,-164.5 3102.5,-164.5 3102.5,-134.5 2992.5,-134.5"/>
<text text-anchor="start" x="3000.5" y="-152.5" font-family="Helvetica,sans-Serif" font-size="10.00">src/project/project2</text>
<text text-anchor="middle" x="3047.5" y="-141.5" font-family="Helvetica,sans-Serif" font-size="10.00">/InputsOutputs.h</text>
</a>
</g>
</g>
<!-- Node1&#45;&gt;Node40 -->
<g id="edge39" class="edge">
<title>Node1&#45;&gt;Node40</title>
<path fill="none" stroke="midnightblue" d="M2271.67,-209.85C2402.8,-208.78 2720.42,-202.2 2983.5,-165 2986.43,-164.59 2989.43,-164.11 2992.45,-163.58"/>
<polygon fill="midnightblue" stroke="midnightblue" points="2271.41,-206.35 2261.43,-209.93 2271.46,-213.35 2271.41,-206.35"/>
</g>
<!-- Node41 -->
<g id="node41" class="node">
<title>Node41</title>
<g id="a_node41"><a xlink:href="../../dc/d79/project2_8h.html" target="_top" xlink:title=" ">
<polygon fill="white" stroke="black" points="3030.5,-67.5 3030.5,-97.5 3140.5,-97.5 3140.5,-67.5 3030.5,-67.5"/>
<text text-anchor="start" x="3038.5" y="-85.5" font-family="Helvetica,sans-Serif" font-size="10.00">src/project/project2</text>
<text text-anchor="middle" x="3085.5" y="-74.5" font-family="Helvetica,sans-Serif" font-size="10.00">/project2.h</text>
</a>
</g>
</g>
<!-- Node1&#45;&gt;Node41 -->
<g id="edge42" class="edge">
<title>Node1&#45;&gt;Node41</title>
<path fill="none" stroke="midnightblue" d="M2271.47,-209.24C2469.35,-206.46 3082.55,-195.43 3111.5,-165 3129.21,-146.38 3111.11,-115.71 3097.51,-97.78"/>
<polygon fill="midnightblue" stroke="midnightblue" points="2271.21,-205.74 2261.26,-209.38 2271.3,-212.74 2271.21,-205.74"/>
</g>
<!-- Node43 -->
<g id="node43" class="node">
<title>Node43</title>
<g id="a_node43"><a xlink:href="../../d4/d6a/project_2project3_2InputsOutputs_8h.html" target="_top" xlink:title="This file contains the input and output definitions for this project.">
<polygon fill="white" stroke="black" points="3158.5,-134.5 3158.5,-164.5 3268.5,-164.5 3268.5,-134.5 3158.5,-134.5"/>
<text text-anchor="start" x="3166.5" y="-152.5" font-family="Helvetica,sans-Serif" font-size="10.00">src/project/project3</text>
<text text-anchor="middle" x="3213.5" y="-141.5" font-family="Helvetica,sans-Serif" font-size="10.00">/InputsOutputs.h</text>
</a>
</g>
</g>
<!-- Node1&#45;&gt;Node43 -->
<g id="edge43" class="edge">
<title>Node1&#45;&gt;Node43</title>
<path fill="none" stroke="midnightblue" d="M2271.45,-210.41C2420.89,-210.67 2817.23,-207 3144.5,-165 3148.99,-164.42 3153.63,-163.71 3158.27,-162.91"/>
<polygon fill="midnightblue" stroke="midnightblue" points="2271.13,-206.9 2261.12,-210.38 2271.11,-213.9 2271.13,-206.9"/>
</g>
<!-- Node44 -->
<g id="node44" class="node">
<title>Node44</title>
<g id="a_node44"><a xlink:href="../../da/d0a/project3_8h.html" target="_top" xlink:title=" ">
<polygon fill="white" stroke="black" points="3177.5,-67.5 3177.5,-97.5 3287.5,-97.5 3287.5,-67.5 3177.5,-67.5"/>
<text text-anchor="start" x="3185.5" y="-85.5" font-family="Helvetica,sans-Serif" font-size="10.00">src/project/project3</text>
<text text-anchor="middle" x="3232.5" y="-74.5" font-family="Helvetica,sans-Serif" font-size="10.00">/project3.h</text>
</a>
</g>
</g>
<!-- Node1&#45;&gt;Node44 -->
<g id="edge46" class="edge">
<title>Node1&#45;&gt;Node44</title>
<path fill="none" stroke="midnightblue" d="M2271.25,-209.73C2492.26,-208.47 3242.51,-201.5 3277.5,-165 3296.74,-144.93 3269.81,-115.04 3250.07,-97.58"/>
<polygon fill="midnightblue" stroke="midnightblue" points="2271.11,-206.23 2261.13,-209.79 2271.15,-213.23 2271.11,-206.23"/>
</g>
<!-- Node46 -->
<g id="node46" class="node">
<title>Node46</title>
<g id="a_node46"><a xlink:href="../../dd/df4/project_2project4_2InputsOutputs_8h.html" target="_top" xlink:title="This file contains the input and output definitions for this project.">
<polygon fill="white" stroke="black" points="3324.5,-134.5 3324.5,-164.5 3434.5,-164.5 3434.5,-134.5 3324.5,-134.5"/>
<text text-anchor="start" x="3332.5" y="-152.5" font-family="Helvetica,sans-Serif" font-size="10.00">src/project/project4</text>
<text text-anchor="middle" x="3379.5" y="-141.5" font-family="Helvetica,sans-Serif" font-size="10.00">/InputsOutputs.h</text>
</a>
</g>
</g>
<!-- Node1&#45;&gt;Node46 -->
<g id="edge47" class="edge">
<title>Node1&#45;&gt;Node46</title>
<path fill="none" stroke="midnightblue" d="M2271.07,-208.85C2470.71,-204.85 3106.83,-190.39 3310.5,-165 3314.99,-164.44 3319.63,-163.74 3324.27,-162.95"/>
<polygon fill="midnightblue" stroke="midnightblue" points="2270.99,-205.35 2261.06,-209.05 2271.12,-212.35 2270.99,-205.35"/>
</g>
<!-- Node47 -->
<g id="node47" class="node">
<title>Node47</title>
<g id="a_node47"><a xlink:href="../../d9/d80/project4_8h.html" target="_top" xlink:title=" ">
<polygon fill="white" stroke="red" points="3343.5,-67.5 3343.5,-97.5 3453.5,-97.5 3453.5,-67.5 3343.5,-67.5"/>
<text text-anchor="start" x="3351.5" y="-85.5" font-family="Helvetica,sans-Serif" font-size="10.00">src/project/project4</text>
<text text-anchor="middle" x="3398.5" y="-74.5" font-family="Helvetica,sans-Serif" font-size="10.00">/project4.h</text>
</a>
</g>
</g>
<!-- Node1&#45;&gt;Node47 -->
<g id="edge49" class="edge">
<title>Node1&#45;&gt;Node47</title>
<path fill="none" stroke="midnightblue" d="M2271.2,-210.1C2513.76,-210.18 3402.44,-207.59 3443.5,-165 3462.8,-144.99 3435.85,-115.08 3416.09,-97.6"/>
<polygon fill="midnightblue" stroke="midnightblue" points="2271.15,-206.6 2261.15,-210.09 2271.15,-213.6 2271.15,-206.6"/>
</g>
<!-- Node49 -->
<g id="node48" class="node">
<title>Node49</title>
<g id="a_node48"><a xlink:href="../../d1/d77/project_2project5_2InputsOutputs_8h.html" target="_top" xlink:title="This file contains the input and output definitions for this project.">
<polygon fill="white" stroke="black" points="3490.5,-134.5 3490.5,-164.5 3600.5,-164.5 3600.5,-134.5 3490.5,-134.5"/>
<text text-anchor="start" x="3498.5" y="-152.5" font-family="Helvetica,sans-Serif" font-size="10.00">src/project/project5</text>
<text text-anchor="middle" x="3545.5" y="-141.5" font-family="Helvetica,sans-Serif" font-size="10.00">/InputsOutputs.h</text>
</a>
</g>
</g>
<!-- Node1&#45;&gt;Node49 -->
<g id="edge50" class="edge">
<title>Node1&#45;&gt;Node49</title>
<path fill="none" stroke="midnightblue" d="M2271.17,-209.22C2490.08,-206.21 3238.9,-193.97 3476.5,-165 3481,-164.45 3485.63,-163.76 3490.28,-162.98"/>
<polygon fill="midnightblue" stroke="midnightblue" points="2271.1,-205.72 2261.15,-209.36 2271.19,-212.72 2271.1,-205.72"/>
</g>
<!-- Node50 -->
<g id="node49" class="node">
<title>Node50</title>
<g id="a_node49"><a xlink:href="../../d9/dde/project5_8h.html" target="_top" xlink:title=" ">
<polygon fill="white" stroke="red" points="3531.5,-67.5 3531.5,-97.5 3641.5,-97.5 3641.5,-67.5 3531.5,-67.5"/>
<text text-anchor="start" x="3539.5" y="-85.5" font-family="Helvetica,sans-Serif" font-size="10.00">src/project/project5</text>
<text text-anchor="middle" x="3586.5" y="-74.5" font-family="Helvetica,sans-Serif" font-size="10.00">/project5.h</text>
</a>
</g>
</g>
<!-- Node1&#45;&gt;Node50 -->
<g id="edge52" class="edge">
<title>Node1&#45;&gt;Node50</title>
<path fill="none" stroke="midnightblue" d="M2271.39,-210.37C2534.46,-211.69 3562.35,-213.69 3609.5,-165 3627.3,-146.62 3610.27,-115.58 3597.55,-97.57"/>
<polygon fill="midnightblue" stroke="midnightblue" points="2271.28,-206.87 2261.26,-210.32 2271.24,-213.87 2271.28,-206.87"/>
</g>
<!-- Node52 -->
<g id="node50" class="node">
<title>Node52</title>
<g id="a_node50"><a xlink:href="../../d7/d50/MPIProject_8h.html" target="_top" xlink:title="This file contains the definition of the MPIProject class, which is a template class for creating MPI...">
<polygon fill="white" stroke="red" points="3656.5,-140 3656.5,-159 3796.5,-159 3796.5,-140 3656.5,-140"/>
<text text-anchor="middle" x="3726.5" y="-147" font-family="Helvetica,sans-Serif" font-size="10.00">src/utils/mpi/MPIProject.h</text>
</a>
</g>
</g>
<!-- Node1&#45;&gt;Node52 -->
<g id="edge53" class="edge">
<title>Node1&#45;&gt;Node52</title>
<path fill="none" stroke="midnightblue" d="M2271.41,-209.22C2508.53,-206 3370.32,-192.63 3642.5,-165 3656.05,-163.62 3670.7,-161.37 3683.93,-159.03"/>
<polygon fill="midnightblue" stroke="midnightblue" points="2271.2,-205.72 2261.25,-209.36 2271.3,-212.72 2271.2,-205.72"/>
</g>
<!-- Node3 -->
<g id="node3" class="node">
<title>Node3</title>
<g id="a_node3"><a xlink:href="../../d3/d70/labs_2inlab1_2main_8cpp.html" target="_top" xlink:title=" ">
<polygon fill="white" stroke="black" points="0,-73 0,-92 135,-92 135,-73 0,-73"/>
<text text-anchor="middle" x="67.5" y="-80" font-family="Helvetica,sans-Serif" font-size="10.00">src/labs/inlab1/main.cpp</text>
</a>
</g>
</g>
<!-- Node2&#45;&gt;Node3 -->
<g id="edge2" class="edge">
<title>Node2&#45;&gt;Node3</title>
<path fill="none" stroke="midnightblue" d="M68.92,-129.54C68.54,-117.17 68.06,-101.62 67.77,-92.13"/>
<polygon fill="midnightblue" stroke="midnightblue" points="65.42,-129.85 69.23,-139.73 72.42,-129.63 65.42,-129.85"/>
</g>
<!-- Node5 -->
<g id="node5" class="node">
<title>Node5</title>
<g id="a_node5"><a xlink:href="../../dd/d41/labs_2inlab10_2main_8cpp.html" target="_top" xlink:title=" ">
<polygon fill="white" stroke="black" points="153,-73 153,-92 294,-92 294,-73 153,-73"/>
<text text-anchor="middle" x="223.5" y="-80" font-family="Helvetica,sans-Serif" font-size="10.00">src/labs/inlab10/main.cpp</text>
</a>
</g>
</g>
<!-- Node4&#45;&gt;Node5 -->
<g id="edge4" class="edge">
<title>Node4&#45;&gt;Node5</title>
<path fill="none" stroke="midnightblue" d="M223.5,-129.54C223.5,-117.17 223.5,-101.62 223.5,-92.13"/>
<polygon fill="midnightblue" stroke="midnightblue" points="220,-129.73 223.5,-139.73 227,-129.73 220,-129.73"/>
</g>
<!-- Node7 -->
<g id="node7" class="node">
<title>Node7</title>
<g id="a_node7"><a xlink:href="../../dc/d8f/labs_2inlab11_2main_8cpp.html" target="_top" xlink:title=" ">
<polygon fill="white" stroke="black" points="312,-73 312,-92 453,-92 453,-73 312,-73"/>
<text text-anchor="middle" x="382.5" y="-80" font-family="Helvetica,sans-Serif" font-size="10.00">src/labs/inlab11/main.cpp</text>
</a>
</g>
</g>
<!-- Node6&#45;&gt;Node7 -->
<g id="edge6" class="edge">
<title>Node6&#45;&gt;Node7</title>
<path fill="none" stroke="midnightblue" d="M383.21,-129.54C383.02,-117.17 382.78,-101.62 382.63,-92.13"/>
<polygon fill="midnightblue" stroke="midnightblue" points="379.71,-129.79 383.37,-139.73 386.71,-129.68 379.71,-129.79"/>
</g>
<!-- Node9 -->
<g id="node9" class="node">
<title>Node9</title>
<g id="a_node9"><a xlink:href="../../db/d97/labs_2inlab12_2main_8cpp.html" target="_top" xlink:title=" ">
<polygon fill="white" stroke="black" points="471,-73 471,-92 612,-92 612,-73 471,-73"/>
<text text-anchor="middle" x="541.5" y="-80" font-family="Helvetica,sans-Serif" font-size="10.00">src/labs/inlab12/main.cpp</text>
</a>
</g>
</g>
<!-- Node8&#45;&gt;Node9 -->
<g id="edge8" class="edge">
<title>Node8&#45;&gt;Node9</title>
<path fill="none" stroke="midnightblue" d="M545.04,-129.54C544.09,-117.17 542.89,-101.62 542.16,-92.13"/>
<polygon fill="midnightblue" stroke="midnightblue" points="541.57,-130.03 545.83,-139.73 548.55,-129.49 541.57,-130.03"/>
</g>
<!-- Node11 -->
<g id="node11" class="node">
<title>Node11</title>
<g id="a_node11"><a xlink:href="../../de/d2e/labs_2inlab2_2main_8cpp.html" target="_top" xlink:title=" ">
<polygon fill="white" stroke="black" points="630,-73 630,-92 765,-92 765,-73 630,-73"/>
<text text-anchor="middle" x="697.5" y="-80" font-family="Helvetica,sans-Serif" font-size="10.00">src/labs/inlab2/main.cpp</text>
</a>
</g>
</g>
<!-- Node10&#45;&gt;Node11 -->
<g id="edge10" class="edge">
<title>Node10&#45;&gt;Node11</title>
<path fill="none" stroke="midnightblue" d="M699.62,-129.54C699.05,-117.17 698.34,-101.62 697.9,-92.13"/>
<polygon fill="midnightblue" stroke="midnightblue" points="696.14,-129.91 700.1,-139.73 703.13,-129.58 696.14,-129.91"/>
</g>
<!-- Node13 -->
<g id="node13" class="node">
<title>Node13</title>
<g id="a_node13"><a xlink:href="../../db/db9/labs_2inlab3_2main_8cpp.html" target="_top" xlink:title=" ">
<polygon fill="white" stroke="black" points="783,-73 783,-92 918,-92 918,-73 783,-73"/>
<text text-anchor="middle" x="850.5" y="-80" font-family="Helvetica,sans-Serif" font-size="10.00">src/labs/inlab3/main.cpp</text>
</a>
</g>
</g>
<!-- Node12&#45;&gt;Node13 -->
<g id="edge12" class="edge">
<title>Node12&#45;&gt;Node13</title>
<path fill="none" stroke="midnightblue" d="M851.92,-129.54C851.54,-117.17 851.06,-101.62 850.77,-92.13"/>
<polygon fill="midnightblue" stroke="midnightblue" points="848.42,-129.85 852.23,-139.73 855.42,-129.63 848.42,-129.85"/>
</g>
<!-- Node15 -->
<g id="node15" class="node">
<title>Node15</title>
<g id="a_node15"><a xlink:href="../../dc/dac/labs_2inlab4_2main_8cpp.html" target="_top" xlink:title=" ">
<polygon fill="white" stroke="black" points="936,-73 936,-92 1071,-92 1071,-73 936,-73"/>
<text text-anchor="middle" x="1003.5" y="-80" font-family="Helvetica,sans-Serif" font-size="10.00">src/labs/inlab4/main.cpp</text>
</a>
</g>
</g>
<!-- Node14&#45;&gt;Node15 -->
<g id="edge14" class="edge">
<title>Node14&#45;&gt;Node15</title>
<path fill="none" stroke="midnightblue" d="M1002.79,-129.54C1002.98,-117.17 1003.22,-101.62 1003.37,-92.13"/>
<polygon fill="midnightblue" stroke="midnightblue" points="999.29,-129.68 1002.63,-139.73 1006.29,-129.79 999.29,-129.68"/>
</g>
<!-- Node17 -->
<g id="node17" class="node">
<title>Node17</title>
<g id="a_node17"><a xlink:href="../../d4/db3/labs_2inlab5_2main_8cpp.html" target="_top" xlink:title=" ">
<polygon fill="white" stroke="black" points="1089,-73 1089,-92 1224,-92 1224,-73 1089,-73"/>
<text text-anchor="middle" x="1156.5" y="-80" font-family="Helvetica,sans-Serif" font-size="10.00">src/labs/inlab5/main.cpp</text>
</a>
</g>
</g>
<!-- Node16&#45;&gt;Node17 -->
<g id="edge16" class="edge">
<title>Node16&#45;&gt;Node17</title>
<path fill="none" stroke="midnightblue" d="M1151.54,-129.54C1152.87,-117.17 1154.55,-101.62 1155.57,-92.13"/>
<polygon fill="midnightblue" stroke="midnightblue" points="1148.03,-129.42 1150.44,-139.73 1154.99,-130.17 1148.03,-129.42"/>
</g>
<!-- Node19 -->
<g id="node19" class="node">
<title>Node19</title>
<g id="a_node19"><a xlink:href="../../d7/dd0/labs_2outlab1_2main_8cpp.html" target="_top" xlink:title=" ">
<polygon fill="white" stroke="black" points="1242.5,-73 1242.5,-92 1384.5,-92 1384.5,-73 1242.5,-73"/>
<text text-anchor="middle" x="1313.5" y="-80" font-family="Helvetica,sans-Serif" font-size="10.00">src/labs/outlab1/main.cpp</text>
</a>
</g>
</g>
<!-- Node18&#45;&gt;Node19 -->
<g id="edge18" class="edge">
<title>Node18&#45;&gt;Node19</title>
<path fill="none" stroke="midnightblue" d="M1306.42,-129.54C1308.32,-117.17 1310.71,-101.62 1312.17,-92.13"/>
<polygon fill="midnightblue" stroke="midnightblue" points="1302.91,-129.32 1304.85,-139.73 1309.83,-130.38 1302.91,-129.32"/>
</g>
<!-- Node21 -->
<g id="node21" class="node">
<title>Node21</title>
<g id="a_node21"><a xlink:href="../../d2/d34/labs_2inlab6_2main_8cpp.html" target="_top" xlink:title=" ">
<polygon fill="white" stroke="black" points="1403,-73 1403,-92 1538,-92 1538,-73 1403,-73"/>
<text text-anchor="middle" x="1470.5" y="-80" font-family="Helvetica,sans-Serif" font-size="10.00">src/labs/inlab6/main.cpp</text>
</a>
</g>
</g>
<!-- Node20&#45;&gt;Node21 -->
<g id="edge20" class="edge">
<title>Node20&#45;&gt;Node21</title>
<path fill="none" stroke="midnightblue" d="M1461.22,-129.91C1463.7,-117.49 1466.86,-101.72 1468.77,-92.13"/>
<polygon fill="midnightblue" stroke="midnightblue" points="1457.78,-129.24 1459.25,-139.73 1464.65,-130.61 1457.78,-129.24"/>
</g>
<!-- Node23 -->
<g id="node23" class="node">
<title>Node23</title>
<g id="a_node23"><a xlink:href="../../dc/d8a/labs_2outlab10_2main_8cpp.html" target="_top" xlink:title=" ">
<polygon fill="white" stroke="black" points="1556.5,-73 1556.5,-92 1704.5,-92 1704.5,-73 1556.5,-73"/>
<text text-anchor="middle" x="1630.5" y="-80" font-family="Helvetica,sans-Serif" font-size="10.00">src/labs/outlab10/main.cpp</text>
</a>
</g>
</g>
<!-- Node22&#45;&gt;Node23 -->
<g id="edge22" class="edge">
<title>Node22&#45;&gt;Node23</title>
<path fill="none" stroke="midnightblue" d="M1621.22,-129.91C1623.7,-117.49 1626.86,-101.72 1628.77,-92.13"/>
<polygon fill="midnightblue" stroke="midnightblue" points="1617.78,-129.24 1619.25,-139.73 1624.65,-130.61 1617.78,-129.24"/>
</g>
<!-- Node25 -->
<g id="node25" class="node">
<title>Node25</title>
<g id="a_node25"><a xlink:href="../../d2/d48/labs_2outlab11_2main_8cpp.html" target="_top" xlink:title=" ">
<polygon fill="white" stroke="black" points="1722.5,-73 1722.5,-92 1870.5,-92 1870.5,-73 1722.5,-73"/>
<text text-anchor="middle" x="1796.5" y="-80" font-family="Helvetica,sans-Serif" font-size="10.00">src/labs/outlab11/main.cpp</text>
</a>
</g>
</g>
<!-- Node24&#45;&gt;Node25 -->
<g id="edge24" class="edge">
<title>Node24&#45;&gt;Node25</title>
<path fill="none" stroke="midnightblue" d="M1792.25,-129.54C1793.39,-117.17 1794.83,-101.62 1795.7,-92.13"/>
<polygon fill="midnightblue" stroke="midnightblue" points="1788.74,-129.45 1791.31,-139.73 1795.71,-130.1 1788.74,-129.45"/>
</g>
<!-- Node27 -->
<g id="node27" class="node">
<title>Node27</title>
<g id="a_node27"><a xlink:href="../../df/d73/labs_2outlab12_2main_8cpp.html" target="_top" xlink:title=" ">
<polygon fill="white" stroke="black" points="1889.5,-73 1889.5,-92 2037.5,-92 2037.5,-73 1889.5,-73"/>
<text text-anchor="middle" x="1963.5" y="-80" font-family="Helvetica,sans-Serif" font-size="10.00">src/labs/outlab12/main.cpp</text>
</a>
</g>
</g>
<!-- Node26&#45;&gt;Node27 -->
<g id="edge26" class="edge">
<title>Node26&#45;&gt;Node27</title>
<path fill="none" stroke="midnightblue" d="M1963.5,-129.54C1963.5,-117.17 1963.5,-101.62 1963.5,-92.13"/>
<polygon fill="midnightblue" stroke="midnightblue" points="1960,-129.73 1963.5,-139.73 1967,-129.73 1960,-129.73"/>
</g>
<!-- Node29 -->
<g id="node29" class="node">
<title>Node29</title>
<g id="a_node29"><a xlink:href="../../dc/ddd/labs_2outlab2_2main_8cpp.html" target="_top" xlink:title=" ">
<polygon fill="white" stroke="black" points="2059.5,-73 2059.5,-92 2201.5,-92 2201.5,-73 2059.5,-73"/>
<text text-anchor="middle" x="2130.5" y="-80" font-family="Helvetica,sans-Serif" font-size="10.00">src/labs/outlab2/main.cpp</text>
</a>
</g>
</g>
<!-- Node28&#45;&gt;Node29 -->
<g id="edge28" class="edge">
<title>Node28&#45;&gt;Node29</title>
<path fill="none" stroke="midnightblue" d="M2130.5,-129.54C2130.5,-117.17 2130.5,-101.62 2130.5,-92.13"/>
<polygon fill="midnightblue" stroke="midnightblue" points="2127,-129.73 2130.5,-139.73 2134,-129.73 2127,-129.73"/>
</g>
<!-- Node31 -->
<g id="node31" class="node">
<title>Node31</title>
<g id="a_node31"><a xlink:href="../../d1/d68/labs_2outlab3_2main_8cpp.html" target="_top" xlink:title=" ">
<polygon fill="white" stroke="black" points="2220.5,-73 2220.5,-92 2362.5,-92 2362.5,-73 2220.5,-73"/>
<text text-anchor="middle" x="2291.5" y="-80" font-family="Helvetica,sans-Serif" font-size="10.00">src/labs/outlab3/main.cpp</text>
</a>
</g>
</g>
<!-- Node30&#45;&gt;Node31 -->
<g id="edge30" class="edge">
<title>Node30&#45;&gt;Node31</title>
<path fill="none" stroke="midnightblue" d="M2291.5,-129.54C2291.5,-117.17 2291.5,-101.62 2291.5,-92.13"/>
<polygon fill="midnightblue" stroke="midnightblue" points="2288,-129.73 2291.5,-139.73 2295,-129.73 2288,-129.73"/>
</g>
<!-- Node33 -->
<g id="node33" class="node">
<title>Node33</title>
<g id="a_node33"><a xlink:href="../../d2/d65/labs_2outlab4_2main_8cpp.html" target="_top" xlink:title=" ">
<polygon fill="white" stroke="black" points="2381.5,-73 2381.5,-92 2523.5,-92 2523.5,-73 2381.5,-73"/>
<text text-anchor="middle" x="2452.5" y="-80" font-family="Helvetica,sans-Serif" font-size="10.00">src/labs/outlab4/main.cpp</text>
</a>
</g>
</g>
<!-- Node32&#45;&gt;Node33 -->
<g id="edge32" class="edge">
<title>Node32&#45;&gt;Node33</title>
<path fill="none" stroke="midnightblue" d="M2452.5,-129.54C2452.5,-117.17 2452.5,-101.62 2452.5,-92.13"/>
<polygon fill="midnightblue" stroke="midnightblue" points="2449,-129.73 2452.5,-139.73 2456,-129.73 2449,-129.73"/>
</g>
<!-- Node35 -->
<g id="node35" class="node">
<title>Node35</title>
<g id="a_node35"><a xlink:href="../../dc/d4f/labs_2outlab5_2main_8cpp.html" target="_top" xlink:title=" ">
<polygon fill="white" stroke="black" points="2542.5,-73 2542.5,-92 2684.5,-92 2684.5,-73 2542.5,-73"/>
<text text-anchor="middle" x="2613.5" y="-80" font-family="Helvetica,sans-Serif" font-size="10.00">src/labs/outlab5/main.cpp</text>
</a>
</g>
</g>
<!-- Node34&#45;&gt;Node35 -->
<g id="edge34" class="edge">
<title>Node34&#45;&gt;Node35</title>
<path fill="none" stroke="midnightblue" d="M2613.5,-129.54C2613.5,-117.17 2613.5,-101.62 2613.5,-92.13"/>
<polygon fill="midnightblue" stroke="midnightblue" points="2610,-129.73 2613.5,-139.73 2617,-129.73 2610,-129.73"/>
</g>
<!-- Node37 -->
<g id="node37" class="node">
<title>Node37</title>
<g id="a_node37"><a xlink:href="../../d4/d5d/labs_2outlab6_2main_8cpp.html" target="_top" xlink:title=" ">
<polygon fill="white" stroke="black" points="2703.5,-73 2703.5,-92 2845.5,-92 2845.5,-73 2703.5,-73"/>
<text text-anchor="middle" x="2774.5" y="-80" font-family="Helvetica,sans-Serif" font-size="10.00">src/labs/outlab6/main.cpp</text>
</a>
</g>
</g>
<!-- Node36&#45;&gt;Node37 -->
<g id="edge36" class="edge">
<title>Node36&#45;&gt;Node37</title>
<path fill="none" stroke="midnightblue" d="M2774.5,-129.54C2774.5,-117.17 2774.5,-101.62 2774.5,-92.13"/>
<polygon fill="midnightblue" stroke="midnightblue" points="2771,-129.73 2774.5,-139.73 2778,-129.73 2771,-129.73"/>
</g>
<!-- Node39 -->
<g id="node39" class="node">
<title>Node39</title>
<g id="a_node39"><a xlink:href="../../d2/d85/project_2project1_2main_8cpp.html" target="_top" xlink:title=" ">
<polygon fill="white" stroke="black" points="2864.5,-67.5 2864.5,-97.5 2974.5,-97.5 2974.5,-67.5 2864.5,-67.5"/>
<text text-anchor="start" x="2872.5" y="-85.5" font-family="Helvetica,sans-Serif" font-size="10.00">src/project/project1</text>
<text text-anchor="middle" x="2919.5" y="-74.5" font-family="Helvetica,sans-Serif" font-size="10.00">/main.cpp</text>
</a>
</g>
</g>
<!-- Node38&#45;&gt;Node39 -->
<g id="edge38" class="edge">
<title>Node38&#45;&gt;Node39</title>
<path fill="none" stroke="midnightblue" d="M2919.5,-124.11C2919.5,-115.15 2919.5,-105.32 2919.5,-97.58"/>
<polygon fill="midnightblue" stroke="midnightblue" points="2916,-124.4 2919.5,-134.4 2923,-124.4 2916,-124.4"/>
</g>
<!-- Node40&#45;&gt;Node41 -->
<g id="edge40" class="edge">
<title>Node40&#45;&gt;Node41</title>
<path fill="none" stroke="midnightblue" d="M3060.9,-125.58C3066.36,-116.24 3072.49,-105.75 3077.27,-97.58"/>
<polygon fill="midnightblue" stroke="midnightblue" points="3057.77,-124 3055.75,-134.4 3063.81,-127.53 3057.77,-124"/>
</g>
<!-- Node42 -->
<g id="node42" class="node">
<title>Node42</title>
<g id="a_node42"><a xlink:href="../../dd/d48/project_2project2_2main_8cpp.html" target="_top" xlink:title=" ">
<polygon fill="white" stroke="black" points="3030.5,-0.5 3030.5,-30.5 3140.5,-30.5 3140.5,-0.5 3030.5,-0.5"/>
<text text-anchor="start" x="3038.5" y="-18.5" font-family="Helvetica,sans-Serif" font-size="10.00">src/project/project2</text>
<text text-anchor="middle" x="3085.5" y="-7.5" font-family="Helvetica,sans-Serif" font-size="10.00">/main.cpp</text>
</a>
</g>
</g>
<!-- Node41&#45;&gt;Node42 -->
<g id="edge41" class="edge">
<title>Node41&#45;&gt;Node42</title>
<path fill="none" stroke="midnightblue" d="M3085.5,-57.11C3085.5,-48.15 3085.5,-38.32 3085.5,-30.58"/>
<polygon fill="midnightblue" stroke="midnightblue" points="3082,-57.4 3085.5,-67.4 3089,-57.4 3082,-57.4"/>
</g>
<!-- Node43&#45;&gt;Node44 -->
<g id="edge44" class="edge">
<title>Node43&#45;&gt;Node44</title>
<path fill="none" stroke="midnightblue" d="M3220.46,-124.7C3223.12,-115.59 3226.07,-105.49 3228.39,-97.58"/>
<polygon fill="midnightblue" stroke="midnightblue" points="3217.07,-123.82 3217.62,-134.4 3223.79,-125.78 3217.07,-123.82"/>
</g>
<!-- Node45 -->
<g id="node45" class="node">
<title>Node45</title>
<g id="a_node45"><a xlink:href="../../de/ddf/project_2project3_2main_8cpp.html" target="_top" xlink:title=" ">
<polygon fill="white" stroke="black" points="3177.5,-0.5 3177.5,-30.5 3287.5,-30.5 3287.5,-0.5 3177.5,-0.5"/>
<text text-anchor="start" x="3185.5" y="-18.5" font-family="Helvetica,sans-Serif" font-size="10.00">src/project/project3</text>
<text text-anchor="middle" x="3232.5" y="-7.5" font-family="Helvetica,sans-Serif" font-size="10.00">/main.cpp</text>
</a>
</g>
</g>
<!-- Node44&#45;&gt;Node45 -->
<g id="edge45" class="edge">
<title>Node44&#45;&gt;Node45</title>
<path fill="none" stroke="midnightblue" d="M3232.5,-57.11C3232.5,-48.15 3232.5,-38.32 3232.5,-30.58"/>
<polygon fill="midnightblue" stroke="midnightblue" points="3229,-57.4 3232.5,-67.4 3236,-57.4 3229,-57.4"/>
</g>
<!-- Node46&#45;&gt;Node47 -->
<g id="edge48" class="edge">
<title>Node46&#45;&gt;Node47</title>
<path fill="none" stroke="midnightblue" d="M3386.46,-124.7C3389.12,-115.59 3392.07,-105.49 3394.39,-97.58"/>
<polygon fill="midnightblue" stroke="midnightblue" points="3383.07,-123.82 3383.62,-134.4 3389.79,-125.78 3383.07,-123.82"/>
</g>
<!-- Node49&#45;&gt;Node50 -->
<g id="edge51" class="edge">
<title>Node49&#45;&gt;Node50</title>
<path fill="none" stroke="midnightblue" d="M3559.78,-125.87C3565.71,-116.46 3572.41,-105.83 3577.62,-97.58"/>
<polygon fill="midnightblue" stroke="midnightblue" points="3556.77,-124.07 3554.4,-134.4 3562.69,-127.81 3556.77,-124.07"/>
</g>
</g>
</svg>
