<?xml version="1.0" encoding="UTF-8" standalone="no"?>
<!DOCTYPE svg PUBLIC "-//W3C//DTD SVG 1.1//EN"
 "http://www.w3.org/Graphics/SVG/1.1/DTD/svg11.dtd">
<!-- Generated by graphviz version 2.43.0 (0)
 -->
<!-- Title: OutLab1::run Pages: 1 -->
<svg width="423pt" height="298pt"
 viewBox="0.00 0.00 423.00 298.14" xmlns="http://www.w3.org/2000/svg" xmlns:xlink="http://www.w3.org/1999/xlink">
<g id="graph0" class="graph" transform="scale(1 1) rotate(0) translate(4 294.14)">
<title>OutLab1::run</title>
<polygon fill="white" stroke="transparent" points="-4,4 -4,-294.14 419,-294.14 419,4 -4,4"/>
<!-- Node1 -->
<g id="node1" class="node">
<title>Node1</title>
<g id="a_node1"><a xlink:title="This function runs the main logic of the program.">
<polygon fill="#bfbfbf" stroke="black" points="0,-145.5 0,-164.5 79,-164.5 79,-145.5 0,-145.5"/>
<text text-anchor="middle" x="39.5" y="-152.5" font-family="Helvetica,sans-Serif" font-size="10.00">OutLab1::run</text>
</a>
</g>
</g>
<!-- Node2 -->
<g id="node2" class="node">
<title>Node2</title>
<g id="a_node2"><a xlink:href="../../d5/d65/labs_2outlab1_2Compute_8h.html#ab0665d1160f5941c2c99563d4499701b" target="_top" xlink:title="Computes the value of an element in matrix A.">
<polygon fill="white" stroke="black" points="326,-221.5 326,-240.5 415,-240.5 415,-221.5 326,-221.5"/>
<text text-anchor="middle" x="370.5" y="-228.5" font-family="Helvetica,sans-Serif" font-size="10.00">elementFromA</text>
</a>
</g>
</g>
<!-- Node1&#45;&gt;Node2 -->
<g id="edge1" class="edge">
<title>Node1&#45;&gt;Node2</title>
<path fill="none" stroke="midnightblue" d="M43.33,-164.7C50.68,-187.86 72.79,-246.16 115,-269 183.41,-306.01 214.15,-286.2 290,-269 309.89,-264.49 330.63,-254.37 345.93,-245.71"/>
<polygon fill="midnightblue" stroke="midnightblue" points="347.85,-248.64 354.7,-240.57 344.31,-242.6 347.85,-248.64"/>
</g>
<!-- Node3 -->
<g id="node3" class="node">
<title>Node3</title>
<g id="a_node3"><a xlink:href="../../d5/d65/labs_2outlab1_2Compute_8h.html#a3df66fd7a28eca27039429c7c58136aa" target="_top" xlink:title="Computes the value of an element in matrix B.">
<polygon fill="white" stroke="black" points="326,-154.5 326,-173.5 415,-173.5 415,-154.5 326,-154.5"/>
<text text-anchor="middle" x="370.5" y="-161.5" font-family="Helvetica,sans-Serif" font-size="10.00">elementFromB</text>
</a>
</g>
</g>
<!-- Node1&#45;&gt;Node3 -->
<g id="edge2" class="edge">
<title>Node1&#45;&gt;Node3</title>
<path fill="none" stroke="midnightblue" d="M79.01,-153.66C128.05,-152.25 215.4,-150.79 290,-155 298.37,-155.47 307.22,-156.22 315.85,-157.09"/>
<polygon fill="midnightblue" stroke="midnightblue" points="315.52,-160.58 325.84,-158.16 316.27,-153.62 315.52,-160.58"/>
</g>
<!-- Node4 -->
<g id="node4" class="node">
<title>Node4</title>
<g id="a_node4"><a xlink:href="../../d5/d65/labs_2outlab1_2Compute_8h.html#a44278365efe26db246f915a6e23f5421" target="_top" xlink:title="Computes the value of an element in matrix C.">
<polygon fill="white" stroke="black" points="158,-202.5 158,-221.5 247,-221.5 247,-202.5 158,-202.5"/>
<text text-anchor="middle" x="202.5" y="-209.5" font-family="Helvetica,sans-Serif" font-size="10.00">elementFromC</text>
</a>
</g>
</g>
<!-- Node1&#45;&gt;Node4 -->
<g id="edge3" class="edge">
<title>Node1&#45;&gt;Node4</title>
<path fill="none" stroke="midnightblue" d="M56.25,-164.53C70.97,-173.08 93.81,-185.41 115,-193 125.42,-196.73 136.81,-199.87 147.82,-202.45"/>
<polygon fill="midnightblue" stroke="midnightblue" points="147.25,-205.9 157.77,-204.66 148.77,-199.07 147.25,-205.9"/>
</g>
<!-- Node5 -->
<g id="node5" class="node">
<title>Node5</title>
<g id="a_node5"><a xlink:href="../../d5/d65/labs_2outlab1_2Compute_8h.html#ae3ff689e573f915d93b9f30137287c48" target="_top" xlink:title="Computes the value of an element in matrix D.">
<polygon fill="white" stroke="black" points="158,-240.5 158,-259.5 247,-259.5 247,-240.5 158,-240.5"/>
<text text-anchor="middle" x="202.5" y="-247.5" font-family="Helvetica,sans-Serif" font-size="10.00">elementFromD</text>
</a>
</g>
</g>
<!-- Node1&#45;&gt;Node5 -->
<g id="edge6" class="edge">
<title>Node1&#45;&gt;Node5</title>
<path fill="none" stroke="midnightblue" d="M47.04,-164.68C58.68,-181.07 84.61,-214.17 115,-231 125.09,-236.59 136.7,-240.53 148.06,-243.32"/>
<polygon fill="midnightblue" stroke="midnightblue" points="147.43,-246.76 157.94,-245.48 148.92,-239.92 147.43,-246.76"/>
</g>
<!-- Node6 -->
<g id="node6" class="node">
<title>Node6</title>
<g id="a_node6"><a xlink:href="../../d5/d65/labs_2outlab1_2Compute_8h.html#a0f63c551d89f9cf8d10242d5af9a8299" target="_top" xlink:title="Computes the value of an element in matrix E.">
<polygon fill="white" stroke="black" points="158.5,-164.5 158.5,-183.5 246.5,-183.5 246.5,-164.5 158.5,-164.5"/>
<text text-anchor="middle" x="202.5" y="-171.5" font-family="Helvetica,sans-Serif" font-size="10.00">elementFromE</text>
</a>
</g>
</g>
<!-- Node1&#45;&gt;Node6 -->
<g id="edge8" class="edge">
<title>Node1&#45;&gt;Node6</title>
<path fill="none" stroke="midnightblue" d="M79.06,-159.55C99.8,-162 125.68,-165.05 148.3,-167.72"/>
<polygon fill="midnightblue" stroke="midnightblue" points="148.09,-171.22 158.43,-168.92 148.91,-164.27 148.09,-171.22"/>
</g>
<!-- Node7 -->
<g id="node7" class="node">
<title>Node7</title>
<g id="a_node7"><a xlink:href="../../d5/d65/labs_2outlab1_2Compute_8h.html#a3bdb983590aa8405c4185bdf3c450c00" target="_top" xlink:title="Computes the value of an element in matrix F.">
<polygon fill="white" stroke="black" points="326.5,-102.5 326.5,-121.5 414.5,-121.5 414.5,-102.5 326.5,-102.5"/>
<text text-anchor="middle" x="370.5" y="-109.5" font-family="Helvetica,sans-Serif" font-size="10.00">elementFromF</text>
</a>
</g>
</g>
<!-- Node1&#45;&gt;Node7 -->
<g id="edge11" class="edge">
<title>Node1&#45;&gt;Node7</title>
<path fill="none" stroke="midnightblue" d="M79.21,-149.94C137.9,-142.27 249.58,-127.67 316,-118.99"/>
<polygon fill="midnightblue" stroke="midnightblue" points="316.79,-122.42 326.25,-117.65 315.88,-115.48 316.79,-122.42"/>
</g>
<!-- Node8 -->
<g id="node8" class="node">
<title>Node8</title>
<g id="a_node8"><a xlink:href="../../dd/d02/classCommandLine.html#a7001590923e6bfdf380448136b8e65bd" target="_top" xlink:title="Method to print a line to the console. This method prints a line of dashes to the console.">
<polygon fill="white" stroke="black" points="115,-39 115,-69 290,-69 290,-39 115,-39"/>
<text text-anchor="start" x="123" y="-57" font-family="Helvetica,sans-Serif" font-size="10.00">CommandLine&lt; OutLab12Inputs</text>
<text text-anchor="middle" x="202.5" y="-46" font-family="Helvetica,sans-Serif" font-size="10.00"> &gt;::printLine</text>
</a>
</g>
</g>
<!-- Node1&#45;&gt;Node8 -->
<g id="edge12" class="edge">
<title>Node1&#45;&gt;Node8</title>
<path fill="none" stroke="midnightblue" d="M48.2,-145.37C60.72,-130.31 86.93,-101.12 115,-84 121.85,-79.82 129.36,-76.13 137.01,-72.88"/>
<polygon fill="midnightblue" stroke="midnightblue" points="138.37,-76.11 146.37,-69.15 135.78,-69.61 138.37,-76.11"/>
</g>
<!-- Node9 -->
<g id="node9" class="node">
<title>Node9</title>
<g id="a_node9"><a xlink:href="../../d5/d65/labs_2outlab1_2Compute_8h.html#adf735fe09cce5d0c37ac1b63b43e2bbb" target="_top" xlink:title="This function prints a matrix with a given title.">
<polygon fill="white" stroke="black" points="167,-0.5 167,-19.5 238,-19.5 238,-0.5 167,-0.5"/>
<text text-anchor="middle" x="202.5" y="-7.5" font-family="Helvetica,sans-Serif" font-size="10.00">printMatrix</text>
</a>
</g>
</g>
<!-- Node1&#45;&gt;Node9 -->
<g id="edge13" class="edge">
<title>Node1&#45;&gt;Node9</title>
<path fill="none" stroke="midnightblue" d="M43.27,-145.28C50.63,-121.36 73,-59.4 115,-29 127.03,-20.29 142.29,-15.45 156.63,-12.8"/>
<polygon fill="midnightblue" stroke="midnightblue" points="157.5,-16.21 166.86,-11.23 156.44,-9.29 157.5,-16.21"/>
</g>
<!-- Node4&#45;&gt;Node2 -->
<g id="edge4" class="edge">
<title>Node4&#45;&gt;Node2</title>
<path fill="none" stroke="midnightblue" d="M247.11,-216.99C268.19,-219.4 293.68,-222.32 315.92,-224.87"/>
<polygon fill="midnightblue" stroke="midnightblue" points="315.56,-228.35 325.89,-226.01 316.35,-221.39 315.56,-228.35"/>
</g>
<!-- Node4&#45;&gt;Node3 -->
<g id="edge5" class="edge">
<title>Node4&#45;&gt;Node3</title>
<path fill="none" stroke="midnightblue" d="M247.35,-203.56C261.1,-200.59 276.27,-196.99 290,-193 305.33,-188.54 321.96,-182.65 336.03,-177.34"/>
<polygon fill="midnightblue" stroke="midnightblue" points="337.69,-180.45 345.77,-173.6 335.18,-173.91 337.69,-180.45"/>
</g>
<!-- Node5&#45;&gt;Node2 -->
<g id="edge7" class="edge">
<title>Node5&#45;&gt;Node2</title>
<path fill="none" stroke="midnightblue" d="M247.11,-245.01C268.19,-242.6 293.68,-239.68 315.92,-237.13"/>
<polygon fill="midnightblue" stroke="midnightblue" points="316.35,-240.61 325.89,-235.99 315.56,-233.65 316.35,-240.61"/>
</g>
<!-- Node6&#45;&gt;Node2 -->
<g id="edge9" class="edge">
<title>Node6&#45;&gt;Node2</title>
<path fill="none" stroke="midnightblue" d="M246.71,-181.46C260.71,-184.41 276.19,-188.25 290,-193 308.28,-199.28 327.87,-208.62 343.04,-216.46"/>
<polygon fill="midnightblue" stroke="midnightblue" points="341.83,-219.78 352.31,-221.36 345.1,-213.59 341.83,-219.78"/>
</g>
<!-- Node6&#45;&gt;Node7 -->
<g id="edge10" class="edge">
<title>Node6&#45;&gt;Node7</title>
<path fill="none" stroke="midnightblue" d="M229.07,-164.45C257.22,-153.94 302.65,-136.97 334.19,-125.19"/>
<polygon fill="midnightblue" stroke="midnightblue" points="335.75,-128.34 343.9,-121.56 333.3,-121.78 335.75,-128.34"/>
</g>
<!-- Node10 -->
<g id="node10" class="node">
<title>Node10</title>
<g id="a_node10"><a xlink:href="../../d8/d13/inlab2_2tests_2sanity__check_8m.html#af6aab352a026c3e4f6b95d66ac907154" target="_top" xlink:title=" ">
<polygon fill="white" stroke="black" points="352.5,-0.5 352.5,-19.5 388.5,-19.5 388.5,-0.5 352.5,-0.5"/>
<text text-anchor="middle" x="370.5" y="-7.5" font-family="Helvetica,sans-Serif" font-size="10.00">title</text>
</a>
</g>
</g>
<!-- Node9&#45;&gt;Node10 -->
<g id="edge14" class="edge">
<title>Node9&#45;&gt;Node10</title>
<path fill="none" stroke="midnightblue" d="M238.3,-10C269.15,-10 313.61,-10 342.02,-10"/>
<polygon fill="midnightblue" stroke="midnightblue" points="342.07,-13.5 352.07,-10 342.07,-6.5 342.07,-13.5"/>
</g>
</g>
</svg>
