<?xml version="1.0" encoding="UTF-8" standalone="no"?>
<!DOCTYPE svg PUBLIC "-//W3C//DTD SVG 1.1//EN"
 "http://www.w3.org/Graphics/SVG/1.1/DTD/svg11.dtd">
<!-- Generated by graphviz version 2.43.0 (0)
 -->
<!-- Title: src/utils/math/relaxation/RelaxationMethods.h Pages: 1 -->
<!--zoomable 430 -->
<svg id="main" version="1.1" xmlns="http://www.w3.org/2000/svg" xmlns:xlink="http://www.w3.org/1999/xlink" xml:space="preserve" onload="init(evt)">
<style type="text/css"><![CDATA[
.edge:hover path { stroke: red; }
.edge:hover polygon { stroke: red; fill: red; }
]]></style>
<script type="text/javascript"><![CDATA[
var edges = document.getElementsByTagName('g');
if (edges && edges.length) {
  for (var i=0;i<edges.length;i++) {
    if (edges[i].id.substr(0,4)=='edge') {
      edges[i].setAttribute('class','edge');
    }
  }
}
]]></script>
        <defs>
                <circle id="rim" cx="0" cy="0" r="7"/>
                <circle id="rim2" cx="0" cy="0" r="3.5"/>
                <g id="zoomPlus">
                        <use xlink:href="#rim" fill="#404040">
                                <set attributeName="fill" to="#808080" begin="zoomplus.mouseover" end="zoomplus.mouseout"/>
                        </use>
                        <path d="M-4,0h8M0,-4v8" fill="none" stroke="white" stroke-width="1.5" pointer-events="none"/>
                </g>
                <g id="zoomMin">
                        <use xlink:href="#rim" fill="#404040">
                                <set attributeName="fill" to="#808080" begin="zoomminus.mouseover" end="zoomminus.mouseout"/>
                        </use>
                        <path d="M-4,0h8" fill="none" stroke="white" stroke-width="1.5" pointer-events="none"/>
                </g>
                <g id="dirArrow">
                        <path fill="none" stroke="white" stroke-width="1.5" d="M0,-3.0v7 M-2.5,-0.5L0,-3.0L2.5,-0.5"/>
                </g>
               <g id="resetDef">
                       <use xlink:href="#rim2" fill="#404040">
                               <set attributeName="fill" to="#808080" begin="reset.mouseover" end="reset.mouseout"/>
                       </use>
               </g>
        </defs>

<script type="text/javascript">
var viewWidth = 1302;
var viewHeight = 430;
var sectionId = 'dynsection-0';
</script>
<script xlink:href="../../svgpan.js"/>
<svg id="graph" class="graph">
<g id="viewport">
<title>src/utils/math/relaxation/RelaxationMethods.h</title>
<polygon fill="white" stroke="transparent" points="-4,4 -4,-426 1297.5,-426 1297.5,4 -4,4"/>
<!-- Node1 -->
<g id="node1" class="node">
<title>Node1</title>
<g id="a_node1"><a xlink:title="This file contains the declaration of the RelaxationMethods namespace, which includes the Type enumer...">
<polygon fill="#bfbfbf" stroke="black" points="312.5,-391.5 312.5,-421.5 448.5,-421.5 448.5,-391.5 312.5,-391.5"/>
<text text-anchor="start" x="320.5" y="-409.5" font-family="Helvetica,sans-Serif" font-size="10.00">src/utils/math/relaxation</text>
<text text-anchor="middle" x="380.5" y="-398.5" font-family="Helvetica,sans-Serif" font-size="10.00">/RelaxationMethods.h</text>
</a>
</g>
</g>
<!-- Node2 -->
<g id="node2" class="node">
<title>Node2</title>
<g id="a_node2"><a xlink:href="../../d2/dde/labs_2inlab6_2InputsOutputs_8h.html" target="_top" xlink:title="This file contains the input and output definitions for this project.">
<polygon fill="white" stroke="black" points="0,-274 0,-293 167,-293 167,-274 0,-274"/>
<text text-anchor="middle" x="83.5" y="-281" font-family="Helvetica,sans-Serif" font-size="10.00">src/labs/inlab6/InputsOutputs.h</text>
</a>
</g>
</g>
<!-- Node1&#45;&gt;Node2 -->
<g id="edge1" class="edge">
<title>Node1&#45;&gt;Node2</title>
<path fill="none" stroke="midnightblue" d="M336.29,-387.49C271.35,-361.03 152.69,-312.69 104.59,-293.09"/>
<polygon fill="midnightblue" stroke="midnightblue" points="335.27,-390.85 345.85,-391.38 337.91,-384.37 335.27,-390.85"/>
</g>
<!-- Node5 -->
<g id="node5" class="node">
<title>Node5</title>
<g id="a_node5"><a xlink:href="../../dc/dba/SORPJ_8h.html" target="_top" xlink:title=" ">
<polygon fill="white" stroke="black" points="312.5,-268.5 312.5,-298.5 448.5,-298.5 448.5,-268.5 312.5,-268.5"/>
<text text-anchor="start" x="320.5" y="-286.5" font-family="Helvetica,sans-Serif" font-size="10.00">src/utils/math/relaxation</text>
<text text-anchor="middle" x="380.5" y="-275.5" font-family="Helvetica,sans-Serif" font-size="10.00">/SORPJ.h</text>
</a>
</g>
</g>
<!-- Node1&#45;&gt;Node5 -->
<g id="edge4" class="edge">
<title>Node1&#45;&gt;Node5</title>
<path fill="none" stroke="midnightblue" d="M380.5,-381.12C380.5,-356.44 380.5,-319.11 380.5,-298.84"/>
<polygon fill="midnightblue" stroke="midnightblue" points="377,-381.14 380.5,-391.14 384,-381.14 377,-381.14"/>
</g>
<!-- Node19 -->
<g id="node19" class="node">
<title>Node19</title>
<g id="a_node19"><a xlink:href="../../df/dbd/LinearSolver_8h.html" target="_top" xlink:title="This file contains the definition of the LinearSolver class and its associated methods.">
<polygon fill="white" stroke="black" points="444,-335.5 444,-354.5 599,-354.5 599,-335.5 444,-335.5"/>
<text text-anchor="middle" x="521.5" y="-342.5" font-family="Helvetica,sans-Serif" font-size="10.00">src/utils/math/LinearSolver.h</text>
</a>
</g>
</g>
<!-- Node1&#45;&gt;Node19 -->
<g id="edge21" class="edge">
<title>Node1&#45;&gt;Node19</title>
<path fill="none" stroke="midnightblue" d="M423.46,-387.37C449.2,-376.51 480.75,-363.2 500.98,-354.66"/>
<polygon fill="midnightblue" stroke="midnightblue" points="421.77,-384.29 413.92,-391.4 424.49,-390.74 421.77,-384.29"/>
</g>
<!-- Node3 -->
<g id="node3" class="node">
<title>Node3</title>
<g id="a_node3"><a xlink:href="../../d8/d48/inlab6_8h.html" target="_top" xlink:title=" ">
<polygon fill="white" stroke="black" points="98,-140 98,-159 227,-159 227,-140 98,-140"/>
<text text-anchor="middle" x="162.5" y="-147" font-family="Helvetica,sans-Serif" font-size="10.00">src/labs/inlab6/inlab6.h</text>
</a>
</g>
</g>
<!-- Node2&#45;&gt;Node3 -->
<g id="edge2" class="edge">
<title>Node2&#45;&gt;Node3</title>
<path fill="none" stroke="midnightblue" d="M94.02,-264.92C111.21,-236.2 144.65,-180.32 157.4,-159.02"/>
<polygon fill="midnightblue" stroke="midnightblue" points="90.82,-263.46 88.68,-273.84 96.82,-267.06 90.82,-263.46"/>
</g>
<!-- Node4 -->
<g id="node4" class="node">
<title>Node4</title>
<g id="a_node4"><a xlink:href="../../d2/d34/labs_2inlab6_2main_8cpp.html" target="_top" xlink:title=" ">
<polygon fill="white" stroke="black" points="95,-73 95,-92 230,-92 230,-73 95,-73"/>
<text text-anchor="middle" x="162.5" y="-80" font-family="Helvetica,sans-Serif" font-size="10.00">src/labs/inlab6/main.cpp</text>
</a>
</g>
</g>
<!-- Node3&#45;&gt;Node4 -->
<g id="edge3" class="edge">
<title>Node3&#45;&gt;Node4</title>
<path fill="none" stroke="midnightblue" d="M162.5,-129.54C162.5,-117.17 162.5,-101.62 162.5,-92.13"/>
<polygon fill="midnightblue" stroke="midnightblue" points="159,-129.73 162.5,-139.73 166,-129.73 159,-129.73"/>
</g>
<!-- Node6 -->
<g id="node6" class="node">
<title>Node6</title>
<g id="a_node6"><a xlink:href="../../dd/d66/labs_2inlab6_2Compute_8h.html" target="_top" xlink:title="This file contains the Compute namespace which includes methods for inlab6 in NE591&#45;008.">
<polygon fill="white" stroke="black" points="204,-207 204,-226 347,-226 347,-207 204,-207"/>
<text text-anchor="middle" x="275.5" y="-214" font-family="Helvetica,sans-Serif" font-size="10.00">src/labs/inlab6/Compute.h</text>
</a>
</g>
</g>
<!-- Node5&#45;&gt;Node6 -->
<g id="edge5" class="edge">
<title>Node5&#45;&gt;Node6</title>
<path fill="none" stroke="midnightblue" d="M348.96,-262.97C329.05,-250.65 304.33,-235.35 289.24,-226.01"/>
<polygon fill="midnightblue" stroke="midnightblue" points="347.37,-266.11 357.72,-268.4 351.06,-260.16 347.37,-266.11"/>
</g>
<!-- Node7 -->
<g id="node7" class="node">
<title>Node7</title>
<g id="a_node7"><a xlink:href="../../dc/d21/labs_2outlab6_2Compute_8h.html" target="_top" xlink:title="This file contains the Compute namespace which includes methods for solving linear systems using vari...">
<polygon fill="white" stroke="black" points="823.5,-207 823.5,-226 973.5,-226 973.5,-207 823.5,-207"/>
<text text-anchor="middle" x="898.5" y="-214" font-family="Helvetica,sans-Serif" font-size="10.00">src/labs/outlab6/Compute.h</text>
</a>
</g>
</g>
<!-- Node5&#45;&gt;Node7 -->
<g id="edge7" class="edge">
<title>Node5&#45;&gt;Node7</title>
<path fill="none" stroke="midnightblue" d="M458.97,-267.87C617.07,-245.55 659.74,-253.13 814.5,-232 826.82,-230.32 840.09,-228.18 852.38,-226.06"/>
<polygon fill="midnightblue" stroke="midnightblue" points="458.29,-264.43 448.88,-269.31 459.28,-271.36 458.29,-264.43"/>
</g>
<!-- Node10 -->
<g id="node10" class="node">
<title>Node10</title>
<g id="a_node10"><a xlink:href="../../db/d6e/project_2project2_2Compute_8h.html" target="_top" xlink:title="Compute methods for project milestone 1 in NE591&#45;008.">
<polygon fill="white" stroke="black" points="529.5,-201.5 529.5,-231.5 639.5,-231.5 639.5,-201.5 529.5,-201.5"/>
<text text-anchor="start" x="537.5" y="-219.5" font-family="Helvetica,sans-Serif" font-size="10.00">src/project/project2</text>
<text text-anchor="middle" x="584.5" y="-208.5" font-family="Helvetica,sans-Serif" font-size="10.00">/Compute.h</text>
</a>
</g>
</g>
<!-- Node5&#45;&gt;Node10 -->
<g id="edge10" class="edge">
<title>Node5&#45;&gt;Node10</title>
<path fill="none" stroke="midnightblue" d="M434.46,-265.31C467.46,-254.79 509.16,-241.51 540.21,-231.61"/>
<polygon fill="midnightblue" stroke="midnightblue" points="432.98,-262.11 424.51,-268.48 435.1,-268.77 432.98,-262.11"/>
</g>
<!-- Node14 -->
<g id="node14" class="node">
<title>Node14</title>
<g id="a_node14"><a xlink:href="../../d8/d8f/project_2project3_2Compute_8h.html" target="_top" xlink:title="Compute methods for project milestone 3 in NE591&#45;008.">
<polygon fill="white" stroke="black" points="695.5,-201.5 695.5,-231.5 805.5,-231.5 805.5,-201.5 695.5,-201.5"/>
<text text-anchor="start" x="703.5" y="-219.5" font-family="Helvetica,sans-Serif" font-size="10.00">src/project/project3</text>
<text text-anchor="middle" x="750.5" y="-208.5" font-family="Helvetica,sans-Serif" font-size="10.00">/Compute.h</text>
</a>
</g>
</g>
<!-- Node5&#45;&gt;Node14 -->
<g id="edge15" class="edge">
<title>Node5&#45;&gt;Node14</title>
<path fill="none" stroke="midnightblue" d="M458.47,-267.84C547.2,-251.89 638.58,-236.32 695.37,-226.74"/>
<polygon fill="midnightblue" stroke="midnightblue" points="457.73,-264.42 448.51,-269.63 458.97,-271.31 457.73,-264.42"/>
</g>
<!-- Node18 -->
<g id="node18" class="node">
<title>Node18</title>
<g id="a_node18"><a xlink:href="../../d6/d90/PointJacobiTests_8cpp.html" target="_top" xlink:title=" ">
<polygon fill="white" stroke="black" points="365.5,-201.5 365.5,-231.5 511.5,-231.5 511.5,-201.5 365.5,-201.5"/>
<text text-anchor="start" x="373.5" y="-219.5" font-family="Helvetica,sans-Serif" font-size="10.00">src/utils/math/relaxation</text>
<text text-anchor="middle" x="438.5" y="-208.5" font-family="Helvetica,sans-Serif" font-size="10.00">/tests/PointJacobiTests.cpp</text>
</a>
</g>
</g>
<!-- Node5&#45;&gt;Node18 -->
<g id="edge20" class="edge">
<title>Node5&#45;&gt;Node18</title>
<path fill="none" stroke="midnightblue" d="M399.92,-260.74C408.5,-251.12 418.34,-240.09 425.94,-231.58"/>
<polygon fill="midnightblue" stroke="midnightblue" points="397.13,-258.6 393.09,-268.4 402.35,-263.26 397.13,-258.6"/>
</g>
<!-- Node6&#45;&gt;Node3 -->
<g id="edge6" class="edge">
<title>Node6&#45;&gt;Node3</title>
<path fill="none" stroke="midnightblue" d="M251.36,-201.62C228.97,-188.74 196.36,-169.98 177.5,-159.13"/>
<polygon fill="midnightblue" stroke="midnightblue" points="249.85,-204.78 260.26,-206.73 253.34,-198.71 249.85,-204.78"/>
</g>
<!-- Node8 -->
<g id="node8" class="node">
<title>Node8</title>
<g id="a_node8"><a xlink:href="../../df/df9/outlab6_8h.html" target="_top" xlink:title=" ">
<polygon fill="white" stroke="black" points="942,-140 942,-159 1085,-159 1085,-140 942,-140"/>
<text text-anchor="middle" x="1013.5" y="-147" font-family="Helvetica,sans-Serif" font-size="10.00">src/labs/outlab6/outlab6.h</text>
</a>
</g>
</g>
<!-- Node7&#45;&gt;Node8 -->
<g id="edge8" class="edge">
<title>Node7&#45;&gt;Node8</title>
<path fill="none" stroke="midnightblue" d="M922.76,-201.79C945.55,-188.9 978.96,-170.02 998.24,-159.13"/>
<polygon fill="midnightblue" stroke="midnightblue" points="920.99,-198.77 914.01,-206.73 924.44,-204.86 920.99,-198.77"/>
</g>
<!-- Node9 -->
<g id="node9" class="node">
<title>Node9</title>
<g id="a_node9"><a xlink:href="../../d4/d5d/labs_2outlab6_2main_8cpp.html" target="_top" xlink:title=" ">
<polygon fill="white" stroke="black" points="942.5,-73 942.5,-92 1084.5,-92 1084.5,-73 942.5,-73"/>
<text text-anchor="middle" x="1013.5" y="-80" font-family="Helvetica,sans-Serif" font-size="10.00">src/labs/outlab6/main.cpp</text>
</a>
</g>
</g>
<!-- Node8&#45;&gt;Node9 -->
<g id="edge9" class="edge">
<title>Node8&#45;&gt;Node9</title>
<path fill="none" stroke="midnightblue" d="M1013.5,-129.54C1013.5,-117.17 1013.5,-101.62 1013.5,-92.13"/>
<polygon fill="midnightblue" stroke="midnightblue" points="1010,-129.73 1013.5,-139.73 1017,-129.73 1010,-129.73"/>
</g>
<!-- Node11 -->
<g id="node11" class="node">
<title>Node11</title>
<g id="a_node11"><a xlink:href="../../d6/da7/project_2project2_2Parser_8h.html" target="_top" xlink:title="This file contains the Parser class which is responsible for parsing command line arguments and valid...">
<polygon fill="white" stroke="black" points="446.5,-134.5 446.5,-164.5 556.5,-164.5 556.5,-134.5 446.5,-134.5"/>
<text text-anchor="start" x="454.5" y="-152.5" font-family="Helvetica,sans-Serif" font-size="10.00">src/project/project2</text>
<text text-anchor="middle" x="501.5" y="-141.5" font-family="Helvetica,sans-Serif" font-size="10.00">/Parser.h</text>
</a>
</g>
</g>
<!-- Node10&#45;&gt;Node11 -->
<g id="edge11" class="edge">
<title>Node10&#45;&gt;Node11</title>
<path fill="none" stroke="midnightblue" d="M558.54,-195.17C545.85,-185.23 530.89,-173.51 519.47,-164.58"/>
<polygon fill="midnightblue" stroke="midnightblue" points="556.46,-197.99 566.49,-201.4 560.78,-192.47 556.46,-197.99"/>
</g>
<!-- Node12 -->
<g id="node12" class="node">
<title>Node12</title>
<g id="a_node12"><a xlink:href="../../dc/d79/project2_8h.html" target="_top" xlink:title=" ">
<polygon fill="white" stroke="black" points="446.5,-67.5 446.5,-97.5 556.5,-97.5 556.5,-67.5 446.5,-67.5"/>
<text text-anchor="start" x="454.5" y="-85.5" font-family="Helvetica,sans-Serif" font-size="10.00">src/project/project2</text>
<text text-anchor="middle" x="501.5" y="-74.5" font-family="Helvetica,sans-Serif" font-size="10.00">/project2.h</text>
</a>
</g>
</g>
<!-- Node10&#45;&gt;Node12 -->
<g id="edge14" class="edge">
<title>Node10&#45;&gt;Node12</title>
<path fill="none" stroke="midnightblue" d="M583.06,-191.14C581.08,-174.02 576.43,-151.2 565.5,-134 555.94,-118.95 540.28,-106.48 526.85,-97.7"/>
<polygon fill="midnightblue" stroke="midnightblue" points="579.61,-191.81 584.01,-201.45 586.58,-191.17 579.61,-191.81"/>
</g>
<!-- Node11&#45;&gt;Node12 -->
<g id="edge12" class="edge">
<title>Node11&#45;&gt;Node12</title>
<path fill="none" stroke="midnightblue" d="M501.5,-124.11C501.5,-115.15 501.5,-105.32 501.5,-97.58"/>
<polygon fill="midnightblue" stroke="midnightblue" points="498,-124.4 501.5,-134.4 505,-124.4 498,-124.4"/>
</g>
<!-- Node13 -->
<g id="node13" class="node">
<title>Node13</title>
<g id="a_node13"><a xlink:href="../../dd/d48/project_2project2_2main_8cpp.html" target="_top" xlink:title=" ">
<polygon fill="white" stroke="black" points="446.5,-0.5 446.5,-30.5 556.5,-30.5 556.5,-0.5 446.5,-0.5"/>
<text text-anchor="start" x="454.5" y="-18.5" font-family="Helvetica,sans-Serif" font-size="10.00">src/project/project2</text>
<text text-anchor="middle" x="501.5" y="-7.5" font-family="Helvetica,sans-Serif" font-size="10.00">/main.cpp</text>
</a>
</g>
</g>
<!-- Node12&#45;&gt;Node13 -->
<g id="edge13" class="edge">
<title>Node12&#45;&gt;Node13</title>
<path fill="none" stroke="midnightblue" d="M501.5,-57.11C501.5,-48.15 501.5,-38.32 501.5,-30.58"/>
<polygon fill="midnightblue" stroke="midnightblue" points="498,-57.4 501.5,-67.4 505,-57.4 498,-57.4"/>
</g>
<!-- Node15 -->
<g id="node15" class="node">
<title>Node15</title>
<g id="a_node15"><a xlink:href="../../d7/d5d/project_2project3_2Parser_8h.html" target="_top" xlink:title="This file contains the Parser class which is responsible for parsing command line arguments and valid...">
<polygon fill="white" stroke="black" points="733.5,-134.5 733.5,-164.5 843.5,-164.5 843.5,-134.5 733.5,-134.5"/>
<text text-anchor="start" x="741.5" y="-152.5" font-family="Helvetica,sans-Serif" font-size="10.00">src/project/project3</text>
<text text-anchor="middle" x="788.5" y="-141.5" font-family="Helvetica,sans-Serif" font-size="10.00">/Parser.h</text>
</a>
</g>
</g>
<!-- Node14&#45;&gt;Node15 -->
<g id="edge16" class="edge">
<title>Node14&#45;&gt;Node15</title>
<path fill="none" stroke="midnightblue" d="M763.9,-192.58C769.36,-183.24 775.49,-172.75 780.27,-164.58"/>
<polygon fill="midnightblue" stroke="midnightblue" points="760.77,-191 758.75,-201.4 766.81,-194.53 760.77,-191"/>
</g>
<!-- Node16 -->
<g id="node16" class="node">
<title>Node16</title>
<g id="a_node16"><a xlink:href="../../da/d0a/project3_8h.html" target="_top" xlink:title=" ">
<polygon fill="white" stroke="black" points="650.5,-67.5 650.5,-97.5 760.5,-97.5 760.5,-67.5 650.5,-67.5"/>
<text text-anchor="start" x="658.5" y="-85.5" font-family="Helvetica,sans-Serif" font-size="10.00">src/project/project3</text>
<text text-anchor="middle" x="705.5" y="-74.5" font-family="Helvetica,sans-Serif" font-size="10.00">/project3.h</text>
</a>
</g>
</g>
<!-- Node14&#45;&gt;Node16 -->
<g id="edge19" class="edge">
<title>Node14&#45;&gt;Node16</title>
<path fill="none" stroke="midnightblue" d="M737.13,-192.47C732.64,-184.04 727.91,-174.28 724.5,-165 716.08,-142.09 710.53,-114.15 707.71,-97.65"/>
<polygon fill="midnightblue" stroke="midnightblue" points="734.12,-194.27 742.01,-201.34 740.25,-190.9 734.12,-194.27"/>
</g>
<!-- Node15&#45;&gt;Node16 -->
<g id="edge17" class="edge">
<title>Node15&#45;&gt;Node16</title>
<path fill="none" stroke="midnightblue" d="M762.54,-128.17C749.85,-118.23 734.89,-106.51 723.47,-97.58"/>
<polygon fill="midnightblue" stroke="midnightblue" points="760.46,-130.99 770.49,-134.4 764.78,-125.47 760.46,-130.99"/>
</g>
<!-- Node17 -->
<g id="node17" class="node">
<title>Node17</title>
<g id="a_node17"><a xlink:href="../../de/ddf/project_2project3_2main_8cpp.html" target="_top" xlink:title=" ">
<polygon fill="white" stroke="black" points="650.5,-0.5 650.5,-30.5 760.5,-30.5 760.5,-0.5 650.5,-0.5"/>
<text text-anchor="start" x="658.5" y="-18.5" font-family="Helvetica,sans-Serif" font-size="10.00">src/project/project3</text>
<text text-anchor="middle" x="705.5" y="-7.5" font-family="Helvetica,sans-Serif" font-size="10.00">/main.cpp</text>
</a>
</g>
</g>
<!-- Node16&#45;&gt;Node17 -->
<g id="edge18" class="edge">
<title>Node16&#45;&gt;Node17</title>
<path fill="none" stroke="midnightblue" d="M705.5,-57.11C705.5,-48.15 705.5,-38.32 705.5,-30.58"/>
<polygon fill="midnightblue" stroke="midnightblue" points="702,-57.4 705.5,-67.4 709,-57.4 702,-57.4"/>
</g>
<!-- Node19&#45;&gt;Node2 -->
<g id="edge22" class="edge">
<title>Node19&#45;&gt;Node2</title>
<path fill="none" stroke="midnightblue" d="M444.22,-334.19C375.07,-325.31 270.96,-311.73 180.5,-299 167.18,-297.13 152.84,-295.03 139.39,-293.02"/>
<polygon fill="midnightblue" stroke="midnightblue" points="443.8,-337.66 454.16,-335.46 444.69,-330.72 443.8,-337.66"/>
</g>
<!-- Node19&#45;&gt;Node5 -->
<g id="edge41" class="edge">
<title>Node19&#45;&gt;Node5</title>
<path fill="none" stroke="midnightblue" d="M491.78,-331.46C468.95,-321.82 437.4,-308.51 413.73,-298.52"/>
<polygon fill="midnightblue" stroke="midnightblue" points="490.72,-334.81 501.3,-335.48 493.45,-328.36 490.72,-334.81"/>
</g>
<!-- Node20 -->
<g id="node20" class="node">
<title>Node20</title>
<g id="a_node20"><a xlink:href="../../d5/d67/labs_2outlab6_2InputsOutputs_8h.html" target="_top" xlink:title="This file contains the input and output definitions for this project.">
<polygon fill="white" stroke="black" points="991.5,-207 991.5,-226 1165.5,-226 1165.5,-207 991.5,-207"/>
<text text-anchor="middle" x="1078.5" y="-214" font-family="Helvetica,sans-Serif" font-size="10.00">src/labs/outlab6/InputsOutputs.h</text>
</a>
</g>
</g>
<!-- Node19&#45;&gt;Node20 -->
<g id="edge23" class="edge">
<title>Node19&#45;&gt;Node20</title>
<path fill="none" stroke="midnightblue" d="M609.3,-342.23C753.1,-338.51 1026.26,-327.73 1059.5,-299 1080.94,-280.48 1080.74,-242.89 1079.43,-226.02"/>
<polygon fill="midnightblue" stroke="midnightblue" points="609.09,-338.73 599.18,-342.48 609.26,-345.73 609.09,-338.73"/>
</g>
<!-- Node21 -->
<g id="node21" class="node">
<title>Node21</title>
<g id="a_node21"><a xlink:href="../../dd/df8/project_2project2_2InputsOutputs_8h.html" target="_top" xlink:title="This file contains the input and output definitions for this project.">
<polygon fill="white" stroke="black" points="294.5,-134.5 294.5,-164.5 404.5,-164.5 404.5,-134.5 294.5,-134.5"/>
<text text-anchor="start" x="302.5" y="-152.5" font-family="Helvetica,sans-Serif" font-size="10.00">src/project/project2</text>
<text text-anchor="middle" x="349.5" y="-141.5" font-family="Helvetica,sans-Serif" font-size="10.00">/InputsOutputs.h</text>
</a>
</g>
</g>
<!-- Node19&#45;&gt;Node21 -->
<g id="edge25" class="edge">
<title>Node19&#45;&gt;Node21</title>
<path fill="none" stroke="midnightblue" d="M438.9,-333.88C397.29,-327.06 346.65,-316.1 303.5,-299 250.64,-278.05 222.25,-281.63 194.5,-232 170.17,-188.48 240.62,-167.27 294.41,-157.65"/>
<polygon fill="midnightblue" stroke="midnightblue" points="438.57,-337.37 449,-335.48 439.67,-330.46 438.57,-337.37"/>
</g>
<!-- Node22 -->
<g id="node22" class="node">
<title>Node22</title>
<g id="a_node22"><a xlink:href="../../d4/d6a/project_2project3_2InputsOutputs_8h.html" target="_top" xlink:title="This file contains the input and output definitions for this project.">
<polygon fill="white" stroke="black" points="466.5,-268.5 466.5,-298.5 576.5,-298.5 576.5,-268.5 466.5,-268.5"/>
<text text-anchor="start" x="474.5" y="-286.5" font-family="Helvetica,sans-Serif" font-size="10.00">src/project/project3</text>
<text text-anchor="middle" x="521.5" y="-275.5" font-family="Helvetica,sans-Serif" font-size="10.00">/InputsOutputs.h</text>
</a>
</g>
</g>
<!-- Node19&#45;&gt;Node22 -->
<g id="edge27" class="edge">
<title>Node19&#45;&gt;Node22</title>
<path fill="none" stroke="midnightblue" d="M521.5,-325.23C521.5,-316.59 521.5,-306.5 521.5,-298.52"/>
<polygon fill="midnightblue" stroke="midnightblue" points="518,-325.48 521.5,-335.48 525,-325.48 518,-325.48"/>
</g>
<!-- Node23 -->
<g id="node23" class="node">
<title>Node23</title>
<g id="a_node23"><a xlink:href="../../d4/dfb/LUP_8h.html" target="_top" xlink:title="LU factorization with pivoting.">
<polygon fill="white" stroke="black" points="748.5,-268.5 748.5,-298.5 896.5,-298.5 896.5,-268.5 748.5,-268.5"/>
<text text-anchor="start" x="756.5" y="-286.5" font-family="Helvetica,sans-Serif" font-size="10.00">src/utils/math/factorization</text>
<text text-anchor="middle" x="822.5" y="-275.5" font-family="Helvetica,sans-Serif" font-size="10.00">/LUP.h</text>
</a>
</g>
</g>
<!-- Node19&#45;&gt;Node23 -->
<g id="edge29" class="edge">
<title>Node19&#45;&gt;Node23</title>
<path fill="none" stroke="midnightblue" d="M574.74,-333.48C623.94,-323.75 697.4,-309.23 751.56,-298.52"/>
<polygon fill="midnightblue" stroke="midnightblue" points="573.76,-330.1 564.63,-335.48 575.11,-336.97 573.76,-330.1"/>
</g>
<!-- Node28 -->
<g id="node28" class="node">
<title>Node28</title>
<g id="a_node28"><a xlink:href="../../d3/d3e/SOR_8h.html" target="_top" xlink:title="This file contains the implementation of the Successive Over&#45;Relaxation (SOR) method for solving syst...">
<polygon fill="white" stroke="black" points="914.5,-268.5 914.5,-298.5 1050.5,-298.5 1050.5,-268.5 914.5,-268.5"/>
<text text-anchor="start" x="922.5" y="-286.5" font-family="Helvetica,sans-Serif" font-size="10.00">src/utils/math/relaxation</text>
<text text-anchor="middle" x="982.5" y="-275.5" font-family="Helvetica,sans-Serif" font-size="10.00">/SOR.h</text>
</a>
</g>
</g>
<!-- Node19&#45;&gt;Node28 -->
<g id="edge38" class="edge">
<title>Node19&#45;&gt;Node28</title>
<path fill="none" stroke="midnightblue" d="M609.57,-335.44C687.55,-327.44 804.37,-314.43 905.5,-299 908.32,-298.57 911.2,-298.11 914.11,-297.63"/>
<polygon fill="midnightblue" stroke="midnightblue" points="608.9,-331.99 599.31,-336.48 609.61,-338.95 608.9,-331.99"/>
</g>
<!-- Node29 -->
<g id="node29" class="node">
<title>Node29</title>
<g id="a_node29"><a xlink:href="../../d0/de6/SSOR_8h.html" target="_top" xlink:title="This file contains the implementation of the Symmetric Successive Over&#45;Relaxation (SSOR) method for s...">
<polygon fill="white" stroke="black" points="594.5,-268.5 594.5,-298.5 730.5,-298.5 730.5,-268.5 594.5,-268.5"/>
<text text-anchor="start" x="602.5" y="-286.5" font-family="Helvetica,sans-Serif" font-size="10.00">src/utils/math/relaxation</text>
<text text-anchor="middle" x="662.5" y="-275.5" font-family="Helvetica,sans-Serif" font-size="10.00">/SSOR.h</text>
</a>
</g>
</g>
<!-- Node19&#45;&gt;Node29 -->
<g id="edge42" class="edge">
<title>Node19&#45;&gt;Node29</title>
<path fill="none" stroke="midnightblue" d="M551.22,-331.46C574.05,-321.82 605.6,-308.51 629.27,-298.52"/>
<polygon fill="midnightblue" stroke="midnightblue" points="549.55,-328.36 541.7,-335.48 552.28,-334.81 549.55,-328.36"/>
</g>
<!-- Node20&#45;&gt;Node8 -->
<g id="edge24" class="edge">
<title>Node20&#45;&gt;Node8</title>
<path fill="none" stroke="midnightblue" d="M1062.5,-199.5C1049.75,-186.75 1032.39,-169.39 1022.13,-159.13"/>
<polygon fill="midnightblue" stroke="midnightblue" points="1060.19,-202.14 1069.73,-206.73 1065.14,-197.19 1060.19,-202.14"/>
</g>
<!-- Node21&#45;&gt;Node12 -->
<g id="edge26" class="edge">
<title>Node21&#45;&gt;Node12</title>
<path fill="none" stroke="midnightblue" d="M391.81,-130.41C416.08,-120.03 446.09,-107.2 468.58,-97.58"/>
<polygon fill="midnightblue" stroke="midnightblue" points="390.3,-127.25 382.48,-134.4 393.05,-133.68 390.3,-127.25"/>
</g>
<!-- Node22&#45;&gt;Node16 -->
<g id="edge28" class="edge">
<title>Node22&#45;&gt;Node16</title>
<path fill="none" stroke="midnightblue" d="M577.59,-265.15C606.51,-255.26 637.9,-242.73 648.5,-232 686.54,-193.5 699.74,-126.9 703.84,-97.8"/>
<polygon fill="midnightblue" stroke="midnightblue" points="576.28,-261.9 567.91,-268.4 578.5,-268.53 576.28,-261.9"/>
</g>
<!-- Node23&#45;&gt;Node7 -->
<g id="edge30" class="edge">
<title>Node23&#45;&gt;Node7</title>
<path fill="none" stroke="midnightblue" d="M846.85,-261.67C860.89,-249.67 877.78,-235.22 888.33,-226.19"/>
<polygon fill="midnightblue" stroke="midnightblue" points="844.32,-259.24 838.99,-268.4 848.87,-264.56 844.32,-259.24"/>
</g>
<!-- Node23&#45;&gt;Node10 -->
<g id="edge36" class="edge">
<title>Node23&#45;&gt;Node10</title>
<path fill="none" stroke="midnightblue" d="M761.04,-265.71C722.31,-255.14 672.87,-241.63 636.17,-231.61"/>
<polygon fill="midnightblue" stroke="midnightblue" points="760.58,-269.22 771.15,-268.48 762.43,-262.46 760.58,-269.22"/>
</g>
<!-- Node23&#45;&gt;Node14 -->
<g id="edge37" class="edge">
<title>Node23&#45;&gt;Node14</title>
<path fill="none" stroke="midnightblue" d="M799.35,-261.6C788.48,-251.78 775.8,-240.34 766.09,-231.58"/>
<polygon fill="midnightblue" stroke="midnightblue" points="797.11,-264.29 806.88,-268.4 801.8,-259.1 797.11,-264.29"/>
</g>
<!-- Node24 -->
<g id="node24" class="node">
<title>Node24</title>
<g id="a_node24"><a xlink:href="../../d7/da1/project_2project1_2Compute_8h.html" target="_top" xlink:title="Compute methods for project milestone 1 in NE591&#45;008.">
<polygon fill="white" stroke="black" points="1183.5,-201.5 1183.5,-231.5 1293.5,-231.5 1293.5,-201.5 1183.5,-201.5"/>
<text text-anchor="start" x="1191.5" y="-219.5" font-family="Helvetica,sans-Serif" font-size="10.00">src/project/project1</text>
<text text-anchor="middle" x="1238.5" y="-208.5" font-family="Helvetica,sans-Serif" font-size="10.00">/Compute.h</text>
</a>
</g>
</g>
<!-- Node23&#45;&gt;Node24 -->
<g id="edge31" class="edge">
<title>Node23&#45;&gt;Node24</title>
<path fill="none" stroke="midnightblue" d="M906.62,-267.87C1026.41,-249.8 1058.91,-252.79 1174.5,-232 1177.42,-231.48 1180.4,-230.91 1183.41,-230.31"/>
<polygon fill="midnightblue" stroke="midnightblue" points="906.04,-264.42 896.69,-269.39 907.1,-271.34 906.04,-264.42"/>
</g>
<!-- Node25 -->
<g id="node25" class="node">
<title>Node25</title>
<g id="a_node25"><a xlink:href="../../d0/df9/project_2project1_2Parser_8h.html" target="_top" xlink:title="This file contains the Parser class which is responsible for parsing command line arguments and valid...">
<polygon fill="white" stroke="black" points="1141.5,-134.5 1141.5,-164.5 1251.5,-164.5 1251.5,-134.5 1141.5,-134.5"/>
<text text-anchor="start" x="1149.5" y="-152.5" font-family="Helvetica,sans-Serif" font-size="10.00">src/project/project1</text>
<text text-anchor="middle" x="1196.5" y="-141.5" font-family="Helvetica,sans-Serif" font-size="10.00">/Parser.h</text>
</a>
</g>
</g>
<!-- Node24&#45;&gt;Node25 -->
<g id="edge32" class="edge">
<title>Node24&#45;&gt;Node25</title>
<path fill="none" stroke="midnightblue" d="M1223.88,-192.87C1217.8,-183.46 1210.93,-172.83 1205.6,-164.58"/>
<polygon fill="midnightblue" stroke="midnightblue" points="1221.02,-194.9 1229.39,-201.4 1226.9,-191.1 1221.02,-194.9"/>
</g>
<!-- Node26 -->
<g id="node26" class="node">
<title>Node26</title>
<g id="a_node26"><a xlink:href="../../d3/df7/project1_8h.html" target="_top" xlink:title=" ">
<polygon fill="white" stroke="black" points="1182.5,-67.5 1182.5,-97.5 1292.5,-97.5 1292.5,-67.5 1182.5,-67.5"/>
<text text-anchor="start" x="1190.5" y="-85.5" font-family="Helvetica,sans-Serif" font-size="10.00">src/project/project1</text>
<text text-anchor="middle" x="1237.5" y="-74.5" font-family="Helvetica,sans-Serif" font-size="10.00">/project1.h</text>
</a>
</g>
</g>
<!-- Node24&#45;&gt;Node26 -->
<g id="edge35" class="edge">
<title>Node24&#45;&gt;Node26</title>
<path fill="none" stroke="midnightblue" d="M1250.97,-192.32C1254.83,-183.96 1258.57,-174.29 1260.5,-165 1263.31,-151.51 1263.42,-147.46 1260.5,-134 1257.68,-121.01 1251.22,-107.35 1245.86,-97.52"/>
<polygon fill="midnightblue" stroke="midnightblue" points="1247.76,-190.92 1246.5,-201.44 1254.05,-194 1247.76,-190.92"/>
</g>
<!-- Node25&#45;&gt;Node26 -->
<g id="edge33" class="edge">
<title>Node25&#45;&gt;Node26</title>
<path fill="none" stroke="midnightblue" d="M1210.78,-125.87C1216.71,-116.46 1223.41,-105.83 1228.62,-97.58"/>
<polygon fill="midnightblue" stroke="midnightblue" points="1207.77,-124.07 1205.4,-134.4 1213.69,-127.81 1207.77,-124.07"/>
</g>
<!-- Node27 -->
<g id="node27" class="node">
<title>Node27</title>
<g id="a_node27"><a xlink:href="../../d2/d85/project_2project1_2main_8cpp.html" target="_top" xlink:title=" ">
<polygon fill="white" stroke="black" points="1182.5,-0.5 1182.5,-30.5 1292.5,-30.5 1292.5,-0.5 1182.5,-0.5"/>
<text text-anchor="start" x="1190.5" y="-18.5" font-family="Helvetica,sans-Serif" font-size="10.00">src/project/project1</text>
<text text-anchor="middle" x="1237.5" y="-7.5" font-family="Helvetica,sans-Serif" font-size="10.00">/main.cpp</text>
</a>
</g>
</g>
<!-- Node26&#45;&gt;Node27 -->
<g id="edge34" class="edge">
<title>Node26&#45;&gt;Node27</title>
<path fill="none" stroke="midnightblue" d="M1237.5,-57.11C1237.5,-48.15 1237.5,-38.32 1237.5,-30.58"/>
<polygon fill="midnightblue" stroke="midnightblue" points="1234,-57.4 1237.5,-67.4 1241,-57.4 1234,-57.4"/>
</g>
<!-- Node28&#45;&gt;Node7 -->
<g id="edge39" class="edge">
<title>Node28&#45;&gt;Node7</title>
<path fill="none" stroke="midnightblue" d="M956.02,-262.01C940.42,-249.94 921.51,-235.3 909.74,-226.19"/>
<polygon fill="midnightblue" stroke="midnightblue" points="954.22,-265.04 964.27,-268.4 958.51,-259.51 954.22,-265.04"/>
</g>
<!-- Node28&#45;&gt;Node14 -->
<g id="edge40" class="edge">
<title>Node28&#45;&gt;Node14</title>
<path fill="none" stroke="midnightblue" d="M922.59,-265.71C884.84,-255.14 836.64,-241.63 800.87,-231.61"/>
<polygon fill="midnightblue" stroke="midnightblue" points="921.87,-269.15 932.45,-268.48 923.76,-262.41 921.87,-269.15"/>
</g>
<!-- Node29&#45;&gt;Node7 -->
<g id="edge43" class="edge">
<title>Node29&#45;&gt;Node7</title>
<path fill="none" stroke="midnightblue" d="M723.31,-265.75C769.47,-253.04 831.02,-236.09 867.53,-226.03"/>
<polygon fill="midnightblue" stroke="midnightblue" points="722.13,-262.45 713.42,-268.48 723.99,-269.19 722.13,-262.45"/>
</g>
<!-- Node29&#45;&gt;Node10 -->
<g id="edge44" class="edge">
<title>Node29&#45;&gt;Node10</title>
<path fill="none" stroke="midnightblue" d="M637.76,-261.88C625.91,-252.01 612.02,-240.43 601.39,-231.58"/>
<polygon fill="midnightblue" stroke="midnightblue" points="635.65,-264.68 645.58,-268.4 640.13,-259.31 635.65,-264.68"/>
</g>
<!-- Node29&#45;&gt;Node14 -->
<g id="edge45" class="edge">
<title>Node29&#45;&gt;Node14</title>
<path fill="none" stroke="midnightblue" d="M689.64,-262.45C703.18,-252.45 719.23,-240.6 731.44,-231.58"/>
<polygon fill="midnightblue" stroke="midnightblue" points="687.56,-259.64 681.59,-268.4 691.72,-265.27 687.56,-259.64"/>
</g>
</g>
</svg>
        <g id="navigator" transform="translate(0 0)" fill="#404254">
                <rect fill="#f2f5e9" fill-opacity="0.5" stroke="#606060" stroke-width=".5" x="0" y="0" width="60" height="60"/>
                <use id="zoomplus" xlink:href="#zoomPlus" x="17" y="9" onmousedown="handleZoom(evt,'in')"/>
                <use id="zoomminus" xlink:href="#zoomMin" x="42" y="9" onmousedown="handleZoom(evt,'out')"/>
                <use id="reset" xlink:href="#resetDef" x="30" y="36" onmousedown="handleReset()"/>
                <g id="arrowUp" xlink:href="#dirArrow" transform="translate(30 24)" onmousedown="handlePan(0,-1)">
                  <use xlink:href="#rim" fill="#404040">
                        <set attributeName="fill" to="#808080" begin="arrowUp.mouseover" end="arrowUp.mouseout"/>
                  </use>
                  <path fill="none" stroke="white" stroke-width="1.5" d="M0,-3.0v7 M-2.5,-0.5L0,-3.0L2.5,-0.5"/>
                </g>
                <g id="arrowRight" xlink:href="#dirArrow" transform="rotate(90) translate(36 -43)" onmousedown="handlePan(1,0)">
                  <use xlink:href="#rim" fill="#404040">
                        <set attributeName="fill" to="#808080" begin="arrowRight.mouseover" end="arrowRight.mouseout"/>
                  </use>
                  <path fill="none" stroke="white" stroke-width="1.5" d="M0,-3.0v7 M-2.5,-0.5L0,-3.0L2.5,-0.5"/>
                </g>
                <g id="arrowDown" xlink:href="#dirArrow" transform="rotate(180) translate(-30 -48)" onmousedown="handlePan(0,1)">
                  <use xlink:href="#rim" fill="#404040">
                        <set attributeName="fill" to="#808080" begin="arrowDown.mouseover" end="arrowDown.mouseout"/>
                  </use>
                  <path fill="none" stroke="white" stroke-width="1.5" d="M0,-3.0v7 M-2.5,-0.5L0,-3.0L2.5,-0.5"/>
                </g>
                <g id="arrowLeft" xlink:href="#dirArrow" transform="rotate(270) translate(-36 17)" onmousedown="handlePan(-1,0)">
                  <use xlink:href="#rim" fill="#404040">
                        <set attributeName="fill" to="#808080" begin="arrowLeft.mouseover" end="arrowLeft.mouseout"/>
                  </use>
                  <path fill="none" stroke="white" stroke-width="1.5" d="M0,-3.0v7 M-2.5,-0.5L0,-3.0L2.5,-0.5"/>
                </g>
        </g>
        <svg viewBox="0 0 15 15" width="100%" height="30px" preserveAspectRatio="xMaxYMin meet">
         <g id="arrow_out" transform="scale(0.3 0.3)">
          <a xlink:href="RelaxationMethods_8h__dep__incl_org.svg" target="_base">
           <rect id="button" ry="5" rx="5" y="6" x="6" height="38" width="38"
                fill="#f2f5e9" fill-opacity="0.5" stroke="#606060" stroke-width="1.0"/>
           <path id="arrow"
             d="M 11.500037,31.436501 C 11.940474,20.09759 22.043105,11.32322 32.158766,21.979434 L 37.068811,17.246167 C 37.068811,17.246167 37.088388,32 37.088388,32 L 22.160133,31.978069 C 22.160133,31.978069 26.997745,27.140456 26.997745,27.140456 C 18.528582,18.264221 13.291696,25.230495 11.500037,31.436501 z"
             style="fill:#404040;"/>
          </a>
         </g>
        </svg>
</svg>
