<?xml version="1.0" encoding="UTF-8" standalone="no"?>
<!DOCTYPE svg PUBLIC "-//W3C//DTD SVG 1.1//EN"
 "http://www.w3.org/Graphics/SVG/1.1/DTD/svg11.dtd">
<!-- Generated by graphviz version 2.43.0 (0)
 -->
<!-- Title: src/utils/math/relaxation/RelaxationMethods.h Pages: 1 -->
<svg width="1104pt" height="497pt"
 viewBox="0.00 0.00 1103.50 497.00" xmlns="http://www.w3.org/2000/svg" xmlns:xlink="http://www.w3.org/1999/xlink">
<g id="graph0" class="graph" transform="scale(1 1) rotate(0) translate(4 493)">
<title>src/utils/math/relaxation/RelaxationMethods.h</title>
<polygon fill="white" stroke="transparent" points="-4,4 -4,-493 1099.5,-493 1099.5,4 -4,4"/>
<!-- Node1 -->
<g id="node1" class="node">
<title>Node1</title>
<g id="a_node1"><a xlink:title="This file contains the declaration of the RelaxationMethods namespace, which includes the Type enumer...">
<polygon fill="#bfbfbf" stroke="black" points="313.5,-458.5 313.5,-488.5 449.5,-488.5 449.5,-458.5 313.5,-458.5"/>
<text text-anchor="start" x="321.5" y="-476.5" font-family="Helvetica,sans-Serif" font-size="10.00">src/utils/math/relaxation</text>
<text text-anchor="middle" x="381.5" y="-465.5" font-family="Helvetica,sans-Serif" font-size="10.00">/RelaxationMethods.h</text>
</a>
</g>
</g>
<!-- Node2 -->
<g id="node2" class="node">
<title>Node2</title>
<g id="a_node2"><a xlink:href="../../d2/dde/labs_2inlab6_2InputsOutputs_8h.html" target="_top" xlink:title="This file contains the input and output definitions for this project.">
<polygon fill="white" stroke="black" points="0,-341 0,-360 167,-360 167,-341 0,-341"/>
<text text-anchor="middle" x="83.5" y="-348" font-family="Helvetica,sans-Serif" font-size="10.00">src/labs/inlab6/InputsOutputs.h</text>
</a>
</g>
</g>
<!-- Node1&#45;&gt;Node2 -->
<g id="edge1" class="edge">
<title>Node1&#45;&gt;Node2</title>
<path fill="none" stroke="midnightblue" d="M337.14,-454.49C271.99,-428.03 152.92,-379.69 104.66,-360.09"/>
<polygon fill="midnightblue" stroke="midnightblue" points="336.15,-457.86 346.73,-458.38 338.78,-451.38 336.15,-457.86"/>
</g>
<!-- Node5 -->
<g id="node5" class="node">
<title>Node5</title>
<g id="a_node5"><a xlink:href="../../dd/d7b/PointJacobi_8h.html" target="_top" xlink:title="This file contains the implementation of the Point Jacobi method for solving systems of linear equati...">
<polygon fill="white" stroke="black" points="313.5,-335.5 313.5,-365.5 449.5,-365.5 449.5,-335.5 313.5,-335.5"/>
<text text-anchor="start" x="321.5" y="-353.5" font-family="Helvetica,sans-Serif" font-size="10.00">src/utils/math/relaxation</text>
<text text-anchor="middle" x="381.5" y="-342.5" font-family="Helvetica,sans-Serif" font-size="10.00">/PointJacobi.h</text>
</a>
</g>
</g>
<!-- Node1&#45;&gt;Node5 -->
<g id="edge4" class="edge">
<title>Node1&#45;&gt;Node5</title>
<path fill="none" stroke="midnightblue" d="M381.5,-448.12C381.5,-423.44 381.5,-386.11 381.5,-365.84"/>
<polygon fill="midnightblue" stroke="midnightblue" points="378,-448.14 381.5,-458.14 385,-448.14 378,-448.14"/>
</g>
<!-- Node14 -->
<g id="node14" class="node">
<title>Node14</title>
<g id="a_node14"><a xlink:href="../../df/dbd/LinearSolver_8h.html" target="_top" xlink:title="This file contains the definition of the LinearSolver class and its associated methods.">
<polygon fill="white" stroke="black" points="458,-402.5 458,-421.5 613,-421.5 613,-402.5 458,-402.5"/>
<text text-anchor="middle" x="535.5" y="-409.5" font-family="Helvetica,sans-Serif" font-size="10.00">src/utils/math/LinearSolver.h</text>
</a>
</g>
</g>
<!-- Node1&#45;&gt;Node14 -->
<g id="edge15" class="edge">
<title>Node1&#45;&gt;Node14</title>
<path fill="none" stroke="midnightblue" d="M427.68,-454.66C455.92,-443.75 490.79,-430.27 513.09,-421.66"/>
<polygon fill="midnightblue" stroke="midnightblue" points="426.06,-451.53 418,-458.4 428.59,-458.06 426.06,-451.53"/>
</g>
<!-- Node3 -->
<g id="node3" class="node">
<title>Node3</title>
<g id="a_node3"><a xlink:href="../../d8/d48/inlab6_8h.html" target="_top" xlink:title=" ">
<polygon fill="white" stroke="black" points="21,-207 21,-226 150,-226 150,-207 21,-207"/>
<text text-anchor="middle" x="85.5" y="-214" font-family="Helvetica,sans-Serif" font-size="10.00">src/labs/inlab6/inlab6.h</text>
</a>
</g>
</g>
<!-- Node2&#45;&gt;Node3 -->
<g id="edge2" class="edge">
<title>Node2&#45;&gt;Node3</title>
<path fill="none" stroke="midnightblue" d="M83.78,-330.78C84.22,-301.75 85.05,-247.04 85.37,-226.02"/>
<polygon fill="midnightblue" stroke="midnightblue" points="80.28,-330.79 83.63,-340.84 87.28,-330.89 80.28,-330.79"/>
</g>
<!-- Node4 -->
<g id="node4" class="node">
<title>Node4</title>
<g id="a_node4"><a xlink:href="../../d2/d34/labs_2inlab6_2main_8cpp.html" target="_top" xlink:title=" ">
<polygon fill="white" stroke="black" points="18,-140 18,-159 153,-159 153,-140 18,-140"/>
<text text-anchor="middle" x="85.5" y="-147" font-family="Helvetica,sans-Serif" font-size="10.00">src/labs/inlab6/main.cpp</text>
</a>
</g>
</g>
<!-- Node3&#45;&gt;Node4 -->
<g id="edge3" class="edge">
<title>Node3&#45;&gt;Node4</title>
<path fill="none" stroke="midnightblue" d="M85.5,-196.54C85.5,-184.17 85.5,-168.62 85.5,-159.13"/>
<polygon fill="midnightblue" stroke="midnightblue" points="82,-196.73 85.5,-206.73 89,-196.73 82,-196.73"/>
</g>
<!-- Node6 -->
<g id="node6" class="node">
<title>Node6</title>
<g id="a_node6"><a xlink:href="../../dd/d66/labs_2inlab6_2Compute_8h.html" target="_top" xlink:title="This file contains the Compute namespace which includes methods for inlab6 in NE591&#45;008.">
<polygon fill="white" stroke="black" points="210,-274 210,-293 353,-293 353,-274 210,-274"/>
<text text-anchor="middle" x="281.5" y="-281" font-family="Helvetica,sans-Serif" font-size="10.00">src/labs/inlab6/Compute.h</text>
</a>
</g>
</g>
<!-- Node5&#45;&gt;Node6 -->
<g id="edge5" class="edge">
<title>Node5&#45;&gt;Node6</title>
<path fill="none" stroke="midnightblue" d="M351.2,-329.81C332.29,-317.51 308.89,-302.3 294.59,-293.01"/>
<polygon fill="midnightblue" stroke="midnightblue" points="349.51,-332.88 359.8,-335.4 353.32,-327.01 349.51,-332.88"/>
</g>
<!-- Node7 -->
<g id="node7" class="node">
<title>Node7</title>
<g id="a_node7"><a xlink:href="../../dc/d21/labs_2outlab6_2Compute_8h.html" target="_top" xlink:title="This file contains the Compute namespace which includes methods for solving linear systems using vari...">
<polygon fill="white" stroke="black" points="591.5,-207 591.5,-226 741.5,-226 741.5,-207 591.5,-207"/>
<text text-anchor="middle" x="666.5" y="-214" font-family="Helvetica,sans-Serif" font-size="10.00">src/labs/outlab6/Compute.h</text>
</a>
</g>
</g>
<!-- Node5&#45;&gt;Node7 -->
<g id="edge7" class="edge">
<title>Node5&#45;&gt;Node7</title>
<path fill="none" stroke="midnightblue" d="M391.84,-326.19C401.31,-307.57 417.11,-282.3 438.5,-268 453.46,-258 557.28,-237.59 619.55,-226.01"/>
<polygon fill="midnightblue" stroke="midnightblue" points="388.67,-324.7 387.46,-335.23 394.97,-327.75 388.67,-324.7"/>
</g>
<!-- Node10 -->
<g id="node10" class="node">
<title>Node10</title>
<g id="a_node10"><a xlink:href="../../db/d6e/project_2project2_2Compute_8h.html" target="_top" xlink:title="Compute methods for project milestone 1 in NE591&#45;008.">
<polygon fill="white" stroke="black" points="460.5,-201.5 460.5,-231.5 570.5,-231.5 570.5,-201.5 460.5,-201.5"/>
<text text-anchor="start" x="468.5" y="-219.5" font-family="Helvetica,sans-Serif" font-size="10.00">src/project/project2</text>
<text text-anchor="middle" x="515.5" y="-208.5" font-family="Helvetica,sans-Serif" font-size="10.00">/Compute.h</text>
</a>
</g>
</g>
<!-- Node5&#45;&gt;Node10 -->
<g id="edge10" class="edge">
<title>Node5&#45;&gt;Node10</title>
<path fill="none" stroke="midnightblue" d="M383.32,-325.3C385.8,-307.6 391.67,-283.98 405.5,-268 420.28,-250.92 442.05,-239.28 462.32,-231.52"/>
<polygon fill="midnightblue" stroke="midnightblue" points="379.82,-325.11 382.17,-335.44 386.77,-325.9 379.82,-325.11"/>
</g>
<!-- Node6&#45;&gt;Node3 -->
<g id="edge6" class="edge">
<title>Node6&#45;&gt;Node3</title>
<path fill="none" stroke="midnightblue" d="M245.62,-270.6C206.76,-257.71 145.73,-237.47 111.32,-226.06"/>
<polygon fill="midnightblue" stroke="midnightblue" points="244.88,-274.04 255.47,-273.87 247.08,-267.4 244.88,-274.04"/>
</g>
<!-- Node8 -->
<g id="node8" class="node">
<title>Node8</title>
<g id="a_node8"><a xlink:href="../../df/df9/outlab6_8h.html" target="_top" xlink:title=" ">
<polygon fill="white" stroke="black" points="605,-140 605,-159 748,-159 748,-140 605,-140"/>
<text text-anchor="middle" x="676.5" y="-147" font-family="Helvetica,sans-Serif" font-size="10.00">src/labs/outlab6/outlab6.h</text>
</a>
</g>
</g>
<!-- Node7&#45;&gt;Node8 -->
<g id="edge8" class="edge">
<title>Node7&#45;&gt;Node8</title>
<path fill="none" stroke="midnightblue" d="M669.42,-196.54C671.32,-184.17 673.71,-168.62 675.17,-159.13"/>
<polygon fill="midnightblue" stroke="midnightblue" points="665.91,-196.32 667.85,-206.73 672.83,-197.38 665.91,-196.32"/>
</g>
<!-- Node9 -->
<g id="node9" class="node">
<title>Node9</title>
<g id="a_node9"><a xlink:href="../../d4/d5d/labs_2outlab6_2main_8cpp.html" target="_top" xlink:title=" ">
<polygon fill="white" stroke="black" points="605.5,-73 605.5,-92 747.5,-92 747.5,-73 605.5,-73"/>
<text text-anchor="middle" x="676.5" y="-80" font-family="Helvetica,sans-Serif" font-size="10.00">src/labs/outlab6/main.cpp</text>
</a>
</g>
</g>
<!-- Node8&#45;&gt;Node9 -->
<g id="edge9" class="edge">
<title>Node8&#45;&gt;Node9</title>
<path fill="none" stroke="midnightblue" d="M676.5,-129.54C676.5,-117.17 676.5,-101.62 676.5,-92.13"/>
<polygon fill="midnightblue" stroke="midnightblue" points="673,-129.73 676.5,-139.73 680,-129.73 673,-129.73"/>
</g>
<!-- Node11 -->
<g id="node11" class="node">
<title>Node11</title>
<g id="a_node11"><a xlink:href="../../d6/da7/project_2project2_2Parser_8h.html" target="_top" xlink:title="This file contains the Parser class which is responsible for parsing command line arguments and valid...">
<polygon fill="white" stroke="black" points="460.5,-134.5 460.5,-164.5 570.5,-164.5 570.5,-134.5 460.5,-134.5"/>
<text text-anchor="start" x="468.5" y="-152.5" font-family="Helvetica,sans-Serif" font-size="10.00">src/project/project2</text>
<text text-anchor="middle" x="515.5" y="-141.5" font-family="Helvetica,sans-Serif" font-size="10.00">/Parser.h</text>
</a>
</g>
</g>
<!-- Node10&#45;&gt;Node11 -->
<g id="edge11" class="edge">
<title>Node10&#45;&gt;Node11</title>
<path fill="none" stroke="midnightblue" d="M515.5,-191.11C515.5,-182.15 515.5,-172.32 515.5,-164.58"/>
<polygon fill="midnightblue" stroke="midnightblue" points="512,-191.4 515.5,-201.4 519,-191.4 512,-191.4"/>
</g>
<!-- Node12 -->
<g id="node12" class="node">
<title>Node12</title>
<g id="a_node12"><a xlink:href="../../dc/d79/project2_8h.html" target="_top" xlink:title=" ">
<polygon fill="white" stroke="black" points="377.5,-67.5 377.5,-97.5 487.5,-97.5 487.5,-67.5 377.5,-67.5"/>
<text text-anchor="start" x="385.5" y="-85.5" font-family="Helvetica,sans-Serif" font-size="10.00">src/project/project2</text>
<text text-anchor="middle" x="432.5" y="-74.5" font-family="Helvetica,sans-Serif" font-size="10.00">/project2.h</text>
</a>
</g>
</g>
<!-- Node10&#45;&gt;Node12 -->
<g id="edge14" class="edge">
<title>Node10&#45;&gt;Node12</title>
<path fill="none" stroke="midnightblue" d="M481.76,-195.51C470.61,-187.35 459.12,-177 451.5,-165 438.18,-144.03 434.18,-114.71 432.99,-97.55"/>
<polygon fill="midnightblue" stroke="midnightblue" points="479.93,-198.5 490.15,-201.3 483.91,-192.74 479.93,-198.5"/>
</g>
<!-- Node11&#45;&gt;Node12 -->
<g id="edge12" class="edge">
<title>Node11&#45;&gt;Node12</title>
<path fill="none" stroke="midnightblue" d="M489.54,-128.17C476.85,-118.23 461.89,-106.51 450.47,-97.58"/>
<polygon fill="midnightblue" stroke="midnightblue" points="487.46,-130.99 497.49,-134.4 491.78,-125.47 487.46,-130.99"/>
</g>
<!-- Node13 -->
<g id="node13" class="node">
<title>Node13</title>
<g id="a_node13"><a xlink:href="../../dd/d48/project_2project2_2main_8cpp.html" target="_top" xlink:title=" ">
<polygon fill="white" stroke="black" points="377.5,-0.5 377.5,-30.5 487.5,-30.5 487.5,-0.5 377.5,-0.5"/>
<text text-anchor="start" x="385.5" y="-18.5" font-family="Helvetica,sans-Serif" font-size="10.00">src/project/project2</text>
<text text-anchor="middle" x="432.5" y="-7.5" font-family="Helvetica,sans-Serif" font-size="10.00">/main.cpp</text>
</a>
</g>
</g>
<!-- Node12&#45;&gt;Node13 -->
<g id="edge13" class="edge">
<title>Node12&#45;&gt;Node13</title>
<path fill="none" stroke="midnightblue" d="M432.5,-57.11C432.5,-48.15 432.5,-38.32 432.5,-30.58"/>
<polygon fill="midnightblue" stroke="midnightblue" points="429,-57.4 432.5,-67.4 436,-57.4 429,-57.4"/>
</g>
<!-- Node14&#45;&gt;Node2 -->
<g id="edge16" class="edge">
<title>Node14&#45;&gt;Node2</title>
<path fill="none" stroke="midnightblue" d="M452.16,-401.27C379.34,-392.6 270.81,-379.26 176.5,-366 163.55,-364.18 149.62,-362.08 136.57,-360.06"/>
<polygon fill="midnightblue" stroke="midnightblue" points="451.85,-404.76 462.19,-402.46 452.67,-397.81 451.85,-404.76"/>
</g>
<!-- Node14&#45;&gt;Node5 -->
<g id="edge24" class="edge">
<title>Node14&#45;&gt;Node5</title>
<path fill="none" stroke="midnightblue" d="M504.05,-398.85C479.03,-389.18 444,-375.65 417.79,-365.52"/>
<polygon fill="midnightblue" stroke="midnightblue" points="502.85,-402.14 513.44,-402.48 505.37,-395.61 502.85,-402.14"/>
</g>
<!-- Node15 -->
<g id="node15" class="node">
<title>Node15</title>
<g id="a_node15"><a xlink:href="../../d5/d67/labs_2outlab6_2InputsOutputs_8h.html" target="_top" xlink:title="This file contains the input and output definitions for this project.">
<polygon fill="white" stroke="black" points="921.5,-274 921.5,-293 1095.5,-293 1095.5,-274 921.5,-274"/>
<text text-anchor="middle" x="1008.5" y="-281" font-family="Helvetica,sans-Serif" font-size="10.00">src/labs/outlab6/InputsOutputs.h</text>
</a>
</g>
</g>
<!-- Node14&#45;&gt;Node15 -->
<g id="edge17" class="edge">
<title>Node14&#45;&gt;Node15</title>
<path fill="none" stroke="midnightblue" d="M577.58,-399.75C670.93,-374.78 893.65,-315.21 976.63,-293.02"/>
<polygon fill="midnightblue" stroke="midnightblue" points="576.4,-396.44 567.64,-402.4 578.2,-403.2 576.4,-396.44"/>
</g>
<!-- Node16 -->
<g id="node16" class="node">
<title>Node16</title>
<g id="a_node16"><a xlink:href="../../dd/df8/project_2project2_2InputsOutputs_8h.html" target="_top" xlink:title="This file contains the input and output definitions for this project.">
<polygon fill="white" stroke="black" points="185.5,-335.5 185.5,-365.5 295.5,-365.5 295.5,-335.5 185.5,-335.5"/>
<text text-anchor="start" x="193.5" y="-353.5" font-family="Helvetica,sans-Serif" font-size="10.00">src/project/project2</text>
<text text-anchor="middle" x="240.5" y="-342.5" font-family="Helvetica,sans-Serif" font-size="10.00">/InputsOutputs.h</text>
</a>
</g>
</g>
<!-- Node14&#45;&gt;Node16 -->
<g id="edge19" class="edge">
<title>Node14&#45;&gt;Node16</title>
<path fill="none" stroke="midnightblue" d="M479.45,-400.57C432.61,-391.74 364.1,-378.55 304.5,-366 301.6,-365.39 298.63,-364.75 295.63,-364.1"/>
<polygon fill="midnightblue" stroke="midnightblue" points="478.92,-404.04 489.4,-402.45 480.22,-397.16 478.92,-404.04"/>
</g>
<!-- Node17 -->
<g id="node17" class="node">
<title>Node17</title>
<g id="a_node17"><a xlink:href="../../d6/db9/GaussSeidel_8h.html" target="_top" xlink:title="This file contains the implementation of the Gauss&#45;Seidel method for solving systems of linear equati...">
<polygon fill="white" stroke="black" points="447.5,-268.5 447.5,-298.5 583.5,-298.5 583.5,-268.5 447.5,-268.5"/>
<text text-anchor="start" x="455.5" y="-286.5" font-family="Helvetica,sans-Serif" font-size="10.00">src/utils/math/relaxation</text>
<text text-anchor="middle" x="515.5" y="-275.5" font-family="Helvetica,sans-Serif" font-size="10.00">/GaussSeidel.h</text>
</a>
</g>
</g>
<!-- Node14&#45;&gt;Node17 -->
<g id="edge21" class="edge">
<title>Node14&#45;&gt;Node17</title>
<path fill="none" stroke="midnightblue" d="M573.07,-398.54C588.11,-391.5 603.88,-381.01 612.5,-366 619.36,-354.05 619.65,-346.78 612.5,-335 602.11,-317.88 583.81,-306.29 565.88,-298.58"/>
<polygon fill="midnightblue" stroke="midnightblue" points="571.68,-395.33 563.87,-402.49 574.44,-401.76 571.68,-395.33"/>
</g>
<!-- Node18 -->
<g id="node18" class="node">
<title>Node18</title>
<g id="a_node18"><a xlink:href="../../d4/dfb/LUP_8h.html" target="_top" xlink:title="LU factorization with pivoting.">
<polygon fill="white" stroke="black" points="755.5,-268.5 755.5,-298.5 903.5,-298.5 903.5,-268.5 755.5,-268.5"/>
<text text-anchor="start" x="763.5" y="-286.5" font-family="Helvetica,sans-Serif" font-size="10.00">src/utils/math/factorization</text>
<text text-anchor="middle" x="829.5" y="-275.5" font-family="Helvetica,sans-Serif" font-size="10.00">/LUP.h</text>
</a>
</g>
</g>
<!-- Node14&#45;&gt;Node18 -->
<g id="edge25" class="edge">
<title>Node14&#45;&gt;Node18</title>
<path fill="none" stroke="midnightblue" d="M569.55,-398.89C593.5,-390.18 626.18,-377.93 654.5,-366 706.85,-343.95 766.6,-315.37 800.99,-298.57"/>
<polygon fill="midnightblue" stroke="midnightblue" points="568.08,-395.7 559.87,-402.39 570.46,-402.28 568.08,-395.7"/>
</g>
<!-- Node23 -->
<g id="node23" class="node">
<title>Node23</title>
<g id="a_node23"><a xlink:href="../../d3/d3e/SOR_8h.html" target="_top" xlink:title="This file contains the implementation of the Successive Over&#45;Relaxation (SOR) method for solving syst...">
<polygon fill="white" stroke="black" points="467.5,-335.5 467.5,-365.5 603.5,-365.5 603.5,-335.5 467.5,-335.5"/>
<text text-anchor="start" x="475.5" y="-353.5" font-family="Helvetica,sans-Serif" font-size="10.00">src/utils/math/relaxation</text>
<text text-anchor="middle" x="535.5" y="-342.5" font-family="Helvetica,sans-Serif" font-size="10.00">/SOR.h</text>
</a>
</g>
</g>
<!-- Node14&#45;&gt;Node23 -->
<g id="edge33" class="edge">
<title>Node14&#45;&gt;Node23</title>
<path fill="none" stroke="midnightblue" d="M535.5,-392.23C535.5,-383.59 535.5,-373.5 535.5,-365.52"/>
<polygon fill="midnightblue" stroke="midnightblue" points="532,-392.48 535.5,-402.48 539,-392.48 532,-392.48"/>
</g>
<!-- Node24 -->
<g id="node24" class="node">
<title>Node24</title>
<g id="a_node24"><a xlink:href="../../d0/de6/SSOR_8h.html" target="_top" xlink:title="This file contains the implementation of the Symmetric Successive Over&#45;Relaxation (SSOR) method for s...">
<polygon fill="white" stroke="black" points="601.5,-268.5 601.5,-298.5 737.5,-298.5 737.5,-268.5 601.5,-268.5"/>
<text text-anchor="start" x="609.5" y="-286.5" font-family="Helvetica,sans-Serif" font-size="10.00">src/utils/math/relaxation</text>
<text text-anchor="middle" x="669.5" y="-275.5" font-family="Helvetica,sans-Serif" font-size="10.00">/SSOR.h</text>
</a>
</g>
</g>
<!-- Node14&#45;&gt;Node24 -->
<g id="edge35" class="edge">
<title>Node14&#45;&gt;Node24</title>
<path fill="none" stroke="midnightblue" d="M574.85,-398.93C593.24,-391.73 614.35,-381 629.5,-366 648.88,-346.81 660.33,-316.34 665.72,-298.6"/>
<polygon fill="midnightblue" stroke="midnightblue" points="573.42,-395.73 565.26,-402.48 575.85,-402.3 573.42,-395.73"/>
</g>
<!-- Node15&#45;&gt;Node8 -->
<g id="edge18" class="edge">
<title>Node15&#45;&gt;Node8</title>
<path fill="none" stroke="midnightblue" d="M949.34,-272.07C894.21,-261.78 816.42,-245.66 788.5,-232 768.92,-222.42 767.96,-214.04 750.5,-201 729.81,-185.55 704.84,-168.9 689.84,-159.11"/>
<polygon fill="midnightblue" stroke="midnightblue" points="948.89,-275.54 959.36,-273.92 950.16,-268.66 948.89,-275.54"/>
</g>
<!-- Node16&#45;&gt;Node12 -->
<g id="edge20" class="edge">
<title>Node16&#45;&gt;Node12</title>
<path fill="none" stroke="midnightblue" d="M218.43,-327.92C204.43,-311.52 190.67,-288.37 200.5,-268 242.31,-181.33 346.83,-122.83 400.14,-97.59"/>
<polygon fill="midnightblue" stroke="midnightblue" points="215.9,-330.34 225.21,-335.39 221.08,-325.64 215.9,-330.34"/>
</g>
<!-- Node17&#45;&gt;Node7 -->
<g id="edge22" class="edge">
<title>Node17&#45;&gt;Node7</title>
<path fill="none" stroke="midnightblue" d="M557.79,-264.3C586.91,-251.76 624.26,-235.68 646.74,-226.01"/>
<polygon fill="midnightblue" stroke="midnightblue" points="556.07,-261.23 548.26,-268.4 558.83,-267.66 556.07,-261.23"/>
</g>
<!-- Node17&#45;&gt;Node10 -->
<g id="edge23" class="edge">
<title>Node17&#45;&gt;Node10</title>
<path fill="none" stroke="midnightblue" d="M515.5,-258.11C515.5,-249.15 515.5,-239.32 515.5,-231.58"/>
<polygon fill="midnightblue" stroke="midnightblue" points="512,-258.4 515.5,-268.4 519,-258.4 512,-258.4"/>
</g>
<!-- Node18&#45;&gt;Node7 -->
<g id="edge26" class="edge">
<title>Node18&#45;&gt;Node7</title>
<path fill="none" stroke="midnightblue" d="M784.67,-264.62C753.12,-252.04 712.31,-235.77 687.83,-226.01"/>
<polygon fill="midnightblue" stroke="midnightblue" points="783.55,-267.94 794.13,-268.4 786.14,-261.44 783.55,-267.94"/>
</g>
<!-- Node18&#45;&gt;Node10 -->
<g id="edge32" class="edge">
<title>Node18&#45;&gt;Node10</title>
<path fill="none" stroke="midnightblue" d="M749.62,-266.41C701.23,-256.6 638.28,-243.74 582.5,-232 578.66,-231.19 574.69,-230.35 570.7,-229.5"/>
<polygon fill="midnightblue" stroke="midnightblue" points="749.22,-269.9 759.72,-268.46 750.61,-263.04 749.22,-269.9"/>
</g>
<!-- Node19 -->
<g id="node19" class="node">
<title>Node19</title>
<g id="a_node19"><a xlink:href="../../d7/da1/project_2project1_2Compute_8h.html" target="_top" xlink:title="Compute methods for project milestone 1 in NE591&#45;008.">
<polygon fill="white" stroke="black" points="797.5,-201.5 797.5,-231.5 907.5,-231.5 907.5,-201.5 797.5,-201.5"/>
<text text-anchor="start" x="805.5" y="-219.5" font-family="Helvetica,sans-Serif" font-size="10.00">src/project/project1</text>
<text text-anchor="middle" x="852.5" y="-208.5" font-family="Helvetica,sans-Serif" font-size="10.00">/Compute.h</text>
</a>
</g>
</g>
<!-- Node18&#45;&gt;Node19 -->
<g id="edge27" class="edge">
<title>Node18&#45;&gt;Node19</title>
<path fill="none" stroke="midnightblue" d="M837.92,-258.7C841.15,-249.59 844.72,-239.49 847.52,-231.58"/>
<polygon fill="midnightblue" stroke="midnightblue" points="834.53,-257.8 834.49,-268.4 841.13,-260.14 834.53,-257.8"/>
</g>
<!-- Node20 -->
<g id="node20" class="node">
<title>Node20</title>
<g id="a_node20"><a xlink:href="../../d0/df9/project_2project1_2Parser_8h.html" target="_top" xlink:title="This file contains the Parser class which is responsible for parsing command line arguments and valid...">
<polygon fill="white" stroke="black" points="786.5,-134.5 786.5,-164.5 896.5,-164.5 896.5,-134.5 786.5,-134.5"/>
<text text-anchor="start" x="794.5" y="-152.5" font-family="Helvetica,sans-Serif" font-size="10.00">src/project/project1</text>
<text text-anchor="middle" x="841.5" y="-141.5" font-family="Helvetica,sans-Serif" font-size="10.00">/Parser.h</text>
</a>
</g>
</g>
<!-- Node19&#45;&gt;Node20 -->
<g id="edge28" class="edge">
<title>Node19&#45;&gt;Node20</title>
<path fill="none" stroke="midnightblue" d="M848.42,-191.4C846.89,-182.37 845.21,-172.41 843.88,-164.58"/>
<polygon fill="midnightblue" stroke="midnightblue" points="844.99,-192.12 850.11,-201.4 851.9,-190.95 844.99,-192.12"/>
</g>
<!-- Node21 -->
<g id="node21" class="node">
<title>Node21</title>
<g id="a_node21"><a xlink:href="../../d3/df7/project1_8h.html" target="_top" xlink:title=" ">
<polygon fill="white" stroke="black" points="827.5,-67.5 827.5,-97.5 937.5,-97.5 937.5,-67.5 827.5,-67.5"/>
<text text-anchor="start" x="835.5" y="-85.5" font-family="Helvetica,sans-Serif" font-size="10.00">src/project/project1</text>
<text text-anchor="middle" x="882.5" y="-74.5" font-family="Helvetica,sans-Serif" font-size="10.00">/project1.h</text>
</a>
</g>
</g>
<!-- Node19&#45;&gt;Node21 -->
<g id="edge31" class="edge">
<title>Node19&#45;&gt;Node21</title>
<path fill="none" stroke="midnightblue" d="M881.98,-195.11C891.31,-186.94 900.49,-176.68 905.5,-165 915.23,-142.3 902.28,-114.29 892.23,-97.72"/>
<polygon fill="midnightblue" stroke="midnightblue" points="879.73,-192.43 874.2,-201.47 884.16,-197.85 879.73,-192.43"/>
</g>
<!-- Node20&#45;&gt;Node21 -->
<g id="edge29" class="edge">
<title>Node20&#45;&gt;Node21</title>
<path fill="none" stroke="midnightblue" d="M855.78,-125.87C861.71,-116.46 868.41,-105.83 873.62,-97.58"/>
<polygon fill="midnightblue" stroke="midnightblue" points="852.77,-124.07 850.4,-134.4 858.69,-127.81 852.77,-124.07"/>
</g>
<!-- Node22 -->
<g id="node22" class="node">
<title>Node22</title>
<g id="a_node22"><a xlink:href="../../d2/d85/project_2project1_2main_8cpp.html" target="_top" xlink:title=" ">
<polygon fill="white" stroke="black" points="827.5,-0.5 827.5,-30.5 937.5,-30.5 937.5,-0.5 827.5,-0.5"/>
<text text-anchor="start" x="835.5" y="-18.5" font-family="Helvetica,sans-Serif" font-size="10.00">src/project/project1</text>
<text text-anchor="middle" x="882.5" y="-7.5" font-family="Helvetica,sans-Serif" font-size="10.00">/main.cpp</text>
</a>
</g>
</g>
<!-- Node21&#45;&gt;Node22 -->
<g id="edge30" class="edge">
<title>Node21&#45;&gt;Node22</title>
<path fill="none" stroke="midnightblue" d="M882.5,-57.11C882.5,-48.15 882.5,-38.32 882.5,-30.58"/>
<polygon fill="midnightblue" stroke="midnightblue" points="879,-57.4 882.5,-67.4 886,-57.4 879,-57.4"/>
</g>
<!-- Node23&#45;&gt;Node17 -->
<g id="edge34" class="edge">
<title>Node23&#45;&gt;Node17</title>
<path fill="none" stroke="midnightblue" d="M528.18,-325.7C525.37,-316.59 522.27,-306.49 519.83,-298.58"/>
<polygon fill="midnightblue" stroke="midnightblue" points="524.87,-326.87 531.16,-335.4 531.56,-324.81 524.87,-326.87"/>
</g>
<!-- Node24&#45;&gt;Node7 -->
<g id="edge36" class="edge">
<title>Node24&#45;&gt;Node7</title>
<path fill="none" stroke="midnightblue" d="M668.38,-258.25C667.86,-247.02 667.28,-234.38 666.9,-226.19"/>
<polygon fill="midnightblue" stroke="midnightblue" points="664.89,-258.57 668.85,-268.4 671.88,-258.25 664.89,-258.57"/>
</g>
<!-- Node24&#45;&gt;Node10 -->
<g id="edge37" class="edge">
<title>Node24&#45;&gt;Node10</title>
<path fill="none" stroke="midnightblue" d="M626.63,-264.41C602.05,-254.03 571.64,-241.2 548.85,-231.58"/>
<polygon fill="midnightblue" stroke="midnightblue" points="625.51,-267.73 636.08,-268.4 628.23,-261.28 625.51,-267.73"/>
</g>
</g>
</svg>
