<?xml version="1.0" encoding="UTF-8" standalone="no"?>
<!DOCTYPE svg PUBLIC "-//W3C//DTD SVG 1.1//EN"
 "http://www.w3.org/Graphics/SVG/1.1/DTD/svg11.dtd">
<!-- Generated by graphviz version 2.43.0 (0)
 -->
<!-- Title: src/utils/math/relaxation/RelaxationMethods.h Pages: 1 -->
<svg width="1103pt" height="497pt"
 viewBox="0.00 0.00 1102.50 497.00" xmlns="http://www.w3.org/2000/svg" xmlns:xlink="http://www.w3.org/1999/xlink">
<g id="graph0" class="graph" transform="scale(1 1) rotate(0) translate(4 493)">
<title>src/utils/math/relaxation/RelaxationMethods.h</title>
<polygon fill="white" stroke="transparent" points="-4,4 -4,-493 1098.5,-493 1098.5,4 -4,4"/>
<!-- Node1 -->
<g id="node1" class="node">
<title>Node1</title>
<g id="a_node1"><a xlink:title="This file contains the declaration of the RelaxationMethods namespace, which includes the Type enumer...">
<polygon fill="#bfbfbf" stroke="black" points="308.5,-458.5 308.5,-488.5 444.5,-488.5 444.5,-458.5 308.5,-458.5"/>
<text text-anchor="start" x="316.5" y="-476.5" font-family="Helvetica,sans-Serif" font-size="10.00">src/utils/math/relaxation</text>
<text text-anchor="middle" x="376.5" y="-465.5" font-family="Helvetica,sans-Serif" font-size="10.00">/RelaxationMethods.h</text>
</a>
</g>
</g>
<!-- Node2 -->
<g id="node2" class="node">
<title>Node2</title>
<g id="a_node2"><a xlink:href="../../d2/dde/labs_2inlab6_2InputsOutputs_8h.html" target="_top" xlink:title="This file contains the input and output definitions for this project.">
<polygon fill="white" stroke="black" points="0,-341 0,-360 167,-360 167,-341 0,-341"/>
<text text-anchor="middle" x="83.5" y="-348" font-family="Helvetica,sans-Serif" font-size="10.00">src/labs/inlab6/InputsOutputs.h</text>
</a>
</g>
</g>
<!-- Node1&#45;&gt;Node2 -->
<g id="edge1" class="edge">
<title>Node1&#45;&gt;Node2</title>
<path fill="none" stroke="midnightblue" d="M332.89,-454.49C268.82,-428.03 151.76,-379.69 104.31,-360.09"/>
<polygon fill="midnightblue" stroke="midnightblue" points="331.74,-457.8 342.32,-458.38 334.41,-451.33 331.74,-457.8"/>
</g>
<!-- Node5 -->
<g id="node5" class="node">
<title>Node5</title>
<g id="a_node5"><a xlink:href="../../df/dbd/LinearSolver_8h.html" target="_top" xlink:title="This file contains the definition of the LinearSolver class and its associated methods.">
<polygon fill="white" stroke="black" points="405,-402.5 405,-421.5 560,-421.5 560,-402.5 405,-402.5"/>
<text text-anchor="middle" x="482.5" y="-409.5" font-family="Helvetica,sans-Serif" font-size="10.00">src/utils/math/LinearSolver.h</text>
</a>
</g>
</g>
<!-- Node1&#45;&gt;Node5 -->
<g id="edge4" class="edge">
<title>Node1&#45;&gt;Node5</title>
<path fill="none" stroke="midnightblue" d="M410.6,-453.36C429.6,-442.69 452.33,-429.93 467.08,-421.66"/>
<polygon fill="midnightblue" stroke="midnightblue" points="408.63,-450.45 401.62,-458.4 412.05,-456.56 408.63,-450.45"/>
</g>
<!-- Node20 -->
<g id="node20" class="node">
<title>Node20</title>
<g id="a_node20"><a xlink:href="../../dd/d7b/PointJacobi_8h.html" target="_top" xlink:title="This file contains the implementation of the Point Jacobi method for solving systems of linear equati...">
<polygon fill="white" stroke="black" points="313.5,-335.5 313.5,-365.5 449.5,-365.5 449.5,-335.5 313.5,-335.5"/>
<text text-anchor="start" x="321.5" y="-353.5" font-family="Helvetica,sans-Serif" font-size="10.00">src/utils/math/relaxation</text>
<text text-anchor="middle" x="381.5" y="-342.5" font-family="Helvetica,sans-Serif" font-size="10.00">/PointJacobi.h</text>
</a>
</g>
</g>
<!-- Node1&#45;&gt;Node20 -->
<g id="edge37" class="edge">
<title>Node1&#45;&gt;Node20</title>
<path fill="none" stroke="midnightblue" d="M377.51,-448.12C378.53,-423.44 380.07,-386.11 380.91,-365.84"/>
<polygon fill="midnightblue" stroke="midnightblue" points="374.01,-448.01 377.09,-458.14 381,-448.3 374.01,-448.01"/>
</g>
<!-- Node3 -->
<g id="node3" class="node">
<title>Node3</title>
<g id="a_node3"><a xlink:href="../../d8/d48/inlab6_8h.html" target="_top" xlink:title=" ">
<polygon fill="white" stroke="black" points="20,-207 20,-226 149,-226 149,-207 20,-207"/>
<text text-anchor="middle" x="84.5" y="-214" font-family="Helvetica,sans-Serif" font-size="10.00">src/labs/inlab6/inlab6.h</text>
</a>
</g>
</g>
<!-- Node2&#45;&gt;Node3 -->
<g id="edge2" class="edge">
<title>Node2&#45;&gt;Node3</title>
<path fill="none" stroke="midnightblue" d="M83.64,-330.78C83.86,-301.75 84.28,-247.04 84.44,-226.02"/>
<polygon fill="midnightblue" stroke="midnightblue" points="80.14,-330.81 83.57,-340.84 87.14,-330.87 80.14,-330.81"/>
</g>
<!-- Node4 -->
<g id="node4" class="node">
<title>Node4</title>
<g id="a_node4"><a xlink:href="../../d2/d34/labs_2inlab6_2main_8cpp.html" target="_top" xlink:title=" ">
<polygon fill="white" stroke="black" points="17,-140 17,-159 152,-159 152,-140 17,-140"/>
<text text-anchor="middle" x="84.5" y="-147" font-family="Helvetica,sans-Serif" font-size="10.00">src/labs/inlab6/main.cpp</text>
</a>
</g>
</g>
<!-- Node3&#45;&gt;Node4 -->
<g id="edge3" class="edge">
<title>Node3&#45;&gt;Node4</title>
<path fill="none" stroke="midnightblue" d="M84.5,-196.54C84.5,-184.17 84.5,-168.62 84.5,-159.13"/>
<polygon fill="midnightblue" stroke="midnightblue" points="81,-196.73 84.5,-206.73 88,-196.73 81,-196.73"/>
</g>
<!-- Node5&#45;&gt;Node2 -->
<g id="edge5" class="edge">
<title>Node5&#45;&gt;Node2</title>
<path fill="none" stroke="midnightblue" d="M413.47,-401.02C351.43,-392.01 257.85,-378.32 176.5,-366 163.9,-364.09 150.34,-362 137.58,-360.01"/>
<polygon fill="midnightblue" stroke="midnightblue" points="413.13,-404.51 423.53,-402.48 414.14,-397.58 413.13,-404.51"/>
</g>
<!-- Node6 -->
<g id="node6" class="node">
<title>Node6</title>
<g id="a_node6"><a xlink:href="../../d5/d67/labs_2outlab6_2InputsOutputs_8h.html" target="_top" xlink:title="This file contains the input and output definitions for this project.">
<polygon fill="white" stroke="black" points="920.5,-274 920.5,-293 1094.5,-293 1094.5,-274 920.5,-274"/>
<text text-anchor="middle" x="1007.5" y="-281" font-family="Helvetica,sans-Serif" font-size="10.00">src/labs/outlab6/InputsOutputs.h</text>
</a>
</g>
</g>
<!-- Node5&#45;&gt;Node6 -->
<g id="edge6" class="edge">
<title>Node5&#45;&gt;Node6</title>
<path fill="none" stroke="midnightblue" d="M545.22,-400.73C593.4,-392.45 661.47,-379.93 720.5,-366 817.04,-343.22 929.74,-308.91 980.41,-293.07"/>
<polygon fill="midnightblue" stroke="midnightblue" points="544.52,-397.29 535.25,-402.43 545.7,-404.19 544.52,-397.29"/>
</g>
<!-- Node9 -->
<g id="node9" class="node">
<title>Node9</title>
<g id="a_node9"><a xlink:href="../../dd/df8/project_2project2_2InputsOutputs_8h.html" target="_top" xlink:title="This file contains the input and output definitions for this project.">
<polygon fill="white" stroke="black" points="185.5,-335.5 185.5,-365.5 295.5,-365.5 295.5,-335.5 185.5,-335.5"/>
<text text-anchor="start" x="193.5" y="-353.5" font-family="Helvetica,sans-Serif" font-size="10.00">src/project/project2</text>
<text text-anchor="middle" x="240.5" y="-342.5" font-family="Helvetica,sans-Serif" font-size="10.00">/InputsOutputs.h</text>
</a>
</g>
</g>
<!-- Node5&#45;&gt;Node9 -->
<g id="edge9" class="edge">
<title>Node5&#45;&gt;Node9</title>
<path fill="none" stroke="midnightblue" d="M438.06,-400.07C397.96,-390.21 338.8,-375.67 295.68,-365.07"/>
<polygon fill="midnightblue" stroke="midnightblue" points="437.28,-403.49 447.83,-402.48 438.95,-396.69 437.28,-403.49"/>
</g>
<!-- Node12 -->
<g id="node12" class="node">
<title>Node12</title>
<g id="a_node12"><a xlink:href="../../d4/dfb/LUP_8h.html" target="_top" xlink:title="LU factorization with pivoting.">
<polygon fill="white" stroke="black" points="754.5,-268.5 754.5,-298.5 902.5,-298.5 902.5,-268.5 754.5,-268.5"/>
<text text-anchor="start" x="762.5" y="-286.5" font-family="Helvetica,sans-Serif" font-size="10.00">src/utils/math/factorization</text>
<text text-anchor="middle" x="828.5" y="-275.5" font-family="Helvetica,sans-Serif" font-size="10.00">/LUP.h</text>
</a>
</g>
</g>
<!-- Node5&#45;&gt;Node12 -->
<g id="edge12" class="edge">
<title>Node5&#45;&gt;Node12</title>
<path fill="none" stroke="midnightblue" d="M543.38,-400.59C581.23,-393.15 630.52,-381.66 672.5,-366 722.32,-347.42 776.48,-316.45 806.07,-298.51"/>
<polygon fill="midnightblue" stroke="midnightblue" points="542.67,-397.16 533.52,-402.49 544,-404.04 542.67,-397.16"/>
</g>
<!-- Node5&#45;&gt;Node20 -->
<g id="edge24" class="edge">
<title>Node5&#45;&gt;Node20</title>
<path fill="none" stroke="midnightblue" d="M459.2,-397.28C443.04,-387.75 421.58,-375.11 405.3,-365.52"/>
<polygon fill="midnightblue" stroke="midnightblue" points="457.64,-400.41 468.03,-402.48 461.19,-394.38 457.64,-400.41"/>
</g>
<!-- Node22 -->
<g id="node22" class="node">
<title>Node22</title>
<g id="a_node22"><a xlink:href="../../d6/db9/GaussSeidel_8h.html" target="_top" xlink:title="This file contains the implementation of the Gauss&#45;Seidel method for solving systems of linear equati...">
<polygon fill="white" stroke="black" points="446.5,-268.5 446.5,-298.5 582.5,-298.5 582.5,-268.5 446.5,-268.5"/>
<text text-anchor="start" x="454.5" y="-286.5" font-family="Helvetica,sans-Serif" font-size="10.00">src/utils/math/relaxation</text>
<text text-anchor="middle" x="514.5" y="-275.5" font-family="Helvetica,sans-Serif" font-size="10.00">/GaussSeidel.h</text>
</a>
</g>
</g>
<!-- Node5&#45;&gt;Node22 -->
<g id="edge29" class="edge">
<title>Node5&#45;&gt;Node22</title>
<path fill="none" stroke="midnightblue" d="M485.11,-392.14C487.47,-376.65 491.34,-354.21 496.5,-335 499.83,-322.59 504.8,-308.89 508.68,-298.89"/>
<polygon fill="midnightblue" stroke="midnightblue" points="481.59,-392.07 483.62,-402.47 488.52,-393.07 481.59,-392.07"/>
</g>
<!-- Node23 -->
<g id="node23" class="node">
<title>Node23</title>
<g id="a_node23"><a xlink:href="../../d3/d3e/SOR_8h.html" target="_top" xlink:title="This file contains the implementation of the Successive Over&#45;Relaxation (SOR) method for solving syst...">
<polygon fill="white" stroke="black" points="505.5,-335.5 505.5,-365.5 641.5,-365.5 641.5,-335.5 505.5,-335.5"/>
<text text-anchor="start" x="513.5" y="-353.5" font-family="Helvetica,sans-Serif" font-size="10.00">src/utils/math/relaxation</text>
<text text-anchor="middle" x="573.5" y="-342.5" font-family="Helvetica,sans-Serif" font-size="10.00">/SOR.h</text>
</a>
</g>
</g>
<!-- Node5&#45;&gt;Node23 -->
<g id="edge32" class="edge">
<title>Node5&#45;&gt;Node23</title>
<path fill="none" stroke="midnightblue" d="M504.31,-396.74C518.77,-387.28 537.67,-374.93 552.05,-365.52"/>
<polygon fill="midnightblue" stroke="midnightblue" points="501.99,-394.07 495.54,-402.48 505.82,-399.93 501.99,-394.07"/>
</g>
<!-- Node24 -->
<g id="node24" class="node">
<title>Node24</title>
<g id="a_node24"><a xlink:href="../../d0/de6/SSOR_8h.html" target="_top" xlink:title="This file contains the implementation of the Symmetric Successive Over&#45;Relaxation (SSOR) method for s...">
<polygon fill="white" stroke="black" points="600.5,-268.5 600.5,-298.5 736.5,-298.5 736.5,-268.5 600.5,-268.5"/>
<text text-anchor="start" x="608.5" y="-286.5" font-family="Helvetica,sans-Serif" font-size="10.00">src/utils/math/relaxation</text>
<text text-anchor="middle" x="668.5" y="-275.5" font-family="Helvetica,sans-Serif" font-size="10.00">/SSOR.h</text>
</a>
</g>
</g>
<!-- Node5&#45;&gt;Node24 -->
<g id="edge34" class="edge">
<title>Node5&#45;&gt;Node24</title>
<path fill="none" stroke="midnightblue" d="M570.6,-405.49C599.58,-399.4 629.68,-387.76 650.5,-366 667.93,-347.78 669.98,-316.68 669.51,-298.62"/>
<polygon fill="midnightblue" stroke="midnightblue" points="569.58,-402.12 560.41,-407.43 570.88,-409 569.58,-402.12"/>
</g>
<!-- Node7 -->
<g id="node7" class="node">
<title>Node7</title>
<g id="a_node7"><a xlink:href="../../df/df9/outlab6_8h.html" target="_top" xlink:title=" ">
<polygon fill="white" stroke="black" points="604,-140 604,-159 747,-159 747,-140 604,-140"/>
<text text-anchor="middle" x="675.5" y="-147" font-family="Helvetica,sans-Serif" font-size="10.00">src/labs/outlab6/outlab6.h</text>
</a>
</g>
</g>
<!-- Node6&#45;&gt;Node7 -->
<g id="edge7" class="edge">
<title>Node6&#45;&gt;Node7</title>
<path fill="none" stroke="midnightblue" d="M948.34,-272.07C893.21,-261.78 815.42,-245.66 787.5,-232 767.92,-222.42 766.96,-214.04 749.5,-201 728.81,-185.55 703.84,-168.9 688.84,-159.11"/>
<polygon fill="midnightblue" stroke="midnightblue" points="947.89,-275.54 958.36,-273.92 949.16,-268.66 947.89,-275.54"/>
</g>
<!-- Node8 -->
<g id="node8" class="node">
<title>Node8</title>
<g id="a_node8"><a xlink:href="../../d4/d5d/labs_2outlab6_2main_8cpp.html" target="_top" xlink:title=" ">
<polygon fill="white" stroke="black" points="604.5,-73 604.5,-92 746.5,-92 746.5,-73 604.5,-73"/>
<text text-anchor="middle" x="675.5" y="-80" font-family="Helvetica,sans-Serif" font-size="10.00">src/labs/outlab6/main.cpp</text>
</a>
</g>
</g>
<!-- Node7&#45;&gt;Node8 -->
<g id="edge8" class="edge">
<title>Node7&#45;&gt;Node8</title>
<path fill="none" stroke="midnightblue" d="M675.5,-129.54C675.5,-117.17 675.5,-101.62 675.5,-92.13"/>
<polygon fill="midnightblue" stroke="midnightblue" points="672,-129.73 675.5,-139.73 679,-129.73 672,-129.73"/>
</g>
<!-- Node10 -->
<g id="node10" class="node">
<title>Node10</title>
<g id="a_node10"><a xlink:href="../../dc/d79/project2_8h.html" target="_top" xlink:title=" ">
<polygon fill="white" stroke="black" points="376.5,-67.5 376.5,-97.5 486.5,-97.5 486.5,-67.5 376.5,-67.5"/>
<text text-anchor="start" x="384.5" y="-85.5" font-family="Helvetica,sans-Serif" font-size="10.00">src/project/project2</text>
<text text-anchor="middle" x="431.5" y="-74.5" font-family="Helvetica,sans-Serif" font-size="10.00">/project2.h</text>
</a>
</g>
</g>
<!-- Node9&#45;&gt;Node10 -->
<g id="edge10" class="edge">
<title>Node9&#45;&gt;Node10</title>
<path fill="none" stroke="midnightblue" d="M217.99,-327.98C203.71,-311.61 189.62,-288.47 199.5,-268 241.31,-181.33 345.83,-122.83 399.14,-97.59"/>
<polygon fill="midnightblue" stroke="midnightblue" points="215.54,-330.49 224.91,-335.44 220.67,-325.73 215.54,-330.49"/>
</g>
<!-- Node11 -->
<g id="node11" class="node">
<title>Node11</title>
<g id="a_node11"><a xlink:href="../../dd/d48/project_2project2_2main_8cpp.html" target="_top" xlink:title=" ">
<polygon fill="white" stroke="black" points="376.5,-0.5 376.5,-30.5 486.5,-30.5 486.5,-0.5 376.5,-0.5"/>
<text text-anchor="start" x="384.5" y="-18.5" font-family="Helvetica,sans-Serif" font-size="10.00">src/project/project2</text>
<text text-anchor="middle" x="431.5" y="-7.5" font-family="Helvetica,sans-Serif" font-size="10.00">/main.cpp</text>
</a>
</g>
</g>
<!-- Node10&#45;&gt;Node11 -->
<g id="edge11" class="edge">
<title>Node10&#45;&gt;Node11</title>
<path fill="none" stroke="midnightblue" d="M431.5,-57.11C431.5,-48.15 431.5,-38.32 431.5,-30.58"/>
<polygon fill="midnightblue" stroke="midnightblue" points="428,-57.4 431.5,-67.4 435,-57.4 428,-57.4"/>
</g>
<!-- Node13 -->
<g id="node13" class="node">
<title>Node13</title>
<g id="a_node13"><a xlink:href="../../dc/d21/labs_2outlab6_2Compute_8h.html" target="_top" xlink:title="This file contains the Compute namespace which includes methods for solving linear systems using vari...">
<polygon fill="white" stroke="black" points="590.5,-207 590.5,-226 740.5,-226 740.5,-207 590.5,-207"/>
<text text-anchor="middle" x="665.5" y="-214" font-family="Helvetica,sans-Serif" font-size="10.00">src/labs/outlab6/Compute.h</text>
</a>
</g>
</g>
<!-- Node12&#45;&gt;Node13 -->
<g id="edge13" class="edge">
<title>Node12&#45;&gt;Node13</title>
<path fill="none" stroke="midnightblue" d="M783.67,-264.62C752.12,-252.04 711.31,-235.77 686.83,-226.01"/>
<polygon fill="midnightblue" stroke="midnightblue" points="782.55,-267.94 793.13,-268.4 785.14,-261.44 782.55,-267.94"/>
</g>
<!-- Node14 -->
<g id="node14" class="node">
<title>Node14</title>
<g id="a_node14"><a xlink:href="../../d7/da1/project_2project1_2Compute_8h.html" target="_top" xlink:title="Compute methods for project milestone 1 in NE591&#45;008.">
<polygon fill="white" stroke="black" points="796.5,-201.5 796.5,-231.5 906.5,-231.5 906.5,-201.5 796.5,-201.5"/>
<text text-anchor="start" x="804.5" y="-219.5" font-family="Helvetica,sans-Serif" font-size="10.00">src/project/project1</text>
<text text-anchor="middle" x="851.5" y="-208.5" font-family="Helvetica,sans-Serif" font-size="10.00">/Compute.h</text>
</a>
</g>
</g>
<!-- Node12&#45;&gt;Node14 -->
<g id="edge15" class="edge">
<title>Node12&#45;&gt;Node14</title>
<path fill="none" stroke="midnightblue" d="M836.92,-258.7C840.15,-249.59 843.72,-239.49 846.52,-231.58"/>
<polygon fill="midnightblue" stroke="midnightblue" points="833.53,-257.8 833.49,-268.4 840.13,-260.14 833.53,-257.8"/>
</g>
<!-- Node18 -->
<g id="node18" class="node">
<title>Node18</title>
<g id="a_node18"><a xlink:href="../../db/d6e/project_2project2_2Compute_8h.html" target="_top" xlink:title="Compute methods for project milestone 1 in NE591&#45;008.">
<polygon fill="white" stroke="black" points="459.5,-201.5 459.5,-231.5 569.5,-231.5 569.5,-201.5 459.5,-201.5"/>
<text text-anchor="start" x="467.5" y="-219.5" font-family="Helvetica,sans-Serif" font-size="10.00">src/project/project2</text>
<text text-anchor="middle" x="514.5" y="-208.5" font-family="Helvetica,sans-Serif" font-size="10.00">/Compute.h</text>
</a>
</g>
</g>
<!-- Node12&#45;&gt;Node18 -->
<g id="edge20" class="edge">
<title>Node12&#45;&gt;Node18</title>
<path fill="none" stroke="midnightblue" d="M748.62,-266.41C700.23,-256.6 637.28,-243.74 581.5,-232 577.66,-231.19 573.69,-230.35 569.7,-229.5"/>
<polygon fill="midnightblue" stroke="midnightblue" points="748.22,-269.9 758.72,-268.46 749.61,-263.04 748.22,-269.9"/>
</g>
<!-- Node13&#45;&gt;Node7 -->
<g id="edge14" class="edge">
<title>Node13&#45;&gt;Node7</title>
<path fill="none" stroke="midnightblue" d="M668.42,-196.54C670.32,-184.17 672.71,-168.62 674.17,-159.13"/>
<polygon fill="midnightblue" stroke="midnightblue" points="664.91,-196.32 666.85,-206.73 671.83,-197.38 664.91,-196.32"/>
</g>
<!-- Node15 -->
<g id="node15" class="node">
<title>Node15</title>
<g id="a_node15"><a xlink:href="../../d0/df9/project_2project1_2Parser_8h.html" target="_top" xlink:title="This file contains the Parser class which is responsible for parsing command line arguments and valid...">
<polygon fill="white" stroke="black" points="836.5,-134.5 836.5,-164.5 946.5,-164.5 946.5,-134.5 836.5,-134.5"/>
<text text-anchor="start" x="844.5" y="-152.5" font-family="Helvetica,sans-Serif" font-size="10.00">src/project/project1</text>
<text text-anchor="middle" x="891.5" y="-141.5" font-family="Helvetica,sans-Serif" font-size="10.00">/Parser.h</text>
</a>
</g>
</g>
<!-- Node14&#45;&gt;Node15 -->
<g id="edge16" class="edge">
<title>Node14&#45;&gt;Node15</title>
<path fill="none" stroke="midnightblue" d="M865.43,-192.87C871.22,-183.46 877.76,-172.83 882.84,-164.58"/>
<polygon fill="midnightblue" stroke="midnightblue" points="862.44,-191.05 860.18,-201.4 868.4,-194.71 862.44,-191.05"/>
</g>
<!-- Node16 -->
<g id="node16" class="node">
<title>Node16</title>
<g id="a_node16"><a xlink:href="../../d3/df7/project1_8h.html" target="_top" xlink:title=" ">
<polygon fill="white" stroke="black" points="785.5,-67.5 785.5,-97.5 895.5,-97.5 895.5,-67.5 785.5,-67.5"/>
<text text-anchor="start" x="793.5" y="-85.5" font-family="Helvetica,sans-Serif" font-size="10.00">src/project/project1</text>
<text text-anchor="middle" x="840.5" y="-74.5" font-family="Helvetica,sans-Serif" font-size="10.00">/project1.h</text>
</a>
</g>
</g>
<!-- Node14&#45;&gt;Node16 -->
<g id="edge19" class="edge">
<title>Node14&#45;&gt;Node16</title>
<path fill="none" stroke="midnightblue" d="M837.72,-192.08C833.58,-183.81 829.59,-174.26 827.5,-165 822.24,-141.66 829.37,-114.09 834.97,-97.74"/>
<polygon fill="midnightblue" stroke="midnightblue" points="834.74,-193.93 842.54,-201.1 840.92,-190.63 834.74,-193.93"/>
</g>
<!-- Node15&#45;&gt;Node16 -->
<g id="edge17" class="edge">
<title>Node15&#45;&gt;Node16</title>
<path fill="none" stroke="midnightblue" d="M874.2,-126.45C866.71,-116.9 858.16,-106 851.54,-97.58"/>
<polygon fill="midnightblue" stroke="midnightblue" points="871.51,-128.69 880.43,-134.4 877.01,-124.37 871.51,-128.69"/>
</g>
<!-- Node17 -->
<g id="node17" class="node">
<title>Node17</title>
<g id="a_node17"><a xlink:href="../../d2/d85/project_2project1_2main_8cpp.html" target="_top" xlink:title=" ">
<polygon fill="white" stroke="black" points="785.5,-0.5 785.5,-30.5 895.5,-30.5 895.5,-0.5 785.5,-0.5"/>
<text text-anchor="start" x="793.5" y="-18.5" font-family="Helvetica,sans-Serif" font-size="10.00">src/project/project1</text>
<text text-anchor="middle" x="840.5" y="-7.5" font-family="Helvetica,sans-Serif" font-size="10.00">/main.cpp</text>
</a>
</g>
</g>
<!-- Node16&#45;&gt;Node17 -->
<g id="edge18" class="edge">
<title>Node16&#45;&gt;Node17</title>
<path fill="none" stroke="midnightblue" d="M840.5,-57.11C840.5,-48.15 840.5,-38.32 840.5,-30.58"/>
<polygon fill="midnightblue" stroke="midnightblue" points="837,-57.4 840.5,-67.4 844,-57.4 837,-57.4"/>
</g>
<!-- Node18&#45;&gt;Node10 -->
<g id="edge21" class="edge">
<title>Node18&#45;&gt;Node10</title>
<path fill="none" stroke="midnightblue" d="M480.76,-195.51C469.61,-187.35 458.12,-177 450.5,-165 437.18,-144.03 433.18,-114.71 431.99,-97.55"/>
<polygon fill="midnightblue" stroke="midnightblue" points="478.93,-198.5 489.15,-201.3 482.91,-192.74 478.93,-198.5"/>
</g>
<!-- Node19 -->
<g id="node19" class="node">
<title>Node19</title>
<g id="a_node19"><a xlink:href="../../d6/da7/project_2project2_2Parser_8h.html" target="_top" xlink:title="This file contains the Parser class which is responsible for parsing command line arguments and valid...">
<polygon fill="white" stroke="black" points="459.5,-134.5 459.5,-164.5 569.5,-164.5 569.5,-134.5 459.5,-134.5"/>
<text text-anchor="start" x="467.5" y="-152.5" font-family="Helvetica,sans-Serif" font-size="10.00">src/project/project2</text>
<text text-anchor="middle" x="514.5" y="-141.5" font-family="Helvetica,sans-Serif" font-size="10.00">/Parser.h</text>
</a>
</g>
</g>
<!-- Node18&#45;&gt;Node19 -->
<g id="edge22" class="edge">
<title>Node18&#45;&gt;Node19</title>
<path fill="none" stroke="midnightblue" d="M514.5,-191.11C514.5,-182.15 514.5,-172.32 514.5,-164.58"/>
<polygon fill="midnightblue" stroke="midnightblue" points="511,-191.4 514.5,-201.4 518,-191.4 511,-191.4"/>
</g>
<!-- Node19&#45;&gt;Node10 -->
<g id="edge23" class="edge">
<title>Node19&#45;&gt;Node10</title>
<path fill="none" stroke="midnightblue" d="M488.54,-128.17C475.85,-118.23 460.89,-106.51 449.47,-97.58"/>
<polygon fill="midnightblue" stroke="midnightblue" points="486.46,-130.99 496.49,-134.4 490.78,-125.47 486.46,-130.99"/>
</g>
<!-- Node20&#45;&gt;Node13 -->
<g id="edge27" class="edge">
<title>Node20&#45;&gt;Node13</title>
<path fill="none" stroke="midnightblue" d="M391.68,-325.94C400.94,-307.34 416.39,-282.24 437.5,-268 452.39,-257.95 555.97,-237.61 618.28,-226.04"/>
<polygon fill="midnightblue" stroke="midnightblue" points="388.4,-324.69 387.29,-335.23 394.73,-327.68 388.4,-324.69"/>
</g>
<!-- Node20&#45;&gt;Node18 -->
<g id="edge28" class="edge">
<title>Node20&#45;&gt;Node18</title>
<path fill="none" stroke="midnightblue" d="M382.99,-325.32C385.24,-307.62 390.81,-284 404.5,-268 419.12,-250.92 440.73,-239.29 460.94,-231.55"/>
<polygon fill="midnightblue" stroke="midnightblue" points="379.49,-325.15 381.97,-335.45 386.45,-325.85 379.49,-325.15"/>
</g>
<!-- Node21 -->
<g id="node21" class="node">
<title>Node21</title>
<g id="a_node21"><a xlink:href="../../dd/d66/labs_2inlab6_2Compute_8h.html" target="_top" xlink:title="This file contains the Compute namespace which includes methods for inlab6 in NE591&#45;008.">
<polygon fill="white" stroke="black" points="209,-274 209,-293 352,-293 352,-274 209,-274"/>
<text text-anchor="middle" x="280.5" y="-281" font-family="Helvetica,sans-Serif" font-size="10.00">src/labs/inlab6/Compute.h</text>
</a>
</g>
</g>
<!-- Node20&#45;&gt;Node21 -->
<g id="edge25" class="edge">
<title>Node20&#45;&gt;Node21</title>
<path fill="none" stroke="midnightblue" d="M351.16,-329.97C332.01,-317.65 308.23,-302.35 293.72,-293.01"/>
<polygon fill="midnightblue" stroke="midnightblue" points="349.28,-332.93 359.58,-335.4 353.07,-327.04 349.28,-332.93"/>
</g>
<!-- Node21&#45;&gt;Node3 -->
<g id="edge26" class="edge">
<title>Node21&#45;&gt;Node3</title>
<path fill="none" stroke="midnightblue" d="M244.62,-270.6C205.76,-257.71 144.73,-237.47 110.32,-226.06"/>
<polygon fill="midnightblue" stroke="midnightblue" points="243.88,-274.04 254.47,-273.87 246.08,-267.4 243.88,-274.04"/>
</g>
<!-- Node22&#45;&gt;Node13 -->
<g id="edge30" class="edge">
<title>Node22&#45;&gt;Node13</title>
<path fill="none" stroke="midnightblue" d="M556.79,-264.3C585.91,-251.76 623.26,-235.68 645.74,-226.01"/>
<polygon fill="midnightblue" stroke="midnightblue" points="555.07,-261.23 547.26,-268.4 557.83,-267.66 555.07,-261.23"/>
</g>
<!-- Node22&#45;&gt;Node18 -->
<g id="edge31" class="edge">
<title>Node22&#45;&gt;Node18</title>
<path fill="none" stroke="midnightblue" d="M514.5,-258.11C514.5,-249.15 514.5,-239.32 514.5,-231.58"/>
<polygon fill="midnightblue" stroke="midnightblue" points="511,-258.4 514.5,-268.4 518,-258.4 511,-258.4"/>
</g>
<!-- Node23&#45;&gt;Node22 -->
<g id="edge33" class="edge">
<title>Node23&#45;&gt;Node22</title>
<path fill="none" stroke="midnightblue" d="M553.75,-327.74C545.02,-318.12 535,-307.09 527.28,-298.58"/>
<polygon fill="midnightblue" stroke="midnightblue" points="551.39,-330.34 560.7,-335.4 556.57,-325.64 551.39,-330.34"/>
</g>
<!-- Node24&#45;&gt;Node13 -->
<g id="edge35" class="edge">
<title>Node24&#45;&gt;Node13</title>
<path fill="none" stroke="midnightblue" d="M667.38,-258.25C666.86,-247.02 666.28,-234.38 665.9,-226.19"/>
<polygon fill="midnightblue" stroke="midnightblue" points="663.89,-258.57 667.85,-268.4 670.88,-258.25 663.89,-258.57"/>
</g>
<!-- Node24&#45;&gt;Node18 -->
<g id="edge36" class="edge">
<title>Node24&#45;&gt;Node18</title>
<path fill="none" stroke="midnightblue" d="M625.63,-264.41C601.05,-254.03 570.64,-241.2 547.85,-231.58"/>
<polygon fill="midnightblue" stroke="midnightblue" points="624.51,-267.73 635.08,-268.4 627.23,-261.28 624.51,-267.73"/>
</g>
</g>
</svg>
