<?xml version="1.0" encoding="UTF-8" standalone="no"?>
<!DOCTYPE svg PUBLIC "-//W3C//DTD SVG 1.1//EN"
 "http://www.w3.org/Graphics/SVG/1.1/DTD/svg11.dtd">
<!-- Generated by graphviz version 2.43.0 (0)
 -->
<!-- Title: src/utils/math/blas/system/Circuit.h Pages: 1 -->
<svg width="559pt" height="263pt"
 viewBox="0.00 0.00 559.44 263.00" xmlns="http://www.w3.org/2000/svg" xmlns:xlink="http://www.w3.org/1999/xlink">
<g id="graph0" class="graph" transform="scale(1 1) rotate(0) translate(4 259)">
<title>src/utils/math/blas/system/Circuit.h</title>
<polygon fill="white" stroke="transparent" points="-4,4 -4,-259 555.44,-259 555.44,4 -4,4"/>
<!-- Node1 -->
<g id="node1" class="node">
<title>Node1</title>
<g id="a_node1"><a xlink:title="Header file for the Circuit function, which generates a coefficient matrix A, and vectors x,...">
<polygon fill="#bfbfbf" stroke="black" points="225.94,-224.5 225.94,-254.5 332.94,-254.5 332.94,-224.5 225.94,-224.5"/>
<text text-anchor="start" x="233.94" y="-242.5" font-family="Helvetica,sans-Serif" font-size="10.00">src/utils/math/blas</text>
<text text-anchor="middle" x="279.44" y="-231.5" font-family="Helvetica,sans-Serif" font-size="10.00">/system/Circuit.h</text>
</a>
</g>
</g>
<!-- Node2 -->
<g id="node2" class="node">
<title>Node2</title>
<g id="a_node2"><a xlink:href="../../dd/d6d/Random_8h.html" target="_top" xlink:title="This file contains the Random namespace which provides functions for generating random vectors and ma...">
<polygon fill="white" stroke="black" points="231.94,-168.5 231.94,-187.5 326.94,-187.5 326.94,-168.5 231.94,-168.5"/>
<text text-anchor="middle" x="279.44" y="-175.5" font-family="Helvetica,sans-Serif" font-size="10.00">math/Random.h</text>
</a>
</g>
</g>
<!-- Node1&#45;&gt;Node2 -->
<g id="edge1" class="edge">
<title>Node1&#45;&gt;Node2</title>
<path fill="none" stroke="midnightblue" d="M279.44,-224.4C279.44,-216.47 279.44,-206.46 279.44,-197.86"/>
<polygon fill="midnightblue" stroke="midnightblue" points="282.94,-197.66 279.44,-187.66 275.94,-197.66 282.94,-197.66"/>
</g>
<!-- Node3 -->
<g id="node3" class="node">
<title>Node3</title>
<g id="a_node3"><a xlink:title=" ">
<polygon fill="white" stroke="#bfbfbf" points="11.44,-56.5 11.44,-75.5 75.44,-75.5 75.44,-56.5 11.44,-56.5"/>
<text text-anchor="middle" x="43.44" y="-63.5" font-family="Helvetica,sans-Serif" font-size="10.00">algorithm</text>
</a>
</g>
</g>
<!-- Node1&#45;&gt;Node3 -->
<g id="edge20" class="edge">
<title>Node1&#45;&gt;Node3</title>
<path fill="none" stroke="midnightblue" d="M225.54,-224.48C177.27,-209.28 107.74,-180.46 65.44,-132 54.06,-118.97 48.51,-99.81 45.84,-85.67"/>
<polygon fill="midnightblue" stroke="midnightblue" points="49.27,-84.95 44.26,-75.61 42.35,-86.04 49.27,-84.95"/>
</g>
<!-- Node4 -->
<g id="node4" class="node">
<title>Node4</title>
<g id="a_node4"><a xlink:title=" ">
<polygon fill="white" stroke="#bfbfbf" points="331.44,-112.5 331.44,-131.5 385.44,-131.5 385.44,-112.5 331.44,-112.5"/>
<text text-anchor="middle" x="358.44" y="-119.5" font-family="Helvetica,sans-Serif" font-size="10.00">random</text>
</a>
</g>
</g>
<!-- Node1&#45;&gt;Node4 -->
<g id="edge22" class="edge">
<title>Node1&#45;&gt;Node4</title>
<path fill="none" stroke="midnightblue" d="M300.08,-224.46C312.16,-215.31 326.86,-202.43 336.44,-188 345.81,-173.89 351.55,-155.4 354.81,-141.75"/>
<polygon fill="midnightblue" stroke="midnightblue" points="358.31,-142.14 356.99,-131.63 351.47,-140.67 358.31,-142.14"/>
</g>
<!-- Node5 -->
<g id="node5" class="node">
<title>Node5</title>
<g id="a_node5"><a xlink:title=" ">
<polygon fill="white" stroke="#bfbfbf" points="100.94,-0.5 100.94,-19.5 147.94,-19.5 147.94,-0.5 100.94,-0.5"/>
<text text-anchor="middle" x="124.44" y="-7.5" font-family="Helvetica,sans-Serif" font-size="10.00">vector</text>
</a>
</g>
</g>
<!-- Node1&#45;&gt;Node5 -->
<g id="edge23" class="edge">
<title>Node1&#45;&gt;Node5</title>
<path fill="none" stroke="midnightblue" d="M225.62,-230.73C189.14,-223.68 140.92,-210.79 103.44,-188 46.16,-153.18 25.69,-138.87 2.44,-76 -12.08,-36.76 49.75,-20.82 90.67,-14.65"/>
<polygon fill="midnightblue" stroke="midnightblue" points="91.39,-18.08 100.82,-13.24 90.44,-11.14 91.39,-18.08"/>
</g>
<!-- Node6 -->
<g id="node6" class="node">
<title>Node6</title>
<g id="a_node6"><a xlink:href="../../d3/db1/Matrix_8h.html" target="_top" xlink:title="This file contains my BLAS::Matrix declarations.">
<polygon fill="white" stroke="black" points="131.44,-112.5 131.44,-131.5 275.44,-131.5 275.44,-112.5 131.44,-112.5"/>
<text text-anchor="middle" x="203.44" y="-119.5" font-family="Helvetica,sans-Serif" font-size="10.00">math/blas/matrix/Matrix.h</text>
</a>
</g>
</g>
<!-- Node1&#45;&gt;Node6 -->
<g id="edge18" class="edge">
<title>Node1&#45;&gt;Node6</title>
<path fill="none" stroke="midnightblue" d="M259.02,-224.48C247.11,-215.34 232.66,-202.46 223.44,-188 214.41,-173.85 209.24,-155.36 206.43,-141.73"/>
<polygon fill="midnightblue" stroke="midnightblue" points="209.82,-140.82 204.59,-131.61 202.93,-142.08 209.82,-140.82"/>
</g>
<!-- Node8 -->
<g id="node8" class="node">
<title>Node8</title>
<g id="a_node8"><a xlink:title=" ">
<polygon fill="white" stroke="#bfbfbf" points="491.44,-0.5 491.44,-19.5 551.44,-19.5 551.44,-0.5 491.44,-0.5"/>
<text text-anchor="middle" x="521.44" y="-7.5" font-family="Helvetica,sans-Serif" font-size="10.00">iostream</text>
</a>
</g>
</g>
<!-- Node1&#45;&gt;Node8 -->
<g id="edge21" class="edge">
<title>Node1&#45;&gt;Node8</title>
<path fill="none" stroke="midnightblue" d="M323.72,-224.46C382.32,-203.14 482.81,-156.34 522.44,-76 529.53,-61.61 528.44,-43.15 526.06,-29.58"/>
<polygon fill="midnightblue" stroke="midnightblue" points="529.43,-28.58 523.92,-19.54 522.58,-30.05 529.43,-28.58"/>
</g>
<!-- Node10 -->
<g id="node10" class="node">
<title>Node10</title>
<g id="a_node10"><a xlink:href="../../d6/dbe/Vector_8h.html" target="_top" xlink:title="This file contains my BLAS::Vector implementation.">
<polygon fill="white" stroke="black" points="351.94,-56.5 351.94,-75.5 492.94,-75.5 492.94,-56.5 351.94,-56.5"/>
<text text-anchor="middle" x="422.44" y="-63.5" font-family="Helvetica,sans-Serif" font-size="10.00">math/blas/vector/Vector.h</text>
</a>
</g>
</g>
<!-- Node1&#45;&gt;Node10 -->
<g id="edge19" class="edge">
<title>Node1&#45;&gt;Node10</title>
<path fill="none" stroke="midnightblue" d="M305.07,-224.39C320.4,-215.23 339.7,-202.34 354.44,-188 385.27,-158.01 406.16,-111.01 415.99,-85.31"/>
<polygon fill="midnightblue" stroke="midnightblue" points="419.35,-86.3 419.52,-75.71 412.78,-83.88 419.35,-86.3"/>
</g>
<!-- Node2&#45;&gt;Node3 -->
<g id="edge2" class="edge">
<title>Node2&#45;&gt;Node3</title>
<path fill="none" stroke="midnightblue" d="M231.58,-174.99C190.73,-171.22 132,-160.73 89.44,-132 72.12,-120.31 59.22,-99.77 51.55,-84.9"/>
<polygon fill="midnightblue" stroke="midnightblue" points="54.6,-83.17 47.09,-75.7 48.3,-86.22 54.6,-83.17"/>
</g>
<!-- Node2&#45;&gt;Node4 -->
<g id="edge3" class="edge">
<title>Node2&#45;&gt;Node4</title>
<path fill="none" stroke="midnightblue" d="M292.13,-168.32C304.34,-159.98 323.01,-147.21 337.44,-137.35"/>
<polygon fill="midnightblue" stroke="midnightblue" points="339.49,-140.19 345.77,-131.65 335.54,-134.41 339.49,-140.19"/>
</g>
<!-- Node2&#45;&gt;Node5 -->
<g id="edge4" class="edge">
<title>Node2&#45;&gt;Node5</title>
<path fill="none" stroke="midnightblue" d="M231.58,-169.71C190.43,-162.34 135.66,-149.55 122.44,-132 99.86,-102.05 109.74,-55.04 117.79,-29.32"/>
<polygon fill="midnightblue" stroke="midnightblue" points="121.15,-30.31 121.03,-19.71 114.52,-28.07 121.15,-30.31"/>
</g>
<!-- Node2&#45;&gt;Node6 -->
<g id="edge5" class="edge">
<title>Node2&#45;&gt;Node6</title>
<path fill="none" stroke="midnightblue" d="M267.23,-168.32C255.66,-160.11 238.06,-147.6 224.28,-137.81"/>
<polygon fill="midnightblue" stroke="midnightblue" points="226.05,-134.77 215.87,-131.83 221.99,-140.48 226.05,-134.77"/>
</g>
<!-- Node2&#45;&gt;Node10 -->
<g id="edge17" class="edge">
<title>Node2&#45;&gt;Node10</title>
<path fill="none" stroke="midnightblue" d="M283.23,-168.29C289.55,-154.65 303.47,-128.13 322.44,-112 339.93,-97.13 363.14,-86.28 382.8,-78.96"/>
<polygon fill="midnightblue" stroke="midnightblue" points="384.15,-82.2 392.41,-75.56 381.81,-75.6 384.15,-82.2"/>
</g>
<!-- Node6&#45;&gt;Node3 -->
<g id="edge6" class="edge">
<title>Node6&#45;&gt;Node3</title>
<path fill="none" stroke="midnightblue" d="M178.08,-112.44C151.17,-103.36 108.44,-88.94 78.35,-78.78"/>
<polygon fill="midnightblue" stroke="midnightblue" points="79.26,-75.4 68.67,-75.52 77.03,-82.03 79.26,-75.4"/>
</g>
<!-- Node6&#45;&gt;Node5 -->
<g id="edge9" class="edge">
<title>Node6&#45;&gt;Node5</title>
<path fill="none" stroke="midnightblue" d="M197.24,-112.37C184.2,-94.22 153.74,-51.8 136.64,-27.99"/>
<polygon fill="midnightblue" stroke="midnightblue" points="139.28,-25.67 130.61,-19.59 133.6,-29.76 139.28,-25.67"/>
</g>
<!-- Node7 -->
<g id="node7" class="node">
<title>Node7</title>
<g id="a_node7"><a xlink:title=" ">
<polygon fill="white" stroke="#bfbfbf" points="170.44,-0.5 170.44,-19.5 222.44,-19.5 222.44,-0.5 170.44,-0.5"/>
<text text-anchor="middle" x="196.44" y="-7.5" font-family="Helvetica,sans-Serif" font-size="10.00">cassert</text>
</a>
</g>
</g>
<!-- Node6&#45;&gt;Node7 -->
<g id="edge7" class="edge">
<title>Node6&#45;&gt;Node7</title>
<path fill="none" stroke="midnightblue" d="M202.27,-112.39C201.1,-103.35 199.34,-88.7 198.44,-76 197.34,-60.5 196.84,-42.87 196.62,-29.89"/>
<polygon fill="midnightblue" stroke="midnightblue" points="200.12,-29.79 196.48,-19.84 193.12,-29.89 200.12,-29.79"/>
</g>
<!-- Node6&#45;&gt;Node8 -->
<g id="edge8" class="edge">
<title>Node6&#45;&gt;Node8</title>
<path fill="none" stroke="midnightblue" d="M275.57,-114.22C358.55,-105.79 485.58,-90.72 502.44,-76 515.56,-64.54 519.86,-44.56 521.15,-29.77"/>
<polygon fill="midnightblue" stroke="midnightblue" points="524.65,-29.86 521.65,-19.7 517.66,-29.51 524.65,-29.86"/>
</g>
<!-- Node9 -->
<g id="node9" class="node">
<title>Node9</title>
<g id="a_node9"><a xlink:href="../../d1/d45/Constants_8h.html" target="_top" xlink:title="MyBLAS Constants definition.">
<polygon fill="white" stroke="black" points="207.44,-56.5 207.44,-75.5 333.44,-75.5 333.44,-56.5 207.44,-56.5"/>
<text text-anchor="middle" x="270.44" y="-63.5" font-family="Helvetica,sans-Serif" font-size="10.00">math/blas/Constants.h</text>
</a>
</g>
</g>
<!-- Node6&#45;&gt;Node9 -->
<g id="edge10" class="edge">
<title>Node6&#45;&gt;Node9</title>
<path fill="none" stroke="midnightblue" d="M214.2,-112.32C224.2,-104.26 239.32,-92.08 251.37,-82.37"/>
<polygon fill="midnightblue" stroke="midnightblue" points="253.89,-84.83 259.48,-75.83 249.49,-79.38 253.89,-84.83"/>
</g>
<!-- Node6&#45;&gt;Node10 -->
<g id="edge11" class="edge">
<title>Node6&#45;&gt;Node10</title>
<path fill="none" stroke="midnightblue" d="M238.14,-112.44C276.02,-103.1 336.78,-88.12 378.1,-77.93"/>
<polygon fill="midnightblue" stroke="midnightblue" points="379.03,-81.31 387.9,-75.52 377.35,-74.51 379.03,-81.31"/>
</g>
<!-- Node10&#45;&gt;Node5 -->
<g id="edge15" class="edge">
<title>Node10&#45;&gt;Node5</title>
<path fill="none" stroke="midnightblue" d="M366.48,-56.48C313.49,-48.14 231.78,-34.6 161.44,-20 160.37,-19.78 159.28,-19.55 158.19,-19.31"/>
<polygon fill="midnightblue" stroke="midnightblue" points="158.79,-15.86 148.27,-17.05 157.24,-22.68 158.79,-15.86"/>
</g>
<!-- Node10&#45;&gt;Node7 -->
<g id="edge16" class="edge">
<title>Node10&#45;&gt;Node7</title>
<path fill="none" stroke="midnightblue" d="M386.63,-56.44C344.43,-46.36 274.72,-29.7 232.44,-19.6"/>
<polygon fill="midnightblue" stroke="midnightblue" points="233.11,-16.16 222.57,-17.24 231.48,-22.97 233.11,-16.16"/>
</g>
<!-- Node10&#45;&gt;Node8 -->
<g id="edge14" class="edge">
<title>Node10&#45;&gt;Node8</title>
<path fill="none" stroke="midnightblue" d="M438.34,-56.32C454.07,-47.74 478.38,-34.49 496.64,-24.52"/>
<polygon fill="midnightblue" stroke="midnightblue" points="498.47,-27.52 505.57,-19.65 495.11,-21.37 498.47,-27.52"/>
</g>
<!-- Node11 -->
<g id="node11" class="node">
<title>Node11</title>
<g id="a_node11"><a xlink:title=" ">
<polygon fill="white" stroke="#bfbfbf" points="321.94,-0.5 321.94,-19.5 386.94,-19.5 386.94,-0.5 321.94,-0.5"/>
<text text-anchor="middle" x="354.44" y="-7.5" font-family="Helvetica,sans-Serif" font-size="10.00">functional</text>
</a>
</g>
</g>
<!-- Node10&#45;&gt;Node11 -->
<g id="edge12" class="edge">
<title>Node10&#45;&gt;Node11</title>
<path fill="none" stroke="midnightblue" d="M411.51,-56.32C401.26,-48.18 385.72,-35.84 373.43,-26.09"/>
<polygon fill="midnightblue" stroke="midnightblue" points="375.57,-23.31 365.56,-19.83 371.21,-28.79 375.57,-23.31"/>
</g>
<!-- Node12 -->
<g id="node12" class="node">
<title>Node12</title>
<g id="a_node12"><a xlink:title=" ">
<polygon fill="white" stroke="#bfbfbf" points="405.44,-0.5 405.44,-19.5 461.44,-19.5 461.44,-0.5 405.44,-0.5"/>
<text text-anchor="middle" x="433.44" y="-7.5" font-family="Helvetica,sans-Serif" font-size="10.00">iomanip</text>
</a>
</g>
</g>
<!-- Node10&#45;&gt;Node12 -->
<g id="edge13" class="edge">
<title>Node10&#45;&gt;Node12</title>
<path fill="none" stroke="midnightblue" d="M424.25,-56.08C425.71,-48.93 427.81,-38.64 429.63,-29.69"/>
<polygon fill="midnightblue" stroke="midnightblue" points="433.09,-30.25 431.65,-19.75 426.23,-28.85 433.09,-30.25"/>
</g>
</g>
</svg>
